{
  "header": {
    "PPQ": 384,
    "timeSignature": [
      4,
      4
    ],
    "bpm": 148.000148000148,
    "name": ""
  },
  "tempo": [
    {
      "absoluteTime": 0,
      "seconds": 0,
      "bpm": 148.000148000148
    }
  ],
  "timeSignature": [
    {
      "absoluteTime": 0,
      "seconds": 0,
      "numerator": 4,
      "denominator": 2,
      "click": 24,
      "notesQ": 8
    }
  ],
  "startTime": 0,
  "duration": 6.48648,
  "tracks": [
    {
      "startTime": 0,
      "duration": 6.3851287500000105,
      "length": 124,
      "notes": [
        {
          "name": "F#3",
          "midi": 54,
          "time": 0,
          "velocity": 0.3937007874015748,
          "duration": 0.10135125
        },
        {
          "name": "A3",
          "midi": 57,
          "time": 0,
          "velocity": 0.3937007874015748,
          "duration": 0.10135125
        },
        {
          "name": "C#4",
          "midi": 61,
          "time": 0,
          "velocity": 0.3937007874015748,
          "duration": 0.10135125
        },
        {
          "name": "G#4",
          "midi": 68,
          "time": 0,
          "velocity": 0.3937007874015748,
          "duration": 0.10135125
        },
        {
          "name": "F#3",
          "midi": 54,
          "time": 0.2027025,
          "velocity": 0.3937007874015748,
          "duration": 0.10135125
        },
        {
          "name": "A3",
          "midi": 57,
          "time": 0.2027025,
          "velocity": 0.3937007874015748,
          "duration": 0.10135125
        },
        {
          "name": "C#4",
          "midi": 61,
          "time": 0.2027025,
          "velocity": 0.3937007874015748,
          "duration": 0.10135125
        },
        {
          "name": "G#4",
          "midi": 68,
          "time": 0.2027025,
          "velocity": 0.3937007874015748,
          "duration": 0.10135125
        },
        {
          "name": "F#3",
          "midi": 54,
          "time": 0.405405,
          "velocity": 0.3937007874015748,
          "duration": 0.10135125
        },
        {
          "name": "A3",
          "midi": 57,
          "time": 0.405405,
          "velocity": 0.3937007874015748,
          "duration": 0.10135125
        },
        {
          "name": "C#4",
          "midi": 61,
          "time": 0.405405,
          "velocity": 0.3937007874015748,
          "duration": 0.10135125
        },
        {
          "name": "G#4",
          "midi": 68,
          "time": 0.405405,
          "velocity": 0.3937007874015748,
          "duration": 0.10135125
        },
        {
          "name": "F#3",
          "midi": 54,
          "time": 0.6081075,
          "velocity": 0.3937007874015748,
          "duration": 0.10135125
        },
        {
          "name": "A3",
          "midi": 57,
          "time": 0.6081075,
          "velocity": 0.3937007874015748,
          "duration": 0.10135125
        },
        {
          "name": "C#4",
          "midi": 61,
          "time": 0.6081075,
          "velocity": 0.3937007874015748,
          "duration": 0.10135125
        },
        {
          "name": "G#4",
          "midi": 68,
          "time": 0.6081075,
          "velocity": 0.3937007874015748,
          "duration": 0.10135125
        },
        {
          "name": "F#3",
          "midi": 54,
          "time": 0.81081,
          "velocity": 0.3937007874015748,
          "duration": 0.10135125
        },
        {
          "name": "A3",
          "midi": 57,
          "time": 0.81081,
          "velocity": 0.3937007874015748,
          "duration": 0.10135125
        },
        {
          "name": "C#4",
          "midi": 61,
          "time": 0.81081,
          "velocity": 0.3937007874015748,
          "duration": 0.10135125
        },
        {
          "name": "G#4",
          "midi": 68,
          "time": 0.81081,
          "velocity": 0.3937007874015748,
          "duration": 0.10135125
        },
        {
          "name": "F#3",
          "midi": 54,
          "time": 1.0135125,
          "velocity": 0.3937007874015748,
          "duration": 0.10135125
        },
        {
          "name": "A3",
          "midi": 57,
          "time": 1.0135125,
          "velocity": 0.3937007874015748,
          "duration": 0.10135125
        },
        {
          "name": "C#4",
          "midi": 61,
          "time": 1.0135125,
          "velocity": 0.3937007874015748,
          "duration": 0.10135125
        },
        {
          "name": "G#4",
          "midi": 68,
          "time": 1.0135125,
          "velocity": 0.3937007874015748,
          "duration": 0.10135125
        },
        {
          "name": "F#3",
          "midi": 54,
          "time": 1.216215,
          "velocity": 0.3937007874015748,
          "duration": 0.10135125
        },
        {
          "name": "A3",
          "midi": 57,
          "time": 1.216215,
          "velocity": 0.3937007874015748,
          "duration": 0.10135125
        },
        {
          "name": "C#4",
          "midi": 61,
          "time": 1.216215,
          "velocity": 0.3937007874015748,
          "duration": 0.10135125
        },
        {
          "name": "G#4",
          "midi": 68,
          "time": 1.216215,
          "velocity": 0.3937007874015748,
          "duration": 0.10135125
        },
        {
          "name": "F#3",
          "midi": 54,
          "time": 1.4189175,
          "velocity": 0.3937007874015748,
          "duration": 0.10135125
        },
        {
          "name": "A3",
          "midi": 57,
          "time": 1.4189175,
          "velocity": 0.3937007874015748,
          "duration": 0.10135125
        },
        {
          "name": "C#4",
          "midi": 61,
          "time": 1.4189175,
          "velocity": 0.3937007874015748,
          "duration": 0.10135125
        },
        {
          "name": "G#4",
          "midi": 68,
          "time": 1.4189175,
          "velocity": 0.3937007874015748,
          "duration": 0.10135125
        },
        {
          "name": "F#3",
          "midi": 54,
          "time": 1.62162,
          "velocity": 0.3937007874015748,
          "duration": 0.10135125
        },
        {
          "name": "A3",
          "midi": 57,
          "time": 1.62162,
          "velocity": 0.3937007874015748,
          "duration": 0.10135125
        },
        {
          "name": "C#4",
          "midi": 61,
          "time": 1.62162,
          "velocity": 0.3937007874015748,
          "duration": 0.10135125
        },
        {
          "name": "F#4",
          "midi": 66,
          "time": 1.62162,
          "velocity": 0.3937007874015748,
          "duration": 0.10135125
        },
        {
          "name": "F#3",
          "midi": 54,
          "time": 1.8243225,
          "velocity": 0.3937007874015748,
          "duration": 0.10135125
        },
        {
          "name": "A3",
          "midi": 57,
          "time": 1.8243225,
          "velocity": 0.3937007874015748,
          "duration": 0.10135125
        },
        {
          "name": "C#4",
          "midi": 61,
          "time": 1.8243225,
          "velocity": 0.3937007874015748,
          "duration": 0.10135125
        },
        {
          "name": "F#4",
          "midi": 66,
          "time": 1.8243225,
          "velocity": 0.3937007874015748,
          "duration": 0.10135125
        },
        {
          "name": "F#3",
          "midi": 54,
          "time": 2.027025,
          "velocity": 0.3937007874015748,
          "duration": 0.10135125
        },
        {
          "name": "A3",
          "midi": 57,
          "time": 2.027025,
          "velocity": 0.3937007874015748,
          "duration": 0.10135125
        },
        {
          "name": "C#4",
          "midi": 61,
          "time": 2.027025,
          "velocity": 0.3937007874015748,
          "duration": 0.10135125
        },
        {
          "name": "F#4",
          "midi": 66,
          "time": 2.027025,
          "velocity": 0.3937007874015748,
          "duration": 0.10135125
        },
        {
          "name": "F#3",
          "midi": 54,
          "time": 2.2297275,
          "velocity": 0.3937007874015748,
          "duration": 0.10135125
        },
        {
          "name": "A3",
          "midi": 57,
          "time": 2.2297275,
          "velocity": 0.3937007874015748,
          "duration": 0.10135125
        },
        {
          "name": "C#4",
          "midi": 61,
          "time": 2.2297275,
          "velocity": 0.3937007874015748,
          "duration": 0.10135125
        },
        {
          "name": "F#4",
          "midi": 66,
          "time": 2.2297275,
          "velocity": 0.3937007874015748,
          "duration": 0.10135125
        },
        {
          "name": "F#3",
          "midi": 54,
          "time": 2.43243,
          "velocity": 0.3937007874015748,
          "duration": 0.10135125
        },
        {
          "name": "A3",
          "midi": 57,
          "time": 2.43243,
          "velocity": 0.3937007874015748,
          "duration": 0.10135125
        },
        {
          "name": "C#4",
          "midi": 61,
          "time": 2.43243,
          "velocity": 0.3937007874015748,
          "duration": 0.10135125
        },
        {
          "name": "G#4",
          "midi": 68,
          "time": 2.43243,
          "velocity": 0.3937007874015748,
          "duration": 0.10135125
        },
        {
          "name": "G#3",
          "midi": 56,
          "time": 2.6351325,
          "velocity": 0.3937007874015748,
          "duration": 0.10135125
        },
        {
          "name": "G#4",
          "midi": 68,
          "time": 2.6351325,
          "velocity": 0.3937007874015748,
          "duration": 0.10135125
        },
        {
          "name": "F#3",
          "midi": 54,
          "time": 2.837835,
          "velocity": 0.3937007874015748,
          "duration": 0.10135125
        },
        {
          "name": "A3",
          "midi": 57,
          "time": 2.837835,
          "velocity": 0.3937007874015748,
          "duration": 0.10135125
        },
        {
          "name": "C#4",
          "midi": 61,
          "time": 2.837835,
          "velocity": 0.3937007874015748,
          "duration": 0.10135125
        },
        {
          "name": "G#4",
          "midi": 68,
          "time": 2.837835,
          "velocity": 0.3937007874015748,
          "duration": 0.10135125
        },
        {
          "name": "G#3",
          "midi": 56,
          "time": 3.0405375,
          "velocity": 0.3937007874015748,
          "duration": 0.10135125
        },
        {
          "name": "G#4",
          "midi": 68,
          "time": 3.0405375,
          "velocity": 0.3937007874015748,
          "duration": 0.10135125
        },
        {
          "name": "A4",
          "midi": 69,
          "time": 3.24324,
          "velocity": 0.3937007874015748,
          "duration": 0.10135125
        },
        {
          "name": "F#3",
          "midi": 54,
          "time": 3.24324,
          "velocity": 0.3937007874015748,
          "duration": 0.10135125
        },
        {
          "name": "A3",
          "midi": 57,
          "time": 3.24324,
          "velocity": 0.3937007874015748,
          "duration": 0.10135125
        },
        {
          "name": "C#4",
          "midi": 61,
          "time": 3.24324,
          "velocity": 0.3937007874015748,
          "duration": 0.10135125
        },
        {
          "name": "A4",
          "midi": 69,
          "time": 3.4459425,
          "velocity": 0.3937007874015748,
          "duration": 0.10135125
        },
        {
          "name": "F#3",
          "midi": 54,
          "time": 3.4459425,
          "velocity": 0.3937007874015748,
          "duration": 0.10135125
        },
        {
          "name": "A3",
          "midi": 57,
          "time": 3.4459425,
          "velocity": 0.3937007874015748,
          "duration": 0.10135125
        },
        {
          "name": "C#4",
          "midi": 61,
          "time": 3.4459425,
          "velocity": 0.3937007874015748,
          "duration": 0.10135125
        },
        {
          "name": "A4",
          "midi": 69,
          "time": 3.648645,
          "velocity": 0.3937007874015748,
          "duration": 0.10135125
        },
        {
          "name": "F#3",
          "midi": 54,
          "time": 3.648645,
          "velocity": 0.3937007874015748,
          "duration": 0.10135125
        },
        {
          "name": "A3",
          "midi": 57,
          "time": 3.648645,
          "velocity": 0.3937007874015748,
          "duration": 0.10135125
        },
        {
          "name": "C#4",
          "midi": 61,
          "time": 3.648645,
          "velocity": 0.3937007874015748,
          "duration": 0.10135125
        },
        {
          "name": "A4",
          "midi": 69,
          "time": 3.8513475,
          "velocity": 0.3937007874015748,
          "duration": 0.10135125
        },
        {
          "name": "F#3",
          "midi": 54,
          "time": 3.8513475,
          "velocity": 0.3937007874015748,
          "duration": 0.10135125
        },
        {
          "name": "A3",
          "midi": 57,
          "time": 3.8513475,
          "velocity": 0.3937007874015748,
          "duration": 0.10135125
        },
        {
          "name": "C#4",
          "midi": 61,
          "time": 3.8513475,
          "velocity": 0.3937007874015748,
          "duration": 0.10135125
        },
        {
          "name": "A4",
          "midi": 69,
          "time": 4.05405,
          "velocity": 0.3937007874015748,
          "duration": 0.10135125000000045
        },
        {
          "name": "F#3",
          "midi": 54,
          "time": 4.05405,
          "velocity": 0.3937007874015748,
          "duration": 0.10135125000000045
        },
        {
          "name": "A3",
          "midi": 57,
          "time": 4.05405,
          "velocity": 0.3937007874015748,
          "duration": 0.10135125000000045
        },
        {
          "name": "C#4",
          "midi": 61,
          "time": 4.05405,
          "velocity": 0.3937007874015748,
          "duration": 0.10135125000000045
        },
        {
          "name": "A4",
          "midi": 69,
          "time": 4.256752500000001,
          "velocity": 0.3937007874015748,
          "duration": 0.10135125000000045
        },
        {
          "name": "F#3",
          "midi": 54,
          "time": 4.256752500000001,
          "velocity": 0.3937007874015748,
          "duration": 0.10135125000000045
        },
        {
          "name": "A3",
          "midi": 57,
          "time": 4.256752500000001,
          "velocity": 0.3937007874015748,
          "duration": 0.10135125000000045
        },
        {
          "name": "C#4",
          "midi": 61,
          "time": 4.256752500000001,
          "velocity": 0.3937007874015748,
          "duration": 0.10135125000000045
        },
        {
          "name": "A4",
          "midi": 69,
          "time": 4.459455000000002,
          "velocity": 0.3937007874015748,
          "duration": 0.10135125000000045
        },
        {
          "name": "F#3",
          "midi": 54,
          "time": 4.459455000000002,
          "velocity": 0.3937007874015748,
          "duration": 0.10135125000000045
        },
        {
          "name": "A3",
          "midi": 57,
          "time": 4.459455000000002,
          "velocity": 0.3937007874015748,
          "duration": 0.10135125000000045
        },
        {
          "name": "C#4",
          "midi": 61,
          "time": 4.459455000000002,
          "velocity": 0.3937007874015748,
          "duration": 0.10135125000000045
        },
        {
          "name": "A4",
          "midi": 69,
          "time": 4.662157500000003,
          "velocity": 0.3937007874015748,
          "duration": 0.10135125000000045
        },
        {
          "name": "F#3",
          "midi": 54,
          "time": 4.662157500000003,
          "velocity": 0.3937007874015748,
          "duration": 0.10135125000000045
        },
        {
          "name": "A3",
          "midi": 57,
          "time": 4.662157500000003,
          "velocity": 0.3937007874015748,
          "duration": 0.10135125000000045
        },
        {
          "name": "C#4",
          "midi": 61,
          "time": 4.662157500000003,
          "velocity": 0.3937007874015748,
          "duration": 0.10135125000000045
        },
        {
          "name": "F#3",
          "midi": 54,
          "time": 4.864860000000004,
          "velocity": 0.3937007874015748,
          "duration": 0.10135125000000045
        },
        {
          "name": "A3",
          "midi": 57,
          "time": 4.864860000000004,
          "velocity": 0.3937007874015748,
          "duration": 0.10135125000000045
        },
        {
          "name": "C#4",
          "midi": 61,
          "time": 4.864860000000004,
          "velocity": 0.3937007874015748,
          "duration": 0.10135125000000045
        },
        {
          "name": "G#4",
          "midi": 68,
          "time": 4.864860000000004,
          "velocity": 0.3937007874015748,
          "duration": 0.10135125000000045
        },
        {
          "name": "F#3",
          "midi": 54,
          "time": 5.067562500000005,
          "velocity": 0.3937007874015748,
          "duration": 0.10135125000000045
        },
        {
          "name": "A3",
          "midi": 57,
          "time": 5.067562500000005,
          "velocity": 0.3937007874015748,
          "duration": 0.10135125000000045
        },
        {
          "name": "C#4",
          "midi": 61,
          "time": 5.067562500000005,
          "velocity": 0.3937007874015748,
          "duration": 0.10135125000000045
        },
        {
          "name": "G#4",
          "midi": 68,
          "time": 5.067562500000005,
          "velocity": 0.3937007874015748,
          "duration": 0.10135125000000045
        },
        {
          "name": "F#3",
          "midi": 54,
          "time": 5.2702650000000055,
          "velocity": 0.3937007874015748,
          "duration": 0.10135125000000045
        },
        {
          "name": "A3",
          "midi": 57,
          "time": 5.2702650000000055,
          "velocity": 0.3937007874015748,
          "duration": 0.10135125000000045
        },
        {
          "name": "C#4",
          "midi": 61,
          "time": 5.2702650000000055,
          "velocity": 0.3937007874015748,
          "duration": 0.10135125000000045
        },
        {
          "name": "G#4",
          "midi": 68,
          "time": 5.2702650000000055,
          "velocity": 0.3937007874015748,
          "duration": 0.10135125000000045
        },
        {
          "name": "F#3",
          "midi": 54,
          "time": 5.472967500000006,
          "velocity": 0.3937007874015748,
          "duration": 0.10135125000000045
        },
        {
          "name": "A3",
          "midi": 57,
          "time": 5.472967500000006,
          "velocity": 0.3937007874015748,
          "duration": 0.10135125000000045
        },
        {
          "name": "C#4",
          "midi": 61,
          "time": 5.472967500000006,
          "velocity": 0.3937007874015748,
          "duration": 0.10135125000000045
        },
        {
          "name": "G#4",
          "midi": 68,
          "time": 5.472967500000006,
          "velocity": 0.3937007874015748,
          "duration": 0.10135125000000045
        },
        {
          "name": "F#3",
          "midi": 54,
          "time": 5.675670000000007,
          "velocity": 0.3937007874015748,
          "duration": 0.10135125000000045
        },
        {
          "name": "A3",
          "midi": 57,
          "time": 5.675670000000007,
          "velocity": 0.3937007874015748,
          "duration": 0.10135125000000045
        },
        {
          "name": "C#4",
          "midi": 61,
          "time": 5.675670000000007,
          "velocity": 0.3937007874015748,
          "duration": 0.10135125000000045
        },
        {
          "name": "F#4",
          "midi": 66,
          "time": 5.675670000000007,
          "velocity": 0.3937007874015748,
          "duration": 0.10135125000000045
        },
        {
          "name": "F#3",
          "midi": 54,
          "time": 5.878372500000008,
          "velocity": 0.3937007874015748,
          "duration": 0.10135125000000045
        },
        {
          "name": "A3",
          "midi": 57,
          "time": 5.878372500000008,
          "velocity": 0.3937007874015748,
          "duration": 0.10135125000000045
        },
        {
          "name": "C#4",
          "midi": 61,
          "time": 5.878372500000008,
          "velocity": 0.3937007874015748,
          "duration": 0.10135125000000045
        },
        {
          "name": "F#4",
          "midi": 66,
          "time": 5.878372500000008,
          "velocity": 0.3937007874015748,
          "duration": 0.10135125000000045
        },
        {
          "name": "F#3",
          "midi": 54,
          "time": 6.081075000000009,
          "velocity": 0.3937007874015748,
          "duration": 0.10135125000000045
        },
        {
          "name": "A3",
          "midi": 57,
          "time": 6.081075000000009,
          "velocity": 0.3937007874015748,
          "duration": 0.10135125000000045
        },
        {
          "name": "C#4",
          "midi": 61,
          "time": 6.081075000000009,
          "velocity": 0.3937007874015748,
          "duration": 0.10135125000000045
        },
        {
          "name": "F#4",
          "midi": 66,
          "time": 6.081075000000009,
          "velocity": 0.3937007874015748,
          "duration": 0.10135125000000045
        },
        {
          "name": "F#3",
          "midi": 54,
          "time": 6.28377750000001,
          "velocity": 0.3937007874015748,
          "duration": 0.10135125000000045
        },
        {
          "name": "A3",
          "midi": 57,
          "time": 6.28377750000001,
          "velocity": 0.3937007874015748,
          "duration": 0.10135125000000045
        },
        {
          "name": "C#4",
          "midi": 61,
          "time": 6.28377750000001,
          "velocity": 0.3937007874015748,
          "duration": 0.10135125000000045
        },
        {
          "name": "F#4",
          "midi": 66,
          "time": 6.28377750000001,
          "velocity": 0.3937007874015748,
          "duration": 0.10135125000000045
        }
      ],
      "controlChanges": {},
      "id": 0,
      "name": "Scifi",
      "instrumentNumber": 99,
      "instrument": "fx 4 (atmosphere)",
      "instrumentFamily": "synth effects",
      "channelNumber": 0,
      "isPercussion": false
    },
    {
      "startTime": 0,
      "duration": 6.3851287500000105,
      "length": 124,
      "notes": [
        {
          "name": "F#2",
          "midi": 42,
          "time": 0,
          "velocity": 0.18110236220472442,
          "duration": 0.10135125
        },
        {
          "name": "A2",
          "midi": 45,
          "time": 0,
          "velocity": 0.18110236220472442,
          "duration": 0.10135125
        },
        {
          "name": "C#3",
          "midi": 49,
          "time": 0,
          "velocity": 0.18110236220472442,
          "duration": 0.10135125
        },
        {
          "name": "G#3",
          "midi": 56,
          "time": 0,
          "velocity": 0.18110236220472442,
          "duration": 0.10135125
        },
        {
          "name": "F#2",
          "midi": 42,
          "time": 0.2027025,
          "velocity": 0.18110236220472442,
          "duration": 0.10135125
        },
        {
          "name": "A2",
          "midi": 45,
          "time": 0.2027025,
          "velocity": 0.18110236220472442,
          "duration": 0.10135125
        },
        {
          "name": "C#3",
          "midi": 49,
          "time": 0.2027025,
          "velocity": 0.18110236220472442,
          "duration": 0.10135125
        },
        {
          "name": "G#3",
          "midi": 56,
          "time": 0.2027025,
          "velocity": 0.18110236220472442,
          "duration": 0.10135125
        },
        {
          "name": "F#2",
          "midi": 42,
          "time": 0.405405,
          "velocity": 0.18110236220472442,
          "duration": 0.10135125
        },
        {
          "name": "A2",
          "midi": 45,
          "time": 0.405405,
          "velocity": 0.18110236220472442,
          "duration": 0.10135125
        },
        {
          "name": "C#3",
          "midi": 49,
          "time": 0.405405,
          "velocity": 0.18110236220472442,
          "duration": 0.10135125
        },
        {
          "name": "G#3",
          "midi": 56,
          "time": 0.405405,
          "velocity": 0.18110236220472442,
          "duration": 0.10135125
        },
        {
          "name": "F#2",
          "midi": 42,
          "time": 0.6081075,
          "velocity": 0.18110236220472442,
          "duration": 0.10135125
        },
        {
          "name": "A2",
          "midi": 45,
          "time": 0.6081075,
          "velocity": 0.18110236220472442,
          "duration": 0.10135125
        },
        {
          "name": "C#3",
          "midi": 49,
          "time": 0.6081075,
          "velocity": 0.18110236220472442,
          "duration": 0.10135125
        },
        {
          "name": "G#3",
          "midi": 56,
          "time": 0.6081075,
          "velocity": 0.18110236220472442,
          "duration": 0.10135125
        },
        {
          "name": "F#2",
          "midi": 42,
          "time": 0.81081,
          "velocity": 0.18110236220472442,
          "duration": 0.10135125
        },
        {
          "name": "A2",
          "midi": 45,
          "time": 0.81081,
          "velocity": 0.18110236220472442,
          "duration": 0.10135125
        },
        {
          "name": "C#3",
          "midi": 49,
          "time": 0.81081,
          "velocity": 0.18110236220472442,
          "duration": 0.10135125
        },
        {
          "name": "G#3",
          "midi": 56,
          "time": 0.81081,
          "velocity": 0.18110236220472442,
          "duration": 0.10135125
        },
        {
          "name": "F#2",
          "midi": 42,
          "time": 1.0135125,
          "velocity": 0.18110236220472442,
          "duration": 0.10135125
        },
        {
          "name": "A2",
          "midi": 45,
          "time": 1.0135125,
          "velocity": 0.18110236220472442,
          "duration": 0.10135125
        },
        {
          "name": "C#3",
          "midi": 49,
          "time": 1.0135125,
          "velocity": 0.18110236220472442,
          "duration": 0.10135125
        },
        {
          "name": "G#3",
          "midi": 56,
          "time": 1.0135125,
          "velocity": 0.18110236220472442,
          "duration": 0.10135125
        },
        {
          "name": "F#2",
          "midi": 42,
          "time": 1.216215,
          "velocity": 0.18110236220472442,
          "duration": 0.10135125
        },
        {
          "name": "A2",
          "midi": 45,
          "time": 1.216215,
          "velocity": 0.18110236220472442,
          "duration": 0.10135125
        },
        {
          "name": "C#3",
          "midi": 49,
          "time": 1.216215,
          "velocity": 0.18110236220472442,
          "duration": 0.10135125
        },
        {
          "name": "G#3",
          "midi": 56,
          "time": 1.216215,
          "velocity": 0.18110236220472442,
          "duration": 0.10135125
        },
        {
          "name": "F#2",
          "midi": 42,
          "time": 1.4189175,
          "velocity": 0.18110236220472442,
          "duration": 0.10135125
        },
        {
          "name": "A2",
          "midi": 45,
          "time": 1.4189175,
          "velocity": 0.18110236220472442,
          "duration": 0.10135125
        },
        {
          "name": "C#3",
          "midi": 49,
          "time": 1.4189175,
          "velocity": 0.18110236220472442,
          "duration": 0.10135125
        },
        {
          "name": "G#3",
          "midi": 56,
          "time": 1.4189175,
          "velocity": 0.18110236220472442,
          "duration": 0.10135125
        },
        {
          "name": "F#2",
          "midi": 42,
          "time": 1.62162,
          "velocity": 0.18110236220472442,
          "duration": 0.10135125
        },
        {
          "name": "A2",
          "midi": 45,
          "time": 1.62162,
          "velocity": 0.18110236220472442,
          "duration": 0.10135125
        },
        {
          "name": "C#3",
          "midi": 49,
          "time": 1.62162,
          "velocity": 0.18110236220472442,
          "duration": 0.10135125
        },
        {
          "name": "F#3",
          "midi": 54,
          "time": 1.62162,
          "velocity": 0.18110236220472442,
          "duration": 0.10135125
        },
        {
          "name": "F#2",
          "midi": 42,
          "time": 1.8243225,
          "velocity": 0.18110236220472442,
          "duration": 0.10135125
        },
        {
          "name": "A2",
          "midi": 45,
          "time": 1.8243225,
          "velocity": 0.18110236220472442,
          "duration": 0.10135125
        },
        {
          "name": "C#3",
          "midi": 49,
          "time": 1.8243225,
          "velocity": 0.18110236220472442,
          "duration": 0.10135125
        },
        {
          "name": "F#3",
          "midi": 54,
          "time": 1.8243225,
          "velocity": 0.18110236220472442,
          "duration": 0.10135125
        },
        {
          "name": "F#2",
          "midi": 42,
          "time": 2.027025,
          "velocity": 0.18110236220472442,
          "duration": 0.10135125
        },
        {
          "name": "A2",
          "midi": 45,
          "time": 2.027025,
          "velocity": 0.18110236220472442,
          "duration": 0.10135125
        },
        {
          "name": "C#3",
          "midi": 49,
          "time": 2.027025,
          "velocity": 0.18110236220472442,
          "duration": 0.10135125
        },
        {
          "name": "F#3",
          "midi": 54,
          "time": 2.027025,
          "velocity": 0.18110236220472442,
          "duration": 0.10135125
        },
        {
          "name": "F#2",
          "midi": 42,
          "time": 2.2297275,
          "velocity": 0.18110236220472442,
          "duration": 0.10135125
        },
        {
          "name": "A2",
          "midi": 45,
          "time": 2.2297275,
          "velocity": 0.18110236220472442,
          "duration": 0.10135125
        },
        {
          "name": "C#3",
          "midi": 49,
          "time": 2.2297275,
          "velocity": 0.18110236220472442,
          "duration": 0.10135125
        },
        {
          "name": "F#3",
          "midi": 54,
          "time": 2.2297275,
          "velocity": 0.18110236220472442,
          "duration": 0.10135125
        },
        {
          "name": "F#2",
          "midi": 42,
          "time": 2.43243,
          "velocity": 0.18110236220472442,
          "duration": 0.10135125
        },
        {
          "name": "A2",
          "midi": 45,
          "time": 2.43243,
          "velocity": 0.18110236220472442,
          "duration": 0.10135125
        },
        {
          "name": "C#3",
          "midi": 49,
          "time": 2.43243,
          "velocity": 0.18110236220472442,
          "duration": 0.10135125
        },
        {
          "name": "G#3",
          "midi": 56,
          "time": 2.43243,
          "velocity": 0.18110236220472442,
          "duration": 0.10135125
        },
        {
          "name": "G#2",
          "midi": 44,
          "time": 2.6351325,
          "velocity": 0.18110236220472442,
          "duration": 0.10135125
        },
        {
          "name": "G#3",
          "midi": 56,
          "time": 2.6351325,
          "velocity": 0.18110236220472442,
          "duration": 0.10135125
        },
        {
          "name": "F#2",
          "midi": 42,
          "time": 2.837835,
          "velocity": 0.18110236220472442,
          "duration": 0.10135125
        },
        {
          "name": "A2",
          "midi": 45,
          "time": 2.837835,
          "velocity": 0.18110236220472442,
          "duration": 0.10135125
        },
        {
          "name": "C#3",
          "midi": 49,
          "time": 2.837835,
          "velocity": 0.18110236220472442,
          "duration": 0.10135125
        },
        {
          "name": "G#3",
          "midi": 56,
          "time": 2.837835,
          "velocity": 0.18110236220472442,
          "duration": 0.10135125
        },
        {
          "name": "G#2",
          "midi": 44,
          "time": 3.0405375,
          "velocity": 0.18110236220472442,
          "duration": 0.10135125
        },
        {
          "name": "G#3",
          "midi": 56,
          "time": 3.0405375,
          "velocity": 0.18110236220472442,
          "duration": 0.10135125
        },
        {
          "name": "A3",
          "midi": 57,
          "time": 3.24324,
          "velocity": 0.18110236220472442,
          "duration": 0.10135125
        },
        {
          "name": "F#2",
          "midi": 42,
          "time": 3.24324,
          "velocity": 0.18110236220472442,
          "duration": 0.10135125
        },
        {
          "name": "A2",
          "midi": 45,
          "time": 3.24324,
          "velocity": 0.18110236220472442,
          "duration": 0.10135125
        },
        {
          "name": "C#3",
          "midi": 49,
          "time": 3.24324,
          "velocity": 0.18110236220472442,
          "duration": 0.10135125
        },
        {
          "name": "A3",
          "midi": 57,
          "time": 3.4459425,
          "velocity": 0.18110236220472442,
          "duration": 0.10135125
        },
        {
          "name": "F#2",
          "midi": 42,
          "time": 3.4459425,
          "velocity": 0.18110236220472442,
          "duration": 0.10135125
        },
        {
          "name": "A2",
          "midi": 45,
          "time": 3.4459425,
          "velocity": 0.18110236220472442,
          "duration": 0.10135125
        },
        {
          "name": "C#3",
          "midi": 49,
          "time": 3.4459425,
          "velocity": 0.18110236220472442,
          "duration": 0.10135125
        },
        {
          "name": "A3",
          "midi": 57,
          "time": 3.648645,
          "velocity": 0.18110236220472442,
          "duration": 0.10135125
        },
        {
          "name": "F#2",
          "midi": 42,
          "time": 3.648645,
          "velocity": 0.18110236220472442,
          "duration": 0.10135125
        },
        {
          "name": "A2",
          "midi": 45,
          "time": 3.648645,
          "velocity": 0.18110236220472442,
          "duration": 0.10135125
        },
        {
          "name": "C#3",
          "midi": 49,
          "time": 3.648645,
          "velocity": 0.18110236220472442,
          "duration": 0.10135125
        },
        {
          "name": "A3",
          "midi": 57,
          "time": 3.8513475,
          "velocity": 0.18110236220472442,
          "duration": 0.10135125
        },
        {
          "name": "F#2",
          "midi": 42,
          "time": 3.8513475,
          "velocity": 0.18110236220472442,
          "duration": 0.10135125
        },
        {
          "name": "A2",
          "midi": 45,
          "time": 3.8513475,
          "velocity": 0.18110236220472442,
          "duration": 0.10135125
        },
        {
          "name": "C#3",
          "midi": 49,
          "time": 3.8513475,
          "velocity": 0.18110236220472442,
          "duration": 0.10135125
        },
        {
          "name": "A3",
          "midi": 57,
          "time": 4.05405,
          "velocity": 0.18110236220472442,
          "duration": 0.10135125000000045
        },
        {
          "name": "F#2",
          "midi": 42,
          "time": 4.05405,
          "velocity": 0.18110236220472442,
          "duration": 0.10135125000000045
        },
        {
          "name": "A2",
          "midi": 45,
          "time": 4.05405,
          "velocity": 0.18110236220472442,
          "duration": 0.10135125000000045
        },
        {
          "name": "C#3",
          "midi": 49,
          "time": 4.05405,
          "velocity": 0.18110236220472442,
          "duration": 0.10135125000000045
        },
        {
          "name": "A3",
          "midi": 57,
          "time": 4.256752500000001,
          "velocity": 0.18110236220472442,
          "duration": 0.10135125000000045
        },
        {
          "name": "F#2",
          "midi": 42,
          "time": 4.256752500000001,
          "velocity": 0.18110236220472442,
          "duration": 0.10135125000000045
        },
        {
          "name": "A2",
          "midi": 45,
          "time": 4.256752500000001,
          "velocity": 0.18110236220472442,
          "duration": 0.10135125000000045
        },
        {
          "name": "C#3",
          "midi": 49,
          "time": 4.256752500000001,
          "velocity": 0.18110236220472442,
          "duration": 0.10135125000000045
        },
        {
          "name": "A3",
          "midi": 57,
          "time": 4.459455000000002,
          "velocity": 0.18110236220472442,
          "duration": 0.10135125000000045
        },
        {
          "name": "F#2",
          "midi": 42,
          "time": 4.459455000000002,
          "velocity": 0.18110236220472442,
          "duration": 0.10135125000000045
        },
        {
          "name": "A2",
          "midi": 45,
          "time": 4.459455000000002,
          "velocity": 0.18110236220472442,
          "duration": 0.10135125000000045
        },
        {
          "name": "C#3",
          "midi": 49,
          "time": 4.459455000000002,
          "velocity": 0.18110236220472442,
          "duration": 0.10135125000000045
        },
        {
          "name": "A3",
          "midi": 57,
          "time": 4.662157500000003,
          "velocity": 0.18110236220472442,
          "duration": 0.10135125000000045
        },
        {
          "name": "F#2",
          "midi": 42,
          "time": 4.662157500000003,
          "velocity": 0.18110236220472442,
          "duration": 0.10135125000000045
        },
        {
          "name": "A2",
          "midi": 45,
          "time": 4.662157500000003,
          "velocity": 0.18110236220472442,
          "duration": 0.10135125000000045
        },
        {
          "name": "C#3",
          "midi": 49,
          "time": 4.662157500000003,
          "velocity": 0.18110236220472442,
          "duration": 0.10135125000000045
        },
        {
          "name": "F#2",
          "midi": 42,
          "time": 4.864860000000004,
          "velocity": 0.18110236220472442,
          "duration": 0.10135125000000045
        },
        {
          "name": "A2",
          "midi": 45,
          "time": 4.864860000000004,
          "velocity": 0.18110236220472442,
          "duration": 0.10135125000000045
        },
        {
          "name": "C#3",
          "midi": 49,
          "time": 4.864860000000004,
          "velocity": 0.18110236220472442,
          "duration": 0.10135125000000045
        },
        {
          "name": "G#3",
          "midi": 56,
          "time": 4.864860000000004,
          "velocity": 0.18110236220472442,
          "duration": 0.10135125000000045
        },
        {
          "name": "F#2",
          "midi": 42,
          "time": 5.067562500000005,
          "velocity": 0.18110236220472442,
          "duration": 0.10135125000000045
        },
        {
          "name": "A2",
          "midi": 45,
          "time": 5.067562500000005,
          "velocity": 0.18110236220472442,
          "duration": 0.10135125000000045
        },
        {
          "name": "C#3",
          "midi": 49,
          "time": 5.067562500000005,
          "velocity": 0.18110236220472442,
          "duration": 0.10135125000000045
        },
        {
          "name": "G#3",
          "midi": 56,
          "time": 5.067562500000005,
          "velocity": 0.18110236220472442,
          "duration": 0.10135125000000045
        },
        {
          "name": "F#2",
          "midi": 42,
          "time": 5.2702650000000055,
          "velocity": 0.18110236220472442,
          "duration": 0.10135125000000045
        },
        {
          "name": "A2",
          "midi": 45,
          "time": 5.2702650000000055,
          "velocity": 0.18110236220472442,
          "duration": 0.10135125000000045
        },
        {
          "name": "C#3",
          "midi": 49,
          "time": 5.2702650000000055,
          "velocity": 0.18110236220472442,
          "duration": 0.10135125000000045
        },
        {
          "name": "G#3",
          "midi": 56,
          "time": 5.2702650000000055,
          "velocity": 0.18110236220472442,
          "duration": 0.10135125000000045
        },
        {
          "name": "F#2",
          "midi": 42,
          "time": 5.472967500000006,
          "velocity": 0.18110236220472442,
          "duration": 0.10135125000000045
        },
        {
          "name": "A2",
          "midi": 45,
          "time": 5.472967500000006,
          "velocity": 0.18110236220472442,
          "duration": 0.10135125000000045
        },
        {
          "name": "C#3",
          "midi": 49,
          "time": 5.472967500000006,
          "velocity": 0.18110236220472442,
          "duration": 0.10135125000000045
        },
        {
          "name": "G#3",
          "midi": 56,
          "time": 5.472967500000006,
          "velocity": 0.18110236220472442,
          "duration": 0.10135125000000045
        },
        {
          "name": "F#2",
          "midi": 42,
          "time": 5.675670000000007,
          "velocity": 0.18110236220472442,
          "duration": 0.10135125000000045
        },
        {
          "name": "A2",
          "midi": 45,
          "time": 5.675670000000007,
          "velocity": 0.18110236220472442,
          "duration": 0.10135125000000045
        },
        {
          "name": "C#3",
          "midi": 49,
          "time": 5.675670000000007,
          "velocity": 0.18110236220472442,
          "duration": 0.10135125000000045
        },
        {
          "name": "F#3",
          "midi": 54,
          "time": 5.675670000000007,
          "velocity": 0.18110236220472442,
          "duration": 0.10135125000000045
        },
        {
          "name": "F#2",
          "midi": 42,
          "time": 5.878372500000008,
          "velocity": 0.18110236220472442,
          "duration": 0.10135125000000045
        },
        {
          "name": "A2",
          "midi": 45,
          "time": 5.878372500000008,
          "velocity": 0.18110236220472442,
          "duration": 0.10135125000000045
        },
        {
          "name": "C#3",
          "midi": 49,
          "time": 5.878372500000008,
          "velocity": 0.18110236220472442,
          "duration": 0.10135125000000045
        },
        {
          "name": "F#3",
          "midi": 54,
          "time": 5.878372500000008,
          "velocity": 0.18110236220472442,
          "duration": 0.10135125000000045
        },
        {
          "name": "F#2",
          "midi": 42,
          "time": 6.081075000000009,
          "velocity": 0.18110236220472442,
          "duration": 0.10135125000000045
        },
        {
          "name": "A2",
          "midi": 45,
          "time": 6.081075000000009,
          "velocity": 0.18110236220472442,
          "duration": 0.10135125000000045
        },
        {
          "name": "C#3",
          "midi": 49,
          "time": 6.081075000000009,
          "velocity": 0.18110236220472442,
          "duration": 0.10135125000000045
        },
        {
          "name": "F#3",
          "midi": 54,
          "time": 6.081075000000009,
          "velocity": 0.18110236220472442,
          "duration": 0.10135125000000045
        },
        {
          "name": "F#2",
          "midi": 42,
          "time": 6.28377750000001,
          "velocity": 0.18110236220472442,
          "duration": 0.10135125000000045
        },
        {
          "name": "A2",
          "midi": 45,
          "time": 6.28377750000001,
          "velocity": 0.18110236220472442,
          "duration": 0.10135125000000045
        },
        {
          "name": "C#3",
          "midi": 49,
          "time": 6.28377750000001,
          "velocity": 0.18110236220472442,
          "duration": 0.10135125000000045
        },
        {
          "name": "F#3",
          "midi": 54,
          "time": 6.28377750000001,
          "velocity": 0.18110236220472442,
          "duration": 0.10135125000000045
        }
      ],
      "controlChanges": {},
      "id": 1,
      "name": "Synth Pluck",
      "instrumentNumber": 87,
      "instrument": "lead 8 (bass + lead)",
      "instrumentFamily": "synth lead",
      "channelNumber": 1,
      "isPercussion": false
    },
    {
      "startTime": 0,
      "duration": 6.385128750000007,
      "length": 54,
      "notes": [
        {
          "name": "F#2",
          "midi": 42,
          "time": 0,
          "velocity": 0.2677165354330709,
          "duration": 0.10135125
        },
        {
          "name": "F#2",
          "midi": 42,
          "time": 0.2027025,
          "velocity": 0.2677165354330709,
          "duration": 0.10135125
        },
        {
          "name": "F#2",
          "midi": 42,
          "time": 0.405405,
          "velocity": 0.2677165354330709,
          "duration": 0.10135125
        },
        {
          "name": "F#2",
          "midi": 42,
          "time": 0.50675625,
          "velocity": 0.2677165354330709,
          "duration": 0.10135125
        },
        {
          "name": "F#2",
          "midi": 42,
          "time": 0.6081075,
          "velocity": 0.2677165354330709,
          "duration": 0.10135125
        },
        {
          "name": "B1",
          "midi": 35,
          "time": 0.6081075,
          "velocity": 0.11811023622047244,
          "duration": 0.10135125
        },
        {
          "name": "F#2",
          "midi": 42,
          "time": 0.70945875,
          "velocity": 0.2677165354330709,
          "duration": 0.10135125
        },
        {
          "name": "D#2",
          "midi": 39,
          "time": 0.81081,
          "velocity": 0.4330708661417323,
          "duration": 0.10135125
        },
        {
          "name": "D2",
          "midi": 38,
          "time": 0.81081,
          "velocity": 0.2677165354330709,
          "duration": 0.10135125
        },
        {
          "name": "F#2",
          "midi": 42,
          "time": 0.81081,
          "velocity": 0.2677165354330709,
          "duration": 0.10135125
        },
        {
          "name": "F#2",
          "midi": 42,
          "time": 1.0135125,
          "velocity": 0.2677165354330709,
          "duration": 0.10135125
        },
        {
          "name": "G#1",
          "midi": 32,
          "time": 1.0135125,
          "velocity": 0.2677165354330709,
          "duration": 0.10135125
        },
        {
          "name": "F#2",
          "midi": 42,
          "time": 1.216215,
          "velocity": 0.2677165354330709,
          "duration": 0.10135125
        },
        {
          "name": "A#2",
          "midi": 46,
          "time": 1.216215,
          "velocity": 0.23622047244094488,
          "duration": 0.10135125
        },
        {
          "name": "F#2",
          "midi": 42,
          "time": 1.4189175,
          "velocity": 0.2677165354330709,
          "duration": 0.10135125
        },
        {
          "name": "D2",
          "midi": 38,
          "time": 1.4189175,
          "velocity": 0.23622047244094488,
          "duration": 0.10135125
        },
        {
          "name": "D2",
          "midi": 38,
          "time": 1.4189175,
          "velocity": 0.2677165354330709,
          "duration": 0.10135125
        },
        {
          "name": "F#2",
          "midi": 42,
          "time": 1.62162,
          "velocity": 0.2677165354330709,
          "duration": 0.10135125
        },
        {
          "name": "F#2",
          "midi": 42,
          "time": 1.8243225,
          "velocity": 0.2677165354330709,
          "duration": 0.10135125
        },
        {
          "name": "F#2",
          "midi": 42,
          "time": 2.027025,
          "velocity": 0.2677165354330709,
          "duration": 0.10135125
        },
        {
          "name": "F#2",
          "midi": 42,
          "time": 2.12837625,
          "velocity": 0.2677165354330709,
          "duration": 0.10135125
        },
        {
          "name": "F#2",
          "midi": 42,
          "time": 2.2297275,
          "velocity": 0.2677165354330709,
          "duration": 0.10135125
        },
        {
          "name": "D#2",
          "midi": 39,
          "time": 2.43243,
          "velocity": 0.4330708661417323,
          "duration": 0.10135125
        },
        {
          "name": "D2",
          "midi": 38,
          "time": 2.43243,
          "velocity": 0.2677165354330709,
          "duration": 0.10135125
        },
        {
          "name": "F#2",
          "midi": 42,
          "time": 2.43243,
          "velocity": 0.2677165354330709,
          "duration": 0.10135125
        },
        {
          "name": "F#2",
          "midi": 42,
          "time": 2.6351325,
          "velocity": 0.2677165354330709,
          "duration": 0.10135125
        },
        {
          "name": "G#1",
          "midi": 32,
          "time": 2.6351325,
          "velocity": 0.2677165354330709,
          "duration": 0.10135125
        },
        {
          "name": "F#2",
          "midi": 42,
          "time": 2.837835,
          "velocity": 0.2677165354330709,
          "duration": 0.10135125
        },
        {
          "name": "F#2",
          "midi": 42,
          "time": 3.0405375,
          "velocity": 0.2677165354330709,
          "duration": 0.10135125
        },
        {
          "name": "B1",
          "midi": 35,
          "time": 3.0405375,
          "velocity": 0.15748031496062992,
          "duration": 0.10135125
        },
        {
          "name": "F#2",
          "midi": 42,
          "time": 3.24324,
          "velocity": 0.2677165354330709,
          "duration": 0.10135125
        },
        {
          "name": "F#2",
          "midi": 42,
          "time": 3.34459125,
          "velocity": 0.23622047244094488,
          "duration": 0.10135125
        },
        {
          "name": "F#2",
          "midi": 42,
          "time": 3.4459425,
          "velocity": 0.2677165354330709,
          "duration": 0.10135125
        },
        {
          "name": "F#2",
          "midi": 42,
          "time": 3.648645,
          "velocity": 0.2677165354330709,
          "duration": 0.10135125
        },
        {
          "name": "F#2",
          "midi": 42,
          "time": 3.8513475,
          "velocity": 0.2677165354330709,
          "duration": 0.10135125
        },
        {
          "name": "D#2",
          "midi": 39,
          "time": 4.05405,
          "velocity": 0.4330708661417323,
          "duration": 0.10135125000000045
        },
        {
          "name": "D2",
          "midi": 38,
          "time": 4.05405,
          "velocity": 0.2677165354330709,
          "duration": 0.10135125000000045
        },
        {
          "name": "F#2",
          "midi": 42,
          "time": 4.459455,
          "velocity": 0.2677165354330709,
          "duration": 0.10135125000000045
        },
        {
          "name": "A#2",
          "midi": 46,
          "time": 4.459455,
          "velocity": 0.23622047244094488,
          "duration": 0.10135125000000045
        },
        {
          "name": "F#2",
          "midi": 42,
          "time": 4.560806250000001,
          "velocity": 0.2677165354330709,
          "duration": 0.10135125000000045
        },
        {
          "name": "F#2",
          "midi": 42,
          "time": 4.662157500000001,
          "velocity": 0.2677165354330709,
          "duration": 0.10135125000000045
        },
        {
          "name": "G#1",
          "midi": 32,
          "time": 4.662157500000001,
          "velocity": 0.2677165354330709,
          "duration": 0.10135125000000045
        },
        {
          "name": "F#2",
          "midi": 42,
          "time": 4.7635087500000015,
          "velocity": 0.2677165354330709,
          "duration": 0.10135125000000045
        },
        {
          "name": "F#2",
          "midi": 42,
          "time": 5.270265000000002,
          "velocity": 0.2677165354330709,
          "duration": 0.10135125000000045
        },
        {
          "name": "F#2",
          "midi": 42,
          "time": 5.472967500000003,
          "velocity": 0.2677165354330709,
          "duration": 0.10135125000000045
        },
        {
          "name": "D#2",
          "midi": 39,
          "time": 5.675670000000004,
          "velocity": 0.4330708661417323,
          "duration": 0.10135125000000045
        },
        {
          "name": "D2",
          "midi": 38,
          "time": 5.675670000000004,
          "velocity": 0.2677165354330709,
          "duration": 0.10135125000000045
        },
        {
          "name": "F#2",
          "midi": 42,
          "time": 5.675670000000004,
          "velocity": 0.2677165354330709,
          "duration": 0.10135125000000045
        },
        {
          "name": "F#2",
          "midi": 42,
          "time": 5.878372500000005,
          "velocity": 0.2677165354330709,
          "duration": 0.10135125000000045
        },
        {
          "name": "B1",
          "midi": 35,
          "time": 5.878372500000005,
          "velocity": 0.11811023622047244,
          "duration": 0.10135125000000045
        },
        {
          "name": "F#2",
          "midi": 42,
          "time": 6.081075000000006,
          "velocity": 0.2677165354330709,
          "duration": 0.10135125000000045
        },
        {
          "name": "A#2",
          "midi": 46,
          "time": 6.081075000000006,
          "velocity": 0.23622047244094488,
          "duration": 0.10135125000000045
        },
        {
          "name": "F#2",
          "midi": 42,
          "time": 6.2837775000000065,
          "velocity": 0.2677165354330709,
          "duration": 0.10135125000000045
        },
        {
          "name": "G#1",
          "midi": 32,
          "time": 6.2837775000000065,
          "velocity": 0.2677165354330709,
          "duration": 0.10135125000000045
        }
      ],
      "controlChanges": {},
      "id": 2,
      "name": "808 Drum Kit",
      "instrumentNumber": 0,
      "instrument": "standard kit",
      "instrumentFamily": "drums",
      "channelNumber": 9,
      "isPercussion": true
    },
    {
      "startTime": 0,
      "duration": 6.48648,
      "length": 6,
      "notes": [
        {
          "name": "F#1",
          "midi": 30,
          "time": 0,
          "velocity": 0.3937007874015748,
          "duration": 1.62162
        },
        {
          "name": "F#1",
          "midi": 30,
          "time": 1.62162,
          "velocity": 0.3937007874015748,
          "duration": 1.62162
        },
        {
          "name": "C#2",
          "midi": 37,
          "time": 3.24324,
          "velocity": 0.3937007874015748,
          "duration": 0.6081075
        },
        {
          "name": "C#2",
          "midi": 37,
          "time": 3.8513475,
          "velocity": 0.3937007874015748,
          "duration": 0.6081075
        },
        {
          "name": "C#2",
          "midi": 37,
          "time": 4.459455,
          "velocity": 0.3937007874015748,
          "duration": 0.81081
        },
        {
          "name": "G1",
          "midi": 31,
          "time": 5.270265,
          "velocity": 0.3937007874015748,
          "duration": 1.216215
        }
      ],
      "controlChanges": {},
      "id": 3,
      "name": "Bass",
      "instrumentNumber": 32,
      "instrument": "acoustic bass",
      "instrumentFamily": "bass",
      "channelNumber": 2,
      "isPercussion": false
    },
    {
      "startTime": 0,
      "duration": 6.48648,
      "length": 14,
      "notes": [
        {
          "name": "G#4",
          "midi": 68,
          "time": 0,
          "velocity": 0.07874015748031496,
          "duration": 0.2027025
        },
        {
          "name": "C#4",
          "midi": 61,
          "time": 0.2027025,
          "velocity": 0.07874015748031496,
          "duration": 0.2027025
        },
        {
          "name": "G#4",
          "midi": 68,
          "time": 0.6081075,
          "velocity": 0.07874015748031496,
          "duration": 0.2027025
        },
        {
          "name": "C#4",
          "midi": 61,
          "time": 0.81081,
          "velocity": 0.07874015748031496,
          "duration": 0.2027025
        },
        {
          "name": "F#4",
          "midi": 66,
          "time": 1.216215,
          "velocity": 0.07874015748031496,
          "duration": 0.2027025
        },
        {
          "name": "F#4",
          "midi": 66,
          "time": 1.8243225,
          "velocity": 0.07874015748031496,
          "duration": 0.2027025
        },
        {
          "name": "G#4",
          "midi": 68,
          "time": 2.43243,
          "velocity": 0.07874015748031496,
          "duration": 0.2027025
        },
        {
          "name": "G#4",
          "midi": 68,
          "time": 3.0405375,
          "velocity": 0.07874015748031496,
          "duration": 0.2027025
        },
        {
          "name": "A4",
          "midi": 69,
          "time": 3.24324,
          "velocity": 0.07874015748031496,
          "duration": 0.2027025
        },
        {
          "name": "A4",
          "midi": 69,
          "time": 3.8513475,
          "velocity": 0.07874015748031496,
          "duration": 0.2027025
        },
        {
          "name": "G#4",
          "midi": 68,
          "time": 4.459455,
          "velocity": 0.07874015748031496,
          "duration": 0.2027025
        },
        {
          "name": "G#4",
          "midi": 68,
          "time": 5.0675625,
          "velocity": 0.07874015748031496,
          "duration": 0.2027025
        },
        {
          "name": "F#4",
          "midi": 66,
          "time": 5.67567,
          "velocity": 0.07874015748031496,
          "duration": 0.2027025
        },
        {
          "name": "F#4",
          "midi": 66,
          "time": 6.2837775,
          "velocity": 0.07874015748031496,
          "duration": 0.2027025
        }
      ],
      "controlChanges": {},
      "id": 4,
      "name": "8-Bit Sine",
      "instrumentNumber": 82,
      "instrument": "lead 3 (calliope)",
      "instrumentFamily": "synth lead",
      "channelNumber": 3,
      "isPercussion": false
    },
    {
      "startTime": 0,
      "duration": 6.48648,
      "length": 14,
      "notes": [
        {
          "name": "G#4",
          "midi": 68,
          "time": 0,
          "velocity": 0.09448818897637795,
          "duration": 0.2027025
        },
        {
          "name": "C#4",
          "midi": 61,
          "time": 0.2027025,
          "velocity": 0.09448818897637795,
          "duration": 0.2027025
        },
        {
          "name": "G#4",
          "midi": 68,
          "time": 0.6081075,
          "velocity": 0.09448818897637795,
          "duration": 0.2027025
        },
        {
          "name": "C#4",
          "midi": 61,
          "time": 0.81081,
          "velocity": 0.09448818897637795,
          "duration": 0.2027025
        },
        {
          "name": "F#4",
          "midi": 66,
          "time": 1.216215,
          "velocity": 0.09448818897637795,
          "duration": 0.2027025
        },
        {
          "name": "F#4",
          "midi": 66,
          "time": 1.8243225,
          "velocity": 0.09448818897637795,
          "duration": 0.2027025
        },
        {
          "name": "G#4",
          "midi": 68,
          "time": 2.43243,
          "velocity": 0.09448818897637795,
          "duration": 0.2027025
        },
        {
          "name": "G#4",
          "midi": 68,
          "time": 3.0405375,
          "velocity": 0.09448818897637795,
          "duration": 0.2027025
        },
        {
          "name": "A4",
          "midi": 69,
          "time": 3.24324,
          "velocity": 0.09448818897637795,
          "duration": 0.2027025
        },
        {
          "name": "A4",
          "midi": 69,
          "time": 3.8513475,
          "velocity": 0.09448818897637795,
          "duration": 0.2027025
        },
        {
          "name": "G#4",
          "midi": 68,
          "time": 4.459455,
          "velocity": 0.09448818897637795,
          "duration": 0.2027025
        },
        {
          "name": "G#4",
          "midi": 68,
          "time": 5.0675625,
          "velocity": 0.09448818897637795,
          "duration": 0.2027025
        },
        {
          "name": "F#4",
          "midi": 66,
          "time": 5.67567,
          "velocity": 0.09448818897637795,
          "duration": 0.2027025
        },
        {
          "name": "F#4",
          "midi": 66,
          "time": 6.2837775,
          "velocity": 0.09448818897637795,
          "duration": 0.2027025
        }
      ],
      "controlChanges": {},
      "id": 5,
      "name": "8-Bit Triangle",
      "instrumentNumber": 87,
      "instrument": "lead 8 (bass + lead)",
      "instrumentFamily": "synth lead",
      "channelNumber": 4,
      "isPercussion": false
    },
    {
      "startTime": 0,
      "duration": 6.48648,
      "length": 6,
      "notes": [
        {
          "name": "G#3",
          "midi": 56,
          "time": 0,
          "velocity": 0.3937007874015748,
          "duration": 1.216215
        },
        {
          "name": "F#3",
          "midi": 54,
          "time": 1.216215,
          "velocity": 0.3937007874015748,
          "duration": 1.216215
        },
        {
          "name": "G#3",
          "midi": 56,
          "time": 2.43243,
          "velocity": 0.3937007874015748,
          "duration": 0.81081
        },
        {
          "name": "A3",
          "midi": 57,
          "time": 3.24324,
          "velocity": 0.3937007874015748,
          "duration": 1.216215
        },
        {
          "name": "G#3",
          "midi": 56,
          "time": 4.459455,
          "velocity": 0.3937007874015748,
          "duration": 1.216215
        },
        {
          "name": "F#3",
          "midi": 54,
          "time": 5.67567,
          "velocity": 0.3937007874015748,
          "duration": 0.81081
        }
      ],
      "controlChanges": {},
      "id": 6,
      "name": "8-Bit Square",
      "instrumentNumber": 80,
      "instrument": "lead 1 (square)",
      "instrumentFamily": "synth lead",
      "channelNumber": 5,
      "isPercussion": false
    }
  ]
}
