{
  "header": {
    "keySignatures": [],
    "meta": [],
    "name": "8-Bit Sine",
    "ppq": 384,
    "tempos": [
      {
        "bpm": 130.00013000013,
        "ticks": 0
      }
    ],
    "timeSignatures": [
      {
        "ticks": 0,
        "timeSignature": [
          4,
          4
        ],
        "measures": 0
      }
    ]
  },
  "tracks": [
    {
      "channel": 0,
      "controlChanges": {},
      "pitchBends": [],
      "instrument": {
        "family": "synth lead",
        "number": 82,
        "name": "lead 3 (calliope)"
      },
      "name": "8-Bit Sine",
      "notes": [
        {
          "duration": 0.9230759999999999,
          "durationTicks": 768,
          "midi": 74,
          "name": "D5",
          "ticks": 0,
          "time": 0,
          "velocity": 0.3937007874015748
        },
        {
          "duration": 3.6923039999999996,
          "durationTicks": 3072,
          "midi": 62,
          "name": "D4",
          "ticks": 0,
          "time": 0,
          "velocity": 0.3937007874015748
        },
        {
          "duration": 3.6923039999999996,
          "durationTicks": 3072,
          "midi": 58,
          "name": "A#3",
          "ticks": 0,
          "time": 0,
          "velocity": 0.3937007874015748
        },
        {
          "duration": 3.6923039999999996,
          "durationTicks": 3072,
          "midi": 55,
          "name": "G3",
          "ticks": 0,
          "time": 0,
          "velocity": 0.3937007874015748
        },
        {
          "duration": 3.6923039999999996,
          "durationTicks": 3072,
          "midi": 51,
          "name": "D#3",
          "ticks": 0,
          "time": 0,
          "velocity": 0.3937007874015748
        },
        {
          "duration": 3.6923039999999996,
          "durationTicks": 3072,
          "midi": 39,
          "name": "D#2",
          "ticks": 0,
          "time": 0,
          "velocity": 0.3937007874015748
        },
        {
          "duration": 0.4615379999999999,
          "durationTicks": 384,
          "midi": 72,
          "name": "C5",
          "ticks": 768,
          "time": 0.9230759999999999,
          "velocity": 0.3937007874015748
        },
        {
          "duration": 0.461538,
          "durationTicks": 384,
          "midi": 70,
          "name": "A#4",
          "ticks": 1152,
          "time": 1.3846139999999998,
          "velocity": 0.3937007874015748
        },
        {
          "duration": 0.4615379999999998,
          "durationTicks": 384,
          "midi": 69,
          "name": "A4",
          "ticks": 1536,
          "time": 1.8461519999999998,
          "velocity": 0.3937007874015748
        },
        {
          "duration": 0.461538,
          "durationTicks": 384,
          "midi": 65,
          "name": "F4",
          "ticks": 1920,
          "time": 2.3076899999999996,
          "velocity": 0.3937007874015748
        },
        {
          "duration": 0.923076,
          "durationTicks": 768,
          "midi": 62,
          "name": "D4",
          "ticks": 2304,
          "time": 2.7692279999999996,
          "velocity": 0.3937007874015748
        },
        {
          "duration": 0.9230759999999996,
          "durationTicks": 768,
          "midi": 69,
          "name": "A4",
          "ticks": 3072,
          "time": 3.6923039999999996,
          "velocity": 0.3937007874015748
        },
        {
          "duration": 2.7692279999999996,
          "durationTicks": 2304,
          "midi": 62,
          "name": "D4",
          "ticks": 3072,
          "time": 3.6923039999999996,
          "velocity": 0.3937007874015748
        },
        {
          "duration": 3.6923039999999996,
          "durationTicks": 3072,
          "midi": 58,
          "name": "A#3",
          "ticks": 3072,
          "time": 3.6923039999999996,
          "velocity": 0.3937007874015748
        },
        {
          "duration": 3.6923039999999996,
          "durationTicks": 3072,
          "midi": 55,
          "name": "G3",
          "ticks": 3072,
          "time": 3.6923039999999996,
          "velocity": 0.3937007874015748
        },
        {
          "duration": 3.6923039999999996,
          "durationTicks": 3072,
          "midi": 51,
          "name": "D#3",
          "ticks": 3072,
          "time": 3.6923039999999996,
          "velocity": 0.3937007874015748
        },
        {
          "duration": 3.6923039999999996,
          "durationTicks": 3072,
          "midi": 39,
          "name": "D#2",
          "ticks": 3072,
          "time": 3.6923039999999996,
          "velocity": 0.3937007874015748
        },
        {
          "duration": 0.461538,
          "durationTicks": 384,
          "midi": 65,
          "name": "F4",
          "ticks": 3840,
          "time": 4.615379999999999,
          "velocity": 0.3937007874015748
        },
        {
          "duration": 0.461538,
          "durationTicks": 384,
          "midi": 67,
          "name": "G4",
          "ticks": 4224,
          "time": 5.076917999999999,
          "velocity": 0.3937007874015748
        },
        {
          "duration": 1.846152,
          "durationTicks": 1536,
          "midi": 62,
          "name": "D4",
          "ticks": 4608,
          "time": 5.538455999999999,
          "velocity": 0.3937007874015748
        },
        {
          "duration": 0.923076,
          "durationTicks": 768,
          "midi": 60,
          "name": "C4",
          "ticks": 5376,
          "time": 6.461531999999999,
          "velocity": 0.3937007874015748
        },
        {
          "duration": 3.692303999999999,
          "durationTicks": 3072,
          "midi": 34,
          "name": "A#1",
          "ticks": 6144,
          "time": 7.384607999999999,
          "velocity": 0.3937007874015748
        },
        {
          "duration": 3.692303999999999,
          "durationTicks": 3072,
          "midi": 46,
          "name": "A#2",
          "ticks": 6144,
          "time": 7.384607999999999,
          "velocity": 0.3937007874015748
        },
        {
          "duration": 3.692303999999999,
          "durationTicks": 3072,
          "midi": 53,
          "name": "F3",
          "ticks": 6144,
          "time": 7.384607999999999,
          "velocity": 0.3937007874015748
        },
        {
          "duration": 3.692303999999999,
          "durationTicks": 3072,
          "midi": 50,
          "name": "D3",
          "ticks": 6144,
          "time": 7.384607999999999,
          "velocity": 0.3937007874015748
        },
        {
          "duration": 3.692303999999999,
          "durationTicks": 3072,
          "midi": 58,
          "name": "A#3",
          "ticks": 6144,
          "time": 7.384607999999999,
          "velocity": 0.3937007874015748
        },
        {
          "duration": 0.9230759999999991,
          "durationTicks": 768,
          "midi": 70,
          "name": "A#4",
          "ticks": 6144,
          "time": 7.384607999999999,
          "velocity": 0.3937007874015748
        },
        {
          "duration": 0.4615380000000009,
          "durationTicks": 384,
          "midi": 69,
          "name": "A4",
          "ticks": 6912,
          "time": 8.307683999999998,
          "velocity": 0.3937007874015748
        },
        {
          "duration": 0.4615379999999991,
          "durationTicks": 384,
          "midi": 65,
          "name": "F4",
          "ticks": 7296,
          "time": 8.769222,
          "velocity": 0.3937007874015748
        },
        {
          "duration": 1.846152,
          "durationTicks": 1536,
          "midi": 62,
          "name": "D4",
          "ticks": 7680,
          "time": 9.230759999999998,
          "velocity": 0.3937007874015748
        },
        {
          "duration": 3.692304,
          "durationTicks": 3072,
          "midi": 34,
          "name": "A#1",
          "ticks": 9216,
          "time": 11.076911999999998,
          "velocity": 0.3937007874015748
        },
        {
          "duration": 3.692304,
          "durationTicks": 3072,
          "midi": 46,
          "name": "A#2",
          "ticks": 9216,
          "time": 11.076911999999998,
          "velocity": 0.3937007874015748
        },
        {
          "duration": 3.692304,
          "durationTicks": 3072,
          "midi": 53,
          "name": "F3",
          "ticks": 9216,
          "time": 11.076911999999998,
          "velocity": 0.3937007874015748
        },
        {
          "duration": 3.692304,
          "durationTicks": 3072,
          "midi": 50,
          "name": "D3",
          "ticks": 9216,
          "time": 11.076911999999998,
          "velocity": 0.3937007874015748
        },
        {
          "duration": 3.692304,
          "durationTicks": 3072,
          "midi": 58,
          "name": "A#3",
          "ticks": 9216,
          "time": 11.076911999999998,
          "velocity": 0.3937007874015748
        },
        {
          "duration": 0.923076,
          "durationTicks": 768,
          "midi": 70,
          "name": "A#4",
          "ticks": 9216,
          "time": 11.076911999999998,
          "velocity": 0.3937007874015748
        },
        {
          "duration": 0.4615380000000009,
          "durationTicks": 384,
          "midi": 69,
          "name": "A4",
          "ticks": 9984,
          "time": 11.999987999999998,
          "velocity": 0.3937007874015748
        },
        {
          "duration": 0.4615379999999991,
          "durationTicks": 384,
          "midi": 65,
          "name": "F4",
          "ticks": 10368,
          "time": 12.461526,
          "velocity": 0.3937007874015748
        },
        {
          "duration": 1.846152,
          "durationTicks": 1536,
          "midi": 62,
          "name": "D4",
          "ticks": 10752,
          "time": 12.923063999999998,
          "velocity": 0.3937007874015748
        },
        {
          "duration": 0.923076,
          "durationTicks": 768,
          "midi": 68,
          "name": "G#4",
          "ticks": 12288,
          "time": 14.769215999999998,
          "velocity": 0.3937007874015748
        },
        {
          "duration": 3.6923039999999983,
          "durationTicks": 3072,
          "midi": 56,
          "name": "G#3",
          "ticks": 12288,
          "time": 14.769215999999998,
          "velocity": 0.3937007874015748
        },
        {
          "duration": 3.6923039999999983,
          "durationTicks": 3072,
          "midi": 49,
          "name": "C#3",
          "ticks": 12288,
          "time": 14.769215999999998,
          "velocity": 0.3937007874015748
        },
        {
          "duration": 3.6923039999999983,
          "durationTicks": 3072,
          "midi": 45,
          "name": "A2",
          "ticks": 12288,
          "time": 14.769215999999998,
          "velocity": 0.3937007874015748
        },
        {
          "duration": 3.6923039999999983,
          "durationTicks": 3072,
          "midi": 33,
          "name": "A1",
          "ticks": 12288,
          "time": 14.769215999999998,
          "velocity": 0.3937007874015748
        },
        {
          "duration": 3.6923039999999983,
          "durationTicks": 3072,
          "midi": 52,
          "name": "E3",
          "ticks": 12288,
          "time": 14.769215999999998,
          "velocity": 0.3937007874015748
        },
        {
          "duration": 0.4615380000000009,
          "durationTicks": 384,
          "midi": 66,
          "name": "F#4",
          "ticks": 13056,
          "time": 15.692291999999998,
          "velocity": 0.3937007874015748
        },
        {
          "duration": 0.46153799999999734,
          "durationTicks": 384,
          "midi": 64,
          "name": "E4",
          "ticks": 13440,
          "time": 16.15383,
          "velocity": 0.3937007874015748
        },
        {
          "duration": 1.846152,
          "durationTicks": 1536,
          "midi": 61,
          "name": "C#4",
          "ticks": 13824,
          "time": 16.615367999999997,
          "velocity": 0.3937007874015748
        },
        {
          "duration": 0.9230759999999982,
          "durationTicks": 768,
          "midi": 54,
          "name": "F#3",
          "ticks": 14592,
          "time": 17.538444,
          "velocity": 0.3937007874015748
        },
        {
          "duration": 3.692304,
          "durationTicks": 3072,
          "midi": 56,
          "name": "G#3",
          "ticks": 15360,
          "time": 18.461519999999997,
          "velocity": 0.3937007874015748
        },
        {
          "duration": 3.692304,
          "durationTicks": 3072,
          "midi": 47,
          "name": "B2",
          "ticks": 15360,
          "time": 18.461519999999997,
          "velocity": 0.3937007874015748
        },
        {
          "duration": 3.692304,
          "durationTicks": 3072,
          "midi": 37,
          "name": "C#2",
          "ticks": 15360,
          "time": 18.461519999999997,
          "velocity": 0.3937007874015748
        },
        {
          "duration": 3.692304,
          "durationTicks": 3072,
          "midi": 25,
          "name": "C#1",
          "ticks": 15360,
          "time": 18.461519999999997,
          "velocity": 0.3937007874015748
        },
        {
          "duration": 0.9230760000000018,
          "durationTicks": 768,
          "midi": 68,
          "name": "G#4",
          "ticks": 18432,
          "time": 22.153823999999997,
          "velocity": 0.3937007874015748
        },
        {
          "duration": 3.692304,
          "durationTicks": 3072,
          "midi": 56,
          "name": "G#3",
          "ticks": 18432,
          "time": 22.153823999999997,
          "velocity": 0.3937007874015748
        },
        {
          "duration": 3.692304,
          "durationTicks": 3072,
          "midi": 49,
          "name": "C#3",
          "ticks": 18432,
          "time": 22.153823999999997,
          "velocity": 0.3937007874015748
        },
        {
          "duration": 3.692304,
          "durationTicks": 3072,
          "midi": 45,
          "name": "A2",
          "ticks": 18432,
          "time": 22.153823999999997,
          "velocity": 0.3937007874015748
        },
        {
          "duration": 3.692304,
          "durationTicks": 3072,
          "midi": 33,
          "name": "A1",
          "ticks": 18432,
          "time": 22.153823999999997,
          "velocity": 0.3937007874015748
        },
        {
          "duration": 3.692304,
          "durationTicks": 3072,
          "midi": 52,
          "name": "E3",
          "ticks": 18432,
          "time": 22.153823999999997,
          "velocity": 0.3937007874015748
        },
        {
          "duration": 0.46153799999999734,
          "durationTicks": 384,
          "midi": 66,
          "name": "F#4",
          "ticks": 19200,
          "time": 23.0769,
          "velocity": 0.3937007874015748
        },
        {
          "duration": 0.4615380000000009,
          "durationTicks": 384,
          "midi": 64,
          "name": "E4",
          "ticks": 19584,
          "time": 23.538437999999996,
          "velocity": 0.3937007874015748
        },
        {
          "duration": 1.846152,
          "durationTicks": 1536,
          "midi": 61,
          "name": "C#4",
          "ticks": 19968,
          "time": 23.999975999999997,
          "velocity": 0.3937007874015748
        },
        {
          "duration": 0.9230759999999982,
          "durationTicks": 768,
          "midi": 54,
          "name": "F#3",
          "ticks": 20736,
          "time": 24.923052,
          "velocity": 0.3937007874015748
        },
        {
          "duration": 3.692304,
          "durationTicks": 3072,
          "midi": 56,
          "name": "G#3",
          "ticks": 21504,
          "time": 25.846127999999997,
          "velocity": 0.3937007874015748
        },
        {
          "duration": 3.692304,
          "durationTicks": 3072,
          "midi": 47,
          "name": "B2",
          "ticks": 21504,
          "time": 25.846127999999997,
          "velocity": 0.3937007874015748
        },
        {
          "duration": 3.692304,
          "durationTicks": 3072,
          "midi": 37,
          "name": "C#2",
          "ticks": 21504,
          "time": 25.846127999999997,
          "velocity": 0.3937007874015748
        },
        {
          "duration": 3.692304,
          "durationTicks": 3072,
          "midi": 25,
          "name": "C#1",
          "ticks": 21504,
          "time": 25.846127999999997,
          "velocity": 0.3937007874015748
        },
        {
          "duration": 3.6923039999999965,
          "durationTicks": 3072,
          "midi": 56,
          "name": "G#3",
          "ticks": 24576,
          "time": 29.538431999999997,
          "velocity": 0.3937007874015748
        },
        {
          "duration": 3.6923039999999965,
          "durationTicks": 3072,
          "midi": 49,
          "name": "C#3",
          "ticks": 24576,
          "time": 29.538431999999997,
          "velocity": 0.3937007874015748
        },
        {
          "duration": 3.6923039999999965,
          "durationTicks": 3072,
          "midi": 45,
          "name": "A2",
          "ticks": 24576,
          "time": 29.538431999999997,
          "velocity": 0.3937007874015748
        },
        {
          "duration": 3.6923039999999965,
          "durationTicks": 3072,
          "midi": 33,
          "name": "A1",
          "ticks": 24576,
          "time": 29.538431999999997,
          "velocity": 0.3937007874015748
        },
        {
          "duration": 3.6923039999999965,
          "durationTicks": 3072,
          "midi": 52,
          "name": "E3",
          "ticks": 24576,
          "time": 29.538431999999997,
          "velocity": 0.3937007874015748
        },
        {
          "duration": 0.9230760000000018,
          "durationTicks": 768,
          "midi": 73,
          "name": "C#5",
          "ticks": 26112,
          "time": 31.384583999999997,
          "velocity": 0.1968503937007874
        },
        {
          "duration": 0.9230759999999947,
          "durationTicks": 768,
          "midi": 54,
          "name": "F#3",
          "ticks": 26880,
          "time": 32.30766,
          "velocity": 0.3937007874015748
        },
        {
          "duration": 0.46153799999999734,
          "durationTicks": 384,
          "midi": 71,
          "name": "B4",
          "ticks": 26880,
          "time": 32.30766,
          "velocity": 0.1968503937007874
        },
        {
          "duration": 0.46153799999999734,
          "durationTicks": 384,
          "midi": 73,
          "name": "C#5",
          "ticks": 27264,
          "time": 32.769197999999996,
          "velocity": 0.1968503937007874
        },
        {
          "duration": 1.8461520000000036,
          "durationTicks": 1536,
          "midi": 71,
          "name": "B4",
          "ticks": 27648,
          "time": 33.23073599999999,
          "velocity": 0.1968503937007874
        },
        {
          "duration": 3.692304,
          "durationTicks": 3072,
          "midi": 56,
          "name": "G#3",
          "ticks": 27648,
          "time": 33.23073599999999,
          "velocity": 0.3937007874015748
        },
        {
          "duration": 3.692304,
          "durationTicks": 3072,
          "midi": 47,
          "name": "B2",
          "ticks": 27648,
          "time": 33.23073599999999,
          "velocity": 0.3937007874015748
        },
        {
          "duration": 3.692304,
          "durationTicks": 3072,
          "midi": 37,
          "name": "C#2",
          "ticks": 27648,
          "time": 33.23073599999999,
          "velocity": 0.3937007874015748
        },
        {
          "duration": 3.692304,
          "durationTicks": 3072,
          "midi": 25,
          "name": "C#1",
          "ticks": 27648,
          "time": 33.23073599999999,
          "velocity": 0.3937007874015748
        },
        {
          "duration": 1.8461519999999965,
          "durationTicks": 1536,
          "midi": 68,
          "name": "G#4",
          "ticks": 29184,
          "time": 35.076888,
          "velocity": 0.1968503937007874
        },
        {
          "duration": 3.692304,
          "durationTicks": 3072,
          "midi": 56,
          "name": "G#3",
          "ticks": 30720,
          "time": 36.92303999999999,
          "velocity": 0.3937007874015748
        },
        {
          "duration": 3.692304,
          "durationTicks": 3072,
          "midi": 49,
          "name": "C#3",
          "ticks": 30720,
          "time": 36.92303999999999,
          "velocity": 0.3937007874015748
        },
        {
          "duration": 3.692304,
          "durationTicks": 3072,
          "midi": 45,
          "name": "A2",
          "ticks": 30720,
          "time": 36.92303999999999,
          "velocity": 0.3937007874015748
        },
        {
          "duration": 3.692304,
          "durationTicks": 3072,
          "midi": 33,
          "name": "A1",
          "ticks": 30720,
          "time": 36.92303999999999,
          "velocity": 0.3937007874015748
        },
        {
          "duration": 3.692304,
          "durationTicks": 3072,
          "midi": 52,
          "name": "E3",
          "ticks": 30720,
          "time": 36.92303999999999,
          "velocity": 0.3937007874015748
        },
        {
          "duration": 0.9230760000000018,
          "durationTicks": 768,
          "midi": 76,
          "name": "E5",
          "ticks": 32256,
          "time": 38.769192,
          "velocity": 0.1968503937007874
        },
        {
          "duration": 0.9230759999999947,
          "durationTicks": 768,
          "midi": 54,
          "name": "F#3",
          "ticks": 33024,
          "time": 39.692268,
          "velocity": 0.3937007874015748
        },
        {
          "duration": 0.46153799999999734,
          "durationTicks": 384,
          "midi": 75,
          "name": "D#5",
          "ticks": 33024,
          "time": 39.692268,
          "velocity": 0.1968503937007874
        },
        {
          "duration": 0.46153799999999734,
          "durationTicks": 384,
          "midi": 73,
          "name": "C#5",
          "ticks": 33408,
          "time": 40.153805999999996,
          "velocity": 0.1968503937007874
        },
        {
          "duration": 1.8461520000000036,
          "durationTicks": 1536,
          "midi": 71,
          "name": "B4",
          "ticks": 33792,
          "time": 40.61534399999999,
          "velocity": 0.1968503937007874
        },
        {
          "duration": 3.692304,
          "durationTicks": 3072,
          "midi": 56,
          "name": "G#3",
          "ticks": 33792,
          "time": 40.61534399999999,
          "velocity": 0.3937007874015748
        },
        {
          "duration": 3.692304,
          "durationTicks": 3072,
          "midi": 47,
          "name": "B2",
          "ticks": 33792,
          "time": 40.61534399999999,
          "velocity": 0.3937007874015748
        },
        {
          "duration": 3.692304,
          "durationTicks": 3072,
          "midi": 37,
          "name": "C#2",
          "ticks": 33792,
          "time": 40.61534399999999,
          "velocity": 0.3937007874015748
        },
        {
          "duration": 3.692304,
          "durationTicks": 3072,
          "midi": 25,
          "name": "C#1",
          "ticks": 33792,
          "time": 40.61534399999999,
          "velocity": 0.3937007874015748
        },
        {
          "duration": 0.9230760000000018,
          "durationTicks": 768,
          "midi": 68,
          "name": "G#4",
          "ticks": 35328,
          "time": 42.461496,
          "velocity": 0.1968503937007874
        },
        {
          "duration": 0.9230759999999947,
          "durationTicks": 768,
          "midi": 66,
          "name": "F#4",
          "ticks": 36096,
          "time": 43.384572,
          "velocity": 0.1968503937007874
        },
        {
          "duration": 2.7692279999999982,
          "durationTicks": 2304,
          "midi": 56,
          "name": "G#3",
          "ticks": 37632,
          "time": 45.230723999999995,
          "velocity": 0.3937007874015748
        },
        {
          "duration": 2.7692279999999982,
          "durationTicks": 2304,
          "midi": 49,
          "name": "C#3",
          "ticks": 37632,
          "time": 45.230723999999995,
          "velocity": 0.3937007874015748
        },
        {
          "duration": 2.7692279999999982,
          "durationTicks": 2304,
          "midi": 45,
          "name": "A2",
          "ticks": 37632,
          "time": 45.230723999999995,
          "velocity": 0.3937007874015748
        },
        {
          "duration": 0.46153799999999734,
          "durationTicks": 384,
          "midi": 66,
          "name": "F#4",
          "ticks": 37632,
          "time": 45.230723999999995,
          "velocity": 0.3937007874015748
        },
        {
          "duration": 2.7692279999999982,
          "durationTicks": 2304,
          "midi": 33,
          "name": "A1",
          "ticks": 37632,
          "time": 45.230723999999995,
          "velocity": 0.3937007874015748
        },
        {
          "duration": 2.7692279999999982,
          "durationTicks": 2304,
          "midi": 52,
          "name": "E3",
          "ticks": 37632,
          "time": 45.230723999999995,
          "velocity": 0.3937007874015748
        },
        {
          "duration": 0.46153800000000444,
          "durationTicks": 384,
          "midi": 64,
          "name": "E4",
          "ticks": 38016,
          "time": 45.69226199999999,
          "velocity": 0.3937007874015748
        },
        {
          "duration": 1.8461519999999965,
          "durationTicks": 1536,
          "midi": 61,
          "name": "C#4",
          "ticks": 38400,
          "time": 46.1538,
          "velocity": 0.3937007874015748
        },
        {
          "duration": 0.9230760000000018,
          "durationTicks": 768,
          "midi": 54,
          "name": "F#3",
          "ticks": 39168,
          "time": 47.07687599999999,
          "velocity": 0.3937007874015748
        },
        {
          "duration": 3.692304,
          "durationTicks": 3072,
          "midi": 56,
          "name": "G#3",
          "ticks": 39936,
          "time": 47.99995199999999,
          "velocity": 0.3937007874015748
        },
        {
          "duration": 3.692304,
          "durationTicks": 3072,
          "midi": 47,
          "name": "B2",
          "ticks": 39936,
          "time": 47.99995199999999,
          "velocity": 0.3937007874015748
        },
        {
          "duration": 3.692304,
          "durationTicks": 3072,
          "midi": 37,
          "name": "C#2",
          "ticks": 39936,
          "time": 47.99995199999999,
          "velocity": 0.3937007874015748
        },
        {
          "duration": 3.692304,
          "durationTicks": 3072,
          "midi": 25,
          "name": "C#1",
          "ticks": 39936,
          "time": 47.99995199999999,
          "velocity": 0.3937007874015748
        },
        {
          "duration": 0.9230760000000018,
          "durationTicks": 768,
          "midi": 68,
          "name": "G#4",
          "ticks": 43008,
          "time": 51.69225599999999,
          "velocity": 0.3937007874015748
        },
        {
          "duration": 3.692304,
          "durationTicks": 3072,
          "midi": 56,
          "name": "G#3",
          "ticks": 43008,
          "time": 51.69225599999999,
          "velocity": 0.3937007874015748
        },
        {
          "duration": 3.692304,
          "durationTicks": 3072,
          "midi": 49,
          "name": "C#3",
          "ticks": 43008,
          "time": 51.69225599999999,
          "velocity": 0.3937007874015748
        },
        {
          "duration": 3.692304,
          "durationTicks": 3072,
          "midi": 45,
          "name": "A2",
          "ticks": 43008,
          "time": 51.69225599999999,
          "velocity": 0.3937007874015748
        },
        {
          "duration": 3.692304,
          "durationTicks": 3072,
          "midi": 33,
          "name": "A1",
          "ticks": 43008,
          "time": 51.69225599999999,
          "velocity": 0.3937007874015748
        },
        {
          "duration": 3.692304,
          "durationTicks": 3072,
          "midi": 52,
          "name": "E3",
          "ticks": 43008,
          "time": 51.69225599999999,
          "velocity": 0.3937007874015748
        },
        {
          "duration": 0.46153799999999734,
          "durationTicks": 384,
          "midi": 66,
          "name": "F#4",
          "ticks": 43776,
          "time": 52.615331999999995,
          "velocity": 0.3937007874015748
        },
        {
          "duration": 0.46153800000000444,
          "durationTicks": 384,
          "midi": 64,
          "name": "E4",
          "ticks": 44160,
          "time": 53.07686999999999,
          "velocity": 0.3937007874015748
        },
        {
          "duration": 1.8461519999999965,
          "durationTicks": 1536,
          "midi": 61,
          "name": "C#4",
          "ticks": 44544,
          "time": 53.538408,
          "velocity": 0.3937007874015748
        },
        {
          "duration": 0.9230760000000018,
          "durationTicks": 768,
          "midi": 54,
          "name": "F#3",
          "ticks": 45312,
          "time": 54.46148399999999,
          "velocity": 0.3937007874015748
        },
        {
          "duration": 3.692304,
          "durationTicks": 3072,
          "midi": 56,
          "name": "G#3",
          "ticks": 46080,
          "time": 55.38455999999999,
          "velocity": 0.3937007874015748
        },
        {
          "duration": 3.692304,
          "durationTicks": 3072,
          "midi": 47,
          "name": "B2",
          "ticks": 46080,
          "time": 55.38455999999999,
          "velocity": 0.3937007874015748
        },
        {
          "duration": 3.692304,
          "durationTicks": 3072,
          "midi": 37,
          "name": "C#2",
          "ticks": 46080,
          "time": 55.38455999999999,
          "velocity": 0.3937007874015748
        },
        {
          "duration": 3.692304,
          "durationTicks": 3072,
          "midi": 25,
          "name": "C#1",
          "ticks": 46080,
          "time": 55.38455999999999,
          "velocity": 0.3937007874015748
        },
        {
          "duration": 3.692304,
          "durationTicks": 3072,
          "midi": 56,
          "name": "G#3",
          "ticks": 49152,
          "time": 59.07686399999999,
          "velocity": 0.3937007874015748
        },
        {
          "duration": 3.692304,
          "durationTicks": 3072,
          "midi": 49,
          "name": "C#3",
          "ticks": 49152,
          "time": 59.07686399999999,
          "velocity": 0.3937007874015748
        },
        {
          "duration": 3.692304,
          "durationTicks": 3072,
          "midi": 45,
          "name": "A2",
          "ticks": 49152,
          "time": 59.07686399999999,
          "velocity": 0.3937007874015748
        },
        {
          "duration": 3.692304,
          "durationTicks": 3072,
          "midi": 33,
          "name": "A1",
          "ticks": 49152,
          "time": 59.07686399999999,
          "velocity": 0.3937007874015748
        },
        {
          "duration": 3.692304,
          "durationTicks": 3072,
          "midi": 52,
          "name": "E3",
          "ticks": 49152,
          "time": 59.07686399999999,
          "velocity": 0.3937007874015748
        },
        {
          "duration": 0.9230760000000018,
          "durationTicks": 768,
          "midi": 73,
          "name": "C#5",
          "ticks": 50688,
          "time": 60.92301599999999,
          "velocity": 0.1968503937007874
        },
        {
          "duration": 0.9230760000000018,
          "durationTicks": 768,
          "midi": 54,
          "name": "F#3",
          "ticks": 51456,
          "time": 61.84609199999999,
          "velocity": 0.3937007874015748
        },
        {
          "duration": 0.46153800000000444,
          "durationTicks": 384,
          "midi": 71,
          "name": "B4",
          "ticks": 51456,
          "time": 61.84609199999999,
          "velocity": 0.1968503937007874
        },
        {
          "duration": 0.46153799999999734,
          "durationTicks": 384,
          "midi": 73,
          "name": "C#5",
          "ticks": 51840,
          "time": 62.307629999999996,
          "velocity": 0.1968503937007874
        },
        {
          "duration": 1.8461520000000036,
          "durationTicks": 1536,
          "midi": 71,
          "name": "B4",
          "ticks": 52224,
          "time": 62.76916799999999,
          "velocity": 0.1968503937007874
        },
        {
          "duration": 3.692303999999993,
          "durationTicks": 3072,
          "midi": 56,
          "name": "G#3",
          "ticks": 52224,
          "time": 62.76916799999999,
          "velocity": 0.3937007874015748
        },
        {
          "duration": 3.692303999999993,
          "durationTicks": 3072,
          "midi": 47,
          "name": "B2",
          "ticks": 52224,
          "time": 62.76916799999999,
          "velocity": 0.3937007874015748
        },
        {
          "duration": 3.692303999999993,
          "durationTicks": 3072,
          "midi": 37,
          "name": "C#2",
          "ticks": 52224,
          "time": 62.76916799999999,
          "velocity": 0.3937007874015748
        },
        {
          "duration": 3.692303999999993,
          "durationTicks": 3072,
          "midi": 25,
          "name": "C#1",
          "ticks": 52224,
          "time": 62.76916799999999,
          "velocity": 0.3937007874015748
        },
        {
          "duration": 1.8461519999999894,
          "durationTicks": 1536,
          "midi": 68,
          "name": "G#4",
          "ticks": 53760,
          "time": 64.61532,
          "velocity": 0.1968503937007874
        },
        {
          "duration": 3.692304000000007,
          "durationTicks": 3072,
          "midi": 56,
          "name": "G#3",
          "ticks": 55296,
          "time": 66.46147199999999,
          "velocity": 0.3937007874015748
        },
        {
          "duration": 3.692304000000007,
          "durationTicks": 3072,
          "midi": 49,
          "name": "C#3",
          "ticks": 55296,
          "time": 66.46147199999999,
          "velocity": 0.3937007874015748
        },
        {
          "duration": 3.692304000000007,
          "durationTicks": 3072,
          "midi": 45,
          "name": "A2",
          "ticks": 55296,
          "time": 66.46147199999999,
          "velocity": 0.3937007874015748
        },
        {
          "duration": 3.692304000000007,
          "durationTicks": 3072,
          "midi": 33,
          "name": "A1",
          "ticks": 55296,
          "time": 66.46147199999999,
          "velocity": 0.3937007874015748
        },
        {
          "duration": 3.692304000000007,
          "durationTicks": 3072,
          "midi": 52,
          "name": "E3",
          "ticks": 55296,
          "time": 66.46147199999999,
          "velocity": 0.3937007874015748
        },
        {
          "duration": 0.9230760000000089,
          "durationTicks": 768,
          "midi": 76,
          "name": "E5",
          "ticks": 56832,
          "time": 68.30762399999999,
          "velocity": 0.1968503937007874
        },
        {
          "duration": 0.9230759999999947,
          "durationTicks": 768,
          "midi": 54,
          "name": "F#3",
          "ticks": 57600,
          "time": 69.2307,
          "velocity": 0.3937007874015748
        },
        {
          "duration": 0.46153799999999023,
          "durationTicks": 384,
          "midi": 75,
          "name": "D#5",
          "ticks": 57600,
          "time": 69.2307,
          "velocity": 0.1968503937007874
        },
        {
          "duration": 0.46153800000000444,
          "durationTicks": 384,
          "midi": 73,
          "name": "C#5",
          "ticks": 57984,
          "time": 69.69223799999999,
          "velocity": 0.1968503937007874
        },
        {
          "duration": 1.8461520000000036,
          "durationTicks": 1536,
          "midi": 71,
          "name": "B4",
          "ticks": 58368,
          "time": 70.153776,
          "velocity": 0.1968503937007874
        },
        {
          "duration": 3.692303999999993,
          "durationTicks": 3072,
          "midi": 56,
          "name": "G#3",
          "ticks": 58368,
          "time": 70.153776,
          "velocity": 0.3937007874015748
        },
        {
          "duration": 3.692303999999993,
          "durationTicks": 3072,
          "midi": 47,
          "name": "B2",
          "ticks": 58368,
          "time": 70.153776,
          "velocity": 0.3937007874015748
        },
        {
          "duration": 3.692303999999993,
          "durationTicks": 3072,
          "midi": 37,
          "name": "C#2",
          "ticks": 58368,
          "time": 70.153776,
          "velocity": 0.3937007874015748
        },
        {
          "duration": 3.692303999999993,
          "durationTicks": 3072,
          "midi": 25,
          "name": "C#1",
          "ticks": 58368,
          "time": 70.153776,
          "velocity": 0.3937007874015748
        },
        {
          "duration": 0.9230759999999947,
          "durationTicks": 768,
          "midi": 68,
          "name": "G#4",
          "ticks": 59904,
          "time": 71.999928,
          "velocity": 0.1968503937007874
        },
        {
          "duration": 0.9230759999999947,
          "durationTicks": 768,
          "midi": 66,
          "name": "F#4",
          "ticks": 60672,
          "time": 72.92300399999999,
          "velocity": 0.1968503937007874
        },
        {
          "duration": 0.9230760000000089,
          "durationTicks": 768,
          "midi": 74,
          "name": "D5",
          "ticks": 61440,
          "time": 73.84607999999999,
          "velocity": 0.3937007874015748
        },
        {
          "duration": 3.692304000000007,
          "durationTicks": 3072,
          "midi": 62,
          "name": "D4",
          "ticks": 61440,
          "time": 73.84607999999999,
          "velocity": 0.3937007874015748
        },
        {
          "duration": 3.692304000000007,
          "durationTicks": 3072,
          "midi": 58,
          "name": "A#3",
          "ticks": 61440,
          "time": 73.84607999999999,
          "velocity": 0.3937007874015748
        },
        {
          "duration": 3.692304000000007,
          "durationTicks": 3072,
          "midi": 55,
          "name": "G3",
          "ticks": 61440,
          "time": 73.84607999999999,
          "velocity": 0.3937007874015748
        },
        {
          "duration": 3.692304000000007,
          "durationTicks": 3072,
          "midi": 51,
          "name": "D#3",
          "ticks": 61440,
          "time": 73.84607999999999,
          "velocity": 0.3937007874015748
        },
        {
          "duration": 3.692304000000007,
          "durationTicks": 3072,
          "midi": 39,
          "name": "D#2",
          "ticks": 61440,
          "time": 73.84607999999999,
          "velocity": 0.3937007874015748
        },
        {
          "duration": 0.46153799999999023,
          "durationTicks": 384,
          "midi": 72,
          "name": "C5",
          "ticks": 62208,
          "time": 74.769156,
          "velocity": 0.3937007874015748
        },
        {
          "duration": 0.46153800000000444,
          "durationTicks": 384,
          "midi": 70,
          "name": "A#4",
          "ticks": 62592,
          "time": 75.23069399999999,
          "velocity": 0.3937007874015748
        },
        {
          "duration": 0.46153800000000444,
          "durationTicks": 384,
          "midi": 69,
          "name": "A4",
          "ticks": 62976,
          "time": 75.69223199999999,
          "velocity": 0.3937007874015748
        },
        {
          "duration": 0.46153799999999023,
          "durationTicks": 384,
          "midi": 65,
          "name": "F4",
          "ticks": 63360,
          "time": 76.15377,
          "velocity": 0.3937007874015748
        },
        {
          "duration": 0.9230760000000089,
          "durationTicks": 768,
          "midi": 62,
          "name": "D4",
          "ticks": 63744,
          "time": 76.61530799999998,
          "velocity": 0.3937007874015748
        },
        {
          "duration": 0.9230759999999947,
          "durationTicks": 768,
          "midi": 69,
          "name": "A4",
          "ticks": 64512,
          "time": 77.538384,
          "velocity": 0.3937007874015748
        },
        {
          "duration": 2.7692279999999982,
          "durationTicks": 2304,
          "midi": 62,
          "name": "D4",
          "ticks": 64512,
          "time": 77.538384,
          "velocity": 0.3937007874015748
        },
        {
          "duration": 3.692303999999993,
          "durationTicks": 3072,
          "midi": 58,
          "name": "A#3",
          "ticks": 64512,
          "time": 77.538384,
          "velocity": 0.3937007874015748
        },
        {
          "duration": 3.692303999999993,
          "durationTicks": 3072,
          "midi": 55,
          "name": "G3",
          "ticks": 64512,
          "time": 77.538384,
          "velocity": 0.3937007874015748
        },
        {
          "duration": 3.692303999999993,
          "durationTicks": 3072,
          "midi": 51,
          "name": "D#3",
          "ticks": 64512,
          "time": 77.538384,
          "velocity": 0.3937007874015748
        },
        {
          "duration": 3.692303999999993,
          "durationTicks": 3072,
          "midi": 39,
          "name": "D#2",
          "ticks": 64512,
          "time": 77.538384,
          "velocity": 0.3937007874015748
        },
        {
          "duration": 0.46153800000000444,
          "durationTicks": 384,
          "midi": 65,
          "name": "F4",
          "ticks": 65280,
          "time": 78.46145999999999,
          "velocity": 0.3937007874015748
        },
        {
          "duration": 0.46153800000000444,
          "durationTicks": 384,
          "midi": 67,
          "name": "G4",
          "ticks": 65664,
          "time": 78.92299799999999,
          "velocity": 0.3937007874015748
        },
        {
          "duration": 1.8461519999999894,
          "durationTicks": 1536,
          "midi": 62,
          "name": "D4",
          "ticks": 66048,
          "time": 79.384536,
          "velocity": 0.3937007874015748
        },
        {
          "duration": 0.9230759999999947,
          "durationTicks": 768,
          "midi": 60,
          "name": "C4",
          "ticks": 66816,
          "time": 80.30761199999999,
          "velocity": 0.3937007874015748
        },
        {
          "duration": 3.692304000000007,
          "durationTicks": 3072,
          "midi": 34,
          "name": "A#1",
          "ticks": 67584,
          "time": 81.23068799999999,
          "velocity": 0.3937007874015748
        },
        {
          "duration": 3.692304000000007,
          "durationTicks": 3072,
          "midi": 46,
          "name": "A#2",
          "ticks": 67584,
          "time": 81.23068799999999,
          "velocity": 0.3937007874015748
        },
        {
          "duration": 3.692304000000007,
          "durationTicks": 3072,
          "midi": 53,
          "name": "F3",
          "ticks": 67584,
          "time": 81.23068799999999,
          "velocity": 0.3937007874015748
        },
        {
          "duration": 3.692304000000007,
          "durationTicks": 3072,
          "midi": 50,
          "name": "D3",
          "ticks": 67584,
          "time": 81.23068799999999,
          "velocity": 0.3937007874015748
        },
        {
          "duration": 3.692304000000007,
          "durationTicks": 3072,
          "midi": 58,
          "name": "A#3",
          "ticks": 67584,
          "time": 81.23068799999999,
          "velocity": 0.3937007874015748
        },
        {
          "duration": 0.9230760000000089,
          "durationTicks": 768,
          "midi": 70,
          "name": "A#4",
          "ticks": 67584,
          "time": 81.23068799999999,
          "velocity": 0.3937007874015748
        },
        {
          "duration": 0.46153799999999023,
          "durationTicks": 384,
          "midi": 69,
          "name": "A4",
          "ticks": 68352,
          "time": 82.153764,
          "velocity": 0.3937007874015748
        },
        {
          "duration": 0.46153800000000444,
          "durationTicks": 384,
          "midi": 65,
          "name": "F4",
          "ticks": 68736,
          "time": 82.61530199999999,
          "velocity": 0.3937007874015748
        },
        {
          "duration": 1.8461520000000036,
          "durationTicks": 1536,
          "midi": 62,
          "name": "D4",
          "ticks": 69120,
          "time": 83.07683999999999,
          "velocity": 0.3937007874015748
        },
        {
          "duration": 3.692303999999993,
          "durationTicks": 3072,
          "midi": 34,
          "name": "A#1",
          "ticks": 70656,
          "time": 84.922992,
          "velocity": 0.3937007874015748
        },
        {
          "duration": 3.692303999999993,
          "durationTicks": 3072,
          "midi": 46,
          "name": "A#2",
          "ticks": 70656,
          "time": 84.922992,
          "velocity": 0.3937007874015748
        },
        {
          "duration": 3.692303999999993,
          "durationTicks": 3072,
          "midi": 53,
          "name": "F3",
          "ticks": 70656,
          "time": 84.922992,
          "velocity": 0.3937007874015748
        },
        {
          "duration": 3.692303999999993,
          "durationTicks": 3072,
          "midi": 50,
          "name": "D3",
          "ticks": 70656,
          "time": 84.922992,
          "velocity": 0.3937007874015748
        },
        {
          "duration": 3.692303999999993,
          "durationTicks": 3072,
          "midi": 58,
          "name": "A#3",
          "ticks": 70656,
          "time": 84.922992,
          "velocity": 0.3937007874015748
        },
        {
          "duration": 0.9230759999999947,
          "durationTicks": 768,
          "midi": 70,
          "name": "A#4",
          "ticks": 70656,
          "time": 84.922992,
          "velocity": 0.3937007874015748
        },
        {
          "duration": 0.46153800000000444,
          "durationTicks": 384,
          "midi": 69,
          "name": "A4",
          "ticks": 71424,
          "time": 85.84606799999999,
          "velocity": 0.3937007874015748
        },
        {
          "duration": 0.46153800000000444,
          "durationTicks": 384,
          "midi": 65,
          "name": "F4",
          "ticks": 71808,
          "time": 86.30760599999999,
          "velocity": 0.3937007874015748
        },
        {
          "duration": 1.8461519999999894,
          "durationTicks": 1536,
          "midi": 62,
          "name": "D4",
          "ticks": 72192,
          "time": 86.769144,
          "velocity": 0.3937007874015748
        }
      ],
      "endOfTrackTicks": 73728
    },
    {
      "channel": 1,
      "controlChanges": {},
      "pitchBends": [],
      "instrument": {
        "family": "chromatic percussion",
        "number": 10,
        "name": "music box"
      },
      "name": "Music Box",
      "notes": [
        {
          "duration": 0.11538449999999999,
          "durationTicks": 96,
          "midi": 86,
          "name": "D6",
          "ticks": 0,
          "time": 0,
          "velocity": 0.3937007874015748
        },
        {
          "duration": 0.11538449999999989,
          "durationTicks": 96,
          "midi": 84,
          "name": "C6",
          "ticks": 768,
          "time": 0.9230759999999999,
          "velocity": 0.3937007874015748
        },
        {
          "duration": 0.1153845,
          "durationTicks": 96,
          "midi": 82,
          "name": "A#5",
          "ticks": 1152,
          "time": 1.3846139999999998,
          "velocity": 0.3937007874015748
        },
        {
          "duration": 0.1153845,
          "durationTicks": 96,
          "midi": 81,
          "name": "A5",
          "ticks": 1536,
          "time": 1.8461519999999998,
          "velocity": 0.3937007874015748
        },
        {
          "duration": 0.11538450000000022,
          "durationTicks": 96,
          "midi": 77,
          "name": "F5",
          "ticks": 1920,
          "time": 2.3076899999999996,
          "velocity": 0.3937007874015748
        },
        {
          "duration": 0.11538450000000022,
          "durationTicks": 96,
          "midi": 74,
          "name": "D5",
          "ticks": 2304,
          "time": 2.7692279999999996,
          "velocity": 0.3937007874015748
        },
        {
          "duration": 0.11538449999999978,
          "durationTicks": 96,
          "midi": 81,
          "name": "A5",
          "ticks": 3072,
          "time": 3.6923039999999996,
          "velocity": 0.3937007874015748
        },
        {
          "duration": 0.11538450000000022,
          "durationTicks": 96,
          "midi": 77,
          "name": "F5",
          "ticks": 3840,
          "time": 4.615379999999999,
          "velocity": 0.3937007874015748
        },
        {
          "duration": 0.11538450000000022,
          "durationTicks": 96,
          "midi": 79,
          "name": "G5",
          "ticks": 4224,
          "time": 5.076917999999999,
          "velocity": 0.3937007874015748
        },
        {
          "duration": 0.11538450000000022,
          "durationTicks": 96,
          "midi": 74,
          "name": "D5",
          "ticks": 4608,
          "time": 5.538455999999999,
          "velocity": 0.3937007874015748
        },
        {
          "duration": 0.11538450000000022,
          "durationTicks": 96,
          "midi": 72,
          "name": "C5",
          "ticks": 5376,
          "time": 6.461531999999999,
          "velocity": 0.3937007874015748
        },
        {
          "duration": 0.11538450000000022,
          "durationTicks": 96,
          "midi": 82,
          "name": "A#5",
          "ticks": 6144,
          "time": 7.384607999999999,
          "velocity": 0.3937007874015748
        },
        {
          "duration": 0.11538450000000111,
          "durationTicks": 96,
          "midi": 81,
          "name": "A5",
          "ticks": 6912,
          "time": 8.307683999999998,
          "velocity": 0.3937007874015748
        },
        {
          "duration": 0.11538449999999933,
          "durationTicks": 96,
          "midi": 77,
          "name": "F5",
          "ticks": 7296,
          "time": 8.769222,
          "velocity": 0.3937007874015748
        },
        {
          "duration": 0.11538450000000111,
          "durationTicks": 96,
          "midi": 74,
          "name": "D5",
          "ticks": 7680,
          "time": 9.230759999999998,
          "velocity": 0.3937007874015748
        },
        {
          "duration": 0.11538450000000111,
          "durationTicks": 96,
          "midi": 82,
          "name": "A#5",
          "ticks": 9216,
          "time": 11.076911999999998,
          "velocity": 0.3937007874015748
        },
        {
          "duration": 0.11538450000000111,
          "durationTicks": 96,
          "midi": 81,
          "name": "A5",
          "ticks": 9984,
          "time": 11.999987999999998,
          "velocity": 0.3937007874015748
        },
        {
          "duration": 0.11538449999999933,
          "durationTicks": 96,
          "midi": 77,
          "name": "F5",
          "ticks": 10368,
          "time": 12.461526,
          "velocity": 0.3937007874015748
        },
        {
          "duration": 0.11538449999999933,
          "durationTicks": 96,
          "midi": 74,
          "name": "D5",
          "ticks": 10752,
          "time": 12.923063999999998,
          "velocity": 0.3937007874015748
        },
        {
          "duration": 0.11538449999999933,
          "durationTicks": 96,
          "midi": 80,
          "name": "G#5",
          "ticks": 12288,
          "time": 14.769215999999998,
          "velocity": 0.3937007874015748
        },
        {
          "duration": 0.11538449999999933,
          "durationTicks": 96,
          "midi": 78,
          "name": "F#5",
          "ticks": 13056,
          "time": 15.692291999999998,
          "velocity": 0.3937007874015748
        },
        {
          "duration": 0.11538449999999756,
          "durationTicks": 96,
          "midi": 76,
          "name": "E5",
          "ticks": 13440,
          "time": 16.15383,
          "velocity": 0.3937007874015748
        },
        {
          "duration": 0.11538450000000111,
          "durationTicks": 96,
          "midi": 73,
          "name": "C#5",
          "ticks": 13824,
          "time": 16.615367999999997,
          "velocity": 0.3937007874015748
        },
        {
          "duration": 0.11538450000000111,
          "durationTicks": 96,
          "midi": 73,
          "name": "C#5",
          "ticks": 15360,
          "time": 18.461519999999997,
          "velocity": 0.3937007874015748
        },
        {
          "duration": 0.11538450000000111,
          "durationTicks": 96,
          "midi": 80,
          "name": "G#5",
          "ticks": 18432,
          "time": 22.153823999999997,
          "velocity": 0.3937007874015748
        },
        {
          "duration": 0.11538449999999756,
          "durationTicks": 96,
          "midi": 78,
          "name": "F#5",
          "ticks": 19200,
          "time": 23.0769,
          "velocity": 0.3937007874015748
        },
        {
          "duration": 0.11538450000000111,
          "durationTicks": 96,
          "midi": 76,
          "name": "E5",
          "ticks": 19584,
          "time": 23.538437999999996,
          "velocity": 0.3937007874015748
        },
        {
          "duration": 0.11538450000000111,
          "durationTicks": 96,
          "midi": 73,
          "name": "C#5",
          "ticks": 19968,
          "time": 23.999975999999997,
          "velocity": 0.3937007874015748
        },
        {
          "duration": 0.11538450000000111,
          "durationTicks": 96,
          "midi": 73,
          "name": "C#5",
          "ticks": 21504,
          "time": 25.846127999999997,
          "velocity": 0.3937007874015748
        },
        {
          "duration": 0.11538450000000111,
          "durationTicks": 96,
          "midi": 85,
          "name": "C#6",
          "ticks": 26112,
          "time": 31.384583999999997,
          "velocity": 0.5433070866141733
        },
        {
          "duration": 0.11538449999999756,
          "durationTicks": 96,
          "midi": 83,
          "name": "B5",
          "ticks": 26880,
          "time": 32.30766,
          "velocity": 0.5039370078740157
        },
        {
          "duration": 0.11538449999999756,
          "durationTicks": 96,
          "midi": 85,
          "name": "C#6",
          "ticks": 27264,
          "time": 32.769197999999996,
          "velocity": 0.5433070866141733
        },
        {
          "duration": 0.11538450000000466,
          "durationTicks": 96,
          "midi": 83,
          "name": "B5",
          "ticks": 27648,
          "time": 33.23073599999999,
          "velocity": 0.5039370078740157
        },
        {
          "duration": 0.11538449999999756,
          "durationTicks": 96,
          "midi": 80,
          "name": "G#5",
          "ticks": 29184,
          "time": 35.076888,
          "velocity": 0.5039370078740157
        },
        {
          "duration": 0.11538449999999756,
          "durationTicks": 96,
          "midi": 88,
          "name": "E6",
          "ticks": 32256,
          "time": 38.769192,
          "velocity": 0.5433070866141733
        },
        {
          "duration": 0.11538449999999756,
          "durationTicks": 96,
          "midi": 87,
          "name": "D#6",
          "ticks": 33024,
          "time": 39.692268,
          "velocity": 0.5433070866141733
        },
        {
          "duration": 0.11538449999999756,
          "durationTicks": 96,
          "midi": 85,
          "name": "C#6",
          "ticks": 33408,
          "time": 40.153805999999996,
          "velocity": 0.5433070866141733
        },
        {
          "duration": 0.11538450000000466,
          "durationTicks": 96,
          "midi": 83,
          "name": "B5",
          "ticks": 33792,
          "time": 40.61534399999999,
          "velocity": 0.5039370078740157
        },
        {
          "duration": 0.11538449999999756,
          "durationTicks": 96,
          "midi": 80,
          "name": "G#5",
          "ticks": 35328,
          "time": 42.461496,
          "velocity": 0.5039370078740157
        },
        {
          "duration": 0.11538449999999756,
          "durationTicks": 96,
          "midi": 78,
          "name": "F#5",
          "ticks": 37632,
          "time": 45.230723999999995,
          "velocity": 0.3937007874015748
        },
        {
          "duration": 0.11538450000000466,
          "durationTicks": 96,
          "midi": 76,
          "name": "E5",
          "ticks": 38016,
          "time": 45.69226199999999,
          "velocity": 0.3937007874015748
        },
        {
          "duration": 0.11538449999999756,
          "durationTicks": 96,
          "midi": 73,
          "name": "C#5",
          "ticks": 38400,
          "time": 46.1538,
          "velocity": 0.3937007874015748
        },
        {
          "duration": 0.11538450000000466,
          "durationTicks": 96,
          "midi": 73,
          "name": "C#5",
          "ticks": 39936,
          "time": 47.99995199999999,
          "velocity": 0.3937007874015748
        },
        {
          "duration": 0.11538449999999756,
          "durationTicks": 96,
          "midi": 80,
          "name": "G#5",
          "ticks": 43008,
          "time": 51.69225599999999,
          "velocity": 0.3937007874015748
        },
        {
          "duration": 0.11538449999999756,
          "durationTicks": 96,
          "midi": 78,
          "name": "F#5",
          "ticks": 43776,
          "time": 52.615331999999995,
          "velocity": 0.3937007874015748
        },
        {
          "duration": 0.11538450000000466,
          "durationTicks": 96,
          "midi": 76,
          "name": "E5",
          "ticks": 44160,
          "time": 53.07686999999999,
          "velocity": 0.3937007874015748
        },
        {
          "duration": 0.11538449999999756,
          "durationTicks": 96,
          "midi": 73,
          "name": "C#5",
          "ticks": 44544,
          "time": 53.538408,
          "velocity": 0.3937007874015748
        },
        {
          "duration": 0.11538449999999756,
          "durationTicks": 96,
          "midi": 73,
          "name": "C#5",
          "ticks": 46080,
          "time": 55.38455999999999,
          "velocity": 0.3937007874015748
        },
        {
          "duration": 0.11538450000000466,
          "durationTicks": 96,
          "midi": 85,
          "name": "C#6",
          "ticks": 50688,
          "time": 60.92301599999999,
          "velocity": 0.5433070866141733
        },
        {
          "duration": 0.11538450000000466,
          "durationTicks": 96,
          "midi": 83,
          "name": "B5",
          "ticks": 51456,
          "time": 61.84609199999999,
          "velocity": 0.5039370078740157
        },
        {
          "duration": 0.11538449999999756,
          "durationTicks": 96,
          "midi": 85,
          "name": "C#6",
          "ticks": 51840,
          "time": 62.307629999999996,
          "velocity": 0.5433070866141733
        },
        {
          "duration": 0.11538449999999756,
          "durationTicks": 96,
          "midi": 83,
          "name": "B5",
          "ticks": 52224,
          "time": 62.76916799999999,
          "velocity": 0.5039370078740157
        },
        {
          "duration": 0.11538449999999045,
          "durationTicks": 96,
          "midi": 80,
          "name": "G#5",
          "ticks": 53760,
          "time": 64.61532,
          "velocity": 0.5039370078740157
        },
        {
          "duration": 0.11538450000000466,
          "durationTicks": 96,
          "midi": 88,
          "name": "E6",
          "ticks": 56832,
          "time": 68.30762399999999,
          "velocity": 0.5433070866141733
        },
        {
          "duration": 0.11538449999999045,
          "durationTicks": 96,
          "midi": 87,
          "name": "D#6",
          "ticks": 57600,
          "time": 69.2307,
          "velocity": 0.5433070866141733
        },
        {
          "duration": 0.11538450000000466,
          "durationTicks": 96,
          "midi": 85,
          "name": "C#6",
          "ticks": 57984,
          "time": 69.69223799999999,
          "velocity": 0.5433070866141733
        },
        {
          "duration": 0.11538450000000466,
          "durationTicks": 96,
          "midi": 83,
          "name": "B5",
          "ticks": 58368,
          "time": 70.153776,
          "velocity": 0.5039370078740157
        },
        {
          "duration": 0.11538449999999045,
          "durationTicks": 96,
          "midi": 80,
          "name": "G#5",
          "ticks": 59904,
          "time": 71.999928,
          "velocity": 0.5039370078740157
        },
        {
          "duration": 0.11538450000000466,
          "durationTicks": 96,
          "midi": 86,
          "name": "D6",
          "ticks": 61440,
          "time": 73.84607999999999,
          "velocity": 0.3937007874015748
        },
        {
          "duration": 0.11538449999999045,
          "durationTicks": 96,
          "midi": 84,
          "name": "C6",
          "ticks": 62208,
          "time": 74.769156,
          "velocity": 0.3937007874015748
        },
        {
          "duration": 0.11538450000000466,
          "durationTicks": 96,
          "midi": 82,
          "name": "A#5",
          "ticks": 62592,
          "time": 75.23069399999999,
          "velocity": 0.3937007874015748
        },
        {
          "duration": 0.11538450000000466,
          "durationTicks": 96,
          "midi": 81,
          "name": "A5",
          "ticks": 62976,
          "time": 75.69223199999999,
          "velocity": 0.3937007874015748
        },
        {
          "duration": 0.11538449999999045,
          "durationTicks": 96,
          "midi": 77,
          "name": "F5",
          "ticks": 63360,
          "time": 76.15377,
          "velocity": 0.3937007874015748
        },
        {
          "duration": 0.11538450000000466,
          "durationTicks": 96,
          "midi": 74,
          "name": "D5",
          "ticks": 63744,
          "time": 76.61530799999998,
          "velocity": 0.3937007874015748
        },
        {
          "duration": 0.11538450000000466,
          "durationTicks": 96,
          "midi": 81,
          "name": "A5",
          "ticks": 64512,
          "time": 77.538384,
          "velocity": 0.3937007874015748
        },
        {
          "duration": 0.11538450000000466,
          "durationTicks": 96,
          "midi": 77,
          "name": "F5",
          "ticks": 65280,
          "time": 78.46145999999999,
          "velocity": 0.3937007874015748
        },
        {
          "duration": 0.11538450000000466,
          "durationTicks": 96,
          "midi": 79,
          "name": "G5",
          "ticks": 65664,
          "time": 78.92299799999999,
          "velocity": 0.3937007874015748
        },
        {
          "duration": 0.11538449999999045,
          "durationTicks": 96,
          "midi": 74,
          "name": "D5",
          "ticks": 66048,
          "time": 79.384536,
          "velocity": 0.3937007874015748
        },
        {
          "duration": 0.11538450000000466,
          "durationTicks": 96,
          "midi": 72,
          "name": "C5",
          "ticks": 66816,
          "time": 80.30761199999999,
          "velocity": 0.3937007874015748
        },
        {
          "duration": 0.11538450000000466,
          "durationTicks": 96,
          "midi": 82,
          "name": "A#5",
          "ticks": 67584,
          "time": 81.23068799999999,
          "velocity": 0.3937007874015748
        },
        {
          "duration": 0.11538449999999045,
          "durationTicks": 96,
          "midi": 81,
          "name": "A5",
          "ticks": 68352,
          "time": 82.153764,
          "velocity": 0.3937007874015748
        },
        {
          "duration": 0.11538450000000466,
          "durationTicks": 96,
          "midi": 77,
          "name": "F5",
          "ticks": 68736,
          "time": 82.61530199999999,
          "velocity": 0.3937007874015748
        },
        {
          "duration": 0.11538450000000466,
          "durationTicks": 96,
          "midi": 74,
          "name": "D5",
          "ticks": 69120,
          "time": 83.07683999999999,
          "velocity": 0.3937007874015748
        },
        {
          "duration": 0.11538449999999045,
          "durationTicks": 96,
          "midi": 82,
          "name": "A#5",
          "ticks": 70656,
          "time": 84.922992,
          "velocity": 0.3937007874015748
        },
        {
          "duration": 0.11538450000000466,
          "durationTicks": 96,
          "midi": 81,
          "name": "A5",
          "ticks": 71424,
          "time": 85.84606799999999,
          "velocity": 0.3937007874015748
        },
        {
          "duration": 0.11538450000000466,
          "durationTicks": 96,
          "midi": 77,
          "name": "F5",
          "ticks": 71808,
          "time": 86.30760599999999,
          "velocity": 0.3937007874015748
        },
        {
          "duration": 0.11538449999999045,
          "durationTicks": 96,
          "midi": 74,
          "name": "D5",
          "ticks": 72192,
          "time": 86.769144,
          "velocity": 0.3937007874015748
        }
      ],
      "endOfTrackTicks": 72288
    },
    {
      "channel": 2,
      "controlChanges": {},
      "pitchBends": [],
      "instrument": {
        "family": "synth lead",
        "number": 87,
        "name": "lead 8 (bass + lead)"
      },
      "name": "8-Bit Triangle",
      "notes": [
        {
          "duration": 0.3461534999999998,
          "durationTicks": 288,
          "midi": 21,
          "name": "A0",
          "ticks": 12288,
          "time": 14.769215999999998,
          "velocity": 0.3937007874015748
        },
        {
          "duration": 0.11538449999999933,
          "durationTicks": 96,
          "midi": 21,
          "name": "A0",
          "ticks": 12576,
          "time": 15.115369499999998,
          "velocity": 0.3543307086614173
        },
        {
          "duration": 0.11538450000000111,
          "durationTicks": 96,
          "midi": 21,
          "name": "A0",
          "ticks": 12672,
          "time": 15.230753999999997,
          "velocity": 0.31496062992125984
        },
        {
          "duration": 0.11538449999999933,
          "durationTicks": 96,
          "midi": 21,
          "name": "A0",
          "ticks": 12768,
          "time": 15.346138499999999,
          "velocity": 0.2755905511811024
        },
        {
          "duration": 0.3461534999999998,
          "durationTicks": 288,
          "midi": 21,
          "name": "A0",
          "ticks": 13440,
          "time": 16.15383,
          "velocity": 0.3937007874015748
        },
        {
          "duration": 0.11538449999999756,
          "durationTicks": 96,
          "midi": 21,
          "name": "A0",
          "ticks": 13728,
          "time": 16.4999835,
          "velocity": 0.3543307086614173
        },
        {
          "duration": 0.11538450000000111,
          "durationTicks": 96,
          "midi": 21,
          "name": "A0",
          "ticks": 13824,
          "time": 16.615367999999997,
          "velocity": 0.31496062992125984
        },
        {
          "duration": 0.11538450000000111,
          "durationTicks": 96,
          "midi": 21,
          "name": "A0",
          "ticks": 13920,
          "time": 16.730752499999998,
          "velocity": 0.2755905511811024
        },
        {
          "duration": 0.3461534999999998,
          "durationTicks": 288,
          "midi": 21,
          "name": "A0",
          "ticks": 14208,
          "time": 17.076905999999997,
          "velocity": 0.3937007874015748
        },
        {
          "duration": 0.11538450000000111,
          "durationTicks": 96,
          "midi": 21,
          "name": "A0",
          "ticks": 14496,
          "time": 17.423059499999997,
          "velocity": 0.3543307086614173
        },
        {
          "duration": 0.3461534999999998,
          "durationTicks": 288,
          "midi": 16,
          "name": "E0",
          "ticks": 14784,
          "time": 17.769212999999997,
          "velocity": 0.48031496062992124
        },
        {
          "duration": 0.11538450000000111,
          "durationTicks": 96,
          "midi": 16,
          "name": "E0",
          "ticks": 15072,
          "time": 18.115366499999997,
          "velocity": 0.4409448818897638
        },
        {
          "duration": 0.11538450000000111,
          "durationTicks": 96,
          "midi": 16,
          "name": "E0",
          "ticks": 15168,
          "time": 18.230750999999998,
          "velocity": 0.3937007874015748
        },
        {
          "duration": 0.3461534999999998,
          "durationTicks": 288,
          "midi": 13,
          "name": "C#0",
          "ticks": 15360,
          "time": 18.461519999999997,
          "velocity": 0.48031496062992124
        },
        {
          "duration": 0.11538450000000111,
          "durationTicks": 96,
          "midi": 13,
          "name": "C#0",
          "ticks": 15648,
          "time": 18.807673499999996,
          "velocity": 0.4409448818897638
        },
        {
          "duration": 0.11538450000000111,
          "durationTicks": 96,
          "midi": 13,
          "name": "C#0",
          "ticks": 15744,
          "time": 18.923057999999997,
          "velocity": 0.3937007874015748
        },
        {
          "duration": 0.11538449999999756,
          "durationTicks": 96,
          "midi": 13,
          "name": "C#0",
          "ticks": 15840,
          "time": 19.0384425,
          "velocity": 0.3543307086614173
        },
        {
          "duration": 0.3461534999999998,
          "durationTicks": 288,
          "midi": 13,
          "name": "C#0",
          "ticks": 16512,
          "time": 19.846134,
          "velocity": 0.48031496062992124
        },
        {
          "duration": 0.11538449999999756,
          "durationTicks": 96,
          "midi": 13,
          "name": "C#0",
          "ticks": 16800,
          "time": 20.1922875,
          "velocity": 0.4409448818897638
        },
        {
          "duration": 0.11538450000000111,
          "durationTicks": 96,
          "midi": 13,
          "name": "C#0",
          "ticks": 16896,
          "time": 20.307671999999997,
          "velocity": 0.3937007874015748
        },
        {
          "duration": 0.11538450000000111,
          "durationTicks": 96,
          "midi": 13,
          "name": "C#0",
          "ticks": 16992,
          "time": 20.423056499999998,
          "velocity": 0.3543307086614173
        },
        {
          "duration": 0.3461534999999998,
          "durationTicks": 288,
          "midi": 13,
          "name": "C#0",
          "ticks": 17280,
          "time": 20.769209999999998,
          "velocity": 0.48031496062992124
        },
        {
          "duration": 0.11538450000000111,
          "durationTicks": 96,
          "midi": 13,
          "name": "C#0",
          "ticks": 17568,
          "time": 21.115363499999997,
          "velocity": 0.4409448818897638
        },
        {
          "duration": 0.11538449999999756,
          "durationTicks": 96,
          "midi": 13,
          "name": "C#0",
          "ticks": 17664,
          "time": 21.230748,
          "velocity": 0.3937007874015748
        },
        {
          "duration": 0.11538450000000111,
          "durationTicks": 96,
          "midi": 13,
          "name": "C#0",
          "ticks": 17760,
          "time": 21.346132499999996,
          "velocity": 0.3543307086614173
        },
        {
          "duration": 0.3461534999999998,
          "durationTicks": 288,
          "midi": 20,
          "name": "G#0",
          "ticks": 17856,
          "time": 21.461516999999997,
          "velocity": 0.48031496062992124
        },
        {
          "duration": 0.11538450000000111,
          "durationTicks": 96,
          "midi": 20,
          "name": "G#0",
          "ticks": 18144,
          "time": 21.807670499999997,
          "velocity": 0.4409448818897638
        },
        {
          "duration": 0.11538450000000111,
          "durationTicks": 96,
          "midi": 20,
          "name": "G#0",
          "ticks": 18240,
          "time": 21.923054999999998,
          "velocity": 0.3937007874015748
        },
        {
          "duration": 0.3461534999999998,
          "durationTicks": 288,
          "midi": 21,
          "name": "A0",
          "ticks": 18432,
          "time": 22.153823999999997,
          "velocity": 0.3937007874015748
        },
        {
          "duration": 0.11538450000000111,
          "durationTicks": 96,
          "midi": 21,
          "name": "A0",
          "ticks": 18720,
          "time": 22.499977499999996,
          "velocity": 0.3543307086614173
        },
        {
          "duration": 0.11538450000000111,
          "durationTicks": 96,
          "midi": 21,
          "name": "A0",
          "ticks": 18816,
          "time": 22.615361999999998,
          "velocity": 0.31496062992125984
        },
        {
          "duration": 0.11538449999999756,
          "durationTicks": 96,
          "midi": 21,
          "name": "A0",
          "ticks": 18912,
          "time": 22.7307465,
          "velocity": 0.2755905511811024
        },
        {
          "duration": 0.34615350000000333,
          "durationTicks": 288,
          "midi": 18,
          "name": "F#0",
          "ticks": 19584,
          "time": 23.538437999999996,
          "velocity": 0.3937007874015748
        },
        {
          "duration": 0.11538449999999756,
          "durationTicks": 96,
          "midi": 18,
          "name": "F#0",
          "ticks": 19872,
          "time": 23.8845915,
          "velocity": 0.3543307086614173
        },
        {
          "duration": 0.11538450000000111,
          "durationTicks": 96,
          "midi": 18,
          "name": "F#0",
          "ticks": 19968,
          "time": 23.999975999999997,
          "velocity": 0.31496062992125984
        },
        {
          "duration": 0.11538450000000111,
          "durationTicks": 96,
          "midi": 18,
          "name": "F#0",
          "ticks": 20064,
          "time": 24.115360499999998,
          "velocity": 0.2755905511811024
        },
        {
          "duration": 0.3461534999999998,
          "durationTicks": 288,
          "midi": 18,
          "name": "F#0",
          "ticks": 20352,
          "time": 24.461513999999998,
          "velocity": 0.3937007874015748
        },
        {
          "duration": 0.11538450000000111,
          "durationTicks": 96,
          "midi": 18,
          "name": "F#0",
          "ticks": 20640,
          "time": 24.807667499999997,
          "velocity": 0.3543307086614173
        },
        {
          "duration": 0.3461534999999998,
          "durationTicks": 288,
          "midi": 13,
          "name": "C#0",
          "ticks": 20928,
          "time": 25.153820999999997,
          "velocity": 0.48031496062992124
        },
        {
          "duration": 0.11538450000000111,
          "durationTicks": 96,
          "midi": 13,
          "name": "C#0",
          "ticks": 21216,
          "time": 25.499974499999997,
          "velocity": 0.4409448818897638
        },
        {
          "duration": 0.11538449999999756,
          "durationTicks": 96,
          "midi": 13,
          "name": "C#0",
          "ticks": 21312,
          "time": 25.615358999999998,
          "velocity": 0.3937007874015748
        },
        {
          "duration": 0.3461534999999998,
          "durationTicks": 288,
          "midi": 13,
          "name": "C#0",
          "ticks": 21504,
          "time": 25.846127999999997,
          "velocity": 0.48031496062992124
        },
        {
          "duration": 0.11538450000000111,
          "durationTicks": 96,
          "midi": 13,
          "name": "C#0",
          "ticks": 21792,
          "time": 26.192281499999996,
          "velocity": 0.4409448818897638
        },
        {
          "duration": 0.11538450000000111,
          "durationTicks": 96,
          "midi": 13,
          "name": "C#0",
          "ticks": 21888,
          "time": 26.307665999999998,
          "velocity": 0.3937007874015748
        },
        {
          "duration": 0.11538449999999756,
          "durationTicks": 96,
          "midi": 13,
          "name": "C#0",
          "ticks": 21984,
          "time": 26.4230505,
          "velocity": 0.3543307086614173
        },
        {
          "duration": 0.3461534999999998,
          "durationTicks": 288,
          "midi": 13,
          "name": "C#0",
          "ticks": 22656,
          "time": 27.230741999999996,
          "velocity": 0.48031496062992124
        },
        {
          "duration": 0.11538450000000111,
          "durationTicks": 96,
          "midi": 13,
          "name": "C#0",
          "ticks": 22944,
          "time": 27.576895499999996,
          "velocity": 0.4409448818897638
        },
        {
          "duration": 0.11538450000000111,
          "durationTicks": 96,
          "midi": 13,
          "name": "C#0",
          "ticks": 23040,
          "time": 27.692279999999997,
          "velocity": 0.3937007874015748
        },
        {
          "duration": 0.11538449999999756,
          "durationTicks": 96,
          "midi": 13,
          "name": "C#0",
          "ticks": 23136,
          "time": 27.807664499999998,
          "velocity": 0.3543307086614173
        },
        {
          "duration": 0.3461534999999998,
          "durationTicks": 288,
          "midi": 20,
          "name": "G#0",
          "ticks": 23424,
          "time": 28.153817999999998,
          "velocity": 0.48031496062992124
        },
        {
          "duration": 0.11538450000000111,
          "durationTicks": 96,
          "midi": 20,
          "name": "G#0",
          "ticks": 23712,
          "time": 28.499971499999997,
          "velocity": 0.4409448818897638
        },
        {
          "duration": 0.11538449999999756,
          "durationTicks": 96,
          "midi": 20,
          "name": "G#0",
          "ticks": 23808,
          "time": 28.615356,
          "velocity": 0.3937007874015748
        },
        {
          "duration": 0.3461534999999998,
          "durationTicks": 288,
          "midi": 16,
          "name": "E0",
          "ticks": 24000,
          "time": 28.846124999999997,
          "velocity": 0.48031496062992124
        },
        {
          "duration": 0.11538450000000111,
          "durationTicks": 96,
          "midi": 16,
          "name": "E0",
          "ticks": 24288,
          "time": 29.192278499999997,
          "velocity": 0.4409448818897638
        },
        {
          "duration": 0.11538449999999756,
          "durationTicks": 96,
          "midi": 16,
          "name": "E0",
          "ticks": 24384,
          "time": 29.307662999999998,
          "velocity": 0.3937007874015748
        },
        {
          "duration": 0.3461534999999998,
          "durationTicks": 288,
          "midi": 18,
          "name": "F#0",
          "ticks": 24576,
          "time": 29.538431999999997,
          "velocity": 0.3937007874015748
        },
        {
          "duration": 0.11538450000000111,
          "durationTicks": 96,
          "midi": 18,
          "name": "F#0",
          "ticks": 24864,
          "time": 29.884585499999996,
          "velocity": 0.3543307086614173
        },
        {
          "duration": 0.11538449999999756,
          "durationTicks": 96,
          "midi": 18,
          "name": "F#0",
          "ticks": 24960,
          "time": 29.999969999999998,
          "velocity": 0.31496062992125984
        },
        {
          "duration": 0.11538450000000111,
          "durationTicks": 96,
          "midi": 18,
          "name": "F#0",
          "ticks": 25056,
          "time": 30.115354499999995,
          "velocity": 0.2755905511811024
        },
        {
          "duration": 0.3461534999999998,
          "durationTicks": 288,
          "midi": 21,
          "name": "A0",
          "ticks": 25728,
          "time": 30.923045999999996,
          "velocity": 0.3937007874015748
        },
        {
          "duration": 0.11538450000000111,
          "durationTicks": 96,
          "midi": 21,
          "name": "A0",
          "ticks": 26016,
          "time": 31.269199499999996,
          "velocity": 0.3543307086614173
        },
        {
          "duration": 0.11538450000000111,
          "durationTicks": 96,
          "midi": 21,
          "name": "A0",
          "ticks": 26112,
          "time": 31.384583999999997,
          "velocity": 0.31496062992125984
        },
        {
          "duration": 0.11538449999999756,
          "durationTicks": 96,
          "midi": 21,
          "name": "A0",
          "ticks": 26208,
          "time": 31.499968499999998,
          "velocity": 0.2755905511811024
        },
        {
          "duration": 0.34615349999999623,
          "durationTicks": 288,
          "midi": 21,
          "name": "A0",
          "ticks": 26496,
          "time": 31.846121999999998,
          "velocity": 0.3937007874015748
        },
        {
          "duration": 0.11538450000000466,
          "durationTicks": 96,
          "midi": 21,
          "name": "A0",
          "ticks": 26784,
          "time": 32.192275499999994,
          "velocity": 0.3543307086614173
        },
        {
          "duration": 0.3461534999999998,
          "durationTicks": 288,
          "midi": 16,
          "name": "E0",
          "ticks": 27072,
          "time": 32.538428999999994,
          "velocity": 0.48031496062992124
        },
        {
          "duration": 0.11538450000000466,
          "durationTicks": 96,
          "midi": 16,
          "name": "E0",
          "ticks": 27360,
          "time": 32.88458249999999,
          "velocity": 0.4409448818897638
        },
        {
          "duration": 0.11538449999999756,
          "durationTicks": 96,
          "midi": 16,
          "name": "E0",
          "ticks": 27456,
          "time": 32.999967,
          "velocity": 0.3937007874015748
        },
        {
          "duration": 0.3461534999999998,
          "durationTicks": 288,
          "midi": 13,
          "name": "C#0",
          "ticks": 27648,
          "time": 33.23073599999999,
          "velocity": 0.48031496062992124
        },
        {
          "duration": 0.11538450000000466,
          "durationTicks": 96,
          "midi": 13,
          "name": "C#0",
          "ticks": 27936,
          "time": 33.57688949999999,
          "velocity": 0.4409448818897638
        },
        {
          "duration": 0.11538449999999756,
          "durationTicks": 96,
          "midi": 13,
          "name": "C#0",
          "ticks": 28032,
          "time": 33.692274,
          "velocity": 0.3937007874015748
        },
        {
          "duration": 0.11538449999999756,
          "durationTicks": 96,
          "midi": 13,
          "name": "C#0",
          "ticks": 28128,
          "time": 33.807658499999995,
          "velocity": 0.3543307086614173
        },
        {
          "duration": 0.3461534999999998,
          "durationTicks": 288,
          "midi": 13,
          "name": "C#0",
          "ticks": 28800,
          "time": 34.61535,
          "velocity": 0.48031496062992124
        },
        {
          "duration": 0.11538449999999756,
          "durationTicks": 96,
          "midi": 13,
          "name": "C#0",
          "ticks": 29088,
          "time": 34.9615035,
          "velocity": 0.4409448818897638
        },
        {
          "duration": 0.11538449999999756,
          "durationTicks": 96,
          "midi": 13,
          "name": "C#0",
          "ticks": 29184,
          "time": 35.076888,
          "velocity": 0.3937007874015748
        },
        {
          "duration": 0.11538450000000466,
          "durationTicks": 96,
          "midi": 13,
          "name": "C#0",
          "ticks": 29280,
          "time": 35.192272499999994,
          "velocity": 0.3543307086614173
        },
        {
          "duration": 0.3461534999999998,
          "durationTicks": 288,
          "midi": 20,
          "name": "G#0",
          "ticks": 29568,
          "time": 35.538425999999994,
          "velocity": 0.48031496062992124
        },
        {
          "duration": 0.11538450000000466,
          "durationTicks": 96,
          "midi": 20,
          "name": "G#0",
          "ticks": 29856,
          "time": 35.884579499999994,
          "velocity": 0.4409448818897638
        },
        {
          "duration": 0.11538449999999756,
          "durationTicks": 96,
          "midi": 20,
          "name": "G#0",
          "ticks": 29952,
          "time": 35.999964,
          "velocity": 0.3937007874015748
        },
        {
          "duration": 0.3461534999999998,
          "durationTicks": 288,
          "midi": 20,
          "name": "G#0",
          "ticks": 30144,
          "time": 36.230732999999994,
          "velocity": 0.48031496062992124
        },
        {
          "duration": 0.11538450000000466,
          "durationTicks": 96,
          "midi": 20,
          "name": "G#0",
          "ticks": 30432,
          "time": 36.57688649999999,
          "velocity": 0.4409448818897638
        },
        {
          "duration": 0.11538449999999756,
          "durationTicks": 96,
          "midi": 20,
          "name": "G#0",
          "ticks": 30528,
          "time": 36.692271,
          "velocity": 0.3937007874015748
        },
        {
          "duration": 0.3461534999999998,
          "durationTicks": 288,
          "midi": 21,
          "name": "A0",
          "ticks": 30720,
          "time": 36.92303999999999,
          "velocity": 0.3937007874015748
        },
        {
          "duration": 0.11538450000000466,
          "durationTicks": 96,
          "midi": 21,
          "name": "A0",
          "ticks": 31008,
          "time": 37.26919349999999,
          "velocity": 0.3543307086614173
        },
        {
          "duration": 0.11538449999999756,
          "durationTicks": 96,
          "midi": 21,
          "name": "A0",
          "ticks": 31104,
          "time": 37.384578,
          "velocity": 0.31496062992125984
        },
        {
          "duration": 0.11538449999999756,
          "durationTicks": 96,
          "midi": 21,
          "name": "A0",
          "ticks": 31200,
          "time": 37.499962499999995,
          "velocity": 0.2755905511811024
        },
        {
          "duration": 0.3461535000000069,
          "durationTicks": 288,
          "midi": 18,
          "name": "F#0",
          "ticks": 31872,
          "time": 38.30765399999999,
          "velocity": 0.3937007874015748
        },
        {
          "duration": 0.11538449999999756,
          "durationTicks": 96,
          "midi": 18,
          "name": "F#0",
          "ticks": 32160,
          "time": 38.6538075,
          "velocity": 0.3543307086614173
        },
        {
          "duration": 0.11538449999999756,
          "durationTicks": 96,
          "midi": 18,
          "name": "F#0",
          "ticks": 32256,
          "time": 38.769192,
          "velocity": 0.31496062992125984
        },
        {
          "duration": 0.11538450000000466,
          "durationTicks": 96,
          "midi": 18,
          "name": "F#0",
          "ticks": 32352,
          "time": 38.884576499999994,
          "velocity": 0.2755905511811024
        },
        {
          "duration": 0.3461534999999998,
          "durationTicks": 288,
          "midi": 18,
          "name": "F#0",
          "ticks": 32640,
          "time": 39.230729999999994,
          "velocity": 0.3937007874015748
        },
        {
          "duration": 0.11538450000000466,
          "durationTicks": 96,
          "midi": 18,
          "name": "F#0",
          "ticks": 32928,
          "time": 39.576883499999994,
          "velocity": 0.3543307086614173
        },
        {
          "duration": 0.3461534999999998,
          "durationTicks": 288,
          "midi": 13,
          "name": "C#0",
          "ticks": 33216,
          "time": 39.923036999999994,
          "velocity": 0.48031496062992124
        },
        {
          "duration": 0.11538450000000466,
          "durationTicks": 96,
          "midi": 13,
          "name": "C#0",
          "ticks": 33504,
          "time": 40.26919049999999,
          "velocity": 0.4409448818897638
        },
        {
          "duration": 0.11538449999999756,
          "durationTicks": 96,
          "midi": 13,
          "name": "C#0",
          "ticks": 33600,
          "time": 40.384575,
          "velocity": 0.3937007874015748
        },
        {
          "duration": 0.3461534999999998,
          "durationTicks": 288,
          "midi": 13,
          "name": "C#0",
          "ticks": 33792,
          "time": 40.61534399999999,
          "velocity": 0.48031496062992124
        },
        {
          "duration": 0.11538450000000466,
          "durationTicks": 96,
          "midi": 13,
          "name": "C#0",
          "ticks": 34080,
          "time": 40.96149749999999,
          "velocity": 0.4409448818897638
        },
        {
          "duration": 0.11538449999999756,
          "durationTicks": 96,
          "midi": 13,
          "name": "C#0",
          "ticks": 34176,
          "time": 41.076882,
          "velocity": 0.3937007874015748
        },
        {
          "duration": 0.11538449999999756,
          "durationTicks": 96,
          "midi": 13,
          "name": "C#0",
          "ticks": 34272,
          "time": 41.192266499999995,
          "velocity": 0.3543307086614173
        },
        {
          "duration": 0.3461534999999998,
          "durationTicks": 288,
          "midi": 13,
          "name": "C#0",
          "ticks": 34944,
          "time": 41.99995799999999,
          "velocity": 0.48031496062992124
        },
        {
          "duration": 0.11538450000000466,
          "durationTicks": 96,
          "midi": 13,
          "name": "C#0",
          "ticks": 35232,
          "time": 42.34611149999999,
          "velocity": 0.4409448818897638
        },
        {
          "duration": 0.11538449999999756,
          "durationTicks": 96,
          "midi": 13,
          "name": "C#0",
          "ticks": 35328,
          "time": 42.461496,
          "velocity": 0.3937007874015748
        },
        {
          "duration": 0.11538449999999756,
          "durationTicks": 96,
          "midi": 13,
          "name": "C#0",
          "ticks": 35424,
          "time": 42.576880499999994,
          "velocity": 0.3543307086614173
        },
        {
          "duration": 0.3461534999999998,
          "durationTicks": 288,
          "midi": 20,
          "name": "G#0",
          "ticks": 35712,
          "time": 42.923033999999994,
          "velocity": 0.48031496062992124
        },
        {
          "duration": 0.11538450000000466,
          "durationTicks": 96,
          "midi": 20,
          "name": "G#0",
          "ticks": 36000,
          "time": 43.269187499999994,
          "velocity": 0.4409448818897638
        },
        {
          "duration": 0.11538449999999756,
          "durationTicks": 96,
          "midi": 20,
          "name": "G#0",
          "ticks": 36096,
          "time": 43.384572,
          "velocity": 0.3937007874015748
        },
        {
          "duration": 0.3461534999999998,
          "durationTicks": 288,
          "midi": 16,
          "name": "E0",
          "ticks": 36288,
          "time": 43.615340999999994,
          "velocity": 0.48031496062992124
        },
        {
          "duration": 0.11538450000000466,
          "durationTicks": 96,
          "midi": 16,
          "name": "E0",
          "ticks": 36576,
          "time": 43.96149449999999,
          "velocity": 0.4409448818897638
        },
        {
          "duration": 0.11538449999999756,
          "durationTicks": 96,
          "midi": 16,
          "name": "E0",
          "ticks": 36672,
          "time": 44.076879,
          "velocity": 0.3937007874015748
        },
        {
          "duration": 0.3461534999999998,
          "durationTicks": 288,
          "midi": 21,
          "name": "A0",
          "ticks": 38016,
          "time": 45.69226199999999,
          "velocity": 0.3937007874015748
        },
        {
          "duration": 0.11538450000000466,
          "durationTicks": 96,
          "midi": 21,
          "name": "A0",
          "ticks": 38304,
          "time": 46.03841549999999,
          "velocity": 0.3543307086614173
        },
        {
          "duration": 0.11538449999999756,
          "durationTicks": 96,
          "midi": 21,
          "name": "A0",
          "ticks": 38400,
          "time": 46.1538,
          "velocity": 0.31496062992125984
        },
        {
          "duration": 0.11538449999999756,
          "durationTicks": 96,
          "midi": 21,
          "name": "A0",
          "ticks": 38496,
          "time": 46.269184499999994,
          "velocity": 0.2755905511811024
        },
        {
          "duration": 0.3461534999999998,
          "durationTicks": 288,
          "midi": 21,
          "name": "A0",
          "ticks": 38784,
          "time": 46.615337999999994,
          "velocity": 0.3937007874015748
        },
        {
          "duration": 0.11538449999999756,
          "durationTicks": 96,
          "midi": 21,
          "name": "A0",
          "ticks": 39072,
          "time": 46.961491499999994,
          "velocity": 0.3543307086614173
        },
        {
          "duration": 0.3461534999999998,
          "durationTicks": 288,
          "midi": 16,
          "name": "E0",
          "ticks": 39360,
          "time": 47.307644999999994,
          "velocity": 0.48031496062992124
        },
        {
          "duration": 0.11538450000000466,
          "durationTicks": 96,
          "midi": 16,
          "name": "E0",
          "ticks": 39648,
          "time": 47.65379849999999,
          "velocity": 0.4409448818897638
        },
        {
          "duration": 0.11538449999999756,
          "durationTicks": 96,
          "midi": 16,
          "name": "E0",
          "ticks": 39744,
          "time": 47.769183,
          "velocity": 0.3937007874015748
        },
        {
          "duration": 0.3461534999999998,
          "durationTicks": 288,
          "midi": 13,
          "name": "C#0",
          "ticks": 39936,
          "time": 47.99995199999999,
          "velocity": 0.48031496062992124
        },
        {
          "duration": 0.11538450000000466,
          "durationTicks": 96,
          "midi": 13,
          "name": "C#0",
          "ticks": 40224,
          "time": 48.34610549999999,
          "velocity": 0.4409448818897638
        },
        {
          "duration": 0.11538449999999756,
          "durationTicks": 96,
          "midi": 13,
          "name": "C#0",
          "ticks": 40320,
          "time": 48.46149,
          "velocity": 0.3937007874015748
        },
        {
          "duration": 0.11538449999999756,
          "durationTicks": 96,
          "midi": 13,
          "name": "C#0",
          "ticks": 40416,
          "time": 48.576874499999995,
          "velocity": 0.3543307086614173
        },
        {
          "duration": 0.3461534999999998,
          "durationTicks": 288,
          "midi": 13,
          "name": "C#0",
          "ticks": 41088,
          "time": 49.38456599999999,
          "velocity": 0.48031496062992124
        },
        {
          "duration": 0.11538450000000466,
          "durationTicks": 96,
          "midi": 13,
          "name": "C#0",
          "ticks": 41376,
          "time": 49.73071949999999,
          "velocity": 0.4409448818897638
        },
        {
          "duration": 0.11538449999999756,
          "durationTicks": 96,
          "midi": 13,
          "name": "C#0",
          "ticks": 41472,
          "time": 49.846104,
          "velocity": 0.3937007874015748
        },
        {
          "duration": 0.11538449999999756,
          "durationTicks": 96,
          "midi": 13,
          "name": "C#0",
          "ticks": 41568,
          "time": 49.961488499999994,
          "velocity": 0.3543307086614173
        },
        {
          "duration": 0.3461534999999998,
          "durationTicks": 288,
          "midi": 13,
          "name": "C#0",
          "ticks": 41856,
          "time": 50.307641999999994,
          "velocity": 0.48031496062992124
        },
        {
          "duration": 0.11538449999999756,
          "durationTicks": 96,
          "midi": 13,
          "name": "C#0",
          "ticks": 42144,
          "time": 50.653795499999994,
          "velocity": 0.4409448818897638
        },
        {
          "duration": 0.11538450000000466,
          "durationTicks": 96,
          "midi": 13,
          "name": "C#0",
          "ticks": 42240,
          "time": 50.76917999999999,
          "velocity": 0.3937007874015748
        },
        {
          "duration": 0.11538449999999756,
          "durationTicks": 96,
          "midi": 13,
          "name": "C#0",
          "ticks": 42336,
          "time": 50.884564499999996,
          "velocity": 0.3543307086614173
        },
        {
          "duration": 0.3461534999999998,
          "durationTicks": 288,
          "midi": 20,
          "name": "G#0",
          "ticks": 42432,
          "time": 50.999948999999994,
          "velocity": 0.48031496062992124
        },
        {
          "duration": 0.11538449999999756,
          "durationTicks": 96,
          "midi": 20,
          "name": "G#0",
          "ticks": 42720,
          "time": 51.34610249999999,
          "velocity": 0.4409448818897638
        },
        {
          "duration": 0.11538450000000466,
          "durationTicks": 96,
          "midi": 20,
          "name": "G#0",
          "ticks": 42816,
          "time": 51.46148699999999,
          "velocity": 0.3937007874015748
        },
        {
          "duration": 0.3461534999999998,
          "durationTicks": 288,
          "midi": 21,
          "name": "A0",
          "ticks": 43008,
          "time": 51.69225599999999,
          "velocity": 0.3937007874015748
        },
        {
          "duration": 0.11538449999999756,
          "durationTicks": 96,
          "midi": 21,
          "name": "A0",
          "ticks": 43296,
          "time": 52.03840949999999,
          "velocity": 0.3543307086614173
        },
        {
          "duration": 0.11538450000000466,
          "durationTicks": 96,
          "midi": 21,
          "name": "A0",
          "ticks": 43392,
          "time": 52.15379399999999,
          "velocity": 0.31496062992125984
        },
        {
          "duration": 0.11538449999999756,
          "durationTicks": 96,
          "midi": 21,
          "name": "A0",
          "ticks": 43488,
          "time": 52.269178499999995,
          "velocity": 0.2755905511811024
        },
        {
          "duration": 0.3461534999999998,
          "durationTicks": 288,
          "midi": 18,
          "name": "F#0",
          "ticks": 44160,
          "time": 53.07686999999999,
          "velocity": 0.3937007874015748
        },
        {
          "duration": 0.11538450000000466,
          "durationTicks": 96,
          "midi": 18,
          "name": "F#0",
          "ticks": 44448,
          "time": 53.42302349999999,
          "velocity": 0.3543307086614173
        },
        {
          "duration": 0.11538449999999756,
          "durationTicks": 96,
          "midi": 18,
          "name": "F#0",
          "ticks": 44544,
          "time": 53.538408,
          "velocity": 0.31496062992125984
        },
        {
          "duration": 0.11538449999999756,
          "durationTicks": 96,
          "midi": 18,
          "name": "F#0",
          "ticks": 44640,
          "time": 53.653792499999994,
          "velocity": 0.2755905511811024
        },
        {
          "duration": 0.3461534999999998,
          "durationTicks": 288,
          "midi": 18,
          "name": "F#0",
          "ticks": 44928,
          "time": 53.999945999999994,
          "velocity": 0.3937007874015748
        },
        {
          "duration": 0.11538449999999756,
          "durationTicks": 96,
          "midi": 18,
          "name": "F#0",
          "ticks": 45216,
          "time": 54.346099499999994,
          "velocity": 0.3543307086614173
        },
        {
          "duration": 0.3461534999999998,
          "durationTicks": 288,
          "midi": 13,
          "name": "C#0",
          "ticks": 45504,
          "time": 54.692252999999994,
          "velocity": 0.48031496062992124
        },
        {
          "duration": 0.11538449999999756,
          "durationTicks": 96,
          "midi": 13,
          "name": "C#0",
          "ticks": 45792,
          "time": 55.038406499999994,
          "velocity": 0.4409448818897638
        },
        {
          "duration": 0.11538450000000466,
          "durationTicks": 96,
          "midi": 13,
          "name": "C#0",
          "ticks": 45888,
          "time": 55.15379099999999,
          "velocity": 0.3937007874015748
        },
        {
          "duration": 0.3461534999999998,
          "durationTicks": 288,
          "midi": 13,
          "name": "C#0",
          "ticks": 46080,
          "time": 55.38455999999999,
          "velocity": 0.48031496062992124
        },
        {
          "duration": 0.11538449999999756,
          "durationTicks": 96,
          "midi": 13,
          "name": "C#0",
          "ticks": 46368,
          "time": 55.73071349999999,
          "velocity": 0.4409448818897638
        },
        {
          "duration": 0.11538450000000466,
          "durationTicks": 96,
          "midi": 13,
          "name": "C#0",
          "ticks": 46464,
          "time": 55.84609799999999,
          "velocity": 0.3937007874015748
        },
        {
          "duration": 0.11538449999999756,
          "durationTicks": 96,
          "midi": 13,
          "name": "C#0",
          "ticks": 46560,
          "time": 55.961482499999995,
          "velocity": 0.3543307086614173
        },
        {
          "duration": 0.3461534999999998,
          "durationTicks": 288,
          "midi": 13,
          "name": "C#0",
          "ticks": 47232,
          "time": 56.76917399999999,
          "velocity": 0.48031496062992124
        },
        {
          "duration": 0.11538450000000466,
          "durationTicks": 96,
          "midi": 13,
          "name": "C#0",
          "ticks": 47520,
          "time": 57.11532749999999,
          "velocity": 0.4409448818897638
        },
        {
          "duration": 0.11538449999999756,
          "durationTicks": 96,
          "midi": 13,
          "name": "C#0",
          "ticks": 47616,
          "time": 57.230712,
          "velocity": 0.3937007874015748
        },
        {
          "duration": 0.11538449999999756,
          "durationTicks": 96,
          "midi": 13,
          "name": "C#0",
          "ticks": 47712,
          "time": 57.346096499999994,
          "velocity": 0.3543307086614173
        },
        {
          "duration": 0.3461534999999998,
          "durationTicks": 288,
          "midi": 20,
          "name": "G#0",
          "ticks": 48000,
          "time": 57.692249999999994,
          "velocity": 0.48031496062992124
        },
        {
          "duration": 0.11538449999999756,
          "durationTicks": 96,
          "midi": 20,
          "name": "G#0",
          "ticks": 48288,
          "time": 58.038403499999994,
          "velocity": 0.4409448818897638
        },
        {
          "duration": 0.11538450000000466,
          "durationTicks": 96,
          "midi": 20,
          "name": "G#0",
          "ticks": 48384,
          "time": 58.15378799999999,
          "velocity": 0.3937007874015748
        },
        {
          "duration": 0.3461534999999998,
          "durationTicks": 288,
          "midi": 16,
          "name": "E0",
          "ticks": 48576,
          "time": 58.384556999999994,
          "velocity": 0.48031496062992124
        },
        {
          "duration": 0.11538449999999756,
          "durationTicks": 96,
          "midi": 16,
          "name": "E0",
          "ticks": 48864,
          "time": 58.730710499999994,
          "velocity": 0.4409448818897638
        },
        {
          "duration": 0.11538450000000466,
          "durationTicks": 96,
          "midi": 16,
          "name": "E0",
          "ticks": 48960,
          "time": 58.84609499999999,
          "velocity": 0.3937007874015748
        },
        {
          "duration": 0.3461534999999998,
          "durationTicks": 288,
          "midi": 18,
          "name": "F#0",
          "ticks": 49152,
          "time": 59.07686399999999,
          "velocity": 0.3937007874015748
        },
        {
          "duration": 0.11538449999999756,
          "durationTicks": 96,
          "midi": 18,
          "name": "F#0",
          "ticks": 49440,
          "time": 59.42301749999999,
          "velocity": 0.3543307086614173
        },
        {
          "duration": 0.11538450000000466,
          "durationTicks": 96,
          "midi": 18,
          "name": "F#0",
          "ticks": 49536,
          "time": 59.53840199999999,
          "velocity": 0.31496062992125984
        },
        {
          "duration": 0.11538449999999756,
          "durationTicks": 96,
          "midi": 18,
          "name": "F#0",
          "ticks": 49632,
          "time": 59.653786499999995,
          "velocity": 0.2755905511811024
        },
        {
          "duration": 0.3461534999999998,
          "durationTicks": 288,
          "midi": 21,
          "name": "A0",
          "ticks": 50304,
          "time": 60.46147799999999,
          "velocity": 0.3937007874015748
        },
        {
          "duration": 0.11538449999999756,
          "durationTicks": 96,
          "midi": 21,
          "name": "A0",
          "ticks": 50592,
          "time": 60.80763149999999,
          "velocity": 0.3543307086614173
        },
        {
          "duration": 0.11538450000000466,
          "durationTicks": 96,
          "midi": 21,
          "name": "A0",
          "ticks": 50688,
          "time": 60.92301599999999,
          "velocity": 0.31496062992125984
        },
        {
          "duration": 0.11538449999999756,
          "durationTicks": 96,
          "midi": 21,
          "name": "A0",
          "ticks": 50784,
          "time": 61.038400499999995,
          "velocity": 0.2755905511811024
        },
        {
          "duration": 0.3461534999999998,
          "durationTicks": 288,
          "midi": 21,
          "name": "A0",
          "ticks": 51072,
          "time": 61.384553999999994,
          "velocity": 0.3937007874015748
        },
        {
          "duration": 0.11538449999999756,
          "durationTicks": 96,
          "midi": 21,
          "name": "A0",
          "ticks": 51360,
          "time": 61.730707499999994,
          "velocity": 0.3543307086614173
        },
        {
          "duration": 0.3461534999999998,
          "durationTicks": 288,
          "midi": 16,
          "name": "E0",
          "ticks": 51648,
          "time": 62.076860999999994,
          "velocity": 0.48031496062992124
        },
        {
          "duration": 0.11538449999999756,
          "durationTicks": 96,
          "midi": 16,
          "name": "E0",
          "ticks": 51936,
          "time": 62.423014499999994,
          "velocity": 0.4409448818897638
        },
        {
          "duration": 0.11538450000000466,
          "durationTicks": 96,
          "midi": 16,
          "name": "E0",
          "ticks": 52032,
          "time": 62.53839899999999,
          "velocity": 0.3937007874015748
        },
        {
          "duration": 0.3461534999999998,
          "durationTicks": 288,
          "midi": 13,
          "name": "C#0",
          "ticks": 52224,
          "time": 62.76916799999999,
          "velocity": 0.48031496062992124
        },
        {
          "duration": 0.11538449999999756,
          "durationTicks": 96,
          "midi": 13,
          "name": "C#0",
          "ticks": 52512,
          "time": 63.11532149999999,
          "velocity": 0.4409448818897638
        },
        {
          "duration": 0.11538450000000466,
          "durationTicks": 96,
          "midi": 13,
          "name": "C#0",
          "ticks": 52608,
          "time": 63.23070599999999,
          "velocity": 0.3937007874015748
        },
        {
          "duration": 0.11538449999999756,
          "durationTicks": 96,
          "midi": 13,
          "name": "C#0",
          "ticks": 52704,
          "time": 63.346090499999995,
          "velocity": 0.3543307086614173
        },
        {
          "duration": 0.3461534999999998,
          "durationTicks": 288,
          "midi": 13,
          "name": "C#0",
          "ticks": 53376,
          "time": 64.15378199999999,
          "velocity": 0.48031496062992124
        },
        {
          "duration": 0.11538450000000466,
          "durationTicks": 96,
          "midi": 13,
          "name": "C#0",
          "ticks": 53664,
          "time": 64.49993549999999,
          "velocity": 0.4409448818897638
        },
        {
          "duration": 0.11538449999999045,
          "durationTicks": 96,
          "midi": 13,
          "name": "C#0",
          "ticks": 53760,
          "time": 64.61532,
          "velocity": 0.3937007874015748
        },
        {
          "duration": 0.11538450000000466,
          "durationTicks": 96,
          "midi": 13,
          "name": "C#0",
          "ticks": 53856,
          "time": 64.73070449999999,
          "velocity": 0.3543307086614173
        },
        {
          "duration": 0.3461534999999998,
          "durationTicks": 288,
          "midi": 20,
          "name": "G#0",
          "ticks": 54144,
          "time": 65.07685799999999,
          "velocity": 0.48031496062992124
        },
        {
          "duration": 0.11538450000000466,
          "durationTicks": 96,
          "midi": 20,
          "name": "G#0",
          "ticks": 54432,
          "time": 65.42301149999999,
          "velocity": 0.4409448818897638
        },
        {
          "duration": 0.11538450000000466,
          "durationTicks": 96,
          "midi": 20,
          "name": "G#0",
          "ticks": 54528,
          "time": 65.53839599999999,
          "velocity": 0.3937007874015748
        },
        {
          "duration": 0.3461534999999998,
          "durationTicks": 288,
          "midi": 20,
          "name": "G#0",
          "ticks": 54720,
          "time": 65.76916499999999,
          "velocity": 0.48031496062992124
        },
        {
          "duration": 0.11538450000000466,
          "durationTicks": 96,
          "midi": 20,
          "name": "G#0",
          "ticks": 55008,
          "time": 66.11531849999999,
          "velocity": 0.4409448818897638
        },
        {
          "duration": 0.11538450000000466,
          "durationTicks": 96,
          "midi": 20,
          "name": "G#0",
          "ticks": 55104,
          "time": 66.23070299999999,
          "velocity": 0.3937007874015748
        },
        {
          "duration": 0.3461534999999998,
          "durationTicks": 288,
          "midi": 21,
          "name": "A0",
          "ticks": 55296,
          "time": 66.46147199999999,
          "velocity": 0.3937007874015748
        },
        {
          "duration": 0.11538450000000466,
          "durationTicks": 96,
          "midi": 21,
          "name": "A0",
          "ticks": 55584,
          "time": 66.80762549999999,
          "velocity": 0.3543307086614173
        },
        {
          "duration": 0.11538450000000466,
          "durationTicks": 96,
          "midi": 21,
          "name": "A0",
          "ticks": 55680,
          "time": 66.92300999999999,
          "velocity": 0.31496062992125984
        },
        {
          "duration": 0.11538449999999045,
          "durationTicks": 96,
          "midi": 21,
          "name": "A0",
          "ticks": 55776,
          "time": 67.0383945,
          "velocity": 0.2755905511811024
        },
        {
          "duration": 0.346153500000014,
          "durationTicks": 288,
          "midi": 18,
          "name": "F#0",
          "ticks": 56448,
          "time": 67.84608599999999,
          "velocity": 0.3937007874015748
        },
        {
          "duration": 0.11538449999999045,
          "durationTicks": 96,
          "midi": 18,
          "name": "F#0",
          "ticks": 56736,
          "time": 68.1922395,
          "velocity": 0.3543307086614173
        },
        {
          "duration": 0.11538450000000466,
          "durationTicks": 96,
          "midi": 18,
          "name": "F#0",
          "ticks": 56832,
          "time": 68.30762399999999,
          "velocity": 0.31496062992125984
        },
        {
          "duration": 0.11538450000000466,
          "durationTicks": 96,
          "midi": 18,
          "name": "F#0",
          "ticks": 56928,
          "time": 68.4230085,
          "velocity": 0.2755905511811024
        },
        {
          "duration": 0.3461534999999998,
          "durationTicks": 288,
          "midi": 18,
          "name": "F#0",
          "ticks": 57216,
          "time": 68.769162,
          "velocity": 0.3937007874015748
        },
        {
          "duration": 0.11538450000000466,
          "durationTicks": 96,
          "midi": 18,
          "name": "F#0",
          "ticks": 57504,
          "time": 69.1153155,
          "velocity": 0.3543307086614173
        },
        {
          "duration": 0.3461534999999998,
          "durationTicks": 288,
          "midi": 13,
          "name": "C#0",
          "ticks": 57792,
          "time": 69.461469,
          "velocity": 0.48031496062992124
        },
        {
          "duration": 0.11538450000000466,
          "durationTicks": 96,
          "midi": 13,
          "name": "C#0",
          "ticks": 58080,
          "time": 69.8076225,
          "velocity": 0.4409448818897638
        },
        {
          "duration": 0.11538449999999045,
          "durationTicks": 96,
          "midi": 13,
          "name": "C#0",
          "ticks": 58176,
          "time": 69.923007,
          "velocity": 0.3937007874015748
        },
        {
          "duration": 0.3461534999999998,
          "durationTicks": 288,
          "midi": 13,
          "name": "C#0",
          "ticks": 58368,
          "time": 70.153776,
          "velocity": 0.48031496062992124
        },
        {
          "duration": 0.11538450000000466,
          "durationTicks": 96,
          "midi": 13,
          "name": "C#0",
          "ticks": 58656,
          "time": 70.4999295,
          "velocity": 0.4409448818897638
        },
        {
          "duration": 0.11538449999999045,
          "durationTicks": 96,
          "midi": 13,
          "name": "C#0",
          "ticks": 58752,
          "time": 70.615314,
          "velocity": 0.3937007874015748
        },
        {
          "duration": 0.11538450000000466,
          "durationTicks": 96,
          "midi": 13,
          "name": "C#0",
          "ticks": 58848,
          "time": 70.73069849999999,
          "velocity": 0.3543307086614173
        },
        {
          "duration": 0.3461534999999998,
          "durationTicks": 288,
          "midi": 13,
          "name": "C#0",
          "ticks": 59520,
          "time": 71.53838999999999,
          "velocity": 0.48031496062992124
        },
        {
          "duration": 0.11538450000000466,
          "durationTicks": 96,
          "midi": 13,
          "name": "C#0",
          "ticks": 59808,
          "time": 71.88454349999999,
          "velocity": 0.4409448818897638
        },
        {
          "duration": 0.11538449999999045,
          "durationTicks": 96,
          "midi": 13,
          "name": "C#0",
          "ticks": 59904,
          "time": 71.999928,
          "velocity": 0.3937007874015748
        },
        {
          "duration": 0.11538450000000466,
          "durationTicks": 96,
          "midi": 13,
          "name": "C#0",
          "ticks": 60000,
          "time": 72.11531249999999,
          "velocity": 0.3543307086614173
        },
        {
          "duration": 0.3461534999999998,
          "durationTicks": 288,
          "midi": 20,
          "name": "G#0",
          "ticks": 60288,
          "time": 72.46146599999999,
          "velocity": 0.48031496062992124
        },
        {
          "duration": 0.11538450000000466,
          "durationTicks": 96,
          "midi": 20,
          "name": "G#0",
          "ticks": 60576,
          "time": 72.80761949999999,
          "velocity": 0.4409448818897638
        },
        {
          "duration": 0.11538450000000466,
          "durationTicks": 96,
          "midi": 20,
          "name": "G#0",
          "ticks": 60672,
          "time": 72.92300399999999,
          "velocity": 0.3937007874015748
        },
        {
          "duration": 0.3461534999999998,
          "durationTicks": 288,
          "midi": 16,
          "name": "E0",
          "ticks": 60864,
          "time": 73.15377299999999,
          "velocity": 0.48031496062992124
        },
        {
          "duration": 0.11538450000000466,
          "durationTicks": 96,
          "midi": 16,
          "name": "E0",
          "ticks": 61152,
          "time": 73.49992649999999,
          "velocity": 0.4409448818897638
        },
        {
          "duration": 0.11538450000000466,
          "durationTicks": 96,
          "midi": 16,
          "name": "E0",
          "ticks": 61248,
          "time": 73.61531099999999,
          "velocity": 0.3937007874015748
        }
      ],
      "endOfTrackTicks": 61344
    },
    {
      "channel": 9,
      "controlChanges": {},
      "pitchBends": [],
      "instrument": {
        "family": "drums",
        "number": 0,
        "name": "standard kit"
      },
      "name": "808 Drum Kit",
      "notes": [
        {
          "duration": 0.11538449999999933,
          "durationTicks": 96,
          "midi": 35,
          "name": "B1",
          "ticks": 12288,
          "time": 14.769215999999998,
          "velocity": 0.11811023622047244
        },
        {
          "duration": 0.11538449999999933,
          "durationTicks": 96,
          "midi": 42,
          "name": "F#2",
          "ticks": 13056,
          "time": 15.692291999999998,
          "velocity": 0.3937007874015748
        },
        {
          "duration": 0.11538449999999933,
          "durationTicks": 96,
          "midi": 39,
          "name": "D#2",
          "ticks": 13056,
          "time": 15.692291999999998,
          "velocity": 0.3937007874015748
        },
        {
          "duration": 0.11538449999999756,
          "durationTicks": 96,
          "midi": 42,
          "name": "F#2",
          "ticks": 13440,
          "time": 16.15383,
          "velocity": 0.3937007874015748
        },
        {
          "duration": 0.11538449999999756,
          "durationTicks": 96,
          "midi": 35,
          "name": "B1",
          "ticks": 13440,
          "time": 16.15383,
          "velocity": 0.11811023622047244
        },
        {
          "duration": 0.11538450000000111,
          "durationTicks": 96,
          "midi": 42,
          "name": "F#2",
          "ticks": 13632,
          "time": 16.384598999999998,
          "velocity": 0.3937007874015748
        },
        {
          "duration": 0.11538450000000111,
          "durationTicks": 96,
          "midi": 37,
          "name": "C#2",
          "ticks": 13632,
          "time": 16.384598999999998,
          "velocity": 0.3937007874015748
        },
        {
          "duration": 0.11538450000000111,
          "durationTicks": 96,
          "midi": 42,
          "name": "F#2",
          "ticks": 13824,
          "time": 16.615367999999997,
          "velocity": 0.3937007874015748
        },
        {
          "duration": 0.11538449999999756,
          "durationTicks": 96,
          "midi": 42,
          "name": "F#2",
          "ticks": 14016,
          "time": 16.846137,
          "velocity": 0.3937007874015748
        },
        {
          "duration": 0.11538449999999756,
          "durationTicks": 96,
          "midi": 37,
          "name": "C#2",
          "ticks": 14016,
          "time": 16.846137,
          "velocity": 0.3937007874015748
        },
        {
          "duration": 0.11538450000000111,
          "durationTicks": 96,
          "midi": 42,
          "name": "F#2",
          "ticks": 14208,
          "time": 17.076905999999997,
          "velocity": 0.3937007874015748
        },
        {
          "duration": 0.11538450000000111,
          "durationTicks": 96,
          "midi": 51,
          "name": "D#3",
          "ticks": 14208,
          "time": 17.076905999999997,
          "velocity": 0.3937007874015748
        },
        {
          "duration": 0.11538450000000111,
          "durationTicks": 96,
          "midi": 35,
          "name": "B1",
          "ticks": 14208,
          "time": 17.076905999999997,
          "velocity": 0.11811023622047244
        },
        {
          "duration": 0.11538449999999756,
          "durationTicks": 96,
          "midi": 42,
          "name": "F#2",
          "ticks": 14400,
          "time": 17.307675,
          "velocity": 0.3937007874015748
        },
        {
          "duration": 0.11538450000000111,
          "durationTicks": 96,
          "midi": 42,
          "name": "F#2",
          "ticks": 14592,
          "time": 17.538444,
          "velocity": 0.3937007874015748
        },
        {
          "duration": 0.11538450000000111,
          "durationTicks": 96,
          "midi": 39,
          "name": "D#2",
          "ticks": 14592,
          "time": 17.538444,
          "velocity": 0.3937007874015748
        },
        {
          "duration": 0.11538450000000111,
          "durationTicks": 96,
          "midi": 35,
          "name": "B1",
          "ticks": 14784,
          "time": 17.769212999999997,
          "velocity": 0.11811023622047244
        },
        {
          "duration": 0.11538449999999756,
          "durationTicks": 96,
          "midi": 42,
          "name": "F#2",
          "ticks": 14976,
          "time": 17.999982,
          "velocity": 0.3937007874015748
        },
        {
          "duration": 0.11538450000000111,
          "durationTicks": 96,
          "midi": 42,
          "name": "F#2",
          "ticks": 15072,
          "time": 18.115366499999997,
          "velocity": 0.3937007874015748
        },
        {
          "duration": 0.11538450000000111,
          "durationTicks": 96,
          "midi": 42,
          "name": "F#2",
          "ticks": 15168,
          "time": 18.230750999999998,
          "velocity": 0.3937007874015748
        },
        {
          "duration": 0.11538450000000111,
          "durationTicks": 96,
          "midi": 46,
          "name": "A#2",
          "ticks": 15360,
          "time": 18.461519999999997,
          "velocity": 0.3937007874015748
        },
        {
          "duration": 0.11538450000000111,
          "durationTicks": 96,
          "midi": 35,
          "name": "B1",
          "ticks": 15360,
          "time": 18.461519999999997,
          "velocity": 0.11811023622047244
        },
        {
          "duration": 0.11538450000000111,
          "durationTicks": 96,
          "midi": 42,
          "name": "F#2",
          "ticks": 15936,
          "time": 19.153826999999996,
          "velocity": 0.3937007874015748
        },
        {
          "duration": 0.11538450000000111,
          "durationTicks": 96,
          "midi": 42,
          "name": "F#2",
          "ticks": 16128,
          "time": 19.384596,
          "velocity": 0.3937007874015748
        },
        {
          "duration": 0.11538450000000111,
          "durationTicks": 96,
          "midi": 39,
          "name": "D#2",
          "ticks": 16128,
          "time": 19.384596,
          "velocity": 0.3937007874015748
        },
        {
          "duration": 0.11538449999999756,
          "durationTicks": 96,
          "midi": 42,
          "name": "F#2",
          "ticks": 16512,
          "time": 19.846134,
          "velocity": 0.3937007874015748
        },
        {
          "duration": 0.11538449999999756,
          "durationTicks": 96,
          "midi": 35,
          "name": "B1",
          "ticks": 16512,
          "time": 19.846134,
          "velocity": 0.11811023622047244
        },
        {
          "duration": 0.11538450000000111,
          "durationTicks": 96,
          "midi": 42,
          "name": "F#2",
          "ticks": 16704,
          "time": 20.076902999999998,
          "velocity": 0.3937007874015748
        },
        {
          "duration": 0.11538450000000111,
          "durationTicks": 96,
          "midi": 37,
          "name": "C#2",
          "ticks": 16704,
          "time": 20.076902999999998,
          "velocity": 0.3937007874015748
        },
        {
          "duration": 0.11538450000000111,
          "durationTicks": 96,
          "midi": 42,
          "name": "F#2",
          "ticks": 16896,
          "time": 20.307671999999997,
          "velocity": 0.3937007874015748
        },
        {
          "duration": 0.11538449999999756,
          "durationTicks": 96,
          "midi": 42,
          "name": "F#2",
          "ticks": 17088,
          "time": 20.538441,
          "velocity": 0.3937007874015748
        },
        {
          "duration": 0.11538449999999756,
          "durationTicks": 96,
          "midi": 37,
          "name": "C#2",
          "ticks": 17088,
          "time": 20.538441,
          "velocity": 0.3937007874015748
        },
        {
          "duration": 0.11538450000000111,
          "durationTicks": 96,
          "midi": 42,
          "name": "F#2",
          "ticks": 17280,
          "time": 20.769209999999998,
          "velocity": 0.3937007874015748
        },
        {
          "duration": 0.11538450000000111,
          "durationTicks": 96,
          "midi": 51,
          "name": "D#3",
          "ticks": 17280,
          "time": 20.769209999999998,
          "velocity": 0.3937007874015748
        },
        {
          "duration": 0.11538450000000111,
          "durationTicks": 96,
          "midi": 35,
          "name": "B1",
          "ticks": 17280,
          "time": 20.769209999999998,
          "velocity": 0.11811023622047244
        },
        {
          "duration": 0.11538450000000111,
          "durationTicks": 96,
          "midi": 42,
          "name": "F#2",
          "ticks": 17472,
          "time": 20.999978999999996,
          "velocity": 0.3937007874015748
        },
        {
          "duration": 0.11538449999999756,
          "durationTicks": 96,
          "midi": 42,
          "name": "F#2",
          "ticks": 17664,
          "time": 21.230748,
          "velocity": 0.3937007874015748
        },
        {
          "duration": 0.11538449999999756,
          "durationTicks": 96,
          "midi": 39,
          "name": "D#2",
          "ticks": 17664,
          "time": 21.230748,
          "velocity": 0.3937007874015748
        },
        {
          "duration": 0.11538450000000111,
          "durationTicks": 96,
          "midi": 51,
          "name": "D#3",
          "ticks": 17856,
          "time": 21.461516999999997,
          "velocity": 0.3937007874015748
        },
        {
          "duration": 0.11538450000000111,
          "durationTicks": 96,
          "midi": 35,
          "name": "B1",
          "ticks": 17856,
          "time": 21.461516999999997,
          "velocity": 0.11811023622047244
        },
        {
          "duration": 0.11538449999999756,
          "durationTicks": 96,
          "midi": 42,
          "name": "F#2",
          "ticks": 18048,
          "time": 21.692286,
          "velocity": 0.3937007874015748
        },
        {
          "duration": 0.11538450000000111,
          "durationTicks": 96,
          "midi": 35,
          "name": "B1",
          "ticks": 18432,
          "time": 22.153823999999997,
          "velocity": 0.11811023622047244
        },
        {
          "duration": 0.11538450000000111,
          "durationTicks": 96,
          "midi": 42,
          "name": "F#2",
          "ticks": 18432,
          "time": 22.153823999999997,
          "velocity": 0.3937007874015748
        },
        {
          "duration": 0.11538450000000111,
          "durationTicks": 96,
          "midi": 42,
          "name": "F#2",
          "ticks": 18816,
          "time": 22.615361999999998,
          "velocity": 0.3937007874015748
        },
        {
          "duration": 0.11538450000000111,
          "durationTicks": 96,
          "midi": 42,
          "name": "F#2",
          "ticks": 19008,
          "time": 22.846130999999996,
          "velocity": 0.3937007874015748
        },
        {
          "duration": 0.11538449999999756,
          "durationTicks": 96,
          "midi": 42,
          "name": "F#2",
          "ticks": 19200,
          "time": 23.0769,
          "velocity": 0.3937007874015748
        },
        {
          "duration": 0.11538449999999756,
          "durationTicks": 96,
          "midi": 39,
          "name": "D#2",
          "ticks": 19200,
          "time": 23.0769,
          "velocity": 0.3937007874015748
        },
        {
          "duration": 0.11538450000000111,
          "durationTicks": 96,
          "midi": 42,
          "name": "F#2",
          "ticks": 19584,
          "time": 23.538437999999996,
          "velocity": 0.3937007874015748
        },
        {
          "duration": 0.11538450000000111,
          "durationTicks": 96,
          "midi": 35,
          "name": "B1",
          "ticks": 19584,
          "time": 23.538437999999996,
          "velocity": 0.11811023622047244
        },
        {
          "duration": 0.11538450000000111,
          "durationTicks": 96,
          "midi": 42,
          "name": "F#2",
          "ticks": 19776,
          "time": 23.769206999999998,
          "velocity": 0.3937007874015748
        },
        {
          "duration": 0.11538450000000111,
          "durationTicks": 96,
          "midi": 37,
          "name": "C#2",
          "ticks": 19776,
          "time": 23.769206999999998,
          "velocity": 0.3937007874015748
        },
        {
          "duration": 0.11538450000000111,
          "durationTicks": 96,
          "midi": 42,
          "name": "F#2",
          "ticks": 19968,
          "time": 23.999975999999997,
          "velocity": 0.3937007874015748
        },
        {
          "duration": 0.11538449999999756,
          "durationTicks": 96,
          "midi": 42,
          "name": "F#2",
          "ticks": 20160,
          "time": 24.230745,
          "velocity": 0.3937007874015748
        },
        {
          "duration": 0.11538449999999756,
          "durationTicks": 96,
          "midi": 37,
          "name": "C#2",
          "ticks": 20160,
          "time": 24.230745,
          "velocity": 0.3937007874015748
        },
        {
          "duration": 0.11538450000000111,
          "durationTicks": 96,
          "midi": 42,
          "name": "F#2",
          "ticks": 20352,
          "time": 24.461513999999998,
          "velocity": 0.3937007874015748
        },
        {
          "duration": 0.11538450000000111,
          "durationTicks": 96,
          "midi": 51,
          "name": "D#3",
          "ticks": 20352,
          "time": 24.461513999999998,
          "velocity": 0.3937007874015748
        },
        {
          "duration": 0.11538450000000111,
          "durationTicks": 96,
          "midi": 35,
          "name": "B1",
          "ticks": 20352,
          "time": 24.461513999999998,
          "velocity": 0.11811023622047244
        },
        {
          "duration": 0.11538450000000111,
          "durationTicks": 96,
          "midi": 42,
          "name": "F#2",
          "ticks": 20544,
          "time": 24.692282999999996,
          "velocity": 0.3937007874015748
        },
        {
          "duration": 0.11538449999999756,
          "durationTicks": 96,
          "midi": 42,
          "name": "F#2",
          "ticks": 20736,
          "time": 24.923052,
          "velocity": 0.3937007874015748
        },
        {
          "duration": 0.11538449999999756,
          "durationTicks": 96,
          "midi": 39,
          "name": "D#2",
          "ticks": 20736,
          "time": 24.923052,
          "velocity": 0.3937007874015748
        },
        {
          "duration": 0.11538450000000111,
          "durationTicks": 96,
          "midi": 35,
          "name": "B1",
          "ticks": 20928,
          "time": 25.153820999999997,
          "velocity": 0.11811023622047244
        },
        {
          "duration": 0.11538450000000111,
          "durationTicks": 96,
          "midi": 42,
          "name": "F#2",
          "ticks": 21120,
          "time": 25.384589999999996,
          "velocity": 0.3937007874015748
        },
        {
          "duration": 0.11538450000000111,
          "durationTicks": 96,
          "midi": 42,
          "name": "F#2",
          "ticks": 21216,
          "time": 25.499974499999997,
          "velocity": 0.3937007874015748
        },
        {
          "duration": 0.11538449999999756,
          "durationTicks": 96,
          "midi": 42,
          "name": "F#2",
          "ticks": 21312,
          "time": 25.615358999999998,
          "velocity": 0.3937007874015748
        },
        {
          "duration": 0.11538450000000111,
          "durationTicks": 96,
          "midi": 46,
          "name": "A#2",
          "ticks": 21504,
          "time": 25.846127999999997,
          "velocity": 0.3937007874015748
        },
        {
          "duration": 0.11538450000000111,
          "durationTicks": 96,
          "midi": 35,
          "name": "B1",
          "ticks": 21504,
          "time": 25.846127999999997,
          "velocity": 0.11811023622047244
        },
        {
          "duration": 0.11538450000000111,
          "durationTicks": 96,
          "midi": 42,
          "name": "F#2",
          "ticks": 22080,
          "time": 26.538434999999996,
          "velocity": 0.3937007874015748
        },
        {
          "duration": 0.11538449999999756,
          "durationTicks": 96,
          "midi": 42,
          "name": "F#2",
          "ticks": 22272,
          "time": 26.769204,
          "velocity": 0.3937007874015748
        },
        {
          "duration": 0.11538449999999756,
          "durationTicks": 96,
          "midi": 39,
          "name": "D#2",
          "ticks": 22272,
          "time": 26.769204,
          "velocity": 0.3937007874015748
        },
        {
          "duration": 0.11538450000000111,
          "durationTicks": 96,
          "midi": 42,
          "name": "F#2",
          "ticks": 22656,
          "time": 27.230741999999996,
          "velocity": 0.3937007874015748
        },
        {
          "duration": 0.11538450000000111,
          "durationTicks": 96,
          "midi": 35,
          "name": "B1",
          "ticks": 22656,
          "time": 27.230741999999996,
          "velocity": 0.11811023622047244
        },
        {
          "duration": 0.11538449999999756,
          "durationTicks": 96,
          "midi": 42,
          "name": "F#2",
          "ticks": 22848,
          "time": 27.461510999999998,
          "velocity": 0.3937007874015748
        },
        {
          "duration": 0.11538449999999756,
          "durationTicks": 96,
          "midi": 37,
          "name": "C#2",
          "ticks": 22848,
          "time": 27.461510999999998,
          "velocity": 0.3937007874015748
        },
        {
          "duration": 0.11538450000000111,
          "durationTicks": 96,
          "midi": 42,
          "name": "F#2",
          "ticks": 23040,
          "time": 27.692279999999997,
          "velocity": 0.3937007874015748
        },
        {
          "duration": 0.11538450000000111,
          "durationTicks": 96,
          "midi": 42,
          "name": "F#2",
          "ticks": 23232,
          "time": 27.923048999999995,
          "velocity": 0.3937007874015748
        },
        {
          "duration": 0.11538450000000111,
          "durationTicks": 96,
          "midi": 37,
          "name": "C#2",
          "ticks": 23232,
          "time": 27.923048999999995,
          "velocity": 0.3937007874015748
        },
        {
          "duration": 0.11538449999999756,
          "durationTicks": 96,
          "midi": 42,
          "name": "F#2",
          "ticks": 23424,
          "time": 28.153817999999998,
          "velocity": 0.3937007874015748
        },
        {
          "duration": 0.11538449999999756,
          "durationTicks": 96,
          "midi": 51,
          "name": "D#3",
          "ticks": 23424,
          "time": 28.153817999999998,
          "velocity": 0.3937007874015748
        },
        {
          "duration": 0.11538449999999756,
          "durationTicks": 96,
          "midi": 35,
          "name": "B1",
          "ticks": 23424,
          "time": 28.153817999999998,
          "velocity": 0.11811023622047244
        },
        {
          "duration": 0.11538450000000111,
          "durationTicks": 96,
          "midi": 42,
          "name": "F#2",
          "ticks": 23616,
          "time": 28.384586999999996,
          "velocity": 0.3937007874015748
        },
        {
          "duration": 0.11538449999999756,
          "durationTicks": 96,
          "midi": 42,
          "name": "F#2",
          "ticks": 23808,
          "time": 28.615356,
          "velocity": 0.3937007874015748
        },
        {
          "duration": 0.11538449999999756,
          "durationTicks": 96,
          "midi": 39,
          "name": "D#2",
          "ticks": 23808,
          "time": 28.615356,
          "velocity": 0.3937007874015748
        },
        {
          "duration": 0.11538450000000111,
          "durationTicks": 96,
          "midi": 51,
          "name": "D#3",
          "ticks": 24000,
          "time": 28.846124999999997,
          "velocity": 0.3937007874015748
        },
        {
          "duration": 0.11538450000000111,
          "durationTicks": 96,
          "midi": 35,
          "name": "B1",
          "ticks": 24000,
          "time": 28.846124999999997,
          "velocity": 0.11811023622047244
        },
        {
          "duration": 0.11538450000000111,
          "durationTicks": 96,
          "midi": 42,
          "name": "F#2",
          "ticks": 24192,
          "time": 29.076893999999996,
          "velocity": 0.3937007874015748
        },
        {
          "duration": 0.11538450000000111,
          "durationTicks": 96,
          "midi": 35,
          "name": "B1",
          "ticks": 24576,
          "time": 29.538431999999997,
          "velocity": 0.11811023622047244
        },
        {
          "duration": 0.11538449999999756,
          "durationTicks": 96,
          "midi": 42,
          "name": "F#2",
          "ticks": 24960,
          "time": 29.999969999999998,
          "velocity": 0.3937007874015748
        },
        {
          "duration": 0.11538450000000111,
          "durationTicks": 96,
          "midi": 42,
          "name": "F#2",
          "ticks": 25152,
          "time": 30.230738999999996,
          "velocity": 0.3937007874015748
        },
        {
          "duration": 0.11538450000000111,
          "durationTicks": 96,
          "midi": 42,
          "name": "F#2",
          "ticks": 25344,
          "time": 30.461507999999995,
          "velocity": 0.3937007874015748
        },
        {
          "duration": 0.11538450000000111,
          "durationTicks": 96,
          "midi": 39,
          "name": "D#2",
          "ticks": 25344,
          "time": 30.461507999999995,
          "velocity": 0.3937007874015748
        },
        {
          "duration": 0.11538450000000111,
          "durationTicks": 96,
          "midi": 42,
          "name": "F#2",
          "ticks": 25728,
          "time": 30.923045999999996,
          "velocity": 0.3937007874015748
        },
        {
          "duration": 0.11538450000000111,
          "durationTicks": 96,
          "midi": 35,
          "name": "B1",
          "ticks": 25728,
          "time": 30.923045999999996,
          "velocity": 0.11811023622047244
        },
        {
          "duration": 0.11538449999999756,
          "durationTicks": 96,
          "midi": 42,
          "name": "F#2",
          "ticks": 25920,
          "time": 31.153814999999998,
          "velocity": 0.3937007874015748
        },
        {
          "duration": 0.11538449999999756,
          "durationTicks": 96,
          "midi": 37,
          "name": "C#2",
          "ticks": 25920,
          "time": 31.153814999999998,
          "velocity": 0.3937007874015748
        },
        {
          "duration": 0.11538450000000111,
          "durationTicks": 96,
          "midi": 42,
          "name": "F#2",
          "ticks": 26112,
          "time": 31.384583999999997,
          "velocity": 0.3937007874015748
        },
        {
          "duration": 0.11538450000000111,
          "durationTicks": 96,
          "midi": 42,
          "name": "F#2",
          "ticks": 26304,
          "time": 31.615352999999995,
          "velocity": 0.3937007874015748
        },
        {
          "duration": 0.11538450000000111,
          "durationTicks": 96,
          "midi": 37,
          "name": "C#2",
          "ticks": 26304,
          "time": 31.615352999999995,
          "velocity": 0.3937007874015748
        },
        {
          "duration": 0.11538449999999756,
          "durationTicks": 96,
          "midi": 42,
          "name": "F#2",
          "ticks": 26496,
          "time": 31.846121999999998,
          "velocity": 0.3937007874015748
        },
        {
          "duration": 0.11538449999999756,
          "durationTicks": 96,
          "midi": 51,
          "name": "D#3",
          "ticks": 26496,
          "time": 31.846121999999998,
          "velocity": 0.3937007874015748
        },
        {
          "duration": 0.11538449999999756,
          "durationTicks": 96,
          "midi": 35,
          "name": "B1",
          "ticks": 26496,
          "time": 31.846121999999998,
          "velocity": 0.11811023622047244
        },
        {
          "duration": 0.11538449999999756,
          "durationTicks": 96,
          "midi": 42,
          "name": "F#2",
          "ticks": 26688,
          "time": 32.076890999999996,
          "velocity": 0.3937007874015748
        },
        {
          "duration": 0.11538449999999756,
          "durationTicks": 96,
          "midi": 42,
          "name": "F#2",
          "ticks": 26880,
          "time": 32.30766,
          "velocity": 0.3937007874015748
        },
        {
          "duration": 0.11538449999999756,
          "durationTicks": 96,
          "midi": 39,
          "name": "D#2",
          "ticks": 26880,
          "time": 32.30766,
          "velocity": 0.3937007874015748
        },
        {
          "duration": 0.11538450000000466,
          "durationTicks": 96,
          "midi": 35,
          "name": "B1",
          "ticks": 27072,
          "time": 32.538428999999994,
          "velocity": 0.11811023622047244
        },
        {
          "duration": 0.11538449999999756,
          "durationTicks": 96,
          "midi": 42,
          "name": "F#2",
          "ticks": 27264,
          "time": 32.769197999999996,
          "velocity": 0.3937007874015748
        },
        {
          "duration": 0.11538450000000466,
          "durationTicks": 96,
          "midi": 42,
          "name": "F#2",
          "ticks": 27360,
          "time": 32.88458249999999,
          "velocity": 0.3937007874015748
        },
        {
          "duration": 0.11538449999999756,
          "durationTicks": 96,
          "midi": 42,
          "name": "F#2",
          "ticks": 27456,
          "time": 32.999967,
          "velocity": 0.3937007874015748
        },
        {
          "duration": 0.11538450000000466,
          "durationTicks": 96,
          "midi": 46,
          "name": "A#2",
          "ticks": 27648,
          "time": 33.23073599999999,
          "velocity": 0.3937007874015748
        },
        {
          "duration": 0.11538450000000466,
          "durationTicks": 96,
          "midi": 35,
          "name": "B1",
          "ticks": 27648,
          "time": 33.23073599999999,
          "velocity": 0.11811023622047244
        },
        {
          "duration": 0.11538450000000466,
          "durationTicks": 96,
          "midi": 42,
          "name": "F#2",
          "ticks": 28224,
          "time": 33.92304299999999,
          "velocity": 0.3937007874015748
        },
        {
          "duration": 0.11538450000000466,
          "durationTicks": 96,
          "midi": 42,
          "name": "F#2",
          "ticks": 28416,
          "time": 34.153811999999995,
          "velocity": 0.3937007874015748
        },
        {
          "duration": 0.11538450000000466,
          "durationTicks": 96,
          "midi": 39,
          "name": "D#2",
          "ticks": 28416,
          "time": 34.153811999999995,
          "velocity": 0.3937007874015748
        },
        {
          "duration": 0.11538449999999756,
          "durationTicks": 96,
          "midi": 42,
          "name": "F#2",
          "ticks": 28800,
          "time": 34.61535,
          "velocity": 0.3937007874015748
        },
        {
          "duration": 0.11538449999999756,
          "durationTicks": 96,
          "midi": 35,
          "name": "B1",
          "ticks": 28800,
          "time": 34.61535,
          "velocity": 0.11811023622047244
        },
        {
          "duration": 0.11538450000000466,
          "durationTicks": 96,
          "midi": 42,
          "name": "F#2",
          "ticks": 28992,
          "time": 34.846118999999995,
          "velocity": 0.3937007874015748
        },
        {
          "duration": 0.11538450000000466,
          "durationTicks": 96,
          "midi": 37,
          "name": "C#2",
          "ticks": 28992,
          "time": 34.846118999999995,
          "velocity": 0.3937007874015748
        },
        {
          "duration": 0.11538449999999756,
          "durationTicks": 96,
          "midi": 42,
          "name": "F#2",
          "ticks": 29184,
          "time": 35.076888,
          "velocity": 0.3937007874015748
        },
        {
          "duration": 0.11538449999999756,
          "durationTicks": 96,
          "midi": 42,
          "name": "F#2",
          "ticks": 29376,
          "time": 35.307657,
          "velocity": 0.3937007874015748
        },
        {
          "duration": 0.11538449999999756,
          "durationTicks": 96,
          "midi": 37,
          "name": "C#2",
          "ticks": 29376,
          "time": 35.307657,
          "velocity": 0.3937007874015748
        },
        {
          "duration": 0.11538450000000466,
          "durationTicks": 96,
          "midi": 42,
          "name": "F#2",
          "ticks": 29568,
          "time": 35.538425999999994,
          "velocity": 0.3937007874015748
        },
        {
          "duration": 0.11538450000000466,
          "durationTicks": 96,
          "midi": 51,
          "name": "D#3",
          "ticks": 29568,
          "time": 35.538425999999994,
          "velocity": 0.3937007874015748
        },
        {
          "duration": 0.11538450000000466,
          "durationTicks": 96,
          "midi": 35,
          "name": "B1",
          "ticks": 29568,
          "time": 35.538425999999994,
          "velocity": 0.11811023622047244
        },
        {
          "duration": 0.11538449999999756,
          "durationTicks": 96,
          "midi": 42,
          "name": "F#2",
          "ticks": 29760,
          "time": 35.769194999999996,
          "velocity": 0.3937007874015748
        },
        {
          "duration": 0.11538449999999756,
          "durationTicks": 96,
          "midi": 42,
          "name": "F#2",
          "ticks": 29952,
          "time": 35.999964,
          "velocity": 0.3937007874015748
        },
        {
          "duration": 0.11538449999999756,
          "durationTicks": 96,
          "midi": 39,
          "name": "D#2",
          "ticks": 29952,
          "time": 35.999964,
          "velocity": 0.3937007874015748
        },
        {
          "duration": 0.11538450000000466,
          "durationTicks": 96,
          "midi": 51,
          "name": "D#3",
          "ticks": 30144,
          "time": 36.230732999999994,
          "velocity": 0.3937007874015748
        },
        {
          "duration": 0.11538450000000466,
          "durationTicks": 96,
          "midi": 35,
          "name": "B1",
          "ticks": 30144,
          "time": 36.230732999999994,
          "velocity": 0.11811023622047244
        },
        {
          "duration": 0.11538449999999756,
          "durationTicks": 96,
          "midi": 42,
          "name": "F#2",
          "ticks": 30336,
          "time": 36.461501999999996,
          "velocity": 0.3937007874015748
        },
        {
          "duration": 0.11538450000000466,
          "durationTicks": 96,
          "midi": 35,
          "name": "B1",
          "ticks": 30720,
          "time": 36.92303999999999,
          "velocity": 0.11811023622047244
        },
        {
          "duration": 0.11538450000000466,
          "durationTicks": 96,
          "midi": 42,
          "name": "F#2",
          "ticks": 30720,
          "time": 36.92303999999999,
          "velocity": 0.3937007874015748
        },
        {
          "duration": 0.11538449999999756,
          "durationTicks": 96,
          "midi": 42,
          "name": "F#2",
          "ticks": 31104,
          "time": 37.384578,
          "velocity": 0.3937007874015748
        },
        {
          "duration": 0.11538450000000466,
          "durationTicks": 96,
          "midi": 42,
          "name": "F#2",
          "ticks": 31296,
          "time": 37.61534699999999,
          "velocity": 0.3937007874015748
        },
        {
          "duration": 0.11538449999999756,
          "durationTicks": 96,
          "midi": 42,
          "name": "F#2",
          "ticks": 31488,
          "time": 37.846115999999995,
          "velocity": 0.3937007874015748
        },
        {
          "duration": 0.11538449999999756,
          "durationTicks": 96,
          "midi": 39,
          "name": "D#2",
          "ticks": 31488,
          "time": 37.846115999999995,
          "velocity": 0.3937007874015748
        },
        {
          "duration": 0.11538450000000466,
          "durationTicks": 96,
          "midi": 42,
          "name": "F#2",
          "ticks": 31872,
          "time": 38.30765399999999,
          "velocity": 0.3937007874015748
        },
        {
          "duration": 0.11538450000000466,
          "durationTicks": 96,
          "midi": 35,
          "name": "B1",
          "ticks": 31872,
          "time": 38.30765399999999,
          "velocity": 0.11811023622047244
        },
        {
          "duration": 0.11538450000000466,
          "durationTicks": 96,
          "midi": 42,
          "name": "F#2",
          "ticks": 32064,
          "time": 38.538422999999995,
          "velocity": 0.3937007874015748
        },
        {
          "duration": 0.11538450000000466,
          "durationTicks": 96,
          "midi": 37,
          "name": "C#2",
          "ticks": 32064,
          "time": 38.538422999999995,
          "velocity": 0.3937007874015748
        },
        {
          "duration": 0.11538449999999756,
          "durationTicks": 96,
          "midi": 42,
          "name": "F#2",
          "ticks": 32256,
          "time": 38.769192,
          "velocity": 0.3937007874015748
        },
        {
          "duration": 0.11538449999999756,
          "durationTicks": 96,
          "midi": 42,
          "name": "F#2",
          "ticks": 32448,
          "time": 38.999961,
          "velocity": 0.3937007874015748
        },
        {
          "duration": 0.11538449999999756,
          "durationTicks": 96,
          "midi": 37,
          "name": "C#2",
          "ticks": 32448,
          "time": 38.999961,
          "velocity": 0.3937007874015748
        },
        {
          "duration": 0.11538450000000466,
          "durationTicks": 96,
          "midi": 42,
          "name": "F#2",
          "ticks": 32640,
          "time": 39.230729999999994,
          "velocity": 0.3937007874015748
        },
        {
          "duration": 0.11538450000000466,
          "durationTicks": 96,
          "midi": 51,
          "name": "D#3",
          "ticks": 32640,
          "time": 39.230729999999994,
          "velocity": 0.3937007874015748
        },
        {
          "duration": 0.11538450000000466,
          "durationTicks": 96,
          "midi": 35,
          "name": "B1",
          "ticks": 32640,
          "time": 39.230729999999994,
          "velocity": 0.11811023622047244
        },
        {
          "duration": 0.11538449999999756,
          "durationTicks": 96,
          "midi": 42,
          "name": "F#2",
          "ticks": 32832,
          "time": 39.461498999999996,
          "velocity": 0.3937007874015748
        },
        {
          "duration": 0.11538449999999756,
          "durationTicks": 96,
          "midi": 42,
          "name": "F#2",
          "ticks": 33024,
          "time": 39.692268,
          "velocity": 0.3937007874015748
        },
        {
          "duration": 0.11538449999999756,
          "durationTicks": 96,
          "midi": 39,
          "name": "D#2",
          "ticks": 33024,
          "time": 39.692268,
          "velocity": 0.3937007874015748
        },
        {
          "duration": 0.11538450000000466,
          "durationTicks": 96,
          "midi": 35,
          "name": "B1",
          "ticks": 33216,
          "time": 39.923036999999994,
          "velocity": 0.11811023622047244
        },
        {
          "duration": 0.11538449999999756,
          "durationTicks": 96,
          "midi": 42,
          "name": "F#2",
          "ticks": 33408,
          "time": 40.153805999999996,
          "velocity": 0.3937007874015748
        },
        {
          "duration": 0.11538450000000466,
          "durationTicks": 96,
          "midi": 42,
          "name": "F#2",
          "ticks": 33504,
          "time": 40.26919049999999,
          "velocity": 0.3937007874015748
        },
        {
          "duration": 0.11538449999999756,
          "durationTicks": 96,
          "midi": 42,
          "name": "F#2",
          "ticks": 33600,
          "time": 40.384575,
          "velocity": 0.3937007874015748
        },
        {
          "duration": 0.11538450000000466,
          "durationTicks": 96,
          "midi": 46,
          "name": "A#2",
          "ticks": 33792,
          "time": 40.61534399999999,
          "velocity": 0.3937007874015748
        },
        {
          "duration": 0.11538450000000466,
          "durationTicks": 96,
          "midi": 35,
          "name": "B1",
          "ticks": 33792,
          "time": 40.61534399999999,
          "velocity": 0.11811023622047244
        },
        {
          "duration": 0.11538450000000466,
          "durationTicks": 96,
          "midi": 42,
          "name": "F#2",
          "ticks": 34368,
          "time": 41.30765099999999,
          "velocity": 0.3937007874015748
        },
        {
          "duration": 0.11538449999999756,
          "durationTicks": 96,
          "midi": 42,
          "name": "F#2",
          "ticks": 34560,
          "time": 41.538419999999995,
          "velocity": 0.3937007874015748
        },
        {
          "duration": 0.11538449999999756,
          "durationTicks": 96,
          "midi": 39,
          "name": "D#2",
          "ticks": 34560,
          "time": 41.538419999999995,
          "velocity": 0.3937007874015748
        },
        {
          "duration": 0.11538450000000466,
          "durationTicks": 96,
          "midi": 42,
          "name": "F#2",
          "ticks": 34944,
          "time": 41.99995799999999,
          "velocity": 0.3937007874015748
        },
        {
          "duration": 0.11538450000000466,
          "durationTicks": 96,
          "midi": 35,
          "name": "B1",
          "ticks": 34944,
          "time": 41.99995799999999,
          "velocity": 0.11811023622047244
        },
        {
          "duration": 0.11538449999999756,
          "durationTicks": 96,
          "midi": 42,
          "name": "F#2",
          "ticks": 35136,
          "time": 42.230726999999995,
          "velocity": 0.3937007874015748
        },
        {
          "duration": 0.11538449999999756,
          "durationTicks": 96,
          "midi": 37,
          "name": "C#2",
          "ticks": 35136,
          "time": 42.230726999999995,
          "velocity": 0.3937007874015748
        },
        {
          "duration": 0.11538449999999756,
          "durationTicks": 96,
          "midi": 42,
          "name": "F#2",
          "ticks": 35328,
          "time": 42.461496,
          "velocity": 0.3937007874015748
        },
        {
          "duration": 0.11538450000000466,
          "durationTicks": 96,
          "midi": 42,
          "name": "F#2",
          "ticks": 35520,
          "time": 42.69226499999999,
          "velocity": 0.3937007874015748
        },
        {
          "duration": 0.11538450000000466,
          "durationTicks": 96,
          "midi": 37,
          "name": "C#2",
          "ticks": 35520,
          "time": 42.69226499999999,
          "velocity": 0.3937007874015748
        },
        {
          "duration": 0.11538449999999756,
          "durationTicks": 96,
          "midi": 42,
          "name": "F#2",
          "ticks": 35712,
          "time": 42.923033999999994,
          "velocity": 0.3937007874015748
        },
        {
          "duration": 0.11538449999999756,
          "durationTicks": 96,
          "midi": 51,
          "name": "D#3",
          "ticks": 35712,
          "time": 42.923033999999994,
          "velocity": 0.3937007874015748
        },
        {
          "duration": 0.11538449999999756,
          "durationTicks": 96,
          "midi": 35,
          "name": "B1",
          "ticks": 35712,
          "time": 42.923033999999994,
          "velocity": 0.11811023622047244
        },
        {
          "duration": 0.11538449999999756,
          "durationTicks": 96,
          "midi": 42,
          "name": "F#2",
          "ticks": 35904,
          "time": 43.153802999999996,
          "velocity": 0.3937007874015748
        },
        {
          "duration": 0.11538449999999756,
          "durationTicks": 96,
          "midi": 42,
          "name": "F#2",
          "ticks": 36096,
          "time": 43.384572,
          "velocity": 0.3937007874015748
        },
        {
          "duration": 0.11538449999999756,
          "durationTicks": 96,
          "midi": 39,
          "name": "D#2",
          "ticks": 36096,
          "time": 43.384572,
          "velocity": 0.3937007874015748
        },
        {
          "duration": 0.11538450000000466,
          "durationTicks": 96,
          "midi": 51,
          "name": "D#3",
          "ticks": 36288,
          "time": 43.615340999999994,
          "velocity": 0.3937007874015748
        },
        {
          "duration": 0.11538450000000466,
          "durationTicks": 96,
          "midi": 35,
          "name": "B1",
          "ticks": 36288,
          "time": 43.615340999999994,
          "velocity": 0.11811023622047244
        },
        {
          "duration": 0.11538449999999756,
          "durationTicks": 96,
          "midi": 42,
          "name": "F#2",
          "ticks": 36480,
          "time": 43.846109999999996,
          "velocity": 0.3937007874015748
        },
        {
          "duration": 0.11538449999999756,
          "durationTicks": 96,
          "midi": 42,
          "name": "F#2",
          "ticks": 37632,
          "time": 45.230723999999995,
          "velocity": 0.3937007874015748
        },
        {
          "duration": 0.11538449999999756,
          "durationTicks": 96,
          "midi": 39,
          "name": "D#2",
          "ticks": 37632,
          "time": 45.230723999999995,
          "velocity": 0.3937007874015748
        },
        {
          "duration": 0.11538450000000466,
          "durationTicks": 96,
          "midi": 42,
          "name": "F#2",
          "ticks": 38016,
          "time": 45.69226199999999,
          "velocity": 0.3937007874015748
        },
        {
          "duration": 0.11538450000000466,
          "durationTicks": 96,
          "midi": 35,
          "name": "B1",
          "ticks": 38016,
          "time": 45.69226199999999,
          "velocity": 0.11811023622047244
        },
        {
          "duration": 0.11538449999999756,
          "durationTicks": 96,
          "midi": 42,
          "name": "F#2",
          "ticks": 38208,
          "time": 45.923030999999995,
          "velocity": 0.3937007874015748
        },
        {
          "duration": 0.11538449999999756,
          "durationTicks": 96,
          "midi": 37,
          "name": "C#2",
          "ticks": 38208,
          "time": 45.923030999999995,
          "velocity": 0.3937007874015748
        },
        {
          "duration": 0.11538449999999756,
          "durationTicks": 96,
          "midi": 42,
          "name": "F#2",
          "ticks": 38400,
          "time": 46.1538,
          "velocity": 0.3937007874015748
        },
        {
          "duration": 0.11538450000000466,
          "durationTicks": 96,
          "midi": 42,
          "name": "F#2",
          "ticks": 38592,
          "time": 46.38456899999999,
          "velocity": 0.3937007874015748
        },
        {
          "duration": 0.11538450000000466,
          "durationTicks": 96,
          "midi": 37,
          "name": "C#2",
          "ticks": 38592,
          "time": 46.38456899999999,
          "velocity": 0.3937007874015748
        },
        {
          "duration": 0.11538449999999756,
          "durationTicks": 96,
          "midi": 42,
          "name": "F#2",
          "ticks": 38784,
          "time": 46.615337999999994,
          "velocity": 0.3937007874015748
        },
        {
          "duration": 0.11538449999999756,
          "durationTicks": 96,
          "midi": 51,
          "name": "D#3",
          "ticks": 38784,
          "time": 46.615337999999994,
          "velocity": 0.3937007874015748
        },
        {
          "duration": 0.11538449999999756,
          "durationTicks": 96,
          "midi": 35,
          "name": "B1",
          "ticks": 38784,
          "time": 46.615337999999994,
          "velocity": 0.11811023622047244
        },
        {
          "duration": 0.11538449999999756,
          "durationTicks": 96,
          "midi": 42,
          "name": "F#2",
          "ticks": 38976,
          "time": 46.846106999999996,
          "velocity": 0.3937007874015748
        },
        {
          "duration": 0.11538450000000466,
          "durationTicks": 96,
          "midi": 42,
          "name": "F#2",
          "ticks": 39168,
          "time": 47.07687599999999,
          "velocity": 0.3937007874015748
        },
        {
          "duration": 0.11538450000000466,
          "durationTicks": 96,
          "midi": 39,
          "name": "D#2",
          "ticks": 39168,
          "time": 47.07687599999999,
          "velocity": 0.3937007874015748
        },
        {
          "duration": 0.11538449999999756,
          "durationTicks": 96,
          "midi": 35,
          "name": "B1",
          "ticks": 39360,
          "time": 47.307644999999994,
          "velocity": 0.11811023622047244
        },
        {
          "duration": 0.11538449999999756,
          "durationTicks": 96,
          "midi": 42,
          "name": "F#2",
          "ticks": 39552,
          "time": 47.538413999999996,
          "velocity": 0.3937007874015748
        },
        {
          "duration": 0.11538450000000466,
          "durationTicks": 96,
          "midi": 42,
          "name": "F#2",
          "ticks": 39648,
          "time": 47.65379849999999,
          "velocity": 0.3937007874015748
        },
        {
          "duration": 0.11538449999999756,
          "durationTicks": 96,
          "midi": 42,
          "name": "F#2",
          "ticks": 39744,
          "time": 47.769183,
          "velocity": 0.3937007874015748
        },
        {
          "duration": 0.11538450000000466,
          "durationTicks": 96,
          "midi": 46,
          "name": "A#2",
          "ticks": 39936,
          "time": 47.99995199999999,
          "velocity": 0.3937007874015748
        },
        {
          "duration": 0.11538450000000466,
          "durationTicks": 96,
          "midi": 35,
          "name": "B1",
          "ticks": 39936,
          "time": 47.99995199999999,
          "velocity": 0.11811023622047244
        },
        {
          "duration": 0.11538450000000466,
          "durationTicks": 96,
          "midi": 42,
          "name": "F#2",
          "ticks": 40512,
          "time": 48.69225899999999,
          "velocity": 0.3937007874015748
        },
        {
          "duration": 0.11538449999999756,
          "durationTicks": 96,
          "midi": 42,
          "name": "F#2",
          "ticks": 40704,
          "time": 48.923027999999995,
          "velocity": 0.3937007874015748
        },
        {
          "duration": 0.11538449999999756,
          "durationTicks": 96,
          "midi": 39,
          "name": "D#2",
          "ticks": 40704,
          "time": 48.923027999999995,
          "velocity": 0.3937007874015748
        },
        {
          "duration": 0.11538450000000466,
          "durationTicks": 96,
          "midi": 42,
          "name": "F#2",
          "ticks": 41088,
          "time": 49.38456599999999,
          "velocity": 0.3937007874015748
        },
        {
          "duration": 0.11538450000000466,
          "durationTicks": 96,
          "midi": 35,
          "name": "B1",
          "ticks": 41088,
          "time": 49.38456599999999,
          "velocity": 0.11811023622047244
        },
        {
          "duration": 0.11538449999999756,
          "durationTicks": 96,
          "midi": 42,
          "name": "F#2",
          "ticks": 41280,
          "time": 49.615334999999995,
          "velocity": 0.3937007874015748
        },
        {
          "duration": 0.11538449999999756,
          "durationTicks": 96,
          "midi": 37,
          "name": "C#2",
          "ticks": 41280,
          "time": 49.615334999999995,
          "velocity": 0.3937007874015748
        },
        {
          "duration": 0.11538449999999756,
          "durationTicks": 96,
          "midi": 42,
          "name": "F#2",
          "ticks": 41472,
          "time": 49.846104,
          "velocity": 0.3937007874015748
        },
        {
          "duration": 0.11538450000000466,
          "durationTicks": 96,
          "midi": 42,
          "name": "F#2",
          "ticks": 41664,
          "time": 50.07687299999999,
          "velocity": 0.3937007874015748
        },
        {
          "duration": 0.11538450000000466,
          "durationTicks": 96,
          "midi": 37,
          "name": "C#2",
          "ticks": 41664,
          "time": 50.07687299999999,
          "velocity": 0.3937007874015748
        },
        {
          "duration": 0.11538449999999756,
          "durationTicks": 96,
          "midi": 42,
          "name": "F#2",
          "ticks": 41856,
          "time": 50.307641999999994,
          "velocity": 0.3937007874015748
        },
        {
          "duration": 0.11538449999999756,
          "durationTicks": 96,
          "midi": 51,
          "name": "D#3",
          "ticks": 41856,
          "time": 50.307641999999994,
          "velocity": 0.3937007874015748
        },
        {
          "duration": 0.11538449999999756,
          "durationTicks": 96,
          "midi": 35,
          "name": "B1",
          "ticks": 41856,
          "time": 50.307641999999994,
          "velocity": 0.11811023622047244
        },
        {
          "duration": 0.11538449999999756,
          "durationTicks": 96,
          "midi": 42,
          "name": "F#2",
          "ticks": 42048,
          "time": 50.538410999999996,
          "velocity": 0.3937007874015748
        },
        {
          "duration": 0.11538450000000466,
          "durationTicks": 96,
          "midi": 42,
          "name": "F#2",
          "ticks": 42240,
          "time": 50.76917999999999,
          "velocity": 0.3937007874015748
        },
        {
          "duration": 0.11538450000000466,
          "durationTicks": 96,
          "midi": 39,
          "name": "D#2",
          "ticks": 42240,
          "time": 50.76917999999999,
          "velocity": 0.3937007874015748
        },
        {
          "duration": 0.11538449999999756,
          "durationTicks": 96,
          "midi": 51,
          "name": "D#3",
          "ticks": 42432,
          "time": 50.999948999999994,
          "velocity": 0.3937007874015748
        },
        {
          "duration": 0.11538449999999756,
          "durationTicks": 96,
          "midi": 35,
          "name": "B1",
          "ticks": 42432,
          "time": 50.999948999999994,
          "velocity": 0.11811023622047244
        },
        {
          "duration": 0.11538449999999756,
          "durationTicks": 96,
          "midi": 42,
          "name": "F#2",
          "ticks": 42624,
          "time": 51.230717999999996,
          "velocity": 0.3937007874015748
        },
        {
          "duration": 0.11538449999999756,
          "durationTicks": 96,
          "midi": 35,
          "name": "B1",
          "ticks": 43008,
          "time": 51.69225599999999,
          "velocity": 0.11811023622047244
        },
        {
          "duration": 0.11538449999999756,
          "durationTicks": 96,
          "midi": 42,
          "name": "F#2",
          "ticks": 43008,
          "time": 51.69225599999999,
          "velocity": 0.3937007874015748
        },
        {
          "duration": 0.11538450000000466,
          "durationTicks": 96,
          "midi": 42,
          "name": "F#2",
          "ticks": 43392,
          "time": 52.15379399999999,
          "velocity": 0.3937007874015748
        },
        {
          "duration": 0.11538450000000466,
          "durationTicks": 96,
          "midi": 42,
          "name": "F#2",
          "ticks": 43584,
          "time": 52.38456299999999,
          "velocity": 0.3937007874015748
        },
        {
          "duration": 0.11538449999999756,
          "durationTicks": 96,
          "midi": 42,
          "name": "F#2",
          "ticks": 43776,
          "time": 52.615331999999995,
          "velocity": 0.3937007874015748
        },
        {
          "duration": 0.11538449999999756,
          "durationTicks": 96,
          "midi": 39,
          "name": "D#2",
          "ticks": 43776,
          "time": 52.615331999999995,
          "velocity": 0.3937007874015748
        },
        {
          "duration": 0.11538450000000466,
          "durationTicks": 96,
          "midi": 42,
          "name": "F#2",
          "ticks": 44160,
          "time": 53.07686999999999,
          "velocity": 0.3937007874015748
        },
        {
          "duration": 0.11538450000000466,
          "durationTicks": 96,
          "midi": 35,
          "name": "B1",
          "ticks": 44160,
          "time": 53.07686999999999,
          "velocity": 0.11811023622047244
        },
        {
          "duration": 0.11538449999999756,
          "durationTicks": 96,
          "midi": 42,
          "name": "F#2",
          "ticks": 44352,
          "time": 53.307638999999995,
          "velocity": 0.3937007874015748
        },
        {
          "duration": 0.11538449999999756,
          "durationTicks": 96,
          "midi": 37,
          "name": "C#2",
          "ticks": 44352,
          "time": 53.307638999999995,
          "velocity": 0.3937007874015748
        },
        {
          "duration": 0.11538449999999756,
          "durationTicks": 96,
          "midi": 42,
          "name": "F#2",
          "ticks": 44544,
          "time": 53.538408,
          "velocity": 0.3937007874015748
        },
        {
          "duration": 0.11538450000000466,
          "durationTicks": 96,
          "midi": 42,
          "name": "F#2",
          "ticks": 44736,
          "time": 53.76917699999999,
          "velocity": 0.3937007874015748
        },
        {
          "duration": 0.11538450000000466,
          "durationTicks": 96,
          "midi": 37,
          "name": "C#2",
          "ticks": 44736,
          "time": 53.76917699999999,
          "velocity": 0.3937007874015748
        },
        {
          "duration": 0.11538449999999756,
          "durationTicks": 96,
          "midi": 42,
          "name": "F#2",
          "ticks": 44928,
          "time": 53.999945999999994,
          "velocity": 0.3937007874015748
        },
        {
          "duration": 0.11538449999999756,
          "durationTicks": 96,
          "midi": 51,
          "name": "D#3",
          "ticks": 44928,
          "time": 53.999945999999994,
          "velocity": 0.3937007874015748
        },
        {
          "duration": 0.11538449999999756,
          "durationTicks": 96,
          "midi": 35,
          "name": "B1",
          "ticks": 44928,
          "time": 53.999945999999994,
          "velocity": 0.11811023622047244
        },
        {
          "duration": 0.11538449999999756,
          "durationTicks": 96,
          "midi": 42,
          "name": "F#2",
          "ticks": 45120,
          "time": 54.230715,
          "velocity": 0.3937007874015748
        },
        {
          "duration": 0.11538450000000466,
          "durationTicks": 96,
          "midi": 42,
          "name": "F#2",
          "ticks": 45312,
          "time": 54.46148399999999,
          "velocity": 0.3937007874015748
        },
        {
          "duration": 0.11538450000000466,
          "durationTicks": 96,
          "midi": 39,
          "name": "D#2",
          "ticks": 45312,
          "time": 54.46148399999999,
          "velocity": 0.3937007874015748
        },
        {
          "duration": 0.11538449999999756,
          "durationTicks": 96,
          "midi": 35,
          "name": "B1",
          "ticks": 45504,
          "time": 54.692252999999994,
          "velocity": 0.11811023622047244
        },
        {
          "duration": 0.11538449999999756,
          "durationTicks": 96,
          "midi": 42,
          "name": "F#2",
          "ticks": 45696,
          "time": 54.923021999999996,
          "velocity": 0.3937007874015748
        },
        {
          "duration": 0.11538449999999756,
          "durationTicks": 96,
          "midi": 42,
          "name": "F#2",
          "ticks": 45792,
          "time": 55.038406499999994,
          "velocity": 0.3937007874015748
        },
        {
          "duration": 0.11538450000000466,
          "durationTicks": 96,
          "midi": 42,
          "name": "F#2",
          "ticks": 45888,
          "time": 55.15379099999999,
          "velocity": 0.3937007874015748
        },
        {
          "duration": 0.11538449999999756,
          "durationTicks": 96,
          "midi": 46,
          "name": "A#2",
          "ticks": 46080,
          "time": 55.38455999999999,
          "velocity": 0.3937007874015748
        },
        {
          "duration": 0.11538449999999756,
          "durationTicks": 96,
          "midi": 35,
          "name": "B1",
          "ticks": 46080,
          "time": 55.38455999999999,
          "velocity": 0.11811023622047244
        },
        {
          "duration": 0.11538449999999756,
          "durationTicks": 96,
          "midi": 42,
          "name": "F#2",
          "ticks": 46656,
          "time": 56.07686699999999,
          "velocity": 0.3937007874015748
        },
        {
          "duration": 0.11538449999999756,
          "durationTicks": 96,
          "midi": 42,
          "name": "F#2",
          "ticks": 46848,
          "time": 56.307635999999995,
          "velocity": 0.3937007874015748
        },
        {
          "duration": 0.11538449999999756,
          "durationTicks": 96,
          "midi": 39,
          "name": "D#2",
          "ticks": 46848,
          "time": 56.307635999999995,
          "velocity": 0.3937007874015748
        },
        {
          "duration": 0.11538450000000466,
          "durationTicks": 96,
          "midi": 42,
          "name": "F#2",
          "ticks": 47232,
          "time": 56.76917399999999,
          "velocity": 0.3937007874015748
        },
        {
          "duration": 0.11538450000000466,
          "durationTicks": 96,
          "midi": 35,
          "name": "B1",
          "ticks": 47232,
          "time": 56.76917399999999,
          "velocity": 0.11811023622047244
        },
        {
          "duration": 0.11538449999999756,
          "durationTicks": 96,
          "midi": 42,
          "name": "F#2",
          "ticks": 47424,
          "time": 56.999942999999995,
          "velocity": 0.3937007874015748
        },
        {
          "duration": 0.11538449999999756,
          "durationTicks": 96,
          "midi": 37,
          "name": "C#2",
          "ticks": 47424,
          "time": 56.999942999999995,
          "velocity": 0.3937007874015748
        },
        {
          "duration": 0.11538449999999756,
          "durationTicks": 96,
          "midi": 42,
          "name": "F#2",
          "ticks": 47616,
          "time": 57.230712,
          "velocity": 0.3937007874015748
        },
        {
          "duration": 0.11538450000000466,
          "durationTicks": 96,
          "midi": 42,
          "name": "F#2",
          "ticks": 47808,
          "time": 57.46148099999999,
          "velocity": 0.3937007874015748
        },
        {
          "duration": 0.11538450000000466,
          "durationTicks": 96,
          "midi": 37,
          "name": "C#2",
          "ticks": 47808,
          "time": 57.46148099999999,
          "velocity": 0.3937007874015748
        },
        {
          "duration": 0.11538449999999756,
          "durationTicks": 96,
          "midi": 42,
          "name": "F#2",
          "ticks": 48000,
          "time": 57.692249999999994,
          "velocity": 0.3937007874015748
        },
        {
          "duration": 0.11538449999999756,
          "durationTicks": 96,
          "midi": 51,
          "name": "D#3",
          "ticks": 48000,
          "time": 57.692249999999994,
          "velocity": 0.3937007874015748
        },
        {
          "duration": 0.11538449999999756,
          "durationTicks": 96,
          "midi": 35,
          "name": "B1",
          "ticks": 48000,
          "time": 57.692249999999994,
          "velocity": 0.11811023622047244
        },
        {
          "duration": 0.11538449999999756,
          "durationTicks": 96,
          "midi": 42,
          "name": "F#2",
          "ticks": 48192,
          "time": 57.923019,
          "velocity": 0.3937007874015748
        },
        {
          "duration": 0.11538450000000466,
          "durationTicks": 96,
          "midi": 42,
          "name": "F#2",
          "ticks": 48384,
          "time": 58.15378799999999,
          "velocity": 0.3937007874015748
        },
        {
          "duration": 0.11538450000000466,
          "durationTicks": 96,
          "midi": 39,
          "name": "D#2",
          "ticks": 48384,
          "time": 58.15378799999999,
          "velocity": 0.3937007874015748
        },
        {
          "duration": 0.11538449999999756,
          "durationTicks": 96,
          "midi": 51,
          "name": "D#3",
          "ticks": 48576,
          "time": 58.384556999999994,
          "velocity": 0.3937007874015748
        },
        {
          "duration": 0.11538449999999756,
          "durationTicks": 96,
          "midi": 35,
          "name": "B1",
          "ticks": 48576,
          "time": 58.384556999999994,
          "velocity": 0.11811023622047244
        },
        {
          "duration": 0.11538449999999756,
          "durationTicks": 96,
          "midi": 42,
          "name": "F#2",
          "ticks": 48768,
          "time": 58.615325999999996,
          "velocity": 0.3937007874015748
        },
        {
          "duration": 0.11538449999999756,
          "durationTicks": 96,
          "midi": 35,
          "name": "B1",
          "ticks": 49152,
          "time": 59.07686399999999,
          "velocity": 0.11811023622047244
        },
        {
          "duration": 0.11538450000000466,
          "durationTicks": 96,
          "midi": 42,
          "name": "F#2",
          "ticks": 49536,
          "time": 59.53840199999999,
          "velocity": 0.3937007874015748
        },
        {
          "duration": 0.11538449999999756,
          "durationTicks": 96,
          "midi": 42,
          "name": "F#2",
          "ticks": 49728,
          "time": 59.76917099999999,
          "velocity": 0.3937007874015748
        },
        {
          "duration": 0.11538449999999756,
          "durationTicks": 96,
          "midi": 42,
          "name": "F#2",
          "ticks": 49920,
          "time": 59.999939999999995,
          "velocity": 0.3937007874015748
        },
        {
          "duration": 0.11538449999999756,
          "durationTicks": 96,
          "midi": 39,
          "name": "D#2",
          "ticks": 49920,
          "time": 59.999939999999995,
          "velocity": 0.3937007874015748
        },
        {
          "duration": 0.11538449999999756,
          "durationTicks": 96,
          "midi": 42,
          "name": "F#2",
          "ticks": 50304,
          "time": 60.46147799999999,
          "velocity": 0.3937007874015748
        },
        {
          "duration": 0.11538449999999756,
          "durationTicks": 96,
          "midi": 35,
          "name": "B1",
          "ticks": 50304,
          "time": 60.46147799999999,
          "velocity": 0.11811023622047244
        },
        {
          "duration": 0.11538449999999756,
          "durationTicks": 96,
          "midi": 42,
          "name": "F#2",
          "ticks": 50496,
          "time": 60.692246999999995,
          "velocity": 0.3937007874015748
        },
        {
          "duration": 0.11538449999999756,
          "durationTicks": 96,
          "midi": 37,
          "name": "C#2",
          "ticks": 50496,
          "time": 60.692246999999995,
          "velocity": 0.3937007874015748
        },
        {
          "duration": 0.11538450000000466,
          "durationTicks": 96,
          "midi": 42,
          "name": "F#2",
          "ticks": 50688,
          "time": 60.92301599999999,
          "velocity": 0.3937007874015748
        },
        {
          "duration": 0.11538449999999756,
          "durationTicks": 96,
          "midi": 42,
          "name": "F#2",
          "ticks": 50880,
          "time": 61.15378499999999,
          "velocity": 0.3937007874015748
        },
        {
          "duration": 0.11538449999999756,
          "durationTicks": 96,
          "midi": 37,
          "name": "C#2",
          "ticks": 50880,
          "time": 61.15378499999999,
          "velocity": 0.3937007874015748
        },
        {
          "duration": 0.11538449999999756,
          "durationTicks": 96,
          "midi": 42,
          "name": "F#2",
          "ticks": 51072,
          "time": 61.384553999999994,
          "velocity": 0.3937007874015748
        },
        {
          "duration": 0.11538449999999756,
          "durationTicks": 96,
          "midi": 51,
          "name": "D#3",
          "ticks": 51072,
          "time": 61.384553999999994,
          "velocity": 0.3937007874015748
        },
        {
          "duration": 0.11538449999999756,
          "durationTicks": 96,
          "midi": 35,
          "name": "B1",
          "ticks": 51072,
          "time": 61.384553999999994,
          "velocity": 0.11811023622047244
        },
        {
          "duration": 0.11538449999999756,
          "durationTicks": 96,
          "midi": 42,
          "name": "F#2",
          "ticks": 51264,
          "time": 61.615323,
          "velocity": 0.3937007874015748
        },
        {
          "duration": 0.11538450000000466,
          "durationTicks": 96,
          "midi": 42,
          "name": "F#2",
          "ticks": 51456,
          "time": 61.84609199999999,
          "velocity": 0.3937007874015748
        },
        {
          "duration": 0.11538450000000466,
          "durationTicks": 96,
          "midi": 39,
          "name": "D#2",
          "ticks": 51456,
          "time": 61.84609199999999,
          "velocity": 0.3937007874015748
        },
        {
          "duration": 0.11538449999999756,
          "durationTicks": 96,
          "midi": 35,
          "name": "B1",
          "ticks": 51648,
          "time": 62.076860999999994,
          "velocity": 0.11811023622047244
        },
        {
          "duration": 0.11538449999999756,
          "durationTicks": 96,
          "midi": 42,
          "name": "F#2",
          "ticks": 51840,
          "time": 62.307629999999996,
          "velocity": 0.3937007874015748
        },
        {
          "duration": 0.11538449999999756,
          "durationTicks": 96,
          "midi": 42,
          "name": "F#2",
          "ticks": 51936,
          "time": 62.423014499999994,
          "velocity": 0.3937007874015748
        },
        {
          "duration": 0.11538450000000466,
          "durationTicks": 96,
          "midi": 42,
          "name": "F#2",
          "ticks": 52032,
          "time": 62.53839899999999,
          "velocity": 0.3937007874015748
        },
        {
          "duration": 0.11538449999999756,
          "durationTicks": 96,
          "midi": 46,
          "name": "A#2",
          "ticks": 52224,
          "time": 62.76916799999999,
          "velocity": 0.3937007874015748
        },
        {
          "duration": 0.11538449999999756,
          "durationTicks": 96,
          "midi": 35,
          "name": "B1",
          "ticks": 52224,
          "time": 62.76916799999999,
          "velocity": 0.11811023622047244
        },
        {
          "duration": 0.11538449999999756,
          "durationTicks": 96,
          "midi": 42,
          "name": "F#2",
          "ticks": 52800,
          "time": 63.46147499999999,
          "velocity": 0.3937007874015748
        },
        {
          "duration": 0.11538449999999756,
          "durationTicks": 96,
          "midi": 42,
          "name": "F#2",
          "ticks": 52992,
          "time": 63.692243999999995,
          "velocity": 0.3937007874015748
        },
        {
          "duration": 0.11538449999999756,
          "durationTicks": 96,
          "midi": 39,
          "name": "D#2",
          "ticks": 52992,
          "time": 63.692243999999995,
          "velocity": 0.3937007874015748
        },
        {
          "duration": 0.11538450000000466,
          "durationTicks": 96,
          "midi": 42,
          "name": "F#2",
          "ticks": 53376,
          "time": 64.15378199999999,
          "velocity": 0.3937007874015748
        },
        {
          "duration": 0.11538450000000466,
          "durationTicks": 96,
          "midi": 35,
          "name": "B1",
          "ticks": 53376,
          "time": 64.15378199999999,
          "velocity": 0.11811023622047244
        },
        {
          "duration": 0.11538450000000466,
          "durationTicks": 96,
          "midi": 42,
          "name": "F#2",
          "ticks": 53568,
          "time": 64.38455099999999,
          "velocity": 0.3937007874015748
        },
        {
          "duration": 0.11538450000000466,
          "durationTicks": 96,
          "midi": 37,
          "name": "C#2",
          "ticks": 53568,
          "time": 64.38455099999999,
          "velocity": 0.3937007874015748
        },
        {
          "duration": 0.11538449999999045,
          "durationTicks": 96,
          "midi": 42,
          "name": "F#2",
          "ticks": 53760,
          "time": 64.61532,
          "velocity": 0.3937007874015748
        },
        {
          "duration": 0.11538450000000466,
          "durationTicks": 96,
          "midi": 42,
          "name": "F#2",
          "ticks": 53952,
          "time": 64.84608899999999,
          "velocity": 0.3937007874015748
        },
        {
          "duration": 0.11538450000000466,
          "durationTicks": 96,
          "midi": 37,
          "name": "C#2",
          "ticks": 53952,
          "time": 64.84608899999999,
          "velocity": 0.3937007874015748
        },
        {
          "duration": 0.11538450000000466,
          "durationTicks": 96,
          "midi": 42,
          "name": "F#2",
          "ticks": 54144,
          "time": 65.07685799999999,
          "velocity": 0.3937007874015748
        },
        {
          "duration": 0.11538450000000466,
          "durationTicks": 96,
          "midi": 51,
          "name": "D#3",
          "ticks": 54144,
          "time": 65.07685799999999,
          "velocity": 0.3937007874015748
        },
        {
          "duration": 0.11538450000000466,
          "durationTicks": 96,
          "midi": 35,
          "name": "B1",
          "ticks": 54144,
          "time": 65.07685799999999,
          "velocity": 0.11811023622047244
        },
        {
          "duration": 0.11538449999999045,
          "durationTicks": 96,
          "midi": 42,
          "name": "F#2",
          "ticks": 54336,
          "time": 65.307627,
          "velocity": 0.3937007874015748
        },
        {
          "duration": 0.11538450000000466,
          "durationTicks": 96,
          "midi": 42,
          "name": "F#2",
          "ticks": 54528,
          "time": 65.53839599999999,
          "velocity": 0.3937007874015748
        },
        {
          "duration": 0.11538450000000466,
          "durationTicks": 96,
          "midi": 39,
          "name": "D#2",
          "ticks": 54528,
          "time": 65.53839599999999,
          "velocity": 0.3937007874015748
        },
        {
          "duration": 0.11538450000000466,
          "durationTicks": 96,
          "midi": 51,
          "name": "D#3",
          "ticks": 54720,
          "time": 65.76916499999999,
          "velocity": 0.3937007874015748
        },
        {
          "duration": 0.11538450000000466,
          "durationTicks": 96,
          "midi": 35,
          "name": "B1",
          "ticks": 54720,
          "time": 65.76916499999999,
          "velocity": 0.11811023622047244
        },
        {
          "duration": 0.11538449999999045,
          "durationTicks": 96,
          "midi": 42,
          "name": "F#2",
          "ticks": 54912,
          "time": 65.999934,
          "velocity": 0.3937007874015748
        },
        {
          "duration": 0.11538450000000466,
          "durationTicks": 96,
          "midi": 35,
          "name": "B1",
          "ticks": 55296,
          "time": 66.46147199999999,
          "velocity": 0.11811023622047244
        },
        {
          "duration": 0.11538450000000466,
          "durationTicks": 96,
          "midi": 42,
          "name": "F#2",
          "ticks": 55296,
          "time": 66.46147199999999,
          "velocity": 0.3937007874015748
        },
        {
          "duration": 0.11538450000000466,
          "durationTicks": 96,
          "midi": 42,
          "name": "F#2",
          "ticks": 55680,
          "time": 66.92300999999999,
          "velocity": 0.3937007874015748
        },
        {
          "duration": 0.11538450000000466,
          "durationTicks": 96,
          "midi": 42,
          "name": "F#2",
          "ticks": 55872,
          "time": 67.15377899999999,
          "velocity": 0.3937007874015748
        },
        {
          "duration": 0.11538449999999045,
          "durationTicks": 96,
          "midi": 42,
          "name": "F#2",
          "ticks": 56064,
          "time": 67.384548,
          "velocity": 0.3937007874015748
        },
        {
          "duration": 0.11538449999999045,
          "durationTicks": 96,
          "midi": 39,
          "name": "D#2",
          "ticks": 56064,
          "time": 67.384548,
          "velocity": 0.3937007874015748
        },
        {
          "duration": 0.11538450000000466,
          "durationTicks": 96,
          "midi": 42,
          "name": "F#2",
          "ticks": 56448,
          "time": 67.84608599999999,
          "velocity": 0.3937007874015748
        },
        {
          "duration": 0.11538450000000466,
          "durationTicks": 96,
          "midi": 35,
          "name": "B1",
          "ticks": 56448,
          "time": 67.84608599999999,
          "velocity": 0.11811023622047244
        },
        {
          "duration": 0.11538450000000466,
          "durationTicks": 96,
          "midi": 42,
          "name": "F#2",
          "ticks": 56640,
          "time": 68.076855,
          "velocity": 0.3937007874015748
        },
        {
          "duration": 0.11538450000000466,
          "durationTicks": 96,
          "midi": 37,
          "name": "C#2",
          "ticks": 56640,
          "time": 68.076855,
          "velocity": 0.3937007874015748
        },
        {
          "duration": 0.11538450000000466,
          "durationTicks": 96,
          "midi": 42,
          "name": "F#2",
          "ticks": 56832,
          "time": 68.30762399999999,
          "velocity": 0.3937007874015748
        },
        {
          "duration": 0.11538449999999045,
          "durationTicks": 96,
          "midi": 42,
          "name": "F#2",
          "ticks": 57024,
          "time": 68.538393,
          "velocity": 0.3937007874015748
        },
        {
          "duration": 0.11538449999999045,
          "durationTicks": 96,
          "midi": 37,
          "name": "C#2",
          "ticks": 57024,
          "time": 68.538393,
          "velocity": 0.3937007874015748
        },
        {
          "duration": 0.11538450000000466,
          "durationTicks": 96,
          "midi": 42,
          "name": "F#2",
          "ticks": 57216,
          "time": 68.769162,
          "velocity": 0.3937007874015748
        },
        {
          "duration": 0.11538450000000466,
          "durationTicks": 96,
          "midi": 51,
          "name": "D#3",
          "ticks": 57216,
          "time": 68.769162,
          "velocity": 0.3937007874015748
        },
        {
          "duration": 0.11538450000000466,
          "durationTicks": 96,
          "midi": 35,
          "name": "B1",
          "ticks": 57216,
          "time": 68.769162,
          "velocity": 0.11811023622047244
        },
        {
          "duration": 0.11538450000000466,
          "durationTicks": 96,
          "midi": 42,
          "name": "F#2",
          "ticks": 57408,
          "time": 68.99993099999999,
          "velocity": 0.3937007874015748
        },
        {
          "duration": 0.11538449999999045,
          "durationTicks": 96,
          "midi": 42,
          "name": "F#2",
          "ticks": 57600,
          "time": 69.2307,
          "velocity": 0.3937007874015748
        },
        {
          "duration": 0.11538449999999045,
          "durationTicks": 96,
          "midi": 39,
          "name": "D#2",
          "ticks": 57600,
          "time": 69.2307,
          "velocity": 0.3937007874015748
        },
        {
          "duration": 0.11538450000000466,
          "durationTicks": 96,
          "midi": 35,
          "name": "B1",
          "ticks": 57792,
          "time": 69.461469,
          "velocity": 0.11811023622047244
        },
        {
          "duration": 0.11538450000000466,
          "durationTicks": 96,
          "midi": 42,
          "name": "F#2",
          "ticks": 57984,
          "time": 69.69223799999999,
          "velocity": 0.3937007874015748
        },
        {
          "duration": 0.11538450000000466,
          "durationTicks": 96,
          "midi": 42,
          "name": "F#2",
          "ticks": 58080,
          "time": 69.8076225,
          "velocity": 0.3937007874015748
        },
        {
          "duration": 0.11538449999999045,
          "durationTicks": 96,
          "midi": 42,
          "name": "F#2",
          "ticks": 58176,
          "time": 69.923007,
          "velocity": 0.3937007874015748
        },
        {
          "duration": 0.11538450000000466,
          "durationTicks": 96,
          "midi": 46,
          "name": "A#2",
          "ticks": 58368,
          "time": 70.153776,
          "velocity": 0.3937007874015748
        },
        {
          "duration": 0.11538450000000466,
          "durationTicks": 96,
          "midi": 35,
          "name": "B1",
          "ticks": 58368,
          "time": 70.153776,
          "velocity": 0.11811023622047244
        },
        {
          "duration": 0.11538450000000466,
          "durationTicks": 96,
          "midi": 42,
          "name": "F#2",
          "ticks": 58944,
          "time": 70.846083,
          "velocity": 0.3937007874015748
        },
        {
          "duration": 0.11538450000000466,
          "durationTicks": 96,
          "midi": 42,
          "name": "F#2",
          "ticks": 59136,
          "time": 71.07685199999999,
          "velocity": 0.3937007874015748
        },
        {
          "duration": 0.11538450000000466,
          "durationTicks": 96,
          "midi": 39,
          "name": "D#2",
          "ticks": 59136,
          "time": 71.07685199999999,
          "velocity": 0.3937007874015748
        },
        {
          "duration": 0.11538450000000466,
          "durationTicks": 96,
          "midi": 42,
          "name": "F#2",
          "ticks": 59520,
          "time": 71.53838999999999,
          "velocity": 0.3937007874015748
        },
        {
          "duration": 0.11538450000000466,
          "durationTicks": 96,
          "midi": 35,
          "name": "B1",
          "ticks": 59520,
          "time": 71.53838999999999,
          "velocity": 0.11811023622047244
        },
        {
          "duration": 0.11538450000000466,
          "durationTicks": 96,
          "midi": 42,
          "name": "F#2",
          "ticks": 59712,
          "time": 71.76915899999999,
          "velocity": 0.3937007874015748
        },
        {
          "duration": 0.11538450000000466,
          "durationTicks": 96,
          "midi": 37,
          "name": "C#2",
          "ticks": 59712,
          "time": 71.76915899999999,
          "velocity": 0.3937007874015748
        },
        {
          "duration": 0.11538449999999045,
          "durationTicks": 96,
          "midi": 42,
          "name": "F#2",
          "ticks": 59904,
          "time": 71.999928,
          "velocity": 0.3937007874015748
        },
        {
          "duration": 0.11538450000000466,
          "durationTicks": 96,
          "midi": 42,
          "name": "F#2",
          "ticks": 60096,
          "time": 72.23069699999999,
          "velocity": 0.3937007874015748
        },
        {
          "duration": 0.11538450000000466,
          "durationTicks": 96,
          "midi": 37,
          "name": "C#2",
          "ticks": 60096,
          "time": 72.23069699999999,
          "velocity": 0.3937007874015748
        },
        {
          "duration": 0.11538450000000466,
          "durationTicks": 96,
          "midi": 42,
          "name": "F#2",
          "ticks": 60288,
          "time": 72.46146599999999,
          "velocity": 0.3937007874015748
        },
        {
          "duration": 0.11538450000000466,
          "durationTicks": 96,
          "midi": 51,
          "name": "D#3",
          "ticks": 60288,
          "time": 72.46146599999999,
          "velocity": 0.3937007874015748
        },
        {
          "duration": 0.11538450000000466,
          "durationTicks": 96,
          "midi": 35,
          "name": "B1",
          "ticks": 60288,
          "time": 72.46146599999999,
          "velocity": 0.11811023622047244
        },
        {
          "duration": 0.11538449999999045,
          "durationTicks": 96,
          "midi": 42,
          "name": "F#2",
          "ticks": 60480,
          "time": 72.692235,
          "velocity": 0.3937007874015748
        },
        {
          "duration": 0.11538450000000466,
          "durationTicks": 96,
          "midi": 42,
          "name": "F#2",
          "ticks": 60672,
          "time": 72.92300399999999,
          "velocity": 0.3937007874015748
        },
        {
          "duration": 0.11538450000000466,
          "durationTicks": 96,
          "midi": 39,
          "name": "D#2",
          "ticks": 60672,
          "time": 72.92300399999999,
          "velocity": 0.3937007874015748
        },
        {
          "duration": 0.11538450000000466,
          "durationTicks": 96,
          "midi": 51,
          "name": "D#3",
          "ticks": 60864,
          "time": 73.15377299999999,
          "velocity": 0.3937007874015748
        },
        {
          "duration": 0.11538450000000466,
          "durationTicks": 96,
          "midi": 35,
          "name": "B1",
          "ticks": 60864,
          "time": 73.15377299999999,
          "velocity": 0.11811023622047244
        },
        {
          "duration": 0.11538449999999045,
          "durationTicks": 96,
          "midi": 42,
          "name": "F#2",
          "ticks": 61056,
          "time": 73.384542,
          "velocity": 0.3937007874015748
        }
      ],
      "endOfTrackTicks": 61152
    },
    {
      "channel": 3,
      "controlChanges": {},
      "pitchBends": [],
      "instrument": {
        "family": "piano",
        "number": 0,
        "name": "acoustic grand piano"
      },
      "name": "Grand Piano",
      "notes": [
        {
          "duration": 0.23076899999999867,
          "durationTicks": 192,
          "midi": 80,
          "name": "G#5",
          "ticks": 24576,
          "time": 29.538431999999997,
          "velocity": 0.3937007874015748
        },
        {
          "duration": 0.23076900000000222,
          "durationTicks": 192,
          "midi": 76,
          "name": "E5",
          "ticks": 24768,
          "time": 29.769200999999995,
          "velocity": 0.3937007874015748
        },
        {
          "duration": 0.23076899999999867,
          "durationTicks": 192,
          "midi": 80,
          "name": "G#5",
          "ticks": 24960,
          "time": 29.999969999999998,
          "velocity": 0.3937007874015748
        },
        {
          "duration": 0.23076899999999867,
          "durationTicks": 192,
          "midi": 81,
          "name": "A5",
          "ticks": 25152,
          "time": 30.230738999999996,
          "velocity": 0.3937007874015748
        },
        {
          "duration": 0.23076900000000222,
          "durationTicks": 192,
          "midi": 80,
          "name": "G#5",
          "ticks": 25344,
          "time": 30.461507999999995,
          "velocity": 0.3937007874015748
        },
        {
          "duration": 0.23076899999999867,
          "durationTicks": 192,
          "midi": 76,
          "name": "E5",
          "ticks": 25536,
          "time": 30.692276999999997,
          "velocity": 0.3937007874015748
        },
        {
          "duration": 0.23076900000000222,
          "durationTicks": 192,
          "midi": 76,
          "name": "E5",
          "ticks": 25728,
          "time": 30.923045999999996,
          "velocity": 0.2677165354330709
        },
        {
          "duration": 0.23076899999999867,
          "durationTicks": 192,
          "midi": 76,
          "name": "E5",
          "ticks": 25920,
          "time": 31.153814999999998,
          "velocity": 0.1968503937007874
        },
        {
          "duration": 0.23076899999999867,
          "durationTicks": 192,
          "midi": 80,
          "name": "G#5",
          "ticks": 26112,
          "time": 31.384583999999997,
          "velocity": 0.3937007874015748
        },
        {
          "duration": 0.23076900000000222,
          "durationTicks": 192,
          "midi": 76,
          "name": "E5",
          "ticks": 26304,
          "time": 31.615352999999995,
          "velocity": 0.3937007874015748
        },
        {
          "duration": 0.23076899999999867,
          "durationTicks": 192,
          "midi": 80,
          "name": "G#5",
          "ticks": 26496,
          "time": 31.846121999999998,
          "velocity": 0.3937007874015748
        },
        {
          "duration": 0.23076900000000222,
          "durationTicks": 192,
          "midi": 81,
          "name": "A5",
          "ticks": 26688,
          "time": 32.076890999999996,
          "velocity": 0.3937007874015748
        },
        {
          "duration": 0.23076899999999512,
          "durationTicks": 192,
          "midi": 80,
          "name": "G#5",
          "ticks": 26880,
          "time": 32.30766,
          "velocity": 0.3937007874015748
        },
        {
          "duration": 0.6923069999999996,
          "durationTicks": 576,
          "midi": 71,
          "name": "B4",
          "ticks": 27072,
          "time": 32.538428999999994,
          "velocity": 0.23622047244094488
        },
        {
          "duration": 1.8461520000000036,
          "durationTicks": 1536,
          "midi": 80,
          "name": "G#5",
          "ticks": 27648,
          "time": 33.23073599999999,
          "velocity": 0.3937007874015748
        },
        {
          "duration": 0.23076899999999512,
          "durationTicks": 192,
          "midi": 85,
          "name": "C#6",
          "ticks": 29952,
          "time": 35.999964,
          "velocity": 0.3937007874015748
        },
        {
          "duration": 0.23076900000000222,
          "durationTicks": 192,
          "midi": 83,
          "name": "B5",
          "ticks": 30144,
          "time": 36.230732999999994,
          "velocity": 0.3937007874015748
        },
        {
          "duration": 0.23076900000000222,
          "durationTicks": 192,
          "midi": 80,
          "name": "G#5",
          "ticks": 30336,
          "time": 36.461501999999996,
          "velocity": 0.3937007874015748
        },
        {
          "duration": 0.23076899999999512,
          "durationTicks": 192,
          "midi": 78,
          "name": "F#5",
          "ticks": 30528,
          "time": 36.692271,
          "velocity": 0.3937007874015748
        },
        {
          "duration": 0.46153800000000444,
          "durationTicks": 384,
          "midi": 80,
          "name": "G#5",
          "ticks": 30720,
          "time": 36.92303999999999,
          "velocity": 0.23622047244094488
        },
        {
          "duration": 0.23076899999999512,
          "durationTicks": 192,
          "midi": 80,
          "name": "G#5",
          "ticks": 31104,
          "time": 37.384578,
          "velocity": 0.3937007874015748
        },
        {
          "duration": 0.6923069999999996,
          "durationTicks": 576,
          "midi": 76,
          "name": "E5",
          "ticks": 31296,
          "time": 37.61534699999999,
          "velocity": 0.31496062992125984
        },
        {
          "duration": 0.46153800000000444,
          "durationTicks": 384,
          "midi": 80,
          "name": "G#5",
          "ticks": 31872,
          "time": 38.30765399999999,
          "velocity": 0.1968503937007874
        },
        {
          "duration": 0.9230759999999947,
          "durationTicks": 768,
          "midi": 78,
          "name": "F#5",
          "ticks": 36096,
          "time": 43.384572,
          "velocity": 0.3937007874015748
        },
        {
          "duration": 0.23076900000000222,
          "durationTicks": 192,
          "midi": 80,
          "name": "G#5",
          "ticks": 49152,
          "time": 59.07686399999999,
          "velocity": 0.3937007874015748
        },
        {
          "duration": 0.23076899999999512,
          "durationTicks": 192,
          "midi": 76,
          "name": "E5",
          "ticks": 49344,
          "time": 59.307632999999996,
          "velocity": 0.3937007874015748
        },
        {
          "duration": 0.23076900000000222,
          "durationTicks": 192,
          "midi": 80,
          "name": "G#5",
          "ticks": 49536,
          "time": 59.53840199999999,
          "velocity": 0.3937007874015748
        },
        {
          "duration": 0.23076900000000222,
          "durationTicks": 192,
          "midi": 81,
          "name": "A5",
          "ticks": 49728,
          "time": 59.76917099999999,
          "velocity": 0.3937007874015748
        },
        {
          "duration": 0.23076899999999512,
          "durationTicks": 192,
          "midi": 80,
          "name": "G#5",
          "ticks": 49920,
          "time": 59.999939999999995,
          "velocity": 0.3937007874015748
        },
        {
          "duration": 0.23076900000000222,
          "durationTicks": 192,
          "midi": 76,
          "name": "E5",
          "ticks": 50112,
          "time": 60.23070899999999,
          "velocity": 0.3937007874015748
        },
        {
          "duration": 0.23076900000000222,
          "durationTicks": 192,
          "midi": 76,
          "name": "E5",
          "ticks": 50304,
          "time": 60.46147799999999,
          "velocity": 0.2677165354330709
        },
        {
          "duration": 0.23076899999999512,
          "durationTicks": 192,
          "midi": 76,
          "name": "E5",
          "ticks": 50496,
          "time": 60.692246999999995,
          "velocity": 0.1968503937007874
        },
        {
          "duration": 0.23076900000000222,
          "durationTicks": 192,
          "midi": 80,
          "name": "G#5",
          "ticks": 50688,
          "time": 60.92301599999999,
          "velocity": 0.3937007874015748
        },
        {
          "duration": 0.23076900000000222,
          "durationTicks": 192,
          "midi": 76,
          "name": "E5",
          "ticks": 50880,
          "time": 61.15378499999999,
          "velocity": 0.3937007874015748
        },
        {
          "duration": 0.23076900000000222,
          "durationTicks": 192,
          "midi": 80,
          "name": "G#5",
          "ticks": 51072,
          "time": 61.384553999999994,
          "velocity": 0.3937007874015748
        },
        {
          "duration": 0.23076899999999512,
          "durationTicks": 192,
          "midi": 81,
          "name": "A5",
          "ticks": 51264,
          "time": 61.615323,
          "velocity": 0.3937007874015748
        },
        {
          "duration": 0.23076900000000222,
          "durationTicks": 192,
          "midi": 80,
          "name": "G#5",
          "ticks": 51456,
          "time": 61.84609199999999,
          "velocity": 0.3937007874015748
        },
        {
          "duration": 0.6923069999999996,
          "durationTicks": 576,
          "midi": 71,
          "name": "B4",
          "ticks": 51648,
          "time": 62.076860999999994,
          "velocity": 0.23622047244094488
        },
        {
          "duration": 1.8461520000000036,
          "durationTicks": 1536,
          "midi": 80,
          "name": "G#5",
          "ticks": 52224,
          "time": 62.76916799999999,
          "velocity": 0.3937007874015748
        },
        {
          "duration": 0.23076899999999512,
          "durationTicks": 192,
          "midi": 85,
          "name": "C#6",
          "ticks": 54528,
          "time": 65.53839599999999,
          "velocity": 0.3937007874015748
        },
        {
          "duration": 0.23076900000000933,
          "durationTicks": 192,
          "midi": 83,
          "name": "B5",
          "ticks": 54720,
          "time": 65.76916499999999,
          "velocity": 0.3937007874015748
        },
        {
          "duration": 0.23076899999999512,
          "durationTicks": 192,
          "midi": 80,
          "name": "G#5",
          "ticks": 54912,
          "time": 65.999934,
          "velocity": 0.3937007874015748
        },
        {
          "duration": 0.23076899999999512,
          "durationTicks": 192,
          "midi": 78,
          "name": "F#5",
          "ticks": 55104,
          "time": 66.23070299999999,
          "velocity": 0.3937007874015748
        },
        {
          "duration": 0.46153800000000444,
          "durationTicks": 384,
          "midi": 80,
          "name": "G#5",
          "ticks": 55296,
          "time": 66.46147199999999,
          "velocity": 0.23622047244094488
        },
        {
          "duration": 0.23076899999999512,
          "durationTicks": 192,
          "midi": 80,
          "name": "G#5",
          "ticks": 55680,
          "time": 66.92300999999999,
          "velocity": 0.3937007874015748
        },
        {
          "duration": 0.6923069999999996,
          "durationTicks": 576,
          "midi": 76,
          "name": "E5",
          "ticks": 55872,
          "time": 67.15377899999999,
          "velocity": 0.31496062992125984
        },
        {
          "duration": 0.46153800000000444,
          "durationTicks": 384,
          "midi": 80,
          "name": "G#5",
          "ticks": 56448,
          "time": 67.84608599999999,
          "velocity": 0.1968503937007874
        },
        {
          "duration": 0.9230759999999947,
          "durationTicks": 768,
          "midi": 78,
          "name": "F#5",
          "ticks": 60672,
          "time": 72.92300399999999,
          "velocity": 0.3937007874015748
        }
      ],
      "endOfTrackTicks": 61440
    },
    {
      "channel": 9,
      "controlChanges": {},
      "pitchBends": [],
      "instrument": {
        "family": "drums",
        "number": 0,
        "name": "standard kit"
      },
      "name": "Electric Drum Kit",
      "notes": [
        {
          "duration": 0.11538450000000111,
          "durationTicks": 96,
          "midi": 29,
          "name": "F1",
          "ticks": 12672,
          "time": 15.230753999999997,
          "velocity": 0.3858267716535433
        },
        {
          "duration": 0.11538450000000111,
          "durationTicks": 96,
          "midi": 30,
          "name": "F#1",
          "ticks": 14208,
          "time": 17.076905999999997,
          "velocity": 0.3858267716535433
        },
        {
          "duration": 0.11538450000000111,
          "durationTicks": 96,
          "midi": 30,
          "name": "F#1",
          "ticks": 17280,
          "time": 20.769209999999998,
          "velocity": 0.3858267716535433
        },
        {
          "duration": 0.11538450000000111,
          "durationTicks": 96,
          "midi": 29,
          "name": "F1",
          "ticks": 18816,
          "time": 22.615361999999998,
          "velocity": 0.3858267716535433
        },
        {
          "duration": 0.11538450000000111,
          "durationTicks": 96,
          "midi": 30,
          "name": "F#1",
          "ticks": 20352,
          "time": 24.461513999999998,
          "velocity": 0.3858267716535433
        },
        {
          "duration": 0.11538449999999756,
          "durationTicks": 96,
          "midi": 30,
          "name": "F#1",
          "ticks": 23424,
          "time": 28.153817999999998,
          "velocity": 0.3858267716535433
        },
        {
          "duration": 0.11538449999999756,
          "durationTicks": 96,
          "midi": 29,
          "name": "F1",
          "ticks": 24960,
          "time": 29.999969999999998,
          "velocity": 0.3858267716535433
        },
        {
          "duration": 0.11538449999999756,
          "durationTicks": 96,
          "midi": 30,
          "name": "F#1",
          "ticks": 26496,
          "time": 31.846121999999998,
          "velocity": 0.3858267716535433
        },
        {
          "duration": 0.11538449999999756,
          "durationTicks": 96,
          "midi": 29,
          "name": "F1",
          "ticks": 28032,
          "time": 33.692274,
          "velocity": 0.3858267716535433
        },
        {
          "duration": 0.11538450000000466,
          "durationTicks": 96,
          "midi": 30,
          "name": "F#1",
          "ticks": 29568,
          "time": 35.538425999999994,
          "velocity": 0.3858267716535433
        },
        {
          "duration": 0.11538449999999756,
          "durationTicks": 96,
          "midi": 29,
          "name": "F1",
          "ticks": 31104,
          "time": 37.384578,
          "velocity": 0.3858267716535433
        },
        {
          "duration": 0.11538450000000466,
          "durationTicks": 96,
          "midi": 30,
          "name": "F#1",
          "ticks": 32640,
          "time": 39.230729999999994,
          "velocity": 0.3858267716535433
        },
        {
          "duration": 0.11538449999999756,
          "durationTicks": 96,
          "midi": 29,
          "name": "F1",
          "ticks": 34176,
          "time": 41.076882,
          "velocity": 0.3858267716535433
        },
        {
          "duration": 0.11538449999999756,
          "durationTicks": 96,
          "midi": 30,
          "name": "F#1",
          "ticks": 35712,
          "time": 42.923033999999994,
          "velocity": 0.3858267716535433
        },
        {
          "duration": 0.11538449999999756,
          "durationTicks": 96,
          "midi": 30,
          "name": "F#1",
          "ticks": 38784,
          "time": 46.615337999999994,
          "velocity": 0.3858267716535433
        },
        {
          "duration": 0.11538449999999756,
          "durationTicks": 96,
          "midi": 30,
          "name": "F#1",
          "ticks": 41856,
          "time": 50.307641999999994,
          "velocity": 0.3858267716535433
        },
        {
          "duration": 0.11538450000000466,
          "durationTicks": 96,
          "midi": 29,
          "name": "F1",
          "ticks": 43392,
          "time": 52.15379399999999,
          "velocity": 0.3858267716535433
        },
        {
          "duration": 0.11538449999999756,
          "durationTicks": 96,
          "midi": 30,
          "name": "F#1",
          "ticks": 44928,
          "time": 53.999945999999994,
          "velocity": 0.3858267716535433
        },
        {
          "duration": 0.11538449999999756,
          "durationTicks": 96,
          "midi": 30,
          "name": "F#1",
          "ticks": 48000,
          "time": 57.692249999999994,
          "velocity": 0.3858267716535433
        },
        {
          "duration": 0.11538450000000466,
          "durationTicks": 96,
          "midi": 29,
          "name": "F1",
          "ticks": 49536,
          "time": 59.53840199999999,
          "velocity": 0.3858267716535433
        },
        {
          "duration": 0.11538449999999756,
          "durationTicks": 96,
          "midi": 30,
          "name": "F#1",
          "ticks": 51072,
          "time": 61.384553999999994,
          "velocity": 0.3858267716535433
        },
        {
          "duration": 0.11538450000000466,
          "durationTicks": 96,
          "midi": 29,
          "name": "F1",
          "ticks": 52608,
          "time": 63.23070599999999,
          "velocity": 0.3858267716535433
        },
        {
          "duration": 0.11538450000000466,
          "durationTicks": 96,
          "midi": 30,
          "name": "F#1",
          "ticks": 54144,
          "time": 65.07685799999999,
          "velocity": 0.3858267716535433
        },
        {
          "duration": 0.11538450000000466,
          "durationTicks": 96,
          "midi": 29,
          "name": "F1",
          "ticks": 55680,
          "time": 66.92300999999999,
          "velocity": 0.3858267716535433
        },
        {
          "duration": 0.11538450000000466,
          "durationTicks": 96,
          "midi": 30,
          "name": "F#1",
          "ticks": 57216,
          "time": 68.769162,
          "velocity": 0.3858267716535433
        },
        {
          "duration": 0.11538449999999045,
          "durationTicks": 96,
          "midi": 29,
          "name": "F1",
          "ticks": 58752,
          "time": 70.615314,
          "velocity": 0.3858267716535433
        },
        {
          "duration": 0.11538450000000466,
          "durationTicks": 96,
          "midi": 30,
          "name": "F#1",
          "ticks": 60288,
          "time": 72.46146599999999,
          "velocity": 0.3858267716535433
        }
      ],
      "endOfTrackTicks": 60384
    },
    {
      "channel": 9,
      "controlChanges": {},
      "pitchBends": [],
      "instrument": {
        "family": "drums",
        "number": 0,
        "name": "standard kit"
      },
      "name": "2013 Drum Kit",
      "notes": [
        {
          "duration": 0.11538449999999933,
          "durationTicks": 96,
          "midi": 57,
          "name": "A3",
          "ticks": 12288,
          "time": 14.769215999999998,
          "velocity": 0.3937007874015748
        },
        {
          "duration": 0.11538450000000111,
          "durationTicks": 96,
          "midi": 57,
          "name": "A3",
          "ticks": 24576,
          "time": 29.538431999999997,
          "velocity": 0.3937007874015748
        },
        {
          "duration": 0.11538449999999756,
          "durationTicks": 96,
          "midi": 57,
          "name": "A3",
          "ticks": 49152,
          "time": 59.07686399999999,
          "velocity": 0.3937007874015748
        }
      ],
      "endOfTrackTicks": 49248
    }
  ]
}
