{
  "header": {
    "PPQ": 220,
    "bpm": 120,
    "timeSignature": [
      4,
      4
    ],
    "name": ""
  },
  "tempo": [
    {
      "absoluteTime": 0,
      "seconds": 0,
      "bpm": 120
    }
  ],
  "timeSignature": [
    {
      "absoluteTime": 0,
      "seconds": 0,
      "numerator": 4,
      "denominator": 2,
      "click": 24,
      "notesQ": 8
    }
  ],
  "startTime": 0,
  "duration": 119.11363636363694,
  "tracks": [
    {
      "startTime": 0,
      "duration": 0,
      "length": 0,
      "notes": [],
      "controlChanges": {},
      "id": 0
    },
    {
      "startTime": 0.03409090909090909,
      "duration": 119.11363636363694,
      "length": 445,
      "notes": [
        {
          "name": "C1",
          "midi": 24,
          "time": 0.03409090909090909,
          "velocity": 0.5590551181102362,
          "duration": 2.045454545454552
        },
        {
          "name": "E1",
          "midi": 28,
          "time": 2.1613636363636433,
          "velocity": 0.6850393700787402,
          "duration": 0.6386363636363637
        },
        {
          "name": "E2",
          "midi": 40,
          "time": 2.1613636363636433,
          "velocity": 0.44881889763779526,
          "duration": 0.23181818181818192
        },
        {
          "name": "E1",
          "midi": 28,
          "time": 2.800000000000007,
          "velocity": 0.6771653543307087,
          "duration": 0.6022727272727271
        },
        {
          "name": "E2",
          "midi": 40,
          "time": 3.009090909090916,
          "velocity": 0.33070866141732286,
          "duration": 0.209090909090909
        },
        {
          "name": "A3",
          "midi": 57,
          "time": 3.402272727272734,
          "velocity": 0.5275590551181102,
          "duration": 0.09318181818181825
        },
        {
          "name": "G1",
          "midi": 31,
          "time": 3.461363636363643,
          "velocity": 0.7086614173228346,
          "duration": 2.0681818181818192
        },
        {
          "name": "G2",
          "midi": 43,
          "time": 3.4954545454545523,
          "velocity": 0.4330708661417323,
          "duration": 0.25681818181818183
        },
        {
          "name": "G3",
          "midi": 55,
          "time": 3.543181818181825,
          "velocity": 0.5039370078740157,
          "duration": 0.22045454545454524
        },
        {
          "name": "A3",
          "midi": 57,
          "time": 3.7863636363636433,
          "velocity": 0.47244094488188976,
          "duration": 0.1499999999999999
        },
        {
          "name": "E3",
          "midi": 52,
          "time": 4.1931818181818254,
          "velocity": 0.47244094488188976,
          "duration": 0.1045454545454545
        },
        {
          "name": "F#3",
          "midi": 54,
          "time": 4.309090909090917,
          "velocity": 0.49606299212598426,
          "duration": 0.17499999999999982
        },
        {
          "name": "A3",
          "midi": 57,
          "time": 5.470454545454553,
          "velocity": 0.5118110236220472,
          "duration": 0.08181818181818201
        },
        {
          "name": "A1",
          "midi": 33,
          "time": 5.518181818181826,
          "velocity": 0.5826771653543307,
          "duration": 0.06818181818181834
        },
        {
          "name": "A1",
          "midi": 33,
          "time": 5.586363636363644,
          "velocity": 0.7244094488188977,
          "duration": 1.2204545454545457
        },
        {
          "name": "A2",
          "midi": 45,
          "time": 5.656818181818189,
          "velocity": 0.3228346456692913,
          "duration": 0.08181818181818201
        },
        {
          "name": "F#3",
          "midi": 54,
          "time": 5.6909090909090985,
          "velocity": 0.3937007874015748,
          "duration": 0.08181818181818201
        },
        {
          "name": "E3",
          "midi": 52,
          "time": 5.7727272727272805,
          "velocity": 0.25196850393700787,
          "duration": 0.11590909090909118
        },
        {
          "name": "F#3",
          "midi": 54,
          "time": 5.9363636363636445,
          "velocity": 0.2992125984251969,
          "duration": 0.16363636363636402
        },
        {
          "name": "A2",
          "midi": 45,
          "time": 6.122727272727281,
          "velocity": 0.33070866141732286,
          "duration": 0.09318181818181781
        },
        {
          "name": "C1",
          "midi": 24,
          "time": 6.829545454545462,
          "velocity": 0.5826771653543307,
          "duration": 1.952272727272776
        },
        {
          "name": "E1",
          "midi": 28,
          "time": 8.781818181818238,
          "velocity": 0.36220472440944884,
          "duration": 0.0931818181818187
        },
        {
          "name": "B2",
          "midi": 47,
          "time": 8.852272727272783,
          "velocity": 0.33858267716535434,
          "duration": 0.16136363636363704
        },
        {
          "name": "E2",
          "midi": 40,
          "time": 8.86363636363642,
          "velocity": 0.3700787401574803,
          "duration": 0.5
        },
        {
          "name": "E1",
          "midi": 28,
          "time": 8.875000000000057,
          "velocity": 0.6692913385826772,
          "duration": 1.2659090909090924
        },
        {
          "name": "F#3",
          "midi": 54,
          "time": 9.490909090909147,
          "velocity": 0.25984251968503935,
          "duration": 0.15000000000000036
        },
        {
          "name": "B1",
          "midi": 35,
          "time": 9.640909090909147,
          "velocity": 0.3779527559055118,
          "duration": 0.0931818181818187
        },
        {
          "name": "F#3",
          "midi": 54,
          "time": 9.640909090909147,
          "velocity": 0.4645669291338583,
          "duration": 0.11590909090909207
        },
        {
          "name": "E2",
          "midi": 40,
          "time": 9.850000000000058,
          "velocity": 0.3779527559055118,
          "duration": 0.18636363636363562
        },
        {
          "name": "G3",
          "midi": 55,
          "time": 9.850000000000058,
          "velocity": 0.5039370078740157,
          "duration": 0.25681818181818095
        },
        {
          "name": "G1",
          "midi": 31,
          "time": 10.002272727272786,
          "velocity": 0.4251968503937008,
          "duration": 0.1159090909090903
        },
        {
          "name": "G1",
          "midi": 31,
          "time": 10.118181818181876,
          "velocity": 0.7086614173228346,
          "duration": 2.102272727272725
        },
        {
          "name": "D3",
          "midi": 50,
          "time": 10.118181818181876,
          "velocity": 0.29133858267716534,
          "duration": 0.0931818181818187
        },
        {
          "name": "F#3",
          "midi": 54,
          "time": 10.129545454545513,
          "velocity": 0.4409448818897638,
          "duration": 0.209090909090909
        },
        {
          "name": "F#3",
          "midi": 54,
          "time": 10.502272727272786,
          "velocity": 0.4645669291338583,
          "duration": 0.1159090909090903
        },
        {
          "name": "F#3",
          "midi": 54,
          "time": 11.338636363636422,
          "velocity": 0.5354330708661418,
          "duration": 0.17272727272727195
        },
        {
          "name": "G3",
          "midi": 55,
          "time": 11.52272727272733,
          "velocity": 0.5118110236220472,
          "duration": 0.3954545454545446
        },
        {
          "name": "F#3",
          "midi": 54,
          "time": 11.918181818181875,
          "velocity": 0.3700787401574803,
          "duration": 0.25681818181818095
        },
        {
          "name": "C#5",
          "midi": 73,
          "time": 11.918181818181875,
          "velocity": 0.29133858267716534,
          "duration": 0.08181818181818201
        },
        {
          "name": "A1",
          "midi": 33,
          "time": 12.12954545454551,
          "velocity": 0.36220472440944884,
          "duration": 0.10454545454545361
        },
        {
          "name": "F#3",
          "midi": 54,
          "time": 12.175000000000056,
          "velocity": 0.5354330708661418,
          "duration": 0.16136363636363527
        },
        {
          "name": "A1",
          "midi": 33,
          "time": 12.234090909090964,
          "velocity": 0.6692913385826772,
          "duration": 0.10227272727272663
        },
        {
          "name": "A2",
          "midi": 45,
          "time": 12.234090909090964,
          "velocity": 0.3543307086614173,
          "duration": 0.206818181818182
        },
        {
          "name": "A1",
          "midi": 33,
          "time": 12.336363636363691,
          "velocity": 0.7480314960629921,
          "duration": 3.2522727272727323
        },
        {
          "name": "E3",
          "midi": 52,
          "time": 12.440909090909146,
          "velocity": 0.36220472440944884,
          "duration": 0.10454545454545539
        },
        {
          "name": "A2",
          "midi": 45,
          "time": 12.675000000000056,
          "velocity": 0.36220472440944884,
          "duration": 0.0931818181818187
        },
        {
          "name": "G3",
          "midi": 55,
          "time": 13.011363636363694,
          "velocity": 0.4409448818897638,
          "duration": 0.10454545454545539
        },
        {
          "name": "F#3",
          "midi": 54,
          "time": 13.150000000000057,
          "velocity": 0.47244094488188976,
          "duration": 0.22045454545454568
        },
        {
          "name": "A3",
          "midi": 57,
          "time": 13.452272727272785,
          "velocity": 0.4330708661417323,
          "duration": 0.0931818181818187
        },
        {
          "name": "G3",
          "midi": 55,
          "time": 13.650000000000059,
          "velocity": 0.4330708661417323,
          "duration": 0.13863636363636367
        },
        {
          "name": "F#3",
          "midi": 54,
          "time": 14.104545454545514,
          "velocity": 0.3858267716535433,
          "duration": 0.07954545454545503
        },
        {
          "name": "E3",
          "midi": 52,
          "time": 14.184090909090969,
          "velocity": 0.28346456692913385,
          "duration": 0.22045454545454568
        },
        {
          "name": "A2",
          "midi": 45,
          "time": 14.32500000000006,
          "velocity": 0.3858267716535433,
          "duration": 0.11590909090909207
        },
        {
          "name": "G3",
          "midi": 55,
          "time": 15.33409090909097,
          "velocity": 0.5511811023622047,
          "duration": 0.13863636363636367
        },
        {
          "name": "A2",
          "midi": 45,
          "time": 15.472727272727333,
          "velocity": 0.28346456692913385,
          "duration": 0.10454545454545361
        },
        {
          "name": "A3",
          "midi": 57,
          "time": 15.520454545454605,
          "velocity": 0.3858267716535433,
          "duration": 0.06818181818181834
        },
        {
          "name": "E1",
          "midi": 28,
          "time": 15.531818181818242,
          "velocity": 0.49606299212598426,
          "duration": 0.07045454545454533
        },
        {
          "name": "E1",
          "midi": 28,
          "time": 15.602272727272787,
          "velocity": 0.7007874015748031,
          "duration": 0.6159090909090921
        },
        {
          "name": "F#3",
          "midi": 54,
          "time": 15.797727272727332,
          "velocity": 0.2677165354330709,
          "duration": 0.12954545454545396
        },
        {
          "name": "F#3",
          "midi": 54,
          "time": 15.938636363636423,
          "velocity": 0.4251968503937008,
          "duration": 0.10454545454545539
        },
        {
          "name": "E1",
          "midi": 28,
          "time": 16.21818181818188,
          "velocity": 0.6771653543307087,
          "duration": 0.6613636363636353
        },
        {
          "name": "G1",
          "midi": 31,
          "time": 16.786363636363696,
          "velocity": 0.7086614173228346,
          "duration": 2.1613636363636424
        },
        {
          "name": "B3",
          "midi": 59,
          "time": 16.797727272727332,
          "velocity": 0.4881889763779528,
          "duration": 0.10454545454545539
        },
        {
          "name": "G3",
          "midi": 55,
          "time": 16.995454545454606,
          "velocity": 0.3700787401574803,
          "duration": 0.10454545454545539
        },
        {
          "name": "D2",
          "midi": 38,
          "time": 17.134090909090972,
          "velocity": 0.3700787401574803,
          "duration": 0.10454545454545539
        },
        {
          "name": "A3",
          "midi": 57,
          "time": 17.181818181818244,
          "velocity": 0.4094488188976378,
          "duration": 0.06818181818182012
        },
        {
          "name": "F#3",
          "midi": 54,
          "time": 17.69318181818188,
          "velocity": 0.4645669291338583,
          "duration": 0.12727272727272876
        },
        {
          "name": "F#3",
          "midi": 54,
          "time": 18.2613636363637,
          "velocity": 0.41732283464566927,
          "duration": 0.10454545454545539
        },
        {
          "name": "A3",
          "midi": 57,
          "time": 18.668181818181882,
          "velocity": 0.36220472440944884,
          "duration": 0.08181818181818201
        },
        {
          "name": "A3",
          "midi": 57,
          "time": 18.877272727272793,
          "velocity": 0.3464566929133858,
          "duration": 0.07045454545454533
        },
        {
          "name": "A1",
          "midi": 33,
          "time": 18.913636363636428,
          "velocity": 0.5433070866141733,
          "duration": 0.0795454545454568
        },
        {
          "name": "A1",
          "midi": 33,
          "time": 18.993181818181885,
          "velocity": 0.7086614173228346,
          "duration": 1.279545454545449
        },
        {
          "name": "G3",
          "midi": 55,
          "time": 19.784090909090974,
          "velocity": 0.4094488188976378,
          "duration": 0.06818181818181657
        },
        {
          "name": "A2",
          "midi": 45,
          "time": 19.95909090909097,
          "velocity": 0.3464566929133858,
          "duration": 0.07045454545454533
        },
        {
          "name": "C1",
          "midi": 24,
          "time": 20.225000000000062,
          "velocity": 0.5196850393700787,
          "duration": 1.9636363636363612
        },
        {
          "name": "G3",
          "midi": 55,
          "time": 20.586363636363696,
          "velocity": 0.41732283464566927,
          "duration": 0.0931818181818187
        },
        {
          "name": "G3",
          "midi": 55,
          "time": 20.74772727272733,
          "velocity": 0.25984251968503935,
          "duration": 0.16363636363636402
        },
        {
          "name": "F#3",
          "midi": 54,
          "time": 21.095454545454604,
          "velocity": 0.4566929133858268,
          "duration": 0.23409090909090935
        },
        {
          "name": "C2",
          "midi": 36,
          "time": 21.363636363636424,
          "velocity": 0.3700787401574803,
          "duration": 0.08181818181818201
        },
        {
          "name": "G3",
          "midi": 55,
          "time": 21.386363636363697,
          "velocity": 0.3228346456692913,
          "duration": 0.08181818181818201
        },
        {
          "name": "C2",
          "midi": 36,
          "time": 22.10681818181824,
          "velocity": 0.2992125984251969,
          "duration": 0.07045454545454533
        },
        {
          "name": "G3",
          "midi": 55,
          "time": 22.10681818181824,
          "velocity": 0.3858267716535433,
          "duration": 0.16363636363636402
        },
        {
          "name": "E1",
          "midi": 28,
          "time": 22.188636363636423,
          "velocity": 0.36220472440944884,
          "duration": 0.15227272727272734
        },
        {
          "name": "E1",
          "midi": 28,
          "time": 22.34090909090915,
          "velocity": 0.6850393700787402,
          "duration": 0.6022727272727231
        },
        {
          "name": "B1",
          "midi": 35,
          "time": 22.409090909090967,
          "velocity": 0.3779527559055118,
          "duration": 0.1272727272727252
        },
        {
          "name": "F#3",
          "midi": 54,
          "time": 22.445454545454602,
          "velocity": 0.4094488188976378,
          "duration": 0.11590909090908852
        },
        {
          "name": "E1",
          "midi": 28,
          "time": 22.943181818181873,
          "velocity": 0.7007874015748031,
          "duration": 0.6045454545454554
        },
        {
          "name": "G1",
          "midi": 31,
          "time": 23.431818181818237,
          "velocity": 0.36220472440944884,
          "duration": 0.15000000000000213
        },
        {
          "name": "G1",
          "midi": 31,
          "time": 23.58181818181824,
          "velocity": 0.7086614173228346,
          "duration": 2.0909090909090864
        },
        {
          "name": "F#3",
          "midi": 54,
          "time": 24.025000000000055,
          "velocity": 0.47244094488188976,
          "duration": 0.2204545454545439
        },
        {
          "name": "G3",
          "midi": 55,
          "time": 24.4204545454546,
          "velocity": 0.41732283464566927,
          "duration": 0.10454545454545539
        },
        {
          "name": "F#3",
          "midi": 54,
          "time": 24.525000000000055,
          "velocity": 0.5039370078740157,
          "duration": 0.3249999999999993
        },
        {
          "name": "F#3",
          "midi": 54,
          "time": 24.988636363636417,
          "velocity": 0.36220472440944884,
          "duration": 0.08181818181818201
        },
        {
          "name": "F#3",
          "midi": 54,
          "time": 25.325000000000053,
          "velocity": 0.4251968503937008,
          "duration": 0.27954545454545254
        },
        {
          "name": "A1",
          "midi": 33,
          "time": 25.56818181818187,
          "velocity": 0.33070866141732286,
          "duration": 0.0931818181818187
        },
        {
          "name": "A1",
          "midi": 33,
          "time": 25.66136363636369,
          "velocity": 0.6771653543307087,
          "duration": 0.08181818181818201
        },
        {
          "name": "A1",
          "midi": 33,
          "time": 25.74318181818187,
          "velocity": 0.7637795275590551,
          "duration": 1.0818181818181856
        },
        {
          "name": "F#3",
          "midi": 54,
          "time": 25.754545454545507,
          "velocity": 0.2755905511811024,
          "duration": 0.24545454545454604
        },
        {
          "name": "F#3",
          "midi": 54,
          "time": 26.000000000000053,
          "velocity": 0.4566929133858268,
          "duration": 0.1863636363636374
        },
        {
          "name": "A2",
          "midi": 45,
          "time": 26.0704545454546,
          "velocity": 0.4015748031496063,
          "duration": 0.12727272727272876
        },
        {
          "name": "A2",
          "midi": 45,
          "time": 26.650000000000055,
          "velocity": 0.29133858267716534,
          "duration": 0.16363636363636402
        },
        {
          "name": "A1",
          "midi": 33,
          "time": 26.825000000000056,
          "velocity": 0.49606299212598426,
          "duration": 0.10454545454545183
        },
        {
          "name": "F#3",
          "midi": 54,
          "time": 26.893181818181873,
          "velocity": 0.5275590551181102,
          "duration": 0.25681818181817917
        },
        {
          "name": "C1",
          "midi": 24,
          "time": 26.915909090909146,
          "velocity": 0.5433070866141733,
          "duration": 2.0227272727272734
        },
        {
          "name": "E3",
          "midi": 52,
          "time": 27.345454545454597,
          "velocity": 0.41732283464566927,
          "duration": 0.0931818181818187
        },
        {
          "name": "E3",
          "midi": 52,
          "time": 27.718181818181872,
          "velocity": 0.4251968503937008,
          "duration": 0.14090909090909065
        },
        {
          "name": "F#3",
          "midi": 54,
          "time": 28.6954545454546,
          "velocity": 0.4330708661417323,
          "duration": 0.11590909090909207
        },
        {
          "name": "E2",
          "midi": 40,
          "time": 28.961363636363693,
          "velocity": 0.25984251968503935,
          "duration": 0.1863636363636374
        },
        {
          "name": "E1",
          "midi": 28,
          "time": 28.97272727272733,
          "velocity": 0.6771653543307087,
          "duration": 0.6863636363636374
        },
        {
          "name": "F#3",
          "midi": 54,
          "time": 29.425000000000058,
          "velocity": 0.29133858267716534,
          "duration": 0.07045454545454533
        },
        {
          "name": "E1",
          "midi": 28,
          "time": 29.659090909090967,
          "velocity": 0.6850393700787402,
          "duration": 0.6159090909090956
        },
        {
          "name": "G3",
          "midi": 55,
          "time": 29.786363636363696,
          "velocity": 0.3464566929133858,
          "duration": 0.1863636363636374
        },
        {
          "name": "G3",
          "midi": 55,
          "time": 29.972727272727333,
          "velocity": 0.4881889763779528,
          "duration": 0.12727272727272876
        },
        {
          "name": "E2",
          "midi": 40,
          "time": 29.995454545454606,
          "velocity": 0.3464566929133858,
          "duration": 0.11590909090909207
        },
        {
          "name": "G1",
          "midi": 31,
          "time": 30.19318181818188,
          "velocity": 0.33070866141732286,
          "duration": 0.08181818181818201
        },
        {
          "name": "A3",
          "midi": 57,
          "time": 30.240909090909152,
          "velocity": 0.4015748031496063,
          "duration": 0.06818181818182012
        },
        {
          "name": "G1",
          "midi": 31,
          "time": 30.275000000000063,
          "velocity": 0.7086614173228346,
          "duration": 2.125
        },
        {
          "name": "F#3",
          "midi": 54,
          "time": 30.450000000000063,
          "velocity": 0.4015748031496063,
          "duration": 0.44090909090909136
        },
        {
          "name": "F#3",
          "midi": 54,
          "time": 31.05227272727279,
          "velocity": 0.44881889763779526,
          "duration": 0.29090909090908923
        },
        {
          "name": "G3",
          "midi": 55,
          "time": 31.89090909090915,
          "velocity": 0.29133858267716534,
          "duration": 0.20909090909090722
        },
        {
          "name": "G3",
          "midi": 55,
          "time": 32.10000000000006,
          "velocity": 0.4251968503937008,
          "duration": 0.09090909090909349
        },
        {
          "name": "A1",
          "midi": 33,
          "time": 32.354545454545516,
          "velocity": 0.7007874015748031,
          "duration": 0.11590909090909207
        },
        {
          "name": "A1",
          "midi": 33,
          "time": 32.47045454545461,
          "velocity": 0.7244094488188977,
          "duration": 1.2181818181818116
        },
        {
          "name": "F#3",
          "midi": 54,
          "time": 32.504545454545514,
          "velocity": 0.3858267716535433,
          "duration": 0.10454545454545183
        },
        {
          "name": "F#3",
          "midi": 54,
          "time": 32.86590909090915,
          "velocity": 0.44881889763779526,
          "duration": 0.20909090909091077
        },
        {
          "name": "A3",
          "midi": 57,
          "time": 33.14318181818188,
          "velocity": 0.30708661417322836,
          "duration": 0.07045454545454533
        },
        {
          "name": "A2",
          "midi": 45,
          "time": 33.16590909090915,
          "velocity": 0.3937007874015748,
          "duration": 0.08181818181817846
        },
        {
          "name": "C1",
          "midi": 24,
          "time": 33.65454545454551,
          "velocity": 0.5196850393700787,
          "duration": 1.9636363636363612
        },
        {
          "name": "F#3",
          "midi": 54,
          "time": 33.85227272727278,
          "velocity": 0.3464566929133858,
          "duration": 0.08181818181817846
        },
        {
          "name": "F#3",
          "midi": 54,
          "time": 34.51590909090914,
          "velocity": 0.4881889763779528,
          "duration": 0.13863636363636545
        },
        {
          "name": "F#3",
          "midi": 54,
          "time": 34.654545454545506,
          "velocity": 0.4094488188976378,
          "duration": 0.0931818181818187
        },
        {
          "name": "F#3",
          "midi": 54,
          "time": 34.88636363636369,
          "velocity": 0.3464566929133858,
          "duration": 0.0931818181818187
        },
        {
          "name": "F#3",
          "midi": 54,
          "time": 35.0954545454546,
          "velocity": 0.36220472440944884,
          "duration": 0.10454545454545183
        },
        {
          "name": "F#3",
          "midi": 54,
          "time": 35.36363636363642,
          "velocity": 0.3543307086614173,
          "duration": 0.06818181818182012
        },
        {
          "name": "E1",
          "midi": 28,
          "time": 35.734090909090966,
          "velocity": 0.6692913385826772,
          "duration": 0.6409090909090978
        },
        {
          "name": "F#3",
          "midi": 54,
          "time": 35.84090909090915,
          "velocity": 0.3700787401574803,
          "duration": 0.23181818181818414
        },
        {
          "name": "F#3",
          "midi": 54,
          "time": 36.072727272727334,
          "velocity": 0.41732283464566927,
          "duration": 0.0931818181818187
        },
        {
          "name": "E1",
          "midi": 28,
          "time": 36.375000000000064,
          "velocity": 0.6771653543307087,
          "duration": 0.6136363636363669
        },
        {
          "name": "A3",
          "midi": 57,
          "time": 36.92045454545461,
          "velocity": 0.49606299212598426,
          "duration": 0.11590909090909207
        },
        {
          "name": "G1",
          "midi": 31,
          "time": 36.98863636363643,
          "velocity": 0.7086614173228346,
          "duration": 2.0909090909090935
        },
        {
          "name": "F#3",
          "midi": 54,
          "time": 37.17500000000007,
          "velocity": 0.4566929133858268,
          "duration": 0.11590909090909207
        },
        {
          "name": "F#3",
          "midi": 54,
          "time": 37.92045454545462,
          "velocity": 0.4645669291338583,
          "duration": 0.3113636363636374
        },
        {
          "name": "F#3",
          "midi": 54,
          "time": 38.231818181818255,
          "velocity": 0.5826771653543307,
          "duration": 0.38409090909090793
        },
        {
          "name": "F#3",
          "midi": 54,
          "time": 38.61590909090916,
          "velocity": 0.5826771653543307,
          "duration": 0.20909090909091077
        },
        {
          "name": "G3",
          "midi": 55,
          "time": 38.825000000000074,
          "velocity": 0.4881889763779528,
          "duration": 0.10454545454545183
        },
        {
          "name": "A2",
          "midi": 45,
          "time": 39.04545454545462,
          "velocity": 0.3464566929133858,
          "duration": 0.2545454545454362
        },
        {
          "name": "F#3",
          "midi": 54,
          "time": 39.04545454545462,
          "velocity": 0.3464566929133858,
          "duration": 0.1272727272727181
        },
        {
          "name": "A1",
          "midi": 33,
          "time": 39.09090909090916,
          "velocity": 0.7401574803149606,
          "duration": 0.24545454545453538
        },
        {
          "name": "F#3",
          "midi": 54,
          "time": 39.172727272727336,
          "velocity": 0.44881889763779526,
          "duration": 0.10454545454545183
        },
        {
          "name": "E3",
          "midi": 52,
          "time": 39.28863636363642,
          "velocity": 0.4409448818897638,
          "duration": 0.15227272727272378
        },
        {
          "name": "A1",
          "midi": 33,
          "time": 39.33636363636369,
          "velocity": 0.7244094488188977,
          "duration": 3.079545454545439
        },
        {
          "name": "F#3",
          "midi": 54,
          "time": 39.45227272727278,
          "velocity": 0.47244094488188976,
          "duration": 0.30227272727272947
        },
        {
          "name": "A2",
          "midi": 45,
          "time": 39.5204545454546,
          "velocity": 0.31496062992125984,
          "duration": 0.5704545454545453
        },
        {
          "name": "A2",
          "midi": 45,
          "time": 40.336363636363686,
          "velocity": 0.3228346456692913,
          "duration": 0.20909090909091077
        },
        {
          "name": "F#3",
          "midi": 54,
          "time": 41.18409090909096,
          "velocity": 0.5118110236220472,
          "duration": 0.17272727272726485
        },
        {
          "name": "A2",
          "midi": 45,
          "time": 41.21818181818187,
          "velocity": 0.33070866141732286,
          "duration": 0.10454545454545183
        },
        {
          "name": "F#3",
          "midi": 54,
          "time": 41.71818181818186,
          "velocity": 0.47244094488188976,
          "duration": 0.11590909090909207
        },
        {
          "name": "A2",
          "midi": 45,
          "time": 41.97272727272732,
          "velocity": 0.36220472440944884,
          "duration": 0.32727272727272094
        },
        {
          "name": "G3",
          "midi": 55,
          "time": 41.97272727272732,
          "velocity": 0.5039370078740157,
          "duration": 0.08181818181817846
        },
        {
          "name": "F#3",
          "midi": 54,
          "time": 42.0545454545455,
          "velocity": 0.5669291338582677,
          "duration": 0.14090909090909065
        },
        {
          "name": "G3",
          "midi": 55,
          "time": 42.19545454545459,
          "velocity": 0.5354330708661418,
          "duration": 0.1272727272727252
        },
        {
          "name": "E1",
          "midi": 28,
          "time": 42.32272727272731,
          "velocity": 0.4566929133858268,
          "duration": 0.14999999999999858
        },
        {
          "name": "E2",
          "midi": 40,
          "time": 42.427272727272765,
          "velocity": 0.31496062992125984,
          "duration": 0.1272727272727252
        },
        {
          "name": "G3",
          "midi": 55,
          "time": 42.427272727272765,
          "velocity": 0.4881889763779528,
          "duration": 0.14999999999999858
        },
        {
          "name": "E1",
          "midi": 28,
          "time": 42.47272727272731,
          "velocity": 0.6850393700787402,
          "duration": 0.615909090909085
        },
        {
          "name": "F#3",
          "midi": 54,
          "time": 42.5886363636364,
          "velocity": 0.48031496062992124,
          "duration": 0.14090909090909065
        },
        {
          "name": "F#3",
          "midi": 54,
          "time": 42.890909090909126,
          "velocity": 0.4566929133858268,
          "duration": 0.1863636363636374
        },
        {
          "name": "C#5",
          "midi": 73,
          "time": 42.890909090909126,
          "velocity": 0.2677165354330709,
          "duration": 0.14999999999999858
        },
        {
          "name": "E1",
          "midi": 28,
          "time": 43.0886363636364,
          "velocity": 0.6692913385826772,
          "duration": 0.615909090909085
        },
        {
          "name": "G1",
          "midi": 31,
          "time": 43.64545454545458,
          "velocity": 0.6850393700787402,
          "duration": 2.1499999999999773
        },
        {
          "name": "G3",
          "midi": 55,
          "time": 43.65681818181821,
          "velocity": 0.3700787401574803,
          "duration": 0.07045454545454533
        },
        {
          "name": "F#3",
          "midi": 54,
          "time": 43.752272727272754,
          "velocity": 0.4015748031496063,
          "duration": 0.2772727272727238
        },
        {
          "name": "F#3",
          "midi": 54,
          "time": 44.02954545454548,
          "velocity": 0.4330708661417323,
          "duration": 0.08181818181817846
        },
        {
          "name": "D3",
          "midi": 50,
          "time": 44.563636363636384,
          "velocity": 0.3464566929133858,
          "duration": 0.07045454545454533
        },
        {
          "name": "F#3",
          "midi": 54,
          "time": 44.63409090909093,
          "velocity": 0.3858267716535433,
          "duration": 0.336363636363636
        },
        {
          "name": "D3",
          "midi": 50,
          "time": 45.052272727272744,
          "velocity": 0.33858267716535434,
          "duration": 0.18409090909090509
        },
        {
          "name": "A4",
          "midi": 69,
          "time": 45.052272727272744,
          "velocity": 0.3858267716535433,
          "duration": 0.08181818181817846
        },
        {
          "name": "B3",
          "midi": 59,
          "time": 45.53863636363638,
          "velocity": 0.2755905511811024,
          "duration": 0.14090909090909065
        },
        {
          "name": "D3",
          "midi": 50,
          "time": 45.64318181818183,
          "velocity": 0.3700787401574803,
          "duration": 0.08409090909091077
        },
        {
          "name": "A1",
          "midi": 33,
          "time": 45.78409090909092,
          "velocity": 0.7165354330708661,
          "duration": 0.26818181818181586
        },
        {
          "name": "F#3",
          "midi": 54,
          "time": 45.843181818181826,
          "velocity": 0.49606299212598426,
          "duration": 0.2204545454545439
        },
        {
          "name": "A2",
          "midi": 45,
          "time": 45.936363636363645,
          "velocity": 0.33858267716535434,
          "duration": 0.07954545454545325
        },
        {
          "name": "A1",
          "midi": 33,
          "time": 46.05227272727274,
          "velocity": 0.7401574803149606,
          "duration": 0.8931818181818159
        },
        {
          "name": "F#3",
          "midi": 54,
          "time": 46.22500000000001,
          "velocity": 0.4330708661417323,
          "duration": 0.17499999999999716
        },
        {
          "name": "A2",
          "midi": 45,
          "time": 46.852272727272734,
          "velocity": 0.3543307086614173,
          "duration": 0.10454545454545183
        },
        {
          "name": "A1",
          "midi": 33,
          "time": 46.94545454545455,
          "velocity": 0.5275590551181102,
          "duration": 0.17499999999999716
        },
        {
          "name": "A3",
          "midi": 57,
          "time": 47.0159090909091,
          "velocity": 0.4409448818897638,
          "duration": 0.0931818181818187
        },
        {
          "name": "C1",
          "midi": 24,
          "time": 47.10909090909092,
          "velocity": 0.5196850393700787,
          "duration": 1.9499999999999815
        },
        {
          "name": "E3",
          "midi": 52,
          "time": 47.70227272727273,
          "velocity": 0.3779527559055118,
          "duration": 0.09090909090909349
        },
        {
          "name": "F#3",
          "midi": 54,
          "time": 47.89772727272727,
          "velocity": 0.4566929133858268,
          "duration": 0.11818181818181728
        },
        {
          "name": "G3",
          "midi": 55,
          "time": 48.154545454545456,
          "velocity": 0.5275590551181102,
          "duration": 0.14999999999999858
        },
        {
          "name": "F#3",
          "midi": 54,
          "time": 48.304545454545455,
          "velocity": 0.4330708661417323,
          "duration": 0.07045454545454533
        },
        {
          "name": "A3",
          "midi": 57,
          "time": 48.652272727272724,
          "velocity": 0.4409448818897638,
          "duration": 0.0931818181818187
        },
        {
          "name": "F#3",
          "midi": 54,
          "time": 48.92045454545454,
          "velocity": 0.4409448818897638,
          "duration": 0.11590909090909207
        },
        {
          "name": "E2",
          "midi": 40,
          "time": 49.03636363636363,
          "velocity": 0.29133858267716534,
          "duration": 0.16363636363635692
        },
        {
          "name": "E1",
          "midi": 28,
          "time": 49.047727272727265,
          "velocity": 0.44881889763779526,
          "duration": 0.10454545454545183
        },
        {
          "name": "G2",
          "midi": 43,
          "time": 49.0590909090909,
          "velocity": 0.2992125984251969,
          "duration": 0.07045454545454533
        },
        {
          "name": "G3",
          "midi": 55,
          "time": 49.07045454545453,
          "velocity": 0.4251968503937008,
          "duration": 0.11590909090909207
        },
        {
          "name": "E1",
          "midi": 28,
          "time": 49.15227272727272,
          "velocity": 0.6929133858267716,
          "duration": 0.6295454545454433
        },
        {
          "name": "F#3",
          "midi": 54,
          "time": 49.234090909090895,
          "velocity": 0.44881889763779526,
          "duration": 0.14999999999999147
        },
        {
          "name": "B1",
          "midi": 35,
          "time": 49.24545454545453,
          "velocity": 0.3937007874015748,
          "duration": 0.10454545454545183
        },
        {
          "name": "A3",
          "midi": 57,
          "time": 49.72272727272725,
          "velocity": 0.2125984251968504,
          "duration": 0.1272727272727323
        },
        {
          "name": "E1",
          "midi": 28,
          "time": 49.78181818181816,
          "velocity": 0.6614173228346457,
          "duration": 0.6499999999999986
        },
        {
          "name": "E2",
          "midi": 40,
          "time": 49.80454545454543,
          "velocity": 0.25984251968503935,
          "duration": 0.11590909090909207
        },
        {
          "name": "G3",
          "midi": 55,
          "time": 49.87272727272725,
          "velocity": 0.31496062992125984,
          "duration": 0.3136363636363626
        },
        {
          "name": "G3",
          "midi": 55,
          "time": 50.186363636363616,
          "velocity": 0.5354330708661418,
          "duration": 0.14090909090909065
        },
        {
          "name": "A3",
          "midi": 57,
          "time": 50.32727272727271,
          "velocity": 0.4645669291338583,
          "duration": 0.11590909090908497
        },
        {
          "name": "G1",
          "midi": 31,
          "time": 50.420454545454525,
          "velocity": 0.6850393700787402,
          "duration": 2.1136363636363384
        },
        {
          "name": "F#3",
          "midi": 54,
          "time": 50.60454545454543,
          "velocity": 0.3858267716535433,
          "duration": 0.15227272727272378
        },
        {
          "name": "F#3",
          "midi": 54,
          "time": 51.26590909090906,
          "velocity": 0.4566929133858268,
          "duration": 0.0931818181818187
        },
        {
          "name": "G3",
          "midi": 55,
          "time": 51.40681818181815,
          "velocity": 0.2677165354330709,
          "duration": 0.0931818181818187
        },
        {
          "name": "F#3",
          "midi": 54,
          "time": 51.68636363636361,
          "velocity": 0.5196850393700787,
          "duration": 0.1272727272727252
        },
        {
          "name": "G3",
          "midi": 55,
          "time": 51.813636363636334,
          "velocity": 0.28346456692913385,
          "duration": 0.0931818181818187
        },
        {
          "name": "A3",
          "midi": 57,
          "time": 52.08181818181815,
          "velocity": 0.3858267716535433,
          "duration": 0.07954545454545325
        },
        {
          "name": "F#3",
          "midi": 54,
          "time": 52.277272727272695,
          "velocity": 0.4094488188976378,
          "duration": 0.07045454545454533
        },
        {
          "name": "G3",
          "midi": 55,
          "time": 52.359090909090874,
          "velocity": 0.4251968503937008,
          "duration": 0.07045454545454533
        },
        {
          "name": "G3",
          "midi": 55,
          "time": 52.42954545454542,
          "velocity": 0.5039370078740157,
          "duration": 0.14999999999999147
        },
        {
          "name": "A1",
          "midi": 33,
          "time": 52.5113636363636,
          "velocity": 0.7244094488188977,
          "duration": 1.3113636363636232
        },
        {
          "name": "A2",
          "midi": 45,
          "time": 52.52272727272723,
          "velocity": 0.3858267716535433,
          "duration": 0.1613636363636317
        },
        {
          "name": "E3",
          "midi": 52,
          "time": 52.695454545454496,
          "velocity": 0.3779527559055118,
          "duration": 0.0931818181818187
        },
        {
          "name": "F#3",
          "midi": 54,
          "time": 52.95227272727268,
          "velocity": 0.3937007874015748,
          "duration": 0.14999999999999858
        },
        {
          "name": "G3",
          "midi": 55,
          "time": 53.56590909090904,
          "velocity": 0.3779527559055118,
          "duration": 0.07045454545454533
        },
        {
          "name": "C2",
          "midi": 36,
          "time": 53.695454545454496,
          "velocity": 0.2204724409448819,
          "duration": 0.1863636363636374
        },
        {
          "name": "C1",
          "midi": 24,
          "time": 53.788636363636314,
          "velocity": 0.5196850393700787,
          "duration": 1.952272727272721
        },
        {
          "name": "G2",
          "midi": 43,
          "time": 53.788636363636314,
          "velocity": 0.30708661417322836,
          "duration": 0.10454545454545183
        },
        {
          "name": "A3",
          "midi": 57,
          "time": 53.986363636363585,
          "velocity": 0.3937007874015748,
          "duration": 0.07045454545454533
        },
        {
          "name": "F#3",
          "midi": 54,
          "time": 55.56590909090904,
          "velocity": 0.4645669291338583,
          "duration": 0.2204545454545439
        },
        {
          "name": "E1",
          "midi": 28,
          "time": 55.76363636363631,
          "velocity": 0.44881889763779526,
          "duration": 0.0931818181818187
        },
        {
          "name": "E1",
          "midi": 28,
          "time": 55.85681818181813,
          "velocity": 0.6929133858267716,
          "duration": 0.6386363636363512
        },
        {
          "name": "E2",
          "midi": 40,
          "time": 55.85681818181813,
          "velocity": 0.2992125984251969,
          "duration": 0.1272727272727181
        },
        {
          "name": "E3",
          "midi": 52,
          "time": 55.85681818181813,
          "velocity": 0.2677165354330709,
          "duration": 0.11590909090908497
        },
        {
          "name": "B4",
          "midi": 71,
          "time": 55.85681818181813,
          "velocity": 0.3700787401574803,
          "duration": 0.23181818181816993
        },
        {
          "name": "B2",
          "midi": 47,
          "time": 55.86818181818176,
          "velocity": 0.3779527559055118,
          "duration": 0.10454545454545183
        },
        {
          "name": "B4",
          "midi": 71,
          "time": 56.29772727272721,
          "velocity": 0.3228346456692913,
          "duration": 0.11590909090909207
        },
        {
          "name": "G3",
          "midi": 55,
          "time": 56.46136363636357,
          "velocity": 0.33070866141732286,
          "duration": 0.10454545454545183
        },
        {
          "name": "E1",
          "midi": 28,
          "time": 56.49545454545448,
          "velocity": 0.6692913385826772,
          "duration": 0.6159090909090921
        },
        {
          "name": "A3",
          "midi": 57,
          "time": 57.029545454545385,
          "velocity": 0.4015748031496063,
          "duration": 0.08181818181818556
        },
        {
          "name": "G1",
          "midi": 31,
          "time": 57.05227272727266,
          "velocity": 0.4094488188976378,
          "duration": 0.08181818181818556
        },
        {
          "name": "G1",
          "midi": 31,
          "time": 57.134090909090844,
          "velocity": 0.7086614173228346,
          "duration": 2.0909090909090864
        },
        {
          "name": "F#3",
          "midi": 54,
          "time": 57.45909090909085,
          "velocity": 0.33070866141732286,
          "duration": 0.07045454545454533
        },
        {
          "name": "E3",
          "midi": 52,
          "time": 57.540909090909025,
          "velocity": 0.44881889763779526,
          "duration": 0.11590909090909207
        },
        {
          "name": "A3",
          "midi": 57,
          "time": 58.097727272727205,
          "velocity": 0.4015748031496063,
          "duration": 0.10454545454545183
        },
        {
          "name": "E3",
          "midi": 52,
          "time": 59.20227272727266,
          "velocity": 0.5118110236220472,
          "duration": 0.16136363636363882
        },
        {
          "name": "A1",
          "midi": 33,
          "time": 59.247727272727204,
          "velocity": 0.7165354330708661,
          "duration": 1.3363636363636289
        },
        {
          "name": "G3",
          "midi": 55,
          "time": 60.20227272727266,
          "velocity": 0.48031496062992124,
          "duration": 0.10454545454545183
        },
        {
          "name": "A2",
          "midi": 45,
          "time": 60.23636363636356,
          "velocity": 0.33070866141732286,
          "duration": 0.08181818181817846
        },
        {
          "name": "C1",
          "midi": 24,
          "time": 60.502272727272654,
          "velocity": 0.5196850393700787,
          "duration": 1.9886363636363527
        },
        {
          "name": "F#3",
          "midi": 54,
          "time": 61.51363636363629,
          "velocity": 0.28346456692913385,
          "duration": 0.07045454545454533
        },
        {
          "name": "E3",
          "midi": 52,
          "time": 61.606818181818106,
          "velocity": 0.44881889763779526,
          "duration": 0.14090909090909065
        },
        {
          "name": "A3",
          "midi": 57,
          "time": 62.11818181818174,
          "velocity": 0.5511811023622047,
          "duration": 0.11590909090909207
        },
        {
          "name": "G3",
          "midi": 55,
          "time": 62.33863636363628,
          "velocity": 0.3543307086614173,
          "duration": 0.24318181818181728
        },
        {
          "name": "E2",
          "midi": 40,
          "time": 62.46590909090901,
          "velocity": 0.33858267716535434,
          "duration": 0.07045454545454533
        },
        {
          "name": "E1",
          "midi": 28,
          "time": 62.536363636363554,
          "velocity": 0.6771653543307087,
          "duration": 0.6840909090909051
        },
        {
          "name": "F#3",
          "midi": 54,
          "time": 62.734090909090824,
          "velocity": 0.4409448818897638,
          "duration": 0.10454545454545183
        },
        {
          "name": "F#3",
          "midi": 54,
          "time": 62.95454545454537,
          "velocity": 0.30708661417322836,
          "duration": 0.30227272727272947
        },
        {
          "name": "E1",
          "midi": 28,
          "time": 63.22045454545446,
          "velocity": 0.7007874015748031,
          "duration": 0.6409090909090835
        },
        {
          "name": "G1",
          "midi": 31,
          "time": 63.7568181818181,
          "velocity": 0.4015748031496063,
          "duration": 0.0931818181818116
        },
        {
          "name": "A3",
          "midi": 57,
          "time": 63.838636363636276,
          "velocity": 0.5196850393700787,
          "duration": 0.10454545454544473
        },
        {
          "name": "G1",
          "midi": 31,
          "time": 63.84999999999991,
          "velocity": 0.7165354330708661,
          "duration": 2.1022727272727195
        },
        {
          "name": "F#3",
          "midi": 54,
          "time": 63.9999999999999,
          "velocity": 0.4881889763779528,
          "duration": 0.2568181818181756
        },
        {
          "name": "F#3",
          "midi": 54,
          "time": 64.72045454545444,
          "velocity": 0.4015748031496063,
          "duration": 0.24318181818182438
        },
        {
          "name": "A1",
          "midi": 33,
          "time": 65.90681818181808,
          "velocity": 0.7716535433070866,
          "duration": 1.2068181818181927
        },
        {
          "name": "E3",
          "midi": 52,
          "time": 66.1499999999999,
          "velocity": 0.3700787401574803,
          "duration": 0.10454545454545894
        },
        {
          "name": "G3",
          "midi": 55,
          "time": 66.33636363636354,
          "velocity": 0.4330708661417323,
          "duration": 0.15000000000000568
        },
        {
          "name": "A2",
          "midi": 45,
          "time": 66.52045454545446,
          "velocity": 0.36220472440944884,
          "duration": 0.11590909090908497
        },
        {
          "name": "A2",
          "midi": 45,
          "time": 66.88181818181809,
          "velocity": 0.30708661417322836,
          "duration": 0.17272727272727195
        },
        {
          "name": "A1",
          "midi": 33,
          "time": 67.11363636363627,
          "velocity": 0.5275590551181102,
          "duration": 0.12727272727275363
        },
        {
          "name": "C1",
          "midi": 24,
          "time": 67.25227272727267,
          "velocity": 0.49606299212598426,
          "duration": 1.6272727272727252
        },
        {
          "name": "F#3",
          "midi": 54,
          "time": 67.36818181818175,
          "velocity": 0.33858267716535434,
          "duration": 0.07045454545455243
        },
        {
          "name": "E3",
          "midi": 52,
          "time": 67.86818181818175,
          "velocity": 0.4015748031496063,
          "duration": 0.07045454545455243
        },
        {
          "name": "F#3",
          "midi": 54,
          "time": 67.98636363636358,
          "velocity": 0.2755905511811024,
          "duration": 0.20681818181817846
        },
        {
          "name": "F#3",
          "midi": 54,
          "time": 68.20681818181812,
          "velocity": 0.4015748031496063,
          "duration": 0.1272727272727252
        },
        {
          "name": "C1",
          "midi": 24,
          "time": 68.89090909090903,
          "velocity": 0.44881889763779526,
          "duration": 0.33636363636372835
        },
        {
          "name": "E1",
          "midi": 28,
          "time": 69.28636363636367,
          "velocity": 0.7086614173228346,
          "duration": 0.6499999999999915
        },
        {
          "name": "F#3",
          "midi": 54,
          "time": 69.34318181818186,
          "velocity": 0.4094488188976378,
          "duration": 0.13863636363635123
        },
        {
          "name": "B1",
          "midi": 35,
          "time": 69.36590909090913,
          "velocity": 0.4015748031496063,
          "duration": 0.1295454545454504
        },
        {
          "name": "F#3",
          "midi": 54,
          "time": 69.63409090909094,
          "velocity": 0.4330708661417323,
          "duration": 0.14090909090909065
        },
        {
          "name": "E1",
          "midi": 28,
          "time": 69.93636363636367,
          "velocity": 0.7165354330708661,
          "duration": 0.5931818181818187
        },
        {
          "name": "F#3",
          "midi": 54,
          "time": 69.9727272727273,
          "velocity": 0.3858267716535433,
          "duration": 0.07954545454545325
        },
        {
          "name": "G1",
          "midi": 31,
          "time": 70.47045454545457,
          "velocity": 0.36220472440944884,
          "duration": 0.08181818181817846
        },
        {
          "name": "G3",
          "midi": 55,
          "time": 70.52954545454548,
          "velocity": 0.4330708661417323,
          "duration": 0.127272727272711
        },
        {
          "name": "G1",
          "midi": 31,
          "time": 70.55227272727275,
          "velocity": 0.7244094488188977,
          "duration": 1.615909090909085
        },
        {
          "name": "D3",
          "midi": 50,
          "time": 70.55227272727275,
          "velocity": 0.3464566929133858,
          "duration": 0.08181818181817846
        },
        {
          "name": "G4",
          "midi": 67,
          "time": 70.57500000000002,
          "velocity": 0.33070866141732286,
          "duration": 0.10454545454544473
        },
        {
          "name": "G3",
          "midi": 55,
          "time": 70.9,
          "velocity": 0.3543307086614173,
          "duration": 0.07045454545455243
        },
        {
          "name": "F#3",
          "midi": 54,
          "time": 71.3068181818182,
          "velocity": 0.3937007874015748,
          "duration": 0.07045454545455243
        },
        {
          "name": "D3",
          "midi": 50,
          "time": 71.78409090909093,
          "velocity": 0.3464566929133858,
          "duration": 0.08181818181817846
        },
        {
          "name": "G1",
          "midi": 31,
          "time": 72.16818181818184,
          "velocity": 0.6692913385826772,
          "duration": 0.48636363636363455
        },
        {
          "name": "A1",
          "midi": 33,
          "time": 72.52727272727275,
          "velocity": 0.2440944881889764,
          "duration": 0.10454545454545894
        },
        {
          "name": "A1",
          "midi": 33,
          "time": 72.6318181818182,
          "velocity": 0.7480314960629921,
          "duration": 1.0931818181818187
        },
        {
          "name": "E3",
          "midi": 52,
          "time": 72.85227272727275,
          "velocity": 0.30708661417322836,
          "duration": 0.07045454545455243
        },
        {
          "name": "A1",
          "midi": 33,
          "time": 73.72500000000002,
          "velocity": 0.6062992125984252,
          "duration": 0.2204545454545439
        },
        {
          "name": "C1",
          "midi": 24,
          "time": 73.93409090909093,
          "velocity": 0.5275590551181102,
          "duration": 1.9636363636363683
        },
        {
          "name": "E3",
          "midi": 52,
          "time": 74.67727272727275,
          "velocity": 0.4330708661417323,
          "duration": 0.19545454545455243
        },
        {
          "name": "G2",
          "midi": 43,
          "time": 74.7568181818182,
          "velocity": 0.36220472440944884,
          "duration": 0.07045454545455243
        },
        {
          "name": "E3",
          "midi": 52,
          "time": 75.12954545454548,
          "velocity": 0.47244094488188976,
          "duration": 0.1613636363636317
        },
        {
          "name": "E1",
          "midi": 28,
          "time": 75.94318181818184,
          "velocity": 0.44881889763779526,
          "duration": 0.10454545454544473
        },
        {
          "name": "E2",
          "midi": 40,
          "time": 76.02500000000002,
          "velocity": 0.3464566929133858,
          "duration": 0.0931818181818187
        },
        {
          "name": "E1",
          "midi": 28,
          "time": 76.05909090909093,
          "velocity": 0.6535433070866141,
          "duration": 0.5818181818181927
        },
        {
          "name": "F#3",
          "midi": 54,
          "time": 76.36136363636366,
          "velocity": 0.3464566929133858,
          "duration": 0.15000000000000568
        },
        {
          "name": "B2",
          "midi": 47,
          "time": 76.3727272727273,
          "velocity": 0.4094488188976378,
          "duration": 0.10454545454545894
        },
        {
          "name": "E1",
          "midi": 28,
          "time": 76.64090909090912,
          "velocity": 0.6299212598425197,
          "duration": 0.6500000000001904
        },
        {
          "name": "D3",
          "midi": 50,
          "time": 77.29090909090931,
          "velocity": 0.28346456692913385,
          "duration": 0.07954545454546746
        },
        {
          "name": "G2",
          "midi": 43,
          "time": 77.30227272727295,
          "velocity": 0.3228346456692913,
          "duration": 0.06818181818182723
        },
        {
          "name": "G1",
          "midi": 31,
          "time": 77.31363636363659,
          "velocity": 0.6929133858267716,
          "duration": 2.056818181818187
        },
        {
          "name": "F#3",
          "midi": 54,
          "time": 77.42954545454569,
          "velocity": 0.3779527559055118,
          "duration": 0.14090909090909065
        },
        {
          "name": "D3",
          "midi": 50,
          "time": 78.20909090909115,
          "velocity": 0.2755905511811024,
          "duration": 0.07954545454545325
        },
        {
          "name": "G3",
          "midi": 55,
          "time": 78.90454545454568,
          "velocity": 0.3543307086614173,
          "duration": 0.07045454545455243
        },
        {
          "name": "F#3",
          "midi": 54,
          "time": 78.9977272727275,
          "velocity": 0.47244094488188976,
          "duration": 0.1272727272727252
        },
        {
          "name": "A1",
          "midi": 33,
          "time": 79.37045454545478,
          "velocity": 0.7480314960629921,
          "duration": 3.240909090909099
        },
        {
          "name": "E3",
          "midi": 52,
          "time": 79.41590909090932,
          "velocity": 0.33858267716535434,
          "duration": 0.0931818181818187
        },
        {
          "name": "E3",
          "midi": 52,
          "time": 79.8227272727275,
          "velocity": 0.3937007874015748,
          "duration": 0.0931818181818187
        },
        {
          "name": "D3",
          "midi": 50,
          "time": 79.93863636363659,
          "velocity": 0.4094488188976378,
          "duration": 0.07045454545455243
        },
        {
          "name": "E3",
          "midi": 52,
          "time": 80.31136363636386,
          "velocity": 0.2992125984251969,
          "duration": 0.24318181818182438
        },
        {
          "name": "F#3",
          "midi": 54,
          "time": 80.56590909090933,
          "velocity": 0.41732283464566927,
          "duration": 0.0931818181818187
        },
        {
          "name": "F#3",
          "midi": 54,
          "time": 80.74090909090933,
          "velocity": 0.33070866141732286,
          "duration": 0.0931818181818187
        },
        {
          "name": "F#3",
          "midi": 54,
          "time": 81.40227272727296,
          "velocity": 0.4251968503937008,
          "duration": 0.11818181818182438
        },
        {
          "name": "A2",
          "midi": 45,
          "time": 81.47272727272751,
          "velocity": 0.33858267716535434,
          "duration": 0.10454545454545894
        },
        {
          "name": "A2",
          "midi": 45,
          "time": 82.27500000000025,
          "velocity": 0.33858267716535434,
          "duration": 0.3136363636363626
        },
        {
          "name": "A1",
          "midi": 33,
          "time": 82.61136363636388,
          "velocity": 0.4330708661417323,
          "duration": 0.10454545454547315
        },
        {
          "name": "E1",
          "midi": 28,
          "time": 82.72727272727299,
          "velocity": 0.7165354330708661,
          "duration": 0.6386363636363654
        },
        {
          "name": "F#3",
          "midi": 54,
          "time": 82.85454545454571,
          "velocity": 0.36220472440944884,
          "duration": 0.07045454545455243
        },
        {
          "name": "E1",
          "midi": 28,
          "time": 83.36590909090935,
          "velocity": 0.6929133858267716,
          "duration": 0.30227272727282184
        },
        {
          "name": "E1",
          "midi": 28,
          "time": 83.66818181818218,
          "velocity": 0.6062992125984252,
          "duration": 0.3363636363636431
        },
        {
          "name": "G1",
          "midi": 31,
          "time": 83.94772727272763,
          "velocity": 0.7007874015748031,
          "duration": 2.125000000000014
        },
        {
          "name": "F#3",
          "midi": 54,
          "time": 84.3772727272731,
          "velocity": 0.4409448818897638,
          "duration": 0.2204545454545439
        },
        {
          "name": "F#3",
          "midi": 54,
          "time": 84.82954545454582,
          "velocity": 0.4094488188976378,
          "duration": 0.24318181818182438
        },
        {
          "name": "A1",
          "midi": 33,
          "time": 86.061363636364,
          "velocity": 0.7244094488188977,
          "duration": 1.3250000000000028
        },
        {
          "name": "A2",
          "midi": 45,
          "time": 86.061363636364,
          "velocity": 0.3937007874015748,
          "duration": 0.16363636363635692
        },
        {
          "name": "F#3",
          "midi": 54,
          "time": 86.10909090909128,
          "velocity": 0.3779527559055118,
          "duration": 0.06818181818181301
        },
        {
          "name": "C1",
          "midi": 24,
          "time": 87.361363636364,
          "velocity": 0.5354330708661418,
          "duration": 2.0113636363636545
        },
        {
          "name": "F#3",
          "midi": 54,
          "time": 87.90909090909128,
          "velocity": 0.3779527559055118,
          "duration": 0.0931818181818187
        },
        {
          "name": "A3",
          "midi": 57,
          "time": 88.90681818181855,
          "velocity": 0.3937007874015748,
          "duration": 0.0931818181818187
        },
        {
          "name": "E1",
          "midi": 28,
          "time": 89.29090909090947,
          "velocity": 0.25984251968503935,
          "duration": 0.07045454545455243
        },
        {
          "name": "E1",
          "midi": 28,
          "time": 89.36136363636402,
          "velocity": 0.4566929133858268,
          "duration": 0.05909090909091219
        },
        {
          "name": "E1",
          "midi": 28,
          "time": 89.42045454545493,
          "velocity": 0.6771653543307087,
          "duration": 1.2659090909091049
        },
        {
          "name": "E2",
          "midi": 40,
          "time": 89.57045454545494,
          "velocity": 0.3228346456692913,
          "duration": 0.08181818181817846
        },
        {
          "name": "G3",
          "midi": 55,
          "time": 90.48863636363676,
          "velocity": 0.4645669291338583,
          "duration": 0.0931818181818187
        },
        {
          "name": "G1",
          "midi": 31,
          "time": 90.69772727272768,
          "velocity": 0.7007874015748031,
          "duration": 2.1022727272727195
        },
        {
          "name": "F#3",
          "midi": 54,
          "time": 90.87045454545495,
          "velocity": 0.4094488188976378,
          "duration": 0.16363636363635692
        },
        {
          "name": "F#3",
          "midi": 54,
          "time": 91.04545454545494,
          "velocity": 0.4881889763779528,
          "duration": 0.1863636363636374
        },
        {
          "name": "G3",
          "midi": 55,
          "time": 92.34772727272767,
          "velocity": 0.33858267716535434,
          "duration": 0.10454545454545894
        },
        {
          "name": "A1",
          "midi": 33,
          "time": 92.77727272727313,
          "velocity": 0.6141732283464567,
          "duration": 0.127272727272711
        },
        {
          "name": "F#3",
          "midi": 54,
          "time": 92.77727272727313,
          "velocity": 0.36220472440944884,
          "duration": 0.09090909090907928
        },
        {
          "name": "A1",
          "midi": 33,
          "time": 92.90454545454584,
          "velocity": 0.7165354330708661,
          "duration": 1.1840909090909122
        },
        {
          "name": "F#3",
          "midi": 54,
          "time": 93.26363636363675,
          "velocity": 0.4251968503937008,
          "duration": 0.10454545454545894
        },
        {
          "name": "C1",
          "midi": 24,
          "time": 94.07727272727311,
          "velocity": 0.5118110236220472,
          "duration": 1.940909090909102
        },
        {
          "name": "F#3",
          "midi": 54,
          "time": 94.14772727272766,
          "velocity": 0.4094488188976378,
          "duration": 0.08181818181817846
        },
        {
          "name": "G3",
          "midi": 55,
          "time": 94.28636363636403,
          "velocity": 0.33070866141732286,
          "duration": 0.1522727272727309
        },
        {
          "name": "F#3",
          "midi": 54,
          "time": 94.48409090909131,
          "velocity": 0.3779527559055118,
          "duration": 0.0931818181818187
        },
        {
          "name": "A3",
          "midi": 57,
          "time": 95.6590909090913,
          "velocity": 0.4015748031496063,
          "duration": 0.06818181818181301
        },
        {
          "name": "A3",
          "midi": 57,
          "time": 95.87954545454585,
          "velocity": 0.3543307086614173,
          "duration": 0.06818181818181301
        },
        {
          "name": "F#3",
          "midi": 54,
          "time": 96.11136363636403,
          "velocity": 0.4566929133858268,
          "duration": 0.10454545454544473
        },
        {
          "name": "E1",
          "midi": 28,
          "time": 96.1340909090913,
          "velocity": 0.6614173228346457,
          "duration": 0.6499999999999915
        },
        {
          "name": "E1",
          "midi": 28,
          "time": 96.78409090909129,
          "velocity": 0.6929133858267716,
          "duration": 0.6295454545454504
        },
        {
          "name": "G1",
          "midi": 31,
          "time": 97.36590909090947,
          "velocity": 0.7165354330708661,
          "duration": 2.138636363636337
        },
        {
          "name": "F#3",
          "midi": 54,
          "time": 97.40000000000038,
          "velocity": 0.41732283464566927,
          "duration": 0.0931818181818187
        },
        {
          "name": "F#3",
          "midi": 54,
          "time": 97.67954545454583,
          "velocity": 0.3464566929133858,
          "duration": 0.26818181818181586
        },
        {
          "name": "F#3",
          "midi": 54,
          "time": 98.236363636364,
          "velocity": 0.33858267716535434,
          "duration": 0.08181818181817846
        },
        {
          "name": "D3",
          "midi": 50,
          "time": 98.43409090909127,
          "velocity": 0.2992125984251969,
          "duration": 0.08181818181817846
        },
        {
          "name": "F#3",
          "midi": 54,
          "time": 98.6204545454549,
          "velocity": 0.47244094488188976,
          "duration": 0.1863636363636374
        },
        {
          "name": "G3",
          "midi": 55,
          "time": 99.34090909090945,
          "velocity": 0.3464566929133858,
          "duration": 0.0931818181818187
        },
        {
          "name": "F#3",
          "midi": 54,
          "time": 99.46818181818217,
          "velocity": 0.4094488188976378,
          "duration": 0.1272727272727252
        },
        {
          "name": "A1",
          "midi": 33,
          "time": 99.5045454545458,
          "velocity": 0.7007874015748031,
          "duration": 0.07954545454545325
        },
        {
          "name": "A2",
          "midi": 45,
          "time": 99.5045454545458,
          "velocity": 0.4094488188976378,
          "duration": 0.10454545454545894
        },
        {
          "name": "A1",
          "midi": 33,
          "time": 99.58409090909126,
          "velocity": 0.7244094488188977,
          "duration": 1.2659090909090907
        },
        {
          "name": "F#3",
          "midi": 54,
          "time": 100.31590909090944,
          "velocity": 0.4330708661417323,
          "duration": 0.13863636363636545
        },
        {
          "name": "A2",
          "midi": 45,
          "time": 100.32727272727308,
          "velocity": 0.3543307086614173,
          "duration": 0.36136363636363455
        },
        {
          "name": "C1",
          "midi": 24,
          "time": 100.78181818181854,
          "velocity": 0.4881889763779528,
          "duration": 1.9863636363636346
        },
        {
          "name": "F#3",
          "midi": 54,
          "time": 101.15227272727307,
          "velocity": 0.4409448818897638,
          "duration": 0.10454545454545894
        },
        {
          "name": "F#3",
          "midi": 54,
          "time": 102.66363636363671,
          "velocity": 0.44881889763779526,
          "duration": 0.22045454545455812
        },
        {
          "name": "E1",
          "midi": 28,
          "time": 102.77954545454581,
          "velocity": 0.4409448818897638,
          "duration": 0.07954545454545325
        },
        {
          "name": "E1",
          "midi": 28,
          "time": 102.85909090909126,
          "velocity": 0.6771653543307087,
          "duration": 0.5136363636363654
        },
        {
          "name": "E2",
          "midi": 40,
          "time": 102.85909090909126,
          "velocity": 0.2755905511811024,
          "duration": 0.19772727272727764
        },
        {
          "name": "E1",
          "midi": 28,
          "time": 103.37272727272763,
          "velocity": 0.6141732283464567,
          "duration": 0.1272727272727252
        },
        {
          "name": "E4",
          "midi": 64,
          "time": 103.37272727272763,
          "velocity": 0.36220472440944884,
          "duration": 0.0931818181818187
        },
        {
          "name": "E1",
          "midi": 28,
          "time": 103.50000000000036,
          "velocity": 0.6535433070866141,
          "duration": 0.62727272727291
        },
        {
          "name": "G1",
          "midi": 31,
          "time": 104.12727272727327,
          "velocity": 0.7086614173228346,
          "duration": 2.0909090909090935
        },
        {
          "name": "F#3",
          "midi": 54,
          "time": 104.50909090909144,
          "velocity": 0.4330708661417323,
          "duration": 0.1522727272727309
        },
        {
          "name": "E3",
          "midi": 52,
          "time": 105.079545454546,
          "velocity": 0.4094488188976378,
          "duration": 0.13863636363636545
        },
        {
          "name": "D3",
          "midi": 50,
          "time": 105.24090909090962,
          "velocity": 0.33070866141732286,
          "duration": 0.05909090909091219
        },
        {
          "name": "A2",
          "midi": 45,
          "time": 106.13636363636418,
          "velocity": 0.3543307086614173,
          "duration": 0.2568181818181756
        },
        {
          "name": "A1",
          "midi": 33,
          "time": 106.19545454545509,
          "velocity": 0.6929133858267716,
          "duration": 1.3249999999999886
        },
        {
          "name": "G3",
          "midi": 55,
          "time": 106.52045454545508,
          "velocity": 0.29133858267716534,
          "duration": 0.06818181818181301
        },
        {
          "name": "E3",
          "midi": 52,
          "time": 107.15909090909145,
          "velocity": 0.2755905511811024,
          "duration": 0.07954545454545325
        },
        {
          "name": "D3",
          "midi": 50,
          "time": 107.31136363636418,
          "velocity": 0.3858267716535433,
          "duration": 0.07954545454545325
        },
        {
          "name": "C1",
          "midi": 24,
          "time": 107.52045454545508,
          "velocity": 0.5511811023622047,
          "duration": 1.9863636363636346
        },
        {
          "name": "E3",
          "midi": 52,
          "time": 108.83181818181872,
          "velocity": 0.3700787401574803,
          "duration": 0.0931818181818187
        },
        {
          "name": "C2",
          "midi": 36,
          "time": 109.09772727272781,
          "velocity": 0.36220472440944884,
          "duration": 0.0931818181818187
        },
        {
          "name": "E3",
          "midi": 52,
          "time": 109.09772727272781,
          "velocity": 0.4409448818897638,
          "duration": 0.14090909090909065
        },
        {
          "name": "E1",
          "midi": 28,
          "time": 109.49545454545508,
          "velocity": 0.3937007874015748,
          "duration": 0.0931818181818187
        },
        {
          "name": "B2",
          "midi": 47,
          "time": 109.57500000000053,
          "velocity": 0.3779527559055118,
          "duration": 0.14090909090910486
        },
        {
          "name": "E1",
          "midi": 28,
          "time": 109.5886363636369,
          "velocity": 0.6929133858267716,
          "duration": 0.10227272727273373
        },
        {
          "name": "E2",
          "midi": 40,
          "time": 109.5886363636369,
          "velocity": 0.3779527559055118,
          "duration": 0.545454545454561
        },
        {
          "name": "E1",
          "midi": 28,
          "time": 109.69090909090963,
          "velocity": 0.6929133858267716,
          "duration": 0.547727272727272
        },
        {
          "name": "F#3",
          "midi": 54,
          "time": 110.20227272727327,
          "velocity": 0.3779527559055118,
          "duration": 0.16363636363635692
        },
        {
          "name": "E1",
          "midi": 28,
          "time": 110.2386363636369,
          "velocity": 0.6535433070866141,
          "duration": 0.6727272727272862
        },
        {
          "name": "F#3",
          "midi": 54,
          "time": 110.36590909090962,
          "velocity": 0.49606299212598426,
          "duration": 0.11590909090908497
        },
        {
          "name": "E2",
          "midi": 40,
          "time": 110.55227272727326,
          "velocity": 0.36220472440944884,
          "duration": 0.23181818181818414
        },
        {
          "name": "G3",
          "midi": 55,
          "time": 110.5636363636369,
          "velocity": 0.49606299212598426,
          "duration": 0.2772727272727309
        },
        {
          "name": "G1",
          "midi": 31,
          "time": 110.73636363636417,
          "velocity": 0.3779527559055118,
          "duration": 0.10454545454545894
        },
        {
          "name": "G1",
          "midi": 31,
          "time": 110.84090909090963,
          "velocity": 0.7086614173228346,
          "duration": 2.1159090909091134
        },
        {
          "name": "F#3",
          "midi": 54,
          "time": 110.85227272727327,
          "velocity": 0.3937007874015748,
          "duration": 0.3500000000000085
        },
        {
          "name": "D3",
          "midi": 50,
          "time": 111.004545454546,
          "velocity": 0.31496062992125984,
          "duration": 0.1272727272727252
        },
        {
          "name": "F#3",
          "midi": 54,
          "time": 111.21363636363692,
          "velocity": 0.48031496062992124,
          "duration": 0.11590909090908497
        },
        {
          "name": "F#3",
          "midi": 54,
          "time": 112.06136363636419,
          "velocity": 0.5275590551181102,
          "duration": 0.16363636363635692
        },
        {
          "name": "G3",
          "midi": 55,
          "time": 112.22500000000055,
          "velocity": 0.5039370078740157,
          "duration": 0.35909090909090935
        },
        {
          "name": "G2",
          "midi": 43,
          "time": 112.25909090909146,
          "velocity": 0.33070866141732286,
          "duration": 0.08181818181817846
        },
        {
          "name": "F#3",
          "midi": 54,
          "time": 112.629545454546,
          "velocity": 0.33070866141732286,
          "duration": 0.26818181818183007
        },
        {
          "name": "C#5",
          "midi": 73,
          "time": 112.629545454546,
          "velocity": 0.31496062992125984,
          "duration": 0.11818181818182438
        },
        {
          "name": "F#3",
          "midi": 54,
          "time": 112.89772727272783,
          "velocity": 0.49606299212598426,
          "duration": 0.16136363636364592
        },
        {
          "name": "A1",
          "midi": 33,
          "time": 112.94318181818238,
          "velocity": 0.6850393700787402,
          "duration": 0.11590909090909918
        },
        {
          "name": "A2",
          "midi": 45,
          "time": 112.95681818181875,
          "velocity": 0.4330708661417323,
          "duration": 0.13863636363636545
        },
        {
          "name": "A1",
          "midi": 33,
          "time": 113.05909090909148,
          "velocity": 0.7716535433070866,
          "duration": 0.943181818181813
        },
        {
          "name": "E3",
          "midi": 52,
          "time": 113.10681818181875,
          "velocity": 0.30708661417322836,
          "duration": 0.3386363636363683
        },
        {
          "name": "G3",
          "midi": 55,
          "time": 113.73409090909148,
          "velocity": 0.4409448818897638,
          "duration": 0.0931818181818187
        },
        {
          "name": "F#3",
          "midi": 54,
          "time": 113.85000000000056,
          "velocity": 0.49606299212598426,
          "duration": 0.2454545454545496
        },
        {
          "name": "A2",
          "midi": 45,
          "time": 113.87500000000057,
          "velocity": 0.30708661417322836,
          "duration": 0.1613636363636317
        },
        {
          "name": "A1",
          "midi": 33,
          "time": 114.0022727272733,
          "velocity": 0.7322834645669292,
          "duration": 2.3113636363636374
        },
        {
          "name": "A3",
          "midi": 57,
          "time": 114.16363636363693,
          "velocity": 0.36220472440944884,
          "duration": 0.07045454545455243
        },
        {
          "name": "G3",
          "midi": 55,
          "time": 114.37272727272784,
          "velocity": 0.5039370078740157,
          "duration": 0.11590909090908497
        },
        {
          "name": "F#3",
          "midi": 54,
          "time": 114.83863636363692,
          "velocity": 0.41732283464566927,
          "duration": 0.06818181818181301
        },
        {
          "name": "E3",
          "midi": 52,
          "time": 114.91818181818238,
          "velocity": 0.36220472440944884,
          "duration": 0.20909090909090366
        },
        {
          "name": "F#3",
          "midi": 54,
          "time": 115.37272727272783,
          "velocity": 0.44881889763779526,
          "duration": 0.08181818181817846
        },
        {
          "name": "G3",
          "midi": 55,
          "time": 116.0454545454551,
          "velocity": 0.5433070866141733,
          "duration": 0.1295454545454504
        },
        {
          "name": "E1",
          "midi": 28,
          "time": 116.2204545454551,
          "velocity": 0.4094488188976378,
          "duration": 0.08181818181819267
        },
        {
          "name": "A2",
          "midi": 45,
          "time": 116.2204545454551,
          "velocity": 0.3228346456692913,
          "duration": 0.09318181818183291
        },
        {
          "name": "A3",
          "midi": 57,
          "time": 116.23181818181874,
          "velocity": 0.4330708661417323,
          "duration": 0.07045454545455243
        },
        {
          "name": "E1",
          "midi": 28,
          "time": 116.31363636363693,
          "velocity": 0.6692913385826772,
          "duration": 0.07045454545455243
        },
        {
          "name": "E1",
          "midi": 28,
          "time": 116.38409090909148,
          "velocity": 0.6929133858267716,
          "duration": 0.5795454545454675
        },
        {
          "name": "E2",
          "midi": 40,
          "time": 116.42954545454603,
          "velocity": 0.3228346456692913,
          "duration": 0.07045454545455243
        },
        {
          "name": "F#3",
          "midi": 54,
          "time": 116.51136363636422,
          "velocity": 0.4094488188976378,
          "duration": 0.06818181818181301
        },
        {
          "name": "F#3",
          "midi": 54,
          "time": 116.66136363636421,
          "velocity": 0.36220472440944884,
          "duration": 0.10454545454545894
        },
        {
          "name": "E1",
          "midi": 28,
          "time": 116.96363636363695,
          "velocity": 0.6456692913385826,
          "duration": 0.5931818181818187
        },
        {
          "name": "B2",
          "midi": 47,
          "time": 116.96363636363695,
          "velocity": 0.3543307086614173,
          "duration": 0.08181818181817846
        },
        {
          "name": "E2",
          "midi": 40,
          "time": 117.07954545454604,
          "velocity": 0.28346456692913385,
          "duration": 0.10454545454545894
        },
        {
          "name": "G1",
          "midi": 31,
          "time": 117.47500000000059,
          "velocity": 0.31496062992125984,
          "duration": 0.07045454545453822
        },
        {
          "name": "B3",
          "midi": 59,
          "time": 117.52272727272786,
          "velocity": 0.4015748031496063,
          "duration": 0.06818181818181301
        },
        {
          "name": "G1",
          "midi": 31,
          "time": 117.54545454545513,
          "velocity": 0.7322834645669292,
          "duration": 1.6477272727272663
        },
        {
          "name": "G2",
          "midi": 43,
          "time": 117.7090909090915,
          "velocity": 0.30708661417322836,
          "duration": 0.06818181818181301
        },
        {
          "name": "G3",
          "midi": 55,
          "time": 117.7090909090915,
          "velocity": 0.47244094488188976,
          "duration": 0.14999999999999147
        },
        {
          "name": "A3",
          "midi": 57,
          "time": 117.8931818181824,
          "velocity": 0.4251968503937008,
          "duration": 0.07045454545455243
        },
        {
          "name": "F#3",
          "midi": 54,
          "time": 118.17272727272785,
          "velocity": 0.3937007874015748,
          "duration": 0.07045454545455243
        },
        {
          "name": "F#3",
          "midi": 54,
          "time": 118.40454545454604,
          "velocity": 0.41732283464566927,
          "duration": 0.11590909090908497
        },
        {
          "name": "F#3",
          "midi": 54,
          "time": 118.98409090909149,
          "velocity": 0.4330708661417323,
          "duration": 0.1295454545454504
        }
      ],
      "controlChanges": {},
      "id": 1,
      "instrumentNumber": 4,
      "instrument": "electric piano 1",
      "instrumentFamily": "piano",
      "channelNumber": 0,
      "isPercussion": false
    }
  ]
}
