{
  "header": {
    "PPQ": 43,
    "bpm": 120,
    "name": ""
  },
  "tempo": [
    {
      "absoluteTime": 0,
      "seconds": 0,
      "bpm": 120
    }
  ],
  "timeSignature": [],
  "startTime": 0,
  "duration": 107.37209302324356,
  "tracks": [
    {
      "startTime": 0,
      "duration": 107.37209302324356,
      "length": 10508,
      "notes": [
        {
          "name": "G5",
          "midi": 79,
          "time": 0,
          "velocity": 0.18110236220472442,
          "duration": 0.03488372093023256
        },
        {
          "name": "B5",
          "midi": 83,
          "time": 0,
          "velocity": 0.2440944881889764,
          "duration": 0.03488372093023256
        },
        {
          "name": "E4",
          "midi": 64,
          "time": 0.011627906976744186,
          "velocity": 0.2992125984251969,
          "duration": 0.023255813953488372
        },
        {
          "name": "A5",
          "midi": 81,
          "time": 0.011627906976744186,
          "velocity": 0.28346456692913385,
          "duration": 0.05813953488372093
        },
        {
          "name": "A#5",
          "midi": 82,
          "time": 0.011627906976744186,
          "velocity": 0.2992125984251969,
          "duration": 0.05813953488372093
        },
        {
          "name": "G#3",
          "midi": 56,
          "time": 0.023255813953488372,
          "velocity": 0.18110236220472442,
          "duration": 0.0930232558139535
        },
        {
          "name": "C#4",
          "midi": 61,
          "time": 0.023255813953488372,
          "velocity": 0.25984251968503935,
          "duration": 0.023255813953488372
        },
        {
          "name": "D5",
          "midi": 74,
          "time": 0.023255813953488372,
          "velocity": 0.3228346456692913,
          "duration": 0.0930232558139535
        },
        {
          "name": "G#2",
          "midi": 44,
          "time": 0.03488372093023256,
          "velocity": 0.3228346456692913,
          "duration": 0.03488372093023256
        },
        {
          "name": "C6",
          "midi": 84,
          "time": 0.03488372093023256,
          "velocity": 0.30708661417322836,
          "duration": 0.04651162790697675
        },
        {
          "name": "D4",
          "midi": 62,
          "time": 0.046511627906976744,
          "velocity": 0.4015748031496063,
          "duration": 0.06976744186046513
        },
        {
          "name": "G#2",
          "midi": 44,
          "time": 0.08139534883720931,
          "velocity": 0.28346456692913385,
          "duration": 0.05813953488372092
        },
        {
          "name": "B5",
          "midi": 83,
          "time": 0.08139534883720931,
          "velocity": 0.2440944881889764,
          "duration": 0.023255813953488372
        },
        {
          "name": "A#5",
          "midi": 82,
          "time": 0.10465116279069768,
          "velocity": 0.3228346456692913,
          "duration": 0.34883720930232576
        },
        {
          "name": "D4",
          "midi": 62,
          "time": 0.12790697674418605,
          "velocity": 0.07874015748031496,
          "duration": 0.034883720930232565
        },
        {
          "name": "D4",
          "midi": 62,
          "time": 0.18604651162790697,
          "velocity": 0.30708661417322836,
          "duration": 0.06976744186046513
        },
        {
          "name": "G2",
          "midi": 43,
          "time": 0.23255813953488372,
          "velocity": 0.25196850393700787,
          "duration": 0.03488372093023259
        },
        {
          "name": "G#3",
          "midi": 56,
          "time": 0.23255813953488372,
          "velocity": 0.31496062992125984,
          "duration": 0.06976744186046521
        },
        {
          "name": "G5",
          "midi": 79,
          "time": 0.23255813953488372,
          "velocity": 0.10236220472440945,
          "duration": 0.0465116279069768
        },
        {
          "name": "D6",
          "midi": 86,
          "time": 0.23255813953488372,
          "velocity": 0.14173228346456693,
          "duration": 0.03488372093023259
        },
        {
          "name": "F5",
          "midi": 77,
          "time": 0.2441860465116279,
          "velocity": 0.2440944881889764,
          "duration": 0.06976744186046524
        },
        {
          "name": "D#4",
          "midi": 63,
          "time": 0.2558139534883721,
          "velocity": 0.3464566929133858,
          "duration": 0.03488372093023262
        },
        {
          "name": "A#4",
          "midi": 70,
          "time": 0.2558139534883721,
          "velocity": 0.2677165354330709,
          "duration": 0.0930232558139536
        },
        {
          "name": "G#2",
          "midi": 44,
          "time": 0.2906976744186047,
          "velocity": 0.2755905511811024,
          "duration": 0.11627906976744196
        },
        {
          "name": "D4",
          "midi": 62,
          "time": 0.2906976744186047,
          "velocity": 0.25984251968503935,
          "duration": 0.023255813953488413
        },
        {
          "name": "D5",
          "midi": 74,
          "time": 0.3604651162790699,
          "velocity": 0.2047244094488189,
          "duration": 0.09302325581395354
        },
        {
          "name": "C6",
          "midi": 84,
          "time": 0.3604651162790699,
          "velocity": 0.2047244094488189,
          "duration": 0.05813953488372098
        },
        {
          "name": "D#4",
          "midi": 63,
          "time": 0.3953488372093025,
          "velocity": 0.33858267716535434,
          "duration": 0.06976744186046518
        },
        {
          "name": "G#2",
          "midi": 44,
          "time": 0.4186046511627909,
          "velocity": 0.33070866141732286,
          "duration": 0.5348837209302327
        },
        {
          "name": "A3",
          "midi": 57,
          "time": 0.45348837209302345,
          "velocity": 0.3543307086614173,
          "duration": 0.023255813953488413
        },
        {
          "name": "G#4",
          "midi": 68,
          "time": 0.45348837209302345,
          "velocity": 0.25196850393700787,
          "duration": 0.1046511627906977
        },
        {
          "name": "B5",
          "midi": 83,
          "time": 0.45348837209302345,
          "velocity": 0.13385826771653545,
          "duration": 0.03488372093023262
        },
        {
          "name": "D4",
          "midi": 62,
          "time": 0.46511627906976766,
          "velocity": 0.3464566929133858,
          "duration": 0.08139534883720928
        },
        {
          "name": "E5",
          "midi": 76,
          "time": 0.46511627906976766,
          "velocity": 0.2755905511811024,
          "duration": 0.034883720930232565
        },
        {
          "name": "A#5",
          "midi": 82,
          "time": 0.46511627906976766,
          "velocity": 0.2755905511811024,
          "duration": 0.2674418604651165
        },
        {
          "name": "G#3",
          "midi": 56,
          "time": 0.47674418604651186,
          "velocity": 0.41732283464566927,
          "duration": 0.43023255813953504
        },
        {
          "name": "D#5",
          "midi": 75,
          "time": 0.5000000000000002,
          "velocity": 0.3858267716535433,
          "duration": 0.18604651162790709
        },
        {
          "name": "D#4",
          "midi": 63,
          "time": 0.5465116279069769,
          "velocity": 0.28346456692913385,
          "duration": 0.03488372093023262
        },
        {
          "name": "D#4",
          "midi": 63,
          "time": 0.5930232558139538,
          "velocity": 0.25196850393700787,
          "duration": 0.023255813953488413
        },
        {
          "name": "F5",
          "midi": 77,
          "time": 0.604651162790698,
          "velocity": 0.10236220472440945,
          "duration": 0.03488372093023262
        },
        {
          "name": "D4",
          "midi": 62,
          "time": 0.6162790697674422,
          "velocity": 0.2283464566929134,
          "duration": 0.05813953488372092
        },
        {
          "name": "A#4",
          "midi": 70,
          "time": 0.6279069767441864,
          "velocity": 0.13385826771653545,
          "duration": 0.046511627906976716
        },
        {
          "name": "F5",
          "midi": 77,
          "time": 0.6860465116279073,
          "velocity": 0.2677165354330709,
          "duration": 0.6976744186046515
        },
        {
          "name": "C6",
          "midi": 84,
          "time": 0.6860465116279073,
          "velocity": 0.2283464566929134,
          "duration": 0.058139534883721034
        },
        {
          "name": "D#5",
          "midi": 75,
          "time": 0.6976744186046515,
          "velocity": 0.31496062992125984,
          "duration": 0.08139534883720934
        },
        {
          "name": "D#4",
          "midi": 63,
          "time": 0.7093023255813957,
          "velocity": 0.3464566929133858,
          "duration": 0.3023255813953487
        },
        {
          "name": "A#5",
          "midi": 82,
          "time": 0.8023255813953493,
          "velocity": 0.13385826771653545,
          "duration": 0.18604651162790686
        },
        {
          "name": "G#3",
          "midi": 56,
          "time": 0.9186046511627911,
          "velocity": 0.4251968503937008,
          "duration": 0.9651162790697682
        },
        {
          "name": "G2",
          "midi": 43,
          "time": 0.9534883720930236,
          "velocity": 0.31496062992125984,
          "duration": 0.046511627906976605
        },
        {
          "name": "G#2",
          "midi": 44,
          "time": 1.0000000000000002,
          "velocity": 0.23622047244094488,
          "duration": 0.023255813953488413
        },
        {
          "name": "A#5",
          "midi": 82,
          "time": 1.0232558139534886,
          "velocity": 0.16535433070866143,
          "duration": 0.03488372093023262
        },
        {
          "name": "D#4",
          "midi": 63,
          "time": 1.0348837209302328,
          "velocity": 0.2125984251968504,
          "duration": 0.08139534883720945
        },
        {
          "name": "G#2",
          "midi": 44,
          "time": 1.046511627906977,
          "velocity": 0.2125984251968504,
          "duration": 0.24418604651162812
        },
        {
          "name": "A#5",
          "midi": 82,
          "time": 1.0930232558139539,
          "velocity": 0.10236220472440945,
          "duration": 0.03488372093023262
        },
        {
          "name": "D#4",
          "midi": 63,
          "time": 1.1279069767441865,
          "velocity": 0.2755905511811024,
          "duration": 0.2209302325581397
        },
        {
          "name": "G2",
          "midi": 43,
          "time": 1.2906976744186052,
          "velocity": 0.1968503937007874,
          "duration": 0.04651162790697683
        },
        {
          "name": "G5",
          "midi": 79,
          "time": 1.3604651162790704,
          "velocity": 0.3543307086614173,
          "duration": 0.3604651162790702
        },
        {
          "name": "C6",
          "midi": 84,
          "time": 1.3604651162790704,
          "velocity": 0.14960629921259844,
          "duration": 0.03488372093023262
        },
        {
          "name": "D6",
          "midi": 86,
          "time": 1.3604651162790704,
          "velocity": 0.1889763779527559,
          "duration": 0.04651162790697683
        },
        {
          "name": "D#4",
          "midi": 63,
          "time": 1.3837209302325588,
          "velocity": 0.11023622047244094,
          "duration": 0.04651162790697683
        },
        {
          "name": "G4",
          "midi": 67,
          "time": 1.3837209302325588,
          "velocity": 0.3700787401574803,
          "duration": 0.09302325581395365
        },
        {
          "name": "C3",
          "midi": 48,
          "time": 1.4069767441860472,
          "velocity": 0.13385826771653545,
          "duration": 0.03488372093023262
        },
        {
          "name": "D5",
          "midi": 74,
          "time": 1.4069767441860472,
          "velocity": 0.11023622047244094,
          "duration": 0.03488372093023262
        },
        {
          "name": "F5",
          "midi": 77,
          "time": 1.4302325581395356,
          "velocity": 0.14173228346456693,
          "duration": 0.26744186046511653
        },
        {
          "name": "D#4",
          "midi": 63,
          "time": 1.453488372093024,
          "velocity": 0.1732283464566929,
          "duration": 0.1976744186046513
        },
        {
          "name": "C3",
          "midi": 48,
          "time": 1.5930232558139543,
          "velocity": 0.1889763779527559,
          "duration": 0.058139534883721034
        },
        {
          "name": "A5",
          "midi": 81,
          "time": 1.5930232558139543,
          "velocity": 0.13385826771653545,
          "duration": 0.03488372093023262
        },
        {
          "name": "B5",
          "midi": 83,
          "time": 1.6395348837209311,
          "velocity": 0.16535433070866143,
          "duration": 0.04651162790697683
        },
        {
          "name": "G4",
          "midi": 67,
          "time": 1.7209302325581406,
          "velocity": 0.2440944881889764,
          "duration": 0.06976744186046502
        },
        {
          "name": "F5",
          "midi": 77,
          "time": 1.7906976744186056,
          "velocity": 0.3937007874015748,
          "duration": 0.27906976744186096
        },
        {
          "name": "G5",
          "midi": 79,
          "time": 1.7906976744186056,
          "velocity": 0.2125984251968504,
          "duration": 0.04651162790697683
        },
        {
          "name": "D6",
          "midi": 86,
          "time": 1.8023255813953498,
          "velocity": 0.13385826771653545,
          "duration": 0.03488372093023262
        },
        {
          "name": "D#6",
          "midi": 87,
          "time": 1.8023255813953498,
          "velocity": 0.13385826771653545,
          "duration": 0.03488372093023262
        },
        {
          "name": "E6",
          "midi": 88,
          "time": 1.8023255813953498,
          "velocity": 0.11811023622047244,
          "duration": 0.06976744186046524
        },
        {
          "name": "C#5",
          "midi": 73,
          "time": 1.813953488372094,
          "velocity": 0.08661417322834646,
          "duration": 0.04651162790697683
        },
        {
          "name": "G#5",
          "midi": 80,
          "time": 1.813953488372094,
          "velocity": 0.23622047244094488,
          "duration": 0.023255813953488413
        },
        {
          "name": "C#6",
          "midi": 85,
          "time": 1.813953488372094,
          "velocity": 0.2204724409448819,
          "duration": 0.06976744186046524
        },
        {
          "name": "C3",
          "midi": 48,
          "time": 1.8255813953488382,
          "velocity": 0.16535433070866143,
          "duration": 0.08139534883720945
        },
        {
          "name": "A5",
          "midi": 81,
          "time": 1.8255813953488382,
          "velocity": 0.23622047244094488,
          "duration": 0.03488372093023262
        },
        {
          "name": "A#5",
          "midi": 82,
          "time": 1.8372093023255824,
          "velocity": 0.25984251968503935,
          "duration": 0.03488372093023262
        },
        {
          "name": "D7",
          "midi": 98,
          "time": 1.8372093023255824,
          "velocity": 0.2755905511811024,
          "duration": 0.24418604651162834
        },
        {
          "name": "D#7",
          "midi": 99,
          "time": 1.8372093023255824,
          "velocity": 0.13385826771653545,
          "duration": 0.12790697674418627
        },
        {
          "name": "D6",
          "midi": 86,
          "time": 1.8488372093023266,
          "velocity": 0.2283464566929134,
          "duration": 0.25581395348837255
        },
        {
          "name": "B5",
          "midi": 83,
          "time": 1.8604651162790709,
          "velocity": 0.3779527559055118,
          "duration": 0.04651162790697683
        },
        {
          "name": "D#6",
          "midi": 87,
          "time": 1.8604651162790709,
          "velocity": 0.2283464566929134,
          "duration": 0.3488372093023262
        },
        {
          "name": "G3",
          "midi": 55,
          "time": 1.8837209302325593,
          "velocity": 0.4409448818897638,
          "duration": 0.023255813953488413
        },
        {
          "name": "D#4",
          "midi": 63,
          "time": 1.8837209302325593,
          "velocity": 0.11023622047244094,
          "duration": 0.03488372093023262
        },
        {
          "name": "G5",
          "midi": 79,
          "time": 1.8837209302325593,
          "velocity": 0.2755905511811024,
          "duration": 0.20930232558139572
        },
        {
          "name": "C5",
          "midi": 72,
          "time": 1.8953488372093035,
          "velocity": 0.3937007874015748,
          "duration": 0.1627906976744189
        },
        {
          "name": "E7",
          "midi": 100,
          "time": 1.8953488372093035,
          "velocity": 0.1889763779527559,
          "duration": 0.06976744186046524
        },
        {
          "name": "G#3",
          "midi": 56,
          "time": 1.9069767441860477,
          "velocity": 0.41732283464566927,
          "duration": 0.3488372093023262
        },
        {
          "name": "F#7",
          "midi": 102,
          "time": 1.9069767441860477,
          "velocity": 0.29133858267716534,
          "duration": 0.12790697674418627
        },
        {
          "name": "G7",
          "midi": 103,
          "time": 1.9069767441860477,
          "velocity": 0.1968503937007874,
          "duration": 0.03488372093023262
        },
        {
          "name": "C4",
          "midi": 60,
          "time": 1.9186046511627919,
          "velocity": 0.2125984251968504,
          "duration": 0.10465116279069786
        },
        {
          "name": "B5",
          "midi": 83,
          "time": 1.9186046511627919,
          "velocity": 0.18110236220472442,
          "duration": 0.03488372093023262
        },
        {
          "name": "E6",
          "midi": 88,
          "time": 1.976744186046513,
          "velocity": 0.14173228346456693,
          "duration": 0.03488372093023262
        },
        {
          "name": "G#6",
          "midi": 92,
          "time": 1.976744186046513,
          "velocity": 0.31496062992125984,
          "duration": 0.10465116279069786
        },
        {
          "name": "C7",
          "midi": 96,
          "time": 1.976744186046513,
          "velocity": 0.28346456692913385,
          "duration": 0.08139534883720945
        },
        {
          "name": "G7",
          "midi": 103,
          "time": 1.976744186046513,
          "velocity": 0.1968503937007874,
          "duration": 0.11627906976744207
        },
        {
          "name": "B5",
          "midi": 83,
          "time": 1.9883720930232571,
          "velocity": 0.14960629921259844,
          "duration": 0.06976744186046524
        },
        {
          "name": "E7",
          "midi": 100,
          "time": 1.9883720930232571,
          "velocity": 0.14960629921259844,
          "duration": 0.08139534883720945
        },
        {
          "name": "A5",
          "midi": 81,
          "time": 2.0000000000000013,
          "velocity": 0.16535433070866143,
          "duration": 0.09302325581395365
        },
        {
          "name": "C3",
          "midi": 48,
          "time": 2.0116279069767455,
          "velocity": 0.2047244094488189,
          "duration": 0.13953488372093048
        },
        {
          "name": "F#7",
          "midi": 102,
          "time": 2.046511627906978,
          "velocity": 0.11811023622047244,
          "duration": 0.03488372093023262
        },
        {
          "name": "G4",
          "midi": 67,
          "time": 2.0581395348837224,
          "velocity": 0.1732283464566929,
          "duration": 0.06976744186046524
        },
        {
          "name": "F#5",
          "midi": 78,
          "time": 2.0697674418604666,
          "velocity": 0.4094488188976378,
          "duration": 0.08139534883720945
        },
        {
          "name": "A#5",
          "midi": 82,
          "time": 2.081395348837211,
          "velocity": 0.14173228346456693,
          "duration": 0.06976744186046524
        },
        {
          "name": "G#6",
          "midi": 92,
          "time": 2.093023255813955,
          "velocity": 0.2047244094488189,
          "duration": 0.03488372093023262
        },
        {
          "name": "A6",
          "midi": 93,
          "time": 2.1162790697674434,
          "velocity": 0.14173228346456693,
          "duration": 0.04651162790697683
        },
        {
          "name": "C6",
          "midi": 84,
          "time": 2.1279069767441876,
          "velocity": 0.14960629921259844,
          "duration": 0.03488372093023262
        },
        {
          "name": "G5",
          "midi": 79,
          "time": 2.139534883720932,
          "velocity": 0.2755905511811024,
          "duration": 0.023255813953488413
        },
        {
          "name": "G#6",
          "midi": 92,
          "time": 2.139534883720932,
          "velocity": 0.11811023622047244,
          "duration": 0.04651162790697683
        },
        {
          "name": "E5",
          "midi": 76,
          "time": 2.151162790697676,
          "velocity": 0.2204724409448819,
          "duration": 0.06976744186046524
        },
        {
          "name": "B5",
          "midi": 83,
          "time": 2.1627906976744202,
          "velocity": 0.14960629921259844,
          "duration": 0.04651162790697683
        },
        {
          "name": "G5",
          "midi": 79,
          "time": 2.1744186046511644,
          "velocity": 0.3543307086614173,
          "duration": 0.12790697674418627
        },
        {
          "name": "C3",
          "midi": 48,
          "time": 2.1860465116279086,
          "velocity": 0.07874015748031496,
          "duration": 0.058139534883721034
        },
        {
          "name": "F6",
          "midi": 89,
          "time": 2.209302325581397,
          "velocity": 0.07874015748031496,
          "duration": 0.03488372093023262
        },
        {
          "name": "B5",
          "midi": 83,
          "time": 2.2441860465116297,
          "velocity": 0.2440944881889764,
          "duration": 0.09302325581395365
        },
        {
          "name": "D#6",
          "midi": 87,
          "time": 2.2441860465116297,
          "velocity": 0.13385826771653545,
          "duration": 0.23255813953488413
        },
        {
          "name": "G3",
          "midi": 55,
          "time": 2.255813953488374,
          "velocity": 0.3937007874015748,
          "duration": 0.03488372093023262
        },
        {
          "name": "B2",
          "midi": 47,
          "time": 2.267441860465118,
          "velocity": 0.25984251968503935,
          "duration": 0.058139534883721034
        },
        {
          "name": "G#3",
          "midi": 56,
          "time": 2.2906976744186065,
          "velocity": 0.2992125984251969,
          "duration": 0.3139534883720936
        },
        {
          "name": "F5",
          "midi": 77,
          "time": 2.2906976744186065,
          "velocity": 0.12598425196850394,
          "duration": 0.06976744186046524
        },
        {
          "name": "D#7",
          "midi": 99,
          "time": 2.325581395348839,
          "velocity": 0.14960629921259844,
          "duration": 0.04651162790697683
        },
        {
          "name": "E7",
          "midi": 100,
          "time": 2.325581395348839,
          "velocity": 0.13385826771653545,
          "duration": 0.058139534883721034
        },
        {
          "name": "A4",
          "midi": 69,
          "time": 2.3372093023255833,
          "velocity": 0.12598425196850394,
          "duration": 0.04651162790697683
        },
        {
          "name": "G5",
          "midi": 79,
          "time": 2.3488372093023275,
          "velocity": 0.11023622047244094,
          "duration": 0.04651162790697683
        },
        {
          "name": "C7",
          "midi": 96,
          "time": 2.3488372093023275,
          "velocity": 0.1732283464566929,
          "duration": 0.06976744186046524
        },
        {
          "name": "D7",
          "midi": 98,
          "time": 2.3488372093023275,
          "velocity": 0.14960629921259844,
          "duration": 0.04651162790697683
        },
        {
          "name": "C#5",
          "midi": 73,
          "time": 2.372093023255816,
          "velocity": 0.1889763779527559,
          "duration": 0.04651162790697683
        },
        {
          "name": "G#6",
          "midi": 92,
          "time": 2.372093023255816,
          "velocity": 0.1732283464566929,
          "duration": 0.04651162790697683
        },
        {
          "name": "A6",
          "midi": 93,
          "time": 2.4069767441860486,
          "velocity": 0.10236220472440945,
          "duration": 0.03488372093023262
        },
        {
          "name": "G4",
          "midi": 67,
          "time": 2.430232558139537,
          "velocity": 0.09448818897637795,
          "duration": 0.03488372093023262
        },
        {
          "name": "F#5",
          "midi": 78,
          "time": 2.430232558139537,
          "velocity": 0.2047244094488189,
          "duration": 0.058139534883721034
        },
        {
          "name": "A#5",
          "midi": 82,
          "time": 2.430232558139537,
          "velocity": 0.16535433070866143,
          "duration": 0.06976744186046524
        },
        {
          "name": "C#6",
          "midi": 85,
          "time": 2.4534883720930254,
          "velocity": 0.1889763779527559,
          "duration": 0.04651162790697683
        },
        {
          "name": "G4",
          "midi": 67,
          "time": 2.476744186046514,
          "velocity": 0.3700787401574803,
          "duration": 0.11627906976744207
        },
        {
          "name": "D6",
          "midi": 86,
          "time": 2.476744186046514,
          "velocity": 0.16535433070866143,
          "duration": 0.06976744186046524
        },
        {
          "name": "F5",
          "midi": 77,
          "time": 2.488372093023258,
          "velocity": 0.2283464566929134,
          "duration": 0.04651162790697683
        },
        {
          "name": "A#4",
          "midi": 70,
          "time": 2.500000000000002,
          "velocity": 0.12598425196850394,
          "duration": 0.03488372093023262
        },
        {
          "name": "A#5",
          "midi": 82,
          "time": 2.5232558139534906,
          "velocity": 0.25196850393700787,
          "duration": 0.03488372093023262
        },
        {
          "name": "F5",
          "midi": 77,
          "time": 2.546511627906979,
          "velocity": 0.08661417322834646,
          "duration": 0.04651162790697683
        },
        {
          "name": "B2",
          "midi": 47,
          "time": 2.6046511627907,
          "velocity": 0.13385826771653545,
          "duration": 0.058139534883721034
        },
        {
          "name": "G3",
          "midi": 55,
          "time": 2.6046511627907,
          "velocity": 0.28346456692913385,
          "duration": 0.023255813953488413
        },
        {
          "name": "G#3",
          "midi": 56,
          "time": 2.6279069767441885,
          "velocity": 0.2047244094488189,
          "duration": 0.29069767441860517
        },
        {
          "name": "G4",
          "midi": 67,
          "time": 2.6860465116279095,
          "velocity": 0.11023622047244094,
          "duration": 0.10465116279069786
        },
        {
          "name": "E5",
          "midi": 76,
          "time": 2.6860465116279095,
          "velocity": 0.1889763779527559,
          "duration": 0.04651162790697683
        },
        {
          "name": "A5",
          "midi": 81,
          "time": 2.6860465116279095,
          "velocity": 0.28346456692913385,
          "duration": 0.08139534883720945
        },
        {
          "name": "F#5",
          "midi": 78,
          "time": 2.6976744186046537,
          "velocity": 0.1968503937007874,
          "duration": 0.03488372093023262
        },
        {
          "name": "G5",
          "midi": 79,
          "time": 2.709302325581398,
          "velocity": 0.31496062992125984,
          "duration": 0.13953488372093048
        },
        {
          "name": "C#6",
          "midi": 85,
          "time": 2.709302325581398,
          "velocity": 0.14960629921259844,
          "duration": 0.04651162790697683
        },
        {
          "name": "F6",
          "midi": 89,
          "time": 2.709302325581398,
          "velocity": 0.13385826771653545,
          "duration": 0.058139534883721034
        },
        {
          "name": "A#4",
          "midi": 70,
          "time": 2.720930232558142,
          "velocity": 0.12598425196850394,
          "duration": 0.03488372093023262
        },
        {
          "name": "F5",
          "midi": 77,
          "time": 2.7325581395348864,
          "velocity": 0.2992125984251969,
          "duration": 0.04651162790697683
        },
        {
          "name": "B5",
          "midi": 83,
          "time": 2.7558139534883748,
          "velocity": 0.2992125984251969,
          "duration": 0.04651162790697683
        },
        {
          "name": "C6",
          "midi": 84,
          "time": 2.7906976744186074,
          "velocity": 0.18110236220472442,
          "duration": 0.058139534883721034
        },
        {
          "name": "E7",
          "midi": 100,
          "time": 2.8023255813953516,
          "velocity": 0.07874015748031496,
          "duration": 0.03488372093023262
        },
        {
          "name": "G4",
          "midi": 67,
          "time": 2.8488372093023284,
          "velocity": 0.2440944881889764,
          "duration": 0.06976744186046524
        },
        {
          "name": "C5",
          "midi": 72,
          "time": 2.8604651162790726,
          "velocity": 0.25984251968503935,
          "duration": 0.06976744186046524
        },
        {
          "name": "F5",
          "midi": 77,
          "time": 2.9069767441860495,
          "velocity": 0.2047244094488189,
          "duration": 0.06976744186046524
        },
        {
          "name": "D5",
          "midi": 74,
          "time": 2.930232558139538,
          "velocity": 0.3858267716535433,
          "duration": 0.10465116279069786
        },
        {
          "name": "G3",
          "midi": 55,
          "time": 2.941860465116282,
          "velocity": 0.25984251968503935,
          "duration": 0.023255813953488413
        },
        {
          "name": "G#3",
          "midi": 56,
          "time": 2.9651162790697705,
          "velocity": 0.14173228346456693,
          "duration": 0.1860465116279073
        },
        {
          "name": "F#5",
          "midi": 78,
          "time": 2.9767441860465147,
          "velocity": 0.1968503937007874,
          "duration": 0.04651162790697683
        },
        {
          "name": "G5",
          "midi": 79,
          "time": 3.0116279069767473,
          "velocity": 0.2992125984251969,
          "duration": 0.1744186046511631
        },
        {
          "name": "B5",
          "midi": 83,
          "time": 3.0348837209302357,
          "velocity": 0.08661417322834646,
          "duration": 0.03488372093023262
        },
        {
          "name": "B5",
          "midi": 83,
          "time": 3.1395348837209336,
          "velocity": 0.16535433070866143,
          "duration": 0.06976744186046524
        },
        {
          "name": "G4",
          "midi": 67,
          "time": 3.162790697674422,
          "velocity": 0.15748031496062992,
          "duration": 0.09302325581395365
        },
        {
          "name": "G#3",
          "midi": 56,
          "time": 3.220930232558143,
          "velocity": 0.11811023622047244,
          "duration": 0.03488372093023262
        },
        {
          "name": "G5",
          "midi": 79,
          "time": 3.2558139534883757,
          "velocity": 0.2125984251968504,
          "duration": 0.30232558139534893
        },
        {
          "name": "D6",
          "midi": 86,
          "time": 3.26744186046512,
          "velocity": 0.11811023622047244,
          "duration": 0.03488372093023262
        },
        {
          "name": "D5",
          "midi": 74,
          "time": 3.279069767441864,
          "velocity": 0.2755905511811024,
          "duration": 0.09302325581395365
        },
        {
          "name": "G#5",
          "midi": 80,
          "time": 3.279069767441864,
          "velocity": 0.1732283464566929,
          "duration": 0.03488372093023262
        },
        {
          "name": "A#1",
          "midi": 34,
          "time": 3.581395348837213,
          "velocity": 0.6220472440944882,
          "duration": 0.023255813953488413
        },
        {
          "name": "G#4",
          "midi": 68,
          "time": 3.593023255813957,
          "velocity": 0.2204724409448819,
          "duration": 0.03488372093023262
        },
        {
          "name": "C6",
          "midi": 84,
          "time": 3.593023255813957,
          "velocity": 0.2992125984251969,
          "duration": 0.08139534883720945
        },
        {
          "name": "G1",
          "midi": 31,
          "time": 3.6046511627907014,
          "velocity": 0.7637795275590551,
          "duration": 0.023255813953488413
        },
        {
          "name": "A#5",
          "midi": 82,
          "time": 3.6046511627907014,
          "velocity": 0.2677165354330709,
          "duration": 0.058139534883721034
        },
        {
          "name": "D6",
          "midi": 86,
          "time": 3.6046511627907014,
          "velocity": 0.08661417322834646,
          "duration": 0.06976744186046524
        },
        {
          "name": "D4",
          "midi": 62,
          "time": 3.6162790697674456,
          "velocity": 0.36220472440944884,
          "duration": 0.023255813953488413
        },
        {
          "name": "G#1",
          "midi": 32,
          "time": 3.62790697674419,
          "velocity": 0.7637795275590551,
          "duration": 0.6046511627906987
        },
        {
          "name": "A#4",
          "midi": 70,
          "time": 3.62790697674419,
          "velocity": 0.13385826771653545,
          "duration": 0.04651162790697683
        },
        {
          "name": "A5",
          "midi": 81,
          "time": 3.62790697674419,
          "velocity": 0.2047244094488189,
          "duration": 0.058139534883721034
        },
        {
          "name": "D#3",
          "midi": 51,
          "time": 3.639534883720934,
          "velocity": 0.2992125984251969,
          "duration": 0.19767441860465151
        },
        {
          "name": "G#4",
          "midi": 68,
          "time": 3.6511627906976782,
          "velocity": 0.1732283464566929,
          "duration": 0.06976744186046524
        },
        {
          "name": "G#3",
          "midi": 56,
          "time": 3.6627906976744224,
          "velocity": 0.14960629921259844,
          "duration": 0.03488372093023262
        },
        {
          "name": "D#4",
          "midi": 63,
          "time": 3.6627906976744224,
          "velocity": 0.4330708661417323,
          "duration": 0.03488372093023262
        },
        {
          "name": "G5",
          "midi": 79,
          "time": 3.6744186046511667,
          "velocity": 0.08661417322834646,
          "duration": 0.03488372093023262
        },
        {
          "name": "B5",
          "midi": 83,
          "time": 3.6744186046511667,
          "velocity": 0.2677165354330709,
          "duration": 0.023255813953488413
        },
        {
          "name": "C4",
          "midi": 60,
          "time": 3.697674418604655,
          "velocity": 0.2755905511811024,
          "duration": 0.10465116279069786
        },
        {
          "name": "E5",
          "midi": 76,
          "time": 3.697674418604655,
          "velocity": 0.12598425196850394,
          "duration": 0.08139534883720945
        },
        {
          "name": "A#5",
          "midi": 82,
          "time": 3.697674418604655,
          "velocity": 0.36220472440944884,
          "duration": 0.6860465116279082
        },
        {
          "name": "A#4",
          "midi": 70,
          "time": 3.7093023255813993,
          "velocity": 0.33858267716535434,
          "duration": 0.22093023255813993
        },
        {
          "name": "D5",
          "midi": 74,
          "time": 3.7093023255813993,
          "velocity": 0.16535433070866143,
          "duration": 0.04651162790697683
        },
        {
          "name": "F#4",
          "midi": 66,
          "time": 3.7209302325581435,
          "velocity": 0.15748031496062992,
          "duration": 0.08139534883720945
        },
        {
          "name": "D5",
          "midi": 74,
          "time": 3.7674418604651203,
          "velocity": 0.1968503937007874,
          "duration": 0.08139534883720945
        },
        {
          "name": "D4",
          "midi": 62,
          "time": 3.802325581395353,
          "velocity": 0.4015748031496063,
          "duration": 0.04651162790697683
        },
        {
          "name": "F5",
          "midi": 77,
          "time": 3.813953488372097,
          "velocity": 0.23622047244094488,
          "duration": 0.1511627906976747
        },
        {
          "name": "G#3",
          "midi": 56,
          "time": 3.8372093023255855,
          "velocity": 0.30708661417322836,
          "duration": 0.023255813953488413
        },
        {
          "name": "F#4",
          "midi": 66,
          "time": 3.8372093023255855,
          "velocity": 0.16535433070866143,
          "duration": 0.11627906976744207
        },
        {
          "name": "D#3",
          "midi": 51,
          "time": 3.8488372093023298,
          "velocity": 0.2992125984251969,
          "duration": 0.20930232558139572
        },
        {
          "name": "D#4",
          "midi": 63,
          "time": 3.860465116279074,
          "velocity": 0.3700787401574803,
          "duration": 0.023255813953488413
        },
        {
          "name": "D5",
          "midi": 74,
          "time": 3.860465116279074,
          "velocity": 0.2047244094488189,
          "duration": 0.06976744186046524
        },
        {
          "name": "B4",
          "midi": 71,
          "time": 3.918604651162795,
          "velocity": 0.25196850393700787,
          "duration": 0.03488372093023262
        },
        {
          "name": "D#5",
          "midi": 75,
          "time": 3.930232558139539,
          "velocity": 0.1968503937007874,
          "duration": 0.03488372093023262
        },
        {
          "name": "D#4",
          "midi": 63,
          "time": 3.9418604651162834,
          "velocity": 0.33070866141732286,
          "duration": 0.1627906976744189
        },
        {
          "name": "C6",
          "midi": 84,
          "time": 3.9418604651162834,
          "velocity": 0.14960629921259844,
          "duration": 0.09302325581395365
        },
        {
          "name": "D6",
          "midi": 86,
          "time": 3.9418604651162834,
          "velocity": 0.10236220472440945,
          "duration": 0.03488372093023262
        },
        {
          "name": "A#4",
          "midi": 70,
          "time": 3.9534883720930276,
          "velocity": 0.2125984251968504,
          "duration": 0.1744186046511631
        },
        {
          "name": "F#4",
          "midi": 66,
          "time": 3.965116279069772,
          "velocity": 0.1732283464566929,
          "duration": 0.04651162790697683
        },
        {
          "name": "D5",
          "midi": 74,
          "time": 3.965116279069772,
          "velocity": 0.25984251968503935,
          "duration": 0.06976744186046524
        },
        {
          "name": "F#4",
          "midi": 66,
          "time": 4.023255813953493,
          "velocity": 0.1968503937007874,
          "duration": 0.10465116279069786
        },
        {
          "name": "G5",
          "midi": 79,
          "time": 4.023255813953493,
          "velocity": 0.1732283464566929,
          "duration": 0.03488372093023262
        },
        {
          "name": "G#3",
          "midi": 56,
          "time": 4.046511627906981,
          "velocity": 0.3858267716535433,
          "duration": 0.11627906976744207
        },
        {
          "name": "E5",
          "midi": 76,
          "time": 4.046511627906981,
          "velocity": 0.2677165354330709,
          "duration": 0.03488372093023262
        },
        {
          "name": "G#5",
          "midi": 80,
          "time": 4.046511627906981,
          "velocity": 0.1732283464566929,
          "duration": 0.058139534883721034
        },
        {
          "name": "D#3",
          "midi": 51,
          "time": 4.06976744186047,
          "velocity": 0.2992125984251969,
          "duration": 0.1627906976744189
        },
        {
          "name": "D5",
          "midi": 74,
          "time": 4.06976744186047,
          "velocity": 0.2125984251968504,
          "duration": 0.03488372093023262
        },
        {
          "name": "A5",
          "midi": 81,
          "time": 4.081395348837214,
          "velocity": 0.14173228346456693,
          "duration": 0.06976744186046524
        },
        {
          "name": "D#4",
          "midi": 63,
          "time": 4.1162790697674465,
          "velocity": 0.33070866141732286,
          "duration": 0.06976744186046524
        },
        {
          "name": "F#4",
          "midi": 66,
          "time": 4.151162790697679,
          "velocity": 0.1732283464566929,
          "duration": 0.06976744186046524
        },
        {
          "name": "G#3",
          "midi": 56,
          "time": 4.1744186046511675,
          "velocity": 0.28346456692913385,
          "duration": 0.04651162790697683
        },
        {
          "name": "F5",
          "midi": 77,
          "time": 4.186046511627912,
          "velocity": 0.13385826771653545,
          "duration": 0.04651162790697683
        },
        {
          "name": "F#1",
          "midi": 30,
          "time": 4.232558139534889,
          "velocity": 0.6456692913385826,
          "duration": 0.011627906976744207
        },
        {
          "name": "A#4",
          "midi": 70,
          "time": 4.232558139534889,
          "velocity": 0.1968503937007874,
          "duration": 0.03488372093023262
        },
        {
          "name": "G#3",
          "midi": 56,
          "time": 4.255813953488377,
          "velocity": 0.41732283464566927,
          "duration": 0.12790697674418627
        },
        {
          "name": "F1",
          "midi": 29,
          "time": 4.267441860465121,
          "velocity": 0.6377952755905512,
          "duration": 0.011627906976744207
        },
        {
          "name": "C6",
          "midi": 84,
          "time": 4.267441860465121,
          "velocity": 0.2125984251968504,
          "duration": 0.06976744186046524
        },
        {
          "name": "G1",
          "midi": 31,
          "time": 4.279069767441865,
          "velocity": 0.7795275590551181,
          "duration": 0.6279069767441872
        },
        {
          "name": "F5",
          "midi": 77,
          "time": 4.279069767441865,
          "velocity": 0.31496062992125984,
          "duration": 0.7093023255813966
        },
        {
          "name": "D#4",
          "midi": 63,
          "time": 4.302325581395354,
          "velocity": 0.23622047244094488,
          "duration": 0.03488372093023262
        },
        {
          "name": "D#5",
          "midi": 75,
          "time": 4.348837209302331,
          "velocity": 0.2204724409448819,
          "duration": 0.058139534883721034
        },
        {
          "name": "D3",
          "midi": 50,
          "time": 4.372093023255819,
          "velocity": 0.29133858267716534,
          "duration": 0.13953488372093048
        },
        {
          "name": "F4",
          "midi": 65,
          "time": 4.372093023255819,
          "velocity": 0.14960629921259844,
          "duration": 0.03488372093023262
        },
        {
          "name": "G#3",
          "midi": 56,
          "time": 4.3953488372093075,
          "velocity": 0.3858267716535433,
          "duration": 0.44186046511627985
        },
        {
          "name": "A4",
          "midi": 69,
          "time": 4.3953488372093075,
          "velocity": 0.15748031496062992,
          "duration": 0.03488372093023262
        },
        {
          "name": "A#5",
          "midi": 82,
          "time": 4.3953488372093075,
          "velocity": 0.11811023622047244,
          "duration": 0.10465116279069786
        },
        {
          "name": "F4",
          "midi": 65,
          "time": 4.418604651162796,
          "velocity": 0.1889763779527559,
          "duration": 0.06976744186046524
        },
        {
          "name": "D#5",
          "midi": 75,
          "time": 4.418604651162796,
          "velocity": 0.29133858267716534,
          "duration": 0.1860465116279073
        },
        {
          "name": "A4",
          "midi": 69,
          "time": 4.441860465116284,
          "velocity": 0.1732283464566929,
          "duration": 0.058139534883721034
        },
        {
          "name": "B5",
          "midi": 83,
          "time": 4.488372093023261,
          "velocity": 0.10236220472440945,
          "duration": 0.04651162790697683
        },
        {
          "name": "D#4",
          "midi": 63,
          "time": 4.500000000000005,
          "velocity": 0.1732283464566929,
          "duration": 0.03488372093023262
        },
        {
          "name": "C#6",
          "midi": 85,
          "time": 4.5116279069767495,
          "velocity": 0.1889763779527559,
          "duration": 0.04651162790697683
        },
        {
          "name": "D6",
          "midi": 86,
          "time": 4.5116279069767495,
          "velocity": 0.14960629921259844,
          "duration": 0.03488372093023262
        },
        {
          "name": "D3",
          "midi": 50,
          "time": 4.523255813953494,
          "velocity": 0.2992125984251969,
          "duration": 0.3720930232558146
        },
        {
          "name": "C5",
          "midi": 72,
          "time": 4.534883720930238,
          "velocity": 0.07874015748031496,
          "duration": 0.03488372093023262
        },
        {
          "name": "A4",
          "midi": 69,
          "time": 4.546511627906982,
          "velocity": 0.2283464566929134,
          "duration": 0.03488372093023262
        },
        {
          "name": "A#5",
          "midi": 82,
          "time": 4.558139534883726,
          "velocity": 0.16535433070866143,
          "duration": 0.1511627906976747
        },
        {
          "name": "F4",
          "midi": 65,
          "time": 4.593023255813959,
          "velocity": 0.1732283464566929,
          "duration": 0.12790697674418627
        },
        {
          "name": "A4",
          "midi": 69,
          "time": 4.604651162790703,
          "velocity": 0.1732283464566929,
          "duration": 0.3023255813953494
        },
        {
          "name": "D#5",
          "midi": 75,
          "time": 4.627906976744192,
          "velocity": 0.1889763779527559,
          "duration": 0.04651162790697683
        },
        {
          "name": "D#5",
          "midi": 75,
          "time": 4.686046511627913,
          "velocity": 0.1968503937007874,
          "duration": 0.25581395348837255
        },
        {
          "name": "D#4",
          "midi": 63,
          "time": 4.767441860465122,
          "velocity": 0.1968503937007874,
          "duration": 0.03488372093023262
        },
        {
          "name": "A#5",
          "midi": 82,
          "time": 4.767441860465122,
          "velocity": 0.09448818897637795,
          "duration": 0.03488372093023262
        },
        {
          "name": "F4",
          "midi": 65,
          "time": 4.7906976744186105,
          "velocity": 0.1732283464566929,
          "duration": 0.04651162790697683
        },
        {
          "name": "G#3",
          "midi": 56,
          "time": 4.8488372093023315,
          "velocity": 0.41732283464566927,
          "duration": 0.22093023255813993
        },
        {
          "name": "D#4",
          "midi": 63,
          "time": 4.8488372093023315,
          "velocity": 0.2047244094488189,
          "duration": 0.03488372093023262
        },
        {
          "name": "D#4",
          "midi": 63,
          "time": 4.895348837209308,
          "velocity": 0.15748031496062992,
          "duration": 0.04651162790697683
        },
        {
          "name": "F#1",
          "midi": 30,
          "time": 4.906976744186053,
          "velocity": 0.6220472440944882,
          "duration": 0.011627906976744207
        },
        {
          "name": "C1",
          "midi": 24,
          "time": 4.918604651162797,
          "velocity": 0.44881889763779526,
          "duration": 0.023255813953488413
        },
        {
          "name": "E1",
          "midi": 28,
          "time": 4.941860465116285,
          "velocity": 0.5905511811023622,
          "duration": 0.011627906976744207
        },
        {
          "name": "C5",
          "midi": 72,
          "time": 4.941860465116285,
          "velocity": 0.14173228346456693,
          "duration": 0.03488372093023262
        },
        {
          "name": "G5",
          "midi": 79,
          "time": 4.941860465116285,
          "velocity": 0.3700787401574803,
          "duration": 0.45348837209302406
        },
        {
          "name": "A#5",
          "midi": 82,
          "time": 4.941860465116285,
          "velocity": 0.09448818897637795,
          "duration": 0.03488372093023262
        },
        {
          "name": "D6",
          "midi": 86,
          "time": 4.941860465116285,
          "velocity": 0.15748031496062992,
          "duration": 0.08139534883720945
        },
        {
          "name": "D#1",
          "midi": 27,
          "time": 4.953488372093029,
          "velocity": 0.6929133858267716,
          "duration": 0.011627906976744207
        },
        {
          "name": "C#4",
          "midi": 61,
          "time": 4.953488372093029,
          "velocity": 0.1889763779527559,
          "duration": 0.03488372093023262
        },
        {
          "name": "G4",
          "midi": 67,
          "time": 4.953488372093029,
          "velocity": 0.4251968503937008,
          "duration": 0.10465116279069786
        },
        {
          "name": "D1",
          "midi": 26,
          "time": 4.965116279069774,
          "velocity": 0.7244094488188977,
          "duration": 0.011627906976744207
        },
        {
          "name": "C1",
          "midi": 24,
          "time": 4.976744186046518,
          "velocity": 0.7480314960629921,
          "duration": 0.011627906976744207
        },
        {
          "name": "B0",
          "midi": 23,
          "time": 4.988372093023262,
          "velocity": 0.7637795275590551,
          "duration": 0.023255813953488413
        },
        {
          "name": "D5",
          "midi": 74,
          "time": 5.000000000000006,
          "velocity": 0.18110236220472442,
          "duration": 0.04651162790697683
        },
        {
          "name": "C1",
          "midi": 24,
          "time": 5.01162790697675,
          "velocity": 0.7480314960629921,
          "duration": 1.232558139534886
        },
        {
          "name": "D4",
          "midi": 62,
          "time": 5.01162790697675,
          "velocity": 0.15748031496062992,
          "duration": 0.08139534883720945
        },
        {
          "name": "D#5",
          "midi": 75,
          "time": 5.046511627906983,
          "velocity": 0.11811023622047244,
          "duration": 0.03488372093023262
        },
        {
          "name": "F5",
          "midi": 77,
          "time": 5.046511627906983,
          "velocity": 0.14173228346456693,
          "duration": 0.08139534883720945
        },
        {
          "name": "G#3",
          "midi": 56,
          "time": 5.081395348837216,
          "velocity": 0.33858267716535434,
          "duration": 0.03488372093023262
        },
        {
          "name": "G2",
          "midi": 43,
          "time": 5.09302325581396,
          "velocity": 0.28346456692913385,
          "duration": 0.023255813953488413
        },
        {
          "name": "G4",
          "midi": 67,
          "time": 5.104651162790704,
          "velocity": 0.28346456692913385,
          "duration": 0.03488372093023262
        },
        {
          "name": "D#5",
          "midi": 75,
          "time": 5.116279069767448,
          "velocity": 0.14960629921259844,
          "duration": 0.03488372093023262
        },
        {
          "name": "G#3",
          "midi": 56,
          "time": 5.1279069767441925,
          "velocity": 0.4251968503937008,
          "duration": 0.11627906976744207
        },
        {
          "name": "D4",
          "midi": 62,
          "time": 5.1279069767441925,
          "velocity": 0.1732283464566929,
          "duration": 0.09302325581395365
        },
        {
          "name": "F#4",
          "midi": 66,
          "time": 5.139534883720937,
          "velocity": 0.1968503937007874,
          "duration": 0.03488372093023262
        },
        {
          "name": "F5",
          "midi": 77,
          "time": 5.162790697674425,
          "velocity": 0.1968503937007874,
          "duration": 0.1511627906976747
        },
        {
          "name": "D4",
          "midi": 62,
          "time": 5.23255813953489,
          "velocity": 0.15748031496062992,
          "duration": 0.27906976744186096
        },
        {
          "name": "G3",
          "midi": 55,
          "time": 5.244186046511635,
          "velocity": 0.4330708661417323,
          "duration": 0.023255813953488413
        },
        {
          "name": "G#4",
          "midi": 68,
          "time": 5.255813953488379,
          "velocity": 0.33070866141732286,
          "duration": 0.04651162790697683
        },
        {
          "name": "G#3",
          "midi": 56,
          "time": 5.267441860465123,
          "velocity": 0.3700787401574803,
          "duration": 0.03488372093023262
        },
        {
          "name": "G2",
          "midi": 43,
          "time": 5.279069767441867,
          "velocity": 0.2677165354330709,
          "duration": 0.023255813953488413
        },
        {
          "name": "G4",
          "midi": 67,
          "time": 5.302325581395356,
          "velocity": 0.3464566929133858,
          "duration": 0.08139534883720945
        },
        {
          "name": "G#3",
          "midi": 56,
          "time": 5.3139534883721,
          "velocity": 0.33858267716535434,
          "duration": 0.03488372093023262
        },
        {
          "name": "G#3",
          "midi": 56,
          "time": 5.360465116279077,
          "velocity": 0.33858267716535434,
          "duration": 0.03488372093023262
        },
        {
          "name": "D6",
          "midi": 86,
          "time": 5.383720930232565,
          "velocity": 0.2677165354330709,
          "duration": 0.43023255813953565
        },
        {
          "name": "G#3",
          "midi": 56,
          "time": 5.4069767441860535,
          "velocity": 0.4330708661417323,
          "duration": 0.023255813953488413
        },
        {
          "name": "G#3",
          "midi": 56,
          "time": 5.441860465116286,
          "velocity": 0.41732283464566927,
          "duration": 0.04651162790697683
        },
        {
          "name": "F5",
          "midi": 77,
          "time": 5.45348837209303,
          "velocity": 0.11811023622047244,
          "duration": 0.06976744186046524
        },
        {
          "name": "D#6",
          "midi": 87,
          "time": 5.4651162790697745,
          "velocity": 0.1889763779527559,
          "duration": 0.26744186046511675
        },
        {
          "name": "G#3",
          "midi": 56,
          "time": 5.500000000000007,
          "velocity": 0.31496062992125984,
          "duration": 0.03488372093023262
        },
        {
          "name": "G#4",
          "midi": 68,
          "time": 5.53488372093024,
          "velocity": 0.16535433070866143,
          "duration": 0.04651162790697683
        },
        {
          "name": "G5",
          "midi": 79,
          "time": 5.53488372093024,
          "velocity": 0.25984251968503935,
          "duration": 0.13953488372093048
        },
        {
          "name": "G#3",
          "midi": 56,
          "time": 5.546511627906984,
          "velocity": 0.31496062992125984,
          "duration": 0.023255813953488413
        },
        {
          "name": "D4",
          "midi": 62,
          "time": 5.546511627906984,
          "velocity": 0.13385826771653545,
          "duration": 0.06976744186046524
        },
        {
          "name": "G2",
          "midi": 43,
          "time": 5.569767441860472,
          "velocity": 0.30708661417322836,
          "duration": 0.023255813953488413
        },
        {
          "name": "F5",
          "midi": 77,
          "time": 5.569767441860472,
          "velocity": 0.08661417322834646,
          "duration": 0.03488372093023262
        },
        {
          "name": "A3",
          "midi": 57,
          "time": 5.593023255813961,
          "velocity": 0.33858267716535434,
          "duration": 0.023255813953488413
        },
        {
          "name": "F4",
          "midi": 65,
          "time": 5.604651162790705,
          "velocity": 0.11811023622047244,
          "duration": 0.03488372093023262
        },
        {
          "name": "D4",
          "midi": 62,
          "time": 5.627906976744193,
          "velocity": 0.2125984251968504,
          "duration": 0.11627906976744207
        },
        {
          "name": "G#4",
          "midi": 68,
          "time": 5.627906976744193,
          "velocity": 0.25984251968503935,
          "duration": 0.03488372093023262
        },
        {
          "name": "G3",
          "midi": 55,
          "time": 5.651162790697682,
          "velocity": 0.29133858267716534,
          "duration": 0.023255813953488413
        },
        {
          "name": "G#3",
          "midi": 56,
          "time": 5.67441860465117,
          "velocity": 0.33070866141732286,
          "duration": 0.03488372093023262
        },
        {
          "name": "B4",
          "midi": 71,
          "time": 5.697674418604659,
          "velocity": 0.08661417322834646,
          "duration": 0.03488372093023262
        },
        {
          "name": "A#3",
          "midi": 58,
          "time": 5.720930232558147,
          "velocity": 0.28346456692913385,
          "duration": 0.04651162790697683
        },
        {
          "name": "F5",
          "midi": 77,
          "time": 5.720930232558147,
          "velocity": 0.23622047244094488,
          "duration": 0.04651162790697683
        },
        {
          "name": "E6",
          "midi": 88,
          "time": 5.720930232558147,
          "velocity": 0.33070866141732286,
          "duration": 0.04651162790697683
        },
        {
          "name": "G6",
          "midi": 91,
          "time": 5.720930232558147,
          "velocity": 0.29133858267716534,
          "duration": 0.09302325581395365
        },
        {
          "name": "C#5",
          "midi": 73,
          "time": 5.732558139534891,
          "velocity": 0.25984251968503935,
          "duration": 0.023255813953488413
        },
        {
          "name": "G#5",
          "midi": 80,
          "time": 5.732558139534891,
          "velocity": 0.28346456692913385,
          "duration": 0.023255813953488413
        },
        {
          "name": "B5",
          "midi": 83,
          "time": 5.732558139534891,
          "velocity": 0.3700787401574803,
          "duration": 0.08139534883720945
        },
        {
          "name": "F#6",
          "midi": 90,
          "time": 5.732558139534891,
          "velocity": 0.2125984251968504,
          "duration": 0.04651162790697683
        },
        {
          "name": "F7",
          "midi": 101,
          "time": 5.732558139534891,
          "velocity": 0.18110236220472442,
          "duration": 0.06976744186046524
        },
        {
          "name": "F#7",
          "midi": 102,
          "time": 5.732558139534891,
          "velocity": 0.2283464566929134,
          "duration": 0.22093023255813993
        },
        {
          "name": "G4",
          "midi": 67,
          "time": 5.7441860465116354,
          "velocity": 0.2047244094488189,
          "duration": 0.03488372093023262
        },
        {
          "name": "D4",
          "midi": 62,
          "time": 5.75581395348838,
          "velocity": 0.14960629921259844,
          "duration": 0.08139534883720945
        },
        {
          "name": "D5",
          "midi": 74,
          "time": 5.75581395348838,
          "velocity": 0.4094488188976378,
          "duration": 0.06976744186046524
        },
        {
          "name": "G5",
          "midi": 79,
          "time": 5.75581395348838,
          "velocity": 0.4015748031496063,
          "duration": 0.058139534883721034
        },
        {
          "name": "A#5",
          "midi": 82,
          "time": 5.75581395348838,
          "velocity": 0.15748031496062992,
          "duration": 0.04651162790697683
        },
        {
          "name": "D#6",
          "midi": 87,
          "time": 5.75581395348838,
          "velocity": 0.10236220472440945,
          "duration": 0.03488372093023262
        },
        {
          "name": "F6",
          "midi": 89,
          "time": 5.767441860465124,
          "velocity": 0.3543307086614173,
          "duration": 0.058139534883721034
        },
        {
          "name": "G3",
          "midi": 55,
          "time": 5.779069767441868,
          "velocity": 0.3937007874015748,
          "duration": 0.023255813953488413
        },
        {
          "name": "F#6",
          "midi": 90,
          "time": 5.790697674418612,
          "velocity": 0.36220472440944884,
          "duration": 0.058139534883721034
        },
        {
          "name": "G#3",
          "midi": 56,
          "time": 5.8023255813953565,
          "velocity": 0.4645669291338583,
          "duration": 0.058139534883721034
        },
        {
          "name": "G#5",
          "midi": 80,
          "time": 5.8023255813953565,
          "velocity": 0.3228346456692913,
          "duration": 0.058139534883721034
        },
        {
          "name": "G2",
          "midi": 43,
          "time": 5.813953488372101,
          "velocity": 0.25196850393700787,
          "duration": 0.023255813953488413
        },
        {
          "name": "D#5",
          "midi": 75,
          "time": 5.813953488372101,
          "velocity": 0.4330708661417323,
          "duration": 0.04651162790697683
        },
        {
          "name": "C6",
          "midi": 84,
          "time": 5.813953488372101,
          "velocity": 0.23622047244094488,
          "duration": 0.03488372093023262
        },
        {
          "name": "G7",
          "midi": 103,
          "time": 5.813953488372101,
          "velocity": 0.10236220472440945,
          "duration": 0.03488372093023262
        },
        {
          "name": "G5",
          "midi": 79,
          "time": 5.848837209302333,
          "velocity": 0.28346456692913385,
          "duration": 0.11627906976744207
        },
        {
          "name": "B5",
          "midi": 83,
          "time": 5.848837209302333,
          "velocity": 0.2125984251968504,
          "duration": 0.11627906976744207
        },
        {
          "name": "D6",
          "midi": 86,
          "time": 5.848837209302333,
          "velocity": 0.2755905511811024,
          "duration": 0.1627906976744189
        },
        {
          "name": "F6",
          "midi": 89,
          "time": 5.848837209302333,
          "velocity": 0.33070866141732286,
          "duration": 0.09302325581395365
        },
        {
          "name": "G3",
          "midi": 55,
          "time": 5.8604651162790775,
          "velocity": 0.4881889763779528,
          "duration": 0.11627906976744207
        },
        {
          "name": "D5",
          "midi": 74,
          "time": 5.8604651162790775,
          "velocity": 0.3700787401574803,
          "duration": 0.11627906976744207
        },
        {
          "name": "D#4",
          "midi": 63,
          "time": 5.872093023255822,
          "velocity": 0.2283464566929134,
          "duration": 0.04651162790697683
        },
        {
          "name": "D#6",
          "midi": 87,
          "time": 5.89534883720931,
          "velocity": 0.16535433070866143,
          "duration": 0.04651162790697683
        },
        {
          "name": "G2",
          "midi": 43,
          "time": 5.9186046511627985,
          "velocity": 0.2677165354330709,
          "duration": 0.023255813953488413
        },
        {
          "name": "G7",
          "midi": 103,
          "time": 5.9186046511627985,
          "velocity": 0.15748031496062992,
          "duration": 0.058139534883721034
        },
        {
          "name": "D#4",
          "midi": 63,
          "time": 5.930232558139543,
          "velocity": 0.2047244094488189,
          "duration": 0.04651162790697683
        },
        {
          "name": "E6",
          "midi": 88,
          "time": 5.941860465116287,
          "velocity": 0.2677165354330709,
          "duration": 0.04651162790697683
        },
        {
          "name": "G2",
          "midi": 43,
          "time": 5.965116279069775,
          "velocity": 0.2440944881889764,
          "duration": 0.023255813953488413
        },
        {
          "name": "F#4",
          "midi": 66,
          "time": 5.965116279069775,
          "velocity": 0.2992125984251969,
          "duration": 0.023255813953488413
        },
        {
          "name": "D#5",
          "midi": 75,
          "time": 5.965116279069775,
          "velocity": 0.2204724409448819,
          "duration": 0.24418604651162834
        },
        {
          "name": "G5",
          "midi": 79,
          "time": 5.97674418604652,
          "velocity": 0.3700787401574803,
          "duration": 0.1627906976744189
        },
        {
          "name": "F3",
          "midi": 53,
          "time": 5.988372093023264,
          "velocity": 0.49606299212598426,
          "duration": 0.03488372093023262
        },
        {
          "name": "D#4",
          "midi": 63,
          "time": 5.988372093023264,
          "velocity": 0.23622047244094488,
          "duration": 0.03488372093023262
        },
        {
          "name": "A#5",
          "midi": 82,
          "time": 5.988372093023264,
          "velocity": 0.07086614173228346,
          "duration": 0.06976744186046524
        },
        {
          "name": "F7",
          "midi": 101,
          "time": 5.988372093023264,
          "velocity": 0.08661417322834646,
          "duration": 0.03488372093023262
        },
        {
          "name": "F#3",
          "midi": 54,
          "time": 6.023255813953496,
          "velocity": 0.44881889763779526,
          "duration": 0.023255813953488413
        },
        {
          "name": "F3",
          "midi": 53,
          "time": 6.046511627906985,
          "velocity": 0.4409448818897638,
          "duration": 0.10465116279069786
        },
        {
          "name": "D#4",
          "midi": 63,
          "time": 6.058139534883729,
          "velocity": 0.25196850393700787,
          "duration": 0.023255813953488413
        },
        {
          "name": "D6",
          "midi": 86,
          "time": 6.069767441860473,
          "velocity": 0.1968503937007874,
          "duration": 0.09302325581395365
        },
        {
          "name": "D#4",
          "midi": 63,
          "time": 6.11627906976745,
          "velocity": 0.28346456692913385,
          "duration": 0.08139534883720945
        },
        {
          "name": "F5",
          "midi": 77,
          "time": 6.11627906976745,
          "velocity": 0.07874015748031496,
          "duration": 0.03488372093023262
        },
        {
          "name": "G4",
          "midi": 67,
          "time": 6.127906976744194,
          "velocity": 0.2677165354330709,
          "duration": 0.04651162790697683
        },
        {
          "name": "G2",
          "midi": 43,
          "time": 6.151162790697683,
          "velocity": 0.31496062992125984,
          "duration": 0.03488372093023262
        },
        {
          "name": "A3",
          "midi": 57,
          "time": 6.174418604651171,
          "velocity": 0.29133858267716534,
          "duration": 0.023255813953488413
        },
        {
          "name": "E3",
          "midi": 52,
          "time": 6.186046511627915,
          "velocity": 0.30708661417322836,
          "duration": 0.023255813953488413
        },
        {
          "name": "F5",
          "midi": 77,
          "time": 6.186046511627915,
          "velocity": 0.10236220472440945,
          "duration": 0.04651162790697683
        },
        {
          "name": "G5",
          "midi": 79,
          "time": 6.186046511627915,
          "velocity": 0.2204724409448819,
          "duration": 0.04651162790697683
        },
        {
          "name": "D6",
          "midi": 86,
          "time": 6.1976744186046595,
          "velocity": 0.15748031496062992,
          "duration": 0.13953488372093048
        },
        {
          "name": "A4",
          "midi": 69,
          "time": 6.209302325581404,
          "velocity": 0.4015748031496063,
          "duration": 0.06976744186046524
        },
        {
          "name": "D5",
          "midi": 74,
          "time": 6.209302325581404,
          "velocity": 0.31496062992125984,
          "duration": 0.1627906976744189
        },
        {
          "name": "F#6",
          "midi": 90,
          "time": 6.209302325581404,
          "velocity": 0.2440944881889764,
          "duration": 0.09302325581395365
        },
        {
          "name": "D#7",
          "midi": 99,
          "time": 6.209302325581404,
          "velocity": 0.09448818897637795,
          "duration": 0.03488372093023262
        },
        {
          "name": "G3",
          "midi": 55,
          "time": 6.220930232558148,
          "velocity": 0.4881889763779528,
          "duration": 0.1860465116279073
        },
        {
          "name": "D#4",
          "midi": 63,
          "time": 6.220930232558148,
          "velocity": 0.23622047244094488,
          "duration": 0.22093023255813993
        },
        {
          "name": "G4",
          "midi": 67,
          "time": 6.220930232558148,
          "velocity": 0.5196850393700787,
          "duration": 0.1744186046511631
        },
        {
          "name": "E6",
          "midi": 88,
          "time": 6.220930232558148,
          "velocity": 0.1732283464566929,
          "duration": 0.08139534883720945
        },
        {
          "name": "G#5",
          "midi": 80,
          "time": 6.232558139534892,
          "velocity": 0.13385826771653545,
          "duration": 0.03488372093023262
        },
        {
          "name": "F6",
          "midi": 89,
          "time": 6.232558139534892,
          "velocity": 0.1968503937007874,
          "duration": 0.03488372093023262
        },
        {
          "name": "E7",
          "midi": 100,
          "time": 6.232558139534892,
          "velocity": 0.25196850393700787,
          "duration": 0.1511627906976747
        },
        {
          "name": "D1",
          "midi": 26,
          "time": 6.244186046511636,
          "velocity": 0.7086614173228346,
          "duration": 0.011627906976744207
        },
        {
          "name": "B5",
          "midi": 83,
          "time": 6.244186046511636,
          "velocity": 0.14960629921259844,
          "duration": 0.058139534883721034
        },
        {
          "name": "B0",
          "midi": 23,
          "time": 6.2558139534883805,
          "velocity": 0.6299212598425197,
          "duration": 0.011627906976744207
        },
        {
          "name": "G0",
          "midi": 19,
          "time": 6.267441860465125,
          "velocity": 0.5354330708661418,
          "duration": 0.011627906976744207
        },
        {
          "name": "D#7",
          "midi": 99,
          "time": 6.267441860465125,
          "velocity": 0.18110236220472442,
          "duration": 0.13953488372093048
        },
        {
          "name": "F7",
          "midi": 101,
          "time": 6.279069767441869,
          "velocity": 0.16535433070866143,
          "duration": 0.12790697674418627
        },
        {
          "name": "C#6",
          "midi": 85,
          "time": 6.290697674418613,
          "velocity": 0.16535433070866143,
          "duration": 0.03488372093023262
        },
        {
          "name": "D#6",
          "midi": 87,
          "time": 6.290697674418613,
          "velocity": 0.2125984251968504,
          "duration": 0.03488372093023262
        },
        {
          "name": "A#5",
          "midi": 82,
          "time": 6.302325581395357,
          "velocity": 0.14173228346456693,
          "duration": 0.03488372093023262
        },
        {
          "name": "G#6",
          "midi": 92,
          "time": 6.302325581395357,
          "velocity": 0.15748031496062992,
          "duration": 0.03488372093023262
        },
        {
          "name": "F#7",
          "midi": 102,
          "time": 6.313953488372102,
          "velocity": 0.07874015748031496,
          "duration": 0.04651162790697683
        },
        {
          "name": "G#6",
          "midi": 92,
          "time": 6.348837209302334,
          "velocity": 0.1889763779527559,
          "duration": 0.04651162790697683
        },
        {
          "name": "A6",
          "midi": 93,
          "time": 6.360465116279078,
          "velocity": 0.25196850393700787,
          "duration": 0.04651162790697683
        },
        {
          "name": "D7",
          "midi": 98,
          "time": 6.360465116279078,
          "velocity": 0.11811023622047244,
          "duration": 0.03488372093023262
        },
        {
          "name": "F#4",
          "midi": 66,
          "time": 6.395348837209311,
          "velocity": 0.3464566929133858,
          "duration": 0.023255813953488413
        },
        {
          "name": "G#4",
          "midi": 68,
          "time": 6.406976744186055,
          "velocity": 0.2440944881889764,
          "duration": 0.03488372093023262
        },
        {
          "name": "D5",
          "midi": 74,
          "time": 6.430232558139544,
          "velocity": 0.12598425196850394,
          "duration": 0.03488372093023262
        },
        {
          "name": "A6",
          "midi": 93,
          "time": 6.430232558139544,
          "velocity": 0.2992125984251969,
          "duration": 0.10465116279069786
        },
        {
          "name": "F7",
          "midi": 101,
          "time": 6.430232558139544,
          "velocity": 0.2283464566929134,
          "duration": 0.08139534883720945
        },
        {
          "name": "G3",
          "midi": 55,
          "time": 6.441860465116288,
          "velocity": 0.47244094488188976,
          "duration": 0.03488372093023262
        },
        {
          "name": "F#4",
          "midi": 66,
          "time": 6.441860465116288,
          "velocity": 0.4251968503937008,
          "duration": 0.023255813953488413
        },
        {
          "name": "A#4",
          "midi": 70,
          "time": 6.441860465116288,
          "velocity": 0.1732283464566929,
          "duration": 0.03488372093023262
        },
        {
          "name": "G#6",
          "midi": 92,
          "time": 6.441860465116288,
          "velocity": 0.11811023622047244,
          "duration": 0.058139534883721034
        },
        {
          "name": "A#6",
          "midi": 94,
          "time": 6.441860465116288,
          "velocity": 0.13385826771653545,
          "duration": 0.04651162790697683
        },
        {
          "name": "C#4",
          "midi": 61,
          "time": 6.453488372093032,
          "velocity": 0.4094488188976378,
          "duration": 0.03488372093023262
        },
        {
          "name": "D7",
          "midi": 98,
          "time": 6.453488372093032,
          "velocity": 0.1889763779527559,
          "duration": 0.09302325581395365
        },
        {
          "name": "D#7",
          "midi": 99,
          "time": 6.453488372093032,
          "velocity": 0.15748031496062992,
          "duration": 0.06976744186046524
        },
        {
          "name": "E7",
          "midi": 100,
          "time": 6.453488372093032,
          "velocity": 0.13385826771653545,
          "duration": 0.04651162790697683
        },
        {
          "name": "G4",
          "midi": 67,
          "time": 6.465116279069776,
          "velocity": 0.48031496062992124,
          "duration": 0.06976744186046524
        },
        {
          "name": "F#3",
          "midi": 54,
          "time": 6.4767441860465205,
          "velocity": 0.4645669291338583,
          "duration": 0.023255813953488413
        },
        {
          "name": "B6",
          "midi": 95,
          "time": 6.4767441860465205,
          "velocity": 0.09448818897637795,
          "duration": 0.04651162790697683
        },
        {
          "name": "C#7",
          "midi": 97,
          "time": 6.4767441860465205,
          "velocity": 0.11811023622047244,
          "duration": 0.04651162790697683
        },
        {
          "name": "B4",
          "midi": 71,
          "time": 6.488372093023265,
          "velocity": 0.2125984251968504,
          "duration": 0.058139534883721034
        },
        {
          "name": "G3",
          "midi": 55,
          "time": 6.500000000000009,
          "velocity": 0.4645669291338583,
          "duration": 0.058139534883721034
        },
        {
          "name": "F4",
          "midi": 65,
          "time": 6.500000000000009,
          "velocity": 0.1968503937007874,
          "duration": 0.03488372093023262
        },
        {
          "name": "D5",
          "midi": 74,
          "time": 6.511627906976753,
          "velocity": 0.4094488188976378,
          "duration": 0.1511627906976747
        },
        {
          "name": "A#5",
          "midi": 82,
          "time": 6.523255813953497,
          "velocity": 0.07874015748031496,
          "duration": 0.03488372093023262
        },
        {
          "name": "F6",
          "midi": 89,
          "time": 6.523255813953497,
          "velocity": 0.14173228346456693,
          "duration": 0.04651162790697683
        },
        {
          "name": "D4",
          "midi": 62,
          "time": 6.5348837209302415,
          "velocity": 0.33070866141732286,
          "duration": 0.09302325581395365
        },
        {
          "name": "F#4",
          "midi": 66,
          "time": 6.5348837209302415,
          "velocity": 0.2992125984251969,
          "duration": 0.023255813953488413
        },
        {
          "name": "A#4",
          "midi": 70,
          "time": 6.5348837209302415,
          "velocity": 0.18110236220472442,
          "duration": 0.058139534883721034
        },
        {
          "name": "G4",
          "midi": 67,
          "time": 6.55813953488373,
          "velocity": 0.2047244094488189,
          "duration": 0.058139534883721034
        },
        {
          "name": "F3",
          "midi": 53,
          "time": 6.569767441860474,
          "velocity": 0.3937007874015748,
          "duration": 0.03488372093023262
        },
        {
          "name": "F#3",
          "midi": 54,
          "time": 6.627906976744195,
          "velocity": 0.49606299212598426,
          "duration": 0.023255813953488413
        },
        {
          "name": "C#4",
          "midi": 61,
          "time": 6.627906976744195,
          "velocity": 0.2992125984251969,
          "duration": 0.023255813953488413
        },
        {
          "name": "G6",
          "midi": 91,
          "time": 6.627906976744195,
          "velocity": 0.2204724409448819,
          "duration": 0.09302325581395365
        },
        {
          "name": "G4",
          "midi": 67,
          "time": 6.639534883720939,
          "velocity": 0.3937007874015748,
          "duration": 0.06976744186046524
        },
        {
          "name": "G3",
          "midi": 55,
          "time": 6.651162790697684,
          "velocity": 0.5433070866141733,
          "duration": 0.058139534883721034
        },
        {
          "name": "D4",
          "midi": 62,
          "time": 6.651162790697684,
          "velocity": 0.2283464566929134,
          "duration": 0.03488372093023262
        },
        {
          "name": "B5",
          "midi": 83,
          "time": 6.651162790697684,
          "velocity": 0.13385826771653545,
          "duration": 0.03488372093023262
        },
        {
          "name": "G#6",
          "midi": 92,
          "time": 6.651162790697684,
          "velocity": 0.36220472440944884,
          "duration": 0.09302325581395365
        },
        {
          "name": "A6",
          "midi": 93,
          "time": 6.651162790697684,
          "velocity": 0.2204724409448819,
          "duration": 0.10465116279069786
        },
        {
          "name": "C#7",
          "midi": 97,
          "time": 6.651162790697684,
          "velocity": 0.16535433070866143,
          "duration": 0.058139534883721034
        },
        {
          "name": "D7",
          "midi": 98,
          "time": 6.651162790697684,
          "velocity": 0.2204724409448819,
          "duration": 0.06976744186046524
        },
        {
          "name": "A#6",
          "midi": 94,
          "time": 6.662790697674428,
          "velocity": 0.1889763779527559,
          "duration": 0.058139534883721034
        },
        {
          "name": "D#7",
          "midi": 99,
          "time": 6.662790697674428,
          "velocity": 0.1889763779527559,
          "duration": 0.058139534883721034
        },
        {
          "name": "A5",
          "midi": 81,
          "time": 6.674418604651172,
          "velocity": 0.11023622047244094,
          "duration": 0.11627906976744207
        },
        {
          "name": "F6",
          "midi": 89,
          "time": 6.674418604651172,
          "velocity": 0.11811023622047244,
          "duration": 0.04651162790697683
        },
        {
          "name": "A#4",
          "midi": 70,
          "time": 6.686046511627916,
          "velocity": 0.3700787401574803,
          "duration": 0.023255813953488413
        },
        {
          "name": "F#5",
          "midi": 78,
          "time": 6.686046511627916,
          "velocity": 0.13385826771653545,
          "duration": 0.03488372093023262
        },
        {
          "name": "E7",
          "midi": 100,
          "time": 6.686046511627916,
          "velocity": 0.11023622047244094,
          "duration": 0.06976744186046524
        },
        {
          "name": "F#3",
          "midi": 54,
          "time": 6.709302325581405,
          "velocity": 0.3779527559055118,
          "duration": 0.023255813953488413
        },
        {
          "name": "C#5",
          "midi": 73,
          "time": 6.709302325581405,
          "velocity": 0.23622047244094488,
          "duration": 0.023255813953488413
        },
        {
          "name": "D#5",
          "midi": 75,
          "time": 6.709302325581405,
          "velocity": 0.09448818897637795,
          "duration": 0.03488372093023262
        },
        {
          "name": "G5",
          "midi": 79,
          "time": 6.709302325581405,
          "velocity": 0.2440944881889764,
          "duration": 0.3604651162790704
        },
        {
          "name": "F4",
          "midi": 65,
          "time": 6.720930232558149,
          "velocity": 0.4251968503937008,
          "duration": 0.023255813953488413
        },
        {
          "name": "A#5",
          "midi": 82,
          "time": 6.732558139534893,
          "velocity": 0.07874015748031496,
          "duration": 0.03488372093023262
        },
        {
          "name": "D6",
          "midi": 86,
          "time": 6.732558139534893,
          "velocity": 0.33070866141732286,
          "duration": 0.1511627906976747
        },
        {
          "name": "F#3",
          "midi": 54,
          "time": 6.744186046511637,
          "velocity": 0.4094488188976378,
          "duration": 0.023255813953488413
        },
        {
          "name": "A#4",
          "midi": 70,
          "time": 6.744186046511637,
          "velocity": 0.1889763779527559,
          "duration": 0.08139534883720945
        },
        {
          "name": "G6",
          "midi": 91,
          "time": 6.744186046511637,
          "velocity": 0.25984251968503935,
          "duration": 0.058139534883721034
        },
        {
          "name": "G4",
          "midi": 67,
          "time": 6.755813953488381,
          "velocity": 0.2440944881889764,
          "duration": 0.04651162790697683
        },
        {
          "name": "D5",
          "midi": 74,
          "time": 6.755813953488381,
          "velocity": 0.31496062992125984,
          "duration": 0.20930232558139572
        },
        {
          "name": "F3",
          "midi": 53,
          "time": 6.767441860465126,
          "velocity": 0.4251968503937008,
          "duration": 0.023255813953488413
        },
        {
          "name": "D4",
          "midi": 62,
          "time": 6.767441860465126,
          "velocity": 0.2677165354330709,
          "duration": 0.058139534883721034
        },
        {
          "name": "E3",
          "midi": 52,
          "time": 6.790697674418614,
          "velocity": 0.3858267716535433,
          "duration": 0.023255813953488413
        },
        {
          "name": "D#3",
          "midi": 51,
          "time": 6.8139534883721025,
          "velocity": 0.44881889763779526,
          "duration": 0.06976744186046524
        },
        {
          "name": "D#4",
          "midi": 63,
          "time": 6.825581395348847,
          "velocity": 0.6141732283464567,
          "duration": 0.058139534883721034
        },
        {
          "name": "A4",
          "midi": 69,
          "time": 6.837209302325591,
          "velocity": 0.1968503937007874,
          "duration": 0.058139534883721034
        },
        {
          "name": "F#6",
          "midi": 90,
          "time": 6.837209302325591,
          "velocity": 0.23622047244094488,
          "duration": 0.058139534883721034
        },
        {
          "name": "G#6",
          "midi": 92,
          "time": 6.837209302325591,
          "velocity": 0.3779527559055118,
          "duration": 0.058139534883721034
        },
        {
          "name": "E7",
          "midi": 100,
          "time": 6.860465116279079,
          "velocity": 0.12598425196850394,
          "duration": 0.03488372093023262
        },
        {
          "name": "C#3",
          "midi": 49,
          "time": 6.895348837209312,
          "velocity": 0.3228346456692913,
          "duration": 0.023255813953488413
        },
        {
          "name": "C#4",
          "midi": 61,
          "time": 6.895348837209312,
          "velocity": 0.3700787401574803,
          "duration": 0.023255813953488413
        },
        {
          "name": "D6",
          "midi": 86,
          "time": 6.895348837209312,
          "velocity": 0.3228346456692913,
          "duration": 0.22093023255813993
        },
        {
          "name": "D3",
          "midi": 50,
          "time": 6.9186046511628,
          "velocity": 0.4251968503937008,
          "duration": 0.03488372093023262
        },
        {
          "name": "G4",
          "midi": 67,
          "time": 6.9186046511628,
          "velocity": 0.1968503937007874,
          "duration": 0.09302325581395365
        },
        {
          "name": "A6",
          "midi": 93,
          "time": 6.9186046511628,
          "velocity": 0.10236220472440945,
          "duration": 0.03488372093023262
        },
        {
          "name": "G#6",
          "midi": 92,
          "time": 6.9302325581395445,
          "velocity": 0.3937007874015748,
          "duration": 0.06976744186046524
        },
        {
          "name": "D#7",
          "midi": 99,
          "time": 6.9302325581395445,
          "velocity": 0.10236220472440945,
          "duration": 0.04651162790697683
        },
        {
          "name": "E7",
          "midi": 100,
          "time": 6.9302325581395445,
          "velocity": 0.1968503937007874,
          "duration": 0.04651162790697683
        },
        {
          "name": "D#4",
          "midi": 63,
          "time": 6.941860465116289,
          "velocity": 0.48031496062992124,
          "duration": 0.1744186046511631
        },
        {
          "name": "A#4",
          "midi": 70,
          "time": 6.941860465116289,
          "velocity": 0.29133858267716534,
          "duration": 0.1511627906976747
        },
        {
          "name": "D#3",
          "midi": 51,
          "time": 6.953488372093033,
          "velocity": 0.48031496062992124,
          "duration": 0.19767441860465151
        },
        {
          "name": "D5",
          "midi": 74,
          "time": 6.988372093023266,
          "velocity": 0.14173228346456693,
          "duration": 0.03488372093023262
        },
        {
          "name": "A6",
          "midi": 93,
          "time": 7.00000000000001,
          "velocity": 0.16535433070866143,
          "duration": 0.06976744186046524
        },
        {
          "name": "G6",
          "midi": 91,
          "time": 7.011627906976754,
          "velocity": 0.3700787401574803,
          "duration": 0.11627906976744207
        },
        {
          "name": "D5",
          "midi": 74,
          "time": 7.046511627906987,
          "velocity": 0.08661417322834646,
          "duration": 0.04651162790697683
        },
        {
          "name": "G5",
          "midi": 79,
          "time": 7.104651162790708,
          "velocity": 0.11023622047244094,
          "duration": 0.04651162790697683
        },
        {
          "name": "D4",
          "midi": 62,
          "time": 7.116279069767452,
          "velocity": 0.2677165354330709,
          "duration": 0.06976744186046524
        },
        {
          "name": "A4",
          "midi": 69,
          "time": 7.116279069767452,
          "velocity": 0.13385826771653545,
          "duration": 0.04651162790697683
        },
        {
          "name": "G4",
          "midi": 67,
          "time": 7.13953488372094,
          "velocity": 0.18110236220472442,
          "duration": 0.03488372093023262
        },
        {
          "name": "F#5",
          "midi": 78,
          "time": 7.1511627906976845,
          "velocity": 0.3228346456692913,
          "duration": 0.09302325581395365
        },
        {
          "name": "C5",
          "midi": 72,
          "time": 7.162790697674429,
          "velocity": 0.41732283464566927,
          "duration": 0.04651162790697683
        },
        {
          "name": "E5",
          "midi": 76,
          "time": 7.162790697674429,
          "velocity": 0.3543307086614173,
          "duration": 0.09302325581395365
        },
        {
          "name": "G#5",
          "midi": 80,
          "time": 7.162790697674429,
          "velocity": 0.29133858267716534,
          "duration": 0.04651162790697683
        },
        {
          "name": "A#1",
          "midi": 34,
          "time": 7.174418604651173,
          "velocity": 0.5275590551181102,
          "duration": 0.011627906976744207
        },
        {
          "name": "G#3",
          "midi": 56,
          "time": 7.174418604651173,
          "velocity": 0.2440944881889764,
          "duration": 0.03488372093023262
        },
        {
          "name": "G#4",
          "midi": 68,
          "time": 7.174418604651173,
          "velocity": 0.2992125984251969,
          "duration": 0.023255813953488413
        },
        {
          "name": "G1",
          "midi": 31,
          "time": 7.186046511627917,
          "velocity": 0.7480314960629921,
          "duration": 0.023255813953488413
        },
        {
          "name": "D5",
          "midi": 74,
          "time": 7.186046511627917,
          "velocity": 0.2440944881889764,
          "duration": 0.023255813953488413
        },
        {
          "name": "A#5",
          "midi": 82,
          "time": 7.186046511627917,
          "velocity": 0.25984251968503935,
          "duration": 0.06976744186046524
        },
        {
          "name": "B5",
          "midi": 83,
          "time": 7.186046511627917,
          "velocity": 0.2047244094488189,
          "duration": 0.03488372093023262
        },
        {
          "name": "D#3",
          "midi": 51,
          "time": 7.197674418604661,
          "velocity": 0.31496062992125984,
          "duration": 0.19767441860465151
        },
        {
          "name": "E4",
          "midi": 64,
          "time": 7.197674418604661,
          "velocity": 0.3464566929133858,
          "duration": 0.023255813953488413
        },
        {
          "name": "A4",
          "midi": 69,
          "time": 7.197674418604661,
          "velocity": 0.3779527559055118,
          "duration": 0.058139534883721034
        },
        {
          "name": "G#1",
          "midi": 32,
          "time": 7.2093023255814055,
          "velocity": 0.7637795275590551,
          "duration": 0.6046511627906987
        },
        {
          "name": "C#5",
          "midi": 73,
          "time": 7.2093023255814055,
          "velocity": 0.2755905511811024,
          "duration": 0.03488372093023262
        },
        {
          "name": "G5",
          "midi": 79,
          "time": 7.2093023255814055,
          "velocity": 0.08661417322834646,
          "duration": 0.03488372093023262
        },
        {
          "name": "D4",
          "midi": 62,
          "time": 7.22093023255815,
          "velocity": 0.2755905511811024,
          "duration": 0.023255813953488413
        },
        {
          "name": "A3",
          "midi": 57,
          "time": 7.232558139534894,
          "velocity": 0.29133858267716534,
          "duration": 0.023255813953488413
        },
        {
          "name": "C4",
          "midi": 60,
          "time": 7.232558139534894,
          "velocity": 0.29133858267716534,
          "duration": 0.023255813953488413
        },
        {
          "name": "F4",
          "midi": 65,
          "time": 7.244186046511638,
          "velocity": 0.4330708661417323,
          "duration": 0.11627906976744207
        },
        {
          "name": "D5",
          "midi": 74,
          "time": 7.244186046511638,
          "velocity": 0.36220472440944884,
          "duration": 0.11627906976744207
        },
        {
          "name": "D4",
          "midi": 62,
          "time": 7.255813953488382,
          "velocity": 0.3700787401574803,
          "duration": 0.023255813953488413
        },
        {
          "name": "A#4",
          "midi": 70,
          "time": 7.255813953488382,
          "velocity": 0.30708661417322836,
          "duration": 0.03488372093023262
        },
        {
          "name": "B5",
          "midi": 83,
          "time": 7.255813953488382,
          "velocity": 0.25196850393700787,
          "duration": 0.03488372093023262
        },
        {
          "name": "E5",
          "midi": 76,
          "time": 7.279069767441871,
          "velocity": 0.11023622047244094,
          "duration": 0.03488372093023262
        },
        {
          "name": "A#5",
          "midi": 82,
          "time": 7.290697674418615,
          "velocity": 0.3464566929133858,
          "duration": 0.6627906976744198
        },
        {
          "name": "B3",
          "midi": 59,
          "time": 7.302325581395359,
          "velocity": 0.25984251968503935,
          "duration": 0.023255813953488413
        },
        {
          "name": "A#4",
          "midi": 70,
          "time": 7.302325581395359,
          "velocity": 0.1732283464566929,
          "duration": 0.11627906976744207
        },
        {
          "name": "G5",
          "midi": 79,
          "time": 7.325581395348848,
          "velocity": 0.18110236220472442,
          "duration": 0.1627906976744189
        },
        {
          "name": "C4",
          "midi": 60,
          "time": 7.337209302325592,
          "velocity": 0.25196850393700787,
          "duration": 0.03488372093023262
        },
        {
          "name": "A3",
          "midi": 57,
          "time": 7.36046511627908,
          "velocity": 0.23622047244094488,
          "duration": 0.023255813953488413
        },
        {
          "name": "E4",
          "midi": 64,
          "time": 7.36046511627908,
          "velocity": 0.3937007874015748,
          "duration": 0.023255813953488413
        },
        {
          "name": "G#3",
          "midi": 56,
          "time": 7.383720930232569,
          "velocity": 0.3543307086614173,
          "duration": 0.03488372093023262
        },
        {
          "name": "D5",
          "midi": 74,
          "time": 7.383720930232569,
          "velocity": 0.18110236220472442,
          "duration": 0.058139534883721034
        },
        {
          "name": "D4",
          "midi": 62,
          "time": 7.395348837209313,
          "velocity": 0.2755905511811024,
          "duration": 0.023255813953488413
        },
        {
          "name": "B4",
          "midi": 71,
          "time": 7.395348837209313,
          "velocity": 0.1968503937007874,
          "duration": 0.03488372093023262
        },
        {
          "name": "D#3",
          "midi": 51,
          "time": 7.406976744186057,
          "velocity": 0.4094488188976378,
          "duration": 0.1860465116279073
        },
        {
          "name": "F5",
          "midi": 77,
          "time": 7.406976744186057,
          "velocity": 0.25984251968503935,
          "duration": 0.1744186046511631
        },
        {
          "name": "A3",
          "midi": 57,
          "time": 7.418604651162801,
          "velocity": 0.25984251968503935,
          "duration": 0.023255813953488413
        },
        {
          "name": "A#4",
          "midi": 70,
          "time": 7.430232558139545,
          "velocity": 0.2755905511811024,
          "duration": 0.06976744186046524
        },
        {
          "name": "D4",
          "midi": 62,
          "time": 7.453488372093034,
          "velocity": 0.3228346456692913,
          "duration": 0.023255813953488413
        },
        {
          "name": "A#3",
          "midi": 58,
          "time": 7.465116279069778,
          "velocity": 0.31496062992125984,
          "duration": 0.023255813953488413
        },
        {
          "name": "F#4",
          "midi": 66,
          "time": 7.465116279069778,
          "velocity": 0.1889763779527559,
          "duration": 0.06976744186046524
        },
        {
          "name": "A3",
          "midi": 57,
          "time": 7.4883720930232665,
          "velocity": 0.3228346456692913,
          "duration": 0.023255813953488413
        },
        {
          "name": "D4",
          "midi": 62,
          "time": 7.4883720930232665,
          "velocity": 0.25196850393700787,
          "duration": 0.023255813953488413
        },
        {
          "name": "B4",
          "midi": 71,
          "time": 7.500000000000011,
          "velocity": 0.2677165354330709,
          "duration": 0.06976744186046524
        },
        {
          "name": "C4",
          "midi": 60,
          "time": 7.523255813953499,
          "velocity": 0.2204724409448819,
          "duration": 0.08139534883720945
        },
        {
          "name": "D5",
          "midi": 74,
          "time": 7.523255813953499,
          "velocity": 0.3700787401574803,
          "duration": 0.06976744186046524
        },
        {
          "name": "C6",
          "midi": 84,
          "time": 7.523255813953499,
          "velocity": 0.1732283464566929,
          "duration": 0.1511627906976747
        },
        {
          "name": "F#4",
          "midi": 66,
          "time": 7.5465116279069875,
          "velocity": 0.3464566929133858,
          "duration": 0.058139534883721034
        },
        {
          "name": "A#4",
          "midi": 70,
          "time": 7.558139534883732,
          "velocity": 0.28346456692913385,
          "duration": 0.023255813953488413
        },
        {
          "name": "A5",
          "midi": 81,
          "time": 7.558139534883732,
          "velocity": 0.2204724409448819,
          "duration": 0.03488372093023262
        },
        {
          "name": "G6",
          "midi": 91,
          "time": 7.558139534883732,
          "velocity": 0.3779527559055118,
          "duration": 0.1627906976744189
        },
        {
          "name": "G#6",
          "midi": 92,
          "time": 7.558139534883732,
          "velocity": 0.25984251968503935,
          "duration": 0.11627906976744207
        },
        {
          "name": "C5",
          "midi": 72,
          "time": 7.569767441860476,
          "velocity": 0.36220472440944884,
          "duration": 0.023255813953488413
        },
        {
          "name": "C#6",
          "midi": 85,
          "time": 7.58139534883722,
          "velocity": 0.15748031496062992,
          "duration": 0.04651162790697683
        },
        {
          "name": "D#4",
          "midi": 63,
          "time": 7.593023255813964,
          "velocity": 0.2204724409448819,
          "duration": 0.04651162790697683
        },
        {
          "name": "C#5",
          "midi": 73,
          "time": 7.593023255813964,
          "velocity": 0.4015748031496063,
          "duration": 0.023255813953488413
        },
        {
          "name": "F6",
          "midi": 89,
          "time": 7.593023255813964,
          "velocity": 0.16535433070866143,
          "duration": 0.03488372093023262
        },
        {
          "name": "F3",
          "midi": 53,
          "time": 7.616279069767453,
          "velocity": 0.5354330708661418,
          "duration": 0.011627906976744207
        },
        {
          "name": "A5",
          "midi": 81,
          "time": 7.616279069767453,
          "velocity": 0.16535433070866143,
          "duration": 0.04651162790697683
        },
        {
          "name": "E3",
          "midi": 52,
          "time": 7.627906976744197,
          "velocity": 0.5196850393700787,
          "duration": 0.011627906976744207
        },
        {
          "name": "B4",
          "midi": 71,
          "time": 7.627906976744197,
          "velocity": 0.2283464566929134,
          "duration": 0.023255813953488413
        },
        {
          "name": "F#6",
          "midi": 90,
          "time": 7.627906976744197,
          "velocity": 0.14173228346456693,
          "duration": 0.03488372093023262
        },
        {
          "name": "D#3",
          "midi": 51,
          "time": 7.639534883720941,
          "velocity": 0.5433070866141733,
          "duration": 0.03488372093023262
        },
        {
          "name": "A3",
          "midi": 57,
          "time": 7.639534883720941,
          "velocity": 0.3228346456692913,
          "duration": 0.023255813953488413
        },
        {
          "name": "C#5",
          "midi": 73,
          "time": 7.639534883720941,
          "velocity": 0.12598425196850394,
          "duration": 0.03488372093023262
        },
        {
          "name": "E5",
          "midi": 76,
          "time": 7.639534883720941,
          "velocity": 0.23622047244094488,
          "duration": 0.03488372093023262
        },
        {
          "name": "G#4",
          "midi": 68,
          "time": 7.651162790697685,
          "velocity": 0.29133858267716534,
          "duration": 0.09302325581395365
        },
        {
          "name": "A#4",
          "midi": 70,
          "time": 7.651162790697685,
          "velocity": 0.11811023622047244,
          "duration": 0.03488372093023262
        },
        {
          "name": "G#3",
          "midi": 56,
          "time": 7.6627906976744296,
          "velocity": 0.3464566929133858,
          "duration": 0.06976744186046524
        },
        {
          "name": "D3",
          "midi": 50,
          "time": 7.674418604651174,
          "velocity": 0.48031496062992124,
          "duration": 0.023255813953488413
        },
        {
          "name": "D#5",
          "midi": 75,
          "time": 7.674418604651174,
          "velocity": 0.48031496062992124,
          "duration": 0.3023255813953494
        },
        {
          "name": "A5",
          "midi": 81,
          "time": 7.686046511627918,
          "velocity": 0.14173228346456693,
          "duration": 0.1627906976744189
        },
        {
          "name": "D#3",
          "midi": 51,
          "time": 7.697674418604662,
          "velocity": 0.3937007874015748,
          "duration": 0.03488372093023262
        },
        {
          "name": "G3",
          "midi": 55,
          "time": 7.732558139534895,
          "velocity": 0.3543307086614173,
          "duration": 0.023255813953488413
        },
        {
          "name": "C4",
          "midi": 60,
          "time": 7.732558139534895,
          "velocity": 0.18110236220472442,
          "duration": 0.03488372093023262
        },
        {
          "name": "D#4",
          "midi": 63,
          "time": 7.732558139534895,
          "velocity": 0.2440944881889764,
          "duration": 0.06976744186046524
        },
        {
          "name": "B4",
          "midi": 71,
          "time": 7.732558139534895,
          "velocity": 0.09448818897637795,
          "duration": 0.03488372093023262
        },
        {
          "name": "D#3",
          "midi": 51,
          "time": 7.744186046511639,
          "velocity": 0.29133858267716534,
          "duration": 0.06976744186046524
        },
        {
          "name": "F5",
          "midi": 77,
          "time": 7.755813953488383,
          "velocity": 0.15748031496062992,
          "duration": 0.04651162790697683
        },
        {
          "name": "A3",
          "midi": 57,
          "time": 7.767441860465127,
          "velocity": 0.2992125984251969,
          "duration": 0.023255813953488413
        },
        {
          "name": "G#3",
          "midi": 56,
          "time": 7.80232558139536,
          "velocity": 0.31496062992125984,
          "duration": 0.023255813953488413
        },
        {
          "name": "F4",
          "midi": 65,
          "time": 7.80232558139536,
          "velocity": 0.16535433070866143,
          "duration": 0.03488372093023262
        },
        {
          "name": "G1",
          "midi": 31,
          "time": 7.813953488372104,
          "velocity": 0.7007874015748031,
          "duration": 0.011627906976744207
        },
        {
          "name": "F1",
          "midi": 29,
          "time": 7.8255813953488484,
          "velocity": 0.5669291338582677,
          "duration": 0.011627906976744207
        },
        {
          "name": "A#4",
          "midi": 70,
          "time": 7.8255813953488484,
          "velocity": 0.2992125984251969,
          "duration": 0.08139534883720945
        },
        {
          "name": "F5",
          "midi": 77,
          "time": 7.837209302325593,
          "velocity": 0.33070866141732286,
          "duration": 0.058139534883721034
        },
        {
          "name": "G5",
          "midi": 79,
          "time": 7.837209302325593,
          "velocity": 0.4015748031496063,
          "duration": 0.08139534883720945
        },
        {
          "name": "G#6",
          "midi": 92,
          "time": 7.837209302325593,
          "velocity": 0.25984251968503935,
          "duration": 0.04651162790697683
        },
        {
          "name": "C0",
          "midi": 12,
          "time": 7.848837209302337,
          "velocity": 0.5511811023622047,
          "duration": 0.011627906976744207
        },
        {
          "name": "D#4",
          "midi": 63,
          "time": 7.848837209302337,
          "velocity": 0.3700787401574803,
          "duration": 0.13953488372093048
        },
        {
          "name": "C6",
          "midi": 84,
          "time": 7.848837209302337,
          "velocity": 0.14960629921259844,
          "duration": 0.06976744186046524
        },
        {
          "name": "C#6",
          "midi": 85,
          "time": 7.848837209302337,
          "velocity": 0.1732283464566929,
          "duration": 0.04651162790697683
        },
        {
          "name": "A6",
          "midi": 93,
          "time": 7.848837209302337,
          "velocity": 0.14173228346456693,
          "duration": 0.06976744186046524
        },
        {
          "name": "G1",
          "midi": 31,
          "time": 7.860465116279081,
          "velocity": 0.7401574803149606,
          "duration": 0.023255813953488413
        },
        {
          "name": "F#1",
          "midi": 30,
          "time": 7.8837209302325695,
          "velocity": 0.7401574803149606,
          "duration": 0.011627906976744207
        },
        {
          "name": "G#3",
          "midi": 56,
          "time": 7.8837209302325695,
          "velocity": 0.3858267716535433,
          "duration": 0.1279069767441845
        },
        {
          "name": "G1",
          "midi": 31,
          "time": 7.895348837209314,
          "velocity": 0.7716535433070866,
          "duration": 0.5930232558139235
        },
        {
          "name": "D#3",
          "midi": 51,
          "time": 7.895348837209314,
          "velocity": 0.3937007874015748,
          "duration": 0.023255813953488413
        },
        {
          "name": "F#5",
          "midi": 78,
          "time": 7.895348837209314,
          "velocity": 0.13385826771653545,
          "duration": 0.03488372093023262
        },
        {
          "name": "F5",
          "midi": 77,
          "time": 7.918604651162802,
          "velocity": 0.2755905511811024,
          "duration": 0.639534883720895
        },
        {
          "name": "D3",
          "midi": 50,
          "time": 7.953488372093035,
          "velocity": 0.29133858267716534,
          "duration": 0.05813953488371926
        },
        {
          "name": "D5",
          "midi": 74,
          "time": 7.953488372093035,
          "velocity": 0.11023622047244094,
          "duration": 0.04651162790697594
        },
        {
          "name": "A#5",
          "midi": 82,
          "time": 7.976744186046523,
          "velocity": 0.14960629921259844,
          "duration": 0.0697674418604608
        },
        {
          "name": "E7",
          "midi": 100,
          "time": 7.988372093023267,
          "velocity": 0.25984251968503935,
          "duration": 0.046511627906973274
        },
        {
          "name": "G#4",
          "midi": 68,
          "time": 8.00000000000001,
          "velocity": 0.4015748031496063,
          "duration": 0.023255813953486637
        },
        {
          "name": "B6",
          "midi": 95,
          "time": 8.00000000000001,
          "velocity": 0.3464566929133858,
          "duration": 0.06976744186045991
        },
        {
          "name": "G3",
          "midi": 55,
          "time": 8.011627906976754,
          "velocity": 0.33858267716535434,
          "duration": 0.023255813953486637
        },
        {
          "name": "C5",
          "midi": 72,
          "time": 8.011627906976754,
          "velocity": 0.1732283464566929,
          "duration": 0.034883720930229956
        },
        {
          "name": "D5",
          "midi": 74,
          "time": 8.011627906976754,
          "velocity": 0.31496062992125984,
          "duration": 0.06976744186045991
        },
        {
          "name": "A6",
          "midi": 93,
          "time": 8.011627906976754,
          "velocity": 0.2283464566929134,
          "duration": 0.05813953488371659
        },
        {
          "name": "A#6",
          "midi": 94,
          "time": 8.011627906976754,
          "velocity": 0.3858267716535433,
          "duration": 0.023255813953486637
        },
        {
          "name": "D#7",
          "midi": 99,
          "time": 8.011627906976754,
          "velocity": 0.16535433070866143,
          "duration": 0.046511627906973274
        },
        {
          "name": "F#7",
          "midi": 102,
          "time": 8.011627906976754,
          "velocity": 0.11023622047244094,
          "duration": 0.05813953488371659
        },
        {
          "name": "D#4",
          "midi": 63,
          "time": 8.023255813953497,
          "velocity": 0.28346456692913385,
          "duration": 0.13953488372091982
        },
        {
          "name": "G4",
          "midi": 67,
          "time": 8.023255813953497,
          "velocity": 0.4645669291338583,
          "duration": 0.05813953488371659
        },
        {
          "name": "F7",
          "midi": 101,
          "time": 8.023255813953497,
          "velocity": 0.2677165354330709,
          "duration": 0.046511627906973274
        },
        {
          "name": "F#3",
          "midi": 54,
          "time": 8.03488372093024,
          "velocity": 0.36220472440944884,
          "duration": 0.023255813953486637
        },
        {
          "name": "G3",
          "midi": 55,
          "time": 8.058139534883727,
          "velocity": 0.49606299212598426,
          "duration": 0.034883720930229956
        },
        {
          "name": "A#5",
          "midi": 82,
          "time": 8.06976744186047,
          "velocity": 0.14173228346456693,
          "duration": 0.034883720930229956
        },
        {
          "name": "D#6",
          "midi": 87,
          "time": 8.06976744186047,
          "velocity": 0.11811023622047244,
          "duration": 0.046511627906973274
        },
        {
          "name": "G#3",
          "midi": 56,
          "time": 8.093023255813957,
          "velocity": 0.3700787401574803,
          "duration": 0.034883720930229956
        },
        {
          "name": "C#6",
          "midi": 85,
          "time": 8.1046511627907,
          "velocity": 0.16535433070866143,
          "duration": 0.034883720930229956
        },
        {
          "name": "G3",
          "midi": 55,
          "time": 8.127906976744187,
          "velocity": 0.4409448818897638,
          "duration": 0.023255813953486637
        },
        {
          "name": "D3",
          "midi": 50,
          "time": 8.13953488372093,
          "velocity": 0.28346456692913385,
          "duration": 0.034883720930229956
        },
        {
          "name": "A6",
          "midi": 93,
          "time": 8.13953488372093,
          "velocity": 0.23622047244094488,
          "duration": 0.081395348837205
        },
        {
          "name": "G#3",
          "midi": 56,
          "time": 8.151162790697674,
          "velocity": 0.4330708661417323,
          "duration": 0.034883720930229956
        },
        {
          "name": "A#5",
          "midi": 82,
          "time": 8.151162790697674,
          "velocity": 0.14960629921259844,
          "duration": 0.081395348837205
        },
        {
          "name": "G4",
          "midi": 67,
          "time": 8.162790697674417,
          "velocity": 0.3464566929133858,
          "duration": 0.05813953488371837
        },
        {
          "name": "A4",
          "midi": 69,
          "time": 8.162790697674417,
          "velocity": 0.2992125984251969,
          "duration": 0.023255813953486637
        },
        {
          "name": "G#6",
          "midi": 92,
          "time": 8.162790697674417,
          "velocity": 0.1968503937007874,
          "duration": 0.06976744186046169
        },
        {
          "name": "D3",
          "midi": 50,
          "time": 8.186046511627904,
          "velocity": 0.33858267716535434,
          "duration": 0.09302325581395188
        },
        {
          "name": "A#4",
          "midi": 70,
          "time": 8.186046511627904,
          "velocity": 0.3464566929133858,
          "duration": 0.023255813953488413
        },
        {
          "name": "C#5",
          "midi": 73,
          "time": 8.186046511627904,
          "velocity": 0.1968503937007874,
          "duration": 0.03488372093023173
        },
        {
          "name": "G#3",
          "midi": 56,
          "time": 8.209302325581392,
          "velocity": 0.36220472440944884,
          "duration": 0.10465116279069342
        },
        {
          "name": "D#4",
          "midi": 63,
          "time": 8.209302325581392,
          "velocity": 0.28346456692913385,
          "duration": 0.023255813953486637
        },
        {
          "name": "D#5",
          "midi": 75,
          "time": 8.209302325581392,
          "velocity": 0.29133858267716534,
          "duration": 0.22093023255812838
        },
        {
          "name": "A4",
          "midi": 69,
          "time": 8.232558139534879,
          "velocity": 0.2755905511811024,
          "duration": 0.04651162790697683
        },
        {
          "name": "D#3",
          "midi": 51,
          "time": 8.279069767441856,
          "velocity": 0.2992125984251969,
          "duration": 0.023255813953486637
        },
        {
          "name": "C5",
          "midi": 72,
          "time": 8.279069767441856,
          "velocity": 0.2047244094488189,
          "duration": 0.046511627906973274
        },
        {
          "name": "G#6",
          "midi": 92,
          "time": 8.279069767441856,
          "velocity": 0.18110236220472442,
          "duration": 0.05813953488371659
        },
        {
          "name": "A6",
          "midi": 93,
          "time": 8.279069767441856,
          "velocity": 0.2047244094488189,
          "duration": 0.05813953488371659
        },
        {
          "name": "A4",
          "midi": 69,
          "time": 8.290697674418599,
          "velocity": 0.33070866141732286,
          "duration": 0.034883720930229956
        },
        {
          "name": "F4",
          "midi": 65,
          "time": 8.302325581395342,
          "velocity": 0.30708661417322836,
          "duration": 0.023255813953486637
        },
        {
          "name": "G5",
          "midi": 79,
          "time": 8.302325581395342,
          "velocity": 0.10236220472440945,
          "duration": 0.046511627906973274
        },
        {
          "name": "G#3",
          "midi": 56,
          "time": 8.325581395348829,
          "velocity": 0.28346456692913385,
          "duration": 0.023255813953486637
        },
        {
          "name": "D#4",
          "midi": 63,
          "time": 8.325581395348829,
          "velocity": 0.2755905511811024,
          "duration": 0.2093023255813815
        },
        {
          "name": "D#3",
          "midi": 51,
          "time": 8.348837209302316,
          "velocity": 0.25984251968503935,
          "duration": 0.023255813953486637
        },
        {
          "name": "G#3",
          "midi": 56,
          "time": 8.360465116279059,
          "velocity": 0.3937007874015748,
          "duration": 0.06976744186046169
        },
        {
          "name": "D3",
          "midi": 50,
          "time": 8.372093023255802,
          "velocity": 0.3543307086614173,
          "duration": 0.04651162790697505
        },
        {
          "name": "A4",
          "midi": 69,
          "time": 8.383720930232545,
          "velocity": 0.16535433070866143,
          "duration": 0.05813953488371837
        },
        {
          "name": "A#5",
          "midi": 82,
          "time": 8.383720930232545,
          "velocity": 0.10236220472440945,
          "duration": 0.04651162790697505
        },
        {
          "name": "F#3",
          "midi": 54,
          "time": 8.43023255813952,
          "velocity": 0.4881889763779528,
          "duration": 0.023255813953486637
        },
        {
          "name": "G4",
          "midi": 67,
          "time": 8.43023255813952,
          "velocity": 0.3464566929133858,
          "duration": 0.10465116279068987
        },
        {
          "name": "A6",
          "midi": 93,
          "time": 8.43023255813952,
          "velocity": 0.23622047244094488,
          "duration": 0.08139534883720323
        },
        {
          "name": "D5",
          "midi": 74,
          "time": 8.441860465116264,
          "velocity": 0.49606299212598426,
          "duration": 0.08139534883720323
        },
        {
          "name": "D7",
          "midi": 98,
          "time": 8.441860465116264,
          "velocity": 0.1732283464566929,
          "duration": 0.06976744186045991
        },
        {
          "name": "D#7",
          "midi": 99,
          "time": 8.441860465116264,
          "velocity": 0.16535433070866143,
          "duration": 0.05813953488371659
        },
        {
          "name": "G3",
          "midi": 55,
          "time": 8.453488372093007,
          "velocity": 0.49606299212598426,
          "duration": 0.06976744186045991
        },
        {
          "name": "B5",
          "midi": 83,
          "time": 8.453488372093007,
          "velocity": 0.14173228346456693,
          "duration": 0.05813953488371659
        },
        {
          "name": "C#7",
          "midi": 97,
          "time": 8.453488372093007,
          "velocity": 0.11023622047244094,
          "duration": 0.05813953488371659
        },
        {
          "name": "B6",
          "midi": 95,
          "time": 8.46511627906975,
          "velocity": 0.2755905511811024,
          "duration": 0.05813953488371659
        },
        {
          "name": "F7",
          "midi": 101,
          "time": 8.46511627906975,
          "velocity": 0.1732283464566929,
          "duration": 0.034883720930229956
        },
        {
          "name": "E7",
          "midi": 100,
          "time": 8.476744186046494,
          "velocity": 0.16535433070866143,
          "duration": 0.034883720930229956
        },
        {
          "name": "F#1",
          "midi": 30,
          "time": 8.488372093023237,
          "velocity": 0.6692913385826772,
          "duration": 0.011627906976743319
        },
        {
          "name": "E1",
          "midi": 28,
          "time": 8.49999999999998,
          "velocity": 0.5118110236220472,
          "duration": 0.011627906976743319
        },
        {
          "name": "F#3",
          "midi": 54,
          "time": 8.523255813953467,
          "velocity": 0.4094488188976378,
          "duration": 0.023255813953486637
        },
        {
          "name": "G#5",
          "midi": 80,
          "time": 8.523255813953467,
          "velocity": 0.07874015748031496,
          "duration": 0.034883720930229956
        },
        {
          "name": "D6",
          "midi": 86,
          "time": 8.523255813953467,
          "velocity": 0.1968503937007874,
          "duration": 0.05813953488371659
        },
        {
          "name": "D#1",
          "midi": 27,
          "time": 8.53488372093021,
          "velocity": 0.6456692913385826,
          "duration": 0.011627906976743319
        },
        {
          "name": "G#4",
          "midi": 68,
          "time": 8.53488372093021,
          "velocity": 0.2755905511811024,
          "duration": 0.023255813953486637
        },
        {
          "name": "G5",
          "midi": 79,
          "time": 8.53488372093021,
          "velocity": 0.33070866141732286,
          "duration": 0.33720930232556334
        },
        {
          "name": "C6",
          "midi": 84,
          "time": 8.53488372093021,
          "velocity": 0.1889763779527559,
          "duration": 0.034883720930229956
        },
        {
          "name": "D1",
          "midi": 26,
          "time": 8.546511627906954,
          "velocity": 0.7086614173228346,
          "duration": 0.011627906976743319
        },
        {
          "name": "C#1",
          "midi": 25,
          "time": 8.558139534883697,
          "velocity": 0.7322834645669292,
          "duration": 0.011627906976743319
        },
        {
          "name": "G4",
          "midi": 67,
          "time": 8.558139534883697,
          "velocity": 0.3937007874015748,
          "duration": 0.046511627906973274
        },
        {
          "name": "B0",
          "midi": 23,
          "time": 8.56976744186044,
          "velocity": 0.7559055118110236,
          "duration": 0.023255813953486637
        },
        {
          "name": "G#3",
          "midi": 56,
          "time": 8.56976744186044,
          "velocity": 0.4251968503937008,
          "duration": 0.023255813953486637
        },
        {
          "name": "C1",
          "midi": 24,
          "time": 8.593023255813927,
          "velocity": 0.7480314960629921,
          "duration": 0.15116279069766314
        },
        {
          "name": "F4",
          "midi": 65,
          "time": 8.593023255813927,
          "velocity": 0.44881889763779526,
          "duration": 0.023255813953486637
        },
        {
          "name": "C5",
          "midi": 72,
          "time": 8.593023255813927,
          "velocity": 0.23622047244094488,
          "duration": 0.023255813953486637
        },
        {
          "name": "G#3",
          "midi": 56,
          "time": 8.60465116279067,
          "velocity": 0.3779527559055118,
          "duration": 0.11627906976743319
        },
        {
          "name": "E7",
          "midi": 100,
          "time": 8.60465116279067,
          "velocity": 0.07086614173228346,
          "duration": 0.034883720930229956
        },
        {
          "name": "G4",
          "midi": 67,
          "time": 8.616279069767414,
          "velocity": 0.4094488188976378,
          "duration": 0.046511627906973274
        },
        {
          "name": "D#3",
          "midi": 51,
          "time": 8.627906976744157,
          "velocity": 0.3228346456692913,
          "duration": 0.023255813953486637
        },
        {
          "name": "D#4",
          "midi": 63,
          "time": 8.627906976744157,
          "velocity": 0.48031496062992124,
          "duration": 0.023255813953486637
        },
        {
          "name": "G2",
          "midi": 43,
          "time": 8.651162790697644,
          "velocity": 0.2677165354330709,
          "duration": 0.023255813953486637
        },
        {
          "name": "D4",
          "midi": 62,
          "time": 8.651162790697644,
          "velocity": 0.4094488188976378,
          "duration": 0.09302325581394655
        },
        {
          "name": "D#3",
          "midi": 51,
          "time": 8.662790697674387,
          "velocity": 0.33858267716535434,
          "duration": 0.023255813953486637
        },
        {
          "name": "D#5",
          "midi": 75,
          "time": 8.686046511627874,
          "velocity": 0.2283464566929134,
          "duration": 0.19767441860464352
        },
        {
          "name": "G2",
          "midi": 43,
          "time": 8.697674418604617,
          "velocity": 0.33858267716535434,
          "duration": 0.023255813953486637
        },
        {
          "name": "D#3",
          "midi": 51,
          "time": 8.70930232558136,
          "velocity": 0.47244094488188976,
          "duration": 0.20930232558138684
        },
        {
          "name": "G#3",
          "midi": 56,
          "time": 8.732558139534847,
          "velocity": 0.4015748031496063,
          "duration": 0.1046511627906952
        },
        {
          "name": "A#4",
          "midi": 70,
          "time": 8.732558139534847,
          "velocity": 0.3779527559055118,
          "duration": 0.17441860465115688
        },
        {
          "name": "C#1",
          "midi": 25,
          "time": 8.74418604651159,
          "velocity": 0.7165354330708661,
          "duration": 0.011627906976743319
        },
        {
          "name": "C1",
          "midi": 24,
          "time": 8.755813953488333,
          "velocity": 0.7480314960629921,
          "duration": 0.6627906976743922
        },
        {
          "name": "G#2",
          "midi": 44,
          "time": 8.755813953488333,
          "velocity": 0.2755905511811024,
          "duration": 0.023255813953488413
        },
        {
          "name": "F5",
          "midi": 77,
          "time": 8.779069767441822,
          "velocity": 0.2047244094488189,
          "duration": 0.12790697674418183
        },
        {
          "name": "G#4",
          "midi": 68,
          "time": 8.86046511627903,
          "velocity": 0.2755905511811024,
          "duration": 0.023255813953486637
        },
        {
          "name": "G#3",
          "midi": 56,
          "time": 8.883720930232517,
          "velocity": 0.4094488188976378,
          "duration": 0.18604651162789843
        },
        {
          "name": "G4",
          "midi": 67,
          "time": 8.883720930232517,
          "velocity": 0.3779527559055118,
          "duration": 0.08139534883720678
        },
        {
          "name": "G2",
          "midi": 43,
          "time": 8.89534883720926,
          "velocity": 0.31496062992125984,
          "duration": 0.023255813953486637
        },
        {
          "name": "D5",
          "midi": 74,
          "time": 8.89534883720926,
          "velocity": 0.29133858267716534,
          "duration": 0.06976744186046346
        },
        {
          "name": "D3",
          "midi": 50,
          "time": 8.918604651162747,
          "velocity": 0.25196850393700787,
          "duration": 0.023255813953488413
        },
        {
          "name": "D6",
          "midi": 86,
          "time": 8.965116279069724,
          "velocity": 0.14173228346456693,
          "duration": 0.081395348837205
        },
        {
          "name": "F5",
          "midi": 77,
          "time": 8.988372093023212,
          "velocity": 0.11811023622047244,
          "duration": 0.046511627906973274
        },
        {
          "name": "G2",
          "midi": 43,
          "time": 8.999999999999956,
          "velocity": 0.30708661417322836,
          "duration": 0.023255813953486637
        },
        {
          "name": "D4",
          "midi": 62,
          "time": 8.999999999999956,
          "velocity": 0.16535433070866143,
          "duration": 0.046511627906973274
        },
        {
          "name": "G5",
          "midi": 79,
          "time": 9.011627906976699,
          "velocity": 0.14173228346456693,
          "duration": 0.05813953488371659
        },
        {
          "name": "F4",
          "midi": 65,
          "time": 9.046511627906929,
          "velocity": 0.25196850393700787,
          "duration": 0.023255813953486637
        },
        {
          "name": "B4",
          "midi": 71,
          "time": 9.046511627906929,
          "velocity": 0.08661417322834646,
          "duration": 0.034883720930229956
        },
        {
          "name": "D#6",
          "midi": 87,
          "time": 9.046511627906929,
          "velocity": 0.28346456692913385,
          "duration": 0.36046511627905353
        },
        {
          "name": "D6",
          "midi": 86,
          "time": 9.058139534883672,
          "velocity": 0.15748031496062992,
          "duration": 0.24418604651161857
        },
        {
          "name": "G4",
          "midi": 67,
          "time": 9.069767441860416,
          "velocity": 0.1732283464566929,
          "duration": 0.04651162790697505
        },
        {
          "name": "G2",
          "midi": 43,
          "time": 9.081395348837159,
          "velocity": 0.33858267716535434,
          "duration": 0.03488372093023173
        },
        {
          "name": "G#3",
          "midi": 56,
          "time": 9.081395348837159,
          "velocity": 0.3937007874015748,
          "duration": 0.06976744186046169
        },
        {
          "name": "D#4",
          "midi": 63,
          "time": 9.081395348837159,
          "velocity": 0.29133858267716534,
          "duration": 0.023255813953488413
        },
        {
          "name": "F5",
          "midi": 77,
          "time": 9.081395348837159,
          "velocity": 0.09448818897637795,
          "duration": 0.04651162790697505
        },
        {
          "name": "G5",
          "midi": 79,
          "time": 9.11627906976739,
          "velocity": 0.2677165354330709,
          "duration": 0.49999999999997513
        },
        {
          "name": "D4",
          "midi": 62,
          "time": 9.127906976744134,
          "velocity": 0.2047244094488189,
          "duration": 0.08139534883720678
        },
        {
          "name": "E3",
          "midi": 52,
          "time": 9.139534883720877,
          "velocity": 0.23622047244094488,
          "duration": 0.03488372093023173
        },
        {
          "name": "G2",
          "midi": 43,
          "time": 9.186046511627852,
          "velocity": 0.31496062992125984,
          "duration": 0.023255813953488413
        },
        {
          "name": "G#3",
          "midi": 56,
          "time": 9.186046511627852,
          "velocity": 0.2755905511811024,
          "duration": 0.03488372093023173
        },
        {
          "name": "G#4",
          "midi": 68,
          "time": 9.20930232558134,
          "velocity": 0.31496062992125984,
          "duration": 0.04651162790697505
        },
        {
          "name": "A#4",
          "midi": 70,
          "time": 9.20930232558134,
          "velocity": 0.2283464566929134,
          "duration": 0.08139534883720678
        },
        {
          "name": "D#5",
          "midi": 75,
          "time": 9.20930232558134,
          "velocity": 0.18110236220472442,
          "duration": 0.05813953488371837
        },
        {
          "name": "G#2",
          "midi": 44,
          "time": 9.232558139534827,
          "velocity": 0.36220472440944884,
          "duration": 0.023255813953488413
        },
        {
          "name": "G#3",
          "midi": 56,
          "time": 9.232558139534827,
          "velocity": 0.4251968503937008,
          "duration": 0.1046511627906952
        },
        {
          "name": "D4",
          "midi": 62,
          "time": 9.290697674418547,
          "velocity": 0.2125984251968504,
          "duration": 0.12790697674417828
        },
        {
          "name": "F#4",
          "midi": 66,
          "time": 9.290697674418547,
          "velocity": 0.13385826771653545,
          "duration": 0.03488372093023173
        },
        {
          "name": "F5",
          "midi": 77,
          "time": 9.290697674418547,
          "velocity": 0.08661417322834646,
          "duration": 0.04651162790697505
        },
        {
          "name": "D#5",
          "midi": 75,
          "time": 9.30232558139529,
          "velocity": 0.07874015748031496,
          "duration": 0.04651162790697505
        },
        {
          "name": "G2",
          "midi": 43,
          "time": 9.32558139534878,
          "velocity": 0.33858267716535434,
          "duration": 0.023255813953486637
        },
        {
          "name": "F#4",
          "midi": 66,
          "time": 9.337209302325522,
          "velocity": 0.11023622047244094,
          "duration": 0.034883720930229956
        },
        {
          "name": "D5",
          "midi": 74,
          "time": 9.36046511627901,
          "velocity": 0.4094488188976378,
          "duration": 0.08139534883720323
        },
        {
          "name": "G#3",
          "midi": 56,
          "time": 9.372093023255752,
          "velocity": 0.3700787401574803,
          "duration": 0.023255813953486637
        },
        {
          "name": "G#5",
          "midi": 80,
          "time": 9.372093023255752,
          "velocity": 0.2440944881889764,
          "duration": 0.034883720930229956
        },
        {
          "name": "A5",
          "midi": 81,
          "time": 9.372093023255752,
          "velocity": 0.2755905511811024,
          "duration": 0.034883720930229956
        },
        {
          "name": "A#5",
          "midi": 82,
          "time": 9.372093023255752,
          "velocity": 0.1732283464566929,
          "duration": 0.034883720930229956
        },
        {
          "name": "E6",
          "midi": 88,
          "time": 9.372093023255752,
          "velocity": 0.16535433070866143,
          "duration": 0.034883720930229956
        },
        {
          "name": "G4",
          "midi": 67,
          "time": 9.383720930232496,
          "velocity": 0.23622047244094488,
          "duration": 0.034883720930229956
        },
        {
          "name": "F5",
          "midi": 77,
          "time": 9.383720930232496,
          "velocity": 0.33858267716535434,
          "duration": 0.023255813953486637
        },
        {
          "name": "C6",
          "midi": 84,
          "time": 9.383720930232496,
          "velocity": 0.23622047244094488,
          "duration": 0.023255813953486637
        },
        {
          "name": "G3",
          "midi": 55,
          "time": 9.395348837209239,
          "velocity": 0.3937007874015748,
          "duration": 0.023255813953486637
        },
        {
          "name": "B5",
          "midi": 83,
          "time": 9.406976744185982,
          "velocity": 0.4566929133858268,
          "duration": 0.6511627906976436
        },
        {
          "name": "C#1",
          "midi": 25,
          "time": 9.418604651162726,
          "velocity": 0.7086614173228346,
          "duration": 0.011627906976743319
        },
        {
          "name": "F#3",
          "midi": 54,
          "time": 9.418604651162726,
          "velocity": 0.3543307086614173,
          "duration": 0.023255813953486637
        },
        {
          "name": "D#6",
          "midi": 87,
          "time": 9.418604651162726,
          "velocity": 0.12598425196850394,
          "duration": 0.081395348837205
        },
        {
          "name": "C1",
          "midi": 24,
          "time": 9.430232558139469,
          "velocity": 0.7480314960629921,
          "duration": 0.2209302325581266
        },
        {
          "name": "G3",
          "midi": 55,
          "time": 9.441860465116212,
          "velocity": 0.5511811023622047,
          "duration": 0.19767441860463997
        },
        {
          "name": "G#4",
          "midi": 68,
          "time": 9.441860465116212,
          "velocity": 0.1968503937007874,
          "duration": 0.03488372093023173
        },
        {
          "name": "D7",
          "midi": 98,
          "time": 9.441860465116212,
          "velocity": 0.18110236220472442,
          "duration": 0.18604651162789665
        },
        {
          "name": "D#5",
          "midi": 75,
          "time": 9.453488372092956,
          "velocity": 0.2283464566929134,
          "duration": 0.04651162790697505
        },
        {
          "name": "F5",
          "midi": 77,
          "time": 9.453488372092956,
          "velocity": 0.12598425196850394,
          "duration": 0.06976744186046169
        },
        {
          "name": "D#4",
          "midi": 63,
          "time": 9.476744186046444,
          "velocity": 0.2204724409448819,
          "duration": 0.046511627906973274
        },
        {
          "name": "D6",
          "midi": 86,
          "time": 9.476744186046444,
          "velocity": 0.48031496062992124,
          "duration": 0.10465116279068987
        },
        {
          "name": "C6",
          "midi": 84,
          "time": 9.488372093023187,
          "velocity": 0.2440944881889764,
          "duration": 0.023255813953486637
        },
        {
          "name": "F#7",
          "midi": 102,
          "time": 9.488372093023187,
          "velocity": 0.12598425196850394,
          "duration": 0.08139534883720323
        },
        {
          "name": "D5",
          "midi": 74,
          "time": 9.49999999999993,
          "velocity": 0.33070866141732286,
          "duration": 0.06976744186045991
        },
        {
          "name": "G7",
          "midi": 103,
          "time": 9.49999999999993,
          "velocity": 0.25984251968503935,
          "duration": 0.08139534883720323
        },
        {
          "name": "B4",
          "midi": 71,
          "time": 9.523255813953417,
          "velocity": 0.09448818897637795,
          "duration": 0.034883720930229956
        },
        {
          "name": "F6",
          "midi": 89,
          "time": 9.523255813953417,
          "velocity": 0.10236220472440945,
          "duration": 0.046511627906973274
        },
        {
          "name": "D#4",
          "midi": 63,
          "time": 9.53488372093016,
          "velocity": 0.30708661417322836,
          "duration": 0.29069767441859184
        },
        {
          "name": "D#6",
          "midi": 87,
          "time": 9.546511627906904,
          "velocity": 0.2047244094488189,
          "duration": 0.10465116279069164
        },
        {
          "name": "G#3",
          "midi": 56,
          "time": 9.639534883720852,
          "velocity": 0.5039370078740157,
          "duration": 0.023255813953486637
        },
        {
          "name": "D5",
          "midi": 74,
          "time": 9.639534883720852,
          "velocity": 0.33070866141732286,
          "duration": 0.11627906976743851
        },
        {
          "name": "C#1",
          "midi": 25,
          "time": 9.651162790697596,
          "velocity": 0.6929133858267716,
          "duration": 0.011627906976743319
        },
        {
          "name": "G4",
          "midi": 67,
          "time": 9.651162790697596,
          "velocity": 0.4330708661417323,
          "duration": 0.13953488372092693
        },
        {
          "name": "A#4",
          "midi": 70,
          "time": 9.651162790697596,
          "velocity": 0.1732283464566929,
          "duration": 0.058139534883720145
        },
        {
          "name": "D6",
          "midi": 86,
          "time": 9.651162790697596,
          "velocity": 0.4094488188976378,
          "duration": 0.09302325581395188
        },
        {
          "name": "G7",
          "midi": 103,
          "time": 9.651162790697596,
          "velocity": 0.2125984251968504,
          "duration": 0.09302325581395188
        },
        {
          "name": "C1",
          "midi": 24,
          "time": 9.662790697674339,
          "velocity": 0.7480314960629921,
          "duration": 0.16279069767441356
        },
        {
          "name": "G3",
          "midi": 55,
          "time": 9.662790697674339,
          "velocity": 0.5354330708661418,
          "duration": 0.40697674418603036
        },
        {
          "name": "D#6",
          "midi": 87,
          "time": 9.662790697674339,
          "velocity": 0.11023622047244094,
          "duration": 0.04651162790697683
        },
        {
          "name": "F6",
          "midi": 89,
          "time": 9.662790697674339,
          "velocity": 0.12598425196850394,
          "duration": 0.06976744186046524
        },
        {
          "name": "F#7",
          "midi": 102,
          "time": 9.662790697674339,
          "velocity": 0.13385826771653545,
          "duration": 0.08139534883720856
        },
        {
          "name": "D#7",
          "midi": 99,
          "time": 9.767441860465034,
          "velocity": 0.08661417322834646,
          "duration": 0.03488372093023173
        },
        {
          "name": "D5",
          "midi": 74,
          "time": 9.81395348837201,
          "velocity": 0.3858267716535433,
          "duration": 0.2558139534883601
        },
        {
          "name": "D6",
          "midi": 86,
          "time": 9.81395348837201,
          "velocity": 0.4094488188976378,
          "duration": 0.2441860465116168
        },
        {
          "name": "G7",
          "midi": 103,
          "time": 9.81395348837201,
          "velocity": 0.25196850393700787,
          "duration": 0.13953488372092337
        },
        {
          "name": "C#1",
          "midi": 25,
          "time": 9.825581395348753,
          "velocity": 0.7480314960629921,
          "duration": 0.011627906976743319
        },
        {
          "name": "D1",
          "midi": 26,
          "time": 9.837209302325496,
          "velocity": 0.6929133858267716,
          "duration": 0.011627906976743319
        },
        {
          "name": "D#4",
          "midi": 63,
          "time": 9.837209302325496,
          "velocity": 0.2047244094488189,
          "duration": 0.26744186046510343
        },
        {
          "name": "F6",
          "midi": 89,
          "time": 9.837209302325496,
          "velocity": 0.36220472440944884,
          "duration": 0.22093023255813016
        },
        {
          "name": "D#7",
          "midi": 99,
          "time": 9.837209302325496,
          "velocity": 0.33858267716535434,
          "duration": 0.3023255813953334
        },
        {
          "name": "F#7",
          "midi": 102,
          "time": 9.837209302325496,
          "velocity": 0.1889763779527559,
          "duration": 0.3023255813953334
        },
        {
          "name": "A#0",
          "midi": 22,
          "time": 9.84883720930224,
          "velocity": 0.5984251968503937,
          "duration": 0.011627906976743319
        },
        {
          "name": "E0",
          "midi": 16,
          "time": 9.860465116278982,
          "velocity": 0.5039370078740157,
          "duration": 0.023255813953488413
        },
        {
          "name": "G6",
          "midi": 91,
          "time": 9.860465116278982,
          "velocity": 0.4015748031496063,
          "duration": 0.22093023255813016
        },
        {
          "name": "C7",
          "midi": 96,
          "time": 9.860465116278982,
          "velocity": 0.11023622047244094,
          "duration": 0.058139534883720145
        },
        {
          "name": "A6",
          "midi": 93,
          "time": 9.883720930232471,
          "velocity": 0.13385826771653545,
          "duration": 0.05813953488371837
        },
        {
          "name": "F#0",
          "midi": 18,
          "time": 9.895348837209214,
          "velocity": 0.33858267716535434,
          "duration": 0.023255813953488413
        },
        {
          "name": "G#5",
          "midi": 80,
          "time": 9.930232558139446,
          "velocity": 0.10236220472440945,
          "duration": 0.034883720930229956
        },
        {
          "name": "E7",
          "midi": 100,
          "time": 9.953488372092933,
          "velocity": 0.14173228346456693,
          "duration": 0.05813953488371837
        },
        {
          "name": "A6",
          "midi": 93,
          "time": 9.97674418604642,
          "velocity": 0.12598425196850394,
          "duration": 0.06976744186046346
        },
        {
          "name": "F#6",
          "midi": 90,
          "time": 10.046511627906883,
          "velocity": 0.2755905511811024,
          "duration": 0.17441860465115155
        },
        {
          "name": "G#6",
          "midi": 92,
          "time": 10.046511627906883,
          "velocity": 0.3464566929133858,
          "duration": 0.1279069767441765
        },
        {
          "name": "E7",
          "midi": 100,
          "time": 10.046511627906883,
          "velocity": 0.2125984251968504,
          "duration": 0.034883720930229956
        },
        {
          "name": "D#5",
          "midi": 75,
          "time": 10.058139534883626,
          "velocity": 0.29133858267716534,
          "duration": 0.046511627906973274
        },
        {
          "name": "C6",
          "midi": 84,
          "time": 10.058139534883626,
          "velocity": 0.1732283464566929,
          "duration": 0.11627906976743319
        },
        {
          "name": "G#3",
          "midi": 56,
          "time": 10.06976744186037,
          "velocity": 0.4645669291338583,
          "duration": 0.15116279069766492
        },
        {
          "name": "G#5",
          "midi": 80,
          "time": 10.06976744186037,
          "velocity": 0.2204724409448819,
          "duration": 0.11627906976743319
        },
        {
          "name": "B5",
          "midi": 83,
          "time": 10.081395348837113,
          "velocity": 0.13385826771653545,
          "duration": 0.034883720930229956
        },
        {
          "name": "F7",
          "midi": 101,
          "time": 10.081395348837113,
          "velocity": 0.16535433070866143,
          "duration": 0.034883720930229956
        },
        {
          "name": "B4",
          "midi": 71,
          "time": 10.093023255813856,
          "velocity": 0.2047244094488189,
          "duration": 0.034883720930229956
        },
        {
          "name": "A#5",
          "midi": 82,
          "time": 10.093023255813856,
          "velocity": 0.10236220472440945,
          "duration": 0.034883720930229956
        },
        {
          "name": "D5",
          "midi": 74,
          "time": 10.1046511627906,
          "velocity": 0.3937007874015748,
          "duration": 0.33720930232556334
        },
        {
          "name": "A#6",
          "midi": 94,
          "time": 10.1046511627906,
          "velocity": 0.11811023622047244,
          "duration": 0.05813953488371659
        },
        {
          "name": "G7",
          "midi": 103,
          "time": 10.1046511627906,
          "velocity": 0.14173228346456693,
          "duration": 0.046511627906973274
        },
        {
          "name": "E7",
          "midi": 100,
          "time": 10.116279069767343,
          "velocity": 0.15748031496062992,
          "duration": 0.06976744186045991
        },
        {
          "name": "D4",
          "midi": 62,
          "time": 10.127906976744086,
          "velocity": 0.2755905511811024,
          "duration": 0.2093023255813833
        },
        {
          "name": "C#7",
          "midi": 97,
          "time": 10.127906976744086,
          "velocity": 0.12598425196850394,
          "duration": 0.046511627906973274
        },
        {
          "name": "A5",
          "midi": 81,
          "time": 10.151162790697573,
          "velocity": 0.08661417322834646,
          "duration": 0.09302325581394832
        },
        {
          "name": "B4",
          "midi": 71,
          "time": 10.209302325581291,
          "velocity": 0.1732283464566929,
          "duration": 0.046511627906973274
        },
        {
          "name": "G5",
          "midi": 79,
          "time": 10.209302325581291,
          "velocity": 0.33070866141732286,
          "duration": 0.16279069767440824
        },
        {
          "name": "F6",
          "midi": 89,
          "time": 10.209302325581291,
          "velocity": 0.1732283464566929,
          "duration": 0.05813953488371659
        },
        {
          "name": "G3",
          "midi": 55,
          "time": 10.220930232558034,
          "velocity": 0.4645669291338583,
          "duration": 0.11627906976743496
        },
        {
          "name": "A6",
          "midi": 93,
          "time": 10.232558139534778,
          "velocity": 0.3228346456692913,
          "duration": 0.11627906976743496
        },
        {
          "name": "D7",
          "midi": 98,
          "time": 10.24418604651152,
          "velocity": 0.07086614173228346,
          "duration": 0.034883720930229956
        },
        {
          "name": "A#4",
          "midi": 70,
          "time": 10.255813953488264,
          "velocity": 0.15748031496062992,
          "duration": 0.034883720930229956
        },
        {
          "name": "B5",
          "midi": 83,
          "time": 10.255813953488264,
          "velocity": 0.16535433070866143,
          "duration": 0.081395348837205
        },
        {
          "name": "A#4",
          "midi": 70,
          "time": 10.302325581395237,
          "velocity": 0.1732283464566929,
          "duration": 0.04651162790697505
        },
        {
          "name": "F6",
          "midi": 89,
          "time": 10.33720930232547,
          "velocity": 0.1968503937007874,
          "duration": 0.05813953488371837
        },
        {
          "name": "F3",
          "midi": 53,
          "time": 10.348837209302213,
          "velocity": 0.4881889763779528,
          "duration": 0.11627906976743851
        },
        {
          "name": "C5",
          "midi": 72,
          "time": 10.360465116278956,
          "velocity": 0.2440944881889764,
          "duration": 0.1046511627906952
        },
        {
          "name": "A5",
          "midi": 81,
          "time": 10.360465116278956,
          "velocity": 0.11023622047244094,
          "duration": 0.03488372093023173
        },
        {
          "name": "G5",
          "midi": 79,
          "time": 10.40697674418593,
          "velocity": 0.28346456692913385,
          "duration": 0.24418604651162035
        },
        {
          "name": "A5",
          "midi": 81,
          "time": 10.441860465116163,
          "velocity": 0.14173228346456693,
          "duration": 0.03488372093023173
        },
        {
          "name": "D5",
          "midi": 74,
          "time": 10.465116279069651,
          "velocity": 0.2204724409448819,
          "duration": 0.06976744186046346
        },
        {
          "name": "D#3",
          "midi": 51,
          "time": 10.476744186046394,
          "velocity": 0.4566929133858268,
          "duration": 0.023255813953488413
        },
        {
          "name": "E3",
          "midi": 52,
          "time": 10.499999999999883,
          "velocity": 0.4881889763779528,
          "duration": 0.023255813953488413
        },
        {
          "name": "D#3",
          "midi": 51,
          "time": 10.523255813953371,
          "velocity": 0.5039370078740157,
          "duration": 0.023255813953486637
        },
        {
          "name": "G4",
          "midi": 67,
          "time": 10.523255813953371,
          "velocity": 0.1732283464566929,
          "duration": 0.046511627906973274
        },
        {
          "name": "A#4",
          "midi": 70,
          "time": 10.523255813953371,
          "velocity": 0.3543307086614173,
          "duration": 0.44186046511625676
        },
        {
          "name": "B5",
          "midi": 83,
          "time": 10.534883720930114,
          "velocity": 0.18110236220472442,
          "duration": 0.06976744186045991
        },
        {
          "name": "F#6",
          "midi": 90,
          "time": 10.534883720930114,
          "velocity": 0.08661417322834646,
          "duration": 0.05813953488371659
        },
        {
          "name": "G#6",
          "midi": 92,
          "time": 10.534883720930114,
          "velocity": 0.16535433070866143,
          "duration": 0.06976744186045991
        },
        {
          "name": "E3",
          "midi": 52,
          "time": 10.546511627906858,
          "velocity": 0.4645669291338583,
          "duration": 0.023255813953486637
        },
        {
          "name": "C6",
          "midi": 84,
          "time": 10.546511627906858,
          "velocity": 0.14173228346456693,
          "duration": 0.034883720930229956
        },
        {
          "name": "D#6",
          "midi": 87,
          "time": 10.546511627906858,
          "velocity": 0.33858267716535434,
          "duration": 0.034883720930229956
        },
        {
          "name": "D6",
          "midi": 86,
          "time": 10.558139534883601,
          "velocity": 0.3779527559055118,
          "duration": 0.13953488372092515
        },
        {
          "name": "D#3",
          "midi": 51,
          "time": 10.569767441860344,
          "velocity": 0.44881889763779526,
          "duration": 0.20930232558138684
        },
        {
          "name": "G#4",
          "midi": 68,
          "time": 10.569767441860344,
          "velocity": 0.1968503937007874,
          "duration": 0.0930232558139501
        },
        {
          "name": "C#6",
          "midi": 85,
          "time": 10.569767441860344,
          "velocity": 0.1968503937007874,
          "duration": 0.034883720930229956
        },
        {
          "name": "G4",
          "midi": 67,
          "time": 10.662790697674295,
          "velocity": 0.30708661417322836,
          "duration": 0.10465116279069342
        },
        {
          "name": "C5",
          "midi": 72,
          "time": 10.70930232558127,
          "velocity": 0.3543307086614173,
          "duration": 0.023255813953486637
        },
        {
          "name": "F#5",
          "midi": 78,
          "time": 10.70930232558127,
          "velocity": 0.2992125984251969,
          "duration": 0.023255813953486637
        },
        {
          "name": "E5",
          "midi": 76,
          "time": 10.720930232558013,
          "velocity": 0.23622047244094488,
          "duration": 0.023255813953486637
        },
        {
          "name": "D5",
          "midi": 74,
          "time": 10.7441860465115,
          "velocity": 0.3937007874015748,
          "duration": 0.1511627906976667
        },
        {
          "name": "F5",
          "midi": 77,
          "time": 10.7441860465115,
          "velocity": 0.3858267716535433,
          "duration": 0.12790697674418006
        },
        {
          "name": "G#5",
          "midi": 80,
          "time": 10.7441860465115,
          "velocity": 0.23622047244094488,
          "duration": 0.023255813953488413
        },
        {
          "name": "A#1",
          "midi": 34,
          "time": 10.767441860464988,
          "velocity": 0.6141732283464567,
          "duration": 0.011627906976743319
        },
        {
          "name": "G1",
          "midi": 31,
          "time": 10.779069767441731,
          "velocity": 0.7559055118110236,
          "duration": 0.023255813953486637
        },
        {
          "name": "A5",
          "midi": 81,
          "time": 10.779069767441731,
          "velocity": 0.2677165354330709,
          "duration": 0.05813953488371659
        },
        {
          "name": "C6",
          "midi": 84,
          "time": 10.779069767441731,
          "velocity": 0.28346456692913385,
          "duration": 0.05813953488371659
        },
        {
          "name": "D4",
          "midi": 62,
          "time": 10.790697674418475,
          "velocity": 0.30708661417322836,
          "duration": 0.023255813953486637
        },
        {
          "name": "G#4",
          "midi": 68,
          "time": 10.790697674418475,
          "velocity": 0.25984251968503935,
          "duration": 0.023255813953486637
        },
        {
          "name": "G#1",
          "midi": 32,
          "time": 10.802325581395218,
          "velocity": 0.7637795275590551,
          "duration": 0.6046511627906614
        },
        {
          "name": "C4",
          "midi": 60,
          "time": 10.813953488371961,
          "velocity": 0.2755905511811024,
          "duration": 0.023255813953486637
        },
        {
          "name": "F4",
          "midi": 65,
          "time": 10.813953488371961,
          "velocity": 0.30708661417322836,
          "duration": 0.023255813953486637
        },
        {
          "name": "D#3",
          "midi": 51,
          "time": 10.825581395348705,
          "velocity": 0.2992125984251969,
          "duration": 0.1511627906976667
        },
        {
          "name": "B5",
          "midi": 83,
          "time": 10.825581395348705,
          "velocity": 0.25984251968503935,
          "duration": 0.04651162790697505
        },
        {
          "name": "D#4",
          "midi": 63,
          "time": 10.837209302325448,
          "velocity": 0.41732283464566927,
          "duration": 0.04651162790697505
        },
        {
          "name": "A#5",
          "midi": 82,
          "time": 10.87209302325568,
          "velocity": 0.36220472440944884,
          "duration": 0.31395348837207493
        },
        {
          "name": "F4",
          "midi": 65,
          "time": 10.883720930232423,
          "velocity": 0.3543307086614173,
          "duration": 0.04651162790697505
        },
        {
          "name": "C4",
          "midi": 60,
          "time": 10.895348837209166,
          "velocity": 0.2283464566929134,
          "duration": 0.05813953488371837
        },
        {
          "name": "D5",
          "midi": 74,
          "time": 10.90697674418591,
          "velocity": 0.25196850393700787,
          "duration": 0.023255813953488413
        },
        {
          "name": "G#3",
          "midi": 56,
          "time": 10.930232558139398,
          "velocity": 0.25196850393700787,
          "duration": 0.034883720930229956
        },
        {
          "name": "D#4",
          "midi": 63,
          "time": 10.930232558139398,
          "velocity": 0.33070866141732286,
          "duration": 0.034883720930229956
        },
        {
          "name": "F#4",
          "midi": 66,
          "time": 10.941860465116141,
          "velocity": 0.14173228346456693,
          "duration": 0.034883720930229956
        },
        {
          "name": "D5",
          "midi": 74,
          "time": 10.953488372092885,
          "velocity": 0.18110236220472442,
          "duration": 0.06976744186046169
        },
        {
          "name": "D4",
          "midi": 62,
          "time": 10.965116279069628,
          "velocity": 0.3700787401574803,
          "duration": 0.023255813953486637
        },
        {
          "name": "A#4",
          "midi": 70,
          "time": 10.976744186046371,
          "velocity": 0.3464566929133858,
          "duration": 0.12790697674418006
        },
        {
          "name": "D#3",
          "midi": 51,
          "time": 10.988372093023115,
          "velocity": 0.28346456692913385,
          "duration": 0.04651162790697505
        },
        {
          "name": "F5",
          "midi": 77,
          "time": 10.988372093023115,
          "velocity": 0.2283464566929134,
          "duration": 0.10465116279069342
        },
        {
          "name": "A3",
          "midi": 57,
          "time": 10.999999999999858,
          "velocity": 0.31496062992125984,
          "duration": 0.03488372093023173
        },
        {
          "name": "F#4",
          "midi": 66,
          "time": 11.023255813953346,
          "velocity": 0.1732283464566929,
          "duration": 0.034883720930229956
        },
        {
          "name": "D#4",
          "midi": 63,
          "time": 11.03488372093009,
          "velocity": 0.3779527559055118,
          "duration": 0.05813953488371837
        },
        {
          "name": "D5",
          "midi": 74,
          "time": 11.03488372093009,
          "velocity": 0.18110236220472442,
          "duration": 0.05813953488371837
        },
        {
          "name": "D#3",
          "midi": 51,
          "time": 11.046511627906833,
          "velocity": 0.36220472440944884,
          "duration": 0.11627906976743496
        },
        {
          "name": "G5",
          "midi": 79,
          "time": 11.046511627906833,
          "velocity": 0.07874015748031496,
          "duration": 0.04651162790697505
        },
        {
          "name": "F#4",
          "midi": 66,
          "time": 11.081395348837065,
          "velocity": 0.18110236220472442,
          "duration": 0.06976744186045991
        },
        {
          "name": "C4",
          "midi": 60,
          "time": 11.093023255813808,
          "velocity": 0.1732283464566929,
          "duration": 0.046511627906973274
        },
        {
          "name": "D#5",
          "midi": 75,
          "time": 11.093023255813808,
          "velocity": 0.2440944881889764,
          "duration": 0.05813953488371659
        },
        {
          "name": "A#4",
          "midi": 70,
          "time": 11.116279069767295,
          "velocity": 0.08661417322834646,
          "duration": 0.1279069767441765
        },
        {
          "name": "C6",
          "midi": 84,
          "time": 11.116279069767295,
          "velocity": 0.1968503937007874,
          "duration": 0.05813953488371659
        },
        {
          "name": "A5",
          "midi": 81,
          "time": 11.127906976744038,
          "velocity": 0.09448818897637795,
          "duration": 0.034883720930229956
        },
        {
          "name": "G#4",
          "midi": 68,
          "time": 11.139534883720781,
          "velocity": 0.25984251968503935,
          "duration": 0.023255813953486637
        },
        {
          "name": "C4",
          "midi": 60,
          "time": 11.151162790697525,
          "velocity": 0.23622047244094488,
          "duration": 0.023255813953486637
        },
        {
          "name": "D5",
          "midi": 74,
          "time": 11.151162790697525,
          "velocity": 0.5118110236220472,
          "duration": 0.08139534883720323
        },
        {
          "name": "G5",
          "midi": 79,
          "time": 11.151162790697525,
          "velocity": 0.3700787401574803,
          "duration": 0.08139534883720323
        },
        {
          "name": "G6",
          "midi": 91,
          "time": 11.151162790697525,
          "velocity": 0.3937007874015748,
          "duration": 0.11627906976743319
        },
        {
          "name": "G#6",
          "midi": 92,
          "time": 11.151162790697525,
          "velocity": 0.10236220472440945,
          "duration": 0.034883720930229956
        },
        {
          "name": "A6",
          "midi": 93,
          "time": 11.151162790697525,
          "velocity": 0.2283464566929134,
          "duration": 0.08139534883720323
        },
        {
          "name": "G3",
          "midi": 55,
          "time": 11.162790697674268,
          "velocity": 0.41732283464566927,
          "duration": 0.06976744186045991
        },
        {
          "name": "B5",
          "midi": 83,
          "time": 11.162790697674268,
          "velocity": 0.33858267716535434,
          "duration": 0.08139534883720323
        },
        {
          "name": "F6",
          "midi": 89,
          "time": 11.162790697674268,
          "velocity": 0.1889763779527559,
          "duration": 0.046511627906973274
        },
        {
          "name": "D#7",
          "midi": 99,
          "time": 11.162790697674268,
          "velocity": 0.28346456692913385,
          "duration": 0.10465116279068987
        },
        {
          "name": "D7",
          "midi": 98,
          "time": 11.186046511627755,
          "velocity": 0.2440944881889764,
          "duration": 0.09302325581394655
        },
        {
          "name": "F#7",
          "midi": 102,
          "time": 11.186046511627755,
          "velocity": 0.14173228346456693,
          "duration": 0.046511627906973274
        },
        {
          "name": "D#4",
          "midi": 63,
          "time": 11.197674418604498,
          "velocity": 0.2755905511811024,
          "duration": 0.034883720930229956
        },
        {
          "name": "G#4",
          "midi": 68,
          "time": 11.220930232557984,
          "velocity": 0.4094488188976378,
          "duration": 0.034883720930229956
        },
        {
          "name": "A#5",
          "midi": 82,
          "time": 11.220930232557984,
          "velocity": 0.2125984251968504,
          "duration": 0.11627906976743496
        },
        {
          "name": "F#6",
          "midi": 90,
          "time": 11.220930232557984,
          "velocity": 0.2755905511811024,
          "duration": 0.034883720930229956
        },
        {
          "name": "G#6",
          "midi": 92,
          "time": 11.220930232557984,
          "velocity": 0.2204724409448819,
          "duration": 0.034883720930229956
        },
        {
          "name": "G#3",
          "midi": 56,
          "time": 11.232558139534728,
          "velocity": 0.4566929133858268,
          "duration": 0.081395348837205
        },
        {
          "name": "D#5",
          "midi": 75,
          "time": 11.232558139534728,
          "velocity": 0.4251968503937008,
          "duration": 0.09302325581394832
        },
        {
          "name": "A5",
          "midi": 81,
          "time": 11.232558139534728,
          "velocity": 0.11023622047244094,
          "duration": 0.09302325581394832
        },
        {
          "name": "D#4",
          "midi": 63,
          "time": 11.244186046511471,
          "velocity": 0.2992125984251969,
          "duration": 0.034883720930229956
        },
        {
          "name": "G4",
          "midi": 67,
          "time": 11.255813953488214,
          "velocity": 0.4015748031496063,
          "duration": 0.034883720930229956
        },
        {
          "name": "F6",
          "midi": 89,
          "time": 11.255813953488214,
          "velocity": 0.3937007874015748,
          "duration": 0.05813953488371837
        },
        {
          "name": "D#4",
          "midi": 63,
          "time": 11.290697674418444,
          "velocity": 0.31496062992125984,
          "duration": 0.05813953488371837
        },
        {
          "name": "G3",
          "midi": 55,
          "time": 11.313953488371933,
          "velocity": 0.48031496062992124,
          "duration": 0.16279069767440646
        },
        {
          "name": "D6",
          "midi": 86,
          "time": 11.313953488371933,
          "velocity": 0.33858267716535434,
          "duration": 0.2093023255813815
        },
        {
          "name": "F#6",
          "midi": 90,
          "time": 11.313953488371933,
          "velocity": 0.30708661417322836,
          "duration": 0.023255813953486637
        },
        {
          "name": "D5",
          "midi": 74,
          "time": 11.325581395348676,
          "velocity": 0.33858267716535434,
          "duration": 0.06976744186045991
        },
        {
          "name": "B5",
          "midi": 83,
          "time": 11.325581395348676,
          "velocity": 0.4251968503937008,
          "duration": 0.1976744186046382
        },
        {
          "name": "F6",
          "midi": 89,
          "time": 11.325581395348676,
          "velocity": 0.2992125984251969,
          "duration": 0.034883720930229956
        },
        {
          "name": "D7",
          "midi": 98,
          "time": 11.33720930232542,
          "velocity": 0.33858267716535434,
          "duration": 0.22093023255812483
        },
        {
          "name": "F5",
          "midi": 77,
          "time": 11.360465116278906,
          "velocity": 0.10236220472440945,
          "duration": 0.05813953488371659
        },
        {
          "name": "D#4",
          "midi": 63,
          "time": 11.37209302325565,
          "velocity": 0.2283464566929134,
          "duration": 0.023255813953486637
        },
        {
          "name": "D#5",
          "midi": 75,
          "time": 11.383720930232393,
          "velocity": 0.28346456692913385,
          "duration": 0.046511627906973274
        },
        {
          "name": "F#1",
          "midi": 30,
          "time": 11.40697674418588,
          "velocity": 0.6456692913385826,
          "duration": 0.011627906976743319
        },
        {
          "name": "C7",
          "midi": 96,
          "time": 11.418604651162623,
          "velocity": 0.11023622047244094,
          "duration": 0.081395348837205
        },
        {
          "name": "F1",
          "midi": 29,
          "time": 11.430232558139366,
          "velocity": 0.6220472440944882,
          "duration": 0.023255813953486637
        },
        {
          "name": "D5",
          "midi": 74,
          "time": 11.430232558139366,
          "velocity": 0.3228346456692913,
          "duration": 0.11627906976743496
        },
        {
          "name": "F6",
          "midi": 89,
          "time": 11.430232558139366,
          "velocity": 0.33070866141732286,
          "duration": 0.11627906976743496
        },
        {
          "name": "G7",
          "midi": 103,
          "time": 11.44186046511611,
          "velocity": 0.14173228346456693,
          "duration": 0.081395348837205
        },
        {
          "name": "G1",
          "midi": 31,
          "time": 11.453488372092853,
          "velocity": 0.7795275590551181,
          "duration": 0.6279069767441445
        },
        {
          "name": "F5",
          "midi": 77,
          "time": 11.453488372092853,
          "velocity": 0.29133858267716534,
          "duration": 0.6744186046511178
        },
        {
          "name": "A#5",
          "midi": 82,
          "time": 11.465116279069596,
          "velocity": 0.15748031496062992,
          "duration": 0.03488372093023173
        },
        {
          "name": "G6",
          "midi": 91,
          "time": 11.465116279069596,
          "velocity": 0.3700787401574803,
          "duration": 0.09302325581394832
        },
        {
          "name": "D#7",
          "midi": 99,
          "time": 11.465116279069596,
          "velocity": 0.14960629921259844,
          "duration": 0.06976744186046169
        },
        {
          "name": "G#3",
          "midi": 56,
          "time": 11.47674418604634,
          "velocity": 0.4330708661417323,
          "duration": 0.03488372093023173
        },
        {
          "name": "G4",
          "midi": 67,
          "time": 11.47674418604634,
          "velocity": 0.2992125984251969,
          "duration": 0.023255813953488413
        },
        {
          "name": "A6",
          "midi": 93,
          "time": 11.47674418604634,
          "velocity": 0.23622047244094488,
          "duration": 0.081395348837205
        },
        {
          "name": "C#7",
          "midi": 97,
          "time": 11.499999999999828,
          "velocity": 0.16535433070866143,
          "duration": 0.05813953488371659
        },
        {
          "name": "G3",
          "midi": 55,
          "time": 11.523255813953314,
          "velocity": 0.44881889763779526,
          "duration": 0.034883720930229956
        },
        {
          "name": "A#5",
          "midi": 82,
          "time": 11.523255813953314,
          "velocity": 0.15748031496062992,
          "duration": 0.034883720930229956
        },
        {
          "name": "C#5",
          "midi": 73,
          "time": 11.534883720930058,
          "velocity": 0.11023622047244094,
          "duration": 0.046511627906973274
        },
        {
          "name": "D#5",
          "midi": 75,
          "time": 11.534883720930058,
          "velocity": 0.1732283464566929,
          "duration": 0.046511627906973274
        },
        {
          "name": "G#3",
          "midi": 56,
          "time": 11.558139534883544,
          "velocity": 0.29133858267716534,
          "duration": 0.023255813953486637
        },
        {
          "name": "F4",
          "midi": 65,
          "time": 11.558139534883544,
          "velocity": 0.16535433070866143,
          "duration": 0.04651162790697505
        },
        {
          "name": "A#5",
          "midi": 82,
          "time": 11.569767441860288,
          "velocity": 0.11023622047244094,
          "duration": 0.05813953488371837
        },
        {
          "name": "G3",
          "midi": 55,
          "time": 11.60465116279052,
          "velocity": 0.41732283464566927,
          "duration": 0.046511627906973274
        },
        {
          "name": "D#5",
          "midi": 75,
          "time": 11.60465116279052,
          "velocity": 0.31496062992125984,
          "duration": 0.05813953488371659
        },
        {
          "name": "F6",
          "midi": 89,
          "time": 11.60465116279052,
          "velocity": 0.3464566929133858,
          "duration": 0.10465116279068987
        },
        {
          "name": "G6",
          "midi": 91,
          "time": 11.60465116279052,
          "velocity": 0.2204724409448819,
          "duration": 0.08139534883720323
        },
        {
          "name": "G5",
          "midi": 79,
          "time": 11.616279069767263,
          "velocity": 0.2125984251968504,
          "duration": 0.11627906976743319
        },
        {
          "name": "D7",
          "midi": 98,
          "time": 11.616279069767263,
          "velocity": 0.2440944881889764,
          "duration": 0.08139534883720323
        },
        {
          "name": "D3",
          "midi": 50,
          "time": 11.627906976744006,
          "velocity": 0.31496062992125984,
          "duration": 0.023255813953486637
        },
        {
          "name": "A4",
          "midi": 69,
          "time": 11.627906976744006,
          "velocity": 0.36220472440944884,
          "duration": 0.023255813953486637
        },
        {
          "name": "B5",
          "midi": 83,
          "time": 11.627906976744006,
          "velocity": 0.2283464566929134,
          "duration": 0.10465116279068987
        },
        {
          "name": "D6",
          "midi": 86,
          "time": 11.63953488372075,
          "velocity": 0.31496062992125984,
          "duration": 0.08139534883720323
        },
        {
          "name": "F#3",
          "midi": 54,
          "time": 11.651162790697493,
          "velocity": 0.29133858267716534,
          "duration": 0.023255813953486637
        },
        {
          "name": "D5",
          "midi": 74,
          "time": 11.651162790697493,
          "velocity": 0.4566929133858268,
          "duration": 0.09302325581394655
        },
        {
          "name": "D#7",
          "midi": 99,
          "time": 11.662790697674236,
          "velocity": 0.11811023622047244,
          "duration": 0.046511627906973274
        },
        {
          "name": "D#4",
          "midi": 63,
          "time": 11.67441860465098,
          "velocity": 0.18110236220472442,
          "duration": 0.11627906976743496
        },
        {
          "name": "G#3",
          "midi": 56,
          "time": 11.686046511627723,
          "velocity": 0.4251968503937008,
          "duration": 0.023255813953486637
        },
        {
          "name": "C#6",
          "midi": 85,
          "time": 11.686046511627723,
          "velocity": 0.18110236220472442,
          "duration": 0.046511627906973274
        },
        {
          "name": "G3",
          "midi": 55,
          "time": 11.70930232558121,
          "velocity": 0.44881889763779526,
          "duration": 0.023255813953486637
        },
        {
          "name": "G#3",
          "midi": 56,
          "time": 11.732558139534696,
          "velocity": 0.3779527559055118,
          "duration": 0.05813953488371837
        },
        {
          "name": "D#5",
          "midi": 75,
          "time": 11.732558139534696,
          "velocity": 0.25984251968503935,
          "duration": 0.04651162790697505
        },
        {
          "name": "G4",
          "midi": 67,
          "time": 11.767441860464928,
          "velocity": 0.29133858267716534,
          "duration": 0.08139534883720323
        },
        {
          "name": "D5",
          "midi": 74,
          "time": 11.767441860464928,
          "velocity": 0.28346456692913385,
          "duration": 0.10465116279068987
        },
        {
          "name": "G3",
          "midi": 55,
          "time": 11.790697674418414,
          "velocity": 0.3779527559055118,
          "duration": 0.023255813953486637
        },
        {
          "name": "B3",
          "midi": 59,
          "time": 11.790697674418414,
          "velocity": 0.2125984251968504,
          "duration": 0.034883720930229956
        },
        {
          "name": "B5",
          "midi": 83,
          "time": 11.790697674418414,
          "velocity": 0.2204724409448819,
          "duration": 0.1279069767441765
        },
        {
          "name": "G6",
          "midi": 91,
          "time": 11.790697674418414,
          "velocity": 0.31496062992125984,
          "duration": 0.06976744186045991
        },
        {
          "name": "A6",
          "midi": 93,
          "time": 11.802325581395158,
          "velocity": 0.13385826771653545,
          "duration": 0.05813953488371659
        },
        {
          "name": "D7",
          "midi": 98,
          "time": 11.802325581395158,
          "velocity": 0.11023622047244094,
          "duration": 0.05813953488371659
        },
        {
          "name": "D#7",
          "midi": 99,
          "time": 11.802325581395158,
          "velocity": 0.23622047244094488,
          "duration": 0.05813953488371659
        },
        {
          "name": "G3",
          "midi": 55,
          "time": 11.825581395348644,
          "velocity": 0.41732283464566927,
          "duration": 0.05813953488371659
        },
        {
          "name": "A4",
          "midi": 69,
          "time": 11.837209302325387,
          "velocity": 0.13385826771653545,
          "duration": 0.034883720930229956
        },
        {
          "name": "D3",
          "midi": 50,
          "time": 11.860465116278874,
          "velocity": 0.3543307086614173,
          "duration": 0.023255813953486637
        },
        {
          "name": "G3",
          "midi": 55,
          "time": 11.895348837209104,
          "velocity": 0.3937007874015748,
          "duration": 0.023255813953486637
        },
        {
          "name": "D#5",
          "midi": 75,
          "time": 11.895348837209104,
          "velocity": 0.16535433070866143,
          "duration": 0.05813953488371659
        },
        {
          "name": "G6",
          "midi": 91,
          "time": 11.895348837209104,
          "velocity": 0.3464566929133858,
          "duration": 0.11627906976743319
        },
        {
          "name": "D7",
          "midi": 98,
          "time": 11.895348837209104,
          "velocity": 0.10236220472440945,
          "duration": 0.09302325581394655
        },
        {
          "name": "D#7",
          "midi": 99,
          "time": 11.895348837209104,
          "velocity": 0.30708661417322836,
          "duration": 0.05813953488371659
        },
        {
          "name": "D3",
          "midi": 50,
          "time": 11.906976744185847,
          "velocity": 0.29133858267716534,
          "duration": 0.16279069767440646
        },
        {
          "name": "G#3",
          "midi": 56,
          "time": 11.91860465116259,
          "velocity": 0.4251968503937008,
          "duration": 0.1279069767441765
        },
        {
          "name": "D5",
          "midi": 74,
          "time": 11.91860465116259,
          "velocity": 0.2125984251968504,
          "duration": 0.046511627906973274
        },
        {
          "name": "A6",
          "midi": 93,
          "time": 11.91860465116259,
          "velocity": 0.3937007874015748,
          "duration": 0.20930232558137973
        },
        {
          "name": "B6",
          "midi": 95,
          "time": 11.91860465116259,
          "velocity": 0.14960629921259844,
          "duration": 0.034883720930229956
        },
        {
          "name": "G#6",
          "midi": 92,
          "time": 11.930232558139334,
          "velocity": 0.30708661417322836,
          "duration": 0.11627906976743319
        },
        {
          "name": "A#5",
          "midi": 82,
          "time": 11.941860465116077,
          "velocity": 0.14173228346456693,
          "duration": 0.034883720930229956
        },
        {
          "name": "C#7",
          "midi": 97,
          "time": 11.965116279069564,
          "velocity": 0.09448818897637795,
          "duration": 0.06976744186045991
        },
        {
          "name": "E7",
          "midi": 100,
          "time": 11.965116279069564,
          "velocity": 0.07874015748031496,
          "duration": 0.06976744186045991
        },
        {
          "name": "C#5",
          "midi": 73,
          "time": 11.976744186046307,
          "velocity": 0.29133858267716534,
          "duration": 0.034883720930229956
        },
        {
          "name": "A#6",
          "midi": 94,
          "time": 11.976744186046307,
          "velocity": 0.14960629921259844,
          "duration": 0.08139534883720323
        },
        {
          "name": "B6",
          "midi": 95,
          "time": 11.976744186046307,
          "velocity": 0.07874015748031496,
          "duration": 0.05813953488371659
        },
        {
          "name": "B4",
          "midi": 71,
          "time": 11.999999999999794,
          "velocity": 0.30708661417322836,
          "duration": 0.034883720930229956
        },
        {
          "name": "D5",
          "midi": 74,
          "time": 12.011627906976537,
          "velocity": 0.29133858267716534,
          "duration": 0.023255813953486637
        },
        {
          "name": "D4",
          "midi": 62,
          "time": 12.02325581395328,
          "velocity": 0.2992125984251969,
          "duration": 0.023255813953486637
        },
        {
          "name": "A#5",
          "midi": 82,
          "time": 12.02325581395328,
          "velocity": 0.12598425196850394,
          "duration": 0.034883720930229956
        },
        {
          "name": "G6",
          "midi": 91,
          "time": 12.02325581395328,
          "velocity": 0.1732283464566929,
          "duration": 0.10465116279068987
        },
        {
          "name": "D7",
          "midi": 98,
          "time": 12.02325581395328,
          "velocity": 0.33070866141732286,
          "duration": 0.11627906976743319
        },
        {
          "name": "C5",
          "midi": 72,
          "time": 12.034883720930024,
          "velocity": 0.30708661417322836,
          "duration": 0.046511627906973274
        },
        {
          "name": "G3",
          "midi": 55,
          "time": 12.046511627906767,
          "velocity": 0.3779527559055118,
          "duration": 0.046511627906973274
        },
        {
          "name": "B6",
          "midi": 95,
          "time": 12.046511627906767,
          "velocity": 0.30708661417322836,
          "duration": 0.08139534883720323
        },
        {
          "name": "C#7",
          "midi": 97,
          "time": 12.046511627906767,
          "velocity": 0.31496062992125984,
          "duration": 0.08139534883720323
        },
        {
          "name": "D5",
          "midi": 74,
          "time": 12.05813953488351,
          "velocity": 0.3464566929133858,
          "duration": 0.09302325581394655
        },
        {
          "name": "G5",
          "midi": 79,
          "time": 12.05813953488351,
          "velocity": 0.3779527559055118,
          "duration": 0.1395348837209216
        },
        {
          "name": "F#7",
          "midi": 102,
          "time": 12.05813953488351,
          "velocity": 0.2440944881889764,
          "duration": 0.06976744186045991
        },
        {
          "name": "F#1",
          "midi": 30,
          "time": 12.081395348836997,
          "velocity": 0.6299212598425197,
          "duration": 0.011627906976743319
        },
        {
          "name": "D#4",
          "midi": 63,
          "time": 12.081395348836997,
          "velocity": 0.13385826771653545,
          "duration": 0.034883720930229956
        },
        {
          "name": "G4",
          "midi": 67,
          "time": 12.09302325581374,
          "velocity": 0.48031496062992124,
          "duration": 0.1395348837209216
        },
        {
          "name": "G3",
          "midi": 55,
          "time": 12.104651162790484,
          "velocity": 0.5196850393700787,
          "duration": 0.034883720930229956
        },
        {
          "name": "F1",
          "midi": 29,
          "time": 12.116279069767227,
          "velocity": 0.5748031496062992,
          "duration": 0.011627906976743319
        },
        {
          "name": "D#1",
          "midi": 27,
          "time": 12.12790697674397,
          "velocity": 0.6850393700787402,
          "duration": 0.011627906976743319
        },
        {
          "name": "C#4",
          "midi": 61,
          "time": 12.12790697674397,
          "velocity": 0.1889763779527559,
          "duration": 0.034883720930229956
        },
        {
          "name": "D1",
          "midi": 26,
          "time": 12.139534883720714,
          "velocity": 0.7244094488188977,
          "duration": 0.011627906976743319
        },
        {
          "name": "G#3",
          "midi": 56,
          "time": 12.139534883720714,
          "velocity": 0.4566929133858268,
          "duration": 0.10465116279069164
        },
        {
          "name": "C1",
          "midi": 24,
          "time": 12.151162790697457,
          "velocity": 0.7480314960629921,
          "duration": 0.011627906976743319
        },
        {
          "name": "B0",
          "midi": 23,
          "time": 12.1627906976742,
          "velocity": 0.7637795275590551,
          "duration": 0.023255813953488413
        },
        {
          "name": "C1",
          "midi": 24,
          "time": 12.186046511627689,
          "velocity": 0.7480314960629921,
          "duration": 1.2325581395348166
        },
        {
          "name": "D4",
          "midi": 62,
          "time": 12.197674418604432,
          "velocity": 0.13385826771653545,
          "duration": 0.046511627906973274
        },
        {
          "name": "B4",
          "midi": 71,
          "time": 12.209302325581175,
          "velocity": 0.1889763779527559,
          "duration": 0.046511627906973274
        },
        {
          "name": "F5",
          "midi": 77,
          "time": 12.220930232557919,
          "velocity": 0.16535433070866143,
          "duration": 0.09302325581394832
        },
        {
          "name": "F3",
          "midi": 53,
          "time": 12.255813953488149,
          "velocity": 0.48031496062992124,
          "duration": 0.04651162790697505
        },
        {
          "name": "C5",
          "midi": 72,
          "time": 12.255813953488149,
          "velocity": 0.15748031496062992,
          "duration": 0.04651162790697505
        },
        {
          "name": "D5",
          "midi": 74,
          "time": 12.255813953488149,
          "velocity": 0.11023622047244094,
          "duration": 0.04651162790697505
        },
        {
          "name": "G2",
          "midi": 43,
          "time": 12.267441860464892,
          "velocity": 0.29133858267716534,
          "duration": 0.023255813953488413
        },
        {
          "name": "A#4",
          "midi": 70,
          "time": 12.302325581395124,
          "velocity": 0.41732283464566927,
          "duration": 0.3720930232557986
        },
        {
          "name": "D#3",
          "midi": 51,
          "time": 12.313953488371867,
          "velocity": 0.4566929133858268,
          "duration": 0.2906976744185936
        },
        {
          "name": "G#3",
          "midi": 56,
          "time": 12.313953488371867,
          "velocity": 0.41732283464566927,
          "duration": 0.1046511627906952
        },
        {
          "name": "F5",
          "midi": 77,
          "time": 12.337209302325356,
          "velocity": 0.1732283464566929,
          "duration": 0.16279069767441356
        },
        {
          "name": "G#6",
          "midi": 92,
          "time": 12.348837209302099,
          "velocity": 0.12598425196850394,
          "duration": 0.09302325581395188
        },
        {
          "name": "G2",
          "midi": 43,
          "time": 12.360465116278842,
          "velocity": 0.2677165354330709,
          "duration": 0.023255813953488413
        },
        {
          "name": "G4",
          "midi": 67,
          "time": 12.418604651162562,
          "velocity": 0.2047244094488189,
          "duration": 0.03488372093023173
        },
        {
          "name": "G#3",
          "midi": 56,
          "time": 12.44186046511605,
          "velocity": 0.3700787401574803,
          "duration": 0.03488372093023173
        },
        {
          "name": "G5",
          "midi": 79,
          "time": 12.453488372092794,
          "velocity": 0.2283464566929134,
          "duration": 0.0930232558139501
        },
        {
          "name": "G4",
          "midi": 67,
          "time": 12.476744186046282,
          "velocity": 0.33858267716535434,
          "duration": 0.10465116279069164
        },
        {
          "name": "G#3",
          "midi": 56,
          "time": 12.488372093023026,
          "velocity": 0.3464566929133858,
          "duration": 0.023255813953486637
        },
        {
          "name": "A5",
          "midi": 81,
          "time": 12.488372093023026,
          "velocity": 0.33070866141732286,
          "duration": 0.09302325581394832
        },
        {
          "name": "G2",
          "midi": 43,
          "time": 12.499999999999769,
          "velocity": 0.3228346456692913,
          "duration": 0.023255813953486637
        },
        {
          "name": "C#5",
          "midi": 73,
          "time": 12.499999999999769,
          "velocity": 0.4094488188976378,
          "duration": 0.06976744186046169
        },
        {
          "name": "E5",
          "midi": 76,
          "time": 12.499999999999769,
          "velocity": 0.2204724409448819,
          "duration": 0.06976744186046169
        },
        {
          "name": "G#3",
          "midi": 56,
          "time": 12.523255813953256,
          "velocity": 0.3779527559055118,
          "duration": 0.023255813953488413
        },
        {
          "name": "G#2",
          "midi": 44,
          "time": 12.546511627906744,
          "velocity": 0.31496062992125984,
          "duration": 0.023255813953486637
        },
        {
          "name": "A3",
          "midi": 57,
          "time": 12.546511627906744,
          "velocity": 0.3700787401574803,
          "duration": 0.023255813953486637
        },
        {
          "name": "D5",
          "midi": 74,
          "time": 12.558139534883487,
          "velocity": 0.33858267716535434,
          "duration": 0.16279069767440824
        },
        {
          "name": "F5",
          "midi": 77,
          "time": 12.56976744186023,
          "velocity": 0.33070866141732286,
          "duration": 0.2093023255813833
        },
        {
          "name": "G#5",
          "midi": 80,
          "time": 12.56976744186023,
          "velocity": 0.25984251968503935,
          "duration": 0.046511627906973274
        },
        {
          "name": "G#3",
          "midi": 56,
          "time": 12.593023255813717,
          "velocity": 0.4330708661417323,
          "duration": 0.081395348837205
        },
        {
          "name": "F4",
          "midi": 65,
          "time": 12.593023255813717,
          "velocity": 0.2755905511811024,
          "duration": 0.034883720930229956
        },
        {
          "name": "D#3",
          "midi": 51,
          "time": 12.63953488372069,
          "velocity": 0.3937007874015748,
          "duration": 0.05813953488371837
        },
        {
          "name": "F4",
          "midi": 65,
          "time": 12.63953488372069,
          "velocity": 0.3543307086614173,
          "duration": 0.10465116279069164
        },
        {
          "name": "D#6",
          "midi": 87,
          "time": 12.63953488372069,
          "velocity": 0.18110236220472442,
          "duration": 0.6046511627906614
        },
        {
          "name": "G#3",
          "midi": 56,
          "time": 12.686046511627666,
          "velocity": 0.31496062992125984,
          "duration": 0.023255813953486637
        },
        {
          "name": "A#4",
          "midi": 70,
          "time": 12.686046511627666,
          "velocity": 0.16535433070866143,
          "duration": 0.046511627906973274
        },
        {
          "name": "G5",
          "midi": 79,
          "time": 12.697674418604409,
          "velocity": 0.28346456692913385,
          "duration": 0.15116279069766492
        },
        {
          "name": "G#3",
          "midi": 56,
          "time": 12.720930232557896,
          "velocity": 0.36220472440944884,
          "duration": 0.05813953488371837
        },
        {
          "name": "C#5",
          "midi": 73,
          "time": 12.720930232557896,
          "velocity": 0.1889763779527559,
          "duration": 0.05813953488371837
        },
        {
          "name": "E4",
          "midi": 64,
          "time": 12.744186046511382,
          "velocity": 0.3937007874015748,
          "duration": 0.023255813953488413
        },
        {
          "name": "D#4",
          "midi": 63,
          "time": 12.76744186046487,
          "velocity": 0.33070866141732286,
          "duration": 0.023255813953486637
        },
        {
          "name": "G3",
          "midi": 55,
          "time": 12.790697674418357,
          "velocity": 0.33858267716535434,
          "duration": 0.023255813953486637
        },
        {
          "name": "D4",
          "midi": 62,
          "time": 12.790697674418357,
          "velocity": 0.30708661417322836,
          "duration": 0.046511627906973274
        },
        {
          "name": "G#4",
          "midi": 68,
          "time": 12.8023255813951,
          "velocity": 0.29133858267716534,
          "duration": 0.034883720930229956
        },
        {
          "name": "A#4",
          "midi": 70,
          "time": 12.825581395348587,
          "velocity": 0.2283464566929134,
          "duration": 0.1976744186046382
        },
        {
          "name": "D5",
          "midi": 74,
          "time": 12.83720930232533,
          "velocity": 0.09448818897637795,
          "duration": 0.03488372093023173
        },
        {
          "name": "G#3",
          "midi": 56,
          "time": 12.848837209302074,
          "velocity": 0.33858267716535434,
          "duration": 0.03488372093023173
        },
        {
          "name": "D4",
          "midi": 62,
          "time": 12.848837209302074,
          "velocity": 0.36220472440944884,
          "duration": 0.1976744186046382
        },
        {
          "name": "F5",
          "midi": 77,
          "time": 12.872093023255562,
          "velocity": 0.07086614173228346,
          "duration": 0.046511627906973274
        },
        {
          "name": "A3",
          "midi": 57,
          "time": 12.883720930232306,
          "velocity": 0.2283464566929134,
          "duration": 0.023255813953486637
        },
        {
          "name": "D#5",
          "midi": 75,
          "time": 12.895348837209049,
          "velocity": 0.11023622047244094,
          "duration": 0.06976744186045991
        },
        {
          "name": "G#4",
          "midi": 68,
          "time": 12.906976744185792,
          "velocity": 0.12598425196850394,
          "duration": 0.034883720930229956
        },
        {
          "name": "G#5",
          "midi": 80,
          "time": 12.918604651162536,
          "velocity": 0.3779527559055118,
          "duration": 0.034883720930229956
        },
        {
          "name": "B5",
          "midi": 83,
          "time": 12.918604651162536,
          "velocity": 0.29133858267716534,
          "duration": 0.05813953488371659
        },
        {
          "name": "G6",
          "midi": 91,
          "time": 12.918604651162536,
          "velocity": 0.23622047244094488,
          "duration": 0.08139534883720323
        },
        {
          "name": "A6",
          "midi": 93,
          "time": 12.918604651162536,
          "velocity": 0.2755905511811024,
          "duration": 0.11627906976743319
        },
        {
          "name": "E7",
          "midi": 100,
          "time": 12.918604651162536,
          "velocity": 0.18110236220472442,
          "duration": 0.09302325581394655
        },
        {
          "name": "D6",
          "midi": 86,
          "time": 12.930232558139279,
          "velocity": 0.14960629921259844,
          "duration": 0.034883720930229956
        },
        {
          "name": "F#6",
          "midi": 90,
          "time": 12.930232558139279,
          "velocity": 0.14960629921259844,
          "duration": 0.046511627906973274
        },
        {
          "name": "A#6",
          "midi": 94,
          "time": 12.930232558139279,
          "velocity": 0.1732283464566929,
          "duration": 0.08139534883720323
        },
        {
          "name": "C7",
          "midi": 96,
          "time": 12.930232558139279,
          "velocity": 0.11811023622047244,
          "duration": 0.05813953488371659
        },
        {
          "name": "F7",
          "midi": 101,
          "time": 12.930232558139279,
          "velocity": 0.14173228346456693,
          "duration": 0.08139534883720323
        },
        {
          "name": "A3",
          "midi": 57,
          "time": 12.941860465116022,
          "velocity": 0.2755905511811024,
          "duration": 0.023255813953486637
        },
        {
          "name": "F5",
          "midi": 77,
          "time": 12.941860465116022,
          "velocity": 0.36220472440944884,
          "duration": 0.034883720930229956
        },
        {
          "name": "G5",
          "midi": 79,
          "time": 12.941860465116022,
          "velocity": 0.36220472440944884,
          "duration": 0.10465116279068987
        },
        {
          "name": "A5",
          "midi": 81,
          "time": 12.953488372092766,
          "velocity": 0.31496062992125984,
          "duration": 0.05813953488371659
        },
        {
          "name": "G4",
          "midi": 67,
          "time": 12.965116279069509,
          "velocity": 0.2125984251968504,
          "duration": 0.034883720930229956
        },
        {
          "name": "G3",
          "midi": 55,
          "time": 12.976744186046252,
          "velocity": 0.3779527559055118,
          "duration": 0.023255813953486637
        },
        {
          "name": "C#5",
          "midi": 73,
          "time": 12.976744186046252,
          "velocity": 0.2125984251968504,
          "duration": 0.034883720930229956
        },
        {
          "name": "E5",
          "midi": 76,
          "time": 12.976744186046252,
          "velocity": 0.3779527559055118,
          "duration": 0.046511627906973274
        },
        {
          "name": "G#3",
          "midi": 56,
          "time": 12.999999999999739,
          "velocity": 0.2440944881889764,
          "duration": 0.023255813953486637
        },
        {
          "name": "D3",
          "midi": 50,
          "time": 13.011627906976482,
          "velocity": 0.25196850393700787,
          "duration": 0.023255813953486637
        },
        {
          "name": "G4",
          "midi": 67,
          "time": 13.011627906976482,
          "velocity": 0.3779527559055118,
          "duration": 0.11627906976743496
        },
        {
          "name": "G3",
          "midi": 55,
          "time": 13.034883720929969,
          "velocity": 0.44881889763779526,
          "duration": 0.081395348837205
        },
        {
          "name": "D#4",
          "midi": 63,
          "time": 13.046511627906712,
          "velocity": 0.31496062992125984,
          "duration": 0.32558139534882
        },
        {
          "name": "B4",
          "midi": 71,
          "time": 13.058139534883455,
          "velocity": 0.15748031496062992,
          "duration": 0.081395348837205
        },
        {
          "name": "B6",
          "midi": 95,
          "time": 13.058139534883455,
          "velocity": 0.18110236220472442,
          "duration": 0.04651162790697505
        },
        {
          "name": "C7",
          "midi": 96,
          "time": 13.058139534883455,
          "velocity": 0.15748031496062992,
          "duration": 0.04651162790697505
        },
        {
          "name": "G#2",
          "midi": 44,
          "time": 13.069767441860199,
          "velocity": 0.3228346456692913,
          "duration": 0.023255813953488413
        },
        {
          "name": "G3",
          "midi": 55,
          "time": 13.13953488372066,
          "velocity": 0.49606299212598426,
          "duration": 0.05813953488371837
        },
        {
          "name": "G#4",
          "midi": 68,
          "time": 13.151162790697404,
          "velocity": 0.23622047244094488,
          "duration": 0.023255813953488413
        },
        {
          "name": "G#4",
          "midi": 68,
          "time": 13.186046511627636,
          "velocity": 0.2992125984251969,
          "duration": 0.023255813953486637
        },
        {
          "name": "D#5",
          "midi": 75,
          "time": 13.186046511627636,
          "velocity": 0.33858267716535434,
          "duration": 0.023255813953486637
        },
        {
          "name": "A#6",
          "midi": 94,
          "time": 13.186046511627636,
          "velocity": 0.1889763779527559,
          "duration": 0.046511627906973274
        },
        {
          "name": "G#3",
          "midi": 56,
          "time": 13.197674418604379,
          "velocity": 0.44881889763779526,
          "duration": 0.023255813953486637
        },
        {
          "name": "B5",
          "midi": 83,
          "time": 13.197674418604379,
          "velocity": 0.13385826771653545,
          "duration": 0.06976744186045991
        },
        {
          "name": "A6",
          "midi": 93,
          "time": 13.197674418604379,
          "velocity": 0.25984251968503935,
          "duration": 0.08139534883720323
        },
        {
          "name": "B6",
          "midi": 95,
          "time": 13.197674418604379,
          "velocity": 0.3779527559055118,
          "duration": 0.10465116279068987
        },
        {
          "name": "F7",
          "midi": 101,
          "time": 13.197674418604379,
          "velocity": 0.2755905511811024,
          "duration": 0.08139534883720323
        },
        {
          "name": "G4",
          "midi": 67,
          "time": 13.209302325581122,
          "velocity": 0.4251968503937008,
          "duration": 0.13953488372092337
        },
        {
          "name": "D5",
          "midi": 74,
          "time": 13.209302325581122,
          "velocity": 0.3858267716535433,
          "duration": 0.16279069767441
        },
        {
          "name": "F6",
          "midi": 89,
          "time": 13.209302325581122,
          "velocity": 0.11023622047244094,
          "duration": 0.05813953488371659
        },
        {
          "name": "C#7",
          "midi": 97,
          "time": 13.209302325581122,
          "velocity": 0.23622047244094488,
          "duration": 0.023255813953486637
        },
        {
          "name": "D7",
          "midi": 98,
          "time": 13.209302325581122,
          "velocity": 0.16535433070866143,
          "duration": 0.05813953488371659
        },
        {
          "name": "G3",
          "midi": 55,
          "time": 13.220930232557865,
          "velocity": 0.4251968503937008,
          "duration": 0.08139534883720323
        },
        {
          "name": "C7",
          "midi": 96,
          "time": 13.232558139534609,
          "velocity": 0.25196850393700787,
          "duration": 0.023255813953486637
        },
        {
          "name": "F#7",
          "midi": 102,
          "time": 13.232558139534609,
          "velocity": 0.10236220472440945,
          "duration": 0.034883720930229956
        },
        {
          "name": "A#4",
          "midi": 70,
          "time": 13.290697674418325,
          "velocity": 0.11811023622047244,
          "duration": 0.06976744186046346
        },
        {
          "name": "G2",
          "midi": 43,
          "time": 13.325581395348557,
          "velocity": 0.3228346456692913,
          "duration": 0.023255813953488413
        },
        {
          "name": "C#5",
          "midi": 73,
          "time": 13.372093023255532,
          "velocity": 0.30708661417322836,
          "duration": 0.023255813953486637
        },
        {
          "name": "A5",
          "midi": 81,
          "time": 13.372093023255532,
          "velocity": 0.14960629921259844,
          "duration": 0.034883720930229956
        },
        {
          "name": "G#2",
          "midi": 44,
          "time": 13.383720930232275,
          "velocity": 0.33858267716535434,
          "duration": 0.023255813953486637
        },
        {
          "name": "D4",
          "midi": 62,
          "time": 13.383720930232275,
          "velocity": 0.29133858267716534,
          "duration": 0.023255813953486637
        },
        {
          "name": "F#4",
          "midi": 66,
          "time": 13.383720930232275,
          "velocity": 0.30708661417322836,
          "duration": 0.046511627906973274
        },
        {
          "name": "F#5",
          "midi": 78,
          "time": 13.383720930232275,
          "velocity": 0.33858267716535434,
          "duration": 0.034883720930229956
        },
        {
          "name": "D6",
          "midi": 86,
          "time": 13.383720930232275,
          "velocity": 0.15748031496062992,
          "duration": 0.046511627906973274
        },
        {
          "name": "G#6",
          "midi": 92,
          "time": 13.383720930232275,
          "velocity": 0.1889763779527559,
          "duration": 0.034883720930229956
        },
        {
          "name": "G3",
          "midi": 55,
          "time": 13.395348837209019,
          "velocity": 0.4566929133858268,
          "duration": 0.023255813953486637
        },
        {
          "name": "D5",
          "midi": 74,
          "time": 13.395348837209019,
          "velocity": 0.44881889763779526,
          "duration": 0.023255813953486637
        },
        {
          "name": "A#5",
          "midi": 82,
          "time": 13.395348837209019,
          "velocity": 0.23622047244094488,
          "duration": 0.034883720930229956
        },
        {
          "name": "A6",
          "midi": 93,
          "time": 13.395348837209019,
          "velocity": 0.36220472440944884,
          "duration": 0.1627906976744118
        },
        {
          "name": "F7",
          "midi": 101,
          "time": 13.395348837209019,
          "velocity": 0.08661417322834646,
          "duration": 0.034883720930229956
        },
        {
          "name": "D#4",
          "midi": 63,
          "time": 13.406976744185762,
          "velocity": 0.23622047244094488,
          "duration": 0.31395348837208026
        },
        {
          "name": "G6",
          "midi": 91,
          "time": 13.406976744185762,
          "velocity": 0.30708661417322836,
          "duration": 0.15116279069766847
        },
        {
          "name": "D7",
          "midi": 98,
          "time": 13.406976744185762,
          "velocity": 0.2047244094488189,
          "duration": 0.2906976744185936
        },
        {
          "name": "C#1",
          "midi": 25,
          "time": 13.418604651162505,
          "velocity": 0.7086614173228346,
          "duration": 0.011627906976743319
        },
        {
          "name": "F5",
          "midi": 77,
          "time": 13.418604651162505,
          "velocity": 0.4409448818897638,
          "duration": 0.06976744186046169
        },
        {
          "name": "G5",
          "midi": 79,
          "time": 13.418604651162505,
          "velocity": 0.41732283464566927,
          "duration": 0.2906976744185936
        },
        {
          "name": "A5",
          "midi": 81,
          "time": 13.418604651162505,
          "velocity": 0.2992125984251969,
          "duration": 0.046511627906973274
        },
        {
          "name": "C6",
          "midi": 84,
          "time": 13.418604651162505,
          "velocity": 0.1889763779527559,
          "duration": 0.034883720930229956
        },
        {
          "name": "C#7",
          "midi": 97,
          "time": 13.418604651162505,
          "velocity": 0.23622047244094488,
          "duration": 0.24418604651162035
        },
        {
          "name": "B0",
          "midi": 23,
          "time": 13.430232558139249,
          "velocity": 0.6220472440944882,
          "duration": 0.011627906976743319
        },
        {
          "name": "F3",
          "midi": 53,
          "time": 13.430232558139249,
          "velocity": 0.30708661417322836,
          "duration": 0.023255813953486637
        },
        {
          "name": "G4",
          "midi": 67,
          "time": 13.430232558139249,
          "velocity": 0.31496062992125984,
          "duration": 0.12790697674418183
        },
        {
          "name": "E7",
          "midi": 100,
          "time": 13.430232558139249,
          "velocity": 0.23622047244094488,
          "duration": 0.10465116279069342
        },
        {
          "name": "G#0",
          "midi": 20,
          "time": 13.441860465115992,
          "velocity": 0.5354330708661418,
          "duration": 0.011627906976743319
        },
        {
          "name": "B5",
          "midi": 83,
          "time": 13.441860465115992,
          "velocity": 0.4566929133858268,
          "duration": 0.24418604651162035
        },
        {
          "name": "D#6",
          "midi": 87,
          "time": 13.441860465115992,
          "velocity": 0.2204724409448819,
          "duration": 0.06976744186046346
        },
        {
          "name": "G#6",
          "midi": 92,
          "time": 13.441860465115992,
          "velocity": 0.1732283464566929,
          "duration": 0.08139534883720678
        },
        {
          "name": "F#3",
          "midi": 54,
          "time": 13.453488372092735,
          "velocity": 0.2677165354330709,
          "duration": 0.03488372093023173
        },
        {
          "name": "D5",
          "midi": 74,
          "time": 13.453488372092735,
          "velocity": 0.47244094488188976,
          "duration": 0.2093023255813904
        },
        {
          "name": "C#6",
          "midi": 85,
          "time": 13.453488372092735,
          "velocity": 0.1889763779527559,
          "duration": 0.06976744186046346
        },
        {
          "name": "F7",
          "midi": 101,
          "time": 13.453488372092735,
          "velocity": 0.2992125984251969,
          "duration": 0.2093023255813904
        },
        {
          "name": "F#7",
          "midi": 102,
          "time": 13.465116279069479,
          "velocity": 0.2440944881889764,
          "duration": 0.2906976744185936
        },
        {
          "name": "F0",
          "midi": 17,
          "time": 13.488372093022967,
          "velocity": 0.2677165354330709,
          "duration": 0.023255813953488413
        },
        {
          "name": "G3",
          "midi": 55,
          "time": 13.488372093022967,
          "velocity": 0.44881889763779526,
          "duration": 0.18604651162790198
        },
        {
          "name": "C7",
          "midi": 96,
          "time": 13.488372093022967,
          "velocity": 0.11811023622047244,
          "duration": 0.04651162790697505
        },
        {
          "name": "A6",
          "midi": 93,
          "time": 13.569767441860174,
          "velocity": 0.2992125984251969,
          "duration": 0.15116279069766847
        },
        {
          "name": "F6",
          "midi": 89,
          "time": 13.627906976743894,
          "velocity": 0.13385826771653545,
          "duration": 0.03488372093023173
        },
        {
          "name": "E7",
          "midi": 100,
          "time": 13.627906976743894,
          "velocity": 0.29133858267716534,
          "duration": 0.10465116279069164
        },
        {
          "name": "G#6",
          "midi": 92,
          "time": 13.651162790697382,
          "velocity": 0.3464566929133858,
          "duration": 0.11627906976743319
        },
        {
          "name": "G#4",
          "midi": 68,
          "time": 13.662790697674126,
          "velocity": 0.4015748031496063,
          "duration": 0.11627906976743319
        },
        {
          "name": "D#5",
          "midi": 75,
          "time": 13.662790697674126,
          "velocity": 0.25196850393700787,
          "duration": 0.034883720930229956
        },
        {
          "name": "C6",
          "midi": 84,
          "time": 13.662790697674126,
          "velocity": 0.13385826771653545,
          "duration": 0.08139534883720323
        },
        {
          "name": "F#6",
          "midi": 90,
          "time": 13.662790697674126,
          "velocity": 0.16535433070866143,
          "duration": 0.09302325581394655
        },
        {
          "name": "A#6",
          "midi": 94,
          "time": 13.662790697674126,
          "velocity": 0.31496062992125984,
          "duration": 0.09302325581394655
        },
        {
          "name": "D#7",
          "midi": 99,
          "time": 13.662790697674126,
          "velocity": 0.16535433070866143,
          "duration": 0.08139534883720323
        },
        {
          "name": "G#3",
          "midi": 56,
          "time": 13.67441860465087,
          "velocity": 0.4409448818897638,
          "duration": 0.10465116279068987
        },
        {
          "name": "C7",
          "midi": 96,
          "time": 13.67441860465087,
          "velocity": 0.1889763779527559,
          "duration": 0.08139534883720323
        },
        {
          "name": "G7",
          "midi": 103,
          "time": 13.67441860465087,
          "velocity": 0.09448818897637795,
          "duration": 0.06976744186045991
        },
        {
          "name": "D5",
          "midi": 74,
          "time": 13.686046511627612,
          "velocity": 0.48031496062992124,
          "duration": 0.17441860465115333
        },
        {
          "name": "A#5",
          "midi": 82,
          "time": 13.686046511627612,
          "velocity": 0.11023622047244094,
          "duration": 0.11627906976743496
        },
        {
          "name": "C#7",
          "midi": 97,
          "time": 13.686046511627612,
          "velocity": 0.11811023622047244,
          "duration": 0.034883720930229956
        },
        {
          "name": "F7",
          "midi": 101,
          "time": 13.686046511627612,
          "velocity": 0.14173228346456693,
          "duration": 0.034883720930229956
        },
        {
          "name": "A#4",
          "midi": 70,
          "time": 13.709302325581099,
          "velocity": 0.2204724409448819,
          "duration": 0.10465116279069164
        },
        {
          "name": "D4",
          "midi": 62,
          "time": 13.720930232557842,
          "velocity": 0.28346456692913385,
          "duration": 0.10465116279069164
        },
        {
          "name": "B2",
          "midi": 47,
          "time": 13.744186046511329,
          "velocity": 0.2283464566929134,
          "duration": 0.023255813953486637
        },
        {
          "name": "G5",
          "midi": 79,
          "time": 13.767441860464816,
          "velocity": 0.2992125984251969,
          "duration": 0.10465116279069342
        },
        {
          "name": "G#4",
          "midi": 68,
          "time": 13.81395348837179,
          "velocity": 0.41732283464566927,
          "duration": 0.03488372093023173
        },
        {
          "name": "G#3",
          "midi": 56,
          "time": 13.825581395348534,
          "velocity": 0.48031496062992124,
          "duration": 0.023255813953488413
        },
        {
          "name": "G3",
          "midi": 55,
          "time": 13.848837209302022,
          "velocity": 0.49606299212598426,
          "duration": 0.023255813953486637
        },
        {
          "name": "D4",
          "midi": 62,
          "time": 13.848837209302022,
          "velocity": 0.2283464566929134,
          "duration": 0.1279069767441765
        },
        {
          "name": "A#5",
          "midi": 82,
          "time": 13.848837209302022,
          "velocity": 0.2283464566929134,
          "duration": 0.034883720930229956
        },
        {
          "name": "G#6",
          "midi": 92,
          "time": 13.848837209302022,
          "velocity": 0.2283464566929134,
          "duration": 0.046511627906973274
        },
        {
          "name": "C7",
          "midi": 96,
          "time": 13.848837209302022,
          "velocity": 0.2283464566929134,
          "duration": 0.10465116279068987
        },
        {
          "name": "C#5",
          "midi": 73,
          "time": 13.860465116278766,
          "velocity": 0.4881889763779528,
          "duration": 0.023255813953486637
        },
        {
          "name": "F5",
          "midi": 77,
          "time": 13.860465116278766,
          "velocity": 0.1732283464566929,
          "duration": 0.046511627906973274
        },
        {
          "name": "A#6",
          "midi": 94,
          "time": 13.860465116278766,
          "velocity": 0.2755905511811024,
          "duration": 0.05813953488371659
        },
        {
          "name": "B6",
          "midi": 95,
          "time": 13.860465116278766,
          "velocity": 0.3228346456692913,
          "duration": 0.11627906976743319
        },
        {
          "name": "C#7",
          "midi": 97,
          "time": 13.860465116278766,
          "velocity": 0.16535433070866143,
          "duration": 0.10465116279068987
        },
        {
          "name": "F7",
          "midi": 101,
          "time": 13.860465116278766,
          "velocity": 0.18110236220472442,
          "duration": 0.13953488372091982
        },
        {
          "name": "A5",
          "midi": 81,
          "time": 13.872093023255509,
          "velocity": 0.14960629921259844,
          "duration": 0.06976744186045991
        },
        {
          "name": "C6",
          "midi": 84,
          "time": 13.872093023255509,
          "velocity": 0.11811023622047244,
          "duration": 0.034883720930229956
        },
        {
          "name": "G6",
          "midi": 91,
          "time": 13.872093023255509,
          "velocity": 0.2755905511811024,
          "duration": 0.15116279069766314
        },
        {
          "name": "E7",
          "midi": 100,
          "time": 13.872093023255509,
          "velocity": 0.1732283464566929,
          "duration": 0.08139534883720323
        },
        {
          "name": "F#7",
          "midi": 102,
          "time": 13.872093023255509,
          "velocity": 0.14960629921259844,
          "duration": 0.10465116279068987
        },
        {
          "name": "C5",
          "midi": 72,
          "time": 13.883720930232252,
          "velocity": 0.41732283464566927,
          "duration": 0.023255813953486637
        },
        {
          "name": "A6",
          "midi": 93,
          "time": 13.883720930232252,
          "velocity": 0.3464566929133858,
          "duration": 0.15116279069766314
        },
        {
          "name": "F#3",
          "midi": 54,
          "time": 13.895348837208996,
          "velocity": 0.33070866141732286,
          "duration": 0.034883720930229956
        },
        {
          "name": "C#5",
          "midi": 73,
          "time": 13.895348837208996,
          "velocity": 0.4330708661417323,
          "duration": 0.034883720930229956
        },
        {
          "name": "F#5",
          "midi": 78,
          "time": 13.895348837208996,
          "velocity": 0.25984251968503935,
          "duration": 0.034883720930229956
        },
        {
          "name": "D7",
          "midi": 98,
          "time": 13.895348837208996,
          "velocity": 0.14173228346456693,
          "duration": 0.08139534883720323
        },
        {
          "name": "D#7",
          "midi": 99,
          "time": 13.895348837208996,
          "velocity": 0.07874015748031496,
          "duration": 0.034883720930229956
        },
        {
          "name": "B5",
          "midi": 83,
          "time": 13.906976744185739,
          "velocity": 0.2440944881889764,
          "duration": 0.08139534883720323
        },
        {
          "name": "D6",
          "midi": 86,
          "time": 13.906976744185739,
          "velocity": 0.33070866141732286,
          "duration": 0.15116279069766314
        },
        {
          "name": "F5",
          "midi": 77,
          "time": 13.918604651162482,
          "velocity": 0.12598425196850394,
          "duration": 0.034883720930229956
        },
        {
          "name": "G3",
          "midi": 55,
          "time": 13.930232558139226,
          "velocity": 0.3937007874015748,
          "duration": 0.046511627906973274
        },
        {
          "name": "D5",
          "midi": 74,
          "time": 13.930232558139226,
          "velocity": 0.3937007874015748,
          "duration": 0.034883720930229956
        },
        {
          "name": "A#5",
          "midi": 82,
          "time": 13.930232558139226,
          "velocity": 0.11023622047244094,
          "duration": 0.034883720930229956
        },
        {
          "name": "A#4",
          "midi": 70,
          "time": 13.953488372092712,
          "velocity": 0.11023622047244094,
          "duration": 0.046511627906973274
        },
        {
          "name": "A5",
          "midi": 81,
          "time": 13.965116279069456,
          "velocity": 0.11023622047244094,
          "duration": 0.06976744186045991
        },
        {
          "name": "F4",
          "midi": 65,
          "time": 13.976744186046199,
          "velocity": 0.4094488188976378,
          "duration": 0.06976744186045991
        },
        {
          "name": "C5",
          "midi": 72,
          "time": 13.976744186046199,
          "velocity": 0.1889763779527559,
          "duration": 0.05813953488371659
        },
        {
          "name": "D5",
          "midi": 74,
          "time": 13.976744186046199,
          "velocity": 0.2992125984251969,
          "duration": 0.1744186046511551
        },
        {
          "name": "E7",
          "midi": 100,
          "time": 13.976744186046199,
          "velocity": 0.12598425196850394,
          "duration": 0.034883720930229956
        },
        {
          "name": "F3",
          "midi": 53,
          "time": 13.988372093022942,
          "velocity": 0.4409448818897638,
          "duration": 0.05813953488371659
        },
        {
          "name": "A#4",
          "midi": 70,
          "time": 14.023255813953172,
          "velocity": 0.10236220472440945,
          "duration": 0.046511627906973274
        },
        {
          "name": "D4",
          "midi": 62,
          "time": 14.034883720929916,
          "velocity": 0.33070866141732286,
          "duration": 0.11627906976743851
        },
        {
          "name": "G4",
          "midi": 67,
          "time": 14.046511627906659,
          "velocity": 0.23622047244094488,
          "duration": 0.06976744186046346
        },
        {
          "name": "D6",
          "midi": 86,
          "time": 14.069767441860145,
          "velocity": 0.3228346456692913,
          "duration": 0.23255813953488058
        },
        {
          "name": "G#4",
          "midi": 68,
          "time": 14.116279069767122,
          "velocity": 0.2047244094488189,
          "duration": 0.04651162790697505
        },
        {
          "name": "G#3",
          "midi": 56,
          "time": 14.13953488372061,
          "velocity": 0.29133858267716534,
          "duration": 0.023255813953486637
        },
        {
          "name": "A5",
          "midi": 81,
          "time": 14.13953488372061,
          "velocity": 0.09448818897637795,
          "duration": 0.05813953488371837
        },
        {
          "name": "A#4",
          "midi": 70,
          "time": 14.162790697674097,
          "velocity": 0.4645669291338583,
          "duration": 0.3837209302325437
        },
        {
          "name": "D#5",
          "midi": 75,
          "time": 14.162790697674097,
          "velocity": 0.1968503937007874,
          "duration": 0.1395348837209287
        },
        {
          "name": "D#3",
          "midi": 51,
          "time": 14.17441860465084,
          "velocity": 0.4566929133858268,
          "duration": 0.18604651162790375
        },
        {
          "name": "D#4",
          "midi": 63,
          "time": 14.17441860465084,
          "velocity": 0.4645669291338583,
          "duration": 0.17441860465116044
        },
        {
          "name": "G4",
          "midi": 67,
          "time": 14.267441860464794,
          "velocity": 0.2283464566929134,
          "duration": 0.08139534883720678
        },
        {
          "name": "G#6",
          "midi": 92,
          "time": 14.267441860464794,
          "velocity": 0.14173228346456693,
          "duration": 0.03488372093023173
        },
        {
          "name": "D5",
          "midi": 74,
          "time": 14.302325581395026,
          "velocity": 0.4330708661417323,
          "duration": 0.22093023255812838
        },
        {
          "name": "F5",
          "midi": 77,
          "time": 14.302325581395026,
          "velocity": 0.3543307086614173,
          "duration": 0.2325581395348717
        },
        {
          "name": "A#3",
          "midi": 58,
          "time": 14.325581395348514,
          "velocity": 0.2283464566929134,
          "duration": 0.05813953488371659
        },
        {
          "name": "G#5",
          "midi": 80,
          "time": 14.325581395348514,
          "velocity": 0.29133858267716534,
          "duration": 0.034883720930229956
        },
        {
          "name": "C6",
          "midi": 84,
          "time": 14.325581395348514,
          "velocity": 0.30708661417322836,
          "duration": 0.11627906976743319
        },
        {
          "name": "G6",
          "midi": 91,
          "time": 14.325581395348514,
          "velocity": 0.07874015748031496,
          "duration": 0.034883720930229956
        },
        {
          "name": "A6",
          "midi": 93,
          "time": 14.337209302325258,
          "velocity": 0.15748031496062992,
          "duration": 0.09302325581394655
        },
        {
          "name": "B1",
          "midi": 35,
          "time": 14.348837209302001,
          "velocity": 0.5118110236220472,
          "duration": 0.011627906976743319
        },
        {
          "name": "G1",
          "midi": 31,
          "time": 14.360465116278744,
          "velocity": 0.7480314960629921,
          "duration": 0.023255813953486637
        },
        {
          "name": "D#4",
          "midi": 63,
          "time": 14.360465116278744,
          "velocity": 0.33858267716535434,
          "duration": 0.034883720930229956
        },
        {
          "name": "G5",
          "midi": 79,
          "time": 14.360465116278744,
          "velocity": 0.2992125984251969,
          "duration": 0.05813953488371659
        },
        {
          "name": "B5",
          "midi": 83,
          "time": 14.360465116278744,
          "velocity": 0.25984251968503935,
          "duration": 0.05813953488371659
        },
        {
          "name": "D#3",
          "midi": 51,
          "time": 14.372093023255488,
          "velocity": 0.33858267716535434,
          "duration": 0.046511627906973274
        },
        {
          "name": "G#1",
          "midi": 32,
          "time": 14.383720930232231,
          "velocity": 0.7637795275590551,
          "duration": 0.6046511627906614
        },
        {
          "name": "A5",
          "midi": 81,
          "time": 14.395348837208974,
          "velocity": 0.2125984251968504,
          "duration": 0.034883720930229956
        },
        {
          "name": "C4",
          "midi": 60,
          "time": 14.406976744185718,
          "velocity": 0.30708661417322836,
          "duration": 0.023255813953486637
        },
        {
          "name": "E3",
          "midi": 52,
          "time": 14.418604651162461,
          "velocity": 0.3543307086614173,
          "duration": 0.023255813953486637
        },
        {
          "name": "D4",
          "midi": 62,
          "time": 14.430232558139204,
          "velocity": 0.3779527559055118,
          "duration": 0.023255813953486637
        },
        {
          "name": "F4",
          "midi": 65,
          "time": 14.430232558139204,
          "velocity": 0.30708661417322836,
          "duration": 0.023255813953486637
        },
        {
          "name": "D#3",
          "midi": 51,
          "time": 14.441860465115948,
          "velocity": 0.33070866141732286,
          "duration": 0.30232558139533516
        },
        {
          "name": "B5",
          "midi": 83,
          "time": 14.441860465115948,
          "velocity": 0.2283464566929134,
          "duration": 0.023255813953486637
        },
        {
          "name": "F4",
          "midi": 65,
          "time": 14.465116279069434,
          "velocity": 0.33070866141732286,
          "duration": 0.08139534883720678
        },
        {
          "name": "C4",
          "midi": 60,
          "time": 14.488372093022923,
          "velocity": 0.25196850393700787,
          "duration": 0.081395348837205
        },
        {
          "name": "G5",
          "midi": 79,
          "time": 14.499999999999666,
          "velocity": 0.11811023622047244,
          "duration": 0.03488372093023173
        },
        {
          "name": "D5",
          "midi": 74,
          "time": 14.534883720929898,
          "velocity": 0.2204724409448819,
          "duration": 0.034883720930229956
        },
        {
          "name": "E5",
          "midi": 76,
          "time": 14.534883720929898,
          "velocity": 0.12598425196850394,
          "duration": 0.046511627906973274
        },
        {
          "name": "E4",
          "midi": 64,
          "time": 14.546511627906641,
          "velocity": 0.3543307086614173,
          "duration": 0.023255813953486637
        },
        {
          "name": "G#3",
          "midi": 56,
          "time": 14.558139534883384,
          "velocity": 0.36220472440944884,
          "duration": 0.04651162790697505
        },
        {
          "name": "G5",
          "midi": 79,
          "time": 14.558139534883384,
          "velocity": 0.18110236220472442,
          "duration": 0.1046511627906952
        },
        {
          "name": "F#4",
          "midi": 66,
          "time": 14.581395348836871,
          "velocity": 0.2125984251968504,
          "duration": 0.15116279069766847
        },
        {
          "name": "A#4",
          "midi": 70,
          "time": 14.581395348836871,
          "velocity": 0.3543307086614173,
          "duration": 0.1046511627906952
        },
        {
          "name": "D5",
          "midi": 74,
          "time": 14.581395348836871,
          "velocity": 0.25196850393700787,
          "duration": 0.09302325581395188
        },
        {
          "name": "F5",
          "midi": 77,
          "time": 14.581395348836871,
          "velocity": 0.25196850393700787,
          "duration": 0.12790697674418183
        },
        {
          "name": "D4",
          "midi": 62,
          "time": 14.60465116279036,
          "velocity": 0.3543307086614173,
          "duration": 0.04651162790697683
        },
        {
          "name": "A3",
          "midi": 57,
          "time": 14.627906976743848,
          "velocity": 0.30708661417322836,
          "duration": 0.023255813953488413
        },
        {
          "name": "A3",
          "midi": 57,
          "time": 14.66279069767408,
          "velocity": 0.3228346456692913,
          "duration": 0.023255813953486637
        },
        {
          "name": "D4",
          "midi": 62,
          "time": 14.66279069767408,
          "velocity": 0.2677165354330709,
          "duration": 0.023255813953486637
        },
        {
          "name": "D#5",
          "midi": 75,
          "time": 14.66279069767408,
          "velocity": 0.1968503937007874,
          "duration": 0.034883720930229956
        },
        {
          "name": "B4",
          "midi": 71,
          "time": 14.686046511627566,
          "velocity": 0.2755905511811024,
          "duration": 0.023255813953486637
        },
        {
          "name": "C4",
          "midi": 60,
          "time": 14.69767441860431,
          "velocity": 0.2047244094488189,
          "duration": 0.034883720930229956
        },
        {
          "name": "E5",
          "midi": 76,
          "time": 14.69767441860431,
          "velocity": 0.1732283464566929,
          "duration": 0.046511627906973274
        },
        {
          "name": "G5",
          "midi": 79,
          "time": 14.69767441860431,
          "velocity": 0.3700787401574803,
          "duration": 0.08139534883720323
        },
        {
          "name": "C6",
          "midi": 84,
          "time": 14.69767441860431,
          "velocity": 0.1889763779527559,
          "duration": 0.034883720930229956
        },
        {
          "name": "A#4",
          "midi": 70,
          "time": 14.709302325581053,
          "velocity": 0.31496062992125984,
          "duration": 0.09302325581394655
        },
        {
          "name": "D5",
          "midi": 74,
          "time": 14.709302325581053,
          "velocity": 0.25196850393700787,
          "duration": 0.046511627906973274
        },
        {
          "name": "C#6",
          "midi": 85,
          "time": 14.709302325581053,
          "velocity": 0.25984251968503935,
          "duration": 0.05813953488371659
        },
        {
          "name": "E6",
          "midi": 88,
          "time": 14.709302325581053,
          "velocity": 0.30708661417322836,
          "duration": 0.046511627906973274
        },
        {
          "name": "A5",
          "midi": 81,
          "time": 14.720930232557796,
          "velocity": 0.3700787401574803,
          "duration": 0.10465116279068987
        },
        {
          "name": "D#6",
          "midi": 87,
          "time": 14.73255813953454,
          "velocity": 0.28346456692913385,
          "duration": 0.08139534883720323
        },
        {
          "name": "D3",
          "midi": 50,
          "time": 14.744186046511283,
          "velocity": 0.33070866141732286,
          "duration": 0.023255813953486637
        },
        {
          "name": "D#5",
          "midi": 75,
          "time": 14.744186046511283,
          "velocity": 0.25984251968503935,
          "duration": 0.023255813953486637
        },
        {
          "name": "F5",
          "midi": 77,
          "time": 14.744186046511283,
          "velocity": 0.23622047244094488,
          "duration": 0.06976744186045991
        },
        {
          "name": "F6",
          "midi": 89,
          "time": 14.744186046511283,
          "velocity": 0.3700787401574803,
          "duration": 0.11627906976743319
        },
        {
          "name": "G6",
          "midi": 91,
          "time": 14.744186046511283,
          "velocity": 0.3779527559055118,
          "duration": 0.37209302325578797
        },
        {
          "name": "E3",
          "midi": 52,
          "time": 14.76744186046477,
          "velocity": 0.36220472440944884,
          "duration": 0.023255813953486637
        },
        {
          "name": "C5",
          "midi": 72,
          "time": 14.76744186046477,
          "velocity": 0.25196850393700787,
          "duration": 0.05813953488371659
        },
        {
          "name": "D5",
          "midi": 74,
          "time": 14.76744186046477,
          "velocity": 0.4094488188976378,
          "duration": 0.08139534883720323
        },
        {
          "name": "C6",
          "midi": 84,
          "time": 14.76744186046477,
          "velocity": 0.2677165354330709,
          "duration": 0.046511627906973274
        },
        {
          "name": "F4",
          "midi": 65,
          "time": 14.779069767441513,
          "velocity": 0.2440944881889764,
          "duration": 0.023255813953486637
        },
        {
          "name": "D#4",
          "midi": 63,
          "time": 14.790697674418256,
          "velocity": 0.29133858267716534,
          "duration": 0.034883720930229956
        },
        {
          "name": "F#4",
          "midi": 66,
          "time": 14.802325581395,
          "velocity": 0.2440944881889764,
          "duration": 0.023255813953486637
        },
        {
          "name": "G5",
          "midi": 79,
          "time": 14.802325581395,
          "velocity": 0.25196850393700787,
          "duration": 0.046511627906973274
        },
        {
          "name": "B5",
          "midi": 83,
          "time": 14.802325581395,
          "velocity": 0.31496062992125984,
          "duration": 0.046511627906973274
        },
        {
          "name": "F#7",
          "midi": 102,
          "time": 14.802325581395,
          "velocity": 0.15748031496062992,
          "duration": 0.034883720930229956
        },
        {
          "name": "E5",
          "midi": 76,
          "time": 14.813953488371743,
          "velocity": 0.2283464566929134,
          "duration": 0.034883720930229956
        },
        {
          "name": "D4",
          "midi": 62,
          "time": 14.825581395348486,
          "velocity": 0.2755905511811024,
          "duration": 0.023255813953486637
        },
        {
          "name": "A#4",
          "midi": 70,
          "time": 14.825581395348486,
          "velocity": 0.11023622047244094,
          "duration": 0.034883720930229956
        },
        {
          "name": "G3",
          "midi": 55,
          "time": 14.83720930232523,
          "velocity": 0.4881889763779528,
          "duration": 0.05813953488371659
        },
        {
          "name": "A#5",
          "midi": 82,
          "time": 14.83720930232523,
          "velocity": 0.28346456692913385,
          "duration": 0.10465116279068987
        },
        {
          "name": "F#4",
          "midi": 66,
          "time": 14.848837209301973,
          "velocity": 0.30708661417322836,
          "duration": 0.023255813953486637
        },
        {
          "name": "D#5",
          "midi": 75,
          "time": 14.848837209301973,
          "velocity": 0.3464566929133858,
          "duration": 0.05813953488371659
        },
        {
          "name": "A5",
          "midi": 81,
          "time": 14.860465116278716,
          "velocity": 0.16535433070866143,
          "duration": 0.06976744186045991
        },
        {
          "name": "E6",
          "midi": 88,
          "time": 14.860465116278716,
          "velocity": 0.2440944881889764,
          "duration": 0.046511627906973274
        },
        {
          "name": "D4",
          "midi": 62,
          "time": 14.87209302325546,
          "velocity": 0.3464566929133858,
          "duration": 0.034883720930229956
        },
        {
          "name": "G5",
          "midi": 79,
          "time": 14.87209302325546,
          "velocity": 0.2992125984251969,
          "duration": 0.24418604651161147
        },
        {
          "name": "F#6",
          "midi": 90,
          "time": 14.883720930232203,
          "velocity": 0.14960629921259844,
          "duration": 0.06976744186045991
        },
        {
          "name": "D7",
          "midi": 98,
          "time": 14.883720930232203,
          "velocity": 0.10236220472440945,
          "duration": 0.16279069767440646
        },
        {
          "name": "F#3",
          "midi": 54,
          "time": 14.895348837208946,
          "velocity": 0.3779527559055118,
          "duration": 0.023255813953486637
        },
        {
          "name": "D5",
          "midi": 74,
          "time": 14.895348837208946,
          "velocity": 0.47244094488188976,
          "duration": 0.22093023255812483
        },
        {
          "name": "B6",
          "midi": 95,
          "time": 14.895348837208946,
          "velocity": 0.11811023622047244,
          "duration": 0.05813953488371659
        },
        {
          "name": "F7",
          "midi": 101,
          "time": 14.895348837208946,
          "velocity": 0.13385826771653545,
          "duration": 0.05813953488371659
        },
        {
          "name": "F#7",
          "midi": 102,
          "time": 14.895348837208946,
          "velocity": 0.15748031496062992,
          "duration": 0.16279069767440646
        },
        {
          "name": "C4",
          "midi": 60,
          "time": 14.90697674418569,
          "velocity": 0.2283464566929134,
          "duration": 0.046511627906973274
        },
        {
          "name": "D#4",
          "midi": 63,
          "time": 14.90697674418569,
          "velocity": 0.2283464566929134,
          "duration": 0.05813953488371659
        },
        {
          "name": "F6",
          "midi": 89,
          "time": 14.90697674418569,
          "velocity": 0.4015748031496063,
          "duration": 0.046511627906973274
        },
        {
          "name": "G3",
          "midi": 55,
          "time": 14.918604651162433,
          "velocity": 0.44881889763779526,
          "duration": 0.1279069767441765
        },
        {
          "name": "F5",
          "midi": 77,
          "time": 14.930232558139176,
          "velocity": 0.09448818897637795,
          "duration": 0.046511627906973274
        },
        {
          "name": "B5",
          "midi": 83,
          "time": 14.94186046511592,
          "velocity": 0.2992125984251969,
          "duration": 0.17441860465115155
        },
        {
          "name": "D4",
          "midi": 62,
          "time": 14.965116279069406,
          "velocity": 0.2283464566929134,
          "duration": 0.023255813953486637
        },
        {
          "name": "F6",
          "midi": 89,
          "time": 14.965116279069406,
          "velocity": 0.3543307086614173,
          "duration": 0.337209302325558
        },
        {
          "name": "A#4",
          "midi": 70,
          "time": 14.97674418604615,
          "velocity": 0.1889763779527559,
          "duration": 0.06976744186045991
        },
        {
          "name": "G1",
          "midi": 31,
          "time": 14.988372093022893,
          "velocity": 0.6850393700787402,
          "duration": 0.011627906976743319
        },
        {
          "name": "D#6",
          "midi": 87,
          "time": 14.988372093022893,
          "velocity": 0.1889763779527559,
          "duration": 0.10465116279069164
        },
        {
          "name": "F1",
          "midi": 29,
          "time": 14.999999999999636,
          "velocity": 0.5590551181102362,
          "duration": 0.011627906976743319
        },
        {
          "name": "G-1",
          "midi": 7,
          "time": 15.023255813953122,
          "velocity": 0.5354330708661418,
          "duration": 0.011627906976743319
        },
        {
          "name": "F#1",
          "midi": 30,
          "time": 15.034883720929866,
          "velocity": 0.6692913385826772,
          "duration": 0.011627906976743319
        },
        {
          "name": "G#4",
          "midi": 68,
          "time": 15.034883720929866,
          "velocity": 0.30708661417322836,
          "duration": 0.10465116279069164
        },
        {
          "name": "C6",
          "midi": 84,
          "time": 15.034883720929866,
          "velocity": 0.12598425196850394,
          "duration": 0.04651162790697505
        },
        {
          "name": "G1",
          "midi": 31,
          "time": 15.04651162790661,
          "velocity": 0.7795275590551181,
          "duration": 0.6162790697674012
        },
        {
          "name": "F5",
          "midi": 77,
          "time": 15.04651162790661,
          "velocity": 0.2204724409448819,
          "duration": 0.17441860465115155
        },
        {
          "name": "G3",
          "midi": 55,
          "time": 15.058139534883352,
          "velocity": 0.4566929133858268,
          "duration": 0.05813953488371837
        },
        {
          "name": "D#4",
          "midi": 63,
          "time": 15.08139534883684,
          "velocity": 0.28346456692913385,
          "duration": 0.09302325581394655
        },
        {
          "name": "A#5",
          "midi": 82,
          "time": 15.093023255813584,
          "velocity": 0.16535433070866143,
          "duration": 0.06976744186045991
        },
        {
          "name": "C5",
          "midi": 72,
          "time": 15.104651162790327,
          "velocity": 0.08661417322834646,
          "duration": 0.046511627906973274
        },
        {
          "name": "D5",
          "midi": 74,
          "time": 15.127906976743814,
          "velocity": 0.3543307086614173,
          "duration": 0.13953488372091982
        },
        {
          "name": "G3",
          "midi": 55,
          "time": 15.139534883720557,
          "velocity": 0.47244094488188976,
          "duration": 0.13953488372091982
        },
        {
          "name": "G6",
          "midi": 91,
          "time": 15.139534883720557,
          "velocity": 0.4330708661417323,
          "duration": 0.17441860465114978
        },
        {
          "name": "G#5",
          "midi": 80,
          "time": 15.1511627906973,
          "velocity": 0.14173228346456693,
          "duration": 0.034883720930229956
        },
        {
          "name": "A#4",
          "midi": 70,
          "time": 15.18604651162753,
          "velocity": 0.15748031496062992,
          "duration": 0.034883720930229956
        },
        {
          "name": "B5",
          "midi": 83,
          "time": 15.18604651162753,
          "velocity": 0.11811023622047244,
          "duration": 0.10465116279068987
        },
        {
          "name": "A6",
          "midi": 93,
          "time": 15.18604651162753,
          "velocity": 0.14960629921259844,
          "duration": 0.06976744186045991
        },
        {
          "name": "F#7",
          "midi": 102,
          "time": 15.18604651162753,
          "velocity": 0.07874015748031496,
          "duration": 0.05813953488371659
        },
        {
          "name": "D#4",
          "midi": 63,
          "time": 15.197674418604274,
          "velocity": 0.30708661417322836,
          "duration": 0.13953488372091982
        },
        {
          "name": "D3",
          "midi": 50,
          "time": 15.209302325581017,
          "velocity": 0.29133858267716534,
          "duration": 0.023255813953486637
        },
        {
          "name": "A5",
          "midi": 81,
          "time": 15.209302325581017,
          "velocity": 0.12598425196850394,
          "duration": 0.034883720930229956
        },
        {
          "name": "F5",
          "midi": 77,
          "time": 15.25581395348799,
          "velocity": 0.33070866141732286,
          "duration": 0.48837209302322293
        },
        {
          "name": "G#3",
          "midi": 56,
          "time": 15.279069767441477,
          "velocity": 0.4094488188976378,
          "duration": 0.023255813953486637
        },
        {
          "name": "C#6",
          "midi": 85,
          "time": 15.279069767441477,
          "velocity": 0.16535433070866143,
          "duration": 0.034883720930229956
        },
        {
          "name": "G#4",
          "midi": 68,
          "time": 15.313953488371707,
          "velocity": 0.25196850393700787,
          "duration": 0.023255813953486637
        },
        {
          "name": "A#5",
          "midi": 82,
          "time": 15.313953488371707,
          "velocity": 0.10236220472440945,
          "duration": 0.046511627906973274
        },
        {
          "name": "D5",
          "midi": 74,
          "time": 15.32558139534845,
          "velocity": 0.2283464566929134,
          "duration": 0.05813953488371659
        },
        {
          "name": "F#6",
          "midi": 90,
          "time": 15.32558139534845,
          "velocity": 0.10236220472440945,
          "duration": 0.034883720930229956
        },
        {
          "name": "G3",
          "midi": 55,
          "time": 15.337209302325194,
          "velocity": 0.4409448818897638,
          "duration": 0.046511627906973274
        },
        {
          "name": "E6",
          "midi": 88,
          "time": 15.348837209301937,
          "velocity": 0.16535433070866143,
          "duration": 0.05813953488371659
        },
        {
          "name": "G6",
          "midi": 91,
          "time": 15.348837209301937,
          "velocity": 0.28346456692913385,
          "duration": 0.16279069767440824
        },
        {
          "name": "A4",
          "midi": 69,
          "time": 15.36046511627868,
          "velocity": 0.12598425196850394,
          "duration": 0.034883720930229956
        },
        {
          "name": "G5",
          "midi": 79,
          "time": 15.36046511627868,
          "velocity": 0.31496062992125984,
          "duration": 0.11627906976743496
        },
        {
          "name": "D6",
          "midi": 86,
          "time": 15.36046511627868,
          "velocity": 0.30708661417322836,
          "duration": 0.09302325581394832
        },
        {
          "name": "A#5",
          "midi": 82,
          "time": 15.372093023255424,
          "velocity": 0.15748031496062992,
          "duration": 0.046511627906973274
        },
        {
          "name": "G3",
          "midi": 55,
          "time": 15.39534883720891,
          "velocity": 0.4566929133858268,
          "duration": 0.09302325581394832
        },
        {
          "name": "D5",
          "midi": 74,
          "time": 15.39534883720891,
          "velocity": 0.3779527559055118,
          "duration": 0.16279069767440824
        },
        {
          "name": "B5",
          "midi": 83,
          "time": 15.406976744185654,
          "velocity": 0.2992125984251969,
          "duration": 0.081395348837205
        },
        {
          "name": "F6",
          "midi": 89,
          "time": 15.406976744185654,
          "velocity": 0.41732283464566927,
          "duration": 0.10465116279069164
        },
        {
          "name": "D3",
          "midi": 50,
          "time": 15.418604651162397,
          "velocity": 0.2992125984251969,
          "duration": 0.04651162790697505
        },
        {
          "name": "A6",
          "midi": 93,
          "time": 15.418604651162397,
          "velocity": 0.15748031496062992,
          "duration": 0.081395348837205
        },
        {
          "name": "C#7",
          "midi": 97,
          "time": 15.453488372092629,
          "velocity": 0.11811023622047244,
          "duration": 0.046511627906973274
        },
        {
          "name": "G#6",
          "midi": 92,
          "time": 15.465116279069372,
          "velocity": 0.2047244094488189,
          "duration": 0.05813953488371659
        },
        {
          "name": "D3",
          "midi": 50,
          "time": 15.476744186046115,
          "velocity": 0.25984251968503935,
          "duration": 0.05813953488371659
        },
        {
          "name": "D#4",
          "midi": 63,
          "time": 15.476744186046115,
          "velocity": 0.2204724409448819,
          "duration": 0.046511627906973274
        },
        {
          "name": "G#5",
          "midi": 80,
          "time": 15.476744186046115,
          "velocity": 0.2677165354330709,
          "duration": 0.06976744186045991
        },
        {
          "name": "C6",
          "midi": 84,
          "time": 15.476744186046115,
          "velocity": 0.14960629921259844,
          "duration": 0.034883720930229956
        },
        {
          "name": "F#6",
          "midi": 90,
          "time": 15.476744186046115,
          "velocity": 0.2283464566929134,
          "duration": 0.046511627906973274
        },
        {
          "name": "G#3",
          "midi": 56,
          "time": 15.488372093022859,
          "velocity": 0.4330708661417323,
          "duration": 0.046511627906973274
        },
        {
          "name": "A#5",
          "midi": 82,
          "time": 15.488372093022859,
          "velocity": 0.11811023622047244,
          "duration": 0.046511627906973274
        },
        {
          "name": "G4",
          "midi": 67,
          "time": 15.523255813953089,
          "velocity": 0.14173228346456693,
          "duration": 0.034883720930229956
        },
        {
          "name": "G3",
          "midi": 55,
          "time": 15.534883720929832,
          "velocity": 0.4094488188976378,
          "duration": 0.023255813953486637
        },
        {
          "name": "D3",
          "midi": 50,
          "time": 15.546511627906575,
          "velocity": 0.2992125984251969,
          "duration": 0.081395348837205
        },
        {
          "name": "G#3",
          "midi": 56,
          "time": 15.558139534883319,
          "velocity": 0.3700787401574803,
          "duration": 0.04651162790697505
        },
        {
          "name": "D#4",
          "midi": 63,
          "time": 15.558139534883319,
          "velocity": 0.28346456692913385,
          "duration": 0.1395348837209216
        },
        {
          "name": "A4",
          "midi": 69,
          "time": 15.558139534883319,
          "velocity": 0.2204724409448819,
          "duration": 0.10465116279069164
        },
        {
          "name": "C#5",
          "midi": 73,
          "time": 15.558139534883319,
          "velocity": 0.07086614173228346,
          "duration": 0.03488372093023173
        },
        {
          "name": "A#5",
          "midi": 82,
          "time": 15.558139534883319,
          "velocity": 0.11023622047244094,
          "duration": 0.04651162790697505
        },
        {
          "name": "G3",
          "midi": 55,
          "time": 15.604651162790294,
          "velocity": 0.3858267716535433,
          "duration": 0.034883720930229956
        },
        {
          "name": "D5",
          "midi": 74,
          "time": 15.616279069767037,
          "velocity": 0.4094488188976378,
          "duration": 0.034883720930229956
        },
        {
          "name": "F#5",
          "midi": 78,
          "time": 15.616279069767037,
          "velocity": 0.2047244094488189,
          "duration": 0.034883720930229956
        },
        {
          "name": "G#6",
          "midi": 92,
          "time": 15.616279069767037,
          "velocity": 0.23622047244094488,
          "duration": 0.023255813953486637
        },
        {
          "name": "A#6",
          "midi": 94,
          "time": 15.616279069767037,
          "velocity": 0.3228346456692913,
          "duration": 0.09302325581394655
        },
        {
          "name": "E7",
          "midi": 100,
          "time": 15.616279069767037,
          "velocity": 0.25196850393700787,
          "duration": 0.10465116279068987
        },
        {
          "name": "F7",
          "midi": 101,
          "time": 15.616279069767037,
          "velocity": 0.2283464566929134,
          "duration": 0.19767441860463641
        },
        {
          "name": "B6",
          "midi": 95,
          "time": 15.62790697674378,
          "velocity": 0.2125984251968504,
          "duration": 0.034883720930229956
        },
        {
          "name": "C#7",
          "midi": 97,
          "time": 15.62790697674378,
          "velocity": 0.2047244094488189,
          "duration": 0.10465116279068987
        },
        {
          "name": "D#7",
          "midi": 99,
          "time": 15.62790697674378,
          "velocity": 0.1889763779527559,
          "duration": 0.08139534883720323
        },
        {
          "name": "G6",
          "midi": 91,
          "time": 15.639534883720524,
          "velocity": 0.25196850393700787,
          "duration": 0.20930232558137973
        },
        {
          "name": "A6",
          "midi": 93,
          "time": 15.639534883720524,
          "velocity": 0.3228346456692913,
          "duration": 0.2441860465116097
        },
        {
          "name": "C7",
          "midi": 96,
          "time": 15.639534883720524,
          "velocity": 0.1968503937007874,
          "duration": 0.05813953488371659
        },
        {
          "name": "C5",
          "midi": 72,
          "time": 15.651162790697267,
          "velocity": 0.3779527559055118,
          "duration": 0.05813953488371659
        },
        {
          "name": "F#1",
          "midi": 30,
          "time": 15.66279069767401,
          "velocity": 0.6692913385826772,
          "duration": 0.011627906976743319
        },
        {
          "name": "F3",
          "midi": 53,
          "time": 15.66279069767401,
          "velocity": 0.36220472440944884,
          "duration": 0.023255813953486637
        },
        {
          "name": "F1",
          "midi": 29,
          "time": 15.674418604650754,
          "velocity": 0.5118110236220472,
          "duration": 0.011627906976743319
        },
        {
          "name": "B6",
          "midi": 95,
          "time": 15.674418604650754,
          "velocity": 0.4094488188976378,
          "duration": 0.10465116279068987
        },
        {
          "name": "G3",
          "midi": 55,
          "time": 15.686046511627497,
          "velocity": 0.4330708661417323,
          "duration": 0.023255813953486637
        },
        {
          "name": "D5",
          "midi": 74,
          "time": 15.686046511627497,
          "velocity": 0.4015748031496063,
          "duration": 0.10465116279068987
        },
        {
          "name": "G5",
          "midi": 79,
          "time": 15.686046511627497,
          "velocity": 0.23622047244094488,
          "duration": 0.023255813953486637
        },
        {
          "name": "B5",
          "midi": 83,
          "time": 15.686046511627497,
          "velocity": 0.2283464566929134,
          "duration": 0.10465116279068987
        },
        {
          "name": "D7",
          "midi": 98,
          "time": 15.686046511627497,
          "velocity": 0.2677165354330709,
          "duration": 0.09302325581394655
        },
        {
          "name": "F#7",
          "midi": 102,
          "time": 15.686046511627497,
          "velocity": 0.31496062992125984,
          "duration": 0.09302325581394655
        },
        {
          "name": "E4",
          "midi": 64,
          "time": 15.69767441860424,
          "velocity": 0.1732283464566929,
          "duration": 0.034883720930229956
        },
        {
          "name": "G#5",
          "midi": 80,
          "time": 15.69767441860424,
          "velocity": 0.15748031496062992,
          "duration": 0.034883720930229956
        },
        {
          "name": "D#1",
          "midi": 27,
          "time": 15.709302325580984,
          "velocity": 0.7007874015748031,
          "duration": 0.023255813953486637
        },
        {
          "name": "A4",
          "midi": 69,
          "time": 15.709302325580984,
          "velocity": 0.2677165354330709,
          "duration": 0.023255813953486637
        },
        {
          "name": "G5",
          "midi": 79,
          "time": 15.720930232557727,
          "velocity": 0.3937007874015748,
          "duration": 0.3372093023255651
        },
        {
          "name": "C#1",
          "midi": 25,
          "time": 15.73255813953447,
          "velocity": 0.7244094488188977,
          "duration": 0.011627906976743319
        },
        {
          "name": "G4",
          "midi": 67,
          "time": 15.73255813953447,
          "velocity": 0.44881889763779526,
          "duration": 0.06976744186045991
        },
        {
          "name": "C7",
          "midi": 96,
          "time": 15.73255813953447,
          "velocity": 0.15748031496062992,
          "duration": 0.034883720930229956
        },
        {
          "name": "B0",
          "midi": 23,
          "time": 15.744186046511214,
          "velocity": 0.7401574803149606,
          "duration": 0.023255813953486637
        },
        {
          "name": "G3",
          "midi": 55,
          "time": 15.755813953487957,
          "velocity": 0.4566929133858268,
          "duration": 0.034883720930229956
        },
        {
          "name": "C1",
          "midi": 24,
          "time": 15.7674418604647,
          "velocity": 0.7322834645669292,
          "duration": 0.034883720930229956
        },
        {
          "name": "D4",
          "midi": 62,
          "time": 15.7674418604647,
          "velocity": 0.2283464566929134,
          "duration": 0.05813953488371659
        },
        {
          "name": "F5",
          "midi": 77,
          "time": 15.7674418604647,
          "velocity": 0.2125984251968504,
          "duration": 0.31395348837208203
        },
        {
          "name": "F3",
          "midi": 53,
          "time": 15.790697674418187,
          "velocity": 0.4251968503937008,
          "duration": 0.06976744186045991
        },
        {
          "name": "C5",
          "midi": 72,
          "time": 15.790697674418187,
          "velocity": 0.28346456692913385,
          "duration": 0.09302325581394655
        },
        {
          "name": "A#6",
          "midi": 94,
          "time": 15.790697674418187,
          "velocity": 0.2047244094488189,
          "duration": 0.09302325581394655
        },
        {
          "name": "C7",
          "midi": 96,
          "time": 15.790697674418187,
          "velocity": 0.07086614173228346,
          "duration": 0.034883720930229956
        },
        {
          "name": "C#1",
          "midi": 25,
          "time": 15.80232558139493,
          "velocity": 0.7165354330708661,
          "duration": 0.011627906976743319
        },
        {
          "name": "G#4",
          "midi": 68,
          "time": 15.80232558139493,
          "velocity": 0.29133858267716534,
          "duration": 0.023255813953486637
        },
        {
          "name": "C1",
          "midi": 24,
          "time": 15.813953488371673,
          "velocity": 0.7480314960629921,
          "duration": 0.6744186046511729
        },
        {
          "name": "D5",
          "midi": 74,
          "time": 15.83720930232516,
          "velocity": 0.14173228346456693,
          "duration": 0.034883720930229956
        },
        {
          "name": "G4",
          "midi": 67,
          "time": 15.860465116278647,
          "velocity": 0.3228346456692913,
          "duration": 0.046511627906973274
        },
        {
          "name": "G#3",
          "midi": 56,
          "time": 15.883720930232133,
          "velocity": 0.41732283464566927,
          "duration": 0.16279069767441356
        },
        {
          "name": "A#4",
          "midi": 70,
          "time": 15.883720930232133,
          "velocity": 0.2047244094488189,
          "duration": 0.05813953488371837
        },
        {
          "name": "D#3",
          "midi": 51,
          "time": 15.895348837208877,
          "velocity": 0.41732283464566927,
          "duration": 0.244186046511631
        },
        {
          "name": "D5",
          "midi": 74,
          "time": 15.895348837208877,
          "velocity": 0.2440944881889764,
          "duration": 0.04651162790697505
        },
        {
          "name": "G2",
          "midi": 43,
          "time": 15.918604651162363,
          "velocity": 0.30708661417322836,
          "duration": 0.03488372093023173
        },
        {
          "name": "D7",
          "midi": 98,
          "time": 15.941860465115852,
          "velocity": 0.12598425196850394,
          "duration": 0.046511627906973274
        },
        {
          "name": "A#4",
          "midi": 70,
          "time": 15.953488372092595,
          "velocity": 0.30708661417322836,
          "duration": 0.16279069767442245
        },
        {
          "name": "A#6",
          "midi": 94,
          "time": 15.965116279069338,
          "velocity": 0.10236220472440945,
          "duration": 0.06976744186046346
        },
        {
          "name": "D5",
          "midi": 74,
          "time": 15.976744186046082,
          "velocity": 0.18110236220472442,
          "duration": 0.04651162790697505
        },
        {
          "name": "G2",
          "midi": 43,
          "time": 16.023255813953057,
          "velocity": 0.33858267716535434,
          "duration": 0.02325581395349019
        },
        {
          "name": "C#5",
          "midi": 73,
          "time": 16.046511627906547,
          "velocity": 0.4330708661417323,
          "duration": 0.10465116279070585
        },
        {
          "name": "G4",
          "midi": 67,
          "time": 16.058139534883292,
          "velocity": 0.25196850393700787,
          "duration": 0.06976744186047057
        },
        {
          "name": "G2",
          "midi": 43,
          "time": 16.069767441860037,
          "velocity": 0.3464566929133858,
          "duration": 0.02325581395349019
        },
        {
          "name": "G#3",
          "midi": 56,
          "time": 16.069767441860037,
          "velocity": 0.3700787401574803,
          "duration": 0.034883720930235285
        },
        {
          "name": "G5",
          "midi": 79,
          "time": 16.069767441860037,
          "velocity": 0.29133858267716534,
          "duration": 0.04651162790698038
        },
        {
          "name": "E5",
          "midi": 76,
          "time": 16.081395348836782,
          "velocity": 0.25196850393700787,
          "duration": 0.06976744186047057
        },
        {
          "name": "A5",
          "midi": 81,
          "time": 16.081395348836782,
          "velocity": 0.2047244094488189,
          "duration": 0.04651162790698038
        },
        {
          "name": "A4",
          "midi": 69,
          "time": 16.104651162790272,
          "velocity": 0.2677165354330709,
          "duration": 0.04651162790698038
        },
        {
          "name": "G2",
          "midi": 43,
          "time": 16.116279069767018,
          "velocity": 0.2283464566929134,
          "duration": 0.02325581395349019
        },
        {
          "name": "G#3",
          "midi": 56,
          "time": 16.116279069767018,
          "velocity": 0.4330708661417323,
          "duration": 0.12790697674418894
        },
        {
          "name": "G5",
          "midi": 79,
          "time": 16.127906976743763,
          "velocity": 0.2755905511811024,
          "duration": 0.02325581395349019
        },
        {
          "name": "D6",
          "midi": 86,
          "time": 16.139534883720508,
          "velocity": 0.13385826771653545,
          "duration": 0.08139534883721211
        },
        {
          "name": "A#4",
          "midi": 70,
          "time": 16.151162790697253,
          "velocity": 0.41732283464566927,
          "duration": 0.15116279069767913
        },
        {
          "name": "D5",
          "midi": 74,
          "time": 16.151162790697253,
          "velocity": 0.3779527559055118,
          "duration": 0.15116279069767913
        },
        {
          "name": "F5",
          "midi": 77,
          "time": 16.151162790697253,
          "velocity": 0.3543307086614173,
          "duration": 0.11627906976744384
        },
        {
          "name": "B6",
          "midi": 95,
          "time": 16.151162790697253,
          "velocity": 0.11023622047244094,
          "duration": 0.06976744186046702
        },
        {
          "name": "G#2",
          "midi": 44,
          "time": 16.162790697673998,
          "velocity": 0.3464566929133858,
          "duration": 0.02325581395349019
        },
        {
          "name": "D#3",
          "midi": 51,
          "time": 16.162790697673998,
          "velocity": 0.3779527559055118,
          "duration": 0.05813953488372192
        },
        {
          "name": "G5",
          "midi": 79,
          "time": 16.174418604650743,
          "velocity": 0.14173228346456693,
          "duration": 0.06976744186046346
        },
        {
          "name": "D#6",
          "midi": 87,
          "time": 16.209302325580975,
          "velocity": 0.25984251968503935,
          "duration": 0.3372093023255971
        },
        {
          "name": "F4",
          "midi": 65,
          "time": 16.22093023255772,
          "velocity": 0.2677165354330709,
          "duration": 0.05813953488372192
        },
        {
          "name": "G#3",
          "midi": 56,
          "time": 16.25581395348795,
          "velocity": 0.4251968503937008,
          "duration": 0.2441860465116399
        },
        {
          "name": "G#2",
          "midi": 44,
          "time": 16.267441860464697,
          "velocity": 0.3543307086614173,
          "duration": 0.02325581395349019
        },
        {
          "name": "E4",
          "midi": 64,
          "time": 16.27906976744144,
          "velocity": 0.2992125984251969,
          "duration": 0.034883720930235285
        },
        {
          "name": "G5",
          "midi": 79,
          "time": 16.290697674418187,
          "velocity": 0.23622047244094488,
          "duration": 0.16279069767442422
        },
        {
          "name": "D4",
          "midi": 62,
          "time": 16.325581395348422,
          "velocity": 0.3228346456692913,
          "duration": 0.06976744186046702
        },
        {
          "name": "B4",
          "midi": 71,
          "time": 16.325581395348422,
          "velocity": 0.15748031496062992,
          "duration": 0.05813953488372192
        },
        {
          "name": "F6",
          "midi": 89,
          "time": 16.325581395348422,
          "velocity": 0.11023622047244094,
          "duration": 0.03488372093023173
        },
        {
          "name": "G4",
          "midi": 67,
          "time": 16.34883720930191,
          "velocity": 0.1732283464566929,
          "duration": 0.034883720930235285
        },
        {
          "name": "G2",
          "midi": 43,
          "time": 16.360465116278654,
          "velocity": 0.30708661417322836,
          "duration": 0.02325581395349019
        },
        {
          "name": "E3",
          "midi": 52,
          "time": 16.3720930232554,
          "velocity": 0.2283464566929134,
          "duration": 0.02325581395349019
        },
        {
          "name": "D#4",
          "midi": 63,
          "time": 16.39534883720889,
          "velocity": 0.2283464566929134,
          "duration": 0.04651162790697683
        },
        {
          "name": "G#2",
          "midi": 44,
          "time": 16.406976744185634,
          "velocity": 0.3700787401574803,
          "duration": 0.023255813953486637
        },
        {
          "name": "D5",
          "midi": 74,
          "time": 16.406976744185634,
          "velocity": 0.11811023622047244,
          "duration": 0.04651162790697683
        },
        {
          "name": "D#4",
          "midi": 63,
          "time": 16.45348837209261,
          "velocity": 0.18110236220472442,
          "duration": 0.034883720930235285
        },
        {
          "name": "C#5",
          "midi": 73,
          "time": 16.45348837209261,
          "velocity": 0.11811023622047244,
          "duration": 0.04651162790698038
        },
        {
          "name": "G#5",
          "midi": 80,
          "time": 16.45348837209261,
          "velocity": 0.25984251968503935,
          "duration": 0.034883720930235285
        },
        {
          "name": "A#5",
          "midi": 82,
          "time": 16.45348837209261,
          "velocity": 0.25196850393700787,
          "duration": 0.04651162790698038
        },
        {
          "name": "C6",
          "midi": 84,
          "time": 16.45348837209261,
          "velocity": 0.23622047244094488,
          "duration": 0.11627906976745095
        },
        {
          "name": "F6",
          "midi": 89,
          "time": 16.45348837209261,
          "velocity": 0.2677165354330709,
          "duration": 0.12790697674419604
        },
        {
          "name": "G5",
          "midi": 79,
          "time": 16.465116279069356,
          "velocity": 0.3858267716535433,
          "duration": 0.04651162790698038
        },
        {
          "name": "F#6",
          "midi": 90,
          "time": 16.465116279069356,
          "velocity": 0.25196850393700787,
          "duration": 0.13953488372094114
        },
        {
          "name": "D#5",
          "midi": 75,
          "time": 16.4767441860461,
          "velocity": 0.2047244094488189,
          "duration": 0.034883720930235285
        },
        {
          "name": "C#6",
          "midi": 85,
          "time": 16.4767441860461,
          "velocity": 0.18110236220472442,
          "duration": 0.04651162790698038
        },
        {
          "name": "E6",
          "midi": 88,
          "time": 16.4767441860461,
          "velocity": 0.2283464566929134,
          "duration": 0.09302325581396076
        },
        {
          "name": "C#1",
          "midi": 25,
          "time": 16.488372093022846,
          "velocity": 0.7165354330708661,
          "duration": 0.011627906976745095
        },
        {
          "name": "D4",
          "midi": 62,
          "time": 16.488372093022846,
          "velocity": 0.2204724409448819,
          "duration": 0.06976744186047057
        },
        {
          "name": "F5",
          "midi": 77,
          "time": 16.488372093022846,
          "velocity": 0.23622047244094488,
          "duration": 0.034883720930235285
        },
        {
          "name": "A5",
          "midi": 81,
          "time": 16.488372093022846,
          "velocity": 0.31496062992125984,
          "duration": 0.034883720930235285
        },
        {
          "name": "C1",
          "midi": 24,
          "time": 16.49999999999959,
          "velocity": 0.7480314960629921,
          "duration": 0.5000000000000391
        },
        {
          "name": "G#2",
          "midi": 44,
          "time": 16.49999999999959,
          "velocity": 0.31496062992125984,
          "duration": 0.02325581395349019
        },
        {
          "name": "F3",
          "midi": 53,
          "time": 16.49999999999959,
          "velocity": 0.2677165354330709,
          "duration": 0.02325581395349019
        },
        {
          "name": "G4",
          "midi": 67,
          "time": 16.49999999999959,
          "velocity": 0.11811023622047244,
          "duration": 0.034883720930235285
        },
        {
          "name": "E5",
          "midi": 76,
          "time": 16.511627906976337,
          "velocity": 0.23622047244094488,
          "duration": 0.04651162790698038
        },
        {
          "name": "F#5",
          "midi": 78,
          "time": 16.511627906976337,
          "velocity": 0.3228346456692913,
          "duration": 0.04651162790698038
        },
        {
          "name": "A#5",
          "midi": 82,
          "time": 16.511627906976337,
          "velocity": 0.28346456692913385,
          "duration": 0.08139534883721566
        },
        {
          "name": "G#5",
          "midi": 80,
          "time": 16.52325581395308,
          "velocity": 0.2992125984251969,
          "duration": 0.034883720930235285
        },
        {
          "name": "G6",
          "midi": 91,
          "time": 16.52325581395308,
          "velocity": 0.41732283464566927,
          "duration": 0.17441860465117642
        },
        {
          "name": "F5",
          "midi": 77,
          "time": 16.546511627906572,
          "velocity": 0.2283464566929134,
          "duration": 0.02325581395349019
        },
        {
          "name": "C#6",
          "midi": 85,
          "time": 16.546511627906572,
          "velocity": 0.1732283464566929,
          "duration": 0.04651162790698038
        },
        {
          "name": "A6",
          "midi": 93,
          "time": 16.546511627906572,
          "velocity": 0.2047244094488189,
          "duration": 0.12790697674419604
        },
        {
          "name": "G3",
          "midi": 55,
          "time": 16.558139534883317,
          "velocity": 0.3700787401574803,
          "duration": 0.02325581395349019
        },
        {
          "name": "C#5",
          "midi": 73,
          "time": 16.558139534883317,
          "velocity": 0.28346456692913385,
          "duration": 0.034883720930235285
        },
        {
          "name": "G5",
          "midi": 79,
          "time": 16.558139534883317,
          "velocity": 0.33070866141732286,
          "duration": 0.17441860465117642
        },
        {
          "name": "A5",
          "midi": 81,
          "time": 16.558139534883317,
          "velocity": 0.2440944881889764,
          "duration": 0.04651162790698038
        },
        {
          "name": "F#5",
          "midi": 78,
          "time": 16.569767441860062,
          "velocity": 0.3228346456692913,
          "duration": 0.04651162790698038
        },
        {
          "name": "D#6",
          "midi": 87,
          "time": 16.581395348836807,
          "velocity": 0.2992125984251969,
          "duration": 0.2209302325581568
        },
        {
          "name": "G2",
          "midi": 43,
          "time": 16.593023255813552,
          "velocity": 0.2677165354330709,
          "duration": 0.02325581395349019
        },
        {
          "name": "F#3",
          "midi": 54,
          "time": 16.593023255813552,
          "velocity": 0.4330708661417323,
          "duration": 0.034883720930235285
        },
        {
          "name": "C5",
          "midi": 72,
          "time": 16.593023255813552,
          "velocity": 0.2283464566929134,
          "duration": 0.02325581395349019
        },
        {
          "name": "F6",
          "midi": 89,
          "time": 16.593023255813552,
          "velocity": 0.2677165354330709,
          "duration": 0.11627906976745095
        },
        {
          "name": "G#6",
          "midi": 92,
          "time": 16.604651162790297,
          "velocity": 0.08661417322834646,
          "duration": 0.034883720930235285
        },
        {
          "name": "D#4",
          "midi": 63,
          "time": 16.616279069767042,
          "velocity": 0.25984251968503935,
          "duration": 0.2093023255814117
        },
        {
          "name": "D5",
          "midi": 74,
          "time": 16.616279069767042,
          "velocity": 0.4409448818897638,
          "duration": 0.10465116279070585
        },
        {
          "name": "B5",
          "midi": 83,
          "time": 16.616279069767042,
          "velocity": 0.2677165354330709,
          "duration": 0.10465116279070585
        },
        {
          "name": "F#7",
          "midi": 102,
          "time": 16.616279069767042,
          "velocity": 0.13385826771653545,
          "duration": 0.058139534883725474
        },
        {
          "name": "G3",
          "midi": 55,
          "time": 16.627906976743787,
          "velocity": 0.3779527559055118,
          "duration": 0.02325581395349019
        },
        {
          "name": "B4",
          "midi": 71,
          "time": 16.651162790697278,
          "velocity": 0.07086614173228346,
          "duration": 0.034883720930235285
        },
        {
          "name": "F5",
          "midi": 77,
          "time": 16.651162790697278,
          "velocity": 0.15748031496062992,
          "duration": 0.04651162790698038
        },
        {
          "name": "G3",
          "midi": 55,
          "time": 16.662790697674023,
          "velocity": 0.4645669291338583,
          "duration": 0.04651162790698038
        },
        {
          "name": "C#5",
          "midi": 73,
          "time": 16.709302325581003,
          "velocity": 0.09448818897637795,
          "duration": 0.04651162790698038
        },
        {
          "name": "G3",
          "midi": 55,
          "time": 16.732558139534493,
          "velocity": 0.3700787401574803,
          "duration": 0.02325581395349019
        },
        {
          "name": "A4",
          "midi": 69,
          "time": 16.74418604651124,
          "velocity": 0.25196850393700787,
          "duration": 0.02325581395349019
        },
        {
          "name": "D#5",
          "midi": 75,
          "time": 16.74418604651124,
          "velocity": 0.44881889763779526,
          "duration": 0.06976744186047057
        },
        {
          "name": "G#3",
          "midi": 56,
          "time": 16.755813953487984,
          "velocity": 0.4409448818897638,
          "duration": 0.058139534883725474
        },
        {
          "name": "G#6",
          "midi": 92,
          "time": 16.755813953487984,
          "velocity": 0.3464566929133858,
          "duration": 0.09302325581396076
        },
        {
          "name": "E7",
          "midi": 100,
          "time": 16.755813953487984,
          "velocity": 0.25984251968503935,
          "duration": 0.058139534883725474
        },
        {
          "name": "F#6",
          "midi": 90,
          "time": 16.76744186046473,
          "velocity": 0.3464566929133858,
          "duration": 0.02325581395349019
        },
        {
          "name": "C#7",
          "midi": 97,
          "time": 16.76744186046473,
          "velocity": 0.10236220472440945,
          "duration": 0.034883720930235285
        },
        {
          "name": "G7",
          "midi": 103,
          "time": 16.76744186046473,
          "velocity": 0.10236220472440945,
          "duration": 0.058139534883725474
        },
        {
          "name": "G6",
          "midi": 91,
          "time": 16.779069767441474,
          "velocity": 0.3543307086614173,
          "duration": 0.09302325581396076
        },
        {
          "name": "G5",
          "midi": 79,
          "time": 16.79069767441822,
          "velocity": 0.3779527559055118,
          "duration": 0.11627906976745095
        },
        {
          "name": "B5",
          "midi": 83,
          "time": 16.79069767441822,
          "velocity": 0.14960629921259844,
          "duration": 0.06976744186047057
        },
        {
          "name": "F6",
          "midi": 89,
          "time": 16.79069767441822,
          "velocity": 0.2204724409448819,
          "duration": 0.06976744186047057
        },
        {
          "name": "A6",
          "midi": 93,
          "time": 16.79069767441822,
          "velocity": 0.31496062992125984,
          "duration": 0.11627906976745095
        },
        {
          "name": "F7",
          "midi": 101,
          "time": 16.79069767441822,
          "velocity": 0.2440944881889764,
          "duration": 0.06976744186047057
        },
        {
          "name": "G4",
          "midi": 67,
          "time": 16.802325581394964,
          "velocity": 0.41732283464566927,
          "duration": 0.2674418604651372
        },
        {
          "name": "D5",
          "midi": 74,
          "time": 16.802325581394964,
          "velocity": 0.3543307086614173,
          "duration": 0.08139534883721566
        },
        {
          "name": "F#3",
          "midi": 54,
          "time": 16.825581395348454,
          "velocity": 0.2283464566929134,
          "duration": 0.02325581395349019
        },
        {
          "name": "C#7",
          "midi": 97,
          "time": 16.825581395348454,
          "velocity": 0.10236220472440945,
          "duration": 0.034883720930235285
        },
        {
          "name": "F#7",
          "midi": 102,
          "time": 16.825581395348454,
          "velocity": 0.08661417322834646,
          "duration": 0.034883720930235285
        },
        {
          "name": "E7",
          "midi": 100,
          "time": 16.8372093023252,
          "velocity": 0.2440944881889764,
          "duration": 0.02325581395349019
        },
        {
          "name": "G3",
          "midi": 55,
          "time": 16.848837209301944,
          "velocity": 0.3464566929133858,
          "duration": 0.04651162790698038
        },
        {
          "name": "D#5",
          "midi": 75,
          "time": 16.86046511627869,
          "velocity": 0.31496062992125984,
          "duration": 0.11627906976745095
        },
        {
          "name": "D4",
          "midi": 62,
          "time": 16.872093023255434,
          "velocity": 0.2047244094488189,
          "duration": 0.034883720930235285
        },
        {
          "name": "G2",
          "midi": 43,
          "time": 16.88372093023218,
          "velocity": 0.29133858267716534,
          "duration": 0.034883720930235285
        },
        {
          "name": "F3",
          "midi": 53,
          "time": 16.895348837208925,
          "velocity": 0.4094488188976378,
          "duration": 0.034883720930235285
        },
        {
          "name": "A#5",
          "midi": 82,
          "time": 16.918604651162415,
          "velocity": 0.11811023622047244,
          "duration": 0.04651162790698038
        },
        {
          "name": "D4",
          "midi": 62,
          "time": 16.93023255813916,
          "velocity": 0.25984251968503935,
          "duration": 0.034883720930235285
        },
        {
          "name": "B4",
          "midi": 71,
          "time": 16.941860465115905,
          "velocity": 0.15748031496062992,
          "duration": 0.058139534883725474
        },
        {
          "name": "F3",
          "midi": 53,
          "time": 16.95348837209265,
          "velocity": 0.3937007874015748,
          "duration": 0.02325581395349019
        },
        {
          "name": "D6",
          "midi": 86,
          "time": 16.95348837209265,
          "velocity": 0.09448818897637795,
          "duration": 0.09302325581396076
        },
        {
          "name": "A6",
          "midi": 93,
          "time": 16.95348837209265,
          "velocity": 0.4015748031496063,
          "duration": 0.08139534883721566
        },
        {
          "name": "A#6",
          "midi": 94,
          "time": 16.95348837209265,
          "velocity": 0.25984251968503935,
          "duration": 0.034883720930235285
        },
        {
          "name": "C7",
          "midi": 96,
          "time": 16.95348837209265,
          "velocity": 0.16535433070866143,
          "duration": 0.04651162790698038
        },
        {
          "name": "D7",
          "midi": 98,
          "time": 16.95348837209265,
          "velocity": 0.14173228346456693,
          "duration": 0.04651162790698038
        },
        {
          "name": "D#7",
          "midi": 99,
          "time": 16.95348837209265,
          "velocity": 0.23622047244094488,
          "duration": 0.04651162790698038
        },
        {
          "name": "D#4",
          "midi": 63,
          "time": 16.965116279069395,
          "velocity": 0.1968503937007874,
          "duration": 0.10465116279070585
        },
        {
          "name": "F5",
          "midi": 77,
          "time": 16.965116279069395,
          "velocity": 0.11023622047244094,
          "duration": 0.034883720930235285
        },
        {
          "name": "B6",
          "midi": 95,
          "time": 16.965116279069395,
          "velocity": 0.2047244094488189,
          "duration": 0.034883720930235285
        },
        {
          "name": "D5",
          "midi": 74,
          "time": 16.97674418604614,
          "velocity": 0.4566929133858268,
          "duration": 0.2441860465116399
        },
        {
          "name": "B5",
          "midi": 83,
          "time": 16.97674418604614,
          "velocity": 0.2677165354330709,
          "duration": 0.20930232558140816
        },
        {
          "name": "G3",
          "midi": 55,
          "time": 16.988372093022885,
          "velocity": 0.4881889763779528,
          "duration": 0.06976744186047057
        },
        {
          "name": "C#1",
          "midi": 25,
          "time": 16.99999999999963,
          "velocity": 0.7401574803149606,
          "duration": 0.011627906976745095
        },
        {
          "name": "D1",
          "midi": 26,
          "time": 17.011627906976376,
          "velocity": 0.6929133858267716,
          "duration": 0.011627906976745095
        },
        {
          "name": "A#0",
          "midi": 22,
          "time": 17.02325581395312,
          "velocity": 0.5984251968503937,
          "duration": 0.011627906976745095
        },
        {
          "name": "D#6",
          "midi": 87,
          "time": 17.04651162790661,
          "velocity": 0.1968503937007874,
          "duration": 0.04651162790698038
        },
        {
          "name": "F6",
          "midi": 89,
          "time": 17.04651162790661,
          "velocity": 0.15748031496062992,
          "duration": 0.08139534883721566
        },
        {
          "name": "G#6",
          "midi": 92,
          "time": 17.04651162790661,
          "velocity": 0.2283464566929134,
          "duration": 0.058139534883725474
        },
        {
          "name": "E7",
          "midi": 100,
          "time": 17.04651162790661,
          "velocity": 0.11811023622047244,
          "duration": 0.058139534883725474
        },
        {
          "name": "F3",
          "midi": 53,
          "time": 17.058139534883356,
          "velocity": 0.3937007874015748,
          "duration": 0.034883720930235285
        },
        {
          "name": "C5",
          "midi": 72,
          "time": 17.058139534883356,
          "velocity": 0.10236220472440945,
          "duration": 0.034883720930235285
        },
        {
          "name": "A#6",
          "midi": 94,
          "time": 17.058139534883356,
          "velocity": 0.09448818897637795,
          "duration": 0.034883720930235285
        },
        {
          "name": "F#0",
          "midi": 18,
          "time": 17.0697674418601,
          "velocity": 0.3543307086614173,
          "duration": 0.02325581395349019
        },
        {
          "name": "G#4",
          "midi": 68,
          "time": 17.0697674418601,
          "velocity": 0.23622047244094488,
          "duration": 0.02325581395349019
        },
        {
          "name": "C#6",
          "midi": 85,
          "time": 17.0697674418601,
          "velocity": 0.1968503937007874,
          "duration": 0.034883720930235285
        },
        {
          "name": "D#4",
          "midi": 63,
          "time": 17.081395348836846,
          "velocity": 0.2125984251968504,
          "duration": 0.17441860465116932
        },
        {
          "name": "G4",
          "midi": 67,
          "time": 17.09302325581359,
          "velocity": 0.3543307086614173,
          "duration": 0.034883720930235285
        },
        {
          "name": "B4",
          "midi": 71,
          "time": 17.09302325581359,
          "velocity": 0.15748031496062992,
          "duration": 0.058139534883725474
        },
        {
          "name": "G#5",
          "midi": 80,
          "time": 17.09302325581359,
          "velocity": 0.15748031496062992,
          "duration": 0.034883720930235285
        },
        {
          "name": "G3",
          "midi": 55,
          "time": 17.104651162790336,
          "velocity": 0.3858267716535433,
          "duration": 0.034883720930235285
        },
        {
          "name": "A6",
          "midi": 93,
          "time": 17.104651162790336,
          "velocity": 0.3700787401574803,
          "duration": 0.16279069767442422
        },
        {
          "name": "G#6",
          "midi": 92,
          "time": 17.11627906976708,
          "velocity": 0.2440944881889764,
          "duration": 0.13953488372093403
        },
        {
          "name": "C7",
          "midi": 96,
          "time": 17.127906976743827,
          "velocity": 0.11023622047244094,
          "duration": 0.04651162790697683
        },
        {
          "name": "G3",
          "midi": 55,
          "time": 17.151162790697317,
          "velocity": 0.3543307086614173,
          "duration": 0.06976744186046346
        },
        {
          "name": "F6",
          "midi": 89,
          "time": 17.151162790697317,
          "velocity": 0.11811023622047244,
          "duration": 0.05813953488371837
        },
        {
          "name": "G4",
          "midi": 67,
          "time": 17.174418604650803,
          "velocity": 0.3779527559055118,
          "duration": 0.1279069767441925
        },
        {
          "name": "A#6",
          "midi": 94,
          "time": 17.209302325581035,
          "velocity": 0.29133858267716534,
          "duration": 0.06976744186047057
        },
        {
          "name": "G#3",
          "midi": 56,
          "time": 17.22093023255778,
          "velocity": 0.28346456692913385,
          "duration": 0.034883720930235285
        },
        {
          "name": "D#5",
          "midi": 75,
          "time": 17.22093023255778,
          "velocity": 0.3937007874015748,
          "duration": 0.04651162790698038
        },
        {
          "name": "B6",
          "midi": 95,
          "time": 17.22093023255778,
          "velocity": 0.1889763779527559,
          "duration": 0.08139534883721566
        },
        {
          "name": "C7",
          "midi": 96,
          "time": 17.232558139534525,
          "velocity": 0.2047244094488189,
          "duration": 0.058139534883725474
        },
        {
          "name": "D#7",
          "midi": 99,
          "time": 17.24418604651127,
          "velocity": 0.1889763779527559,
          "duration": 0.058139534883725474
        },
        {
          "name": "E7",
          "midi": 100,
          "time": 17.24418604651127,
          "velocity": 0.1732283464566929,
          "duration": 0.06976744186047057
        },
        {
          "name": "G3",
          "midi": 55,
          "time": 17.255813953488015,
          "velocity": 0.4251968503937008,
          "duration": 0.08139534883721566
        },
        {
          "name": "D5",
          "midi": 74,
          "time": 17.255813953488015,
          "velocity": 0.3779527559055118,
          "duration": 0.13953488372093759
        },
        {
          "name": "D7",
          "midi": 98,
          "time": 17.255813953488015,
          "velocity": 0.29133858267716534,
          "duration": 0.058139534883725474
        },
        {
          "name": "B4",
          "midi": 71,
          "time": 17.26744186046476,
          "velocity": 0.2204724409448819,
          "duration": 0.04651162790698038
        },
        {
          "name": "C#7",
          "midi": 97,
          "time": 17.26744186046476,
          "velocity": 0.25984251968503935,
          "duration": 0.04651162790698038
        },
        {
          "name": "F7",
          "midi": 101,
          "time": 17.279069767441506,
          "velocity": 0.16535433070866143,
          "duration": 0.034883720930235285
        },
        {
          "name": "D4",
          "midi": 62,
          "time": 17.302325581394996,
          "velocity": 0.1968503937007874,
          "duration": 0.1162790697674474
        },
        {
          "name": "A#4",
          "midi": 70,
          "time": 17.302325581394996,
          "velocity": 0.1732283464566929,
          "duration": 0.05813953488372192
        },
        {
          "name": "G#5",
          "midi": 80,
          "time": 17.325581395348486,
          "velocity": 0.09448818897637795,
          "duration": 0.04651162790697683
        },
        {
          "name": "A5",
          "midi": 81,
          "time": 17.33720930232523,
          "velocity": 0.12598425196850394,
          "duration": 0.04651162790697683
        },
        {
          "name": "F#7",
          "midi": 102,
          "time": 17.33720930232523,
          "velocity": 0.2204724409448819,
          "duration": 0.16279069767442422
        },
        {
          "name": "G3",
          "midi": 55,
          "time": 17.383720930232208,
          "velocity": 0.4645669291338583,
          "duration": 0.02325581395349019
        },
        {
          "name": "D7",
          "midi": 98,
          "time": 17.383720930232208,
          "velocity": 0.1968503937007874,
          "duration": 0.06976744186046702
        },
        {
          "name": "D#7",
          "midi": 99,
          "time": 17.383720930232208,
          "velocity": 0.25196850393700787,
          "duration": 0.1162790697674474
        },
        {
          "name": "C#5",
          "midi": 73,
          "time": 17.395348837208953,
          "velocity": 0.3937007874015748,
          "duration": 0.02325581395349019
        },
        {
          "name": "A5",
          "midi": 81,
          "time": 17.395348837208953,
          "velocity": 0.1889763779527559,
          "duration": 0.1046511627907023
        },
        {
          "name": "G6",
          "midi": 91,
          "time": 17.395348837208953,
          "velocity": 0.3543307086614173,
          "duration": 0.5465116279069946
        },
        {
          "name": "C#7",
          "midi": 97,
          "time": 17.395348837208953,
          "velocity": 0.2204724409448819,
          "duration": 0.08139534883721211
        },
        {
          "name": "D5",
          "midi": 74,
          "time": 17.406976744185698,
          "velocity": 0.2440944881889764,
          "duration": 0.02325581395349019
        },
        {
          "name": "F5",
          "midi": 77,
          "time": 17.406976744185698,
          "velocity": 0.33070866141732286,
          "duration": 0.0930232558139572
        },
        {
          "name": "C6",
          "midi": 84,
          "time": 17.406976744185698,
          "velocity": 0.1968503937007874,
          "duration": 0.1046511627907023
        },
        {
          "name": "A6",
          "midi": 93,
          "time": 17.406976744185698,
          "velocity": 0.3779527559055118,
          "duration": 0.25581395348838143
        },
        {
          "name": "A#6",
          "midi": 94,
          "time": 17.406976744185698,
          "velocity": 0.3228346456692913,
          "duration": 0.08139534883721211
        },
        {
          "name": "C7",
          "midi": 96,
          "time": 17.406976744185698,
          "velocity": 0.28346456692913385,
          "duration": 0.0930232558139572
        },
        {
          "name": "E7",
          "midi": 100,
          "time": 17.406976744185698,
          "velocity": 0.2677165354330709,
          "duration": 0.08139534883721211
        },
        {
          "name": "F3",
          "midi": 53,
          "time": 17.418604651162443,
          "velocity": 0.3937007874015748,
          "duration": 0.06976744186046702
        },
        {
          "name": "C5",
          "midi": 72,
          "time": 17.418604651162443,
          "velocity": 0.4645669291338583,
          "duration": 0.06976744186046702
        },
        {
          "name": "F6",
          "midi": 89,
          "time": 17.418604651162443,
          "velocity": 0.36220472440944884,
          "duration": 0.1860465116279144
        },
        {
          "name": "D4",
          "midi": 62,
          "time": 17.43023255813919,
          "velocity": 0.23622047244094488,
          "duration": 0.1860465116279144
        },
        {
          "name": "G4",
          "midi": 67,
          "time": 17.453488372092675,
          "velocity": 0.2283464566929134,
          "duration": 0.034883720930235285
        },
        {
          "name": "F#6",
          "midi": 90,
          "time": 17.46511627906942,
          "velocity": 0.08661417322834646,
          "duration": 0.034883720930235285
        },
        {
          "name": "D6",
          "midi": 86,
          "time": 17.476744186046165,
          "velocity": 0.2047244094488189,
          "duration": 0.034883720930235285
        },
        {
          "name": "B6",
          "midi": 95,
          "time": 17.476744186046165,
          "velocity": 0.2204724409448819,
          "duration": 0.1162790697674474
        },
        {
          "name": "A#4",
          "midi": 70,
          "time": 17.48837209302291,
          "velocity": 0.14960629921259844,
          "duration": 0.0930232558139572
        },
        {
          "name": "D5",
          "midi": 74,
          "time": 17.48837209302291,
          "velocity": 0.36220472440944884,
          "duration": 0.2093023255814046
        },
        {
          "name": "B5",
          "midi": 83,
          "time": 17.48837209302291,
          "velocity": 0.2204724409448819,
          "duration": 0.1279069767441925
        },
        {
          "name": "G#6",
          "midi": 92,
          "time": 17.48837209302291,
          "velocity": 0.16535433070866143,
          "duration": 0.034883720930235285
        },
        {
          "name": "G3",
          "midi": 55,
          "time": 17.499999999999655,
          "velocity": 0.41732283464566927,
          "duration": 0.1046511627907023
        },
        {
          "name": "D#6",
          "midi": 87,
          "time": 17.499999999999655,
          "velocity": 0.2283464566929134,
          "duration": 0.02325581395349019
        },
        {
          "name": "C#7",
          "midi": 97,
          "time": 17.499999999999655,
          "velocity": 0.14960629921259844,
          "duration": 0.05813953488372192
        },
        {
          "name": "E7",
          "midi": 100,
          "time": 17.499999999999655,
          "velocity": 0.1732283464566929,
          "duration": 0.034883720930235285
        },
        {
          "name": "G#6",
          "midi": 92,
          "time": 17.558139534883377,
          "velocity": 0.11023622047244094,
          "duration": 0.034883720930235285
        },
        {
          "name": "C7",
          "midi": 96,
          "time": 17.558139534883377,
          "velocity": 0.2125984251968504,
          "duration": 0.0930232558139572
        },
        {
          "name": "A5",
          "midi": 81,
          "time": 17.569767441860122,
          "velocity": 0.25984251968503935,
          "duration": 0.1162790697674474
        },
        {
          "name": "E6",
          "midi": 88,
          "time": 17.593023255813613,
          "velocity": 0.33858267716535434,
          "duration": 0.02325581395349019
        },
        {
          "name": "A#6",
          "midi": 94,
          "time": 17.593023255813613,
          "velocity": 0.2283464566929134,
          "duration": 0.1162790697674474
        },
        {
          "name": "C5",
          "midi": 72,
          "time": 17.604651162790358,
          "velocity": 0.4645669291338583,
          "duration": 0.06976744186046702
        },
        {
          "name": "F5",
          "midi": 77,
          "time": 17.604651162790358,
          "velocity": 0.28346456692913385,
          "duration": 0.06976744186046702
        },
        {
          "name": "D#6",
          "midi": 87,
          "time": 17.604651162790358,
          "velocity": 0.33070866141732286,
          "duration": 0.03488372093023173
        },
        {
          "name": "F3",
          "midi": 53,
          "time": 17.616279069767103,
          "velocity": 0.4409448818897638,
          "duration": 0.05813953488372192
        },
        {
          "name": "G5",
          "midi": 79,
          "time": 17.616279069767103,
          "velocity": 0.33070866141732286,
          "duration": 0.2790697674418645
        },
        {
          "name": "D6",
          "midi": 86,
          "time": 17.616279069767103,
          "velocity": 0.36220472440944884,
          "duration": 0.08139534883721211
        },
        {
          "name": "F6",
          "midi": 89,
          "time": 17.616279069767103,
          "velocity": 0.3937007874015748,
          "duration": 0.33720930232559
        },
        {
          "name": "G#4",
          "midi": 68,
          "time": 17.63953488372059,
          "velocity": 0.2125984251968504,
          "duration": 0.034883720930235285
        },
        {
          "name": "D4",
          "midi": 62,
          "time": 17.66279069767408,
          "velocity": 0.31496062992125984,
          "duration": 0.02325581395349019
        },
        {
          "name": "G#6",
          "midi": 92,
          "time": 17.66279069767408,
          "velocity": 0.1732283464566929,
          "duration": 0.13953488372093403
        },
        {
          "name": "E3",
          "midi": 52,
          "time": 17.674418604650825,
          "velocity": 0.41732283464566927,
          "duration": 0.02325581395349019
        },
        {
          "name": "A#5",
          "midi": 82,
          "time": 17.674418604650825,
          "velocity": 0.25984251968503935,
          "duration": 0.2325581395348877
        },
        {
          "name": "D#4",
          "midi": 63,
          "time": 17.68604651162757,
          "velocity": 0.3858267716535433,
          "duration": 0.27906976744186807
        },
        {
          "name": "A#4",
          "midi": 70,
          "time": 17.68604651162757,
          "velocity": 0.4645669291338583,
          "duration": 0.24418604651163278
        },
        {
          "name": "E6",
          "midi": 88,
          "time": 17.68604651162757,
          "velocity": 0.14960629921259844,
          "duration": 0.034883720930235285
        },
        {
          "name": "D#3",
          "midi": 51,
          "time": 17.697674418604315,
          "velocity": 0.44881889763779526,
          "duration": 0.31395348837210335
        },
        {
          "name": "G4",
          "midi": 67,
          "time": 17.697674418604315,
          "velocity": 0.14960629921259844,
          "duration": 0.05813953488372192
        },
        {
          "name": "C6",
          "midi": 84,
          "time": 17.697674418604315,
          "velocity": 0.2440944881889764,
          "duration": 0.04651162790697683
        },
        {
          "name": "B5",
          "midi": 83,
          "time": 17.70930232558106,
          "velocity": 0.10236220472440945,
          "duration": 0.03488372093023173
        },
        {
          "name": "D6",
          "midi": 86,
          "time": 17.70930232558106,
          "velocity": 0.3543307086614173,
          "duration": 0.16279069767442067
        },
        {
          "name": "C#7",
          "midi": 97,
          "time": 17.720930232557805,
          "velocity": 0.2047244094488189,
          "duration": 0.2093023255813975
        },
        {
          "name": "E7",
          "midi": 100,
          "time": 17.720930232557805,
          "velocity": 0.10236220472440945,
          "duration": 0.04651162790697683
        },
        {
          "name": "C#6",
          "midi": 85,
          "time": 17.74418604651129,
          "velocity": 0.2283464566929134,
          "duration": 0.17441860465116577
        },
        {
          "name": "F#6",
          "midi": 90,
          "time": 17.74418604651129,
          "velocity": 0.11811023622047244,
          "duration": 0.034883720930235285
        },
        {
          "name": "B6",
          "midi": 95,
          "time": 17.74418604651129,
          "velocity": 0.09448818897637795,
          "duration": 0.05813953488372192
        },
        {
          "name": "A6",
          "midi": 93,
          "time": 17.81395348837176,
          "velocity": 0.07874015748031496,
          "duration": 0.03488372093023173
        },
        {
          "name": "D#7",
          "midi": 99,
          "time": 17.81395348837176,
          "velocity": 0.11811023622047244,
          "duration": 0.12790697674418894
        },
        {
          "name": "C5",
          "midi": 72,
          "time": 17.84883720930199,
          "velocity": 0.4251968503937008,
          "duration": 0.0930232558139572
        },
        {
          "name": "A5",
          "midi": 81,
          "time": 17.860465116278736,
          "velocity": 0.2283464566929134,
          "duration": 0.04651162790697683
        },
        {
          "name": "F#7",
          "midi": 102,
          "time": 17.87209302325548,
          "velocity": 0.08661417322834646,
          "duration": 0.04651162790697683
        },
        {
          "name": "G#3",
          "midi": 56,
          "time": 17.895348837208967,
          "velocity": 0.25196850393700787,
          "duration": 0.04651162790698038
        },
        {
          "name": "F#5",
          "midi": 78,
          "time": 17.895348837208967,
          "velocity": 0.33858267716535434,
          "duration": 0.058139534883725474
        },
        {
          "name": "A5",
          "midi": 81,
          "time": 17.930232558139203,
          "velocity": 0.2677165354330709,
          "duration": 0.08139534883721566
        },
        {
          "name": "A#1",
          "midi": 34,
          "time": 17.941860465115948,
          "velocity": 0.6062992125984252,
          "duration": 0.011627906976745095
        },
        {
          "name": "A4",
          "midi": 69,
          "time": 17.941860465115948,
          "velocity": 0.3228346456692913,
          "duration": 0.02325581395349019
        },
        {
          "name": "C#5",
          "midi": 73,
          "time": 17.941860465115948,
          "velocity": 0.4251968503937008,
          "duration": 0.02325581395349019
        },
        {
          "name": "C6",
          "midi": 84,
          "time": 17.941860465115948,
          "velocity": 0.2992125984251969,
          "duration": 0.08139534883721566
        },
        {
          "name": "G1",
          "midi": 31,
          "time": 17.953488372092693,
          "velocity": 0.7637795275590551,
          "duration": 0.02325581395349019
        },
        {
          "name": "A#3",
          "midi": 58,
          "time": 17.953488372092693,
          "velocity": 0.29133858267716534,
          "duration": 0.034883720930235285
        },
        {
          "name": "F5",
          "midi": 77,
          "time": 17.953488372092693,
          "velocity": 0.4094488188976378,
          "duration": 0.13953488372093403
        },
        {
          "name": "D6",
          "midi": 86,
          "time": 17.953488372092693,
          "velocity": 0.07086614173228346,
          "duration": 0.04651162790698038
        },
        {
          "name": "D4",
          "midi": 62,
          "time": 17.965116279069438,
          "velocity": 0.3779527559055118,
          "duration": 0.02325581395349019
        },
        {
          "name": "A#4",
          "midi": 70,
          "time": 17.965116279069438,
          "velocity": 0.3464566929133858,
          "duration": 0.15116279069767913
        },
        {
          "name": "G#1",
          "midi": 32,
          "time": 17.976744186046183,
          "velocity": 0.7637795275590551,
          "duration": 0.6046511627907236
        },
        {
          "name": "B5",
          "midi": 83,
          "time": 17.976744186046183,
          "velocity": 0.11023622047244094,
          "duration": 0.034883720930235285
        },
        {
          "name": "D5",
          "midi": 74,
          "time": 18.023255813953163,
          "velocity": 0.3779527559055118,
          "duration": 0.06976744186046346
        },
        {
          "name": "B5",
          "midi": 83,
          "time": 18.023255813953163,
          "velocity": 0.2755905511811024,
          "duration": 0.023255813953486637
        },
        {
          "name": "D#3",
          "midi": 51,
          "time": 18.04651162790665,
          "velocity": 0.29133858267716534,
          "duration": 0.16279069767442422
        },
        {
          "name": "C4",
          "midi": 60,
          "time": 18.04651162790665,
          "velocity": 0.28346456692913385,
          "duration": 0.05813953488372192
        },
        {
          "name": "F4",
          "midi": 65,
          "time": 18.04651162790665,
          "velocity": 0.3464566929133858,
          "duration": 0.05813953488372192
        },
        {
          "name": "A#5",
          "midi": 82,
          "time": 18.04651162790665,
          "velocity": 0.3543307086614173,
          "duration": 0.4186046511628092
        },
        {
          "name": "C#5",
          "midi": 73,
          "time": 18.093023255813627,
          "velocity": 0.25196850393700787,
          "duration": 0.02325581395349019
        },
        {
          "name": "A3",
          "midi": 57,
          "time": 18.104651162790372,
          "velocity": 0.2125984251968504,
          "duration": 0.04651162790698038
        },
        {
          "name": "E4",
          "midi": 64,
          "time": 18.104651162790372,
          "velocity": 0.3779527559055118,
          "duration": 0.034883720930235285
        },
        {
          "name": "G#4",
          "midi": 68,
          "time": 18.116279069767117,
          "velocity": 0.14173228346456693,
          "duration": 0.04651162790698038
        },
        {
          "name": "C5",
          "midi": 72,
          "time": 18.116279069767117,
          "velocity": 0.2755905511811024,
          "duration": 0.02325581395349019
        },
        {
          "name": "A#4",
          "midi": 70,
          "time": 18.127906976743862,
          "velocity": 0.3779527559055118,
          "duration": 0.13953488372093759
        },
        {
          "name": "G5",
          "midi": 79,
          "time": 18.139534883720607,
          "velocity": 0.14173228346456693,
          "duration": 0.04651162790697683
        },
        {
          "name": "D4",
          "midi": 62,
          "time": 18.151162790697352,
          "velocity": 0.3937007874015748,
          "duration": 0.04651162790697683
        },
        {
          "name": "G4",
          "midi": 67,
          "time": 18.162790697674097,
          "velocity": 0.1732283464566929,
          "duration": 0.03488372093023173
        },
        {
          "name": "F5",
          "midi": 77,
          "time": 18.162790697674097,
          "velocity": 0.23622047244094488,
          "duration": 0.1279069767441925
        },
        {
          "name": "F#4",
          "midi": 66,
          "time": 18.19767441860433,
          "velocity": 0.16535433070866143,
          "duration": 0.09302325581396076
        },
        {
          "name": "D#3",
          "midi": 51,
          "time": 18.22093023255782,
          "velocity": 0.31496062992125984,
          "duration": 0.1279069767441925
        },
        {
          "name": "D4",
          "midi": 62,
          "time": 18.232558139534564,
          "velocity": 0.33858267716535434,
          "duration": 0.02325581395349019
        },
        {
          "name": "D#5",
          "midi": 75,
          "time": 18.24418604651131,
          "velocity": 0.23622047244094488,
          "duration": 0.034883720930235285
        },
        {
          "name": "C4",
          "midi": 60,
          "time": 18.2674418604648,
          "velocity": 0.2204724409448819,
          "duration": 0.034883720930235285
        },
        {
          "name": "B4",
          "midi": 71,
          "time": 18.2674418604648,
          "velocity": 0.25196850393700787,
          "duration": 0.02325581395349019
        },
        {
          "name": "D5",
          "midi": 74,
          "time": 18.279069767441545,
          "velocity": 0.25984251968503935,
          "duration": 0.06976744186046702
        },
        {
          "name": "A#4",
          "midi": 70,
          "time": 18.29069767441829,
          "velocity": 0.3937007874015748,
          "duration": 0.04651162790697683
        },
        {
          "name": "C6",
          "midi": 84,
          "time": 18.29069767441829,
          "velocity": 0.14173228346456693,
          "duration": 0.0930232558139572
        },
        {
          "name": "A#6",
          "midi": 94,
          "time": 18.29069767441829,
          "velocity": 0.3858267716535433,
          "duration": 0.1860465116279144
        },
        {
          "name": "F#4",
          "midi": 66,
          "time": 18.32558139534852,
          "velocity": 0.15748031496062992,
          "duration": 0.034883720930235285
        },
        {
          "name": "G#5",
          "midi": 80,
          "time": 18.32558139534852,
          "velocity": 0.10236220472440945,
          "duration": 0.034883720930235285
        },
        {
          "name": "F#3",
          "midi": 54,
          "time": 18.337209302325267,
          "velocity": 0.3464566929133858,
          "duration": 0.034883720930235285
        },
        {
          "name": "F#6",
          "midi": 90,
          "time": 18.337209302325267,
          "velocity": 0.15748031496062992,
          "duration": 0.034883720930235285
        },
        {
          "name": "G#6",
          "midi": 92,
          "time": 18.337209302325267,
          "velocity": 0.2125984251968504,
          "duration": 0.034883720930235285
        },
        {
          "name": "A6",
          "midi": 93,
          "time": 18.337209302325267,
          "velocity": 0.29133858267716534,
          "duration": 0.02325581395349019
        },
        {
          "name": "D#7",
          "midi": 99,
          "time": 18.337209302325267,
          "velocity": 0.1968503937007874,
          "duration": 0.034883720930235285
        },
        {
          "name": "D4",
          "midi": 62,
          "time": 18.348837209302012,
          "velocity": 0.2992125984251969,
          "duration": 0.02325581395349019
        },
        {
          "name": "A#4",
          "midi": 70,
          "time": 18.348837209302012,
          "velocity": 0.3858267716535433,
          "duration": 0.04651162790698038
        },
        {
          "name": "B6",
          "midi": 95,
          "time": 18.348837209302012,
          "velocity": 0.31496062992125984,
          "duration": 0.06976744186047057
        },
        {
          "name": "C#7",
          "midi": 97,
          "time": 18.348837209302012,
          "velocity": 0.2677165354330709,
          "duration": 0.1279069767441925
        },
        {
          "name": "D7",
          "midi": 98,
          "time": 18.348837209302012,
          "velocity": 0.2992125984251969,
          "duration": 0.06976744186047057
        },
        {
          "name": "E7",
          "midi": 100,
          "time": 18.348837209302012,
          "velocity": 0.31496062992125984,
          "duration": 0.15116279069768268
        },
        {
          "name": "G4",
          "midi": 67,
          "time": 18.360465116278757,
          "velocity": 0.33858267716535434,
          "duration": 0.034883720930235285
        },
        {
          "name": "D5",
          "midi": 74,
          "time": 18.360465116278757,
          "velocity": 0.36220472440944884,
          "duration": 0.034883720930235285
        },
        {
          "name": "F5",
          "midi": 77,
          "time": 18.360465116278757,
          "velocity": 0.13385826771653545,
          "duration": 0.034883720930235285
        },
        {
          "name": "F7",
          "midi": 101,
          "time": 18.360465116278757,
          "velocity": 0.14173228346456693,
          "duration": 0.04651162790698038
        },
        {
          "name": "G3",
          "midi": 55,
          "time": 18.372093023255502,
          "velocity": 0.4094488188976378,
          "duration": 0.02325581395349019
        },
        {
          "name": "C4",
          "midi": 60,
          "time": 18.372093023255502,
          "velocity": 0.23622047244094488,
          "duration": 0.02325581395349019
        },
        {
          "name": "D#4",
          "midi": 63,
          "time": 18.372093023255502,
          "velocity": 0.2677165354330709,
          "duration": 0.034883720930235285
        },
        {
          "name": "G6",
          "midi": 91,
          "time": 18.372093023255502,
          "velocity": 0.18110236220472442,
          "duration": 0.034883720930235285
        },
        {
          "name": "G#3",
          "midi": 56,
          "time": 18.395348837208992,
          "velocity": 0.4645669291338583,
          "duration": 0.0930232558139572
        },
        {
          "name": "D#5",
          "midi": 75,
          "time": 18.395348837208992,
          "velocity": 0.47244094488188976,
          "duration": 0.1162790697674474
        },
        {
          "name": "C7",
          "midi": 96,
          "time": 18.395348837208992,
          "velocity": 0.3700787401574803,
          "duration": 0.06976744186046702
        },
        {
          "name": "D#7",
          "midi": 99,
          "time": 18.395348837208992,
          "velocity": 0.3228346456692913,
          "duration": 0.1976744186046595
        },
        {
          "name": "F#7",
          "midi": 102,
          "time": 18.395348837208992,
          "velocity": 0.1732283464566929,
          "duration": 0.05813953488372192
        },
        {
          "name": "A#4",
          "midi": 70,
          "time": 18.406976744185737,
          "velocity": 0.18110236220472442,
          "duration": 0.03488372093023173
        },
        {
          "name": "C6",
          "midi": 84,
          "time": 18.406976744185737,
          "velocity": 0.18110236220472442,
          "duration": 0.06976744186046702
        },
        {
          "name": "F#6",
          "midi": 90,
          "time": 18.406976744185737,
          "velocity": 0.09448818897637795,
          "duration": 0.03488372093023173
        },
        {
          "name": "D#3",
          "midi": 51,
          "time": 18.418604651162482,
          "velocity": 0.2283464566929134,
          "duration": 0.023255813953486637
        },
        {
          "name": "D#4",
          "midi": 63,
          "time": 18.418604651162482,
          "velocity": 0.30708661417322836,
          "duration": 0.03488372093023173
        },
        {
          "name": "F6",
          "midi": 89,
          "time": 18.44186046511597,
          "velocity": 0.1732283464566929,
          "duration": 0.19767441860466306
        },
        {
          "name": "G6",
          "midi": 91,
          "time": 18.453488372092714,
          "velocity": 0.3779527559055118,
          "duration": 0.16279069767442778
        },
        {
          "name": "D#4",
          "midi": 63,
          "time": 18.46511627906946,
          "velocity": 0.2992125984251969,
          "duration": 0.06976744186047057
        },
        {
          "name": "A#4",
          "midi": 70,
          "time": 18.46511627906946,
          "velocity": 0.11811023622047244,
          "duration": 0.034883720930235285
        },
        {
          "name": "G5",
          "midi": 79,
          "time": 18.46511627906946,
          "velocity": 0.4645669291338583,
          "duration": 0.18604651162791797
        },
        {
          "name": "B5",
          "midi": 83,
          "time": 18.46511627906946,
          "velocity": 0.30708661417322836,
          "duration": 0.18604651162791797
        },
        {
          "name": "D6",
          "midi": 86,
          "time": 18.46511627906946,
          "velocity": 0.25984251968503935,
          "duration": 0.16279069767442778
        },
        {
          "name": "A6",
          "midi": 93,
          "time": 18.476744186046204,
          "velocity": 0.4015748031496063,
          "duration": 0.19767441860466306
        },
        {
          "name": "C7",
          "midi": 96,
          "time": 18.476744186046204,
          "velocity": 0.1732283464566929,
          "duration": 0.0930232558139572
        },
        {
          "name": "G#6",
          "midi": 92,
          "time": 18.48837209302295,
          "velocity": 0.1968503937007874,
          "duration": 0.08139534883721211
        },
        {
          "name": "F#3",
          "midi": 54,
          "time": 18.499999999999694,
          "velocity": 0.2677165354330709,
          "duration": 0.02325581395349019
        },
        {
          "name": "C5",
          "midi": 72,
          "time": 18.499999999999694,
          "velocity": 0.11811023622047244,
          "duration": 0.08139534883721211
        },
        {
          "name": "D5",
          "midi": 74,
          "time": 18.499999999999694,
          "velocity": 0.4645669291338583,
          "duration": 0.17441860465117287
        },
        {
          "name": "A5",
          "midi": 81,
          "time": 18.51162790697644,
          "velocity": 0.11023622047244094,
          "duration": 0.0930232558139572
        },
        {
          "name": "G3",
          "midi": 55,
          "time": 18.523255813953185,
          "velocity": 0.41732283464566927,
          "duration": 0.1162790697674474
        },
        {
          "name": "F5",
          "midi": 77,
          "time": 18.53488372092993,
          "velocity": 0.11811023622047244,
          "duration": 0.04651162790697683
        },
        {
          "name": "F7",
          "midi": 101,
          "time": 18.53488372092993,
          "velocity": 0.25984251968503935,
          "duration": 0.15116279069768268
        },
        {
          "name": "D#4",
          "midi": 63,
          "time": 18.546511627906675,
          "velocity": 0.2440944881889764,
          "duration": 0.023255813953486637
        },
        {
          "name": "C#7",
          "midi": 97,
          "time": 18.56976744186016,
          "velocity": 0.11811023622047244,
          "duration": 0.04651162790698038
        },
        {
          "name": "G1",
          "midi": 31,
          "time": 18.581395348836907,
          "velocity": 0.6377952755905512,
          "duration": 0.011627906976745095
        },
        {
          "name": "G#6",
          "midi": 92,
          "time": 18.581395348836907,
          "velocity": 0.12598425196850394,
          "duration": 0.04651162790698038
        },
        {
          "name": "A#4",
          "midi": 70,
          "time": 18.59302325581365,
          "velocity": 0.2047244094488189,
          "duration": 0.04651162790698038
        },
        {
          "name": "E7",
          "midi": 100,
          "time": 18.59302325581365,
          "velocity": 0.10236220472440945,
          "duration": 0.034883720930235285
        },
        {
          "name": "E1",
          "midi": 28,
          "time": 18.604651162790397,
          "velocity": 0.6141732283464567,
          "duration": 0.02325581395349019
        },
        {
          "name": "C6",
          "midi": 84,
          "time": 18.616279069767142,
          "velocity": 0.2283464566929134,
          "duration": 0.02325581395349019
        },
        {
          "name": "A#6",
          "midi": 94,
          "time": 18.616279069767142,
          "velocity": 0.11811023622047244,
          "duration": 0.06976744186047057
        },
        {
          "name": "G1",
          "midi": 31,
          "time": 18.627906976743887,
          "velocity": 0.7716535433070866,
          "duration": 0.6279069767442209
        },
        {
          "name": "G#4",
          "midi": 68,
          "time": 18.627906976743887,
          "velocity": 0.33858267716535434,
          "duration": 0.02325581395349019
        },
        {
          "name": "F5",
          "midi": 77,
          "time": 18.627906976743887,
          "velocity": 0.3700787401574803,
          "duration": 0.5697674418604954
        },
        {
          "name": "G#3",
          "midi": 56,
          "time": 18.639534883720632,
          "velocity": 0.4409448818897638,
          "duration": 0.058139534883725474
        },
        {
          "name": "A#5",
          "midi": 82,
          "time": 18.639534883720632,
          "velocity": 0.1889763779527559,
          "duration": 0.09302325581396076
        },
        {
          "name": "G5",
          "midi": 79,
          "time": 18.662790697674122,
          "velocity": 0.09448818897637795,
          "duration": 0.034883720930235285
        },
        {
          "name": "D3",
          "midi": 50,
          "time": 18.674418604650867,
          "velocity": 0.29133858267716534,
          "duration": 0.04651162790698038
        },
        {
          "name": "F4",
          "midi": 65,
          "time": 18.686046511627612,
          "velocity": 0.2283464566929134,
          "duration": 0.02325581395349019
        },
        {
          "name": "D#5",
          "midi": 75,
          "time": 18.697674418604358,
          "velocity": 0.2047244094488189,
          "duration": 0.058139534883725474
        },
        {
          "name": "G#3",
          "midi": 56,
          "time": 18.709302325581103,
          "velocity": 0.36220472440944884,
          "duration": 0.02325581395349019
        },
        {
          "name": "F4",
          "midi": 65,
          "time": 18.720930232557848,
          "velocity": 0.23622047244094488,
          "duration": 0.02325581395349019
        },
        {
          "name": "C#5",
          "midi": 73,
          "time": 18.720930232557848,
          "velocity": 0.2440944881889764,
          "duration": 0.034883720930235285
        },
        {
          "name": "A2",
          "midi": 45,
          "time": 18.732558139534593,
          "velocity": 0.2755905511811024,
          "duration": 0.02325581395349019
        },
        {
          "name": "G6",
          "midi": 91,
          "time": 18.732558139534593,
          "velocity": 0.31496062992125984,
          "duration": 0.2674418604651301
        },
        {
          "name": "G#6",
          "midi": 92,
          "time": 18.732558139534593,
          "velocity": 0.14173228346456693,
          "duration": 0.04651162790698038
        },
        {
          "name": "A6",
          "midi": 93,
          "time": 18.732558139534593,
          "velocity": 0.25984251968503935,
          "duration": 0.13953488372093403
        },
        {
          "name": "D#7",
          "midi": 99,
          "time": 18.732558139534593,
          "velocity": 0.14960629921259844,
          "duration": 0.08139534883721211
        },
        {
          "name": "F#4",
          "midi": 66,
          "time": 18.744186046511338,
          "velocity": 0.2755905511811024,
          "duration": 0.02325581395349019
        },
        {
          "name": "D5",
          "midi": 74,
          "time": 18.744186046511338,
          "velocity": 0.4645669291338583,
          "duration": 0.15116279069767913
        },
        {
          "name": "G5",
          "midi": 79,
          "time": 18.755813953488083,
          "velocity": 0.3779527559055118,
          "duration": 0.15116279069767913
        },
        {
          "name": "B5",
          "midi": 83,
          "time": 18.755813953488083,
          "velocity": 0.29133858267716534,
          "duration": 0.15116279069767913
        },
        {
          "name": "D3",
          "midi": 50,
          "time": 18.767441860464828,
          "velocity": 0.28346456692913385,
          "duration": 0.08139534883720856
        },
        {
          "name": "G3",
          "midi": 55,
          "time": 18.767441860464828,
          "velocity": 0.3937007874015748,
          "duration": 0.04651162790697683
        },
        {
          "name": "F4",
          "midi": 65,
          "time": 18.79069767441832,
          "velocity": 0.2047244094488189,
          "duration": 0.06976744186046346
        },
        {
          "name": "G3",
          "midi": 55,
          "time": 18.83720930232529,
          "velocity": 0.3858267716535433,
          "duration": 0.02325581395349019
        },
        {
          "name": "E7",
          "midi": 100,
          "time": 18.83720930232529,
          "velocity": 0.13385826771653545,
          "duration": 0.06976744186047057
        },
        {
          "name": "F#7",
          "midi": 102,
          "time": 18.83720930232529,
          "velocity": 0.08661417322834646,
          "duration": 0.058139534883725474
        },
        {
          "name": "D#4",
          "midi": 63,
          "time": 18.848837209302037,
          "velocity": 0.15748031496062992,
          "duration": 0.04651162790698038
        },
        {
          "name": "C#6",
          "midi": 85,
          "time": 18.848837209302037,
          "velocity": 0.14960629921259844,
          "duration": 0.058139534883725474
        },
        {
          "name": "D#7",
          "midi": 99,
          "time": 18.848837209302037,
          "velocity": 0.07086614173228346,
          "duration": 0.034883720930235285
        },
        {
          "name": "G#3",
          "midi": 56,
          "time": 18.86046511627878,
          "velocity": 0.4015748031496063,
          "duration": 0.02325581395349019
        },
        {
          "name": "G4",
          "midi": 67,
          "time": 18.86046511627878,
          "velocity": 0.29133858267716534,
          "duration": 0.04651162790698038
        },
        {
          "name": "A#6",
          "midi": 94,
          "time": 18.86046511627878,
          "velocity": 0.11811023622047244,
          "duration": 0.058139534883725474
        },
        {
          "name": "G3",
          "midi": 55,
          "time": 18.883720930232272,
          "velocity": 0.41732283464566927,
          "duration": 0.034883720930235285
        },
        {
          "name": "D#5",
          "midi": 75,
          "time": 18.883720930232272,
          "velocity": 0.29133858267716534,
          "duration": 0.06976744186047057
        },
        {
          "name": "D3",
          "midi": 50,
          "time": 18.906976744185762,
          "velocity": 0.28346456692913385,
          "duration": 0.02325581395349019
        },
        {
          "name": "A#5",
          "midi": 82,
          "time": 18.906976744185762,
          "velocity": 0.11023622047244094,
          "duration": 0.04651162790698038
        },
        {
          "name": "G#3",
          "midi": 56,
          "time": 18.918604651162507,
          "velocity": 0.31496062992125984,
          "duration": 0.058139534883725474
        },
        {
          "name": "G5",
          "midi": 79,
          "time": 18.930232558139252,
          "velocity": 0.1889763779527559,
          "duration": 0.10465116279070585
        },
        {
          "name": "D3",
          "midi": 50,
          "time": 18.941860465115997,
          "velocity": 0.28346456692913385,
          "duration": 0.06976744186047057
        },
        {
          "name": "F4",
          "midi": 65,
          "time": 18.941860465115997,
          "velocity": 0.1968503937007874,
          "duration": 0.12790697674419604
        },
        {
          "name": "A4",
          "midi": 69,
          "time": 18.953488372092743,
          "velocity": 0.13385826771653545,
          "duration": 0.034883720930235285
        },
        {
          "name": "D5",
          "midi": 74,
          "time": 18.953488372092743,
          "velocity": 0.13385826771653545,
          "duration": 0.034883720930235285
        },
        {
          "name": "A#5",
          "midi": 82,
          "time": 18.965116279069488,
          "velocity": 0.15748031496062992,
          "duration": 0.09302325581396076
        },
        {
          "name": "G3",
          "midi": 55,
          "time": 18.976744186046233,
          "velocity": 0.4094488188976378,
          "duration": 0.02325581395349019
        },
        {
          "name": "G#4",
          "midi": 68,
          "time": 18.976744186046233,
          "velocity": 0.25196850393700787,
          "duration": 0.02325581395349019
        },
        {
          "name": "D#5",
          "midi": 75,
          "time": 18.976744186046233,
          "velocity": 0.28346456692913385,
          "duration": 0.04651162790698038
        },
        {
          "name": "C6",
          "midi": 84,
          "time": 18.976744186046233,
          "velocity": 0.11023622047244094,
          "duration": 0.058139534883725474
        },
        {
          "name": "A6",
          "midi": 93,
          "time": 18.976744186046233,
          "velocity": 0.10236220472440945,
          "duration": 0.09302325581396076
        },
        {
          "name": "G#6",
          "midi": 92,
          "time": 18.988372093022978,
          "velocity": 0.30708661417322836,
          "duration": 0.1279069767441925
        },
        {
          "name": "A4",
          "midi": 69,
          "time": 18.999999999999723,
          "velocity": 0.2755905511811024,
          "duration": 0.02325581395349019
        },
        {
          "name": "G3",
          "midi": 55,
          "time": 19.011627906976468,
          "velocity": 0.3858267716535433,
          "duration": 0.02325581395349019
        },
        {
          "name": "D3",
          "midi": 50,
          "time": 19.023255813953213,
          "velocity": 0.33070866141732286,
          "duration": 0.15116279069767913
        },
        {
          "name": "D5",
          "midi": 74,
          "time": 19.023255813953213,
          "velocity": 0.28346456692913385,
          "duration": 0.058139534883725474
        },
        {
          "name": "E7",
          "midi": 100,
          "time": 19.023255813953213,
          "velocity": 0.14173228346456693,
          "duration": 0.034883720930235285
        },
        {
          "name": "G#3",
          "midi": 56,
          "time": 19.034883720929958,
          "velocity": 0.4015748031496063,
          "duration": 0.02325581395349019
        },
        {
          "name": "A#4",
          "midi": 70,
          "time": 19.046511627906703,
          "velocity": 0.2283464566929134,
          "duration": 0.02325581395349019
        },
        {
          "name": "C5",
          "midi": 72,
          "time": 19.046511627906703,
          "velocity": 0.12598425196850394,
          "duration": 0.034883720930235285
        },
        {
          "name": "F#6",
          "midi": 90,
          "time": 19.046511627906703,
          "velocity": 0.14173228346456693,
          "duration": 0.05813953488372192
        },
        {
          "name": "G#3",
          "midi": 56,
          "time": 19.069767441860193,
          "velocity": 0.3700787401574803,
          "duration": 0.10465116279069875
        },
        {
          "name": "D#5",
          "midi": 75,
          "time": 19.069767441860193,
          "velocity": 0.30708661417322836,
          "duration": 0.15116279069767913
        },
        {
          "name": "A#6",
          "midi": 94,
          "time": 19.069767441860193,
          "velocity": 0.3228346456692913,
          "duration": 0.16279069767442422
        },
        {
          "name": "C7",
          "midi": 96,
          "time": 19.069767441860193,
          "velocity": 0.1889763779527559,
          "duration": 0.04651162790697683
        },
        {
          "name": "D#7",
          "midi": 99,
          "time": 19.069767441860193,
          "velocity": 0.13385826771653545,
          "duration": 0.03488372093023173
        },
        {
          "name": "A#5",
          "midi": 82,
          "time": 19.11627906976717,
          "velocity": 0.09448818897637795,
          "duration": 0.04651162790697683
        },
        {
          "name": "F7",
          "midi": 101,
          "time": 19.11627906976717,
          "velocity": 0.28346456692913385,
          "duration": 0.19767441860466306
        },
        {
          "name": "B6",
          "midi": 95,
          "time": 19.127906976743915,
          "velocity": 0.33858267716535434,
          "duration": 0.31395348837211046
        },
        {
          "name": "A4",
          "midi": 69,
          "time": 19.151162790697402,
          "velocity": 0.2283464566929134,
          "duration": 0.04651162790698038
        },
        {
          "name": "C5",
          "midi": 72,
          "time": 19.162790697674147,
          "velocity": 0.3228346456692913,
          "duration": 0.02325581395349019
        },
        {
          "name": "G3",
          "midi": 55,
          "time": 19.174418604650892,
          "velocity": 0.36220472440944884,
          "duration": 0.02325581395349019
        },
        {
          "name": "D#7",
          "midi": 99,
          "time": 19.174418604650892,
          "velocity": 0.2125984251968504,
          "duration": 0.058139534883725474
        },
        {
          "name": "D3",
          "midi": 50,
          "time": 19.186046511627637,
          "velocity": 0.33070866141732286,
          "duration": 0.058139534883725474
        },
        {
          "name": "C#5",
          "midi": 73,
          "time": 19.186046511627637,
          "velocity": 0.29133858267716534,
          "duration": 0.034883720930235285
        },
        {
          "name": "F#5",
          "midi": 78,
          "time": 19.186046511627637,
          "velocity": 0.3228346456692913,
          "duration": 0.034883720930235285
        },
        {
          "name": "A6",
          "midi": 93,
          "time": 19.186046511627637,
          "velocity": 0.41732283464566927,
          "duration": 0.313953488372114
        },
        {
          "name": "C7",
          "midi": 96,
          "time": 19.186046511627637,
          "velocity": 0.2125984251968504,
          "duration": 0.034883720930235285
        },
        {
          "name": "C#7",
          "midi": 97,
          "time": 19.186046511627637,
          "velocity": 0.2992125984251969,
          "duration": 0.15116279069768623
        },
        {
          "name": "D7",
          "midi": 98,
          "time": 19.186046511627637,
          "velocity": 0.29133858267716534,
          "duration": 0.26744186046513363
        },
        {
          "name": "E7",
          "midi": 100,
          "time": 19.186046511627637,
          "velocity": 0.11023622047244094,
          "duration": 0.034883720930235285
        },
        {
          "name": "F#7",
          "midi": 102,
          "time": 19.186046511627637,
          "velocity": 0.2283464566929134,
          "duration": 0.12790697674419604
        },
        {
          "name": "D6",
          "midi": 86,
          "time": 19.197674418604382,
          "velocity": 0.2047244094488189,
          "duration": 0.22093023255815325
        },
        {
          "name": "F5",
          "midi": 77,
          "time": 19.209302325581127,
          "velocity": 0.25984251968503935,
          "duration": 0.12790697674419604
        },
        {
          "name": "G4",
          "midi": 67,
          "time": 19.220930232557873,
          "velocity": 0.4094488188976378,
          "duration": 0.20930232558140816
        },
        {
          "name": "D5",
          "midi": 74,
          "time": 19.220930232557873,
          "velocity": 0.3937007874015748,
          "duration": 0.20930232558140816
        },
        {
          "name": "B5",
          "midi": 83,
          "time": 19.220930232557873,
          "velocity": 0.14960629921259844,
          "duration": 0.19767441860466306
        },
        {
          "name": "G#3",
          "midi": 56,
          "time": 19.232558139534618,
          "velocity": 0.3464566929133858,
          "duration": 0.02325581395349019
        },
        {
          "name": "E7",
          "midi": 100,
          "time": 19.232558139534618,
          "velocity": 0.2283464566929134,
          "duration": 0.02325581395349019
        },
        {
          "name": "F#1",
          "midi": 30,
          "time": 19.255813953488108,
          "velocity": 0.5826771653543307,
          "duration": 0.011627906976745095
        },
        {
          "name": "D#7",
          "midi": 99,
          "time": 19.255813953488108,
          "velocity": 0.2677165354330709,
          "duration": 0.02325581395349019
        },
        {
          "name": "G#3",
          "midi": 56,
          "time": 19.267441860464853,
          "velocity": 0.29133858267716534,
          "duration": 0.02325581395349019
        },
        {
          "name": "A#4",
          "midi": 70,
          "time": 19.279069767441598,
          "velocity": 0.13385826771653545,
          "duration": 0.04651162790698038
        },
        {
          "name": "E7",
          "midi": 100,
          "time": 19.279069767441598,
          "velocity": 0.28346456692913385,
          "duration": 0.02325581395349019
        },
        {
          "name": "F1",
          "midi": 29,
          "time": 19.290697674418343,
          "velocity": 0.5669291338582677,
          "duration": 0.011627906976745095
        },
        {
          "name": "D#1",
          "midi": 27,
          "time": 19.30232558139509,
          "velocity": 0.6771653543307087,
          "duration": 0.011627906976745095
        },
        {
          "name": "G#3",
          "midi": 56,
          "time": 19.30232558139509,
          "velocity": 0.4251968503937008,
          "duration": 0.02325581395349019
        },
        {
          "name": "C#4",
          "midi": 61,
          "time": 19.30232558139509,
          "velocity": 0.14960629921259844,
          "duration": 0.034883720930235285
        },
        {
          "name": "G5",
          "midi": 79,
          "time": 19.30232558139509,
          "velocity": 0.4251968503937008,
          "duration": 0.1279069767441925
        },
        {
          "name": "D#7",
          "midi": 99,
          "time": 19.30232558139509,
          "velocity": 0.2283464566929134,
          "duration": 0.034883720930235285
        },
        {
          "name": "D1",
          "midi": 26,
          "time": 19.313953488371833,
          "velocity": 0.7007874015748031,
          "duration": 0.011627906976745095
        },
        {
          "name": "C7",
          "midi": 96,
          "time": 19.313953488371833,
          "velocity": 0.25984251968503935,
          "duration": 0.20930232558140816
        },
        {
          "name": "C1",
          "midi": 24,
          "time": 19.32558139534858,
          "velocity": 0.7165354330708661,
          "duration": 0.011627906976745095
        },
        {
          "name": "A#6",
          "midi": 94,
          "time": 19.32558139534858,
          "velocity": 0.14960629921259844,
          "duration": 0.04651162790697683
        },
        {
          "name": "B0",
          "midi": 23,
          "time": 19.337209302325324,
          "velocity": 0.7244094488188977,
          "duration": 0.011627906976745095
        },
        {
          "name": "G#3",
          "midi": 56,
          "time": 19.337209302325324,
          "velocity": 0.4094488188976378,
          "duration": 0.04651162790697683
        },
        {
          "name": "D4",
          "midi": 62,
          "time": 19.337209302325324,
          "velocity": 0.10236220472440945,
          "duration": 0.04651162790697683
        },
        {
          "name": "C1",
          "midi": 24,
          "time": 19.34883720930207,
          "velocity": 0.7480314960629921,
          "duration": 1.2441860465116825
        },
        {
          "name": "G2",
          "midi": 43,
          "time": 19.3837209302323,
          "velocity": 0.31496062992125984,
          "duration": 0.02325581395349019
        },
        {
          "name": "G#3",
          "midi": 56,
          "time": 19.395348837209045,
          "velocity": 0.3858267716535433,
          "duration": 0.02325581395349019
        },
        {
          "name": "F5",
          "midi": 77,
          "time": 19.395348837209045,
          "velocity": 0.25984251968503935,
          "duration": 0.2790697674418716
        },
        {
          "name": "D4",
          "midi": 62,
          "time": 19.40697674418579,
          "velocity": 0.13385826771653545,
          "duration": 0.034883720930235285
        },
        {
          "name": "A#6",
          "midi": 94,
          "time": 19.418604651162536,
          "velocity": 0.2677165354330709,
          "duration": 0.13953488372093759
        },
        {
          "name": "G2",
          "midi": 43,
          "time": 19.43023255813928,
          "velocity": 0.29133858267716534,
          "duration": 0.034883720930235285
        },
        {
          "name": "G#3",
          "midi": 56,
          "time": 19.43023255813928,
          "velocity": 0.33858267716535434,
          "duration": 0.02325581395349019
        },
        {
          "name": "F4",
          "midi": 65,
          "time": 19.43023255813928,
          "velocity": 0.3228346456692913,
          "duration": 0.09302325581396076
        },
        {
          "name": "F3",
          "midi": 53,
          "time": 19.441860465116026,
          "velocity": 0.3858267716535433,
          "duration": 0.034883720930235285
        },
        {
          "name": "C5",
          "midi": 72,
          "time": 19.441860465116026,
          "velocity": 0.44881889763779526,
          "duration": 0.09302325581396076
        },
        {
          "name": "C#7",
          "midi": 97,
          "time": 19.441860465116026,
          "velocity": 0.14960629921259844,
          "duration": 0.06976744186047057
        },
        {
          "name": "G5",
          "midi": 79,
          "time": 19.45348837209277,
          "velocity": 0.3464566929133858,
          "duration": 0.25581395348838143
        },
        {
          "name": "D7",
          "midi": 98,
          "time": 19.47674418604626,
          "velocity": 0.1732283464566929,
          "duration": 0.034883720930235285
        },
        {
          "name": "G#3",
          "midi": 56,
          "time": 19.488372093023006,
          "velocity": 0.3700787401574803,
          "duration": 0.02325581395349019
        },
        {
          "name": "E7",
          "midi": 100,
          "time": 19.488372093023006,
          "velocity": 0.09448818897637795,
          "duration": 0.034883720930235285
        },
        {
          "name": "G#6",
          "midi": 92,
          "time": 19.49999999999975,
          "velocity": 0.2677165354330709,
          "duration": 0.27906976744186807
        },
        {
          "name": "G#3",
          "midi": 56,
          "time": 19.52325581395324,
          "velocity": 0.4251968503937008,
          "duration": 0.06976744186046346
        },
        {
          "name": "A#4",
          "midi": 70,
          "time": 19.52325581395324,
          "velocity": 0.3464566929133858,
          "duration": 0.15116279069767558
        },
        {
          "name": "D#5",
          "midi": 75,
          "time": 19.52325581395324,
          "velocity": 0.36220472440944884,
          "duration": 0.16279069767442067
        },
        {
          "name": "G2",
          "midi": 43,
          "time": 19.534883720929987,
          "velocity": 0.25196850393700787,
          "duration": 0.023255813953486637
        },
        {
          "name": "D#3",
          "midi": 51,
          "time": 19.534883720929987,
          "velocity": 0.3937007874015748,
          "duration": 0.05813953488371837
        },
        {
          "name": "D#7",
          "midi": 99,
          "time": 19.534883720929987,
          "velocity": 0.1968503937007874,
          "duration": 0.17441860465116577
        },
        {
          "name": "G3",
          "midi": 55,
          "time": 19.593023255813705,
          "velocity": 0.4409448818897638,
          "duration": 0.023255813953486637
        },
        {
          "name": "G#3",
          "midi": 56,
          "time": 19.61627906976719,
          "velocity": 0.3700787401574803,
          "duration": 0.034883720930235285
        },
        {
          "name": "G#2",
          "midi": 44,
          "time": 19.627906976743937,
          "velocity": 0.28346456692913385,
          "duration": 0.02325581395349019
        },
        {
          "name": "B5",
          "midi": 83,
          "time": 19.639534883720682,
          "velocity": 0.16535433070866143,
          "duration": 0.034883720930235285
        },
        {
          "name": "C#6",
          "midi": 85,
          "time": 19.639534883720682,
          "velocity": 0.16535433070866143,
          "duration": 0.06976744186047057
        },
        {
          "name": "D6",
          "midi": 86,
          "time": 19.639534883720682,
          "velocity": 0.2204724409448819,
          "duration": 0.04651162790698038
        },
        {
          "name": "D#3",
          "midi": 51,
          "time": 19.651162790697427,
          "velocity": 0.30708661417322836,
          "duration": 0.034883720930235285
        },
        {
          "name": "G4",
          "midi": 67,
          "time": 19.651162790697427,
          "velocity": 0.33070866141732286,
          "duration": 0.02325581395349019
        },
        {
          "name": "F#6",
          "midi": 90,
          "time": 19.651162790697427,
          "velocity": 0.2125984251968504,
          "duration": 0.19767441860465595
        },
        {
          "name": "D5",
          "midi": 74,
          "time": 19.662790697674172,
          "velocity": 0.3228346456692913,
          "duration": 0.034883720930235285
        },
        {
          "name": "E6",
          "midi": 88,
          "time": 19.662790697674172,
          "velocity": 0.2440944881889764,
          "duration": 0.034883720930235285
        },
        {
          "name": "G2",
          "midi": 43,
          "time": 19.674418604650917,
          "velocity": 0.30708661417322836,
          "duration": 0.02325581395349019
        },
        {
          "name": "F6",
          "midi": 89,
          "time": 19.674418604650917,
          "velocity": 0.2204724409448819,
          "duration": 0.034883720930235285
        },
        {
          "name": "G#3",
          "midi": 56,
          "time": 19.686046511627662,
          "velocity": 0.48031496062992124,
          "duration": 0.16279069767442067
        },
        {
          "name": "C6",
          "midi": 84,
          "time": 19.686046511627662,
          "velocity": 0.3228346456692913,
          "duration": 0.17441860465116577
        },
        {
          "name": "D#3",
          "midi": 51,
          "time": 19.697674418604407,
          "velocity": 0.36220472440944884,
          "duration": 0.02325581395349019
        },
        {
          "name": "D#5",
          "midi": 75,
          "time": 19.697674418604407,
          "velocity": 0.3779527559055118,
          "duration": 0.16279069767442067
        },
        {
          "name": "A#4",
          "midi": 70,
          "time": 19.709302325581152,
          "velocity": 0.13385826771653545,
          "duration": 0.034883720930235285
        },
        {
          "name": "F5",
          "midi": 77,
          "time": 19.720930232557897,
          "velocity": 0.07086614173228346,
          "duration": 0.034883720930235285
        },
        {
          "name": "D6",
          "midi": 86,
          "time": 19.732558139534643,
          "velocity": 0.2047244094488189,
          "duration": 0.3139534883720998
        },
        {
          "name": "D4",
          "midi": 62,
          "time": 19.755813953488133,
          "velocity": 0.14960629921259844,
          "duration": 0.1046511627906952
        },
        {
          "name": "A6",
          "midi": 93,
          "time": 19.77906976744162,
          "velocity": 0.12598425196850394,
          "duration": 0.10465116279069875
        },
        {
          "name": "F5",
          "midi": 77,
          "time": 19.81395348837185,
          "velocity": 0.11811023622047244,
          "duration": 0.1279069767441925
        },
        {
          "name": "G4",
          "midi": 67,
          "time": 19.848837209302083,
          "velocity": 0.3228346456692913,
          "duration": 0.058139534883725474
        },
        {
          "name": "D5",
          "midi": 74,
          "time": 19.860465116278828,
          "velocity": 0.33070866141732286,
          "duration": 0.09302325581396076
        },
        {
          "name": "B5",
          "midi": 83,
          "time": 19.860465116278828,
          "velocity": 0.12598425196850394,
          "duration": 0.058139534883725474
        },
        {
          "name": "G3",
          "midi": 55,
          "time": 19.872093023255573,
          "velocity": 0.3858267716535433,
          "duration": 0.034883720930235285
        },
        {
          "name": "D4",
          "midi": 62,
          "time": 19.895348837209063,
          "velocity": 0.15748031496062992,
          "duration": 0.06976744186047057
        },
        {
          "name": "C5",
          "midi": 72,
          "time": 19.895348837209063,
          "velocity": 0.2440944881889764,
          "duration": 0.06976744186047057
        },
        {
          "name": "G2",
          "midi": 43,
          "time": 19.918604651162553,
          "velocity": 0.28346456692913385,
          "duration": 0.02325581395349019
        },
        {
          "name": "G4",
          "midi": 67,
          "time": 19.9302325581393,
          "velocity": 0.2283464566929134,
          "duration": 0.02325581395349019
        },
        {
          "name": "G#3",
          "midi": 56,
          "time": 19.941860465116044,
          "velocity": 0.4094488188976378,
          "duration": 0.02325581395349019
        },
        {
          "name": "F3",
          "midi": 53,
          "time": 19.965116279069534,
          "velocity": 0.3858267716535433,
          "duration": 0.02325581395349019
        },
        {
          "name": "D#5",
          "midi": 75,
          "time": 19.965116279069534,
          "velocity": 0.11811023622047244,
          "duration": 0.05813953488372192
        },
        {
          "name": "G#4",
          "midi": 68,
          "time": 19.97674418604628,
          "velocity": 0.3228346456692913,
          "duration": 0.03488372093023173
        },
        {
          "name": "D4",
          "midi": 62,
          "time": 20.01162790697651,
          "velocity": 0.18110236220472442,
          "duration": 0.04651162790697683
        },
        {
          "name": "G#3",
          "midi": 56,
          "time": 20.023255813953256,
          "velocity": 0.33858267716535434,
          "duration": 0.03488372093023173
        },
        {
          "name": "D#5",
          "midi": 75,
          "time": 20.046511627906742,
          "velocity": 0.1889763779527559,
          "duration": 0.08139534883721211
        },
        {
          "name": "A3",
          "midi": 57,
          "time": 20.058139534883487,
          "velocity": 0.23622047244094488,
          "duration": 0.023255813953486637
        },
        {
          "name": "B4",
          "midi": 71,
          "time": 20.058139534883487,
          "velocity": 0.11023622047244094,
          "duration": 0.04651162790697683
        },
        {
          "name": "E7",
          "midi": 100,
          "time": 20.09302325581372,
          "velocity": 0.10236220472440945,
          "duration": 0.04651162790698038
        },
        {
          "name": "G4",
          "midi": 67,
          "time": 20.104651162790464,
          "velocity": 0.5118110236220472,
          "duration": 0.0930232558139572
        },
        {
          "name": "G2",
          "midi": 43,
          "time": 20.11627906976721,
          "velocity": 0.2440944881889764,
          "duration": 0.02325581395349019
        },
        {
          "name": "F7",
          "midi": 101,
          "time": 20.11627906976721,
          "velocity": 0.12598425196850394,
          "duration": 0.034883720930235285
        },
        {
          "name": "G3",
          "midi": 55,
          "time": 20.127906976743954,
          "velocity": 0.5354330708661418,
          "duration": 0.06976744186046702
        },
        {
          "name": "D5",
          "midi": 74,
          "time": 20.127906976743954,
          "velocity": 0.25196850393700787,
          "duration": 0.0930232558139572
        },
        {
          "name": "A6",
          "midi": 93,
          "time": 20.127906976743954,
          "velocity": 0.1732283464566929,
          "duration": 0.05813953488372192
        },
        {
          "name": "D4",
          "midi": 62,
          "time": 20.151162790697445,
          "velocity": 0.09448818897637795,
          "duration": 0.05813953488372192
        },
        {
          "name": "B4",
          "midi": 71,
          "time": 20.17441860465093,
          "velocity": 0.09448818897637795,
          "duration": 0.11627906976745095
        },
        {
          "name": "D#6",
          "midi": 87,
          "time": 20.19767441860442,
          "velocity": 0.09448818897637795,
          "duration": 0.034883720930235285
        },
        {
          "name": "D#4",
          "midi": 63,
          "time": 20.209302325581167,
          "velocity": 0.2755905511811024,
          "duration": 0.1976744186046666
        },
        {
          "name": "G#4",
          "midi": 68,
          "time": 20.209302325581167,
          "velocity": 0.1889763779527559,
          "duration": 0.034883720930235285
        },
        {
          "name": "G5",
          "midi": 79,
          "time": 20.244186046511402,
          "velocity": 0.33858267716535434,
          "duration": 0.12790697674419604
        },
        {
          "name": "G#2",
          "midi": 44,
          "time": 20.255813953488147,
          "velocity": 0.31496062992125984,
          "duration": 0.02325581395349019
        },
        {
          "name": "G3",
          "midi": 55,
          "time": 20.255813953488147,
          "velocity": 0.44881889763779526,
          "duration": 0.06976744186047057
        },
        {
          "name": "D5",
          "midi": 74,
          "time": 20.255813953488147,
          "velocity": 0.47244094488188976,
          "duration": 0.08139534883721566
        },
        {
          "name": "E7",
          "midi": 100,
          "time": 20.255813953488147,
          "velocity": 0.14173228346456693,
          "duration": 0.06976744186047057
        },
        {
          "name": "A6",
          "midi": 93,
          "time": 20.267441860464892,
          "velocity": 0.25984251968503935,
          "duration": 0.04651162790698038
        },
        {
          "name": "B5",
          "midi": 83,
          "time": 20.279069767441637,
          "velocity": 0.2440944881889764,
          "duration": 0.034883720930235285
        },
        {
          "name": "A#5",
          "midi": 82,
          "time": 20.302325581395127,
          "velocity": 0.14960629921259844,
          "duration": 0.04651162790698038
        },
        {
          "name": "D#7",
          "midi": 99,
          "time": 20.302325581395127,
          "velocity": 0.11023622047244094,
          "duration": 0.034883720930235285
        },
        {
          "name": "D#6",
          "midi": 87,
          "time": 20.313953488371872,
          "velocity": 0.08661417322834646,
          "duration": 0.04651162790698038
        },
        {
          "name": "F3",
          "midi": 53,
          "time": 20.325581395348618,
          "velocity": 0.3464566929133858,
          "duration": 0.02325581395349019
        },
        {
          "name": "C#5",
          "midi": 73,
          "time": 20.325581395348618,
          "velocity": 0.12598425196850394,
          "duration": 0.034883720930235285
        },
        {
          "name": "D#5",
          "midi": 75,
          "time": 20.337209302325363,
          "velocity": 0.3464566929133858,
          "duration": 0.058139534883725474
        },
        {
          "name": "G2",
          "midi": 43,
          "time": 20.348837209302108,
          "velocity": 0.2992125984251969,
          "duration": 0.02325581395349019
        },
        {
          "name": "G#3",
          "midi": 56,
          "time": 20.348837209302108,
          "velocity": 0.30708661417322836,
          "duration": 0.02325581395349019
        },
        {
          "name": "A6",
          "midi": 93,
          "time": 20.360465116278853,
          "velocity": 0.23622047244094488,
          "duration": 0.10465116279070585
        },
        {
          "name": "B6",
          "midi": 95,
          "time": 20.360465116278853,
          "velocity": 0.12598425196850394,
          "duration": 0.058139534883725474
        },
        {
          "name": "C7",
          "midi": 96,
          "time": 20.360465116278853,
          "velocity": 0.09448818897637795,
          "duration": 0.04651162790698038
        },
        {
          "name": "E3",
          "midi": 52,
          "time": 20.372093023255598,
          "velocity": 0.33070866141732286,
          "duration": 0.02325581395349019
        },
        {
          "name": "F5",
          "midi": 77,
          "time": 20.372093023255598,
          "velocity": 0.2440944881889764,
          "duration": 0.034883720930235285
        },
        {
          "name": "A5",
          "midi": 81,
          "time": 20.372093023255598,
          "velocity": 0.11023622047244094,
          "duration": 0.034883720930235285
        },
        {
          "name": "G#6",
          "midi": 92,
          "time": 20.372093023255598,
          "velocity": 0.14960629921259844,
          "duration": 0.08139534883721566
        },
        {
          "name": "C5",
          "midi": 72,
          "time": 20.383720930232343,
          "velocity": 0.16535433070866143,
          "duration": 0.04651162790698038
        },
        {
          "name": "F6",
          "midi": 89,
          "time": 20.383720930232343,
          "velocity": 0.2992125984251969,
          "duration": 0.08139534883721566
        },
        {
          "name": "G6",
          "midi": 91,
          "time": 20.383720930232343,
          "velocity": 0.3543307086614173,
          "duration": 0.08139534883721566
        },
        {
          "name": "D7",
          "midi": 98,
          "time": 20.383720930232343,
          "velocity": 0.15748031496062992,
          "duration": 0.06976744186047057
        },
        {
          "name": "D#7",
          "midi": 99,
          "time": 20.383720930232343,
          "velocity": 0.2755905511811024,
          "duration": 0.08139534883721566
        },
        {
          "name": "E7",
          "midi": 100,
          "time": 20.383720930232343,
          "velocity": 0.11023622047244094,
          "duration": 0.06976744186047057
        },
        {
          "name": "G4",
          "midi": 67,
          "time": 20.395348837209088,
          "velocity": 0.3543307086614173,
          "duration": 0.1279069767441925
        },
        {
          "name": "D5",
          "midi": 74,
          "time": 20.395348837209088,
          "velocity": 0.3858267716535433,
          "duration": 0.058139534883725474
        },
        {
          "name": "G5",
          "midi": 79,
          "time": 20.395348837209088,
          "velocity": 0.3858267716535433,
          "duration": 0.1162790697674474
        },
        {
          "name": "B5",
          "midi": 83,
          "time": 20.395348837209088,
          "velocity": 0.31496062992125984,
          "duration": 0.06976744186047057
        },
        {
          "name": "G3",
          "midi": 55,
          "time": 20.406976744185833,
          "velocity": 0.4094488188976378,
          "duration": 0.058139534883725474
        },
        {
          "name": "D#4",
          "midi": 63,
          "time": 20.41860465116258,
          "velocity": 0.23622047244094488,
          "duration": 0.08139534883721211
        },
        {
          "name": "F5",
          "midi": 77,
          "time": 20.44186046511607,
          "velocity": 0.13385826771653545,
          "duration": 0.05813953488372192
        },
        {
          "name": "C#5",
          "midi": 73,
          "time": 20.453488372092814,
          "velocity": 0.33070866141732286,
          "duration": 0.03488372093023173
        },
        {
          "name": "E3",
          "midi": 52,
          "time": 20.488372093023045,
          "velocity": 0.36220472440944884,
          "duration": 0.02325581395349019
        },
        {
          "name": "D#3",
          "midi": 51,
          "time": 20.511627906976535,
          "velocity": 0.47244094488188976,
          "duration": 0.02325581395349019
        },
        {
          "name": "A#3",
          "midi": 58,
          "time": 20.52325581395328,
          "velocity": 0.2677165354330709,
          "duration": 0.02325581395349019
        },
        {
          "name": "C5",
          "midi": 72,
          "time": 20.52325581395328,
          "velocity": 0.4330708661417323,
          "duration": 0.058139534883725474
        },
        {
          "name": "E3",
          "midi": 52,
          "time": 20.534883720930026,
          "velocity": 0.49606299212598426,
          "duration": 0.02325581395349019
        },
        {
          "name": "F5",
          "midi": 77,
          "time": 20.534883720930026,
          "velocity": 0.47244094488188976,
          "duration": 0.06976744186047057
        },
        {
          "name": "G5",
          "midi": 79,
          "time": 20.534883720930026,
          "velocity": 0.5511811023622047,
          "duration": 0.26744186046513363
        },
        {
          "name": "A5",
          "midi": 81,
          "time": 20.534883720930026,
          "velocity": 0.3700787401574803,
          "duration": 0.06976744186047057
        },
        {
          "name": "D#4",
          "midi": 63,
          "time": 20.54651162790677,
          "velocity": 0.2755905511811024,
          "duration": 0.04651162790698038
        },
        {
          "name": "F4",
          "midi": 65,
          "time": 20.54651162790677,
          "velocity": 0.2755905511811024,
          "duration": 0.02325581395349019
        },
        {
          "name": "F3",
          "midi": 53,
          "time": 20.558139534883516,
          "velocity": 0.4330708661417323,
          "duration": 0.02325581395349019
        },
        {
          "name": "E7",
          "midi": 100,
          "time": 20.558139534883516,
          "velocity": 0.1889763779527559,
          "duration": 0.034883720930235285
        },
        {
          "name": "G#4",
          "midi": 68,
          "time": 20.56976744186026,
          "velocity": 0.28346456692913385,
          "duration": 0.034883720930235285
        },
        {
          "name": "B5",
          "midi": 83,
          "time": 20.56976744186026,
          "velocity": 0.5275590551181102,
          "duration": 0.23255813953489834
        },
        {
          "name": "D6",
          "midi": 86,
          "time": 20.581395348837006,
          "velocity": 0.25984251968503935,
          "duration": 0.12790697674419604
        },
        {
          "name": "F7",
          "midi": 101,
          "time": 20.581395348837006,
          "velocity": 0.25984251968503935,
          "duration": 0.20930232558140816
        },
        {
          "name": "C#1",
          "midi": 25,
          "time": 20.59302325581375,
          "velocity": 0.7165354330708661,
          "duration": 0.011627906976745095
        },
        {
          "name": "G3",
          "midi": 55,
          "time": 20.59302325581375,
          "velocity": 0.49606299212598426,
          "duration": 0.20930232558140816
        },
        {
          "name": "D5",
          "midi": 74,
          "time": 20.59302325581375,
          "velocity": 0.4015748031496063,
          "duration": 0.12790697674419604
        },
        {
          "name": "B0",
          "midi": 23,
          "time": 20.604651162790496,
          "velocity": 0.6299212598425197,
          "duration": 0.011627906976745095
        },
        {
          "name": "D#4",
          "midi": 63,
          "time": 20.604651162790496,
          "velocity": 0.25984251968503935,
          "duration": 0.18604651162791797
        },
        {
          "name": "G#0",
          "midi": 20,
          "time": 20.61627906976724,
          "velocity": 0.5354330708661418,
          "duration": 0.011627906976745095
        },
        {
          "name": "A5",
          "midi": 81,
          "time": 20.61627906976724,
          "velocity": 0.31496062992125984,
          "duration": 0.06976744186047057
        },
        {
          "name": "F5",
          "midi": 77,
          "time": 20.627906976743986,
          "velocity": 0.2283464566929134,
          "duration": 0.06976744186047057
        },
        {
          "name": "F#6",
          "midi": 90,
          "time": 20.627906976743986,
          "velocity": 0.12598425196850394,
          "duration": 0.06976744186047057
        },
        {
          "name": "G#6",
          "midi": 92,
          "time": 20.627906976743986,
          "velocity": 0.1968503937007874,
          "duration": 0.10465116279070585
        },
        {
          "name": "A#6",
          "midi": 94,
          "time": 20.627906976743986,
          "velocity": 0.23622047244094488,
          "duration": 0.11627906976745095
        },
        {
          "name": "C7",
          "midi": 96,
          "time": 20.627906976743986,
          "velocity": 0.2204724409448819,
          "duration": 0.08139534883721566
        },
        {
          "name": "C6",
          "midi": 84,
          "time": 20.63953488372073,
          "velocity": 0.25984251968503935,
          "duration": 0.02325581395349019
        },
        {
          "name": "D#7",
          "midi": 99,
          "time": 20.63953488372073,
          "velocity": 0.16535433070866143,
          "duration": 0.058139534883725474
        },
        {
          "name": "E7",
          "midi": 100,
          "time": 20.63953488372073,
          "velocity": 0.1889763779527559,
          "duration": 0.06976744186047057
        },
        {
          "name": "D#6",
          "midi": 87,
          "time": 20.651162790697477,
          "velocity": 0.2440944881889764,
          "duration": 0.02325581395349019
        },
        {
          "name": "F0",
          "midi": 17,
          "time": 20.66279069767422,
          "velocity": 0.2677165354330709,
          "duration": 0.02325581395349019
        },
        {
          "name": "C#7",
          "midi": 97,
          "time": 20.686046511627712,
          "velocity": 0.1889763779527559,
          "duration": 0.034883720930235285
        },
        {
          "name": "C#5",
          "midi": 73,
          "time": 20.709302325581202,
          "velocity": 0.28346456692913385,
          "duration": 0.02325581395349019
        },
        {
          "name": "G#4",
          "midi": 68,
          "time": 20.720930232557947,
          "velocity": 0.3700787401574803,
          "duration": 0.02325581395349019
        },
        {
          "name": "D5",
          "midi": 74,
          "time": 20.732558139534692,
          "velocity": 0.44881889763779526,
          "duration": 0.06976744186046702
        },
        {
          "name": "D#7",
          "midi": 99,
          "time": 20.732558139534692,
          "velocity": 0.2440944881889764,
          "duration": 0.05813953488372192
        },
        {
          "name": "G4",
          "midi": 67,
          "time": 20.744186046511437,
          "velocity": 0.5118110236220472,
          "duration": 0.06976744186046702
        },
        {
          "name": "D7",
          "midi": 98,
          "time": 20.744186046511437,
          "velocity": 0.1732283464566929,
          "duration": 0.04651162790697683
        },
        {
          "name": "G#3",
          "midi": 56,
          "time": 20.80232558139516,
          "velocity": 0.5511811023622047,
          "duration": 0.11627906976745095
        },
        {
          "name": "D#4",
          "midi": 63,
          "time": 20.80232558139516,
          "velocity": 0.16535433070866143,
          "duration": 0.06976744186047057
        },
        {
          "name": "D#5",
          "midi": 75,
          "time": 20.80232558139516,
          "velocity": 0.1968503937007874,
          "duration": 0.034883720930235285
        },
        {
          "name": "G#5",
          "midi": 80,
          "time": 20.80232558139516,
          "velocity": 0.12598425196850394,
          "duration": 0.04651162790698038
        },
        {
          "name": "C6",
          "midi": 84,
          "time": 20.80232558139516,
          "velocity": 0.1889763779527559,
          "duration": 0.04651162790698038
        },
        {
          "name": "G5",
          "midi": 79,
          "time": 20.813953488371904,
          "velocity": 0.2677165354330709,
          "duration": 0.08139534883721566
        },
        {
          "name": "D5",
          "midi": 74,
          "time": 20.82558139534865,
          "velocity": 0.4251968503937008,
          "duration": 0.5465116279069875
        },
        {
          "name": "B4",
          "midi": 71,
          "time": 20.837209302325395,
          "velocity": 0.1968503937007874,
          "duration": 0.058139534883725474
        },
        {
          "name": "G#6",
          "midi": 92,
          "time": 20.837209302325395,
          "velocity": 0.13385826771653545,
          "duration": 0.058139534883725474
        },
        {
          "name": "D7",
          "midi": 98,
          "time": 20.84883720930214,
          "velocity": 0.23622047244094488,
          "duration": 0.06976744186047057
        },
        {
          "name": "D#7",
          "midi": 99,
          "time": 20.84883720930214,
          "velocity": 0.2125984251968504,
          "duration": 0.058139534883725474
        },
        {
          "name": "C7",
          "midi": 96,
          "time": 20.860465116278885,
          "velocity": 0.28346456692913385,
          "duration": 0.058139534883725474
        },
        {
          "name": "F7",
          "midi": 101,
          "time": 20.87209302325563,
          "velocity": 0.12598425196850394,
          "duration": 0.034883720930235285
        },
        {
          "name": "D4",
          "midi": 62,
          "time": 20.883720930232375,
          "velocity": 0.28346456692913385,
          "duration": 0.3255813953488378
        },
        {
          "name": "A#4",
          "midi": 70,
          "time": 20.906976744185865,
          "velocity": 0.16535433070866143,
          "duration": 0.05813953488372192
        },
        {
          "name": "G4",
          "midi": 67,
          "time": 20.91860465116261,
          "velocity": 0.5590551181102362,
          "duration": 0.2906976744186025
        },
        {
          "name": "E3",
          "midi": 52,
          "time": 20.930232558139355,
          "velocity": 0.3858267716535433,
          "duration": 0.04651162790697683
        },
        {
          "name": "G#5",
          "midi": 80,
          "time": 20.930232558139355,
          "velocity": 0.09448818897637795,
          "duration": 0.03488372093023173
        },
        {
          "name": "A#5",
          "midi": 82,
          "time": 20.965116279069587,
          "velocity": 0.12598425196850394,
          "duration": 0.034883720930235285
        },
        {
          "name": "D#7",
          "midi": 99,
          "time": 20.976744186046332,
          "velocity": 0.2204724409448819,
          "duration": 0.12790697674418894
        },
        {
          "name": "G3",
          "midi": 55,
          "time": 20.988372093023077,
          "velocity": 0.5354330708661418,
          "duration": 0.2209302325581355
        },
        {
          "name": "F5",
          "midi": 77,
          "time": 20.999999999999822,
          "velocity": 0.2204724409448819,
          "duration": 0.04651162790698038
        },
        {
          "name": "A5",
          "midi": 81,
          "time": 20.999999999999822,
          "velocity": 0.18110236220472442,
          "duration": 0.11627906976744384
        },
        {
          "name": "B6",
          "midi": 95,
          "time": 20.999999999999822,
          "velocity": 0.2047244094488189,
          "duration": 0.2093023255813904
        },
        {
          "name": "A6",
          "midi": 93,
          "time": 21.011627906976567,
          "velocity": 0.2677165354330709,
          "duration": 0.12790697674418539
        },
        {
          "name": "C#7",
          "midi": 97,
          "time": 21.023255813953313,
          "velocity": 0.08661417322834646,
          "duration": 0.04651162790697683
        },
        {
          "name": "F7",
          "midi": 101,
          "time": 21.023255813953313,
          "velocity": 0.14173228346456693,
          "duration": 0.06976744186046346
        },
        {
          "name": "B5",
          "midi": 83,
          "time": 21.034883720930058,
          "velocity": 0.18110236220472442,
          "duration": 0.12790697674418183
        },
        {
          "name": "D7",
          "midi": 98,
          "time": 21.034883720930058,
          "velocity": 0.2755905511811024,
          "duration": 0.12790697674418183
        },
        {
          "name": "A#4",
          "midi": 70,
          "time": 21.06976744186029,
          "velocity": 0.18110236220472442,
          "duration": 0.03488372093023173
        },
        {
          "name": "C7",
          "midi": 96,
          "time": 21.06976744186029,
          "velocity": 0.23622047244094488,
          "duration": 0.11627906976743674
        },
        {
          "name": "A6",
          "midi": 93,
          "time": 21.16279069767424,
          "velocity": 0.1889763779527559,
          "duration": 0.11627906976744384
        },
        {
          "name": "C#7",
          "midi": 97,
          "time": 21.186046511627726,
          "velocity": 0.14960629921259844,
          "duration": 0.06976744186046702
        },
        {
          "name": "A#6",
          "midi": 94,
          "time": 21.209302325581213,
          "velocity": 0.11023622047244094,
          "duration": 0.034883720930235285
        },
        {
          "name": "F3",
          "midi": 53,
          "time": 21.220930232557958,
          "velocity": 0.5196850393700787,
          "duration": 0.058139534883725474
        },
        {
          "name": "C5",
          "midi": 72,
          "time": 21.220930232557958,
          "velocity": 0.2283464566929134,
          "duration": 0.04651162790698038
        },
        {
          "name": "D7",
          "midi": 98,
          "time": 21.232558139534703,
          "velocity": 0.14173228346456693,
          "duration": 0.08139534883721211
        },
        {
          "name": "E7",
          "midi": 100,
          "time": 21.244186046511448,
          "velocity": 0.15748031496062992,
          "duration": 0.034883720930235285
        },
        {
          "name": "E4",
          "midi": 64,
          "time": 21.26744186046494,
          "velocity": 0.36220472440944884,
          "duration": 0.02325581395349019
        },
        {
          "name": "A#4",
          "midi": 70,
          "time": 21.26744186046494,
          "velocity": 0.4251968503937008,
          "duration": 0.2209302325581355
        },
        {
          "name": "A#6",
          "midi": 94,
          "time": 21.279069767441683,
          "velocity": 0.09448818897637795,
          "duration": 0.03488372093023173
        },
        {
          "name": "D#3",
          "midi": 51,
          "time": 21.29069767441843,
          "velocity": 0.5275590551181102,
          "duration": 0.2093023255813904
        },
        {
          "name": "G#6",
          "midi": 92,
          "time": 21.29069767441843,
          "velocity": 0.1732283464566929,
          "duration": 0.05813953488371837
        },
        {
          "name": "A5",
          "midi": 81,
          "time": 21.32558139534866,
          "velocity": 0.09448818897637795,
          "duration": 0.03488372093023173
        },
        {
          "name": "F6",
          "midi": 89,
          "time": 21.348837209302147,
          "velocity": 0.15748031496062992,
          "duration": 0.06976744186046346
        },
        {
          "name": "G4",
          "midi": 67,
          "time": 21.395348837209124,
          "velocity": 0.3464566929133858,
          "duration": 0.1046511627906952
        },
        {
          "name": "C#6",
          "midi": 85,
          "time": 21.41860465116261,
          "velocity": 0.2204724409448819,
          "duration": 0.06976744186046346
        },
        {
          "name": "D#6",
          "midi": 87,
          "time": 21.441860465116097,
          "velocity": 0.3228346456692913,
          "duration": 0.22093023255815325
        },
        {
          "name": "E6",
          "midi": 88,
          "time": 21.441860465116097,
          "velocity": 0.23622047244094488,
          "duration": 0.05813953488372192
        },
        {
          "name": "G#5",
          "midi": 80,
          "time": 21.453488372092842,
          "velocity": 0.3543307086614173,
          "duration": 0.19767441860466306
        },
        {
          "name": "C6",
          "midi": 84,
          "time": 21.453488372092842,
          "velocity": 0.36220472440944884,
          "duration": 0.19767441860466306
        },
        {
          "name": "B5",
          "midi": 83,
          "time": 21.465116279069587,
          "velocity": 0.16535433070866143,
          "duration": 0.03488372093023173
        },
        {
          "name": "F#6",
          "midi": 90,
          "time": 21.465116279069587,
          "velocity": 0.1968503937007874,
          "duration": 0.17441860465117287
        },
        {
          "name": "D4",
          "midi": 62,
          "time": 21.488372093023074,
          "velocity": 0.33858267716535434,
          "duration": 0.04651162790698038
        },
        {
          "name": "D3",
          "midi": 50,
          "time": 21.49999999999982,
          "velocity": 0.4409448818897638,
          "duration": 0.02325581395349019
        },
        {
          "name": "G#4",
          "midi": 68,
          "time": 21.49999999999982,
          "velocity": 0.33858267716535434,
          "duration": 0.02325581395349019
        },
        {
          "name": "G#3",
          "midi": 56,
          "time": 21.511627906976564,
          "velocity": 0.36220472440944884,
          "duration": 0.034883720930235285
        },
        {
          "name": "D#3",
          "midi": 51,
          "time": 21.52325581395331,
          "velocity": 0.4330708661417323,
          "duration": 0.10465116279070585
        },
        {
          "name": "F5",
          "midi": 77,
          "time": 21.52325581395331,
          "velocity": 0.16535433070866143,
          "duration": 0.034883720930235285
        },
        {
          "name": "A#5",
          "midi": 82,
          "time": 21.52325581395331,
          "velocity": 0.2440944881889764,
          "duration": 0.06976744186047057
        },
        {
          "name": "G1",
          "midi": 31,
          "time": 21.534883720930054,
          "velocity": 0.7165354330708661,
          "duration": 0.02325581395349019
        },
        {
          "name": "G#4",
          "midi": 68,
          "time": 21.5465116279068,
          "velocity": 0.25984251968503935,
          "duration": 0.02325581395349019
        },
        {
          "name": "G#1",
          "midi": 32,
          "time": 21.558139534883544,
          "velocity": 0.7637795275590551,
          "duration": 0.6046511627907414
        },
        {
          "name": "G#3",
          "midi": 56,
          "time": 21.558139534883544,
          "velocity": 0.2440944881889764,
          "duration": 0.09302325581396076
        },
        {
          "name": "C4",
          "midi": 60,
          "time": 21.558139534883544,
          "velocity": 0.2204724409448819,
          "duration": 0.034883720930235285
        },
        {
          "name": "G4",
          "midi": 67,
          "time": 21.558139534883544,
          "velocity": 0.2440944881889764,
          "duration": 0.02325581395349019
        },
        {
          "name": "A#4",
          "midi": 70,
          "time": 21.558139534883544,
          "velocity": 0.08661417322834646,
          "duration": 0.04651162790698038
        },
        {
          "name": "C#5",
          "midi": 73,
          "time": 21.581395348837034,
          "velocity": 0.2677165354330709,
          "duration": 0.02325581395349019
        },
        {
          "name": "G4",
          "midi": 67,
          "time": 21.59302325581378,
          "velocity": 0.23622047244094488,
          "duration": 0.02325581395349019
        },
        {
          "name": "B5",
          "midi": 83,
          "time": 21.61627906976727,
          "velocity": 0.29133858267716534,
          "duration": 0.058139534883725474
        },
        {
          "name": "A#4",
          "midi": 70,
          "time": 21.627906976744015,
          "velocity": 0.3543307086614173,
          "duration": 0.26744186046513363
        },
        {
          "name": "C4",
          "midi": 60,
          "time": 21.63953488372076,
          "velocity": 0.1968503937007874,
          "duration": 0.09302325581396076
        },
        {
          "name": "G5",
          "midi": 79,
          "time": 21.63953488372076,
          "velocity": 0.31496062992125984,
          "duration": 0.20930232558140816
        },
        {
          "name": "D6",
          "midi": 86,
          "time": 21.63953488372076,
          "velocity": 0.18110236220472442,
          "duration": 0.13953488372093759
        },
        {
          "name": "A#6",
          "midi": 94,
          "time": 21.63953488372076,
          "velocity": 0.11811023622047244,
          "duration": 0.04651162790698038
        },
        {
          "name": "G3",
          "midi": 55,
          "time": 21.651162790697505,
          "velocity": 0.2992125984251969,
          "duration": 0.06976744186047057
        },
        {
          "name": "F#4",
          "midi": 66,
          "time": 21.651162790697505,
          "velocity": 0.25196850393700787,
          "duration": 0.02325581395349019
        },
        {
          "name": "D5",
          "midi": 74,
          "time": 21.651162790697505,
          "velocity": 0.3779527559055118,
          "duration": 0.20930232558140816
        },
        {
          "name": "E5",
          "midi": 76,
          "time": 21.651162790697505,
          "velocity": 0.07874015748031496,
          "duration": 0.034883720930235285
        },
        {
          "name": "F6",
          "midi": 89,
          "time": 21.651162790697505,
          "velocity": 0.15748031496062992,
          "duration": 0.058139534883725474
        },
        {
          "name": "F4",
          "midi": 65,
          "time": 21.674418604650995,
          "velocity": 0.25196850393700787,
          "duration": 0.02325581395349019
        },
        {
          "name": "G3",
          "midi": 55,
          "time": 21.73255813953472,
          "velocity": 0.3700787401574803,
          "duration": 0.05813953488372192
        },
        {
          "name": "D#3",
          "midi": 51,
          "time": 21.755813953488207,
          "velocity": 0.29133858267716534,
          "duration": 0.04651162790698038
        },
        {
          "name": "F5",
          "midi": 77,
          "time": 21.755813953488207,
          "velocity": 0.2440944881889764,
          "duration": 0.11627906976745095
        },
        {
          "name": "F#4",
          "midi": 66,
          "time": 21.767441860464952,
          "velocity": 0.14173228346456693,
          "duration": 0.034883720930235285
        },
        {
          "name": "A#3",
          "midi": 58,
          "time": 21.790697674418443,
          "velocity": 0.33858267716535434,
          "duration": 0.04651162790698038
        },
        {
          "name": "D4",
          "midi": 62,
          "time": 21.802325581395188,
          "velocity": 0.30708661417322836,
          "duration": 0.02325581395349019
        },
        {
          "name": "D#3",
          "midi": 51,
          "time": 21.813953488371933,
          "velocity": 0.3228346456692913,
          "duration": 0.09302325581396076
        },
        {
          "name": "F#4",
          "midi": 66,
          "time": 21.813953488371933,
          "velocity": 0.18110236220472442,
          "duration": 0.058139534883725474
        },
        {
          "name": "A3",
          "midi": 57,
          "time": 21.837209302325423,
          "velocity": 0.3464566929133858,
          "duration": 0.02325581395349019
        },
        {
          "name": "C#4",
          "midi": 61,
          "time": 21.860465116278913,
          "velocity": 0.23622047244094488,
          "duration": 0.02325581395349019
        },
        {
          "name": "C6",
          "midi": 84,
          "time": 21.87209302325566,
          "velocity": 0.1889763779527559,
          "duration": 0.11627906976745095
        },
        {
          "name": "F#6",
          "midi": 90,
          "time": 21.87209302325566,
          "velocity": 0.30708661417322836,
          "duration": 0.08139534883721566
        },
        {
          "name": "G6",
          "midi": 91,
          "time": 21.87209302325566,
          "velocity": 0.3858267716535433,
          "duration": 0.674418604651212
        },
        {
          "name": "D4",
          "midi": 62,
          "time": 21.883720930232403,
          "velocity": 0.33858267716535434,
          "duration": 0.034883720930235285
        },
        {
          "name": "G#4",
          "midi": 68,
          "time": 21.883720930232403,
          "velocity": 0.36220472440944884,
          "duration": 0.02325581395349019
        },
        {
          "name": "C7",
          "midi": 96,
          "time": 21.883720930232403,
          "velocity": 0.2440944881889764,
          "duration": 0.11627906976745095
        },
        {
          "name": "G#6",
          "midi": 92,
          "time": 21.89534883720915,
          "velocity": 0.29133858267716534,
          "duration": 0.08139534883721566
        },
        {
          "name": "A6",
          "midi": 93,
          "time": 21.89534883720915,
          "velocity": 0.4094488188976378,
          "duration": 0.6627906976744669
        },
        {
          "name": "A#6",
          "midi": 94,
          "time": 21.89534883720915,
          "velocity": 0.11811023622047244,
          "duration": 0.11627906976745095
        },
        {
          "name": "B6",
          "midi": 95,
          "time": 21.89534883720915,
          "velocity": 0.2755905511811024,
          "duration": 0.38372093023258813
        },
        {
          "name": "C#7",
          "midi": 97,
          "time": 21.89534883720915,
          "velocity": 0.2125984251968504,
          "duration": 0.09302325581396076
        },
        {
          "name": "D3",
          "midi": 50,
          "time": 21.906976744185894,
          "velocity": 0.2204724409448819,
          "duration": 0.034883720930235285
        },
        {
          "name": "A#5",
          "midi": 82,
          "time": 21.906976744185894,
          "velocity": 0.25984251968503935,
          "duration": 0.08139534883721566
        },
        {
          "name": "D#4",
          "midi": 63,
          "time": 21.91860465116264,
          "velocity": 0.3779527559055118,
          "duration": 0.02325581395349019
        },
        {
          "name": "F6",
          "midi": 89,
          "time": 21.91860465116264,
          "velocity": 0.13385826771653545,
          "duration": 0.2325581395349019
        },
        {
          "name": "F5",
          "midi": 77,
          "time": 21.930232558139384,
          "velocity": 0.2047244094488189,
          "duration": 0.058139534883725474
        },
        {
          "name": "E3",
          "midi": 52,
          "time": 21.94186046511613,
          "velocity": 0.3858267716535433,
          "duration": 0.034883720930235285
        },
        {
          "name": "F4",
          "midi": 65,
          "time": 21.94186046511613,
          "velocity": 0.3543307086614173,
          "duration": 0.04651162790698038
        },
        {
          "name": "C5",
          "midi": 72,
          "time": 21.94186046511613,
          "velocity": 0.4251968503937008,
          "duration": 0.034883720930235285
        },
        {
          "name": "D7",
          "midi": 98,
          "time": 21.94186046511613,
          "velocity": 0.2755905511811024,
          "duration": 0.11627906976745095
        },
        {
          "name": "D#7",
          "midi": 99,
          "time": 21.94186046511613,
          "velocity": 0.12598425196850394,
          "duration": 0.04651162790698038
        },
        {
          "name": "C4",
          "midi": 60,
          "time": 21.953488372092874,
          "velocity": 0.1968503937007874,
          "duration": 0.034883720930235285
        },
        {
          "name": "A5",
          "midi": 81,
          "time": 21.953488372092874,
          "velocity": 0.07874015748031496,
          "duration": 0.034883720930235285
        },
        {
          "name": "G5",
          "midi": 79,
          "time": 21.96511627906962,
          "velocity": 0.3779527559055118,
          "duration": 0.627906976744228
        },
        {
          "name": "B5",
          "midi": 83,
          "time": 21.96511627906962,
          "velocity": 0.15748031496062992,
          "duration": 0.06976744186047057
        },
        {
          "name": "F7",
          "midi": 101,
          "time": 21.976744186046364,
          "velocity": 0.2677165354330709,
          "duration": 0.5000000000000355
        },
        {
          "name": "G4",
          "midi": 67,
          "time": 21.98837209302311,
          "velocity": 0.3228346456692913,
          "duration": 0.08139534883721566
        },
        {
          "name": "D5",
          "midi": 74,
          "time": 21.98837209302311,
          "velocity": 0.4330708661417323,
          "duration": 0.5116279069767806
        },
        {
          "name": "E5",
          "midi": 76,
          "time": 21.98837209302311,
          "velocity": 0.2283464566929134,
          "duration": 0.034883720930235285
        },
        {
          "name": "G3",
          "midi": 55,
          "time": 21.999999999999854,
          "velocity": 0.4645669291338583,
          "duration": 0.06976744186047057
        },
        {
          "name": "C#7",
          "midi": 97,
          "time": 21.999999999999854,
          "velocity": 0.12598425196850394,
          "duration": 0.058139534883725474
        },
        {
          "name": "D#7",
          "midi": 99,
          "time": 21.999999999999854,
          "velocity": 0.14173228346456693,
          "duration": 0.034883720930235285
        },
        {
          "name": "F#7",
          "midi": 102,
          "time": 21.999999999999854,
          "velocity": 0.14960629921259844,
          "duration": 0.04651162790698038
        },
        {
          "name": "A#5",
          "midi": 82,
          "time": 22.023255813953345,
          "velocity": 0.25196850393700787,
          "duration": 0.10465116279070585
        },
        {
          "name": "A5",
          "midi": 81,
          "time": 22.03488372093009,
          "velocity": 0.11023622047244094,
          "duration": 0.04651162790698038
        },
        {
          "name": "D#6",
          "midi": 87,
          "time": 22.03488372093009,
          "velocity": 0.07086614173228346,
          "duration": 0.04651162790698038
        },
        {
          "name": "D4",
          "midi": 62,
          "time": 22.046511627906835,
          "velocity": 0.33070866141732286,
          "duration": 0.034883720930235285
        },
        {
          "name": "G#4",
          "midi": 68,
          "time": 22.05813953488358,
          "velocity": 0.30708661417322836,
          "duration": 0.034883720930235285
        },
        {
          "name": "F#7",
          "midi": 102,
          "time": 22.069767441860325,
          "velocity": 0.15748031496062992,
          "duration": 0.25581395348838853
        },
        {
          "name": "G3",
          "midi": 55,
          "time": 22.08139534883707,
          "velocity": 0.47244094488188976,
          "duration": 0.13953488372094114
        },
        {
          "name": "C4",
          "midi": 60,
          "time": 22.08139534883707,
          "velocity": 0.18110236220472442,
          "duration": 0.04651162790698038
        },
        {
          "name": "D#4",
          "midi": 63,
          "time": 22.08139534883707,
          "velocity": 0.23622047244094488,
          "duration": 0.02325581395349019
        },
        {
          "name": "D#7",
          "midi": 99,
          "time": 22.093023255813815,
          "velocity": 0.15748031496062992,
          "duration": 0.23255813953489834
        },
        {
          "name": "B5",
          "midi": 83,
          "time": 22.10465116279056,
          "velocity": 0.14173228346456693,
          "duration": 0.034883720930235285
        },
        {
          "name": "C#7",
          "midi": 97,
          "time": 22.10465116279056,
          "velocity": 0.1889763779527559,
          "duration": 0.04651162790698038
        },
        {
          "name": "D7",
          "midi": 98,
          "time": 22.10465116279056,
          "velocity": 0.13385826771653545,
          "duration": 0.15116279069768623
        },
        {
          "name": "D#4",
          "midi": 63,
          "time": 22.116279069767305,
          "velocity": 0.2283464566929134,
          "duration": 0.02325581395349019
        },
        {
          "name": "D4",
          "midi": 62,
          "time": 22.139534883720795,
          "velocity": 0.23622047244094488,
          "duration": 0.02325581395349019
        },
        {
          "name": "A#5",
          "midi": 82,
          "time": 22.139534883720795,
          "velocity": 0.2204724409448819,
          "duration": 0.10465116279070585
        },
        {
          "name": "C7",
          "midi": 96,
          "time": 22.15116279069754,
          "velocity": 0.2047244094488189,
          "duration": 0.10465116279070585
        },
        {
          "name": "G1",
          "midi": 31,
          "time": 22.162790697674286,
          "velocity": 0.7086614173228346,
          "duration": 0.011627906976745095
        },
        {
          "name": "A#4",
          "midi": 70,
          "time": 22.162790697674286,
          "velocity": 0.2125984251968504,
          "duration": 0.058139534883725474
        },
        {
          "name": "F#1",
          "midi": 30,
          "time": 22.17441860465103,
          "velocity": 0.5905511811023622,
          "duration": 0.011627906976745095
        },
        {
          "name": "D-1",
          "midi": 2,
          "time": 22.19767441860452,
          "velocity": 0.5196850393700787,
          "duration": 0.011627906976745095
        },
        {
          "name": "B5",
          "midi": 83,
          "time": 22.19767441860452,
          "velocity": 0.2125984251968504,
          "duration": 0.034883720930235285
        },
        {
          "name": "F6",
          "midi": 89,
          "time": 22.19767441860452,
          "velocity": 0.1968503937007874,
          "duration": 0.16279069767442778
        },
        {
          "name": "F#1",
          "midi": 30,
          "time": 22.209302325581266,
          "velocity": 0.6692913385826772,
          "duration": 0.011627906976745095
        },
        {
          "name": "A4",
          "midi": 69,
          "time": 22.209302325581266,
          "velocity": 0.25984251968503935,
          "duration": 0.02325581395349019
        },
        {
          "name": "F5",
          "midi": 77,
          "time": 22.209302325581266,
          "velocity": 0.25196850393700787,
          "duration": 0.7209302325581746
        },
        {
          "name": "G1",
          "midi": 31,
          "time": 22.22093023255801,
          "velocity": 0.7795275590551181,
          "duration": 0.6162790697674723
        },
        {
          "name": "D#4",
          "midi": 63,
          "time": 22.22093023255801,
          "velocity": 0.31496062992125984,
          "duration": 0.18604651162791797
        },
        {
          "name": "G3",
          "midi": 55,
          "time": 22.232558139534756,
          "velocity": 0.48031496062992124,
          "duration": 0.06976744186046702
        },
        {
          "name": "G#4",
          "midi": 68,
          "time": 22.232558139534756,
          "velocity": 0.3228346456692913,
          "duration": 0.08139534883721211
        },
        {
          "name": "B5",
          "midi": 83,
          "time": 22.2441860465115,
          "velocity": 0.14960629921259844,
          "duration": 0.034883720930235285
        },
        {
          "name": "C#7",
          "midi": 97,
          "time": 22.255813953488246,
          "velocity": 0.08661417322834646,
          "duration": 0.05813953488372192
        },
        {
          "name": "A#5",
          "midi": 82,
          "time": 22.26744186046499,
          "velocity": 0.16535433070866143,
          "duration": 0.04651162790697683
        },
        {
          "name": "G3",
          "midi": 55,
          "time": 22.31395348837197,
          "velocity": 0.5039370078740157,
          "duration": 0.06976744186047057
        },
        {
          "name": "B5",
          "midi": 83,
          "time": 22.31395348837197,
          "velocity": 0.2755905511811024,
          "duration": 0.2790697674418787
        },
        {
          "name": "G#4",
          "midi": 68,
          "time": 22.325581395348713,
          "velocity": 0.31496062992125984,
          "duration": 0.02325581395349019
        },
        {
          "name": "B4",
          "midi": 71,
          "time": 22.325581395348713,
          "velocity": 0.11023622047244094,
          "duration": 0.034883720930235285
        },
        {
          "name": "F#6",
          "midi": 90,
          "time": 22.325581395348713,
          "velocity": 0.09448818897637795,
          "duration": 0.034883720930235285
        },
        {
          "name": "G#6",
          "midi": 92,
          "time": 22.33720930232546,
          "velocity": 0.18110236220472442,
          "duration": 0.034883720930235285
        },
        {
          "name": "A4",
          "midi": 69,
          "time": 22.348837209302204,
          "velocity": 0.2677165354330709,
          "duration": 0.058139534883725474
        },
        {
          "name": "C7",
          "midi": 96,
          "time": 22.348837209302204,
          "velocity": 0.12598425196850394,
          "duration": 0.058139534883725474
        },
        {
          "name": "D#7",
          "midi": 99,
          "time": 22.348837209302204,
          "velocity": 0.07086614173228346,
          "duration": 0.12790697674419604
        },
        {
          "name": "F#7",
          "midi": 102,
          "time": 22.348837209302204,
          "velocity": 0.12598425196850394,
          "duration": 0.06976744186047057
        },
        {
          "name": "D3",
          "midi": 50,
          "time": 22.38372093023244,
          "velocity": 0.28346456692913385,
          "duration": 0.034883720930235285
        },
        {
          "name": "C5",
          "midi": 72,
          "time": 22.38372093023244,
          "velocity": 0.1968503937007874,
          "duration": 0.04651162790698038
        },
        {
          "name": "G#6",
          "midi": 92,
          "time": 22.38372093023244,
          "velocity": 0.23622047244094488,
          "duration": 0.11627906976745095
        },
        {
          "name": "G3",
          "midi": 55,
          "time": 22.395348837209184,
          "velocity": 0.4566929133858268,
          "duration": 0.09302325581396076
        },
        {
          "name": "G#4",
          "midi": 68,
          "time": 22.395348837209184,
          "velocity": 0.2047244094488189,
          "duration": 0.034883720930235285
        },
        {
          "name": "F#6",
          "midi": 90,
          "time": 22.40697674418593,
          "velocity": 0.12598425196850394,
          "duration": 0.034883720930235285
        },
        {
          "name": "D#4",
          "midi": 63,
          "time": 22.418604651162674,
          "velocity": 0.2755905511811024,
          "duration": 0.08139534883721566
        },
        {
          "name": "D#6",
          "midi": 87,
          "time": 22.43023255813942,
          "velocity": 0.13385826771653545,
          "duration": 0.04651162790698038
        },
        {
          "name": "E7",
          "midi": 100,
          "time": 22.441860465116164,
          "velocity": 0.15748031496062992,
          "duration": 0.04651162790698038
        },
        {
          "name": "G#2",
          "midi": 44,
          "time": 22.45348837209291,
          "velocity": 0.2992125984251969,
          "duration": 0.02325581395349019
        },
        {
          "name": "C#6",
          "midi": 85,
          "time": 22.45348837209291,
          "velocity": 0.16535433070866143,
          "duration": 0.034883720930235285
        },
        {
          "name": "D3",
          "midi": 50,
          "time": 22.465116279069655,
          "velocity": 0.2677165354330709,
          "duration": 0.04651162790698038
        },
        {
          "name": "D#5",
          "midi": 75,
          "time": 22.488372093023145,
          "velocity": 0.29133858267716534,
          "duration": 0.04651162790698038
        },
        {
          "name": "G3",
          "midi": 55,
          "time": 22.49999999999989,
          "velocity": 0.5039370078740157,
          "duration": 0.12790697674418894
        },
        {
          "name": "F7",
          "midi": 101,
          "time": 22.511627906976635,
          "velocity": 0.25196850393700787,
          "duration": 0.12790697674418894
        },
        {
          "name": "D#7",
          "midi": 99,
          "time": 22.52325581395338,
          "velocity": 0.13385826771653545,
          "duration": 0.034883720930235285
        },
        {
          "name": "D5",
          "midi": 74,
          "time": 22.534883720930125,
          "velocity": 0.2677165354330709,
          "duration": 0.09302325581395365
        },
        {
          "name": "A#5",
          "midi": 82,
          "time": 22.54651162790687,
          "velocity": 0.18110236220472442,
          "duration": 0.04651162790697683
        },
        {
          "name": "C#7",
          "midi": 97,
          "time": 22.558139534883615,
          "velocity": 0.2755905511811024,
          "duration": 0.08139534883720856
        },
        {
          "name": "E7",
          "midi": 100,
          "time": 22.558139534883615,
          "velocity": 0.2440944881889764,
          "duration": 0.12790697674418539
        },
        {
          "name": "F#7",
          "midi": 102,
          "time": 22.558139534883615,
          "velocity": 0.2125984251968504,
          "duration": 0.13953488372093048
        },
        {
          "name": "D7",
          "midi": 98,
          "time": 22.56976744186036,
          "velocity": 0.1889763779527559,
          "duration": 0.08139534883720856
        },
        {
          "name": "D#4",
          "midi": 63,
          "time": 22.593023255813847,
          "velocity": 0.1968503937007874,
          "duration": 0.05813953488372192
        },
        {
          "name": "G#5",
          "midi": 80,
          "time": 22.593023255813847,
          "velocity": 0.1732283464566929,
          "duration": 0.10465116279069875
        },
        {
          "name": "C7",
          "midi": 96,
          "time": 22.616279069767334,
          "velocity": 0.25984251968503935,
          "duration": 0.06976744186046702
        },
        {
          "name": "D#7",
          "midi": 99,
          "time": 22.616279069767334,
          "velocity": 0.15748031496062992,
          "duration": 0.08139534883721211
        },
        {
          "name": "G#3",
          "midi": 56,
          "time": 22.62790697674408,
          "velocity": 0.5196850393700787,
          "duration": 0.0930232558139572
        },
        {
          "name": "G5",
          "midi": 79,
          "time": 22.62790697674408,
          "velocity": 0.08661417322834646,
          "duration": 0.04651162790697683
        },
        {
          "name": "A#6",
          "midi": 94,
          "time": 22.62790697674408,
          "velocity": 0.1732283464566929,
          "duration": 0.0930232558139572
        },
        {
          "name": "D3",
          "midi": 50,
          "time": 22.639534883720824,
          "velocity": 0.2755905511811024,
          "duration": 0.05813953488372192
        },
        {
          "name": "D#5",
          "midi": 75,
          "time": 22.639534883720824,
          "velocity": 0.2283464566929134,
          "duration": 0.06976744186046702
        },
        {
          "name": "C#7",
          "midi": 97,
          "time": 22.65116279069757,
          "velocity": 0.07874015748031496,
          "duration": 0.03488372093023173
        },
        {
          "name": "G5",
          "midi": 79,
          "time": 22.697674418604546,
          "velocity": 0.11811023622047244,
          "duration": 0.0930232558139572
        },
        {
          "name": "G4",
          "midi": 67,
          "time": 22.70930232558129,
          "velocity": 0.25984251968503935,
          "duration": 0.02325581395349019
        },
        {
          "name": "A4",
          "midi": 69,
          "time": 22.70930232558129,
          "velocity": 0.13385826771653545,
          "duration": 0.08139534883721211
        },
        {
          "name": "D5",
          "midi": 74,
          "time": 22.70930232558129,
          "velocity": 0.25984251968503935,
          "duration": 0.034883720930235285
        },
        {
          "name": "G6",
          "midi": 91,
          "time": 22.70930232558129,
          "velocity": 0.29133858267716534,
          "duration": 0.3023255813953618
        },
        {
          "name": "D#4",
          "midi": 63,
          "time": 22.720930232558036,
          "velocity": 0.29133858267716534,
          "duration": 0.16279069767442778
        },
        {
          "name": "D3",
          "midi": 50,
          "time": 22.73255813953478,
          "velocity": 0.2992125984251969,
          "duration": 0.06976744186046702
        },
        {
          "name": "G#3",
          "midi": 56,
          "time": 22.73255813953478,
          "velocity": 0.4409448818897638,
          "duration": 0.06976744186046702
        },
        {
          "name": "A#5",
          "midi": 82,
          "time": 22.73255813953478,
          "velocity": 0.09448818897637795,
          "duration": 0.04651162790697683
        },
        {
          "name": "G4",
          "midi": 67,
          "time": 22.779069767441758,
          "velocity": 0.41732283464566927,
          "duration": 0.1279069767441925
        },
        {
          "name": "A6",
          "midi": 93,
          "time": 22.790697674418503,
          "velocity": 0.4330708661417323,
          "duration": 0.2325581395348948
        },
        {
          "name": "G3",
          "midi": 55,
          "time": 22.802325581395248,
          "velocity": 0.4645669291338583,
          "duration": 0.034883720930235285
        },
        {
          "name": "F7",
          "midi": 101,
          "time": 22.802325581395248,
          "velocity": 0.23622047244094488,
          "duration": 0.1162790697674474
        },
        {
          "name": "A#4",
          "midi": 70,
          "time": 22.813953488371993,
          "velocity": 0.14173228346456693,
          "duration": 0.034883720930235285
        },
        {
          "name": "C7",
          "midi": 96,
          "time": 22.813953488371993,
          "velocity": 0.2204724409448819,
          "duration": 0.034883720930235285
        },
        {
          "name": "D5",
          "midi": 74,
          "time": 22.82558139534874,
          "velocity": 0.3228346456692913,
          "duration": 0.1162790697674474
        },
        {
          "name": "B5",
          "midi": 83,
          "time": 22.82558139534874,
          "velocity": 0.18110236220472442,
          "duration": 0.1976744186046595
        },
        {
          "name": "B6",
          "midi": 95,
          "time": 22.82558139534874,
          "velocity": 0.33070866141732286,
          "duration": 0.2093023255814046
        },
        {
          "name": "D#7",
          "midi": 99,
          "time": 22.82558139534874,
          "velocity": 0.1889763779527559,
          "duration": 0.058139534883725474
        },
        {
          "name": "F#1",
          "midi": 30,
          "time": 22.837209302325483,
          "velocity": 0.6929133858267716,
          "duration": 0.011627906976745095
        },
        {
          "name": "C5",
          "midi": 72,
          "time": 22.837209302325483,
          "velocity": 0.14173228346456693,
          "duration": 0.04651162790698038
        },
        {
          "name": "D7",
          "midi": 98,
          "time": 22.837209302325483,
          "velocity": 0.25196850393700787,
          "duration": 0.2209302325581497
        },
        {
          "name": "F1",
          "midi": 29,
          "time": 22.84883720930223,
          "velocity": 0.5511811023622047,
          "duration": 0.011627906976745095
        },
        {
          "name": "G3",
          "midi": 55,
          "time": 22.84883720930223,
          "velocity": 0.4645669291338583,
          "duration": 0.05813953488372192
        },
        {
          "name": "C#7",
          "midi": 97,
          "time": 22.84883720930223,
          "velocity": 0.31496062992125984,
          "duration": 0.06976744186046702
        },
        {
          "name": "G#5",
          "midi": 80,
          "time": 22.87209302325572,
          "velocity": 0.11811023622047244,
          "duration": 0.03488372093023173
        },
        {
          "name": "D#1",
          "midi": 27,
          "time": 22.883720930232464,
          "velocity": 0.7086614173228346,
          "duration": 0.023255813953486637
        },
        {
          "name": "B4",
          "midi": 71,
          "time": 22.883720930232464,
          "velocity": 0.11811023622047244,
          "duration": 0.04651162790697683
        },
        {
          "name": "A5",
          "midi": 81,
          "time": 22.883720930232464,
          "velocity": 0.11023622047244094,
          "duration": 0.03488372093023173
        },
        {
          "name": "C6",
          "midi": 84,
          "time": 22.883720930232464,
          "velocity": 0.1968503937007874,
          "duration": 0.03488372093023173
        },
        {
          "name": "C#1",
          "midi": 25,
          "time": 22.90697674418595,
          "velocity": 0.7322834645669292,
          "duration": 0.011627906976745095
        },
        {
          "name": "C7",
          "midi": 96,
          "time": 22.90697674418595,
          "velocity": 0.31496062992125984,
          "duration": 0.18604651162791797
        },
        {
          "name": "B0",
          "midi": 23,
          "time": 22.918604651162696,
          "velocity": 0.7480314960629921,
          "duration": 0.02325581395349019
        },
        {
          "name": "G3",
          "midi": 55,
          "time": 22.93023255813944,
          "velocity": 0.49606299212598426,
          "duration": 0.08139534883721211
        },
        {
          "name": "C1",
          "midi": 24,
          "time": 22.941860465116186,
          "velocity": 0.7559055118110236,
          "duration": 1.232558139534941
        },
        {
          "name": "D4",
          "midi": 62,
          "time": 22.941860465116186,
          "velocity": 0.2440944881889764,
          "duration": 0.06976744186046702
        },
        {
          "name": "F5",
          "midi": 77,
          "time": 22.95348837209293,
          "velocity": 0.2125984251968504,
          "duration": 0.27906976744186807
        },
        {
          "name": "A#6",
          "midi": 94,
          "time": 23.011627906976653,
          "velocity": 0.2047244094488189,
          "duration": 0.13953488372093759
        },
        {
          "name": "C#7",
          "midi": 97,
          "time": 23.011627906976653,
          "velocity": 0.09448818897637795,
          "duration": 0.058139534883725474
        },
        {
          "name": "F3",
          "midi": 53,
          "time": 23.023255813953398,
          "velocity": 0.44881889763779526,
          "duration": 0.02325581395349019
        },
        {
          "name": "D#5",
          "midi": 75,
          "time": 23.034883720930143,
          "velocity": 0.09448818897637795,
          "duration": 0.04651162790698038
        },
        {
          "name": "F3",
          "midi": 53,
          "time": 23.058139534883633,
          "velocity": 0.4094488188976378,
          "duration": 0.02325581395349019
        },
        {
          "name": "G#4",
          "midi": 68,
          "time": 23.069767441860378,
          "velocity": 0.1968503937007874,
          "duration": 0.04651162790698038
        },
        {
          "name": "E3",
          "midi": 52,
          "time": 23.081395348837123,
          "velocity": 0.3464566929133858,
          "duration": 0.02325581395349019
        },
        {
          "name": "G2",
          "midi": 43,
          "time": 23.09302325581387,
          "velocity": 0.28346456692913385,
          "duration": 0.02325581395349019
        },
        {
          "name": "G#3",
          "midi": 56,
          "time": 23.09302325581387,
          "velocity": 0.3937007874015748,
          "duration": 0.04651162790697683
        },
        {
          "name": "D#4",
          "midi": 63,
          "time": 23.09302325581387,
          "velocity": 0.41732283464566927,
          "duration": 0.24418604651162923
        },
        {
          "name": "A#4",
          "midi": 70,
          "time": 23.09302325581387,
          "velocity": 0.31496062992125984,
          "duration": 0.16279069767442067
        },
        {
          "name": "D#3",
          "midi": 51,
          "time": 23.104651162790613,
          "velocity": 0.4409448818897638,
          "duration": 0.2093023255813975
        },
        {
          "name": "G#6",
          "midi": 92,
          "time": 23.11627906976736,
          "velocity": 0.2047244094488189,
          "duration": 0.2790697674418645
        },
        {
          "name": "G#3",
          "midi": 56,
          "time": 23.15116279069759,
          "velocity": 0.4015748031496063,
          "duration": 0.06976744186046346
        },
        {
          "name": "F#4",
          "midi": 66,
          "time": 23.174418604651077,
          "velocity": 0.11023622047244094,
          "duration": 0.03488372093023173
        },
        {
          "name": "G2",
          "midi": 43,
          "time": 23.197674418604564,
          "velocity": 0.33070866141732286,
          "duration": 0.02325581395349019
        },
        {
          "name": "C#5",
          "midi": 73,
          "time": 23.220930232558054,
          "velocity": 0.2125984251968504,
          "duration": 0.034883720930235285
        },
        {
          "name": "G#5",
          "midi": 80,
          "time": 23.220930232558054,
          "velocity": 0.33858267716535434,
          "duration": 0.2209302325581497
        },
        {
          "name": "G4",
          "midi": 67,
          "time": 23.2325581395348,
          "velocity": 0.2992125984251969,
          "duration": 0.02325581395349019
        },
        {
          "name": "C6",
          "midi": 84,
          "time": 23.2325581395348,
          "velocity": 0.3228346456692913,
          "duration": 0.2093023255814046
        },
        {
          "name": "D#6",
          "midi": 87,
          "time": 23.2325581395348,
          "velocity": 0.3858267716535433,
          "duration": 0.4883720930232833
        },
        {
          "name": "F#6",
          "midi": 90,
          "time": 23.2325581395348,
          "velocity": 0.1732283464566929,
          "duration": 0.034883720930235285
        },
        {
          "name": "G#2",
          "midi": 44,
          "time": 23.244186046511544,
          "velocity": 0.33858267716535434,
          "duration": 0.02325581395349019
        },
        {
          "name": "D5",
          "midi": 74,
          "time": 23.244186046511544,
          "velocity": 0.2440944881889764,
          "duration": 0.02325581395349019
        },
        {
          "name": "G6",
          "midi": 91,
          "time": 23.244186046511544,
          "velocity": 0.13385826771653545,
          "duration": 0.06976744186046702
        },
        {
          "name": "A#3",
          "midi": 58,
          "time": 23.267441860465034,
          "velocity": 0.14960629921259844,
          "duration": 0.03488372093023173
        },
        {
          "name": "G4",
          "midi": 67,
          "time": 23.267441860465034,
          "velocity": 0.28346456692913385,
          "duration": 0.023255813953486637
        },
        {
          "name": "A#4",
          "midi": 70,
          "time": 23.267441860465034,
          "velocity": 0.25984251968503935,
          "duration": 0.023255813953486637
        },
        {
          "name": "G2",
          "midi": 43,
          "time": 23.29069767441852,
          "velocity": 0.2677165354330709,
          "duration": 0.02325581395349019
        },
        {
          "name": "D6",
          "midi": 86,
          "time": 23.302325581395266,
          "velocity": 0.14960629921259844,
          "duration": 0.0930232558139572
        },
        {
          "name": "G#4",
          "midi": 68,
          "time": 23.31395348837201,
          "velocity": 0.3464566929133858,
          "duration": 0.1162790697674474
        },
        {
          "name": "D3",
          "midi": 50,
          "time": 23.337209302325498,
          "velocity": 0.30708661417322836,
          "duration": 0.034883720930235285
        },
        {
          "name": "F5",
          "midi": 77,
          "time": 23.337209302325498,
          "velocity": 0.07874015748031496,
          "duration": 0.04651162790698038
        },
        {
          "name": "A6",
          "midi": 93,
          "time": 23.348837209302243,
          "velocity": 0.14173228346456693,
          "duration": 0.10465116279070585
        },
        {
          "name": "F#6",
          "midi": 90,
          "time": 23.360465116278988,
          "velocity": 0.13385826771653545,
          "duration": 0.08139534883721566
        },
        {
          "name": "G3",
          "midi": 55,
          "time": 23.372093023255733,
          "velocity": 0.30708661417322836,
          "duration": 0.02325581395349019
        },
        {
          "name": "G#3",
          "midi": 56,
          "time": 23.395348837209223,
          "velocity": 0.33070866141732286,
          "duration": 0.02325581395349019
        },
        {
          "name": "D6",
          "midi": 86,
          "time": 23.406976744185968,
          "velocity": 0.2283464566929134,
          "duration": 0.24418604651164344
        },
        {
          "name": "G6",
          "midi": 91,
          "time": 23.406976744185968,
          "velocity": 0.11023622047244094,
          "duration": 0.034883720930235285
        },
        {
          "name": "D4",
          "midi": 62,
          "time": 23.418604651162713,
          "velocity": 0.2125984251968504,
          "duration": 0.04651162790698038
        },
        {
          "name": "F5",
          "midi": 77,
          "time": 23.43023255813946,
          "velocity": 0.09448818897637795,
          "duration": 0.034883720930235285
        },
        {
          "name": "B5",
          "midi": 83,
          "time": 23.43023255813946,
          "velocity": 0.23622047244094488,
          "duration": 0.10465116279070585
        },
        {
          "name": "E3",
          "midi": 52,
          "time": 23.441860465116203,
          "velocity": 0.2440944881889764,
          "duration": 0.02325581395349019
        },
        {
          "name": "D5",
          "midi": 74,
          "time": 23.441860465116203,
          "velocity": 0.3779527559055118,
          "duration": 0.12790697674419604
        },
        {
          "name": "G5",
          "midi": 79,
          "time": 23.441860465116203,
          "velocity": 0.33858267716535434,
          "duration": 0.11627906976745095
        },
        {
          "name": "F6",
          "midi": 89,
          "time": 23.45348837209295,
          "velocity": 0.13385826771653545,
          "duration": 0.08139534883721566
        },
        {
          "name": "G2",
          "midi": 43,
          "time": 23.47674418604644,
          "velocity": 0.31496062992125984,
          "duration": 0.02325581395349019
        },
        {
          "name": "D4",
          "midi": 62,
          "time": 23.47674418604644,
          "velocity": 0.2125984251968504,
          "duration": 0.058139534883725474
        },
        {
          "name": "B4",
          "midi": 71,
          "time": 23.488372093023184,
          "velocity": 0.07086614173228346,
          "duration": 0.034883720930235285
        },
        {
          "name": "G#3",
          "midi": 56,
          "time": 23.49999999999993,
          "velocity": 0.29133858267716534,
          "duration": 0.02325581395349019
        },
        {
          "name": "G4",
          "midi": 67,
          "time": 23.511627906976674,
          "velocity": 0.18110236220472442,
          "duration": 0.034883720930235285
        },
        {
          "name": "G2",
          "midi": 43,
          "time": 23.52325581395342,
          "velocity": 0.30708661417322836,
          "duration": 0.034883720930235285
        },
        {
          "name": "A3",
          "midi": 57,
          "time": 23.52325581395342,
          "velocity": 0.25984251968503935,
          "duration": 0.02325581395349019
        },
        {
          "name": "E3",
          "midi": 52,
          "time": 23.534883720930164,
          "velocity": 0.25984251968503935,
          "duration": 0.02325581395349019
        },
        {
          "name": "G#4",
          "midi": 68,
          "time": 23.54651162790691,
          "velocity": 0.3464566929133858,
          "duration": 0.0930232558139572
        },
        {
          "name": "G#3",
          "midi": 56,
          "time": 23.5697674418604,
          "velocity": 0.4251968503937008,
          "duration": 0.1162790697674474
        },
        {
          "name": "G5",
          "midi": 79,
          "time": 23.5697674418604,
          "velocity": 0.2125984251968504,
          "duration": 0.3023255813953689
        },
        {
          "name": "G#2",
          "midi": 44,
          "time": 23.581395348837145,
          "velocity": 0.36220472440944884,
          "duration": 0.023255813953486637
        },
        {
          "name": "D#4",
          "midi": 63,
          "time": 23.581395348837145,
          "velocity": 0.2283464566929134,
          "duration": 0.03488372093023173
        },
        {
          "name": "G2",
          "midi": 43,
          "time": 23.62790697674412,
          "velocity": 0.2992125984251969,
          "duration": 0.02325581395349019
        },
        {
          "name": "D4",
          "midi": 62,
          "time": 23.639534883720867,
          "velocity": 0.23622047244094488,
          "duration": 0.058139534883725474
        },
        {
          "name": "D#5",
          "midi": 75,
          "time": 23.65116279069761,
          "velocity": 0.11023622047244094,
          "duration": 0.058139534883725474
        },
        {
          "name": "F5",
          "midi": 77,
          "time": 23.65116279069761,
          "velocity": 0.07874015748031496,
          "duration": 0.034883720930235285
        },
        {
          "name": "D#3",
          "midi": 51,
          "time": 23.662790697674357,
          "velocity": 0.3779527559055118,
          "duration": 0.034883720930235285
        },
        {
          "name": "F4",
          "midi": 65,
          "time": 23.674418604651102,
          "velocity": 0.2440944881889764,
          "duration": 0.02325581395349019
        },
        {
          "name": "A#4",
          "midi": 70,
          "time": 23.674418604651102,
          "velocity": 0.12598425196850394,
          "duration": 0.034883720930235285
        },
        {
          "name": "E4",
          "midi": 64,
          "time": 23.697674418604592,
          "velocity": 0.2755905511811024,
          "duration": 0.02325581395349019
        },
        {
          "name": "D5",
          "midi": 74,
          "time": 23.709302325581337,
          "velocity": 0.36220472440944884,
          "duration": 0.06976744186047057
        },
        {
          "name": "G2",
          "midi": 43,
          "time": 23.720930232558082,
          "velocity": 0.25196850393700787,
          "duration": 0.02325581395349019
        },
        {
          "name": "A#4",
          "midi": 70,
          "time": 23.720930232558082,
          "velocity": 0.2283464566929134,
          "duration": 0.034883720930235285
        },
        {
          "name": "B6",
          "midi": 95,
          "time": 23.720930232558082,
          "velocity": 0.1968503937007874,
          "duration": 0.04651162790698038
        },
        {
          "name": "F7",
          "midi": 101,
          "time": 23.720930232558082,
          "velocity": 0.2677165354330709,
          "duration": 0.06976744186047057
        },
        {
          "name": "G3",
          "midi": 55,
          "time": 23.732558139534827,
          "velocity": 0.4330708661417323,
          "duration": 0.034883720930235285
        },
        {
          "name": "C#7",
          "midi": 97,
          "time": 23.732558139534827,
          "velocity": 0.1889763779527559,
          "duration": 0.04651162790698038
        },
        {
          "name": "D7",
          "midi": 98,
          "time": 23.732558139534827,
          "velocity": 0.1889763779527559,
          "duration": 0.04651162790698038
        },
        {
          "name": "D#7",
          "midi": 99,
          "time": 23.732558139534827,
          "velocity": 0.2204724409448819,
          "duration": 0.04651162790698038
        },
        {
          "name": "E7",
          "midi": 100,
          "time": 23.755813953488317,
          "velocity": 0.16535433070866143,
          "duration": 0.034883720930235285
        },
        {
          "name": "G2",
          "midi": 43,
          "time": 23.767441860465063,
          "velocity": 0.2677165354330709,
          "duration": 0.02325581395349019
        },
        {
          "name": "D4",
          "midi": 62,
          "time": 23.767441860465063,
          "velocity": 0.2204724409448819,
          "duration": 0.04651162790698038
        },
        {
          "name": "C#5",
          "midi": 73,
          "time": 23.767441860465063,
          "velocity": 0.13385826771653545,
          "duration": 0.034883720930235285
        },
        {
          "name": "D#6",
          "midi": 87,
          "time": 23.767441860465063,
          "velocity": 0.13385826771653545,
          "duration": 0.2325581395348948
        },
        {
          "name": "G3",
          "midi": 55,
          "time": 23.779069767441808,
          "velocity": 0.49606299212598426,
          "duration": 0.034883720930235285
        },
        {
          "name": "B4",
          "midi": 71,
          "time": 23.779069767441808,
          "velocity": 0.13385826771653545,
          "duration": 0.13953488372094114
        },
        {
          "name": "D#5",
          "midi": 75,
          "time": 23.802325581395298,
          "velocity": 0.18110236220472442,
          "duration": 0.058139534883725474
        },
        {
          "name": "A6",
          "midi": 93,
          "time": 23.802325581395298,
          "velocity": 0.1968503937007874,
          "duration": 0.10465116279070585
        },
        {
          "name": "D#4",
          "midi": 63,
          "time": 23.813953488372043,
          "velocity": 0.28346456692913385,
          "duration": 0.13953488372093759
        },
        {
          "name": "G4",
          "midi": 67,
          "time": 23.825581395348788,
          "velocity": 0.47244094488188976,
          "duration": 0.10465116279070585
        },
        {
          "name": "F5",
          "midi": 77,
          "time": 23.825581395348788,
          "velocity": 0.12598425196850394,
          "duration": 0.058139534883725474
        },
        {
          "name": "E7",
          "midi": 100,
          "time": 23.825581395348788,
          "velocity": 0.14960629921259844,
          "duration": 0.058139534883725474
        },
        {
          "name": "B6",
          "midi": 95,
          "time": 23.837209302325533,
          "velocity": 0.10236220472440945,
          "duration": 0.034883720930235285
        },
        {
          "name": "D#7",
          "midi": 99,
          "time": 23.837209302325533,
          "velocity": 0.2283464566929134,
          "duration": 0.034883720930235285
        },
        {
          "name": "D5",
          "midi": 74,
          "time": 23.84883720930228,
          "velocity": 0.30708661417322836,
          "duration": 0.058139534883725474
        },
        {
          "name": "G3",
          "midi": 55,
          "time": 23.860465116279023,
          "velocity": 0.47244094488188976,
          "duration": 0.04651162790698038
        },
        {
          "name": "F7",
          "midi": 101,
          "time": 23.860465116279023,
          "velocity": 0.14960629921259844,
          "duration": 0.034883720930235285
        },
        {
          "name": "G2",
          "midi": 43,
          "time": 23.87209302325577,
          "velocity": 0.28346456692913385,
          "duration": 0.02325581395349019
        },
        {
          "name": "G6",
          "midi": 91,
          "time": 23.883720930232514,
          "velocity": 0.11811023622047244,
          "duration": 0.034883720930235285
        },
        {
          "name": "F3",
          "midi": 53,
          "time": 23.91860465116275,
          "velocity": 0.4251968503937008,
          "duration": 0.03488372093023173
        },
        {
          "name": "G#4",
          "midi": 68,
          "time": 23.91860465116275,
          "velocity": 0.2204724409448819,
          "duration": 0.03488372093023173
        },
        {
          "name": "F#3",
          "midi": 54,
          "time": 23.965116279069726,
          "velocity": 0.3937007874015748,
          "duration": 0.03488372093023173
        },
        {
          "name": "D#4",
          "midi": 63,
          "time": 23.965116279069726,
          "velocity": 0.25984251968503935,
          "duration": 0.10465116279069875
        },
        {
          "name": "G#4",
          "midi": 68,
          "time": 23.965116279069726,
          "velocity": 0.3543307086614173,
          "duration": 0.023255813953486637
        },
        {
          "name": "D5",
          "midi": 74,
          "time": 23.965116279069726,
          "velocity": 0.4409448818897638,
          "duration": 0.3023255813953618
        },
        {
          "name": "G4",
          "midi": 67,
          "time": 23.988372093023212,
          "velocity": 0.4409448818897638,
          "duration": 0.15116279069767913
        },
        {
          "name": "A6",
          "midi": 93,
          "time": 23.988372093023212,
          "velocity": 0.23622047244094488,
          "duration": 0.0930232558139572
        },
        {
          "name": "G3",
          "midi": 55,
          "time": 23.999999999999957,
          "velocity": 0.5275590551181102,
          "duration": 0.255813953488385
        },
        {
          "name": "B5",
          "midi": 83,
          "time": 23.999999999999957,
          "velocity": 0.1732283464566929,
          "duration": 0.06976744186046702
        },
        {
          "name": "B6",
          "midi": 95,
          "time": 24.011627906976702,
          "velocity": 0.28346456692913385,
          "duration": 0.06976744186046702
        },
        {
          "name": "C#7",
          "midi": 97,
          "time": 24.023255813953448,
          "velocity": 0.15748031496062992,
          "duration": 0.04651162790697683
        },
        {
          "name": "G2",
          "midi": 43,
          "time": 24.05813953488368,
          "velocity": 0.29133858267716534,
          "duration": 0.02325581395349019
        },
        {
          "name": "D#4",
          "midi": 63,
          "time": 24.104651162790656,
          "velocity": 0.2755905511811024,
          "duration": 0.33720930232560065
        },
        {
          "name": "B4",
          "midi": 71,
          "time": 24.1162790697674,
          "velocity": 0.2440944881889764,
          "duration": 0.04651162790698038
        },
        {
          "name": "G#4",
          "midi": 68,
          "time": 24.127906976744146,
          "velocity": 0.25984251968503935,
          "duration": 0.02325581395349019
        },
        {
          "name": "B5",
          "midi": 83,
          "time": 24.13953488372089,
          "velocity": 0.31496062992125984,
          "duration": 0.12790697674419604
        },
        {
          "name": "F6",
          "midi": 89,
          "time": 24.13953488372089,
          "velocity": 0.33858267716535434,
          "duration": 0.13953488372094114
        },
        {
          "name": "F#7",
          "midi": 102,
          "time": 24.151162790697636,
          "velocity": 0.14173228346456693,
          "duration": 0.12790697674419604
        },
        {
          "name": "C#1",
          "midi": 25,
          "time": 24.174418604651127,
          "velocity": 0.7244094488188977,
          "duration": 0.011627906976745095
        },
        {
          "name": "D1",
          "midi": 26,
          "time": 24.186046511627872,
          "velocity": 0.6771653543307087,
          "duration": 0.011627906976745095
        },
        {
          "name": "B0",
          "midi": 23,
          "time": 24.197674418604617,
          "velocity": 0.5905511811023622,
          "duration": 0.011627906976745095
        },
        {
          "name": "F0",
          "midi": 17,
          "time": 24.209302325581362,
          "velocity": 0.5039370078740157,
          "duration": 0.02325581395349019
        },
        {
          "name": "D#6",
          "midi": 87,
          "time": 24.209302325581362,
          "velocity": 0.2047244094488189,
          "duration": 0.10465116279070585
        },
        {
          "name": "A6",
          "midi": 93,
          "time": 24.220930232558107,
          "velocity": 0.11811023622047244,
          "duration": 0.058139534883725474
        },
        {
          "name": "G#5",
          "midi": 80,
          "time": 24.232558139534852,
          "velocity": 0.29133858267716534,
          "duration": 0.02325581395349019
        },
        {
          "name": "G5",
          "midi": 79,
          "time": 24.244186046511597,
          "velocity": 0.4645669291338583,
          "duration": 0.2674418604651301
        },
        {
          "name": "C#6",
          "midi": 85,
          "time": 24.244186046511597,
          "velocity": 0.18110236220472442,
          "duration": 0.034883720930235285
        },
        {
          "name": "F3",
          "midi": 53,
          "time": 24.267441860465087,
          "velocity": 0.25984251968503935,
          "duration": 0.02325581395349019
        },
        {
          "name": "G#5",
          "midi": 80,
          "time": 24.267441860465087,
          "velocity": 0.11811023622047244,
          "duration": 0.04651162790698038
        },
        {
          "name": "A#5",
          "midi": 82,
          "time": 24.267441860465087,
          "velocity": 0.13385826771653545,
          "duration": 0.034883720930235285
        },
        {
          "name": "G3",
          "midi": 55,
          "time": 24.290697674418578,
          "velocity": 0.4251968503937008,
          "duration": 0.12790697674418894
        },
        {
          "name": "G#4",
          "midi": 68,
          "time": 24.290697674418578,
          "velocity": 0.3464566929133858,
          "duration": 0.02325581395349019
        },
        {
          "name": "D5",
          "midi": 74,
          "time": 24.290697674418578,
          "velocity": 0.5433070866141733,
          "duration": 0.09302325581395365
        },
        {
          "name": "F#6",
          "midi": 90,
          "time": 24.290697674418578,
          "velocity": 0.07874015748031496,
          "duration": 0.034883720930235285
        },
        {
          "name": "B5",
          "midi": 83,
          "time": 24.302325581395323,
          "velocity": 0.2440944881889764,
          "duration": 0.08139534883720856
        },
        {
          "name": "F6",
          "midi": 89,
          "time": 24.302325581395323,
          "velocity": 0.14960629921259844,
          "duration": 0.05813953488372192
        },
        {
          "name": "A6",
          "midi": 93,
          "time": 24.302325581395323,
          "velocity": 0.4015748031496063,
          "duration": 0.1976744186046595
        },
        {
          "name": "G#6",
          "midi": 92,
          "time": 24.313953488372068,
          "velocity": 0.11811023622047244,
          "duration": 0.03488372093023173
        },
        {
          "name": "C7",
          "midi": 96,
          "time": 24.325581395348813,
          "velocity": 0.10236220472440945,
          "duration": 0.03488372093023173
        },
        {
          "name": "G#4",
          "midi": 68,
          "time": 24.38372093023253,
          "velocity": 0.15748031496062992,
          "duration": 0.034883720930235285
        },
        {
          "name": "D5",
          "midi": 74,
          "time": 24.395348837209276,
          "velocity": 0.5275590551181102,
          "duration": 0.4767441860465347
        },
        {
          "name": "B5",
          "midi": 83,
          "time": 24.395348837209276,
          "velocity": 0.30708661417322836,
          "duration": 0.10465116279070585
        },
        {
          "name": "D#7",
          "midi": 99,
          "time": 24.395348837209276,
          "velocity": 0.14173228346456693,
          "duration": 0.058139534883725474
        },
        {
          "name": "E6",
          "midi": 88,
          "time": 24.40697674418602,
          "velocity": 0.14960629921259844,
          "duration": 0.034883720930235285
        },
        {
          "name": "C7",
          "midi": 96,
          "time": 24.418604651162767,
          "velocity": 0.13385826771653545,
          "duration": 0.034883720930235285
        },
        {
          "name": "G3",
          "midi": 55,
          "time": 24.43023255813951,
          "velocity": 0.44881889763779526,
          "duration": 0.08139534883721566
        },
        {
          "name": "G#4",
          "midi": 68,
          "time": 24.43023255813951,
          "velocity": 0.18110236220472442,
          "duration": 0.034883720930235285
        },
        {
          "name": "B4",
          "midi": 71,
          "time": 24.441860465116257,
          "velocity": 0.14173228346456693,
          "duration": 0.034883720930235285
        },
        {
          "name": "F6",
          "midi": 89,
          "time": 24.441860465116257,
          "velocity": 0.13385826771653545,
          "duration": 0.034883720930235285
        },
        {
          "name": "F7",
          "midi": 101,
          "time": 24.441860465116257,
          "velocity": 0.1732283464566929,
          "duration": 0.06976744186047057
        },
        {
          "name": "F#7",
          "midi": 102,
          "time": 24.441860465116257,
          "velocity": 0.07086614173228346,
          "duration": 0.04651162790698038
        },
        {
          "name": "C#7",
          "midi": 97,
          "time": 24.453488372093002,
          "velocity": 0.11811023622047244,
          "duration": 0.04651162790698038
        },
        {
          "name": "E7",
          "midi": 100,
          "time": 24.453488372093002,
          "velocity": 0.23622047244094488,
          "duration": 0.04651162790698038
        },
        {
          "name": "D4",
          "midi": 62,
          "time": 24.465116279069747,
          "velocity": 0.25984251968503935,
          "duration": 0.10465116279070585
        },
        {
          "name": "A#4",
          "midi": 70,
          "time": 24.476744186046492,
          "velocity": 0.1968503937007874,
          "duration": 0.16279069767443133
        },
        {
          "name": "G4",
          "midi": 67,
          "time": 24.523255813953472,
          "velocity": 0.12598425196850394,
          "duration": 0.04651162790698038
        },
        {
          "name": "A5",
          "midi": 81,
          "time": 24.523255813953472,
          "velocity": 0.14173228346456693,
          "duration": 0.08139534883721566
        },
        {
          "name": "G#3",
          "midi": 56,
          "time": 24.534883720930218,
          "velocity": 0.12598425196850394,
          "duration": 0.034883720930235285
        },
        {
          "name": "F7",
          "midi": 101,
          "time": 24.546511627906963,
          "velocity": 0.18110236220472442,
          "duration": 0.06976744186047057
        },
        {
          "name": "G5",
          "midi": 79,
          "time": 24.558139534883708,
          "velocity": 0.4645669291338583,
          "duration": 0.41860465116280565
        },
        {
          "name": "D#7",
          "midi": 99,
          "time": 24.569767441860453,
          "velocity": 0.2992125984251969,
          "duration": 0.1162790697674474
        },
        {
          "name": "G3",
          "midi": 55,
          "time": 24.581395348837198,
          "velocity": 0.49606299212598426,
          "duration": 0.2325581395348877
        },
        {
          "name": "D4",
          "midi": 62,
          "time": 24.581395348837198,
          "velocity": 0.2440944881889764,
          "duration": 0.2325581395348877
        },
        {
          "name": "D7",
          "midi": 98,
          "time": 24.581395348837198,
          "velocity": 0.29133858267716534,
          "duration": 0.2209302325581426
        },
        {
          "name": "F#7",
          "midi": 102,
          "time": 24.581395348837198,
          "velocity": 0.12598425196850394,
          "duration": 0.058139534883725474
        },
        {
          "name": "B5",
          "midi": 83,
          "time": 24.593023255813943,
          "velocity": 0.25984251968503935,
          "duration": 0.2093023255813975
        },
        {
          "name": "B6",
          "midi": 95,
          "time": 24.593023255813943,
          "velocity": 0.4015748031496063,
          "duration": 0.12790697674418894
        },
        {
          "name": "C7",
          "midi": 96,
          "time": 24.593023255813943,
          "velocity": 0.23622047244094488,
          "duration": 0.04651162790698038
        },
        {
          "name": "E7",
          "midi": 100,
          "time": 24.593023255813943,
          "velocity": 0.2047244094488189,
          "duration": 0.034883720930235285
        },
        {
          "name": "A6",
          "midi": 93,
          "time": 24.604651162790688,
          "velocity": 0.4409448818897638,
          "duration": 0.2093023255813975
        },
        {
          "name": "F7",
          "midi": 101,
          "time": 24.62790697674418,
          "velocity": 0.09448818897637795,
          "duration": 0.06976744186046702
        },
        {
          "name": "F6",
          "midi": 89,
          "time": 24.639534883720923,
          "velocity": 0.1732283464566929,
          "duration": 0.11627906976744029
        },
        {
          "name": "C#7",
          "midi": 97,
          "time": 24.639534883720923,
          "velocity": 0.29133858267716534,
          "duration": 0.08139534883720856
        },
        {
          "name": "A#4",
          "midi": 70,
          "time": 24.674418604651155,
          "velocity": 0.15748031496062992,
          "duration": 0.06976744186046346
        },
        {
          "name": "A5",
          "midi": 81,
          "time": 24.74418604651162,
          "velocity": 0.12598425196850394,
          "duration": 0.08139534883721211
        },
        {
          "name": "A#4",
          "midi": 70,
          "time": 24.76744186046511,
          "velocity": 0.15748031496062992,
          "duration": 0.03488372093023173
        },
        {
          "name": "C#7",
          "midi": 97,
          "time": 24.76744186046511,
          "velocity": 0.15748031496062992,
          "duration": 0.05813953488372192
        },
        {
          "name": "D#7",
          "midi": 99,
          "time": 24.76744186046511,
          "velocity": 0.18110236220472442,
          "duration": 0.08139534883721211
        },
        {
          "name": "F7",
          "midi": 101,
          "time": 24.779069767441854,
          "velocity": 0.10236220472440945,
          "duration": 0.03488372093023173
        },
        {
          "name": "F5",
          "midi": 77,
          "time": 24.80232558139534,
          "velocity": 0.18110236220472442,
          "duration": 0.04651162790698038
        },
        {
          "name": "F4",
          "midi": 65,
          "time": 24.813953488372086,
          "velocity": 0.33070866141732286,
          "duration": 0.034883720930235285
        },
        {
          "name": "C5",
          "midi": 72,
          "time": 24.813953488372086,
          "velocity": 0.3464566929133858,
          "duration": 0.04651162790698038
        },
        {
          "name": "F3",
          "midi": 53,
          "time": 24.82558139534883,
          "velocity": 0.4015748031496063,
          "duration": 0.02325581395349019
        },
        {
          "name": "G4",
          "midi": 67,
          "time": 24.837209302325576,
          "velocity": 0.1732283464566929,
          "duration": 0.034883720930235285
        },
        {
          "name": "E3",
          "midi": 52,
          "time": 24.84883720930232,
          "velocity": 0.3543307086614173,
          "duration": 0.02325581395349019
        },
        {
          "name": "B4",
          "midi": 71,
          "time": 24.84883720930232,
          "velocity": 0.2283464566929134,
          "duration": 0.02325581395349019
        },
        {
          "name": "D#3",
          "midi": 51,
          "time": 24.87209302325581,
          "velocity": 0.4251968503937008,
          "duration": 0.24418604651163633
        },
        {
          "name": "A#4",
          "midi": 70,
          "time": 24.87209302325581,
          "velocity": 0.3779527559055118,
          "duration": 0.20930232558140105
        },
        {
          "name": "D#5",
          "midi": 75,
          "time": 24.87209302325581,
          "velocity": 0.3700787401574803,
          "duration": 0.16279069767442422
        },
        {
          "name": "G#6",
          "midi": 92,
          "time": 24.87209302325581,
          "velocity": 0.14960629921259844,
          "duration": 0.06976744186047057
        },
        {
          "name": "B5",
          "midi": 83,
          "time": 24.883720930232556,
          "velocity": 0.1889763779527559,
          "duration": 0.058139534883725474
        },
        {
          "name": "A6",
          "midi": 93,
          "time": 24.883720930232556,
          "velocity": 0.11811023622047244,
          "duration": 0.04651162790698038
        },
        {
          "name": "G4",
          "midi": 67,
          "time": 24.8953488372093,
          "velocity": 0.1732283464566929,
          "duration": 0.0930232558139572
        },
        {
          "name": "E6",
          "midi": 88,
          "time": 24.8953488372093,
          "velocity": 0.10236220472440945,
          "duration": 0.034883720930235285
        },
        {
          "name": "F#7",
          "midi": 102,
          "time": 24.906976744186046,
          "velocity": 0.09448818897637795,
          "duration": 0.034883720930235285
        },
        {
          "name": "C#6",
          "midi": 85,
          "time": 24.91860465116279,
          "velocity": 0.23622047244094488,
          "duration": 0.11627906976744384
        },
        {
          "name": "F6",
          "midi": 89,
          "time": 24.930232558139537,
          "velocity": 0.16535433070866143,
          "duration": 0.04651162790697683
        },
        {
          "name": "G5",
          "midi": 79,
          "time": 24.98837209302326,
          "velocity": 0.2047244094488189,
          "duration": 0.11627906976744384
        },
        {
          "name": "D4",
          "midi": 62,
          "time": 25.02325581395349,
          "velocity": 0.3464566929133858,
          "duration": 0.04651162790697683
        },
        {
          "name": "G4",
          "midi": 67,
          "time": 25.034883720930235,
          "velocity": 0.2125984251968504,
          "duration": 0.08139534883721211
        },
        {
          "name": "B6",
          "midi": 95,
          "time": 25.093023255813957,
          "velocity": 0.11023622047244094,
          "duration": 0.034883720930235285
        },
        {
          "name": "A6",
          "midi": 93,
          "time": 25.104651162790702,
          "velocity": 0.1732283464566929,
          "duration": 0.10465116279070585
        },
        {
          "name": "A#1",
          "midi": 34,
          "time": 25.116279069767447,
          "velocity": 0.5826771653543307,
          "duration": 0.011627906976745095
        },
        {
          "name": "E4",
          "midi": 64,
          "time": 25.116279069767447,
          "velocity": 0.3464566929133858,
          "duration": 0.02325581395349019
        },
        {
          "name": "A4",
          "midi": 69,
          "time": 25.116279069767447,
          "velocity": 0.23622047244094488,
          "duration": 0.058139534883725474
        },
        {
          "name": "G1",
          "midi": 31,
          "time": 25.127906976744192,
          "velocity": 0.7401574803149606,
          "duration": 0.02325581395349019
        },
        {
          "name": "D#3",
          "midi": 51,
          "time": 25.127906976744192,
          "velocity": 0.41732283464566927,
          "duration": 0.09302325581396076
        },
        {
          "name": "F#5",
          "midi": 78,
          "time": 25.127906976744192,
          "velocity": 0.2755905511811024,
          "duration": 0.02325581395349019
        },
        {
          "name": "A5",
          "midi": 81,
          "time": 25.127906976744192,
          "velocity": 0.2677165354330709,
          "duration": 0.034883720930235285
        },
        {
          "name": "C6",
          "midi": 84,
          "time": 25.127906976744192,
          "velocity": 0.2992125984251969,
          "duration": 0.06976744186047057
        },
        {
          "name": "D4",
          "midi": 62,
          "time": 25.139534883720938,
          "velocity": 0.33858267716535434,
          "duration": 0.02325581395349019
        },
        {
          "name": "C#5",
          "midi": 73,
          "time": 25.139534883720938,
          "velocity": 0.3779527559055118,
          "duration": 0.034883720930235285
        },
        {
          "name": "E5",
          "midi": 76,
          "time": 25.139534883720938,
          "velocity": 0.25196850393700787,
          "duration": 0.034883720930235285
        },
        {
          "name": "G#1",
          "midi": 32,
          "time": 25.151162790697683,
          "velocity": 0.7637795275590551,
          "duration": 0.6046511627907201
        },
        {
          "name": "G5",
          "midi": 79,
          "time": 25.151162790697683,
          "velocity": 0.2755905511811024,
          "duration": 0.02325581395349019
        },
        {
          "name": "A#5",
          "midi": 82,
          "time": 25.151162790697683,
          "velocity": 0.23622047244094488,
          "duration": 0.058139534883725474
        },
        {
          "name": "E4",
          "midi": 64,
          "time": 25.162790697674428,
          "velocity": 0.29133858267716534,
          "duration": 0.02325581395349019
        },
        {
          "name": "D5",
          "midi": 74,
          "time": 25.162790697674428,
          "velocity": 0.3543307086614173,
          "duration": 0.034883720930235285
        },
        {
          "name": "G#5",
          "midi": 80,
          "time": 25.162790697674428,
          "velocity": 0.2440944881889764,
          "duration": 0.04651162790698038
        },
        {
          "name": "A3",
          "midi": 57,
          "time": 25.174418604651173,
          "velocity": 0.2283464566929134,
          "duration": 0.02325581395349019
        },
        {
          "name": "G#4",
          "midi": 68,
          "time": 25.174418604651173,
          "velocity": 0.1889763779527559,
          "duration": 0.034883720930235285
        },
        {
          "name": "A#4",
          "midi": 70,
          "time": 25.174418604651173,
          "velocity": 0.3779527559055118,
          "duration": 0.27906976744186807
        },
        {
          "name": "F5",
          "midi": 77,
          "time": 25.174418604651173,
          "velocity": 0.3779527559055118,
          "duration": 0.1162790697674474
        },
        {
          "name": "D#4",
          "midi": 63,
          "time": 25.186046511627918,
          "velocity": 0.4251968503937008,
          "duration": 0.034883720930235285
        },
        {
          "name": "G5",
          "midi": 79,
          "time": 25.197674418604663,
          "velocity": 0.10236220472440945,
          "duration": 0.034883720930235285
        },
        {
          "name": "B5",
          "midi": 83,
          "time": 25.197674418604663,
          "velocity": 0.25984251968503935,
          "duration": 0.02325581395349019
        },
        {
          "name": "C4",
          "midi": 60,
          "time": 25.220930232558153,
          "velocity": 0.2755905511811024,
          "duration": 0.034883720930235285
        },
        {
          "name": "F4",
          "midi": 65,
          "time": 25.220930232558153,
          "velocity": 0.28346456692913385,
          "duration": 0.02325581395349019
        },
        {
          "name": "D5",
          "midi": 74,
          "time": 25.2325581395349,
          "velocity": 0.30708661417322836,
          "duration": 0.09302325581395365
        },
        {
          "name": "D#3",
          "midi": 51,
          "time": 25.244186046511643,
          "velocity": 0.2755905511811024,
          "duration": 0.11627906976744384
        },
        {
          "name": "F#4",
          "midi": 66,
          "time": 25.244186046511643,
          "velocity": 0.30708661417322836,
          "duration": 0.02325581395349019
        },
        {
          "name": "C4",
          "midi": 60,
          "time": 25.267441860465134,
          "velocity": 0.23622047244094488,
          "duration": 0.046511627906973274
        },
        {
          "name": "F4",
          "midi": 65,
          "time": 25.267441860465134,
          "velocity": 0.4094488188976378,
          "duration": 0.06976744186046346
        },
        {
          "name": "G5",
          "midi": 79,
          "time": 25.325581395348852,
          "velocity": 0.23622047244094488,
          "duration": 0.058139534883725474
        },
        {
          "name": "G4",
          "midi": 67,
          "time": 25.337209302325597,
          "velocity": 0.2440944881889764,
          "duration": 0.034883720930235285
        },
        {
          "name": "D#5",
          "midi": 75,
          "time": 25.337209302325597,
          "velocity": 0.14173228346456693,
          "duration": 0.058139534883725474
        },
        {
          "name": "D#4",
          "midi": 63,
          "time": 25.348837209302342,
          "velocity": 0.41732283464566927,
          "duration": 0.034883720930235285
        },
        {
          "name": "F5",
          "midi": 77,
          "time": 25.348837209302342,
          "velocity": 0.3700787401574803,
          "duration": 0.17441860465116932
        },
        {
          "name": "G#3",
          "midi": 56,
          "time": 25.360465116279087,
          "velocity": 0.3858267716535433,
          "duration": 0.034883720930235285
        },
        {
          "name": "D4",
          "midi": 62,
          "time": 25.383720930232577,
          "velocity": 0.4251968503937008,
          "duration": 0.03488372093023173
        },
        {
          "name": "D#3",
          "midi": 51,
          "time": 25.395348837209323,
          "velocity": 0.31496062992125984,
          "duration": 0.15116279069767558
        },
        {
          "name": "F#4",
          "midi": 66,
          "time": 25.395348837209323,
          "velocity": 0.2047244094488189,
          "duration": 0.09302325581395365
        },
        {
          "name": "B4",
          "midi": 71,
          "time": 25.441860465116296,
          "velocity": 0.2677165354330709,
          "duration": 0.04651162790698038
        },
        {
          "name": "D#5",
          "midi": 75,
          "time": 25.441860465116296,
          "velocity": 0.2125984251968504,
          "duration": 0.034883720930235285
        },
        {
          "name": "C6",
          "midi": 84,
          "time": 25.465116279069786,
          "velocity": 0.2047244094488189,
          "duration": 0.04651162790698038
        },
        {
          "name": "D6",
          "midi": 86,
          "time": 25.465116279069786,
          "velocity": 0.15748031496062992,
          "duration": 0.04651162790698038
        },
        {
          "name": "D#6",
          "midi": 87,
          "time": 25.47674418604653,
          "velocity": 0.2755905511811024,
          "duration": 0.08139534883721211
        },
        {
          "name": "E6",
          "midi": 88,
          "time": 25.47674418604653,
          "velocity": 0.25984251968503935,
          "duration": 0.04651162790698038
        },
        {
          "name": "G4",
          "midi": 67,
          "time": 25.488372093023276,
          "velocity": 0.2125984251968504,
          "duration": 0.034883720930235285
        },
        {
          "name": "D7",
          "midi": 98,
          "time": 25.488372093023276,
          "velocity": 0.16535433070866143,
          "duration": 0.034883720930235285
        },
        {
          "name": "A#4",
          "midi": 70,
          "time": 25.50000000000002,
          "velocity": 0.2047244094488189,
          "duration": 0.08139534883720856
        },
        {
          "name": "F#5",
          "midi": 78,
          "time": 25.50000000000002,
          "velocity": 0.29133858267716534,
          "duration": 0.02325581395349019
        },
        {
          "name": "C#7",
          "midi": 97,
          "time": 25.50000000000002,
          "velocity": 0.13385826771653545,
          "duration": 0.05813953488372192
        },
        {
          "name": "D#5",
          "midi": 75,
          "time": 25.511627906976766,
          "velocity": 0.5275590551181102,
          "duration": 0.04651162790697683
        },
        {
          "name": "G#5",
          "midi": 80,
          "time": 25.511627906976766,
          "velocity": 0.31496062992125984,
          "duration": 0.04651162790697683
        },
        {
          "name": "G#3",
          "midi": 56,
          "time": 25.52325581395351,
          "velocity": 0.3937007874015748,
          "duration": 0.06976744186046346
        },
        {
          "name": "C6",
          "midi": 84,
          "time": 25.52325581395351,
          "velocity": 0.1968503937007874,
          "duration": 0.03488372093023173
        },
        {
          "name": "G4",
          "midi": 67,
          "time": 25.558139534883743,
          "velocity": 0.33070866141732286,
          "duration": 0.04651162790697683
        },
        {
          "name": "D5",
          "midi": 74,
          "time": 25.558139534883743,
          "velocity": 0.41732283464566927,
          "duration": 0.03488372093023173
        },
        {
          "name": "F5",
          "midi": 77,
          "time": 25.558139534883743,
          "velocity": 0.2283464566929134,
          "duration": 0.023255813953486637
        },
        {
          "name": "D4",
          "midi": 62,
          "time": 25.58139534883723,
          "velocity": 0.31496062992125984,
          "duration": 0.02325581395349019
        },
        {
          "name": "E5",
          "midi": 76,
          "time": 25.58139534883723,
          "velocity": 0.25984251968503935,
          "duration": 0.02325581395349019
        },
        {
          "name": "A#5",
          "midi": 82,
          "time": 25.58139534883723,
          "velocity": 0.23622047244094488,
          "duration": 0.10465116279070585
        },
        {
          "name": "A3",
          "midi": 57,
          "time": 25.593023255813975,
          "velocity": 0.36220472440944884,
          "duration": 0.02325581395349019
        },
        {
          "name": "A#4",
          "midi": 70,
          "time": 25.593023255813975,
          "velocity": 0.15748031496062992,
          "duration": 0.04651162790698038
        },
        {
          "name": "D#5",
          "midi": 75,
          "time": 25.593023255813975,
          "velocity": 0.47244094488188976,
          "duration": 0.08139534883721566
        },
        {
          "name": "G#5",
          "midi": 80,
          "time": 25.593023255813975,
          "velocity": 0.16535433070866143,
          "duration": 0.034883720930235285
        },
        {
          "name": "D#4",
          "midi": 63,
          "time": 25.60465116279072,
          "velocity": 0.2440944881889764,
          "duration": 0.02325581395349019
        },
        {
          "name": "G#3",
          "midi": 56,
          "time": 25.616279069767465,
          "velocity": 0.44881889763779526,
          "duration": 0.06976744186047057
        },
        {
          "name": "G5",
          "midi": 79,
          "time": 25.616279069767465,
          "velocity": 0.10236220472440945,
          "duration": 0.034883720930235285
        },
        {
          "name": "A5",
          "midi": 81,
          "time": 25.616279069767465,
          "velocity": 0.1968503937007874,
          "duration": 0.034883720930235285
        },
        {
          "name": "D#4",
          "midi": 63,
          "time": 25.639534883720955,
          "velocity": 0.31496062992125984,
          "duration": 0.1162790697674474
        },
        {
          "name": "G#6",
          "midi": 92,
          "time": 25.639534883720955,
          "velocity": 0.25984251968503935,
          "duration": 0.02325581395349019
        },
        {
          "name": "D#7",
          "midi": 99,
          "time": 25.639534883720955,
          "velocity": 0.12598425196850394,
          "duration": 0.034883720930235285
        },
        {
          "name": "G6",
          "midi": 91,
          "time": 25.6511627906977,
          "velocity": 0.30708661417322836,
          "duration": 0.08139534883721566
        },
        {
          "name": "G5",
          "midi": 79,
          "time": 25.662790697674446,
          "velocity": 0.3858267716535433,
          "duration": 0.06976744186047057
        },
        {
          "name": "B5",
          "midi": 83,
          "time": 25.662790697674446,
          "velocity": 0.2047244094488189,
          "duration": 0.04651162790698038
        },
        {
          "name": "F6",
          "midi": 89,
          "time": 25.662790697674446,
          "velocity": 0.12598425196850394,
          "duration": 0.034883720930235285
        },
        {
          "name": "A6",
          "midi": 93,
          "time": 25.662790697674446,
          "velocity": 0.16535433070866143,
          "duration": 0.058139534883725474
        },
        {
          "name": "G4",
          "midi": 67,
          "time": 25.67441860465119,
          "velocity": 0.3937007874015748,
          "duration": 0.08139534883721211
        },
        {
          "name": "D5",
          "midi": 74,
          "time": 25.67441860465119,
          "velocity": 0.47244094488188976,
          "duration": 0.04651162790698038
        },
        {
          "name": "G3",
          "midi": 55,
          "time": 25.686046511627936,
          "velocity": 0.4645669291338583,
          "duration": 0.06976744186046702
        },
        {
          "name": "C4",
          "midi": 60,
          "time": 25.709302325581426,
          "velocity": 0.2283464566929134,
          "duration": 0.02325581395349019
        },
        {
          "name": "D#5",
          "midi": 75,
          "time": 25.709302325581426,
          "velocity": 0.31496062992125984,
          "duration": 0.10465116279069875
        },
        {
          "name": "F5",
          "midi": 77,
          "time": 25.709302325581426,
          "velocity": 0.14173228346456693,
          "duration": 0.05813953488372192
        },
        {
          "name": "A#5",
          "midi": 82,
          "time": 25.709302325581426,
          "velocity": 0.16535433070866143,
          "duration": 0.11627906976744384
        },
        {
          "name": "G1",
          "midi": 31,
          "time": 25.755813953488403,
          "velocity": 0.6692913385826772,
          "duration": 0.011627906976745095
        },
        {
          "name": "F#3",
          "midi": 54,
          "time": 25.755813953488403,
          "velocity": 0.30708661417322836,
          "duration": 0.03488372093023173
        },
        {
          "name": "A#4",
          "midi": 70,
          "time": 25.755813953488403,
          "velocity": 0.1889763779527559,
          "duration": 0.03488372093023173
        },
        {
          "name": "D#1",
          "midi": 27,
          "time": 25.790697674418634,
          "velocity": 0.6062992125984252,
          "duration": 0.011627906976745095
        },
        {
          "name": "E4",
          "midi": 64,
          "time": 25.790697674418634,
          "velocity": 0.18110236220472442,
          "duration": 0.034883720930235285
        },
        {
          "name": "C6",
          "midi": 84,
          "time": 25.790697674418634,
          "velocity": 0.2204724409448819,
          "duration": 0.04651162790698038
        },
        {
          "name": "G1",
          "midi": 31,
          "time": 25.80232558139538,
          "velocity": 0.7716535433070866,
          "duration": 0.6279069767441996
        },
        {
          "name": "G3",
          "midi": 55,
          "time": 25.80232558139538,
          "velocity": 0.4330708661417323,
          "duration": 0.034883720930235285
        },
        {
          "name": "F5",
          "midi": 77,
          "time": 25.80232558139538,
          "velocity": 0.2755905511811024,
          "duration": 0.13953488372093403
        },
        {
          "name": "D5",
          "midi": 74,
          "time": 25.813953488372125,
          "velocity": 0.41732283464566927,
          "duration": 0.29069767441860606
        },
        {
          "name": "G5",
          "midi": 79,
          "time": 25.813953488372125,
          "velocity": 0.4330708661417323,
          "duration": 0.3604651162790766
        },
        {
          "name": "B5",
          "midi": 83,
          "time": 25.813953488372125,
          "velocity": 0.33858267716535434,
          "duration": 0.26744186046511587
        },
        {
          "name": "D6",
          "midi": 86,
          "time": 25.813953488372125,
          "velocity": 0.4881889763779528,
          "duration": 0.3604651162790766
        },
        {
          "name": "D#4",
          "midi": 63,
          "time": 25.82558139534887,
          "velocity": 0.1968503937007874,
          "duration": 0.04651162790697683
        },
        {
          "name": "G3",
          "midi": 55,
          "time": 25.84883720930236,
          "velocity": 0.47244094488188976,
          "duration": 0.06976744186046346
        },
        {
          "name": "D4",
          "midi": 62,
          "time": 25.918604651162823,
          "velocity": 0.11023622047244094,
          "duration": 0.034883720930235285
        },
        {
          "name": "G3",
          "midi": 55,
          "time": 25.93023255813957,
          "velocity": 0.4251968503937008,
          "duration": 0.08139534883720856
        },
        {
          "name": "F4",
          "midi": 65,
          "time": 25.941860465116314,
          "velocity": 0.12598425196850394,
          "duration": 0.04651162790697683
        },
        {
          "name": "F5",
          "midi": 77,
          "time": 25.95348837209306,
          "velocity": 0.28346456692913385,
          "duration": 0.5232558139535008
        },
        {
          "name": "G4",
          "midi": 67,
          "time": 26.011627906976777,
          "velocity": 0.25196850393700787,
          "duration": 0.03488372093023173
        },
        {
          "name": "C#6",
          "midi": 85,
          "time": 26.034883720930264,
          "velocity": 0.1889763779527559,
          "duration": 0.03488372093023173
        },
        {
          "name": "D#6",
          "midi": 87,
          "time": 26.034883720930264,
          "velocity": 0.2047244094488189,
          "duration": 0.03488372093023173
        },
        {
          "name": "G3",
          "midi": 55,
          "time": 26.04651162790701,
          "velocity": 0.47244094488188976,
          "duration": 0.06976744186046702
        },
        {
          "name": "G#4",
          "midi": 68,
          "time": 26.04651162790701,
          "velocity": 0.25196850393700787,
          "duration": 0.023255813953486637
        },
        {
          "name": "A4",
          "midi": 69,
          "time": 26.069767441860495,
          "velocity": 0.1732283464566929,
          "duration": 0.034883720930235285
        },
        {
          "name": "D#5",
          "midi": 75,
          "time": 26.08139534883724,
          "velocity": 0.2755905511811024,
          "duration": 0.034883720930235285
        },
        {
          "name": "A#5",
          "midi": 82,
          "time": 26.093023255813986,
          "velocity": 0.1732283464566929,
          "duration": 0.058139534883725474
        },
        {
          "name": "D5",
          "midi": 74,
          "time": 26.116279069767476,
          "velocity": 0.41732283464566927,
          "duration": 0.058139534883725474
        },
        {
          "name": "G4",
          "midi": 67,
          "time": 26.12790697674422,
          "velocity": 0.28346456692913385,
          "duration": 0.04651162790698038
        },
        {
          "name": "B5",
          "midi": 83,
          "time": 26.12790697674422,
          "velocity": 0.28346456692913385,
          "duration": 0.04651162790698038
        },
        {
          "name": "C#6",
          "midi": 85,
          "time": 26.12790697674422,
          "velocity": 0.2440944881889764,
          "duration": 0.02325581395349019
        },
        {
          "name": "G3",
          "midi": 55,
          "time": 26.139534883720966,
          "velocity": 0.3937007874015748,
          "duration": 0.02325581395349019
        },
        {
          "name": "C6",
          "midi": 84,
          "time": 26.139534883720966,
          "velocity": 0.3858267716535433,
          "duration": 0.1976744186046595
        },
        {
          "name": "F4",
          "midi": 65,
          "time": 26.1744186046512,
          "velocity": 0.15748031496062992,
          "duration": 0.06976744186046702
        },
        {
          "name": "G#4",
          "midi": 68,
          "time": 26.1744186046512,
          "velocity": 0.30708661417322836,
          "duration": 0.06976744186046702
        },
        {
          "name": "D#5",
          "midi": 75,
          "time": 26.1744186046512,
          "velocity": 0.4251968503937008,
          "duration": 0.22093023255814614
        },
        {
          "name": "G#5",
          "midi": 80,
          "time": 26.1744186046512,
          "velocity": 0.41732283464566927,
          "duration": 0.16279069767442422
        },
        {
          "name": "D#6",
          "midi": 87,
          "time": 26.1744186046512,
          "velocity": 0.4645669291338583,
          "duration": 0.16279069767442422
        },
        {
          "name": "D3",
          "midi": 50,
          "time": 26.186046511627946,
          "velocity": 0.2992125984251969,
          "duration": 0.09302325581395365
        },
        {
          "name": "G#3",
          "midi": 56,
          "time": 26.186046511627946,
          "velocity": 0.4015748031496063,
          "duration": 0.16279069767442422
        },
        {
          "name": "F#6",
          "midi": 90,
          "time": 26.186046511627946,
          "velocity": 0.1732283464566929,
          "duration": 0.13953488372093403
        },
        {
          "name": "A#5",
          "midi": 82,
          "time": 26.19767441860469,
          "velocity": 0.12598425196850394,
          "duration": 0.03488372093023173
        },
        {
          "name": "E7",
          "midi": 100,
          "time": 26.255813953488413,
          "velocity": 0.10236220472440945,
          "duration": 0.03488372093023173
        },
        {
          "name": "A#5",
          "midi": 82,
          "time": 26.2790697674419,
          "velocity": 0.15748031496062992,
          "duration": 0.04651162790698038
        },
        {
          "name": "D3",
          "midi": 50,
          "time": 26.290697674418645,
          "velocity": 0.28346456692913385,
          "duration": 0.058139534883725474
        },
        {
          "name": "D#4",
          "midi": 63,
          "time": 26.290697674418645,
          "velocity": 0.1732283464566929,
          "duration": 0.034883720930235285
        },
        {
          "name": "D6",
          "midi": 86,
          "time": 26.30232558139539,
          "velocity": 0.3543307086614173,
          "duration": 0.32558139534885555
        },
        {
          "name": "C#5",
          "midi": 73,
          "time": 26.313953488372135,
          "velocity": 0.07874015748031496,
          "duration": 0.034883720930235285
        },
        {
          "name": "B5",
          "midi": 83,
          "time": 26.313953488372135,
          "velocity": 0.28346456692913385,
          "duration": 0.2674418604651301
        },
        {
          "name": "G5",
          "midi": 79,
          "time": 26.32558139534888,
          "velocity": 0.44881889763779526,
          "duration": 0.6162790697674723
        },
        {
          "name": "A4",
          "midi": 69,
          "time": 26.337209302325626,
          "velocity": 0.1732283464566929,
          "duration": 0.04651162790697683
        },
        {
          "name": "G3",
          "midi": 55,
          "time": 26.34883720930237,
          "velocity": 0.4094488188976378,
          "duration": 0.023255813953486637
        },
        {
          "name": "D#4",
          "midi": 63,
          "time": 26.34883720930237,
          "velocity": 0.1889763779527559,
          "duration": 0.04651162790697683
        },
        {
          "name": "D3",
          "midi": 50,
          "time": 26.372093023255857,
          "velocity": 0.33858267716535434,
          "duration": 0.02325581395349019
        },
        {
          "name": "G3",
          "midi": 55,
          "time": 26.395348837209347,
          "velocity": 0.4645669291338583,
          "duration": 0.05813953488372192
        },
        {
          "name": "D5",
          "midi": 74,
          "time": 26.395348837209347,
          "velocity": 0.48031496062992124,
          "duration": 0.22093023255815325
        },
        {
          "name": "F6",
          "midi": 89,
          "time": 26.406976744186093,
          "velocity": 0.4015748031496063,
          "duration": 0.22093023255815325
        },
        {
          "name": "A6",
          "midi": 93,
          "time": 26.406976744186093,
          "velocity": 0.2992125984251969,
          "duration": 0.20930232558140816
        },
        {
          "name": "F#1",
          "midi": 30,
          "time": 26.43023255813958,
          "velocity": 0.6220472440944882,
          "duration": 0.011627906976745095
        },
        {
          "name": "D#4",
          "midi": 63,
          "time": 26.43023255813958,
          "velocity": 0.12598425196850394,
          "duration": 0.034883720930235285
        },
        {
          "name": "F#6",
          "midi": 90,
          "time": 26.441860465116324,
          "velocity": 0.09448818897637795,
          "duration": 0.034883720930235285
        },
        {
          "name": "A#4",
          "midi": 70,
          "time": 26.45348837209307,
          "velocity": 0.14960629921259844,
          "duration": 0.034883720930235285
        },
        {
          "name": "F#1",
          "midi": 30,
          "time": 26.465116279069814,
          "velocity": 0.5511811023622047,
          "duration": 0.011627906976745095
        },
        {
          "name": "G3",
          "midi": 55,
          "time": 26.465116279069814,
          "velocity": 0.4881889763779528,
          "duration": 0.04651162790698038
        },
        {
          "name": "D#1",
          "midi": 27,
          "time": 26.47674418604656,
          "velocity": 0.6692913385826772,
          "duration": 0.011627906976745095
        },
        {
          "name": "C#4",
          "midi": 61,
          "time": 26.47674418604656,
          "velocity": 0.16535433070866143,
          "duration": 0.034883720930235285
        },
        {
          "name": "C6",
          "midi": 84,
          "time": 26.47674418604656,
          "velocity": 0.11811023622047244,
          "duration": 0.034883720930235285
        },
        {
          "name": "D1",
          "midi": 26,
          "time": 26.488372093023305,
          "velocity": 0.7007874015748031,
          "duration": 0.011627906976745095
        },
        {
          "name": "C1",
          "midi": 24,
          "time": 26.50000000000005,
          "velocity": 0.7086614173228346,
          "duration": 0.011627906976745095
        },
        {
          "name": "B0",
          "midi": 23,
          "time": 26.511627906976795,
          "velocity": 0.7244094488188977,
          "duration": 0.011627906976745095
        },
        {
          "name": "G#3",
          "midi": 56,
          "time": 26.511627906976795,
          "velocity": 0.3779527559055118,
          "duration": 0.02325581395349019
        },
        {
          "name": "C1",
          "midi": 24,
          "time": 26.52325581395354,
          "velocity": 0.7480314960629921,
          "duration": 1.2441860465116719
        },
        {
          "name": "G3",
          "midi": 55,
          "time": 26.54651162790703,
          "velocity": 0.4409448818897638,
          "duration": 0.04651162790698038
        },
        {
          "name": "D4",
          "midi": 62,
          "time": 26.54651162790703,
          "velocity": 0.10236220472440945,
          "duration": 0.08139534883721566
        },
        {
          "name": "G2",
          "midi": 43,
          "time": 26.558139534883775,
          "velocity": 0.30708661417322836,
          "duration": 0.02325581395349019
        },
        {
          "name": "B4",
          "midi": 71,
          "time": 26.558139534883775,
          "velocity": 0.14173228346456693,
          "duration": 0.04651162790698038
        },
        {
          "name": "F#4",
          "midi": 66,
          "time": 26.56976744186052,
          "velocity": 0.2755905511811024,
          "duration": 0.034883720930235285
        },
        {
          "name": "F5",
          "midi": 77,
          "time": 26.56976744186052,
          "velocity": 0.1889763779527559,
          "duration": 0.08139534883721566
        },
        {
          "name": "F#3",
          "midi": 54,
          "time": 26.59302325581401,
          "velocity": 0.4251968503937008,
          "duration": 0.04651162790698038
        },
        {
          "name": "G2",
          "midi": 43,
          "time": 26.604651162790756,
          "velocity": 0.2992125984251969,
          "duration": 0.02325581395349019
        },
        {
          "name": "G#4",
          "midi": 68,
          "time": 26.604651162790756,
          "velocity": 0.30708661417322836,
          "duration": 0.034883720930235285
        },
        {
          "name": "C#5",
          "midi": 73,
          "time": 26.6162790697675,
          "velocity": 0.2677165354330709,
          "duration": 0.034883720930235285
        },
        {
          "name": "D#5",
          "midi": 75,
          "time": 26.6162790697675,
          "velocity": 0.2283464566929134,
          "duration": 0.08139534883721566
        },
        {
          "name": "B4",
          "midi": 71,
          "time": 26.627906976744246,
          "velocity": 0.14173228346456693,
          "duration": 0.058139534883725474
        },
        {
          "name": "D4",
          "midi": 62,
          "time": 26.63953488372099,
          "velocity": 0.14960629921259844,
          "duration": 0.04651162790698038
        },
        {
          "name": "G2",
          "midi": 43,
          "time": 26.651162790697736,
          "velocity": 0.29133858267716534,
          "duration": 0.02325581395349019
        },
        {
          "name": "G#3",
          "midi": 56,
          "time": 26.651162790697736,
          "velocity": 0.3858267716535433,
          "duration": 0.09302325581396076
        },
        {
          "name": "C6",
          "midi": 84,
          "time": 26.651162790697736,
          "velocity": 0.14960629921259844,
          "duration": 0.10465116279070585
        },
        {
          "name": "F#4",
          "midi": 66,
          "time": 26.66279069767448,
          "velocity": 0.2047244094488189,
          "duration": 0.034883720930235285
        },
        {
          "name": "G4",
          "midi": 67,
          "time": 26.68604651162797,
          "velocity": 0.25196850393700787,
          "duration": 0.02325581395349019
        },
        {
          "name": "F5",
          "midi": 77,
          "time": 26.68604651162797,
          "velocity": 0.1889763779527559,
          "duration": 0.16279069767442067
        },
        {
          "name": "D5",
          "midi": 74,
          "time": 26.697674418604716,
          "velocity": 0.25196850393700787,
          "duration": 0.04651162790698038
        },
        {
          "name": "G2",
          "midi": 43,
          "time": 26.70930232558146,
          "velocity": 0.2677165354330709,
          "duration": 0.02325581395349019
        },
        {
          "name": "D4",
          "midi": 62,
          "time": 26.70930232558146,
          "velocity": 0.3779527559055118,
          "duration": 0.034883720930235285
        },
        {
          "name": "D#6",
          "midi": 87,
          "time": 26.70930232558146,
          "velocity": 0.14960629921259844,
          "duration": 0.04651162790698038
        },
        {
          "name": "A#4",
          "midi": 70,
          "time": 26.720930232558207,
          "velocity": 0.3779527559055118,
          "duration": 0.18604651162791086
        },
        {
          "name": "D#3",
          "midi": 51,
          "time": 26.73255813953495,
          "velocity": 0.44881889763779526,
          "duration": 0.18604651162791086
        },
        {
          "name": "C#6",
          "midi": 85,
          "time": 26.755813953488442,
          "velocity": 0.2204724409448819,
          "duration": 0.0930232558139501
        },
        {
          "name": "G#3",
          "midi": 56,
          "time": 26.790697674418674,
          "velocity": 0.36220472440944884,
          "duration": 0.06976744186046346
        },
        {
          "name": "D6",
          "midi": 86,
          "time": 26.790697674418674,
          "velocity": 0.25984251968503935,
          "duration": 0.348837209302328
        },
        {
          "name": "G#2",
          "midi": 44,
          "time": 26.80232558139542,
          "velocity": 0.2992125984251969,
          "duration": 0.023255813953486637
        },
        {
          "name": "G4",
          "midi": 67,
          "time": 26.825581395348905,
          "velocity": 0.3464566929133858,
          "duration": 0.08139534883721211
        },
        {
          "name": "G2",
          "midi": 43,
          "time": 26.848837209302392,
          "velocity": 0.33858267716535434,
          "duration": 0.02325581395349019
        },
        {
          "name": "D5",
          "midi": 74,
          "time": 26.860465116279137,
          "velocity": 0.3228346456692913,
          "duration": 0.058139534883725474
        },
        {
          "name": "F6",
          "midi": 89,
          "time": 26.872093023255882,
          "velocity": 0.1732283464566929,
          "duration": 0.12790697674418894
        },
        {
          "name": "G#3",
          "midi": 56,
          "time": 26.883720930232627,
          "velocity": 0.33070866141732286,
          "duration": 0.02325581395349019
        },
        {
          "name": "E5",
          "midi": 76,
          "time": 26.883720930232627,
          "velocity": 0.25984251968503935,
          "duration": 0.02325581395349019
        },
        {
          "name": "F5",
          "midi": 77,
          "time": 26.895348837209372,
          "velocity": 0.2125984251968504,
          "duration": 0.034883720930235285
        },
        {
          "name": "G#5",
          "midi": 80,
          "time": 26.895348837209372,
          "velocity": 0.31496062992125984,
          "duration": 0.1976744186046524
        },
        {
          "name": "D#6",
          "midi": 87,
          "time": 26.895348837209372,
          "velocity": 0.31496062992125984,
          "duration": 0.1860465116279073
        },
        {
          "name": "G#4",
          "midi": 68,
          "time": 26.906976744186117,
          "velocity": 0.2204724409448819,
          "duration": 0.034883720930235285
        },
        {
          "name": "C6",
          "midi": 84,
          "time": 26.906976744186117,
          "velocity": 0.3464566929133858,
          "duration": 0.1744186046511622
        },
        {
          "name": "F#6",
          "midi": 90,
          "time": 26.906976744186117,
          "velocity": 0.14960629921259844,
          "duration": 0.1744186046511622
        },
        {
          "name": "E3",
          "midi": 52,
          "time": 26.918604651162862,
          "velocity": 0.3228346456692913,
          "duration": 0.02325581395349019
        },
        {
          "name": "D#5",
          "midi": 75,
          "time": 26.918604651162862,
          "velocity": 0.4251968503937008,
          "duration": 0.1744186046511622
        },
        {
          "name": "G#3",
          "midi": 56,
          "time": 26.930232558139608,
          "velocity": 0.3700787401574803,
          "duration": 0.04651162790697683
        },
        {
          "name": "D4",
          "midi": 62,
          "time": 26.941860465116353,
          "velocity": 0.11023622047244094,
          "duration": 0.1046511627906952
        },
        {
          "name": "F5",
          "midi": 77,
          "time": 26.976744186046584,
          "velocity": 0.11023622047244094,
          "duration": 0.15116279069767202
        },
        {
          "name": "G6",
          "midi": 91,
          "time": 26.976744186046584,
          "velocity": 0.12598425196850394,
          "duration": 0.03488372093023173
        },
        {
          "name": "D#3",
          "midi": 51,
          "time": 27.00000000000007,
          "velocity": 0.23622047244094488,
          "duration": 0.02325581395349019
        },
        {
          "name": "E3",
          "midi": 52,
          "time": 27.02325581395356,
          "velocity": 0.2204724409448819,
          "duration": 0.06976744186046346
        },
        {
          "name": "D4",
          "midi": 62,
          "time": 27.069767441860535,
          "velocity": 0.14173228346456693,
          "duration": 0.06976744186046702
        },
        {
          "name": "G#4",
          "midi": 68,
          "time": 27.08139534883728,
          "velocity": 0.2440944881889764,
          "duration": 0.02325581395349019
        },
        {
          "name": "D5",
          "midi": 74,
          "time": 27.08139534883728,
          "velocity": 0.3779527559055118,
          "duration": 0.12790697674418894
        },
        {
          "name": "G5",
          "midi": 79,
          "time": 27.08139534883728,
          "velocity": 0.3464566929133858,
          "duration": 0.1860465116279144
        },
        {
          "name": "B5",
          "midi": 83,
          "time": 27.08139534883728,
          "velocity": 0.23622047244094488,
          "duration": 0.08139534883721211
        },
        {
          "name": "F6",
          "midi": 89,
          "time": 27.08139534883728,
          "velocity": 0.16535433070866143,
          "duration": 0.08139534883721211
        },
        {
          "name": "D#6",
          "midi": 87,
          "time": 27.093023255814025,
          "velocity": 0.12598425196850394,
          "duration": 0.05813953488372192
        },
        {
          "name": "G#3",
          "midi": 56,
          "time": 27.10465116279077,
          "velocity": 0.3937007874015748,
          "duration": 0.03488372093023173
        },
        {
          "name": "G4",
          "midi": 67,
          "time": 27.10465116279077,
          "velocity": 0.2440944881889764,
          "duration": 0.04651162790697683
        },
        {
          "name": "C6",
          "midi": 84,
          "time": 27.127906976744256,
          "velocity": 0.11811023622047244,
          "duration": 0.05813953488372192
        },
        {
          "name": "G3",
          "midi": 55,
          "time": 27.139534883721,
          "velocity": 0.3779527559055118,
          "duration": 0.02325581395349019
        },
        {
          "name": "D4",
          "midi": 62,
          "time": 27.151162790697747,
          "velocity": 0.2125984251968504,
          "duration": 0.1279069767441925
        },
        {
          "name": "G#4",
          "midi": 68,
          "time": 27.151162790697747,
          "velocity": 0.25196850393700787,
          "duration": 0.08139534883721211
        },
        {
          "name": "F#3",
          "midi": 54,
          "time": 27.16279069767449,
          "velocity": 0.3228346456692913,
          "duration": 0.023255813953486637
        },
        {
          "name": "A#4",
          "midi": 70,
          "time": 27.18604651162798,
          "velocity": 0.2125984251968504,
          "duration": 0.16279069767443133
        },
        {
          "name": "G#3",
          "midi": 56,
          "time": 27.197674418604723,
          "velocity": 0.3937007874015748,
          "duration": 0.034883720930235285
        },
        {
          "name": "D#6",
          "midi": 87,
          "time": 27.220930232558214,
          "velocity": 0.14173228346456693,
          "duration": 0.1976744186046666
        },
        {
          "name": "G#2",
          "midi": 44,
          "time": 27.244186046511704,
          "velocity": 0.36220472440944884,
          "duration": 0.02325581395349019
        },
        {
          "name": "G#5",
          "midi": 80,
          "time": 27.25581395348845,
          "velocity": 0.3228346456692913,
          "duration": 0.02325581395349019
        },
        {
          "name": "B5",
          "midi": 83,
          "time": 27.25581395348845,
          "velocity": 0.29133858267716534,
          "duration": 0.255813953488385
        },
        {
          "name": "C#6",
          "midi": 85,
          "time": 27.25581395348845,
          "velocity": 0.23622047244094488,
          "duration": 0.04651162790698038
        },
        {
          "name": "E6",
          "midi": 88,
          "time": 27.25581395348845,
          "velocity": 0.11023622047244094,
          "duration": 0.034883720930235285
        },
        {
          "name": "F6",
          "midi": 89,
          "time": 27.25581395348845,
          "velocity": 0.2992125984251969,
          "duration": 0.255813953488385
        },
        {
          "name": "F#6",
          "midi": 90,
          "time": 27.25581395348845,
          "velocity": 0.2440944881889764,
          "duration": 0.08139534883721566
        },
        {
          "name": "E7",
          "midi": 100,
          "time": 27.25581395348845,
          "velocity": 0.13385826771653545,
          "duration": 0.058139534883725474
        },
        {
          "name": "F5",
          "midi": 77,
          "time": 27.267441860465194,
          "velocity": 0.1968503937007874,
          "duration": 0.034883720930235285
        },
        {
          "name": "A5",
          "midi": 81,
          "time": 27.267441860465194,
          "velocity": 0.30708661417322836,
          "duration": 0.04651162790698038
        },
        {
          "name": "G#3",
          "midi": 56,
          "time": 27.27906976744194,
          "velocity": 0.3228346456692913,
          "duration": 0.034883720930235285
        },
        {
          "name": "D5",
          "midi": 74,
          "time": 27.27906976744194,
          "velocity": 0.1968503937007874,
          "duration": 0.04651162790698038
        },
        {
          "name": "G5",
          "midi": 79,
          "time": 27.27906976744194,
          "velocity": 0.31496062992125984,
          "duration": 0.04651162790698038
        },
        {
          "name": "G6",
          "midi": 91,
          "time": 27.27906976744194,
          "velocity": 0.3937007874015748,
          "duration": 0.2325581395348948
        },
        {
          "name": "D4",
          "midi": 62,
          "time": 27.290697674418684,
          "velocity": 0.25196850393700787,
          "duration": 0.08139534883721566
        },
        {
          "name": "G#6",
          "midi": 92,
          "time": 27.30232558139543,
          "velocity": 0.2125984251968504,
          "duration": 0.034883720930235285
        },
        {
          "name": "G#5",
          "midi": 80,
          "time": 27.313953488372174,
          "velocity": 0.30708661417322836,
          "duration": 0.034883720930235285
        },
        {
          "name": "A6",
          "midi": 93,
          "time": 27.313953488372174,
          "velocity": 0.25984251968503935,
          "duration": 0.1860465116279144
        },
        {
          "name": "G#3",
          "midi": 56,
          "time": 27.32558139534892,
          "velocity": 0.33070866141732286,
          "duration": 0.034883720930235285
        },
        {
          "name": "D#5",
          "midi": 75,
          "time": 27.32558139534892,
          "velocity": 0.1889763779527559,
          "duration": 0.034883720930235285
        },
        {
          "name": "F#7",
          "midi": 102,
          "time": 27.32558139534892,
          "velocity": 0.29133858267716534,
          "duration": 0.1860465116279144
        },
        {
          "name": "D5",
          "midi": 74,
          "time": 27.34883720930241,
          "velocity": 0.3700787401574803,
          "duration": 0.17441860465116932
        },
        {
          "name": "G5",
          "midi": 79,
          "time": 27.34883720930241,
          "velocity": 0.3543307086614173,
          "duration": 0.17441860465116932
        },
        {
          "name": "G3",
          "midi": 55,
          "time": 27.360465116279155,
          "velocity": 0.33858267716535434,
          "duration": 0.02325581395349019
        },
        {
          "name": "F#3",
          "midi": 54,
          "time": 27.383720930232645,
          "velocity": 0.23622047244094488,
          "duration": 0.02325581395349019
        },
        {
          "name": "D#4",
          "midi": 63,
          "time": 27.39534883720939,
          "velocity": 0.28346456692913385,
          "duration": 0.11627906976744384
        },
        {
          "name": "G3",
          "midi": 55,
          "time": 27.406976744186135,
          "velocity": 0.4015748031496063,
          "duration": 0.06976744186046346
        },
        {
          "name": "B4",
          "midi": 71,
          "time": 27.406976744186135,
          "velocity": 0.07874015748031496,
          "duration": 0.05813953488371837
        },
        {
          "name": "G#2",
          "midi": 44,
          "time": 27.41860465116288,
          "velocity": 0.31496062992125984,
          "duration": 0.023255813953486637
        },
        {
          "name": "G3",
          "midi": 55,
          "time": 27.488372093023344,
          "velocity": 0.41732283464566927,
          "duration": 0.034883720930235285
        },
        {
          "name": "F#4",
          "midi": 66,
          "time": 27.50000000000009,
          "velocity": 0.2440944881889764,
          "duration": 0.034883720930235285
        },
        {
          "name": "G#4",
          "midi": 68,
          "time": 27.50000000000009,
          "velocity": 0.14173228346456693,
          "duration": 0.034883720930235285
        },
        {
          "name": "A#5",
          "midi": 82,
          "time": 27.511627906976834,
          "velocity": 0.2047244094488189,
          "duration": 0.034883720930235285
        },
        {
          "name": "G2",
          "midi": 43,
          "time": 27.52325581395358,
          "velocity": 0.2992125984251969,
          "duration": 0.02325581395349019
        },
        {
          "name": "F#3",
          "midi": 54,
          "time": 27.52325581395358,
          "velocity": 0.3858267716535433,
          "duration": 0.034883720930235285
        },
        {
          "name": "D#4",
          "midi": 63,
          "time": 27.52325581395358,
          "velocity": 0.2755905511811024,
          "duration": 0.15116279069767558
        },
        {
          "name": "G4",
          "midi": 67,
          "time": 27.534883720930324,
          "velocity": 0.29133858267716534,
          "duration": 0.04651162790698038
        },
        {
          "name": "D5",
          "midi": 74,
          "time": 27.534883720930324,
          "velocity": 0.3228346456692913,
          "duration": 0.16279069767442067
        },
        {
          "name": "G5",
          "midi": 79,
          "time": 27.534883720930324,
          "velocity": 0.41732283464566927,
          "duration": 0.4418604651162923
        },
        {
          "name": "B5",
          "midi": 83,
          "time": 27.54651162790707,
          "velocity": 0.2677165354330709,
          "duration": 0.13953488372093048
        },
        {
          "name": "G3",
          "midi": 55,
          "time": 27.558139534883814,
          "velocity": 0.4094488188976378,
          "duration": 0.04651162790697683
        },
        {
          "name": "F6",
          "midi": 89,
          "time": 27.558139534883814,
          "velocity": 0.3858267716535433,
          "duration": 0.11627906976744029
        },
        {
          "name": "A6",
          "midi": 93,
          "time": 27.558139534883814,
          "velocity": 0.1968503937007874,
          "duration": 0.11627906976744029
        },
        {
          "name": "F#7",
          "midi": 102,
          "time": 27.558139534883814,
          "velocity": 0.2204724409448819,
          "duration": 0.11627906976744029
        },
        {
          "name": "D#6",
          "midi": 87,
          "time": 27.56976744186056,
          "velocity": 0.10236220472440945,
          "duration": 0.03488372093023173
        },
        {
          "name": "G2",
          "midi": 43,
          "time": 27.616279069767536,
          "velocity": 0.2677165354330709,
          "duration": 0.03488372093023173
        },
        {
          "name": "G4",
          "midi": 67,
          "time": 27.616279069767536,
          "velocity": 0.2677165354330709,
          "duration": 0.08139534883720856
        },
        {
          "name": "G3",
          "midi": 55,
          "time": 27.674418604651255,
          "velocity": 0.4094488188976378,
          "duration": 0.1279069767441925
        },
        {
          "name": "D#5",
          "midi": 75,
          "time": 27.674418604651255,
          "velocity": 0.1889763779527559,
          "duration": 0.058139534883725474
        },
        {
          "name": "D#4",
          "midi": 63,
          "time": 27.686046511628,
          "velocity": 0.2125984251968504,
          "duration": 0.034883720930235285
        },
        {
          "name": "F#4",
          "midi": 66,
          "time": 27.686046511628,
          "velocity": 0.2283464566929134,
          "duration": 0.02325581395349019
        },
        {
          "name": "A#4",
          "midi": 70,
          "time": 27.686046511628,
          "velocity": 0.11023622047244094,
          "duration": 0.034883720930235285
        },
        {
          "name": "B5",
          "midi": 83,
          "time": 27.697674418604745,
          "velocity": 0.23622047244094488,
          "duration": 0.15116279069768268
        },
        {
          "name": "D6",
          "midi": 86,
          "time": 27.70930232558149,
          "velocity": 0.2992125984251969,
          "duration": 0.15116279069768268
        },
        {
          "name": "G#4",
          "midi": 68,
          "time": 27.73255813953498,
          "velocity": 0.23622047244094488,
          "duration": 0.03488372093023173
        },
        {
          "name": "A#4",
          "midi": 70,
          "time": 27.73255813953498,
          "velocity": 0.11811023622047244,
          "duration": 0.04651162790697683
        },
        {
          "name": "D5",
          "midi": 74,
          "time": 27.73255813953498,
          "velocity": 0.3779527559055118,
          "duration": 0.2093023255814046
        },
        {
          "name": "A5",
          "midi": 81,
          "time": 27.73255813953498,
          "velocity": 0.12598425196850394,
          "duration": 0.03488372093023173
        },
        {
          "name": "F6",
          "midi": 89,
          "time": 27.744186046511725,
          "velocity": 0.28346456692913385,
          "duration": 0.0930232558139572
        },
        {
          "name": "A6",
          "midi": 93,
          "time": 27.744186046511725,
          "velocity": 0.4094488188976378,
          "duration": 0.16279069767442422
        },
        {
          "name": "C#1",
          "midi": 25,
          "time": 27.767441860465212,
          "velocity": 0.7244094488188977,
          "duration": 0.011627906976745095
        },
        {
          "name": "F#7",
          "midi": 102,
          "time": 27.767441860465212,
          "velocity": 0.1732283464566929,
          "duration": 0.08139534883721566
        },
        {
          "name": "B0",
          "midi": 23,
          "time": 27.779069767441957,
          "velocity": 0.6456692913385826,
          "duration": 0.011627906976745095
        },
        {
          "name": "D#4",
          "midi": 63,
          "time": 27.779069767441957,
          "velocity": 0.23622047244094488,
          "duration": 0.27906976744187517
        },
        {
          "name": "A0",
          "midi": 21,
          "time": 27.790697674418702,
          "velocity": 0.5590551181102362,
          "duration": 0.011627906976745095
        },
        {
          "name": "B6",
          "midi": 95,
          "time": 27.790697674418702,
          "velocity": 0.25984251968503935,
          "duration": 0.1162790697674474
        },
        {
          "name": "G3",
          "midi": 55,
          "time": 27.813953488372192,
          "velocity": 0.4330708661417323,
          "duration": 0.13953488372093759
        },
        {
          "name": "G#4",
          "midi": 68,
          "time": 27.813953488372192,
          "velocity": 0.11811023622047244,
          "duration": 0.034883720930235285
        },
        {
          "name": "C#7",
          "midi": 97,
          "time": 27.813953488372192,
          "velocity": 0.14173228346456693,
          "duration": 0.04651162790698038
        },
        {
          "name": "C#6",
          "midi": 85,
          "time": 27.825581395348937,
          "velocity": 0.1968503937007874,
          "duration": 0.04651162790698038
        },
        {
          "name": "G#6",
          "midi": 92,
          "time": 27.825581395348937,
          "velocity": 0.16535433070866143,
          "duration": 0.034883720930235285
        },
        {
          "name": "D#6",
          "midi": 87,
          "time": 27.837209302325682,
          "velocity": 0.23622047244094488,
          "duration": 0.05813953488372192
        },
        {
          "name": "B4",
          "midi": 71,
          "time": 27.860465116279173,
          "velocity": 0.10236220472440945,
          "duration": 0.06976744186046702
        },
        {
          "name": "B5",
          "midi": 83,
          "time": 27.860465116279173,
          "velocity": 0.14960629921259844,
          "duration": 0.05813953488372192
        },
        {
          "name": "C#7",
          "midi": 97,
          "time": 27.872093023255918,
          "velocity": 0.1889763779527559,
          "duration": 0.05813953488372192
        },
        {
          "name": "D5",
          "midi": 74,
          "time": 27.95348837209313,
          "velocity": 0.1968503937007874,
          "duration": 0.04651162790697683
        },
        {
          "name": "G#3",
          "midi": 56,
          "time": 27.976744186046616,
          "velocity": 0.47244094488188976,
          "duration": 0.16279069767442778
        },
        {
          "name": "G4",
          "midi": 67,
          "time": 27.976744186046616,
          "velocity": 0.33070866141732286,
          "duration": 0.02325581395349019
        },
        {
          "name": "G#5",
          "midi": 80,
          "time": 27.98837209302336,
          "velocity": 0.29133858267716534,
          "duration": 0.09302325581396076
        },
        {
          "name": "D#5",
          "midi": 75,
          "time": 28.000000000000107,
          "velocity": 0.3858267716535433,
          "duration": 0.04651162790698038
        },
        {
          "name": "C6",
          "midi": 84,
          "time": 28.000000000000107,
          "velocity": 0.25196850393700787,
          "duration": 0.1162790697674474
        },
        {
          "name": "F#6",
          "midi": 90,
          "time": 28.000000000000107,
          "velocity": 0.29133858267716534,
          "duration": 0.09302325581396076
        },
        {
          "name": "G4",
          "midi": 67,
          "time": 28.01162790697685,
          "velocity": 0.3228346456692913,
          "duration": 0.02325581395349019
        },
        {
          "name": "B4",
          "midi": 71,
          "time": 28.023255813953597,
          "velocity": 0.2204724409448819,
          "duration": 0.04651162790698038
        },
        {
          "name": "D6",
          "midi": 86,
          "time": 28.034883720930342,
          "velocity": 0.23622047244094488,
          "duration": 0.1046511627907023
        },
        {
          "name": "F6",
          "midi": 89,
          "time": 28.034883720930342,
          "velocity": 0.12598425196850394,
          "duration": 0.08139534883721211
        },
        {
          "name": "G6",
          "midi": 91,
          "time": 28.034883720930342,
          "velocity": 0.13385826771653545,
          "duration": 0.058139534883725474
        },
        {
          "name": "D5",
          "midi": 74,
          "time": 28.046511627907087,
          "velocity": 0.3858267716535433,
          "duration": 0.0930232558139572
        },
        {
          "name": "G4",
          "midi": 67,
          "time": 28.058139534883832,
          "velocity": 0.23622047244094488,
          "duration": 0.08139534883721211
        },
        {
          "name": "D4",
          "midi": 62,
          "time": 28.069767441860577,
          "velocity": 0.28346456692913385,
          "duration": 0.3720930232558288
        },
        {
          "name": "B2",
          "midi": 47,
          "time": 28.081395348837322,
          "velocity": 0.2125984251968504,
          "duration": 0.03488372093023173
        },
        {
          "name": "A#4",
          "midi": 70,
          "time": 28.081395348837322,
          "velocity": 0.13385826771653545,
          "duration": 0.05813953488372192
        },
        {
          "name": "G#5",
          "midi": 80,
          "time": 28.1279069767443,
          "velocity": 0.4330708661417323,
          "duration": 0.04651162790698038
        },
        {
          "name": "B4",
          "midi": 71,
          "time": 28.139534883721044,
          "velocity": 0.15748031496062992,
          "duration": 0.058139534883725474
        },
        {
          "name": "D#5",
          "midi": 75,
          "time": 28.139534883721044,
          "velocity": 0.49606299212598426,
          "duration": 0.04651162790698038
        },
        {
          "name": "C6",
          "midi": 84,
          "time": 28.139534883721044,
          "velocity": 0.30708661417322836,
          "duration": 0.034883720930235285
        },
        {
          "name": "F#6",
          "midi": 90,
          "time": 28.139534883721044,
          "velocity": 0.30708661417322836,
          "duration": 0.02325581395349019
        },
        {
          "name": "G#3",
          "midi": 56,
          "time": 28.15116279069779,
          "velocity": 0.3228346456692913,
          "duration": 0.034883720930235285
        },
        {
          "name": "C#7",
          "midi": 97,
          "time": 28.15116279069779,
          "velocity": 0.16535433070866143,
          "duration": 0.058139534883725474
        },
        {
          "name": "F6",
          "midi": 89,
          "time": 28.162790697674534,
          "velocity": 0.3779527559055118,
          "duration": 0.20930232558140816
        },
        {
          "name": "G6",
          "midi": 91,
          "time": 28.162790697674534,
          "velocity": 0.4015748031496063,
          "duration": 0.19767441860466306
        },
        {
          "name": "A6",
          "midi": 93,
          "time": 28.162790697674534,
          "velocity": 0.25984251968503935,
          "duration": 0.16279069767442778
        },
        {
          "name": "G4",
          "midi": 67,
          "time": 28.17441860465128,
          "velocity": 0.2283464566929134,
          "duration": 0.1279069767441925
        },
        {
          "name": "G5",
          "midi": 79,
          "time": 28.17441860465128,
          "velocity": 0.5039370078740157,
          "duration": 0.31395348837210335
        },
        {
          "name": "B5",
          "midi": 83,
          "time": 28.17441860465128,
          "velocity": 0.33070866141732286,
          "duration": 0.1162790697674474
        },
        {
          "name": "D6",
          "midi": 86,
          "time": 28.17441860465128,
          "velocity": 0.3228346456692913,
          "duration": 0.17441860465117287
        },
        {
          "name": "G3",
          "midi": 55,
          "time": 28.186046511628025,
          "velocity": 0.3543307086614173,
          "duration": 0.1046511627907023
        },
        {
          "name": "D5",
          "midi": 74,
          "time": 28.186046511628025,
          "velocity": 0.4881889763779528,
          "duration": 0.1162790697674474
        },
        {
          "name": "A#4",
          "midi": 70,
          "time": 28.19767441860477,
          "velocity": 0.1889763779527559,
          "duration": 0.17441860465117287
        },
        {
          "name": "A5",
          "midi": 81,
          "time": 28.19767441860477,
          "velocity": 0.09448818897637795,
          "duration": 0.08139534883721211
        },
        {
          "name": "C7",
          "midi": 96,
          "time": 28.209302325581515,
          "velocity": 0.16535433070866143,
          "duration": 0.06976744186046702
        },
        {
          "name": "C#7",
          "midi": 97,
          "time": 28.22093023255826,
          "velocity": 0.14173228346456693,
          "duration": 0.05813953488372192
        },
        {
          "name": "F#3",
          "midi": 54,
          "time": 28.290697674418727,
          "velocity": 0.3464566929133858,
          "duration": 0.058139534883725474
        },
        {
          "name": "C3",
          "midi": 48,
          "time": 28.302325581395472,
          "velocity": 0.1889763779527559,
          "duration": 0.034883720930235285
        },
        {
          "name": "C5",
          "midi": 72,
          "time": 28.302325581395472,
          "velocity": 0.2283464566929134,
          "duration": 0.02325581395349019
        },
        {
          "name": "G4",
          "midi": 67,
          "time": 28.313953488372217,
          "velocity": 0.2755905511811024,
          "duration": 0.02325581395349019
        },
        {
          "name": "D5",
          "midi": 74,
          "time": 28.313953488372217,
          "velocity": 0.3228346456692913,
          "duration": 0.034883720930235285
        },
        {
          "name": "F5",
          "midi": 77,
          "time": 28.313953488372217,
          "velocity": 0.25196850393700787,
          "duration": 0.058139534883725474
        },
        {
          "name": "A5",
          "midi": 81,
          "time": 28.313953488372217,
          "velocity": 0.1889763779527559,
          "duration": 0.058139534883725474
        },
        {
          "name": "C6",
          "midi": 84,
          "time": 28.325581395348962,
          "velocity": 0.12598425196850394,
          "duration": 0.058139534883725474
        },
        {
          "name": "F4",
          "midi": 65,
          "time": 28.337209302325707,
          "velocity": 0.25984251968503935,
          "duration": 0.034883720930235285
        },
        {
          "name": "C5",
          "midi": 72,
          "time": 28.337209302325707,
          "velocity": 0.4251968503937008,
          "duration": 0.04651162790698038
        },
        {
          "name": "F3",
          "midi": 53,
          "time": 28.348837209302452,
          "velocity": 0.3228346456692913,
          "duration": 0.034883720930235285
        },
        {
          "name": "D#6",
          "midi": 87,
          "time": 28.348837209302452,
          "velocity": 0.3543307086614173,
          "duration": 0.02325581395349019
        },
        {
          "name": "D5",
          "midi": 74,
          "time": 28.360465116279197,
          "velocity": 0.2992125984251969,
          "duration": 0.10465116279069875
        },
        {
          "name": "D6",
          "midi": 86,
          "time": 28.372093023255943,
          "velocity": 0.3464566929133858,
          "duration": 0.03488372093023173
        },
        {
          "name": "E3",
          "midi": 52,
          "time": 28.383720930232688,
          "velocity": 0.3228346456692913,
          "duration": 0.03488372093023173
        },
        {
          "name": "D#3",
          "midi": 51,
          "time": 28.41860465116292,
          "velocity": 0.3228346456692913,
          "duration": 0.2790697674418645
        },
        {
          "name": "D6",
          "midi": 86,
          "time": 28.41860465116292,
          "velocity": 0.3228346456692913,
          "duration": 0.20930232558139394
        },
        {
          "name": "A#4",
          "midi": 70,
          "time": 28.441860465116406,
          "velocity": 0.4409448818897638,
          "duration": 0.24418604651163278
        },
        {
          "name": "D#4",
          "midi": 63,
          "time": 28.45348837209315,
          "velocity": 0.41732283464566927,
          "duration": 0.11627906976744029
        },
        {
          "name": "G5",
          "midi": 79,
          "time": 28.500000000000128,
          "velocity": 0.30708661417322836,
          "duration": 0.22093023255814614
        },
        {
          "name": "C#6",
          "midi": 85,
          "time": 28.546511627907105,
          "velocity": 0.07874015748031496,
          "duration": 0.04651162790697683
        },
        {
          "name": "D#4",
          "midi": 63,
          "time": 28.581395348837336,
          "velocity": 0.36220472440944884,
          "duration": 0.04651162790697683
        },
        {
          "name": "G4",
          "midi": 67,
          "time": 28.616279069767568,
          "velocity": 0.1889763779527559,
          "duration": 0.06976744186047057
        },
        {
          "name": "D#4",
          "midi": 63,
          "time": 28.63953488372106,
          "velocity": 0.33070866141732286,
          "duration": 0.058139534883725474
        },
        {
          "name": "D6",
          "midi": 86,
          "time": 28.651162790697803,
          "velocity": 0.1732283464566929,
          "duration": 0.04651162790698038
        },
        {
          "name": "C6",
          "midi": 84,
          "time": 28.66279069767455,
          "velocity": 0.3779527559055118,
          "duration": 0.22093023255815325
        },
        {
          "name": "D#6",
          "midi": 87,
          "time": 28.66279069767455,
          "velocity": 0.4015748031496063,
          "duration": 0.22093023255815325
        },
        {
          "name": "G#5",
          "midi": 80,
          "time": 28.674418604651294,
          "velocity": 0.28346456692913385,
          "duration": 0.02325581395349019
        },
        {
          "name": "E6",
          "midi": 88,
          "time": 28.674418604651294,
          "velocity": 0.2755905511811024,
          "duration": 0.04651162790698038
        },
        {
          "name": "F#6",
          "midi": 90,
          "time": 28.674418604651294,
          "velocity": 0.14960629921259844,
          "duration": 0.04651162790698038
        },
        {
          "name": "G#3",
          "midi": 56,
          "time": 28.68604651162804,
          "velocity": 0.36220472440944884,
          "duration": 0.20930232558140816
        },
        {
          "name": "D4",
          "midi": 62,
          "time": 28.697674418604784,
          "velocity": 0.29133858267716534,
          "duration": 0.02325581395349019
        },
        {
          "name": "A5",
          "midi": 81,
          "time": 28.697674418604784,
          "velocity": 0.25984251968503935,
          "duration": 0.02325581395349019
        },
        {
          "name": "G1",
          "midi": 31,
          "time": 28.70930232558153,
          "velocity": 0.7559055118110236,
          "duration": 0.034883720930235285
        },
        {
          "name": "D#3",
          "midi": 51,
          "time": 28.70930232558153,
          "velocity": 0.28346456692913385,
          "duration": 0.02325581395349019
        },
        {
          "name": "D#4",
          "midi": 63,
          "time": 28.720930232558274,
          "velocity": 0.33858267716535434,
          "duration": 0.02325581395349019
        },
        {
          "name": "G#5",
          "midi": 80,
          "time": 28.720930232558274,
          "velocity": 0.36220472440944884,
          "duration": 0.15116279069768268
        },
        {
          "name": "A#5",
          "midi": 82,
          "time": 28.720930232558274,
          "velocity": 0.2677165354330709,
          "duration": 0.04651162790698038
        },
        {
          "name": "F#4",
          "midi": 66,
          "time": 28.73255813953502,
          "velocity": 0.1732283464566929,
          "duration": 0.034883720930235285
        },
        {
          "name": "A#4",
          "midi": 70,
          "time": 28.73255813953502,
          "velocity": 0.16535433070866143,
          "duration": 0.04651162790698038
        },
        {
          "name": "F#6",
          "midi": 90,
          "time": 28.73255813953502,
          "velocity": 0.14173228346456693,
          "duration": 0.13953488372093759
        },
        {
          "name": "G#1",
          "midi": 32,
          "time": 28.744186046511764,
          "velocity": 0.7637795275590551,
          "duration": 0.5930232558139927
        },
        {
          "name": "D#3",
          "midi": 51,
          "time": 28.744186046511764,
          "velocity": 0.2992125984251969,
          "duration": 0.15116279069768268
        },
        {
          "name": "F5",
          "midi": 77,
          "time": 28.744186046511764,
          "velocity": 0.09448818897637795,
          "duration": 0.058139534883725474
        },
        {
          "name": "C4",
          "midi": 60,
          "time": 28.75581395348851,
          "velocity": 0.23622047244094488,
          "duration": 0.02325581395349019
        },
        {
          "name": "D#4",
          "midi": 63,
          "time": 28.767441860465254,
          "velocity": 0.3464566929133858,
          "duration": 0.02325581395349019
        },
        {
          "name": "C5",
          "midi": 72,
          "time": 28.767441860465254,
          "velocity": 0.29133858267716534,
          "duration": 0.058139534883725474
        },
        {
          "name": "D5",
          "midi": 74,
          "time": 28.779069767442,
          "velocity": 0.33858267716535434,
          "duration": 0.02325581395349019
        },
        {
          "name": "B5",
          "midi": 83,
          "time": 28.779069767442,
          "velocity": 0.2283464566929134,
          "duration": 0.034883720930235285
        },
        {
          "name": "A#4",
          "midi": 70,
          "time": 28.813953488372235,
          "velocity": 0.31496062992125984,
          "duration": 0.22093023255815325
        },
        {
          "name": "C4",
          "midi": 60,
          "time": 28.82558139534898,
          "velocity": 0.2125984251968504,
          "duration": 0.08139534883721211
        },
        {
          "name": "F#4",
          "midi": 66,
          "time": 28.837209302325725,
          "velocity": 0.14173228346456693,
          "duration": 0.04651162790697683
        },
        {
          "name": "G5",
          "midi": 79,
          "time": 28.86046511627921,
          "velocity": 0.3228346456692913,
          "duration": 0.29069767441862737
        },
        {
          "name": "E5",
          "midi": 76,
          "time": 28.872093023255957,
          "velocity": 0.09448818897637795,
          "duration": 0.058139534883725474
        },
        {
          "name": "F6",
          "midi": 89,
          "time": 28.872093023255957,
          "velocity": 0.16535433070866143,
          "duration": 0.10465116279070585
        },
        {
          "name": "D5",
          "midi": 74,
          "time": 28.883720930232702,
          "velocity": 0.3700787401574803,
          "duration": 0.15116279069768623
        },
        {
          "name": "B5",
          "midi": 83,
          "time": 28.883720930232702,
          "velocity": 0.2677165354330709,
          "duration": 0.02325581395349019
        },
        {
          "name": "G4",
          "midi": 67,
          "time": 28.895348837209447,
          "velocity": 0.23622047244094488,
          "duration": 0.02325581395349019
        },
        {
          "name": "A#5",
          "midi": 82,
          "time": 28.895348837209447,
          "velocity": 0.31496062992125984,
          "duration": 0.17441860465117642
        },
        {
          "name": "B5",
          "midi": 83,
          "time": 28.918604651162937,
          "velocity": 0.2283464566929134,
          "duration": 0.02325581395349019
        },
        {
          "name": "G3",
          "midi": 55,
          "time": 28.930232558139682,
          "velocity": 0.36220472440944884,
          "duration": 0.04651162790698038
        },
        {
          "name": "D4",
          "midi": 62,
          "time": 28.953488372093172,
          "velocity": 0.30708661417322836,
          "duration": 0.04651162790698038
        },
        {
          "name": "F5",
          "midi": 77,
          "time": 28.965116279069917,
          "velocity": 0.25196850393700787,
          "duration": 0.11627906976745095
        },
        {
          "name": "D#3",
          "midi": 51,
          "time": 28.976744186046663,
          "velocity": 0.30708661417322836,
          "duration": 0.08139534883721566
        },
        {
          "name": "A#3",
          "midi": 58,
          "time": 28.988372093023408,
          "velocity": 0.33070866141732286,
          "duration": 0.034883720930235285
        },
        {
          "name": "F#4",
          "midi": 66,
          "time": 29.011627906976898,
          "velocity": 0.1889763779527559,
          "duration": 0.034883720930235285
        },
        {
          "name": "C#4",
          "midi": 61,
          "time": 29.034883720930388,
          "velocity": 0.2677165354330709,
          "duration": 0.02325581395349019
        },
        {
          "name": "C6",
          "midi": 84,
          "time": 29.034883720930388,
          "velocity": 0.4015748031496063,
          "duration": 0.10465116279070585
        },
        {
          "name": "A5",
          "midi": 81,
          "time": 29.046511627907133,
          "velocity": 0.1968503937007874,
          "duration": 0.08139534883721566
        },
        {
          "name": "C#6",
          "midi": 85,
          "time": 29.046511627907133,
          "velocity": 0.33858267716535434,
          "duration": 0.06976744186047057
        },
        {
          "name": "A#4",
          "midi": 70,
          "time": 29.05813953488388,
          "velocity": 0.48031496062992124,
          "duration": 0.034883720930235285
        },
        {
          "name": "D5",
          "midi": 74,
          "time": 29.05813953488388,
          "velocity": 0.2440944881889764,
          "duration": 0.034883720930235285
        },
        {
          "name": "D#3",
          "midi": 51,
          "time": 29.069767441860623,
          "velocity": 0.29133858267716534,
          "duration": 0.04651162790698038
        },
        {
          "name": "C4",
          "midi": 60,
          "time": 29.08139534883737,
          "velocity": 0.12598425196850394,
          "duration": 0.034883720930235285
        },
        {
          "name": "F6",
          "midi": 89,
          "time": 29.08139534883737,
          "velocity": 0.25196850393700787,
          "duration": 0.04651162790698038
        },
        {
          "name": "G7",
          "midi": 103,
          "time": 29.08139534883737,
          "velocity": 0.11023622047244094,
          "duration": 0.058139534883725474
        },
        {
          "name": "E4",
          "midi": 64,
          "time": 29.093023255814114,
          "velocity": 0.28346456692913385,
          "duration": 0.02325581395349019
        },
        {
          "name": "G6",
          "midi": 91,
          "time": 29.093023255814114,
          "velocity": 0.4094488188976378,
          "duration": 0.25581395348838853
        },
        {
          "name": "C5",
          "midi": 72,
          "time": 29.10465116279086,
          "velocity": 0.4251968503937008,
          "duration": 0.034883720930235285
        },
        {
          "name": "A6",
          "midi": 93,
          "time": 29.10465116279086,
          "velocity": 0.33858267716535434,
          "duration": 0.24418604651164344
        },
        {
          "name": "F4",
          "midi": 65,
          "time": 29.116279069767604,
          "velocity": 0.29133858267716534,
          "duration": 0.02325581395349019
        },
        {
          "name": "D#7",
          "midi": 99,
          "time": 29.116279069767604,
          "velocity": 0.16535433070866143,
          "duration": 0.09302325581396076
        },
        {
          "name": "B6",
          "midi": 95,
          "time": 29.12790697674435,
          "velocity": 0.2440944881889764,
          "duration": 0.1162790697674474
        },
        {
          "name": "D#4",
          "midi": 63,
          "time": 29.139534883721094,
          "velocity": 0.25984251968503935,
          "duration": 0.034883720930235285
        },
        {
          "name": "G4",
          "midi": 67,
          "time": 29.139534883721094,
          "velocity": 0.31496062992125984,
          "duration": 0.058139534883725474
        },
        {
          "name": "D5",
          "midi": 74,
          "time": 29.139534883721094,
          "velocity": 0.4330708661417323,
          "duration": 0.18604651162791797
        },
        {
          "name": "G3",
          "midi": 55,
          "time": 29.15116279069784,
          "velocity": 0.33858267716535434,
          "duration": 0.02325581395349019
        },
        {
          "name": "G5",
          "midi": 79,
          "time": 29.162790697674584,
          "velocity": 0.3937007874015748,
          "duration": 0.16279069767442778
        },
        {
          "name": "C7",
          "midi": 96,
          "time": 29.162790697674584,
          "velocity": 0.1889763779527559,
          "duration": 0.058139534883725474
        },
        {
          "name": "D7",
          "midi": 98,
          "time": 29.162790697674584,
          "velocity": 0.11811023622047244,
          "duration": 0.034883720930235285
        },
        {
          "name": "F7",
          "midi": 101,
          "time": 29.162790697674584,
          "velocity": 0.2283464566929134,
          "duration": 0.15116279069768268
        },
        {
          "name": "D4",
          "midi": 62,
          "time": 29.17441860465133,
          "velocity": 0.25196850393700787,
          "duration": 0.02325581395349019
        },
        {
          "name": "A#4",
          "midi": 70,
          "time": 29.17441860465133,
          "velocity": 0.11811023622047244,
          "duration": 0.034883720930235285
        },
        {
          "name": "G#4",
          "midi": 68,
          "time": 29.186046511628074,
          "velocity": 0.31496062992125984,
          "duration": 0.034883720930235285
        },
        {
          "name": "B5",
          "midi": 83,
          "time": 29.186046511628074,
          "velocity": 0.28346456692913385,
          "duration": 0.0930232558139572
        },
        {
          "name": "F6",
          "midi": 89,
          "time": 29.186046511628074,
          "velocity": 0.2755905511811024,
          "duration": 0.22093023255815325
        },
        {
          "name": "G3",
          "midi": 55,
          "time": 29.209302325581564,
          "velocity": 0.41732283464566927,
          "duration": 0.05813953488372192
        },
        {
          "name": "A5",
          "midi": 81,
          "time": 29.209302325581564,
          "velocity": 0.12598425196850394,
          "duration": 0.04651162790697683
        },
        {
          "name": "D4",
          "midi": 62,
          "time": 29.22093023255831,
          "velocity": 0.31496062992125984,
          "duration": 0.03488372093023173
        },
        {
          "name": "D#3",
          "midi": 51,
          "time": 29.244186046511796,
          "velocity": 0.28346456692913385,
          "duration": 0.04651162790698038
        },
        {
          "name": "F5",
          "midi": 77,
          "time": 29.27906976744203,
          "velocity": 0.2047244094488189,
          "duration": 0.06976744186047057
        },
        {
          "name": "G3",
          "midi": 55,
          "time": 29.290697674418777,
          "velocity": 0.36220472440944884,
          "duration": 0.058139534883725474
        },
        {
          "name": "B5",
          "midi": 83,
          "time": 29.290697674418777,
          "velocity": 0.1889763779527559,
          "duration": 0.034883720930235285
        },
        {
          "name": "D4",
          "midi": 62,
          "time": 29.30232558139552,
          "velocity": 0.25196850393700787,
          "duration": 0.034883720930235285
        },
        {
          "name": "A5",
          "midi": 81,
          "time": 29.30232558139552,
          "velocity": 0.2125984251968504,
          "duration": 0.10465116279070585
        },
        {
          "name": "F#7",
          "midi": 102,
          "time": 29.30232558139552,
          "velocity": 0.09448818897637795,
          "duration": 0.034883720930235285
        },
        {
          "name": "D#5",
          "midi": 75,
          "time": 29.325581395349012,
          "velocity": 0.2440944881889764,
          "duration": 0.04651162790698038
        },
        {
          "name": "A#5",
          "midi": 82,
          "time": 29.325581395349012,
          "velocity": 0.2440944881889764,
          "duration": 0.15116279069768268
        },
        {
          "name": "G1",
          "midi": 31,
          "time": 29.337209302325757,
          "velocity": 0.6692913385826772,
          "duration": 0.011627906976745095
        },
        {
          "name": "F4",
          "midi": 65,
          "time": 29.337209302325757,
          "velocity": 0.29133858267716534,
          "duration": 0.08139534883721566
        },
        {
          "name": "C5",
          "midi": 72,
          "time": 29.337209302325757,
          "velocity": 0.3858267716535433,
          "duration": 0.06976744186047057
        },
        {
          "name": "F#1",
          "midi": 30,
          "time": 29.348837209302502,
          "velocity": 0.5590551181102362,
          "duration": 0.011627906976745095
        },
        {
          "name": "G6",
          "midi": 91,
          "time": 29.360465116279247,
          "velocity": 0.28346456692913385,
          "duration": 0.058139534883725474
        },
        {
          "name": "F#1",
          "midi": 30,
          "time": 29.383720930232737,
          "velocity": 0.6692913385826772,
          "duration": 0.011627906976745095
        },
        {
          "name": "A#3",
          "midi": 58,
          "time": 29.383720930232737,
          "velocity": 0.36220472440944884,
          "duration": 0.02325581395349019
        },
        {
          "name": "G#4",
          "midi": 68,
          "time": 29.383720930232737,
          "velocity": 0.31496062992125984,
          "duration": 0.11627906976744384
        },
        {
          "name": "D#5",
          "midi": 75,
          "time": 29.383720930232737,
          "velocity": 0.33858267716535434,
          "duration": 0.13953488372093403
        },
        {
          "name": "G1",
          "midi": 31,
          "time": 29.395348837209482,
          "velocity": 0.7480314960629921,
          "duration": 0.011627906976745095
        },
        {
          "name": "F#1",
          "midi": 30,
          "time": 29.406976744186228,
          "velocity": 0.7795275590551181,
          "duration": 0.011627906976745095
        },
        {
          "name": "G1",
          "midi": 31,
          "time": 29.418604651162973,
          "velocity": 0.7716535433070866,
          "duration": 0.6046511627907236
        },
        {
          "name": "G#3",
          "midi": 56,
          "time": 29.418604651162973,
          "velocity": 0.41732283464566927,
          "duration": 0.09302325581395365
        },
        {
          "name": "F5",
          "midi": 77,
          "time": 29.418604651162973,
          "velocity": 0.25196850393700787,
          "duration": 0.17441860465116932
        },
        {
          "name": "D#4",
          "midi": 63,
          "time": 29.430232558139718,
          "velocity": 0.33070866141732286,
          "duration": 0.10465116279069875
        },
        {
          "name": "C5",
          "midi": 72,
          "time": 29.441860465116463,
          "velocity": 0.14173228346456693,
          "duration": 0.03488372093023173
        },
        {
          "name": "D3",
          "midi": 50,
          "time": 29.50000000000018,
          "velocity": 0.33070866141732286,
          "duration": 0.034883720930235285
        },
        {
          "name": "G#5",
          "midi": 80,
          "time": 29.50000000000018,
          "velocity": 0.12598425196850394,
          "duration": 0.034883720930235285
        },
        {
          "name": "A#5",
          "midi": 82,
          "time": 29.50000000000018,
          "velocity": 0.23622047244094488,
          "duration": 0.058139534883725474
        },
        {
          "name": "C6",
          "midi": 84,
          "time": 29.50000000000018,
          "velocity": 0.14173228346456693,
          "duration": 0.034883720930235285
        },
        {
          "name": "A3",
          "midi": 57,
          "time": 29.511627906976926,
          "velocity": 0.25984251968503935,
          "duration": 0.02325581395349019
        },
        {
          "name": "A4",
          "midi": 69,
          "time": 29.511627906976926,
          "velocity": 0.25984251968503935,
          "duration": 0.02325581395349019
        },
        {
          "name": "D5",
          "midi": 74,
          "time": 29.52325581395367,
          "velocity": 0.4881889763779528,
          "duration": 0.2674418604651301
        },
        {
          "name": "G5",
          "midi": 79,
          "time": 29.52325581395367,
          "velocity": 0.4566929133858268,
          "duration": 0.27906976744187517
        },
        {
          "name": "G3",
          "midi": 55,
          "time": 29.534883720930416,
          "velocity": 0.4251968503937008,
          "duration": 0.04651162790698038
        },
        {
          "name": "D#4",
          "midi": 63,
          "time": 29.54651162790716,
          "velocity": 0.2677165354330709,
          "duration": 0.13953488372093403
        },
        {
          "name": "E6",
          "midi": 88,
          "time": 29.54651162790716,
          "velocity": 0.28346456692913385,
          "duration": 0.034883720930235285
        },
        {
          "name": "B5",
          "midi": 83,
          "time": 29.558139534883907,
          "velocity": 0.3543307086614173,
          "duration": 0.2209302325581497
        },
        {
          "name": "D3",
          "midi": 50,
          "time": 29.56976744186065,
          "velocity": 0.2992125984251969,
          "duration": 0.058139534883725474
        },
        {
          "name": "G#3",
          "midi": 56,
          "time": 29.581395348837397,
          "velocity": 0.3779527559055118,
          "duration": 0.11627906976744384
        },
        {
          "name": "G4",
          "midi": 67,
          "time": 29.581395348837397,
          "velocity": 0.2755905511811024,
          "duration": 0.2093023255814046
        },
        {
          "name": "F6",
          "midi": 89,
          "time": 29.581395348837397,
          "velocity": 0.4251968503937008,
          "duration": 0.2441860465116399
        },
        {
          "name": "D#6",
          "midi": 87,
          "time": 29.604651162790887,
          "velocity": 0.14960629921259844,
          "duration": 0.05813953488372192
        },
        {
          "name": "F5",
          "midi": 77,
          "time": 29.616279069767632,
          "velocity": 0.25196850393700787,
          "duration": 0.4651162790697896
        },
        {
          "name": "D3",
          "midi": 50,
          "time": 29.639534883721122,
          "velocity": 0.29133858267716534,
          "duration": 0.2209302325581497
        },
        {
          "name": "A6",
          "midi": 93,
          "time": 29.639534883721122,
          "velocity": 0.31496062992125984,
          "duration": 0.13953488372093403
        },
        {
          "name": "C7",
          "midi": 96,
          "time": 29.66279069767461,
          "velocity": 0.14960629921259844,
          "duration": 0.04651162790697683
        },
        {
          "name": "B3",
          "midi": 59,
          "time": 29.69767441860484,
          "velocity": 0.15748031496062992,
          "duration": 0.034883720930235285
        },
        {
          "name": "C#7",
          "midi": 97,
          "time": 29.709302325581586,
          "velocity": 0.18110236220472442,
          "duration": 0.06976744186047057
        },
        {
          "name": "G3",
          "midi": 55,
          "time": 29.72093023255833,
          "velocity": 0.33070866141732286,
          "duration": 0.02325581395349019
        },
        {
          "name": "D#7",
          "midi": 99,
          "time": 29.72093023255833,
          "velocity": 0.2755905511811024,
          "duration": 0.06976744186047057
        },
        {
          "name": "A#5",
          "midi": 82,
          "time": 29.732558139535076,
          "velocity": 0.16535433070866143,
          "duration": 0.034883720930235285
        },
        {
          "name": "G#3",
          "midi": 56,
          "time": 29.74418604651182,
          "velocity": 0.33858267716535434,
          "duration": 0.058139534883725474
        },
        {
          "name": "E7",
          "midi": 100,
          "time": 29.755813953488566,
          "velocity": 0.2755905511811024,
          "duration": 0.02325581395349019
        },
        {
          "name": "A4",
          "midi": 69,
          "time": 29.76744186046531,
          "velocity": 0.10236220472440945,
          "duration": 0.034883720930235285
        },
        {
          "name": "C5",
          "midi": 72,
          "time": 29.7906976744188,
          "velocity": 0.14960629921259844,
          "duration": 0.08139534883721566
        },
        {
          "name": "G3",
          "midi": 55,
          "time": 29.802325581395547,
          "velocity": 0.3228346456692913,
          "duration": 0.02325581395349019
        },
        {
          "name": "D5",
          "midi": 74,
          "time": 29.802325581395547,
          "velocity": 0.14960629921259844,
          "duration": 0.034883720930235285
        },
        {
          "name": "E4",
          "midi": 64,
          "time": 29.81395348837229,
          "velocity": 0.25196850393700787,
          "duration": 0.034883720930235285
        },
        {
          "name": "G#3",
          "midi": 56,
          "time": 29.825581395349037,
          "velocity": 0.3937007874015748,
          "duration": 0.15116279069767913
        },
        {
          "name": "D#5",
          "midi": 75,
          "time": 29.837209302325782,
          "velocity": 0.2283464566929134,
          "duration": 0.13953488372093403
        },
        {
          "name": "D3",
          "midi": 50,
          "time": 29.872093023256017,
          "velocity": 0.29133858267716534,
          "duration": 0.09302325581395365
        },
        {
          "name": "D#4",
          "midi": 63,
          "time": 29.883720930232762,
          "velocity": 0.28346456692913385,
          "duration": 0.08139534883720856
        },
        {
          "name": "A4",
          "midi": 69,
          "time": 29.895348837209507,
          "velocity": 0.15748031496062992,
          "duration": 0.05813953488371837
        },
        {
          "name": "C5",
          "midi": 72,
          "time": 29.93023255813974,
          "velocity": 0.11023622047244094,
          "duration": 0.03488372093023173
        },
        {
          "name": "G4",
          "midi": 67,
          "time": 29.96511627906997,
          "velocity": 0.2992125984251969,
          "duration": 0.04651162790698038
        },
        {
          "name": "D5",
          "midi": 74,
          "time": 29.96511627906997,
          "velocity": 0.3937007874015748,
          "duration": 0.034883720930235285
        },
        {
          "name": "G3",
          "midi": 55,
          "time": 29.976744186046716,
          "velocity": 0.41732283464566927,
          "duration": 0.034883720930235285
        },
        {
          "name": "D#4",
          "midi": 63,
          "time": 29.976744186046716,
          "velocity": 0.23622047244094488,
          "duration": 0.08139534883721566
        },
        {
          "name": "D3",
          "midi": 50,
          "time": 29.98837209302346,
          "velocity": 0.28346456692913385,
          "duration": 0.02325581395349019
        },
        {
          "name": "G#5",
          "midi": 80,
          "time": 29.98837209302346,
          "velocity": 0.33858267716535434,
          "duration": 0.034883720930235285
        },
        {
          "name": "C6",
          "midi": 84,
          "time": 29.98837209302346,
          "velocity": 0.28346456692913385,
          "duration": 0.02325581395349019
        },
        {
          "name": "D#6",
          "midi": 87,
          "time": 29.98837209302346,
          "velocity": 0.2677165354330709,
          "duration": 0.02325581395349019
        },
        {
          "name": "G#4",
          "midi": 68,
          "time": 30.000000000000206,
          "velocity": 0.25984251968503935,
          "duration": 0.02325581395349019
        },
        {
          "name": "D#5",
          "midi": 75,
          "time": 30.000000000000206,
          "velocity": 0.4409448818897638,
          "duration": 0.02325581395349019
        },
        {
          "name": "F6",
          "midi": 89,
          "time": 30.000000000000206,
          "velocity": 0.4409448818897638,
          "duration": 0.15116279069768623
        },
        {
          "name": "A6",
          "midi": 93,
          "time": 30.000000000000206,
          "velocity": 0.41732283464566927,
          "duration": 0.13953488372094114
        },
        {
          "name": "A#6",
          "midi": 94,
          "time": 30.000000000000206,
          "velocity": 0.1968503937007874,
          "duration": 0.034883720930235285
        },
        {
          "name": "B5",
          "midi": 83,
          "time": 30.01162790697695,
          "velocity": 0.3464566929133858,
          "duration": 0.12790697674419604
        },
        {
          "name": "D6",
          "midi": 86,
          "time": 30.01162790697695,
          "velocity": 0.3700787401574803,
          "duration": 0.13953488372094114
        },
        {
          "name": "G6",
          "midi": 91,
          "time": 30.01162790697695,
          "velocity": 0.3700787401574803,
          "duration": 0.17441860465117642
        },
        {
          "name": "F1",
          "midi": 29,
          "time": 30.023255813953696,
          "velocity": 0.5669291338582677,
          "duration": 0.011627906976745095
        },
        {
          "name": "G4",
          "midi": 67,
          "time": 30.023255813953696,
          "velocity": 0.3937007874015748,
          "duration": 0.13953488372094114
        },
        {
          "name": "D5",
          "midi": 74,
          "time": 30.023255813953696,
          "velocity": 0.4094488188976378,
          "duration": 0.11627906976745095
        },
        {
          "name": "G5",
          "midi": 79,
          "time": 30.023255813953696,
          "velocity": 0.4409448818897638,
          "duration": 0.11627906976745095
        },
        {
          "name": "G#3",
          "midi": 56,
          "time": 30.046511627907186,
          "velocity": 0.4330708661417323,
          "duration": 0.02325581395349019
        },
        {
          "name": "D#1",
          "midi": 27,
          "time": 30.05813953488393,
          "velocity": 0.7007874015748031,
          "duration": 0.02325581395349019
        },
        {
          "name": "D#7",
          "midi": 99,
          "time": 30.05813953488393,
          "velocity": 0.12598425196850394,
          "duration": 0.058139534883725474
        },
        {
          "name": "F#7",
          "midi": 102,
          "time": 30.069767441860677,
          "velocity": 0.08661417322834646,
          "duration": 0.034883720930235285
        },
        {
          "name": "D1",
          "midi": 26,
          "time": 30.08139534883742,
          "velocity": 0.7086614173228346,
          "duration": 0.011627906976745095
        },
        {
          "name": "G#3",
          "midi": 56,
          "time": 30.08139534883742,
          "velocity": 0.3543307086614173,
          "duration": 0.02325581395349019
        },
        {
          "name": "D#4",
          "midi": 63,
          "time": 30.08139534883742,
          "velocity": 0.14960629921259844,
          "duration": 0.034883720930235285
        },
        {
          "name": "B0",
          "midi": 23,
          "time": 30.093023255814167,
          "velocity": 0.7244094488188977,
          "duration": 0.02325581395349019
        },
        {
          "name": "C1",
          "midi": 24,
          "time": 30.116279069767657,
          "velocity": 0.7480314960629921,
          "duration": 1.2325581395349374
        },
        {
          "name": "G#3",
          "midi": 56,
          "time": 30.116279069767657,
          "velocity": 0.4015748031496063,
          "duration": 0.02325581395349019
        },
        {
          "name": "D4",
          "midi": 62,
          "time": 30.127906976744402,
          "velocity": 0.2204724409448819,
          "duration": 0.06976744186047057
        },
        {
          "name": "F5",
          "midi": 77,
          "time": 30.127906976744402,
          "velocity": 0.29133858267716534,
          "duration": 0.3139534883721069
        },
        {
          "name": "G3",
          "midi": 55,
          "time": 30.139534883721147,
          "velocity": 0.4409448818897638,
          "duration": 0.034883720930235285
        },
        {
          "name": "A#5",
          "midi": 82,
          "time": 30.139534883721147,
          "velocity": 0.2125984251968504,
          "duration": 0.034883720930235285
        },
        {
          "name": "G#2",
          "midi": 44,
          "time": 30.162790697674637,
          "velocity": 0.23622047244094488,
          "duration": 0.02325581395349019
        },
        {
          "name": "F#3",
          "midi": 54,
          "time": 30.174418604651382,
          "velocity": 0.3228346456692913,
          "duration": 0.02325581395349019
        },
        {
          "name": "C#5",
          "midi": 73,
          "time": 30.174418604651382,
          "velocity": 0.23622047244094488,
          "duration": 0.02325581395349019
        },
        {
          "name": "C6",
          "midi": 84,
          "time": 30.186046511628128,
          "velocity": 0.2677165354330709,
          "duration": 0.058139534883725474
        },
        {
          "name": "D#6",
          "midi": 87,
          "time": 30.186046511628128,
          "velocity": 0.33070866141732286,
          "duration": 0.058139534883725474
        },
        {
          "name": "F4",
          "midi": 65,
          "time": 30.197674418604873,
          "velocity": 0.25984251968503935,
          "duration": 0.034883720930235285
        },
        {
          "name": "C5",
          "midi": 72,
          "time": 30.197674418604873,
          "velocity": 0.30708661417322836,
          "duration": 0.04651162790698038
        },
        {
          "name": "A5",
          "midi": 81,
          "time": 30.197674418604873,
          "velocity": 0.2047244094488189,
          "duration": 0.058139534883725474
        },
        {
          "name": "G5",
          "midi": 79,
          "time": 30.209302325581618,
          "velocity": 0.3543307086614173,
          "duration": 0.5116279069767629
        },
        {
          "name": "D#5",
          "midi": 75,
          "time": 30.220930232558363,
          "velocity": 0.13385826771653545,
          "duration": 0.06976744186046702
        },
        {
          "name": "E4",
          "midi": 64,
          "time": 30.232558139535108,
          "velocity": 0.2440944881889764,
          "duration": 0.02325581395349019
        },
        {
          "name": "G#3",
          "midi": 56,
          "time": 30.244186046511853,
          "velocity": 0.41732283464566927,
          "duration": 0.15116279069767558
        },
        {
          "name": "G2",
          "midi": 43,
          "time": 30.255813953488598,
          "velocity": 0.29133858267716534,
          "duration": 0.03488372093023173
        },
        {
          "name": "D#3",
          "midi": 51,
          "time": 30.255813953488598,
          "velocity": 0.3779527559055118,
          "duration": 0.03488372093023173
        },
        {
          "name": "A#5",
          "midi": 82,
          "time": 30.255813953488598,
          "velocity": 0.28346456692913385,
          "duration": 0.19767441860465595
        },
        {
          "name": "C5",
          "midi": 72,
          "time": 30.279069767442085,
          "velocity": 0.11811023622047244,
          "duration": 0.03488372093023173
        },
        {
          "name": "A#4",
          "midi": 70,
          "time": 30.29069767441883,
          "velocity": 0.3228346456692913,
          "duration": 0.15116279069767913
        },
        {
          "name": "D#5",
          "midi": 75,
          "time": 30.313953488372317,
          "velocity": 0.1732283464566929,
          "duration": 0.1046511627907023
        },
        {
          "name": "C#6",
          "midi": 85,
          "time": 30.313953488372317,
          "velocity": 0.3700787401574803,
          "duration": 0.05813953488372192
        },
        {
          "name": "D#4",
          "midi": 63,
          "time": 30.32558139534906,
          "velocity": 0.25196850393700787,
          "duration": 0.13953488372093759
        },
        {
          "name": "G4",
          "midi": 67,
          "time": 30.32558139534906,
          "velocity": 0.07874015748031496,
          "duration": 0.03488372093023173
        },
        {
          "name": "D#3",
          "midi": 51,
          "time": 30.34883720930255,
          "velocity": 0.25196850393700787,
          "duration": 0.02325581395349019
        },
        {
          "name": "D#3",
          "midi": 51,
          "time": 30.383720930232784,
          "velocity": 0.3858267716535433,
          "duration": 0.06976744186047057
        },
        {
          "name": "G#4",
          "midi": 68,
          "time": 30.39534883720953,
          "velocity": 0.2677165354330709,
          "duration": 0.02325581395349019
        },
        {
          "name": "G2",
          "midi": 43,
          "time": 30.406976744186274,
          "velocity": 0.3464566929133858,
          "duration": 0.02325581395349019
        },
        {
          "name": "G#3",
          "midi": 56,
          "time": 30.41860465116302,
          "velocity": 0.41732283464566927,
          "duration": 0.17441860465117287
        },
        {
          "name": "G4",
          "midi": 67,
          "time": 30.41860465116302,
          "velocity": 0.33858267716535434,
          "duration": 0.08139534883721566
        },
        {
          "name": "C5",
          "midi": 72,
          "time": 30.44186046511651,
          "velocity": 0.3543307086614173,
          "duration": 0.034883720930235285
        },
        {
          "name": "G2",
          "midi": 43,
          "time": 30.453488372093254,
          "velocity": 0.30708661417322836,
          "duration": 0.034883720930235285
        },
        {
          "name": "A#4",
          "midi": 70,
          "time": 30.453488372093254,
          "velocity": 0.4015748031496063,
          "duration": 0.2209302325581497
        },
        {
          "name": "E5",
          "midi": 76,
          "time": 30.453488372093254,
          "velocity": 0.23622047244094488,
          "duration": 0.034883720930235285
        },
        {
          "name": "B5",
          "midi": 83,
          "time": 30.46511627907,
          "velocity": 0.12598425196850394,
          "duration": 0.08139534883721566
        },
        {
          "name": "D6",
          "midi": 86,
          "time": 30.46511627907,
          "velocity": 0.1889763779527559,
          "duration": 0.36046511627908373
        },
        {
          "name": "A6",
          "midi": 93,
          "time": 30.476744186046744,
          "velocity": 0.11023622047244094,
          "duration": 0.034883720930235285
        },
        {
          "name": "D5",
          "midi": 74,
          "time": 30.48837209302349,
          "velocity": 0.3464566929133858,
          "duration": 0.13953488372093403
        },
        {
          "name": "F5",
          "midi": 77,
          "time": 30.48837209302349,
          "velocity": 0.33858267716535434,
          "duration": 0.25581395348838143
        },
        {
          "name": "F4",
          "midi": 65,
          "time": 30.500000000000234,
          "velocity": 0.2283464566929134,
          "duration": 0.058139534883725474
        },
        {
          "name": "G#2",
          "midi": 44,
          "time": 30.51162790697698,
          "velocity": 0.3228346456692913,
          "duration": 0.02325581395349019
        },
        {
          "name": "D4",
          "midi": 62,
          "time": 30.523255813953725,
          "velocity": 0.16535433070866143,
          "duration": 0.04651162790698038
        },
        {
          "name": "F4",
          "midi": 65,
          "time": 30.569767441860705,
          "velocity": 0.3858267716535433,
          "duration": 0.09302325581395365
        },
        {
          "name": "D#6",
          "midi": 87,
          "time": 30.569767441860705,
          "velocity": 0.2125984251968504,
          "duration": 0.31395348837210335
        },
        {
          "name": "G2",
          "midi": 43,
          "time": 30.604651162790937,
          "velocity": 0.3543307086614173,
          "duration": 0.03488372093023173
        },
        {
          "name": "G#3",
          "midi": 56,
          "time": 30.604651162790937,
          "velocity": 0.3937007874015748,
          "duration": 0.05813953488372192
        },
        {
          "name": "C5",
          "midi": 72,
          "time": 30.651162790697914,
          "velocity": 0.25196850393700787,
          "duration": 0.1046511627907023
        },
        {
          "name": "E4",
          "midi": 64,
          "time": 30.66279069767466,
          "velocity": 0.4015748031496063,
          "duration": 0.03488372093023173
        },
        {
          "name": "G#3",
          "midi": 56,
          "time": 30.674418604651404,
          "velocity": 0.30708661417322836,
          "duration": 0.05813953488372192
        },
        {
          "name": "D4",
          "midi": 62,
          "time": 30.709302325581636,
          "velocity": 0.33858267716535434,
          "duration": 0.034883720930235285
        },
        {
          "name": "G#4",
          "midi": 68,
          "time": 30.732558139535126,
          "velocity": 0.2992125984251969,
          "duration": 0.08139534883721211
        },
        {
          "name": "G5",
          "midi": 79,
          "time": 30.732558139535126,
          "velocity": 0.2047244094488189,
          "duration": 0.0930232558139572
        },
        {
          "name": "D#5",
          "midi": 75,
          "time": 30.74418604651187,
          "velocity": 0.08661417322834646,
          "duration": 0.03488372093023173
        },
        {
          "name": "G2",
          "midi": 43,
          "time": 30.790697674418848,
          "velocity": 0.33858267716535434,
          "duration": 0.034883720930235285
        },
        {
          "name": "G#3",
          "midi": 56,
          "time": 30.790697674418848,
          "velocity": 0.41732283464566927,
          "duration": 0.06976744186047057
        },
        {
          "name": "A#4",
          "midi": 70,
          "time": 30.802325581395593,
          "velocity": 0.33858267716535434,
          "duration": 0.09302325581396076
        },
        {
          "name": "D#5",
          "midi": 75,
          "time": 30.837209302325828,
          "velocity": 0.13385826771653545,
          "duration": 0.034883720930235285
        },
        {
          "name": "G5",
          "midi": 79,
          "time": 30.848837209302573,
          "velocity": 0.11811023622047244,
          "duration": 0.04651162790698038
        },
        {
          "name": "D4",
          "midi": 62,
          "time": 30.860465116279318,
          "velocity": 0.3700787401574803,
          "duration": 0.02325581395349019
        },
        {
          "name": "D#3",
          "midi": 51,
          "time": 30.872093023256063,
          "velocity": 0.4015748031496063,
          "duration": 0.04651162790698038
        },
        {
          "name": "G6",
          "midi": 91,
          "time": 30.872093023256063,
          "velocity": 0.4094488188976378,
          "duration": 0.2906976744186238
        },
        {
          "name": "A6",
          "midi": 93,
          "time": 30.872093023256063,
          "velocity": 0.4409448818897638,
          "duration": 0.33720930232560065
        },
        {
          "name": "A3",
          "midi": 57,
          "time": 30.88372093023281,
          "velocity": 0.31496062992125984,
          "duration": 0.02325581395349019
        },
        {
          "name": "E5",
          "midi": 76,
          "time": 30.88372093023281,
          "velocity": 0.23622047244094488,
          "duration": 0.02325581395349019
        },
        {
          "name": "G#5",
          "midi": 80,
          "time": 30.88372093023281,
          "velocity": 0.1732283464566929,
          "duration": 0.034883720930235285
        },
        {
          "name": "F6",
          "midi": 89,
          "time": 30.88372093023281,
          "velocity": 0.18110236220472442,
          "duration": 0.18604651162792152
        },
        {
          "name": "F#6",
          "midi": 90,
          "time": 30.88372093023281,
          "velocity": 0.13385826771653545,
          "duration": 0.034883720930235285
        },
        {
          "name": "G#6",
          "midi": 92,
          "time": 30.88372093023281,
          "velocity": 0.31496062992125984,
          "duration": 0.034883720930235285
        },
        {
          "name": "B4",
          "midi": 71,
          "time": 30.895348837209553,
          "velocity": 0.3858267716535433,
          "duration": 0.034883720930235285
        },
        {
          "name": "F5",
          "midi": 77,
          "time": 30.895348837209553,
          "velocity": 0.3228346456692913,
          "duration": 0.09302325581396076
        },
        {
          "name": "E7",
          "midi": 100,
          "time": 30.895348837209553,
          "velocity": 0.18110236220472442,
          "duration": 0.08139534883721566
        },
        {
          "name": "F7",
          "midi": 101,
          "time": 30.895348837209553,
          "velocity": 0.33858267716535434,
          "duration": 0.29069767441862027
        },
        {
          "name": "A5",
          "midi": 81,
          "time": 30.9069767441863,
          "velocity": 0.2204724409448819,
          "duration": 0.06976744186047057
        },
        {
          "name": "C6",
          "midi": 84,
          "time": 30.9069767441863,
          "velocity": 0.16535433070866143,
          "duration": 0.058139534883725474
        },
        {
          "name": "G3",
          "midi": 55,
          "time": 30.918604651163044,
          "velocity": 0.33070866141732286,
          "duration": 0.02325581395349019
        },
        {
          "name": "C5",
          "midi": 72,
          "time": 30.918604651163044,
          "velocity": 0.31496062992125984,
          "duration": 0.058139534883725474
        },
        {
          "name": "B6",
          "midi": 95,
          "time": 30.918604651163044,
          "velocity": 0.2440944881889764,
          "duration": 0.1976744186046666
        },
        {
          "name": "F4",
          "midi": 65,
          "time": 30.93023255813979,
          "velocity": 0.2125984251968504,
          "duration": 0.034883720930235285
        },
        {
          "name": "F#7",
          "midi": 102,
          "time": 30.93023255813979,
          "velocity": 0.25196850393700787,
          "duration": 0.18604651162792152
        },
        {
          "name": "F3",
          "midi": 53,
          "time": 30.941860465116534,
          "velocity": 0.3858267716535433,
          "duration": 0.02325581395349019
        },
        {
          "name": "D#6",
          "midi": 87,
          "time": 30.95348837209328,
          "velocity": 0.12598425196850394,
          "duration": 0.12790697674419604
        },
        {
          "name": "G#6",
          "midi": 92,
          "time": 30.95348837209328,
          "velocity": 0.1968503937007874,
          "duration": 0.058139534883725474
        },
        {
          "name": "G3",
          "midi": 55,
          "time": 30.965116279070024,
          "velocity": 0.4015748031496063,
          "duration": 0.034883720930235285
        },
        {
          "name": "B5",
          "midi": 83,
          "time": 30.965116279070024,
          "velocity": 0.1968503937007874,
          "duration": 0.12790697674419604
        },
        {
          "name": "D#4",
          "midi": 63,
          "time": 30.97674418604677,
          "velocity": 0.25196850393700787,
          "duration": 0.2674418604651301
        },
        {
          "name": "D5",
          "midi": 74,
          "time": 30.97674418604677,
          "velocity": 0.3700787401574803,
          "duration": 0.13953488372094114
        },
        {
          "name": "G5",
          "midi": 79,
          "time": 30.97674418604677,
          "velocity": 0.3779527559055118,
          "duration": 0.6511627906976969
        },
        {
          "name": "C#7",
          "midi": 97,
          "time": 30.988372093023514,
          "velocity": 0.14173228346456693,
          "duration": 0.04651162790698038
        },
        {
          "name": "G4",
          "midi": 67,
          "time": 31.00000000000026,
          "velocity": 0.44881889763779526,
          "duration": 0.30232558139535826
        },
        {
          "name": "F5",
          "midi": 77,
          "time": 31.00000000000026,
          "velocity": 0.11811023622047244,
          "duration": 0.04651162790698038
        },
        {
          "name": "G3",
          "midi": 55,
          "time": 31.011627906977004,
          "velocity": 0.4566929133858268,
          "duration": 0.2209302325581497
        },
        {
          "name": "D#7",
          "midi": 99,
          "time": 31.02325581395375,
          "velocity": 0.14173228346456693,
          "duration": 0.034883720930235285
        },
        {
          "name": "C7",
          "midi": 96,
          "time": 31.034883720930495,
          "velocity": 0.2440944881889764,
          "duration": 0.04651162790698038
        },
        {
          "name": "E7",
          "midi": 100,
          "time": 31.034883720930495,
          "velocity": 0.12598425196850394,
          "duration": 0.034883720930235285
        },
        {
          "name": "A#6",
          "midi": 94,
          "time": 31.058139534883985,
          "velocity": 0.2047244094488189,
          "duration": 0.04651162790698038
        },
        {
          "name": "C#7",
          "midi": 97,
          "time": 31.06976744186073,
          "velocity": 0.2204724409448819,
          "duration": 0.04651162790698038
        },
        {
          "name": "G2",
          "midi": 43,
          "time": 31.081395348837475,
          "velocity": 0.29133858267716534,
          "duration": 0.02325581395349019
        },
        {
          "name": "C5",
          "midi": 72,
          "time": 31.104651162790965,
          "velocity": 0.08661417322834646,
          "duration": 0.034883720930235285
        },
        {
          "name": "D5",
          "midi": 74,
          "time": 31.127906976744455,
          "velocity": 0.25984251968503935,
          "duration": 0.08139534883720856
        },
        {
          "name": "G#6",
          "midi": 92,
          "time": 31.127906976744455,
          "velocity": 0.31496062992125984,
          "duration": 0.03488372093023173
        },
        {
          "name": "E7",
          "midi": 100,
          "time": 31.127906976744455,
          "velocity": 0.16535433070866143,
          "duration": 0.05813953488371837
        },
        {
          "name": "B6",
          "midi": 95,
          "time": 31.1395348837212,
          "velocity": 0.1968503937007874,
          "duration": 0.08139534883720856
        },
        {
          "name": "C#7",
          "midi": 97,
          "time": 31.162790697674687,
          "velocity": 0.07874015748031496,
          "duration": 0.03488372093023173
        },
        {
          "name": "A#5",
          "midi": 82,
          "time": 31.186046511628174,
          "velocity": 0.07874015748031496,
          "duration": 0.0930232558139572
        },
        {
          "name": "G2",
          "midi": 43,
          "time": 31.232558139535154,
          "velocity": 0.30708661417322836,
          "duration": 0.02325581395349019
        },
        {
          "name": "D#4",
          "midi": 63,
          "time": 31.255813953488644,
          "velocity": 0.2755905511811024,
          "duration": 0.39534883720930836
        },
        {
          "name": "D#3",
          "midi": 51,
          "time": 31.27906976744213,
          "velocity": 0.2440944881889764,
          "duration": 0.023255813953486637
        },
        {
          "name": "G3",
          "midi": 55,
          "time": 31.302325581395618,
          "velocity": 0.30708661417322836,
          "duration": 0.023255813953486637
        },
        {
          "name": "G4",
          "midi": 67,
          "time": 31.325581395349104,
          "velocity": 0.4566929133858268,
          "duration": 0.10465116279070585
        },
        {
          "name": "G3",
          "midi": 55,
          "time": 31.33720930232585,
          "velocity": 0.3937007874015748,
          "duration": 0.09302325581396076
        },
        {
          "name": "A6",
          "midi": 93,
          "time": 31.33720930232585,
          "velocity": 0.4881889763779528,
          "duration": 0.2325581395348948
        },
        {
          "name": "C#1",
          "midi": 25,
          "time": 31.348837209302594,
          "velocity": 0.7559055118110236,
          "duration": 0.011627906976745095
        },
        {
          "name": "E7",
          "midi": 100,
          "time": 31.348837209302594,
          "velocity": 0.29133858267716534,
          "duration": 0.058139534883725474
        },
        {
          "name": "D1",
          "midi": 26,
          "time": 31.36046511627934,
          "velocity": 0.7165354330708661,
          "duration": 0.011627906976745095
        },
        {
          "name": "D5",
          "midi": 74,
          "time": 31.36046511627934,
          "velocity": 0.29133858267716534,
          "duration": 0.1976744186046595
        },
        {
          "name": "B6",
          "midi": 95,
          "time": 31.36046511627934,
          "velocity": 0.2125984251968504,
          "duration": 0.1860465116279144
        },
        {
          "name": "D#7",
          "midi": 99,
          "time": 31.36046511627934,
          "velocity": 0.2992125984251969,
          "duration": 0.16279069767442422
        },
        {
          "name": "B0",
          "midi": 23,
          "time": 31.372093023256085,
          "velocity": 0.6220472440944882,
          "duration": 0.011627906976745095
        },
        {
          "name": "F0",
          "midi": 17,
          "time": 31.38372093023283,
          "velocity": 0.5118110236220472,
          "duration": 0.011627906976745095
        },
        {
          "name": "D#6",
          "midi": 87,
          "time": 31.38372093023283,
          "velocity": 0.2047244094488189,
          "duration": 0.058139534883725474
        },
        {
          "name": "D7",
          "midi": 98,
          "time": 31.38372093023283,
          "velocity": 0.1889763779527559,
          "duration": 0.04651162790698038
        },
        {
          "name": "F7",
          "midi": 101,
          "time": 31.38372093023283,
          "velocity": 0.31496062992125984,
          "duration": 0.08139534883721211
        },
        {
          "name": "F#7",
          "midi": 102,
          "time": 31.38372093023283,
          "velocity": 0.12598425196850394,
          "duration": 0.13953488372093403
        },
        {
          "name": "C6",
          "midi": 84,
          "time": 31.395348837209575,
          "velocity": 0.14960629921259844,
          "duration": 0.034883720930235285
        },
        {
          "name": "G0",
          "midi": 19,
          "time": 31.40697674418632,
          "velocity": 0.4566929133858268,
          "duration": 0.02325581395349019
        },
        {
          "name": "B5",
          "midi": 83,
          "time": 31.40697674418632,
          "velocity": 0.11811023622047244,
          "duration": 0.034883720930235285
        },
        {
          "name": "C#6",
          "midi": 85,
          "time": 31.418604651163065,
          "velocity": 0.2125984251968504,
          "duration": 0.04651162790697683
        },
        {
          "name": "C7",
          "midi": 96,
          "time": 31.418604651163065,
          "velocity": 0.25984251968503935,
          "duration": 0.10465116279069875
        },
        {
          "name": "E7",
          "midi": 100,
          "time": 31.418604651163065,
          "velocity": 0.23622047244094488,
          "duration": 0.05813953488372192
        },
        {
          "name": "A#6",
          "midi": 94,
          "time": 31.43023255813981,
          "velocity": 0.10236220472440945,
          "duration": 0.03488372093023173
        },
        {
          "name": "G3",
          "midi": 55,
          "time": 31.441860465116555,
          "velocity": 0.3937007874015748,
          "duration": 0.11627906976744384
        },
        {
          "name": "G4",
          "midi": 67,
          "time": 31.441860465116555,
          "velocity": 0.4409448818897638,
          "duration": 0.16279069767442067
        },
        {
          "name": "F6",
          "midi": 89,
          "time": 31.441860465116555,
          "velocity": 0.10236220472440945,
          "duration": 0.03488372093023173
        },
        {
          "name": "B5",
          "midi": 83,
          "time": 31.476744186046787,
          "velocity": 0.11811023622047244,
          "duration": 0.05813953488372192
        },
        {
          "name": "F7",
          "midi": 101,
          "time": 31.476744186046787,
          "velocity": 0.18110236220472442,
          "duration": 0.06976744186046702
        },
        {
          "name": "F3",
          "midi": 53,
          "time": 31.59302325581423,
          "velocity": 0.2283464566929134,
          "duration": 0.02325581395349019
        },
        {
          "name": "G3",
          "midi": 55,
          "time": 31.61627906976772,
          "velocity": 0.4015748031496063,
          "duration": 0.10465116279069875
        },
        {
          "name": "G4",
          "midi": 67,
          "time": 31.61627906976772,
          "velocity": 0.41732283464566927,
          "duration": 0.09302325581395365
        },
        {
          "name": "B4",
          "midi": 71,
          "time": 31.61627906976772,
          "velocity": 0.2125984251968504,
          "duration": 0.03488372093023173
        },
        {
          "name": "D5",
          "midi": 74,
          "time": 31.61627906976772,
          "velocity": 0.4566929133858268,
          "duration": 0.31395348837210335
        },
        {
          "name": "A#5",
          "midi": 82,
          "time": 31.61627906976772,
          "velocity": 0.14173228346456693,
          "duration": 0.03488372093023173
        },
        {
          "name": "A6",
          "midi": 93,
          "time": 31.627906976744466,
          "velocity": 0.14173228346456693,
          "duration": 0.06976744186046346
        },
        {
          "name": "C3",
          "midi": 48,
          "time": 31.651162790697953,
          "velocity": 0.1889763779527559,
          "duration": 0.03488372093023173
        },
        {
          "name": "D4",
          "midi": 62,
          "time": 31.651162790697953,
          "velocity": 0.2677165354330709,
          "duration": 0.38372093023256326
        },
        {
          "name": "A#4",
          "midi": 70,
          "time": 31.651162790697953,
          "velocity": 0.1968503937007874,
          "duration": 0.0930232558139572
        },
        {
          "name": "B5",
          "midi": 83,
          "time": 31.651162790697953,
          "velocity": 0.13385826771653545,
          "duration": 0.04651162790697683
        },
        {
          "name": "F6",
          "midi": 89,
          "time": 31.651162790697953,
          "velocity": 0.2125984251968504,
          "duration": 0.05813953488372192
        },
        {
          "name": "A5",
          "midi": 81,
          "time": 31.69767441860493,
          "velocity": 0.07874015748031496,
          "duration": 0.04651162790698038
        },
        {
          "name": "F3",
          "midi": 53,
          "time": 31.72093023255842,
          "velocity": 0.25196850393700787,
          "duration": 0.04651162790697683
        },
        {
          "name": "G5",
          "midi": 79,
          "time": 31.732558139535165,
          "velocity": 0.41732283464566927,
          "duration": 0.5813953488371908
        },
        {
          "name": "G4",
          "midi": 67,
          "time": 31.767441860465397,
          "velocity": 0.2992125984251969,
          "duration": 0.0930232558139572
        },
        {
          "name": "G3",
          "midi": 55,
          "time": 31.77906976744214,
          "velocity": 0.3464566929133858,
          "duration": 0.04651162790697683
        },
        {
          "name": "B5",
          "midi": 83,
          "time": 31.77906976744214,
          "velocity": 0.3228346456692913,
          "duration": 0.13953488372093759
        },
        {
          "name": "F6",
          "midi": 89,
          "time": 31.77906976744214,
          "velocity": 0.4094488188976378,
          "duration": 0.1162790697674474
        },
        {
          "name": "G#6",
          "midi": 92,
          "time": 31.77906976744214,
          "velocity": 0.2677165354330709,
          "duration": 0.06976744186046702
        },
        {
          "name": "A6",
          "midi": 93,
          "time": 31.77906976744214,
          "velocity": 0.36220472440944884,
          "duration": 0.24418604651163278
        },
        {
          "name": "C6",
          "midi": 84,
          "time": 31.790697674418887,
          "velocity": 0.1732283464566929,
          "duration": 0.03488372093023173
        },
        {
          "name": "D#6",
          "midi": 87,
          "time": 31.790697674418887,
          "velocity": 0.2755905511811024,
          "duration": 0.03488372093023173
        },
        {
          "name": "F5",
          "midi": 77,
          "time": 31.813953488372373,
          "velocity": 0.1968503937007874,
          "duration": 0.034883720930235285
        },
        {
          "name": "G3",
          "midi": 55,
          "time": 31.837209302325864,
          "velocity": 0.33858267716535434,
          "duration": 0.09302325581396076
        },
        {
          "name": "B4",
          "midi": 71,
          "time": 31.860465116279354,
          "velocity": 0.2125984251968504,
          "duration": 0.034883720930235285
        },
        {
          "name": "A5",
          "midi": 81,
          "time": 31.860465116279354,
          "velocity": 0.10236220472440945,
          "duration": 0.058139534883725474
        },
        {
          "name": "D#6",
          "midi": 87,
          "time": 31.860465116279354,
          "velocity": 0.3228346456692913,
          "duration": 0.02325581395349019
        },
        {
          "name": "G#6",
          "midi": 92,
          "time": 31.860465116279354,
          "velocity": 0.30708661417322836,
          "duration": 0.04651162790698038
        },
        {
          "name": "A#6",
          "midi": 94,
          "time": 31.8720930232561,
          "velocity": 0.25984251968503935,
          "duration": 0.02325581395349019
        },
        {
          "name": "A#4",
          "midi": 70,
          "time": 31.94186046511657,
          "velocity": 0.15748031496062992,
          "duration": 0.05813953488372192
        },
        {
          "name": "A5",
          "midi": 81,
          "time": 31.953488372093314,
          "velocity": 0.08661417322834646,
          "duration": 0.093023255813943
        },
        {
          "name": "D#3",
          "midi": 51,
          "time": 31.96511627907006,
          "velocity": 0.28346456692913385,
          "duration": 0.046511627906973274
        },
        {
          "name": "D5",
          "midi": 74,
          "time": 31.96511627907006,
          "velocity": 0.28346456692913385,
          "duration": 0.1395348837209056
        },
        {
          "name": "D6",
          "midi": 86,
          "time": 31.988372093023546,
          "velocity": 0.3543307086614173,
          "duration": 0.08139534883719435
        },
        {
          "name": "F4",
          "midi": 65,
          "time": 32.00000000000029,
          "velocity": 0.2677165354330709,
          "duration": 0.034883720930224626
        },
        {
          "name": "F3",
          "midi": 53,
          "time": 32.01162790697703,
          "velocity": 0.33070866141732286,
          "duration": 0.034883720930224626
        },
        {
          "name": "D#4",
          "midi": 63,
          "time": 32.034883720930516,
          "velocity": 0.25196850393700787,
          "duration": 0.023255813953483084
        },
        {
          "name": "G4",
          "midi": 67,
          "time": 32.034883720930516,
          "velocity": 0.1732283464566929,
          "duration": 0.12790697674416407
        },
        {
          "name": "D4",
          "midi": 62,
          "time": 32.04651162790726,
          "velocity": 0.33858267716535434,
          "duration": 0.04651162790696617
        },
        {
          "name": "D#3",
          "midi": 51,
          "time": 32.058139534884,
          "velocity": 0.33858267716535434,
          "duration": 0.2906976744185812
        },
        {
          "name": "B5",
          "midi": 83,
          "time": 32.058139534884,
          "velocity": 0.18110236220472442,
          "duration": 0.04651162790696617
        },
        {
          "name": "C6",
          "midi": 84,
          "time": 32.06976744186074,
          "velocity": 0.14173228346456693,
          "duration": 0.05813953488370771
        },
        {
          "name": "D#6",
          "midi": 87,
          "time": 32.06976744186074,
          "velocity": 0.33858267716535434,
          "duration": 0.04651162790696617
        },
        {
          "name": "A6",
          "midi": 93,
          "time": 32.06976744186074,
          "velocity": 0.12598425196850394,
          "duration": 0.034883720930224626
        },
        {
          "name": "D6",
          "midi": 86,
          "time": 32.08139534883748,
          "velocity": 0.3543307086614173,
          "duration": 0.2674418604650981
        },
        {
          "name": "F#6",
          "midi": 90,
          "time": 32.08139534883748,
          "velocity": 0.13385826771653545,
          "duration": 0.034883720930224626
        },
        {
          "name": "D#4",
          "midi": 63,
          "time": 32.093023255814224,
          "velocity": 0.4251968503937008,
          "duration": 0.2093023255813904
        },
        {
          "name": "C#6",
          "midi": 85,
          "time": 32.093023255814224,
          "velocity": 0.1968503937007874,
          "duration": 0.034883720930224626
        },
        {
          "name": "E7",
          "midi": 100,
          "time": 32.093023255814224,
          "velocity": 0.11811023622047244,
          "duration": 0.04651162790696617
        },
        {
          "name": "A#5",
          "midi": 82,
          "time": 32.104651162790965,
          "velocity": 0.41732283464566927,
          "duration": 0.27906976744183964
        },
        {
          "name": "A#4",
          "midi": 70,
          "time": 32.11627906976771,
          "velocity": 0.44881889763779526,
          "duration": 0.23255813953487348
        },
        {
          "name": "C#6",
          "midi": 85,
          "time": 32.17441860465142,
          "velocity": 0.14173228346456693,
          "duration": 0.1279069767441925
        },
        {
          "name": "D5",
          "midi": 74,
          "time": 32.255813953488634,
          "velocity": 0.25984251968503935,
          "duration": 0.04651162790698038
        },
        {
          "name": "A6",
          "midi": 93,
          "time": 32.255813953488634,
          "velocity": 0.11023622047244094,
          "duration": 0.09302325581394655
        },
        {
          "name": "G4",
          "midi": 67,
          "time": 32.279069767442124,
          "velocity": 0.2992125984251969,
          "duration": 0.0813953488371979
        },
        {
          "name": "F6",
          "midi": 89,
          "time": 32.279069767442124,
          "velocity": 0.11023622047244094,
          "duration": 0.046511627906973274
        },
        {
          "name": "C6",
          "midi": 84,
          "time": 32.302325581395614,
          "velocity": 0.31496062992125984,
          "duration": 0.06976744186044925
        },
        {
          "name": "D5",
          "midi": 74,
          "time": 32.313953488372356,
          "velocity": 0.3779527559055118,
          "duration": 0.06976744186044925
        },
        {
          "name": "G#2",
          "midi": 44,
          "time": 32.3255813953491,
          "velocity": 0.31496062992125984,
          "duration": 0.09302325581393234
        },
        {
          "name": "A5",
          "midi": 81,
          "time": 32.3255813953491,
          "velocity": 0.2125984251968504,
          "duration": 0.06976744186044925
        },
        {
          "name": "D#4",
          "midi": 63,
          "time": 32.33720930232584,
          "velocity": 0.44881889763779526,
          "duration": 0.0813953488371908
        },
        {
          "name": "B5",
          "midi": 83,
          "time": 32.37209302325606,
          "velocity": 0.29133858267716534,
          "duration": 0.034883720930224626
        },
        {
          "name": "G4",
          "midi": 67,
          "time": 32.383720930232805,
          "velocity": 0.1968503937007874,
          "duration": 0.06976744186045636
        },
        {
          "name": "A#4",
          "midi": 70,
          "time": 32.395348837209546,
          "velocity": 0.13385826771653545,
          "duration": 0.046511627906973274
        },
        {
          "name": "A#6",
          "midi": 94,
          "time": 32.395348837209546,
          "velocity": 0.10236220472440945,
          "duration": 0.16279069767441
        },
        {
          "name": "A#5",
          "midi": 82,
          "time": 32.40697674418629,
          "velocity": 0.36220472440944884,
          "duration": 0.5348837209301962
        },
        {
          "name": "D4",
          "midi": 62,
          "time": 32.44186046511652,
          "velocity": 0.16535433070866143,
          "duration": 0.03488372093023173
        },
        {
          "name": "D4",
          "midi": 62,
          "time": 32.50000000000024,
          "velocity": 0.4015748031496063,
          "duration": 0.046511627906973274
        },
        {
          "name": "F5",
          "midi": 77,
          "time": 32.52325581395373,
          "velocity": 0.2755905511811024,
          "duration": 0.09302325581393234
        },
        {
          "name": "D#4",
          "midi": 63,
          "time": 32.53488372093047,
          "velocity": 0.36220472440944884,
          "duration": 0.04651162790696617
        },
        {
          "name": "A#4",
          "midi": 70,
          "time": 32.53488372093047,
          "velocity": 0.3700787401574803,
          "duration": 0.09302325581393234
        },
        {
          "name": "G#3",
          "midi": 56,
          "time": 32.546511627907215,
          "velocity": 0.3228346456692913,
          "duration": 0.023255813953483084
        },
        {
          "name": "G#2",
          "midi": 44,
          "time": 32.558139534883956,
          "velocity": 0.25984251968503935,
          "duration": 0.0813953488371908
        },
        {
          "name": "D4",
          "midi": 62,
          "time": 32.58139534883744,
          "velocity": 0.33070866141732286,
          "duration": 0.023255813953483084
        },
        {
          "name": "A#3",
          "midi": 58,
          "time": 32.59302325581418,
          "velocity": 0.25984251968503935,
          "duration": 0.04651162790696617
        },
        {
          "name": "D#4",
          "midi": 63,
          "time": 32.627906976744406,
          "velocity": 0.33070866141732286,
          "duration": 0.12790697674417117
        },
        {
          "name": "A#4",
          "midi": 70,
          "time": 32.63953488372115,
          "velocity": 0.2047244094488189,
          "duration": 0.11627906976742963
        },
        {
          "name": "C6",
          "midi": 84,
          "time": 32.63953488372115,
          "velocity": 0.15748031496062992,
          "duration": 0.06976744186046346
        },
        {
          "name": "G#2",
          "midi": 44,
          "time": 32.66279069767464,
          "velocity": 0.31496062992125984,
          "duration": 0.5116279069767131
        },
        {
          "name": "G4",
          "midi": 67,
          "time": 32.69767441860487,
          "velocity": 0.13385826771653545,
          "duration": 0.04651162790696617
        },
        {
          "name": "G3",
          "midi": 55,
          "time": 32.72093023255835,
          "velocity": 0.33070866141732286,
          "duration": 0.034883720930224626
        },
        {
          "name": "G#5",
          "midi": 80,
          "time": 32.732558139535094,
          "velocity": 0.1968503937007874,
          "duration": 0.081395348837205
        },
        {
          "name": "E5",
          "midi": 76,
          "time": 32.744186046511835,
          "velocity": 0.28346456692913385,
          "duration": 0.03488372093023173
        },
        {
          "name": "G#3",
          "midi": 56,
          "time": 32.75581395348858,
          "velocity": 0.4094488188976378,
          "duration": 0.12790697674418539
        },
        {
          "name": "D4",
          "midi": 62,
          "time": 32.75581395348858,
          "velocity": 0.36220472440944884,
          "duration": 0.02325581395349019
        },
        {
          "name": "D#4",
          "midi": 63,
          "time": 32.77906976744207,
          "velocity": 0.3543307086614173,
          "duration": 0.13953488372092693
        },
        {
          "name": "A5",
          "midi": 81,
          "time": 32.80232558139556,
          "velocity": 0.09448818897637795,
          "duration": 0.03488372093023173
        },
        {
          "name": "G4",
          "midi": 67,
          "time": 32.83720930232579,
          "velocity": 0.2283464566929134,
          "duration": 0.046511627906973274
        },
        {
          "name": "A#4",
          "midi": 70,
          "time": 32.895348837209504,
          "velocity": 0.1732283464566929,
          "duration": 0.06976744186046346
        },
        {
          "name": "F5",
          "midi": 77,
          "time": 32.895348837209504,
          "velocity": 0.12598425196850394,
          "duration": 0.04651162790698038
        },
        {
          "name": "G#3",
          "midi": 56,
          "time": 32.918604651162994,
          "velocity": 0.4094488188976378,
          "duration": 0.27906976744183964
        },
        {
          "name": "D4",
          "midi": 62,
          "time": 32.918604651162994,
          "velocity": 0.25196850393700787,
          "duration": 0.03488372093023173
        },
        {
          "name": "A#5",
          "midi": 82,
          "time": 32.96511627906997,
          "velocity": 0.2440944881889764,
          "duration": 0.06976744186046346
        },
        {
          "name": "C6",
          "midi": 84,
          "time": 32.96511627906997,
          "velocity": 0.18110236220472442,
          "duration": 0.03488372093023173
        },
        {
          "name": "F5",
          "midi": 77,
          "time": 32.97674418604671,
          "velocity": 0.31496062992125984,
          "duration": 0.6744186046511231
        },
        {
          "name": "D#4",
          "midi": 63,
          "time": 33.0000000000002,
          "velocity": 0.16535433070866143,
          "duration": 0.058139534883714816
        },
        {
          "name": "D#5",
          "midi": 75,
          "time": 33.03488372093043,
          "velocity": 0.2755905511811024,
          "duration": 0.267441860465091
        },
        {
          "name": "A#5",
          "midi": 82,
          "time": 33.04651162790717,
          "velocity": 0.1889763779527559,
          "duration": 0.03488372093023173
        },
        {
          "name": "E4",
          "midi": 64,
          "time": 33.058139534883914,
          "velocity": 0.11023622047244094,
          "duration": 0.03488372093023173
        },
        {
          "name": "A#4",
          "midi": 70,
          "time": 33.081395348837404,
          "velocity": 0.14173228346456693,
          "duration": 0.058139534883714816
        },
        {
          "name": "D#4",
          "midi": 63,
          "time": 33.093023255814146,
          "velocity": 0.1968503937007874,
          "duration": 0.09302325581394655
        },
        {
          "name": "A#5",
          "midi": 82,
          "time": 33.10465116279089,
          "velocity": 0.1732283464566929,
          "duration": 0.03488372093023173
        },
        {
          "name": "A#5",
          "midi": 82,
          "time": 33.16279069767461,
          "velocity": 0.11811023622047244,
          "duration": 0.034883720930224626
        },
        {
          "name": "G#2",
          "midi": 44,
          "time": 33.18604651162809,
          "velocity": 0.33858267716535434,
          "duration": 0.058139534883714816
        },
        {
          "name": "D#4",
          "midi": 63,
          "time": 33.197674418604834,
          "velocity": 0.2677165354330709,
          "duration": 0.12790697674417828
        },
        {
          "name": "G#3",
          "midi": 56,
          "time": 33.209302325581575,
          "velocity": 0.4330708661417323,
          "duration": 0.7441860465115937
        },
        {
          "name": "A#5",
          "midi": 82,
          "time": 33.232558139535065,
          "velocity": 0.09448818897637795,
          "duration": 0.058139534883714816
        },
        {
          "name": "G2",
          "midi": 43,
          "time": 33.24418604651181,
          "velocity": 0.31496062992125984,
          "duration": 0.046511627906973274
        },
        {
          "name": "D#5",
          "midi": 75,
          "time": 33.32558139534901,
          "velocity": 0.2283464566929134,
          "duration": 0.30232558139533694
        },
        {
          "name": "A#5",
          "midi": 82,
          "time": 33.32558139534901,
          "velocity": 0.11811023622047244,
          "duration": 0.081395348837205
        },
        {
          "name": "G#2",
          "midi": 44,
          "time": 33.33720930232575,
          "velocity": 0.1968503937007874,
          "duration": 0.09302325581395365
        },
        {
          "name": "G#2",
          "midi": 44,
          "time": 33.44186046511645,
          "velocity": 0.2125984251968504,
          "duration": 0.13953488372092693
        },
        {
          "name": "D#4",
          "midi": 63,
          "time": 33.44186046511645,
          "velocity": 0.2204724409448819,
          "duration": 0.19767441860464174
        },
        {
          "name": "A#4",
          "midi": 70,
          "time": 33.5348837209304,
          "velocity": 0.13385826771653545,
          "duration": 0.12790697674417117
        },
        {
          "name": "G2",
          "midi": 43,
          "time": 33.581395348837376,
          "velocity": 0.1968503937007874,
          "duration": 0.046511627906973274
        },
        {
          "name": "G5",
          "midi": 79,
          "time": 33.63953488372109,
          "velocity": 0.3779527559055118,
          "duration": 0.0813953488371979
        },
        {
          "name": "D6",
          "midi": 86,
          "time": 33.63953488372109,
          "velocity": 0.15748031496062992,
          "duration": 0.0813953488371979
        },
        {
          "name": "G4",
          "midi": 67,
          "time": 33.65116279069783,
          "velocity": 0.3937007874015748,
          "duration": 0.11627906976742963
        },
        {
          "name": "C3",
          "midi": 48,
          "time": 33.697674418604805,
          "velocity": 0.1732283464566929,
          "duration": 0.04651162790696617
        },
        {
          "name": "D5",
          "midi": 74,
          "time": 33.697674418604805,
          "velocity": 0.14173228346456693,
          "duration": 0.034883720930224626
        },
        {
          "name": "C5",
          "midi": 72,
          "time": 33.70930232558155,
          "velocity": 0.1732283464566929,
          "duration": 0.034883720930224626
        },
        {
          "name": "F5",
          "midi": 77,
          "time": 33.72093023255829,
          "velocity": 0.16535433070866143,
          "duration": 0.2906976744185954
        },
        {
          "name": "D#5",
          "midi": 75,
          "time": 33.883720930232705,
          "velocity": 0.11023622047244094,
          "duration": 0.1046511627906952
        },
        {
          "name": "G#3",
          "midi": 56,
          "time": 33.96511627906991,
          "velocity": 0.4330708661417323,
          "duration": 0.3488372093023102
        },
        {
          "name": "G4",
          "midi": 67,
          "time": 34.00000000000014,
          "velocity": 0.25196850393700787,
          "duration": 0.09302325581394655
        },
        {
          "name": "D6",
          "midi": 86,
          "time": 34.08139534883735,
          "velocity": 0.2283464566929134,
          "duration": 0.081395348837205
        },
        {
          "name": "C3",
          "midi": 48,
          "time": 34.11627906976758,
          "velocity": 0.1732283464566929,
          "duration": 0.13953488372092693
        },
        {
          "name": "D#6",
          "midi": 87,
          "time": 34.16279069767455,
          "velocity": 0.23622047244094488,
          "duration": 0.4069767441860037
        },
        {
          "name": "D6",
          "midi": 86,
          "time": 34.174418604651294,
          "velocity": 0.1732283464566929,
          "duration": 0.22093023255813193
        },
        {
          "name": "F5",
          "midi": 77,
          "time": 34.197674418604784,
          "velocity": 0.10236220472440945,
          "duration": 0.06976744186046346
        },
        {
          "name": "G5",
          "midi": 79,
          "time": 34.232558139535016,
          "velocity": 0.2677165354330709,
          "duration": 0.13953488372091982
        },
        {
          "name": "C3",
          "midi": 48,
          "time": 34.27906976744199,
          "velocity": 0.11811023622047244,
          "duration": 0.03488372093023173
        },
        {
          "name": "F#3",
          "midi": 54,
          "time": 34.32558139534896,
          "velocity": 0.25196850393700787,
          "duration": 0.03488372093023173
        },
        {
          "name": "G#4",
          "midi": 68,
          "time": 34.32558139534896,
          "velocity": 0.28346456692913385,
          "duration": 0.046511627906973274
        },
        {
          "name": "C3",
          "midi": 48,
          "time": 34.34883720930245,
          "velocity": 0.2204724409448819,
          "duration": 0.081395348837205
        },
        {
          "name": "G#3",
          "midi": 56,
          "time": 34.372093023255935,
          "velocity": 0.30708661417322836,
          "duration": 0.04651162790698038
        },
        {
          "name": "A3",
          "midi": 57,
          "time": 34.418604651162916,
          "velocity": 0.1732283464566929,
          "duration": 0.034883720930224626
        },
        {
          "name": "C4",
          "midi": 60,
          "time": 34.4418604651164,
          "velocity": 0.30708661417322836,
          "duration": 0.023255813953483084
        },
        {
          "name": "G#3",
          "midi": 56,
          "time": 34.45348837209314,
          "velocity": 0.3228346456692913,
          "duration": 0.05813953488370771
        },
        {
          "name": "C#4",
          "midi": 61,
          "time": 34.46511627906988,
          "velocity": 0.28346456692913385,
          "duration": 0.034883720930224626
        },
        {
          "name": "G6",
          "midi": 91,
          "time": 34.46511627906988,
          "velocity": 0.3937007874015748,
          "duration": 0.25581395348832814
        },
        {
          "name": "E4",
          "midi": 64,
          "time": 34.47674418604662,
          "velocity": 0.28346456692913385,
          "duration": 0.034883720930224626
        },
        {
          "name": "B4",
          "midi": 71,
          "time": 34.47674418604662,
          "velocity": 0.3228346456692913,
          "duration": 0.034883720930224626
        },
        {
          "name": "D#5",
          "midi": 75,
          "time": 34.47674418604662,
          "velocity": 0.30708661417322836,
          "duration": 0.023255813953483084
        },
        {
          "name": "G5",
          "midi": 79,
          "time": 34.47674418604662,
          "velocity": 0.2677165354330709,
          "duration": 0.18604651162787178
        },
        {
          "name": "G#6",
          "midi": 92,
          "time": 34.47674418604662,
          "velocity": 0.2047244094488189,
          "duration": 0.034883720930224626
        },
        {
          "name": "D#3",
          "midi": 51,
          "time": 34.488372093023365,
          "velocity": 0.3543307086614173,
          "duration": 0.023255813953483084
        },
        {
          "name": "F6",
          "midi": 89,
          "time": 34.488372093023365,
          "velocity": 0.30708661417322836,
          "duration": 0.11627906976741542
        },
        {
          "name": "F5",
          "midi": 77,
          "time": 34.50000000000011,
          "velocity": 0.33070866141732286,
          "duration": 0.04651162790696617
        },
        {
          "name": "A5",
          "midi": 81,
          "time": 34.50000000000011,
          "velocity": 0.2677165354330709,
          "duration": 0.06976744186044925
        },
        {
          "name": "C6",
          "midi": 84,
          "time": 34.50000000000011,
          "velocity": 0.23622047244094488,
          "duration": 0.05813953488370771
        },
        {
          "name": "A6",
          "midi": 93,
          "time": 34.50000000000011,
          "velocity": 0.3700787401574803,
          "duration": 0.29069767441855277
        },
        {
          "name": "E3",
          "midi": 52,
          "time": 34.51162790697685,
          "velocity": 0.3700787401574803,
          "duration": 0.023255813953483084
        },
        {
          "name": "F4",
          "midi": 65,
          "time": 34.51162790697685,
          "velocity": 0.25196850393700787,
          "duration": 0.04651162790696617
        },
        {
          "name": "C5",
          "midi": 72,
          "time": 34.51162790697685,
          "velocity": 0.41732283464566927,
          "duration": 0.04651162790696617
        },
        {
          "name": "G#3",
          "midi": 56,
          "time": 34.52325581395359,
          "velocity": 0.36220472440944884,
          "duration": 0.023255813953483084
        },
        {
          "name": "G3",
          "midi": 55,
          "time": 34.54651162790707,
          "velocity": 0.4409448818897638,
          "duration": 0.04651162790696617
        },
        {
          "name": "B5",
          "midi": 83,
          "time": 34.54651162790707,
          "velocity": 0.28346456692913385,
          "duration": 0.17441860465113734
        },
        {
          "name": "D6",
          "midi": 86,
          "time": 34.54651162790707,
          "velocity": 0.23622047244094488,
          "duration": 0.06976744186044925
        },
        {
          "name": "G#6",
          "midi": 92,
          "time": 34.54651162790707,
          "velocity": 0.2283464566929134,
          "duration": 0.05813953488370771
        },
        {
          "name": "F#7",
          "midi": 102,
          "time": 34.54651162790707,
          "velocity": 0.12598425196850394,
          "duration": 0.06976744186044925
        },
        {
          "name": "B4",
          "midi": 71,
          "time": 34.558139534883814,
          "velocity": 0.08661417322834646,
          "duration": 0.034883720930224626
        },
        {
          "name": "D5",
          "midi": 74,
          "time": 34.558139534883814,
          "velocity": 0.4251968503937008,
          "duration": 0.2209302325581035
        },
        {
          "name": "D#4",
          "midi": 63,
          "time": 34.569767441860556,
          "velocity": 0.2440944881889764,
          "duration": 0.604651162790617
        },
        {
          "name": "A#6",
          "midi": 94,
          "time": 34.569767441860556,
          "velocity": 0.07086614173228346,
          "duration": 0.05813953488370771
        },
        {
          "name": "B2",
          "midi": 47,
          "time": 34.5813953488373,
          "velocity": 0.25984251968503935,
          "duration": 0.034883720930224626
        },
        {
          "name": "C#7",
          "midi": 97,
          "time": 34.5813953488373,
          "velocity": 0.10236220472440945,
          "duration": 0.04651162790696617
        },
        {
          "name": "G3",
          "midi": 55,
          "time": 34.60465116279078,
          "velocity": 0.4015748031496063,
          "duration": 0.06976744186045636
        },
        {
          "name": "A#4",
          "midi": 70,
          "time": 34.639534883721005,
          "velocity": 0.11811023622047244,
          "duration": 0.046511627906973274
        },
        {
          "name": "C3",
          "midi": 48,
          "time": 34.67441860465124,
          "velocity": 0.07086614173228346,
          "duration": 0.046511627906973274
        },
        {
          "name": "G3",
          "midi": 55,
          "time": 34.68604651162798,
          "velocity": 0.3858267716535433,
          "duration": 0.0813953488371979
        },
        {
          "name": "D#6",
          "midi": 87,
          "time": 34.73255813953495,
          "velocity": 0.07086614173228346,
          "duration": 0.034883720930224626
        },
        {
          "name": "F#7",
          "midi": 102,
          "time": 34.73255813953495,
          "velocity": 0.08661417322834646,
          "duration": 0.034883720930224626
        },
        {
          "name": "C3",
          "midi": 48,
          "time": 34.74418604651169,
          "velocity": 0.12598425196850394,
          "duration": 0.034883720930224626
        },
        {
          "name": "B4",
          "midi": 71,
          "time": 34.755813953488435,
          "velocity": 0.1889763779527559,
          "duration": 0.06976744186045636
        },
        {
          "name": "G3",
          "midi": 55,
          "time": 34.77906976744192,
          "velocity": 0.41732283464566927,
          "duration": 0.058139534883714816
        },
        {
          "name": "A#6",
          "midi": 94,
          "time": 34.848837209302374,
          "velocity": 0.07086614173228346,
          "duration": 0.03488372093023173
        },
        {
          "name": "G3",
          "midi": 55,
          "time": 34.872093023255864,
          "velocity": 0.28346456692913385,
          "duration": 0.023255813953483084
        },
        {
          "name": "C3",
          "midi": 48,
          "time": 34.883720930232606,
          "velocity": 0.16535433070866143,
          "duration": 0.03488372093023173
        },
        {
          "name": "A#4",
          "midi": 70,
          "time": 34.883720930232606,
          "velocity": 0.14960629921259844,
          "duration": 0.081395348837205
        },
        {
          "name": "G5",
          "midi": 79,
          "time": 34.883720930232606,
          "velocity": 0.15748031496062992,
          "duration": 0.046511627906973274
        },
        {
          "name": "D5",
          "midi": 74,
          "time": 34.89534883720935,
          "velocity": 0.2755905511811024,
          "duration": 0.081395348837205
        },
        {
          "name": "B2",
          "midi": 47,
          "time": 34.91860465116284,
          "velocity": 0.14960629921259844,
          "duration": 0.03488372093023173
        },
        {
          "name": "G4",
          "midi": 67,
          "time": 34.91860465116284,
          "velocity": 0.4015748031496063,
          "duration": 0.058139534883714816
        },
        {
          "name": "G3",
          "midi": 55,
          "time": 34.93023255813958,
          "velocity": 0.4330708661417323,
          "duration": 0.046511627906973274
        },
        {
          "name": "G5",
          "midi": 79,
          "time": 34.95348837209307,
          "velocity": 0.4094488188976378,
          "duration": 0.25581395348833524
        },
        {
          "name": "A6",
          "midi": 93,
          "time": 34.95348837209307,
          "velocity": 0.11811023622047244,
          "duration": 0.04651162790696617
        },
        {
          "name": "C5",
          "midi": 72,
          "time": 34.96511627906981,
          "velocity": 0.2204724409448819,
          "duration": 0.04651162790696617
        },
        {
          "name": "G#3",
          "midi": 56,
          "time": 34.97674418604655,
          "velocity": 0.33858267716535434,
          "duration": 0.04651162790696617
        },
        {
          "name": "G#4",
          "midi": 68,
          "time": 34.97674418604655,
          "velocity": 0.4015748031496063,
          "duration": 0.09302325581393234
        },
        {
          "name": "D#5",
          "midi": 75,
          "time": 34.97674418604655,
          "velocity": 0.3464566929133858,
          "duration": 0.09302325581393234
        },
        {
          "name": "G#6",
          "midi": 92,
          "time": 34.97674418604655,
          "velocity": 0.23622047244094488,
          "duration": 0.09302325581393234
        },
        {
          "name": "E7",
          "midi": 100,
          "time": 34.988372093023294,
          "velocity": 0.09448818897637795,
          "duration": 0.06976744186044925
        },
        {
          "name": "C6",
          "midi": 84,
          "time": 35.02325581395352,
          "velocity": 0.08661417322834646,
          "duration": 0.034883720930224626
        },
        {
          "name": "A6",
          "midi": 93,
          "time": 35.02325581395352,
          "velocity": 0.2755905511811024,
          "duration": 0.13953488372091272
        },
        {
          "name": "A#6",
          "midi": 94,
          "time": 35.02325581395352,
          "velocity": 0.13385826771653545,
          "duration": 0.04651162790696617
        },
        {
          "name": "G#3",
          "midi": 56,
          "time": 35.03488372093026,
          "velocity": 0.33070866141732286,
          "duration": 0.034883720930224626
        },
        {
          "name": "D6",
          "midi": 86,
          "time": 35.046511627907,
          "velocity": 0.1732283464566929,
          "duration": 0.11627906976742963
        },
        {
          "name": "D5",
          "midi": 74,
          "time": 35.05813953488374,
          "velocity": 0.4409448818897638,
          "duration": 0.33720930232554025
        },
        {
          "name": "B5",
          "midi": 83,
          "time": 35.05813953488374,
          "velocity": 0.07086614173228346,
          "duration": 0.11627906976742963
        },
        {
          "name": "B6",
          "midi": 95,
          "time": 35.05813953488374,
          "velocity": 0.14960629921259844,
          "duration": 0.081395348837205
        },
        {
          "name": "G3",
          "midi": 55,
          "time": 35.069767441860485,
          "velocity": 0.36220472440944884,
          "duration": 0.12790697674417828
        },
        {
          "name": "G4",
          "midi": 67,
          "time": 35.069767441860485,
          "velocity": 0.4094488188976378,
          "duration": 0.17441860465114445
        },
        {
          "name": "A#4",
          "midi": 70,
          "time": 35.069767441860485,
          "velocity": 0.28346456692913385,
          "duration": 0.22093023255811772
        },
        {
          "name": "F6",
          "midi": 89,
          "time": 35.069767441860485,
          "velocity": 0.07086614173228346,
          "duration": 0.081395348837205
        },
        {
          "name": "F#3",
          "midi": 54,
          "time": 35.19767441860466,
          "velocity": 0.3543307086614173,
          "duration": 0.023255813953483084
        },
        {
          "name": "G3",
          "midi": 55,
          "time": 35.220930232558146,
          "velocity": 0.3700787401574803,
          "duration": 0.034883720930224626
        },
        {
          "name": "G#5",
          "midi": 80,
          "time": 35.220930232558146,
          "velocity": 0.2047244094488189,
          "duration": 0.11627906976742963
        },
        {
          "name": "D4",
          "midi": 62,
          "time": 35.23255813953489,
          "velocity": 0.28346456692913385,
          "duration": 0.3720930232557791
        },
        {
          "name": "G#4",
          "midi": 68,
          "time": 35.24418604651163,
          "velocity": 0.33858267716535434,
          "duration": 0.058139534883714816
        },
        {
          "name": "C6",
          "midi": 84,
          "time": 35.24418604651163,
          "velocity": 0.14173228346456693,
          "duration": 0.046511627906973274
        },
        {
          "name": "B2",
          "midi": 47,
          "time": 35.25581395348837,
          "velocity": 0.2125984251968504,
          "duration": 0.03488372093023173
        },
        {
          "name": "G#3",
          "midi": 56,
          "time": 35.25581395348837,
          "velocity": 0.3228346456692913,
          "duration": 0.046511627906973274
        },
        {
          "name": "D#6",
          "midi": 87,
          "time": 35.25581395348837,
          "velocity": 0.14173228346456693,
          "duration": 0.046511627906973274
        },
        {
          "name": "F#6",
          "midi": 90,
          "time": 35.25581395348837,
          "velocity": 0.14173228346456693,
          "duration": 0.03488372093023173
        },
        {
          "name": "G3",
          "midi": 55,
          "time": 35.302325581395344,
          "velocity": 0.2992125984251969,
          "duration": 0.046511627906973274
        },
        {
          "name": "B5",
          "midi": 83,
          "time": 35.302325581395344,
          "velocity": 0.2992125984251969,
          "duration": 0.19767441860463464
        },
        {
          "name": "A#4",
          "midi": 70,
          "time": 35.337209302325576,
          "velocity": 0.3937007874015748,
          "duration": 0.3023255813953156
        },
        {
          "name": "G#4",
          "midi": 68,
          "time": 35.34883720930232,
          "velocity": 0.28346456692913385,
          "duration": 0.034883720930224626
        },
        {
          "name": "G5",
          "midi": 79,
          "time": 35.34883720930232,
          "velocity": 0.44881889763779526,
          "duration": 0.581395348837134
        },
        {
          "name": "G3",
          "midi": 55,
          "time": 35.36046511627906,
          "velocity": 0.3228346456692913,
          "duration": 0.15116279069766136
        },
        {
          "name": "A6",
          "midi": 93,
          "time": 35.3720930232558,
          "velocity": 0.28346456692913385,
          "duration": 0.12790697674417828
        },
        {
          "name": "F6",
          "midi": 89,
          "time": 35.38372093023254,
          "velocity": 0.3543307086614173,
          "duration": 0.11627906976743674
        },
        {
          "name": "G#6",
          "midi": 92,
          "time": 35.38372093023254,
          "velocity": 0.2047244094488189,
          "duration": 0.03488372093023173
        },
        {
          "name": "A#6",
          "midi": 94,
          "time": 35.38372093023254,
          "velocity": 0.2440944881889764,
          "duration": 0.03488372093023173
        },
        {
          "name": "D#5",
          "midi": 75,
          "time": 35.39534883720928,
          "velocity": 0.48031496062992124,
          "duration": 0.02325581395349019
        },
        {
          "name": "D5",
          "midi": 74,
          "time": 35.418604651162774,
          "velocity": 0.3779527559055118,
          "duration": 0.13953488372091982
        },
        {
          "name": "C#7",
          "midi": 97,
          "time": 35.430232558139515,
          "velocity": 0.16535433070866143,
          "duration": 0.05813953488372192
        },
        {
          "name": "G4",
          "midi": 67,
          "time": 35.54651162790695,
          "velocity": 0.2047244094488189,
          "duration": 0.058139534883714816
        },
        {
          "name": "D#5",
          "midi": 75,
          "time": 35.54651162790695,
          "velocity": 0.2283464566929134,
          "duration": 0.03488372093023173
        },
        {
          "name": "D3",
          "midi": 50,
          "time": 35.55813953488369,
          "velocity": 0.3228346456692913,
          "duration": 0.058139534883714816
        },
        {
          "name": "D5",
          "midi": 74,
          "time": 35.581395348837184,
          "velocity": 0.33070866141732286,
          "duration": 0.11627906976741542
        },
        {
          "name": "D#4",
          "midi": 63,
          "time": 35.593023255813925,
          "velocity": 0.29133858267716534,
          "duration": 0.034883720930224626
        },
        {
          "name": "D6",
          "midi": 86,
          "time": 35.593023255813925,
          "velocity": 0.33858267716535434,
          "duration": 0.2209302325581035
        },
        {
          "name": "D#3",
          "midi": 51,
          "time": 35.61627906976741,
          "velocity": 0.28346456692913385,
          "duration": 0.023255813953483084
        },
        {
          "name": "G4",
          "midi": 67,
          "time": 35.61627906976741,
          "velocity": 0.3228346456692913,
          "duration": 0.1627906976743887
        },
        {
          "name": "D4",
          "midi": 62,
          "time": 35.62790697674415,
          "velocity": 0.3779527559055118,
          "duration": 0.04651162790696617
        },
        {
          "name": "A5",
          "midi": 81,
          "time": 35.62790697674415,
          "velocity": 0.14173228346456693,
          "duration": 0.05813953488370771
        },
        {
          "name": "D3",
          "midi": 50,
          "time": 35.63953488372089,
          "velocity": 0.31496062992125984,
          "duration": 0.034883720930224626
        },
        {
          "name": "A#4",
          "midi": 70,
          "time": 35.65116279069763,
          "velocity": 0.41732283464566927,
          "duration": 0.19767441860462753
        },
        {
          "name": "C#6",
          "midi": 85,
          "time": 35.662790697674374,
          "velocity": 0.16535433070866143,
          "duration": 0.09302325581393944
        },
        {
          "name": "D#3",
          "midi": 51,
          "time": 35.674418604651116,
          "velocity": 0.33858267716535434,
          "duration": 0.06976744186045636
        },
        {
          "name": "D#4",
          "midi": 63,
          "time": 35.674418604651116,
          "velocity": 0.41732283464566927,
          "duration": 0.1627906976744029
        },
        {
          "name": "D5",
          "midi": 74,
          "time": 35.73255813953483,
          "velocity": 0.30708661417322836,
          "duration": 0.13953488372091272
        },
        {
          "name": "D#3",
          "midi": 51,
          "time": 35.767441860465055,
          "velocity": 0.33070866141732286,
          "duration": 0.09302325581394655
        },
        {
          "name": "G4",
          "midi": 67,
          "time": 35.80232558139529,
          "velocity": 0.2283464566929134,
          "duration": 0.058139534883714816
        },
        {
          "name": "B5",
          "midi": 83,
          "time": 35.81395348837203,
          "velocity": 0.09448818897637795,
          "duration": 0.046511627906973274
        },
        {
          "name": "D4",
          "midi": 62,
          "time": 35.83720930232552,
          "velocity": 0.2992125984251969,
          "duration": 0.05813953488370771
        },
        {
          "name": "C5",
          "midi": 72,
          "time": 35.84883720930226,
          "velocity": 0.25984251968503935,
          "duration": 0.023255813953483084
        },
        {
          "name": "D3",
          "midi": 50,
          "time": 35.860465116279,
          "velocity": 0.2755905511811024,
          "duration": 0.034883720930224626
        },
        {
          "name": "F6",
          "midi": 89,
          "time": 35.860465116279,
          "velocity": 0.13385826771653545,
          "duration": 0.034883720930224626
        },
        {
          "name": "A6",
          "midi": 93,
          "time": 35.860465116279,
          "velocity": 0.30708661417322836,
          "duration": 0.06976744186044925
        },
        {
          "name": "C#5",
          "midi": 73,
          "time": 35.872093023255744,
          "velocity": 0.3858267716535433,
          "duration": 0.034883720930224626
        },
        {
          "name": "F#6",
          "midi": 90,
          "time": 35.872093023255744,
          "velocity": 0.14960629921259844,
          "duration": 0.05813953488370771
        },
        {
          "name": "G#6",
          "midi": 92,
          "time": 35.872093023255744,
          "velocity": 0.3464566929133858,
          "duration": 0.11627906976741542
        },
        {
          "name": "B6",
          "midi": 95,
          "time": 35.872093023255744,
          "velocity": 0.10236220472440945,
          "duration": 0.034883720930224626
        },
        {
          "name": "B1",
          "midi": 35,
          "time": 35.883720930232485,
          "velocity": 0.6456692913385826,
          "duration": 0.011627906976741542
        },
        {
          "name": "C6",
          "midi": 84,
          "time": 35.883720930232485,
          "velocity": 0.33858267716535434,
          "duration": 0.1395348837208985
        },
        {
          "name": "D#6",
          "midi": 87,
          "time": 35.883720930232485,
          "velocity": 0.2755905511811024,
          "duration": 0.1395348837208985
        },
        {
          "name": "G1",
          "midi": 31,
          "time": 35.89534883720923,
          "velocity": 0.7480314960629921,
          "duration": 0.023255813953483084
        },
        {
          "name": "G#3",
          "midi": 56,
          "time": 35.89534883720923,
          "velocity": 0.41732283464566927,
          "duration": 0.12790697674415696
        },
        {
          "name": "D#4",
          "midi": 63,
          "time": 35.89534883720923,
          "velocity": 0.2992125984251969,
          "duration": 0.023255813953483084
        },
        {
          "name": "D#5",
          "midi": 75,
          "time": 35.89534883720923,
          "velocity": 0.4330708661417323,
          "duration": 0.06976744186044925
        },
        {
          "name": "B5",
          "midi": 83,
          "time": 35.89534883720923,
          "velocity": 0.16535433070866143,
          "duration": 0.05813953488370771
        },
        {
          "name": "D7",
          "midi": 98,
          "time": 35.89534883720923,
          "velocity": 0.2204724409448819,
          "duration": 0.05813953488370771
        },
        {
          "name": "C5",
          "midi": 72,
          "time": 35.90697674418597,
          "velocity": 0.36220472440944884,
          "duration": 0.05813953488370771
        },
        {
          "name": "A5",
          "midi": 81,
          "time": 35.90697674418597,
          "velocity": 0.2440944881889764,
          "duration": 0.023255813953483084
        },
        {
          "name": "G#1",
          "midi": 32,
          "time": 35.91860465116271,
          "velocity": 0.7637795275590551,
          "duration": 0.5930232558138258
        },
        {
          "name": "D#3",
          "midi": 51,
          "time": 35.91860465116271,
          "velocity": 0.2440944881889764,
          "duration": 0.04651162790696617
        },
        {
          "name": "F6",
          "midi": 89,
          "time": 35.91860465116271,
          "velocity": 0.2440944881889764,
          "duration": 0.023255813953483084
        },
        {
          "name": "D#4",
          "midi": 63,
          "time": 35.94186046511619,
          "velocity": 0.3464566929133858,
          "duration": 0.023255813953483084
        },
        {
          "name": "F#6",
          "midi": 90,
          "time": 35.94186046511619,
          "velocity": 0.29133858267716534,
          "duration": 0.10465116279067388
        },
        {
          "name": "D5",
          "midi": 74,
          "time": 35.953488372092934,
          "velocity": 0.36220472440944884,
          "duration": 0.023255813953483084
        },
        {
          "name": "G5",
          "midi": 79,
          "time": 35.965116279069676,
          "velocity": 0.2047244094488189,
          "duration": 0.0813953488371908
        },
        {
          "name": "D#3",
          "midi": 51,
          "time": 35.97674418604642,
          "velocity": 0.29133858267716534,
          "duration": 0.04651162790696617
        },
        {
          "name": "A#4",
          "midi": 70,
          "time": 35.97674418604642,
          "velocity": 0.36220472440944884,
          "duration": 0.23255813953483795
        },
        {
          "name": "D#5",
          "midi": 75,
          "time": 35.97674418604642,
          "velocity": 0.3858267716535433,
          "duration": 0.034883720930224626
        },
        {
          "name": "F6",
          "midi": 89,
          "time": 35.98837209302316,
          "velocity": 0.2204724409448819,
          "duration": 0.06976744186044925
        },
        {
          "name": "C4",
          "midi": 60,
          "time": 35.9999999999999,
          "velocity": 0.2283464566929134,
          "duration": 0.0813953488371908
        },
        {
          "name": "G4",
          "midi": 67,
          "time": 36.01162790697664,
          "velocity": 0.33858267716535434,
          "duration": 0.09302325581393234
        },
        {
          "name": "D5",
          "midi": 74,
          "time": 36.01162790697664,
          "velocity": 0.4015748031496063,
          "duration": 0.034883720930224626
        },
        {
          "name": "E7",
          "midi": 100,
          "time": 36.01162790697664,
          "velocity": 0.2047244094488189,
          "duration": 0.15116279069764005
        },
        {
          "name": "G3",
          "midi": 55,
          "time": 36.023255813953384,
          "velocity": 0.31496062992125984,
          "duration": 0.023255813953483084
        },
        {
          "name": "B5",
          "midi": 83,
          "time": 36.023255813953384,
          "velocity": 0.11023622047244094,
          "duration": 0.034883720930224626
        },
        {
          "name": "G#6",
          "midi": 92,
          "time": 36.023255813953384,
          "velocity": 0.11023622047244094,
          "duration": 0.04651162790696617
        },
        {
          "name": "D#3",
          "midi": 51,
          "time": 36.034883720930125,
          "velocity": 0.2992125984251969,
          "duration": 0.034883720930224626
        },
        {
          "name": "D#5",
          "midi": 75,
          "time": 36.04651162790687,
          "velocity": 0.3464566929133858,
          "duration": 0.034883720930224626
        },
        {
          "name": "G3",
          "midi": 55,
          "time": 36.05813953488361,
          "velocity": 0.36220472440944884,
          "duration": 0.05813953488370771
        },
        {
          "name": "F#6",
          "midi": 90,
          "time": 36.05813953488361,
          "velocity": 0.31496062992125984,
          "duration": 0.06976744186044925
        },
        {
          "name": "F6",
          "midi": 89,
          "time": 36.06976744186035,
          "velocity": 0.1889763779527559,
          "duration": 0.05813953488370771
        },
        {
          "name": "C5",
          "midi": 72,
          "time": 36.08139534883709,
          "velocity": 0.1732283464566929,
          "duration": 0.034883720930224626
        },
        {
          "name": "D5",
          "midi": 74,
          "time": 36.09302325581383,
          "velocity": 0.25196850393700787,
          "duration": 0.06976744186044925
        },
        {
          "name": "E5",
          "midi": 76,
          "time": 36.09302325581383,
          "velocity": 0.2047244094488189,
          "duration": 0.034883720930224626
        },
        {
          "name": "D#3",
          "midi": 51,
          "time": 36.104651162790574,
          "velocity": 0.3228346456692913,
          "duration": 0.2441860465115795
        },
        {
          "name": "G#6",
          "midi": 92,
          "time": 36.116279069767316,
          "velocity": 0.16535433070866143,
          "duration": 0.04651162790696617
        },
        {
          "name": "F5",
          "midi": 77,
          "time": 36.12790697674406,
          "velocity": 0.2440944881889764,
          "duration": 0.10465116279068098
        },
        {
          "name": "D#7",
          "midi": 99,
          "time": 36.12790697674406,
          "velocity": 0.11811023622047244,
          "duration": 0.04651162790696617
        },
        {
          "name": "A#3",
          "midi": 58,
          "time": 36.1395348837208,
          "velocity": 0.2992125984251969,
          "duration": 0.04651162790696617
        },
        {
          "name": "C#5",
          "midi": 73,
          "time": 36.1395348837208,
          "velocity": 0.2047244094488189,
          "duration": 0.034883720930224626
        },
        {
          "name": "F#6",
          "midi": 90,
          "time": 36.1395348837208,
          "velocity": 0.1732283464566929,
          "duration": 0.04651162790696617
        },
        {
          "name": "G5",
          "midi": 79,
          "time": 36.15116279069754,
          "velocity": 0.14960629921259844,
          "duration": 0.034883720930224626
        },
        {
          "name": "D4",
          "midi": 62,
          "time": 36.16279069767428,
          "velocity": 0.31496062992125984,
          "duration": 0.023255813953483084
        },
        {
          "name": "D5",
          "midi": 74,
          "time": 36.174418604651024,
          "velocity": 0.33858267716535434,
          "duration": 0.15116279069764715
        },
        {
          "name": "A3",
          "midi": 57,
          "time": 36.186046511627765,
          "velocity": 0.3464566929133858,
          "duration": 0.02325581395349019
        },
        {
          "name": "F#4",
          "midi": 66,
          "time": 36.186046511627765,
          "velocity": 0.2125984251968504,
          "duration": 0.09302325581393944
        },
        {
          "name": "B4",
          "midi": 71,
          "time": 36.220930232558,
          "velocity": 0.28346456692913385,
          "duration": 0.034883720930224626
        },
        {
          "name": "E5",
          "midi": 76,
          "time": 36.220930232558,
          "velocity": 0.11811023622047244,
          "duration": 0.04651162790696617
        },
        {
          "name": "C6",
          "midi": 84,
          "time": 36.220930232558,
          "velocity": 0.18110236220472442,
          "duration": 0.05813953488370771
        },
        {
          "name": "A5",
          "midi": 81,
          "time": 36.24418604651148,
          "velocity": 0.3779527559055118,
          "duration": 0.05813953488370771
        },
        {
          "name": "A#4",
          "midi": 70,
          "time": 36.25581395348822,
          "velocity": 0.1889763779527559,
          "duration": 0.06976744186044925
        },
        {
          "name": "F5",
          "midi": 77,
          "time": 36.25581395348822,
          "velocity": 0.2125984251968504,
          "duration": 0.034883720930224626
        },
        {
          "name": "F#6",
          "midi": 90,
          "time": 36.26744186046496,
          "velocity": 0.28346456692913385,
          "duration": 0.05813953488370771
        },
        {
          "name": "G#6",
          "midi": 92,
          "time": 36.26744186046496,
          "velocity": 0.2283464566929134,
          "duration": 0.05813953488370771
        },
        {
          "name": "E7",
          "midi": 100,
          "time": 36.26744186046496,
          "velocity": 0.18110236220472442,
          "duration": 0.3372093023255047
        },
        {
          "name": "D4",
          "midi": 62,
          "time": 36.279069767441705,
          "velocity": 0.47244094488188976,
          "duration": 0.04651162790696617
        },
        {
          "name": "G5",
          "midi": 79,
          "time": 36.279069767441705,
          "velocity": 0.2992125984251969,
          "duration": 0.023255813953483084
        },
        {
          "name": "F#4",
          "midi": 66,
          "time": 36.290697674418446,
          "velocity": 0.13385826771653545,
          "duration": 0.05813953488370771
        },
        {
          "name": "A#5",
          "midi": 82,
          "time": 36.290697674418446,
          "velocity": 0.28346456692913385,
          "duration": 0.05813953488370771
        },
        {
          "name": "C5",
          "midi": 72,
          "time": 36.30232558139519,
          "velocity": 0.14960629921259844,
          "duration": 0.06976744186044925
        },
        {
          "name": "F#5",
          "midi": 78,
          "time": 36.30232558139519,
          "velocity": 0.36220472440944884,
          "duration": 0.023255813953483084
        },
        {
          "name": "D#7",
          "midi": 99,
          "time": 36.30232558139519,
          "velocity": 0.2677165354330709,
          "duration": 0.1395348837208985
        },
        {
          "name": "D#5",
          "midi": 75,
          "time": 36.31395348837193,
          "velocity": 0.1889763779527559,
          "duration": 0.034883720930224626
        },
        {
          "name": "A4",
          "midi": 69,
          "time": 36.32558139534867,
          "velocity": 0.23622047244094488,
          "duration": 0.023255813953483084
        },
        {
          "name": "E5",
          "midi": 76,
          "time": 36.33720930232541,
          "velocity": 0.29133858267716534,
          "duration": 0.034883720930224626
        },
        {
          "name": "F#5",
          "midi": 78,
          "time": 36.33720930232541,
          "velocity": 0.41732283464566927,
          "duration": 0.023255813953483084
        },
        {
          "name": "G#6",
          "midi": 92,
          "time": 36.33720930232541,
          "velocity": 0.1732283464566929,
          "duration": 0.0813953488371908
        },
        {
          "name": "D4",
          "midi": 62,
          "time": 36.348837209302154,
          "velocity": 0.23622047244094488,
          "duration": 0.023255813953483084
        },
        {
          "name": "G#4",
          "midi": 68,
          "time": 36.348837209302154,
          "velocity": 0.3228346456692913,
          "duration": 0.04651162790696617
        },
        {
          "name": "D5",
          "midi": 74,
          "time": 36.348837209302154,
          "velocity": 0.44881889763779526,
          "duration": 0.05813953488370771
        },
        {
          "name": "B5",
          "midi": 83,
          "time": 36.348837209302154,
          "velocity": 0.16535433070866143,
          "duration": 0.04651162790696617
        },
        {
          "name": "D#3",
          "midi": 51,
          "time": 36.360465116278895,
          "velocity": 0.25984251968503935,
          "duration": 0.04651162790696617
        },
        {
          "name": "G3",
          "midi": 55,
          "time": 36.360465116278895,
          "velocity": 0.3228346456692913,
          "duration": 0.023255813953483084
        },
        {
          "name": "F7",
          "midi": 101,
          "time": 36.360465116278895,
          "velocity": 0.2283464566929134,
          "duration": 0.1395348837208985
        },
        {
          "name": "A#5",
          "midi": 82,
          "time": 36.37209302325564,
          "velocity": 0.25196850393700787,
          "duration": 0.10465116279067388
        },
        {
          "name": "G4",
          "midi": 67,
          "time": 36.38372093023238,
          "velocity": 0.4015748031496063,
          "duration": 0.11627906976741542
        },
        {
          "name": "F#5",
          "midi": 78,
          "time": 36.38372093023238,
          "velocity": 0.09448818897637795,
          "duration": 0.034883720930224626
        },
        {
          "name": "D#6",
          "midi": 87,
          "time": 36.38372093023238,
          "velocity": 0.12598425196850394,
          "duration": 0.06976744186044925
        },
        {
          "name": "F6",
          "midi": 89,
          "time": 36.38372093023238,
          "velocity": 0.11811023622047244,
          "duration": 0.034883720930224626
        },
        {
          "name": "D4",
          "midi": 62,
          "time": 36.39534883720912,
          "velocity": 0.3464566929133858,
          "duration": 0.034883720930224626
        },
        {
          "name": "D#5",
          "midi": 75,
          "time": 36.39534883720912,
          "velocity": 0.3779527559055118,
          "duration": 0.023255813953483084
        },
        {
          "name": "A5",
          "midi": 81,
          "time": 36.39534883720912,
          "velocity": 0.11811023622047244,
          "duration": 0.034883720930224626
        },
        {
          "name": "G3",
          "midi": 55,
          "time": 36.40697674418586,
          "velocity": 0.41732283464566927,
          "duration": 0.0813953488371908
        },
        {
          "name": "D5",
          "midi": 74,
          "time": 36.4186046511626,
          "velocity": 0.3464566929133858,
          "duration": 0.09302325581393234
        },
        {
          "name": "G#5",
          "midi": 80,
          "time": 36.4186046511626,
          "velocity": 0.14173228346456693,
          "duration": 0.034883720930224626
        },
        {
          "name": "B6",
          "midi": 95,
          "time": 36.4186046511626,
          "velocity": 0.23622047244094488,
          "duration": 0.0813953488371908
        },
        {
          "name": "D#4",
          "midi": 63,
          "time": 36.430232558139345,
          "velocity": 0.2440944881889764,
          "duration": 0.05813953488370771
        },
        {
          "name": "C4",
          "midi": 60,
          "time": 36.441860465116086,
          "velocity": 0.18110236220472442,
          "duration": 0.034883720930224626
        },
        {
          "name": "D#7",
          "midi": 99,
          "time": 36.45348837209283,
          "velocity": 0.16535433070866143,
          "duration": 0.05813953488370771
        },
        {
          "name": "B5",
          "midi": 83,
          "time": 36.46511627906957,
          "velocity": 0.13385826771653545,
          "duration": 0.034883720930224626
        },
        {
          "name": "D#5",
          "midi": 75,
          "time": 36.47674418604631,
          "velocity": 0.30708661417322836,
          "duration": 0.0813953488371908
        },
        {
          "name": "A5",
          "midi": 81,
          "time": 36.47674418604631,
          "velocity": 0.07086614173228346,
          "duration": 0.034883720930224626
        },
        {
          "name": "D4",
          "midi": 62,
          "time": 36.48837209302305,
          "velocity": 0.2677165354330709,
          "duration": 0.023255813953483084
        },
        {
          "name": "A#5",
          "midi": 82,
          "time": 36.48837209302305,
          "velocity": 0.1968503937007874,
          "duration": 0.11627906976741542
        },
        {
          "name": "A#4",
          "midi": 70,
          "time": 36.499999999999794,
          "velocity": 0.2283464566929134,
          "duration": 0.06976744186044925
        },
        {
          "name": "G1",
          "midi": 31,
          "time": 36.511627906976535,
          "velocity": 0.7244094488188977,
          "duration": 0.011627906976741542
        },
        {
          "name": "C#4",
          "midi": 61,
          "time": 36.511627906976535,
          "velocity": 0.1968503937007874,
          "duration": 0.034883720930224626
        },
        {
          "name": "F#1",
          "midi": 30,
          "time": 36.52325581395328,
          "velocity": 0.6141732283464567,
          "duration": 0.011627906976741542
        },
        {
          "name": "G3",
          "midi": 55,
          "time": 36.52325581395328,
          "velocity": 0.4645669291338583,
          "duration": 0.023255813953483084
        },
        {
          "name": "D5",
          "midi": 74,
          "time": 36.52325581395328,
          "velocity": 0.3779527559055118,
          "duration": 0.04651162790696617
        },
        {
          "name": "G#6",
          "midi": 92,
          "time": 36.52325581395328,
          "velocity": 0.33070866141732286,
          "duration": 0.11627906976741542
        },
        {
          "name": "F#6",
          "midi": 90,
          "time": 36.53488372093002,
          "velocity": 0.1968503937007874,
          "duration": 0.10465116279067388
        },
        {
          "name": "F7",
          "midi": 101,
          "time": 36.53488372093002,
          "velocity": 0.15748031496062992,
          "duration": 0.09302325581393234
        },
        {
          "name": "B3",
          "midi": 59,
          "time": 36.54651162790676,
          "velocity": 0.3543307086614173,
          "duration": 0.023255813953483084
        },
        {
          "name": "G5",
          "midi": 79,
          "time": 36.54651162790676,
          "velocity": 0.3937007874015748,
          "duration": 0.09302325581393234
        },
        {
          "name": "A6",
          "midi": 93,
          "time": 36.54651162790676,
          "velocity": 0.33858267716535434,
          "duration": 0.10465116279067388
        },
        {
          "name": "A#6",
          "midi": 94,
          "time": 36.54651162790676,
          "velocity": 0.29133858267716534,
          "duration": 0.06976744186044925
        },
        {
          "name": "B6",
          "midi": 95,
          "time": 36.54651162790676,
          "velocity": 0.25196850393700787,
          "duration": 0.05813953488370771
        },
        {
          "name": "F#1",
          "midi": 30,
          "time": 36.5581395348835,
          "velocity": 0.6456692913385826,
          "duration": 0.011627906976741542
        },
        {
          "name": "B5",
          "midi": 83,
          "time": 36.5581395348835,
          "velocity": 0.1968503937007874,
          "duration": 0.05813953488370771
        },
        {
          "name": "D#6",
          "midi": 87,
          "time": 36.5581395348835,
          "velocity": 0.12598425196850394,
          "duration": 0.034883720930224626
        },
        {
          "name": "G1",
          "midi": 31,
          "time": 36.56976744186024,
          "velocity": 0.7322834645669292,
          "duration": 0.011627906976741542
        },
        {
          "name": "A3",
          "midi": 57,
          "time": 36.56976744186024,
          "velocity": 0.4015748031496063,
          "duration": 0.034883720930224626
        },
        {
          "name": "D#5",
          "midi": 75,
          "time": 36.56976744186024,
          "velocity": 0.31496062992125984,
          "duration": 0.023255813953483084
        },
        {
          "name": "F5",
          "midi": 77,
          "time": 36.56976744186024,
          "velocity": 0.2204724409448819,
          "duration": 0.04651162790696617
        },
        {
          "name": "F#1",
          "midi": 30,
          "time": 36.581395348836985,
          "velocity": 0.7716535433070866,
          "duration": 0.011627906976741542
        },
        {
          "name": "E4",
          "midi": 64,
          "time": 36.581395348836985,
          "velocity": 0.29133858267716534,
          "duration": 0.023255813953483084
        },
        {
          "name": "G#4",
          "midi": 68,
          "time": 36.581395348836985,
          "velocity": 0.30708661417322836,
          "duration": 0.05813953488370771
        },
        {
          "name": "D5",
          "midi": 74,
          "time": 36.581395348836985,
          "velocity": 0.3464566929133858,
          "duration": 0.04651162790696617
        },
        {
          "name": "G1",
          "midi": 31,
          "time": 36.593023255813726,
          "velocity": 0.7795275590551181,
          "duration": 0.6046511627905886
        },
        {
          "name": "C6",
          "midi": 84,
          "time": 36.593023255813726,
          "velocity": 0.09448818897637795,
          "duration": 0.04651162790696617
        },
        {
          "name": "D#7",
          "midi": 99,
          "time": 36.593023255813726,
          "velocity": 0.11023622047244094,
          "duration": 0.04651162790696617
        },
        {
          "name": "G#3",
          "midi": 56,
          "time": 36.60465116279047,
          "velocity": 0.47244094488188976,
          "duration": 0.12790697674416407
        },
        {
          "name": "D#4",
          "midi": 63,
          "time": 36.60465116279047,
          "velocity": 0.33070866141732286,
          "duration": 0.09302325581393944
        },
        {
          "name": "A#5",
          "midi": 82,
          "time": 36.61627906976721,
          "velocity": 0.1889763779527559,
          "duration": 0.04651162790696617
        },
        {
          "name": "D#5",
          "midi": 75,
          "time": 36.62790697674395,
          "velocity": 0.36220472440944884,
          "duration": 0.04651162790696617
        },
        {
          "name": "F5",
          "midi": 77,
          "time": 36.63953488372069,
          "velocity": 0.2283464566929134,
          "duration": 0.09302325581393944
        },
        {
          "name": "D3",
          "midi": 50,
          "time": 36.67441860465092,
          "velocity": 0.31496062992125984,
          "duration": 0.12790697674416407
        },
        {
          "name": "C#5",
          "midi": 73,
          "time": 36.67441860465092,
          "velocity": 0.07874015748031496,
          "duration": 0.03488372093023173
        },
        {
          "name": "G#5",
          "midi": 80,
          "time": 36.67441860465092,
          "velocity": 0.11811023622047244,
          "duration": 0.046511627906973274
        },
        {
          "name": "A#5",
          "midi": 82,
          "time": 36.67441860465092,
          "velocity": 0.14173228346456693,
          "duration": 0.058139534883714816
        },
        {
          "name": "G6",
          "midi": 91,
          "time": 36.69767441860441,
          "velocity": 0.15748031496062992,
          "duration": 0.034883720930224626
        },
        {
          "name": "G#6",
          "midi": 92,
          "time": 36.69767441860441,
          "velocity": 0.28346456692913385,
          "duration": 0.12790697674415696
        },
        {
          "name": "A6",
          "midi": 93,
          "time": 36.69767441860441,
          "velocity": 0.14960629921259844,
          "duration": 0.04651162790696617
        },
        {
          "name": "D#5",
          "midi": 75,
          "time": 36.70930232558115,
          "velocity": 0.33858267716535434,
          "duration": 0.04651162790696617
        },
        {
          "name": "A5",
          "midi": 81,
          "time": 36.72093023255789,
          "velocity": 0.33070866141732286,
          "duration": 0.04651162790696617
        },
        {
          "name": "F#6",
          "midi": 90,
          "time": 36.73255813953463,
          "velocity": 0.28346456692913385,
          "duration": 0.10465116279067388
        },
        {
          "name": "F5",
          "midi": 77,
          "time": 36.74418604651137,
          "velocity": 0.3700787401574803,
          "duration": 0.034883720930224626
        },
        {
          "name": "G5",
          "midi": 79,
          "time": 36.74418604651137,
          "velocity": 0.4251968503937008,
          "duration": 0.10465116279067388
        },
        {
          "name": "B5",
          "midi": 83,
          "time": 36.74418604651137,
          "velocity": 0.25984251968503935,
          "duration": 0.09302325581393234
        },
        {
          "name": "C#6",
          "midi": 85,
          "time": 36.74418604651137,
          "velocity": 0.2047244094488189,
          "duration": 0.034883720930224626
        },
        {
          "name": "A#6",
          "midi": 94,
          "time": 36.74418604651137,
          "velocity": 0.14960629921259844,
          "duration": 0.034883720930224626
        },
        {
          "name": "D#7",
          "midi": 99,
          "time": 36.74418604651137,
          "velocity": 0.2047244094488189,
          "duration": 0.04651162790696617
        },
        {
          "name": "E7",
          "midi": 100,
          "time": 36.74418604651137,
          "velocity": 0.18110236220472442,
          "duration": 0.09302325581393234
        },
        {
          "name": "E5",
          "midi": 76,
          "time": 36.755813953488115,
          "velocity": 0.29133858267716534,
          "duration": 0.023255813953483084
        },
        {
          "name": "F7",
          "midi": 101,
          "time": 36.755813953488115,
          "velocity": 0.14960629921259844,
          "duration": 0.0813953488371908
        },
        {
          "name": "G#3",
          "midi": 56,
          "time": 36.76744186046486,
          "velocity": 0.3779527559055118,
          "duration": 0.10465116279067388
        },
        {
          "name": "D#4",
          "midi": 63,
          "time": 36.76744186046486,
          "velocity": 0.2992125984251969,
          "duration": 0.12790697674415696
        },
        {
          "name": "C6",
          "midi": 84,
          "time": 36.76744186046486,
          "velocity": 0.11811023622047244,
          "duration": 0.04651162790696617
        },
        {
          "name": "D6",
          "midi": 86,
          "time": 36.76744186046486,
          "velocity": 0.2204724409448819,
          "duration": 0.06976744186044925
        },
        {
          "name": "F#5",
          "midi": 78,
          "time": 36.7790697674416,
          "velocity": 0.2283464566929134,
          "duration": 0.023255813953483084
        },
        {
          "name": "A5",
          "midi": 81,
          "time": 36.7790697674416,
          "velocity": 0.16535433070866143,
          "duration": 0.05813953488370771
        },
        {
          "name": "A#5",
          "midi": 82,
          "time": 36.7790697674416,
          "velocity": 0.2125984251968504,
          "duration": 0.034883720930224626
        },
        {
          "name": "F5",
          "midi": 77,
          "time": 36.80232558139508,
          "velocity": 0.29133858267716534,
          "duration": 0.4651162790696901
        },
        {
          "name": "C#6",
          "midi": 85,
          "time": 36.80232558139508,
          "velocity": 0.11811023622047244,
          "duration": 0.034883720930224626
        },
        {
          "name": "D5",
          "midi": 74,
          "time": 36.81395348837182,
          "velocity": 0.25984251968503935,
          "duration": 0.05813953488370771
        },
        {
          "name": "D3",
          "midi": 50,
          "time": 36.837209302325306,
          "velocity": 0.3228346456692913,
          "duration": 0.17441860465113024
        },
        {
          "name": "C5",
          "midi": 72,
          "time": 36.837209302325306,
          "velocity": 0.3543307086614173,
          "duration": 0.05813953488370771
        },
        {
          "name": "A#5",
          "midi": 82,
          "time": 36.86046511627879,
          "velocity": 0.1732283464566929,
          "duration": 0.0813953488371908
        },
        {
          "name": "G#3",
          "midi": 56,
          "time": 36.88372093023227,
          "velocity": 0.31496062992125984,
          "duration": 0.034883720930224626
        },
        {
          "name": "E4",
          "midi": 64,
          "time": 36.89534883720901,
          "velocity": 0.2283464566929134,
          "duration": 0.023255813953483084
        },
        {
          "name": "G4",
          "midi": 67,
          "time": 36.89534883720901,
          "velocity": 0.33070866141732286,
          "duration": 0.06976744186045636
        },
        {
          "name": "B4",
          "midi": 71,
          "time": 36.89534883720901,
          "velocity": 0.18110236220472442,
          "duration": 0.034883720930224626
        },
        {
          "name": "F7",
          "midi": 101,
          "time": 36.89534883720901,
          "velocity": 0.10236220472440945,
          "duration": 0.06976744186045636
        },
        {
          "name": "D5",
          "midi": 74,
          "time": 36.906976744185755,
          "velocity": 0.2992125984251969,
          "duration": 0.034883720930224626
        },
        {
          "name": "G3",
          "midi": 55,
          "time": 36.9186046511625,
          "velocity": 0.33858267716535434,
          "duration": 0.023255813953483084
        },
        {
          "name": "D#5",
          "midi": 75,
          "time": 36.93023255813924,
          "velocity": 0.2047244094488189,
          "duration": 0.1395348837209056
        },
        {
          "name": "G#3",
          "midi": 56,
          "time": 36.94186046511598,
          "velocity": 0.33858267716535434,
          "duration": 0.03488372093023173
        },
        {
          "name": "C7",
          "midi": 96,
          "time": 36.94186046511598,
          "velocity": 0.14960629921259844,
          "duration": 0.10465116279068098
        },
        {
          "name": "C#4",
          "midi": 61,
          "time": 36.96511627906947,
          "velocity": 0.3543307086614173,
          "duration": 0.023255813953483084
        },
        {
          "name": "E4",
          "midi": 64,
          "time": 36.96511627906947,
          "velocity": 0.3858267716535433,
          "duration": 0.023255813953483084
        },
        {
          "name": "G3",
          "midi": 55,
          "time": 36.97674418604621,
          "velocity": 0.3779527559055118,
          "duration": 0.023255813953483084
        },
        {
          "name": "A4",
          "midi": 69,
          "time": 36.97674418604621,
          "velocity": 0.2677165354330709,
          "duration": 0.20930232558136197
        },
        {
          "name": "D4",
          "midi": 62,
          "time": 36.98837209302295,
          "velocity": 0.4015748031496063,
          "duration": 0.023255813953483084
        },
        {
          "name": "C5",
          "midi": 72,
          "time": 36.98837209302295,
          "velocity": 0.11811023622047244,
          "duration": 0.034883720930224626
        },
        {
          "name": "G#3",
          "midi": 56,
          "time": 36.999999999999694,
          "velocity": 0.3858267716535433,
          "duration": 0.05813953488370771
        },
        {
          "name": "D#4",
          "midi": 63,
          "time": 37.011627906976436,
          "velocity": 0.2755905511811024,
          "duration": 0.023255813953483084
        },
        {
          "name": "G5",
          "midi": 79,
          "time": 37.011627906976436,
          "velocity": 0.16535433070866143,
          "duration": 0.06976744186044925
        },
        {
          "name": "F4",
          "midi": 65,
          "time": 37.02325581395318,
          "velocity": 0.3700787401574803,
          "duration": 0.05813953488370771
        },
        {
          "name": "A6",
          "midi": 93,
          "time": 37.02325581395318,
          "velocity": 0.13385826771653545,
          "duration": 0.04651162790696617
        },
        {
          "name": "D#3",
          "midi": 51,
          "time": 37.069767441860144,
          "velocity": 0.3779527559055118,
          "duration": 0.03488372093023173
        },
        {
          "name": "G#3",
          "midi": 56,
          "time": 37.069767441860144,
          "velocity": 0.3779527559055118,
          "duration": 0.11627906976742963
        },
        {
          "name": "C#5",
          "midi": 73,
          "time": 37.081395348836885,
          "velocity": 0.08661417322834646,
          "duration": 0.03488372093023173
        },
        {
          "name": "A#5",
          "midi": 82,
          "time": 37.081395348836885,
          "velocity": 0.11811023622047244,
          "duration": 0.046511627906973274
        },
        {
          "name": "D3",
          "midi": 50,
          "time": 37.104651162790375,
          "velocity": 0.31496062992125984,
          "duration": 0.0813953488371979
        },
        {
          "name": "C5",
          "midi": 72,
          "time": 37.15116279069735,
          "velocity": 0.13385826771653545,
          "duration": 0.034883720930224626
        },
        {
          "name": "A#5",
          "midi": 82,
          "time": 37.16279069767409,
          "velocity": 0.23622047244094488,
          "duration": 0.034883720930224626
        },
        {
          "name": "B5",
          "midi": 83,
          "time": 37.17441860465083,
          "velocity": 0.41732283464566927,
          "duration": 0.15116279069765426
        },
        {
          "name": "C#6",
          "midi": 85,
          "time": 37.17441860465083,
          "velocity": 0.3228346456692913,
          "duration": 0.023255813953483084
        },
        {
          "name": "D6",
          "midi": 86,
          "time": 37.17441860465083,
          "velocity": 0.4881889763779528,
          "duration": 0.17441860465113734
        },
        {
          "name": "G5",
          "midi": 79,
          "time": 37.18604651162757,
          "velocity": 0.4015748031496063,
          "duration": 0.39534883720924796
        },
        {
          "name": "F1",
          "midi": 29,
          "time": 37.197674418604315,
          "velocity": 0.5905511811023622,
          "duration": 0.011627906976741542
        },
        {
          "name": "G4",
          "midi": 67,
          "time": 37.197674418604315,
          "velocity": 0.4015748031496063,
          "duration": 0.058139534883714816
        },
        {
          "name": "D5",
          "midi": 74,
          "time": 37.197674418604315,
          "velocity": 0.44881889763779526,
          "duration": 0.15116279069765426
        },
        {
          "name": "G3",
          "midi": 55,
          "time": 37.209302325581056,
          "velocity": 0.4409448818897638,
          "duration": 0.046511627906973274
        },
        {
          "name": "A5",
          "midi": 81,
          "time": 37.2209302325578,
          "velocity": 0.12598425196850394,
          "duration": 0.03488372093023173
        },
        {
          "name": "G7",
          "midi": 103,
          "time": 37.2209302325578,
          "velocity": 0.16535433070866143,
          "duration": 0.06976744186045636
        },
        {
          "name": "D#1",
          "midi": 27,
          "time": 37.23255813953454,
          "velocity": 0.7007874015748031,
          "duration": 0.02325581395349019
        },
        {
          "name": "B4",
          "midi": 71,
          "time": 37.23255813953454,
          "velocity": 0.11023622047244094,
          "duration": 0.046511627906973274
        },
        {
          "name": "F7",
          "midi": 101,
          "time": 37.23255813953454,
          "velocity": 0.10236220472440945,
          "duration": 0.03488372093023173
        },
        {
          "name": "C#1",
          "midi": 25,
          "time": 37.25581395348803,
          "velocity": 0.7244094488188977,
          "duration": 0.011627906976741542
        },
        {
          "name": "D#4",
          "midi": 63,
          "time": 37.25581395348803,
          "velocity": 0.18110236220472442,
          "duration": 0.034883720930224626
        },
        {
          "name": "C#6",
          "midi": 85,
          "time": 37.25581395348803,
          "velocity": 0.09448818897637795,
          "duration": 0.034883720930224626
        },
        {
          "name": "B0",
          "midi": 23,
          "time": 37.26744186046477,
          "velocity": 0.7401574803149606,
          "duration": 0.023255813953483084
        },
        {
          "name": "G4",
          "midi": 67,
          "time": 37.26744186046477,
          "velocity": 0.4094488188976378,
          "duration": 0.0813953488371979
        },
        {
          "name": "D#7",
          "midi": 99,
          "time": 37.26744186046477,
          "velocity": 0.07086614173228346,
          "duration": 0.046511627906973274
        },
        {
          "name": "F6",
          "midi": 89,
          "time": 37.27906976744151,
          "velocity": 0.2992125984251969,
          "duration": 0.11627906976742253
        },
        {
          "name": "C1",
          "midi": 24,
          "time": 37.290697674418254,
          "velocity": 0.7480314960629921,
          "duration": 0.3837209302324993
        },
        {
          "name": "G#3",
          "midi": 56,
          "time": 37.325581395348486,
          "velocity": 0.3464566929133858,
          "duration": 0.023255813953483084
        },
        {
          "name": "C5",
          "midi": 72,
          "time": 37.325581395348486,
          "velocity": 0.33070866141732286,
          "duration": 0.09302325581393234
        },
        {
          "name": "C7",
          "midi": 96,
          "time": 37.325581395348486,
          "velocity": 0.15748031496062992,
          "duration": 0.0813953488371908
        },
        {
          "name": "C#7",
          "midi": 97,
          "time": 37.325581395348486,
          "velocity": 0.23622047244094488,
          "duration": 0.05813953488370771
        },
        {
          "name": "F4",
          "midi": 65,
          "time": 37.33720930232523,
          "velocity": 0.29133858267716534,
          "duration": 0.023255813953483084
        },
        {
          "name": "A5",
          "midi": 81,
          "time": 37.33720930232523,
          "velocity": 0.09448818897637795,
          "duration": 0.04651162790696617
        },
        {
          "name": "F#7",
          "midi": 102,
          "time": 37.33720930232523,
          "velocity": 0.11023622047244094,
          "duration": 0.09302325581393234
        },
        {
          "name": "F3",
          "midi": 53,
          "time": 37.34883720930197,
          "velocity": 0.31496062992125984,
          "duration": 0.023255813953483084
        },
        {
          "name": "A6",
          "midi": 93,
          "time": 37.34883720930197,
          "velocity": 0.33070866141732286,
          "duration": 0.0813953488371908
        },
        {
          "name": "D#7",
          "midi": 99,
          "time": 37.34883720930197,
          "velocity": 0.28346456692913385,
          "duration": 0.0813953488371908
        },
        {
          "name": "G#3",
          "midi": 56,
          "time": 37.36046511627871,
          "velocity": 0.31496062992125984,
          "duration": 0.023255813953483084
        },
        {
          "name": "F4",
          "midi": 65,
          "time": 37.37209302325545,
          "velocity": 0.29133858267716534,
          "duration": 0.05813953488370771
        },
        {
          "name": "B6",
          "midi": 95,
          "time": 37.37209302325545,
          "velocity": 0.25196850393700787,
          "duration": 0.05813953488370771
        },
        {
          "name": "G2",
          "midi": 43,
          "time": 37.383720930232194,
          "velocity": 0.30708661417322836,
          "duration": 0.034883720930224626
        },
        {
          "name": "G4",
          "midi": 67,
          "time": 37.383720930232194,
          "velocity": 0.29133858267716534,
          "duration": 0.034883720930224626
        },
        {
          "name": "D7",
          "midi": 98,
          "time": 37.383720930232194,
          "velocity": 0.2283464566929134,
          "duration": 0.04651162790696617
        },
        {
          "name": "E7",
          "midi": 100,
          "time": 37.383720930232194,
          "velocity": 0.13385826771653545,
          "duration": 0.04651162790696617
        },
        {
          "name": "G#3",
          "midi": 56,
          "time": 37.40697674418568,
          "velocity": 0.41732283464566927,
          "duration": 0.17441860465114445
        },
        {
          "name": "D#5",
          "midi": 75,
          "time": 37.41860465116242,
          "velocity": 0.13385826771653545,
          "duration": 0.03488372093023173
        },
        {
          "name": "D4",
          "midi": 62,
          "time": 37.43023255813916,
          "velocity": 0.2677165354330709,
          "duration": 0.03488372093023173
        },
        {
          "name": "A#6",
          "midi": 94,
          "time": 37.43023255813916,
          "velocity": 0.13385826771653545,
          "duration": 0.046511627906973274
        },
        {
          "name": "C#4",
          "midi": 61,
          "time": 37.46511627906939,
          "velocity": 0.25984251968503935,
          "duration": 0.023255813953483084
        },
        {
          "name": "G4",
          "midi": 67,
          "time": 37.46511627906939,
          "velocity": 0.25984251968503935,
          "duration": 0.023255813953483084
        },
        {
          "name": "A6",
          "midi": 93,
          "time": 37.46511627906939,
          "velocity": 0.10236220472440945,
          "duration": 0.04651162790696617
        },
        {
          "name": "A4",
          "midi": 69,
          "time": 37.488372093022875,
          "velocity": 0.15748031496062992,
          "duration": 0.058139534883714816
        },
        {
          "name": "F4",
          "midi": 65,
          "time": 37.499999999999616,
          "velocity": 0.15748031496062992,
          "duration": 0.046511627906973274
        },
        {
          "name": "C#5",
          "midi": 73,
          "time": 37.53488372092985,
          "velocity": 0.07874015748031496,
          "duration": 0.046511627906973274
        },
        {
          "name": "D4",
          "midi": 62,
          "time": 37.54651162790659,
          "velocity": 0.16535433070866143,
          "duration": 0.046511627906973274
        },
        {
          "name": "B4",
          "midi": 71,
          "time": 37.56976744186008,
          "velocity": 0.08661417322834646,
          "duration": 0.034883720930224626
        },
        {
          "name": "G2",
          "midi": 43,
          "time": 37.58139534883682,
          "velocity": 0.33858267716535434,
          "duration": 0.023255813953483084
        },
        {
          "name": "D5",
          "midi": 74,
          "time": 37.58139534883682,
          "velocity": 0.23622047244094488,
          "duration": 0.04651162790696617
        },
        {
          "name": "A#5",
          "midi": 82,
          "time": 37.58139534883682,
          "velocity": 0.14960629921259844,
          "duration": 0.09302325581393234
        },
        {
          "name": "G#3",
          "midi": 56,
          "time": 37.59302325581356,
          "velocity": 0.3858267716535433,
          "duration": 0.034883720930224626
        },
        {
          "name": "D#4",
          "midi": 63,
          "time": 37.59302325581356,
          "velocity": 0.33858267716535434,
          "duration": 0.05813953488370771
        },
        {
          "name": "G4",
          "midi": 67,
          "time": 37.604651162790304,
          "velocity": 0.33070866141732286,
          "duration": 0.05813953488370771
        },
        {
          "name": "G#5",
          "midi": 80,
          "time": 37.604651162790304,
          "velocity": 0.16535433070866143,
          "duration": 0.034883720930224626
        },
        {
          "name": "B4",
          "midi": 71,
          "time": 37.616279069767046,
          "velocity": 0.28346456692913385,
          "duration": 0.034883720930224626
        },
        {
          "name": "G2",
          "midi": 43,
          "time": 37.62790697674379,
          "velocity": 0.2992125984251969,
          "duration": 0.023255813953483084
        },
        {
          "name": "G#3",
          "midi": 56,
          "time": 37.63953488372053,
          "velocity": 0.33858267716535434,
          "duration": 0.023255813953483084
        },
        {
          "name": "C6",
          "midi": 84,
          "time": 37.63953488372053,
          "velocity": 0.2755905511811024,
          "duration": 0.034883720930224626
        },
        {
          "name": "D6",
          "midi": 86,
          "time": 37.63953488372053,
          "velocity": 0.2677165354330709,
          "duration": 0.023255813953483084
        },
        {
          "name": "C5",
          "midi": 72,
          "time": 37.65116279069727,
          "velocity": 0.33858267716535434,
          "duration": 0.034883720930224626
        },
        {
          "name": "F5",
          "midi": 77,
          "time": 37.65116279069727,
          "velocity": 0.18110236220472442,
          "duration": 0.06976744186044925
        },
        {
          "name": "F#6",
          "midi": 90,
          "time": 37.65116279069727,
          "velocity": 0.2125984251968504,
          "duration": 0.09302325581393234
        },
        {
          "name": "G7",
          "midi": 103,
          "time": 37.65116279069727,
          "velocity": 0.16535433070866143,
          "duration": 0.0813953488371908
        },
        {
          "name": "G3",
          "midi": 55,
          "time": 37.66279069767401,
          "velocity": 0.3543307086614173,
          "duration": 0.023255813953483084
        },
        {
          "name": "F#4",
          "midi": 66,
          "time": 37.66279069767401,
          "velocity": 0.29133858267716534,
          "duration": 0.023255813953483084
        },
        {
          "name": "D5",
          "midi": 74,
          "time": 37.66279069767401,
          "velocity": 0.31496062992125984,
          "duration": 0.023255813953483084
        },
        {
          "name": "D#6",
          "midi": 87,
          "time": 37.66279069767401,
          "velocity": 0.2755905511811024,
          "duration": 0.023255813953483084
        },
        {
          "name": "G6",
          "midi": 91,
          "time": 37.66279069767401,
          "velocity": 0.2992125984251969,
          "duration": 0.04651162790696617
        },
        {
          "name": "A6",
          "midi": 93,
          "time": 37.66279069767401,
          "velocity": 0.25196850393700787,
          "duration": 0.06976744186044925
        },
        {
          "name": "E7",
          "midi": 100,
          "time": 37.66279069767401,
          "velocity": 0.3228346456692913,
          "duration": 0.0813953488371908
        },
        {
          "name": "F7",
          "midi": 101,
          "time": 37.66279069767401,
          "velocity": 0.2204724409448819,
          "duration": 0.034883720930224626
        },
        {
          "name": "C#1",
          "midi": 25,
          "time": 37.674418604650754,
          "velocity": 0.6850393700787402,
          "duration": 0.011627906976741542
        },
        {
          "name": "G#6",
          "midi": 92,
          "time": 37.674418604650754,
          "velocity": 0.31496062992125984,
          "duration": 0.20930232558134776
        },
        {
          "name": "C#7",
          "midi": 97,
          "time": 37.674418604650754,
          "velocity": 0.07874015748031496,
          "duration": 0.04651162790696617
        },
        {
          "name": "C1",
          "midi": 24,
          "time": 37.686046511627495,
          "velocity": 0.7480314960629921,
          "duration": 0.8372093023253981
        },
        {
          "name": "D#5",
          "midi": 75,
          "time": 37.686046511627495,
          "velocity": 0.3858267716535433,
          "duration": 0.19767441860460622
        },
        {
          "name": "C6",
          "midi": 84,
          "time": 37.686046511627495,
          "velocity": 0.2204724409448819,
          "duration": 0.05813953488370771
        },
        {
          "name": "A#6",
          "midi": 94,
          "time": 37.686046511627495,
          "velocity": 0.3228346456692913,
          "duration": 0.19767441860460622
        },
        {
          "name": "D4",
          "midi": 62,
          "time": 37.69767441860424,
          "velocity": 0.09448818897637795,
          "duration": 0.04651162790696617
        },
        {
          "name": "G#4",
          "midi": 68,
          "time": 37.69767441860424,
          "velocity": 0.2283464566929134,
          "duration": 0.12790697674415696
        },
        {
          "name": "G3",
          "midi": 55,
          "time": 37.72093023255772,
          "velocity": 0.23622047244094488,
          "duration": 0.023255813953483084
        },
        {
          "name": "G2",
          "midi": 43,
          "time": 37.73255813953446,
          "velocity": 0.2677165354330709,
          "duration": 0.023255813953483084
        },
        {
          "name": "G5",
          "midi": 79,
          "time": 37.73255813953446,
          "velocity": 0.14960629921259844,
          "duration": 0.05813953488370771
        },
        {
          "name": "B4",
          "midi": 71,
          "time": 37.755813953487944,
          "velocity": 0.11811023622047244,
          "duration": 0.06976744186044925
        },
        {
          "name": "F6",
          "midi": 89,
          "time": 37.755813953487944,
          "velocity": 0.12598425196850394,
          "duration": 0.034883720930224626
        },
        {
          "name": "A6",
          "midi": 93,
          "time": 37.755813953487944,
          "velocity": 0.2677165354330709,
          "duration": 0.12790697674415696
        },
        {
          "name": "E7",
          "midi": 100,
          "time": 37.755813953487944,
          "velocity": 0.12598425196850394,
          "duration": 0.05813953488370771
        },
        {
          "name": "D4",
          "midi": 62,
          "time": 37.767441860464686,
          "velocity": 0.15748031496062992,
          "duration": 0.034883720930224626
        },
        {
          "name": "G#5",
          "midi": 80,
          "time": 37.767441860464686,
          "velocity": 0.29133858267716534,
          "duration": 0.04651162790696617
        },
        {
          "name": "C6",
          "midi": 84,
          "time": 37.767441860464686,
          "velocity": 0.16535433070866143,
          "duration": 0.11627906976741542
        },
        {
          "name": "D6",
          "midi": 86,
          "time": 37.767441860464686,
          "velocity": 0.2125984251968504,
          "duration": 0.23255813953483084
        },
        {
          "name": "F7",
          "midi": 101,
          "time": 37.767441860464686,
          "velocity": 0.2440944881889764,
          "duration": 0.11627906976741542
        },
        {
          "name": "F#7",
          "midi": 102,
          "time": 37.767441860464686,
          "velocity": 0.2204724409448819,
          "duration": 0.09302325581393234
        },
        {
          "name": "G#2",
          "midi": 44,
          "time": 37.77906976744143,
          "velocity": 0.3228346456692913,
          "duration": 0.023255813953483084
        },
        {
          "name": "A#5",
          "midi": 82,
          "time": 37.79069767441817,
          "velocity": 0.1968503937007874,
          "duration": 0.0813953488371908
        },
        {
          "name": "G6",
          "midi": 91,
          "time": 37.79069767441817,
          "velocity": 0.09448818897637795,
          "duration": 0.034883720930224626
        },
        {
          "name": "B6",
          "midi": 95,
          "time": 37.79069767441817,
          "velocity": 0.2283464566929134,
          "duration": 0.05813953488370771
        },
        {
          "name": "C#7",
          "midi": 97,
          "time": 37.79069767441817,
          "velocity": 0.09448818897637795,
          "duration": 0.05813953488370771
        },
        {
          "name": "F5",
          "midi": 77,
          "time": 37.81395348837165,
          "velocity": 0.3464566929133858,
          "duration": 0.09302325581393234
        },
        {
          "name": "G5",
          "midi": 79,
          "time": 37.81395348837165,
          "velocity": 0.3228346456692913,
          "duration": 0.04651162790696617
        },
        {
          "name": "G2",
          "midi": 43,
          "time": 37.825581395348394,
          "velocity": 0.28346456692913385,
          "duration": 0.023255813953483084
        },
        {
          "name": "A#3",
          "midi": 58,
          "time": 37.825581395348394,
          "velocity": 0.23622047244094488,
          "duration": 0.034883720930224626
        },
        {
          "name": "G#5",
          "midi": 80,
          "time": 37.825581395348394,
          "velocity": 0.25984251968503935,
          "duration": 0.04651162790696617
        },
        {
          "name": "F#6",
          "midi": 90,
          "time": 37.837209302325135,
          "velocity": 0.11811023622047244,
          "duration": 0.034883720930224626
        },
        {
          "name": "B4",
          "midi": 71,
          "time": 37.84883720930188,
          "velocity": 0.14960629921259844,
          "duration": 0.05813953488370771
        },
        {
          "name": "G2",
          "midi": 43,
          "time": 37.87209302325536,
          "velocity": 0.2992125984251969,
          "duration": 0.023255813953483084
        },
        {
          "name": "G5",
          "midi": 79,
          "time": 37.87209302325536,
          "velocity": 0.3543307086614173,
          "duration": 0.383720930232478
        },
        {
          "name": "G3",
          "midi": 55,
          "time": 37.8837209302321,
          "velocity": 0.2992125984251969,
          "duration": 0.034883720930224626
        },
        {
          "name": "D4",
          "midi": 62,
          "time": 37.8837209302321,
          "velocity": 0.1732283464566929,
          "duration": 0.034883720930224626
        },
        {
          "name": "D#6",
          "midi": 87,
          "time": 37.89534883720884,
          "velocity": 0.1732283464566929,
          "duration": 0.1627906976743816
        },
        {
          "name": "G#4",
          "midi": 68,
          "time": 37.906976744185584,
          "velocity": 0.25984251968503935,
          "duration": 0.023255813953483084
        },
        {
          "name": "D#3",
          "midi": 51,
          "time": 37.918604651162326,
          "velocity": 0.25984251968503935,
          "duration": 0.023255813953483084
        },
        {
          "name": "G#2",
          "midi": 44,
          "time": 37.93023255813907,
          "velocity": 0.33858267716535434,
          "duration": 0.023255813953483084
        },
        {
          "name": "G4",
          "midi": 67,
          "time": 37.93023255813907,
          "velocity": 0.2755905511811024,
          "duration": 0.04651162790696617
        },
        {
          "name": "D5",
          "midi": 74,
          "time": 37.93023255813907,
          "velocity": 0.36220472440944884,
          "duration": 0.05813953488370771
        },
        {
          "name": "F6",
          "midi": 89,
          "time": 37.93023255813907,
          "velocity": 0.14960629921259844,
          "duration": 0.034883720930224626
        },
        {
          "name": "D4",
          "midi": 62,
          "time": 37.94186046511581,
          "velocity": 0.1968503937007874,
          "duration": 0.15116279069764005
        },
        {
          "name": "B5",
          "midi": 83,
          "time": 37.94186046511581,
          "velocity": 0.16535433070866143,
          "duration": 0.034883720930224626
        },
        {
          "name": "A6",
          "midi": 93,
          "time": 37.94186046511581,
          "velocity": 0.3228346456692913,
          "duration": 0.06976744186044925
        },
        {
          "name": "G3",
          "midi": 55,
          "time": 37.95348837209255,
          "velocity": 0.4645669291338583,
          "duration": 0.05813953488370771
        },
        {
          "name": "F#7",
          "midi": 102,
          "time": 37.95348837209255,
          "velocity": 0.13385826771653545,
          "duration": 0.04651162790696617
        },
        {
          "name": "B4",
          "midi": 71,
          "time": 37.96511627906929,
          "velocity": 0.1889763779527559,
          "duration": 0.06976744186044925
        },
        {
          "name": "C#5",
          "midi": 73,
          "time": 37.976744186046034,
          "velocity": 0.2440944881889764,
          "duration": 0.023255813953483084
        },
        {
          "name": "F#4",
          "midi": 66,
          "time": 38.01162790697626,
          "velocity": 0.14960629921259844,
          "duration": 0.034883720930224626
        },
        {
          "name": "G3",
          "midi": 55,
          "time": 38.023255813953,
          "velocity": 0.48031496062992124,
          "duration": 0.034883720930224626
        },
        {
          "name": "D#5",
          "midi": 75,
          "time": 38.023255813953,
          "velocity": 0.15748031496062992,
          "duration": 0.034883720930224626
        },
        {
          "name": "G#4",
          "midi": 68,
          "time": 38.03488372092974,
          "velocity": 0.29133858267716534,
          "duration": 0.023255813953483084
        },
        {
          "name": "A6",
          "midi": 93,
          "time": 38.03488372092974,
          "velocity": 0.4409448818897638,
          "duration": 0.1395348837208985
        },
        {
          "name": "D5",
          "midi": 74,
          "time": 38.04651162790648,
          "velocity": 0.44881889763779526,
          "duration": 0.18604651162787178
        },
        {
          "name": "B6",
          "midi": 95,
          "time": 38.04651162790648,
          "velocity": 0.25196850393700787,
          "duration": 0.10465116279067388
        },
        {
          "name": "F7",
          "midi": 101,
          "time": 38.04651162790648,
          "velocity": 0.2677165354330709,
          "duration": 0.11627906976741542
        },
        {
          "name": "F#7",
          "midi": 102,
          "time": 38.04651162790648,
          "velocity": 0.3228346456692913,
          "duration": 0.11627906976741542
        },
        {
          "name": "G4",
          "midi": 67,
          "time": 38.058139534883225,
          "velocity": 0.2677165354330709,
          "duration": 0.10465116279067388
        },
        {
          "name": "B5",
          "midi": 83,
          "time": 38.058139534883225,
          "velocity": 0.2204724409448819,
          "duration": 0.09302325581393234
        },
        {
          "name": "A#6",
          "midi": 94,
          "time": 38.058139534883225,
          "velocity": 0.2283464566929134,
          "duration": 0.06976744186044925
        },
        {
          "name": "D#7",
          "midi": 99,
          "time": 38.058139534883225,
          "velocity": 0.14173228346456693,
          "duration": 0.06976744186044925
        },
        {
          "name": "G2",
          "midi": 43,
          "time": 38.069767441859966,
          "velocity": 0.25196850393700787,
          "duration": 0.023255813953483084
        },
        {
          "name": "C7",
          "midi": 96,
          "time": 38.08139534883671,
          "velocity": 0.14173228346456693,
          "duration": 0.034883720930224626
        },
        {
          "name": "G3",
          "midi": 55,
          "time": 38.09302325581345,
          "velocity": 0.3543307086614173,
          "duration": 0.023255813953483084
        },
        {
          "name": "F5",
          "midi": 77,
          "time": 38.09302325581345,
          "velocity": 0.08661417322834646,
          "duration": 0.034883720930224626
        },
        {
          "name": "D4",
          "midi": 62,
          "time": 38.10465116279019,
          "velocity": 0.11023622047244094,
          "duration": 0.04651162790696617
        },
        {
          "name": "G2",
          "midi": 43,
          "time": 38.11627906976693,
          "velocity": 0.2755905511811024,
          "duration": 0.023255813953483084
        },
        {
          "name": "G#3",
          "midi": 56,
          "time": 38.11627906976693,
          "velocity": 0.3937007874015748,
          "duration": 0.023255813953483084
        },
        {
          "name": "D#6",
          "midi": 87,
          "time": 38.11627906976693,
          "velocity": 0.11023622047244094,
          "duration": 0.06976744186044925
        },
        {
          "name": "E7",
          "midi": 100,
          "time": 38.127906976743674,
          "velocity": 0.14173228346456693,
          "duration": 0.04651162790696617
        },
        {
          "name": "G3",
          "midi": 55,
          "time": 38.139534883720415,
          "velocity": 0.41732283464566927,
          "duration": 0.023255813953483084
        },
        {
          "name": "G#2",
          "midi": 44,
          "time": 38.15116279069716,
          "velocity": 0.2992125984251969,
          "duration": 0.023255813953483084
        },
        {
          "name": "G#4",
          "midi": 68,
          "time": 38.15116279069716,
          "velocity": 0.23622047244094488,
          "duration": 0.04651162790696617
        },
        {
          "name": "G#6",
          "midi": 92,
          "time": 38.15116279069716,
          "velocity": 0.11811023622047244,
          "duration": 0.04651162790696617
        },
        {
          "name": "E3",
          "midi": 52,
          "time": 38.17441860465064,
          "velocity": 0.31496062992125984,
          "duration": 0.046511627906973274
        },
        {
          "name": "D#4",
          "midi": 63,
          "time": 38.17441860465064,
          "velocity": 0.2677165354330709,
          "duration": 0.046511627906973274
        },
        {
          "name": "B4",
          "midi": 71,
          "time": 38.18604651162738,
          "velocity": 0.11811023622047244,
          "duration": 0.09302325581393944
        },
        {
          "name": "F5",
          "midi": 77,
          "time": 38.18604651162738,
          "velocity": 0.13385826771653545,
          "duration": 0.046511627906973274
        },
        {
          "name": "A3",
          "midi": 57,
          "time": 38.19767441860412,
          "velocity": 0.25984251968503935,
          "duration": 0.02325581395349019
        },
        {
          "name": "G#4",
          "midi": 68,
          "time": 38.22093023255761,
          "velocity": 0.14173228346456693,
          "duration": 0.05813953488370771
        },
        {
          "name": "D#5",
          "midi": 75,
          "time": 38.22093023255761,
          "velocity": 0.1889763779527559,
          "duration": 0.06976744186044925
        },
        {
          "name": "A#6",
          "midi": 94,
          "time": 38.22093023255761,
          "velocity": 0.09448818897637795,
          "duration": 0.034883720930224626
        },
        {
          "name": "E3",
          "midi": 52,
          "time": 38.232558139534355,
          "velocity": 0.25984251968503935,
          "duration": 0.034883720930224626
        },
        {
          "name": "D#4",
          "midi": 63,
          "time": 38.232558139534355,
          "velocity": 0.29133858267716534,
          "duration": 0.09302325581393234
        },
        {
          "name": "A3",
          "midi": 57,
          "time": 38.244186046511096,
          "velocity": 0.2440944881889764,
          "duration": 0.023255813953483084
        },
        {
          "name": "G2",
          "midi": 43,
          "time": 38.25581395348784,
          "velocity": 0.2992125984251969,
          "duration": 0.023255813953483084
        },
        {
          "name": "G5",
          "midi": 79,
          "time": 38.29069767441806,
          "velocity": 0.3543307086614173,
          "duration": 0.12790697674415696
        },
        {
          "name": "G3",
          "midi": 55,
          "time": 38.302325581394804,
          "velocity": 0.28346456692913385,
          "duration": 0.023255813953483084
        },
        {
          "name": "C5",
          "midi": 72,
          "time": 38.313953488371546,
          "velocity": 0.33858267716535434,
          "duration": 0.034883720930224626
        },
        {
          "name": "A5",
          "midi": 81,
          "time": 38.313953488371546,
          "velocity": 0.16535433070866143,
          "duration": 0.04651162790696617
        },
        {
          "name": "A3",
          "midi": 57,
          "time": 38.32558139534829,
          "velocity": 0.2677165354330709,
          "duration": 0.023255813953483084
        },
        {
          "name": "D4",
          "midi": 62,
          "time": 38.32558139534829,
          "velocity": 0.2755905511811024,
          "duration": 0.05813953488370771
        },
        {
          "name": "D5",
          "midi": 74,
          "time": 38.33720930232503,
          "velocity": 0.4094488188976378,
          "duration": 0.023255813953483084
        },
        {
          "name": "F5",
          "midi": 77,
          "time": 38.33720930232503,
          "velocity": 0.3700787401574803,
          "duration": 0.034883720930224626
        },
        {
          "name": "G4",
          "midi": 67,
          "time": 38.34883720930177,
          "velocity": 0.41732283464566927,
          "duration": 0.11627906976741542
        },
        {
          "name": "C#5",
          "midi": 73,
          "time": 38.36046511627851,
          "velocity": 0.28346456692913385,
          "duration": 0.06976744186044925
        },
        {
          "name": "D6",
          "midi": 86,
          "time": 38.36046511627851,
          "velocity": 0.18110236220472442,
          "duration": 0.04651162790696617
        },
        {
          "name": "F#6",
          "midi": 90,
          "time": 38.36046511627851,
          "velocity": 0.25196850393700787,
          "duration": 0.15116279069764005
        },
        {
          "name": "A3",
          "midi": 57,
          "time": 38.37209302325525,
          "velocity": 0.2283464566929134,
          "duration": 0.034883720930224626
        },
        {
          "name": "E5",
          "midi": 76,
          "time": 38.37209302325525,
          "velocity": 0.3464566929133858,
          "duration": 0.034883720930224626
        },
        {
          "name": "A#5",
          "midi": 82,
          "time": 38.395348837208736,
          "velocity": 0.11811023622047244,
          "duration": 0.06976744186044925
        },
        {
          "name": "D#6",
          "midi": 87,
          "time": 38.395348837208736,
          "velocity": 0.11811023622047244,
          "duration": 0.05813953488370771
        },
        {
          "name": "E3",
          "midi": 52,
          "time": 38.40697674418548,
          "velocity": 0.25196850393700787,
          "duration": 0.05813953488370771
        },
        {
          "name": "A6",
          "midi": 93,
          "time": 38.40697674418548,
          "velocity": 0.10236220472440945,
          "duration": 0.034883720930224626
        },
        {
          "name": "A3",
          "midi": 57,
          "time": 38.41860465116222,
          "velocity": 0.2677165354330709,
          "duration": 0.023255813953483084
        },
        {
          "name": "D#4",
          "midi": 63,
          "time": 38.41860465116222,
          "velocity": 0.28346456692913385,
          "duration": 0.09302325581393234
        },
        {
          "name": "F5",
          "midi": 77,
          "time": 38.41860465116222,
          "velocity": 0.2677165354330709,
          "duration": 0.1395348837208985
        },
        {
          "name": "F#5",
          "midi": 78,
          "time": 38.41860465116222,
          "velocity": 0.33858267716535434,
          "duration": 0.023255813953483084
        },
        {
          "name": "G#5",
          "midi": 80,
          "time": 38.41860465116222,
          "velocity": 0.1889763779527559,
          "duration": 0.05813953488370771
        },
        {
          "name": "D5",
          "midi": 74,
          "time": 38.4418604651157,
          "velocity": 0.08661417322834646,
          "duration": 0.034883720930224626
        },
        {
          "name": "B4",
          "midi": 71,
          "time": 38.465116279069186,
          "velocity": 0.09448818897637795,
          "duration": 0.034883720930224626
        },
        {
          "name": "A5",
          "midi": 81,
          "time": 38.465116279069186,
          "velocity": 0.31496062992125984,
          "duration": 0.0813953488371908
        },
        {
          "name": "B5",
          "midi": 83,
          "time": 38.465116279069186,
          "velocity": 0.41732283464566927,
          "duration": 0.17441860465113024
        },
        {
          "name": "G#6",
          "midi": 92,
          "time": 38.465116279069186,
          "velocity": 0.2047244094488189,
          "duration": 0.06976744186044925
        },
        {
          "name": "G3",
          "midi": 55,
          "time": 38.47674418604593,
          "velocity": 0.25984251968503935,
          "duration": 0.023255813953483084
        },
        {
          "name": "C6",
          "midi": 84,
          "time": 38.47674418604593,
          "velocity": 0.25984251968503935,
          "duration": 0.06976744186044925
        },
        {
          "name": "D6",
          "midi": 86,
          "time": 38.47674418604593,
          "velocity": 0.2755905511811024,
          "duration": 0.1627906976743887
        },
        {
          "name": "G6",
          "midi": 91,
          "time": 38.47674418604593,
          "velocity": 0.4566929133858268,
          "duration": 0.1627906976743887
        },
        {
          "name": "G#5",
          "midi": 80,
          "time": 38.48837209302267,
          "velocity": 0.23622047244094488,
          "duration": 0.04651162790696617
        },
        {
          "name": "E7",
          "midi": 100,
          "time": 38.48837209302267,
          "velocity": 0.31496062992125984,
          "duration": 0.2209302325580964
        },
        {
          "name": "F7",
          "midi": 101,
          "time": 38.48837209302267,
          "velocity": 0.3543307086614173,
          "duration": 0.23255813953483795
        },
        {
          "name": "D5",
          "midi": 74,
          "time": 38.49999999999941,
          "velocity": 0.3700787401574803,
          "duration": 0.12790697674416407
        },
        {
          "name": "A6",
          "midi": 93,
          "time": 38.49999999999941,
          "velocity": 0.3228346456692913,
          "duration": 0.1395348837209056
        },
        {
          "name": "F3",
          "midi": 53,
          "time": 38.51162790697615,
          "velocity": 0.30708661417322836,
          "duration": 0.023255813953483084
        },
        {
          "name": "D#7",
          "midi": 99,
          "time": 38.51162790697615,
          "velocity": 0.14173228346456693,
          "duration": 0.034883720930224626
        },
        {
          "name": "C#1",
          "midi": 25,
          "time": 38.52325581395289,
          "velocity": 0.7401574803149606,
          "duration": 0.011627906976741542
        },
        {
          "name": "D#4",
          "midi": 63,
          "time": 38.52325581395289,
          "velocity": 0.2283464566929134,
          "duration": 0.31395348837203585
        },
        {
          "name": "G4",
          "midi": 67,
          "time": 38.52325581395289,
          "velocity": 0.31496062992125984,
          "duration": 0.09302325581393944
        },
        {
          "name": "F#7",
          "midi": 102,
          "time": 38.52325581395289,
          "velocity": 0.13385826771653545,
          "duration": 0.10465116279068098
        },
        {
          "name": "D1",
          "midi": 26,
          "time": 38.534883720929635,
          "velocity": 0.7086614173228346,
          "duration": 0.011627906976741542
        },
        {
          "name": "G3",
          "midi": 55,
          "time": 38.534883720929635,
          "velocity": 0.33070866141732286,
          "duration": 0.06976744186045636
        },
        {
          "name": "G5",
          "midi": 79,
          "time": 38.534883720929635,
          "velocity": 0.4094488188976378,
          "duration": 0.12790697674416407
        },
        {
          "name": "B0",
          "midi": 23,
          "time": 38.546511627906376,
          "velocity": 0.6141732283464567,
          "duration": 0.011627906976741542
        },
        {
          "name": "G#6",
          "midi": 92,
          "time": 38.546511627906376,
          "velocity": 0.3700787401574803,
          "duration": 0.17441860465113024
        },
        {
          "name": "F#0",
          "midi": 18,
          "time": 38.55813953488312,
          "velocity": 0.5196850393700787,
          "duration": 0.011627906976741542
        },
        {
          "name": "G#5",
          "midi": 80,
          "time": 38.55813953488312,
          "velocity": 0.2755905511811024,
          "duration": 0.046511627906973274
        },
        {
          "name": "C#7",
          "midi": 97,
          "time": 38.55813953488312,
          "velocity": 0.12598425196850394,
          "duration": 0.06976744186045636
        },
        {
          "name": "G0",
          "midi": 19,
          "time": 38.5813953488366,
          "velocity": 0.4645669291338583,
          "duration": 0.02325581395349019
        },
        {
          "name": "C#6",
          "midi": 85,
          "time": 38.5813953488366,
          "velocity": 0.2283464566929134,
          "duration": 0.046511627906973274
        },
        {
          "name": "F#6",
          "midi": 90,
          "time": 38.5813953488366,
          "velocity": 0.2677165354330709,
          "duration": 0.03488372093023173
        },
        {
          "name": "A#6",
          "midi": 94,
          "time": 38.5813953488366,
          "velocity": 0.3543307086614173,
          "duration": 0.15116279069764715
        },
        {
          "name": "G#3",
          "midi": 56,
          "time": 38.60465116279009,
          "velocity": 0.4251968503937008,
          "duration": 0.11627906976741542
        },
        {
          "name": "G#4",
          "midi": 68,
          "time": 38.60465116279009,
          "velocity": 0.4251968503937008,
          "duration": 0.11627906976741542
        },
        {
          "name": "F6",
          "midi": 89,
          "time": 38.61627906976683,
          "velocity": 0.29133858267716534,
          "duration": 0.034883720930224626
        },
        {
          "name": "D#5",
          "midi": 75,
          "time": 38.627906976743574,
          "velocity": 0.5039370078740157,
          "duration": 0.18604651162787178
        },
        {
          "name": "D#7",
          "midi": 99,
          "time": 38.627906976743574,
          "velocity": 0.29133858267716534,
          "duration": 0.09302325581393234
        },
        {
          "name": "C6",
          "midi": 84,
          "time": 38.639534883720316,
          "velocity": 0.16535433070866143,
          "duration": 0.06976744186044925
        },
        {
          "name": "C7",
          "midi": 96,
          "time": 38.639534883720316,
          "velocity": 0.33858267716535434,
          "duration": 0.0813953488371908
        },
        {
          "name": "F#7",
          "midi": 102,
          "time": 38.639534883720316,
          "velocity": 0.2440944881889764,
          "duration": 0.0813953488371908
        },
        {
          "name": "B4",
          "midi": 71,
          "time": 38.65116279069706,
          "velocity": 0.08661417322834646,
          "duration": 0.034883720930224626
        },
        {
          "name": "F#6",
          "midi": 90,
          "time": 38.65116279069706,
          "velocity": 0.11811023622047244,
          "duration": 0.06976744186044925
        },
        {
          "name": "B6",
          "midi": 95,
          "time": 38.67441860465054,
          "velocity": 0.09448818897637795,
          "duration": 0.04651162790696617
        },
        {
          "name": "G5",
          "midi": 79,
          "time": 38.68604651162728,
          "velocity": 0.25196850393700787,
          "duration": 0.11627906976742253
        },
        {
          "name": "A6",
          "midi": 93,
          "time": 38.697674418604024,
          "velocity": 0.1968503937007874,
          "duration": 0.04651162790696617
        },
        {
          "name": "G3",
          "midi": 55,
          "time": 38.72093023255751,
          "velocity": 0.3937007874015748,
          "duration": 0.023255813953483084
        },
        {
          "name": "G4",
          "midi": 67,
          "time": 38.72093023255751,
          "velocity": 0.4015748031496063,
          "duration": 0.06976744186045636
        },
        {
          "name": "G#4",
          "midi": 68,
          "time": 38.79069767441796,
          "velocity": 0.41732283464566927,
          "duration": 0.05813953488370771
        },
        {
          "name": "B4",
          "midi": 71,
          "time": 38.79069767441796,
          "velocity": 0.2204724409448819,
          "duration": 0.034883720930224626
        },
        {
          "name": "G#6",
          "midi": 92,
          "time": 38.79069767441796,
          "velocity": 0.3228346456692913,
          "duration": 0.06976744186044925
        },
        {
          "name": "D5",
          "midi": 74,
          "time": 38.802325581394705,
          "velocity": 0.4409448818897638,
          "duration": 0.3255813953487774
        },
        {
          "name": "A#5",
          "midi": 82,
          "time": 38.802325581394705,
          "velocity": 0.08661417322834646,
          "duration": 0.05813953488370771
        },
        {
          "name": "F6",
          "midi": 89,
          "time": 38.802325581394705,
          "velocity": 0.29133858267716534,
          "duration": 0.034883720930224626
        },
        {
          "name": "G#3",
          "midi": 56,
          "time": 38.813953488371446,
          "velocity": 0.3543307086614173,
          "duration": 0.034883720930224626
        },
        {
          "name": "G5",
          "midi": 79,
          "time": 38.82558139534819,
          "velocity": 0.15748031496062992,
          "duration": 0.05813953488370771
        },
        {
          "name": "G6",
          "midi": 91,
          "time": 38.82558139534819,
          "velocity": 0.4409448818897638,
          "duration": 0.25581395348832814
        },
        {
          "name": "D4",
          "midi": 62,
          "time": 38.83720930232493,
          "velocity": 0.25196850393700787,
          "duration": 0.33720930232551893
        },
        {
          "name": "E6",
          "midi": 88,
          "time": 38.83720930232493,
          "velocity": 0.2204724409448819,
          "duration": 0.034883720930224626
        },
        {
          "name": "F#6",
          "midi": 90,
          "time": 38.83720930232493,
          "velocity": 0.2440944881889764,
          "duration": 0.034883720930224626
        },
        {
          "name": "G3",
          "midi": 55,
          "time": 38.84883720930167,
          "velocity": 0.4566929133858268,
          "duration": 0.20930232558136197
        },
        {
          "name": "A#4",
          "midi": 70,
          "time": 38.84883720930167,
          "velocity": 0.1889763779527559,
          "duration": 0.06976744186045636
        },
        {
          "name": "A6",
          "midi": 93,
          "time": 38.84883720930167,
          "velocity": 0.09448818897637795,
          "duration": 0.034883720930224626
        },
        {
          "name": "A5",
          "midi": 81,
          "time": 38.86046511627841,
          "velocity": 0.11023622047244094,
          "duration": 0.12790697674416407
        },
        {
          "name": "D#7",
          "midi": 99,
          "time": 38.872093023255154,
          "velocity": 0.1968503937007874,
          "duration": 0.17441860465113734
        },
        {
          "name": "B4",
          "midi": 71,
          "time": 38.906976744185386,
          "velocity": 0.12598425196850394,
          "duration": 0.034883720930224626
        },
        {
          "name": "G#5",
          "midi": 80,
          "time": 38.93023255813887,
          "velocity": 0.10236220472440945,
          "duration": 0.034883720930224626
        },
        {
          "name": "B5",
          "midi": 83,
          "time": 38.93023255813887,
          "velocity": 0.31496062992125984,
          "duration": 0.11627906976742253
        },
        {
          "name": "F6",
          "midi": 89,
          "time": 38.93023255813887,
          "velocity": 0.4015748031496063,
          "duration": 0.1395348837209056
        },
        {
          "name": "A6",
          "midi": 93,
          "time": 38.93023255813887,
          "velocity": 0.4094488188976378,
          "duration": 0.2674418604650626
        },
        {
          "name": "A#4",
          "midi": 70,
          "time": 38.95348837209235,
          "velocity": 0.1889763779527559,
          "duration": 0.034883720930224626
        },
        {
          "name": "G5",
          "midi": 79,
          "time": 38.95348837209235,
          "velocity": 0.3937007874015748,
          "duration": 0.12790697674416407
        },
        {
          "name": "F#7",
          "midi": 102,
          "time": 38.96511627906909,
          "velocity": 0.31496062992125984,
          "duration": 0.09302325581393944
        },
        {
          "name": "B6",
          "midi": 95,
          "time": 38.976744186045835,
          "velocity": 0.3543307086614173,
          "duration": 0.0813953488371979
        },
        {
          "name": "C#7",
          "midi": 97,
          "time": 38.99999999999932,
          "velocity": 0.13385826771653545,
          "duration": 0.046511627906973274
        },
        {
          "name": "A#4",
          "midi": 70,
          "time": 39.01162790697606,
          "velocity": 0.16535433070866143,
          "duration": 0.058139534883714816
        },
        {
          "name": "F#6",
          "midi": 90,
          "time": 39.03488372092955,
          "velocity": 0.12598425196850394,
          "duration": 0.034883720930224626
        },
        {
          "name": "G#6",
          "midi": 92,
          "time": 39.03488372092955,
          "velocity": 0.2047244094488189,
          "duration": 0.05813953488370771
        },
        {
          "name": "E7",
          "midi": 100,
          "time": 39.03488372092955,
          "velocity": 0.2125984251968504,
          "duration": 0.12790697674415696
        },
        {
          "name": "F#4",
          "midi": 66,
          "time": 39.04651162790629,
          "velocity": 0.28346456692913385,
          "duration": 0.023255813953483084
        },
        {
          "name": "G3",
          "midi": 55,
          "time": 39.069767441859774,
          "velocity": 0.41732283464566927,
          "duration": 0.023255813953483084
        },
        {
          "name": "A5",
          "midi": 81,
          "time": 39.069767441859774,
          "velocity": 0.1889763779527559,
          "duration": 0.09302325581393234
        },
        {
          "name": "A#6",
          "midi": 94,
          "time": 39.069767441859774,
          "velocity": 0.2677165354330709,
          "duration": 0.034883720930224626
        },
        {
          "name": "G#4",
          "midi": 68,
          "time": 39.081395348836516,
          "velocity": 0.31496062992125984,
          "duration": 0.023255813953483084
        },
        {
          "name": "C5",
          "midi": 72,
          "time": 39.081395348836516,
          "velocity": 0.3858267716535433,
          "duration": 0.09302325581393234
        },
        {
          "name": "F5",
          "midi": 77,
          "time": 39.081395348836516,
          "velocity": 0.25196850393700787,
          "duration": 0.09302325581393234
        },
        {
          "name": "C7",
          "midi": 96,
          "time": 39.081395348836516,
          "velocity": 0.3700787401574803,
          "duration": 0.0813953488371908
        },
        {
          "name": "F7",
          "midi": 101,
          "time": 39.081395348836516,
          "velocity": 0.30708661417322836,
          "duration": 0.0813953488371908
        },
        {
          "name": "F#7",
          "midi": 102,
          "time": 39.081395348836516,
          "velocity": 0.2125984251968504,
          "duration": 0.09302325581393234
        },
        {
          "name": "F4",
          "midi": 65,
          "time": 39.09302325581326,
          "velocity": 0.2047244094488189,
          "duration": 0.06976744186044925
        },
        {
          "name": "C#7",
          "midi": 97,
          "time": 39.09302325581326,
          "velocity": 0.2047244094488189,
          "duration": 0.06976744186044925
        },
        {
          "name": "D#7",
          "midi": 99,
          "time": 39.09302325581326,
          "velocity": 0.23622047244094488,
          "duration": 0.06976744186044925
        },
        {
          "name": "G7",
          "midi": 103,
          "time": 39.09302325581326,
          "velocity": 0.12598425196850394,
          "duration": 0.034883720930224626
        },
        {
          "name": "F3",
          "midi": 53,
          "time": 39.10465116279,
          "velocity": 0.3228346456692913,
          "duration": 0.04651162790696617
        },
        {
          "name": "G5",
          "midi": 79,
          "time": 39.10465116279,
          "velocity": 0.2992125984251969,
          "duration": 0.3488372093022605
        },
        {
          "name": "B6",
          "midi": 95,
          "time": 39.10465116279,
          "velocity": 0.2283464566929134,
          "duration": 0.04651162790696617
        },
        {
          "name": "G#4",
          "midi": 68,
          "time": 39.11627906976674,
          "velocity": 0.2204724409448819,
          "duration": 0.06976744186044925
        },
        {
          "name": "D#5",
          "midi": 75,
          "time": 39.11627906976674,
          "velocity": 0.2204724409448819,
          "duration": 0.04651162790696617
        },
        {
          "name": "D6",
          "midi": 86,
          "time": 39.12790697674348,
          "velocity": 0.3228346456692913,
          "duration": 0.11627906976741542
        },
        {
          "name": "D5",
          "midi": 74,
          "time": 39.13953488372022,
          "velocity": 0.2677165354330709,
          "duration": 0.18604651162786467
        },
        {
          "name": "F3",
          "midi": 53,
          "time": 39.16279069767371,
          "velocity": 0.3700787401574803,
          "duration": 0.023255813953483084
        },
        {
          "name": "D4",
          "midi": 62,
          "time": 39.18604651162719,
          "velocity": 0.29133858267716534,
          "duration": 0.25581395348832814
        },
        {
          "name": "D#3",
          "midi": 51,
          "time": 39.19767441860393,
          "velocity": 0.3464566929133858,
          "duration": 0.034883720930224626
        },
        {
          "name": "A4",
          "midi": 69,
          "time": 39.20930232558067,
          "velocity": 0.2125984251968504,
          "duration": 0.04651162790696617
        },
        {
          "name": "C5",
          "midi": 72,
          "time": 39.20930232558067,
          "velocity": 0.18110236220472442,
          "duration": 0.034883720930224626
        },
        {
          "name": "F#6",
          "midi": 90,
          "time": 39.20930232558067,
          "velocity": 0.14960629921259844,
          "duration": 0.0813953488371908
        },
        {
          "name": "G6",
          "midi": 91,
          "time": 39.20930232558067,
          "velocity": 0.2992125984251969,
          "duration": 0.3255813953487774
        },
        {
          "name": "G#6",
          "midi": 92,
          "time": 39.20930232558067,
          "velocity": 0.2047244094488189,
          "duration": 0.06976744186044925
        },
        {
          "name": "A6",
          "midi": 93,
          "time": 39.20930232558067,
          "velocity": 0.28346456692913385,
          "duration": 0.15116279069764715
        },
        {
          "name": "F7",
          "midi": 101,
          "time": 39.20930232558067,
          "velocity": 0.2125984251968504,
          "duration": 0.09302325581393234
        },
        {
          "name": "F#5",
          "midi": 78,
          "time": 39.220930232557414,
          "velocity": 0.2204724409448819,
          "duration": 0.04651162790696617
        },
        {
          "name": "A5",
          "midi": 81,
          "time": 39.220930232557414,
          "velocity": 0.25984251968503935,
          "duration": 0.0813953488371908
        },
        {
          "name": "A#6",
          "midi": 94,
          "time": 39.220930232557414,
          "velocity": 0.1889763779527559,
          "duration": 0.04651162790696617
        },
        {
          "name": "B6",
          "midi": 95,
          "time": 39.220930232557414,
          "velocity": 0.11023622047244094,
          "duration": 0.05813953488370771
        },
        {
          "name": "E7",
          "midi": 100,
          "time": 39.220930232557414,
          "velocity": 0.14960629921259844,
          "duration": 0.0813953488371908
        },
        {
          "name": "F#7",
          "midi": 102,
          "time": 39.220930232557414,
          "velocity": 0.1889763779527559,
          "duration": 0.0813953488371908
        },
        {
          "name": "D#6",
          "midi": 87,
          "time": 39.2441860465109,
          "velocity": 0.33070866141732286,
          "duration": 0.04651162790696617
        },
        {
          "name": "G#4",
          "midi": 68,
          "time": 39.25581395348764,
          "velocity": 0.2283464566929134,
          "duration": 0.04651162790696617
        },
        {
          "name": "C6",
          "midi": 84,
          "time": 39.25581395348764,
          "velocity": 0.1889763779527559,
          "duration": 0.034883720930224626
        },
        {
          "name": "D6",
          "midi": 86,
          "time": 39.25581395348764,
          "velocity": 0.3543307086614173,
          "duration": 0.17441860465113734
        },
        {
          "name": "B5",
          "midi": 83,
          "time": 39.26744186046438,
          "velocity": 0.2047244094488189,
          "duration": 0.04651162790696617
        },
        {
          "name": "C#6",
          "midi": 85,
          "time": 39.26744186046438,
          "velocity": 0.2204724409448819,
          "duration": 0.034883720930224626
        },
        {
          "name": "D3",
          "midi": 50,
          "time": 39.27906976744112,
          "velocity": 0.18110236220472442,
          "duration": 0.04651162790696617
        },
        {
          "name": "A#6",
          "midi": 94,
          "time": 39.27906976744112,
          "velocity": 0.11811023622047244,
          "duration": 0.04651162790696617
        },
        {
          "name": "F#5",
          "midi": 78,
          "time": 39.29069767441786,
          "velocity": 0.12598425196850394,
          "duration": 0.034883720930224626
        },
        {
          "name": "G#6",
          "midi": 92,
          "time": 39.29069767441786,
          "velocity": 0.25984251968503935,
          "duration": 0.20930232558136197
        },
        {
          "name": "G4",
          "midi": 67,
          "time": 39.302325581394605,
          "velocity": 0.2047244094488189,
          "duration": 0.15116279069765426
        },
        {
          "name": "A#5",
          "midi": 82,
          "time": 39.302325581394605,
          "velocity": 0.3228346456692913,
          "duration": 0.046511627906973274
        },
        {
          "name": "C6",
          "midi": 84,
          "time": 39.302325581394605,
          "velocity": 0.2204724409448819,
          "duration": 0.046511627906973274
        },
        {
          "name": "A5",
          "midi": 81,
          "time": 39.31395348837135,
          "velocity": 0.30708661417322836,
          "duration": 0.09302325581394655
        },
        {
          "name": "F#6",
          "midi": 90,
          "time": 39.32558139534809,
          "velocity": 0.2125984251968504,
          "duration": 0.11627906976742963
        },
        {
          "name": "B5",
          "midi": 83,
          "time": 39.34883720930158,
          "velocity": 0.3464566929133858,
          "duration": 0.11627906976742253
        },
        {
          "name": "A#5",
          "midi": 82,
          "time": 39.37209302325506,
          "velocity": 0.41732283464566927,
          "duration": 0.06976744186045636
        },
        {
          "name": "F6",
          "midi": 89,
          "time": 39.37209302325506,
          "velocity": 0.25196850393700787,
          "duration": 0.11627906976742253
        },
        {
          "name": "C#6",
          "midi": 85,
          "time": 39.3837209302318,
          "velocity": 0.23622047244094488,
          "duration": 0.058139534883714816
        },
        {
          "name": "D#7",
          "midi": 99,
          "time": 39.3837209302318,
          "velocity": 0.2125984251968504,
          "duration": 0.10465116279068098
        },
        {
          "name": "E7",
          "midi": 100,
          "time": 39.3837209302318,
          "velocity": 0.16535433070866143,
          "duration": 0.06976744186045636
        },
        {
          "name": "G#5",
          "midi": 80,
          "time": 39.40697674418529,
          "velocity": 0.30708661417322836,
          "duration": 0.023255813953483084
        },
        {
          "name": "A6",
          "midi": 93,
          "time": 39.40697674418529,
          "velocity": 0.18110236220472442,
          "duration": 0.09302325581393234
        },
        {
          "name": "A5",
          "midi": 81,
          "time": 39.418604651162035,
          "velocity": 0.3228346456692913,
          "duration": 0.04651162790696617
        },
        {
          "name": "D#6",
          "midi": 87,
          "time": 39.418604651162035,
          "velocity": 0.13385826771653545,
          "duration": 0.05813953488370771
        },
        {
          "name": "G#3",
          "midi": 56,
          "time": 39.430232558138776,
          "velocity": 0.31496062992125984,
          "duration": 0.11627906976741542
        },
        {
          "name": "C6",
          "midi": 84,
          "time": 39.430232558138776,
          "velocity": 0.2992125984251969,
          "duration": 0.11627906976741542
        },
        {
          "name": "E5",
          "midi": 76,
          "time": 39.44186046511552,
          "velocity": 0.28346456692913385,
          "duration": 0.05813953488370771
        },
        {
          "name": "C#6",
          "midi": 85,
          "time": 39.45348837209226,
          "velocity": 0.1968503937007874,
          "duration": 0.034883720930224626
        },
        {
          "name": "A#1",
          "midi": 34,
          "time": 39.465116279069,
          "velocity": 0.5669291338582677,
          "duration": 0.011627906976741542
        },
        {
          "name": "G5",
          "midi": 79,
          "time": 39.465116279069,
          "velocity": 0.33858267716535434,
          "duration": 0.034883720930224626
        },
        {
          "name": "A#5",
          "midi": 82,
          "time": 39.465116279069,
          "velocity": 0.29133858267716534,
          "duration": 0.06976744186044925
        },
        {
          "name": "G1",
          "midi": 31,
          "time": 39.47674418604574,
          "velocity": 0.7559055118110236,
          "duration": 0.023255813953483084
        },
        {
          "name": "D#3",
          "midi": 51,
          "time": 39.488372093022484,
          "velocity": 0.2755905511811024,
          "duration": 0.19767441860461332
        },
        {
          "name": "A#4",
          "midi": 70,
          "time": 39.488372093022484,
          "velocity": 0.14960629921259844,
          "duration": 0.05813953488370771
        },
        {
          "name": "G#1",
          "midi": 32,
          "time": 39.499999999999226,
          "velocity": 0.7637795275590551,
          "duration": 0.6046511627905673
        },
        {
          "name": "D5",
          "midi": 74,
          "time": 39.499999999999226,
          "velocity": 0.3464566929133858,
          "duration": 0.034883720930224626
        },
        {
          "name": "A5",
          "midi": 81,
          "time": 39.499999999999226,
          "velocity": 0.25196850393700787,
          "duration": 0.06976744186044925
        },
        {
          "name": "B5",
          "midi": 83,
          "time": 39.499999999999226,
          "velocity": 0.07874015748031496,
          "duration": 0.034883720930224626
        },
        {
          "name": "D#4",
          "midi": 63,
          "time": 39.51162790697597,
          "velocity": 0.4251968503937008,
          "duration": 0.06976744186044925
        },
        {
          "name": "C5",
          "midi": 72,
          "time": 39.51162790697597,
          "velocity": 0.1968503937007874,
          "duration": 0.04651162790696617
        },
        {
          "name": "F5",
          "midi": 77,
          "time": 39.51162790697597,
          "velocity": 0.11811023622047244,
          "duration": 0.034883720930224626
        },
        {
          "name": "F#4",
          "midi": 66,
          "time": 39.52325581395271,
          "velocity": 0.18110236220472442,
          "duration": 0.034883720930224626
        },
        {
          "name": "G#4",
          "midi": 68,
          "time": 39.52325581395271,
          "velocity": 0.33858267716535434,
          "duration": 0.12790697674416407
        },
        {
          "name": "B5",
          "midi": 83,
          "time": 39.54651162790619,
          "velocity": 0.2677165354330709,
          "duration": 0.04651162790696617
        },
        {
          "name": "F#6",
          "midi": 90,
          "time": 39.54651162790619,
          "velocity": 0.16535433070866143,
          "duration": 0.12790697674416407
        },
        {
          "name": "G#3",
          "midi": 56,
          "time": 39.55813953488293,
          "velocity": 0.31496062992125984,
          "duration": 0.11627906976742253
        },
        {
          "name": "C7",
          "midi": 96,
          "time": 39.55813953488293,
          "velocity": 0.12598425196850394,
          "duration": 0.034883720930224626
        },
        {
          "name": "E7",
          "midi": 100,
          "time": 39.55813953488293,
          "velocity": 0.13385826771653545,
          "duration": 0.034883720930224626
        },
        {
          "name": "F7",
          "midi": 101,
          "time": 39.55813953488293,
          "velocity": 0.2755905511811024,
          "duration": 0.05813953488370771
        },
        {
          "name": "D5",
          "midi": 74,
          "time": 39.569767441859675,
          "velocity": 0.3464566929133858,
          "duration": 0.023255813953483084
        },
        {
          "name": "G5",
          "midi": 79,
          "time": 39.569767441859675,
          "velocity": 0.11023622047244094,
          "duration": 0.04651162790696617
        },
        {
          "name": "G6",
          "midi": 91,
          "time": 39.569767441859675,
          "velocity": 0.25196850393700787,
          "duration": 0.034883720930224626
        },
        {
          "name": "G#6",
          "midi": 92,
          "time": 39.569767441859675,
          "velocity": 0.33858267716535434,
          "duration": 0.2209302325580964
        },
        {
          "name": "A#6",
          "midi": 94,
          "time": 39.569767441859675,
          "velocity": 0.4094488188976378,
          "duration": 0.17441860465113024
        },
        {
          "name": "A#5",
          "midi": 82,
          "time": 39.581395348836416,
          "velocity": 0.33070866141732286,
          "duration": 0.33720930232551183
        },
        {
          "name": "F#7",
          "midi": 102,
          "time": 39.581395348836416,
          "velocity": 0.33070866141732286,
          "duration": 0.09302325581393944
        },
        {
          "name": "A#4",
          "midi": 70,
          "time": 39.59302325581316,
          "velocity": 0.10236220472440945,
          "duration": 0.058139534883714816
        },
        {
          "name": "D#5",
          "midi": 75,
          "time": 39.59302325581316,
          "velocity": 0.4330708661417323,
          "duration": 0.06976744186045636
        },
        {
          "name": "C6",
          "midi": 84,
          "time": 39.59302325581316,
          "velocity": 0.12598425196850394,
          "duration": 0.058139534883714816
        },
        {
          "name": "D#7",
          "midi": 99,
          "time": 39.59302325581316,
          "velocity": 0.1889763779527559,
          "duration": 0.0813953488371979
        },
        {
          "name": "G7",
          "midi": 103,
          "time": 39.6046511627899,
          "velocity": 0.12598425196850394,
          "duration": 0.046511627906973274
        },
        {
          "name": "C4",
          "midi": 60,
          "time": 39.61627906976664,
          "velocity": 0.1889763779527559,
          "duration": 0.058139534883714816
        },
        {
          "name": "E7",
          "midi": 100,
          "time": 39.61627906976664,
          "velocity": 0.28346456692913385,
          "duration": 0.11627906976742253
        },
        {
          "name": "G4",
          "midi": 67,
          "time": 39.65116279069687,
          "velocity": 0.33070866141732286,
          "duration": 0.023255813953483084
        },
        {
          "name": "F7",
          "midi": 101,
          "time": 39.65116279069687,
          "velocity": 0.3464566929133858,
          "duration": 0.06976744186044925
        },
        {
          "name": "D4",
          "midi": 62,
          "time": 39.674418604650356,
          "velocity": 0.3464566929133858,
          "duration": 0.034883720930224626
        },
        {
          "name": "G5",
          "midi": 79,
          "time": 39.674418604650356,
          "velocity": 0.14173228346456693,
          "duration": 0.034883720930224626
        },
        {
          "name": "A6",
          "midi": 93,
          "time": 39.674418604650356,
          "velocity": 0.23622047244094488,
          "duration": 0.023255813953483084
        },
        {
          "name": "G#4",
          "midi": 68,
          "time": 39.6860465116271,
          "velocity": 0.41732283464566927,
          "duration": 0.06976744186044925
        },
        {
          "name": "A#4",
          "midi": 70,
          "time": 39.6860465116271,
          "velocity": 0.2677165354330709,
          "duration": 0.04651162790696617
        },
        {
          "name": "D#5",
          "midi": 75,
          "time": 39.6860465116271,
          "velocity": 0.28346456692913385,
          "duration": 0.06976744186044925
        },
        {
          "name": "D#7",
          "midi": 99,
          "time": 39.6860465116271,
          "velocity": 0.11811023622047244,
          "duration": 0.04651162790696617
        },
        {
          "name": "F#7",
          "midi": 102,
          "time": 39.6860465116271,
          "velocity": 0.2204724409448819,
          "duration": 0.06976744186044925
        },
        {
          "name": "G3",
          "midi": 55,
          "time": 39.69767441860384,
          "velocity": 0.33070866141732286,
          "duration": 0.023255813953483084
        },
        {
          "name": "F5",
          "midi": 77,
          "time": 39.69767441860384,
          "velocity": 0.23622047244094488,
          "duration": 0.1395348837208985
        },
        {
          "name": "C6",
          "midi": 84,
          "time": 39.69767441860384,
          "velocity": 0.13385826771653545,
          "duration": 0.04651162790696617
        },
        {
          "name": "F#6",
          "midi": 90,
          "time": 39.69767441860384,
          "velocity": 0.1732283464566929,
          "duration": 0.05813953488370771
        },
        {
          "name": "D#4",
          "midi": 63,
          "time": 39.70930232558058,
          "velocity": 0.3543307086614173,
          "duration": 0.0813953488371908
        },
        {
          "name": "D#3",
          "midi": 51,
          "time": 39.72093023255732,
          "velocity": 0.2755905511811024,
          "duration": 0.023255813953483084
        },
        {
          "name": "A#4",
          "midi": 70,
          "time": 39.744186046510805,
          "velocity": 0.3464566929133858,
          "duration": 0.05813953488370771
        },
        {
          "name": "G5",
          "midi": 79,
          "time": 39.744186046510805,
          "velocity": 0.14173228346456693,
          "duration": 0.034883720930224626
        },
        {
          "name": "G4",
          "midi": 67,
          "time": 39.75581395348755,
          "velocity": 0.28346456692913385,
          "duration": 0.023255813953483084
        },
        {
          "name": "D5",
          "midi": 74,
          "time": 39.75581395348755,
          "velocity": 0.25196850393700787,
          "duration": 0.04651162790696617
        },
        {
          "name": "G3",
          "midi": 55,
          "time": 39.76744186046429,
          "velocity": 0.3858267716535433,
          "duration": 0.034883720930224626
        },
        {
          "name": "D#3",
          "midi": 51,
          "time": 39.77906976744103,
          "velocity": 0.2755905511811024,
          "duration": 0.023255813953483084
        },
        {
          "name": "G#4",
          "midi": 68,
          "time": 39.80232558139451,
          "velocity": 0.14960629921259844,
          "duration": 0.034883720930224626
        },
        {
          "name": "D#3",
          "midi": 51,
          "time": 39.813953488371254,
          "velocity": 0.31496062992125984,
          "duration": 0.09302325581393234
        },
        {
          "name": "C4",
          "midi": 60,
          "time": 39.813953488371254,
          "velocity": 0.1968503937007874,
          "duration": 0.04651162790696617
        },
        {
          "name": "D5",
          "midi": 74,
          "time": 39.813953488371254,
          "velocity": 0.23622047244094488,
          "duration": 0.04651162790696617
        },
        {
          "name": "C6",
          "midi": 84,
          "time": 39.813953488371254,
          "velocity": 0.14960629921259844,
          "duration": 0.0813953488371908
        },
        {
          "name": "F#4",
          "midi": 66,
          "time": 39.825581395347996,
          "velocity": 0.2047244094488189,
          "duration": 0.04651162790696617
        },
        {
          "name": "A#4",
          "midi": 70,
          "time": 39.825581395347996,
          "velocity": 0.2283464566929134,
          "duration": 0.04651162790696617
        },
        {
          "name": "G#3",
          "midi": 56,
          "time": 39.84883720930148,
          "velocity": 0.33858267716535434,
          "duration": 0.04651162790696617
        },
        {
          "name": "D#5",
          "midi": 75,
          "time": 39.86046511627822,
          "velocity": 0.4251968503937008,
          "duration": 0.034883720930224626
        },
        {
          "name": "G5",
          "midi": 79,
          "time": 39.86046511627822,
          "velocity": 0.3937007874015748,
          "duration": 0.1395348837208985
        },
        {
          "name": "B6",
          "midi": 95,
          "time": 39.87209302325496,
          "velocity": 0.2677165354330709,
          "duration": 0.05813953488370771
        },
        {
          "name": "C#7",
          "midi": 97,
          "time": 39.87209302325496,
          "velocity": 0.2204724409448819,
          "duration": 0.09302325581393234
        },
        {
          "name": "D7",
          "midi": 98,
          "time": 39.87209302325496,
          "velocity": 0.25196850393700787,
          "duration": 0.034883720930224626
        },
        {
          "name": "E7",
          "midi": 100,
          "time": 39.87209302325496,
          "velocity": 0.28346456692913385,
          "duration": 0.05813953488370771
        },
        {
          "name": "F7",
          "midi": 101,
          "time": 39.87209302325496,
          "velocity": 0.30708661417322836,
          "duration": 0.11627906976741542
        },
        {
          "name": "D4",
          "midi": 62,
          "time": 39.8837209302317,
          "velocity": 0.2755905511811024,
          "duration": 0.023255813953483084
        },
        {
          "name": "G#6",
          "midi": 92,
          "time": 39.8837209302317,
          "velocity": 0.2677165354330709,
          "duration": 0.034883720930224626
        },
        {
          "name": "A6",
          "midi": 93,
          "time": 39.8837209302317,
          "velocity": 0.2755905511811024,
          "duration": 0.023255813953483084
        },
        {
          "name": "D#7",
          "midi": 99,
          "time": 39.8837209302317,
          "velocity": 0.31496062992125984,
          "duration": 0.0813953488371908
        },
        {
          "name": "G3",
          "midi": 55,
          "time": 39.895348837208445,
          "velocity": 0.33070866141732286,
          "duration": 0.04651162790696617
        },
        {
          "name": "D5",
          "midi": 74,
          "time": 39.895348837208445,
          "velocity": 0.4251968503937008,
          "duration": 0.09302325581393234
        },
        {
          "name": "D#4",
          "midi": 63,
          "time": 39.90697674418519,
          "velocity": 0.2992125984251969,
          "duration": 0.034883720930224626
        },
        {
          "name": "B5",
          "midi": 83,
          "time": 39.91860465116193,
          "velocity": 0.2440944881889764,
          "duration": 0.06976744186044925
        },
        {
          "name": "A6",
          "midi": 93,
          "time": 39.91860465116193,
          "velocity": 0.3700787401574803,
          "duration": 0.0813953488371908
        },
        {
          "name": "F#7",
          "midi": 102,
          "time": 39.91860465116193,
          "velocity": 0.15748031496062992,
          "duration": 0.05813953488370771
        },
        {
          "name": "D#3",
          "midi": 51,
          "time": 39.94186046511541,
          "velocity": 0.2440944881889764,
          "duration": 0.023255813953483084
        },
        {
          "name": "D4",
          "midi": 62,
          "time": 39.94186046511541,
          "velocity": 0.2992125984251969,
          "duration": 0.023255813953483084
        },
        {
          "name": "A5",
          "midi": 81,
          "time": 39.94186046511541,
          "velocity": 0.12598425196850394,
          "duration": 0.17441860465112313
        },
        {
          "name": "G4",
          "midi": 67,
          "time": 39.95348837209215,
          "velocity": 0.18110236220472442,
          "duration": 0.04651162790696617
        },
        {
          "name": "F6",
          "midi": 89,
          "time": 39.95348837209215,
          "velocity": 0.08661417322834646,
          "duration": 0.04651162790696617
        },
        {
          "name": "G#3",
          "midi": 56,
          "time": 39.965116279068894,
          "velocity": 0.4094488188976378,
          "duration": 0.034883720930224626
        },
        {
          "name": "D#4",
          "midi": 63,
          "time": 39.965116279068894,
          "velocity": 0.2440944881889764,
          "duration": 0.034883720930224626
        },
        {
          "name": "A#5",
          "midi": 82,
          "time": 39.965116279068894,
          "velocity": 0.1889763779527559,
          "duration": 0.15116279069764005
        },
        {
          "name": "C5",
          "midi": 72,
          "time": 39.98837209302238,
          "velocity": 0.11023622047244094,
          "duration": 0.034883720930224626
        },
        {
          "name": "D#5",
          "midi": 75,
          "time": 39.98837209302238,
          "velocity": 0.4330708661417323,
          "duration": 0.3255813953487703
        },
        {
          "name": "G#4",
          "midi": 68,
          "time": 39.99999999999912,
          "velocity": 0.2283464566929134,
          "duration": 0.034883720930224626
        },
        {
          "name": "G#3",
          "midi": 56,
          "time": 40.01162790697586,
          "velocity": 0.33858267716535434,
          "duration": 0.023255813953483084
        },
        {
          "name": "D#4",
          "midi": 63,
          "time": 40.01162790697586,
          "velocity": 0.2992125984251969,
          "duration": 0.0813953488371908
        },
        {
          "name": "D#3",
          "midi": 51,
          "time": 40.0232558139526,
          "velocity": 0.30708661417322836,
          "duration": 0.05813953488370771
        },
        {
          "name": "F#4",
          "midi": 66,
          "time": 40.0232558139526,
          "velocity": 0.29133858267716534,
          "duration": 0.0813953488371908
        },
        {
          "name": "G#3",
          "midi": 56,
          "time": 40.046511627906085,
          "velocity": 0.41732283464566927,
          "duration": 0.04651162790696617
        },
        {
          "name": "F5",
          "midi": 77,
          "time": 40.05813953488283,
          "velocity": 0.1732283464566929,
          "duration": 0.05813953488370771
        },
        {
          "name": "F#7",
          "midi": 102,
          "time": 40.06976744185957,
          "velocity": 0.10236220472440945,
          "duration": 0.034883720930224626
        },
        {
          "name": "D4",
          "midi": 62,
          "time": 40.09302325581305,
          "velocity": 0.23622047244094488,
          "duration": 0.034883720930224626
        },
        {
          "name": "G1",
          "midi": 31,
          "time": 40.10465116278979,
          "velocity": 0.6850393700787402,
          "duration": 0.011627906976741542
        },
        {
          "name": "F1",
          "midi": 29,
          "time": 40.116279069766534,
          "velocity": 0.5275590551181102,
          "duration": 0.011627906976741542
        },
        {
          "name": "E4",
          "midi": 64,
          "time": 40.116279069766534,
          "velocity": 0.23622047244094488,
          "duration": 0.023255813953483084
        },
        {
          "name": "A#4",
          "midi": 70,
          "time": 40.116279069766534,
          "velocity": 0.2283464566929134,
          "duration": 0.023255813953483084
        },
        {
          "name": "F7",
          "midi": 101,
          "time": 40.116279069766534,
          "velocity": 0.13385826771653545,
          "duration": 0.04651162790696617
        },
        {
          "name": "G#4",
          "midi": 68,
          "time": 40.127906976743276,
          "velocity": 0.3543307086614173,
          "duration": 0.06976744186044925
        },
        {
          "name": "C1",
          "midi": 24,
          "time": 40.13953488372002,
          "velocity": 0.5826771653543307,
          "duration": 0.011627906976741542
        },
        {
          "name": "D#3",
          "midi": 51,
          "time": 40.13953488372002,
          "velocity": 0.33858267716535434,
          "duration": 0.023255813953483084
        },
        {
          "name": "G#3",
          "midi": 56,
          "time": 40.13953488372002,
          "velocity": 0.4094488188976378,
          "duration": 0.1627906976743887
        },
        {
          "name": "D4",
          "midi": 62,
          "time": 40.13953488372002,
          "velocity": 0.29133858267716534,
          "duration": 0.034883720930224626
        },
        {
          "name": "C6",
          "midi": 84,
          "time": 40.13953488372002,
          "velocity": 0.3228346456692913,
          "duration": 0.06976744186044925
        },
        {
          "name": "G1",
          "midi": 31,
          "time": 40.15116279069676,
          "velocity": 0.7637795275590551,
          "duration": 0.023255813953483084
        },
        {
          "name": "B4",
          "midi": 71,
          "time": 40.15116279069676,
          "velocity": 0.25196850393700787,
          "duration": 0.023255813953483084
        },
        {
          "name": "F5",
          "midi": 77,
          "time": 40.15116279069676,
          "velocity": 0.31496062992125984,
          "duration": 0.19767441860461332
        },
        {
          "name": "A#5",
          "midi": 82,
          "time": 40.15116279069676,
          "velocity": 0.2440944881889764,
          "duration": 0.0813953488371979
        },
        {
          "name": "C#6",
          "midi": 85,
          "time": 40.15116279069676,
          "velocity": 0.3464566929133858,
          "duration": 0.034883720930224626
        },
        {
          "name": "F4",
          "midi": 65,
          "time": 40.1627906976735,
          "velocity": 0.2755905511811024,
          "duration": 0.023255813953483084
        },
        {
          "name": "D6",
          "midi": 86,
          "time": 40.1627906976735,
          "velocity": 0.1889763779527559,
          "duration": 0.034883720930224626
        },
        {
          "name": "F#1",
          "midi": 30,
          "time": 40.17441860465024,
          "velocity": 0.7637795275590551,
          "duration": 0.011627906976741542
        },
        {
          "name": "D#3",
          "midi": 51,
          "time": 40.17441860465024,
          "velocity": 0.3858267716535433,
          "duration": 0.034883720930224626
        },
        {
          "name": "A#4",
          "midi": 70,
          "time": 40.17441860465024,
          "velocity": 0.3779527559055118,
          "duration": 0.023255813953483084
        },
        {
          "name": "F#5",
          "midi": 78,
          "time": 40.17441860465024,
          "velocity": 0.2283464566929134,
          "duration": 0.023255813953483084
        },
        {
          "name": "G1",
          "midi": 31,
          "time": 40.186046511626984,
          "velocity": 0.7716535433070866,
          "duration": 0.59302325581384
        },
        {
          "name": "G6",
          "midi": 91,
          "time": 40.186046511626984,
          "velocity": 0.15748031496062992,
          "duration": 0.10465116279068098
        },
        {
          "name": "G5",
          "midi": 79,
          "time": 40.197674418603725,
          "velocity": 0.1889763779527559,
          "duration": 0.09302325581393944
        },
        {
          "name": "C#6",
          "midi": 85,
          "time": 40.197674418603725,
          "velocity": 0.2440944881889764,
          "duration": 0.06976744186045636
        },
        {
          "name": "D3",
          "midi": 50,
          "time": 40.20930232558047,
          "velocity": 0.2992125984251969,
          "duration": 0.02325581395349019
        },
        {
          "name": "C7",
          "midi": 96,
          "time": 40.20930232558047,
          "velocity": 0.1968503937007874,
          "duration": 0.03488372093023173
        },
        {
          "name": "A#5",
          "midi": 82,
          "time": 40.2441860465107,
          "velocity": 0.15748031496062992,
          "duration": 0.034883720930224626
        },
        {
          "name": "D#3",
          "midi": 51,
          "time": 40.25581395348744,
          "velocity": 0.3228346456692913,
          "duration": 0.023255813953483084
        },
        {
          "name": "G#5",
          "midi": 80,
          "time": 40.26744186046418,
          "velocity": 0.11811023622047244,
          "duration": 0.034883720930224626
        },
        {
          "name": "C#5",
          "midi": 73,
          "time": 40.27906976744092,
          "velocity": 0.25196850393700787,
          "duration": 0.04651162790696617
        },
        {
          "name": "A#5",
          "midi": 82,
          "time": 40.290697674417665,
          "velocity": 0.14960629921259844,
          "duration": 0.05813953488370771
        },
        {
          "name": "G4",
          "midi": 67,
          "time": 40.32558139534789,
          "velocity": 0.4330708661417323,
          "duration": 0.05813953488370771
        },
        {
          "name": "D5",
          "midi": 74,
          "time": 40.32558139534789,
          "velocity": 0.4409448818897638,
          "duration": 0.06976744186044925
        },
        {
          "name": "E7",
          "midi": 100,
          "time": 40.32558139534789,
          "velocity": 0.07874015748031496,
          "duration": 0.05813953488370771
        },
        {
          "name": "F7",
          "midi": 101,
          "time": 40.32558139534789,
          "velocity": 0.15748031496062992,
          "duration": 0.1627906976743887
        },
        {
          "name": "G3",
          "midi": 55,
          "time": 40.33720930232463,
          "velocity": 0.4881889763779528,
          "duration": 0.04651162790696617
        },
        {
          "name": "G6",
          "midi": 91,
          "time": 40.33720930232463,
          "velocity": 0.44881889763779526,
          "duration": 0.23255813953483795
        },
        {
          "name": "B5",
          "midi": 83,
          "time": 40.34883720930137,
          "velocity": 0.2992125984251969,
          "duration": 0.17441860465113024
        },
        {
          "name": "F6",
          "midi": 89,
          "time": 40.34883720930137,
          "velocity": 0.3228346456692913,
          "duration": 0.12790697674416407
        },
        {
          "name": "G#6",
          "midi": 92,
          "time": 40.34883720930137,
          "velocity": 0.15748031496062992,
          "duration": 0.05813953488370771
        },
        {
          "name": "A6",
          "midi": 93,
          "time": 40.34883720930137,
          "velocity": 0.28346456692913385,
          "duration": 0.2209302325580964
        },
        {
          "name": "C6",
          "midi": 84,
          "time": 40.360465116278114,
          "velocity": 0.14173228346456693,
          "duration": 0.034883720930224626
        },
        {
          "name": "D#6",
          "midi": 87,
          "time": 40.360465116278114,
          "velocity": 0.2047244094488189,
          "duration": 0.04651162790696617
        },
        {
          "name": "F5",
          "midi": 77,
          "time": 40.372093023254855,
          "velocity": 0.2677165354330709,
          "duration": 0.20930232558135486
        },
        {
          "name": "G#3",
          "midi": 56,
          "time": 40.3837209302316,
          "velocity": 0.48031496062992124,
          "duration": 0.034883720930224626
        },
        {
          "name": "D#4",
          "midi": 63,
          "time": 40.3837209302316,
          "velocity": 0.16535433070866143,
          "duration": 0.04651162790696617
        },
        {
          "name": "D#5",
          "midi": 75,
          "time": 40.3837209302316,
          "velocity": 0.33070866141732286,
          "duration": 0.023255813953483084
        },
        {
          "name": "A5",
          "midi": 81,
          "time": 40.3837209302316,
          "velocity": 0.08661417322834646,
          "duration": 0.034883720930224626
        },
        {
          "name": "F#6",
          "midi": 90,
          "time": 40.3837209302316,
          "velocity": 0.2992125984251969,
          "duration": 0.034883720930224626
        },
        {
          "name": "G5",
          "midi": 79,
          "time": 40.39534883720834,
          "velocity": 0.3543307086614173,
          "duration": 0.1395348837209056
        },
        {
          "name": "D6",
          "midi": 86,
          "time": 40.39534883720834,
          "velocity": 0.2755905511811024,
          "duration": 0.0813953488371979
        },
        {
          "name": "G4",
          "midi": 67,
          "time": 40.40697674418508,
          "velocity": 0.25984251968503935,
          "duration": 0.12790697674416407
        },
        {
          "name": "D5",
          "midi": 74,
          "time": 40.40697674418508,
          "velocity": 0.3779527559055118,
          "duration": 0.17441860465113024
        },
        {
          "name": "G3",
          "midi": 55,
          "time": 40.41860465116182,
          "velocity": 0.4566929133858268,
          "duration": 0.023255813953483084
        },
        {
          "name": "D3",
          "midi": 50,
          "time": 40.43023255813856,
          "velocity": 0.2755905511811024,
          "duration": 0.09302325581393944
        },
        {
          "name": "F#7",
          "midi": 102,
          "time": 40.441860465115305,
          "velocity": 0.13385826771653545,
          "duration": 0.09302325581393944
        },
        {
          "name": "G#3",
          "midi": 56,
          "time": 40.476744186045536,
          "velocity": 0.36220472440944884,
          "duration": 0.023255813953483084
        },
        {
          "name": "F4",
          "midi": 65,
          "time": 40.476744186045536,
          "velocity": 0.16535433070866143,
          "duration": 0.034883720930224626
        },
        {
          "name": "G3",
          "midi": 55,
          "time": 40.49999999999902,
          "velocity": 0.4409448818897638,
          "duration": 0.09302325581393234
        },
        {
          "name": "A#6",
          "midi": 94,
          "time": 40.49999999999902,
          "velocity": 0.09448818897637795,
          "duration": 0.0813953488371908
        },
        {
          "name": "A#5",
          "midi": 82,
          "time": 40.5232558139525,
          "velocity": 0.2283464566929134,
          "duration": 0.25581395348832103
        },
        {
          "name": "F4",
          "midi": 65,
          "time": 40.546511627905986,
          "velocity": 0.1732283464566929,
          "duration": 0.04651162790696617
        },
        {
          "name": "D3",
          "midi": 50,
          "time": 40.55813953488273,
          "velocity": 0.31496062992125984,
          "duration": 0.023255813953483084
        },
        {
          "name": "G#5",
          "midi": 80,
          "time": 40.55813953488273,
          "velocity": 0.2047244094488189,
          "duration": 0.06976744186044925
        },
        {
          "name": "C#5",
          "midi": 73,
          "time": 40.56976744185947,
          "velocity": 0.14960629921259844,
          "duration": 0.034883720930224626
        },
        {
          "name": "C6",
          "midi": 84,
          "time": 40.56976744185947,
          "velocity": 0.14960629921259844,
          "duration": 0.06976744186044925
        },
        {
          "name": "A6",
          "midi": 93,
          "time": 40.58139534883621,
          "velocity": 0.16535433070866143,
          "duration": 0.05813953488370771
        },
        {
          "name": "B6",
          "midi": 95,
          "time": 40.58139534883621,
          "velocity": 0.1889763779527559,
          "duration": 0.05813953488370771
        },
        {
          "name": "G#3",
          "midi": 56,
          "time": 40.59302325581295,
          "velocity": 0.31496062992125984,
          "duration": 0.023255813953483084
        },
        {
          "name": "E5",
          "midi": 76,
          "time": 40.59302325581295,
          "velocity": 0.25196850393700787,
          "duration": 0.023255813953483084
        },
        {
          "name": "D#5",
          "midi": 75,
          "time": 40.60465116278969,
          "velocity": 0.29133858267716534,
          "duration": 0.1395348837209056
        },
        {
          "name": "D3",
          "midi": 50,
          "time": 40.616279069766435,
          "velocity": 0.2677165354330709,
          "duration": 0.034883720930224626
        },
        {
          "name": "F5",
          "midi": 77,
          "time": 40.616279069766435,
          "velocity": 0.2677165354330709,
          "duration": 0.15116279069764715
        },
        {
          "name": "A4",
          "midi": 69,
          "time": 40.627906976743176,
          "velocity": 0.2125984251968504,
          "duration": 0.12790697674416407
        },
        {
          "name": "D5",
          "midi": 74,
          "time": 40.627906976743176,
          "velocity": 0.2283464566929134,
          "duration": 0.023255813953483084
        },
        {
          "name": "G#3",
          "midi": 56,
          "time": 40.63953488371992,
          "velocity": 0.44881889763779526,
          "duration": 0.09302325581393944
        },
        {
          "name": "D4",
          "midi": 62,
          "time": 40.63953488371992,
          "velocity": 0.2992125984251969,
          "duration": 0.023255813953483084
        },
        {
          "name": "C#5",
          "midi": 73,
          "time": 40.65116279069666,
          "velocity": 0.09448818897637795,
          "duration": 0.06976744186045636
        },
        {
          "name": "D3",
          "midi": 50,
          "time": 40.6627906976734,
          "velocity": 0.36220472440944884,
          "duration": 0.06976744186045636
        },
        {
          "name": "F4",
          "midi": 65,
          "time": 40.67441860465014,
          "velocity": 0.16535433070866143,
          "duration": 0.046511627906973274
        },
        {
          "name": "D#3",
          "midi": 51,
          "time": 40.73255813953386,
          "velocity": 0.47244094488188976,
          "duration": 0.023255813953483084
        },
        {
          "name": "C5",
          "midi": 72,
          "time": 40.73255813953386,
          "velocity": 0.2440944881889764,
          "duration": 0.034883720930224626
        },
        {
          "name": "G#5",
          "midi": 80,
          "time": 40.73255813953386,
          "velocity": 0.3464566929133858,
          "duration": 0.04651162790696617
        },
        {
          "name": "E4",
          "midi": 64,
          "time": 40.7441860465106,
          "velocity": 0.3228346456692913,
          "duration": 0.023255813953483084
        },
        {
          "name": "A#4",
          "midi": 70,
          "time": 40.75581395348734,
          "velocity": 0.15748031496062992,
          "duration": 0.05813953488370771
        },
        {
          "name": "G6",
          "midi": 91,
          "time": 40.75581395348734,
          "velocity": 0.12598425196850394,
          "duration": 0.04651162790696617
        },
        {
          "name": "A6",
          "midi": 93,
          "time": 40.75581395348734,
          "velocity": 0.28346456692913385,
          "duration": 0.0813953488371908
        },
        {
          "name": "A#6",
          "midi": 94,
          "time": 40.75581395348734,
          "velocity": 0.3937007874015748,
          "duration": 0.0813953488371908
        },
        {
          "name": "B6",
          "midi": 95,
          "time": 40.76744186046408,
          "velocity": 0.08661417322834646,
          "duration": 0.0813953488371908
        },
        {
          "name": "F#1",
          "midi": 30,
          "time": 40.779069767440824,
          "velocity": 0.6614173228346457,
          "duration": 0.011627906976741542
        },
        {
          "name": "G#3",
          "midi": 56,
          "time": 40.779069767440824,
          "velocity": 0.3937007874015748,
          "duration": 0.023255813953483084
        },
        {
          "name": "D5",
          "midi": 74,
          "time": 40.779069767440824,
          "velocity": 0.4251968503937008,
          "duration": 0.1395348837208985
        },
        {
          "name": "F5",
          "midi": 77,
          "time": 40.779069767440824,
          "velocity": 0.2755905511811024,
          "duration": 0.034883720930224626
        },
        {
          "name": "G5",
          "midi": 79,
          "time": 40.779069767440824,
          "velocity": 0.3779527559055118,
          "duration": 0.45348837209295567
        },
        {
          "name": "F7",
          "midi": 101,
          "time": 40.779069767440824,
          "velocity": 0.11811023622047244,
          "duration": 0.05813953488370771
        },
        {
          "name": "G4",
          "midi": 67,
          "time": 40.790697674417565,
          "velocity": 0.3700787401574803,
          "duration": 0.1395348837208985
        },
        {
          "name": "C#7",
          "midi": 97,
          "time": 40.790697674417565,
          "velocity": 0.15748031496062992,
          "duration": 0.034883720930224626
        },
        {
          "name": "D#7",
          "midi": 99,
          "time": 40.790697674417565,
          "velocity": 0.15748031496062992,
          "duration": 0.034883720930224626
        },
        {
          "name": "E7",
          "midi": 100,
          "time": 40.790697674417565,
          "velocity": 0.14960629921259844,
          "duration": 0.034883720930224626
        },
        {
          "name": "A3",
          "midi": 57,
          "time": 40.80232558139431,
          "velocity": 0.36220472440944884,
          "duration": 0.023255813953483084
        },
        {
          "name": "A#1",
          "midi": 34,
          "time": 40.81395348837105,
          "velocity": 0.5196850393700787,
          "duration": 0.011627906976741542
        },
        {
          "name": "B5",
          "midi": 83,
          "time": 40.81395348837105,
          "velocity": 0.2204724409448819,
          "duration": 0.04651162790696617
        },
        {
          "name": "D#1",
          "midi": 27,
          "time": 40.82558139534779,
          "velocity": 0.6614173228346457,
          "duration": 0.011627906976741542
        },
        {
          "name": "G3",
          "midi": 55,
          "time": 40.82558139534779,
          "velocity": 0.4645669291338583,
          "duration": 0.034883720930224626
        },
        {
          "name": "C#4",
          "midi": 61,
          "time": 40.82558139534779,
          "velocity": 0.2283464566929134,
          "duration": 0.034883720930224626
        },
        {
          "name": "D1",
          "midi": 26,
          "time": 40.83720930232453,
          "velocity": 0.7086614173228346,
          "duration": 0.011627906976741542
        },
        {
          "name": "C1",
          "midi": 24,
          "time": 40.84883720930127,
          "velocity": 0.7322834645669292,
          "duration": 0.011627906976741542
        },
        {
          "name": "B0",
          "midi": 23,
          "time": 40.860465116278014,
          "velocity": 0.7559055118110236,
          "duration": 0.023255813953483084
        },
        {
          "name": "G#3",
          "midi": 56,
          "time": 40.860465116278014,
          "velocity": 0.4409448818897638,
          "duration": 0.04651162790696617
        },
        {
          "name": "C5",
          "midi": 72,
          "time": 40.872093023254756,
          "velocity": 0.33858267716535434,
          "duration": 0.09302325581393944
        },
        {
          "name": "B5",
          "midi": 83,
          "time": 40.872093023254756,
          "velocity": 0.11811023622047244,
          "duration": 0.04651162790696617
        },
        {
          "name": "C1",
          "midi": 24,
          "time": 40.8837209302315,
          "velocity": 0.7559055118110236,
          "duration": 1.2325581395346674
        },
        {
          "name": "F5",
          "midi": 77,
          "time": 40.89534883720824,
          "velocity": 0.29133858267716534,
          "duration": 0.33720930232554025
        },
        {
          "name": "F4",
          "midi": 65,
          "time": 40.90697674418498,
          "velocity": 0.2755905511811024,
          "duration": 0.046511627906973274
        },
        {
          "name": "A6",
          "midi": 93,
          "time": 40.90697674418498,
          "velocity": 0.1889763779527559,
          "duration": 0.058139534883714816
        },
        {
          "name": "A5",
          "midi": 81,
          "time": 40.91860465116172,
          "velocity": 0.1889763779527559,
          "duration": 0.046511627906973274
        },
        {
          "name": "F#6",
          "midi": 90,
          "time": 40.953488372091954,
          "velocity": 0.14960629921259844,
          "duration": 0.034883720930224626
        },
        {
          "name": "D#3",
          "midi": 51,
          "time": 40.965116279068695,
          "velocity": 0.4094488188976378,
          "duration": 0.05813953488370771
        },
        {
          "name": "G4",
          "midi": 67,
          "time": 40.965116279068695,
          "velocity": 0.14173228346456693,
          "duration": 0.034883720930224626
        },
        {
          "name": "C#5",
          "midi": 73,
          "time": 40.965116279068695,
          "velocity": 0.07874015748031496,
          "duration": 0.034883720930224626
        },
        {
          "name": "A#4",
          "midi": 70,
          "time": 40.97674418604544,
          "velocity": 0.2755905511811024,
          "duration": 0.04651162790696617
        },
        {
          "name": "G2",
          "midi": 43,
          "time": 40.99999999999892,
          "velocity": 0.2755905511811024,
          "duration": 0.023255813953483084
        },
        {
          "name": "G#3",
          "midi": 56,
          "time": 41.01162790697566,
          "velocity": 0.44881889763779526,
          "duration": 0.11627906976744384
        },
        {
          "name": "D4",
          "midi": 62,
          "time": 41.0232558139524,
          "velocity": 0.23622047244094488,
          "duration": 0.04651162790698038
        },
        {
          "name": "D#5",
          "midi": 75,
          "time": 41.0232558139524,
          "velocity": 0.18110236220472442,
          "duration": 0.13953488372092693
        },
        {
          "name": "D#3",
          "midi": 51,
          "time": 41.04651162790589,
          "velocity": 0.3543307086614173,
          "duration": 0.04651162790698038
        },
        {
          "name": "G2",
          "midi": 43,
          "time": 41.093023255812874,
          "velocity": 0.2755905511811024,
          "duration": 0.02325581395349019
        },
        {
          "name": "B4",
          "midi": 71,
          "time": 41.116279069766364,
          "velocity": 0.07874015748031496,
          "duration": 0.034883720930224626
        },
        {
          "name": "G#4",
          "midi": 68,
          "time": 41.127906976743105,
          "velocity": 0.33070866141732286,
          "duration": 0.04651162790696617
        },
        {
          "name": "G#3",
          "midi": 56,
          "time": 41.13953488371985,
          "velocity": 0.3937007874015748,
          "duration": 0.023255813953483084
        },
        {
          "name": "D4",
          "midi": 62,
          "time": 41.13953488371985,
          "velocity": 0.13385826771653545,
          "duration": 0.034883720930224626
        },
        {
          "name": "G#2",
          "midi": 44,
          "time": 41.15116279069659,
          "velocity": 0.30708661417322836,
          "duration": 0.023255813953483084
        },
        {
          "name": "D#3",
          "midi": 51,
          "time": 41.15116279069659,
          "velocity": 0.23622047244094488,
          "duration": 0.023255813953483084
        },
        {
          "name": "G4",
          "midi": 67,
          "time": 41.17441860465007,
          "velocity": 0.30708661417322836,
          "duration": 0.034883720930224626
        },
        {
          "name": "B4",
          "midi": 71,
          "time": 41.17441860465007,
          "velocity": 0.2992125984251969,
          "duration": 0.023255813953483084
        },
        {
          "name": "A3",
          "midi": 57,
          "time": 41.18604651162681,
          "velocity": 0.3464566929133858,
          "duration": 0.023255813953483084
        },
        {
          "name": "F4",
          "midi": 65,
          "time": 41.197674418603555,
          "velocity": 0.2755905511811024,
          "duration": 0.04651162790696617
        },
        {
          "name": "C5",
          "midi": 72,
          "time": 41.197674418603555,
          "velocity": 0.4251968503937008,
          "duration": 0.04651162790696617
        },
        {
          "name": "A6",
          "midi": 93,
          "time": 41.197674418603555,
          "velocity": 0.14960629921259844,
          "duration": 0.0813953488371908
        },
        {
          "name": "A#6",
          "midi": 94,
          "time": 41.197674418603555,
          "velocity": 0.18110236220472442,
          "duration": 0.09302325581393234
        },
        {
          "name": "F7",
          "midi": 101,
          "time": 41.197674418603555,
          "velocity": 0.16535433070866143,
          "duration": 0.06976744186044925
        },
        {
          "name": "F3",
          "midi": 53,
          "time": 41.209302325580296,
          "velocity": 0.41732283464566927,
          "duration": 0.023255813953483084
        },
        {
          "name": "D#5",
          "midi": 75,
          "time": 41.209302325580296,
          "velocity": 0.41732283464566927,
          "duration": 0.09302325581393234
        },
        {
          "name": "G#6",
          "midi": 92,
          "time": 41.209302325580296,
          "velocity": 0.07086614173228346,
          "duration": 0.034883720930224626
        },
        {
          "name": "E7",
          "midi": 100,
          "time": 41.209302325580296,
          "velocity": 0.08661417322834646,
          "duration": 0.034883720930224626
        },
        {
          "name": "G#5",
          "midi": 80,
          "time": 41.22093023255704,
          "velocity": 0.28346456692913385,
          "duration": 0.034883720930224626
        },
        {
          "name": "F#7",
          "midi": 102,
          "time": 41.22093023255704,
          "velocity": 0.1968503937007874,
          "duration": 0.034883720930224626
        },
        {
          "name": "G#4",
          "midi": 68,
          "time": 41.23255813953378,
          "velocity": 0.33070866141732286,
          "duration": 0.05813953488370771
        },
        {
          "name": "G#3",
          "midi": 56,
          "time": 41.24418604651052,
          "velocity": 0.5039370078740157,
          "duration": 0.05813953488370771
        },
        {
          "name": "D4",
          "midi": 62,
          "time": 41.24418604651052,
          "velocity": 0.11811023622047244,
          "duration": 0.034883720930224626
        },
        {
          "name": "B5",
          "midi": 83,
          "time": 41.24418604651052,
          "velocity": 0.2283464566929134,
          "duration": 0.023255813953483084
        },
        {
          "name": "D6",
          "midi": 86,
          "time": 41.25581395348726,
          "velocity": 0.1732283464566929,
          "duration": 0.2441860465115795
        },
        {
          "name": "G#6",
          "midi": 92,
          "time": 41.25581395348726,
          "velocity": 0.1889763779527559,
          "duration": 0.04651162790696617
        },
        {
          "name": "C#5",
          "midi": 73,
          "time": 41.279069767440745,
          "velocity": 0.11023622047244094,
          "duration": 0.04651162790696617
        },
        {
          "name": "D4",
          "midi": 62,
          "time": 41.29069767441749,
          "velocity": 0.15748031496062992,
          "duration": 0.10465116279067388
        },
        {
          "name": "G4",
          "midi": 67,
          "time": 41.29069767441749,
          "velocity": 0.4251968503937008,
          "duration": 0.10465116279067388
        },
        {
          "name": "F6",
          "midi": 89,
          "time": 41.29069767441749,
          "velocity": 0.10236220472440945,
          "duration": 0.034883720930224626
        },
        {
          "name": "G3",
          "midi": 55,
          "time": 41.30232558139423,
          "velocity": 0.5275590551181102,
          "duration": 0.034883720930224626
        },
        {
          "name": "B5",
          "midi": 83,
          "time": 41.31395348837097,
          "velocity": 0.18110236220472442,
          "duration": 0.0813953488371908
        },
        {
          "name": "A6",
          "midi": 93,
          "time": 41.31395348837097,
          "velocity": 0.3464566929133858,
          "duration": 0.09302325581393234
        },
        {
          "name": "D5",
          "midi": 74,
          "time": 41.32558139534771,
          "velocity": 0.3937007874015748,
          "duration": 0.05813953488370771
        },
        {
          "name": "D#7",
          "midi": 99,
          "time": 41.32558139534771,
          "velocity": 0.16535433070866143,
          "duration": 0.034883720930224626
        },
        {
          "name": "E7",
          "midi": 100,
          "time": 41.32558139534771,
          "velocity": 0.1889763779527559,
          "duration": 0.034883720930224626
        },
        {
          "name": "F#3",
          "midi": 54,
          "time": 41.33720930232445,
          "velocity": 0.3700787401574803,
          "duration": 0.023255813953483084
        },
        {
          "name": "F5",
          "midi": 77,
          "time": 41.33720930232445,
          "velocity": 0.1889763779527559,
          "duration": 0.1395348837209056
        },
        {
          "name": "D#6",
          "midi": 87,
          "time": 41.33720930232445,
          "velocity": 0.16535433070866143,
          "duration": 0.37209302325575067
        },
        {
          "name": "C7",
          "midi": 96,
          "time": 41.33720930232445,
          "velocity": 0.14173228346456693,
          "duration": 0.05813953488370771
        },
        {
          "name": "B6",
          "midi": 95,
          "time": 41.348837209301195,
          "velocity": 0.2440944881889764,
          "duration": 0.034883720930224626
        },
        {
          "name": "F7",
          "midi": 101,
          "time": 41.348837209301195,
          "velocity": 0.1968503937007874,
          "duration": 0.0813953488371908
        },
        {
          "name": "G3",
          "midi": 55,
          "time": 41.360465116277936,
          "velocity": 0.5039370078740157,
          "duration": 0.04651162790696617
        },
        {
          "name": "A#6",
          "midi": 94,
          "time": 41.37209302325468,
          "velocity": 0.11023622047244094,
          "duration": 0.04651162790696617
        },
        {
          "name": "F4",
          "midi": 65,
          "time": 41.39534883720816,
          "velocity": 0.33858267716535434,
          "duration": 0.058139534883714816
        },
        {
          "name": "C5",
          "midi": 72,
          "time": 41.39534883720816,
          "velocity": 0.25196850393700787,
          "duration": 0.034883720930224626
        },
        {
          "name": "F3",
          "midi": 53,
          "time": 41.4069767441849,
          "velocity": 0.4645669291338583,
          "duration": 0.046511627906973274
        },
        {
          "name": "G#4",
          "midi": 68,
          "time": 41.418604651161644,
          "velocity": 0.1968503937007874,
          "duration": 0.03488372093023173
        },
        {
          "name": "G5",
          "midi": 79,
          "time": 41.418604651161644,
          "velocity": 0.3858267716535433,
          "duration": 0.3837209302324922
        },
        {
          "name": "G4",
          "midi": 67,
          "time": 41.453488372091876,
          "velocity": 0.3937007874015748,
          "duration": 0.15116279069765426
        },
        {
          "name": "E7",
          "midi": 100,
          "time": 41.453488372091876,
          "velocity": 0.11811023622047244,
          "duration": 0.034883720930224626
        },
        {
          "name": "D5",
          "midi": 74,
          "time": 41.46511627906862,
          "velocity": 0.5039370078740157,
          "duration": 0.3023255813952943
        },
        {
          "name": "B5",
          "midi": 83,
          "time": 41.46511627906862,
          "velocity": 0.2283464566929134,
          "duration": 0.2790697674418112
        },
        {
          "name": "A#6",
          "midi": 94,
          "time": 41.46511627906862,
          "velocity": 0.10236220472440945,
          "duration": 0.034883720930224626
        },
        {
          "name": "G2",
          "midi": 43,
          "time": 41.47674418604536,
          "velocity": 0.25984251968503935,
          "duration": 0.023255813953483084
        },
        {
          "name": "F#3",
          "midi": 54,
          "time": 41.47674418604536,
          "velocity": 0.41732283464566927,
          "duration": 0.023255813953483084
        },
        {
          "name": "A6",
          "midi": 93,
          "time": 41.47674418604536,
          "velocity": 0.31496062992125984,
          "duration": 0.11627906976742963
        },
        {
          "name": "G3",
          "midi": 55,
          "time": 41.49999999999884,
          "velocity": 0.3700787401574803,
          "duration": 0.06976744186046346
        },
        {
          "name": "E7",
          "midi": 100,
          "time": 41.49999999999884,
          "velocity": 0.15748031496062992,
          "duration": 0.03488372093023173
        },
        {
          "name": "F7",
          "midi": 101,
          "time": 41.51162790697558,
          "velocity": 0.28346456692913385,
          "duration": 0.29069767441855277
        },
        {
          "name": "F#7",
          "midi": 102,
          "time": 41.51162790697558,
          "velocity": 0.16535433070866143,
          "duration": 0.081395348837205
        },
        {
          "name": "G#6",
          "midi": 92,
          "time": 41.53488372092907,
          "velocity": 0.1732283464566929,
          "duration": 0.03488372093023173
        },
        {
          "name": "D4",
          "midi": 62,
          "time": 41.546511627905815,
          "velocity": 0.12598425196850394,
          "duration": 0.03488372093023173
        },
        {
          "name": "D4",
          "midi": 62,
          "time": 41.59302325581279,
          "velocity": 0.18110236220472442,
          "duration": 0.11627906976741542
        },
        {
          "name": "G#6",
          "midi": 92,
          "time": 41.59302325581279,
          "velocity": 0.07874015748031496,
          "duration": 0.034883720930224626
        },
        {
          "name": "A6",
          "midi": 93,
          "time": 41.60465116278953,
          "velocity": 0.29133858267716534,
          "duration": 0.20930232558134776
        },
        {
          "name": "G3",
          "midi": 55,
          "time": 41.61627906976627,
          "velocity": 0.47244094488188976,
          "duration": 0.05813953488370771
        },
        {
          "name": "B6",
          "midi": 95,
          "time": 41.61627906976627,
          "velocity": 0.2992125984251969,
          "duration": 0.11627906976741542
        },
        {
          "name": "G2",
          "midi": 43,
          "time": 41.62790697674301,
          "velocity": 0.2677165354330709,
          "duration": 0.023255813953483084
        },
        {
          "name": "F6",
          "midi": 89,
          "time": 41.62790697674301,
          "velocity": 0.12598425196850394,
          "duration": 0.09302325581393234
        },
        {
          "name": "C#7",
          "midi": 97,
          "time": 41.639534883719755,
          "velocity": 0.1968503937007874,
          "duration": 0.034883720930224626
        },
        {
          "name": "D7",
          "midi": 98,
          "time": 41.639534883719755,
          "velocity": 0.15748031496062992,
          "duration": 0.0813953488371908
        },
        {
          "name": "F#7",
          "midi": 102,
          "time": 41.639534883719755,
          "velocity": 0.14960629921259844,
          "duration": 0.05813953488370771
        },
        {
          "name": "F5",
          "midi": 77,
          "time": 41.66279069767324,
          "velocity": 0.09448818897637795,
          "duration": 0.034883720930224626
        },
        {
          "name": "C7",
          "midi": 96,
          "time": 41.67441860464998,
          "velocity": 0.07874015748031496,
          "duration": 0.04651162790696617
        },
        {
          "name": "G3",
          "midi": 55,
          "time": 41.68604651162672,
          "velocity": 0.4409448818897638,
          "duration": 0.06976744186044925
        },
        {
          "name": "G2",
          "midi": 43,
          "time": 41.720930232556945,
          "velocity": 0.2992125984251969,
          "duration": 0.023255813953483084
        },
        {
          "name": "G#6",
          "midi": 92,
          "time": 41.73255813953369,
          "velocity": 0.25196850393700787,
          "duration": 0.05813953488370771
        },
        {
          "name": "E7",
          "midi": 100,
          "time": 41.73255813953369,
          "velocity": 0.12598425196850394,
          "duration": 0.09302325581393234
        },
        {
          "name": "D#4",
          "midi": 63,
          "time": 41.74418604651043,
          "velocity": 0.33070866141732286,
          "duration": 0.06976744186044925
        },
        {
          "name": "F#4",
          "midi": 66,
          "time": 41.74418604651043,
          "velocity": 0.31496062992125984,
          "duration": 0.023255813953483084
        },
        {
          "name": "A#5",
          "midi": 82,
          "time": 41.74418604651043,
          "velocity": 0.16535433070866143,
          "duration": 0.06976744186044925
        },
        {
          "name": "F#7",
          "midi": 102,
          "time": 41.74418604651043,
          "velocity": 0.18110236220472442,
          "duration": 0.05813953488370771
        },
        {
          "name": "B4",
          "midi": 71,
          "time": 41.75581395348717,
          "velocity": 0.1889763779527559,
          "duration": 0.04651162790696617
        },
        {
          "name": "D#7",
          "midi": 99,
          "time": 41.75581395348717,
          "velocity": 0.11811023622047244,
          "duration": 0.05813953488370771
        },
        {
          "name": "G4",
          "midi": 67,
          "time": 41.76744186046391,
          "velocity": 0.33070866141732286,
          "duration": 0.04651162790696617
        },
        {
          "name": "F6",
          "midi": 89,
          "time": 41.76744186046391,
          "velocity": 0.14173228346456693,
          "duration": 0.0813953488371908
        },
        {
          "name": "G3",
          "midi": 55,
          "time": 41.77906976744065,
          "velocity": 0.4251968503937008,
          "duration": 0.023255813953483084
        },
        {
          "name": "D5",
          "midi": 74,
          "time": 41.77906976744065,
          "velocity": 0.3937007874015748,
          "duration": 0.05813953488370771
        },
        {
          "name": "A5",
          "midi": 81,
          "time": 41.790697674417395,
          "velocity": 0.16535433070866143,
          "duration": 0.05813953488370771
        },
        {
          "name": "C5",
          "midi": 72,
          "time": 41.802325581394136,
          "velocity": 0.3700787401574803,
          "duration": 0.04651162790696617
        },
        {
          "name": "F5",
          "midi": 77,
          "time": 41.802325581394136,
          "velocity": 0.30708661417322836,
          "duration": 0.04651162790696617
        },
        {
          "name": "F3",
          "midi": 53,
          "time": 41.81395348837088,
          "velocity": 0.4251968503937008,
          "duration": 0.034883720930224626
        },
        {
          "name": "G5",
          "midi": 79,
          "time": 41.82558139534762,
          "velocity": 0.33070866141732286,
          "duration": 0.2209302325580964
        },
        {
          "name": "D#6",
          "midi": 87,
          "time": 41.82558139534762,
          "velocity": 0.29133858267716534,
          "duration": 0.1627906976743887
        },
        {
          "name": "B4",
          "midi": 71,
          "time": 41.83720930232436,
          "velocity": 0.25196850393700787,
          "duration": 0.023255813953483084
        },
        {
          "name": "D#4",
          "midi": 63,
          "time": 41.8488372093011,
          "velocity": 0.3543307086614173,
          "duration": 0.05813953488370771
        },
        {
          "name": "D3",
          "midi": 50,
          "time": 41.860465116277844,
          "velocity": 0.3700787401574803,
          "duration": 0.023255813953483084
        },
        {
          "name": "D5",
          "midi": 74,
          "time": 41.872093023254585,
          "velocity": 0.36220472440944884,
          "duration": 0.1627906976743887
        },
        {
          "name": "E3",
          "midi": 52,
          "time": 41.89534883720807,
          "velocity": 0.36220472440944884,
          "duration": 0.023255813953483084
        },
        {
          "name": "G4",
          "midi": 67,
          "time": 41.89534883720807,
          "velocity": 0.2440944881889764,
          "duration": 0.034883720930224626
        },
        {
          "name": "G2",
          "midi": 43,
          "time": 41.91860465116155,
          "velocity": 0.2755905511811024,
          "duration": 0.023255813953483084
        },
        {
          "name": "F5",
          "midi": 77,
          "time": 41.91860465116155,
          "velocity": 0.2440944881889764,
          "duration": 0.034883720930224626
        },
        {
          "name": "A5",
          "midi": 81,
          "time": 41.91860465116155,
          "velocity": 0.2047244094488189,
          "duration": 0.034883720930224626
        },
        {
          "name": "B5",
          "midi": 83,
          "time": 41.91860465116155,
          "velocity": 0.14960629921259844,
          "duration": 0.06976744186045636
        },
        {
          "name": "E3",
          "midi": 52,
          "time": 41.93023255813829,
          "velocity": 0.4015748031496063,
          "duration": 0.034883720930224626
        },
        {
          "name": "C5",
          "midi": 72,
          "time": 41.93023255813829,
          "velocity": 0.31496062992125984,
          "duration": 0.09302325581393944
        },
        {
          "name": "D#4",
          "midi": 63,
          "time": 41.941860465115035,
          "velocity": 0.33858267716535434,
          "duration": 0.046511627906973274
        },
        {
          "name": "F#4",
          "midi": 66,
          "time": 41.941860465115035,
          "velocity": 0.28346456692913385,
          "duration": 0.023255813953483084
        },
        {
          "name": "C#6",
          "midi": 85,
          "time": 41.941860465115035,
          "velocity": 0.25196850393700787,
          "duration": 0.023255813953483084
        },
        {
          "name": "E5",
          "midi": 76,
          "time": 41.953488372091776,
          "velocity": 0.14173228346456693,
          "duration": 0.03488372093023173
        },
        {
          "name": "A#5",
          "midi": 82,
          "time": 41.953488372091776,
          "velocity": 0.2047244094488189,
          "duration": 0.058139534883714816
        },
        {
          "name": "G2",
          "midi": 43,
          "time": 41.96511627906852,
          "velocity": 0.28346456692913385,
          "duration": 0.02325581395349019
        },
        {
          "name": "D#3",
          "midi": 51,
          "time": 41.96511627906852,
          "velocity": 0.3937007874015748,
          "duration": 0.02325581395349019
        },
        {
          "name": "G4",
          "midi": 67,
          "time": 41.96511627906852,
          "velocity": 0.2283464566929134,
          "duration": 0.02325581395349019
        },
        {
          "name": "A5",
          "midi": 81,
          "time": 41.96511627906852,
          "velocity": 0.07874015748031496,
          "duration": 0.03488372093023173
        },
        {
          "name": "E3",
          "midi": 52,
          "time": 41.98837209302201,
          "velocity": 0.3700787401574803,
          "duration": 0.034883720930224626
        },
        {
          "name": "D#4",
          "midi": 63,
          "time": 41.99999999999875,
          "velocity": 0.2204724409448819,
          "duration": 0.05813953488370771
        },
        {
          "name": "G4",
          "midi": 67,
          "time": 41.99999999999875,
          "velocity": 0.3228346456692913,
          "duration": 0.034883720930224626
        },
        {
          "name": "G2",
          "midi": 43,
          "time": 42.01162790697549,
          "velocity": 0.3228346456692913,
          "duration": 0.023255813953483084
        },
        {
          "name": "E3",
          "midi": 52,
          "time": 42.034883720928974,
          "velocity": 0.2755905511811024,
          "duration": 0.034883720930224626
        },
        {
          "name": "F#4",
          "midi": 66,
          "time": 42.034883720928974,
          "velocity": 0.25984251968503935,
          "duration": 0.023255813953483084
        },
        {
          "name": "A3",
          "midi": 57,
          "time": 42.046511627905716,
          "velocity": 0.2755905511811024,
          "duration": 0.023255813953483084
        },
        {
          "name": "G2",
          "midi": 43,
          "time": 42.05813953488246,
          "velocity": 0.30708661417322836,
          "duration": 0.023255813953483084
        },
        {
          "name": "B4",
          "midi": 71,
          "time": 42.05813953488246,
          "velocity": 0.1732283464566929,
          "duration": 0.05813953488370771
        },
        {
          "name": "G#5",
          "midi": 80,
          "time": 42.05813953488246,
          "velocity": 0.3543307086614173,
          "duration": 0.04651162790696617
        },
        {
          "name": "F#6",
          "midi": 90,
          "time": 42.05813953488246,
          "velocity": 0.3228346456692913,
          "duration": 0.09302325581393234
        },
        {
          "name": "G6",
          "midi": 91,
          "time": 42.05813953488246,
          "velocity": 0.25196850393700787,
          "duration": 0.17441860465112313
        },
        {
          "name": "C#5",
          "midi": 73,
          "time": 42.0697674418592,
          "velocity": 0.16535433070866143,
          "duration": 0.034883720930224626
        },
        {
          "name": "A#5",
          "midi": 82,
          "time": 42.0697674418592,
          "velocity": 0.31496062992125984,
          "duration": 0.034883720930224626
        },
        {
          "name": "F6",
          "midi": 89,
          "time": 42.0697674418592,
          "velocity": 0.2204724409448819,
          "duration": 0.04651162790696617
        },
        {
          "name": "G#3",
          "midi": 56,
          "time": 42.08139534883594,
          "velocity": 0.3228346456692913,
          "duration": 0.04651162790696617
        },
        {
          "name": "D#4",
          "midi": 63,
          "time": 42.08139534883594,
          "velocity": 0.28346456692913385,
          "duration": 0.33720930232552604
        },
        {
          "name": "G4",
          "midi": 67,
          "time": 42.08139534883594,
          "velocity": 0.2283464566929134,
          "duration": 0.04651162790696617
        },
        {
          "name": "F5",
          "midi": 77,
          "time": 42.08139534883594,
          "velocity": 0.25984251968503935,
          "duration": 0.0813953488371908
        },
        {
          "name": "C6",
          "midi": 84,
          "time": 42.08139534883594,
          "velocity": 0.30708661417322836,
          "duration": 0.0813953488371908
        },
        {
          "name": "D6",
          "midi": 86,
          "time": 42.08139534883594,
          "velocity": 0.2440944881889764,
          "duration": 0.05813953488370771
        },
        {
          "name": "G#6",
          "midi": 92,
          "time": 42.09302325581268,
          "velocity": 0.4645669291338583,
          "duration": 0.19767441860461332
        },
        {
          "name": "D#7",
          "midi": 99,
          "time": 42.09302325581268,
          "velocity": 0.12598425196850394,
          "duration": 0.04651162790696617
        },
        {
          "name": "D5",
          "midi": 74,
          "time": 42.10465116278942,
          "velocity": 0.3937007874015748,
          "duration": 0.06976744186044925
        },
        {
          "name": "A5",
          "midi": 81,
          "time": 42.10465116278942,
          "velocity": 0.4094488188976378,
          "duration": 0.04651162790696617
        },
        {
          "name": "B5",
          "midi": 83,
          "time": 42.10465116278942,
          "velocity": 0.36220472440944884,
          "duration": 0.023255813953483084
        },
        {
          "name": "E7",
          "midi": 100,
          "time": 42.10465116278942,
          "velocity": 0.12598425196850394,
          "duration": 0.05813953488370771
        },
        {
          "name": "C#1",
          "midi": 25,
          "time": 42.116279069766165,
          "velocity": 0.7244094488188977,
          "duration": 0.011627906976741542
        },
        {
          "name": "E6",
          "midi": 88,
          "time": 42.116279069766165,
          "velocity": 0.1889763779527559,
          "duration": 0.06976744186044925
        },
        {
          "name": "C#7",
          "midi": 97,
          "time": 42.116279069766165,
          "velocity": 0.08661417322834646,
          "duration": 0.034883720930224626
        },
        {
          "name": "D1",
          "midi": 26,
          "time": 42.127906976742906,
          "velocity": 0.6535433070866141,
          "duration": 0.011627906976741542
        },
        {
          "name": "G3",
          "midi": 55,
          "time": 42.127906976742906,
          "velocity": 0.3700787401574803,
          "duration": 0.04651162790696617
        },
        {
          "name": "G#4",
          "midi": 68,
          "time": 42.127906976742906,
          "velocity": 0.2992125984251969,
          "duration": 0.15116279069764715
        },
        {
          "name": "G#5",
          "midi": 80,
          "time": 42.127906976742906,
          "velocity": 0.4330708661417323,
          "duration": 0.05813953488370771
        },
        {
          "name": "D#6",
          "midi": 87,
          "time": 42.127906976742906,
          "velocity": 0.2755905511811024,
          "duration": 0.1395348837209056
        },
        {
          "name": "F6",
          "midi": 89,
          "time": 42.127906976742906,
          "velocity": 0.3228346456692913,
          "duration": 0.04651162790696617
        },
        {
          "name": "A0",
          "midi": 21,
          "time": 42.13953488371965,
          "velocity": 0.5748031496062992,
          "duration": 0.011627906976741542
        },
        {
          "name": "A#6",
          "midi": 94,
          "time": 42.13953488371965,
          "velocity": 0.25984251968503935,
          "duration": 0.15116279069764715
        },
        {
          "name": "B5",
          "midi": 83,
          "time": 42.15116279069639,
          "velocity": 0.14960629921259844,
          "duration": 0.05813953488370771
        },
        {
          "name": "D#5",
          "midi": 75,
          "time": 42.16279069767313,
          "velocity": 0.4251968503937008,
          "duration": 0.25581395348833524
        },
        {
          "name": "F#6",
          "midi": 90,
          "time": 42.16279069767313,
          "velocity": 0.36220472440944884,
          "duration": 0.12790697674416407
        },
        {
          "name": "G#3",
          "midi": 56,
          "time": 42.17441860464987,
          "velocity": 0.3937007874015748,
          "duration": 0.11627906976742253
        },
        {
          "name": "G5",
          "midi": 79,
          "time": 42.17441860464987,
          "velocity": 0.3858267716535433,
          "duration": 0.05813953488370771
        },
        {
          "name": "C6",
          "midi": 84,
          "time": 42.17441860464987,
          "velocity": 0.2992125984251969,
          "duration": 0.11627906976742253
        },
        {
          "name": "C#7",
          "midi": 97,
          "time": 42.17441860464987,
          "velocity": 0.14173228346456693,
          "duration": 0.10465116279068098
        },
        {
          "name": "F#0",
          "midi": 18,
          "time": 42.186046511626614,
          "velocity": 0.2992125984251969,
          "duration": 0.023255813953483084
        },
        {
          "name": "C#6",
          "midi": 85,
          "time": 42.186046511626614,
          "velocity": 0.1889763779527559,
          "duration": 0.034883720930224626
        },
        {
          "name": "E7",
          "midi": 100,
          "time": 42.186046511626614,
          "velocity": 0.1968503937007874,
          "duration": 0.09302325581393944
        },
        {
          "name": "G#5",
          "midi": 80,
          "time": 42.197674418603356,
          "velocity": 0.4251968503937008,
          "duration": 0.11627906976742963
        },
        {
          "name": "F5",
          "midi": 77,
          "time": 42.24418604651032,
          "velocity": 0.14960629921259844,
          "duration": 0.046511627906973274
        },
        {
          "name": "G6",
          "midi": 91,
          "time": 42.24418604651032,
          "velocity": 0.23622047244094488,
          "duration": 0.02325581395349019
        },
        {
          "name": "G4",
          "midi": 67,
          "time": 42.279069767440554,
          "velocity": 0.1889763779527559,
          "duration": 0.03488372093023173
        },
        {
          "name": "G5",
          "midi": 79,
          "time": 42.313953488370785,
          "velocity": 0.2047244094488189,
          "duration": 0.09302325581393944
        },
        {
          "name": "A3",
          "midi": 57,
          "time": 42.32558139534753,
          "velocity": 0.33858267716535434,
          "duration": 0.023255813953483084
        },
        {
          "name": "A6",
          "midi": 93,
          "time": 42.32558139534753,
          "velocity": 0.2283464566929134,
          "duration": 0.023255813953483084
        },
        {
          "name": "A#6",
          "midi": 94,
          "time": 42.32558139534753,
          "velocity": 0.1732283464566929,
          "duration": 0.0813953488371979
        },
        {
          "name": "G#4",
          "midi": 68,
          "time": 42.33720930232427,
          "velocity": 0.4330708661417323,
          "duration": 0.10465116279068098
        },
        {
          "name": "G#6",
          "midi": 92,
          "time": 42.33720930232427,
          "velocity": 0.47244094488188976,
          "duration": 0.10465116279068098
        },
        {
          "name": "E7",
          "midi": 100,
          "time": 42.33720930232427,
          "velocity": 0.2677165354330709,
          "duration": 0.09302325581393944
        },
        {
          "name": "G#3",
          "midi": 56,
          "time": 42.34883720930101,
          "velocity": 0.4330708661417323,
          "duration": 0.09302325581393944
        },
        {
          "name": "C6",
          "midi": 84,
          "time": 42.34883720930101,
          "velocity": 0.2283464566929134,
          "duration": 0.09302325581393944
        },
        {
          "name": "F#6",
          "midi": 90,
          "time": 42.34883720930101,
          "velocity": 0.2992125984251969,
          "duration": 0.0813953488371979
        },
        {
          "name": "A#5",
          "midi": 82,
          "time": 42.36046511627775,
          "velocity": 0.11811023622047244,
          "duration": 0.06976744186045636
        },
        {
          "name": "B4",
          "midi": 71,
          "time": 42.38372093023124,
          "velocity": 0.2283464566929134,
          "duration": 0.04651162790696617
        },
        {
          "name": "D6",
          "midi": 86,
          "time": 42.39534883720798,
          "velocity": 0.2204724409448819,
          "duration": 0.04651162790696617
        },
        {
          "name": "D5",
          "midi": 74,
          "time": 42.406976744184725,
          "velocity": 0.3543307086614173,
          "duration": 0.12790697674416407
        },
        {
          "name": "D4",
          "midi": 62,
          "time": 42.418604651161466,
          "velocity": 0.29133858267716534,
          "duration": 0.31395348837203585
        },
        {
          "name": "A#4",
          "midi": 70,
          "time": 42.418604651161466,
          "velocity": 0.1968503937007874,
          "duration": 0.058139534883714816
        },
        {
          "name": "B2",
          "midi": 47,
          "time": 42.43023255813821,
          "velocity": 0.2047244094488189,
          "duration": 0.03488372093023173
        },
        {
          "name": "F6",
          "midi": 89,
          "time": 42.43023255813821,
          "velocity": 0.07086614173228346,
          "duration": 0.058139534883714816
        },
        {
          "name": "G4",
          "midi": 67,
          "time": 42.44186046511495,
          "velocity": 0.31496062992125984,
          "duration": 0.0813953488371979
        },
        {
          "name": "F3",
          "midi": 53,
          "time": 42.46511627906844,
          "velocity": 0.2992125984251969,
          "duration": 0.023255813953483084
        },
        {
          "name": "F#3",
          "midi": 54,
          "time": 42.48837209302192,
          "velocity": 0.4015748031496063,
          "duration": 0.034883720930224626
        },
        {
          "name": "A5",
          "midi": 81,
          "time": 42.499999999998664,
          "velocity": 0.11811023622047244,
          "duration": 0.034883720930224626
        },
        {
          "name": "F6",
          "midi": 89,
          "time": 42.511627906975406,
          "velocity": 0.1889763779527559,
          "duration": 0.11627906976741542
        },
        {
          "name": "G#4",
          "midi": 68,
          "time": 42.52325581395215,
          "velocity": 0.3228346456692913,
          "duration": 0.04651162790696617
        },
        {
          "name": "D#5",
          "midi": 75,
          "time": 42.52325581395215,
          "velocity": 0.47244094488188976,
          "duration": 0.05813953488370771
        },
        {
          "name": "C6",
          "midi": 84,
          "time": 42.52325581395215,
          "velocity": 0.25196850393700787,
          "duration": 0.06976744186044925
        },
        {
          "name": "F#6",
          "midi": 90,
          "time": 42.52325581395215,
          "velocity": 0.14173228346456693,
          "duration": 0.034883720930224626
        },
        {
          "name": "G#6",
          "midi": 92,
          "time": 42.52325581395215,
          "velocity": 0.3464566929133858,
          "duration": 0.05813953488370771
        },
        {
          "name": "G#3",
          "midi": 56,
          "time": 42.53488372092889,
          "velocity": 0.4015748031496063,
          "duration": 0.04651162790696617
        },
        {
          "name": "G#5",
          "midi": 80,
          "time": 42.53488372092889,
          "velocity": 0.3543307086614173,
          "duration": 0.04651162790696617
        },
        {
          "name": "A#5",
          "midi": 82,
          "time": 42.53488372092889,
          "velocity": 0.13385826771653545,
          "duration": 0.034883720930224626
        },
        {
          "name": "A#6",
          "midi": 94,
          "time": 42.53488372092889,
          "velocity": 0.4015748031496063,
          "duration": 0.05813953488370771
        },
        {
          "name": "D#7",
          "midi": 99,
          "time": 42.53488372092889,
          "velocity": 0.2283464566929134,
          "duration": 0.06976744186044925
        },
        {
          "name": "E7",
          "midi": 100,
          "time": 42.53488372092889,
          "velocity": 0.10236220472440945,
          "duration": 0.05813953488370771
        },
        {
          "name": "C#7",
          "midi": 97,
          "time": 42.54651162790563,
          "velocity": 0.1889763779527559,
          "duration": 0.034883720930224626
        },
        {
          "name": "A6",
          "midi": 93,
          "time": 42.55813953488237,
          "velocity": 0.3858267716535433,
          "duration": 0.0813953488371908
        },
        {
          "name": "F#7",
          "midi": 102,
          "time": 42.55813953488237,
          "velocity": 0.14173228346456693,
          "duration": 0.0813953488371908
        },
        {
          "name": "G4",
          "midi": 67,
          "time": 42.56976744185911,
          "velocity": 0.3543307086614173,
          "duration": 0.06976744186044925
        },
        {
          "name": "G5",
          "midi": 79,
          "time": 42.56976744185911,
          "velocity": 0.4094488188976378,
          "duration": 0.2441860465115795
        },
        {
          "name": "B5",
          "midi": 83,
          "time": 42.56976744185911,
          "velocity": 0.2755905511811024,
          "duration": 0.06976744186044925
        },
        {
          "name": "D6",
          "midi": 86,
          "time": 42.56976744185911,
          "velocity": 0.1889763779527559,
          "duration": 0.05813953488370771
        },
        {
          "name": "D7",
          "midi": 98,
          "time": 42.56976744185911,
          "velocity": 0.2047244094488189,
          "duration": 0.04651162790696617
        },
        {
          "name": "G3",
          "midi": 55,
          "time": 42.581395348835855,
          "velocity": 0.4015748031496063,
          "duration": 0.05813953488370771
        },
        {
          "name": "D5",
          "midi": 74,
          "time": 42.581395348835855,
          "velocity": 0.44881889763779526,
          "duration": 0.09302325581393944
        },
        {
          "name": "A#4",
          "midi": 70,
          "time": 42.5930232558126,
          "velocity": 0.14960629921259844,
          "duration": 0.034883720930224626
        },
        {
          "name": "F3",
          "midi": 53,
          "time": 42.651162790696304,
          "velocity": 0.41732283464566927,
          "duration": 0.02325581395349019
        },
        {
          "name": "D#5",
          "midi": 75,
          "time": 42.651162790696304,
          "velocity": 0.23622047244094488,
          "duration": 0.10465116279068098
        },
        {
          "name": "G#6",
          "midi": 92,
          "time": 42.651162790696304,
          "velocity": 0.14173228346456693,
          "duration": 0.046511627906973274
        },
        {
          "name": "G4",
          "midi": 67,
          "time": 42.674418604649794,
          "velocity": 0.2204724409448819,
          "duration": 0.06976744186044925
        },
        {
          "name": "E7",
          "midi": 100,
          "time": 42.674418604649794,
          "velocity": 0.09448818897637795,
          "duration": 0.04651162790696617
        },
        {
          "name": "D#3",
          "midi": 51,
          "time": 42.686046511626536,
          "velocity": 0.30708661417322836,
          "duration": 0.034883720930224626
        },
        {
          "name": "F7",
          "midi": 101,
          "time": 42.686046511626536,
          "velocity": 0.12598425196850394,
          "duration": 0.034883720930224626
        },
        {
          "name": "A#4",
          "midi": 70,
          "time": 42.70930232558002,
          "velocity": 0.16535433070866143,
          "duration": 0.04651162790696617
        },
        {
          "name": "D5",
          "midi": 74,
          "time": 42.70930232558002,
          "velocity": 0.29133858267716534,
          "duration": 0.10465116279067388
        },
        {
          "name": "D3",
          "midi": 50,
          "time": 42.72093023255676,
          "velocity": 0.3543307086614173,
          "duration": 0.023255813953483084
        },
        {
          "name": "D4",
          "midi": 62,
          "time": 42.744186046510244,
          "velocity": 0.33070866141732286,
          "duration": 0.023255813953483084
        },
        {
          "name": "E3",
          "midi": 52,
          "time": 42.755813953486985,
          "velocity": 0.4330708661417323,
          "duration": 0.023255813953483084
        },
        {
          "name": "F4",
          "midi": 65,
          "time": 42.755813953486985,
          "velocity": 0.36220472440944884,
          "duration": 0.023255813953483084
        },
        {
          "name": "A5",
          "midi": 81,
          "time": 42.76744186046373,
          "velocity": 0.08661417322834646,
          "duration": 0.034883720930224626
        },
        {
          "name": "D6",
          "midi": 86,
          "time": 42.76744186046373,
          "velocity": 0.3228346456692913,
          "duration": 0.23255813953486637
        },
        {
          "name": "D4",
          "midi": 62,
          "time": 42.77906976744047,
          "velocity": 0.4015748031496063,
          "duration": 0.023255813953483084
        },
        {
          "name": "A#4",
          "midi": 70,
          "time": 42.79069767441721,
          "velocity": 0.3779527559055118,
          "duration": 0.27906976744183254
        },
        {
          "name": "D#3",
          "midi": 51,
          "time": 42.80232558139395,
          "velocity": 0.4094488188976378,
          "duration": 0.2441860465116079
        },
        {
          "name": "D#4",
          "midi": 63,
          "time": 42.80232558139395,
          "velocity": 0.44881889763779526,
          "duration": 0.1860465116279002
        },
        {
          "name": "G#4",
          "midi": 68,
          "time": 42.80232558139395,
          "velocity": 0.2204724409448819,
          "duration": 0.046511627906973274
        },
        {
          "name": "A#5",
          "midi": 82,
          "time": 42.80232558139395,
          "velocity": 0.3937007874015748,
          "duration": 0.2093023255813833
        },
        {
          "name": "C#6",
          "midi": 85,
          "time": 42.80232558139395,
          "velocity": 0.29133858267716534,
          "duration": 0.22093023255812483
        },
        {
          "name": "G#6",
          "midi": 92,
          "time": 42.80232558139395,
          "velocity": 0.16535433070866143,
          "duration": 0.058139534883714816
        },
        {
          "name": "G5",
          "midi": 79,
          "time": 42.825581395347434,
          "velocity": 0.31496062992125984,
          "duration": 0.17441860465115866
        },
        {
          "name": "G4",
          "midi": 67,
          "time": 42.96511627906836,
          "velocity": 0.2125984251968504,
          "duration": 0.046511627906973274
        },
        {
          "name": "D4",
          "midi": 62,
          "time": 42.98837209302185,
          "velocity": 0.30708661417322836,
          "duration": 0.034883720930224626
        },
        {
          "name": "C6",
          "midi": 84,
          "time": 42.98837209302185,
          "velocity": 0.29133858267716534,
          "duration": 0.06976744186044925
        },
        {
          "name": "F6",
          "midi": 89,
          "time": 42.98837209302185,
          "velocity": 0.36220472440944884,
          "duration": 0.11627906976741542
        },
        {
          "name": "F5",
          "midi": 77,
          "time": 42.99999999999859,
          "velocity": 0.2677165354330709,
          "duration": 0.09302325581393234
        },
        {
          "name": "D#6",
          "midi": 87,
          "time": 42.99999999999859,
          "velocity": 0.30708661417322836,
          "duration": 0.05813953488370771
        },
        {
          "name": "E6",
          "midi": 88,
          "time": 42.99999999999859,
          "velocity": 0.31496062992125984,
          "duration": 0.06976744186044925
        },
        {
          "name": "E4",
          "midi": 64,
          "time": 43.011627906975335,
          "velocity": 0.25196850393700787,
          "duration": 0.05813953488370771
        },
        {
          "name": "G6",
          "midi": 91,
          "time": 43.011627906975335,
          "velocity": 0.29133858267716534,
          "duration": 0.06976744186044925
        },
        {
          "name": "G#5",
          "midi": 80,
          "time": 43.023255813952076,
          "velocity": 0.5275590551181102,
          "duration": 0.034883720930224626
        },
        {
          "name": "D6",
          "midi": 86,
          "time": 43.023255813952076,
          "velocity": 0.25196850393700787,
          "duration": 0.05813953488370771
        },
        {
          "name": "F#6",
          "midi": 90,
          "time": 43.023255813952076,
          "velocity": 0.2677165354330709,
          "duration": 0.034883720930224626
        },
        {
          "name": "A6",
          "midi": 93,
          "time": 43.023255813952076,
          "velocity": 0.12598425196850394,
          "duration": 0.034883720930224626
        },
        {
          "name": "D5",
          "midi": 74,
          "time": 43.03488372092882,
          "velocity": 0.3228346456692913,
          "duration": 0.04651162790696617
        },
        {
          "name": "B5",
          "midi": 83,
          "time": 43.03488372092882,
          "velocity": 0.3779527559055118,
          "duration": 0.04651162790696617
        },
        {
          "name": "C#6",
          "midi": 85,
          "time": 43.03488372092882,
          "velocity": 0.1889763779527559,
          "duration": 0.034883720930224626
        },
        {
          "name": "D3",
          "midi": 50,
          "time": 43.04651162790556,
          "velocity": 0.33070866141732286,
          "duration": 0.034883720930224626
        },
        {
          "name": "A#1",
          "midi": 34,
          "time": 43.0581395348823,
          "velocity": 0.6299212598425197,
          "duration": 0.011627906976741542
        },
        {
          "name": "G3",
          "midi": 55,
          "time": 43.0581395348823,
          "velocity": 0.3228346456692913,
          "duration": 0.034883720930224626
        },
        {
          "name": "G5",
          "midi": 79,
          "time": 43.0581395348823,
          "velocity": 0.5196850393700787,
          "duration": 0.034883720930224626
        },
        {
          "name": "A5",
          "midi": 81,
          "time": 43.0581395348823,
          "velocity": 0.3464566929133858,
          "duration": 0.023255813953483084
        },
        {
          "name": "G#6",
          "midi": 92,
          "time": 43.0581395348823,
          "velocity": 0.31496062992125984,
          "duration": 0.2790697674418041
        },
        {
          "name": "G1",
          "midi": 31,
          "time": 43.06976744185904,
          "velocity": 0.7322834645669292,
          "duration": 0.023255813953483084
        },
        {
          "name": "D#4",
          "midi": 63,
          "time": 43.06976744185904,
          "velocity": 0.2992125984251969,
          "duration": 0.034883720930224626
        },
        {
          "name": "A#5",
          "midi": 82,
          "time": 43.06976744185904,
          "velocity": 0.25196850393700787,
          "duration": 0.04651162790696617
        },
        {
          "name": "D#6",
          "midi": 87,
          "time": 43.06976744185904,
          "velocity": 0.1889763779527559,
          "duration": 0.11627906976741542
        },
        {
          "name": "G#4",
          "midi": 68,
          "time": 43.081395348835784,
          "velocity": 0.4094488188976378,
          "duration": 0.3023255813952943
        },
        {
          "name": "A#4",
          "midi": 70,
          "time": 43.081395348835784,
          "velocity": 0.09448818897637795,
          "duration": 0.034883720930224626
        },
        {
          "name": "D#5",
          "midi": 75,
          "time": 43.081395348835784,
          "velocity": 0.5511811023622047,
          "duration": 0.3488372093022605
        },
        {
          "name": "G#5",
          "midi": 80,
          "time": 43.081395348835784,
          "velocity": 0.4881889763779528,
          "duration": 0.29069767441855277
        },
        {
          "name": "C6",
          "midi": 84,
          "time": 43.081395348835784,
          "velocity": 0.33858267716535434,
          "duration": 0.4069767441859682
        },
        {
          "name": "G#1",
          "midi": 32,
          "time": 43.093023255812525,
          "velocity": 0.7637795275590551,
          "duration": 0.59302325581384
        },
        {
          "name": "D#3",
          "midi": 51,
          "time": 43.093023255812525,
          "velocity": 0.2440944881889764,
          "duration": 0.04651162790696617
        },
        {
          "name": "G#3",
          "midi": 56,
          "time": 43.093023255812525,
          "velocity": 0.4094488188976378,
          "duration": 0.2441860465115795
        },
        {
          "name": "B5",
          "midi": 83,
          "time": 43.093023255812525,
          "velocity": 0.16535433070866143,
          "duration": 0.034883720930224626
        },
        {
          "name": "D#4",
          "midi": 63,
          "time": 43.11627906976601,
          "velocity": 0.33070866141732286,
          "duration": 0.023255813953483084
        },
        {
          "name": "F#6",
          "midi": 90,
          "time": 43.11627906976601,
          "velocity": 0.10236220472440945,
          "duration": 0.06976744186044925
        },
        {
          "name": "D4",
          "midi": 62,
          "time": 43.13953488371949,
          "velocity": 0.33858267716535434,
          "duration": 0.023255813953483084
        },
        {
          "name": "B5",
          "midi": 83,
          "time": 43.13953488371949,
          "velocity": 0.1968503937007874,
          "duration": 0.034883720930224626
        },
        {
          "name": "D#3",
          "midi": 51,
          "time": 43.15116279069623,
          "velocity": 0.2755905511811024,
          "duration": 0.11627906976741542
        },
        {
          "name": "A#4",
          "midi": 70,
          "time": 43.15116279069623,
          "velocity": 0.12598425196850394,
          "duration": 0.04651162790696617
        },
        {
          "name": "F#4",
          "midi": 66,
          "time": 43.162790697672975,
          "velocity": 0.16535433070866143,
          "duration": 0.0813953488371908
        },
        {
          "name": "A#5",
          "midi": 82,
          "time": 43.174418604649716,
          "velocity": 0.30708661417322836,
          "duration": 0.3023255813952943
        },
        {
          "name": "C4",
          "midi": 60,
          "time": 43.18604651162646,
          "velocity": 0.2047244094488189,
          "duration": 0.04651162790696617
        },
        {
          "name": "E7",
          "midi": 100,
          "time": 43.20930232557994,
          "velocity": 0.2755905511811024,
          "duration": 0.15116279069765426
        },
        {
          "name": "G5",
          "midi": 79,
          "time": 43.22093023255668,
          "velocity": 0.12598425196850394,
          "duration": 0.04651162790696617
        },
        {
          "name": "A#4",
          "midi": 70,
          "time": 43.232558139533424,
          "velocity": 0.1889763779527559,
          "duration": 0.034883720930224626
        },
        {
          "name": "F#6",
          "midi": 90,
          "time": 43.25581395348691,
          "velocity": 0.3464566929133858,
          "duration": 0.12790697674417117
        },
        {
          "name": "D4",
          "midi": 62,
          "time": 43.26744186046365,
          "velocity": 0.25984251968503935,
          "duration": 0.023255813953483084
        },
        {
          "name": "D#3",
          "midi": 51,
          "time": 43.27906976744039,
          "velocity": 0.31496062992125984,
          "duration": 0.03488372093023173
        },
        {
          "name": "G5",
          "midi": 79,
          "time": 43.27906976744039,
          "velocity": 0.1889763779527559,
          "duration": 0.046511627906973274
        },
        {
          "name": "A#4",
          "midi": 70,
          "time": 43.29069767441713,
          "velocity": 0.33858267716535434,
          "duration": 0.081395348837205
        },
        {
          "name": "D4",
          "midi": 62,
          "time": 43.31395348837062,
          "velocity": 0.28346456692913385,
          "duration": 0.046511627906973274
        },
        {
          "name": "F5",
          "midi": 77,
          "time": 43.31395348837062,
          "velocity": 0.23622047244094488,
          "duration": 0.0813953488371979
        },
        {
          "name": "D#3",
          "midi": 51,
          "time": 43.32558139534736,
          "velocity": 0.30708661417322836,
          "duration": 0.06976744186045636
        },
        {
          "name": "G5",
          "midi": 79,
          "time": 43.337209302324105,
          "velocity": 0.30708661417322836,
          "duration": 0.3023255813952943
        },
        {
          "name": "G#3",
          "midi": 56,
          "time": 43.37209302325434,
          "velocity": 0.3779527559055118,
          "duration": 0.023255813953483084
        },
        {
          "name": "G4",
          "midi": 67,
          "time": 43.38372093023108,
          "velocity": 0.31496062992125984,
          "duration": 0.034883720930224626
        },
        {
          "name": "G3",
          "midi": 55,
          "time": 43.39534883720782,
          "velocity": 0.4645669291338583,
          "duration": 0.12790697674415696
        },
        {
          "name": "F#4",
          "midi": 66,
          "time": 43.40697674418456,
          "velocity": 0.14173228346456693,
          "duration": 0.034883720930224626
        },
        {
          "name": "A#4",
          "midi": 70,
          "time": 43.40697674418456,
          "velocity": 0.16535433070866143,
          "duration": 0.034883720930224626
        },
        {
          "name": "A5",
          "midi": 81,
          "time": 43.4186046511613,
          "velocity": 0.10236220472440945,
          "duration": 0.034883720930224626
        },
        {
          "name": "C4",
          "midi": 60,
          "time": 43.430232558138044,
          "velocity": 0.1968503937007874,
          "duration": 0.034883720930224626
        },
        {
          "name": "D5",
          "midi": 74,
          "time": 43.430232558138044,
          "velocity": 0.41732283464566927,
          "duration": 0.2209302325580964
        },
        {
          "name": "F5",
          "midi": 77,
          "time": 43.441860465114786,
          "velocity": 0.14960629921259844,
          "duration": 0.034883720930224626
        },
        {
          "name": "B5",
          "midi": 83,
          "time": 43.46511627906827,
          "velocity": 0.3779527559055118,
          "duration": 0.1395348837209056
        },
        {
          "name": "C4",
          "midi": 60,
          "time": 43.47674418604501,
          "velocity": 0.1732283464566929,
          "duration": 0.034883720930224626
        },
        {
          "name": "D6",
          "midi": 86,
          "time": 43.47674418604501,
          "velocity": 0.4409448818897638,
          "duration": 0.12790697674416407
        },
        {
          "name": "G6",
          "midi": 91,
          "time": 43.47674418604501,
          "velocity": 0.3543307086614173,
          "duration": 0.12790697674416407
        },
        {
          "name": "F6",
          "midi": 89,
          "time": 43.48837209302175,
          "velocity": 0.44881889763779526,
          "duration": 0.12790697674416407
        },
        {
          "name": "D#4",
          "midi": 63,
          "time": 43.499999999998494,
          "velocity": 0.25984251968503935,
          "duration": 0.023255813953483084
        },
        {
          "name": "D4",
          "midi": 62,
          "time": 43.52325581395198,
          "velocity": 0.25984251968503935,
          "duration": 0.02325581395349019
        },
        {
          "name": "G4",
          "midi": 67,
          "time": 43.52325581395198,
          "velocity": 0.2677165354330709,
          "duration": 0.10465116279068098
        },
        {
          "name": "G3",
          "midi": 55,
          "time": 43.54651162790547,
          "velocity": 0.4015748031496063,
          "duration": 0.05813953488370771
        },
        {
          "name": "A5",
          "midi": 81,
          "time": 43.55813953488221,
          "velocity": 0.10236220472440945,
          "duration": 0.034883720930224626
        },
        {
          "name": "A6",
          "midi": 93,
          "time": 43.55813953488221,
          "velocity": 0.2125984251968504,
          "duration": 0.0813953488371908
        },
        {
          "name": "D4",
          "midi": 62,
          "time": 43.56976744185895,
          "velocity": 0.29133858267716534,
          "duration": 0.034883720930224626
        },
        {
          "name": "F#7",
          "midi": 102,
          "time": 43.56976744185895,
          "velocity": 0.1968503937007874,
          "duration": 0.0813953488371908
        },
        {
          "name": "C6",
          "midi": 84,
          "time": 43.58139534883569,
          "velocity": 0.15748031496062992,
          "duration": 0.09302325581393234
        },
        {
          "name": "C5",
          "midi": 72,
          "time": 43.59302325581243,
          "velocity": 0.4409448818897638,
          "duration": 0.09302325581393234
        },
        {
          "name": "F4",
          "midi": 65,
          "time": 43.604651162789175,
          "velocity": 0.30708661417322836,
          "duration": 0.0813953488371908
        },
        {
          "name": "D#5",
          "midi": 75,
          "time": 43.604651162789175,
          "velocity": 0.2204724409448819,
          "duration": 0.034883720930224626
        },
        {
          "name": "A5",
          "midi": 81,
          "time": 43.604651162789175,
          "velocity": 0.1889763779527559,
          "duration": 0.06976744186044925
        },
        {
          "name": "A#5",
          "midi": 82,
          "time": 43.604651162789175,
          "velocity": 0.25984251968503935,
          "duration": 0.23255813953483084
        },
        {
          "name": "E7",
          "midi": 100,
          "time": 43.604651162789175,
          "velocity": 0.16535433070866143,
          "duration": 0.05813953488370771
        },
        {
          "name": "C4",
          "midi": 60,
          "time": 43.616279069765916,
          "velocity": 0.16535433070866143,
          "duration": 0.034883720930224626
        },
        {
          "name": "E3",
          "midi": 52,
          "time": 43.62790697674266,
          "velocity": 0.3779527559055118,
          "duration": 0.023255813953483084
        },
        {
          "name": "B6",
          "midi": 95,
          "time": 43.62790697674266,
          "velocity": 0.1732283464566929,
          "duration": 0.034883720930224626
        },
        {
          "name": "F#3",
          "midi": 54,
          "time": 43.65116279069614,
          "velocity": 0.33858267716535434,
          "duration": 0.023255813953483084
        },
        {
          "name": "C#7",
          "midi": 97,
          "time": 43.66279069767288,
          "velocity": 0.13385826771653545,
          "duration": 0.034883720930224626
        },
        {
          "name": "F#7",
          "midi": 102,
          "time": 43.66279069767288,
          "velocity": 0.13385826771653545,
          "duration": 0.034883720930224626
        },
        {
          "name": "G1",
          "midi": 31,
          "time": 43.686046511626365,
          "velocity": 0.7086614173228346,
          "duration": 0.011627906976741542
        },
        {
          "name": "D#3",
          "midi": 51,
          "time": 43.686046511626365,
          "velocity": 0.4015748031496063,
          "duration": 0.023255813953483084
        },
        {
          "name": "D5",
          "midi": 74,
          "time": 43.686046511626365,
          "velocity": 0.36220472440944884,
          "duration": 0.06976744186044925
        },
        {
          "name": "D#7",
          "midi": 99,
          "time": 43.686046511626365,
          "velocity": 0.15748031496062992,
          "duration": 0.034883720930224626
        },
        {
          "name": "E7",
          "midi": 100,
          "time": 43.686046511626365,
          "velocity": 0.11811023622047244,
          "duration": 0.09302325581393234
        },
        {
          "name": "F#1",
          "midi": 30,
          "time": 43.69767441860311,
          "velocity": 0.6062992125984252,
          "duration": 0.011627906976741542
        },
        {
          "name": "D4",
          "midi": 62,
          "time": 43.69767441860311,
          "velocity": 0.3464566929133858,
          "duration": 0.06976744186044925
        },
        {
          "name": "A4",
          "midi": 69,
          "time": 43.69767441860311,
          "velocity": 0.33070866141732286,
          "duration": 0.05813953488370771
        },
        {
          "name": "D3",
          "midi": 50,
          "time": 43.70930232557985,
          "velocity": 0.33858267716535434,
          "duration": 0.023255813953483084
        },
        {
          "name": "F#1",
          "midi": 30,
          "time": 43.73255813953333,
          "velocity": 0.6535433070866141,
          "duration": 0.011627906976741542
        },
        {
          "name": "A#3",
          "midi": 58,
          "time": 43.73255813953333,
          "velocity": 0.3700787401574803,
          "duration": 0.023255813953483084
        },
        {
          "name": "F#5",
          "midi": 78,
          "time": 43.73255813953333,
          "velocity": 0.16535433070866143,
          "duration": 0.034883720930224626
        },
        {
          "name": "D#6",
          "midi": 87,
          "time": 43.73255813953333,
          "velocity": 0.11811023622047244,
          "duration": 0.034883720930224626
        },
        {
          "name": "C7",
          "midi": 96,
          "time": 43.73255813953333,
          "velocity": 0.11023622047244094,
          "duration": 0.034883720930224626
        },
        {
          "name": "G1",
          "midi": 31,
          "time": 43.74418604651007,
          "velocity": 0.7401574803149606,
          "duration": 0.011627906976741542
        },
        {
          "name": "D#5",
          "midi": 75,
          "time": 43.74418604651007,
          "velocity": 0.33070866141732286,
          "duration": 0.10465116279067388
        },
        {
          "name": "F5",
          "midi": 77,
          "time": 43.74418604651007,
          "velocity": 0.25196850393700787,
          "duration": 0.20930232558134776
        },
        {
          "name": "G#5",
          "midi": 80,
          "time": 43.74418604651007,
          "velocity": 0.25196850393700787,
          "duration": 0.05813953488370771
        },
        {
          "name": "F#1",
          "midi": 30,
          "time": 43.755813953486815,
          "velocity": 0.7795275590551181,
          "duration": 0.011627906976741542
        },
        {
          "name": "D#7",
          "midi": 99,
          "time": 43.755813953486815,
          "velocity": 0.15748031496062992,
          "duration": 0.06976744186044925
        },
        {
          "name": "G1",
          "midi": 31,
          "time": 43.767441860463556,
          "velocity": 0.7716535433070866,
          "duration": 0.6046511627905957
        },
        {
          "name": "G#3",
          "midi": 56,
          "time": 43.767441860463556,
          "velocity": 0.4094488188976378,
          "duration": 0.0813953488371908
        },
        {
          "name": "G4",
          "midi": 67,
          "time": 43.767441860463556,
          "velocity": 0.2992125984251969,
          "duration": 0.06976744186044925
        },
        {
          "name": "C5",
          "midi": 72,
          "time": 43.767441860463556,
          "velocity": 0.3464566929133858,
          "duration": 0.09302325581393234
        },
        {
          "name": "C4",
          "midi": 60,
          "time": 43.7790697674403,
          "velocity": 0.3779527559055118,
          "duration": 0.034883720930224626
        },
        {
          "name": "D#4",
          "midi": 63,
          "time": 43.79069767441704,
          "velocity": 0.30708661417322836,
          "duration": 0.0813953488371908
        },
        {
          "name": "D5",
          "midi": 74,
          "time": 43.825581395347264,
          "velocity": 0.13385826771653545,
          "duration": 0.04651162790696617
        },
        {
          "name": "C3",
          "midi": 48,
          "time": 43.84883720930075,
          "velocity": 0.33070866141732286,
          "duration": 0.023255813953483084
        },
        {
          "name": "B3",
          "midi": 59,
          "time": 43.84883720930075,
          "velocity": 0.2992125984251969,
          "duration": 0.023255813953483084
        },
        {
          "name": "G#5",
          "midi": 80,
          "time": 43.84883720930075,
          "velocity": 0.12598425196850394,
          "duration": 0.04651162790696617
        },
        {
          "name": "A#5",
          "midi": 82,
          "time": 43.84883720930075,
          "velocity": 0.2204724409448819,
          "duration": 0.12790697674415696
        },
        {
          "name": "G#3",
          "midi": 56,
          "time": 43.87209302325423,
          "velocity": 0.2992125984251969,
          "duration": 0.04651162790696617
        },
        {
          "name": "C4",
          "midi": 60,
          "time": 43.87209302325423,
          "velocity": 0.3228346456692913,
          "duration": 0.023255813953483084
        },
        {
          "name": "D#5",
          "midi": 75,
          "time": 43.88372093023097,
          "velocity": 0.41732283464566927,
          "duration": 0.05813953488370771
        },
        {
          "name": "D4",
          "midi": 62,
          "time": 43.89534883720771,
          "velocity": 0.33858267716535434,
          "duration": 0.023255813953483084
        },
        {
          "name": "A4",
          "midi": 69,
          "time": 43.89534883720771,
          "velocity": 0.33858267716535434,
          "duration": 0.023255813953483084
        },
        {
          "name": "G#6",
          "midi": 92,
          "time": 43.89534883720771,
          "velocity": 0.18110236220472442,
          "duration": 0.2209302325580964
        },
        {
          "name": "A6",
          "midi": 93,
          "time": 43.89534883720771,
          "velocity": 0.2755905511811024,
          "duration": 0.09302325581393234
        },
        {
          "name": "D3",
          "midi": 50,
          "time": 43.906976744184455,
          "velocity": 0.4330708661417323,
          "duration": 0.023255813953483084
        },
        {
          "name": "D6",
          "midi": 86,
          "time": 43.906976744184455,
          "velocity": 0.23622047244094488,
          "duration": 0.09302325581393234
        },
        {
          "name": "D#4",
          "midi": 63,
          "time": 43.918604651161196,
          "velocity": 0.3700787401574803,
          "duration": 0.09302325581393234
        },
        {
          "name": "A#4",
          "midi": 70,
          "time": 43.918604651161196,
          "velocity": 0.2755905511811024,
          "duration": 0.023255813953483084
        },
        {
          "name": "G5",
          "midi": 79,
          "time": 43.918604651161196,
          "velocity": 0.2677165354330709,
          "duration": 0.05813953488370771
        },
        {
          "name": "A#6",
          "midi": 94,
          "time": 43.918604651161196,
          "velocity": 0.2440944881889764,
          "duration": 0.06976744186044925
        },
        {
          "name": "E7",
          "midi": 100,
          "time": 43.918604651161196,
          "velocity": 0.11811023622047244,
          "duration": 0.0813953488371908
        },
        {
          "name": "D#3",
          "midi": 51,
          "time": 43.93023255813794,
          "velocity": 0.41732283464566927,
          "duration": 0.023255813953483084
        },
        {
          "name": "D5",
          "midi": 74,
          "time": 43.93023255813794,
          "velocity": 0.2992125984251969,
          "duration": 0.023255813953483084
        },
        {
          "name": "E6",
          "midi": 88,
          "time": 43.93023255813794,
          "velocity": 0.10236220472440945,
          "duration": 0.05813953488370771
        },
        {
          "name": "F#6",
          "midi": 90,
          "time": 43.93023255813794,
          "velocity": 0.14960629921259844,
          "duration": 0.0813953488371908
        },
        {
          "name": "E5",
          "midi": 76,
          "time": 43.94186046511468,
          "velocity": 0.3228346456692913,
          "duration": 0.023255813953483084
        },
        {
          "name": "B6",
          "midi": 95,
          "time": 43.94186046511468,
          "velocity": 0.23622047244094488,
          "duration": 0.05813953488370771
        },
        {
          "name": "D#7",
          "midi": 99,
          "time": 43.94186046511468,
          "velocity": 0.31496062992125984,
          "duration": 0.23255813953485216
        },
        {
          "name": "F#5",
          "midi": 78,
          "time": 43.95348837209142,
          "velocity": 0.31496062992125984,
          "duration": 0.034883720930224626
        },
        {
          "name": "B5",
          "midi": 83,
          "time": 43.95348837209142,
          "velocity": 0.1889763779527559,
          "duration": 0.06976744186044925
        },
        {
          "name": "F6",
          "midi": 89,
          "time": 43.95348837209142,
          "velocity": 0.1889763779527559,
          "duration": 0.034883720930224626
        },
        {
          "name": "D#5",
          "midi": 75,
          "time": 43.96511627906816,
          "velocity": 0.47244094488188976,
          "duration": 0.06976744186044925
        },
        {
          "name": "G#3",
          "midi": 56,
          "time": 43.976744186044904,
          "velocity": 0.4251968503937008,
          "duration": 0.36046511627902333
        },
        {
          "name": "G#4",
          "midi": 68,
          "time": 43.976744186044904,
          "velocity": 0.4566929133858268,
          "duration": 0.3255813953487916
        },
        {
          "name": "C#6",
          "midi": 85,
          "time": 43.976744186044904,
          "velocity": 0.13385826771653545,
          "duration": 0.034883720930224626
        },
        {
          "name": "C7",
          "midi": 96,
          "time": 43.976744186044904,
          "velocity": 0.2047244094488189,
          "duration": 0.11627906976741542
        },
        {
          "name": "D3",
          "midi": 50,
          "time": 43.988372093021646,
          "velocity": 0.25196850393700787,
          "duration": 0.034883720930224626
        },
        {
          "name": "F5",
          "midi": 77,
          "time": 43.99999999999839,
          "velocity": 0.25196850393700787,
          "duration": 0.39534883720924796
        },
        {
          "name": "A#6",
          "midi": 94,
          "time": 43.99999999999839,
          "velocity": 0.2125984251968504,
          "duration": 0.09302325581393234
        },
        {
          "name": "C#7",
          "midi": 97,
          "time": 43.99999999999839,
          "velocity": 0.18110236220472442,
          "duration": 0.034883720930224626
        },
        {
          "name": "D5",
          "midi": 74,
          "time": 44.02325581395187,
          "velocity": 0.29133858267716534,
          "duration": 0.023255813953483084
        },
        {
          "name": "D3",
          "midi": 50,
          "time": 44.03488372092861,
          "velocity": 0.29133858267716534,
          "duration": 0.3255813953487987
        },
        {
          "name": "C6",
          "midi": 84,
          "time": 44.03488372092861,
          "velocity": 0.1889763779527559,
          "duration": 0.20930232558136908
        },
        {
          "name": "D#5",
          "midi": 75,
          "time": 44.04651162790535,
          "velocity": 0.36220472440944884,
          "duration": 0.31395348837205717
        },
        {
          "name": "C5",
          "midi": 72,
          "time": 44.058139534882095,
          "velocity": 0.2125984251968504,
          "duration": 0.09302325581394655
        },
        {
          "name": "A#5",
          "midi": 82,
          "time": 44.069767441858836,
          "velocity": 0.1732283464566929,
          "duration": 0.046511627906973274
        },
        {
          "name": "F#6",
          "midi": 90,
          "time": 44.08139534883558,
          "velocity": 0.25196850393700787,
          "duration": 0.1046511627906952
        },
        {
          "name": "D#4",
          "midi": 63,
          "time": 44.15116279069604,
          "velocity": 0.16535433070866143,
          "duration": 0.03488372093023173
        },
        {
          "name": "A#6",
          "midi": 94,
          "time": 44.18604651162627,
          "velocity": 0.2047244094488189,
          "duration": 0.0813953488371908
        },
        {
          "name": "D#4",
          "midi": 63,
          "time": 44.197674418603015,
          "velocity": 0.28346456692913385,
          "duration": 0.1627906976743958
        },
        {
          "name": "E7",
          "midi": 100,
          "time": 44.209302325579756,
          "velocity": 0.07086614173228346,
          "duration": 0.034883720930224626
        },
        {
          "name": "C5",
          "midi": 72,
          "time": 44.2209302325565,
          "velocity": 0.09448818897637795,
          "duration": 0.034883720930224626
        },
        {
          "name": "D#7",
          "midi": 99,
          "time": 44.23255813953324,
          "velocity": 0.14960629921259844,
          "duration": 0.06976744186045636
        },
        {
          "name": "A#5",
          "midi": 82,
          "time": 44.25581395348672,
          "velocity": 0.11023622047244094,
          "duration": 0.046511627906973274
        },
        {
          "name": "C6",
          "midi": 84,
          "time": 44.279069767440205,
          "velocity": 0.08661417322834646,
          "duration": 0.03488372093023173
        },
        {
          "name": "G4",
          "midi": 67,
          "time": 44.302325581393696,
          "velocity": 0.3858267716535433,
          "duration": 0.03488372093023173
        },
        {
          "name": "G#4",
          "midi": 68,
          "time": 44.33720930232393,
          "velocity": 0.5039370078740157,
          "duration": 0.04651162790696617
        },
        {
          "name": "G#3",
          "midi": 56,
          "time": 44.34883720930067,
          "velocity": 0.4330708661417323,
          "duration": 0.023255813953483084
        },
        {
          "name": "G5",
          "midi": 79,
          "time": 44.34883720930067,
          "velocity": 0.5590551181102362,
          "duration": 0.4069767441859824
        },
        {
          "name": "B5",
          "midi": 83,
          "time": 44.36046511627741,
          "velocity": 0.18110236220472442,
          "duration": 0.05813953488370771
        },
        {
          "name": "D6",
          "midi": 86,
          "time": 44.36046511627741,
          "velocity": 0.2755905511811024,
          "duration": 0.11627906976741542
        },
        {
          "name": "F1",
          "midi": 29,
          "time": 44.37209302325415,
          "velocity": 0.5905511811023622,
          "duration": 0.011627906976741542
        },
        {
          "name": "G3",
          "midi": 55,
          "time": 44.37209302325415,
          "velocity": 0.4409448818897638,
          "duration": 0.034883720930224626
        },
        {
          "name": "D5",
          "midi": 74,
          "time": 44.37209302325415,
          "velocity": 0.5275590551181102,
          "duration": 0.15116279069764005
        },
        {
          "name": "E6",
          "midi": 88,
          "time": 44.38372093023089,
          "velocity": 0.16535433070866143,
          "duration": 0.034883720930224626
        },
        {
          "name": "G#6",
          "midi": 92,
          "time": 44.38372093023089,
          "velocity": 0.11023622047244094,
          "duration": 0.034883720930224626
        },
        {
          "name": "A5",
          "midi": 81,
          "time": 44.395348837207635,
          "velocity": 0.13385826771653545,
          "duration": 0.034883720930224626
        },
        {
          "name": "E1",
          "midi": 28,
          "time": 44.40697674418438,
          "velocity": 0.6062992125984252,
          "duration": 0.011627906976741542
        },
        {
          "name": "G4",
          "midi": 67,
          "time": 44.40697674418438,
          "velocity": 0.33070866141732286,
          "duration": 0.034883720930224626
        },
        {
          "name": "D#5",
          "midi": 75,
          "time": 44.40697674418438,
          "velocity": 0.3543307086614173,
          "duration": 0.034883720930224626
        },
        {
          "name": "F6",
          "midi": 89,
          "time": 44.40697674418438,
          "velocity": 0.29133858267716534,
          "duration": 0.11627906976741542
        },
        {
          "name": "A6",
          "midi": 93,
          "time": 44.40697674418438,
          "velocity": 0.2677165354330709,
          "duration": 0.11627906976741542
        },
        {
          "name": "D#1",
          "midi": 27,
          "time": 44.41860465116112,
          "velocity": 0.6850393700787402,
          "duration": 0.011627906976741542
        },
        {
          "name": "G3",
          "midi": 55,
          "time": 44.41860465116112,
          "velocity": 0.4251968503937008,
          "duration": 0.034883720930224626
        },
        {
          "name": "B6",
          "midi": 95,
          "time": 44.41860465116112,
          "velocity": 0.11023622047244094,
          "duration": 0.05813953488370771
        },
        {
          "name": "D1",
          "midi": 26,
          "time": 44.43023255813786,
          "velocity": 0.7007874015748031,
          "duration": 0.011627906976741542
        },
        {
          "name": "D#4",
          "midi": 63,
          "time": 44.43023255813786,
          "velocity": 0.1732283464566929,
          "duration": 0.034883720930224626
        },
        {
          "name": "B5",
          "midi": 83,
          "time": 44.43023255813786,
          "velocity": 0.14173228346456693,
          "duration": 0.09302325581393234
        },
        {
          "name": "C1",
          "midi": 24,
          "time": 44.4418604651146,
          "velocity": 0.7165354330708661,
          "duration": 0.011627906976741542
        },
        {
          "name": "B0",
          "midi": 23,
          "time": 44.45348837209134,
          "velocity": 0.7244094488188977,
          "duration": 0.023255813953483084
        },
        {
          "name": "G4",
          "midi": 67,
          "time": 44.45348837209134,
          "velocity": 0.3543307086614173,
          "duration": 0.05813953488370771
        },
        {
          "name": "C1",
          "midi": 24,
          "time": 44.476744186044826,
          "velocity": 0.7559055118110236,
          "duration": 1.2325581395346745
        },
        {
          "name": "G#3",
          "midi": 56,
          "time": 44.476744186044826,
          "velocity": 0.3228346456692913,
          "duration": 0.023255813953483084
        },
        {
          "name": "F5",
          "midi": 77,
          "time": 44.476744186044826,
          "velocity": 0.2992125984251969,
          "duration": 0.2674418604650839
        },
        {
          "name": "D4",
          "midi": 62,
          "time": 44.48837209302157,
          "velocity": 0.1889763779527559,
          "duration": 0.04651162790696617
        },
        {
          "name": "A3",
          "midi": 57,
          "time": 44.49999999999831,
          "velocity": 0.29133858267716534,
          "duration": 0.023255813953483084
        },
        {
          "name": "F#4",
          "midi": 66,
          "time": 44.51162790697505,
          "velocity": 0.25196850393700787,
          "duration": 0.023255813953483084
        },
        {
          "name": "C5",
          "midi": 72,
          "time": 44.51162790697505,
          "velocity": 0.4251968503937008,
          "duration": 0.0813953488371979
        },
        {
          "name": "D#5",
          "midi": 75,
          "time": 44.52325581395179,
          "velocity": 0.2204724409448819,
          "duration": 0.23255813953485927
        },
        {
          "name": "A5",
          "midi": 81,
          "time": 44.52325581395179,
          "velocity": 0.13385826771653545,
          "duration": 0.03488372093023173
        },
        {
          "name": "D#7",
          "midi": 99,
          "time": 44.52325581395179,
          "velocity": 0.18110236220472442,
          "duration": 0.03488372093023173
        },
        {
          "name": "E7",
          "midi": 100,
          "time": 44.52325581395179,
          "velocity": 0.08661417322834646,
          "duration": 0.03488372093023173
        },
        {
          "name": "F3",
          "midi": 53,
          "time": 44.53488372092853,
          "velocity": 0.3228346456692913,
          "duration": 0.02325581395349019
        },
        {
          "name": "G#4",
          "midi": 68,
          "time": 44.53488372092853,
          "velocity": 0.2047244094488189,
          "duration": 0.03488372093023173
        },
        {
          "name": "G2",
          "midi": 43,
          "time": 44.558139534882024,
          "velocity": 0.31496062992125984,
          "duration": 0.023255813953483084
        },
        {
          "name": "G3",
          "midi": 55,
          "time": 44.558139534882024,
          "velocity": 0.3464566929133858,
          "duration": 0.023255813953483084
        },
        {
          "name": "E4",
          "midi": 64,
          "time": 44.58139534883551,
          "velocity": 0.2283464566929134,
          "duration": 0.023255813953483084
        },
        {
          "name": "B4",
          "midi": 71,
          "time": 44.58139534883551,
          "velocity": 0.30708661417322836,
          "duration": 0.023255813953483084
        },
        {
          "name": "A4",
          "midi": 69,
          "time": 44.59302325581225,
          "velocity": 0.2677165354330709,
          "duration": 0.034883720930224626
        },
        {
          "name": "B4",
          "midi": 71,
          "time": 44.61627906976573,
          "velocity": 0.08661417322834646,
          "duration": 0.03488372093023173
        },
        {
          "name": "G#3",
          "midi": 56,
          "time": 44.62790697674247,
          "velocity": 0.4015748031496063,
          "duration": 0.17441860465115155
        },
        {
          "name": "G2",
          "midi": 43,
          "time": 44.662790697672705,
          "velocity": 0.31496062992125984,
          "duration": 0.02325581395349019
        },
        {
          "name": "D4",
          "midi": 62,
          "time": 44.697674418602936,
          "velocity": 0.2047244094488189,
          "duration": 0.13953488372091272
        },
        {
          "name": "G2",
          "midi": 43,
          "time": 44.75581395348665,
          "velocity": 0.33858267716535434,
          "duration": 0.02325581395349019
        },
        {
          "name": "G4",
          "midi": 67,
          "time": 44.77906976744014,
          "velocity": 0.29133858267716534,
          "duration": 0.0813953488371908
        },
        {
          "name": "G5",
          "midi": 79,
          "time": 44.79069767441688,
          "velocity": 0.48031496062992124,
          "duration": 0.09302325581393234
        },
        {
          "name": "G2",
          "midi": 43,
          "time": 44.802325581393625,
          "velocity": 0.25984251968503935,
          "duration": 0.023255813953483084
        },
        {
          "name": "A#5",
          "midi": 82,
          "time": 44.802325581393625,
          "velocity": 0.4094488188976378,
          "duration": 0.034883720930224626
        },
        {
          "name": "D6",
          "midi": 86,
          "time": 44.802325581393625,
          "velocity": 0.2204724409448819,
          "duration": 0.06976744186044925
        },
        {
          "name": "E6",
          "midi": 88,
          "time": 44.802325581393625,
          "velocity": 0.28346456692913385,
          "duration": 0.06976744186044925
        },
        {
          "name": "F6",
          "midi": 89,
          "time": 44.802325581393625,
          "velocity": 0.3464566929133858,
          "duration": 0.09302325581393234
        },
        {
          "name": "G#3",
          "midi": 56,
          "time": 44.813953488370366,
          "velocity": 0.4881889763779528,
          "duration": 0.3837209302324993
        },
        {
          "name": "D#5",
          "midi": 75,
          "time": 44.813953488370366,
          "velocity": 0.2992125984251969,
          "duration": 0.023255813953483084
        },
        {
          "name": "C6",
          "midi": 84,
          "time": 44.813953488370366,
          "velocity": 0.28346456692913385,
          "duration": 0.023255813953483084
        },
        {
          "name": "A5",
          "midi": 81,
          "time": 44.82558139534711,
          "velocity": 0.4645669291338583,
          "duration": 0.034883720930224626
        },
        {
          "name": "C#6",
          "midi": 85,
          "time": 44.82558139534711,
          "velocity": 0.2283464566929134,
          "duration": 0.034883720930224626
        },
        {
          "name": "F#6",
          "midi": 90,
          "time": 44.82558139534711,
          "velocity": 0.2125984251968504,
          "duration": 0.1627906976743887
        },
        {
          "name": "D5",
          "midi": 74,
          "time": 44.83720930232385,
          "velocity": 0.28346456692913385,
          "duration": 0.023255813953483084
        },
        {
          "name": "B5",
          "midi": 83,
          "time": 44.83720930232385,
          "velocity": 0.2992125984251969,
          "duration": 0.05813953488370771
        },
        {
          "name": "F5",
          "midi": 77,
          "time": 44.84883720930059,
          "velocity": 0.25196850393700787,
          "duration": 0.023255813953483084
        },
        {
          "name": "D#5",
          "midi": 75,
          "time": 44.86046511627733,
          "velocity": 0.5669291338582677,
          "duration": 0.3720930232557649
        },
        {
          "name": "A#5",
          "midi": 82,
          "time": 44.86046511627733,
          "velocity": 0.18110236220472442,
          "duration": 0.034883720930224626
        },
        {
          "name": "D4",
          "midi": 62,
          "time": 44.872093023254074,
          "velocity": 0.14960629921259844,
          "duration": 0.058139534883714816
        },
        {
          "name": "C6",
          "midi": 84,
          "time": 44.872093023254074,
          "velocity": 0.25984251968503935,
          "duration": 0.3255813953487916
        },
        {
          "name": "G#5",
          "midi": 80,
          "time": 44.883720930230815,
          "velocity": 0.4409448818897638,
          "duration": 0.2209302325581035
        },
        {
          "name": "D6",
          "midi": 86,
          "time": 44.883720930230815,
          "velocity": 0.13385826771653545,
          "duration": 0.31395348837205006
        },
        {
          "name": "A#6",
          "midi": 94,
          "time": 44.883720930230815,
          "velocity": 0.2440944881889764,
          "duration": 0.11627906976742253
        },
        {
          "name": "E7",
          "midi": 100,
          "time": 44.883720930230815,
          "velocity": 0.2204724409448819,
          "duration": 0.11627906976742253
        },
        {
          "name": "G2",
          "midi": 43,
          "time": 44.9069767441843,
          "velocity": 0.2677165354330709,
          "duration": 0.02325581395349019
        },
        {
          "name": "G5",
          "midi": 79,
          "time": 44.9069767441843,
          "velocity": 0.30708661417322836,
          "duration": 0.046511627906973274
        },
        {
          "name": "G7",
          "midi": 103,
          "time": 44.9069767441843,
          "velocity": 0.09448818897637795,
          "duration": 0.03488372093023173
        },
        {
          "name": "D4",
          "midi": 62,
          "time": 44.94186046511453,
          "velocity": 0.1732283464566929,
          "duration": 0.04651162790696617
        },
        {
          "name": "G#2",
          "midi": 44,
          "time": 44.95348837209127,
          "velocity": 0.31496062992125984,
          "duration": 0.023255813953483084
        },
        {
          "name": "C5",
          "midi": 72,
          "time": 44.96511627906801,
          "velocity": 0.1889763779527559,
          "duration": 0.06976744186045636
        },
        {
          "name": "G2",
          "midi": 43,
          "time": 44.988372093021496,
          "velocity": 0.30708661417322836,
          "duration": 0.03488372093023173
        },
        {
          "name": "D4",
          "midi": 62,
          "time": 44.99999999999824,
          "velocity": 0.18110236220472442,
          "duration": 0.058139534883714816
        },
        {
          "name": "G5",
          "midi": 79,
          "time": 44.99999999999824,
          "velocity": 0.15748031496062992,
          "duration": 0.058139534883714816
        },
        {
          "name": "F7",
          "midi": 101,
          "time": 44.99999999999824,
          "velocity": 0.10236220472440945,
          "duration": 0.03488372093023173
        },
        {
          "name": "E7",
          "midi": 100,
          "time": 45.02325581395173,
          "velocity": 0.29133858267716534,
          "duration": 0.15116279069765426
        },
        {
          "name": "G2",
          "midi": 43,
          "time": 45.04651162790521,
          "velocity": 0.29133858267716534,
          "duration": 0.023255813953483084
        },
        {
          "name": "F5",
          "midi": 77,
          "time": 45.04651162790521,
          "velocity": 0.07874015748031496,
          "duration": 0.04651162790696617
        },
        {
          "name": "F#6",
          "midi": 90,
          "time": 45.05813953488195,
          "velocity": 0.3464566929133858,
          "duration": 0.12790697674417117
        },
        {
          "name": "G5",
          "midi": 79,
          "time": 45.081395348835436,
          "velocity": 0.1889763779527559,
          "duration": 0.081395348837205
        },
        {
          "name": "G2",
          "midi": 43,
          "time": 45.09302325581218,
          "velocity": 0.33070866141732286,
          "duration": 0.023255813953483084
        },
        {
          "name": "G2",
          "midi": 43,
          "time": 45.13953488371915,
          "velocity": 0.2992125984251969,
          "duration": 0.02325581395349019
        },
        {
          "name": "D4",
          "midi": 62,
          "time": 45.16279069767264,
          "velocity": 0.1732283464566929,
          "duration": 0.15116279069764715
        },
        {
          "name": "F5",
          "midi": 77,
          "time": 45.17441860464938,
          "velocity": 0.09448818897637795,
          "duration": 0.034883720930224626
        },
        {
          "name": "G5",
          "midi": 79,
          "time": 45.17441860464938,
          "velocity": 0.2992125984251969,
          "duration": 0.23255813953483795
        },
        {
          "name": "G2",
          "midi": 43,
          "time": 45.186046511626124,
          "velocity": 0.3464566929133858,
          "duration": 0.023255813953483084
        },
        {
          "name": "G3",
          "midi": 55,
          "time": 45.197674418602865,
          "velocity": 0.4566929133858268,
          "duration": 0.09302325581393944
        },
        {
          "name": "B5",
          "midi": 83,
          "time": 45.24418604650984,
          "velocity": 0.3858267716535433,
          "duration": 0.17441860465112313
        },
        {
          "name": "D5",
          "midi": 74,
          "time": 45.25581395348658,
          "velocity": 0.4330708661417323,
          "duration": 0.1395348837208985
        },
        {
          "name": "A#5",
          "midi": 82,
          "time": 45.25581395348658,
          "velocity": 0.2047244094488189,
          "duration": 0.034883720930224626
        },
        {
          "name": "D6",
          "midi": 86,
          "time": 45.25581395348658,
          "velocity": 0.4409448818897638,
          "duration": 0.18604651162786467
        },
        {
          "name": "E6",
          "midi": 88,
          "time": 45.26744186046332,
          "velocity": 0.1889763779527559,
          "duration": 0.034883720930224626
        },
        {
          "name": "F6",
          "midi": 89,
          "time": 45.26744186046332,
          "velocity": 0.4566929133858268,
          "duration": 0.1395348837208985
        },
        {
          "name": "G2",
          "midi": 43,
          "time": 45.27906976744006,
          "velocity": 0.2440944881889764,
          "duration": 0.023255813953483084
        },
        {
          "name": "G#3",
          "midi": 56,
          "time": 45.290697674416805,
          "velocity": 0.36220472440944884,
          "duration": 0.023255813953483084
        },
        {
          "name": "G6",
          "midi": 91,
          "time": 45.290697674416805,
          "velocity": 0.3543307086614173,
          "duration": 0.1627906976743816
        },
        {
          "name": "D#6",
          "midi": 87,
          "time": 45.302325581393546,
          "velocity": 0.16535433070866143,
          "duration": 0.04651162790696617
        },
        {
          "name": "G3",
          "midi": 55,
          "time": 45.31395348837029,
          "velocity": 0.3700787401574803,
          "duration": 0.034883720930224626
        },
        {
          "name": "B4",
          "midi": 71,
          "time": 45.31395348837029,
          "velocity": 0.08661417322834646,
          "duration": 0.09302325581393234
        },
        {
          "name": "G#2",
          "midi": 44,
          "time": 45.32558139534703,
          "velocity": 0.30708661417322836,
          "duration": 0.023255813953483084
        },
        {
          "name": "D#4",
          "midi": 63,
          "time": 45.33720930232377,
          "velocity": 0.28346456692913385,
          "duration": 0.0813953488371908
        },
        {
          "name": "G4",
          "midi": 67,
          "time": 45.34883720930051,
          "velocity": 0.3228346456692913,
          "duration": 0.0813953488371908
        },
        {
          "name": "F5",
          "midi": 77,
          "time": 45.360465116277254,
          "velocity": 0.23622047244094488,
          "duration": 0.1395348837208985
        },
        {
          "name": "A6",
          "midi": 93,
          "time": 45.360465116277254,
          "velocity": 0.23622047244094488,
          "duration": 0.09302325581393234
        },
        {
          "name": "G3",
          "midi": 55,
          "time": 45.372093023253996,
          "velocity": 0.30708661417322836,
          "duration": 0.034883720930224626
        },
        {
          "name": "F#7",
          "midi": 102,
          "time": 45.372093023253996,
          "velocity": 0.2440944881889764,
          "duration": 0.12790697674415696
        },
        {
          "name": "G2",
          "midi": 43,
          "time": 45.38372093023074,
          "velocity": 0.29133858267716534,
          "duration": 0.023255813953483084
        },
        {
          "name": "D#5",
          "midi": 75,
          "time": 45.38372093023074,
          "velocity": 0.3779527559055118,
          "duration": 0.1395348837208985
        },
        {
          "name": "G#5",
          "midi": 80,
          "time": 45.38372093023074,
          "velocity": 0.11023622047244094,
          "duration": 0.034883720930224626
        },
        {
          "name": "C5",
          "midi": 72,
          "time": 45.39534883720748,
          "velocity": 0.44881889763779526,
          "duration": 0.09302325581393234
        },
        {
          "name": "F3",
          "midi": 53,
          "time": 45.40697674418422,
          "velocity": 0.2992125984251969,
          "duration": 0.04651162790696617
        },
        {
          "name": "D#7",
          "midi": 99,
          "time": 45.40697674418422,
          "velocity": 0.11023622047244094,
          "duration": 0.04651162790696617
        },
        {
          "name": "F4",
          "midi": 65,
          "time": 45.41860465116096,
          "velocity": 0.33858267716535434,
          "duration": 0.06976744186044925
        },
        {
          "name": "A5",
          "midi": 81,
          "time": 45.41860465116096,
          "velocity": 0.15748031496062992,
          "duration": 0.15116279069764005
        },
        {
          "name": "E7",
          "midi": 100,
          "time": 45.41860465116096,
          "velocity": 0.1968503937007874,
          "duration": 0.11627906976741542
        },
        {
          "name": "G#4",
          "midi": 68,
          "time": 45.4302325581377,
          "velocity": 0.1889763779527559,
          "duration": 0.04651162790696617
        },
        {
          "name": "G3",
          "midi": 55,
          "time": 45.453488372091186,
          "velocity": 0.2992125984251969,
          "duration": 0.023255813953483084
        },
        {
          "name": "C7",
          "midi": 96,
          "time": 45.46511627906793,
          "velocity": 0.13385826771653545,
          "duration": 0.04651162790696617
        },
        {
          "name": "E3",
          "midi": 52,
          "time": 45.47674418604467,
          "velocity": 0.36220472440944884,
          "duration": 0.023255813953483084
        },
        {
          "name": "G4",
          "midi": 67,
          "time": 45.47674418604467,
          "velocity": 0.2992125984251969,
          "duration": 0.023255813953483084
        },
        {
          "name": "A#6",
          "midi": 94,
          "time": 45.47674418604467,
          "velocity": 0.23622047244094488,
          "duration": 0.0813953488371908
        },
        {
          "name": "C#7",
          "midi": 97,
          "time": 45.47674418604467,
          "velocity": 0.14960629921259844,
          "duration": 0.034883720930224626
        },
        {
          "name": "G#2",
          "midi": 44,
          "time": 45.48837209302141,
          "velocity": 0.28346456692913385,
          "duration": 0.023255813953483084
        },
        {
          "name": "B4",
          "midi": 71,
          "time": 45.48837209302141,
          "velocity": 0.33858267716535434,
          "duration": 0.023255813953483084
        },
        {
          "name": "D#3",
          "midi": 51,
          "time": 45.49999999999815,
          "velocity": 0.30708661417322836,
          "duration": 0.023255813953483084
        },
        {
          "name": "G#3",
          "midi": 56,
          "time": 45.49999999999815,
          "velocity": 0.28346456692913385,
          "duration": 0.023255813953483084
        },
        {
          "name": "D4",
          "midi": 62,
          "time": 45.49999999999815,
          "velocity": 0.31496062992125984,
          "duration": 0.0813953488371908
        },
        {
          "name": "A4",
          "midi": 69,
          "time": 45.49999999999815,
          "velocity": 0.36220472440944884,
          "duration": 0.034883720930224626
        },
        {
          "name": "G4",
          "midi": 67,
          "time": 45.511627906974894,
          "velocity": 0.4645669291338583,
          "duration": 0.12790697674415696
        },
        {
          "name": "D5",
          "midi": 74,
          "time": 45.511627906974894,
          "velocity": 0.3700787401574803,
          "duration": 0.05813953488370771
        },
        {
          "name": "A#5",
          "midi": 82,
          "time": 45.523255813951636,
          "velocity": 0.14173228346456693,
          "duration": 0.034883720930224626
        },
        {
          "name": "C7",
          "midi": 96,
          "time": 45.53488372092838,
          "velocity": 0.14173228346456693,
          "duration": 0.034883720930224626
        },
        {
          "name": "A3",
          "midi": 57,
          "time": 45.54651162790512,
          "velocity": 0.2283464566929134,
          "duration": 0.034883720930224626
        },
        {
          "name": "C6",
          "midi": 84,
          "time": 45.55813953488186,
          "velocity": 0.08661417322834646,
          "duration": 0.034883720930224626
        },
        {
          "name": "B6",
          "midi": 95,
          "time": 45.55813953488186,
          "velocity": 0.10236220472440945,
          "duration": 0.04651162790696617
        },
        {
          "name": "E7",
          "midi": 100,
          "time": 45.55813953488186,
          "velocity": 0.15748031496062992,
          "duration": 0.034883720930224626
        },
        {
          "name": "G2",
          "midi": 43,
          "time": 45.5697674418586,
          "velocity": 0.28346456692913385,
          "duration": 0.023255813953483084
        },
        {
          "name": "C5",
          "midi": 72,
          "time": 45.5697674418586,
          "velocity": 0.36220472440944884,
          "duration": 0.05813953488370771
        },
        {
          "name": "D#5",
          "midi": 75,
          "time": 45.5697674418586,
          "velocity": 0.30708661417322836,
          "duration": 0.11627906976741542
        },
        {
          "name": "A#6",
          "midi": 94,
          "time": 45.5697674418586,
          "velocity": 0.16535433070866143,
          "duration": 0.04651162790696617
        },
        {
          "name": "D#7",
          "midi": 99,
          "time": 45.58139534883534,
          "velocity": 0.11811023622047244,
          "duration": 0.034883720930224626
        },
        {
          "name": "D#4",
          "midi": 63,
          "time": 45.60465116278883,
          "velocity": 0.2755905511811024,
          "duration": 0.0813953488371908
        },
        {
          "name": "G#3",
          "midi": 56,
          "time": 45.61627906976557,
          "velocity": 0.3228346456692913,
          "duration": 0.04651162790696617
        },
        {
          "name": "B4",
          "midi": 71,
          "time": 45.62790697674231,
          "velocity": 0.11023622047244094,
          "duration": 0.06976744186044925
        },
        {
          "name": "F5",
          "midi": 77,
          "time": 45.63953488371905,
          "velocity": 0.07874015748031496,
          "duration": 0.04651162790696617
        },
        {
          "name": "C3",
          "midi": 48,
          "time": 45.65116279069579,
          "velocity": 0.3228346456692913,
          "duration": 0.023255813953483084
        },
        {
          "name": "C#4",
          "midi": 61,
          "time": 45.674418604649276,
          "velocity": 0.2755905511811024,
          "duration": 0.023255813953483084
        },
        {
          "name": "G#4",
          "midi": 68,
          "time": 45.674418604649276,
          "velocity": 0.2283464566929134,
          "duration": 0.023255813953483084
        },
        {
          "name": "C3",
          "midi": 48,
          "time": 45.69767441860276,
          "velocity": 0.33070866141732286,
          "duration": 0.023255813953483084
        },
        {
          "name": "D#4",
          "midi": 63,
          "time": 45.69767441860276,
          "velocity": 0.3543307086614173,
          "duration": 0.25581395348833524
        },
        {
          "name": "A4",
          "midi": 69,
          "time": 45.69767441860276,
          "velocity": 0.1968503937007874,
          "duration": 0.034883720930224626
        },
        {
          "name": "F#6",
          "midi": 90,
          "time": 45.69767441860276,
          "velocity": 0.11811023622047244,
          "duration": 0.05813953488370771
        },
        {
          "name": "D1",
          "midi": 26,
          "time": 45.7093023255795,
          "velocity": 0.7244094488188977,
          "duration": 0.011627906976741542
        },
        {
          "name": "D#5",
          "midi": 75,
          "time": 45.7093023255795,
          "velocity": 0.36220472440944884,
          "duration": 0.034883720930224626
        },
        {
          "name": "A#5",
          "midi": 82,
          "time": 45.7093023255795,
          "velocity": 0.23622047244094488,
          "duration": 0.06976744186044925
        },
        {
          "name": "G#6",
          "midi": 92,
          "time": 45.7093023255795,
          "velocity": 0.2125984251968504,
          "duration": 0.0813953488371908
        },
        {
          "name": "A#6",
          "midi": 94,
          "time": 45.7093023255795,
          "velocity": 0.2755905511811024,
          "duration": 0.15116279069764715
        },
        {
          "name": "B0",
          "midi": 23,
          "time": 45.72093023255624,
          "velocity": 0.6299212598425197,
          "duration": 0.011627906976741542
        },
        {
          "name": "G5",
          "midi": 79,
          "time": 45.72093023255624,
          "velocity": 0.48031496062992124,
          "duration": 0.1395348837209056
        },
        {
          "name": "D6",
          "midi": 86,
          "time": 45.72093023255624,
          "velocity": 0.2283464566929134,
          "duration": 0.06976744186044925
        },
        {
          "name": "A6",
          "midi": 93,
          "time": 45.72093023255624,
          "velocity": 0.25196850393700787,
          "duration": 0.0813953488371908
        },
        {
          "name": "E7",
          "midi": 100,
          "time": 45.72093023255624,
          "velocity": 0.2440944881889764,
          "duration": 0.0813953488371908
        },
        {
          "name": "F#0",
          "midi": 18,
          "time": 45.73255813953298,
          "velocity": 0.5275590551181102,
          "duration": 0.011627906976741542
        },
        {
          "name": "D#3",
          "midi": 51,
          "time": 45.73255813953298,
          "velocity": 0.3858267716535433,
          "duration": 0.023255813953483084
        },
        {
          "name": "G4",
          "midi": 67,
          "time": 45.73255813953298,
          "velocity": 0.2677165354330709,
          "duration": 0.05813953488370771
        },
        {
          "name": "B4",
          "midi": 71,
          "time": 45.73255813953298,
          "velocity": 0.23622047244094488,
          "duration": 0.034883720930224626
        },
        {
          "name": "B6",
          "midi": 95,
          "time": 45.73255813953298,
          "velocity": 0.25196850393700787,
          "duration": 0.0813953488371908
        },
        {
          "name": "E5",
          "midi": 76,
          "time": 45.744186046509725,
          "velocity": 0.3779527559055118,
          "duration": 0.023255813953483084
        },
        {
          "name": "D#6",
          "midi": 87,
          "time": 45.744186046509725,
          "velocity": 0.2755905511811024,
          "duration": 0.04651162790696617
        },
        {
          "name": "C#7",
          "midi": 97,
          "time": 45.744186046509725,
          "velocity": 0.13385826771653545,
          "duration": 0.05813953488370771
        },
        {
          "name": "F7",
          "midi": 101,
          "time": 45.744186046509725,
          "velocity": 0.11023622047244094,
          "duration": 0.04651162790696617
        },
        {
          "name": "F#7",
          "midi": 102,
          "time": 45.744186046509725,
          "velocity": 0.11811023622047244,
          "duration": 0.05813953488370771
        },
        {
          "name": "C#5",
          "midi": 73,
          "time": 45.75581395348647,
          "velocity": 0.3779527559055118,
          "duration": 0.023255813953483084
        },
        {
          "name": "F#5",
          "midi": 78,
          "time": 45.75581395348647,
          "velocity": 0.4094488188976378,
          "duration": 0.023255813953483084
        },
        {
          "name": "C7",
          "midi": 96,
          "time": 45.76744186046321,
          "velocity": 0.15748031496062992,
          "duration": 0.12790697674416407
        },
        {
          "name": "G3",
          "midi": 55,
          "time": 45.77906976743995,
          "velocity": 0.2992125984251969,
          "duration": 0.023255813953483084
        },
        {
          "name": "D5",
          "midi": 74,
          "time": 45.77906976743995,
          "velocity": 0.49606299212598426,
          "duration": 0.023255813953483084
        },
        {
          "name": "F6",
          "midi": 89,
          "time": 45.77906976743995,
          "velocity": 0.18110236220472442,
          "duration": 0.034883720930224626
        },
        {
          "name": "G#4",
          "midi": 68,
          "time": 45.79069767441669,
          "velocity": 0.47244094488188976,
          "duration": 0.3255813953487916
        },
        {
          "name": "D#5",
          "midi": 75,
          "time": 45.79069767441669,
          "velocity": 0.5511811023622047,
          "duration": 0.19767441860462753
        },
        {
          "name": "C6",
          "midi": 84,
          "time": 45.79069767441669,
          "velocity": 0.2204724409448819,
          "duration": 0.1627906976744029
        },
        {
          "name": "B5",
          "midi": 83,
          "time": 45.80232558139343,
          "velocity": 0.10236220472440945,
          "duration": 0.03488372093023173
        },
        {
          "name": "G#6",
          "midi": 92,
          "time": 45.813953488370174,
          "velocity": 0.1889763779527559,
          "duration": 0.10465116279068809
        },
        {
          "name": "C#7",
          "midi": 97,
          "time": 45.813953488370174,
          "velocity": 0.23622047244094488,
          "duration": 0.058139534883714816
        },
        {
          "name": "G#3",
          "midi": 56,
          "time": 45.837209302323664,
          "velocity": 0.3228346456692913,
          "duration": 0.12790697674417117
        },
        {
          "name": "E7",
          "midi": 100,
          "time": 45.848837209300406,
          "velocity": 0.11811023622047244,
          "duration": 0.034883720930224626
        },
        {
          "name": "C5",
          "midi": 72,
          "time": 45.86046511627715,
          "velocity": 0.2283464566929134,
          "duration": 0.081395348837205
        },
        {
          "name": "F#6",
          "midi": 90,
          "time": 45.88372093023063,
          "velocity": 0.2677165354330709,
          "duration": 0.186046511627886
        },
        {
          "name": "G5",
          "midi": 79,
          "time": 45.94186046511435,
          "velocity": 0.2440944881889764,
          "duration": 0.034883720930224626
        },
        {
          "name": "G#6",
          "midi": 92,
          "time": 45.94186046511435,
          "velocity": 0.2755905511811024,
          "duration": 0.06976744186044925
        },
        {
          "name": "B4",
          "midi": 71,
          "time": 45.965116279067836,
          "velocity": 0.12598425196850394,
          "duration": 0.034883720930224626
        },
        {
          "name": "G#3",
          "midi": 56,
          "time": 45.97674418604458,
          "velocity": 0.28346456692913385,
          "duration": 0.023255813953483084
        },
        {
          "name": "A#5",
          "midi": 82,
          "time": 45.97674418604458,
          "velocity": 0.07874015748031496,
          "duration": 0.09302325581393944
        },
        {
          "name": "D6",
          "midi": 86,
          "time": 45.97674418604458,
          "velocity": 0.25196850393700787,
          "duration": 0.05813953488370771
        },
        {
          "name": "D5",
          "midi": 74,
          "time": 45.98837209302132,
          "velocity": 0.4015748031496063,
          "duration": 0.09302325581393944
        },
        {
          "name": "A#6",
          "midi": 94,
          "time": 45.98837209302132,
          "velocity": 0.2677165354330709,
          "duration": 0.0813953488371979
        },
        {
          "name": "A#4",
          "midi": 70,
          "time": 45.99999999999806,
          "velocity": 0.1968503937007874,
          "duration": 0.04651162790696617
        },
        {
          "name": "C6",
          "midi": 84,
          "time": 45.99999999999806,
          "velocity": 0.16535433070866143,
          "duration": 0.10465116279068098
        },
        {
          "name": "E7",
          "midi": 100,
          "time": 45.99999999999806,
          "velocity": 0.07874015748031496,
          "duration": 0.034883720930224626
        },
        {
          "name": "G#3",
          "midi": 56,
          "time": 46.0116279069748,
          "velocity": 0.33858267716535434,
          "duration": 0.11627906976742253
        },
        {
          "name": "D4",
          "midi": 62,
          "time": 46.0116279069748,
          "velocity": 0.2677165354330709,
          "duration": 0.39534883720924796
        },
        {
          "name": "C#7",
          "midi": 97,
          "time": 46.0116279069748,
          "velocity": 0.07874015748031496,
          "duration": 0.034883720930224626
        },
        {
          "name": "A5",
          "midi": 81,
          "time": 46.02325581395154,
          "velocity": 0.10236220472440945,
          "duration": 0.046511627906973274
        },
        {
          "name": "D#7",
          "midi": 99,
          "time": 46.034883720928285,
          "velocity": 0.1889763779527559,
          "duration": 0.058139534883714816
        },
        {
          "name": "D#5",
          "midi": 75,
          "time": 46.06976744185852,
          "velocity": 0.3464566929133858,
          "duration": 0.04651162790696617
        },
        {
          "name": "G5",
          "midi": 79,
          "time": 46.08139534883526,
          "velocity": 0.2992125984251969,
          "duration": 0.11627906976742253
        },
        {
          "name": "D5",
          "midi": 74,
          "time": 46.11627906976548,
          "velocity": 0.5748031496062992,
          "duration": 0.17441860465114445
        },
        {
          "name": "G3",
          "midi": 55,
          "time": 46.127906976742224,
          "velocity": 0.33858267716535434,
          "duration": 0.02325581395349019
        },
        {
          "name": "G#4",
          "midi": 68,
          "time": 46.127906976742224,
          "velocity": 0.3937007874015748,
          "duration": 0.058139534883714816
        },
        {
          "name": "G3",
          "midi": 55,
          "time": 46.162790697672456,
          "velocity": 0.3464566929133858,
          "duration": 0.17441860465114445
        },
        {
          "name": "D#7",
          "midi": 99,
          "time": 46.1744186046492,
          "velocity": 0.07086614173228346,
          "duration": 0.034883720930224626
        },
        {
          "name": "A#4",
          "midi": 70,
          "time": 46.19767441860268,
          "velocity": 0.2047244094488189,
          "duration": 0.034883720930224626
        },
        {
          "name": "F#5",
          "midi": 78,
          "time": 46.19767441860268,
          "velocity": 0.2755905511811024,
          "duration": 0.023255813953483084
        },
        {
          "name": "G5",
          "midi": 79,
          "time": 46.20930232557942,
          "velocity": 0.6062992125984252,
          "duration": 0.5813953488371268
        },
        {
          "name": "B5",
          "midi": 83,
          "time": 46.20930232557942,
          "velocity": 0.2204724409448819,
          "duration": 0.11627906976743674
        },
        {
          "name": "F6",
          "midi": 89,
          "time": 46.20930232557942,
          "velocity": 0.2677165354330709,
          "duration": 0.1046511627906952
        },
        {
          "name": "F5",
          "midi": 77,
          "time": 46.220930232556164,
          "velocity": 0.12598425196850394,
          "duration": 0.03488372093023173
        },
        {
          "name": "A6",
          "midi": 93,
          "time": 46.220930232556164,
          "velocity": 0.2677165354330709,
          "duration": 0.13953488372091982
        },
        {
          "name": "A5",
          "midi": 81,
          "time": 46.26744186046314,
          "velocity": 0.14960629921259844,
          "duration": 0.11627906976742963
        },
        {
          "name": "F#7",
          "midi": 102,
          "time": 46.29069767441663,
          "velocity": 0.11023622047244094,
          "duration": 0.03488372093023173
        },
        {
          "name": "G#4",
          "midi": 68,
          "time": 46.31395348837012,
          "velocity": 0.2283464566929134,
          "duration": 0.06976744186044925
        },
        {
          "name": "D#5",
          "midi": 75,
          "time": 46.31395348837012,
          "velocity": 0.25984251968503935,
          "duration": 0.04651162790696617
        },
        {
          "name": "F5",
          "midi": 77,
          "time": 46.31395348837012,
          "velocity": 0.3779527559055118,
          "duration": 0.05813953488370771
        },
        {
          "name": "C5",
          "midi": 72,
          "time": 46.32558139534686,
          "velocity": 0.4409448818897638,
          "duration": 0.06976744186044925
        },
        {
          "name": "F4",
          "midi": 65,
          "time": 46.3372093023236,
          "velocity": 0.14960629921259844,
          "duration": 0.034883720930224626
        },
        {
          "name": "F3",
          "midi": 53,
          "time": 46.34883720930034,
          "velocity": 0.28346456692913385,
          "duration": 0.04651162790696617
        },
        {
          "name": "D5",
          "midi": 74,
          "time": 46.34883720930034,
          "velocity": 0.29133858267716534,
          "duration": 0.0813953488371908
        },
        {
          "name": "A4",
          "midi": 69,
          "time": 46.38372093023057,
          "velocity": 0.30708661417322836,
          "duration": 0.034883720930224626
        },
        {
          "name": "C4",
          "midi": 60,
          "time": 46.39534883720731,
          "velocity": 0.2283464566929134,
          "duration": 0.023255813953483084
        },
        {
          "name": "G#4",
          "midi": 68,
          "time": 46.41860465116079,
          "velocity": 0.25196850393700787,
          "duration": 0.13953488372091982
        },
        {
          "name": "B5",
          "midi": 83,
          "time": 46.41860465116079,
          "velocity": 0.15748031496062992,
          "duration": 0.058139534883714816
        },
        {
          "name": "C6",
          "midi": 84,
          "time": 46.41860465116079,
          "velocity": 0.1732283464566929,
          "duration": 0.058139534883714816
        },
        {
          "name": "D4",
          "midi": 62,
          "time": 46.43023255813753,
          "velocity": 0.1889763779527559,
          "duration": 0.22093023255811772
        },
        {
          "name": "D#6",
          "midi": 87,
          "time": 46.43023255813753,
          "velocity": 0.3228346456692913,
          "duration": 0.03488372093023173
        },
        {
          "name": "C#6",
          "midi": 85,
          "time": 46.441860465114274,
          "velocity": 0.1968503937007874,
          "duration": 0.03488372093023173
        },
        {
          "name": "F#6",
          "midi": 90,
          "time": 46.441860465114274,
          "velocity": 0.08661417322834646,
          "duration": 0.046511627906973274
        },
        {
          "name": "G#6",
          "midi": 92,
          "time": 46.441860465114274,
          "velocity": 0.13385826771653545,
          "duration": 0.03488372093023173
        },
        {
          "name": "E7",
          "midi": 100,
          "time": 46.441860465114274,
          "velocity": 0.12598425196850394,
          "duration": 0.03488372093023173
        },
        {
          "name": "F7",
          "midi": 101,
          "time": 46.441860465114274,
          "velocity": 0.11811023622047244,
          "duration": 0.03488372093023173
        },
        {
          "name": "D0",
          "midi": 14,
          "time": 46.476744186044506,
          "velocity": 0.2047244094488189,
          "duration": 0.03488372093023173
        },
        {
          "name": "G4",
          "midi": 67,
          "time": 46.55813953488171,
          "velocity": 0.16535433070866143,
          "duration": 0.046511627906973274
        },
        {
          "name": "G#4",
          "midi": 68,
          "time": 46.604651162788684,
          "velocity": 0.14960629921259844,
          "duration": 0.034883720930224626
        },
        {
          "name": "A#5",
          "midi": 82,
          "time": 46.604651162788684,
          "velocity": 0.4015748031496063,
          "duration": 0.034883720930224626
        },
        {
          "name": "C6",
          "midi": 84,
          "time": 46.604651162788684,
          "velocity": 0.3700787401574803,
          "duration": 0.034883720930224626
        },
        {
          "name": "D6",
          "midi": 86,
          "time": 46.604651162788684,
          "velocity": 0.2755905511811024,
          "duration": 0.11627906976741542
        },
        {
          "name": "D#6",
          "midi": 87,
          "time": 46.604651162788684,
          "velocity": 0.3543307086614173,
          "duration": 0.26744186046505547
        },
        {
          "name": "F6",
          "midi": 89,
          "time": 46.604651162788684,
          "velocity": 0.4330708661417323,
          "duration": 0.04651162790696617
        },
        {
          "name": "E6",
          "midi": 88,
          "time": 46.616279069765426,
          "velocity": 0.25196850393700787,
          "duration": 0.04651162790696617
        },
        {
          "name": "D#3",
          "midi": 51,
          "time": 46.62790697674217,
          "velocity": 0.2755905511811024,
          "duration": 0.023255813953483084
        },
        {
          "name": "A5",
          "midi": 81,
          "time": 46.62790697674217,
          "velocity": 0.5196850393700787,
          "duration": 0.05813953488370771
        },
        {
          "name": "C#6",
          "midi": 85,
          "time": 46.62790697674217,
          "velocity": 0.28346456692913385,
          "duration": 0.023255813953483084
        },
        {
          "name": "F#6",
          "midi": 90,
          "time": 46.62790697674217,
          "velocity": 0.3464566929133858,
          "duration": 0.19767441860460622
        },
        {
          "name": "B1",
          "midi": 35,
          "time": 46.63953488371891,
          "velocity": 0.5354330708661418,
          "duration": 0.011627906976741542
        },
        {
          "name": "E4",
          "midi": 64,
          "time": 46.63953488371891,
          "velocity": 0.30708661417322836,
          "duration": 0.023255813953483084
        },
        {
          "name": "D5",
          "midi": 74,
          "time": 46.63953488371891,
          "velocity": 0.33858267716535434,
          "duration": 0.06976744186044925
        },
        {
          "name": "B5",
          "midi": 83,
          "time": 46.63953488371891,
          "velocity": 0.28346456692913385,
          "duration": 0.04651162790696617
        },
        {
          "name": "G1",
          "midi": 31,
          "time": 46.65116279069565,
          "velocity": 0.7086614173228346,
          "duration": 0.023255813953483084
        },
        {
          "name": "C6",
          "midi": 84,
          "time": 46.65116279069565,
          "velocity": 0.3228346456692913,
          "duration": 0.06976744186044925
        },
        {
          "name": "D4",
          "midi": 62,
          "time": 46.66279069767239,
          "velocity": 0.3464566929133858,
          "duration": 0.023255813953483084
        },
        {
          "name": "G#4",
          "midi": 68,
          "time": 46.66279069767239,
          "velocity": 0.3543307086614173,
          "duration": 0.2790697674418041
        },
        {
          "name": "F6",
          "midi": 89,
          "time": 46.66279069767239,
          "velocity": 0.12598425196850394,
          "duration": 0.034883720930224626
        },
        {
          "name": "G#1",
          "midi": 32,
          "time": 46.674418604649134,
          "velocity": 0.7637795275590551,
          "duration": 0.6046511627905815
        },
        {
          "name": "D#3",
          "midi": 51,
          "time": 46.674418604649134,
          "velocity": 0.2755905511811024,
          "duration": 0.20930232558134776
        },
        {
          "name": "G3",
          "midi": 55,
          "time": 46.674418604649134,
          "velocity": 0.2440944881889764,
          "duration": 0.023255813953483084
        },
        {
          "name": "A#5",
          "midi": 82,
          "time": 46.674418604649134,
          "velocity": 0.2047244094488189,
          "duration": 0.034883720930224626
        },
        {
          "name": "G#6",
          "midi": 92,
          "time": 46.686046511625875,
          "velocity": 0.3779527559055118,
          "duration": 0.25581395348832103
        },
        {
          "name": "G#3",
          "midi": 56,
          "time": 46.69767441860262,
          "velocity": 0.36220472440944884,
          "duration": 0.18604651162786467
        },
        {
          "name": "D#4",
          "midi": 63,
          "time": 46.69767441860262,
          "velocity": 0.3937007874015748,
          "duration": 0.06976744186044925
        },
        {
          "name": "A#4",
          "midi": 70,
          "time": 46.69767441860262,
          "velocity": 0.11023622047244094,
          "duration": 0.034883720930224626
        },
        {
          "name": "D#5",
          "midi": 75,
          "time": 46.69767441860262,
          "velocity": 0.5039370078740157,
          "duration": 0.31395348837202874
        },
        {
          "name": "G#5",
          "midi": 80,
          "time": 46.69767441860262,
          "velocity": 0.4015748031496063,
          "duration": 0.29069767441854566
        },
        {
          "name": "A6",
          "midi": 93,
          "time": 46.70930232557936,
          "velocity": 0.08661417322834646,
          "duration": 0.034883720930224626
        },
        {
          "name": "A#6",
          "midi": 94,
          "time": 46.70930232557936,
          "velocity": 0.28346456692913385,
          "duration": 0.10465116279067388
        },
        {
          "name": "B5",
          "midi": 83,
          "time": 46.7209302325561,
          "velocity": 0.2283464566929134,
          "duration": 0.023255813953483084
        },
        {
          "name": "C6",
          "midi": 84,
          "time": 46.73255813953284,
          "velocity": 0.1968503937007874,
          "duration": 0.37209302325573645
        },
        {
          "name": "A#5",
          "midi": 82,
          "time": 46.74418604650958,
          "velocity": 0.3228346456692913,
          "duration": 0.3604651162789949
        },
        {
          "name": "C4",
          "midi": 60,
          "time": 46.755813953486324,
          "velocity": 0.1968503937007874,
          "duration": 0.034883720930224626
        },
        {
          "name": "F5",
          "midi": 77,
          "time": 46.77906976743981,
          "velocity": 0.09448818897637795,
          "duration": 0.034883720930224626
        },
        {
          "name": "F7",
          "midi": 101,
          "time": 46.79069767441655,
          "velocity": 0.2047244094488189,
          "duration": 0.05813953488370771
        },
        {
          "name": "A#4",
          "midi": 70,
          "time": 46.80232558139329,
          "velocity": 0.13385826771653545,
          "duration": 0.034883720930224626
        },
        {
          "name": "D4",
          "midi": 62,
          "time": 46.84883720930026,
          "velocity": 0.3779527559055118,
          "duration": 0.034883720930224626
        },
        {
          "name": "E7",
          "midi": 100,
          "time": 46.84883720930026,
          "velocity": 0.2755905511811024,
          "duration": 0.12790697674416407
        },
        {
          "name": "A#4",
          "midi": 70,
          "time": 46.860465116277,
          "velocity": 0.3228346456692913,
          "duration": 0.11627906976742253
        },
        {
          "name": "F5",
          "midi": 77,
          "time": 46.87209302325374,
          "velocity": 0.1968503937007874,
          "duration": 0.09302325581393944
        },
        {
          "name": "F#6",
          "midi": 90,
          "time": 46.87209302325374,
          "velocity": 0.3464566929133858,
          "duration": 0.11627906976742253
        },
        {
          "name": "G3",
          "midi": 55,
          "time": 46.88372093023048,
          "velocity": 0.2992125984251969,
          "duration": 0.023255813953483084
        },
        {
          "name": "D#4",
          "midi": 63,
          "time": 46.88372093023048,
          "velocity": 0.33070866141732286,
          "duration": 0.046511627906973274
        },
        {
          "name": "D#3",
          "midi": 51,
          "time": 46.89534883720722,
          "velocity": 0.29133858267716534,
          "duration": 0.12790697674416407
        },
        {
          "name": "G#4",
          "midi": 68,
          "time": 46.95348837209094,
          "velocity": 0.3779527559055118,
          "duration": 0.04651162790696617
        },
        {
          "name": "G#3",
          "midi": 56,
          "time": 46.96511627906768,
          "velocity": 0.25984251968503935,
          "duration": 0.023255813953483084
        },
        {
          "name": "C4",
          "midi": 60,
          "time": 46.98837209302116,
          "velocity": 0.2204724409448819,
          "duration": 0.06976744186044925
        },
        {
          "name": "A#4",
          "midi": 70,
          "time": 46.999999999997904,
          "velocity": 0.2204724409448819,
          "duration": 0.05813953488370771
        },
        {
          "name": "F5",
          "midi": 77,
          "time": 46.999999999997904,
          "velocity": 0.11811023622047244,
          "duration": 0.04651162790696617
        },
        {
          "name": "D6",
          "midi": 86,
          "time": 46.999999999997904,
          "velocity": 0.10236220472440945,
          "duration": 0.034883720930224626
        },
        {
          "name": "G3",
          "midi": 55,
          "time": 47.011627906974645,
          "velocity": 0.3700787401574803,
          "duration": 0.04651162790696617
        },
        {
          "name": "D5",
          "midi": 74,
          "time": 47.011627906974645,
          "velocity": 0.4251968503937008,
          "duration": 0.19767441860462043
        },
        {
          "name": "A5",
          "midi": 81,
          "time": 47.02325581395139,
          "velocity": 0.07086614173228346,
          "duration": 0.034883720930224626
        },
        {
          "name": "D#3",
          "midi": 51,
          "time": 47.03488372092813,
          "velocity": 0.33070866141732286,
          "duration": 0.04651162790696617
        },
        {
          "name": "G5",
          "midi": 79,
          "time": 47.04651162790487,
          "velocity": 0.36220472440944884,
          "duration": 0.17441860465113734
        },
        {
          "name": "D6",
          "midi": 86,
          "time": 47.05813953488161,
          "velocity": 0.5039370078740157,
          "duration": 0.17441860465113734
        },
        {
          "name": "G4",
          "midi": 67,
          "time": 47.06976744185835,
          "velocity": 0.4409448818897638,
          "duration": 0.12790697674417117
        },
        {
          "name": "F6",
          "midi": 89,
          "time": 47.06976744185835,
          "velocity": 0.41732283464566927,
          "duration": 0.1627906976743958
        },
        {
          "name": "A#4",
          "midi": 70,
          "time": 47.081395348835095,
          "velocity": 0.1889763779527559,
          "duration": 0.09302325581393944
        },
        {
          "name": "G3",
          "midi": 55,
          "time": 47.093023255811836,
          "velocity": 0.3700787401574803,
          "duration": 0.023255813953483084
        },
        {
          "name": "E5",
          "midi": 76,
          "time": 47.093023255811836,
          "velocity": 0.23622047244094488,
          "duration": 0.034883720930224626
        },
        {
          "name": "B5",
          "midi": 83,
          "time": 47.10465116278858,
          "velocity": 0.3700787401574803,
          "duration": 0.10465116279068809
        },
        {
          "name": "G#3",
          "midi": 56,
          "time": 47.11627906976532,
          "velocity": 0.3700787401574803,
          "duration": 0.09302325581394655
        },
        {
          "name": "A6",
          "midi": 93,
          "time": 47.12790697674206,
          "velocity": 0.2204724409448819,
          "duration": 0.12790697674417117
        },
        {
          "name": "D#3",
          "midi": 51,
          "time": 47.1395348837188,
          "velocity": 0.25196850393700787,
          "duration": 0.06976744186046346
        },
        {
          "name": "A5",
          "midi": 81,
          "time": 47.151162790695544,
          "velocity": 0.11811023622047244,
          "duration": 0.04651162790698038
        },
        {
          "name": "F#7",
          "midi": 102,
          "time": 47.174418604649034,
          "velocity": 0.25984251968503935,
          "duration": 0.06976744186045636
        },
        {
          "name": "C6",
          "midi": 84,
          "time": 47.197674418602524,
          "velocity": 0.2204724409448819,
          "duration": 0.20930232558135486
        },
        {
          "name": "A#6",
          "midi": 94,
          "time": 47.197674418602524,
          "velocity": 0.14173228346456693,
          "duration": 0.034883720930224626
        },
        {
          "name": "D#5",
          "midi": 75,
          "time": 47.209302325579266,
          "velocity": 0.44881889763779526,
          "duration": 0.11627906976741542
        },
        {
          "name": "F5",
          "midi": 77,
          "time": 47.209302325579266,
          "velocity": 0.30708661417322836,
          "duration": 0.0813953488371908
        },
        {
          "name": "A#5",
          "midi": 82,
          "time": 47.209302325579266,
          "velocity": 0.25984251968503935,
          "duration": 0.0813953488371908
        },
        {
          "name": "E7",
          "midi": 100,
          "time": 47.209302325579266,
          "velocity": 0.23622047244094488,
          "duration": 0.05813953488370771
        },
        {
          "name": "C5",
          "midi": 72,
          "time": 47.22093023255601,
          "velocity": 0.4881889763779528,
          "duration": 0.0813953488371908
        },
        {
          "name": "F3",
          "midi": 53,
          "time": 47.23255813953275,
          "velocity": 0.3779527559055118,
          "duration": 0.023255813953483084
        },
        {
          "name": "F7",
          "midi": 101,
          "time": 47.23255813953275,
          "velocity": 0.2283464566929134,
          "duration": 0.12790697674415696
        },
        {
          "name": "D#4",
          "midi": 63,
          "time": 47.25581395348623,
          "velocity": 0.25196850393700787,
          "duration": 0.023255813953483084
        },
        {
          "name": "F#3",
          "midi": 54,
          "time": 47.267441860462974,
          "velocity": 0.33070866141732286,
          "duration": 0.023255813953483084
        },
        {
          "name": "F#7",
          "midi": 102,
          "time": 47.267441860462974,
          "velocity": 0.2204724409448819,
          "duration": 0.034883720930224626
        },
        {
          "name": "G1",
          "midi": 31,
          "time": 47.279069767439715,
          "velocity": 0.6929133858267716,
          "duration": 0.011627906976741542
        },
        {
          "name": "A4",
          "midi": 69,
          "time": 47.279069767439715,
          "velocity": 0.31496062992125984,
          "duration": 0.04651162790696617
        },
        {
          "name": "C#7",
          "midi": 97,
          "time": 47.279069767439715,
          "velocity": 0.07086614173228346,
          "duration": 0.034883720930224626
        },
        {
          "name": "G7",
          "midi": 103,
          "time": 47.279069767439715,
          "velocity": 0.10236220472440945,
          "duration": 0.04651162790696617
        },
        {
          "name": "F1",
          "midi": 29,
          "time": 47.29069767441646,
          "velocity": 0.5433070866141733,
          "duration": 0.011627906976741542
        },
        {
          "name": "B6",
          "midi": 95,
          "time": 47.29069767441646,
          "velocity": 0.2440944881889764,
          "duration": 0.04651162790696617
        },
        {
          "name": "D#7",
          "midi": 99,
          "time": 47.29069767441646,
          "velocity": 0.2283464566929134,
          "duration": 0.04651162790696617
        },
        {
          "name": "E7",
          "midi": 100,
          "time": 47.29069767441646,
          "velocity": 0.2047244094488189,
          "duration": 0.04651162790696617
        },
        {
          "name": "E5",
          "midi": 76,
          "time": 47.3023255813932,
          "velocity": 0.25196850393700787,
          "duration": 0.034883720930224626
        },
        {
          "name": "G0",
          "midi": 19,
          "time": 47.31395348836994,
          "velocity": 0.5669291338582677,
          "duration": 0.011627906976741542
        },
        {
          "name": "D3",
          "midi": 50,
          "time": 47.31395348836994,
          "velocity": 0.30708661417322836,
          "duration": 0.023255813953483084
        },
        {
          "name": "G#3",
          "midi": 56,
          "time": 47.31395348836994,
          "velocity": 0.41732283464566927,
          "duration": 0.3488372093022747
        },
        {
          "name": "E4",
          "midi": 64,
          "time": 47.31395348836994,
          "velocity": 0.25196850393700787,
          "duration": 0.034883720930224626
        },
        {
          "name": "D5",
          "midi": 74,
          "time": 47.31395348836994,
          "velocity": 0.36220472440944884,
          "duration": 0.05813953488370771
        },
        {
          "name": "G1",
          "midi": 31,
          "time": 47.32558139534668,
          "velocity": 0.7637795275590551,
          "duration": 0.023255813953483084
        },
        {
          "name": "F5",
          "midi": 77,
          "time": 47.32558139534668,
          "velocity": 0.2992125984251969,
          "duration": 0.20930232558136197
        },
        {
          "name": "D4",
          "midi": 62,
          "time": 47.33720930232342,
          "velocity": 0.2440944881889764,
          "duration": 0.034883720930224626
        },
        {
          "name": "A5",
          "midi": 81,
          "time": 47.33720930232342,
          "velocity": 0.23622047244094488,
          "duration": 0.04651162790696617
        },
        {
          "name": "F#1",
          "midi": 30,
          "time": 47.348837209300164,
          "velocity": 0.7716535433070866,
          "duration": 0.011627906976741542
        },
        {
          "name": "D7",
          "midi": 98,
          "time": 47.348837209300164,
          "velocity": 0.07086614173228346,
          "duration": 0.06976744186045636
        },
        {
          "name": "G1",
          "midi": 31,
          "time": 47.360465116276906,
          "velocity": 0.7716535433070866,
          "duration": 0.5930232558138684
        },
        {
          "name": "D#5",
          "midi": 75,
          "time": 47.360465116276906,
          "velocity": 0.33070866141732286,
          "duration": 0.09302325581393944
        },
        {
          "name": "D#7",
          "midi": 99,
          "time": 47.360465116276906,
          "velocity": 0.11023622047244094,
          "duration": 0.058139534883714816
        },
        {
          "name": "C4",
          "midi": 60,
          "time": 47.38372093023039,
          "velocity": 0.31496062992125984,
          "duration": 0.03488372093023173
        },
        {
          "name": "D#4",
          "midi": 63,
          "time": 47.38372093023039,
          "velocity": 0.2440944881889764,
          "duration": 0.02325581395349019
        },
        {
          "name": "A#5",
          "midi": 82,
          "time": 47.38372093023039,
          "velocity": 0.1732283464566929,
          "duration": 0.046511627906973274
        },
        {
          "name": "F4",
          "midi": 65,
          "time": 47.43023255813736,
          "velocity": 0.16535433070866143,
          "duration": 0.06976744186045636
        },
        {
          "name": "A4",
          "midi": 69,
          "time": 47.441860465114104,
          "velocity": 0.25196850393700787,
          "duration": 0.058139534883714816
        },
        {
          "name": "G#5",
          "midi": 80,
          "time": 47.441860465114104,
          "velocity": 0.09448818897637795,
          "duration": 0.03488372093023173
        },
        {
          "name": "A#5",
          "midi": 82,
          "time": 47.441860465114104,
          "velocity": 0.25196850393700787,
          "duration": 0.1395348837209056
        },
        {
          "name": "C#3",
          "midi": 49,
          "time": 47.453488372090845,
          "velocity": 0.4015748031496063,
          "duration": 0.03488372093023173
        },
        {
          "name": "D#5",
          "midi": 75,
          "time": 47.476744186044336,
          "velocity": 0.4409448818897638,
          "duration": 0.4883720930231803
        },
        {
          "name": "D3",
          "midi": 50,
          "time": 47.51162790697456,
          "velocity": 0.4094488188976378,
          "duration": 0.034883720930224626
        },
        {
          "name": "G#6",
          "midi": 92,
          "time": 47.51162790697456,
          "velocity": 0.10236220472440945,
          "duration": 0.10465116279067388
        },
        {
          "name": "A#6",
          "midi": 94,
          "time": 47.51162790697456,
          "velocity": 0.25196850393700787,
          "duration": 0.10465116279067388
        },
        {
          "name": "F7",
          "midi": 101,
          "time": 47.51162790697456,
          "velocity": 0.09448818897637795,
          "duration": 0.05813953488370771
        },
        {
          "name": "A#4",
          "midi": 70,
          "time": 47.5232558139513,
          "velocity": 0.2992125984251969,
          "duration": 0.023255813953483084
        },
        {
          "name": "G5",
          "midi": 79,
          "time": 47.5232558139513,
          "velocity": 0.13385826771653545,
          "duration": 0.034883720930224626
        },
        {
          "name": "A5",
          "midi": 81,
          "time": 47.5232558139513,
          "velocity": 0.1732283464566929,
          "duration": 0.034883720930224626
        },
        {
          "name": "C6",
          "midi": 84,
          "time": 47.5232558139513,
          "velocity": 0.10236220472440945,
          "duration": 0.034883720930224626
        },
        {
          "name": "B6",
          "midi": 95,
          "time": 47.5232558139513,
          "velocity": 0.1732283464566929,
          "duration": 0.0813953488371908
        },
        {
          "name": "E7",
          "midi": 100,
          "time": 47.5232558139513,
          "velocity": 0.14960629921259844,
          "duration": 0.09302325581393234
        },
        {
          "name": "E4",
          "midi": 64,
          "time": 47.53488372092804,
          "velocity": 0.29133858267716534,
          "duration": 0.023255813953483084
        },
        {
          "name": "D6",
          "midi": 86,
          "time": 47.53488372092804,
          "velocity": 0.2047244094488189,
          "duration": 0.06976744186044925
        },
        {
          "name": "A6",
          "midi": 93,
          "time": 47.53488372092804,
          "velocity": 0.25984251968503935,
          "duration": 0.06976744186044925
        },
        {
          "name": "C#7",
          "midi": 97,
          "time": 47.53488372092804,
          "velocity": 0.11023622047244094,
          "duration": 0.034883720930224626
        },
        {
          "name": "B4",
          "midi": 71,
          "time": 47.546511627904785,
          "velocity": 0.2283464566929134,
          "duration": 0.023255813953483084
        },
        {
          "name": "G#5",
          "midi": 80,
          "time": 47.546511627904785,
          "velocity": 0.3543307086614173,
          "duration": 0.36046511627902333
        },
        {
          "name": "F#6",
          "midi": 90,
          "time": 47.546511627904785,
          "velocity": 0.14173228346456693,
          "duration": 0.04651162790696617
        },
        {
          "name": "D#7",
          "midi": 99,
          "time": 47.546511627904785,
          "velocity": 0.2992125984251969,
          "duration": 0.19767441860462753
        },
        {
          "name": "D#4",
          "midi": 63,
          "time": 47.558139534881526,
          "velocity": 0.18110236220472442,
          "duration": 0.034883720930224626
        },
        {
          "name": "F4",
          "midi": 65,
          "time": 47.558139534881526,
          "velocity": 0.2677165354330709,
          "duration": 0.034883720930224626
        },
        {
          "name": "C#5",
          "midi": 73,
          "time": 47.558139534881526,
          "velocity": 0.30708661417322836,
          "duration": 0.023255813953483084
        },
        {
          "name": "G4",
          "midi": 67,
          "time": 47.56976744185827,
          "velocity": 0.23622047244094488,
          "duration": 0.023255813953483084
        },
        {
          "name": "C6",
          "midi": 84,
          "time": 47.56976744185827,
          "velocity": 0.15748031496062992,
          "duration": 0.034883720930224626
        },
        {
          "name": "D3",
          "midi": 50,
          "time": 47.58139534883501,
          "velocity": 0.2992125984251969,
          "duration": 0.15116279069766136
        },
        {
          "name": "A4",
          "midi": 69,
          "time": 47.59302325581175,
          "velocity": 0.28346456692913385,
          "duration": 0.023255813953483084
        },
        {
          "name": "C7",
          "midi": 96,
          "time": 47.59302325581175,
          "velocity": 0.1732283464566929,
          "duration": 0.081395348837205
        },
        {
          "name": "G#4",
          "midi": 68,
          "time": 47.616279069765234,
          "velocity": 0.4330708661417323,
          "duration": 0.3023255813953156
        },
        {
          "name": "F5",
          "midi": 77,
          "time": 47.616279069765234,
          "velocity": 0.2440944881889764,
          "duration": 0.3837209302325064
        },
        {
          "name": "A#5",
          "midi": 82,
          "time": 47.616279069765234,
          "velocity": 0.11023622047244094,
          "duration": 0.04651162790698038
        },
        {
          "name": "A#6",
          "midi": 94,
          "time": 47.639534883718724,
          "velocity": 0.13385826771653545,
          "duration": 0.081395348837205
        },
        {
          "name": "C5",
          "midi": 72,
          "time": 47.662790697672214,
          "velocity": 0.25984251968503935,
          "duration": 0.10465116279068809
        },
        {
          "name": "C6",
          "midi": 84,
          "time": 47.662790697672214,
          "velocity": 0.28346456692913385,
          "duration": 0.17441860465114445
        },
        {
          "name": "G#3",
          "midi": 56,
          "time": 47.674418604648956,
          "velocity": 0.2677165354330709,
          "duration": 0.06976744186045636
        },
        {
          "name": "C#7",
          "midi": 97,
          "time": 47.674418604648956,
          "velocity": 0.12598425196850394,
          "duration": 0.03488372093023173
        },
        {
          "name": "F4",
          "midi": 65,
          "time": 47.6860465116257,
          "velocity": 0.1889763779527559,
          "duration": 0.081395348837205
        },
        {
          "name": "F#6",
          "midi": 90,
          "time": 47.6860465116257,
          "velocity": 0.25984251968503935,
          "duration": 0.186046511627886
        },
        {
          "name": "D3",
          "midi": 50,
          "time": 47.74418604650941,
          "velocity": 0.29133858267716534,
          "duration": 0.20930232558136197
        },
        {
          "name": "G#3",
          "midi": 56,
          "time": 47.779069767439644,
          "velocity": 0.23622047244094488,
          "duration": 0.03488372093023173
        },
        {
          "name": "A#6",
          "midi": 94,
          "time": 47.790697674416386,
          "velocity": 0.2047244094488189,
          "duration": 0.058139534883714816
        },
        {
          "name": "E7",
          "midi": 100,
          "time": 47.790697674416386,
          "velocity": 0.15748031496062992,
          "duration": 0.058139534883714816
        },
        {
          "name": "A#5",
          "midi": 82,
          "time": 47.813953488369876,
          "velocity": 0.08661417322834646,
          "duration": 0.034883720930224626
        },
        {
          "name": "G#3",
          "midi": 56,
          "time": 47.82558139534662,
          "velocity": 0.2047244094488189,
          "duration": 0.034883720930224626
        },
        {
          "name": "F4",
          "midi": 65,
          "time": 47.83720930232336,
          "velocity": 0.15748031496062992,
          "duration": 0.05813953488370771
        },
        {
          "name": "D#7",
          "midi": 99,
          "time": 47.83720930232336,
          "velocity": 0.2204724409448819,
          "duration": 0.06976744186044925
        },
        {
          "name": "B3",
          "midi": 59,
          "time": 47.86046511627684,
          "velocity": 0.2755905511811024,
          "duration": 0.023255813953483084
        },
        {
          "name": "C5",
          "midi": 72,
          "time": 47.86046511627684,
          "velocity": 0.11811023622047244,
          "duration": 0.034883720930224626
        },
        {
          "name": "C6",
          "midi": 84,
          "time": 47.87209302325358,
          "velocity": 0.15748031496062992,
          "duration": 0.05813953488370771
        },
        {
          "name": "G#3",
          "midi": 56,
          "time": 47.89534883720707,
          "velocity": 0.2755905511811024,
          "duration": 0.04651162790696617
        },
        {
          "name": "A#5",
          "midi": 82,
          "time": 47.90697674418381,
          "velocity": 0.07874015748031496,
          "duration": 0.034883720930224626
        },
        {
          "name": "C5",
          "midi": 72,
          "time": 47.91860465116055,
          "velocity": 0.07086614173228346,
          "duration": 0.034883720930224626
        },
        {
          "name": "F#1",
          "midi": 30,
          "time": 47.953488372090774,
          "velocity": 0.6850393700787402,
          "duration": 0.011627906976741542
        },
        {
          "name": "D#4",
          "midi": 63,
          "time": 47.953488372090774,
          "velocity": 0.2125984251968504,
          "duration": 0.04651162790696617
        },
        {
          "name": "G#4",
          "midi": 68,
          "time": 47.953488372090774,
          "velocity": 0.44881889763779526,
          "duration": 0.034883720930224626
        },
        {
          "name": "E1",
          "midi": 28,
          "time": 47.965116279067516,
          "velocity": 0.5118110236220472,
          "duration": 0.011627906976741542
        },
        {
          "name": "G3",
          "midi": 55,
          "time": 47.965116279067516,
          "velocity": 0.4881889763779528,
          "duration": 0.04651162790696617
        },
        {
          "name": "D5",
          "midi": 74,
          "time": 47.965116279067516,
          "velocity": 0.4645669291338583,
          "duration": 0.1627906976743816
        },
        {
          "name": "G5",
          "midi": 79,
          "time": 47.965116279067516,
          "velocity": 0.4881889763779528,
          "duration": 0.4883720930231732
        },
        {
          "name": "B4",
          "midi": 71,
          "time": 47.988372093021,
          "velocity": 0.2440944881889764,
          "duration": 0.023255813953483084
        },
        {
          "name": "A#5",
          "midi": 82,
          "time": 47.988372093021,
          "velocity": 0.2440944881889764,
          "duration": 0.023255813953483084
        },
        {
          "name": "D#1",
          "midi": 27,
          "time": 47.99999999999774,
          "velocity": 0.6614173228346457,
          "duration": 0.011627906976741542
        },
        {
          "name": "C#4",
          "midi": 61,
          "time": 47.99999999999774,
          "velocity": 0.1889763779527559,
          "duration": 0.034883720930224626
        },
        {
          "name": "D#5",
          "midi": 75,
          "time": 47.99999999999774,
          "velocity": 0.41732283464566927,
          "duration": 0.034883720930224626
        },
        {
          "name": "D1",
          "midi": 26,
          "time": 48.01162790697448,
          "velocity": 0.7086614173228346,
          "duration": 0.011627906976741542
        },
        {
          "name": "G#3",
          "midi": 56,
          "time": 48.01162790697448,
          "velocity": 0.33858267716535434,
          "duration": 0.023255813953483084
        },
        {
          "name": "B5",
          "midi": 83,
          "time": 48.01162790697448,
          "velocity": 0.2283464566929134,
          "duration": 0.12790697674415696
        },
        {
          "name": "F6",
          "midi": 89,
          "time": 48.01162790697448,
          "velocity": 0.2677165354330709,
          "duration": 0.09302325581393234
        },
        {
          "name": "A6",
          "midi": 93,
          "time": 48.01162790697448,
          "velocity": 0.31496062992125984,
          "duration": 0.10465116279067388
        },
        {
          "name": "F7",
          "midi": 101,
          "time": 48.01162790697448,
          "velocity": 0.2677165354330709,
          "duration": 0.12790697674415696
        },
        {
          "name": "C#1",
          "midi": 25,
          "time": 48.023255813951224,
          "velocity": 0.7322834645669292,
          "duration": 0.011627906976741542
        },
        {
          "name": "G2",
          "midi": 43,
          "time": 48.023255813951224,
          "velocity": 0.2677165354330709,
          "duration": 0.023255813953483084
        },
        {
          "name": "B0",
          "midi": 23,
          "time": 48.034883720927965,
          "velocity": 0.7322834645669292,
          "duration": 0.023255813953483084
        },
        {
          "name": "G#3",
          "midi": 56,
          "time": 48.04651162790471,
          "velocity": 0.4251968503937008,
          "duration": 0.023255813953483084
        },
        {
          "name": "C1",
          "midi": 24,
          "time": 48.05813953488145,
          "velocity": 0.7480314960629921,
          "duration": 0.8255813953487205
        },
        {
          "name": "D4",
          "midi": 62,
          "time": 48.06976744185819,
          "velocity": 0.12598425196850394,
          "duration": 0.034883720930224626
        },
        {
          "name": "C7",
          "midi": 96,
          "time": 48.06976744185819,
          "velocity": 0.09448818897637795,
          "duration": 0.04651162790696617
        },
        {
          "name": "B4",
          "midi": 71,
          "time": 48.08139534883493,
          "velocity": 0.14960629921259844,
          "duration": 0.034883720930224626
        },
        {
          "name": "G3",
          "midi": 55,
          "time": 48.09302325581167,
          "velocity": 0.3700787401574803,
          "duration": 0.023255813953483084
        },
        {
          "name": "G#4",
          "midi": 68,
          "time": 48.104651162788414,
          "velocity": 0.3543307086614173,
          "duration": 0.09302325581393234
        },
        {
          "name": "F#7",
          "midi": 102,
          "time": 48.104651162788414,
          "velocity": 0.11023622047244094,
          "duration": 0.034883720930224626
        },
        {
          "name": "D#7",
          "midi": 99,
          "time": 48.116279069765156,
          "velocity": 0.2047244094488189,
          "duration": 0.04651162790696617
        },
        {
          "name": "G2",
          "midi": 43,
          "time": 48.1279069767419,
          "velocity": 0.2992125984251969,
          "duration": 0.023255813953483084
        },
        {
          "name": "C5",
          "midi": 72,
          "time": 48.1279069767419,
          "velocity": 0.33070866141732286,
          "duration": 0.0813953488371908
        },
        {
          "name": "F4",
          "midi": 65,
          "time": 48.13953488371864,
          "velocity": 0.30708661417322836,
          "duration": 0.05813953488370771
        },
        {
          "name": "D#5",
          "midi": 75,
          "time": 48.16279069767212,
          "velocity": 0.2204724409448819,
          "duration": 0.18604651162787889
        },
        {
          "name": "G2",
          "midi": 43,
          "time": 48.174418604648864,
          "velocity": 0.28346456692913385,
          "duration": 0.023255813953483084
        },
        {
          "name": "B4",
          "midi": 71,
          "time": 48.186046511625605,
          "velocity": 0.2283464566929134,
          "duration": 0.023255813953483084
        },
        {
          "name": "F4",
          "midi": 65,
          "time": 48.20930232557909,
          "velocity": 0.1968503937007874,
          "duration": 0.03488372093023173
        },
        {
          "name": "G#4",
          "midi": 68,
          "time": 48.20930232557909,
          "velocity": 0.2440944881889764,
          "duration": 0.046511627906973274
        },
        {
          "name": "C#5",
          "midi": 73,
          "time": 48.20930232557909,
          "velocity": 0.23622047244094488,
          "duration": 0.03488372093023173
        },
        {
          "name": "F5",
          "midi": 77,
          "time": 48.20930232557909,
          "velocity": 0.2047244094488189,
          "duration": 0.1627906976744029
        },
        {
          "name": "G#3",
          "midi": 56,
          "time": 48.22093023255583,
          "velocity": 0.4094488188976378,
          "duration": 0.046511627906973274
        },
        {
          "name": "F#4",
          "midi": 66,
          "time": 48.25581395348606,
          "velocity": 0.13385826771653545,
          "duration": 0.06976744186044925
        },
        {
          "name": "G2",
          "midi": 43,
          "time": 48.2674418604628,
          "velocity": 0.29133858267716534,
          "duration": 0.023255813953483084
        },
        {
          "name": "D#3",
          "midi": 51,
          "time": 48.2674418604628,
          "velocity": 0.23622047244094488,
          "duration": 0.023255813953483084
        },
        {
          "name": "G#3",
          "midi": 56,
          "time": 48.279069767439545,
          "velocity": 0.41732283464566927,
          "duration": 0.023255813953483084
        },
        {
          "name": "G#3",
          "midi": 56,
          "time": 48.31395348836977,
          "velocity": 0.3700787401574803,
          "duration": 0.13953488372091982
        },
        {
          "name": "D4",
          "midi": 62,
          "time": 48.31395348836977,
          "velocity": 0.12598425196850394,
          "duration": 0.25581395348834235
        },
        {
          "name": "G4",
          "midi": 67,
          "time": 48.3488372093,
          "velocity": 0.36220472440944884,
          "duration": 0.05813953488372192
        },
        {
          "name": "A#5",
          "midi": 82,
          "time": 48.39534883720698,
          "velocity": 0.49606299212598426,
          "duration": 0.06976744186044925
        },
        {
          "name": "D6",
          "midi": 86,
          "time": 48.39534883720698,
          "velocity": 0.28346456692913385,
          "duration": 0.0813953488371908
        },
        {
          "name": "D#6",
          "midi": 87,
          "time": 48.39534883720698,
          "velocity": 0.2204724409448819,
          "duration": 0.15116279069764715
        },
        {
          "name": "F6",
          "midi": 89,
          "time": 48.39534883720698,
          "velocity": 0.4094488188976378,
          "duration": 0.09302325581393234
        },
        {
          "name": "G2",
          "midi": 43,
          "time": 48.40697674418372,
          "velocity": 0.2677165354330709,
          "duration": 0.023255813953483084
        },
        {
          "name": "F5",
          "midi": 77,
          "time": 48.40697674418372,
          "velocity": 0.31496062992125984,
          "duration": 0.04651162790696617
        },
        {
          "name": "B4",
          "midi": 71,
          "time": 48.418604651160464,
          "velocity": 0.16535433070866143,
          "duration": 0.034883720930224626
        },
        {
          "name": "C#6",
          "midi": 85,
          "time": 48.418604651160464,
          "velocity": 0.2755905511811024,
          "duration": 0.023255813953483084
        },
        {
          "name": "E6",
          "midi": 88,
          "time": 48.418604651160464,
          "velocity": 0.29133858267716534,
          "duration": 0.023255813953483084
        },
        {
          "name": "A5",
          "midi": 81,
          "time": 48.430232558137206,
          "velocity": 0.4409448818897638,
          "duration": 0.023255813953483084
        },
        {
          "name": "F#6",
          "midi": 90,
          "time": 48.44186046511395,
          "velocity": 0.18110236220472442,
          "duration": 0.06976744186044925
        },
        {
          "name": "G#3",
          "midi": 56,
          "time": 48.46511627906743,
          "velocity": 0.4330708661417323,
          "duration": 0.20930232558136197
        },
        {
          "name": "G4",
          "midi": 67,
          "time": 48.46511627906743,
          "velocity": 0.1732283464566929,
          "duration": 0.04651162790696617
        },
        {
          "name": "G5",
          "midi": 79,
          "time": 48.46511627906743,
          "velocity": 0.5039370078740157,
          "duration": 0.04651162790696617
        },
        {
          "name": "B5",
          "midi": 83,
          "time": 48.46511627906743,
          "velocity": 0.2992125984251969,
          "duration": 0.023255813953483084
        },
        {
          "name": "D#5",
          "midi": 75,
          "time": 48.47674418604417,
          "velocity": 0.5669291338582677,
          "duration": 0.39534883720925507
        },
        {
          "name": "G#6",
          "midi": 92,
          "time": 48.47674418604417,
          "velocity": 0.31496062992125984,
          "duration": 0.25581395348833524
        },
        {
          "name": "E7",
          "midi": 100,
          "time": 48.47674418604417,
          "velocity": 0.1889763779527559,
          "duration": 0.11627906976742253
        },
        {
          "name": "F5",
          "midi": 77,
          "time": 48.488372093020914,
          "velocity": 0.11811023622047244,
          "duration": 0.06976744186045636
        },
        {
          "name": "G#5",
          "midi": 80,
          "time": 48.488372093020914,
          "velocity": 0.4015748031496063,
          "duration": 0.19767441860462043
        },
        {
          "name": "C6",
          "midi": 84,
          "time": 48.488372093020914,
          "velocity": 0.28346456692913385,
          "duration": 0.10465116279068098
        },
        {
          "name": "A#6",
          "midi": 94,
          "time": 48.488372093020914,
          "velocity": 0.29133858267716534,
          "duration": 0.09302325581393944
        },
        {
          "name": "G7",
          "midi": 103,
          "time": 48.499999999997655,
          "velocity": 0.11811023622047244,
          "duration": 0.03488372093023173
        },
        {
          "name": "D6",
          "midi": 86,
          "time": 48.55813953488137,
          "velocity": 0.14173228346456693,
          "duration": 0.0813953488371908
        },
        {
          "name": "G5",
          "midi": 79,
          "time": 48.58139534883485,
          "velocity": 0.1889763779527559,
          "duration": 0.04651162790696617
        },
        {
          "name": "D4",
          "midi": 62,
          "time": 48.604651162788336,
          "velocity": 0.08661417322834646,
          "duration": 0.04651162790696617
        },
        {
          "name": "E7",
          "midi": 100,
          "time": 48.61627906976508,
          "velocity": 0.2047244094488189,
          "duration": 0.15116279069765426
        },
        {
          "name": "G#4",
          "midi": 68,
          "time": 48.63953488371856,
          "velocity": 0.4409448818897638,
          "duration": 0.15116279069765426
        },
        {
          "name": "A#6",
          "midi": 94,
          "time": 48.63953488371856,
          "velocity": 0.09448818897637795,
          "duration": 0.03488372093023173
        },
        {
          "name": "C6",
          "midi": 84,
          "time": 48.6511627906953,
          "velocity": 0.2047244094488189,
          "duration": 0.13953488372091272
        },
        {
          "name": "D6",
          "midi": 86,
          "time": 48.6511627906953,
          "velocity": 0.11023622047244094,
          "duration": 0.09302325581394655
        },
        {
          "name": "G5",
          "midi": 79,
          "time": 48.67441860464879,
          "velocity": 0.2440944881889764,
          "duration": 0.03488372093023173
        },
        {
          "name": "G#3",
          "midi": 56,
          "time": 48.686046511625534,
          "velocity": 0.30708661417322836,
          "duration": 0.02325581395349019
        },
        {
          "name": "F#6",
          "midi": 90,
          "time": 48.686046511625534,
          "velocity": 0.3700787401574803,
          "duration": 0.09302325581393944
        },
        {
          "name": "G#3",
          "midi": 56,
          "time": 48.720930232555766,
          "velocity": 0.36220472440944884,
          "duration": 0.034883720930224626
        },
        {
          "name": "D4",
          "midi": 62,
          "time": 48.76744186046273,
          "velocity": 0.14960629921259844,
          "duration": 0.11627906976743674
        },
        {
          "name": "E3",
          "midi": 52,
          "time": 48.77906976743947,
          "velocity": 0.2440944881889764,
          "duration": 0.023255813953483084
        },
        {
          "name": "G5",
          "midi": 79,
          "time": 48.77906976743947,
          "velocity": 0.14173228346456693,
          "duration": 0.09302325581395365
        },
        {
          "name": "G3",
          "midi": 55,
          "time": 48.790697674416215,
          "velocity": 0.4251968503937008,
          "duration": 0.05813953488372192
        },
        {
          "name": "B5",
          "midi": 83,
          "time": 48.82558139534645,
          "velocity": 0.3937007874015748,
          "duration": 0.18604651162787889
        },
        {
          "name": "D5",
          "midi": 74,
          "time": 48.84883720929994,
          "velocity": 0.4645669291338583,
          "duration": 0.1627906976743887
        },
        {
          "name": "G3",
          "midi": 55,
          "time": 48.87209302325343,
          "velocity": 0.3858267716535433,
          "duration": 0.05813953488370771
        },
        {
          "name": "G4",
          "midi": 67,
          "time": 48.87209302325343,
          "velocity": 0.3858267716535433,
          "duration": 0.05813953488370771
        },
        {
          "name": "C#1",
          "midi": 25,
          "time": 48.88372093023017,
          "velocity": 0.7165354330708661,
          "duration": 0.011627906976741542
        },
        {
          "name": "C1",
          "midi": 24,
          "time": 48.89534883720691,
          "velocity": 0.7480314960629921,
          "duration": 0.39534883720922664
        },
        {
          "name": "G2",
          "midi": 43,
          "time": 48.89534883720691,
          "velocity": 0.2992125984251969,
          "duration": 0.023255813953483084
        },
        {
          "name": "F6",
          "midi": 89,
          "time": 48.89534883720691,
          "velocity": 0.31496062992125984,
          "duration": 0.11627906976741542
        },
        {
          "name": "E4",
          "midi": 64,
          "time": 48.90697674418365,
          "velocity": 0.12598425196850394,
          "duration": 0.034883720930224626
        },
        {
          "name": "D#6",
          "midi": 87,
          "time": 48.91860465116039,
          "velocity": 0.15748031496062992,
          "duration": 0.04651162790696617
        },
        {
          "name": "G#4",
          "midi": 68,
          "time": 48.930232558137135,
          "velocity": 0.1968503937007874,
          "duration": 0.034883720930224626
        },
        {
          "name": "A3",
          "midi": 57,
          "time": 48.941860465113876,
          "velocity": 0.2755905511811024,
          "duration": 0.023255813953483084
        },
        {
          "name": "D#4",
          "midi": 63,
          "time": 48.941860465113876,
          "velocity": 0.2440944881889764,
          "duration": 0.10465116279068098
        },
        {
          "name": "A6",
          "midi": 93,
          "time": 48.941860465113876,
          "velocity": 0.2047244094488189,
          "duration": 0.10465116279068098
        },
        {
          "name": "F#7",
          "midi": 102,
          "time": 48.941860465113876,
          "velocity": 0.2204724409448819,
          "duration": 0.1627906976743887
        },
        {
          "name": "B4",
          "midi": 71,
          "time": 48.95348837209062,
          "velocity": 0.08661417322834646,
          "duration": 0.04651162790696617
        },
        {
          "name": "G3",
          "midi": 55,
          "time": 48.96511627906736,
          "velocity": 0.3464566929133858,
          "duration": 0.023255813953483084
        },
        {
          "name": "G#5",
          "midi": 80,
          "time": 48.9767441860441,
          "velocity": 0.15748031496062992,
          "duration": 0.04651162790696617
        },
        {
          "name": "G2",
          "midi": 43,
          "time": 48.98837209302084,
          "velocity": 0.2283464566929134,
          "duration": 0.023255813953483084
        },
        {
          "name": "F5",
          "midi": 77,
          "time": 48.999999999997584,
          "velocity": 0.29133858267716534,
          "duration": 0.0813953488371979
        },
        {
          "name": "G#4",
          "midi": 68,
          "time": 49.011627906974326,
          "velocity": 0.14960629921259844,
          "duration": 0.058139534883714816
        },
        {
          "name": "D#5",
          "midi": 75,
          "time": 49.011627906974326,
          "velocity": 0.33858267716535434,
          "duration": 0.11627906976742253
        },
        {
          "name": "A5",
          "midi": 81,
          "time": 49.011627906974326,
          "velocity": 0.1889763779527559,
          "duration": 0.06976744186045636
        },
        {
          "name": "F3",
          "midi": 53,
          "time": 49.02325581395107,
          "velocity": 0.41732283464566927,
          "duration": 0.06976744186045636
        },
        {
          "name": "C5",
          "midi": 72,
          "time": 49.02325581395107,
          "velocity": 0.3937007874015748,
          "duration": 0.06976744186045636
        },
        {
          "name": "E7",
          "midi": 100,
          "time": 49.02325581395107,
          "velocity": 0.14960629921259844,
          "duration": 0.046511627906973274
        },
        {
          "name": "G7",
          "midi": 103,
          "time": 49.04651162790456,
          "velocity": 0.08661417322834646,
          "duration": 0.04651162790696617
        },
        {
          "name": "D#4",
          "midi": 63,
          "time": 49.0581395348813,
          "velocity": 0.2440944881889764,
          "duration": 0.034883720930224626
        },
        {
          "name": "C#7",
          "midi": 97,
          "time": 49.06976744185804,
          "velocity": 0.13385826771653545,
          "duration": 0.04651162790696617
        },
        {
          "name": "G#5",
          "midi": 80,
          "time": 49.08139534883478,
          "velocity": 0.15748031496062992,
          "duration": 0.034883720930224626
        },
        {
          "name": "C7",
          "midi": 96,
          "time": 49.08139534883478,
          "velocity": 0.15748031496062992,
          "duration": 0.0813953488371908
        },
        {
          "name": "F7",
          "midi": 101,
          "time": 49.08139534883478,
          "velocity": 0.18110236220472442,
          "duration": 0.034883720930224626
        },
        {
          "name": "D4",
          "midi": 62,
          "time": 49.093023255811524,
          "velocity": 0.31496062992125984,
          "duration": 0.05813953488370771
        },
        {
          "name": "G#4",
          "midi": 68,
          "time": 49.093023255811524,
          "velocity": 0.33858267716535434,
          "duration": 0.04651162790696617
        },
        {
          "name": "B4",
          "midi": 71,
          "time": 49.093023255811524,
          "velocity": 0.23622047244094488,
          "duration": 0.023255813953483084
        },
        {
          "name": "G5",
          "midi": 79,
          "time": 49.093023255811524,
          "velocity": 0.36220472440944884,
          "duration": 0.12790697674415696
        },
        {
          "name": "A#6",
          "midi": 94,
          "time": 49.093023255811524,
          "velocity": 0.1968503937007874,
          "duration": 0.10465116279067388
        },
        {
          "name": "E7",
          "midi": 100,
          "time": 49.093023255811524,
          "velocity": 0.15748031496062992,
          "duration": 0.11627906976741542
        },
        {
          "name": "D#3",
          "midi": 51,
          "time": 49.104651162788265,
          "velocity": 0.4015748031496063,
          "duration": 0.023255813953483084
        },
        {
          "name": "D5",
          "midi": 74,
          "time": 49.104651162788265,
          "velocity": 0.3858267716535433,
          "duration": 0.10465116279067388
        },
        {
          "name": "B6",
          "midi": 95,
          "time": 49.104651162788265,
          "velocity": 0.1889763779527559,
          "duration": 0.05813953488370771
        },
        {
          "name": "D#7",
          "midi": 99,
          "time": 49.104651162788265,
          "velocity": 0.11023622047244094,
          "duration": 0.06976744186044925
        },
        {
          "name": "G2",
          "midi": 43,
          "time": 49.13953488371849,
          "velocity": 0.2992125984251969,
          "duration": 0.023255813953483084
        },
        {
          "name": "G4",
          "midi": 67,
          "time": 49.13953488371849,
          "velocity": 0.3937007874015748,
          "duration": 0.0813953488371908
        },
        {
          "name": "D#4",
          "midi": 63,
          "time": 49.15116279069523,
          "velocity": 0.25984251968503935,
          "duration": 0.1395348837209056
        },
        {
          "name": "D3",
          "midi": 50,
          "time": 49.16279069767197,
          "velocity": 0.3543307086614173,
          "duration": 0.023255813953483084
        },
        {
          "name": "C5",
          "midi": 72,
          "time": 49.16279069767197,
          "velocity": 0.3700787401574803,
          "duration": 0.0813953488371979
        },
        {
          "name": "E5",
          "midi": 76,
          "time": 49.186046511625456,
          "velocity": 0.07874015748031496,
          "duration": 0.034883720930224626
        },
        {
          "name": "A#5",
          "midi": 82,
          "time": 49.186046511625456,
          "velocity": 0.09448818897637795,
          "duration": 0.0813953488371979
        },
        {
          "name": "G#4",
          "midi": 68,
          "time": 49.22093023255568,
          "velocity": 0.29133858267716534,
          "duration": 0.02325581395349019
        },
        {
          "name": "B4",
          "midi": 71,
          "time": 49.24418604650917,
          "velocity": 0.13385826771653545,
          "duration": 0.04651162790696617
        },
        {
          "name": "D5",
          "midi": 74,
          "time": 49.24418604650917,
          "velocity": 0.25196850393700787,
          "duration": 0.09302325581393234
        },
        {
          "name": "G5",
          "midi": 79,
          "time": 49.24418604650917,
          "velocity": 0.16535433070866143,
          "duration": 0.034883720930224626
        },
        {
          "name": "F5",
          "midi": 77,
          "time": 49.25581395348591,
          "velocity": 0.08661417322834646,
          "duration": 0.05813953488370771
        },
        {
          "name": "A3",
          "midi": 57,
          "time": 49.267441860462654,
          "velocity": 0.2755905511811024,
          "duration": 0.034883720930224626
        },
        {
          "name": "G#4",
          "midi": 68,
          "time": 49.267441860462654,
          "velocity": 0.3858267716535433,
          "duration": 0.04651162790696617
        },
        {
          "name": "C#4",
          "midi": 61,
          "time": 49.279069767439395,
          "velocity": 0.2440944881889764,
          "duration": 0.04651162790696617
        },
        {
          "name": "D6",
          "midi": 86,
          "time": 49.279069767439395,
          "velocity": 0.28346456692913385,
          "duration": 0.10465116279067388
        },
        {
          "name": "C#1",
          "midi": 25,
          "time": 49.29069767441614,
          "velocity": 0.7480314960629921,
          "duration": 0.011627906976741542
        },
        {
          "name": "D1",
          "midi": 26,
          "time": 49.30232558139288,
          "velocity": 0.6850393700787402,
          "duration": 0.011627906976741542
        },
        {
          "name": "C#3",
          "midi": 49,
          "time": 49.30232558139288,
          "velocity": 0.28346456692913385,
          "duration": 0.023255813953483084
        },
        {
          "name": "D#4",
          "midi": 63,
          "time": 49.30232558139288,
          "velocity": 0.36220472440944884,
          "duration": 0.2674418604650626
        },
        {
          "name": "A#0",
          "midi": 22,
          "time": 49.31395348836962,
          "velocity": 0.5905511811023622,
          "duration": 0.011627906976741542
        },
        {
          "name": "G5",
          "midi": 79,
          "time": 49.31395348836962,
          "velocity": 0.3937007874015748,
          "duration": 0.04651162790696617
        },
        {
          "name": "A#6",
          "midi": 94,
          "time": 49.31395348836962,
          "velocity": 0.33858267716535434,
          "duration": 0.18604651162786467
        },
        {
          "name": "A#4",
          "midi": 70,
          "time": 49.32558139534636,
          "velocity": 0.28346456692913385,
          "duration": 0.034883720930224626
        },
        {
          "name": "F6",
          "midi": 89,
          "time": 49.32558139534636,
          "velocity": 0.1968503937007874,
          "duration": 0.09302325581393234
        },
        {
          "name": "A6",
          "midi": 93,
          "time": 49.32558139534636,
          "velocity": 0.2992125984251969,
          "duration": 0.10465116279067388
        },
        {
          "name": "B6",
          "midi": 95,
          "time": 49.32558139534636,
          "velocity": 0.28346456692913385,
          "duration": 0.09302325581393234
        },
        {
          "name": "D#3",
          "midi": 51,
          "time": 49.3372093023231,
          "velocity": 0.2677165354330709,
          "duration": 0.023255813953483084
        },
        {
          "name": "G#3",
          "midi": 56,
          "time": 49.3372093023231,
          "velocity": 0.25196850393700787,
          "duration": 0.023255813953483084
        },
        {
          "name": "F#5",
          "midi": 78,
          "time": 49.3372093023231,
          "velocity": 0.3858267716535433,
          "duration": 0.034883720930224626
        },
        {
          "name": "B5",
          "midi": 83,
          "time": 49.3372093023231,
          "velocity": 0.25984251968503935,
          "duration": 0.034883720930224626
        },
        {
          "name": "C6",
          "midi": 84,
          "time": 49.3372093023231,
          "velocity": 0.28346456692913385,
          "duration": 0.33720930232551183
        },
        {
          "name": "G#6",
          "midi": 92,
          "time": 49.3372093023231,
          "velocity": 0.1968503937007874,
          "duration": 0.2674418604650626
        },
        {
          "name": "E7",
          "midi": 100,
          "time": 49.3372093023231,
          "velocity": 0.18110236220472442,
          "duration": 0.05813953488370771
        },
        {
          "name": "D5",
          "midi": 74,
          "time": 49.348837209299845,
          "velocity": 0.33858267716535434,
          "duration": 0.034883720930224626
        },
        {
          "name": "E5",
          "midi": 76,
          "time": 49.348837209299845,
          "velocity": 0.3228346456692913,
          "duration": 0.023255813953483084
        },
        {
          "name": "A5",
          "midi": 81,
          "time": 49.348837209299845,
          "velocity": 0.15748031496062992,
          "duration": 0.04651162790696617
        },
        {
          "name": "C#7",
          "midi": 97,
          "time": 49.348837209299845,
          "velocity": 0.14960629921259844,
          "duration": 0.04651162790696617
        },
        {
          "name": "F#0",
          "midi": 18,
          "time": 49.360465116276586,
          "velocity": 0.3228346456692913,
          "duration": 0.023255813953483084
        },
        {
          "name": "G3",
          "midi": 55,
          "time": 49.360465116276586,
          "velocity": 0.3464566929133858,
          "duration": 0.04651162790696617
        },
        {
          "name": "B4",
          "midi": 71,
          "time": 49.360465116276586,
          "velocity": 0.11023622047244094,
          "duration": 0.0813953488371908
        },
        {
          "name": "D#5",
          "midi": 75,
          "time": 49.360465116276586,
          "velocity": 0.5748031496062992,
          "duration": 0.20930232558135486
        },
        {
          "name": "C#6",
          "midi": 85,
          "time": 49.360465116276586,
          "velocity": 0.1732283464566929,
          "duration": 0.034883720930224626
        },
        {
          "name": "G5",
          "midi": 79,
          "time": 49.37209302325333,
          "velocity": 0.47244094488188976,
          "duration": 0.10465116279067388
        },
        {
          "name": "G#4",
          "midi": 68,
          "time": 49.39534883720681,
          "velocity": 0.44881889763779526,
          "duration": 0.12790697674415696
        },
        {
          "name": "D7",
          "midi": 98,
          "time": 49.39534883720681,
          "velocity": 0.2204724409448819,
          "duration": 0.034883720930224626
        },
        {
          "name": "D#7",
          "midi": 99,
          "time": 49.39534883720681,
          "velocity": 0.31496062992125984,
          "duration": 0.11627906976741542
        },
        {
          "name": "G#3",
          "midi": 56,
          "time": 49.40697674418355,
          "velocity": 0.4330708661417323,
          "duration": 0.3255813953487774
        },
        {
          "name": "D6",
          "midi": 86,
          "time": 49.45348837209052,
          "velocity": 0.12598425196850394,
          "duration": 0.034883720930224626
        },
        {
          "name": "C5",
          "midi": 72,
          "time": 49.46511627906726,
          "velocity": 0.14960629921259844,
          "duration": 0.06976744186044925
        },
        {
          "name": "F#6",
          "midi": 90,
          "time": 49.48837209302074,
          "velocity": 0.2992125984251969,
          "duration": 0.17441860465113024
        },
        {
          "name": "C#7",
          "midi": 97,
          "time": 49.499999999997485,
          "velocity": 0.12598425196850394,
          "duration": 0.034883720930224626
        },
        {
          "name": "G4",
          "midi": 67,
          "time": 49.52325581395097,
          "velocity": 0.30708661417322836,
          "duration": 0.023255813953483084
        },
        {
          "name": "B4",
          "midi": 71,
          "time": 49.54651162790445,
          "velocity": 0.2283464566929134,
          "duration": 0.046511627906973274
        },
        {
          "name": "C#4",
          "midi": 61,
          "time": 49.56976744185794,
          "velocity": 0.15748031496062992,
          "duration": 0.034883720930224626
        },
        {
          "name": "D5",
          "midi": 74,
          "time": 49.56976744185794,
          "velocity": 0.4251968503937008,
          "duration": 0.10465116279067388
        },
        {
          "name": "D#6",
          "midi": 87,
          "time": 49.58139534883468,
          "velocity": 0.12598425196850394,
          "duration": 0.10465116279067388
        },
        {
          "name": "G#4",
          "midi": 68,
          "time": 49.593023255811424,
          "velocity": 0.4881889763779528,
          "duration": 0.12790697674416407
        },
        {
          "name": "A#6",
          "midi": 94,
          "time": 49.593023255811424,
          "velocity": 0.13385826771653545,
          "duration": 0.09302325581393234
        },
        {
          "name": "B2",
          "midi": 47,
          "time": 49.604651162788166,
          "velocity": 0.2204724409448819,
          "duration": 0.034883720930224626
        },
        {
          "name": "D4",
          "midi": 62,
          "time": 49.604651162788166,
          "velocity": 0.2755905511811024,
          "duration": 0.3837209302325064
        },
        {
          "name": "A#4",
          "midi": 70,
          "time": 49.604651162788166,
          "velocity": 0.16535433070866143,
          "duration": 0.04651162790696617
        },
        {
          "name": "C5",
          "midi": 72,
          "time": 49.61627906976491,
          "velocity": 0.11023622047244094,
          "duration": 0.034883720930224626
        },
        {
          "name": "C#7",
          "midi": 97,
          "time": 49.61627906976491,
          "velocity": 0.07086614173228346,
          "duration": 0.034883720930224626
        },
        {
          "name": "E7",
          "midi": 100,
          "time": 49.62790697674165,
          "velocity": 0.11023622047244094,
          "duration": 0.034883720930224626
        },
        {
          "name": "G5",
          "midi": 79,
          "time": 49.66279069767187,
          "velocity": 0.25984251968503935,
          "duration": 0.06976744186045636
        },
        {
          "name": "B4",
          "midi": 71,
          "time": 49.674418604648615,
          "velocity": 0.14960629921259844,
          "duration": 0.046511627906973274
        },
        {
          "name": "D#5",
          "midi": 75,
          "time": 49.674418604648615,
          "velocity": 0.1968503937007874,
          "duration": 0.06976744186045636
        },
        {
          "name": "G4",
          "midi": 67,
          "time": 49.72093023255559,
          "velocity": 0.3464566929133858,
          "duration": 0.034883720930224626
        },
        {
          "name": "A#4",
          "midi": 70,
          "time": 49.72093023255559,
          "velocity": 0.18110236220472442,
          "duration": 0.034883720930224626
        },
        {
          "name": "G3",
          "midi": 55,
          "time": 49.73255813953233,
          "velocity": 0.41732283464566927,
          "duration": 0.034883720930224626
        },
        {
          "name": "G#4",
          "midi": 68,
          "time": 49.75581395348581,
          "velocity": 0.5275590551181102,
          "duration": 0.034883720930224626
        },
        {
          "name": "A#5",
          "midi": 82,
          "time": 49.75581395348581,
          "velocity": 0.14173228346456693,
          "duration": 0.11627906976742963
        },
        {
          "name": "G5",
          "midi": 79,
          "time": 49.767441860462554,
          "velocity": 0.5669291338582677,
          "duration": 0.3488372093022889
        },
        {
          "name": "G3",
          "midi": 55,
          "time": 49.779069767439296,
          "velocity": 0.41732283464566927,
          "duration": 0.16279069767441
        },
        {
          "name": "D5",
          "midi": 74,
          "time": 49.779069767439296,
          "velocity": 0.5433070866141733,
          "duration": 0.15116279069766847
        },
        {
          "name": "D#7",
          "midi": 99,
          "time": 49.779069767439296,
          "velocity": 0.10236220472440945,
          "duration": 0.03488372093023173
        },
        {
          "name": "D#5",
          "midi": 75,
          "time": 49.81395348836953,
          "velocity": 0.3858267716535433,
          "duration": 0.023255813953483084
        },
        {
          "name": "B5",
          "midi": 83,
          "time": 49.81395348836953,
          "velocity": 0.2047244094488189,
          "duration": 0.12790697674417828
        },
        {
          "name": "F6",
          "midi": 89,
          "time": 49.82558139534627,
          "velocity": 0.2125984251968504,
          "duration": 0.13953488372091982
        },
        {
          "name": "A6",
          "midi": 93,
          "time": 49.82558139534627,
          "velocity": 0.2992125984251969,
          "duration": 0.15116279069766136
        },
        {
          "name": "F7",
          "midi": 101,
          "time": 49.82558139534627,
          "velocity": 0.2440944881889764,
          "duration": 0.13953488372091982
        },
        {
          "name": "A#4",
          "midi": 70,
          "time": 49.83720930232301,
          "velocity": 0.13385826771653545,
          "duration": 0.03488372093023173
        },
        {
          "name": "D#5",
          "midi": 75,
          "time": 49.84883720929975,
          "velocity": 0.30708661417322836,
          "duration": 0.02325581395349019
        },
        {
          "name": "F#7",
          "midi": 102,
          "time": 49.89534883720673,
          "velocity": 0.10236220472440945,
          "duration": 0.058139534883714816
        },
        {
          "name": "C5",
          "midi": 72,
          "time": 49.91860465116022,
          "velocity": 0.3228346456692913,
          "duration": 0.05813953488370771
        },
        {
          "name": "D#7",
          "midi": 99,
          "time": 49.91860465116022,
          "velocity": 0.2047244094488189,
          "duration": 0.05813953488370771
        },
        {
          "name": "G#4",
          "midi": 68,
          "time": 49.930232558136964,
          "velocity": 0.2283464566929134,
          "duration": 0.023255813953483084
        },
        {
          "name": "E7",
          "midi": 100,
          "time": 49.930232558136964,
          "velocity": 0.11023622047244094,
          "duration": 0.034883720930224626
        },
        {
          "name": "F4",
          "midi": 65,
          "time": 49.941860465113706,
          "velocity": 0.25196850393700787,
          "duration": 0.05813953488370771
        },
        {
          "name": "D5",
          "midi": 74,
          "time": 49.941860465113706,
          "velocity": 0.3228346456692913,
          "duration": 0.09302325581393234
        },
        {
          "name": "F3",
          "midi": 53,
          "time": 49.95348837209045,
          "velocity": 0.33070866141732286,
          "duration": 0.04651162790696617
        },
        {
          "name": "E3",
          "midi": 52,
          "time": 49.999999999997414,
          "velocity": 0.2677165354330709,
          "duration": 0.023255813953483084
        },
        {
          "name": "A4",
          "midi": 69,
          "time": 49.999999999997414,
          "velocity": 0.29133858267716534,
          "duration": 0.023255813953483084
        },
        {
          "name": "C#4",
          "midi": 61,
          "time": 50.011627906974155,
          "velocity": 0.25196850393700787,
          "duration": 0.023255813953483084
        },
        {
          "name": "D4",
          "midi": 62,
          "time": 50.03488372092764,
          "velocity": 0.2047244094488189,
          "duration": 0.16279069767441
        },
        {
          "name": "D#5",
          "midi": 75,
          "time": 50.03488372092764,
          "velocity": 0.15748031496062992,
          "duration": 0.046511627906973274
        },
        {
          "name": "G#4",
          "midi": 68,
          "time": 50.06976744185787,
          "velocity": 0.2755905511811024,
          "duration": 0.1046511627906952
        },
        {
          "name": "G4",
          "midi": 67,
          "time": 50.174418604648565,
          "velocity": 0.14960629921259844,
          "duration": 0.034883720930224626
        },
        {
          "name": "G5",
          "midi": 79,
          "time": 50.174418604648565,
          "velocity": 0.3937007874015748,
          "duration": 0.04651162790696617
        },
        {
          "name": "A5",
          "midi": 81,
          "time": 50.18604651162531,
          "velocity": 0.5748031496062992,
          "duration": 0.0813953488371908
        },
        {
          "name": "C6",
          "midi": 84,
          "time": 50.18604651162531,
          "velocity": 0.3858267716535433,
          "duration": 0.034883720930224626
        },
        {
          "name": "E6",
          "midi": 88,
          "time": 50.18604651162531,
          "velocity": 0.4015748031496063,
          "duration": 0.06976744186044925
        },
        {
          "name": "F6",
          "midi": 89,
          "time": 50.18604651162531,
          "velocity": 0.3858267716535433,
          "duration": 0.05813953488370771
        },
        {
          "name": "D#6",
          "midi": 87,
          "time": 50.19767441860205,
          "velocity": 0.33070866141732286,
          "duration": 0.04651162790696617
        },
        {
          "name": "F5",
          "midi": 77,
          "time": 50.20930232557879,
          "velocity": 0.25196850393700787,
          "duration": 0.023255813953483084
        },
        {
          "name": "B5",
          "midi": 83,
          "time": 50.20930232557879,
          "velocity": 0.2125984251968504,
          "duration": 0.04651162790696617
        },
        {
          "name": "F#6",
          "midi": 90,
          "time": 50.20930232557879,
          "velocity": 0.1968503937007874,
          "duration": 0.04651162790696617
        },
        {
          "name": "G4",
          "midi": 67,
          "time": 50.22093023255553,
          "velocity": 0.3700787401574803,
          "duration": 0.04651162790696617
        },
        {
          "name": "A#6",
          "midi": 94,
          "time": 50.22093023255553,
          "velocity": 0.09448818897637795,
          "duration": 0.034883720930224626
        },
        {
          "name": "A#1",
          "midi": 34,
          "time": 50.23255813953227,
          "velocity": 0.6299212598425197,
          "duration": 0.011627906976741542
        },
        {
          "name": "D5",
          "midi": 74,
          "time": 50.23255813953227,
          "velocity": 0.25196850393700787,
          "duration": 0.023255813953483084
        },
        {
          "name": "G5",
          "midi": 79,
          "time": 50.23255813953227,
          "velocity": 0.5590551181102362,
          "duration": 0.05813953488370771
        },
        {
          "name": "C6",
          "midi": 84,
          "time": 50.23255813953227,
          "velocity": 0.33070866141732286,
          "duration": 0.2209302325581035
        },
        {
          "name": "D6",
          "midi": 86,
          "time": 50.23255813953227,
          "velocity": 0.29133858267716534,
          "duration": 0.034883720930224626
        },
        {
          "name": "G1",
          "midi": 31,
          "time": 50.244186046509014,
          "velocity": 0.7401574803149606,
          "duration": 0.023255813953483084
        },
        {
          "name": "D#4",
          "midi": 63,
          "time": 50.244186046509014,
          "velocity": 0.33070866141732286,
          "duration": 0.034883720930224626
        },
        {
          "name": "D#3",
          "midi": 51,
          "time": 50.255813953485756,
          "velocity": 0.2755905511811024,
          "duration": 0.05813953488370771
        },
        {
          "name": "D#5",
          "midi": 75,
          "time": 50.255813953485756,
          "velocity": 0.5826771653543307,
          "duration": 0.31395348837204295
        },
        {
          "name": "A#5",
          "midi": 82,
          "time": 50.255813953485756,
          "velocity": 0.25196850393700787,
          "duration": 0.05813953488370771
        },
        {
          "name": "G#6",
          "midi": 92,
          "time": 50.255813953485756,
          "velocity": 0.3228346456692913,
          "duration": 0.2674418604650697
        },
        {
          "name": "G#1",
          "midi": 32,
          "time": 50.2674418604625,
          "velocity": 0.7637795275590551,
          "duration": 0.5930232558138542
        },
        {
          "name": "C4",
          "midi": 60,
          "time": 50.2674418604625,
          "velocity": 0.23622047244094488,
          "duration": 0.034883720930224626
        },
        {
          "name": "G#4",
          "midi": 68,
          "time": 50.2674418604625,
          "velocity": 0.44881889763779526,
          "duration": 0.31395348837204295
        },
        {
          "name": "F#6",
          "midi": 90,
          "time": 50.2674418604625,
          "velocity": 0.2047244094488189,
          "duration": 0.05813953488370771
        },
        {
          "name": "A#6",
          "midi": 94,
          "time": 50.2674418604625,
          "velocity": 0.30708661417322836,
          "duration": 0.11627906976741542
        },
        {
          "name": "G#3",
          "midi": 56,
          "time": 50.27906976743924,
          "velocity": 0.18110236220472442,
          "duration": 0.034883720930224626
        },
        {
          "name": "F5",
          "midi": 77,
          "time": 50.27906976743924,
          "velocity": 0.10236220472440945,
          "duration": 0.034883720930224626
        },
        {
          "name": "G#5",
          "midi": 80,
          "time": 50.27906976743924,
          "velocity": 0.44881889763779526,
          "duration": 0.0813953488371908
        },
        {
          "name": "F7",
          "midi": 101,
          "time": 50.29069767441598,
          "velocity": 0.13385826771653545,
          "duration": 0.034883720930224626
        },
        {
          "name": "D4",
          "midi": 62,
          "time": 50.313953488369464,
          "velocity": 0.33858267716535434,
          "duration": 0.023255813953483084
        },
        {
          "name": "B5",
          "midi": 83,
          "time": 50.313953488369464,
          "velocity": 0.2283464566929134,
          "duration": 0.023255813953483084
        },
        {
          "name": "D#3",
          "midi": 51,
          "time": 50.325581395346205,
          "velocity": 0.3228346456692913,
          "duration": 0.27906976744181833
        },
        {
          "name": "A#4",
          "midi": 70,
          "time": 50.325581395346205,
          "velocity": 0.08661417322834646,
          "duration": 0.04651162790696617
        },
        {
          "name": "C4",
          "midi": 60,
          "time": 50.33720930232295,
          "velocity": 0.1889763779527559,
          "duration": 0.09302325581393944
        },
        {
          "name": "A#5",
          "midi": 82,
          "time": 50.33720930232295,
          "velocity": 0.2992125984251969,
          "duration": 0.25581395348833524
        },
        {
          "name": "G5",
          "midi": 79,
          "time": 50.34883720929969,
          "velocity": 0.1889763779527559,
          "duration": 0.06976744186045636
        },
        {
          "name": "G#3",
          "midi": 56,
          "time": 50.36046511627643,
          "velocity": 0.16535433070866143,
          "duration": 0.046511627906973274
        },
        {
          "name": "F7",
          "midi": 101,
          "time": 50.37209302325317,
          "velocity": 0.14960629921259844,
          "duration": 0.03488372093023173
        },
        {
          "name": "A#4",
          "midi": 70,
          "time": 50.38372093022991,
          "velocity": 0.11023622047244094,
          "duration": 0.046511627906973274
        },
        {
          "name": "E7",
          "midi": 100,
          "time": 50.4069767441834,
          "velocity": 0.2047244094488189,
          "duration": 0.06976744186045636
        },
        {
          "name": "A#4",
          "midi": 70,
          "time": 50.453488372090376,
          "velocity": 0.2677165354330709,
          "duration": 0.034883720930224626
        },
        {
          "name": "G#3",
          "midi": 56,
          "time": 50.46511627906712,
          "velocity": 0.2992125984251969,
          "duration": 0.034883720930224626
        },
        {
          "name": "G5",
          "midi": 79,
          "time": 50.47674418604386,
          "velocity": 0.08661417322834646,
          "duration": 0.06976744186044925
        },
        {
          "name": "D4",
          "midi": 62,
          "time": 50.4883720930206,
          "velocity": 0.31496062992125984,
          "duration": 0.04651162790696617
        },
        {
          "name": "F5",
          "midi": 77,
          "time": 50.4883720930206,
          "velocity": 0.2440944881889764,
          "duration": 0.09302325581393944
        },
        {
          "name": "F#6",
          "midi": 90,
          "time": 50.4883720930206,
          "velocity": 0.3779527559055118,
          "duration": 0.0813953488371979
        },
        {
          "name": "E7",
          "midi": 100,
          "time": 50.4883720930206,
          "velocity": 0.31496062992125984,
          "duration": 0.05813953488370771
        },
        {
          "name": "A3",
          "midi": 57,
          "time": 50.49999999999734,
          "velocity": 0.33858267716535434,
          "duration": 0.023255813953483084
        },
        {
          "name": "A#4",
          "midi": 70,
          "time": 50.49999999999734,
          "velocity": 0.28346456692913385,
          "duration": 0.04651162790696617
        },
        {
          "name": "C6",
          "midi": 84,
          "time": 50.511627906974084,
          "velocity": 0.1968503937007874,
          "duration": 0.19767441860462043
        },
        {
          "name": "A#3",
          "midi": 58,
          "time": 50.523255813950826,
          "velocity": 0.33070866141732286,
          "duration": 0.023255813953483084
        },
        {
          "name": "D6",
          "midi": 86,
          "time": 50.53488372092757,
          "velocity": 0.07874015748031496,
          "duration": 0.03488372093023173
        },
        {
          "name": "A3",
          "midi": 57,
          "time": 50.54651162790431,
          "velocity": 0.33858267716535434,
          "duration": 0.02325581395349019
        },
        {
          "name": "D4",
          "midi": 62,
          "time": 50.54651162790431,
          "velocity": 0.2440944881889764,
          "duration": 0.02325581395349019
        },
        {
          "name": "C4",
          "midi": 60,
          "time": 50.5697674418578,
          "velocity": 0.2283464566929134,
          "duration": 0.11627906976742253
        },
        {
          "name": "B4",
          "midi": 71,
          "time": 50.5697674418578,
          "velocity": 0.25984251968503935,
          "duration": 0.023255813953483084
        },
        {
          "name": "G5",
          "midi": 79,
          "time": 50.5697674418578,
          "velocity": 0.28346456692913385,
          "duration": 0.2674418604650697
        },
        {
          "name": "G3",
          "midi": 55,
          "time": 50.58139534883454,
          "velocity": 0.4094488188976378,
          "duration": 0.11627906976742253
        },
        {
          "name": "G#4",
          "midi": 68,
          "time": 50.59302325581128,
          "velocity": 0.2125984251968504,
          "duration": 0.034883720930224626
        },
        {
          "name": "A#4",
          "midi": 70,
          "time": 50.59302325581128,
          "velocity": 0.2283464566929134,
          "duration": 0.0813953488371979
        },
        {
          "name": "D5",
          "midi": 74,
          "time": 50.59302325581128,
          "velocity": 0.4566929133858268,
          "duration": 0.12790697674416407
        },
        {
          "name": "A#5",
          "midi": 82,
          "time": 50.616279069764765,
          "velocity": 0.33858267716535434,
          "duration": 0.058139534883714816
        },
        {
          "name": "F6",
          "midi": 89,
          "time": 50.63953488371825,
          "velocity": 0.4330708661417323,
          "duration": 0.18604651162787889
        },
        {
          "name": "A5",
          "midi": 81,
          "time": 50.65116279069499,
          "velocity": 0.25196850393700787,
          "duration": 0.03488372093023173
        },
        {
          "name": "E6",
          "midi": 88,
          "time": 50.65116279069499,
          "velocity": 0.2440944881889764,
          "duration": 0.03488372093023173
        },
        {
          "name": "D#4",
          "midi": 63,
          "time": 50.67441860464848,
          "velocity": 0.2677165354330709,
          "duration": 0.023255813953483084
        },
        {
          "name": "G#4",
          "midi": 68,
          "time": 50.67441860464848,
          "velocity": 0.2204724409448819,
          "duration": 0.11627906976742253
        },
        {
          "name": "B5",
          "midi": 83,
          "time": 50.67441860464848,
          "velocity": 0.3464566929133858,
          "duration": 0.10465116279068098
        },
        {
          "name": "F#4",
          "midi": 66,
          "time": 50.68604651162522,
          "velocity": 0.14960629921259844,
          "duration": 0.034883720930224626
        },
        {
          "name": "G6",
          "midi": 91,
          "time": 50.68604651162522,
          "velocity": 0.41732283464566927,
          "duration": 0.10465116279068098
        },
        {
          "name": "D#3",
          "midi": 51,
          "time": 50.69767441860196,
          "velocity": 0.23622047244094488,
          "duration": 0.023255813953483084
        },
        {
          "name": "D4",
          "midi": 62,
          "time": 50.69767441860196,
          "velocity": 0.2677165354330709,
          "duration": 0.023255813953483084
        },
        {
          "name": "A#4",
          "midi": 70,
          "time": 50.69767441860196,
          "velocity": 0.13385826771653545,
          "duration": 0.0813953488371979
        },
        {
          "name": "E5",
          "midi": 76,
          "time": 50.69767441860196,
          "velocity": 0.2283464566929134,
          "duration": 0.023255813953483084
        },
        {
          "name": "A6",
          "midi": 93,
          "time": 50.709302325578705,
          "velocity": 0.1889763779527559,
          "duration": 0.12790697674416407
        },
        {
          "name": "G3",
          "midi": 55,
          "time": 50.720930232555446,
          "velocity": 0.41732283464566927,
          "duration": 0.03488372093023173
        },
        {
          "name": "D#5",
          "midi": 75,
          "time": 50.720930232555446,
          "velocity": 0.4409448818897638,
          "duration": 0.15116279069764715
        },
        {
          "name": "F#7",
          "midi": 102,
          "time": 50.720930232555446,
          "velocity": 0.2125984251968504,
          "duration": 0.20930232558135486
        },
        {
          "name": "A5",
          "midi": 81,
          "time": 50.73255813953219,
          "velocity": 0.15748031496062992,
          "duration": 0.058139534883714816
        },
        {
          "name": "G3",
          "midi": 55,
          "time": 50.76744186046242,
          "velocity": 0.3543307086614173,
          "duration": 0.023255813953483084
        },
        {
          "name": "A#5",
          "midi": 82,
          "time": 50.76744186046242,
          "velocity": 0.2283464566929134,
          "duration": 0.17441860465112313
        },
        {
          "name": "B6",
          "midi": 95,
          "time": 50.77906976743916,
          "velocity": 0.1732283464566929,
          "duration": 0.0813953488371908
        },
        {
          "name": "F3",
          "midi": 53,
          "time": 50.7906976744159,
          "velocity": 0.28346456692913385,
          "duration": 0.023255813953483084
        },
        {
          "name": "C4",
          "midi": 60,
          "time": 50.7906976744159,
          "velocity": 0.15748031496062992,
          "duration": 0.034883720930224626
        },
        {
          "name": "C5",
          "midi": 72,
          "time": 50.7906976744159,
          "velocity": 0.49606299212598426,
          "duration": 0.10465116279067388
        },
        {
          "name": "F5",
          "midi": 77,
          "time": 50.7906976744159,
          "velocity": 0.2125984251968504,
          "duration": 0.0813953488371908
        },
        {
          "name": "E7",
          "midi": 100,
          "time": 50.7906976744159,
          "velocity": 0.2204724409448819,
          "duration": 0.05813953488370771
        },
        {
          "name": "G#4",
          "midi": 68,
          "time": 50.802325581392644,
          "velocity": 0.1968503937007874,
          "duration": 0.0813953488371908
        },
        {
          "name": "D#4",
          "midi": 63,
          "time": 50.813953488369386,
          "velocity": 0.2283464566929134,
          "duration": 0.023255813953483084
        },
        {
          "name": "A5",
          "midi": 81,
          "time": 50.83720930232287,
          "velocity": 0.2283464566929134,
          "duration": 0.12790697674415696
        },
        {
          "name": "F#3",
          "midi": 54,
          "time": 50.84883720929961,
          "velocity": 0.33858267716535434,
          "duration": 0.023255813953483084
        },
        {
          "name": "F4",
          "midi": 65,
          "time": 50.84883720929961,
          "velocity": 0.2677165354330709,
          "duration": 0.023255813953483084
        },
        {
          "name": "C#7",
          "midi": 97,
          "time": 50.84883720929961,
          "velocity": 0.1732283464566929,
          "duration": 0.034883720930224626
        },
        {
          "name": "G1",
          "midi": 31,
          "time": 50.86046511627635,
          "velocity": 0.7244094488188977,
          "duration": 0.011627906976741542
        },
        {
          "name": "C7",
          "midi": 96,
          "time": 50.86046511627635,
          "velocity": 0.16535433070866143,
          "duration": 0.0813953488371908
        },
        {
          "name": "F#1",
          "midi": 30,
          "time": 50.87209302325309,
          "velocity": 0.6377952755905512,
          "duration": 0.011627906976741542
        },
        {
          "name": "D#3",
          "midi": 51,
          "time": 50.87209302325309,
          "velocity": 0.3464566929133858,
          "duration": 0.034883720930224626
        },
        {
          "name": "D5",
          "midi": 74,
          "time": 50.87209302325309,
          "velocity": 0.4015748031496063,
          "duration": 0.0813953488371908
        },
        {
          "name": "E5",
          "midi": 76,
          "time": 50.87209302325309,
          "velocity": 0.23622047244094488,
          "duration": 0.023255813953483084
        },
        {
          "name": "A#6",
          "midi": 94,
          "time": 50.87209302325309,
          "velocity": 0.25984251968503935,
          "duration": 0.04651162790696617
        },
        {
          "name": "B6",
          "midi": 95,
          "time": 50.87209302325309,
          "velocity": 0.2204724409448819,
          "duration": 0.05813953488370771
        },
        {
          "name": "E7",
          "midi": 100,
          "time": 50.87209302325309,
          "velocity": 0.09448818897637795,
          "duration": 0.04651162790696617
        },
        {
          "name": "D#7",
          "midi": 99,
          "time": 50.883720930229835,
          "velocity": 0.16535433070866143,
          "duration": 0.034883720930224626
        },
        {
          "name": "D4",
          "midi": 62,
          "time": 50.895348837206576,
          "velocity": 0.3228346456692913,
          "duration": 0.04651162790696617
        },
        {
          "name": "A4",
          "midi": 69,
          "time": 50.895348837206576,
          "velocity": 0.3937007874015748,
          "duration": 0.05813953488370771
        },
        {
          "name": "D7",
          "midi": 98,
          "time": 50.895348837206576,
          "velocity": 0.10236220472440945,
          "duration": 0.05813953488370771
        },
        {
          "name": "F1",
          "midi": 29,
          "time": 50.90697674418332,
          "velocity": 0.6377952755905512,
          "duration": 0.011627906976741542
        },
        {
          "name": "A#3",
          "midi": 58,
          "time": 50.90697674418332,
          "velocity": 0.3543307086614173,
          "duration": 0.023255813953483084
        },
        {
          "name": "G1",
          "midi": 31,
          "time": 50.91860465116006,
          "velocity": 0.7401574803149606,
          "duration": 0.011627906976741542
        },
        {
          "name": "F5",
          "midi": 77,
          "time": 50.91860465116006,
          "velocity": 0.2440944881889764,
          "duration": 0.18604651162786467
        },
        {
          "name": "G#5",
          "midi": 80,
          "time": 50.91860465116006,
          "velocity": 0.2677165354330709,
          "duration": 0.05813953488370771
        },
        {
          "name": "F#1",
          "midi": 30,
          "time": 50.9302325581368,
          "velocity": 0.7795275590551181,
          "duration": 0.011627906976741542
        },
        {
          "name": "G1",
          "midi": 31,
          "time": 50.94186046511354,
          "velocity": 0.7795275590551181,
          "duration": 0.6046511627905815
        },
        {
          "name": "G#3",
          "midi": 56,
          "time": 50.94186046511354,
          "velocity": 0.3937007874015748,
          "duration": 0.09302325581393234
        },
        {
          "name": "D#4",
          "midi": 63,
          "time": 50.94186046511354,
          "velocity": 0.36220472440944884,
          "duration": 0.0813953488371908
        },
        {
          "name": "G4",
          "midi": 67,
          "time": 50.94186046511354,
          "velocity": 0.33858267716535434,
          "duration": 0.06976744186044925
        },
        {
          "name": "A#6",
          "midi": 94,
          "time": 50.94186046511354,
          "velocity": 0.14960629921259844,
          "duration": 0.04651162790696617
        },
        {
          "name": "E7",
          "midi": 100,
          "time": 50.94186046511354,
          "velocity": 0.11811023622047244,
          "duration": 0.034883720930224626
        },
        {
          "name": "C5",
          "midi": 72,
          "time": 50.953488372090284,
          "velocity": 0.3464566929133858,
          "duration": 0.0813953488371908
        },
        {
          "name": "C4",
          "midi": 60,
          "time": 50.965116279067026,
          "velocity": 0.2992125984251969,
          "duration": 0.023255813953483084
        },
        {
          "name": "A#5",
          "midi": 82,
          "time": 50.965116279067026,
          "velocity": 0.2125984251968504,
          "duration": 0.034883720930224626
        },
        {
          "name": "F#6",
          "midi": 90,
          "time": 50.965116279067026,
          "velocity": 0.12598425196850394,
          "duration": 0.034883720930224626
        },
        {
          "name": "D#7",
          "midi": 99,
          "time": 50.965116279067026,
          "velocity": 0.16535433070866143,
          "duration": 0.034883720930224626
        },
        {
          "name": "D5",
          "midi": 74,
          "time": 50.99999999999725,
          "velocity": 0.16535433070866143,
          "duration": 0.06976744186044925
        },
        {
          "name": "A4",
          "midi": 69,
          "time": 51.02325581395073,
          "velocity": 0.2125984251968504,
          "duration": 0.04651162790696617
        },
        {
          "name": "G#5",
          "midi": 80,
          "time": 51.02325581395073,
          "velocity": 0.10236220472440945,
          "duration": 0.034883720930224626
        },
        {
          "name": "A#5",
          "midi": 82,
          "time": 51.02325581395073,
          "velocity": 0.1732283464566929,
          "duration": 0.09302325581393234
        },
        {
          "name": "D#5",
          "midi": 75,
          "time": 51.034883720927475,
          "velocity": 0.23622047244094488,
          "duration": 0.04651162790696617
        },
        {
          "name": "G#3",
          "midi": 56,
          "time": 51.046511627904216,
          "velocity": 0.3228346456692913,
          "duration": 0.05813953488370771
        },
        {
          "name": "C4",
          "midi": 60,
          "time": 51.05813953488096,
          "velocity": 0.29133858267716534,
          "duration": 0.023255813953483084
        },
        {
          "name": "D3",
          "midi": 50,
          "time": 51.08139534883444,
          "velocity": 0.36220472440944884,
          "duration": 0.04651162790696617
        },
        {
          "name": "A4",
          "midi": 69,
          "time": 51.08139534883444,
          "velocity": 0.28346456692913385,
          "duration": 0.034883720930224626
        },
        {
          "name": "D5",
          "midi": 74,
          "time": 51.08139534883444,
          "velocity": 0.2992125984251969,
          "duration": 0.023255813953483084
        },
        {
          "name": "G5",
          "midi": 79,
          "time": 51.08139534883444,
          "velocity": 0.15748031496062992,
          "duration": 0.04651162790696617
        },
        {
          "name": "D#5",
          "midi": 75,
          "time": 51.09302325581118,
          "velocity": 0.31496062992125984,
          "duration": 0.023255813953483084
        },
        {
          "name": "G#6",
          "midi": 92,
          "time": 51.09302325581118,
          "velocity": 0.14173228346456693,
          "duration": 0.04651162790696617
        },
        {
          "name": "A#6",
          "midi": 94,
          "time": 51.09302325581118,
          "velocity": 0.2440944881889764,
          "duration": 0.09302325581393234
        },
        {
          "name": "B6",
          "midi": 95,
          "time": 51.09302325581118,
          "velocity": 0.2283464566929134,
          "duration": 0.10465116279067388
        },
        {
          "name": "D#4",
          "midi": 63,
          "time": 51.104651162787924,
          "velocity": 0.41732283464566927,
          "duration": 0.034883720930224626
        },
        {
          "name": "F6",
          "midi": 89,
          "time": 51.104651162787924,
          "velocity": 0.11023622047244094,
          "duration": 0.0813953488371908
        },
        {
          "name": "A6",
          "midi": 93,
          "time": 51.104651162787924,
          "velocity": 0.2677165354330709,
          "duration": 0.0813953488371908
        },
        {
          "name": "E7",
          "midi": 100,
          "time": 51.104651162787924,
          "velocity": 0.15748031496062992,
          "duration": 0.06976744186044925
        },
        {
          "name": "G#3",
          "midi": 56,
          "time": 51.116279069764666,
          "velocity": 0.49606299212598426,
          "duration": 0.4069767441859753
        },
        {
          "name": "B4",
          "midi": 71,
          "time": 51.116279069764666,
          "velocity": 0.15748031496062992,
          "duration": 0.034883720930224626
        },
        {
          "name": "E5",
          "midi": 76,
          "time": 51.116279069764666,
          "velocity": 0.3858267716535433,
          "duration": 0.034883720930224626
        },
        {
          "name": "D6",
          "midi": 86,
          "time": 51.116279069764666,
          "velocity": 0.1889763779527559,
          "duration": 0.06976744186044925
        },
        {
          "name": "D#6",
          "midi": 87,
          "time": 51.116279069764666,
          "velocity": 0.11811023622047244,
          "duration": 0.04651162790696617
        },
        {
          "name": "F#6",
          "midi": 90,
          "time": 51.12790697674141,
          "velocity": 0.08661417322834646,
          "duration": 0.04651162790696617
        },
        {
          "name": "G5",
          "midi": 79,
          "time": 51.13953488371815,
          "velocity": 0.33070866141732286,
          "duration": 0.04651162790696617
        },
        {
          "name": "A#5",
          "midi": 82,
          "time": 51.13953488371815,
          "velocity": 0.2204724409448819,
          "duration": 0.034883720930224626
        },
        {
          "name": "D#4",
          "midi": 63,
          "time": 51.15116279069489,
          "velocity": 0.2047244094488189,
          "duration": 0.05813953488370771
        },
        {
          "name": "D5",
          "midi": 74,
          "time": 51.15116279069489,
          "velocity": 0.47244094488188976,
          "duration": 0.023255813953483084
        },
        {
          "name": "C7",
          "midi": 96,
          "time": 51.15116279069489,
          "velocity": 0.10236220472440945,
          "duration": 0.034883720930224626
        },
        {
          "name": "D3",
          "midi": 50,
          "time": 51.16279069767163,
          "velocity": 0.2204724409448819,
          "duration": 0.034883720930224626
        },
        {
          "name": "A5",
          "midi": 81,
          "time": 51.16279069767163,
          "velocity": 0.25984251968503935,
          "duration": 0.034883720930224626
        },
        {
          "name": "B5",
          "midi": 83,
          "time": 51.16279069767163,
          "velocity": 0.10236220472440945,
          "duration": 0.034883720930224626
        },
        {
          "name": "D#5",
          "midi": 75,
          "time": 51.17441860464837,
          "velocity": 0.49606299212598426,
          "duration": 0.37209302325575067
        },
        {
          "name": "D#7",
          "midi": 99,
          "time": 51.17441860464837,
          "velocity": 0.3464566929133858,
          "duration": 0.1627906976743887
        },
        {
          "name": "G#6",
          "midi": 92,
          "time": 51.186046511625115,
          "velocity": 0.11811023622047244,
          "duration": 0.10465116279068098
        },
        {
          "name": "G#4",
          "midi": 68,
          "time": 51.197674418601856,
          "velocity": 0.49606299212598426,
          "duration": 0.3023255813953014
        },
        {
          "name": "F5",
          "midi": 77,
          "time": 51.197674418601856,
          "velocity": 0.14173228346456693,
          "duration": 0.06976744186045636
        },
        {
          "name": "A#5",
          "midi": 82,
          "time": 51.197674418601856,
          "velocity": 0.14173228346456693,
          "duration": 0.09302325581393944
        },
        {
          "name": "C#7",
          "midi": 97,
          "time": 51.197674418601856,
          "velocity": 0.14960629921259844,
          "duration": 0.03488372093023173
        },
        {
          "name": "D3",
          "midi": 50,
          "time": 51.2093023255786,
          "velocity": 0.25196850393700787,
          "duration": 0.058139534883714816
        },
        {
          "name": "F4",
          "midi": 65,
          "time": 51.2093023255786,
          "velocity": 0.14173228346456693,
          "duration": 0.03488372093023173
        },
        {
          "name": "A#6",
          "midi": 94,
          "time": 51.2093023255786,
          "velocity": 0.18110236220472442,
          "duration": 0.06976744186045636
        },
        {
          "name": "C6",
          "midi": 84,
          "time": 51.24418604650883,
          "velocity": 0.2440944881889764,
          "duration": 0.11627906976741542
        },
        {
          "name": "F4",
          "midi": 65,
          "time": 51.25581395348557,
          "velocity": 0.18110236220472442,
          "duration": 0.05813953488370771
        },
        {
          "name": "C5",
          "midi": 72,
          "time": 51.26744186046231,
          "velocity": 0.2440944881889764,
          "duration": 0.05813953488370771
        },
        {
          "name": "C#7",
          "midi": 97,
          "time": 51.26744186046231,
          "velocity": 0.14960629921259844,
          "duration": 0.034883720930224626
        },
        {
          "name": "D3",
          "midi": 50,
          "time": 51.279069767439054,
          "velocity": 0.29133858267716534,
          "duration": 0.23255813953484505
        },
        {
          "name": "F#6",
          "midi": 90,
          "time": 51.279069767439054,
          "velocity": 0.31496062992125984,
          "duration": 0.09302325581393234
        },
        {
          "name": "F5",
          "midi": 77,
          "time": 51.30232558139254,
          "velocity": 0.2283464566929134,
          "duration": 0.3023255813952943
        },
        {
          "name": "D#4",
          "midi": 63,
          "time": 51.31395348836928,
          "velocity": 0.1968503937007874,
          "duration": 0.034883720930224626
        },
        {
          "name": "A#6",
          "midi": 94,
          "time": 51.360465116276245,
          "velocity": 0.13385826771653545,
          "duration": 0.10465116279068809
        },
        {
          "name": "E7",
          "midi": 100,
          "time": 51.37209302325299,
          "velocity": 0.12598425196850394,
          "duration": 0.03488372093023173
        },
        {
          "name": "C6",
          "midi": 84,
          "time": 51.38372093022973,
          "velocity": 0.1732283464566929,
          "duration": 0.12790697674417117
        },
        {
          "name": "D#4",
          "midi": 63,
          "time": 51.41860465115996,
          "velocity": 0.25984251968503935,
          "duration": 0.058139534883714816
        },
        {
          "name": "F#6",
          "midi": 90,
          "time": 51.41860465115996,
          "velocity": 0.11023622047244094,
          "duration": 0.046511627906973274
        },
        {
          "name": "A#5",
          "midi": 82,
          "time": 51.4302325581367,
          "velocity": 0.08661417322834646,
          "duration": 0.03488372093023173
        },
        {
          "name": "D#7",
          "midi": 99,
          "time": 51.4302325581367,
          "velocity": 0.16535433070866143,
          "duration": 0.058139534883714816
        },
        {
          "name": "D#4",
          "midi": 63,
          "time": 51.488372093020416,
          "velocity": 0.2283464566929134,
          "duration": 0.09302325581393234
        },
        {
          "name": "G4",
          "midi": 67,
          "time": 51.49999999999716,
          "velocity": 0.2992125984251969,
          "duration": 0.023255813953483084
        },
        {
          "name": "A#5",
          "midi": 82,
          "time": 51.5116279069739,
          "velocity": 0.07086614173228346,
          "duration": 0.04651162790696617
        },
        {
          "name": "G#3",
          "midi": 56,
          "time": 51.53488372092738,
          "velocity": 0.49606299212598426,
          "duration": 0.023255813953483084
        },
        {
          "name": "G#4",
          "midi": 68,
          "time": 51.53488372092738,
          "velocity": 0.5196850393700787,
          "duration": 0.04651162790696617
        },
        {
          "name": "F1",
          "midi": 29,
          "time": 51.546511627904124,
          "velocity": 0.6141732283464567,
          "duration": 0.011627906976741542
        },
        {
          "name": "D5",
          "midi": 74,
          "time": 51.546511627904124,
          "velocity": 0.5511811023622047,
          "duration": 0.17441860465112313
        },
        {
          "name": "G5",
          "midi": 79,
          "time": 51.546511627904124,
          "velocity": 0.5826771653543307,
          "duration": 0.3837209302324993
        },
        {
          "name": "G3",
          "midi": 55,
          "time": 51.558139534880866,
          "velocity": 0.4566929133858268,
          "duration": 0.06976744186044925
        },
        {
          "name": "D#7",
          "midi": 99,
          "time": 51.558139534880866,
          "velocity": 0.12598425196850394,
          "duration": 0.034883720930224626
        },
        {
          "name": "B5",
          "midi": 83,
          "time": 51.56976744185761,
          "velocity": 0.16535433070866143,
          "duration": 0.034883720930224626
        },
        {
          "name": "E1",
          "midi": 28,
          "time": 51.58139534883435,
          "velocity": 0.5905511811023622,
          "duration": 0.011627906976741542
        },
        {
          "name": "E6",
          "midi": 88,
          "time": 51.58139534883435,
          "velocity": 0.1732283464566929,
          "duration": 0.034883720930224626
        },
        {
          "name": "A6",
          "midi": 93,
          "time": 51.58139534883435,
          "velocity": 0.2677165354330709,
          "duration": 0.06976744186044925
        },
        {
          "name": "D#1",
          "midi": 27,
          "time": 51.59302325581109,
          "velocity": 0.6850393700787402,
          "duration": 0.011627906976741542
        },
        {
          "name": "G#4",
          "midi": 68,
          "time": 51.59302325581109,
          "velocity": 0.2677165354330709,
          "duration": 0.023255813953483084
        },
        {
          "name": "C6",
          "midi": 84,
          "time": 51.59302325581109,
          "velocity": 0.2283464566929134,
          "duration": 0.034883720930224626
        },
        {
          "name": "D1",
          "midi": 26,
          "time": 51.60465116278783,
          "velocity": 0.7086614173228346,
          "duration": 0.011627906976741542
        },
        {
          "name": "D#4",
          "midi": 63,
          "time": 51.60465116278783,
          "velocity": 0.1889763779527559,
          "duration": 0.034883720930224626
        },
        {
          "name": "C1",
          "midi": 24,
          "time": 51.61627906976457,
          "velocity": 0.7165354330708661,
          "duration": 0.011627906976741542
        },
        {
          "name": "B5",
          "midi": 83,
          "time": 51.61627906976457,
          "velocity": 0.13385826771653545,
          "duration": 0.06976744186044925
        },
        {
          "name": "F6",
          "midi": 89,
          "time": 51.61627906976457,
          "velocity": 0.16535433070866143,
          "duration": 0.04651162790696617
        },
        {
          "name": "B0",
          "midi": 23,
          "time": 51.627906976741315,
          "velocity": 0.7165354330708661,
          "duration": 0.023255813953483084
        },
        {
          "name": "G#4",
          "midi": 68,
          "time": 51.627906976741315,
          "velocity": 0.2440944881889764,
          "duration": 0.023255813953483084
        },
        {
          "name": "G3",
          "midi": 55,
          "time": 51.639534883718056,
          "velocity": 0.3779527559055118,
          "duration": 0.023255813953483084
        },
        {
          "name": "C1",
          "midi": 24,
          "time": 51.6511627906948,
          "velocity": 0.7480314960629921,
          "duration": 0.9418604651161431
        },
        {
          "name": "F7",
          "midi": 101,
          "time": 51.6511627906948,
          "velocity": 0.2283464566929134,
          "duration": 0.05813953488370771
        },
        {
          "name": "D4",
          "midi": 62,
          "time": 51.66279069767154,
          "velocity": 0.1732283464566929,
          "duration": 0.0813953488371908
        },
        {
          "name": "F5",
          "midi": 77,
          "time": 51.66279069767154,
          "velocity": 0.31496062992125984,
          "duration": 0.25581395348834235
        },
        {
          "name": "G#4",
          "midi": 68,
          "time": 51.67441860464828,
          "velocity": 0.25196850393700787,
          "duration": 0.034883720930224626
        },
        {
          "name": "A6",
          "midi": 93,
          "time": 51.67441860464828,
          "velocity": 0.13385826771653545,
          "duration": 0.034883720930224626
        },
        {
          "name": "G#3",
          "midi": 56,
          "time": 51.68604651162502,
          "velocity": 0.3543307086614173,
          "duration": 0.023255813953483084
        },
        {
          "name": "D#7",
          "midi": 99,
          "time": 51.697674418601764,
          "velocity": 0.2283464566929134,
          "duration": 0.04651162790696617
        },
        {
          "name": "F4",
          "midi": 65,
          "time": 51.72093023255525,
          "velocity": 0.1732283464566929,
          "duration": 0.034883720930224626
        },
        {
          "name": "C5",
          "midi": 72,
          "time": 51.72093023255525,
          "velocity": 0.3858267716535433,
          "duration": 0.09302325581393944
        },
        {
          "name": "G2",
          "midi": 43,
          "time": 51.73255813953199,
          "velocity": 0.31496062992125984,
          "duration": 0.023255813953483084
        },
        {
          "name": "G#4",
          "midi": 68,
          "time": 51.75581395348547,
          "velocity": 0.33858267716535434,
          "duration": 0.058139534883714816
        },
        {
          "name": "F#6",
          "midi": 90,
          "time": 51.75581395348547,
          "velocity": 0.10236220472440945,
          "duration": 0.046511627906973274
        },
        {
          "name": "E3",
          "midi": 52,
          "time": 51.76744186046221,
          "velocity": 0.3464566929133858,
          "duration": 0.046511627906973274
        },
        {
          "name": "C#4",
          "midi": 61,
          "time": 51.779069767438955,
          "velocity": 0.2283464566929134,
          "duration": 0.03488372093023173
        },
        {
          "name": "G#3",
          "midi": 56,
          "time": 51.802325581392445,
          "velocity": 0.4251968503937008,
          "duration": 0.11627906976743674
        },
        {
          "name": "G4",
          "midi": 67,
          "time": 51.81395348836919,
          "velocity": 0.1889763779527559,
          "duration": 0.03488372093023173
        },
        {
          "name": "D#5",
          "midi": 75,
          "time": 51.81395348836919,
          "velocity": 0.2047244094488189,
          "duration": 0.11627906976743674
        },
        {
          "name": "D4",
          "midi": 62,
          "time": 51.87209302325291,
          "velocity": 0.14960629921259844,
          "duration": 0.09302325581394655
        },
        {
          "name": "B4",
          "midi": 71,
          "time": 51.90697674418314,
          "velocity": 0.10236220472440945,
          "duration": 0.058139534883714816
        },
        {
          "name": "F#4",
          "midi": 66,
          "time": 51.91860465115988,
          "velocity": 0.1889763779527559,
          "duration": 0.046511627906973274
        },
        {
          "name": "G2",
          "midi": 43,
          "time": 51.93023255813662,
          "velocity": 0.33070866141732286,
          "duration": 0.02325581395349019
        },
        {
          "name": "G#3",
          "midi": 56,
          "time": 51.93023255813662,
          "velocity": 0.4015748031496063,
          "duration": 0.23255813953485216
        },
        {
          "name": "G4",
          "midi": 67,
          "time": 51.965116279066855,
          "velocity": 0.36220472440944884,
          "duration": 0.03488372093023173
        },
        {
          "name": "D5",
          "midi": 74,
          "time": 51.988372093020345,
          "velocity": 0.1968503937007874,
          "duration": 0.05813953488370771
        },
        {
          "name": "F5",
          "midi": 77,
          "time": 51.988372093020345,
          "velocity": 0.14960629921259844,
          "duration": 0.04651162790696617
        },
        {
          "name": "A#5",
          "midi": 82,
          "time": 51.988372093020345,
          "velocity": 0.48031496062992124,
          "duration": 0.05813953488370771
        },
        {
          "name": "C6",
          "midi": 84,
          "time": 51.988372093020345,
          "velocity": 0.3228346456692913,
          "duration": 0.36046511627901623
        },
        {
          "name": "F6",
          "midi": 89,
          "time": 51.988372093020345,
          "velocity": 0.2992125984251969,
          "duration": 0.09302325581393234
        },
        {
          "name": "G5",
          "midi": 79,
          "time": 51.99999999999709,
          "velocity": 0.14173228346456693,
          "duration": 0.034883720930224626
        },
        {
          "name": "D#6",
          "midi": 87,
          "time": 51.99999999999709,
          "velocity": 0.33070866141732286,
          "duration": 0.04651162790696617
        },
        {
          "name": "G6",
          "midi": 91,
          "time": 51.99999999999709,
          "velocity": 0.1889763779527559,
          "duration": 0.0813953488371908
        },
        {
          "name": "E7",
          "midi": 100,
          "time": 51.99999999999709,
          "velocity": 0.2283464566929134,
          "duration": 0.04651162790696617
        },
        {
          "name": "E6",
          "midi": 88,
          "time": 52.01162790697383,
          "velocity": 0.33070866141732286,
          "duration": 0.04651162790696617
        },
        {
          "name": "F#6",
          "midi": 90,
          "time": 52.01162790697383,
          "velocity": 0.09448818897637795,
          "duration": 0.034883720930224626
        },
        {
          "name": "F#5",
          "midi": 78,
          "time": 52.02325581395057,
          "velocity": 0.2755905511811024,
          "duration": 0.034883720930224626
        },
        {
          "name": "A5",
          "midi": 81,
          "time": 52.02325581395057,
          "velocity": 0.36220472440944884,
          "duration": 0.023255813953483084
        },
        {
          "name": "C#6",
          "midi": 85,
          "time": 52.02325581395057,
          "velocity": 0.2047244094488189,
          "duration": 0.034883720930224626
        },
        {
          "name": "D#5",
          "midi": 75,
          "time": 52.03488372092731,
          "velocity": 0.49606299212598426,
          "duration": 0.36046511627901623
        },
        {
          "name": "G5",
          "midi": 79,
          "time": 52.04651162790405,
          "velocity": 0.5275590551181102,
          "duration": 0.04651162790696617
        },
        {
          "name": "B5",
          "midi": 83,
          "time": 52.04651162790405,
          "velocity": 0.2992125984251969,
          "duration": 0.023255813953483084
        },
        {
          "name": "A6",
          "midi": 93,
          "time": 52.04651162790405,
          "velocity": 0.12598425196850394,
          "duration": 0.034883720930224626
        },
        {
          "name": "D4",
          "midi": 62,
          "time": 52.058139534880794,
          "velocity": 0.1732283464566929,
          "duration": 0.09302325581393944
        },
        {
          "name": "F#6",
          "midi": 90,
          "time": 52.069767441857536,
          "velocity": 0.18110236220472442,
          "duration": 0.06976744186045636
        },
        {
          "name": "A#6",
          "midi": 94,
          "time": 52.069767441857536,
          "velocity": 0.28346456692913385,
          "duration": 0.12790697674416407
        },
        {
          "name": "E7",
          "midi": 100,
          "time": 52.069767441857536,
          "velocity": 0.23622047244094488,
          "duration": 0.06976744186045636
        },
        {
          "name": "G#5",
          "midi": 80,
          "time": 52.08139534883428,
          "velocity": 0.44881889763779526,
          "duration": 0.1395348837209056
        },
        {
          "name": "F5",
          "midi": 77,
          "time": 52.10465116278776,
          "velocity": 0.12598425196850394,
          "duration": 0.0813953488371979
        },
        {
          "name": "F7",
          "midi": 101,
          "time": 52.10465116278776,
          "velocity": 0.16535433070866143,
          "duration": 0.03488372093023173
        },
        {
          "name": "D6",
          "midi": 86,
          "time": 52.1162790697645,
          "velocity": 0.13385826771653545,
          "duration": 0.23255813953485927
        },
        {
          "name": "C5",
          "midi": 72,
          "time": 52.162790697671475,
          "velocity": 0.14173228346456693,
          "duration": 0.04651162790696617
        },
        {
          "name": "F#6",
          "midi": 90,
          "time": 52.162790697671475,
          "velocity": 0.10236220472440945,
          "duration": 0.034883720930224626
        },
        {
          "name": "G#3",
          "midi": 56,
          "time": 52.17441860464822,
          "velocity": 0.3228346456692913,
          "duration": 0.04651162790696617
        },
        {
          "name": "D4",
          "midi": 62,
          "time": 52.17441860464822,
          "velocity": 0.15748031496062992,
          "duration": 0.05813953488370771
        },
        {
          "name": "F7",
          "midi": 101,
          "time": 52.17441860464822,
          "velocity": 0.18110236220472442,
          "duration": 0.034883720930224626
        },
        {
          "name": "G5",
          "midi": 79,
          "time": 52.18604651162496,
          "velocity": 0.1732283464566929,
          "duration": 0.05813953488370771
        },
        {
          "name": "G2",
          "midi": 43,
          "time": 52.22093023255518,
          "velocity": 0.2992125984251969,
          "duration": 0.023255813953483084
        },
        {
          "name": "E7",
          "midi": 100,
          "time": 52.22093023255518,
          "velocity": 0.2992125984251969,
          "duration": 0.13953488372091982
        },
        {
          "name": "G#3",
          "midi": 56,
          "time": 52.232558139531925,
          "velocity": 0.28346456692913385,
          "duration": 0.034883720930224626
        },
        {
          "name": "B4",
          "midi": 71,
          "time": 52.244186046508666,
          "velocity": 0.07874015748031496,
          "duration": 0.058139534883714816
        },
        {
          "name": "C#5",
          "midi": 73,
          "time": 52.25581395348541,
          "velocity": 0.07874015748031496,
          "duration": 0.03488372093023173
        },
        {
          "name": "G2",
          "midi": 43,
          "time": 52.26744186046215,
          "velocity": 0.3228346456692913,
          "duration": 0.02325581395349019
        },
        {
          "name": "A3",
          "midi": 57,
          "time": 52.26744186046215,
          "velocity": 0.29133858267716534,
          "duration": 0.02325581395349019
        },
        {
          "name": "G5",
          "midi": 79,
          "time": 52.26744186046215,
          "velocity": 0.1968503937007874,
          "duration": 0.03488372093023173
        },
        {
          "name": "G#3",
          "midi": 56,
          "time": 52.29069767441564,
          "velocity": 0.4330708661417323,
          "duration": 0.09302325581394655
        },
        {
          "name": "F#6",
          "midi": 90,
          "time": 52.29069767441564,
          "velocity": 0.3858267716535433,
          "duration": 0.081395348837205
        },
        {
          "name": "D4",
          "midi": 62,
          "time": 52.32558139534587,
          "velocity": 0.16535433070866143,
          "duration": 0.13953488372091272
        },
        {
          "name": "F5",
          "midi": 77,
          "time": 52.34883720929936,
          "velocity": 0.08661417322834646,
          "duration": 0.034883720930224626
        },
        {
          "name": "G2",
          "midi": 43,
          "time": 52.3604651162761,
          "velocity": 0.33070866141732286,
          "duration": 0.023255813953483084
        },
        {
          "name": "G5",
          "midi": 79,
          "time": 52.3604651162761,
          "velocity": 0.18110236220472442,
          "duration": 0.06976744186045636
        },
        {
          "name": "G3",
          "midi": 55,
          "time": 52.383720930229586,
          "velocity": 0.5039370078740157,
          "duration": 0.06976744186045636
        },
        {
          "name": "G#4",
          "midi": 68,
          "time": 52.41860465115982,
          "velocity": 0.29133858267716534,
          "duration": 0.034883720930224626
        },
        {
          "name": "F5",
          "midi": 77,
          "time": 52.43023255813656,
          "velocity": 0.09448818897637795,
          "duration": 0.04651162790696617
        },
        {
          "name": "D5",
          "midi": 74,
          "time": 52.4418604651133,
          "velocity": 0.48031496062992124,
          "duration": 0.15116279069764005
        },
        {
          "name": "G5",
          "midi": 79,
          "time": 52.4418604651133,
          "velocity": 0.3543307086614173,
          "duration": 0.1627906976743816
        },
        {
          "name": "G2",
          "midi": 43,
          "time": 52.45348837209004,
          "velocity": 0.2440944881889764,
          "duration": 0.023255813953483084
        },
        {
          "name": "G#3",
          "midi": 56,
          "time": 52.45348837209004,
          "velocity": 0.44881889763779526,
          "duration": 0.0813953488371908
        },
        {
          "name": "G4",
          "midi": 67,
          "time": 52.45348837209004,
          "velocity": 0.30708661417322836,
          "duration": 0.1627906976743816
        },
        {
          "name": "E6",
          "midi": 88,
          "time": 52.45348837209004,
          "velocity": 0.23622047244094488,
          "duration": 0.034883720930224626
        },
        {
          "name": "B5",
          "midi": 83,
          "time": 52.465116279066784,
          "velocity": 0.4015748031496063,
          "duration": 0.12790697674415696
        },
        {
          "name": "D#6",
          "midi": 87,
          "time": 52.48837209302027,
          "velocity": 0.1889763779527559,
          "duration": 0.09302325581393234
        },
        {
          "name": "F6",
          "midi": 89,
          "time": 52.48837209302027,
          "velocity": 0.3543307086614173,
          "duration": 0.11627906976741542
        },
        {
          "name": "G#2",
          "midi": 44,
          "time": 52.49999999999701,
          "velocity": 0.31496062992125984,
          "duration": 0.023255813953483084
        },
        {
          "name": "D#4",
          "midi": 63,
          "time": 52.49999999999701,
          "velocity": 0.25984251968503935,
          "duration": 0.09302325581393234
        },
        {
          "name": "G6",
          "midi": 91,
          "time": 52.51162790697375,
          "velocity": 0.4251968503937008,
          "duration": 0.09302325581393234
        },
        {
          "name": "F#7",
          "midi": 102,
          "time": 52.546511627903975,
          "velocity": 0.2283464566929134,
          "duration": 0.15116279069764005
        },
        {
          "name": "G2",
          "midi": 43,
          "time": 52.558139534880716,
          "velocity": 0.2677165354330709,
          "duration": 0.023255813953483084
        },
        {
          "name": "A6",
          "midi": 93,
          "time": 52.56976744185746,
          "velocity": 0.2755905511811024,
          "duration": 0.06976744186044925
        },
        {
          "name": "C#1",
          "midi": 25,
          "time": 52.59302325581094,
          "velocity": 0.7086614173228346,
          "duration": 0.011627906976741542
        },
        {
          "name": "F5",
          "midi": 77,
          "time": 52.59302325581094,
          "velocity": 0.2283464566929134,
          "duration": 0.12790697674415696
        },
        {
          "name": "A5",
          "midi": 81,
          "time": 52.59302325581094,
          "velocity": 0.2125984251968504,
          "duration": 0.0813953488371908
        },
        {
          "name": "G#6",
          "midi": 92,
          "time": 52.59302325581094,
          "velocity": 0.07874015748031496,
          "duration": 0.034883720930224626
        },
        {
          "name": "E7",
          "midi": 100,
          "time": 52.59302325581094,
          "velocity": 0.2440944881889764,
          "duration": 0.06976744186044925
        },
        {
          "name": "C1",
          "midi": 24,
          "time": 52.60465116278768,
          "velocity": 0.7559055118110236,
          "duration": 0.2790697674418112
        },
        {
          "name": "G3",
          "midi": 55,
          "time": 52.60465116278768,
          "velocity": 0.33070866141732286,
          "duration": 0.04651162790696617
        },
        {
          "name": "F4",
          "midi": 65,
          "time": 52.60465116278768,
          "velocity": 0.3779527559055118,
          "duration": 0.06976744186044925
        },
        {
          "name": "C5",
          "midi": 72,
          "time": 52.60465116278768,
          "velocity": 0.4566929133858268,
          "duration": 0.0813953488371908
        },
        {
          "name": "D#5",
          "midi": 75,
          "time": 52.60465116278768,
          "velocity": 0.3228346456692913,
          "duration": 0.20930232558135486
        },
        {
          "name": "G5",
          "midi": 79,
          "time": 52.65116279069465,
          "velocity": 0.33858267716535434,
          "duration": 0.2790697674418112
        },
        {
          "name": "C7",
          "midi": 96,
          "time": 52.65116279069465,
          "velocity": 0.1889763779527559,
          "duration": 0.034883720930224626
        },
        {
          "name": "G#6",
          "midi": 92,
          "time": 52.67441860464813,
          "velocity": 0.10236220472440945,
          "duration": 0.04651162790696617
        },
        {
          "name": "A#6",
          "midi": 94,
          "time": 52.67441860464813,
          "velocity": 0.2204724409448819,
          "duration": 0.04651162790696617
        },
        {
          "name": "B6",
          "midi": 95,
          "time": 52.67441860464813,
          "velocity": 0.2047244094488189,
          "duration": 0.05813953488370771
        },
        {
          "name": "D#4",
          "midi": 63,
          "time": 52.68604651162487,
          "velocity": 0.3700787401574803,
          "duration": 0.023255813953483084
        },
        {
          "name": "A#5",
          "midi": 82,
          "time": 52.68604651162487,
          "velocity": 0.08661417322834646,
          "duration": 0.034883720930224626
        },
        {
          "name": "E7",
          "midi": 100,
          "time": 52.68604651162487,
          "velocity": 0.09448818897637795,
          "duration": 0.034883720930224626
        },
        {
          "name": "D#3",
          "midi": 51,
          "time": 52.697674418601615,
          "velocity": 0.28346456692913385,
          "duration": 0.023255813953483084
        },
        {
          "name": "D4",
          "midi": 62,
          "time": 52.709302325578356,
          "velocity": 0.2992125984251969,
          "duration": 0.023255813953483084
        },
        {
          "name": "G4",
          "midi": 67,
          "time": 52.709302325578356,
          "velocity": 0.41732283464566927,
          "duration": 0.12790697674416407
        },
        {
          "name": "D6",
          "midi": 86,
          "time": 52.709302325578356,
          "velocity": 0.08661417322834646,
          "duration": 0.034883720930224626
        },
        {
          "name": "A4",
          "midi": 69,
          "time": 52.7209302325551,
          "velocity": 0.2283464566929134,
          "duration": 0.023255813953483084
        },
        {
          "name": "C7",
          "midi": 96,
          "time": 52.7209302325551,
          "velocity": 0.15748031496062992,
          "duration": 0.04651162790696617
        },
        {
          "name": "F7",
          "midi": 101,
          "time": 52.7209302325551,
          "velocity": 0.15748031496062992,
          "duration": 0.034883720930224626
        },
        {
          "name": "D#7",
          "midi": 99,
          "time": 52.74418604650858,
          "velocity": 0.11023622047244094,
          "duration": 0.06976744186045636
        },
        {
          "name": "C5",
          "midi": 72,
          "time": 52.75581395348532,
          "velocity": 0.2125984251968504,
          "duration": 0.03488372093023173
        },
        {
          "name": "A#5",
          "midi": 82,
          "time": 52.75581395348532,
          "velocity": 0.07874015748031496,
          "duration": 0.046511627906973274
        },
        {
          "name": "E7",
          "midi": 100,
          "time": 52.75581395348532,
          "velocity": 0.11811023622047244,
          "duration": 0.03488372093023173
        },
        {
          "name": "C4",
          "midi": 60,
          "time": 52.767441860462064,
          "velocity": 0.3464566929133858,
          "duration": 0.06976744186045636
        },
        {
          "name": "A#6",
          "midi": 94,
          "time": 52.767441860462064,
          "velocity": 0.11811023622047244,
          "duration": 0.03488372093023173
        },
        {
          "name": "G#3",
          "midi": 56,
          "time": 52.790697674415554,
          "velocity": 0.31496062992125984,
          "duration": 0.04651162790696617
        },
        {
          "name": "D#4",
          "midi": 63,
          "time": 52.82558139534578,
          "velocity": 0.2677165354330709,
          "duration": 0.03488372093023173
        },
        {
          "name": "B3",
          "midi": 59,
          "time": 52.83720930232252,
          "velocity": 0.3228346456692913,
          "duration": 0.03488372093023173
        },
        {
          "name": "C4",
          "midi": 60,
          "time": 52.87209302325275,
          "velocity": 0.31496062992125984,
          "duration": 0.023255813953483084
        },
        {
          "name": "D1",
          "midi": 26,
          "time": 52.883720930229494,
          "velocity": 0.7322834645669292,
          "duration": 0.011627906976741542
        },
        {
          "name": "B0",
          "midi": 23,
          "time": 52.895348837206235,
          "velocity": 0.6377952755905512,
          "duration": 0.011627906976741542
        },
        {
          "name": "C#4",
          "midi": 61,
          "time": 52.895348837206235,
          "velocity": 0.31496062992125984,
          "duration": 0.023255813953483084
        },
        {
          "name": "A#4",
          "midi": 70,
          "time": 52.895348837206235,
          "velocity": 0.23622047244094488,
          "duration": 0.023255813953483084
        },
        {
          "name": "G0",
          "midi": 19,
          "time": 52.90697674418298,
          "velocity": 0.5354330708661418,
          "duration": 0.011627906976741542
        },
        {
          "name": "G#3",
          "midi": 56,
          "time": 52.90697674418298,
          "velocity": 0.1732283464566929,
          "duration": 0.034883720930224626
        },
        {
          "name": "C6",
          "midi": 84,
          "time": 52.90697674418298,
          "velocity": 0.2047244094488189,
          "duration": 0.05813953488370771
        },
        {
          "name": "D6",
          "midi": 86,
          "time": 52.90697674418298,
          "velocity": 0.29133858267716534,
          "duration": 0.0813953488371908
        },
        {
          "name": "E6",
          "midi": 88,
          "time": 52.90697674418298,
          "velocity": 0.2125984251968504,
          "duration": 0.04651162790696617
        },
        {
          "name": "A6",
          "midi": 93,
          "time": 52.90697674418298,
          "velocity": 0.2992125984251969,
          "duration": 0.0813953488371908
        },
        {
          "name": "A#6",
          "midi": 94,
          "time": 52.90697674418298,
          "velocity": 0.33858267716535434,
          "duration": 0.1627906976743887
        },
        {
          "name": "E5",
          "midi": 76,
          "time": 52.91860465115972,
          "velocity": 0.2204724409448819,
          "duration": 0.034883720930224626
        },
        {
          "name": "G#5",
          "midi": 80,
          "time": 52.91860465115972,
          "velocity": 0.2992125984251969,
          "duration": 0.034883720930224626
        },
        {
          "name": "B6",
          "midi": 95,
          "time": 52.91860465115972,
          "velocity": 0.2440944881889764,
          "duration": 0.06976744186044925
        },
        {
          "name": "C7",
          "midi": 96,
          "time": 52.91860465115972,
          "velocity": 0.23622047244094488,
          "duration": 0.1627906976743887
        },
        {
          "name": "C#7",
          "midi": 97,
          "time": 52.91860465115972,
          "velocity": 0.12598425196850394,
          "duration": 0.0813953488371908
        },
        {
          "name": "E7",
          "midi": 100,
          "time": 52.91860465115972,
          "velocity": 0.2125984251968504,
          "duration": 0.09302325581393234
        },
        {
          "name": "D#4",
          "midi": 63,
          "time": 52.93023255813646,
          "velocity": 0.3858267716535433,
          "duration": 0.034883720930224626
        },
        {
          "name": "C5",
          "midi": 72,
          "time": 52.93023255813646,
          "velocity": 0.3228346456692913,
          "duration": 0.05813953488370771
        },
        {
          "name": "F#5",
          "midi": 78,
          "time": 52.93023255813646,
          "velocity": 0.3464566929133858,
          "duration": 0.034883720930224626
        },
        {
          "name": "B5",
          "midi": 83,
          "time": 52.93023255813646,
          "velocity": 0.2755905511811024,
          "duration": 0.09302325581393234
        },
        {
          "name": "F6",
          "midi": 89,
          "time": 52.93023255813646,
          "velocity": 0.1968503937007874,
          "duration": 0.05813953488370771
        },
        {
          "name": "D#7",
          "midi": 99,
          "time": 52.93023255813646,
          "velocity": 0.33858267716535434,
          "duration": 0.23255813953485216
        },
        {
          "name": "G7",
          "midi": 103,
          "time": 52.93023255813646,
          "velocity": 0.11811023622047244,
          "duration": 0.05813953488370771
        },
        {
          "name": "G#4",
          "midi": 68,
          "time": 52.9418604651132,
          "velocity": 0.2440944881889764,
          "duration": 0.023255813953483084
        },
        {
          "name": "G5",
          "midi": 79,
          "time": 52.9418604651132,
          "velocity": 0.3858267716535433,
          "duration": 0.023255813953483084
        },
        {
          "name": "F#7",
          "midi": 102,
          "time": 52.9418604651132,
          "velocity": 0.15748031496062992,
          "duration": 0.04651162790696617
        },
        {
          "name": "D#5",
          "midi": 75,
          "time": 52.95348837208994,
          "velocity": 0.4645669291338583,
          "duration": 0.23255813953485216
        },
        {
          "name": "A#5",
          "midi": 82,
          "time": 52.95348837208994,
          "velocity": 0.25196850393700787,
          "duration": 0.023255813953483084
        },
        {
          "name": "D#4",
          "midi": 63,
          "time": 52.976744186043426,
          "velocity": 0.1968503937007874,
          "duration": 0.17441860465114445
        },
        {
          "name": "G#4",
          "midi": 68,
          "time": 52.976744186043426,
          "velocity": 0.49606299212598426,
          "duration": 0.33720930232553314
        },
        {
          "name": "G5",
          "midi": 79,
          "time": 52.976744186043426,
          "velocity": 0.31496062992125984,
          "duration": 0.05813953488370771
        },
        {
          "name": "G#3",
          "midi": 56,
          "time": 52.98837209302017,
          "velocity": 0.47244094488188976,
          "duration": 0.33720930232553314
        },
        {
          "name": "G#6",
          "midi": 92,
          "time": 52.98837209302017,
          "velocity": 0.1889763779527559,
          "duration": 0.20930232558136908
        },
        {
          "name": "C#7",
          "midi": 97,
          "time": 53.01162790697365,
          "velocity": 0.2283464566929134,
          "duration": 0.023255813953483084
        },
        {
          "name": "C5",
          "midi": 72,
          "time": 53.046511627903875,
          "velocity": 0.2283464566929134,
          "duration": 0.081395348837205
        },
        {
          "name": "C6",
          "midi": 84,
          "time": 53.069767441857365,
          "velocity": 0.25984251968503935,
          "duration": 0.23255813953485216
        },
        {
          "name": "F#6",
          "midi": 90,
          "time": 53.09302325581085,
          "velocity": 0.2992125984251969,
          "duration": 0.09302325581394655
        },
        {
          "name": "G5",
          "midi": 79,
          "time": 53.12790697674108,
          "velocity": 0.23622047244094488,
          "duration": 0.02325581395349019
        },
        {
          "name": "B4",
          "midi": 71,
          "time": 53.15116279069457,
          "velocity": 0.23622047244094488,
          "duration": 0.023255813953483084
        },
        {
          "name": "D6",
          "midi": 86,
          "time": 53.15116279069457,
          "velocity": 0.25984251968503935,
          "duration": 0.05813953488370771
        },
        {
          "name": "D4",
          "midi": 62,
          "time": 53.16279069767131,
          "velocity": 0.29133858267716534,
          "duration": 0.4302325581394726
        },
        {
          "name": "D5",
          "midi": 74,
          "time": 53.174418604648054,
          "velocity": 0.3937007874015748,
          "duration": 0.05813953488370771
        },
        {
          "name": "A#4",
          "midi": 70,
          "time": 53.186046511624795,
          "velocity": 0.18110236220472442,
          "duration": 0.04651162790696617
        },
        {
          "name": "A#6",
          "midi": 94,
          "time": 53.186046511624795,
          "velocity": 0.2283464566929134,
          "duration": 0.0813953488371979
        },
        {
          "name": "E7",
          "midi": 100,
          "time": 53.19767441860154,
          "velocity": 0.13385826771653545,
          "duration": 0.058139534883714816
        },
        {
          "name": "C#7",
          "midi": 97,
          "time": 53.20930232557828,
          "velocity": 0.10236220472440945,
          "duration": 0.046511627906973274
        },
        {
          "name": "D#5",
          "midi": 75,
          "time": 53.22093023255502,
          "velocity": 0.3700787401574803,
          "duration": 0.12790697674416407
        },
        {
          "name": "D#7",
          "midi": 99,
          "time": 53.22093023255502,
          "velocity": 0.2047244094488189,
          "duration": 0.06976744186045636
        },
        {
          "name": "A5",
          "midi": 81,
          "time": 53.23255813953176,
          "velocity": 0.07874015748031496,
          "duration": 0.046511627906973274
        },
        {
          "name": "G5",
          "midi": 79,
          "time": 53.26744186046199,
          "velocity": 0.5905511811023622,
          "duration": 0.27906976744181833
        },
        {
          "name": "A#4",
          "midi": 70,
          "time": 53.30232558139222,
          "velocity": 0.1732283464566929,
          "duration": 0.034883720930224626
        },
        {
          "name": "G4",
          "midi": 67,
          "time": 53.31395348836896,
          "velocity": 0.28346456692913385,
          "duration": 0.023255813953483084
        },
        {
          "name": "G3",
          "midi": 55,
          "time": 53.3255813953457,
          "velocity": 0.41732283464566927,
          "duration": 0.023255813953483084
        },
        {
          "name": "G#4",
          "midi": 68,
          "time": 53.33720930232244,
          "velocity": 0.5354330708661418,
          "duration": 0.046511627906973274
        },
        {
          "name": "G#3",
          "midi": 56,
          "time": 53.348837209299184,
          "velocity": 0.44881889763779526,
          "duration": 0.02325581395349019
        },
        {
          "name": "D5",
          "midi": 74,
          "time": 53.348837209299184,
          "velocity": 0.5118110236220472,
          "duration": 0.046511627906973274
        },
        {
          "name": "G3",
          "midi": 55,
          "time": 53.372093023252674,
          "velocity": 0.4409448818897638,
          "duration": 0.034883720930224626
        },
        {
          "name": "F6",
          "midi": 89,
          "time": 53.372093023252674,
          "velocity": 0.3228346456692913,
          "duration": 0.11627906976742253
        },
        {
          "name": "E6",
          "midi": 88,
          "time": 53.383720930229416,
          "velocity": 0.16535433070866143,
          "duration": 0.034883720930224626
        },
        {
          "name": "A6",
          "midi": 93,
          "time": 53.383720930229416,
          "velocity": 0.2440944881889764,
          "duration": 0.13953488372091272
        },
        {
          "name": "D#5",
          "midi": 75,
          "time": 53.39534883720616,
          "velocity": 0.4251968503937008,
          "duration": 0.034883720930224626
        },
        {
          "name": "B5",
          "midi": 83,
          "time": 53.39534883720616,
          "velocity": 0.23622047244094488,
          "duration": 0.12790697674417117
        },
        {
          "name": "A#5",
          "midi": 82,
          "time": 53.4069767441829,
          "velocity": 0.10236220472440945,
          "duration": 0.034883720930224626
        },
        {
          "name": "D6",
          "midi": 86,
          "time": 53.4069767441829,
          "velocity": 0.3464566929133858,
          "duration": 0.10465116279068809
        },
        {
          "name": "G3",
          "midi": 55,
          "time": 53.41860465115964,
          "velocity": 0.3779527559055118,
          "duration": 0.11627906976742963
        },
        {
          "name": "D5",
          "midi": 74,
          "time": 53.41860465115964,
          "velocity": 0.3543307086614173,
          "duration": 0.13953488372091272
        },
        {
          "name": "A5",
          "midi": 81,
          "time": 53.44186046511312,
          "velocity": 0.11023622047244094,
          "duration": 0.06976744186046346
        },
        {
          "name": "C7",
          "midi": 96,
          "time": 53.44186046511312,
          "velocity": 0.13385826771653545,
          "duration": 0.03488372093023173
        },
        {
          "name": "G#4",
          "midi": 68,
          "time": 53.46511627906661,
          "velocity": 0.30708661417322836,
          "duration": 0.12790697674417117
        },
        {
          "name": "A#4",
          "midi": 70,
          "time": 53.4883720930201,
          "velocity": 0.14960629921259844,
          "duration": 0.03488372093023173
        },
        {
          "name": "D#7",
          "midi": 99,
          "time": 53.4883720930201,
          "velocity": 0.2204724409448819,
          "duration": 0.06976744186045636
        },
        {
          "name": "F4",
          "midi": 65,
          "time": 53.52325581395033,
          "velocity": 0.31496062992125984,
          "duration": 0.06976744186045636
        },
        {
          "name": "D6",
          "midi": 86,
          "time": 53.52325581395033,
          "velocity": 0.36220472440944884,
          "duration": 0.22093023255811062
        },
        {
          "name": "C5",
          "midi": 72,
          "time": 53.53488372092707,
          "velocity": 0.4330708661417323,
          "duration": 0.09302325581393944
        },
        {
          "name": "F3",
          "midi": 53,
          "time": 53.54651162790381,
          "velocity": 0.2283464566929134,
          "duration": 0.03488372093023173
        },
        {
          "name": "D5",
          "midi": 74,
          "time": 53.593023255810785,
          "velocity": 0.2283464566929134,
          "duration": 0.0813953488371979
        },
        {
          "name": "G5",
          "midi": 79,
          "time": 53.593023255810785,
          "velocity": 0.23622047244094488,
          "duration": 0.10465116279068098
        },
        {
          "name": "B5",
          "midi": 83,
          "time": 53.593023255810785,
          "velocity": 0.18110236220472442,
          "duration": 0.05813953488370771
        },
        {
          "name": "C7",
          "midi": 96,
          "time": 53.593023255810785,
          "velocity": 0.07874015748031496,
          "duration": 0.04651162790696617
        },
        {
          "name": "D4",
          "midi": 62,
          "time": 53.604651162787526,
          "velocity": 0.2283464566929134,
          "duration": 0.20930232558136908
        },
        {
          "name": "G#4",
          "midi": 68,
          "time": 53.604651162787526,
          "velocity": 0.25984251968503935,
          "duration": 0.1627906976743958
        },
        {
          "name": "D#6",
          "midi": 87,
          "time": 53.604651162787526,
          "velocity": 0.33070866141732286,
          "duration": 0.034883720930224626
        },
        {
          "name": "E7",
          "midi": 100,
          "time": 53.604651162787526,
          "velocity": 0.10236220472440945,
          "duration": 0.04651162790696617
        },
        {
          "name": "C#6",
          "midi": 85,
          "time": 53.61627906976427,
          "velocity": 0.2047244094488189,
          "duration": 0.034883720930224626
        },
        {
          "name": "D0",
          "midi": 14,
          "time": 53.65116279069449,
          "velocity": 0.2125984251968504,
          "duration": 0.03488372093023173
        },
        {
          "name": "G5",
          "midi": 79,
          "time": 53.75581395348518,
          "velocity": 0.36220472440944884,
          "duration": 0.0813953488371979
        },
        {
          "name": "G4",
          "midi": 67,
          "time": 53.79069767441541,
          "velocity": 0.2992125984251969,
          "duration": 0.023255813953483084
        },
        {
          "name": "F5",
          "midi": 77,
          "time": 53.802325581392154,
          "velocity": 0.18110236220472442,
          "duration": 0.034883720930224626
        },
        {
          "name": "C6",
          "midi": 84,
          "time": 53.802325581392154,
          "velocity": 0.23622047244094488,
          "duration": 0.04651162790696617
        },
        {
          "name": "D6",
          "midi": 86,
          "time": 53.802325581392154,
          "velocity": 0.28346456692913385,
          "duration": 0.0813953488371908
        },
        {
          "name": "E6",
          "midi": 88,
          "time": 53.802325581392154,
          "velocity": 0.36220472440944884,
          "duration": 0.06976744186044925
        },
        {
          "name": "F6",
          "midi": 89,
          "time": 53.802325581392154,
          "velocity": 0.30708661417322836,
          "duration": 0.034883720930224626
        },
        {
          "name": "G#6",
          "midi": 92,
          "time": 53.802325581392154,
          "velocity": 0.12598425196850394,
          "duration": 0.034883720930224626
        },
        {
          "name": "B1",
          "midi": 35,
          "time": 53.813953488368895,
          "velocity": 0.5354330708661418,
          "duration": 0.011627906976741542
        },
        {
          "name": "D3",
          "midi": 50,
          "time": 53.813953488368895,
          "velocity": 0.2440944881889764,
          "duration": 0.034883720930224626
        },
        {
          "name": "G#4",
          "midi": 68,
          "time": 53.813953488368895,
          "velocity": 0.30708661417322836,
          "duration": 0.023255813953483084
        },
        {
          "name": "D#5",
          "midi": 75,
          "time": 53.813953488368895,
          "velocity": 0.25196850393700787,
          "duration": 0.034883720930224626
        },
        {
          "name": "A5",
          "midi": 81,
          "time": 53.813953488368895,
          "velocity": 0.5590551181102362,
          "duration": 0.05813953488370771
        },
        {
          "name": "D#6",
          "midi": 87,
          "time": 53.813953488368895,
          "velocity": 0.3779527559055118,
          "duration": 0.04651162790696617
        },
        {
          "name": "G1",
          "midi": 31,
          "time": 53.82558139534564,
          "velocity": 0.7086614173228346,
          "duration": 0.023255813953483084
        },
        {
          "name": "F#6",
          "midi": 90,
          "time": 53.83720930232238,
          "velocity": 0.2677165354330709,
          "duration": 0.023255813953483084
        },
        {
          "name": "G#1",
          "midi": 32,
          "time": 53.84883720929912,
          "velocity": 0.7637795275590551,
          "duration": 0.6046511627905673
        },
        {
          "name": "D#3",
          "midi": 51,
          "time": 53.84883720929912,
          "velocity": 0.23622047244094488,
          "duration": 0.023255813953483084
        },
        {
          "name": "F#4",
          "midi": 66,
          "time": 53.84883720929912,
          "velocity": 0.2047244094488189,
          "duration": 0.034883720930224626
        },
        {
          "name": "D5",
          "midi": 74,
          "time": 53.84883720929912,
          "velocity": 0.4094488188976378,
          "duration": 0.034883720930224626
        },
        {
          "name": "G5",
          "midi": 79,
          "time": 53.84883720929912,
          "velocity": 0.4566929133858268,
          "duration": 0.034883720930224626
        },
        {
          "name": "B5",
          "midi": 83,
          "time": 53.84883720929912,
          "velocity": 0.33070866141732286,
          "duration": 0.06976744186044925
        },
        {
          "name": "A#4",
          "midi": 70,
          "time": 53.86046511627586,
          "velocity": 0.11023622047244094,
          "duration": 0.04651162790696617
        },
        {
          "name": "C6",
          "midi": 84,
          "time": 53.86046511627586,
          "velocity": 0.29133858267716534,
          "duration": 0.12790697674415696
        },
        {
          "name": "F6",
          "midi": 89,
          "time": 53.86046511627586,
          "velocity": 0.2283464566929134,
          "duration": 0.023255813953483084
        },
        {
          "name": "G#3",
          "midi": 56,
          "time": 53.8720930232526,
          "velocity": 0.25984251968503935,
          "duration": 0.0813953488371908
        },
        {
          "name": "D#4",
          "midi": 63,
          "time": 53.8720930232526,
          "velocity": 0.3937007874015748,
          "duration": 0.06976744186044925
        },
        {
          "name": "G#4",
          "midi": 68,
          "time": 53.8720930232526,
          "velocity": 0.33070866141732286,
          "duration": 0.23255813953483795
        },
        {
          "name": "F#6",
          "midi": 90,
          "time": 53.8720930232526,
          "velocity": 0.23622047244094488,
          "duration": 0.06976744186044925
        },
        {
          "name": "A#6",
          "midi": 94,
          "time": 53.8720930232526,
          "velocity": 0.2047244094488189,
          "duration": 0.2209302325580964
        },
        {
          "name": "D#3",
          "midi": 51,
          "time": 53.883720930229345,
          "velocity": 0.29133858267716534,
          "duration": 0.2674418604650626
        },
        {
          "name": "D#5",
          "midi": 75,
          "time": 53.883720930229345,
          "velocity": 0.5826771653543307,
          "duration": 0.31395348837202874
        },
        {
          "name": "G#5",
          "midi": 80,
          "time": 53.883720930229345,
          "velocity": 0.4094488188976378,
          "duration": 0.034883720930224626
        },
        {
          "name": "E7",
          "midi": 100,
          "time": 53.883720930229345,
          "velocity": 0.1889763779527559,
          "duration": 0.06976744186044925
        },
        {
          "name": "G5",
          "midi": 79,
          "time": 53.895348837206086,
          "velocity": 0.2755905511811024,
          "duration": 0.0813953488371908
        },
        {
          "name": "A#5",
          "midi": 82,
          "time": 53.91860465115957,
          "velocity": 0.33858267716535434,
          "duration": 0.3255813953487703
        },
        {
          "name": "F7",
          "midi": 101,
          "time": 53.91860465115957,
          "velocity": 0.09448818897637795,
          "duration": 0.034883720930224626
        },
        {
          "name": "C4",
          "midi": 60,
          "time": 53.93023255813631,
          "velocity": 0.2283464566929134,
          "duration": 0.09302325581393234
        },
        {
          "name": "F#4",
          "midi": 66,
          "time": 53.953488372089794,
          "velocity": 0.14960629921259844,
          "duration": 0.04651162790696617
        },
        {
          "name": "G#3",
          "midi": 56,
          "time": 53.965116279066535,
          "velocity": 0.33070866141732286,
          "duration": 0.0813953488371979
        },
        {
          "name": "F7",
          "midi": 101,
          "time": 53.98837209302002,
          "velocity": 0.14173228346456693,
          "duration": 0.034883720930224626
        },
        {
          "name": "A#4",
          "midi": 70,
          "time": 54.0116279069735,
          "velocity": 0.33858267716535434,
          "duration": 0.1395348837209056
        },
        {
          "name": "E7",
          "midi": 100,
          "time": 54.0116279069735,
          "velocity": 0.16535433070866143,
          "duration": 0.06976744186045636
        },
        {
          "name": "D4",
          "midi": 62,
          "time": 54.02325581395024,
          "velocity": 0.3543307086614173,
          "duration": 0.03488372093023173
        },
        {
          "name": "A3",
          "midi": 57,
          "time": 54.04651162790373,
          "velocity": 0.3464566929133858,
          "duration": 0.023255813953483084
        },
        {
          "name": "F5",
          "midi": 77,
          "time": 54.04651162790373,
          "velocity": 0.2204724409448819,
          "duration": 0.09302325581393234
        },
        {
          "name": "D#4",
          "midi": 63,
          "time": 54.058139534880475,
          "velocity": 0.3464566929133858,
          "duration": 0.04651162790696617
        },
        {
          "name": "F#6",
          "midi": 90,
          "time": 54.058139534880475,
          "velocity": 0.33858267716535434,
          "duration": 0.11627906976741542
        },
        {
          "name": "G#3",
          "midi": 56,
          "time": 54.069767441857216,
          "velocity": 0.3937007874015748,
          "duration": 0.034883720930224626
        },
        {
          "name": "E7",
          "midi": 100,
          "time": 54.0930232558107,
          "velocity": 0.31496062992125984,
          "duration": 0.06976744186044925
        },
        {
          "name": "D4",
          "midi": 62,
          "time": 54.10465116278744,
          "velocity": 0.3543307086614173,
          "duration": 0.023255813953483084
        },
        {
          "name": "C6",
          "midi": 84,
          "time": 54.11627906976418,
          "velocity": 0.16535433070866143,
          "duration": 0.11627906976741542
        },
        {
          "name": "G#3",
          "midi": 56,
          "time": 54.139534883717666,
          "velocity": 0.3700787401574803,
          "duration": 0.04651162790696617
        },
        {
          "name": "D#3",
          "midi": 51,
          "time": 54.16279069767115,
          "velocity": 0.29133858267716534,
          "duration": 0.04651162790696617
        },
        {
          "name": "C4",
          "midi": 60,
          "time": 54.16279069767115,
          "velocity": 0.18110236220472442,
          "duration": 0.034883720930224626
        },
        {
          "name": "A#4",
          "midi": 70,
          "time": 54.17441860464789,
          "velocity": 0.14960629921259844,
          "duration": 0.06976744186044925
        },
        {
          "name": "D5",
          "midi": 74,
          "time": 54.18604651162463,
          "velocity": 0.23622047244094488,
          "duration": 0.023255813953483084
        },
        {
          "name": "G3",
          "midi": 55,
          "time": 54.19767441860137,
          "velocity": 0.4094488188976378,
          "duration": 0.05813953488370771
        },
        {
          "name": "D#5",
          "midi": 75,
          "time": 54.209302325578115,
          "velocity": 0.2677165354330709,
          "duration": 0.023255813953483084
        },
        {
          "name": "D5",
          "midi": 74,
          "time": 54.220930232554856,
          "velocity": 0.41732283464566927,
          "duration": 0.1395348837208985
        },
        {
          "name": "G#4",
          "midi": 68,
          "time": 54.2325581395316,
          "velocity": 0.4251968503937008,
          "duration": 0.034883720930224626
        },
        {
          "name": "G5",
          "midi": 79,
          "time": 54.2325581395316,
          "velocity": 0.3464566929133858,
          "duration": 0.18604651162786467
        },
        {
          "name": "B5",
          "midi": 83,
          "time": 54.2325581395316,
          "velocity": 0.33070866141732286,
          "duration": 0.1627906976743816
        },
        {
          "name": "C4",
          "midi": 60,
          "time": 54.24418604650834,
          "velocity": 0.23622047244094488,
          "duration": 0.034883720930224626
        },
        {
          "name": "D#3",
          "midi": 51,
          "time": 54.25581395348508,
          "velocity": 0.2677165354330709,
          "duration": 0.0813953488371908
        },
        {
          "name": "G#3",
          "midi": 56,
          "time": 54.25581395348508,
          "velocity": 0.3858267716535433,
          "duration": 0.12790697674415696
        },
        {
          "name": "D#4",
          "midi": 63,
          "time": 54.25581395348508,
          "velocity": 0.30708661417322836,
          "duration": 0.034883720930224626
        },
        {
          "name": "A5",
          "midi": 81,
          "time": 54.25581395348508,
          "velocity": 0.25196850393700787,
          "duration": 0.11627906976741542
        },
        {
          "name": "E6",
          "midi": 88,
          "time": 54.25581395348508,
          "velocity": 0.1889763779527559,
          "duration": 0.034883720930224626
        },
        {
          "name": "G4",
          "midi": 67,
          "time": 54.26744186046182,
          "velocity": 0.3937007874015748,
          "duration": 0.15116279069764005
        },
        {
          "name": "E5",
          "midi": 76,
          "time": 54.26744186046182,
          "velocity": 0.23622047244094488,
          "duration": 0.04651162790696617
        },
        {
          "name": "A#4",
          "midi": 70,
          "time": 54.279069767438564,
          "velocity": 0.16535433070866143,
          "duration": 0.09302325581393234
        },
        {
          "name": "D#6",
          "midi": 87,
          "time": 54.290697674415306,
          "velocity": 0.2047244094488189,
          "duration": 0.034883720930224626
        },
        {
          "name": "F6",
          "midi": 89,
          "time": 54.290697674415306,
          "velocity": 0.4251968503937008,
          "duration": 0.11627906976741542
        },
        {
          "name": "A6",
          "midi": 93,
          "time": 54.290697674415306,
          "velocity": 0.2677165354330709,
          "duration": 0.1627906976743816
        },
        {
          "name": "D#4",
          "midi": 63,
          "time": 54.30232558139205,
          "velocity": 0.2992125984251969,
          "duration": 0.09302325581393234
        },
        {
          "name": "G6",
          "midi": 91,
          "time": 54.30232558139205,
          "velocity": 0.4330708661417323,
          "duration": 0.10465116279067388
        },
        {
          "name": "F#7",
          "midi": 102,
          "time": 54.31395348836879,
          "velocity": 0.2677165354330709,
          "duration": 0.20930232558134776
        },
        {
          "name": "D#5",
          "midi": 75,
          "time": 54.34883720929901,
          "velocity": 0.3700787401574803,
          "duration": 0.1395348837208985
        },
        {
          "name": "D#3",
          "midi": 51,
          "time": 54.372093023252496,
          "velocity": 0.29133858267716534,
          "duration": 0.04651162790696617
        },
        {
          "name": "D5",
          "midi": 74,
          "time": 54.372093023252496,
          "velocity": 0.25196850393700787,
          "duration": 0.023255813953483084
        },
        {
          "name": "C4",
          "midi": 60,
          "time": 54.39534883720598,
          "velocity": 0.2283464566929134,
          "duration": 0.023255813953483084
        },
        {
          "name": "A#5",
          "midi": 82,
          "time": 54.39534883720598,
          "velocity": 0.2047244094488189,
          "duration": 0.12790697674415696
        },
        {
          "name": "C5",
          "midi": 72,
          "time": 54.40697674418272,
          "velocity": 0.33070866141732286,
          "duration": 0.09302325581393234
        },
        {
          "name": "F5",
          "midi": 77,
          "time": 54.40697674418272,
          "velocity": 0.3228346456692913,
          "duration": 0.06976744186044925
        },
        {
          "name": "E7",
          "midi": 100,
          "time": 54.40697674418272,
          "velocity": 0.1968503937007874,
          "duration": 0.11627906976741542
        },
        {
          "name": "F4",
          "midi": 65,
          "time": 54.41860465115946,
          "velocity": 0.3779527559055118,
          "duration": 0.0813953488371908
        },
        {
          "name": "A5",
          "midi": 81,
          "time": 54.430232558136204,
          "velocity": 0.2283464566929134,
          "duration": 0.15116279069764005
        },
        {
          "name": "B6",
          "midi": 95,
          "time": 54.430232558136204,
          "velocity": 0.25196850393700787,
          "duration": 0.04651162790696617
        },
        {
          "name": "C#7",
          "midi": 97,
          "time": 54.441860465112946,
          "velocity": 0.15748031496062992,
          "duration": 0.05813953488370771
        },
        {
          "name": "G1",
          "midi": 31,
          "time": 54.45348837208969,
          "velocity": 0.6929133858267716,
          "duration": 0.011627906976741542
        },
        {
          "name": "F1",
          "midi": 29,
          "time": 54.46511627906643,
          "velocity": 0.5511811023622047,
          "duration": 0.011627906976741542
        },
        {
          "name": "E3",
          "midi": 52,
          "time": 54.46511627906643,
          "velocity": 0.2755905511811024,
          "duration": 0.034883720930224626
        },
        {
          "name": "D5",
          "midi": 74,
          "time": 54.47674418604317,
          "velocity": 0.4094488188976378,
          "duration": 0.0813953488371908
        },
        {
          "name": "A#6",
          "midi": 94,
          "time": 54.47674418604317,
          "velocity": 0.2204724409448819,
          "duration": 0.15116279069764005
        },
        {
          "name": "D0",
          "midi": 14,
          "time": 54.48837209301991,
          "velocity": 0.5511811023622047,
          "duration": 0.011627906976741542
        },
        {
          "name": "G#3",
          "midi": 56,
          "time": 54.48837209301991,
          "velocity": 0.3937007874015748,
          "duration": 0.1395348837208985
        },
        {
          "name": "D#7",
          "midi": 99,
          "time": 54.48837209301991,
          "velocity": 0.07086614173228346,
          "duration": 0.034883720930224626
        },
        {
          "name": "G1",
          "midi": 31,
          "time": 54.49999999999665,
          "velocity": 0.7637795275590551,
          "duration": 0.023255813953483084
        },
        {
          "name": "D3",
          "midi": 50,
          "time": 54.49999999999665,
          "velocity": 0.3543307086614173,
          "duration": 0.05813953488370771
        },
        {
          "name": "D4",
          "midi": 62,
          "time": 54.49999999999665,
          "velocity": 0.3858267716535433,
          "duration": 0.0813953488371908
        },
        {
          "name": "B6",
          "midi": 95,
          "time": 54.49999999999665,
          "velocity": 0.13385826771653545,
          "duration": 0.034883720930224626
        },
        {
          "name": "F5",
          "midi": 77,
          "time": 54.511627906973395,
          "velocity": 0.30708661417322836,
          "duration": 0.18604651162787178
        },
        {
          "name": "F#1",
          "midi": 30,
          "time": 54.523255813950136,
          "velocity": 0.7795275590551181,
          "duration": 0.011627906976741542
        },
        {
          "name": "G1",
          "midi": 31,
          "time": 54.53488372092688,
          "velocity": 0.7716535433070866,
          "duration": 0.5930232558138542
        },
        {
          "name": "A#5",
          "midi": 82,
          "time": 54.53488372092688,
          "velocity": 0.2047244094488189,
          "duration": 0.06976744186044925
        },
        {
          "name": "C5",
          "midi": 72,
          "time": 54.54651162790362,
          "velocity": 0.3228346456692913,
          "duration": 0.06976744186044925
        },
        {
          "name": "G5",
          "midi": 79,
          "time": 54.55813953488036,
          "velocity": 0.11023622047244094,
          "duration": 0.05813953488370771
        },
        {
          "name": "D#7",
          "midi": 99,
          "time": 54.55813953488036,
          "velocity": 0.13385826771653545,
          "duration": 0.034883720930224626
        },
        {
          "name": "C4",
          "midi": 60,
          "time": 54.5697674418571,
          "velocity": 0.3858267716535433,
          "duration": 0.06976744186044925
        },
        {
          "name": "D#5",
          "midi": 75,
          "time": 54.5697674418571,
          "velocity": 0.31496062992125984,
          "duration": 0.05813953488370771
        },
        {
          "name": "D3",
          "midi": 50,
          "time": 54.593023255810586,
          "velocity": 0.3464566929133858,
          "duration": 0.15116279069764715
        },
        {
          "name": "F4",
          "midi": 65,
          "time": 54.593023255810586,
          "velocity": 0.1732283464566929,
          "duration": 0.0813953488371979
        },
        {
          "name": "A#5",
          "midi": 82,
          "time": 54.61627906976407,
          "velocity": 0.13385826771653545,
          "duration": 0.0813953488371979
        },
        {
          "name": "G#4",
          "midi": 68,
          "time": 54.63953488371755,
          "velocity": 0.23622047244094488,
          "duration": 0.046511627906973274
        },
        {
          "name": "G#3",
          "midi": 56,
          "time": 54.66279069767104,
          "velocity": 0.3464566929133858,
          "duration": 0.09302325581393234
        },
        {
          "name": "C4",
          "midi": 60,
          "time": 54.674418604647784,
          "velocity": 0.30708661417322836,
          "duration": 0.023255813953483084
        },
        {
          "name": "F4",
          "midi": 65,
          "time": 54.686046511624525,
          "velocity": 0.15748031496062992,
          "duration": 0.034883720930224626
        },
        {
          "name": "A4",
          "midi": 69,
          "time": 54.686046511624525,
          "velocity": 0.36220472440944884,
          "duration": 0.04651162790696617
        },
        {
          "name": "D#5",
          "midi": 75,
          "time": 54.686046511624525,
          "velocity": 0.3779527559055118,
          "duration": 0.05813953488370771
        },
        {
          "name": "A#6",
          "midi": 94,
          "time": 54.69767441860127,
          "velocity": 0.2755905511811024,
          "duration": 0.1627906976743816
        },
        {
          "name": "C6",
          "midi": 84,
          "time": 54.70930232557801,
          "velocity": 0.10236220472440945,
          "duration": 0.034883720930224626
        },
        {
          "name": "D6",
          "midi": 86,
          "time": 54.70930232557801,
          "velocity": 0.18110236220472442,
          "duration": 0.0813953488371908
        },
        {
          "name": "F7",
          "midi": 101,
          "time": 54.70930232557801,
          "velocity": 0.13385826771653545,
          "duration": 0.0813953488371908
        },
        {
          "name": "A6",
          "midi": 93,
          "time": 54.72093023255475,
          "velocity": 0.29133858267716534,
          "duration": 0.05813953488370771
        },
        {
          "name": "D#7",
          "midi": 99,
          "time": 54.72093023255475,
          "velocity": 0.2283464566929134,
          "duration": 0.2209302325581035
        },
        {
          "name": "F#5",
          "midi": 78,
          "time": 54.73255813953149,
          "velocity": 0.2204724409448819,
          "duration": 0.034883720930224626
        },
        {
          "name": "G#5",
          "midi": 80,
          "time": 54.73255813953149,
          "velocity": 0.3464566929133858,
          "duration": 0.36046511627901623
        },
        {
          "name": "G6",
          "midi": 91,
          "time": 54.73255813953149,
          "velocity": 0.14960629921259844,
          "duration": 0.0813953488371908
        },
        {
          "name": "B6",
          "midi": 95,
          "time": 54.73255813953149,
          "velocity": 0.13385826771653545,
          "duration": 0.05813953488370771
        },
        {
          "name": "E5",
          "midi": 76,
          "time": 54.74418604650823,
          "velocity": 0.3464566929133858,
          "duration": 0.023255813953483084
        },
        {
          "name": "B5",
          "midi": 83,
          "time": 54.74418604650823,
          "velocity": 0.18110236220472442,
          "duration": 0.05813953488370771
        },
        {
          "name": "C#6",
          "midi": 85,
          "time": 54.74418604650823,
          "velocity": 0.16535433070866143,
          "duration": 0.04651162790696617
        },
        {
          "name": "F6",
          "midi": 89,
          "time": 54.74418604650823,
          "velocity": 0.10236220472440945,
          "duration": 0.05813953488370771
        },
        {
          "name": "G3",
          "midi": 55,
          "time": 54.755813953484974,
          "velocity": 0.3937007874015748,
          "duration": 0.023255813953483084
        },
        {
          "name": "D5",
          "midi": 74,
          "time": 54.755813953484974,
          "velocity": 0.49606299212598426,
          "duration": 0.04651162790696617
        },
        {
          "name": "F5",
          "midi": 77,
          "time": 54.755813953484974,
          "velocity": 0.2047244094488189,
          "duration": 0.034883720930224626
        },
        {
          "name": "E7",
          "midi": 100,
          "time": 54.767441860461716,
          "velocity": 0.11811023622047244,
          "duration": 0.034883720930224626
        },
        {
          "name": "A#3",
          "midi": 58,
          "time": 54.77906976743846,
          "velocity": 0.2755905511811024,
          "duration": 0.023255813953483084
        },
        {
          "name": "G#4",
          "midi": 68,
          "time": 54.77906976743846,
          "velocity": 0.4645669291338583,
          "duration": 0.3488372093022747
        },
        {
          "name": "C7",
          "midi": 96,
          "time": 54.77906976743846,
          "velocity": 0.13385826771653545,
          "duration": 0.04651162790696617
        },
        {
          "name": "D3",
          "midi": 50,
          "time": 54.7906976744152,
          "velocity": 0.28346456692913385,
          "duration": 0.33720930232553314
        },
        {
          "name": "D#4",
          "midi": 63,
          "time": 54.7906976744152,
          "velocity": 0.1889763779527559,
          "duration": 0.04651162790696617
        },
        {
          "name": "D#5",
          "midi": 75,
          "time": 54.7906976744152,
          "velocity": 0.5433070866141733,
          "duration": 0.3488372093022747
        },
        {
          "name": "G5",
          "midi": 79,
          "time": 54.7906976744152,
          "velocity": 0.12598425196850394,
          "duration": 0.034883720930224626
        },
        {
          "name": "C6",
          "midi": 84,
          "time": 54.7906976744152,
          "velocity": 0.14173228346456693,
          "duration": 0.09302325581393944
        },
        {
          "name": "F5",
          "midi": 77,
          "time": 54.80232558139194,
          "velocity": 0.25196850393700787,
          "duration": 0.37209302325575777
        },
        {
          "name": "F4",
          "midi": 65,
          "time": 54.81395348836868,
          "velocity": 0.15748031496062992,
          "duration": 0.034883720930224626
        },
        {
          "name": "G#3",
          "midi": 56,
          "time": 54.837209302322165,
          "velocity": 0.3858267716535433,
          "duration": 0.12790697674417828
        },
        {
          "name": "F4",
          "midi": 65,
          "time": 54.86046511627565,
          "velocity": 0.2440944881889764,
          "duration": 0.081395348837205
        },
        {
          "name": "C5",
          "midi": 72,
          "time": 54.86046511627565,
          "velocity": 0.1968503937007874,
          "duration": 0.081395348837205
        },
        {
          "name": "F#6",
          "midi": 90,
          "time": 54.91860465115937,
          "velocity": 0.14960629921259844,
          "duration": 0.09302325581394655
        },
        {
          "name": "C6",
          "midi": 84,
          "time": 54.93023255813611,
          "velocity": 0.2204724409448819,
          "duration": 0.17441860465113734
        },
        {
          "name": "B3",
          "midi": 59,
          "time": 54.96511627906634,
          "velocity": 0.1732283464566929,
          "duration": 0.03488372093023173
        },
        {
          "name": "A#6",
          "midi": 94,
          "time": 54.96511627906634,
          "velocity": 0.25984251968503935,
          "duration": 0.09302325581393944
        },
        {
          "name": "A#5",
          "midi": 82,
          "time": 54.988372093019834,
          "velocity": 0.08661417322834646,
          "duration": 0.034883720930224626
        },
        {
          "name": "E7",
          "midi": 100,
          "time": 54.999999999996575,
          "velocity": 0.11023622047244094,
          "duration": 0.034883720930224626
        },
        {
          "name": "B3",
          "midi": 59,
          "time": 55.01162790697332,
          "velocity": 0.18110236220472442,
          "duration": 0.034883720930224626
        },
        {
          "name": "F4",
          "midi": 65,
          "time": 55.01162790697332,
          "velocity": 0.14960629921259844,
          "duration": 0.05813953488370771
        },
        {
          "name": "G#3",
          "midi": 56,
          "time": 55.0348837209268,
          "velocity": 0.2677165354330709,
          "duration": 0.023255813953483084
        },
        {
          "name": "C5",
          "midi": 72,
          "time": 55.0348837209268,
          "velocity": 0.13385826771653545,
          "duration": 0.034883720930224626
        },
        {
          "name": "D#7",
          "midi": 99,
          "time": 55.04651162790354,
          "velocity": 0.1889763779527559,
          "duration": 0.05813953488370771
        },
        {
          "name": "D#4",
          "midi": 63,
          "time": 55.05813953488028,
          "velocity": 0.2283464566929134,
          "duration": 0.034883720930224626
        },
        {
          "name": "G#3",
          "midi": 56,
          "time": 55.069767441857024,
          "velocity": 0.3228346456692913,
          "duration": 0.023255813953483084
        },
        {
          "name": "A#5",
          "midi": 82,
          "time": 55.081395348833766,
          "velocity": 0.08661417322834646,
          "duration": 0.034883720930224626
        },
        {
          "name": "G#3",
          "midi": 56,
          "time": 55.10465116278725,
          "velocity": 0.3937007874015748,
          "duration": 0.034883720930224626
        },
        {
          "name": "F#1",
          "midi": 30,
          "time": 55.12790697674073,
          "velocity": 0.6929133858267716,
          "duration": 0.011627906976741542
        },
        {
          "name": "E1",
          "midi": 28,
          "time": 55.139534883717474,
          "velocity": 0.5275590551181102,
          "duration": 0.011627906976741542
        },
        {
          "name": "G3",
          "midi": 55,
          "time": 55.139534883717474,
          "velocity": 0.47244094488188976,
          "duration": 0.0813953488371908
        },
        {
          "name": "G#4",
          "midi": 68,
          "time": 55.139534883717474,
          "velocity": 0.4094488188976378,
          "duration": 0.05813953488370771
        },
        {
          "name": "A#4",
          "midi": 70,
          "time": 55.151162790694215,
          "velocity": 0.36220472440944884,
          "duration": 0.023255813953483084
        },
        {
          "name": "E4",
          "midi": 64,
          "time": 55.16279069767096,
          "velocity": 0.15748031496062992,
          "duration": 0.034883720930224626
        },
        {
          "name": "D5",
          "midi": 74,
          "time": 55.16279069767096,
          "velocity": 0.5354330708661418,
          "duration": 0.1627906976743887
        },
        {
          "name": "F#5",
          "midi": 78,
          "time": 55.16279069767096,
          "velocity": 0.2283464566929134,
          "duration": 0.023255813953483084
        },
        {
          "name": "D#1",
          "midi": 27,
          "time": 55.1744186046477,
          "velocity": 0.6929133858267716,
          "duration": 0.023255813953483084
        },
        {
          "name": "G5",
          "midi": 79,
          "time": 55.1744186046477,
          "velocity": 0.5354330708661418,
          "duration": 0.3255813953487916
        },
        {
          "name": "C6",
          "midi": 84,
          "time": 55.1744186046477,
          "velocity": 0.08661417322834646,
          "duration": 0.034883720930224626
        },
        {
          "name": "E6",
          "midi": 88,
          "time": 55.1744186046477,
          "velocity": 0.18110236220472442,
          "duration": 0.034883720930224626
        },
        {
          "name": "D#7",
          "midi": 99,
          "time": 55.1744186046477,
          "velocity": 0.14960629921259844,
          "duration": 0.034883720930224626
        },
        {
          "name": "C#1",
          "midi": 25,
          "time": 55.19767441860118,
          "velocity": 0.6850393700787402,
          "duration": 0.011627906976741542
        },
        {
          "name": "B0",
          "midi": 23,
          "time": 55.20930232557792,
          "velocity": 0.7086614173228346,
          "duration": 0.023255813953483084
        },
        {
          "name": "B5",
          "midi": 83,
          "time": 55.20930232557792,
          "velocity": 0.1732283464566929,
          "duration": 0.12790697674416407
        },
        {
          "name": "F6",
          "midi": 89,
          "time": 55.20930232557792,
          "velocity": 0.25196850393700787,
          "duration": 0.09302325581393944
        },
        {
          "name": "A3",
          "midi": 57,
          "time": 55.220930232554664,
          "velocity": 0.31496062992125984,
          "duration": 0.023255813953483084
        },
        {
          "name": "A6",
          "midi": 93,
          "time": 55.220930232554664,
          "velocity": 0.2125984251968504,
          "duration": 0.10465116279068098
        },
        {
          "name": "F7",
          "midi": 101,
          "time": 55.220930232554664,
          "velocity": 0.2677165354330709,
          "duration": 0.11627906976742253
        },
        {
          "name": "C1",
          "midi": 24,
          "time": 55.232558139531406,
          "velocity": 0.7480314960629921,
          "duration": 0.8255813953487419
        },
        {
          "name": "F5",
          "midi": 77,
          "time": 55.26744186046164,
          "velocity": 0.36220472440944884,
          "duration": 0.27906976744182543
        },
        {
          "name": "G#4",
          "midi": 68,
          "time": 55.27906976743838,
          "velocity": 0.2677165354330709,
          "duration": 0.09302325581393234
        },
        {
          "name": "G2",
          "midi": 43,
          "time": 55.29069767441512,
          "velocity": 0.29133858267716534,
          "duration": 0.023255813953483084
        },
        {
          "name": "E3",
          "midi": 52,
          "time": 55.30232558139186,
          "velocity": 0.29133858267716534,
          "duration": 0.034883720930224626
        },
        {
          "name": "C5",
          "midi": 72,
          "time": 55.313953488368604,
          "velocity": 0.3228346456692913,
          "duration": 0.05813953488370771
        },
        {
          "name": "D#7",
          "midi": 99,
          "time": 55.313953488368604,
          "velocity": 0.18110236220472442,
          "duration": 0.034883720930224626
        },
        {
          "name": "D#5",
          "midi": 75,
          "time": 55.325581395345345,
          "velocity": 0.30708661417322836,
          "duration": 0.22093023255811772
        },
        {
          "name": "A5",
          "midi": 81,
          "time": 55.325581395345345,
          "velocity": 0.13385826771653545,
          "duration": 0.034883720930224626
        },
        {
          "name": "E7",
          "midi": 100,
          "time": 55.325581395345345,
          "velocity": 0.11811023622047244,
          "duration": 0.034883720930224626
        },
        {
          "name": "G2",
          "midi": 43,
          "time": 55.33720930232209,
          "velocity": 0.29133858267716534,
          "duration": 0.023255813953483084
        },
        {
          "name": "F4",
          "midi": 65,
          "time": 55.33720930232209,
          "velocity": 0.3464566929133858,
          "duration": 0.058139534883714816
        },
        {
          "name": "G#3",
          "midi": 56,
          "time": 55.34883720929883,
          "velocity": 0.3858267716535433,
          "duration": 0.06976744186046346
        },
        {
          "name": "A4",
          "midi": 69,
          "time": 55.37209302325231,
          "velocity": 0.23622047244094488,
          "duration": 0.02325581395349019
        },
        {
          "name": "G#4",
          "midi": 68,
          "time": 55.41860465115929,
          "velocity": 0.3464566929133858,
          "duration": 0.13953488372091272
        },
        {
          "name": "G#3",
          "midi": 56,
          "time": 55.430232558136034,
          "velocity": 0.41732283464566927,
          "duration": 0.046511627906973274
        },
        {
          "name": "D4",
          "midi": 62,
          "time": 55.430232558136034,
          "velocity": 0.15748031496062992,
          "duration": 0.046511627906973274
        },
        {
          "name": "B4",
          "midi": 71,
          "time": 55.430232558136034,
          "velocity": 0.09448818897637795,
          "duration": 0.06976744186045636
        },
        {
          "name": "G#2",
          "midi": 44,
          "time": 55.441860465112775,
          "velocity": 0.2992125984251969,
          "duration": 0.02325581395349019
        },
        {
          "name": "G#3",
          "midi": 56,
          "time": 55.48837209301975,
          "velocity": 0.4015748031496063,
          "duration": 0.1627906976743887
        },
        {
          "name": "D4",
          "midi": 62,
          "time": 55.48837209301975,
          "velocity": 0.14960629921259844,
          "duration": 0.25581395348832814
        },
        {
          "name": "G5",
          "midi": 79,
          "time": 55.51162790697323,
          "velocity": 0.2125984251968504,
          "duration": 0.09302325581393944
        },
        {
          "name": "G4",
          "midi": 67,
          "time": 55.569767441856946,
          "velocity": 0.2125984251968504,
          "duration": 0.034883720930224626
        },
        {
          "name": "G2",
          "midi": 43,
          "time": 55.58139534883369,
          "velocity": 0.3228346456692913,
          "duration": 0.023255813953483084
        },
        {
          "name": "F5",
          "midi": 77,
          "time": 55.59302325581043,
          "velocity": 0.30708661417322836,
          "duration": 0.05813953488370771
        },
        {
          "name": "A#5",
          "midi": 82,
          "time": 55.59302325581043,
          "velocity": 0.36220472440944884,
          "duration": 0.034883720930224626
        },
        {
          "name": "C6",
          "midi": 84,
          "time": 55.59302325581043,
          "velocity": 0.3464566929133858,
          "duration": 0.034883720930224626
        },
        {
          "name": "D6",
          "midi": 86,
          "time": 55.59302325581043,
          "velocity": 0.29133858267716534,
          "duration": 0.2209302325581035
        },
        {
          "name": "D#6",
          "midi": 87,
          "time": 55.59302325581043,
          "velocity": 0.33070866141732286,
          "duration": 0.06976744186044925
        },
        {
          "name": "E6",
          "midi": 88,
          "time": 55.60465116278717,
          "velocity": 0.23622047244094488,
          "duration": 0.034883720930224626
        },
        {
          "name": "G6",
          "midi": 91,
          "time": 55.60465116278717,
          "velocity": 0.18110236220472442,
          "duration": 0.0813953488371908
        },
        {
          "name": "A5",
          "midi": 81,
          "time": 55.61627906976391,
          "velocity": 0.31496062992125984,
          "duration": 0.034883720930224626
        },
        {
          "name": "C#6",
          "midi": 85,
          "time": 55.61627906976391,
          "velocity": 0.30708661417322836,
          "duration": 0.04651162790696617
        },
        {
          "name": "D5",
          "midi": 74,
          "time": 55.627906976740654,
          "velocity": 0.30708661417322836,
          "duration": 0.04651162790696617
        },
        {
          "name": "B5",
          "midi": 83,
          "time": 55.627906976740654,
          "velocity": 0.14173228346456693,
          "duration": 0.034883720930224626
        },
        {
          "name": "G5",
          "midi": 79,
          "time": 55.639534883717396,
          "velocity": 0.5118110236220472,
          "duration": 0.06976744186044925
        },
        {
          "name": "G3",
          "midi": 55,
          "time": 55.65116279069414,
          "velocity": 0.44881889763779526,
          "duration": 0.023255813953483084
        },
        {
          "name": "C6",
          "midi": 84,
          "time": 55.65116279069414,
          "velocity": 0.23622047244094488,
          "duration": 0.12790697674417117
        },
        {
          "name": "E7",
          "midi": 100,
          "time": 55.65116279069414,
          "velocity": 0.14960629921259844,
          "duration": 0.0813953488371979
        },
        {
          "name": "G#4",
          "midi": 68,
          "time": 55.66279069767088,
          "velocity": 0.4566929133858268,
          "duration": 0.33720930232555446
        },
        {
          "name": "G#3",
          "midi": 56,
          "time": 55.67441860464762,
          "velocity": 0.4251968503937008,
          "duration": 0.20930232558136908
        },
        {
          "name": "D#5",
          "midi": 75,
          "time": 55.67441860464762,
          "velocity": 0.5826771653543307,
          "duration": 0.3953488372092693
        },
        {
          "name": "F#6",
          "midi": 90,
          "time": 55.67441860464762,
          "velocity": 0.1732283464566929,
          "duration": 0.12790697674417117
        },
        {
          "name": "F5",
          "midi": 77,
          "time": 55.6976744186011,
          "velocity": 0.1732283464566929,
          "duration": 0.09302325581394655
        },
        {
          "name": "A#6",
          "midi": 94,
          "time": 55.709302325577845,
          "velocity": 0.1968503937007874,
          "duration": 0.06976744186046346
        },
        {
          "name": "G7",
          "midi": 103,
          "time": 55.709302325577845,
          "velocity": 0.08661417322834646,
          "duration": 0.03488372093023173
        },
        {
          "name": "D4",
          "midi": 62,
          "time": 55.77906976743831,
          "velocity": 0.10236220472440945,
          "duration": 0.04651162790696617
        },
        {
          "name": "G5",
          "midi": 79,
          "time": 55.77906976743831,
          "velocity": 0.2440944881889764,
          "duration": 0.10465116279068098
        },
        {
          "name": "F7",
          "midi": 101,
          "time": 55.77906976743831,
          "velocity": 0.15748031496062992,
          "duration": 0.034883720930224626
        },
        {
          "name": "F4",
          "midi": 65,
          "time": 55.79069767441505,
          "velocity": 0.14960629921259844,
          "duration": 0.04651162790696617
        },
        {
          "name": "C6",
          "midi": 84,
          "time": 55.825581395345274,
          "velocity": 0.2283464566929134,
          "duration": 0.13953488372092693
        },
        {
          "name": "D4",
          "midi": 62,
          "time": 55.84883720929876,
          "velocity": 0.08661417322834646,
          "duration": 0.046511627906973274
        },
        {
          "name": "E7",
          "midi": 100,
          "time": 55.84883720929876,
          "velocity": 0.2204724409448819,
          "duration": 0.12790697674418539
        },
        {
          "name": "D6",
          "midi": 86,
          "time": 55.8604651162755,
          "velocity": 0.12598425196850394,
          "duration": 0.08139534883721211
        },
        {
          "name": "F#6",
          "midi": 90,
          "time": 55.8604651162755,
          "velocity": 0.3937007874015748,
          "duration": 0.1046511627907023
        },
        {
          "name": "G#3",
          "midi": 56,
          "time": 55.89534883720573,
          "velocity": 0.3937007874015748,
          "duration": 0.04651162790698038
        },
        {
          "name": "G2",
          "midi": 43,
          "time": 55.91860465115922,
          "velocity": 0.31496062992125984,
          "duration": 0.02325581395349019
        },
        {
          "name": "D4",
          "midi": 62,
          "time": 55.9651162790662,
          "velocity": 0.1968503937007874,
          "duration": 0.10465116279068809
        },
        {
          "name": "A3",
          "midi": 57,
          "time": 55.97674418604294,
          "velocity": 0.30708661417322836,
          "duration": 0.03488372093023173
        },
        {
          "name": "G#3",
          "midi": 56,
          "time": 56.011627906973175,
          "velocity": 0.3700787401574803,
          "duration": 0.0813953488371979
        },
        {
          "name": "G5",
          "midi": 79,
          "time": 56.011627906973175,
          "velocity": 0.1968503937007874,
          "duration": 0.10465116279068098
        },
        {
          "name": "B5",
          "midi": 83,
          "time": 56.046511627903406,
          "velocity": 0.3779527559055118,
          "duration": 0.15116279069764715
        },
        {
          "name": "C#1",
          "midi": 25,
          "time": 56.05813953488015,
          "velocity": 0.7086614173228346,
          "duration": 0.011627906976741542
        },
        {
          "name": "G4",
          "midi": 67,
          "time": 56.05813953488015,
          "velocity": 0.3937007874015748,
          "duration": 0.04651162790696617
        },
        {
          "name": "D6",
          "midi": 86,
          "time": 56.05813953488015,
          "velocity": 0.3464566929133858,
          "duration": 0.15116279069764715
        },
        {
          "name": "C1",
          "midi": 24,
          "time": 56.06976744185689,
          "velocity": 0.7322834645669292,
          "duration": 0.20930232558136197
        },
        {
          "name": "D5",
          "midi": 74,
          "time": 56.06976744185689,
          "velocity": 0.4330708661417323,
          "duration": 0.12790697674416407
        },
        {
          "name": "E6",
          "midi": 88,
          "time": 56.06976744185689,
          "velocity": 0.2992125984251969,
          "duration": 0.023255813953483084
        },
        {
          "name": "G7",
          "midi": 103,
          "time": 56.06976744185689,
          "velocity": 0.11811023622047244,
          "duration": 0.10465116279067388
        },
        {
          "name": "B4",
          "midi": 71,
          "time": 56.08139534883363,
          "velocity": 0.10236220472440945,
          "duration": 0.09302325581393234
        },
        {
          "name": "F5",
          "midi": 77,
          "time": 56.08139534883363,
          "velocity": 0.10236220472440945,
          "duration": 0.05813953488370771
        },
        {
          "name": "F6",
          "midi": 89,
          "time": 56.09302325581037,
          "velocity": 0.5039370078740157,
          "duration": 0.11627906976742253
        },
        {
          "name": "G#3",
          "midi": 56,
          "time": 56.104651162787114,
          "velocity": 0.29133858267716534,
          "duration": 0.023255813953483084
        },
        {
          "name": "D#4",
          "midi": 63,
          "time": 56.104651162787114,
          "velocity": 0.25196850393700787,
          "duration": 0.09302325581393944
        },
        {
          "name": "G6",
          "midi": 91,
          "time": 56.104651162787114,
          "velocity": 0.4094488188976378,
          "duration": 0.10465116279068098
        },
        {
          "name": "G4",
          "midi": 67,
          "time": 56.116279069763856,
          "velocity": 0.31496062992125984,
          "duration": 0.0813953488371979
        },
        {
          "name": "G#5",
          "midi": 80,
          "time": 56.116279069763856,
          "velocity": 0.13385826771653545,
          "duration": 0.034883720930224626
        },
        {
          "name": "G3",
          "midi": 55,
          "time": 56.1279069767406,
          "velocity": 0.33858267716535434,
          "duration": 0.034883720930224626
        },
        {
          "name": "A6",
          "midi": 93,
          "time": 56.13953488371734,
          "velocity": 0.23622047244094488,
          "duration": 0.10465116279068809
        },
        {
          "name": "D#6",
          "midi": 87,
          "time": 56.15116279069408,
          "velocity": 0.11811023622047244,
          "duration": 0.1627906976743958
        },
        {
          "name": "F#7",
          "midi": 102,
          "time": 56.15116279069408,
          "velocity": 0.23622047244094488,
          "duration": 0.15116279069765426
        },
        {
          "name": "G#5",
          "midi": 80,
          "time": 56.16279069767082,
          "velocity": 0.1889763779527559,
          "duration": 0.046511627906973274
        },
        {
          "name": "G3",
          "midi": 55,
          "time": 56.19767441860105,
          "velocity": 0.33858267716535434,
          "duration": 0.023255813953483084
        },
        {
          "name": "G#4",
          "midi": 68,
          "time": 56.19767441860105,
          "velocity": 0.2125984251968504,
          "duration": 0.046511627906973274
        },
        {
          "name": "C5",
          "midi": 72,
          "time": 56.19767441860105,
          "velocity": 0.48031496062992124,
          "duration": 0.0813953488371979
        },
        {
          "name": "D#5",
          "midi": 75,
          "time": 56.19767441860105,
          "velocity": 0.3228346456692913,
          "duration": 0.10465116279068098
        },
        {
          "name": "F5",
          "midi": 77,
          "time": 56.19767441860105,
          "velocity": 0.2125984251968504,
          "duration": 0.0813953488371979
        },
        {
          "name": "F4",
          "midi": 65,
          "time": 56.209302325577795,
          "velocity": 0.33858267716535434,
          "duration": 0.06976744186045636
        },
        {
          "name": "A5",
          "midi": 81,
          "time": 56.209302325577795,
          "velocity": 0.16535433070866143,
          "duration": 0.058139534883714816
        },
        {
          "name": "B6",
          "midi": 95,
          "time": 56.22093023255454,
          "velocity": 0.2204724409448819,
          "duration": 0.046511627906973274
        },
        {
          "name": "E7",
          "midi": 100,
          "time": 56.22093023255454,
          "velocity": 0.16535433070866143,
          "duration": 0.03488372093023173
        },
        {
          "name": "F7",
          "midi": 101,
          "time": 56.22093023255454,
          "velocity": 0.18110236220472442,
          "duration": 0.0813953488371979
        },
        {
          "name": "F3",
          "midi": 53,
          "time": 56.24418604650803,
          "velocity": 0.3700787401574803,
          "duration": 0.04651162790696617
        },
        {
          "name": "G2",
          "midi": 43,
          "time": 56.25581395348477,
          "velocity": 0.2755905511811024,
          "duration": 0.023255813953483084
        },
        {
          "name": "C7",
          "midi": 96,
          "time": 56.25581395348477,
          "velocity": 0.1732283464566929,
          "duration": 0.04651162790696617
        },
        {
          "name": "A#6",
          "midi": 94,
          "time": 56.26744186046151,
          "velocity": 0.1732283464566929,
          "duration": 0.05813953488370771
        },
        {
          "name": "C#1",
          "midi": 25,
          "time": 56.27906976743825,
          "velocity": 0.7165354330708661,
          "duration": 0.011627906976741542
        },
        {
          "name": "A4",
          "midi": 69,
          "time": 56.27906976743825,
          "velocity": 0.33070866141732286,
          "duration": 0.0813953488371908
        },
        {
          "name": "B4",
          "midi": 71,
          "time": 56.27906976743825,
          "velocity": 0.33070866141732286,
          "duration": 0.023255813953483084
        },
        {
          "name": "E7",
          "midi": 100,
          "time": 56.27906976743825,
          "velocity": 0.11023622047244094,
          "duration": 0.04651162790696617
        },
        {
          "name": "C1",
          "midi": 24,
          "time": 56.29069767441499,
          "velocity": 0.7480314960629921,
          "duration": 0.17441860465113024
        },
        {
          "name": "D5",
          "midi": 74,
          "time": 56.29069767441499,
          "velocity": 0.3464566929133858,
          "duration": 0.05813953488370771
        },
        {
          "name": "G5",
          "midi": 79,
          "time": 56.29069767441499,
          "velocity": 0.3464566929133858,
          "duration": 0.17441860465113024
        },
        {
          "name": "D4",
          "midi": 62,
          "time": 56.302325581391734,
          "velocity": 0.3858267716535433,
          "duration": 0.05813953488370771
        },
        {
          "name": "B6",
          "midi": 95,
          "time": 56.302325581391734,
          "velocity": 0.12598425196850394,
          "duration": 0.05813953488370771
        },
        {
          "name": "G4",
          "midi": 67,
          "time": 56.313953488368476,
          "velocity": 0.3779527559055118,
          "duration": 0.1395348837209056
        },
        {
          "name": "F5",
          "midi": 77,
          "time": 56.313953488368476,
          "velocity": 0.08661417322834646,
          "duration": 0.05813953488370771
        },
        {
          "name": "F7",
          "midi": 101,
          "time": 56.313953488368476,
          "velocity": 0.12598425196850394,
          "duration": 0.04651162790696617
        },
        {
          "name": "C7",
          "midi": 96,
          "time": 56.33720930232196,
          "velocity": 0.11023622047244094,
          "duration": 0.034883720930224626
        },
        {
          "name": "A#6",
          "midi": 94,
          "time": 56.3488372092987,
          "velocity": 0.1889763779527559,
          "duration": 0.058139534883714816
        },
        {
          "name": "D#7",
          "midi": 99,
          "time": 56.3488372092987,
          "velocity": 0.13385826771653545,
          "duration": 0.058139534883714816
        },
        {
          "name": "E7",
          "midi": 100,
          "time": 56.3488372092987,
          "velocity": 0.11023622047244094,
          "duration": 0.034883720930224626
        },
        {
          "name": "C4",
          "midi": 60,
          "time": 56.36046511627544,
          "velocity": 0.33070866141732286,
          "duration": 0.09302325581393944
        },
        {
          "name": "D#4",
          "midi": 63,
          "time": 56.372093023252184,
          "velocity": 0.2125984251968504,
          "duration": 0.03488372093023173
        },
        {
          "name": "D#5",
          "midi": 75,
          "time": 56.372093023252184,
          "velocity": 0.25196850393700787,
          "duration": 0.12790697674416407
        },
        {
          "name": "A#5",
          "midi": 82,
          "time": 56.372093023252184,
          "velocity": 0.07874015748031496,
          "duration": 0.06976744186045636
        },
        {
          "name": "C3",
          "midi": 48,
          "time": 56.41860465115916,
          "velocity": 0.3779527559055118,
          "duration": 0.023255813953483084
        },
        {
          "name": "B4",
          "midi": 71,
          "time": 56.41860465115916,
          "velocity": 0.14173228346456693,
          "duration": 0.034883720930224626
        },
        {
          "name": "D#4",
          "midi": 63,
          "time": 56.4302325581359,
          "velocity": 0.25196850393700787,
          "duration": 0.034883720930224626
        },
        {
          "name": "C3",
          "midi": 48,
          "time": 56.45348837208938,
          "velocity": 0.36220472440944884,
          "duration": 0.04651162790696617
        },
        {
          "name": "D6",
          "midi": 86,
          "time": 56.45348837208938,
          "velocity": 0.12598425196850394,
          "duration": 0.034883720930224626
        },
        {
          "name": "C#1",
          "midi": 25,
          "time": 56.46511627906612,
          "velocity": 0.7559055118110236,
          "duration": 0.011627906976741542
        },
        {
          "name": "G4",
          "midi": 67,
          "time": 56.46511627906612,
          "velocity": 0.25196850393700787,
          "duration": 0.034883720930224626
        },
        {
          "name": "D1",
          "midi": 26,
          "time": 56.476744186042865,
          "velocity": 0.6929133858267716,
          "duration": 0.011627906976741542
        },
        {
          "name": "A#0",
          "midi": 22,
          "time": 56.488372093019606,
          "velocity": 0.5984251968503937,
          "duration": 0.011627906976741542
        },
        {
          "name": "A4",
          "midi": 69,
          "time": 56.488372093019606,
          "velocity": 0.3543307086614173,
          "duration": 0.034883720930224626
        },
        {
          "name": "D5",
          "midi": 74,
          "time": 56.488372093019606,
          "velocity": 0.2440944881889764,
          "duration": 0.023255813953483084
        },
        {
          "name": "G6",
          "midi": 91,
          "time": 56.488372093019606,
          "velocity": 0.23622047244094488,
          "duration": 0.12790697674416407
        },
        {
          "name": "F0",
          "midi": 17,
          "time": 56.49999999999635,
          "velocity": 0.5039370078740157,
          "duration": 0.023255813953483084
        },
        {
          "name": "D3",
          "midi": 50,
          "time": 56.49999999999635,
          "velocity": 0.3779527559055118,
          "duration": 0.023255813953483084
        },
        {
          "name": "G5",
          "midi": 79,
          "time": 56.49999999999635,
          "velocity": 0.4251968503937008,
          "duration": 0.06976744186044925
        },
        {
          "name": "G#5",
          "midi": 80,
          "time": 56.49999999999635,
          "velocity": 0.2992125984251969,
          "duration": 0.05813953488370771
        },
        {
          "name": "C6",
          "midi": 84,
          "time": 56.49999999999635,
          "velocity": 0.1968503937007874,
          "duration": 0.04651162790696617
        },
        {
          "name": "D#6",
          "midi": 87,
          "time": 56.49999999999635,
          "velocity": 0.23622047244094488,
          "duration": 0.09302325581393234
        },
        {
          "name": "A#6",
          "midi": 94,
          "time": 56.49999999999635,
          "velocity": 0.25196850393700787,
          "duration": 0.023255813953483084
        },
        {
          "name": "B6",
          "midi": 95,
          "time": 56.49999999999635,
          "velocity": 0.2204724409448819,
          "duration": 0.09302325581393234
        },
        {
          "name": "G#3",
          "midi": 56,
          "time": 56.51162790697309,
          "velocity": 0.1732283464566929,
          "duration": 0.034883720930224626
        },
        {
          "name": "D#4",
          "midi": 63,
          "time": 56.51162790697309,
          "velocity": 0.4015748031496063,
          "duration": 0.2441860465116008
        },
        {
          "name": "A#5",
          "midi": 82,
          "time": 56.51162790697309,
          "velocity": 0.2440944881889764,
          "duration": 0.04651162790696617
        },
        {
          "name": "D6",
          "midi": 86,
          "time": 56.51162790697309,
          "velocity": 0.18110236220472442,
          "duration": 0.05813953488370771
        },
        {
          "name": "F#6",
          "midi": 90,
          "time": 56.51162790697309,
          "velocity": 0.25196850393700787,
          "duration": 0.33720930232554025
        },
        {
          "name": "C7",
          "midi": 96,
          "time": 56.51162790697309,
          "velocity": 0.2204724409448819,
          "duration": 0.17441860465114445
        },
        {
          "name": "E7",
          "midi": 100,
          "time": 56.51162790697309,
          "velocity": 0.2204724409448819,
          "duration": 0.0813953488371908
        },
        {
          "name": "D#3",
          "midi": 51,
          "time": 56.52325581394983,
          "velocity": 0.3779527559055118,
          "duration": 0.023255813953483084
        },
        {
          "name": "G4",
          "midi": 67,
          "time": 56.52325581394983,
          "velocity": 0.25984251968503935,
          "duration": 0.023255813953483084
        },
        {
          "name": "C#6",
          "midi": 85,
          "time": 56.52325581394983,
          "velocity": 0.1889763779527559,
          "duration": 0.034883720930224626
        },
        {
          "name": "A6",
          "midi": 93,
          "time": 56.52325581394983,
          "velocity": 0.3228346456692913,
          "duration": 0.06976744186044925
        },
        {
          "name": "B4",
          "midi": 71,
          "time": 56.53488372092657,
          "velocity": 0.29133858267716534,
          "duration": 0.034883720930224626
        },
        {
          "name": "E5",
          "midi": 76,
          "time": 56.53488372092657,
          "velocity": 0.3543307086614173,
          "duration": 0.023255813953483084
        },
        {
          "name": "F#5",
          "midi": 78,
          "time": 56.53488372092657,
          "velocity": 0.28346456692913385,
          "duration": 0.04651162790696617
        },
        {
          "name": "F6",
          "midi": 89,
          "time": 56.53488372092657,
          "velocity": 0.29133858267716534,
          "duration": 0.05813953488370771
        },
        {
          "name": "A#6",
          "midi": 94,
          "time": 56.53488372092657,
          "velocity": 0.2677165354330709,
          "duration": 0.15116279069766136
        },
        {
          "name": "D#7",
          "midi": 99,
          "time": 56.53488372092657,
          "velocity": 0.2992125984251969,
          "duration": 0.22093023255811772
        },
        {
          "name": "D5",
          "midi": 74,
          "time": 56.546511627903314,
          "velocity": 0.4409448818897638,
          "duration": 0.023255813953483084
        },
        {
          "name": "C6",
          "midi": 84,
          "time": 56.558139534880056,
          "velocity": 0.2047244094488189,
          "duration": 0.3488372093022889
        },
        {
          "name": "G#4",
          "midi": 68,
          "time": 56.5697674418568,
          "velocity": 0.47244094488188976,
          "duration": 0.33720930232554736
        },
        {
          "name": "D#5",
          "midi": 75,
          "time": 56.5697674418568,
          "velocity": 0.5590551181102362,
          "duration": 0.33720930232554736
        },
        {
          "name": "G#3",
          "midi": 56,
          "time": 56.58139534883354,
          "velocity": 0.4566929133858268,
          "duration": 0.33720930232554736
        },
        {
          "name": "D7",
          "midi": 98,
          "time": 56.58139534883354,
          "velocity": 0.16535433070866143,
          "duration": 0.03488372093023173
        },
        {
          "name": "C#7",
          "midi": 97,
          "time": 56.61627906976377,
          "velocity": 0.1968503937007874,
          "duration": 0.1046511627906952
        },
        {
          "name": "G5",
          "midi": 79,
          "time": 56.62790697674051,
          "velocity": 0.2992125984251969,
          "duration": 0.02325581395349019
        },
        {
          "name": "C5",
          "midi": 72,
          "time": 56.651162790694,
          "velocity": 0.2283464566929134,
          "duration": 0.09302325581394655
        },
        {
          "name": "G5",
          "midi": 79,
          "time": 56.686046511624234,
          "velocity": 0.25196850393700787,
          "duration": 0.058139534883714816
        },
        {
          "name": "B4",
          "midi": 71,
          "time": 56.73255813953121,
          "velocity": 0.2283464566929134,
          "duration": 0.034883720930224626
        },
        {
          "name": "D6",
          "midi": 86,
          "time": 56.74418604650795,
          "velocity": 0.25984251968503935,
          "duration": 0.04651162790696617
        },
        {
          "name": "D4",
          "midi": 62,
          "time": 56.75581395348469,
          "velocity": 0.2755905511811024,
          "duration": 0.4069767441859824
        },
        {
          "name": "D5",
          "midi": 74,
          "time": 56.76744186046143,
          "velocity": 0.3858267716535433,
          "duration": 0.034883720930224626
        },
        {
          "name": "A#5",
          "midi": 82,
          "time": 56.77906976743817,
          "velocity": 0.07874015748031496,
          "duration": 0.04651162790696617
        },
        {
          "name": "A#6",
          "midi": 94,
          "time": 56.77906976743817,
          "velocity": 0.2283464566929134,
          "duration": 0.09302325581394655
        },
        {
          "name": "E7",
          "midi": 100,
          "time": 56.790697674414915,
          "velocity": 0.14960629921259844,
          "duration": 0.058139534883714816
        },
        {
          "name": "D#7",
          "midi": 99,
          "time": 56.8139534883684,
          "velocity": 0.18110236220472442,
          "duration": 0.081395348837205
        },
        {
          "name": "B4",
          "midi": 71,
          "time": 56.84883720929863,
          "velocity": 0.1968503937007874,
          "duration": 0.03488372093023173
        },
        {
          "name": "G5",
          "midi": 79,
          "time": 56.84883720929863,
          "velocity": 0.5826771653543307,
          "duration": 0.5813953488371268
        },
        {
          "name": "D7",
          "midi": 98,
          "time": 56.84883720929863,
          "velocity": 0.07874015748031496,
          "duration": 0.046511627906973274
        },
        {
          "name": "G4",
          "midi": 67,
          "time": 56.906976744182344,
          "velocity": 0.3228346456692913,
          "duration": 0.03488372093023173
        },
        {
          "name": "G3",
          "midi": 55,
          "time": 56.918604651159086,
          "velocity": 0.4094488188976378,
          "duration": 0.20930232558136197
        },
        {
          "name": "G#4",
          "midi": 68,
          "time": 56.941860465112576,
          "velocity": 0.4881889763779528,
          "duration": 0.034883720930224626
        },
        {
          "name": "F6",
          "midi": 89,
          "time": 56.95348837208932,
          "velocity": 0.11811023622047244,
          "duration": 0.034883720930224626
        },
        {
          "name": "D5",
          "midi": 74,
          "time": 56.96511627906606,
          "velocity": 0.5354330708661418,
          "duration": 0.2209302325580964
        },
        {
          "name": "A6",
          "midi": 93,
          "time": 56.96511627906606,
          "velocity": 0.30708661417322836,
          "duration": 0.1627906976743887
        },
        {
          "name": "G4",
          "midi": 67,
          "time": 56.9767441860428,
          "velocity": 0.4094488188976378,
          "duration": 0.10465116279068098
        },
        {
          "name": "A#5",
          "midi": 82,
          "time": 56.98837209301954,
          "velocity": 0.16535433070866143,
          "duration": 0.06976744186045636
        },
        {
          "name": "B5",
          "midi": 83,
          "time": 56.999999999996284,
          "velocity": 0.14173228346456693,
          "duration": 0.11627906976742253
        },
        {
          "name": "F6",
          "midi": 89,
          "time": 56.999999999996284,
          "velocity": 0.2440944881889764,
          "duration": 0.12790697674416407
        },
        {
          "name": "A#4",
          "midi": 70,
          "time": 57.011627906973025,
          "velocity": 0.09448818897637795,
          "duration": 0.046511627906973274
        },
        {
          "name": "B6",
          "midi": 95,
          "time": 57.02325581394977,
          "velocity": 0.15748031496062992,
          "duration": 0.058139534883714816
        },
        {
          "name": "F#7",
          "midi": 102,
          "time": 57.02325581394977,
          "velocity": 0.07086614173228346,
          "duration": 0.03488372093023173
        },
        {
          "name": "A#4",
          "midi": 70,
          "time": 57.06976744185674,
          "velocity": 0.11023622047244094,
          "duration": 0.04651162790696617
        },
        {
          "name": "F#7",
          "midi": 102,
          "time": 57.09302325581022,
          "velocity": 0.09448818897637795,
          "duration": 0.04651162790696617
        },
        {
          "name": "C5",
          "midi": 72,
          "time": 57.104651162786965,
          "velocity": 0.4330708661417323,
          "duration": 0.06976744186044925
        },
        {
          "name": "F5",
          "midi": 77,
          "time": 57.104651162786965,
          "velocity": 0.33070866141732286,
          "duration": 0.05813953488370771
        },
        {
          "name": "G#4",
          "midi": 68,
          "time": 57.116279069763706,
          "velocity": 0.2047244094488189,
          "duration": 0.05813953488370771
        },
        {
          "name": "D#7",
          "midi": 99,
          "time": 57.116279069763706,
          "velocity": 0.2440944881889764,
          "duration": 0.034883720930224626
        },
        {
          "name": "E7",
          "midi": 100,
          "time": 57.116279069763706,
          "velocity": 0.12598425196850394,
          "duration": 0.034883720930224626
        },
        {
          "name": "F4",
          "midi": 65,
          "time": 57.12790697674045,
          "velocity": 0.28346456692913385,
          "duration": 0.05813953488370771
        },
        {
          "name": "F3",
          "midi": 53,
          "time": 57.13953488371719,
          "velocity": 0.29133858267716534,
          "duration": 0.04651162790696617
        },
        {
          "name": "B4",
          "midi": 71,
          "time": 57.16279069767067,
          "velocity": 0.33070866141732286,
          "duration": 0.023255813953483084
        },
        {
          "name": "D4",
          "midi": 62,
          "time": 57.174418604647414,
          "velocity": 0.3228346456692913,
          "duration": 0.04651162790696617
        },
        {
          "name": "F7",
          "midi": 101,
          "time": 57.174418604647414,
          "velocity": 0.10236220472440945,
          "duration": 0.05813953488370771
        },
        {
          "name": "D#3",
          "midi": 51,
          "time": 57.186046511624156,
          "velocity": 0.25984251968503935,
          "duration": 0.023255813953483084
        },
        {
          "name": "A#4",
          "midi": 70,
          "time": 57.186046511624156,
          "velocity": 0.2992125984251969,
          "duration": 0.023255813953483084
        },
        {
          "name": "C#5",
          "midi": 73,
          "time": 57.186046511624156,
          "velocity": 0.2440944881889764,
          "duration": 0.023255813953483084
        },
        {
          "name": "B5",
          "midi": 83,
          "time": 57.186046511624156,
          "velocity": 0.12598425196850394,
          "duration": 0.04651162790696617
        },
        {
          "name": "D#6",
          "midi": 87,
          "time": 57.186046511624156,
          "velocity": 0.33858267716535434,
          "duration": 0.04651162790696617
        },
        {
          "name": "A6",
          "midi": 93,
          "time": 57.186046511624156,
          "velocity": 0.09448818897637795,
          "duration": 0.034883720930224626
        },
        {
          "name": "E7",
          "midi": 100,
          "time": 57.186046511624156,
          "velocity": 0.12598425196850394,
          "duration": 0.04651162790696617
        },
        {
          "name": "D6",
          "midi": 86,
          "time": 57.1976744186009,
          "velocity": 0.3700787401574803,
          "duration": 0.15116279069766847
        },
        {
          "name": "A#2",
          "midi": 46,
          "time": 57.22093023255438,
          "velocity": 0.11023622047244094,
          "duration": 0.03488372093023173
        },
        {
          "name": "G#4",
          "midi": 68,
          "time": 57.22093023255438,
          "velocity": 0.2283464566929134,
          "duration": 0.13953488372092693
        },
        {
          "name": "D4",
          "midi": 62,
          "time": 57.23255813953112,
          "velocity": 0.18110236220472442,
          "duration": 0.13953488372092693
        },
        {
          "name": "D5",
          "midi": 74,
          "time": 57.23255813953112,
          "velocity": 0.1968503937007874,
          "duration": 0.13953488372092693
        },
        {
          "name": "A5",
          "midi": 81,
          "time": 57.26744186046135,
          "velocity": 0.07874015748031496,
          "duration": 0.09302325581395365
        },
        {
          "name": "A#4",
          "midi": 70,
          "time": 57.36046511627531,
          "velocity": 0.33070866141732286,
          "duration": 0.05813953488370771
        },
        {
          "name": "D#5",
          "midi": 75,
          "time": 57.36046511627531,
          "velocity": 0.4251968503937008,
          "duration": 0.04651162790696617
        },
        {
          "name": "G#6",
          "midi": 92,
          "time": 57.36046511627531,
          "velocity": 0.29133858267716534,
          "duration": 0.04651162790696617
        },
        {
          "name": "A#6",
          "midi": 94,
          "time": 57.36046511627531,
          "velocity": 0.12598425196850394,
          "duration": 0.04651162790696617
        },
        {
          "name": "D#3",
          "midi": 51,
          "time": 57.37209302325205,
          "velocity": 0.3700787401574803,
          "duration": 0.034883720930224626
        },
        {
          "name": "C#6",
          "midi": 85,
          "time": 57.37209302325205,
          "velocity": 0.25984251968503935,
          "duration": 0.04651162790696617
        },
        {
          "name": "F7",
          "midi": 101,
          "time": 57.37209302325205,
          "velocity": 0.09448818897637795,
          "duration": 0.034883720930224626
        },
        {
          "name": "A6",
          "midi": 93,
          "time": 57.38372093022879,
          "velocity": 0.1732283464566929,
          "duration": 0.04651162790696617
        },
        {
          "name": "A5",
          "midi": 81,
          "time": 57.39534883720553,
          "velocity": 0.4330708661417323,
          "duration": 0.6627906976743176
        },
        {
          "name": "B5",
          "midi": 83,
          "time": 57.39534883720553,
          "velocity": 0.2677165354330709,
          "duration": 0.023255813953483084
        },
        {
          "name": "E3",
          "midi": 52,
          "time": 57.40697674418227,
          "velocity": 0.3779527559055118,
          "duration": 0.023255813953483084
        },
        {
          "name": "E5",
          "midi": 76,
          "time": 57.40697674418227,
          "velocity": 0.3543307086614173,
          "duration": 0.023255813953483084
        },
        {
          "name": "F6",
          "midi": 89,
          "time": 57.40697674418227,
          "velocity": 0.3464566929133858,
          "duration": 0.7790697674417473
        },
        {
          "name": "C5",
          "midi": 72,
          "time": 57.418604651159015,
          "velocity": 0.48031496062992124,
          "duration": 0.7790697674417473
        },
        {
          "name": "D5",
          "midi": 74,
          "time": 57.418604651159015,
          "velocity": 0.3700787401574803,
          "duration": 0.058139534883714816
        },
        {
          "name": "F5",
          "midi": 77,
          "time": 57.418604651159015,
          "velocity": 0.33858267716535434,
          "duration": 0.45348837209295567
        },
        {
          "name": "C6",
          "midi": 84,
          "time": 57.418604651159015,
          "velocity": 0.49606299212598426,
          "duration": 0.5465116279068951
        },
        {
          "name": "F3",
          "midi": 53,
          "time": 57.43023255813576,
          "velocity": 0.41732283464566927,
          "duration": 0.25581395348833524
        },
        {
          "name": "D4",
          "midi": 62,
          "time": 57.43023255813576,
          "velocity": 0.3858267716535433,
          "duration": 0.023255813953483084
        },
        {
          "name": "G#2",
          "midi": 44,
          "time": 57.4418604651125,
          "velocity": 0.30708661417322836,
          "duration": 0.09302325581394655
        },
        {
          "name": "G5",
          "midi": 79,
          "time": 57.4418604651125,
          "velocity": 0.30708661417322836,
          "duration": 0.12790697674417117
        },
        {
          "name": "G6",
          "midi": 91,
          "time": 57.4418604651125,
          "velocity": 0.3937007874015748,
          "duration": 0.941860465116136
        },
        {
          "name": "D#4",
          "midi": 63,
          "time": 57.45348837208924,
          "velocity": 0.4566929133858268,
          "duration": 0.06976744186046346
        },
        {
          "name": "B5",
          "midi": 83,
          "time": 57.48837209301947,
          "velocity": 0.31496062992125984,
          "duration": 0.03488372093023173
        },
        {
          "name": "G#4",
          "midi": 68,
          "time": 57.51162790697296,
          "velocity": 0.18110236220472442,
          "duration": 0.12790697674416407
        },
        {
          "name": "A#6",
          "midi": 94,
          "time": 57.51162790697296,
          "velocity": 0.14173228346456693,
          "duration": 0.12790697674416407
        },
        {
          "name": "A#5",
          "midi": 82,
          "time": 57.5232558139497,
          "velocity": 0.36220472440944884,
          "duration": 0.5348837209301465
        },
        {
          "name": "F#7",
          "midi": 102,
          "time": 57.534883720926445,
          "velocity": 0.2283464566929134,
          "duration": 0.31395348837204295
        },
        {
          "name": "D#5",
          "midi": 75,
          "time": 57.546511627903186,
          "velocity": 0.12598425196850394,
          "duration": 0.0813953488371979
        },
        {
          "name": "A6",
          "midi": 93,
          "time": 57.55813953487993,
          "velocity": 0.4330708661417323,
          "duration": 0.37209302325575067
        },
        {
          "name": "D4",
          "midi": 62,
          "time": 57.61627906976364,
          "velocity": 0.4094488188976378,
          "duration": 0.04651162790696617
        },
        {
          "name": "G#4",
          "midi": 68,
          "time": 57.65116279069387,
          "velocity": 0.1968503937007874,
          "duration": 0.06976744186044925
        },
        {
          "name": "A#4",
          "midi": 70,
          "time": 57.65116279069387,
          "velocity": 0.3228346456692913,
          "duration": 0.0813953488371908
        },
        {
          "name": "D#4",
          "midi": 63,
          "time": 57.66279069767061,
          "velocity": 0.3779527559055118,
          "duration": 0.034883720930224626
        },
        {
          "name": "G#6",
          "midi": 92,
          "time": 57.66279069767061,
          "velocity": 0.11811023622047244,
          "duration": 0.05813953488370771
        },
        {
          "name": "G#2",
          "midi": 44,
          "time": 57.67441860464735,
          "velocity": 0.25196850393700787,
          "duration": 0.06976744186044925
        },
        {
          "name": "F3",
          "midi": 53,
          "time": 57.69767441860083,
          "velocity": 0.3543307086614173,
          "duration": 0.17441860465113734
        },
        {
          "name": "D4",
          "midi": 62,
          "time": 57.69767441860083,
          "velocity": 0.36220472440944884,
          "duration": 0.023255813953483084
        },
        {
          "name": "D#5",
          "midi": 75,
          "time": 57.709302325577575,
          "velocity": 0.25196850393700787,
          "duration": 0.06976744186045636
        },
        {
          "name": "G#4",
          "midi": 68,
          "time": 57.7441860465078,
          "velocity": 0.2204724409448819,
          "duration": 0.06976744186045636
        },
        {
          "name": "D#4",
          "midi": 63,
          "time": 57.76744186046129,
          "velocity": 0.2677165354330709,
          "duration": 0.034883720930224626
        },
        {
          "name": "G#2",
          "midi": 44,
          "time": 57.77906976743803,
          "velocity": 0.31496062992125984,
          "duration": 0.4302325581394726
        },
        {
          "name": "D5",
          "midi": 74,
          "time": 57.77906976743803,
          "velocity": 0.2677165354330709,
          "duration": 0.06976744186045636
        },
        {
          "name": "D#6",
          "midi": 87,
          "time": 57.77906976743803,
          "velocity": 0.1889763779527559,
          "duration": 0.0813953488371979
        },
        {
          "name": "B6",
          "midi": 95,
          "time": 57.79069767441477,
          "velocity": 0.1732283464566929,
          "duration": 0.058139534883714816
        },
        {
          "name": "G#6",
          "midi": 92,
          "time": 57.802325581391514,
          "velocity": 0.13385826771653545,
          "duration": 0.06976744186045636
        },
        {
          "name": "D#4",
          "midi": 63,
          "time": 57.813953488368256,
          "velocity": 0.3228346456692913,
          "duration": 0.058139534883714816
        },
        {
          "name": "G5",
          "midi": 79,
          "time": 57.837209302321746,
          "velocity": 0.15748031496062992,
          "duration": 0.034883720930224626
        },
        {
          "name": "G#4",
          "midi": 68,
          "time": 57.84883720929849,
          "velocity": 0.23622047244094488,
          "duration": 0.10465116279068098
        },
        {
          "name": "E5",
          "midi": 76,
          "time": 57.87209302325197,
          "velocity": 0.28346456692913385,
          "duration": 0.023255813953483084
        },
        {
          "name": "D#6",
          "midi": 87,
          "time": 57.87209302325197,
          "velocity": 0.2204724409448819,
          "duration": 0.20930232558136197
        },
        {
          "name": "F#7",
          "midi": 102,
          "time": 57.87209302325197,
          "velocity": 0.11811023622047244,
          "duration": 0.12790697674416407
        },
        {
          "name": "D#4",
          "midi": 63,
          "time": 57.88372093022871,
          "velocity": 0.3543307086614173,
          "duration": 0.023255813953483084
        },
        {
          "name": "F5",
          "midi": 77,
          "time": 57.88372093022871,
          "velocity": 0.3700787401574803,
          "duration": 0.1395348837209056
        },
        {
          "name": "D#5",
          "midi": 75,
          "time": 57.895348837205454,
          "velocity": 0.3543307086614173,
          "duration": 0.3023255813953085
        },
        {
          "name": "G5",
          "midi": 79,
          "time": 57.895348837205454,
          "velocity": 0.2047244094488189,
          "duration": 0.11627906976742253
        },
        {
          "name": "G#3",
          "midi": 56,
          "time": 57.91860465115894,
          "velocity": 0.4330708661417323,
          "duration": 0.046511627906973274
        },
        {
          "name": "D#4",
          "midi": 63,
          "time": 57.91860465115894,
          "velocity": 0.3543307086614173,
          "duration": 0.058139534883714816
        },
        {
          "name": "G3",
          "midi": 55,
          "time": 57.96511627906591,
          "velocity": 0.3464566929133858,
          "duration": 0.023255813953483084
        },
        {
          "name": "F4",
          "midi": 65,
          "time": 57.97674418604265,
          "velocity": 0.30708661417322836,
          "duration": 0.15116279069764715
        },
        {
          "name": "F3",
          "midi": 53,
          "time": 57.999999999996135,
          "velocity": 0.33858267716535434,
          "duration": 0.09302325581393944
        },
        {
          "name": "G#4",
          "midi": 68,
          "time": 57.999999999996135,
          "velocity": 0.36220472440944884,
          "duration": 0.36046511627901623
        },
        {
          "name": "D#4",
          "midi": 63,
          "time": 58.011627906972876,
          "velocity": 0.2755905511811024,
          "duration": 0.023255813953483084
        },
        {
          "name": "A#4",
          "midi": 70,
          "time": 58.03488372092636,
          "velocity": 0.16535433070866143,
          "duration": 0.03488372093023173
        },
        {
          "name": "F5",
          "midi": 77,
          "time": 58.03488372092636,
          "velocity": 0.3858267716535433,
          "duration": 0.7325581395347953
        },
        {
          "name": "G#3",
          "midi": 56,
          "time": 58.06976744185659,
          "velocity": 0.4015748031496063,
          "duration": 0.04651162790696617
        },
        {
          "name": "A5",
          "midi": 81,
          "time": 58.06976744185659,
          "velocity": 0.4094488188976378,
          "duration": 0.25581395348833524
        },
        {
          "name": "A#5",
          "midi": 82,
          "time": 58.06976744185659,
          "velocity": 0.18110236220472442,
          "duration": 0.034883720930224626
        },
        {
          "name": "D6",
          "midi": 86,
          "time": 58.06976744185659,
          "velocity": 0.2047244094488189,
          "duration": 0.04651162790696617
        },
        {
          "name": "F#7",
          "midi": 102,
          "time": 58.093023255810074,
          "velocity": 0.1732283464566929,
          "duration": 0.06976744186045636
        },
        {
          "name": "D#4",
          "midi": 63,
          "time": 58.11627906976356,
          "velocity": 0.2047244094488189,
          "duration": 0.03488372093023173
        },
        {
          "name": "A#5",
          "midi": 82,
          "time": 58.11627906976356,
          "velocity": 0.2047244094488189,
          "duration": 0.09302325581394655
        },
        {
          "name": "B6",
          "midi": 95,
          "time": 58.11627906976356,
          "velocity": 0.15748031496062992,
          "duration": 0.03488372093023173
        },
        {
          "name": "F3",
          "midi": 53,
          "time": 58.18604651162402,
          "velocity": 0.4566929133858268,
          "duration": 0.023255813953483084
        },
        {
          "name": "D5",
          "midi": 74,
          "time": 58.19767441860076,
          "velocity": 0.14173228346456693,
          "duration": 0.04651162790696617
        },
        {
          "name": "B5",
          "midi": 83,
          "time": 58.19767441860076,
          "velocity": 0.1732283464566929,
          "duration": 0.034883720930224626
        },
        {
          "name": "E3",
          "midi": 52,
          "time": 58.209302325577504,
          "velocity": 0.44881889763779526,
          "duration": 0.023255813953483084
        },
        {
          "name": "G#2",
          "midi": 44,
          "time": 58.220930232554245,
          "velocity": 0.33070866141732286,
          "duration": 0.1395348837209056
        },
        {
          "name": "F4",
          "midi": 65,
          "time": 58.220930232554245,
          "velocity": 0.2283464566929134,
          "duration": 0.0813953488371979
        },
        {
          "name": "C5",
          "midi": 72,
          "time": 58.220930232554245,
          "velocity": 0.3228346456692913,
          "duration": 0.18604651162787889
        },
        {
          "name": "F3",
          "midi": 53,
          "time": 58.23255813953099,
          "velocity": 0.4566929133858268,
          "duration": 0.034883720930224626
        },
        {
          "name": "A#5",
          "midi": 82,
          "time": 58.23255813953099,
          "velocity": 0.14173228346456693,
          "duration": 0.0813953488371979
        },
        {
          "name": "D#6",
          "midi": 87,
          "time": 58.24418604650773,
          "velocity": 0.16535433070866143,
          "duration": 0.11627906976742253
        },
        {
          "name": "B6",
          "midi": 95,
          "time": 58.24418604650773,
          "velocity": 0.25984251968503935,
          "duration": 0.058139534883714816
        },
        {
          "name": "D5",
          "midi": 74,
          "time": 58.25581395348447,
          "velocity": 0.25196850393700787,
          "duration": 0.023255813953483084
        },
        {
          "name": "F7",
          "midi": 101,
          "time": 58.25581395348447,
          "velocity": 0.18110236220472442,
          "duration": 0.2209302325581035
        },
        {
          "name": "E7",
          "midi": 100,
          "time": 58.26744186046121,
          "velocity": 0.11811023622047244,
          "duration": 0.06976744186045636
        },
        {
          "name": "F#7",
          "midi": 102,
          "time": 58.26744186046121,
          "velocity": 0.25984251968503935,
          "duration": 0.19767441860462043
        },
        {
          "name": "D#5",
          "midi": 75,
          "time": 58.27906976743795,
          "velocity": 0.30708661417322836,
          "duration": 0.058139534883714816
        },
        {
          "name": "G5",
          "midi": 79,
          "time": 58.30232558139144,
          "velocity": 0.2677165354330709,
          "duration": 0.1627906976743887
        },
        {
          "name": "G#3",
          "midi": 56,
          "time": 58.313953488368185,
          "velocity": 0.4645669291338583,
          "duration": 0.034883720930224626
        },
        {
          "name": "D#4",
          "midi": 63,
          "time": 58.313953488368185,
          "velocity": 0.25984251968503935,
          "duration": 0.11627906976742253
        },
        {
          "name": "B5",
          "midi": 83,
          "time": 58.313953488368185,
          "velocity": 0.31496062992125984,
          "duration": 0.12790697674416407
        },
        {
          "name": "D6",
          "midi": 86,
          "time": 58.313953488368185,
          "velocity": 0.25984251968503935,
          "duration": 0.11627906976742253
        },
        {
          "name": "D5",
          "midi": 74,
          "time": 58.325581395344926,
          "velocity": 0.4015748031496063,
          "duration": 0.1627906976743887
        },
        {
          "name": "G3",
          "midi": 55,
          "time": 58.34883720929841,
          "velocity": 0.5039370078740157,
          "duration": 0.058139534883714816
        },
        {
          "name": "G2",
          "midi": 43,
          "time": 58.36046511627515,
          "velocity": 0.31496062992125984,
          "duration": 0.046511627906973274
        },
        {
          "name": "G#4",
          "midi": 68,
          "time": 58.37209302325189,
          "velocity": 0.28346456692913385,
          "duration": 0.03488372093023173
        },
        {
          "name": "C#7",
          "midi": 97,
          "time": 58.37209302325189,
          "velocity": 0.13385826771653545,
          "duration": 0.06976744186045636
        },
        {
          "name": "A2",
          "midi": 45,
          "time": 58.418604651158866,
          "velocity": 0.18110236220472442,
          "duration": 0.034883720930224626
        },
        {
          "name": "G3",
          "midi": 55,
          "time": 58.418604651158866,
          "velocity": 0.4645669291338583,
          "duration": 0.05813953488370771
        },
        {
          "name": "C5",
          "midi": 72,
          "time": 58.418604651158866,
          "velocity": 0.1968503937007874,
          "duration": 0.04651162790696617
        },
        {
          "name": "A#5",
          "midi": 82,
          "time": 58.43023255813561,
          "velocity": 0.15748031496062992,
          "duration": 0.0813953488371979
        },
        {
          "name": "G#2",
          "midi": 44,
          "time": 58.45348837208909,
          "velocity": 0.2047244094488189,
          "duration": 0.06976744186045636
        },
        {
          "name": "F4",
          "midi": 65,
          "time": 58.47674418604257,
          "velocity": 0.1889763779527559,
          "duration": 0.046511627906973274
        },
        {
          "name": "C5",
          "midi": 72,
          "time": 58.47674418604257,
          "velocity": 0.25196850393700787,
          "duration": 0.0813953488371979
        },
        {
          "name": "A5",
          "midi": 81,
          "time": 58.47674418604257,
          "velocity": 0.10236220472440945,
          "duration": 0.03488372093023173
        },
        {
          "name": "F3",
          "midi": 53,
          "time": 58.488372093019315,
          "velocity": 0.4015748031496063,
          "duration": 0.03488372093023173
        },
        {
          "name": "D#5",
          "midi": 75,
          "time": 58.488372093019315,
          "velocity": 0.14960629921259844,
          "duration": 0.058139534883714816
        },
        {
          "name": "A#4",
          "midi": 70,
          "time": 58.52325581394955,
          "velocity": 0.2755905511811024,
          "duration": 0.023255813953483084
        },
        {
          "name": "D#3",
          "midi": 51,
          "time": 58.53488372092629,
          "velocity": 0.3700787401574803,
          "duration": 0.023255813953483084
        },
        {
          "name": "G#3",
          "midi": 56,
          "time": 58.53488372092629,
          "velocity": 0.4094488188976378,
          "duration": 0.5232558139534547
        },
        {
          "name": "D4",
          "midi": 62,
          "time": 58.53488372092629,
          "velocity": 0.2440944881889764,
          "duration": 0.046511627906973274
        },
        {
          "name": "G6",
          "midi": 91,
          "time": 58.53488372092629,
          "velocity": 0.11811023622047244,
          "duration": 0.06976744186045636
        },
        {
          "name": "D3",
          "midi": 50,
          "time": 58.55813953487977,
          "velocity": 0.3228346456692913,
          "duration": 0.02325581395349019
        },
        {
          "name": "D#5",
          "midi": 75,
          "time": 58.55813953487977,
          "velocity": 0.2204724409448819,
          "duration": 0.1860465116279002
        },
        {
          "name": "A6",
          "midi": 93,
          "time": 58.55813953487977,
          "velocity": 0.10236220472440945,
          "duration": 0.03488372093023173
        },
        {
          "name": "D#4",
          "midi": 63,
          "time": 58.58139534883326,
          "velocity": 0.1968503937007874,
          "duration": 0.16279069767441
        },
        {
          "name": "C3",
          "midi": 48,
          "time": 58.59302325581,
          "velocity": 0.25984251968503935,
          "duration": 0.03488372093023173
        },
        {
          "name": "G#2",
          "midi": 44,
          "time": 58.67441860464721,
          "velocity": 0.2125984251968504,
          "duration": 0.03488372093023173
        },
        {
          "name": "C5",
          "midi": 72,
          "time": 58.70930232557744,
          "velocity": 0.15748031496062992,
          "duration": 0.06976744186045636
        },
        {
          "name": "A5",
          "midi": 81,
          "time": 58.70930232557744,
          "velocity": 0.08661417322834646,
          "duration": 0.046511627906973274
        },
        {
          "name": "G5",
          "midi": 79,
          "time": 58.75581395348441,
          "velocity": 0.36220472440944884,
          "duration": 0.3953488372092835
        },
        {
          "name": "A#5",
          "midi": 82,
          "time": 58.75581395348441,
          "velocity": 0.09448818897637795,
          "duration": 0.04651162790696617
        },
        {
          "name": "G4",
          "midi": 67,
          "time": 58.767441860461155,
          "velocity": 0.4015748031496063,
          "duration": 0.12790697674417117
        },
        {
          "name": "B5",
          "midi": 83,
          "time": 58.767441860461155,
          "velocity": 0.08661417322834646,
          "duration": 0.06976744186045636
        },
        {
          "name": "D6",
          "midi": 86,
          "time": 58.767441860461155,
          "velocity": 0.11811023622047244,
          "duration": 0.06976744186045636
        },
        {
          "name": "D5",
          "midi": 74,
          "time": 58.79069767441464,
          "velocity": 0.1968503937007874,
          "duration": 0.058139534883714816
        },
        {
          "name": "C3",
          "midi": 48,
          "time": 58.81395348836812,
          "velocity": 0.18110236220472442,
          "duration": 0.03488372093023173
        },
        {
          "name": "C5",
          "midi": 72,
          "time": 58.83720930232161,
          "velocity": 0.2047244094488189,
          "duration": 0.11627906976743674
        },
        {
          "name": "F5",
          "midi": 77,
          "time": 58.84883720929835,
          "velocity": 0.14173228346456693,
          "duration": 0.12790697674418539
        },
        {
          "name": "G4",
          "midi": 67,
          "time": 58.95348837208905,
          "velocity": 0.25196850393700787,
          "duration": 0.06976744186046346
        },
        {
          "name": "D#5",
          "midi": 75,
          "time": 58.98837209301928,
          "velocity": 0.14960629921259844,
          "duration": 0.11627906976744384
        },
        {
          "name": "F5",
          "midi": 77,
          "time": 59.046511627903,
          "velocity": 0.1732283464566929,
          "duration": 0.08139534883721211
        },
        {
          "name": "G3",
          "midi": 55,
          "time": 59.05813953487974,
          "velocity": 0.4251968503937008,
          "duration": 0.02325581395349019
        },
        {
          "name": "G#3",
          "midi": 56,
          "time": 59.08139534883323,
          "velocity": 0.3464566929133858,
          "duration": 0.12790697674417117
        },
        {
          "name": "G4",
          "midi": 67,
          "time": 59.10465116278672,
          "velocity": 0.3464566929133858,
          "duration": 0.09302325581393944
        },
        {
          "name": "D6",
          "midi": 86,
          "time": 59.10465116278672,
          "velocity": 0.3858267716535433,
          "duration": 0.058139534883714816
        },
        {
          "name": "E5",
          "midi": 76,
          "time": 59.12790697674021,
          "velocity": 0.2047244094488189,
          "duration": 0.034883720930224626
        },
        {
          "name": "C6",
          "midi": 84,
          "time": 59.12790697674021,
          "velocity": 0.3228346456692913,
          "duration": 0.034883720930224626
        },
        {
          "name": "E6",
          "midi": 88,
          "time": 59.12790697674021,
          "velocity": 0.33070866141732286,
          "duration": 0.04651162790696617
        },
        {
          "name": "C3",
          "midi": 48,
          "time": 59.139534883716955,
          "velocity": 0.2440944881889764,
          "duration": 0.023255813953483084
        },
        {
          "name": "A5",
          "midi": 81,
          "time": 59.139534883716955,
          "velocity": 0.28346456692913385,
          "duration": 0.023255813953483084
        },
        {
          "name": "F7",
          "midi": 101,
          "time": 59.139534883716955,
          "velocity": 0.14173228346456693,
          "duration": 0.05813953488370771
        },
        {
          "name": "D5",
          "midi": 74,
          "time": 59.1511627906937,
          "velocity": 0.30708661417322836,
          "duration": 0.023255813953483084
        },
        {
          "name": "D#4",
          "midi": 63,
          "time": 59.16279069767044,
          "velocity": 0.2125984251968504,
          "duration": 0.034883720930224626
        },
        {
          "name": "D#5",
          "midi": 75,
          "time": 59.16279069767044,
          "velocity": 0.3937007874015748,
          "duration": 0.034883720930224626
        },
        {
          "name": "G5",
          "midi": 79,
          "time": 59.16279069767044,
          "velocity": 0.3858267716535433,
          "duration": 0.0813953488371979
        },
        {
          "name": "C#6",
          "midi": 85,
          "time": 59.16279069767044,
          "velocity": 0.3858267716535433,
          "duration": 0.04651162790696617
        },
        {
          "name": "D#6",
          "midi": 87,
          "time": 59.16279069767044,
          "velocity": 0.4251968503937008,
          "duration": 0.22093023255811772
        },
        {
          "name": "A6",
          "midi": 93,
          "time": 59.16279069767044,
          "velocity": 0.12598425196850394,
          "duration": 0.0813953488371979
        },
        {
          "name": "F#7",
          "midi": 102,
          "time": 59.16279069767044,
          "velocity": 0.10236220472440945,
          "duration": 0.034883720930224626
        },
        {
          "name": "B5",
          "midi": 83,
          "time": 59.17441860464718,
          "velocity": 0.28346456692913385,
          "duration": 0.034883720930224626
        },
        {
          "name": "C6",
          "midi": 84,
          "time": 59.17441860464718,
          "velocity": 0.31496062992125984,
          "duration": 0.41860465116274526
        },
        {
          "name": "A5",
          "midi": 81,
          "time": 59.18604651162392,
          "velocity": 0.4015748031496063,
          "duration": 0.41860465116274526
        },
        {
          "name": "F4",
          "midi": 65,
          "time": 59.19767441860066,
          "velocity": 0.25984251968503935,
          "duration": 0.4069767441860037
        },
        {
          "name": "C5",
          "midi": 72,
          "time": 59.19767441860066,
          "velocity": 0.4015748031496063,
          "duration": 0.4069767441860037
        },
        {
          "name": "F5",
          "midi": 77,
          "time": 59.19767441860066,
          "velocity": 0.36220472440944884,
          "duration": 0.4069767441860037
        },
        {
          "name": "G#4",
          "midi": 68,
          "time": 59.209302325577404,
          "velocity": 0.2125984251968504,
          "duration": 0.058139534883714816
        },
        {
          "name": "G#3",
          "midi": 56,
          "time": 59.232558139530894,
          "velocity": 0.47244094488188976,
          "duration": 0.023255813953483084
        },
        {
          "name": "F3",
          "midi": 53,
          "time": 59.29069767441461,
          "velocity": 0.3937007874015748,
          "duration": 0.023255813953483084
        },
        {
          "name": "D6",
          "midi": 86,
          "time": 59.29069767441461,
          "velocity": 0.25196850393700787,
          "duration": 0.12790697674417828
        },
        {
          "name": "G6",
          "midi": 91,
          "time": 59.30232558139135,
          "velocity": 0.2125984251968504,
          "duration": 0.06976744186046346
        },
        {
          "name": "G#4",
          "midi": 68,
          "time": 59.31395348836809,
          "velocity": 0.1732283464566929,
          "duration": 0.1046511627906952
        },
        {
          "name": "D5",
          "midi": 74,
          "time": 59.31395348836809,
          "velocity": 0.09448818897637795,
          "duration": 0.03488372093023173
        },
        {
          "name": "F#7",
          "midi": 102,
          "time": 59.31395348836809,
          "velocity": 0.07874015748031496,
          "duration": 0.081395348837205
        },
        {
          "name": "F3",
          "midi": 53,
          "time": 59.325581395344834,
          "velocity": 0.3937007874015748,
          "duration": 0.13953488372092693
        },
        {
          "name": "G5",
          "midi": 79,
          "time": 59.348837209298324,
          "velocity": 0.28346456692913385,
          "duration": 0.12790697674417828
        },
        {
          "name": "D#6",
          "midi": 87,
          "time": 59.41860465115879,
          "velocity": 0.3779527559055118,
          "duration": 0.29069767441855277
        },
        {
          "name": "G#4",
          "midi": 68,
          "time": 59.44186046511228,
          "velocity": 0.28346456692913385,
          "duration": 0.04651162790696617
        },
        {
          "name": "G6",
          "midi": 91,
          "time": 59.45348837208902,
          "velocity": 0.33070866141732286,
          "duration": 0.1395348837209056
        },
        {
          "name": "F3",
          "midi": 53,
          "time": 59.4767441860425,
          "velocity": 0.30708661417322836,
          "duration": 0.023255813953483084
        },
        {
          "name": "G#3",
          "midi": 56,
          "time": 59.4767441860425,
          "velocity": 0.2992125984251969,
          "duration": 0.046511627906973274
        },
        {
          "name": "F#7",
          "midi": 102,
          "time": 59.488372093019244,
          "velocity": 0.07874015748031496,
          "duration": 0.058139534883714816
        },
        {
          "name": "E7",
          "midi": 100,
          "time": 59.499999999995985,
          "velocity": 0.08661417322834646,
          "duration": 0.058139534883714816
        },
        {
          "name": "C3",
          "midi": 48,
          "time": 59.523255813949476,
          "velocity": 0.2283464566929134,
          "duration": 0.023255813953483084
        },
        {
          "name": "G5",
          "midi": 79,
          "time": 59.53488372092622,
          "velocity": 0.11811023622047244,
          "duration": 0.0813953488371908
        },
        {
          "name": "F3",
          "midi": 53,
          "time": 59.54651162790296,
          "velocity": 0.30708661417322836,
          "duration": 0.023255813953483084
        },
        {
          "name": "G#4",
          "midi": 68,
          "time": 59.5581395348797,
          "velocity": 0.14960629921259844,
          "duration": 0.04651162790696617
        },
        {
          "name": "F3",
          "midi": 53,
          "time": 59.58139534883318,
          "velocity": 0.33858267716535434,
          "duration": 0.023255813953483084
        },
        {
          "name": "D#5",
          "midi": 75,
          "time": 59.593023255809925,
          "velocity": 0.12598425196850394,
          "duration": 0.06976744186044925
        },
        {
          "name": "D6",
          "midi": 86,
          "time": 59.593023255809925,
          "velocity": 0.10236220472440945,
          "duration": 0.034883720930224626
        },
        {
          "name": "D#3",
          "midi": 51,
          "time": 59.61627906976341,
          "velocity": 0.2755905511811024,
          "duration": 0.023255813953483084
        },
        {
          "name": "G#3",
          "midi": 56,
          "time": 59.61627906976341,
          "velocity": 0.33858267716535434,
          "duration": 0.034883720930224626
        },
        {
          "name": "C5",
          "midi": 72,
          "time": 59.63953488371689,
          "velocity": 0.14960629921259844,
          "duration": 0.05813953488370771
        },
        {
          "name": "G5",
          "midi": 79,
          "time": 59.63953488371689,
          "velocity": 0.36220472440944884,
          "duration": 0.33720930232554025
        },
        {
          "name": "C#3",
          "midi": 49,
          "time": 59.65116279069363,
          "velocity": 0.25196850393700787,
          "duration": 0.034883720930224626
        },
        {
          "name": "A5",
          "midi": 81,
          "time": 59.65116279069363,
          "velocity": 0.11811023622047244,
          "duration": 0.04651162790696617
        },
        {
          "name": "G#3",
          "midi": 56,
          "time": 59.662790697670374,
          "velocity": 0.33858267716535434,
          "duration": 0.05813953488370771
        },
        {
          "name": "D#4",
          "midi": 63,
          "time": 59.674418604647116,
          "velocity": 0.18110236220472442,
          "duration": 0.05813953488370771
        },
        {
          "name": "A#2",
          "midi": 46,
          "time": 59.6976744186006,
          "velocity": 0.25196850393700787,
          "duration": 0.023255813953483084
        },
        {
          "name": "C5",
          "midi": 72,
          "time": 59.70930232557734,
          "velocity": 0.3858267716535433,
          "duration": 0.33720930232554736
        },
        {
          "name": "F5",
          "midi": 77,
          "time": 59.70930232557734,
          "velocity": 0.31496062992125984,
          "duration": 0.23255813953485927
        },
        {
          "name": "F4",
          "midi": 65,
          "time": 59.72093023255408,
          "velocity": 0.2440944881889764,
          "duration": 0.06976744186045636
        },
        {
          "name": "C6",
          "midi": 84,
          "time": 59.72093023255408,
          "velocity": 0.41732283464566927,
          "duration": 0.20930232558137618
        },
        {
          "name": "D6",
          "midi": 86,
          "time": 59.72093023255408,
          "velocity": 0.31496062992125984,
          "duration": 0.034883720930224626
        },
        {
          "name": "F3",
          "midi": 53,
          "time": 59.73255813953082,
          "velocity": 0.36220472440944884,
          "duration": 0.046511627906973274
        },
        {
          "name": "A5",
          "midi": 81,
          "time": 59.73255813953082,
          "velocity": 0.36220472440944884,
          "duration": 0.2441860465116079
        },
        {
          "name": "G#3",
          "midi": 56,
          "time": 59.744186046507565,
          "velocity": 0.25984251968503935,
          "duration": 0.03488372093023173
        },
        {
          "name": "D#6",
          "midi": 87,
          "time": 59.744186046507565,
          "velocity": 0.4330708661417323,
          "duration": 0.15116279069766136
        },
        {
          "name": "D#5",
          "midi": 75,
          "time": 59.75581395348431,
          "velocity": 0.1732283464566929,
          "duration": 0.1860465116278931
        },
        {
          "name": "D#4",
          "midi": 63,
          "time": 59.7790697674378,
          "velocity": 0.23622047244094488,
          "duration": 0.058139534883714816
        },
        {
          "name": "F3",
          "midi": 53,
          "time": 59.79069767441454,
          "velocity": 0.3779527559055118,
          "duration": 0.12790697674417828
        },
        {
          "name": "G#4",
          "midi": 68,
          "time": 59.79069767441454,
          "velocity": 0.09448818897637795,
          "duration": 0.046511627906973274
        },
        {
          "name": "D#4",
          "midi": 63,
          "time": 59.84883720929825,
          "velocity": 0.2283464566929134,
          "duration": 0.02325581395349019
        },
        {
          "name": "D#4",
          "midi": 63,
          "time": 59.883720930228485,
          "velocity": 0.29133858267716534,
          "duration": 0.17441860465114445
        },
        {
          "name": "D6",
          "midi": 86,
          "time": 59.883720930228485,
          "velocity": 0.18110236220472442,
          "duration": 0.09302325581394655
        },
        {
          "name": "G4",
          "midi": 67,
          "time": 59.895348837205226,
          "velocity": 0.31496062992125984,
          "duration": 0.09302325581394655
        },
        {
          "name": "E3",
          "midi": 52,
          "time": 59.91860465115872,
          "velocity": 0.28346456692913385,
          "duration": 0.023255813953483084
        },
        {
          "name": "G#3",
          "midi": 56,
          "time": 59.9418604651122,
          "velocity": 0.2440944881889764,
          "duration": 0.046511627906973274
        },
        {
          "name": "C3",
          "midi": 48,
          "time": 59.96511627906569,
          "velocity": 0.13385826771653545,
          "duration": 0.06976744186045636
        },
        {
          "name": "G#3",
          "midi": 56,
          "time": 59.999999999995914,
          "velocity": 0.2204724409448819,
          "duration": 0.046511627906973274
        },
        {
          "name": "G5",
          "midi": 79,
          "time": 59.999999999995914,
          "velocity": 0.41732283464566927,
          "duration": 0.23255813953485216
        },
        {
          "name": "D#6",
          "midi": 87,
          "time": 60.034883720926146,
          "velocity": 0.3464566929133858,
          "duration": 0.47674418604645297
        },
        {
          "name": "A#5",
          "midi": 82,
          "time": 60.04651162790289,
          "velocity": 0.3543307086614173,
          "duration": 0.09302325581393234
        },
        {
          "name": "G#3",
          "midi": 56,
          "time": 60.05813953487963,
          "velocity": 0.14960629921259844,
          "duration": 0.034883720930224626
        },
        {
          "name": "D4",
          "midi": 62,
          "time": 60.05813953487963,
          "velocity": 0.25984251968503935,
          "duration": 0.034883720930224626
        },
        {
          "name": "D5",
          "midi": 74,
          "time": 60.05813953487963,
          "velocity": 0.28346456692913385,
          "duration": 0.023255813953483084
        },
        {
          "name": "A5",
          "midi": 81,
          "time": 60.05813953487963,
          "velocity": 0.12598425196850394,
          "duration": 0.034883720930224626
        },
        {
          "name": "F6",
          "midi": 89,
          "time": 60.06976744185637,
          "velocity": 0.33858267716535434,
          "duration": 0.47674418604645297
        },
        {
          "name": "D#3",
          "midi": 51,
          "time": 60.08139534883311,
          "velocity": 0.3464566929133858,
          "duration": 0.06976744186044925
        },
        {
          "name": "A#4",
          "midi": 70,
          "time": 60.08139534883311,
          "velocity": 0.25984251968503935,
          "duration": 0.05813953488370771
        },
        {
          "name": "D#5",
          "midi": 75,
          "time": 60.08139534883311,
          "velocity": 0.49606299212598426,
          "duration": 0.05813953488370771
        },
        {
          "name": "C#6",
          "midi": 85,
          "time": 60.08139534883311,
          "velocity": 0.30708661417322836,
          "duration": 0.06976744186044925
        },
        {
          "name": "G#5",
          "midi": 80,
          "time": 60.104651162786595,
          "velocity": 0.28346456692913385,
          "duration": 0.05813953488370771
        },
        {
          "name": "G#4",
          "midi": 68,
          "time": 60.11627906976334,
          "velocity": 0.2047244094488189,
          "duration": 0.04651162790696617
        },
        {
          "name": "F#7",
          "midi": 102,
          "time": 60.11627906976334,
          "velocity": 0.25984251968503935,
          "duration": 0.30232558139532273
        },
        {
          "name": "E4",
          "midi": 64,
          "time": 60.12790697674008,
          "velocity": 0.25196850393700787,
          "duration": 0.034883720930224626
        },
        {
          "name": "C5",
          "midi": 72,
          "time": 60.12790697674008,
          "velocity": 0.4330708661417323,
          "duration": 0.4302325581394868
        },
        {
          "name": "F5",
          "midi": 77,
          "time": 60.13953488371682,
          "velocity": 0.5669291338582677,
          "duration": 0.41860465116274526
        },
        {
          "name": "A5",
          "midi": 81,
          "time": 60.13953488371682,
          "velocity": 0.30708661417322836,
          "duration": 0.41860465116274526
        },
        {
          "name": "F3",
          "midi": 53,
          "time": 60.15116279069356,
          "velocity": 0.33070866141732286,
          "duration": 0.2093023255813833
        },
        {
          "name": "D#5",
          "midi": 75,
          "time": 60.1627906976703,
          "velocity": 0.18110236220472442,
          "duration": 0.03488372093023173
        },
        {
          "name": "D#5",
          "midi": 75,
          "time": 60.23255813953077,
          "velocity": 0.16535433070866143,
          "duration": 0.05813953488372192
        },
        {
          "name": "G5",
          "midi": 79,
          "time": 60.267441860461,
          "velocity": 0.16535433070866143,
          "duration": 0.06976744186046346
        },
        {
          "name": "D5",
          "midi": 74,
          "time": 60.31395348836798,
          "velocity": 0.4094488188976378,
          "duration": 0.1627906976743958
        },
        {
          "name": "A#5",
          "midi": 82,
          "time": 60.32558139534472,
          "velocity": 0.07086614173228346,
          "duration": 0.04651162790696617
        },
        {
          "name": "D4",
          "midi": 62,
          "time": 60.3488372092982,
          "velocity": 0.29133858267716534,
          "duration": 0.6511627906975974
        },
        {
          "name": "E7",
          "midi": 100,
          "time": 60.3488372092982,
          "velocity": 0.08661417322834646,
          "duration": 0.034883720930224626
        },
        {
          "name": "F#3",
          "midi": 54,
          "time": 60.360465116274945,
          "velocity": 0.25984251968503935,
          "duration": 0.023255813953483084
        },
        {
          "name": "F3",
          "midi": 53,
          "time": 60.38372093022843,
          "velocity": 0.31496062992125984,
          "duration": 0.1627906976743958
        },
        {
          "name": "G5",
          "midi": 79,
          "time": 60.40697674418192,
          "velocity": 0.23622047244094488,
          "duration": 0.09302325581393944
        },
        {
          "name": "G#4",
          "midi": 68,
          "time": 60.4302325581354,
          "velocity": 0.14960629921259844,
          "duration": 0.058139534883714816
        },
        {
          "name": "A#5",
          "midi": 82,
          "time": 60.4302325581354,
          "velocity": 0.08661417322834646,
          "duration": 0.03488372093023173
        },
        {
          "name": "A#4",
          "midi": 70,
          "time": 60.52325581394934,
          "velocity": 0.1889763779527559,
          "duration": 0.04651162790696617
        },
        {
          "name": "G5",
          "midi": 79,
          "time": 60.52325581394934,
          "velocity": 0.2440944881889764,
          "duration": 0.36046511627903044
        },
        {
          "name": "D#5",
          "midi": 75,
          "time": 60.53488372092608,
          "velocity": 0.25196850393700787,
          "duration": 0.06976744186044925
        },
        {
          "name": "G#4",
          "midi": 68,
          "time": 60.558139534879565,
          "velocity": 0.09448818897637795,
          "duration": 0.04651162790696617
        },
        {
          "name": "D6",
          "midi": 86,
          "time": 60.558139534879565,
          "velocity": 0.3464566929133858,
          "duration": 0.3720930232557791
        },
        {
          "name": "F5",
          "midi": 77,
          "time": 60.58139534883305,
          "velocity": 0.2677165354330709,
          "duration": 0.348837209302296
        },
        {
          "name": "G#3",
          "midi": 56,
          "time": 60.59302325580979,
          "velocity": 0.09448818897637795,
          "duration": 0.034883720930224626
        },
        {
          "name": "A5",
          "midi": 81,
          "time": 60.59302325580979,
          "velocity": 0.12598425196850394,
          "duration": 0.04651162790696617
        },
        {
          "name": "G4",
          "midi": 67,
          "time": 60.61627906976327,
          "velocity": 0.1889763779527559,
          "duration": 0.06976744186045636
        },
        {
          "name": "A#4",
          "midi": 70,
          "time": 60.6511627906935,
          "velocity": 0.13385826771653545,
          "duration": 0.046511627906973274
        },
        {
          "name": "D5",
          "midi": 74,
          "time": 60.68604651162373,
          "velocity": 0.3228346456692913,
          "duration": 0.2906976744185883
        },
        {
          "name": "C5",
          "midi": 72,
          "time": 60.72093023255396,
          "velocity": 0.12598425196850394,
          "duration": 0.09302325581395365
        },
        {
          "name": "G4",
          "midi": 67,
          "time": 60.74418604650745,
          "velocity": 0.09448818897637795,
          "duration": 0.03488372093023173
        },
        {
          "name": "A5",
          "midi": 81,
          "time": 60.74418604650745,
          "velocity": 0.14960629921259844,
          "duration": 0.081395348837205
        },
        {
          "name": "A5",
          "midi": 81,
          "time": 60.87209302325163,
          "velocity": 0.11023622047244094,
          "duration": 0.046511627906973274
        },
        {
          "name": "C5",
          "midi": 72,
          "time": 60.89534883720511,
          "velocity": 0.09448818897637795,
          "duration": 0.09302325581394655
        },
        {
          "name": "G4",
          "midi": 67,
          "time": 60.9186046511586,
          "velocity": 0.10236220472440945,
          "duration": 0.06976744186045636
        },
        {
          "name": "A5",
          "midi": 81,
          "time": 60.953488372088835,
          "velocity": 0.23622047244094488,
          "duration": 0.023255813953483084
        },
        {
          "name": "A#5",
          "midi": 82,
          "time": 60.953488372088835,
          "velocity": 0.23622047244094488,
          "duration": 0.034883720930224626
        },
        {
          "name": "B5",
          "midi": 83,
          "time": 60.965116279065576,
          "velocity": 0.3543307086614173,
          "duration": 0.06976744186044925
        },
        {
          "name": "C6",
          "midi": 84,
          "time": 60.965116279065576,
          "velocity": 0.1889763779527559,
          "duration": 0.034883720930224626
        },
        {
          "name": "E6",
          "midi": 88,
          "time": 60.965116279065576,
          "velocity": 0.2440944881889764,
          "duration": 0.034883720930224626
        },
        {
          "name": "F6",
          "midi": 89,
          "time": 60.965116279065576,
          "velocity": 0.2440944881889764,
          "duration": 0.034883720930224626
        },
        {
          "name": "G6",
          "midi": 91,
          "time": 60.965116279065576,
          "velocity": 0.4094488188976378,
          "duration": 0.0813953488371908
        },
        {
          "name": "G#6",
          "midi": 92,
          "time": 60.965116279065576,
          "velocity": 0.28346456692913385,
          "duration": 0.04651162790696617
        },
        {
          "name": "A6",
          "midi": 93,
          "time": 60.965116279065576,
          "velocity": 0.33858267716535434,
          "duration": 0.0813953488371908
        },
        {
          "name": "D#5",
          "midi": 75,
          "time": 60.97674418604232,
          "velocity": 0.25196850393700787,
          "duration": 0.023255813953483084
        },
        {
          "name": "D#6",
          "midi": 87,
          "time": 60.97674418604232,
          "velocity": 0.2755905511811024,
          "duration": 0.06976744186044925
        },
        {
          "name": "D7",
          "midi": 98,
          "time": 60.97674418604232,
          "velocity": 0.10236220472440945,
          "duration": 0.034883720930224626
        },
        {
          "name": "A#1",
          "midi": 34,
          "time": 60.98837209301906,
          "velocity": 0.5196850393700787,
          "duration": 0.011627906976741542
        },
        {
          "name": "B4",
          "midi": 71,
          "time": 60.98837209301906,
          "velocity": 0.12598425196850394,
          "duration": 0.034883720930224626
        },
        {
          "name": "G5",
          "midi": 79,
          "time": 60.98837209301906,
          "velocity": 0.41732283464566927,
          "duration": 0.023255813953483084
        },
        {
          "name": "C#6",
          "midi": 85,
          "time": 60.98837209301906,
          "velocity": 0.25984251968503935,
          "duration": 0.034883720930224626
        },
        {
          "name": "F#6",
          "midi": 90,
          "time": 60.98837209301906,
          "velocity": 0.2755905511811024,
          "duration": 0.034883720930224626
        },
        {
          "name": "G1",
          "midi": 31,
          "time": 60.9999999999958,
          "velocity": 0.7086614173228346,
          "duration": 0.023255813953483084
        },
        {
          "name": "D#4",
          "midi": 63,
          "time": 60.9999999999958,
          "velocity": 0.2755905511811024,
          "duration": 0.034883720930224626
        },
        {
          "name": "F5",
          "midi": 77,
          "time": 60.9999999999958,
          "velocity": 0.2992125984251969,
          "duration": 0.04651162790696617
        },
        {
          "name": "G#5",
          "midi": 80,
          "time": 60.9999999999958,
          "velocity": 0.3464566929133858,
          "duration": 0.04651162790696617
        },
        {
          "name": "A#5",
          "midi": 82,
          "time": 60.9999999999958,
          "velocity": 0.3228346456692913,
          "duration": 0.05813953488370771
        },
        {
          "name": "C6",
          "midi": 84,
          "time": 61.01162790697254,
          "velocity": 0.2440944881889764,
          "duration": 0.05813953488370771
        },
        {
          "name": "G#1",
          "midi": 32,
          "time": 61.023255813949284,
          "velocity": 0.7637795275590551,
          "duration": 0.6046511627905673
        },
        {
          "name": "C5",
          "midi": 72,
          "time": 61.023255813949284,
          "velocity": 0.1889763779527559,
          "duration": 0.05813953488370771
        },
        {
          "name": "E3",
          "midi": 52,
          "time": 61.034883720926025,
          "velocity": 0.25196850393700787,
          "duration": 0.023255813953483084
        },
        {
          "name": "G#4",
          "midi": 68,
          "time": 61.034883720926025,
          "velocity": 0.14960629921259844,
          "duration": 0.0813953488371908
        },
        {
          "name": "E5",
          "midi": 76,
          "time": 61.034883720926025,
          "velocity": 0.2440944881889764,
          "duration": 0.023255813953483084
        },
        {
          "name": "D#3",
          "midi": 51,
          "time": 61.05813953487951,
          "velocity": 0.3543307086614173,
          "duration": 0.04651162790696617
        },
        {
          "name": "D#4",
          "midi": 63,
          "time": 61.05813953487951,
          "velocity": 0.3543307086614173,
          "duration": 0.023255813953483084
        },
        {
          "name": "D5",
          "midi": 74,
          "time": 61.05813953487951,
          "velocity": 0.36220472440944884,
          "duration": 0.04651162790696617
        },
        {
          "name": "F5",
          "midi": 77,
          "time": 61.05813953487951,
          "velocity": 0.2677165354330709,
          "duration": 0.1395348837208985
        },
        {
          "name": "B5",
          "midi": 83,
          "time": 61.06976744185625,
          "velocity": 0.25984251968503935,
          "duration": 0.034883720930224626
        },
        {
          "name": "B4",
          "midi": 71,
          "time": 61.08139534883299,
          "velocity": 0.28346456692913385,
          "duration": 0.034883720930224626
        },
        {
          "name": "F4",
          "midi": 65,
          "time": 61.09302325580973,
          "velocity": 0.25984251968503935,
          "duration": 0.09302325581393234
        },
        {
          "name": "C4",
          "midi": 60,
          "time": 61.104651162786475,
          "velocity": 0.18110236220472442,
          "duration": 0.09302325581393234
        },
        {
          "name": "A#5",
          "midi": 82,
          "time": 61.104651162786475,
          "velocity": 0.30708661417322836,
          "duration": 0.3604651162789949
        },
        {
          "name": "A6",
          "midi": 93,
          "time": 61.104651162786475,
          "velocity": 0.25196850393700787,
          "duration": 0.06976744186044925
        },
        {
          "name": "C5",
          "midi": 72,
          "time": 61.116279069763216,
          "velocity": 0.4251968503937008,
          "duration": 0.06976744186044925
        },
        {
          "name": "G6",
          "midi": 91,
          "time": 61.116279069763216,
          "velocity": 0.13385826771653545,
          "duration": 0.04651162790696617
        },
        {
          "name": "A5",
          "midi": 81,
          "time": 61.12790697673996,
          "velocity": 0.25984251968503935,
          "duration": 0.05813953488370771
        },
        {
          "name": "G5",
          "midi": 79,
          "time": 61.1395348837167,
          "velocity": 0.16535433070866143,
          "duration": 0.12790697674415696
        },
        {
          "name": "C7",
          "midi": 96,
          "time": 61.1395348837167,
          "velocity": 0.23622047244094488,
          "duration": 0.05813953488370771
        },
        {
          "name": "E3",
          "midi": 52,
          "time": 61.15116279069344,
          "velocity": 0.4094488188976378,
          "duration": 0.023255813953483084
        },
        {
          "name": "C#7",
          "midi": 97,
          "time": 61.15116279069344,
          "velocity": 0.18110236220472442,
          "duration": 0.12790697674415696
        },
        {
          "name": "F#7",
          "midi": 102,
          "time": 61.15116279069344,
          "velocity": 0.12598425196850394,
          "duration": 0.034883720930224626
        },
        {
          "name": "F3",
          "midi": 53,
          "time": 61.174418604646924,
          "velocity": 0.33858267716535434,
          "duration": 0.023255813953483084
        },
        {
          "name": "B4",
          "midi": 71,
          "time": 61.186046511623665,
          "velocity": 0.29133858267716534,
          "duration": 0.023255813953483084
        },
        {
          "name": "E5",
          "midi": 76,
          "time": 61.186046511623665,
          "velocity": 0.2440944881889764,
          "duration": 0.023255813953483084
        },
        {
          "name": "E3",
          "midi": 52,
          "time": 61.19767441860041,
          "velocity": 0.4566929133858268,
          "duration": 0.04651162790696617
        },
        {
          "name": "A#4",
          "midi": 70,
          "time": 61.19767441860041,
          "velocity": 0.2755905511811024,
          "duration": 0.12790697674415696
        },
        {
          "name": "C#5",
          "midi": 73,
          "time": 61.19767441860041,
          "velocity": 0.2677165354330709,
          "duration": 0.023255813953483084
        },
        {
          "name": "F5",
          "midi": 77,
          "time": 61.20930232557715,
          "velocity": 0.3543307086614173,
          "duration": 0.15116279069764005
        },
        {
          "name": "A5",
          "midi": 81,
          "time": 61.20930232557715,
          "velocity": 0.3700787401574803,
          "duration": 0.1395348837208985
        },
        {
          "name": "C7",
          "midi": 96,
          "time": 61.20930232557715,
          "velocity": 0.12598425196850394,
          "duration": 0.06976744186044925
        },
        {
          "name": "C5",
          "midi": 72,
          "time": 61.22093023255389,
          "velocity": 0.3464566929133858,
          "duration": 0.12790697674415696
        },
        {
          "name": "D#7",
          "midi": 99,
          "time": 61.22093023255389,
          "velocity": 0.09448818897637795,
          "duration": 0.04651162790696617
        },
        {
          "name": "F7",
          "midi": 101,
          "time": 61.22093023255389,
          "velocity": 0.1968503937007874,
          "duration": 0.11627906976741542
        },
        {
          "name": "A#3",
          "midi": 58,
          "time": 61.23255813953063,
          "velocity": 0.2992125984251969,
          "duration": 0.034883720930224626
        },
        {
          "name": "C6",
          "midi": 84,
          "time": 61.23255813953063,
          "velocity": 0.3543307086614173,
          "duration": 0.1627906976743887
        },
        {
          "name": "D#6",
          "midi": 87,
          "time": 61.23255813953063,
          "velocity": 0.25196850393700787,
          "duration": 0.10465116279067388
        },
        {
          "name": "G6",
          "midi": 91,
          "time": 61.23255813953063,
          "velocity": 0.33070866141732286,
          "duration": 0.10465116279067388
        },
        {
          "name": "D4",
          "midi": 62,
          "time": 61.255813953484115,
          "velocity": 0.2992125984251969,
          "duration": 0.034883720930224626
        },
        {
          "name": "F3",
          "midi": 53,
          "time": 61.2790697674376,
          "velocity": 0.3779527559055118,
          "duration": 0.023255813953483084
        },
        {
          "name": "F4",
          "midi": 65,
          "time": 61.30232558139108,
          "velocity": 0.2440944881889764,
          "duration": 0.034883720930224626
        },
        {
          "name": "F3",
          "midi": 53,
          "time": 61.31395348836782,
          "velocity": 0.4094488188976378,
          "duration": 0.023255813953483084
        },
        {
          "name": "D#5",
          "midi": 75,
          "time": 61.325581395344564,
          "velocity": 0.14960629921259844,
          "duration": 0.034883720930224626
        },
        {
          "name": "E3",
          "midi": 52,
          "time": 61.337209302321305,
          "velocity": 0.3700787401574803,
          "duration": 0.023255813953483084
        },
        {
          "name": "C4",
          "midi": 60,
          "time": 61.337209302321305,
          "velocity": 0.2047244094488189,
          "duration": 0.058139534883714816
        },
        {
          "name": "A#4",
          "midi": 70,
          "time": 61.34883720929805,
          "velocity": 0.14173228346456693,
          "duration": 0.046511627906973274
        },
        {
          "name": "D#6",
          "midi": 87,
          "time": 61.34883720929805,
          "velocity": 0.16535433070866143,
          "duration": 0.046511627906973274
        },
        {
          "name": "F3",
          "midi": 53,
          "time": 61.36046511627479,
          "velocity": 0.4645669291338583,
          "duration": 0.058139534883714816
        },
        {
          "name": "C5",
          "midi": 72,
          "time": 61.36046511627479,
          "velocity": 0.3543307086614173,
          "duration": 0.1627906976743887
        },
        {
          "name": "D5",
          "midi": 74,
          "time": 61.36046511627479,
          "velocity": 0.2440944881889764,
          "duration": 0.03488372093023173
        },
        {
          "name": "E5",
          "midi": 76,
          "time": 61.38372093022828,
          "velocity": 0.2755905511811024,
          "duration": 0.034883720930224626
        },
        {
          "name": "D#4",
          "midi": 63,
          "time": 61.39534883720502,
          "velocity": 0.2755905511811024,
          "duration": 0.06976744186044925
        },
        {
          "name": "G#5",
          "midi": 80,
          "time": 61.39534883720502,
          "velocity": 0.29133858267716534,
          "duration": 0.023255813953483084
        },
        {
          "name": "B5",
          "midi": 83,
          "time": 61.39534883720502,
          "velocity": 0.23622047244094488,
          "duration": 0.023255813953483084
        },
        {
          "name": "D6",
          "midi": 86,
          "time": 61.39534883720502,
          "velocity": 0.14960629921259844,
          "duration": 0.034883720930224626
        },
        {
          "name": "F#6",
          "midi": 90,
          "time": 61.39534883720502,
          "velocity": 0.1889763779527559,
          "duration": 0.034883720930224626
        },
        {
          "name": "D5",
          "midi": 74,
          "time": 61.40697674418176,
          "velocity": 0.23622047244094488,
          "duration": 0.034883720930224626
        },
        {
          "name": "F7",
          "midi": 101,
          "time": 61.40697674418176,
          "velocity": 0.25196850393700787,
          "duration": 0.10465116279067388
        },
        {
          "name": "C4",
          "midi": 60,
          "time": 61.4186046511585,
          "velocity": 0.1889763779527559,
          "duration": 0.034883720930224626
        },
        {
          "name": "F4",
          "midi": 65,
          "time": 61.4186046511585,
          "velocity": 0.2440944881889764,
          "duration": 0.034883720930224626
        },
        {
          "name": "F5",
          "midi": 77,
          "time": 61.4186046511585,
          "velocity": 0.3228346456692913,
          "duration": 0.11627906976741542
        },
        {
          "name": "A5",
          "midi": 81,
          "time": 61.4186046511585,
          "velocity": 0.3228346456692913,
          "duration": 0.1395348837208985
        },
        {
          "name": "C7",
          "midi": 96,
          "time": 61.4186046511585,
          "velocity": 0.23622047244094488,
          "duration": 0.0813953488371908
        },
        {
          "name": "D#6",
          "midi": 87,
          "time": 61.430232558135245,
          "velocity": 0.15748031496062992,
          "duration": 0.09302325581393234
        },
        {
          "name": "B6",
          "midi": 95,
          "time": 61.430232558135245,
          "velocity": 0.30708661417322836,
          "duration": 0.05813953488370771
        },
        {
          "name": "D#7",
          "midi": 99,
          "time": 61.430232558135245,
          "velocity": 0.1732283464566929,
          "duration": 0.0813953488371908
        },
        {
          "name": "F#7",
          "midi": 102,
          "time": 61.430232558135245,
          "velocity": 0.23622047244094488,
          "duration": 0.0813953488371908
        },
        {
          "name": "E3",
          "midi": 52,
          "time": 61.441860465111986,
          "velocity": 0.36220472440944884,
          "duration": 0.023255813953483084
        },
        {
          "name": "E7",
          "midi": 100,
          "time": 61.441860465111986,
          "velocity": 0.09448818897637795,
          "duration": 0.05813953488370771
        },
        {
          "name": "D4",
          "midi": 62,
          "time": 61.46511627906547,
          "velocity": 0.23622047244094488,
          "duration": 0.023255813953483084
        },
        {
          "name": "G#4",
          "midi": 68,
          "time": 61.46511627906547,
          "velocity": 0.25984251968503935,
          "duration": 0.10465116279067388
        },
        {
          "name": "E5",
          "midi": 76,
          "time": 61.46511627906547,
          "velocity": 0.2440944881889764,
          "duration": 0.034883720930224626
        },
        {
          "name": "C#7",
          "midi": 97,
          "time": 61.46511627906547,
          "velocity": 0.1732283464566929,
          "duration": 0.04651162790696617
        },
        {
          "name": "F4",
          "midi": 65,
          "time": 61.47674418604221,
          "velocity": 0.2204724409448819,
          "duration": 0.034883720930224626
        },
        {
          "name": "G#3",
          "midi": 56,
          "time": 61.48837209301895,
          "velocity": 0.2992125984251969,
          "duration": 0.023255813953483084
        },
        {
          "name": "A#5",
          "midi": 82,
          "time": 61.48837209301895,
          "velocity": 0.25196850393700787,
          "duration": 0.279069767441797
        },
        {
          "name": "C#4",
          "midi": 61,
          "time": 61.499999999995694,
          "velocity": 0.29133858267716534,
          "duration": 0.023255813953483084
        },
        {
          "name": "D#5",
          "midi": 75,
          "time": 61.499999999995694,
          "velocity": 0.30708661417322836,
          "duration": 0.1627906976743816
        },
        {
          "name": "G#3",
          "midi": 56,
          "time": 61.52325581394918,
          "velocity": 0.33858267716535434,
          "duration": 0.05813953488370771
        },
        {
          "name": "D4",
          "midi": 62,
          "time": 61.52325581394918,
          "velocity": 0.28346456692913385,
          "duration": 0.04651162790696617
        },
        {
          "name": "C4",
          "midi": 60,
          "time": 61.54651162790266,
          "velocity": 0.18110236220472442,
          "duration": 0.034883720930224626
        },
        {
          "name": "D#3",
          "midi": 51,
          "time": 61.5581395348794,
          "velocity": 0.23622047244094488,
          "duration": 0.023255813953483084
        },
        {
          "name": "F#4",
          "midi": 66,
          "time": 61.5581395348794,
          "velocity": 0.2440944881889764,
          "duration": 0.023255813953483084
        },
        {
          "name": "C5",
          "midi": 72,
          "time": 61.5581395348794,
          "velocity": 0.3700787401574803,
          "duration": 0.26744186046505547
        },
        {
          "name": "F5",
          "midi": 77,
          "time": 61.5581395348794,
          "velocity": 0.2440944881889764,
          "duration": 0.18604651162786467
        },
        {
          "name": "F7",
          "midi": 101,
          "time": 61.5581395348794,
          "velocity": 0.16535433070866143,
          "duration": 0.05813953488370771
        },
        {
          "name": "F#7",
          "midi": 102,
          "time": 61.56976744185614,
          "velocity": 0.12598425196850394,
          "duration": 0.04651162790696617
        },
        {
          "name": "D#4",
          "midi": 63,
          "time": 61.581395348832885,
          "velocity": 0.23622047244094488,
          "duration": 0.023255813953483084
        },
        {
          "name": "F4",
          "midi": 65,
          "time": 61.581395348832885,
          "velocity": 0.25984251968503935,
          "duration": 0.034883720930224626
        },
        {
          "name": "E3",
          "midi": 52,
          "time": 61.59302325580963,
          "velocity": 0.3937007874015748,
          "duration": 0.023255813953483084
        },
        {
          "name": "D4",
          "midi": 62,
          "time": 61.60465116278637,
          "velocity": 0.23622047244094488,
          "duration": 0.023255813953483084
        },
        {
          "name": "F#3",
          "midi": 54,
          "time": 61.61627906976311,
          "velocity": 0.2677165354330709,
          "duration": 0.023255813953483084
        },
        {
          "name": "G1",
          "midi": 31,
          "time": 61.62790697673985,
          "velocity": 0.7007874015748031,
          "duration": 0.011627906976741542
        },
        {
          "name": "F4",
          "midi": 65,
          "time": 61.62790697673985,
          "velocity": 0.30708661417322836,
          "duration": 0.06976744186044925
        },
        {
          "name": "A#4",
          "midi": 70,
          "time": 61.62790697673985,
          "velocity": 0.2204724409448819,
          "duration": 0.04651162790696617
        },
        {
          "name": "A6",
          "midi": 93,
          "time": 61.62790697673985,
          "velocity": 0.1732283464566929,
          "duration": 0.06976744186044925
        },
        {
          "name": "F1",
          "midi": 29,
          "time": 61.63953488371659,
          "velocity": 0.5748031496062992,
          "duration": 0.011627906976741542
        },
        {
          "name": "F3",
          "midi": 53,
          "time": 61.651162790693334,
          "velocity": 0.41732283464566927,
          "duration": 0.034883720930224626
        },
        {
          "name": "G-1",
          "midi": 7,
          "time": 61.662790697670076,
          "velocity": 0.5433070866141733,
          "duration": 0.011627906976741542
        },
        {
          "name": "D#6",
          "midi": 87,
          "time": 61.662790697670076,
          "velocity": 0.08661417322834646,
          "duration": 0.04651162790696617
        },
        {
          "name": "G1",
          "midi": 31,
          "time": 61.67441860464682,
          "velocity": 0.7559055118110236,
          "duration": 0.023255813953483084
        },
        {
          "name": "D#5",
          "midi": 75,
          "time": 61.67441860464682,
          "velocity": 0.3464566929133858,
          "duration": 0.11627906976741542
        },
        {
          "name": "G#5",
          "midi": 80,
          "time": 61.67441860464682,
          "velocity": 0.2204724409448819,
          "duration": 0.05813953488370771
        },
        {
          "name": "G#4",
          "midi": 68,
          "time": 61.68604651162356,
          "velocity": 0.3228346456692913,
          "duration": 0.11627906976741542
        },
        {
          "name": "F#1",
          "midi": 30,
          "time": 61.6976744186003,
          "velocity": 0.7795275590551181,
          "duration": 0.011627906976741542
        },
        {
          "name": "A2",
          "midi": 45,
          "time": 61.6976744186003,
          "velocity": 0.36220472440944884,
          "duration": 0.023255813953483084
        },
        {
          "name": "G#3",
          "midi": 56,
          "time": 61.6976744186003,
          "velocity": 0.4015748031496063,
          "duration": 0.0813953488371908
        },
        {
          "name": "G1",
          "midi": 31,
          "time": 61.70930232557704,
          "velocity": 0.7795275590551181,
          "duration": 0.5930232558138684
        },
        {
          "name": "D#3",
          "midi": 51,
          "time": 61.70930232557704,
          "velocity": 0.3937007874015748,
          "duration": 0.023255813953483084
        },
        {
          "name": "G6",
          "midi": 91,
          "time": 61.70930232557704,
          "velocity": 0.13385826771653545,
          "duration": 0.05813953488370771
        },
        {
          "name": "D3",
          "midi": 50,
          "time": 61.732558139530525,
          "velocity": 0.2677165354330709,
          "duration": 0.023255813953483084
        },
        {
          "name": "A5",
          "midi": 81,
          "time": 61.75581395348401,
          "velocity": 0.11023622047244094,
          "duration": 0.034883720930224626
        },
        {
          "name": "D3",
          "midi": 50,
          "time": 61.76744186046075,
          "velocity": 0.30708661417322836,
          "duration": 0.0813953488371908
        },
        {
          "name": "D5",
          "midi": 74,
          "time": 61.76744186046075,
          "velocity": 0.11023622047244094,
          "duration": 0.04651162790696617
        },
        {
          "name": "F5",
          "midi": 77,
          "time": 61.76744186046075,
          "velocity": 0.2283464566929134,
          "duration": 0.0813953488371908
        },
        {
          "name": "G#3",
          "midi": 56,
          "time": 61.79069767441423,
          "velocity": 0.33858267716535434,
          "duration": 0.034883720930224626
        },
        {
          "name": "A#5",
          "midi": 82,
          "time": 61.79069767441423,
          "velocity": 0.1732283464566929,
          "duration": 0.09302325581393234
        },
        {
          "name": "F4",
          "midi": 65,
          "time": 61.802325581390974,
          "velocity": 0.2283464566929134,
          "duration": 0.04651162790696617
        },
        {
          "name": "D#5",
          "midi": 75,
          "time": 61.82558139534446,
          "velocity": 0.33070866141732286,
          "duration": 0.034883720930224626
        },
        {
          "name": "F#5",
          "midi": 78,
          "time": 61.8372093023212,
          "velocity": 0.33070866141732286,
          "duration": 0.034883720930224626
        },
        {
          "name": "A6",
          "midi": 93,
          "time": 61.8372093023212,
          "velocity": 0.33070866141732286,
          "duration": 0.11627906976741542
        },
        {
          "name": "C#6",
          "midi": 85,
          "time": 61.84883720929794,
          "velocity": 0.14173228346456693,
          "duration": 0.05813953488370771
        },
        {
          "name": "A#6",
          "midi": 94,
          "time": 61.84883720929794,
          "velocity": 0.25984251968503935,
          "duration": 0.06976744186044925
        },
        {
          "name": "F7",
          "midi": 101,
          "time": 61.84883720929794,
          "velocity": 0.1889763779527559,
          "duration": 0.17441860465113024
        },
        {
          "name": "D#4",
          "midi": 63,
          "time": 61.86046511627468,
          "velocity": 0.28346456692913385,
          "duration": 0.11627906976742253
        },
        {
          "name": "F#4",
          "midi": 66,
          "time": 61.86046511627468,
          "velocity": 0.25984251968503935,
          "duration": 0.023255813953483084
        },
        {
          "name": "C#5",
          "midi": 73,
          "time": 61.86046511627468,
          "velocity": 0.3858267716535433,
          "duration": 0.023255813953483084
        },
        {
          "name": "F5",
          "midi": 77,
          "time": 61.86046511627468,
          "velocity": 0.4015748031496063,
          "duration": 0.5348837209301607
        },
        {
          "name": "B5",
          "midi": 83,
          "time": 61.86046511627468,
          "velocity": 0.14173228346456693,
          "duration": 0.04651162790696617
        },
        {
          "name": "D#6",
          "midi": 87,
          "time": 61.87209302325142,
          "velocity": 0.1732283464566929,
          "duration": 0.05813953488370771
        },
        {
          "name": "G6",
          "midi": 91,
          "time": 61.87209302325142,
          "velocity": 0.23622047244094488,
          "duration": 0.04651162790696617
        },
        {
          "name": "E7",
          "midi": 100,
          "time": 61.87209302325142,
          "velocity": 0.1968503937007874,
          "duration": 0.10465116279068098
        },
        {
          "name": "A4",
          "midi": 69,
          "time": 61.883720930228165,
          "velocity": 0.15748031496062992,
          "duration": 0.034883720930224626
        },
        {
          "name": "C5",
          "midi": 72,
          "time": 61.883720930228165,
          "velocity": 0.3543307086614173,
          "duration": 0.06976744186044925
        },
        {
          "name": "A5",
          "midi": 81,
          "time": 61.883720930228165,
          "velocity": 0.2440944881889764,
          "duration": 0.05813953488370771
        },
        {
          "name": "C#7",
          "midi": 97,
          "time": 61.883720930228165,
          "velocity": 0.2125984251968504,
          "duration": 0.10465116279068098
        },
        {
          "name": "F#7",
          "midi": 102,
          "time": 61.883720930228165,
          "velocity": 0.2204724409448819,
          "duration": 0.12790697674416407
        },
        {
          "name": "G#3",
          "midi": 56,
          "time": 61.89534883720491,
          "velocity": 0.3779527559055118,
          "duration": 0.023255813953483084
        },
        {
          "name": "A#5",
          "midi": 82,
          "time": 61.89534883720491,
          "velocity": 0.13385826771653545,
          "duration": 0.04651162790696617
        },
        {
          "name": "G5",
          "midi": 79,
          "time": 61.90697674418165,
          "velocity": 0.31496062992125984,
          "duration": 0.0813953488371979
        },
        {
          "name": "D6",
          "midi": 86,
          "time": 61.90697674418165,
          "velocity": 0.16535433070866143,
          "duration": 0.04651162790696617
        },
        {
          "name": "B6",
          "midi": 95,
          "time": 61.90697674418165,
          "velocity": 0.2755905511811024,
          "duration": 0.06976744186045636
        },
        {
          "name": "G3",
          "midi": 55,
          "time": 61.91860465115839,
          "velocity": 0.4015748031496063,
          "duration": 0.034883720930224626
        },
        {
          "name": "B5",
          "midi": 83,
          "time": 61.91860465115839,
          "velocity": 0.15748031496062992,
          "duration": 0.06976744186045636
        },
        {
          "name": "D5",
          "midi": 74,
          "time": 61.93023255813513,
          "velocity": 0.4330708661417323,
          "duration": 0.06976744186045636
        },
        {
          "name": "D3",
          "midi": 50,
          "time": 61.953488372088614,
          "velocity": 0.23622047244094488,
          "duration": 0.02325581395349019
        },
        {
          "name": "B3",
          "midi": 59,
          "time": 61.953488372088614,
          "velocity": 0.23622047244094488,
          "duration": 0.02325581395349019
        },
        {
          "name": "C7",
          "midi": 96,
          "time": 61.976744186042104,
          "velocity": 0.15748031496062992,
          "duration": 0.034883720930224626
        },
        {
          "name": "D3",
          "midi": 50,
          "time": 61.988372093018846,
          "velocity": 0.29133858267716534,
          "duration": 0.06976744186045636
        },
        {
          "name": "A#5",
          "midi": 82,
          "time": 61.988372093018846,
          "velocity": 0.18110236220472442,
          "duration": 0.06976744186045636
        },
        {
          "name": "G#3",
          "midi": 56,
          "time": 61.99999999999559,
          "velocity": 0.33070866141732286,
          "duration": 0.081395348837205
        },
        {
          "name": "A4",
          "midi": 69,
          "time": 61.99999999999559,
          "velocity": 0.16535433070866143,
          "duration": 0.09302325581394655
        },
        {
          "name": "C#5",
          "midi": 73,
          "time": 61.99999999999559,
          "velocity": 0.25196850393700787,
          "duration": 0.023255813953483084
        },
        {
          "name": "D#5",
          "midi": 75,
          "time": 62.02325581394907,
          "velocity": 0.2204724409448819,
          "duration": 0.33720930232554736
        },
        {
          "name": "F4",
          "midi": 65,
          "time": 62.04651162790256,
          "velocity": 0.2992125984251969,
          "duration": 0.10465116279068098
        },
        {
          "name": "G#5",
          "midi": 80,
          "time": 62.04651162790256,
          "velocity": 0.07086614173228346,
          "duration": 0.058139534883714816
        },
        {
          "name": "C5",
          "midi": 72,
          "time": 62.093023255809534,
          "velocity": 0.2283464566929134,
          "duration": 0.034883720930224626
        },
        {
          "name": "D#3",
          "midi": 51,
          "time": 62.11627906976302,
          "velocity": 0.4015748031496063,
          "duration": 0.023255813953483084
        },
        {
          "name": "G#3",
          "midi": 56,
          "time": 62.11627906976302,
          "velocity": 0.4251968503937008,
          "duration": 0.3488372093022818
        },
        {
          "name": "A#4",
          "midi": 70,
          "time": 62.11627906976302,
          "velocity": 0.25196850393700787,
          "duration": 0.023255813953483084
        },
        {
          "name": "D3",
          "midi": 50,
          "time": 62.1395348837165,
          "velocity": 0.3779527559055118,
          "duration": 0.16279069767441
        },
        {
          "name": "A4",
          "midi": 69,
          "time": 62.1395348837165,
          "velocity": 0.13385826771653545,
          "duration": 0.17441860465115155
        },
        {
          "name": "D#4",
          "midi": 63,
          "time": 62.15116279069324,
          "velocity": 0.29133858267716534,
          "duration": 0.19767441860463464
        },
        {
          "name": "C5",
          "midi": 72,
          "time": 62.16279069766998,
          "velocity": 0.10236220472440945,
          "duration": 0.03488372093023173
        },
        {
          "name": "A#5",
          "midi": 82,
          "time": 62.197674418600215,
          "velocity": 0.09448818897637795,
          "duration": 0.046511627906973274
        },
        {
          "name": "F#1",
          "midi": 30,
          "time": 62.30232558139091,
          "velocity": 0.7007874015748031,
          "duration": 0.011627906976741542
        },
        {
          "name": "E1",
          "midi": 28,
          "time": 62.31395348836765,
          "velocity": 0.5354330708661418,
          "duration": 0.011627906976741542
        },
        {
          "name": "C5",
          "midi": 72,
          "time": 62.337209302321135,
          "velocity": 0.12598425196850394,
          "duration": 0.04651162790696617
        },
        {
          "name": "A5",
          "midi": 81,
          "time": 62.337209302321135,
          "velocity": 0.2125984251968504,
          "duration": 0.034883720930224626
        },
        {
          "name": "D6",
          "midi": 86,
          "time": 62.337209302321135,
          "velocity": 0.18110236220472442,
          "duration": 0.04651162790696617
        },
        {
          "name": "D#1",
          "midi": 27,
          "time": 62.348837209297876,
          "velocity": 0.6456692913385826,
          "duration": 0.011627906976741542
        },
        {
          "name": "G5",
          "midi": 79,
          "time": 62.348837209297876,
          "velocity": 0.30708661417322836,
          "duration": 0.372093023255772
        },
        {
          "name": "C6",
          "midi": 84,
          "time": 62.348837209297876,
          "velocity": 0.2204724409448819,
          "duration": 0.034883720930224626
        },
        {
          "name": "D1",
          "midi": 26,
          "time": 62.36046511627462,
          "velocity": 0.7086614173228346,
          "duration": 0.011627906976741542
        },
        {
          "name": "C#1",
          "midi": 25,
          "time": 62.37209302325136,
          "velocity": 0.7322834645669292,
          "duration": 0.011627906976741542
        },
        {
          "name": "G4",
          "midi": 67,
          "time": 62.37209302325136,
          "velocity": 0.4094488188976378,
          "duration": 0.0813953488371979
        },
        {
          "name": "B0",
          "midi": 23,
          "time": 62.3837209302281,
          "velocity": 0.7637795275590551,
          "duration": 0.023255813953483084
        },
        {
          "name": "C1",
          "midi": 24,
          "time": 62.406976744181584,
          "velocity": 0.7559055118110236,
          "duration": 0.3255813953488058
        },
        {
          "name": "D4",
          "midi": 62,
          "time": 62.406976744181584,
          "velocity": 0.2204724409448819,
          "duration": 0.09302325581393944
        },
        {
          "name": "D5",
          "midi": 74,
          "time": 62.418604651158326,
          "velocity": 0.23622047244094488,
          "duration": 0.02325581395349019
        },
        {
          "name": "F5",
          "midi": 77,
          "time": 62.418604651158326,
          "velocity": 0.31496062992125984,
          "duration": 0.372093023255772
        },
        {
          "name": "G2",
          "midi": 43,
          "time": 62.4651162790653,
          "velocity": 0.2755905511811024,
          "duration": 0.023255813953483084
        },
        {
          "name": "G#3",
          "midi": 56,
          "time": 62.47674418604204,
          "velocity": 0.3464566929133858,
          "duration": 0.034883720930224626
        },
        {
          "name": "C5",
          "midi": 72,
          "time": 62.47674418604204,
          "velocity": 0.09448818897637795,
          "duration": 0.034883720930224626
        },
        {
          "name": "D#5",
          "midi": 75,
          "time": 62.499999999995524,
          "velocity": 0.11811023622047244,
          "duration": 0.09302325581394655
        },
        {
          "name": "G#3",
          "midi": 56,
          "time": 62.52325581394901,
          "velocity": 0.41732283464566927,
          "duration": 0.15116279069766847
        },
        {
          "name": "D#4",
          "midi": 63,
          "time": 62.52325581394901,
          "velocity": 0.1889763779527559,
          "duration": 0.046511627906973274
        },
        {
          "name": "G2",
          "midi": 43,
          "time": 62.56976744185598,
          "velocity": 0.29133858267716534,
          "duration": 0.02325581395349019
        },
        {
          "name": "D4",
          "midi": 62,
          "time": 62.63953488371644,
          "velocity": 0.2204724409448819,
          "duration": 0.09302325581394655
        },
        {
          "name": "F#4",
          "midi": 66,
          "time": 62.651162790693185,
          "velocity": 0.11811023622047244,
          "duration": 0.05813953488372192
        },
        {
          "name": "G#3",
          "midi": 56,
          "time": 62.68604651162342,
          "velocity": 0.33858267716535434,
          "duration": 0.10465116279068098
        },
        {
          "name": "G4",
          "midi": 67,
          "time": 62.70930232557691,
          "velocity": 0.2204724409448819,
          "duration": 0.06976744186044925
        },
        {
          "name": "D#5",
          "midi": 75,
          "time": 62.70930232557691,
          "velocity": 0.2992125984251969,
          "duration": 0.12790697674415696
        },
        {
          "name": "A5",
          "midi": 81,
          "time": 62.70930232557691,
          "velocity": 0.23622047244094488,
          "duration": 0.05813953488370771
        },
        {
          "name": "G#5",
          "midi": 80,
          "time": 62.72093023255365,
          "velocity": 0.33858267716535434,
          "duration": 0.05813953488370771
        },
        {
          "name": "B5",
          "midi": 83,
          "time": 62.72093023255365,
          "velocity": 0.2440944881889764,
          "duration": 0.034883720930224626
        },
        {
          "name": "C#6",
          "midi": 85,
          "time": 62.72093023255365,
          "velocity": 0.28346456692913385,
          "duration": 0.10465116279067388
        },
        {
          "name": "F#6",
          "midi": 90,
          "time": 62.72093023255365,
          "velocity": 0.25984251968503935,
          "duration": 0.04651162790696617
        },
        {
          "name": "C#1",
          "midi": 25,
          "time": 62.73255813953039,
          "velocity": 0.7322834645669292,
          "duration": 0.011627906976741542
        },
        {
          "name": "C4",
          "midi": 60,
          "time": 62.73255813953039,
          "velocity": 0.2677165354330709,
          "duration": 0.023255813953483084
        },
        {
          "name": "A6",
          "midi": 93,
          "time": 62.73255813953039,
          "velocity": 0.36220472440944884,
          "duration": 0.41860465116272394
        },
        {
          "name": "C1",
          "midi": 24,
          "time": 62.74418604650713,
          "velocity": 0.7480314960629921,
          "duration": 0.8953488372091485
        },
        {
          "name": "C#5",
          "midi": 73,
          "time": 62.74418604650713,
          "velocity": 0.2283464566929134,
          "duration": 0.034883720930224626
        },
        {
          "name": "A2",
          "midi": 45,
          "time": 62.75581395348387,
          "velocity": 0.25196850393700787,
          "duration": 0.023255813953483084
        },
        {
          "name": "A#5",
          "midi": 82,
          "time": 62.75581395348387,
          "velocity": 0.4015748031496063,
          "duration": 0.05813953488370771
        },
        {
          "name": "D4",
          "midi": 62,
          "time": 62.767441860460615,
          "velocity": 0.2440944881889764,
          "duration": 0.023255813953483084
        },
        {
          "name": "G6",
          "midi": 91,
          "time": 62.767441860460615,
          "velocity": 0.28346456692913385,
          "duration": 0.05813953488370771
        },
        {
          "name": "E7",
          "midi": 100,
          "time": 62.767441860460615,
          "velocity": 0.13385826771653545,
          "duration": 0.1627906976743887
        },
        {
          "name": "G5",
          "midi": 79,
          "time": 62.779069767437356,
          "velocity": 0.33858267716535434,
          "duration": 0.04651162790696617
        },
        {
          "name": "C7",
          "midi": 96,
          "time": 62.779069767437356,
          "velocity": 0.13385826771653545,
          "duration": 0.15116279069764715
        },
        {
          "name": "D7",
          "midi": 98,
          "time": 62.779069767437356,
          "velocity": 0.18110236220472442,
          "duration": 0.04651162790696617
        },
        {
          "name": "G2",
          "midi": 43,
          "time": 62.80232558139084,
          "velocity": 0.25984251968503935,
          "duration": 0.023255813953483084
        },
        {
          "name": "G#3",
          "midi": 56,
          "time": 62.80232558139084,
          "velocity": 0.3543307086614173,
          "duration": 0.023255813953483084
        },
        {
          "name": "F5",
          "midi": 77,
          "time": 62.80232558139084,
          "velocity": 0.3700787401574803,
          "duration": 0.33720930232553314
        },
        {
          "name": "A5",
          "midi": 81,
          "time": 62.80232558139084,
          "velocity": 0.4015748031496063,
          "duration": 0.33720930232553314
        },
        {
          "name": "D6",
          "midi": 86,
          "time": 62.80232558139084,
          "velocity": 0.14173228346456693,
          "duration": 0.10465116279068098
        },
        {
          "name": "C5",
          "midi": 72,
          "time": 62.81395348836758,
          "velocity": 0.30708661417322836,
          "duration": 0.33720930232553314
        },
        {
          "name": "C6",
          "midi": 84,
          "time": 62.81395348836758,
          "velocity": 0.3779527559055118,
          "duration": 0.3255813953487916
        },
        {
          "name": "B6",
          "midi": 95,
          "time": 62.81395348836758,
          "velocity": 0.29133858267716534,
          "duration": 0.0813953488371979
        },
        {
          "name": "F#7",
          "midi": 102,
          "time": 62.81395348836758,
          "velocity": 0.16535433070866143,
          "duration": 0.3255813953487916
        },
        {
          "name": "F4",
          "midi": 65,
          "time": 62.82558139534432,
          "velocity": 0.1889763779527559,
          "duration": 0.0813953488371979
        },
        {
          "name": "G#4",
          "midi": 68,
          "time": 62.82558139534432,
          "velocity": 0.14960629921259844,
          "duration": 0.058139534883714816
        },
        {
          "name": "D5",
          "midi": 74,
          "time": 62.837209302321064,
          "velocity": 0.12598425196850394,
          "duration": 0.03488372093023173
        },
        {
          "name": "G5",
          "midi": 79,
          "time": 62.837209302321064,
          "velocity": 0.08661417322834646,
          "duration": 0.046511627906973274
        },
        {
          "name": "G6",
          "midi": 91,
          "time": 62.837209302321064,
          "velocity": 0.2992125984251969,
          "duration": 0.3023255813953085
        },
        {
          "name": "G#3",
          "midi": 56,
          "time": 62.848837209297805,
          "velocity": 0.3937007874015748,
          "duration": 0.02325581395349019
        },
        {
          "name": "G#3",
          "midi": 56,
          "time": 62.88372093022804,
          "velocity": 0.36220472440944884,
          "duration": 0.023255813953483084
        },
        {
          "name": "D4",
          "midi": 62,
          "time": 62.88372093022804,
          "velocity": 0.15748031496062992,
          "duration": 0.04651162790696617
        },
        {
          "name": "D#6",
          "midi": 87,
          "time": 62.88372093022804,
          "velocity": 0.30708661417322836,
          "duration": 0.27906976744181833
        },
        {
          "name": "G2",
          "midi": 43,
          "time": 62.89534883720478,
          "velocity": 0.2677165354330709,
          "duration": 0.034883720930224626
        },
        {
          "name": "A#6",
          "midi": 94,
          "time": 62.89534883720478,
          "velocity": 0.1889763779527559,
          "duration": 0.04651162790696617
        },
        {
          "name": "G3",
          "midi": 55,
          "time": 62.91860465115826,
          "velocity": 0.33858267716535434,
          "duration": 0.023255813953483084
        },
        {
          "name": "D6",
          "midi": 86,
          "time": 62.91860465115826,
          "velocity": 0.1732283464566929,
          "duration": 0.04651162790696617
        },
        {
          "name": "F4",
          "midi": 65,
          "time": 62.930232558135,
          "velocity": 0.2125984251968504,
          "duration": 0.23255813953485216
        },
        {
          "name": "D4",
          "midi": 62,
          "time": 62.941860465111745,
          "velocity": 0.1732283464566929,
          "duration": 0.04651162790696617
        },
        {
          "name": "B6",
          "midi": 95,
          "time": 62.941860465111745,
          "velocity": 0.07086614173228346,
          "duration": 0.034883720930224626
        },
        {
          "name": "G5",
          "midi": 79,
          "time": 62.953488372088486,
          "velocity": 0.16535433070866143,
          "duration": 0.04651162790696617
        },
        {
          "name": "F3",
          "midi": 53,
          "time": 62.97674418604197,
          "velocity": 0.31496062992125984,
          "duration": 0.034883720930224626
        },
        {
          "name": "F3",
          "midi": 53,
          "time": 63.023255813948936,
          "velocity": 0.28346456692913385,
          "duration": 0.02325581395349019
        },
        {
          "name": "G#4",
          "midi": 68,
          "time": 63.023255813948936,
          "velocity": 0.2440944881889764,
          "duration": 0.13953488372091982
        },
        {
          "name": "G5",
          "midi": 79,
          "time": 63.023255813948936,
          "velocity": 0.18110236220472442,
          "duration": 0.081395348837205
        },
        {
          "name": "G#2",
          "midi": 44,
          "time": 63.046511627902426,
          "velocity": 0.31496062992125984,
          "duration": 0.02325581395349019
        },
        {
          "name": "G3",
          "midi": 55,
          "time": 63.069767441855916,
          "velocity": 0.4251968503937008,
          "duration": 0.023255813953483084
        },
        {
          "name": "A#6",
          "midi": 94,
          "time": 63.08139534883266,
          "velocity": 0.14960629921259844,
          "duration": 0.058139534883714816
        },
        {
          "name": "G5",
          "midi": 79,
          "time": 63.12790697673963,
          "velocity": 0.1732283464566929,
          "duration": 0.17441860465113024
        },
        {
          "name": "E4",
          "midi": 64,
          "time": 63.151162790693114,
          "velocity": 0.23622047244094488,
          "duration": 0.023255813953483084
        },
        {
          "name": "D#5",
          "midi": 75,
          "time": 63.151162790693114,
          "velocity": 0.12598425196850394,
          "duration": 0.09302325581393944
        },
        {
          "name": "C#5",
          "midi": 73,
          "time": 63.162790697669855,
          "velocity": 0.36220472440944884,
          "duration": 0.023255813953483084
        },
        {
          "name": "A6",
          "midi": 93,
          "time": 63.162790697669855,
          "velocity": 0.29133858267716534,
          "duration": 0.1395348837209056
        },
        {
          "name": "A3",
          "midi": 57,
          "time": 63.1744186046466,
          "velocity": 0.29133858267716534,
          "duration": 0.023255813953483084
        },
        {
          "name": "F4",
          "midi": 65,
          "time": 63.1744186046466,
          "velocity": 0.28346456692913385,
          "duration": 0.12790697674416407
        },
        {
          "name": "F5",
          "midi": 77,
          "time": 63.1744186046466,
          "velocity": 0.36220472440944884,
          "duration": 0.41860465116270973
        },
        {
          "name": "A5",
          "midi": 81,
          "time": 63.1744186046466,
          "velocity": 0.31496062992125984,
          "duration": 0.41860465116270973
        },
        {
          "name": "C6",
          "midi": 84,
          "time": 63.1744186046466,
          "velocity": 0.25196850393700787,
          "duration": 0.4418604651161999
        },
        {
          "name": "F#7",
          "midi": 102,
          "time": 63.1744186046466,
          "velocity": 0.14960629921259844,
          "duration": 0.046511627906973274
        },
        {
          "name": "D4",
          "midi": 62,
          "time": 63.18604651162334,
          "velocity": 0.1889763779527559,
          "duration": 0.10465116279068098
        },
        {
          "name": "G#4",
          "midi": 68,
          "time": 63.18604651162334,
          "velocity": 0.11811023622047244,
          "duration": 0.046511627906973274
        },
        {
          "name": "C5",
          "midi": 72,
          "time": 63.18604651162334,
          "velocity": 0.3700787401574803,
          "duration": 0.5581395348836153
        },
        {
          "name": "G6",
          "midi": 91,
          "time": 63.18604651162334,
          "velocity": 0.25196850393700787,
          "duration": 0.12790697674416407
        },
        {
          "name": "F7",
          "midi": 101,
          "time": 63.18604651162334,
          "velocity": 0.14960629921259844,
          "duration": 0.0813953488371979
        },
        {
          "name": "F3",
          "midi": 53,
          "time": 63.19767441860008,
          "velocity": 0.33858267716535434,
          "duration": 0.02325581395349019
        },
        {
          "name": "D#6",
          "midi": 87,
          "time": 63.19767441860008,
          "velocity": 0.2677165354330709,
          "duration": 0.23255813953484505
        },
        {
          "name": "G#6",
          "midi": 92,
          "time": 63.19767441860008,
          "velocity": 0.10236220472440945,
          "duration": 0.03488372093023173
        },
        {
          "name": "E3",
          "midi": 52,
          "time": 63.22093023255357,
          "velocity": 0.3543307086614173,
          "duration": 0.023255813953483084
        },
        {
          "name": "A#5",
          "midi": 82,
          "time": 63.23255813953031,
          "velocity": 0.14173228346456693,
          "duration": 0.034883720930224626
        },
        {
          "name": "G#4",
          "midi": 68,
          "time": 63.255813953483795,
          "velocity": 0.1889763779527559,
          "duration": 0.04651162790696617
        },
        {
          "name": "G#3",
          "midi": 56,
          "time": 63.267441860460536,
          "velocity": 0.28346456692913385,
          "duration": 0.023255813953483084
        },
        {
          "name": "F3",
          "midi": 53,
          "time": 63.27906976743728,
          "velocity": 0.3543307086614173,
          "duration": 0.058139534883714816
        },
        {
          "name": "D#5",
          "midi": 75,
          "time": 63.27906976743728,
          "velocity": 0.07086614173228346,
          "duration": 0.06976744186045636
        },
        {
          "name": "G#2",
          "midi": 44,
          "time": 63.33720930232099,
          "velocity": 0.2755905511811024,
          "duration": 0.023255813953483084
        },
        {
          "name": "D#4",
          "midi": 63,
          "time": 63.33720930232099,
          "velocity": 0.25196850393700787,
          "duration": 0.023255813953483084
        },
        {
          "name": "G6",
          "midi": 91,
          "time": 63.33720930232099,
          "velocity": 0.2677165354330709,
          "duration": 0.17441860465112313
        },
        {
          "name": "F#3",
          "midi": 54,
          "time": 63.348837209297734,
          "velocity": 0.2440944881889764,
          "duration": 0.023255813953483084
        },
        {
          "name": "F4",
          "midi": 65,
          "time": 63.348837209297734,
          "velocity": 0.25196850393700787,
          "duration": 0.05813953488370771
        },
        {
          "name": "F3",
          "midi": 53,
          "time": 63.37209302325122,
          "velocity": 0.30708661417322836,
          "duration": 0.023255813953483084
        },
        {
          "name": "G#4",
          "midi": 68,
          "time": 63.37209302325122,
          "velocity": 0.14960629921259844,
          "duration": 0.034883720930224626
        },
        {
          "name": "A#6",
          "midi": 94,
          "time": 63.38372093022796,
          "velocity": 0.18110236220472442,
          "duration": 0.034883720930224626
        },
        {
          "name": "E7",
          "midi": 100,
          "time": 63.38372093022796,
          "velocity": 0.11811023622047244,
          "duration": 0.034883720930224626
        },
        {
          "name": "D#4",
          "midi": 63,
          "time": 63.3953488372047,
          "velocity": 0.25984251968503935,
          "duration": 0.034883720930224626
        },
        {
          "name": "F7",
          "midi": 101,
          "time": 63.3953488372047,
          "velocity": 0.14960629921259844,
          "duration": 0.04651162790696617
        },
        {
          "name": "F3",
          "midi": 53,
          "time": 63.40697674418144,
          "velocity": 0.3543307086614173,
          "duration": 0.023255813953483084
        },
        {
          "name": "G4",
          "midi": 67,
          "time": 63.40697674418144,
          "velocity": 0.2047244094488189,
          "duration": 0.034883720930224626
        },
        {
          "name": "G5",
          "midi": 79,
          "time": 63.40697674418144,
          "velocity": 0.3543307086614173,
          "duration": 0.1395348837208985
        },
        {
          "name": "B6",
          "midi": 95,
          "time": 63.418604651158184,
          "velocity": 0.14173228346456693,
          "duration": 0.06976744186044925
        },
        {
          "name": "G2",
          "midi": 43,
          "time": 63.430232558134925,
          "velocity": 0.29133858267716534,
          "duration": 0.023255813953483084
        },
        {
          "name": "G3",
          "midi": 55,
          "time": 63.430232558134925,
          "velocity": 0.31496062992125984,
          "duration": 0.023255813953483084
        },
        {
          "name": "F4",
          "midi": 65,
          "time": 63.44186046511167,
          "velocity": 0.2992125984251969,
          "duration": 0.034883720930224626
        },
        {
          "name": "F3",
          "midi": 53,
          "time": 63.46511627906515,
          "velocity": 0.3700787401574803,
          "duration": 0.06976744186044925
        },
        {
          "name": "D#4",
          "midi": 63,
          "time": 63.46511627906515,
          "velocity": 0.25196850393700787,
          "duration": 0.034883720930224626
        },
        {
          "name": "D6",
          "midi": 86,
          "time": 63.46511627906515,
          "velocity": 0.15748031496062992,
          "duration": 0.05813953488370771
        },
        {
          "name": "G4",
          "midi": 67,
          "time": 63.47674418604189,
          "velocity": 0.41732283464566927,
          "duration": 0.09302325581393234
        },
        {
          "name": "F7",
          "midi": 101,
          "time": 63.499999999995374,
          "velocity": 0.23622047244094488,
          "duration": 0.12790697674416407
        },
        {
          "name": "F#7",
          "midi": 102,
          "time": 63.499999999995374,
          "velocity": 0.14173228346456693,
          "duration": 0.12790697674416407
        },
        {
          "name": "D#4",
          "midi": 63,
          "time": 63.511627906972116,
          "velocity": 0.25196850393700787,
          "duration": 0.034883720930224626
        },
        {
          "name": "B6",
          "midi": 95,
          "time": 63.511627906972116,
          "velocity": 0.14960629921259844,
          "duration": 0.0813953488371908
        },
        {
          "name": "G2",
          "midi": 43,
          "time": 63.52325581394886,
          "velocity": 0.29133858267716534,
          "duration": 0.023255813953483084
        },
        {
          "name": "F3",
          "midi": 53,
          "time": 63.55813953487908,
          "velocity": 0.3464566929133858,
          "duration": 0.023255813953483084
        },
        {
          "name": "C#7",
          "midi": 97,
          "time": 63.55813953487908,
          "velocity": 0.12598425196850394,
          "duration": 0.058139534883714816
        },
        {
          "name": "D#7",
          "midi": 99,
          "time": 63.569767441855824,
          "velocity": 0.07086614173228346,
          "duration": 0.046511627906973274
        },
        {
          "name": "D#4",
          "midi": 63,
          "time": 63.581395348832565,
          "velocity": 0.25984251968503935,
          "duration": 0.03488372093023173
        },
        {
          "name": "F3",
          "midi": 53,
          "time": 63.59302325580931,
          "velocity": 0.3858267716535433,
          "duration": 0.03488372093023173
        },
        {
          "name": "C#1",
          "midi": 25,
          "time": 63.63953488371628,
          "velocity": 0.7559055118110236,
          "duration": 0.011627906976741542
        },
        {
          "name": "E4",
          "midi": 64,
          "time": 63.63953488371628,
          "velocity": 0.2992125984251969,
          "duration": 0.023255813953483084
        },
        {
          "name": "G4",
          "midi": 67,
          "time": 63.63953488371628,
          "velocity": 0.2283464566929134,
          "duration": 0.05813953488370771
        },
        {
          "name": "F5",
          "midi": 77,
          "time": 63.63953488371628,
          "velocity": 0.07086614173228346,
          "duration": 0.034883720930224626
        },
        {
          "name": "D1",
          "midi": 26,
          "time": 63.65116279069302,
          "velocity": 0.7007874015748031,
          "duration": 0.011627906976741542
        },
        {
          "name": "D5",
          "midi": 74,
          "time": 63.65116279069302,
          "velocity": 0.2125984251968504,
          "duration": 0.034883720930224626
        },
        {
          "name": "A#0",
          "midi": 22,
          "time": 63.66279069766976,
          "velocity": 0.6062992125984252,
          "duration": 0.011627906976741542
        },
        {
          "name": "D#3",
          "midi": 51,
          "time": 63.66279069766976,
          "velocity": 0.3700787401574803,
          "duration": 0.05813953488370771
        },
        {
          "name": "A#4",
          "midi": 70,
          "time": 63.66279069766976,
          "velocity": 0.2992125984251969,
          "duration": 0.04651162790696617
        },
        {
          "name": "G#6",
          "midi": 92,
          "time": 63.66279069766976,
          "velocity": 0.30708661417322836,
          "duration": 0.09302325581393234
        },
        {
          "name": "F0",
          "midi": 17,
          "time": 63.674418604646505,
          "velocity": 0.5039370078740157,
          "duration": 0.023255813953483084
        },
        {
          "name": "A5",
          "midi": 81,
          "time": 63.674418604646505,
          "velocity": 0.2283464566929134,
          "duration": 0.023255813953483084
        },
        {
          "name": "B5",
          "midi": 83,
          "time": 63.674418604646505,
          "velocity": 0.13385826771653545,
          "duration": 0.034883720930224626
        },
        {
          "name": "D#6",
          "midi": 87,
          "time": 63.674418604646505,
          "velocity": 0.3228346456692913,
          "duration": 0.4767441860464743
        },
        {
          "name": "G6",
          "midi": 91,
          "time": 63.674418604646505,
          "velocity": 0.33858267716535434,
          "duration": 0.4069767441860108
        },
        {
          "name": "A#6",
          "midi": 94,
          "time": 63.674418604646505,
          "velocity": 0.16535433070866143,
          "duration": 0.12790697674416407
        },
        {
          "name": "G#3",
          "midi": 56,
          "time": 63.686046511623246,
          "velocity": 0.2047244094488189,
          "duration": 0.05813953488370771
        },
        {
          "name": "D#5",
          "midi": 75,
          "time": 63.686046511623246,
          "velocity": 0.3937007874015748,
          "duration": 0.034883720930224626
        },
        {
          "name": "F5",
          "midi": 77,
          "time": 63.686046511623246,
          "velocity": 0.12598425196850394,
          "duration": 0.034883720930224626
        },
        {
          "name": "G5",
          "midi": 79,
          "time": 63.686046511623246,
          "velocity": 0.36220472440944884,
          "duration": 0.23255813953485216
        },
        {
          "name": "E7",
          "midi": 100,
          "time": 63.686046511623246,
          "velocity": 0.11811023622047244,
          "duration": 0.05813953488370771
        },
        {
          "name": "F7",
          "midi": 101,
          "time": 63.686046511623246,
          "velocity": 0.13385826771653545,
          "duration": 0.06976744186044925
        },
        {
          "name": "F#7",
          "midi": 102,
          "time": 63.686046511623246,
          "velocity": 0.1968503937007874,
          "duration": 0.4883720930232158
        },
        {
          "name": "A#5",
          "midi": 82,
          "time": 63.69767441859999,
          "velocity": 0.30708661417322836,
          "duration": 0.034883720930224626
        },
        {
          "name": "C#6",
          "midi": 85,
          "time": 63.69767441859999,
          "velocity": 0.2125984251968504,
          "duration": 0.04651162790696617
        },
        {
          "name": "F6",
          "midi": 89,
          "time": 63.69767441859999,
          "velocity": 0.14173228346456693,
          "duration": 0.034883720930224626
        },
        {
          "name": "C7",
          "midi": 96,
          "time": 63.69767441859999,
          "velocity": 0.11811023622047244,
          "duration": 0.04651162790696617
        },
        {
          "name": "F#0",
          "midi": 18,
          "time": 63.70930232557673,
          "velocity": 0.33070866141732286,
          "duration": 0.023255813953483084
        },
        {
          "name": "G4",
          "midi": 67,
          "time": 63.70930232557673,
          "velocity": 0.16535433070866143,
          "duration": 0.04651162790696617
        },
        {
          "name": "D3",
          "midi": 50,
          "time": 63.72093023255347,
          "velocity": 0.2755905511811024,
          "duration": 0.034883720930224626
        },
        {
          "name": "D4",
          "midi": 62,
          "time": 63.72093023255347,
          "velocity": 0.30708661417322836,
          "duration": 0.023255813953483084
        },
        {
          "name": "D5",
          "midi": 74,
          "time": 63.72093023255347,
          "velocity": 0.36220472440944884,
          "duration": 0.023255813953483084
        },
        {
          "name": "A5",
          "midi": 81,
          "time": 63.72093023255347,
          "velocity": 0.2755905511811024,
          "duration": 0.023255813953483084
        },
        {
          "name": "E6",
          "midi": 88,
          "time": 63.72093023255347,
          "velocity": 0.2283464566929134,
          "duration": 0.023255813953483084
        },
        {
          "name": "F#6",
          "midi": 90,
          "time": 63.72093023255347,
          "velocity": 0.30708661417322836,
          "duration": 0.034883720930224626
        },
        {
          "name": "D#4",
          "midi": 63,
          "time": 63.744186046506954,
          "velocity": 0.30708661417322836,
          "duration": 0.06976744186045636
        },
        {
          "name": "A#4",
          "midi": 70,
          "time": 63.744186046506954,
          "velocity": 0.25984251968503935,
          "duration": 0.06976744186045636
        },
        {
          "name": "D#5",
          "midi": 75,
          "time": 63.744186046506954,
          "velocity": 0.3543307086614173,
          "duration": 0.06976744186045636
        },
        {
          "name": "A#5",
          "midi": 82,
          "time": 63.744186046506954,
          "velocity": 0.4015748031496063,
          "duration": 0.058139534883714816
        },
        {
          "name": "F6",
          "midi": 89,
          "time": 63.744186046506954,
          "velocity": 0.36220472440944884,
          "duration": 0.44186046511624966
        },
        {
          "name": "D#3",
          "midi": 51,
          "time": 63.755813953483695,
          "velocity": 0.2992125984251969,
          "duration": 0.046511627906973274
        },
        {
          "name": "A5",
          "midi": 81,
          "time": 63.755813953483695,
          "velocity": 0.09448818897637795,
          "duration": 0.03488372093023173
        },
        {
          "name": "C#6",
          "midi": 85,
          "time": 63.755813953483695,
          "velocity": 0.3464566929133858,
          "duration": 0.046511627906973274
        },
        {
          "name": "A6",
          "midi": 93,
          "time": 63.755813953483695,
          "velocity": 0.2204724409448819,
          "duration": 0.2906976744185954
        },
        {
          "name": "C5",
          "midi": 72,
          "time": 63.76744186046044,
          "velocity": 0.3228346456692913,
          "duration": 0.4302325581395081
        },
        {
          "name": "F5",
          "midi": 77,
          "time": 63.80232558139067,
          "velocity": 0.33070866141732286,
          "duration": 0.4069767441860179
        },
        {
          "name": "A5",
          "midi": 81,
          "time": 63.80232558139067,
          "velocity": 0.41732283464566927,
          "duration": 0.3953488372092764
        },
        {
          "name": "C6",
          "midi": 84,
          "time": 63.80232558139067,
          "velocity": 0.36220472440944884,
          "duration": 0.4069767441860179
        },
        {
          "name": "F3",
          "midi": 53,
          "time": 63.81395348836741,
          "velocity": 0.31496062992125984,
          "duration": 0.10465116279068809
        },
        {
          "name": "D#4",
          "midi": 63,
          "time": 63.82558139534415,
          "velocity": 0.1968503937007874,
          "duration": 0.046511627906973274
        },
        {
          "name": "G4",
          "midi": 67,
          "time": 63.83720930232089,
          "velocity": 0.29133858267716534,
          "duration": 0.06976744186046346
        },
        {
          "name": "B6",
          "midi": 95,
          "time": 63.83720930232089,
          "velocity": 0.07086614173228346,
          "duration": 0.046511627906973274
        },
        {
          "name": "A#5",
          "midi": 82,
          "time": 63.90697674418136,
          "velocity": 0.13385826771653545,
          "duration": 0.08139534883721211
        },
        {
          "name": "F#3",
          "midi": 54,
          "time": 63.9186046511581,
          "velocity": 0.3464566929133858,
          "duration": 0.02325581395349019
        },
        {
          "name": "D5",
          "midi": 74,
          "time": 63.9186046511581,
          "velocity": 0.4015748031496063,
          "duration": 0.1279069767441925
        },
        {
          "name": "D4",
          "midi": 62,
          "time": 63.94186046511159,
          "velocity": 0.2677165354330709,
          "duration": 0.6279069767441001
        },
        {
          "name": "A#4",
          "midi": 70,
          "time": 63.94186046511159,
          "velocity": 0.25196850393700787,
          "duration": 0.1046511627907023
        },
        {
          "name": "F3",
          "midi": 53,
          "time": 63.96511627906508,
          "velocity": 0.2992125984251969,
          "duration": 0.23255813953486637
        },
        {
          "name": "G5",
          "midi": 79,
          "time": 64.02325581394881,
          "velocity": 0.30708661417322836,
          "duration": 0.1627906976743958
        },
        {
          "name": "G#4",
          "midi": 68,
          "time": 64.03488372092555,
          "velocity": 0.14960629921259844,
          "duration": 0.034883720930224626
        },
        {
          "name": "A#5",
          "midi": 82,
          "time": 64.13953488371624,
          "velocity": 0.16535433070866143,
          "duration": 0.0813953488371908
        },
        {
          "name": "A#4",
          "midi": 70,
          "time": 64.15116279069298,
          "velocity": 0.23622047244094488,
          "duration": 0.034883720930224626
        },
        {
          "name": "D6",
          "midi": 86,
          "time": 64.15116279069298,
          "velocity": 0.3228346456692913,
          "duration": 0.15116279069765426
        },
        {
          "name": "E3",
          "midi": 52,
          "time": 64.19767441859995,
          "velocity": 0.28346456692913385,
          "duration": 0.023255813953483084
        },
        {
          "name": "G5",
          "midi": 79,
          "time": 64.19767441859995,
          "velocity": 0.25196850393700787,
          "duration": 0.2674418604650697
        },
        {
          "name": "A#4",
          "midi": 70,
          "time": 64.20930232557669,
          "velocity": 0.2677165354330709,
          "duration": 0.1627906976743958
        },
        {
          "name": "A5",
          "midi": 81,
          "time": 64.22093023255343,
          "velocity": 0.25196850393700787,
          "duration": 0.37209302325574356
        },
        {
          "name": "F5",
          "midi": 77,
          "time": 64.25581395348367,
          "velocity": 0.11811023622047244,
          "duration": 0.279069767441797
        },
        {
          "name": "C3",
          "midi": 48,
          "time": 64.27906976743715,
          "velocity": 0.12598425196850394,
          "duration": 0.034883720930224626
        },
        {
          "name": "C6",
          "midi": 84,
          "time": 64.27906976743715,
          "velocity": 0.16535433070866143,
          "duration": 0.15116279069764005
        },
        {
          "name": "D6",
          "midi": 86,
          "time": 64.31395348836737,
          "velocity": 0.3228346456692913,
          "duration": 0.04651162790696617
        },
        {
          "name": "G4",
          "midi": 67,
          "time": 64.32558139534412,
          "velocity": 0.18110236220472442,
          "duration": 0.04651162790696617
        },
        {
          "name": "C5",
          "midi": 72,
          "time": 64.32558139534412,
          "velocity": 0.13385826771653545,
          "duration": 0.1395348837208985
        },
        {
          "name": "B5",
          "midi": 83,
          "time": 64.3488372092976,
          "velocity": 0.14960629921259844,
          "duration": 0.06976744186044925
        },
        {
          "name": "F6",
          "midi": 89,
          "time": 64.3488372092976,
          "velocity": 0.14173228346456693,
          "duration": 0.12790697674415696
        },
        {
          "name": "D#6",
          "midi": 87,
          "time": 64.36046511627434,
          "velocity": 0.3464566929133858,
          "duration": 0.04651162790696617
        },
        {
          "name": "D6",
          "midi": 86,
          "time": 64.37209302325108,
          "velocity": 0.36220472440944884,
          "duration": 0.1395348837208985
        },
        {
          "name": "E7",
          "midi": 100,
          "time": 64.37209302325108,
          "velocity": 0.09448818897637795,
          "duration": 0.034883720930224626
        },
        {
          "name": "C#6",
          "midi": 85,
          "time": 64.38372093022782,
          "velocity": 0.2047244094488189,
          "duration": 0.034883720930224626
        },
        {
          "name": "G3",
          "midi": 55,
          "time": 64.41860465115805,
          "velocity": 0.11023622047244094,
          "duration": 0.034883720930224626
        },
        {
          "name": "A#4",
          "midi": 70,
          "time": 64.41860465115805,
          "velocity": 0.4015748031496063,
          "duration": 0.5116279069766563
        },
        {
          "name": "G5",
          "midi": 79,
          "time": 64.4883720930185,
          "velocity": 0.1732283464566929,
          "duration": 0.06976744186044925
        },
        {
          "name": "G4",
          "midi": 67,
          "time": 64.49999999999524,
          "velocity": 0.11811023622047244,
          "duration": 0.0813953488371908
        },
        {
          "name": "D#5",
          "midi": 75,
          "time": 64.49999999999524,
          "velocity": 0.16535433070866143,
          "duration": 0.10465116279067388
        },
        {
          "name": "A#1",
          "midi": 34,
          "time": 64.58139534883243,
          "velocity": 0.6062992125984252,
          "duration": 0.011627906976741542
        },
        {
          "name": "D3",
          "midi": 50,
          "time": 64.58139534883243,
          "velocity": 0.31496062992125984,
          "duration": 0.023255813953483084
        },
        {
          "name": "F5",
          "midi": 77,
          "time": 64.58139534883243,
          "velocity": 0.10236220472440945,
          "duration": 0.06976744186044925
        },
        {
          "name": "G5",
          "midi": 79,
          "time": 64.58139534883243,
          "velocity": 0.1889763779527559,
          "duration": 0.034883720930224626
        },
        {
          "name": "C6",
          "midi": 84,
          "time": 64.58139534883243,
          "velocity": 0.31496062992125984,
          "duration": 0.0813953488371908
        },
        {
          "name": "G1",
          "midi": 31,
          "time": 64.59302325580917,
          "velocity": 0.7480314960629921,
          "duration": 0.023255813953483084
        },
        {
          "name": "D5",
          "midi": 74,
          "time": 64.59302325580917,
          "velocity": 0.3858267716535433,
          "duration": 0.0813953488371908
        },
        {
          "name": "D#3",
          "midi": 51,
          "time": 64.60465116278591,
          "velocity": 0.3464566929133858,
          "duration": 0.19767441860462043
        },
        {
          "name": "D4",
          "midi": 62,
          "time": 64.60465116278591,
          "velocity": 0.3464566929133858,
          "duration": 0.023255813953483084
        },
        {
          "name": "G#1",
          "midi": 32,
          "time": 64.61627906976265,
          "velocity": 0.7637795275590551,
          "duration": 0.6046511627905886
        },
        {
          "name": "A5",
          "midi": 81,
          "time": 64.61627906976265,
          "velocity": 0.18110236220472442,
          "duration": 0.034883720930224626
        },
        {
          "name": "D#4",
          "midi": 63,
          "time": 64.6279069767394,
          "velocity": 0.4409448818897638,
          "duration": 0.05813953488370771
        },
        {
          "name": "G#4",
          "midi": 68,
          "time": 64.63953488371614,
          "velocity": 0.18110236220472442,
          "duration": 0.034883720930224626
        },
        {
          "name": "G5",
          "midi": 79,
          "time": 64.66279069766962,
          "velocity": 0.16535433070866143,
          "duration": 0.12790697674417117
        },
        {
          "name": "B5",
          "midi": 83,
          "time": 64.66279069766962,
          "velocity": 0.25984251968503935,
          "duration": 0.023255813953483084
        },
        {
          "name": "C4",
          "midi": 60,
          "time": 64.69767441859985,
          "velocity": 0.2125984251968504,
          "duration": 0.09302325581394655
        },
        {
          "name": "F#4",
          "midi": 66,
          "time": 64.69767441859985,
          "velocity": 0.2047244094488189,
          "duration": 0.034883720930224626
        },
        {
          "name": "D5",
          "midi": 74,
          "time": 64.70930232557659,
          "velocity": 0.31496062992125984,
          "duration": 0.081395348837205
        },
        {
          "name": "G4",
          "midi": 67,
          "time": 64.73255813953007,
          "velocity": 0.29133858267716534,
          "duration": 0.13953488372091272
        },
        {
          "name": "F5",
          "midi": 77,
          "time": 64.74418604650681,
          "velocity": 0.09448818897637795,
          "duration": 0.03488372093023884
        },
        {
          "name": "D#4",
          "midi": 63,
          "time": 64.77906976743705,
          "velocity": 0.4330708661417323,
          "duration": 0.13953488372091272
        },
        {
          "name": "A5",
          "midi": 81,
          "time": 64.79069767441379,
          "velocity": 0.11023622047244094,
          "duration": 0.034883720930224626
        },
        {
          "name": "C6",
          "midi": 84,
          "time": 64.79069767441379,
          "velocity": 0.09448818897637795,
          "duration": 0.06976744186044925
        },
        {
          "name": "F5",
          "midi": 77,
          "time": 64.81395348836728,
          "velocity": 0.25984251968503935,
          "duration": 0.10465116279068809
        },
        {
          "name": "G#3",
          "midi": 56,
          "time": 64.82558139534402,
          "velocity": 0.3464566929133858,
          "duration": 0.04651162790696617
        },
        {
          "name": "D6",
          "midi": 86,
          "time": 64.8488372092975,
          "velocity": 0.11023622047244094,
          "duration": 0.05813953488372192
        },
        {
          "name": "D#3",
          "midi": 51,
          "time": 64.86046511627424,
          "velocity": 0.36220472440944884,
          "duration": 0.10465116279068809
        },
        {
          "name": "C4",
          "midi": 60,
          "time": 64.90697674418122,
          "velocity": 0.16535433070866143,
          "duration": 0.04651162790696617
        },
        {
          "name": "B4",
          "midi": 71,
          "time": 64.9302325581347,
          "velocity": 0.29133858267716534,
          "duration": 0.023255813953483084
        },
        {
          "name": "D6",
          "midi": 86,
          "time": 64.9302325581347,
          "velocity": 0.2440944881889764,
          "duration": 0.09302325581393234
        },
        {
          "name": "G4",
          "midi": 67,
          "time": 64.94186046511145,
          "velocity": 0.25984251968503935,
          "duration": 0.0813953488371908
        },
        {
          "name": "A#4",
          "midi": 70,
          "time": 64.94186046511145,
          "velocity": 0.2125984251968504,
          "duration": 0.09302325581393234
        },
        {
          "name": "D5",
          "midi": 74,
          "time": 64.94186046511145,
          "velocity": 0.4330708661417323,
          "duration": 0.0813953488371908
        },
        {
          "name": "F5",
          "midi": 77,
          "time": 64.94186046511145,
          "velocity": 0.18110236220472442,
          "duration": 0.04651162790696617
        },
        {
          "name": "G#5",
          "midi": 80,
          "time": 64.94186046511145,
          "velocity": 0.3228346456692913,
          "duration": 0.034883720930224626
        },
        {
          "name": "E6",
          "midi": 88,
          "time": 64.94186046511145,
          "velocity": 0.33070866141732286,
          "duration": 0.04651162790696617
        },
        {
          "name": "G6",
          "midi": 91,
          "time": 64.94186046511145,
          "velocity": 0.2440944881889764,
          "duration": 0.0813953488371908
        },
        {
          "name": "B5",
          "midi": 83,
          "time": 64.95348837208819,
          "velocity": 0.3858267716535433,
          "duration": 0.06976744186044925
        },
        {
          "name": "F#6",
          "midi": 90,
          "time": 64.95348837208819,
          "velocity": 0.1968503937007874,
          "duration": 0.05813953488370771
        },
        {
          "name": "F7",
          "midi": 101,
          "time": 64.95348837208819,
          "velocity": 0.18110236220472442,
          "duration": 0.06976744186044925
        },
        {
          "name": "F#7",
          "midi": 102,
          "time": 64.95348837208819,
          "velocity": 0.2440944881889764,
          "duration": 0.2209302325580893
        },
        {
          "name": "G3",
          "midi": 55,
          "time": 64.96511627906493,
          "velocity": 0.3937007874015748,
          "duration": 0.06976744186044925
        },
        {
          "name": "G5",
          "midi": 79,
          "time": 64.97674418604167,
          "velocity": 0.4015748031496063,
          "duration": 0.05813953488370771
        },
        {
          "name": "F6",
          "midi": 89,
          "time": 64.98837209301841,
          "velocity": 0.3700787401574803,
          "duration": 0.04651162790696617
        },
        {
          "name": "D#4",
          "midi": 63,
          "time": 64.99999999999515,
          "velocity": 0.28346456692913385,
          "duration": 0.04651162790696617
        },
        {
          "name": "A#5",
          "midi": 82,
          "time": 65.0116279069719,
          "velocity": 0.2283464566929134,
          "duration": 0.06976744186044925
        },
        {
          "name": "D#3",
          "midi": 51,
          "time": 65.02325581394864,
          "velocity": 0.25196850393700787,
          "duration": 0.04651162790696617
        },
        {
          "name": "F#4",
          "midi": 66,
          "time": 65.02325581394864,
          "velocity": 0.1889763779527559,
          "duration": 0.034883720930224626
        },
        {
          "name": "G#4",
          "midi": 68,
          "time": 65.02325581394864,
          "velocity": 0.25984251968503935,
          "duration": 0.05813953488370771
        },
        {
          "name": "D#5",
          "midi": 75,
          "time": 65.02325581394864,
          "velocity": 0.4094488188976378,
          "duration": 0.05813953488370771
        },
        {
          "name": "G#5",
          "midi": 80,
          "time": 65.02325581394864,
          "velocity": 0.33070866141732286,
          "duration": 0.05813953488370771
        },
        {
          "name": "C6",
          "midi": 84,
          "time": 65.02325581394864,
          "velocity": 0.2755905511811024,
          "duration": 0.05813953488370771
        },
        {
          "name": "F#6",
          "midi": 90,
          "time": 65.02325581394864,
          "velocity": 0.3700787401574803,
          "duration": 0.04651162790696617
        },
        {
          "name": "G#3",
          "midi": 56,
          "time": 65.03488372092538,
          "velocity": 0.2755905511811024,
          "duration": 0.034883720930224626
        },
        {
          "name": "G7",
          "midi": 103,
          "time": 65.03488372092538,
          "velocity": 0.12598425196850394,
          "duration": 0.034883720930224626
        },
        {
          "name": "A#4",
          "midi": 70,
          "time": 65.04651162790212,
          "velocity": 0.14173228346456693,
          "duration": 0.06976744186044925
        },
        {
          "name": "D#4",
          "midi": 63,
          "time": 65.05813953487886,
          "velocity": 0.2992125984251969,
          "duration": 0.034883720930224626
        },
        {
          "name": "G3",
          "midi": 55,
          "time": 65.0697674418556,
          "velocity": 0.5275590551181102,
          "duration": 0.1395348837208985
        },
        {
          "name": "G5",
          "midi": 79,
          "time": 65.0697674418556,
          "velocity": 0.2204724409448819,
          "duration": 0.11627906976741542
        },
        {
          "name": "D6",
          "midi": 86,
          "time": 65.0697674418556,
          "velocity": 0.2677165354330709,
          "duration": 0.12790697674415696
        },
        {
          "name": "F6",
          "midi": 89,
          "time": 65.0697674418556,
          "velocity": 0.3464566929133858,
          "duration": 0.10465116279067388
        },
        {
          "name": "D5",
          "midi": 74,
          "time": 65.08139534883234,
          "velocity": 0.3543307086614173,
          "duration": 0.10465116279067388
        },
        {
          "name": "A5",
          "midi": 81,
          "time": 65.08139534883234,
          "velocity": 0.13385826771653545,
          "duration": 0.05813953488370771
        },
        {
          "name": "D#4",
          "midi": 63,
          "time": 65.10465116278583,
          "velocity": 0.2992125984251969,
          "duration": 0.06976744186044925
        },
        {
          "name": "B5",
          "midi": 83,
          "time": 65.10465116278583,
          "velocity": 0.2677165354330709,
          "duration": 0.034883720930224626
        },
        {
          "name": "G7",
          "midi": 103,
          "time": 65.13953488371605,
          "velocity": 0.1732283464566929,
          "duration": 0.06976744186044925
        },
        {
          "name": "B5",
          "midi": 83,
          "time": 65.1511627906928,
          "velocity": 0.2283464566929134,
          "duration": 0.023255813953483084
        },
        {
          "name": "D#5",
          "midi": 75,
          "time": 65.17441860464628,
          "velocity": 0.2992125984251969,
          "duration": 0.1395348837208985
        },
        {
          "name": "A#5",
          "midi": 82,
          "time": 65.17441860464628,
          "velocity": 0.2047244094488189,
          "duration": 0.19767441860460622
        },
        {
          "name": "E6",
          "midi": 88,
          "time": 65.17441860464628,
          "velocity": 0.25196850393700787,
          "duration": 0.034883720930224626
        },
        {
          "name": "F3",
          "midi": 53,
          "time": 65.2093023255765,
          "velocity": 0.5039370078740157,
          "duration": 0.0813953488371908
        },
        {
          "name": "F5",
          "midi": 77,
          "time": 65.2093023255765,
          "velocity": 0.09448818897637795,
          "duration": 0.034883720930224626
        },
        {
          "name": "F#1",
          "midi": 30,
          "time": 65.22093023255324,
          "velocity": 0.6535433070866141,
          "duration": 0.011627906976741542
        },
        {
          "name": "A#4",
          "midi": 70,
          "time": 65.22093023255324,
          "velocity": 0.18110236220472442,
          "duration": 0.034883720930224626
        },
        {
          "name": "F1",
          "midi": 29,
          "time": 65.24418604650673,
          "velocity": 0.6220472440944882,
          "duration": 0.023255813953483084
        },
        {
          "name": "C6",
          "midi": 84,
          "time": 65.25581395348347,
          "velocity": 0.1968503937007874,
          "duration": 0.0813953488371908
        },
        {
          "name": "G1",
          "midi": 31,
          "time": 65.26744186046021,
          "velocity": 0.7795275590551181,
          "duration": 0.6279069767440575
        },
        {
          "name": "G#4",
          "midi": 68,
          "time": 65.26744186046021,
          "velocity": 0.29133858267716534,
          "duration": 0.10465116279067388
        },
        {
          "name": "C5",
          "midi": 72,
          "time": 65.27906976743695,
          "velocity": 0.14173228346456693,
          "duration": 0.04651162790696617
        },
        {
          "name": "D#4",
          "midi": 63,
          "time": 65.30232558139043,
          "velocity": 0.23622047244094488,
          "duration": 0.023255813953483084
        },
        {
          "name": "D5",
          "midi": 74,
          "time": 65.31395348836718,
          "velocity": 0.23622047244094488,
          "duration": 0.023255813953483084
        },
        {
          "name": "G#3",
          "midi": 56,
          "time": 65.32558139534392,
          "velocity": 0.3937007874015748,
          "duration": 0.023255813953483084
        },
        {
          "name": "D#5",
          "midi": 75,
          "time": 65.32558139534392,
          "velocity": 0.23622047244094488,
          "duration": 0.05813953488370771
        },
        {
          "name": "G#3",
          "midi": 56,
          "time": 65.36046511627414,
          "velocity": 0.3464566929133858,
          "duration": 0.06976744186046346
        },
        {
          "name": "D3",
          "midi": 50,
          "time": 65.38372093022762,
          "velocity": 0.3228346456692913,
          "duration": 0.06976744186046346
        },
        {
          "name": "F4",
          "midi": 65,
          "time": 65.38372093022762,
          "velocity": 0.2125984251968504,
          "duration": 0.03488372093023884
        },
        {
          "name": "A4",
          "midi": 69,
          "time": 65.38372093022762,
          "velocity": 0.16535433070866143,
          "duration": 0.03488372093023884
        },
        {
          "name": "C5",
          "midi": 72,
          "time": 65.38372093022762,
          "velocity": 0.07874015748031496,
          "duration": 0.03488372093023884
        },
        {
          "name": "A#5",
          "midi": 82,
          "time": 65.38372093022762,
          "velocity": 0.09448818897637795,
          "duration": 0.04651162790698038
        },
        {
          "name": "G3",
          "midi": 55,
          "time": 65.4302325581346,
          "velocity": 0.3858267716535433,
          "duration": 0.034883720930224626
        },
        {
          "name": "F#6",
          "midi": 90,
          "time": 65.4302325581346,
          "velocity": 0.2440944881889764,
          "duration": 0.034883720930224626
        },
        {
          "name": "D#7",
          "midi": 99,
          "time": 65.4302325581346,
          "velocity": 0.11811023622047244,
          "duration": 0.04651162790696617
        },
        {
          "name": "G4",
          "midi": 67,
          "time": 65.44186046511135,
          "velocity": 0.4645669291338583,
          "duration": 0.17441860465112313
        },
        {
          "name": "D5",
          "midi": 74,
          "time": 65.44186046511135,
          "velocity": 0.29133858267716534,
          "duration": 0.06976744186044925
        },
        {
          "name": "B5",
          "midi": 83,
          "time": 65.44186046511135,
          "velocity": 0.18110236220472442,
          "duration": 0.10465116279067388
        },
        {
          "name": "E7",
          "midi": 100,
          "time": 65.44186046511135,
          "velocity": 0.2440944881889764,
          "duration": 0.0813953488371908
        },
        {
          "name": "E6",
          "midi": 88,
          "time": 65.45348837208809,
          "velocity": 0.14960629921259844,
          "duration": 0.05813953488370771
        },
        {
          "name": "A4",
          "midi": 69,
          "time": 65.46511627906483,
          "velocity": 0.31496062992125984,
          "duration": 0.04651162790696617
        },
        {
          "name": "G3",
          "midi": 55,
          "time": 65.47674418604157,
          "velocity": 0.5039370078740157,
          "duration": 0.0813953488371908
        },
        {
          "name": "D#6",
          "midi": 87,
          "time": 65.47674418604157,
          "velocity": 0.1732283464566929,
          "duration": 0.06976744186044925
        },
        {
          "name": "F7",
          "midi": 101,
          "time": 65.47674418604157,
          "velocity": 0.09448818897637795,
          "duration": 0.04651162790696617
        },
        {
          "name": "D#5",
          "midi": 75,
          "time": 65.49999999999505,
          "velocity": 0.2677165354330709,
          "duration": 0.09302325581393234
        },
        {
          "name": "C#6",
          "midi": 85,
          "time": 65.49999999999505,
          "velocity": 0.16535433070866143,
          "duration": 0.04651162790696617
        },
        {
          "name": "D#4",
          "midi": 63,
          "time": 65.5116279069718,
          "velocity": 0.1889763779527559,
          "duration": 0.034883720930224626
        },
        {
          "name": "F5",
          "midi": 77,
          "time": 65.5116279069718,
          "velocity": 0.29133858267716534,
          "duration": 0.47674418604640323
        },
        {
          "name": "A4",
          "midi": 69,
          "time": 65.53488372092528,
          "velocity": 0.2283464566929134,
          "duration": 0.023255813953483084
        },
        {
          "name": "A#5",
          "midi": 82,
          "time": 65.54651162790202,
          "velocity": 0.09448818897637795,
          "duration": 0.04651162790696617
        },
        {
          "name": "E7",
          "midi": 100,
          "time": 65.54651162790202,
          "velocity": 0.2204724409448819,
          "duration": 0.05813953488370771
        },
        {
          "name": "G#6",
          "midi": 92,
          "time": 65.55813953487876,
          "velocity": 0.1732283464566929,
          "duration": 0.04651162790696617
        },
        {
          "name": "D#7",
          "midi": 99,
          "time": 65.55813953487876,
          "velocity": 0.16535433070866143,
          "duration": 0.04651162790696617
        },
        {
          "name": "G3",
          "midi": 55,
          "time": 65.5697674418555,
          "velocity": 0.4566929133858268,
          "duration": 0.05813953488370771
        },
        {
          "name": "G6",
          "midi": 91,
          "time": 65.5697674418555,
          "velocity": 0.2047244094488189,
          "duration": 0.04651162790696617
        },
        {
          "name": "A6",
          "midi": 93,
          "time": 65.58139534883225,
          "velocity": 0.2283464566929134,
          "duration": 0.04651162790696617
        },
        {
          "name": "C6",
          "midi": 84,
          "time": 65.60465116278573,
          "velocity": 0.09448818897637795,
          "duration": 0.034883720930224626
        },
        {
          "name": "C5",
          "midi": 72,
          "time": 65.61627906976247,
          "velocity": 0.07086614173228346,
          "duration": 0.034883720930224626
        },
        {
          "name": "D#5",
          "midi": 75,
          "time": 65.61627906976247,
          "velocity": 0.1889763779527559,
          "duration": 0.04651162790696617
        },
        {
          "name": "F#3",
          "midi": 54,
          "time": 65.62790697673921,
          "velocity": 0.4015748031496063,
          "duration": 0.023255813953483084
        },
        {
          "name": "F3",
          "midi": 53,
          "time": 65.6511627906927,
          "velocity": 0.4251968503937008,
          "duration": 0.023255813953483084
        },
        {
          "name": "D#4",
          "midi": 63,
          "time": 65.6511627906927,
          "velocity": 0.33858267716535434,
          "duration": 0.023255813953483084
        },
        {
          "name": "A4",
          "midi": 69,
          "time": 65.6511627906927,
          "velocity": 0.23622047244094488,
          "duration": 0.023255813953483084
        },
        {
          "name": "A6",
          "midi": 93,
          "time": 65.6511627906927,
          "velocity": 0.2755905511811024,
          "duration": 0.10465116279067388
        },
        {
          "name": "E7",
          "midi": 100,
          "time": 65.6511627906927,
          "velocity": 0.25984251968503935,
          "duration": 0.04651162790696617
        },
        {
          "name": "A#5",
          "midi": 82,
          "time": 65.66279069766944,
          "velocity": 0.18110236220472442,
          "duration": 0.05813953488370771
        },
        {
          "name": "D#7",
          "midi": 99,
          "time": 65.66279069766944,
          "velocity": 0.14960629921259844,
          "duration": 0.0813953488371908
        },
        {
          "name": "G3",
          "midi": 55,
          "time": 65.67441860464618,
          "velocity": 0.48031496062992124,
          "duration": 0.034883720930224626
        },
        {
          "name": "C#4",
          "midi": 61,
          "time": 65.67441860464618,
          "velocity": 0.41732283464566927,
          "duration": 0.034883720930224626
        },
        {
          "name": "G#6",
          "midi": 92,
          "time": 65.67441860464618,
          "velocity": 0.18110236220472442,
          "duration": 0.034883720930224626
        },
        {
          "name": "F7",
          "midi": 101,
          "time": 65.67441860464618,
          "velocity": 0.25196850393700787,
          "duration": 0.034883720930224626
        },
        {
          "name": "D7",
          "midi": 98,
          "time": 65.68604651162292,
          "velocity": 0.14960629921259844,
          "duration": 0.06976744186044925
        },
        {
          "name": "F#4",
          "midi": 66,
          "time": 65.69767441859966,
          "velocity": 0.4015748031496063,
          "duration": 0.023255813953483084
        },
        {
          "name": "C7",
          "midi": 96,
          "time": 65.69767441859966,
          "velocity": 0.10236220472440945,
          "duration": 0.034883720930224626
        },
        {
          "name": "D#5",
          "midi": 75,
          "time": 65.7093023255764,
          "velocity": 0.2047244094488189,
          "duration": 0.15116279069764005
        },
        {
          "name": "G4",
          "midi": 67,
          "time": 65.72093023255314,
          "velocity": 0.2992125984251969,
          "duration": 0.05813953488370771
        },
        {
          "name": "G3",
          "midi": 55,
          "time": 65.73255813952989,
          "velocity": 0.5039370078740157,
          "duration": 0.04651162790696617
        },
        {
          "name": "D#4",
          "midi": 63,
          "time": 65.74418604650663,
          "velocity": 0.1968503937007874,
          "duration": 0.04651162790696617
        },
        {
          "name": "C5",
          "midi": 72,
          "time": 65.74418604650663,
          "velocity": 0.10236220472440945,
          "duration": 0.034883720930224626
        },
        {
          "name": "A#5",
          "midi": 82,
          "time": 65.75581395348337,
          "velocity": 0.10236220472440945,
          "duration": 0.034883720930224626
        },
        {
          "name": "A4",
          "midi": 69,
          "time": 65.76744186046011,
          "velocity": 0.2440944881889764,
          "duration": 0.09302325581393234
        },
        {
          "name": "F4",
          "midi": 65,
          "time": 65.77906976743685,
          "velocity": 0.18110236220472442,
          "duration": 0.04651162790696617
        },
        {
          "name": "C5",
          "midi": 72,
          "time": 65.80232558139033,
          "velocity": 0.1889763779527559,
          "duration": 0.04651162790696617
        },
        {
          "name": "C#3",
          "midi": 49,
          "time": 65.81395348836708,
          "velocity": 0.23622047244094488,
          "duration": 0.023255813953483084
        },
        {
          "name": "G#3",
          "midi": 56,
          "time": 65.81395348836708,
          "velocity": 0.3464566929133858,
          "duration": 0.034883720930224626
        },
        {
          "name": "G4",
          "midi": 67,
          "time": 65.82558139534382,
          "velocity": 0.1968503937007874,
          "duration": 0.034883720930224626
        },
        {
          "name": "A#5",
          "midi": 82,
          "time": 65.83720930232056,
          "velocity": 0.12598425196850394,
          "duration": 0.034883720930224626
        },
        {
          "name": "E6",
          "midi": 88,
          "time": 65.83720930232056,
          "velocity": 0.07874015748031496,
          "duration": 0.04651162790696617
        },
        {
          "name": "G3",
          "midi": 55,
          "time": 65.8488372092973,
          "velocity": 0.5275590551181102,
          "duration": 0.05813953488370771
        },
        {
          "name": "G6",
          "midi": 91,
          "time": 65.8488372092973,
          "velocity": 0.1968503937007874,
          "duration": 0.05813953488370771
        },
        {
          "name": "D5",
          "midi": 74,
          "time": 65.86046511627404,
          "velocity": 0.28346456692913385,
          "duration": 0.023255813953483084
        },
        {
          "name": "A6",
          "midi": 93,
          "time": 65.86046511627404,
          "velocity": 0.25984251968503935,
          "duration": 0.10465116279067388
        },
        {
          "name": "A#6",
          "midi": 94,
          "time": 65.87209302325078,
          "velocity": 0.15748031496062992,
          "duration": 0.0813953488371908
        },
        {
          "name": "D7",
          "midi": 98,
          "time": 65.87209302325078,
          "velocity": 0.15748031496062992,
          "duration": 0.06976744186044925
        },
        {
          "name": "D#7",
          "midi": 99,
          "time": 65.87209302325078,
          "velocity": 0.2204724409448819,
          "duration": 0.06976744186044925
        },
        {
          "name": "C#5",
          "midi": 73,
          "time": 65.88372093022753,
          "velocity": 0.23622047244094488,
          "duration": 0.023255813953483084
        },
        {
          "name": "F#1",
          "midi": 30,
          "time": 65.89534883720427,
          "velocity": 0.6220472440944882,
          "duration": 0.011627906976741542
        },
        {
          "name": "D#4",
          "midi": 63,
          "time": 65.89534883720427,
          "velocity": 0.30708661417322836,
          "duration": 0.034883720930224626
        },
        {
          "name": "C5",
          "midi": 72,
          "time": 65.89534883720427,
          "velocity": 0.25984251968503935,
          "duration": 0.034883720930224626
        },
        {
          "name": "G#6",
          "midi": 92,
          "time": 65.89534883720427,
          "velocity": 0.2204724409448819,
          "duration": 0.04651162790696617
        },
        {
          "name": "C#7",
          "midi": 97,
          "time": 65.89534883720427,
          "velocity": 0.07086614173228346,
          "duration": 0.034883720930224626
        },
        {
          "name": "A4",
          "midi": 69,
          "time": 65.90697674418101,
          "velocity": 0.3543307086614173,
          "duration": 0.023255813953483084
        },
        {
          "name": "F#6",
          "midi": 90,
          "time": 65.90697674418101,
          "velocity": 0.14173228346456693,
          "duration": 0.06976744186044925
        },
        {
          "name": "E7",
          "midi": 100,
          "time": 65.90697674418101,
          "velocity": 0.14173228346456693,
          "duration": 0.06976744186044925
        },
        {
          "name": "G3",
          "midi": 55,
          "time": 65.91860465115775,
          "velocity": 0.47244094488188976,
          "duration": 0.023255813953483084
        },
        {
          "name": "C#4",
          "midi": 61,
          "time": 65.91860465115775,
          "velocity": 0.2440944881889764,
          "duration": 0.023255813953483084
        },
        {
          "name": "G#4",
          "midi": 68,
          "time": 65.91860465115775,
          "velocity": 0.29133858267716534,
          "duration": 0.034883720930224626
        },
        {
          "name": "C#5",
          "midi": 73,
          "time": 65.91860465115775,
          "velocity": 0.29133858267716534,
          "duration": 0.023255813953483084
        },
        {
          "name": "G5",
          "midi": 79,
          "time": 65.91860465115775,
          "velocity": 0.3779527559055118,
          "duration": 0.47674418604640323
        },
        {
          "name": "B6",
          "midi": 95,
          "time": 65.91860465115775,
          "velocity": 0.11811023622047244,
          "duration": 0.034883720930224626
        },
        {
          "name": "F1",
          "midi": 29,
          "time": 65.93023255813449,
          "velocity": 0.5669291338582677,
          "duration": 0.011627906976741542
        },
        {
          "name": "F4",
          "midi": 65,
          "time": 65.93023255813449,
          "velocity": 0.4251968503937008,
          "duration": 0.034883720930224626
        },
        {
          "name": "A#4",
          "midi": 70,
          "time": 65.93023255813449,
          "velocity": 0.2283464566929134,
          "duration": 0.023255813953483084
        },
        {
          "name": "C6",
          "midi": 84,
          "time": 65.93023255813449,
          "velocity": 0.11023622047244094,
          "duration": 0.04651162790696617
        },
        {
          "name": "D6",
          "midi": 86,
          "time": 65.93023255813449,
          "velocity": 0.18110236220472442,
          "duration": 0.0813953488371908
        },
        {
          "name": "D#1",
          "midi": 27,
          "time": 65.94186046511123,
          "velocity": 0.6850393700787402,
          "duration": 0.011627906976741542
        },
        {
          "name": "C5",
          "midi": 72,
          "time": 65.94186046511123,
          "velocity": 0.28346456692913385,
          "duration": 0.023255813953483084
        },
        {
          "name": "D1",
          "midi": 26,
          "time": 65.95348837208797,
          "velocity": 0.7165354330708661,
          "duration": 0.011627906976741542
        },
        {
          "name": "G4",
          "midi": 67,
          "time": 65.95348837208797,
          "velocity": 0.4094488188976378,
          "duration": 0.12790697674415696
        },
        {
          "name": "B4",
          "midi": 71,
          "time": 65.95348837208797,
          "velocity": 0.14960629921259844,
          "duration": 0.034883720930224626
        },
        {
          "name": "C1",
          "midi": 24,
          "time": 65.96511627906472,
          "velocity": 0.7480314960629921,
          "duration": 0.023255813953483084
        },
        {
          "name": "D5",
          "midi": 74,
          "time": 65.96511627906472,
          "velocity": 0.1889763779527559,
          "duration": 0.04651162790696617
        },
        {
          "name": "G#3",
          "midi": 56,
          "time": 65.97674418604146,
          "velocity": 0.3700787401574803,
          "duration": 0.023255813953483084
        },
        {
          "name": "B0",
          "midi": 23,
          "time": 65.9883720930182,
          "velocity": 0.7322834645669292,
          "duration": 0.011627906976741542
        },
        {
          "name": "C1",
          "midi": 24,
          "time": 65.99999999999494,
          "velocity": 0.7401574803149606,
          "duration": 0.1395348837208985
        },
        {
          "name": "D4",
          "midi": 62,
          "time": 65.99999999999494,
          "velocity": 0.14173228346456693,
          "duration": 0.034883720930224626
        },
        {
          "name": "E3",
          "midi": 52,
          "time": 66.01162790697168,
          "velocity": 0.4015748031496063,
          "duration": 0.023255813953483084
        },
        {
          "name": "B4",
          "midi": 71,
          "time": 66.01162790697168,
          "velocity": 0.1889763779527559,
          "duration": 0.04651162790696617
        },
        {
          "name": "G2",
          "midi": 43,
          "time": 66.02325581394842,
          "velocity": 0.31496062992125984,
          "duration": 0.023255813953483084
        },
        {
          "name": "D#3",
          "midi": 51,
          "time": 66.03488372092517,
          "velocity": 0.3858267716535433,
          "duration": 0.05813953488370771
        },
        {
          "name": "D#4",
          "midi": 63,
          "time": 66.03488372092517,
          "velocity": 0.5511811023622047,
          "duration": 0.05813953488370771
        },
        {
          "name": "F5",
          "midi": 77,
          "time": 66.03488372092517,
          "velocity": 0.12598425196850394,
          "duration": 0.06976744186044925
        },
        {
          "name": "D5",
          "midi": 74,
          "time": 66.0465116279019,
          "velocity": 0.14173228346456693,
          "duration": 0.034883720930224626
        },
        {
          "name": "G#6",
          "midi": 92,
          "time": 66.05813953487865,
          "velocity": 0.33858267716535434,
          "duration": 0.05813953488370771
        },
        {
          "name": "A6",
          "midi": 93,
          "time": 66.05813953487865,
          "velocity": 0.10236220472440945,
          "duration": 0.04651162790696617
        },
        {
          "name": "F#6",
          "midi": 90,
          "time": 66.06976744185539,
          "velocity": 0.13385826771653545,
          "duration": 0.034883720930224626
        },
        {
          "name": "G#4",
          "midi": 68,
          "time": 66.08139534883213,
          "velocity": 0.2677165354330709,
          "duration": 0.034883720930224626
        },
        {
          "name": "D3",
          "midi": 50,
          "time": 66.09302325580887,
          "velocity": 0.4094488188976378,
          "duration": 0.034883720930224626
        },
        {
          "name": "D4",
          "midi": 62,
          "time": 66.09302325580887,
          "velocity": 0.48031496062992124,
          "duration": 0.023255813953483084
        },
        {
          "name": "G3",
          "midi": 55,
          "time": 66.10465116278561,
          "velocity": 0.31496062992125984,
          "duration": 0.023255813953483084
        },
        {
          "name": "D#5",
          "midi": 75,
          "time": 66.11627906976236,
          "velocity": 0.2047244094488189,
          "duration": 0.1627906976743816
        },
        {
          "name": "C#3",
          "midi": 49,
          "time": 66.1279069767391,
          "velocity": 0.3464566929133858,
          "duration": 0.023255813953483084
        },
        {
          "name": "G#3",
          "midi": 56,
          "time": 66.1279069767391,
          "velocity": 0.4094488188976378,
          "duration": 0.10465116279067388
        },
        {
          "name": "D4",
          "midi": 62,
          "time": 66.1279069767391,
          "velocity": 0.3543307086614173,
          "duration": 0.023255813953483084
        },
        {
          "name": "F#4",
          "midi": 66,
          "time": 66.1279069767391,
          "velocity": 0.2755905511811024,
          "duration": 0.034883720930224626
        },
        {
          "name": "C#1",
          "midi": 25,
          "time": 66.13953488371584,
          "velocity": 0.7322834645669292,
          "duration": 0.011627906976741542
        },
        {
          "name": "G#6",
          "midi": 92,
          "time": 66.13953488371584,
          "velocity": 0.33070866141732286,
          "duration": 0.06976744186044925
        },
        {
          "name": "C1",
          "midi": 24,
          "time": 66.15116279069258,
          "velocity": 0.7480314960629921,
          "duration": 1.0813953488369634
        },
        {
          "name": "D#3",
          "midi": 51,
          "time": 66.15116279069258,
          "velocity": 0.49606299212598426,
          "duration": 0.20930232558134776
        },
        {
          "name": "A#4",
          "midi": 70,
          "time": 66.15116279069258,
          "velocity": 0.2677165354330709,
          "duration": 0.15116279069764005
        },
        {
          "name": "D#7",
          "midi": 99,
          "time": 66.15116279069258,
          "velocity": 0.07086614173228346,
          "duration": 0.034883720930224626
        },
        {
          "name": "E7",
          "midi": 100,
          "time": 66.15116279069258,
          "velocity": 0.15748031496062992,
          "duration": 0.034883720930224626
        },
        {
          "name": "A#6",
          "midi": 94,
          "time": 66.16279069766932,
          "velocity": 0.14173228346456693,
          "duration": 0.034883720930224626
        },
        {
          "name": "A6",
          "midi": 93,
          "time": 66.20930232557629,
          "velocity": 0.2047244094488189,
          "duration": 0.06976744186044925
        },
        {
          "name": "G#6",
          "midi": 92,
          "time": 66.22093023255303,
          "velocity": 0.14173228346456693,
          "duration": 0.034883720930224626
        },
        {
          "name": "F5",
          "midi": 77,
          "time": 66.23255813952977,
          "velocity": 0.1968503937007874,
          "duration": 0.0813953488371908
        },
        {
          "name": "G#3",
          "midi": 56,
          "time": 66.25581395348325,
          "velocity": 0.3543307086614173,
          "duration": 0.023255813953483084
        },
        {
          "name": "G4",
          "midi": 67,
          "time": 66.29069767441348,
          "velocity": 0.33858267716535434,
          "duration": 0.0813953488371908
        },
        {
          "name": "G#3",
          "midi": 56,
          "time": 66.30232558139022,
          "velocity": 0.3543307086614173,
          "duration": 0.034883720930224626
        },
        {
          "name": "B4",
          "midi": 71,
          "time": 66.3255813953437,
          "velocity": 0.09448818897637795,
          "duration": 0.034883720930224626
        },
        {
          "name": "G#3",
          "midi": 56,
          "time": 66.34883720929719,
          "velocity": 0.4566929133858268,
          "duration": 0.09302325581393234
        },
        {
          "name": "D4",
          "midi": 62,
          "time": 66.34883720929719,
          "velocity": 0.16535433070866143,
          "duration": 0.034883720930224626
        },
        {
          "name": "F5",
          "midi": 77,
          "time": 66.34883720929719,
          "velocity": 0.2047244094488189,
          "duration": 0.04651162790696617
        },
        {
          "name": "C5",
          "midi": 72,
          "time": 66.36046511627393,
          "velocity": 0.3858267716535433,
          "duration": 0.0813953488371908
        },
        {
          "name": "A5",
          "midi": 81,
          "time": 66.36046511627393,
          "velocity": 0.2755905511811024,
          "duration": 0.06976744186044925
        },
        {
          "name": "E5",
          "midi": 76,
          "time": 66.37209302325067,
          "velocity": 0.25984251968503935,
          "duration": 0.0813953488371908
        },
        {
          "name": "D6",
          "midi": 86,
          "time": 66.37209302325067,
          "velocity": 0.2047244094488189,
          "duration": 0.3372093023255047
        },
        {
          "name": "F#5",
          "midi": 78,
          "time": 66.38372093022741,
          "velocity": 0.29133858267716534,
          "duration": 0.06976744186044925
        },
        {
          "name": "A4",
          "midi": 69,
          "time": 66.41860465115764,
          "velocity": 0.3543307086614173,
          "duration": 0.034883720930224626
        },
        {
          "name": "E4",
          "midi": 64,
          "time": 66.43023255813438,
          "velocity": 0.2755905511811024,
          "duration": 0.023255813953483084
        },
        {
          "name": "G#3",
          "midi": 56,
          "time": 66.45348837208786,
          "velocity": 0.36220472440944884,
          "duration": 0.04651162790696617
        },
        {
          "name": "F4",
          "midi": 65,
          "time": 66.45348837208786,
          "velocity": 0.31496062992125984,
          "duration": 0.023255813953483084
        },
        {
          "name": "A#4",
          "midi": 70,
          "time": 66.45348837208786,
          "velocity": 0.3700787401574803,
          "duration": 0.05813953488370771
        },
        {
          "name": "D5",
          "midi": 74,
          "time": 66.45348837208786,
          "velocity": 0.28346456692913385,
          "duration": 0.11627906976741542
        },
        {
          "name": "D#6",
          "midi": 87,
          "time": 66.45348837208786,
          "velocity": 0.18110236220472442,
          "duration": 0.3255813953487632
        },
        {
          "name": "G2",
          "midi": 43,
          "time": 66.4651162790646,
          "velocity": 0.33858267716535434,
          "duration": 0.023255813953483084
        },
        {
          "name": "F4",
          "midi": 65,
          "time": 66.48837209301809,
          "velocity": 0.4251968503937008,
          "duration": 0.0813953488371908
        },
        {
          "name": "G5",
          "midi": 79,
          "time": 66.49999999999483,
          "velocity": 0.25984251968503935,
          "duration": 0.15116279069764005
        },
        {
          "name": "A3",
          "midi": 57,
          "time": 66.53488372092505,
          "velocity": 0.3543307086614173,
          "duration": 0.023255813953483084
        },
        {
          "name": "F#2",
          "midi": 42,
          "time": 66.55813953487853,
          "velocity": 0.2992125984251969,
          "duration": 0.023255813953483084
        },
        {
          "name": "G#3",
          "midi": 56,
          "time": 66.56976744185528,
          "velocity": 0.4094488188976378,
          "duration": 0.023255813953483084
        },
        {
          "name": "E4",
          "midi": 64,
          "time": 66.56976744185528,
          "velocity": 0.4015748031496063,
          "duration": 0.023255813953483084
        },
        {
          "name": "C5",
          "midi": 72,
          "time": 66.56976744185528,
          "velocity": 0.18110236220472442,
          "duration": 0.034883720930224626
        },
        {
          "name": "D#4",
          "midi": 63,
          "time": 66.59302325580876,
          "velocity": 0.3937007874015748,
          "duration": 0.023255813953483084
        },
        {
          "name": "G3",
          "midi": 55,
          "time": 66.6046511627855,
          "velocity": 0.36220472440944884,
          "duration": 0.023255813953483084
        },
        {
          "name": "G#4",
          "midi": 68,
          "time": 66.6046511627855,
          "velocity": 0.25196850393700787,
          "duration": 0.034883720930224626
        },
        {
          "name": "B4",
          "midi": 71,
          "time": 66.6046511627855,
          "velocity": 0.14173228346456693,
          "duration": 0.05813953488370771
        },
        {
          "name": "C#4",
          "midi": 61,
          "time": 66.62790697673898,
          "velocity": 0.29133858267716534,
          "duration": 0.023255813953483084
        },
        {
          "name": "G4",
          "midi": 67,
          "time": 66.63953488371573,
          "velocity": 0.14960629921259844,
          "duration": 0.034883720930224626
        },
        {
          "name": "G3",
          "midi": 55,
          "time": 66.65116279069247,
          "velocity": 0.2992125984251969,
          "duration": 0.023255813953483084
        },
        {
          "name": "G#3",
          "midi": 56,
          "time": 66.67441860464595,
          "velocity": 0.33070866141732286,
          "duration": 0.023255813953483084
        },
        {
          "name": "F5",
          "midi": 77,
          "time": 66.69767441859943,
          "velocity": 0.07086614173228346,
          "duration": 0.034883720930224626
        },
        {
          "name": "D4",
          "midi": 62,
          "time": 66.70930232557618,
          "velocity": 0.11811023622047244,
          "duration": 0.04651162790696617
        },
        {
          "name": "G5",
          "midi": 79,
          "time": 66.72093023255292,
          "velocity": 0.18110236220472442,
          "duration": 0.06976744186044925
        },
        {
          "name": "G#3",
          "midi": 56,
          "time": 66.7441860465064,
          "velocity": 0.33858267716535434,
          "duration": 0.034883720930224626
        },
        {
          "name": "G3",
          "midi": 55,
          "time": 66.77906976743662,
          "velocity": 0.2992125984251969,
          "duration": 0.023255813953483084
        },
        {
          "name": "D4",
          "midi": 62,
          "time": 66.77906976743662,
          "velocity": 0.15748031496062992,
          "duration": 0.05813953488370771
        },
        {
          "name": "D#5",
          "midi": 75,
          "time": 66.77906976743662,
          "velocity": 0.29133858267716534,
          "duration": 0.023255813953483084
        },
        {
          "name": "A5",
          "midi": 81,
          "time": 66.77906976743662,
          "velocity": 0.14173228346456693,
          "duration": 0.034883720930224626
        },
        {
          "name": "G6",
          "midi": 91,
          "time": 66.77906976743662,
          "velocity": 0.3543307086614173,
          "duration": 0.05813953488370771
        },
        {
          "name": "G#6",
          "midi": 92,
          "time": 66.77906976743662,
          "velocity": 0.2440944881889764,
          "duration": 0.034883720930224626
        },
        {
          "name": "C5",
          "midi": 72,
          "time": 66.79069767441337,
          "velocity": 0.3228346456692913,
          "duration": 0.023255813953483084
        },
        {
          "name": "F#5",
          "midi": 78,
          "time": 66.79069767441337,
          "velocity": 0.31496062992125984,
          "duration": 0.05813953488370771
        },
        {
          "name": "B5",
          "midi": 83,
          "time": 66.79069767441337,
          "velocity": 0.15748031496062992,
          "duration": 0.034883720930224626
        },
        {
          "name": "D5",
          "midi": 74,
          "time": 66.80232558139011,
          "velocity": 0.3858267716535433,
          "duration": 0.023255813953483084
        },
        {
          "name": "G3",
          "midi": 55,
          "time": 66.81395348836685,
          "velocity": 0.5433070866141733,
          "duration": 0.023255813953483084
        },
        {
          "name": "F#4",
          "midi": 66,
          "time": 66.82558139534359,
          "velocity": 0.2440944881889764,
          "duration": 0.034883720930224626
        },
        {
          "name": "B4",
          "midi": 71,
          "time": 66.82558139534359,
          "velocity": 0.25196850393700787,
          "duration": 0.10465116279067388
        },
        {
          "name": "C#5",
          "midi": 73,
          "time": 66.82558139534359,
          "velocity": 0.31496062992125984,
          "duration": 0.023255813953483084
        },
        {
          "name": "F3",
          "midi": 53,
          "time": 66.83720930232033,
          "velocity": 0.5196850393700787,
          "duration": 0.011627906976741542
        },
        {
          "name": "G#4",
          "midi": 68,
          "time": 66.83720930232033,
          "velocity": 0.16535433070866143,
          "duration": 0.05813953488370771
        },
        {
          "name": "G#6",
          "midi": 92,
          "time": 66.83720930232033,
          "velocity": 0.1889763779527559,
          "duration": 0.05813953488370771
        },
        {
          "name": "D#3",
          "midi": 51,
          "time": 66.84883720929707,
          "velocity": 0.49606299212598426,
          "duration": 0.034883720930224626
        },
        {
          "name": "D#6",
          "midi": 87,
          "time": 66.84883720929707,
          "velocity": 0.09448818897637795,
          "duration": 0.18604651162786467
        },
        {
          "name": "F#6",
          "midi": 90,
          "time": 66.84883720929707,
          "velocity": 0.1968503937007874,
          "duration": 0.06976744186044925
        },
        {
          "name": "D#5",
          "midi": 75,
          "time": 66.87209302325056,
          "velocity": 0.4330708661417323,
          "duration": 0.2558139534883139
        },
        {
          "name": "F6",
          "midi": 89,
          "time": 66.87209302325056,
          "velocity": 0.09448818897637795,
          "duration": 0.034883720930224626
        },
        {
          "name": "D3",
          "midi": 50,
          "time": 66.8837209302273,
          "velocity": 0.44881889763779526,
          "duration": 0.023255813953483084
        },
        {
          "name": "G#3",
          "midi": 56,
          "time": 66.8837209302273,
          "velocity": 0.30708661417322836,
          "duration": 0.023255813953483084
        },
        {
          "name": "D#4",
          "midi": 63,
          "time": 66.8837209302273,
          "velocity": 0.33070866141732286,
          "duration": 0.17441860465112313
        },
        {
          "name": "G5",
          "midi": 79,
          "time": 66.8837209302273,
          "velocity": 0.3228346456692913,
          "duration": 0.2558139534883139
        },
        {
          "name": "A#5",
          "midi": 82,
          "time": 66.89534883720404,
          "velocity": 0.09448818897637795,
          "duration": 0.0813953488371908
        },
        {
          "name": "D#3",
          "midi": 51,
          "time": 66.90697674418078,
          "velocity": 0.3937007874015748,
          "duration": 0.034883720930224626
        },
        {
          "name": "G#4",
          "midi": 68,
          "time": 66.91860465115752,
          "velocity": 0.14173228346456693,
          "duration": 0.034883720930224626
        },
        {
          "name": "A3",
          "midi": 57,
          "time": 66.93023255813426,
          "velocity": 0.30708661417322836,
          "duration": 0.023255813953483084
        },
        {
          "name": "G3",
          "midi": 55,
          "time": 66.95348837208775,
          "velocity": 0.3543307086614173,
          "duration": 0.023255813953483084
        },
        {
          "name": "G#3",
          "midi": 56,
          "time": 66.97674418604123,
          "velocity": 0.33858267716535434,
          "duration": 0.023255813953483084
        },
        {
          "name": "A3",
          "midi": 57,
          "time": 67.0232558139482,
          "velocity": 0.2755905511811024,
          "duration": 0.023255813953483084
        },
        {
          "name": "F5",
          "midi": 77,
          "time": 67.04651162790168,
          "velocity": 0.2677165354330709,
          "duration": 0.034883720930224626
        },
        {
          "name": "A#5",
          "midi": 82,
          "time": 67.05813953487842,
          "velocity": 0.16535433070866143,
          "duration": 0.06976744186044925
        },
        {
          "name": "C#6",
          "midi": 85,
          "time": 67.05813953487842,
          "velocity": 0.1732283464566929,
          "duration": 0.05813953488370771
        },
        {
          "name": "D6",
          "midi": 86,
          "time": 67.05813953487842,
          "velocity": 0.15748031496062992,
          "duration": 0.09302325581393234
        },
        {
          "name": "F#6",
          "midi": 90,
          "time": 67.05813953487842,
          "velocity": 0.07874015748031496,
          "duration": 0.034883720930224626
        },
        {
          "name": "G#6",
          "midi": 92,
          "time": 67.05813953487842,
          "velocity": 0.2755905511811024,
          "duration": 0.04651162790696617
        },
        {
          "name": "E7",
          "midi": 100,
          "time": 67.05813953487842,
          "velocity": 0.14960629921259844,
          "duration": 0.06976744186044925
        },
        {
          "name": "D#3",
          "midi": 51,
          "time": 67.06976744185516,
          "velocity": 0.33070866141732286,
          "duration": 0.05813953488370771
        },
        {
          "name": "A3",
          "midi": 57,
          "time": 67.06976744185516,
          "velocity": 0.23622047244094488,
          "duration": 0.023255813953483084
        },
        {
          "name": "G4",
          "midi": 67,
          "time": 67.06976744185516,
          "velocity": 0.2125984251968504,
          "duration": 0.05813953488370771
        },
        {
          "name": "D4",
          "midi": 62,
          "time": 67.0813953488319,
          "velocity": 0.25984251968503935,
          "duration": 0.023255813953483084
        },
        {
          "name": "A#4",
          "midi": 70,
          "time": 67.0813953488319,
          "velocity": 0.3464566929133858,
          "duration": 0.05813953488370771
        },
        {
          "name": "F6",
          "midi": 89,
          "time": 67.0813953488319,
          "velocity": 0.15748031496062992,
          "duration": 0.034883720930224626
        },
        {
          "name": "A6",
          "midi": 93,
          "time": 67.09302325580865,
          "velocity": 0.2204724409448819,
          "duration": 0.04651162790696617
        },
        {
          "name": "D#7",
          "midi": 99,
          "time": 67.09302325580865,
          "velocity": 0.12598425196850394,
          "duration": 0.034883720930224626
        },
        {
          "name": "A#6",
          "midi": 94,
          "time": 67.10465116278539,
          "velocity": 0.1968503937007874,
          "duration": 0.034883720930224626
        },
        {
          "name": "G2",
          "midi": 43,
          "time": 67.13953488371561,
          "velocity": 0.30708661417322836,
          "duration": 0.023255813953483084
        },
        {
          "name": "F#4",
          "midi": 66,
          "time": 67.13953488371561,
          "velocity": 0.28346456692913385,
          "duration": 0.034883720930224626
        },
        {
          "name": "D#5",
          "midi": 75,
          "time": 67.15116279069235,
          "velocity": 0.15748031496062992,
          "duration": 0.10465116279067388
        },
        {
          "name": "D#4",
          "midi": 63,
          "time": 67.17441860464584,
          "velocity": 0.2283464566929134,
          "duration": 0.05813953488370771
        },
        {
          "name": "B4",
          "midi": 71,
          "time": 67.17441860464584,
          "velocity": 0.11023622047244094,
          "duration": 0.04651162790696617
        },
        {
          "name": "G5",
          "midi": 79,
          "time": 67.17441860464584,
          "velocity": 0.3937007874015748,
          "duration": 0.279069767441797
        },
        {
          "name": "E3",
          "midi": 52,
          "time": 67.18604651162258,
          "velocity": 0.2125984251968504,
          "duration": 0.034883720930224626
        },
        {
          "name": "A3",
          "midi": 57,
          "time": 67.19767441859932,
          "velocity": 0.25196850393700787,
          "duration": 0.023255813953483084
        },
        {
          "name": "G#4",
          "midi": 68,
          "time": 67.19767441859932,
          "velocity": 0.25196850393700787,
          "duration": 0.023255813953483084
        },
        {
          "name": "D6",
          "midi": 86,
          "time": 67.20930232557606,
          "velocity": 0.2047244094488189,
          "duration": 0.10465116279067388
        },
        {
          "name": "B6",
          "midi": 95,
          "time": 67.20930232557606,
          "velocity": 0.07874015748031496,
          "duration": 0.034883720930224626
        },
        {
          "name": "E7",
          "midi": 100,
          "time": 67.20930232557606,
          "velocity": 0.23622047244094488,
          "duration": 0.034883720930224626
        },
        {
          "name": "G4",
          "midi": 67,
          "time": 67.2209302325528,
          "velocity": 0.49606299212598426,
          "duration": 0.1395348837208985
        },
        {
          "name": "A6",
          "midi": 93,
          "time": 67.2209302325528,
          "velocity": 0.2125984251968504,
          "duration": 0.09302325581393234
        },
        {
          "name": "A#6",
          "midi": 94,
          "time": 67.2209302325528,
          "velocity": 0.3858267716535433,
          "duration": 0.05813953488370771
        },
        {
          "name": "D#7",
          "midi": 99,
          "time": 67.2209302325528,
          "velocity": 0.2204724409448819,
          "duration": 0.06976744186044925
        },
        {
          "name": "F7",
          "midi": 101,
          "time": 67.2209302325528,
          "velocity": 0.2755905511811024,
          "duration": 0.10465116279067388
        },
        {
          "name": "C#1",
          "midi": 25,
          "time": 67.23255813952954,
          "velocity": 0.7244094488188977,
          "duration": 0.011627906976741542
        },
        {
          "name": "B0",
          "midi": 23,
          "time": 67.24418604650629,
          "velocity": 0.6299212598425197,
          "duration": 0.011627906976741542
        },
        {
          "name": "G3",
          "midi": 55,
          "time": 67.24418604650629,
          "velocity": 0.5039370078740157,
          "duration": 0.04651162790696617
        },
        {
          "name": "D#4",
          "midi": 63,
          "time": 67.24418604650629,
          "velocity": 0.3228346456692913,
          "duration": 0.29069767441853855
        },
        {
          "name": "D5",
          "midi": 74,
          "time": 67.24418604650629,
          "velocity": 0.2755905511811024,
          "duration": 0.034883720930224626
        },
        {
          "name": "B5",
          "midi": 83,
          "time": 67.24418604650629,
          "velocity": 0.14173228346456693,
          "duration": 0.09302325581393234
        },
        {
          "name": "G#0",
          "midi": 20,
          "time": 67.25581395348303,
          "velocity": 0.5354330708661418,
          "duration": 0.011627906976741542
        },
        {
          "name": "B6",
          "midi": 95,
          "time": 67.25581395348303,
          "velocity": 0.31496062992125984,
          "duration": 0.04651162790696617
        },
        {
          "name": "C#7",
          "midi": 97,
          "time": 67.25581395348303,
          "velocity": 0.12598425196850394,
          "duration": 0.04651162790696617
        },
        {
          "name": "F#7",
          "midi": 102,
          "time": 67.25581395348303,
          "velocity": 0.09448818897637795,
          "duration": 0.05813953488370771
        },
        {
          "name": "D#6",
          "midi": 87,
          "time": 67.26744186045977,
          "velocity": 0.2204724409448819,
          "duration": 0.06976744186044925
        },
        {
          "name": "C#6",
          "midi": 85,
          "time": 67.29069767441325,
          "velocity": 0.2047244094488189,
          "duration": 0.04651162790696617
        },
        {
          "name": "A#6",
          "midi": 94,
          "time": 67.29069767441325,
          "velocity": 0.09448818897637795,
          "duration": 0.05813953488370771
        },
        {
          "name": "E7",
          "midi": 100,
          "time": 67.29069767441325,
          "velocity": 0.10236220472440945,
          "duration": 0.034883720930224626
        },
        {
          "name": "F0",
          "midi": 17,
          "time": 67.30232558139,
          "velocity": 0.2677165354330709,
          "duration": 0.023255813953483084
        },
        {
          "name": "E3",
          "midi": 52,
          "time": 67.30232558139,
          "velocity": 0.3858267716535433,
          "duration": 0.034883720930224626
        },
        {
          "name": "B4",
          "midi": 71,
          "time": 67.31395348836674,
          "velocity": 0.15748031496062992,
          "duration": 0.05813953488370771
        },
        {
          "name": "A6",
          "midi": 93,
          "time": 67.33720930232022,
          "velocity": 0.2677165354330709,
          "duration": 0.10465116279067388
        },
        {
          "name": "G3",
          "midi": 55,
          "time": 67.3604651162737,
          "velocity": 0.2992125984251969,
          "duration": 0.023255813953483084
        },
        {
          "name": "A3",
          "midi": 57,
          "time": 67.38372093022718,
          "velocity": 0.2283464566929134,
          "duration": 0.023255813953483084
        },
        {
          "name": "F#4",
          "midi": 66,
          "time": 67.38372093022718,
          "velocity": 0.2755905511811024,
          "duration": 0.023255813953483084
        },
        {
          "name": "A#4",
          "midi": 70,
          "time": 67.38372093022718,
          "velocity": 0.3543307086614173,
          "duration": 0.04651162790696617
        },
        {
          "name": "G#6",
          "midi": 92,
          "time": 67.38372093022718,
          "velocity": 0.2125984251968504,
          "duration": 0.05813953488370771
        },
        {
          "name": "C#5",
          "midi": 73,
          "time": 67.39534883720393,
          "velocity": 0.14173228346456693,
          "duration": 0.034883720930224626
        },
        {
          "name": "D#3",
          "midi": 51,
          "time": 67.40697674418067,
          "velocity": 0.2204724409448819,
          "duration": 0.0813953488371908
        },
        {
          "name": "G4",
          "midi": 67,
          "time": 67.40697674418067,
          "velocity": 0.33858267716535434,
          "duration": 0.09302325581393234
        },
        {
          "name": "G#3",
          "midi": 56,
          "time": 67.43023255813415,
          "velocity": 0.25984251968503935,
          "duration": 0.023255813953483084
        },
        {
          "name": "A3",
          "midi": 57,
          "time": 67.47674418604112,
          "velocity": 0.31496062992125984,
          "duration": 0.034883720930224626
        },
        {
          "name": "A4",
          "midi": 69,
          "time": 67.48837209301786,
          "velocity": 0.33858267716535434,
          "duration": 0.023255813953483084
        },
        {
          "name": "D5",
          "midi": 74,
          "time": 67.48837209301786,
          "velocity": 0.5275590551181102,
          "duration": 0.3255813953487632
        },
        {
          "name": "A6",
          "midi": 93,
          "time": 67.48837209301786,
          "velocity": 0.2204724409448819,
          "duration": 0.0813953488371908
        },
        {
          "name": "F#4",
          "midi": 66,
          "time": 67.4999999999946,
          "velocity": 0.30708661417322836,
          "duration": 0.034883720930224626
        },
        {
          "name": "C5",
          "midi": 72,
          "time": 67.4999999999946,
          "velocity": 0.2283464566929134,
          "duration": 0.023255813953483084
        },
        {
          "name": "G#6",
          "midi": 92,
          "time": 67.4999999999946,
          "velocity": 0.16535433070866143,
          "duration": 0.034883720930224626
        },
        {
          "name": "F3",
          "midi": 53,
          "time": 67.51162790697134,
          "velocity": 0.4015748031496063,
          "duration": 0.034883720930224626
        },
        {
          "name": "G6",
          "midi": 91,
          "time": 67.52325581394808,
          "velocity": 0.14173228346456693,
          "duration": 0.04651162790696617
        },
        {
          "name": "D4",
          "midi": 62,
          "time": 67.53488372092482,
          "velocity": 0.2440944881889764,
          "duration": 0.26744186046505547
        },
        {
          "name": "G4",
          "midi": 67,
          "time": 67.53488372092482,
          "velocity": 0.2283464566929134,
          "duration": 0.0813953488371908
        },
        {
          "name": "A#4",
          "midi": 70,
          "time": 67.53488372092482,
          "velocity": 0.23622047244094488,
          "duration": 0.05813953488370771
        },
        {
          "name": "G5",
          "midi": 79,
          "time": 67.53488372092482,
          "velocity": 0.3228346456692913,
          "duration": 0.5232558139533978
        },
        {
          "name": "F#3",
          "midi": 54,
          "time": 67.54651162790157,
          "velocity": 0.2283464566929134,
          "duration": 0.034883720930224626
        },
        {
          "name": "B2",
          "midi": 47,
          "time": 67.55813953487831,
          "velocity": 0.2283464566929134,
          "duration": 0.023255813953483084
        },
        {
          "name": "A5",
          "midi": 81,
          "time": 67.61627906976202,
          "velocity": 0.11811023622047244,
          "duration": 0.0813953488371908
        },
        {
          "name": "G4",
          "midi": 67,
          "time": 67.6395348837155,
          "velocity": 0.3700787401574803,
          "duration": 0.10465116279067388
        },
        {
          "name": "G3",
          "midi": 55,
          "time": 67.65116279069224,
          "velocity": 0.5196850393700787,
          "duration": 0.09302325581393234
        },
        {
          "name": "A#4",
          "midi": 70,
          "time": 67.65116279069224,
          "velocity": 0.1968503937007874,
          "duration": 0.034883720930224626
        },
        {
          "name": "A6",
          "midi": 93,
          "time": 67.65116279069224,
          "velocity": 0.30708661417322836,
          "duration": 0.06976744186044925
        },
        {
          "name": "D7",
          "midi": 98,
          "time": 67.65116279069224,
          "velocity": 0.2125984251968504,
          "duration": 0.06976744186044925
        },
        {
          "name": "B5",
          "midi": 83,
          "time": 67.66279069766898,
          "velocity": 0.15748031496062992,
          "duration": 0.06976744186044925
        },
        {
          "name": "B6",
          "midi": 95,
          "time": 67.66279069766898,
          "velocity": 0.31496062992125984,
          "duration": 0.05813953488370771
        },
        {
          "name": "D#7",
          "midi": 99,
          "time": 67.66279069766898,
          "velocity": 0.2047244094488189,
          "duration": 0.04651162790696617
        },
        {
          "name": "A#6",
          "midi": 94,
          "time": 67.67441860464572,
          "velocity": 0.14173228346456693,
          "duration": 0.04651162790696617
        },
        {
          "name": "C#7",
          "midi": 97,
          "time": 67.67441860464572,
          "velocity": 0.11023622047244094,
          "duration": 0.04651162790696617
        },
        {
          "name": "E7",
          "midi": 100,
          "time": 67.68604651162246,
          "velocity": 0.16535433070866143,
          "duration": 0.034883720930224626
        },
        {
          "name": "F7",
          "midi": 101,
          "time": 67.68604651162246,
          "velocity": 0.13385826771653545,
          "duration": 0.034883720930224626
        },
        {
          "name": "A#4",
          "midi": 70,
          "time": 67.70930232557595,
          "velocity": 0.1889763779527559,
          "duration": 0.10465116279067388
        },
        {
          "name": "F3",
          "midi": 53,
          "time": 67.75581395348291,
          "velocity": 0.4094488188976378,
          "duration": 0.06976744186044925
        },
        {
          "name": "F4",
          "midi": 65,
          "time": 67.7790697674364,
          "velocity": 0.47244094488188976,
          "duration": 0.05813953488370771
        },
        {
          "name": "B4",
          "midi": 71,
          "time": 67.81395348836662,
          "velocity": 0.25984251968503935,
          "duration": 0.034883720930224626
        },
        {
          "name": "E3",
          "midi": 52,
          "time": 67.82558139534336,
          "velocity": 0.41732283464566927,
          "duration": 0.023255813953483084
        },
        {
          "name": "D5",
          "midi": 74,
          "time": 67.8372093023201,
          "velocity": 0.28346456692913385,
          "duration": 0.10465116279067388
        },
        {
          "name": "D#4",
          "midi": 63,
          "time": 67.84883720929685,
          "velocity": 0.33858267716535434,
          "duration": 0.023255813953483084
        },
        {
          "name": "A#4",
          "midi": 70,
          "time": 67.84883720929685,
          "velocity": 0.15748031496062992,
          "duration": 0.06976744186044925
        },
        {
          "name": "D3",
          "midi": 50,
          "time": 67.86046511627359,
          "velocity": 0.3543307086614173,
          "duration": 0.034883720930224626
        },
        {
          "name": "D6",
          "midi": 86,
          "time": 67.88372093022707,
          "velocity": 0.3228346456692913,
          "duration": 0.22093023255811772
        },
        {
          "name": "C#3",
          "midi": 49,
          "time": 67.89534883720381,
          "velocity": 0.25196850393700787,
          "duration": 0.034883720930224626
        },
        {
          "name": "D#4",
          "midi": 63,
          "time": 67.93023255813404,
          "velocity": 0.4094488188976378,
          "duration": 0.15116279069766847
        },
        {
          "name": "A5",
          "midi": 81,
          "time": 67.93023255813404,
          "velocity": 0.07086614173228346,
          "duration": 0.06976744186046346
        },
        {
          "name": "D#3",
          "midi": 51,
          "time": 67.94186046511078,
          "velocity": 0.4645669291338583,
          "duration": 0.20930232558137618
        },
        {
          "name": "A#4",
          "midi": 70,
          "time": 67.94186046511078,
          "velocity": 0.3937007874015748,
          "duration": 0.17441860465115155
        },
        {
          "name": "D5",
          "midi": 74,
          "time": 68.05813953487822,
          "velocity": 0.41732283464566927,
          "duration": 0.3023255813952943
        },
        {
          "name": "G4",
          "midi": 67,
          "time": 68.09302325580845,
          "velocity": 0.2992125984251969,
          "duration": 0.06976744186044925
        },
        {
          "name": "D4",
          "midi": 62,
          "time": 68.10465116278519,
          "velocity": 0.31496062992125984,
          "duration": 0.034883720930224626
        },
        {
          "name": "A#4",
          "midi": 70,
          "time": 68.13953488371541,
          "velocity": 0.41732283464566927,
          "duration": 0.2441860465115866
        },
        {
          "name": "F5",
          "midi": 77,
          "time": 68.13953488371541,
          "velocity": 0.3543307086614173,
          "duration": 0.18604651162787889
        },
        {
          "name": "B6",
          "midi": 95,
          "time": 68.13953488371541,
          "velocity": 0.08661417322834646,
          "duration": 0.034883720930224626
        },
        {
          "name": "A#1",
          "midi": 34,
          "time": 68.15116279069215,
          "velocity": 0.5039370078740157,
          "duration": 0.023255813953483084
        },
        {
          "name": "G#5",
          "midi": 80,
          "time": 68.15116279069215,
          "velocity": 0.29133858267716534,
          "duration": 0.04651162790696617
        },
        {
          "name": "A#3",
          "midi": 58,
          "time": 68.1627906976689,
          "velocity": 0.29133858267716534,
          "duration": 0.034883720930224626
        },
        {
          "name": "G1",
          "midi": 31,
          "time": 68.17441860464564,
          "velocity": 0.7637795275590551,
          "duration": 0.034883720930224626
        },
        {
          "name": "B5",
          "midi": 83,
          "time": 68.17441860464564,
          "velocity": 0.2047244094488189,
          "duration": 0.034883720930224626
        },
        {
          "name": "C6",
          "midi": 84,
          "time": 68.17441860464564,
          "velocity": 0.2992125984251969,
          "duration": 0.06976744186044925
        },
        {
          "name": "D#3",
          "midi": 51,
          "time": 68.18604651162238,
          "velocity": 0.29133858267716534,
          "duration": 0.04651162790696617
        },
        {
          "name": "G5",
          "midi": 79,
          "time": 68.18604651162238,
          "velocity": 0.1968503937007874,
          "duration": 0.04651162790696617
        },
        {
          "name": "G#1",
          "midi": 32,
          "time": 68.20930232557586,
          "velocity": 0.7637795275590551,
          "duration": 0.5930232558138471
        },
        {
          "name": "A5",
          "midi": 81,
          "time": 68.20930232557586,
          "velocity": 0.2047244094488189,
          "duration": 0.034883720930224626
        },
        {
          "name": "D#4",
          "midi": 63,
          "time": 68.23255813952935,
          "velocity": 0.3700787401574803,
          "duration": 0.023255813953483084
        },
        {
          "name": "F4",
          "midi": 65,
          "time": 68.23255813952935,
          "velocity": 0.3937007874015748,
          "duration": 0.13953488372091272
        },
        {
          "name": "D#3",
          "midi": 51,
          "time": 68.24418604650609,
          "velocity": 0.30708661417322836,
          "duration": 0.36046511627901623
        },
        {
          "name": "B5",
          "midi": 83,
          "time": 68.24418604650609,
          "velocity": 0.25196850393700787,
          "duration": 0.034883720930224626
        },
        {
          "name": "C4",
          "midi": 60,
          "time": 68.26744186045957,
          "velocity": 0.2992125984251969,
          "duration": 0.06976744186046346
        },
        {
          "name": "G5",
          "midi": 79,
          "time": 68.31395348836655,
          "velocity": 0.15748031496062992,
          "duration": 0.11627906976741542
        },
        {
          "name": "A#3",
          "midi": 58,
          "time": 68.33720930232003,
          "velocity": 0.2440944881889764,
          "duration": 0.04651162790696617
        },
        {
          "name": "C#5",
          "midi": 73,
          "time": 68.36046511627352,
          "velocity": 0.28346456692913385,
          "duration": 0.034883720930224626
        },
        {
          "name": "E5",
          "midi": 76,
          "time": 68.36046511627352,
          "velocity": 0.08661417322834646,
          "duration": 0.034883720930224626
        },
        {
          "name": "A3",
          "midi": 57,
          "time": 68.383720930227,
          "velocity": 0.29133858267716534,
          "duration": 0.023255813953483084
        },
        {
          "name": "D#4",
          "midi": 63,
          "time": 68.383720930227,
          "velocity": 0.4094488188976378,
          "duration": 0.0813953488371908
        },
        {
          "name": "G#4",
          "midi": 68,
          "time": 68.383720930227,
          "velocity": 0.2440944881889764,
          "duration": 0.023255813953483084
        },
        {
          "name": "C5",
          "midi": 72,
          "time": 68.383720930227,
          "velocity": 0.23622047244094488,
          "duration": 0.023255813953483084
        },
        {
          "name": "A#4",
          "midi": 70,
          "time": 68.39534883720374,
          "velocity": 0.36220472440944884,
          "duration": 0.10465116279067388
        },
        {
          "name": "D5",
          "midi": 74,
          "time": 68.39534883720374,
          "velocity": 0.18110236220472442,
          "duration": 0.034883720930224626
        },
        {
          "name": "F5",
          "midi": 77,
          "time": 68.39534883720374,
          "velocity": 0.2677165354330709,
          "duration": 0.17441860465113734
        },
        {
          "name": "F#4",
          "midi": 66,
          "time": 68.40697674418048,
          "velocity": 0.18110236220472442,
          "duration": 0.04651162790696617
        },
        {
          "name": "A#3",
          "midi": 58,
          "time": 68.43023255813397,
          "velocity": 0.3228346456692913,
          "duration": 0.04651162790696617
        },
        {
          "name": "D5",
          "midi": 74,
          "time": 68.44186046511071,
          "velocity": 0.25196850393700787,
          "duration": 0.05813953488370771
        },
        {
          "name": "F#4",
          "midi": 66,
          "time": 68.46511627906419,
          "velocity": 0.2047244094488189,
          "duration": 0.05813953488370771
        },
        {
          "name": "A3",
          "midi": 57,
          "time": 68.47674418604093,
          "velocity": 0.33858267716535434,
          "duration": 0.023255813953483084
        },
        {
          "name": "C4",
          "midi": 60,
          "time": 68.51162790697116,
          "velocity": 0.2283464566929134,
          "duration": 0.06976744186046346
        },
        {
          "name": "D5",
          "midi": 74,
          "time": 68.51162790697116,
          "velocity": 0.41732283464566927,
          "duration": 0.15116279069765426
        },
        {
          "name": "C6",
          "midi": 84,
          "time": 68.51162790697116,
          "velocity": 0.1889763779527559,
          "duration": 0.10465116279068809
        },
        {
          "name": "A#4",
          "midi": 70,
          "time": 68.5232558139479,
          "velocity": 0.2755905511811024,
          "duration": 0.081395348837205
        },
        {
          "name": "G4",
          "midi": 67,
          "time": 68.56976744185488,
          "velocity": 0.2204724409448819,
          "duration": 0.034883720930224626
        },
        {
          "name": "E6",
          "midi": 88,
          "time": 68.58139534883162,
          "velocity": 0.23622047244094488,
          "duration": 0.0813953488371908
        },
        {
          "name": "F#4",
          "midi": 66,
          "time": 68.59302325580836,
          "velocity": 0.2677165354330709,
          "duration": 0.023255813953483084
        },
        {
          "name": "F#5",
          "midi": 78,
          "time": 68.59302325580836,
          "velocity": 0.31496062992125984,
          "duration": 0.023255813953483084
        },
        {
          "name": "G#5",
          "midi": 80,
          "time": 68.59302325580836,
          "velocity": 0.29133858267716534,
          "duration": 0.023255813953483084
        },
        {
          "name": "D#6",
          "midi": 87,
          "time": 68.59302325580836,
          "velocity": 0.25196850393700787,
          "duration": 0.023255813953483084
        },
        {
          "name": "G3",
          "midi": 55,
          "time": 68.6046511627851,
          "velocity": 0.33858267716535434,
          "duration": 0.034883720930224626
        },
        {
          "name": "D#4",
          "midi": 63,
          "time": 68.6046511627851,
          "velocity": 0.2755905511811024,
          "duration": 0.034883720930224626
        },
        {
          "name": "C5",
          "midi": 72,
          "time": 68.6046511627851,
          "velocity": 0.25984251968503935,
          "duration": 0.023255813953483084
        },
        {
          "name": "F6",
          "midi": 89,
          "time": 68.6046511627851,
          "velocity": 0.1732283464566929,
          "duration": 0.034883720930224626
        },
        {
          "name": "G5",
          "midi": 79,
          "time": 68.61627906976184,
          "velocity": 0.31496062992125984,
          "duration": 0.04651162790696617
        },
        {
          "name": "B5",
          "midi": 83,
          "time": 68.61627906976184,
          "velocity": 0.33858267716535434,
          "duration": 0.09302325581393234
        },
        {
          "name": "G#4",
          "midi": 68,
          "time": 68.62790697673859,
          "velocity": 0.23622047244094488,
          "duration": 0.023255813953483084
        },
        {
          "name": "E5",
          "midi": 76,
          "time": 68.62790697673859,
          "velocity": 0.2283464566929134,
          "duration": 0.034883720930224626
        },
        {
          "name": "F#4",
          "midi": 66,
          "time": 68.63953488371533,
          "velocity": 0.23622047244094488,
          "duration": 0.034883720930224626
        },
        {
          "name": "A#4",
          "midi": 70,
          "time": 68.63953488371533,
          "velocity": 0.10236220472440945,
          "duration": 0.034883720930224626
        },
        {
          "name": "G3",
          "midi": 55,
          "time": 68.66279069766881,
          "velocity": 0.5511811023622047,
          "duration": 0.1395348837208985
        },
        {
          "name": "G#4",
          "midi": 68,
          "time": 68.66279069766881,
          "velocity": 0.3464566929133858,
          "duration": 0.04651162790696617
        },
        {
          "name": "D#5",
          "midi": 75,
          "time": 68.66279069766881,
          "velocity": 0.33858267716535434,
          "duration": 0.05813953488370771
        },
        {
          "name": "A5",
          "midi": 81,
          "time": 68.66279069766881,
          "velocity": 0.11811023622047244,
          "duration": 0.04651162790696617
        },
        {
          "name": "D4",
          "midi": 62,
          "time": 68.67441860464555,
          "velocity": 0.31496062992125984,
          "duration": 0.04651162790696617
        },
        {
          "name": "D#7",
          "midi": 99,
          "time": 68.6860465116223,
          "velocity": 0.13385826771653545,
          "duration": 0.1627906976743816
        },
        {
          "name": "C#5",
          "midi": 73,
          "time": 68.69767441859904,
          "velocity": 0.2677165354330709,
          "duration": 0.023255813953483084
        },
        {
          "name": "G5",
          "midi": 79,
          "time": 68.69767441859904,
          "velocity": 0.2047244094488189,
          "duration": 0.10465116279067388
        },
        {
          "name": "D6",
          "midi": 86,
          "time": 68.69767441859904,
          "velocity": 0.4566929133858268,
          "duration": 0.09302325581393234
        },
        {
          "name": "A#5",
          "midi": 82,
          "time": 68.70930232557578,
          "velocity": 0.2677165354330709,
          "duration": 0.023255813953483084
        },
        {
          "name": "F#7",
          "midi": 102,
          "time": 68.70930232557578,
          "velocity": 0.07874015748031496,
          "duration": 0.06976744186044925
        },
        {
          "name": "G7",
          "midi": 103,
          "time": 68.70930232557578,
          "velocity": 0.2125984251968504,
          "duration": 0.0813953488371908
        },
        {
          "name": "D#4",
          "midi": 63,
          "time": 68.72093023255252,
          "velocity": 0.25984251968503935,
          "duration": 0.05813953488370771
        },
        {
          "name": "A4",
          "midi": 69,
          "time": 68.72093023255252,
          "velocity": 0.14960629921259844,
          "duration": 0.034883720930224626
        },
        {
          "name": "D5",
          "midi": 74,
          "time": 68.72093023255252,
          "velocity": 0.3464566929133858,
          "duration": 0.06976744186044925
        },
        {
          "name": "B5",
          "midi": 83,
          "time": 68.72093023255252,
          "velocity": 0.23622047244094488,
          "duration": 0.06976744186044925
        },
        {
          "name": "C4",
          "midi": 60,
          "time": 68.73255813952926,
          "velocity": 0.2047244094488189,
          "duration": 0.034883720930224626
        },
        {
          "name": "F5",
          "midi": 77,
          "time": 68.744186046506,
          "velocity": 0.08661417322834646,
          "duration": 0.04651162790696617
        },
        {
          "name": "F6",
          "midi": 89,
          "time": 68.744186046506,
          "velocity": 0.11023622047244094,
          "duration": 0.034883720930224626
        },
        {
          "name": "A5",
          "midi": 81,
          "time": 68.75581395348274,
          "velocity": 0.13385826771653545,
          "duration": 0.06976744186044925
        },
        {
          "name": "A#5",
          "midi": 82,
          "time": 68.77906976743623,
          "velocity": 0.23622047244094488,
          "duration": 0.04651162790696617
        },
        {
          "name": "D#5",
          "midi": 75,
          "time": 68.79069767441297,
          "velocity": 0.30708661417322836,
          "duration": 0.09302325581393234
        },
        {
          "name": "G1",
          "midi": 31,
          "time": 68.80232558138971,
          "velocity": 0.7007874015748031,
          "duration": 0.011627906976741542
        },
        {
          "name": "F1",
          "midi": 29,
          "time": 68.81395348836645,
          "velocity": 0.5748031496062992,
          "duration": 0.011627906976741542
        },
        {
          "name": "G3",
          "midi": 55,
          "time": 68.81395348836645,
          "velocity": 0.5590551181102362,
          "duration": 0.1395348837208985
        },
        {
          "name": "G5",
          "midi": 79,
          "time": 68.82558139534319,
          "velocity": 0.2283464566929134,
          "duration": 0.15116279069764005
        },
        {
          "name": "B5",
          "midi": 83,
          "time": 68.82558139534319,
          "velocity": 0.3937007874015748,
          "duration": 0.18604651162786467
        },
        {
          "name": "E-1",
          "midi": 4,
          "time": 68.83720930231993,
          "velocity": 0.5275590551181102,
          "duration": 0.011627906976741542
        },
        {
          "name": "F#1",
          "midi": 30,
          "time": 68.84883720929668,
          "velocity": 0.6692913385826772,
          "duration": 0.011627906976741542
        },
        {
          "name": "A4",
          "midi": 69,
          "time": 68.84883720929668,
          "velocity": 0.3700787401574803,
          "duration": 0.034883720930224626
        },
        {
          "name": "G#5",
          "midi": 80,
          "time": 68.84883720929668,
          "velocity": 0.1889763779527559,
          "duration": 0.034883720930224626
        },
        {
          "name": "G1",
          "midi": 31,
          "time": 68.86046511627342,
          "velocity": 0.7716535433070866,
          "duration": 0.616279069767316
        },
        {
          "name": "F5",
          "midi": 77,
          "time": 68.86046511627342,
          "velocity": 0.25984251968503935,
          "duration": 0.6860465116277652
        },
        {
          "name": "D6",
          "midi": 86,
          "time": 68.86046511627342,
          "velocity": 0.4094488188976378,
          "duration": 0.10465116279067388
        },
        {
          "name": "G7",
          "midi": 103,
          "time": 68.86046511627342,
          "velocity": 0.2440944881889764,
          "duration": 0.10465116279067388
        },
        {
          "name": "D5",
          "midi": 74,
          "time": 68.87209302325016,
          "velocity": 0.3937007874015748,
          "duration": 0.04651162790696617
        },
        {
          "name": "F#7",
          "midi": 102,
          "time": 68.87209302325016,
          "velocity": 0.14173228346456693,
          "duration": 0.0813953488371908
        },
        {
          "name": "D#4",
          "midi": 63,
          "time": 68.8837209302269,
          "velocity": 0.29133858267716534,
          "duration": 0.10465116279067388
        },
        {
          "name": "G#4",
          "midi": 68,
          "time": 68.89534883720364,
          "velocity": 0.3228346456692913,
          "duration": 0.023255813953483084
        },
        {
          "name": "D#5",
          "midi": 75,
          "time": 68.90697674418038,
          "velocity": 0.3228346456692913,
          "duration": 0.023255813953483084
        },
        {
          "name": "D5",
          "midi": 74,
          "time": 68.93023255813387,
          "velocity": 0.3543307086614173,
          "duration": 0.06976744186044925
        },
        {
          "name": "F#3",
          "midi": 54,
          "time": 68.95348837208735,
          "velocity": 0.4094488188976378,
          "duration": 0.023255813953483084
        },
        {
          "name": "G#5",
          "midi": 80,
          "time": 68.96511627906409,
          "velocity": 0.11811023622047244,
          "duration": 0.034883720930224626
        },
        {
          "name": "G3",
          "midi": 55,
          "time": 68.97674418604083,
          "velocity": 0.5275590551181102,
          "duration": 0.1395348837208985
        },
        {
          "name": "G#4",
          "midi": 68,
          "time": 68.98837209301757,
          "velocity": 0.2125984251968504,
          "duration": 0.034883720930224626
        },
        {
          "name": "D#5",
          "midi": 75,
          "time": 68.99999999999432,
          "velocity": 0.2755905511811024,
          "duration": 0.06976744186044925
        },
        {
          "name": "D#4",
          "midi": 63,
          "time": 69.01162790697106,
          "velocity": 0.2755905511811024,
          "duration": 0.1395348837208985
        },
        {
          "name": "A#5",
          "midi": 82,
          "time": 69.01162790697106,
          "velocity": 0.4094488188976378,
          "duration": 0.034883720930224626
        },
        {
          "name": "B5",
          "midi": 83,
          "time": 69.03488372092454,
          "velocity": 0.44881889763779526,
          "duration": 0.1627906976743816
        },
        {
          "name": "G7",
          "midi": 103,
          "time": 69.03488372092454,
          "velocity": 0.18110236220472442,
          "duration": 0.1395348837208985
        },
        {
          "name": "D5",
          "midi": 74,
          "time": 69.04651162790128,
          "velocity": 0.3779527559055118,
          "duration": 0.23255813953483084
        },
        {
          "name": "D6",
          "midi": 86,
          "time": 69.04651162790128,
          "velocity": 0.3779527559055118,
          "duration": 0.23255813953483084
        },
        {
          "name": "F#7",
          "midi": 102,
          "time": 69.05813953487802,
          "velocity": 0.13385826771653545,
          "duration": 0.12790697674415696
        },
        {
          "name": "D#6",
          "midi": 87,
          "time": 69.06976744185476,
          "velocity": 0.11811023622047244,
          "duration": 0.04651162790696617
        },
        {
          "name": "D#7",
          "midi": 99,
          "time": 69.06976744185476,
          "velocity": 0.2283464566929134,
          "duration": 0.11627906976741542
        },
        {
          "name": "C#6",
          "midi": 85,
          "time": 69.0813953488315,
          "velocity": 0.12598425196850394,
          "duration": 0.04651162790696617
        },
        {
          "name": "F6",
          "midi": 89,
          "time": 69.09302325580825,
          "velocity": 0.3543307086614173,
          "duration": 0.19767441860460622
        },
        {
          "name": "G6",
          "midi": 91,
          "time": 69.09302325580825,
          "velocity": 0.36220472440944884,
          "duration": 0.19767441860460622
        },
        {
          "name": "D3",
          "midi": 50,
          "time": 69.10465116278499,
          "velocity": 0.25196850393700787,
          "duration": 0.04651162790696617
        },
        {
          "name": "A6",
          "midi": 93,
          "time": 69.12790697673847,
          "velocity": 0.09448818897637795,
          "duration": 0.034883720930224626
        },
        {
          "name": "G3",
          "midi": 55,
          "time": 69.13953488371521,
          "velocity": 0.4330708661417323,
          "duration": 0.06976744186044925
        },
        {
          "name": "A#5",
          "midi": 82,
          "time": 69.13953488371521,
          "velocity": 0.18110236220472442,
          "duration": 0.09302325581393234
        },
        {
          "name": "D3",
          "midi": 50,
          "time": 69.1627906976687,
          "velocity": 0.2677165354330709,
          "duration": 0.06976744186044925
        },
        {
          "name": "E7",
          "midi": 100,
          "time": 69.17441860464544,
          "velocity": 0.14173228346456693,
          "duration": 0.05813953488370771
        },
        {
          "name": "D#7",
          "midi": 99,
          "time": 69.19767441859892,
          "velocity": 0.30708661417322836,
          "duration": 0.05813953488370771
        },
        {
          "name": "F#7",
          "midi": 102,
          "time": 69.19767441859892,
          "velocity": 0.12598425196850394,
          "duration": 0.0813953488371908
        },
        {
          "name": "B5",
          "midi": 83,
          "time": 69.20930232557566,
          "velocity": 0.15748031496062992,
          "duration": 0.0813953488371908
        },
        {
          "name": "G3",
          "midi": 55,
          "time": 69.2209302325524,
          "velocity": 0.4330708661417323,
          "duration": 0.06976744186044925
        },
        {
          "name": "F4",
          "midi": 65,
          "time": 69.24418604650589,
          "velocity": 0.12598425196850394,
          "duration": 0.05813953488370771
        },
        {
          "name": "E7",
          "midi": 100,
          "time": 69.25581395348263,
          "velocity": 0.2440944881889764,
          "duration": 0.04651162790696617
        },
        {
          "name": "D3",
          "midi": 50,
          "time": 69.26744186045937,
          "velocity": 0.29133858267716534,
          "duration": 0.1627906976743958
        },
        {
          "name": "F#6",
          "midi": 90,
          "time": 69.26744186045937,
          "velocity": 0.25984251968503935,
          "duration": 0.17441860465113734
        },
        {
          "name": "G#6",
          "midi": 92,
          "time": 69.26744186045937,
          "velocity": 0.3228346456692913,
          "duration": 0.12790697674417117
        },
        {
          "name": "D#5",
          "midi": 75,
          "time": 69.27906976743611,
          "velocity": 0.3464566929133858,
          "duration": 0.13953488372091272
        },
        {
          "name": "G#5",
          "midi": 80,
          "time": 69.27906976743611,
          "velocity": 0.1968503937007874,
          "duration": 0.13953488372091272
        },
        {
          "name": "C6",
          "midi": 84,
          "time": 69.27906976743611,
          "velocity": 0.14960629921259844,
          "duration": 0.05813953488370771
        },
        {
          "name": "D#7",
          "midi": 99,
          "time": 69.27906976743611,
          "velocity": 0.10236220472440945,
          "duration": 0.06976744186044925
        },
        {
          "name": "G#3",
          "midi": 56,
          "time": 69.29069767441285,
          "velocity": 0.5039370078740157,
          "duration": 0.15116279069765426
        },
        {
          "name": "F7",
          "midi": 101,
          "time": 69.3023255813896,
          "velocity": 0.13385826771653545,
          "duration": 0.034883720930224626
        },
        {
          "name": "D7",
          "midi": 98,
          "time": 69.31395348836634,
          "velocity": 0.13385826771653545,
          "duration": 0.034883720930224626
        },
        {
          "name": "G7",
          "midi": 103,
          "time": 69.32558139534308,
          "velocity": 0.18110236220472442,
          "duration": 0.05813953488372192
        },
        {
          "name": "D6",
          "midi": 86,
          "time": 69.33720930231982,
          "velocity": 0.10236220472440945,
          "duration": 0.05813953488372192
        },
        {
          "name": "E7",
          "midi": 100,
          "time": 69.33720930231982,
          "velocity": 0.14173228346456693,
          "duration": 0.081395348837205
        },
        {
          "name": "D#4",
          "midi": 63,
          "time": 69.34883720929656,
          "velocity": 0.25196850393700787,
          "duration": 0.17441860465113734
        },
        {
          "name": "C#7",
          "midi": 97,
          "time": 69.34883720929656,
          "velocity": 0.14173228346456693,
          "duration": 0.04651162790698038
        },
        {
          "name": "C6",
          "midi": 84,
          "time": 69.39534883720354,
          "velocity": 0.12598425196850394,
          "duration": 0.04651162790696617
        },
        {
          "name": "G3",
          "midi": 55,
          "time": 69.44186046511051,
          "velocity": 0.4566929133858268,
          "duration": 0.034883720930224626
        },
        {
          "name": "G4",
          "midi": 67,
          "time": 69.44186046511051,
          "velocity": 0.49606299212598426,
          "duration": 0.18604651162786467
        },
        {
          "name": "D5",
          "midi": 74,
          "time": 69.44186046511051,
          "velocity": 0.23622047244094488,
          "duration": 0.15116279069764005
        },
        {
          "name": "G6",
          "midi": 91,
          "time": 69.44186046511051,
          "velocity": 0.23622047244094488,
          "duration": 0.05813953488370771
        },
        {
          "name": "A6",
          "midi": 93,
          "time": 69.45348837208725,
          "velocity": 0.31496062992125984,
          "duration": 0.10465116279067388
        },
        {
          "name": "B5",
          "midi": 83,
          "time": 69.46511627906399,
          "velocity": 0.15748031496062992,
          "duration": 0.04651162790696617
        },
        {
          "name": "F#1",
          "midi": 30,
          "time": 69.47674418604073,
          "velocity": 0.7086614173228346,
          "duration": 0.011627906976741542
        },
        {
          "name": "F1",
          "midi": 29,
          "time": 69.48837209301747,
          "velocity": 0.5511811023622047,
          "duration": 0.011627906976741542
        },
        {
          "name": "G3",
          "midi": 55,
          "time": 69.48837209301747,
          "velocity": 0.48031496062992124,
          "duration": 0.05813953488370771
        },
        {
          "name": "C7",
          "midi": 96,
          "time": 69.49999999999422,
          "velocity": 0.08661417322834646,
          "duration": 0.04651162790696617
        },
        {
          "name": "A4",
          "midi": 69,
          "time": 69.51162790697096,
          "velocity": 0.25984251968503935,
          "duration": 0.034883720930224626
        },
        {
          "name": "G#5",
          "midi": 80,
          "time": 69.51162790697096,
          "velocity": 0.12598425196850394,
          "duration": 0.034883720930224626
        },
        {
          "name": "D6",
          "midi": 86,
          "time": 69.51162790697096,
          "velocity": 0.2440944881889764,
          "duration": 0.05813953488370771
        },
        {
          "name": "D#1",
          "midi": 27,
          "time": 69.5232558139477,
          "velocity": 0.7007874015748031,
          "duration": 0.023255813953483084
        },
        {
          "name": "C6",
          "midi": 84,
          "time": 69.5232558139477,
          "velocity": 0.1889763779527559,
          "duration": 0.034883720930224626
        },
        {
          "name": "G6",
          "midi": 91,
          "time": 69.5232558139477,
          "velocity": 0.14960629921259844,
          "duration": 0.19767441860460622
        },
        {
          "name": "C#1",
          "midi": 25,
          "time": 69.54651162790118,
          "velocity": 0.7322834645669292,
          "duration": 0.011627906976741542
        },
        {
          "name": "F#3",
          "midi": 54,
          "time": 69.54651162790118,
          "velocity": 0.4645669291338583,
          "duration": 0.023255813953483084
        },
        {
          "name": "B0",
          "midi": 23,
          "time": 69.55813953487792,
          "velocity": 0.7559055118110236,
          "duration": 0.023255813953483084
        },
        {
          "name": "F6",
          "midi": 89,
          "time": 69.55813953487792,
          "velocity": 0.1968503937007874,
          "duration": 0.05813953488370771
        },
        {
          "name": "F4",
          "midi": 65,
          "time": 69.56976744185467,
          "velocity": 0.3937007874015748,
          "duration": 0.11627906976741542
        },
        {
          "name": "C5",
          "midi": 72,
          "time": 69.56976744185467,
          "velocity": 0.2204724409448819,
          "duration": 0.11627906976741542
        },
        {
          "name": "C1",
          "midi": 24,
          "time": 69.5813953488314,
          "velocity": 0.7480314960629921,
          "duration": 0.1627906976743816
        },
        {
          "name": "F3",
          "midi": 53,
          "time": 69.60465116278489,
          "velocity": 0.47244094488188976,
          "duration": 0.0813953488371908
        },
        {
          "name": "D5",
          "midi": 74,
          "time": 69.60465116278489,
          "velocity": 0.14173228346456693,
          "duration": 0.034883720930224626
        },
        {
          "name": "G4",
          "midi": 67,
          "time": 69.6627906976686,
          "velocity": 0.2283464566929134,
          "duration": 0.04651162790696617
        },
        {
          "name": "D#3",
          "midi": 51,
          "time": 69.69767441859882,
          "velocity": 0.47244094488188976,
          "duration": 0.023255813953483084
        },
        {
          "name": "E3",
          "midi": 52,
          "time": 69.7209302325523,
          "velocity": 0.4566929133858268,
          "duration": 0.023255813953483084
        },
        {
          "name": "G#4",
          "midi": 68,
          "time": 69.73255813952905,
          "velocity": 0.29133858267716534,
          "duration": 0.04651162790696617
        },
        {
          "name": "B0",
          "midi": 23,
          "time": 69.74418604650579,
          "velocity": 0.6929133858267716,
          "duration": 0.011627906976741542
        },
        {
          "name": "D#3",
          "midi": 51,
          "time": 69.74418604650579,
          "velocity": 0.48031496062992124,
          "duration": 0.2674418604650839
        },
        {
          "name": "G#3",
          "midi": 56,
          "time": 69.74418604650579,
          "velocity": 0.4094488188976378,
          "duration": 0.081395348837205
        },
        {
          "name": "C1",
          "midi": 24,
          "time": 69.75581395348253,
          "velocity": 0.7480314960629921,
          "duration": 0.883720930232414
        },
        {
          "name": "F5",
          "midi": 77,
          "time": 69.76744186045927,
          "velocity": 0.1968503937007874,
          "duration": 0.12790697674418539
        },
        {
          "name": "A#4",
          "midi": 70,
          "time": 69.77906976743601,
          "velocity": 0.3228346456692913,
          "duration": 0.16279069767441
        },
        {
          "name": "G#4",
          "midi": 68,
          "time": 69.86046511627323,
          "velocity": 0.31496062992125984,
          "duration": 0.023255813953483084
        },
        {
          "name": "G#2",
          "midi": 44,
          "time": 69.88372093022672,
          "velocity": 0.33858267716535434,
          "duration": 0.023255813953483084
        },
        {
          "name": "G#3",
          "midi": 56,
          "time": 69.88372093022672,
          "velocity": 0.3464566929133858,
          "duration": 0.034883720930224626
        },
        {
          "name": "G4",
          "midi": 67,
          "time": 69.88372093022672,
          "velocity": 0.30708661417322836,
          "duration": 0.12790697674415696
        },
        {
          "name": "C#5",
          "midi": 73,
          "time": 69.9069767441802,
          "velocity": 0.3779527559055118,
          "duration": 0.04651162790696617
        },
        {
          "name": "E5",
          "midi": 76,
          "time": 69.9069767441802,
          "velocity": 0.23622047244094488,
          "duration": 0.034883720930224626
        },
        {
          "name": "A5",
          "midi": 81,
          "time": 69.91860465115694,
          "velocity": 0.10236220472440945,
          "duration": 0.034883720930224626
        },
        {
          "name": "G2",
          "midi": 43,
          "time": 69.93023255813368,
          "velocity": 0.28346456692913385,
          "duration": 0.023255813953483084
        },
        {
          "name": "G5",
          "midi": 79,
          "time": 69.93023255813368,
          "velocity": 0.31496062992125984,
          "duration": 0.023255813953483084
        },
        {
          "name": "F5",
          "midi": 77,
          "time": 69.94186046511042,
          "velocity": 0.3858267716535433,
          "duration": 0.11627906976741542
        },
        {
          "name": "A#4",
          "midi": 70,
          "time": 69.95348837208716,
          "velocity": 0.4094488188976378,
          "duration": 0.1627906976743816
        },
        {
          "name": "D5",
          "midi": 74,
          "time": 69.95348837208716,
          "velocity": 0.33858267716535434,
          "duration": 0.1627906976743816
        },
        {
          "name": "G#5",
          "midi": 80,
          "time": 69.95348837208716,
          "velocity": 0.2755905511811024,
          "duration": 0.034883720930224626
        },
        {
          "name": "G#3",
          "midi": 56,
          "time": 69.9651162790639,
          "velocity": 0.3858267716535433,
          "duration": 0.05813953488370771
        },
        {
          "name": "G#2",
          "midi": 44,
          "time": 69.97674418604065,
          "velocity": 0.33070866141732286,
          "duration": 0.023255813953483084
        },
        {
          "name": "G5",
          "midi": 79,
          "time": 70.01162790697087,
          "velocity": 0.13385826771653545,
          "duration": 0.04651162790696617
        },
        {
          "name": "F4",
          "midi": 65,
          "time": 70.02325581394761,
          "velocity": 0.3858267716535433,
          "duration": 0.10465116279067388
        },
        {
          "name": "G#3",
          "midi": 56,
          "time": 70.03488372092436,
          "velocity": 0.4330708661417323,
          "duration": 0.0813953488371908
        },
        {
          "name": "D#6",
          "midi": 87,
          "time": 70.03488372092436,
          "velocity": 0.2204724409448819,
          "duration": 0.3255813953487774
        },
        {
          "name": "G#2",
          "midi": 44,
          "time": 70.08139534883132,
          "velocity": 0.3543307086614173,
          "duration": 0.023255813953483084
        },
        {
          "name": "G5",
          "midi": 79,
          "time": 70.1046511627848,
          "velocity": 0.2047244094488189,
          "duration": 0.0813953488371908
        },
        {
          "name": "A3",
          "midi": 57,
          "time": 70.11627906976155,
          "velocity": 0.3937007874015748,
          "duration": 0.023255813953483084
        },
        {
          "name": "E3",
          "midi": 52,
          "time": 70.12790697673829,
          "velocity": 0.23622047244094488,
          "duration": 0.034883720930224626
        },
        {
          "name": "E4",
          "midi": 64,
          "time": 70.12790697673829,
          "velocity": 0.3937007874015748,
          "duration": 0.023255813953483084
        },
        {
          "name": "D#4",
          "midi": 63,
          "time": 70.15116279069177,
          "velocity": 0.3858267716535433,
          "duration": 0.023255813953483084
        },
        {
          "name": "G2",
          "midi": 43,
          "time": 70.16279069766851,
          "velocity": 0.33070866141732286,
          "duration": 0.034883720930224626
        },
        {
          "name": "B4",
          "midi": 71,
          "time": 70.16279069766851,
          "velocity": 0.1732283464566929,
          "duration": 0.0813953488371908
        },
        {
          "name": "E3",
          "midi": 52,
          "time": 70.17441860464525,
          "velocity": 0.2440944881889764,
          "duration": 0.023255813953483084
        },
        {
          "name": "D4",
          "midi": 62,
          "time": 70.17441860464525,
          "velocity": 0.2677165354330709,
          "duration": 0.034883720930224626
        },
        {
          "name": "A3",
          "midi": 57,
          "time": 70.19767441859874,
          "velocity": 0.3700787401574803,
          "duration": 0.034883720930224626
        },
        {
          "name": "G#4",
          "midi": 68,
          "time": 70.19767441859874,
          "velocity": 0.2755905511811024,
          "duration": 0.09302325581393234
        },
        {
          "name": "G5",
          "midi": 79,
          "time": 70.19767441859874,
          "velocity": 0.3937007874015748,
          "duration": 0.25581395348832814
        },
        {
          "name": "C#4",
          "midi": 61,
          "time": 70.20930232557548,
          "velocity": 0.16535433070866143,
          "duration": 0.034883720930224626
        },
        {
          "name": "D4",
          "midi": 62,
          "time": 70.23255813952896,
          "velocity": 0.2204724409448819,
          "duration": 0.11627906976742963
        },
        {
          "name": "G#3",
          "midi": 56,
          "time": 70.25581395348244,
          "velocity": 0.4251968503937008,
          "duration": 0.06976744186046346
        },
        {
          "name": "G2",
          "midi": 43,
          "time": 70.26744186045919,
          "velocity": 0.31496062992125984,
          "duration": 0.023255813953483084
        },
        {
          "name": "F5",
          "midi": 77,
          "time": 70.27906976743593,
          "velocity": 0.09448818897637795,
          "duration": 0.04651162790698038
        },
        {
          "name": "G#4",
          "midi": 68,
          "time": 70.34883720929639,
          "velocity": 0.1968503937007874,
          "duration": 0.034883720930224626
        },
        {
          "name": "G2",
          "midi": 43,
          "time": 70.36046511627313,
          "velocity": 0.2755905511811024,
          "duration": 0.023255813953483084
        },
        {
          "name": "G#3",
          "midi": 56,
          "time": 70.36046511627313,
          "velocity": 0.4566929133858268,
          "duration": 0.023255813953483084
        },
        {
          "name": "D4",
          "midi": 62,
          "time": 70.36046511627313,
          "velocity": 0.18110236220472442,
          "duration": 0.0813953488371908
        },
        {
          "name": "D5",
          "midi": 74,
          "time": 70.36046511627313,
          "velocity": 0.5196850393700787,
          "duration": 0.09302325581393234
        },
        {
          "name": "F5",
          "midi": 77,
          "time": 70.36046511627313,
          "velocity": 0.14173228346456693,
          "duration": 0.034883720930224626
        },
        {
          "name": "A#5",
          "midi": 82,
          "time": 70.36046511627313,
          "velocity": 0.14173228346456693,
          "duration": 0.034883720930224626
        },
        {
          "name": "A6",
          "midi": 93,
          "time": 70.37209302324987,
          "velocity": 0.23622047244094488,
          "duration": 0.0813953488371908
        },
        {
          "name": "G3",
          "midi": 55,
          "time": 70.38372093022662,
          "velocity": 0.48031496062992124,
          "duration": 0.034883720930224626
        },
        {
          "name": "B5",
          "midi": 83,
          "time": 70.38372093022662,
          "velocity": 0.2677165354330709,
          "duration": 0.06976744186044925
        },
        {
          "name": "F6",
          "midi": 89,
          "time": 70.38372093022662,
          "velocity": 0.2125984251968504,
          "duration": 0.05813953488370771
        },
        {
          "name": "D7",
          "midi": 98,
          "time": 70.39534883720336,
          "velocity": 0.2047244094488189,
          "duration": 0.05813953488370771
        },
        {
          "name": "G2",
          "midi": 43,
          "time": 70.4069767441801,
          "velocity": 0.2440944881889764,
          "duration": 0.023255813953483084
        },
        {
          "name": "F#7",
          "midi": 102,
          "time": 70.4069767441801,
          "velocity": 0.13385826771653545,
          "duration": 0.034883720930224626
        },
        {
          "name": "G#3",
          "midi": 56,
          "time": 70.41860465115684,
          "velocity": 0.2755905511811024,
          "duration": 0.023255813953483084
        },
        {
          "name": "D#7",
          "midi": 99,
          "time": 70.41860465115684,
          "velocity": 0.28346456692913385,
          "duration": 0.06976744186044925
        },
        {
          "name": "D#6",
          "midi": 87,
          "time": 70.43023255813358,
          "velocity": 0.15748031496062992,
          "duration": 0.10465116279067388
        },
        {
          "name": "A3",
          "midi": 57,
          "time": 70.44186046511032,
          "velocity": 0.3228346456692913,
          "duration": 0.034883720930224626
        },
        {
          "name": "D#4",
          "midi": 63,
          "time": 70.44186046511032,
          "velocity": 0.2677165354330709,
          "duration": 0.1627906976743958
        },
        {
          "name": "G#4",
          "midi": 68,
          "time": 70.44186046511032,
          "velocity": 0.4251968503937008,
          "duration": 0.034883720930224626
        },
        {
          "name": "F#6",
          "midi": 90,
          "time": 70.44186046511032,
          "velocity": 0.2992125984251969,
          "duration": 0.05813953488370771
        },
        {
          "name": "D#5",
          "midi": 75,
          "time": 70.45348837208707,
          "velocity": 0.3858267716535433,
          "duration": 0.034883720930224626
        },
        {
          "name": "F5",
          "midi": 77,
          "time": 70.45348837208707,
          "velocity": 0.10236220472440945,
          "duration": 0.06976744186044925
        },
        {
          "name": "G#6",
          "midi": 92,
          "time": 70.45348837208707,
          "velocity": 0.2283464566929134,
          "duration": 0.023255813953483084
        },
        {
          "name": "G3",
          "midi": 55,
          "time": 70.47674418604055,
          "velocity": 0.41732283464566927,
          "duration": 0.04651162790696617
        },
        {
          "name": "G4",
          "midi": 67,
          "time": 70.47674418604055,
          "velocity": 0.4251968503937008,
          "duration": 0.034883720930224626
        },
        {
          "name": "B5",
          "midi": 83,
          "time": 70.47674418604055,
          "velocity": 0.12598425196850394,
          "duration": 0.034883720930224626
        },
        {
          "name": "F6",
          "midi": 89,
          "time": 70.47674418604055,
          "velocity": 0.3858267716535433,
          "duration": 0.15116279069765426
        },
        {
          "name": "D#5",
          "midi": 75,
          "time": 70.49999999999403,
          "velocity": 0.2992125984251969,
          "duration": 0.04651162790696617
        },
        {
          "name": "G#4",
          "midi": 68,
          "time": 70.51162790697077,
          "velocity": 0.4251968503937008,
          "duration": 0.034883720930224626
        },
        {
          "name": "G#3",
          "midi": 56,
          "time": 70.52325581394751,
          "velocity": 0.44881889763779526,
          "duration": 0.034883720930224626
        },
        {
          "name": "F#6",
          "midi": 90,
          "time": 70.52325581394751,
          "velocity": 0.4094488188976378,
          "duration": 0.023255813953483084
        },
        {
          "name": "G5",
          "midi": 79,
          "time": 70.53488372092426,
          "velocity": 0.2992125984251969,
          "duration": 0.3023255813952943
        },
        {
          "name": "B5",
          "midi": 83,
          "time": 70.53488372092426,
          "velocity": 0.3858267716535433,
          "duration": 0.20930232558136197
        },
        {
          "name": "D6",
          "midi": 86,
          "time": 70.53488372092426,
          "velocity": 0.3228346456692913,
          "duration": 0.2209302325581035
        },
        {
          "name": "G4",
          "midi": 67,
          "time": 70.546511627901,
          "velocity": 0.47244094488188976,
          "duration": 0.2441860465115866
        },
        {
          "name": "D5",
          "midi": 74,
          "time": 70.546511627901,
          "velocity": 0.33858267716535434,
          "duration": 0.2209302325581035
        },
        {
          "name": "G3",
          "midi": 55,
          "time": 70.55813953487774,
          "velocity": 0.4645669291338583,
          "duration": 0.19767441860462043
        },
        {
          "name": "D#6",
          "midi": 87,
          "time": 70.55813953487774,
          "velocity": 0.07086614173228346,
          "duration": 0.081395348837205
        },
        {
          "name": "D7",
          "midi": 98,
          "time": 70.55813953487774,
          "velocity": 0.33858267716535434,
          "duration": 0.20930232558136197
        },
        {
          "name": "D#4",
          "midi": 63,
          "time": 70.61627906976146,
          "velocity": 0.2755905511811024,
          "duration": 0.10465116279067388
        },
        {
          "name": "C#1",
          "midi": 25,
          "time": 70.63953488371494,
          "velocity": 0.7165354330708661,
          "duration": 0.011627906976741542
        },
        {
          "name": "C1",
          "midi": 24,
          "time": 70.65116279069169,
          "velocity": 0.7480314960629921,
          "duration": 0.1627906976743816
        },
        {
          "name": "G7",
          "midi": 103,
          "time": 70.65116279069169,
          "velocity": 0.1732283464566929,
          "duration": 0.09302325581393234
        },
        {
          "name": "F6",
          "midi": 89,
          "time": 70.66279069766843,
          "velocity": 0.36220472440944884,
          "duration": 0.09302325581393234
        },
        {
          "name": "C7",
          "midi": 96,
          "time": 70.66279069766843,
          "velocity": 0.13385826771653545,
          "duration": 0.05813953488370771
        },
        {
          "name": "G6",
          "midi": 91,
          "time": 70.67441860464517,
          "velocity": 0.3779527559055118,
          "duration": 0.10465116279067388
        },
        {
          "name": "D#7",
          "midi": 99,
          "time": 70.68604651162191,
          "velocity": 0.14960629921259844,
          "duration": 0.05813953488370771
        },
        {
          "name": "G2",
          "midi": 43,
          "time": 70.69767441859865,
          "velocity": 0.28346456692913385,
          "duration": 0.023255813953483084
        },
        {
          "name": "A6",
          "midi": 93,
          "time": 70.69767441859865,
          "velocity": 0.2204724409448819,
          "duration": 0.0813953488371908
        },
        {
          "name": "C#7",
          "midi": 97,
          "time": 70.72093023255213,
          "velocity": 0.18110236220472442,
          "duration": 0.04651162790696617
        },
        {
          "name": "D#4",
          "midi": 63,
          "time": 70.73255813952888,
          "velocity": 0.31496062992125984,
          "duration": 0.3255813953487774
        },
        {
          "name": "G#3",
          "midi": 56,
          "time": 70.75581395348236,
          "velocity": 0.3228346456692913,
          "duration": 0.034883720930224626
        },
        {
          "name": "E3",
          "midi": 52,
          "time": 70.80232558138933,
          "velocity": 0.29133858267716534,
          "duration": 0.023255813953483084
        },
        {
          "name": "C#1",
          "midi": 25,
          "time": 70.81395348836607,
          "velocity": 0.7480314960629921,
          "duration": 0.011627906976741542
        },
        {
          "name": "G4",
          "midi": 67,
          "time": 70.81395348836607,
          "velocity": 0.28346456692913385,
          "duration": 0.023255813953483084
        },
        {
          "name": "F#6",
          "midi": 90,
          "time": 70.81395348836607,
          "velocity": 0.2125984251968504,
          "duration": 0.05813953488370771
        },
        {
          "name": "D1",
          "midi": 26,
          "time": 70.82558139534281,
          "velocity": 0.6929133858267716,
          "duration": 0.011627906976741542
        },
        {
          "name": "D5",
          "midi": 74,
          "time": 70.82558139534281,
          "velocity": 0.49606299212598426,
          "duration": 0.12790697674415696
        },
        {
          "name": "F6",
          "midi": 89,
          "time": 70.82558139534281,
          "velocity": 0.3858267716535433,
          "duration": 0.04651162790696617
        },
        {
          "name": "B0",
          "midi": 23,
          "time": 70.83720930231955,
          "velocity": 0.5984251968503937,
          "duration": 0.011627906976741542
        },
        {
          "name": "G#4",
          "midi": 68,
          "time": 70.83720930231955,
          "velocity": 0.3858267716535433,
          "duration": 0.023255813953483084
        },
        {
          "name": "D7",
          "midi": 98,
          "time": 70.83720930231955,
          "velocity": 0.2440944881889764,
          "duration": 0.0813953488371908
        },
        {
          "name": "F0",
          "midi": 17,
          "time": 70.84883720929629,
          "velocity": 0.49606299212598426,
          "duration": 0.023255813953483084
        },
        {
          "name": "G3",
          "midi": 55,
          "time": 70.84883720929629,
          "velocity": 0.4251968503937008,
          "duration": 0.10465116279067388
        },
        {
          "name": "G5",
          "midi": 79,
          "time": 70.84883720929629,
          "velocity": 0.41732283464566927,
          "duration": 0.2441860465115866
        },
        {
          "name": "B5",
          "midi": 83,
          "time": 70.84883720929629,
          "velocity": 0.25196850393700787,
          "duration": 0.10465116279067388
        },
        {
          "name": "D#6",
          "midi": 87,
          "time": 70.84883720929629,
          "velocity": 0.2204724409448819,
          "duration": 0.05813953488370771
        },
        {
          "name": "A6",
          "midi": 93,
          "time": 70.84883720929629,
          "velocity": 0.15748031496062992,
          "duration": 0.04651162790696617
        },
        {
          "name": "C#7",
          "midi": 97,
          "time": 70.84883720929629,
          "velocity": 0.16535433070866143,
          "duration": 0.05813953488370771
        },
        {
          "name": "G4",
          "midi": 67,
          "time": 70.86046511627303,
          "velocity": 0.4409448818897638,
          "duration": 0.09302325581393234
        },
        {
          "name": "C#6",
          "midi": 85,
          "time": 70.87209302324978,
          "velocity": 0.2283464566929134,
          "duration": 0.04651162790696617
        },
        {
          "name": "E7",
          "midi": 100,
          "time": 70.87209302324978,
          "velocity": 0.11811023622047244,
          "duration": 0.04651162790696617
        },
        {
          "name": "F#0",
          "midi": 18,
          "time": 70.88372093022652,
          "velocity": 0.3543307086614173,
          "duration": 0.023255813953483084
        },
        {
          "name": "F6",
          "midi": 89,
          "time": 70.88372093022652,
          "velocity": 0.29133858267716534,
          "duration": 0.04651162790696617
        },
        {
          "name": "G#6",
          "midi": 92,
          "time": 70.88372093022652,
          "velocity": 0.2047244094488189,
          "duration": 0.034883720930224626
        },
        {
          "name": "F#7",
          "midi": 102,
          "time": 70.88372093022652,
          "velocity": 0.07086614173228346,
          "duration": 0.034883720930224626
        },
        {
          "name": "D#7",
          "midi": 99,
          "time": 70.91860465115674,
          "velocity": 0.07086614173228346,
          "duration": 0.04651162790696617
        },
        {
          "name": "G#4",
          "midi": 68,
          "time": 70.95348837208697,
          "velocity": 0.29133858267716534,
          "duration": 0.034883720930224626
        },
        {
          "name": "G3",
          "midi": 55,
          "time": 70.97674418604045,
          "velocity": 0.29133858267716534,
          "duration": 0.023255813953483084
        },
        {
          "name": "G4",
          "midi": 67,
          "time": 70.98837209301719,
          "velocity": 0.3543307086614173,
          "duration": 0.081395348837205
        },
        {
          "name": "D6",
          "midi": 86,
          "time": 70.98837209301719,
          "velocity": 0.2047244094488189,
          "duration": 0.06976744186046346
        },
        {
          "name": "D5",
          "midi": 74,
          "time": 70.99999999999393,
          "velocity": 0.44881889763779526,
          "duration": 0.19767441860462043
        },
        {
          "name": "F6",
          "midi": 89,
          "time": 70.99999999999393,
          "velocity": 0.1968503937007874,
          "duration": 0.06976744186046346
        },
        {
          "name": "G3",
          "midi": 55,
          "time": 71.01162790697067,
          "velocity": 0.4094488188976378,
          "duration": 0.06976744186046346
        },
        {
          "name": "A6",
          "midi": 93,
          "time": 71.01162790697067,
          "velocity": 0.13385826771653545,
          "duration": 0.05813953488372192
        },
        {
          "name": "D#7",
          "midi": 99,
          "time": 71.01162790697067,
          "velocity": 0.2125984251968504,
          "duration": 0.06976744186046346
        },
        {
          "name": "B5",
          "midi": 83,
          "time": 71.05813953487765,
          "velocity": 0.1889763779527559,
          "duration": 0.0813953488371908
        },
        {
          "name": "B4",
          "midi": 71,
          "time": 71.08139534883114,
          "velocity": 0.2047244094488189,
          "duration": 0.034883720930224626
        },
        {
          "name": "G3",
          "midi": 55,
          "time": 71.09302325580788,
          "velocity": 0.3543307086614173,
          "duration": 0.023255813953483084
        },
        {
          "name": "G4",
          "midi": 67,
          "time": 71.09302325580788,
          "velocity": 0.44881889763779526,
          "duration": 0.2558139534883139
        },
        {
          "name": "G#5",
          "midi": 80,
          "time": 71.10465116278462,
          "velocity": 0.09448818897637795,
          "duration": 0.04651162790696617
        },
        {
          "name": "G6",
          "midi": 91,
          "time": 71.10465116278462,
          "velocity": 0.36220472440944884,
          "duration": 0.1395348837208985
        },
        {
          "name": "D#7",
          "midi": 99,
          "time": 71.10465116278462,
          "velocity": 0.30708661417322836,
          "duration": 0.10465116279067388
        },
        {
          "name": "C3",
          "midi": 48,
          "time": 71.11627906976136,
          "velocity": 0.1889763779527559,
          "duration": 0.034883720930224626
        },
        {
          "name": "F#3",
          "midi": 54,
          "time": 71.11627906976136,
          "velocity": 0.28346456692913385,
          "duration": 0.023255813953483084
        },
        {
          "name": "D4",
          "midi": 62,
          "time": 71.11627906976136,
          "velocity": 0.31496062992125984,
          "duration": 0.11627906976741542
        },
        {
          "name": "A#4",
          "midi": 70,
          "time": 71.11627906976136,
          "velocity": 0.1889763779527559,
          "duration": 0.06976744186044925
        },
        {
          "name": "D7",
          "midi": 98,
          "time": 71.11627906976136,
          "velocity": 0.3464566929133858,
          "duration": 0.23255813953483084
        },
        {
          "name": "F6",
          "midi": 89,
          "time": 71.1279069767381,
          "velocity": 0.18110236220472442,
          "duration": 0.06976744186044925
        },
        {
          "name": "A6",
          "midi": 93,
          "time": 71.1279069767381,
          "velocity": 0.3937007874015748,
          "duration": 0.2209302325580893
        },
        {
          "name": "G3",
          "midi": 55,
          "time": 71.13953488371484,
          "velocity": 0.3228346456692913,
          "duration": 0.034883720930224626
        },
        {
          "name": "A5",
          "midi": 81,
          "time": 71.15116279069159,
          "velocity": 0.10236220472440945,
          "duration": 0.034883720930224626
        },
        {
          "name": "G#6",
          "midi": 92,
          "time": 71.15116279069159,
          "velocity": 0.29133858267716534,
          "duration": 0.11627906976741542
        },
        {
          "name": "G3",
          "midi": 55,
          "time": 71.18604651162181,
          "velocity": 0.2677165354330709,
          "duration": 0.023255813953483084
        },
        {
          "name": "B4",
          "midi": 71,
          "time": 71.18604651162181,
          "velocity": 0.3464566929133858,
          "duration": 0.06976744186044925
        },
        {
          "name": "E5",
          "midi": 76,
          "time": 71.18604651162181,
          "velocity": 0.14173228346456693,
          "duration": 0.04651162790696617
        },
        {
          "name": "F5",
          "midi": 77,
          "time": 71.18604651162181,
          "velocity": 0.07086614173228346,
          "duration": 0.034883720930224626
        },
        {
          "name": "C#5",
          "midi": 73,
          "time": 71.19767441859855,
          "velocity": 0.33858267716535434,
          "duration": 0.023255813953483084
        },
        {
          "name": "D5",
          "midi": 74,
          "time": 71.2093023255753,
          "velocity": 0.3228346456692913,
          "duration": 0.034883720930224626
        },
        {
          "name": "G3",
          "midi": 55,
          "time": 71.22093023255204,
          "velocity": 0.4409448818897638,
          "duration": 0.1395348837208985
        },
        {
          "name": "A#6",
          "midi": 94,
          "time": 71.22093023255204,
          "velocity": 0.1732283464566929,
          "duration": 0.09302325581393234
        },
        {
          "name": "F5",
          "midi": 77,
          "time": 71.23255813952878,
          "velocity": 0.14173228346456693,
          "duration": 0.034883720930224626
        },
        {
          "name": "C#7",
          "midi": 97,
          "time": 71.23255813952878,
          "velocity": 0.31496062992125984,
          "duration": 0.11627906976741542
        },
        {
          "name": "C7",
          "midi": 96,
          "time": 71.24418604650552,
          "velocity": 0.12598425196850394,
          "duration": 0.034883720930224626
        },
        {
          "name": "A#4",
          "midi": 70,
          "time": 71.25581395348226,
          "velocity": 0.2992125984251969,
          "duration": 0.023255813953483084
        },
        {
          "name": "C5",
          "midi": 72,
          "time": 71.25581395348226,
          "velocity": 0.31496062992125984,
          "duration": 0.034883720930224626
        },
        {
          "name": "D5",
          "midi": 74,
          "time": 71.267441860459,
          "velocity": 0.2677165354330709,
          "duration": 0.12790697674415696
        },
        {
          "name": "B6",
          "midi": 95,
          "time": 71.267441860459,
          "velocity": 0.30708661417322836,
          "duration": 0.0813953488371908
        },
        {
          "name": "F#7",
          "midi": 102,
          "time": 71.267441860459,
          "velocity": 0.23622047244094488,
          "duration": 0.0813953488371908
        },
        {
          "name": "D4",
          "midi": 62,
          "time": 71.27906976743574,
          "velocity": 0.25196850393700787,
          "duration": 0.20930232558136197
        },
        {
          "name": "B5",
          "midi": 83,
          "time": 71.29069767441248,
          "velocity": 0.12598425196850394,
          "duration": 0.034883720930224626
        },
        {
          "name": "A#5",
          "midi": 82,
          "time": 71.31395348836597,
          "velocity": 0.07086614173228346,
          "duration": 0.04651162790696617
        },
        {
          "name": "D6",
          "midi": 86,
          "time": 71.31395348836597,
          "velocity": 0.3228346456692913,
          "duration": 0.12790697674417117
        },
        {
          "name": "F6",
          "midi": 89,
          "time": 71.31395348836597,
          "velocity": 0.10236220472440945,
          "duration": 0.034883720930224626
        },
        {
          "name": "F#4",
          "midi": 66,
          "time": 71.34883720929619,
          "velocity": 0.33858267716535434,
          "duration": 0.023255813953483084
        },
        {
          "name": "A5",
          "midi": 81,
          "time": 71.37209302324968,
          "velocity": 0.14173228346456693,
          "duration": 0.06976744186046346
        },
        {
          "name": "G4",
          "midi": 67,
          "time": 71.39534883720316,
          "velocity": 0.25196850393700787,
          "duration": 0.06976744186046346
        },
        {
          "name": "A#4",
          "midi": 70,
          "time": 71.4069767441799,
          "velocity": 0.13385826771653545,
          "duration": 0.05813953488372192
        },
        {
          "name": "G3",
          "midi": 55,
          "time": 71.44186046511014,
          "velocity": 0.4409448818897638,
          "duration": 0.023255813953483084
        },
        {
          "name": "D5",
          "midi": 74,
          "time": 71.44186046511014,
          "velocity": 0.3228346456692913,
          "duration": 0.10465116279068809
        },
        {
          "name": "D6",
          "midi": 86,
          "time": 71.45348837208688,
          "velocity": 0.3543307086614173,
          "duration": 0.23255813953485927
        },
        {
          "name": "C5",
          "midi": 72,
          "time": 71.46511627906362,
          "velocity": 0.13385826771653545,
          "duration": 0.05813953488372192
        },
        {
          "name": "F3",
          "midi": 53,
          "time": 71.47674418604036,
          "velocity": 0.5039370078740157,
          "duration": 0.04651162790698038
        },
        {
          "name": "G4",
          "midi": 67,
          "time": 71.52325581394734,
          "velocity": 0.16535433070866143,
          "duration": 0.034883720930224626
        },
        {
          "name": "A#4",
          "midi": 70,
          "time": 71.52325581394734,
          "velocity": 0.41732283464566927,
          "duration": 0.39534883720925507
        },
        {
          "name": "B5",
          "midi": 83,
          "time": 71.52325581394734,
          "velocity": 0.09448818897637795,
          "duration": 0.05813953488370771
        },
        {
          "name": "D#3",
          "midi": 51,
          "time": 71.53488372092409,
          "velocity": 0.4645669291338583,
          "duration": 0.2441860465115866
        },
        {
          "name": "D#6",
          "midi": 87,
          "time": 71.53488372092409,
          "velocity": 0.33070866141732286,
          "duration": 0.04651162790696617
        },
        {
          "name": "F#6",
          "midi": 90,
          "time": 71.53488372092409,
          "velocity": 0.07874015748031496,
          "duration": 0.04651162790696617
        },
        {
          "name": "A6",
          "midi": 93,
          "time": 71.53488372092409,
          "velocity": 0.11811023622047244,
          "duration": 0.06976744186044925
        },
        {
          "name": "C#6",
          "midi": 85,
          "time": 71.55813953487757,
          "velocity": 0.1968503937007874,
          "duration": 0.034883720930224626
        },
        {
          "name": "G#6",
          "midi": 92,
          "time": 71.55813953487757,
          "velocity": 0.14173228346456693,
          "duration": 0.10465116279068809
        },
        {
          "name": "F6",
          "midi": 89,
          "time": 71.56976744185431,
          "velocity": 0.13385826771653545,
          "duration": 0.13953488372091272
        },
        {
          "name": "A6",
          "midi": 93,
          "time": 71.66279069766826,
          "velocity": 0.07086614173228346,
          "duration": 0.04651162790696617
        },
        {
          "name": "D#6",
          "midi": 87,
          "time": 71.674418604645,
          "velocity": 0.14960629921259844,
          "duration": 0.09302325581393234
        },
        {
          "name": "D5",
          "midi": 74,
          "time": 71.69767441859848,
          "velocity": 0.25984251968503935,
          "duration": 0.023255813953483084
        },
        {
          "name": "A5",
          "midi": 81,
          "time": 71.70930232557522,
          "velocity": 0.3464566929133858,
          "duration": 0.11627906976742963
        },
        {
          "name": "C#5",
          "midi": 73,
          "time": 71.72093023255196,
          "velocity": 0.4094488188976378,
          "duration": 0.05813953488370771
        },
        {
          "name": "E5",
          "midi": 76,
          "time": 71.72093023255196,
          "velocity": 0.2125984251968504,
          "duration": 0.06976744186044925
        },
        {
          "name": "A3",
          "midi": 57,
          "time": 71.7325581395287,
          "velocity": 0.14173228346456693,
          "duration": 0.034883720930224626
        },
        {
          "name": "A#1",
          "midi": 34,
          "time": 71.75581395348219,
          "velocity": 0.5984251968503937,
          "duration": 0.011627906976741542
        },
        {
          "name": "E4",
          "midi": 64,
          "time": 71.75581395348219,
          "velocity": 0.4330708661417323,
          "duration": 0.023255813953483084
        },
        {
          "name": "G1",
          "midi": 31,
          "time": 71.76744186045893,
          "velocity": 0.7559055118110236,
          "duration": 0.023255813953483084
        },
        {
          "name": "C6",
          "midi": 84,
          "time": 71.76744186045893,
          "velocity": 0.29133858267716534,
          "duration": 0.06976744186046346
        },
        {
          "name": "D6",
          "midi": 86,
          "time": 71.76744186045893,
          "velocity": 0.09448818897637795,
          "duration": 0.06976744186046346
        },
        {
          "name": "D5",
          "midi": 74,
          "time": 71.77906976743567,
          "velocity": 0.33858267716535434,
          "duration": 0.05813953488372192
        },
        {
          "name": "G#1",
          "midi": 32,
          "time": 71.79069767441241,
          "velocity": 0.7637795275590551,
          "duration": 0.6046511627906028
        },
        {
          "name": "D#3",
          "midi": 51,
          "time": 71.79069767441241,
          "velocity": 0.2992125984251969,
          "duration": 0.04651162790698038
        },
        {
          "name": "F5",
          "midi": 77,
          "time": 71.79069767441241,
          "velocity": 0.3464566929133858,
          "duration": 0.09302325581394655
        },
        {
          "name": "G#5",
          "midi": 80,
          "time": 71.79069767441241,
          "velocity": 0.2755905511811024,
          "duration": 0.03488372093023884
        },
        {
          "name": "D4",
          "midi": 62,
          "time": 71.82558139534265,
          "velocity": 0.4251968503937008,
          "duration": 0.034883720930224626
        },
        {
          "name": "F#4",
          "midi": 66,
          "time": 71.82558139534265,
          "velocity": 0.29133858267716534,
          "duration": 0.023255813953483084
        },
        {
          "name": "D#5",
          "midi": 75,
          "time": 71.82558139534265,
          "velocity": 0.25984251968503935,
          "duration": 0.023255813953483084
        },
        {
          "name": "B5",
          "midi": 83,
          "time": 71.8372093023194,
          "velocity": 0.2755905511811024,
          "duration": 0.023255813953483084
        },
        {
          "name": "F4",
          "midi": 65,
          "time": 71.84883720929614,
          "velocity": 0.3700787401574803,
          "duration": 0.09302325581394655
        },
        {
          "name": "C4",
          "midi": 60,
          "time": 71.86046511627288,
          "velocity": 0.2992125984251969,
          "duration": 0.06976744186046346
        },
        {
          "name": "D#3",
          "midi": 51,
          "time": 71.94186046511008,
          "velocity": 0.30708661417322836,
          "duration": 0.23255813953484505
        },
        {
          "name": "E4",
          "midi": 64,
          "time": 71.94186046511008,
          "velocity": 0.36220472440944884,
          "duration": 0.03488372093023884
        },
        {
          "name": "A#4",
          "midi": 70,
          "time": 71.94186046511008,
          "velocity": 0.29133858267716534,
          "duration": 0.13953488372091272
        },
        {
          "name": "D5",
          "midi": 74,
          "time": 71.97674418604032,
          "velocity": 0.15748031496062992,
          "duration": 0.034883720930224626
        },
        {
          "name": "F5",
          "midi": 77,
          "time": 71.97674418604032,
          "velocity": 0.2283464566929134,
          "duration": 0.10465116279067388
        },
        {
          "name": "D4",
          "midi": 62,
          "time": 71.98837209301706,
          "velocity": 0.3543307086614173,
          "duration": 0.04651162790696617
        },
        {
          "name": "G#3",
          "midi": 56,
          "time": 71.9999999999938,
          "velocity": 0.30708661417322836,
          "duration": 0.034883720930224626
        },
        {
          "name": "F#4",
          "midi": 66,
          "time": 71.9999999999938,
          "velocity": 0.1968503937007874,
          "duration": 0.034883720930224626
        },
        {
          "name": "D4",
          "midi": 62,
          "time": 72.04651162790077,
          "velocity": 0.3543307086614173,
          "duration": 0.023255813953483084
        },
        {
          "name": "F#4",
          "midi": 66,
          "time": 72.04651162790077,
          "velocity": 0.12598425196850394,
          "duration": 0.06976744186044925
        },
        {
          "name": "C5",
          "midi": 72,
          "time": 72.06976744185425,
          "velocity": 0.2204724409448819,
          "duration": 0.04651162790696617
        },
        {
          "name": "C4",
          "midi": 60,
          "time": 72.081395348831,
          "velocity": 0.2204724409448819,
          "duration": 0.06976744186044925
        },
        {
          "name": "D#5",
          "midi": 75,
          "time": 72.09302325580774,
          "velocity": 0.13385826771653545,
          "duration": 0.04651162790696617
        },
        {
          "name": "F#4",
          "midi": 66,
          "time": 72.12790697673796,
          "velocity": 0.15748031496062992,
          "duration": 0.04651162790696617
        },
        {
          "name": "D5",
          "midi": 74,
          "time": 72.12790697673796,
          "velocity": 0.2204724409448819,
          "duration": 0.04651162790696617
        },
        {
          "name": "A5",
          "midi": 81,
          "time": 72.12790697673796,
          "velocity": 0.23622047244094488,
          "duration": 0.034883720930224626
        },
        {
          "name": "G#5",
          "midi": 80,
          "time": 72.1395348837147,
          "velocity": 0.3543307086614173,
          "duration": 0.04651162790696617
        },
        {
          "name": "F#6",
          "midi": 90,
          "time": 72.1395348837147,
          "velocity": 0.15748031496062992,
          "duration": 0.05813953488370771
        },
        {
          "name": "G6",
          "midi": 91,
          "time": 72.1395348837147,
          "velocity": 0.1889763779527559,
          "duration": 0.05813953488370771
        },
        {
          "name": "A6",
          "midi": 93,
          "time": 72.1395348837147,
          "velocity": 0.2677165354330709,
          "duration": 0.1395348837208985
        },
        {
          "name": "A#6",
          "midi": 94,
          "time": 72.1395348837147,
          "velocity": 0.14960629921259844,
          "duration": 0.09302325581393234
        },
        {
          "name": "E7",
          "midi": 100,
          "time": 72.1395348837147,
          "velocity": 0.16535433070866143,
          "duration": 0.09302325581393234
        },
        {
          "name": "G5",
          "midi": 79,
          "time": 72.15116279069144,
          "velocity": 0.3543307086614173,
          "duration": 0.06976744186044925
        },
        {
          "name": "A#5",
          "midi": 82,
          "time": 72.15116279069144,
          "velocity": 0.29133858267716534,
          "duration": 0.279069767441797
        },
        {
          "name": "F7",
          "midi": 101,
          "time": 72.15116279069144,
          "velocity": 0.11023622047244094,
          "duration": 0.0813953488371908
        },
        {
          "name": "D#7",
          "midi": 99,
          "time": 72.16279069766819,
          "velocity": 0.09448818897637795,
          "duration": 0.034883720930224626
        },
        {
          "name": "G3",
          "midi": 55,
          "time": 72.17441860464493,
          "velocity": 0.3858267716535433,
          "duration": 0.05813953488370771
        },
        {
          "name": "F5",
          "midi": 77,
          "time": 72.17441860464493,
          "velocity": 0.31496062992125984,
          "duration": 0.023255813953483084
        },
        {
          "name": "A5",
          "midi": 81,
          "time": 72.17441860464493,
          "velocity": 0.23622047244094488,
          "duration": 0.023255813953483084
        },
        {
          "name": "B6",
          "midi": 95,
          "time": 72.17441860464493,
          "velocity": 0.09448818897637795,
          "duration": 0.04651162790696617
        },
        {
          "name": "D5",
          "midi": 74,
          "time": 72.18604651162167,
          "velocity": 0.23622047244094488,
          "duration": 0.023255813953483084
        },
        {
          "name": "G#6",
          "midi": 92,
          "time": 72.18604651162167,
          "velocity": 0.2204724409448819,
          "duration": 0.04651162790696617
        },
        {
          "name": "E5",
          "midi": 76,
          "time": 72.19767441859841,
          "velocity": 0.3464566929133858,
          "duration": 0.04651162790696617
        },
        {
          "name": "F#4",
          "midi": 66,
          "time": 72.20930232557515,
          "velocity": 0.14173228346456693,
          "duration": 0.034883720930224626
        },
        {
          "name": "D4",
          "midi": 62,
          "time": 72.2209302325519,
          "velocity": 0.3543307086614173,
          "duration": 0.06976744186044925
        },
        {
          "name": "D#5",
          "midi": 75,
          "time": 72.24418604650538,
          "velocity": 0.2992125984251969,
          "duration": 0.18604651162786467
        },
        {
          "name": "G3",
          "midi": 55,
          "time": 72.25581395348212,
          "velocity": 0.44881889763779526,
          "duration": 0.04651162790696617
        },
        {
          "name": "A5",
          "midi": 81,
          "time": 72.25581395348212,
          "velocity": 0.13385826771653545,
          "duration": 0.05813953488370771
        },
        {
          "name": "B6",
          "midi": 95,
          "time": 72.25581395348212,
          "velocity": 0.15748031496062992,
          "duration": 0.06976744186044925
        },
        {
          "name": "A#4",
          "midi": 70,
          "time": 72.26744186045886,
          "velocity": 0.14960629921259844,
          "duration": 0.04651162790696617
        },
        {
          "name": "C7",
          "midi": 96,
          "time": 72.26744186045886,
          "velocity": 0.09448818897637795,
          "duration": 0.04651162790696617
        },
        {
          "name": "D#4",
          "midi": 63,
          "time": 72.29069767441234,
          "velocity": 0.30708661417322836,
          "duration": 0.034883720930224626
        },
        {
          "name": "G3",
          "midi": 55,
          "time": 72.32558139534257,
          "velocity": 0.5039370078740157,
          "duration": 0.09302325581393234
        },
        {
          "name": "F#4",
          "midi": 66,
          "time": 72.32558139534257,
          "velocity": 0.29133858267716534,
          "duration": 0.034883720930224626
        },
        {
          "name": "G5",
          "midi": 79,
          "time": 72.32558139534257,
          "velocity": 0.07874015748031496,
          "duration": 0.04651162790696617
        },
        {
          "name": "C4",
          "midi": 60,
          "time": 72.34883720929605,
          "velocity": 0.2440944881889764,
          "duration": 0.023255813953483084
        },
        {
          "name": "F5",
          "midi": 77,
          "time": 72.34883720929605,
          "velocity": 0.14960629921259844,
          "duration": 0.05813953488370771
        },
        {
          "name": "A5",
          "midi": 81,
          "time": 72.34883720929605,
          "velocity": 0.09448818897637795,
          "duration": 0.034883720930224626
        },
        {
          "name": "D#4",
          "midi": 63,
          "time": 72.36046511627279,
          "velocity": 0.25196850393700787,
          "duration": 0.023255813953483084
        },
        {
          "name": "G1",
          "midi": 31,
          "time": 72.39534883720302,
          "velocity": 0.6614173228346457,
          "duration": 0.011627906976741542
        },
        {
          "name": "G#4",
          "midi": 68,
          "time": 72.39534883720302,
          "velocity": 0.3464566929133858,
          "duration": 0.023255813953483084
        },
        {
          "name": "D5",
          "midi": 74,
          "time": 72.40697674417976,
          "velocity": 0.3937007874015748,
          "duration": 0.10465116279067388
        },
        {
          "name": "G5",
          "midi": 79,
          "time": 72.40697674417976,
          "velocity": 0.15748031496062992,
          "duration": 0.04651162790696617
        },
        {
          "name": "E7",
          "midi": 100,
          "time": 72.40697674417976,
          "velocity": 0.07874015748031496,
          "duration": 0.04651162790696617
        },
        {
          "name": "E1",
          "midi": 28,
          "time": 72.4186046511565,
          "velocity": 0.6062992125984252,
          "duration": 0.023255813953483084
        },
        {
          "name": "G4",
          "midi": 67,
          "time": 72.4186046511565,
          "velocity": 0.31496062992125984,
          "duration": 0.023255813953483084
        },
        {
          "name": "A6",
          "midi": 93,
          "time": 72.4186046511565,
          "velocity": 0.2755905511811024,
          "duration": 0.06976744186044925
        },
        {
          "name": "B6",
          "midi": 95,
          "time": 72.4186046511565,
          "velocity": 0.3700787401574803,
          "duration": 0.0813953488371908
        },
        {
          "name": "F7",
          "midi": 101,
          "time": 72.4186046511565,
          "velocity": 0.28346456692913385,
          "duration": 0.06976744186044925
        },
        {
          "name": "G3",
          "midi": 55,
          "time": 72.43023255813324,
          "velocity": 0.44881889763779526,
          "duration": 0.034883720930224626
        },
        {
          "name": "G#4",
          "midi": 68,
          "time": 72.43023255813324,
          "velocity": 0.3700787401574803,
          "duration": 0.023255813953483084
        },
        {
          "name": "C6",
          "midi": 84,
          "time": 72.43023255813324,
          "velocity": 0.2047244094488189,
          "duration": 0.034883720930224626
        },
        {
          "name": "G6",
          "midi": 91,
          "time": 72.43023255813324,
          "velocity": 0.1889763779527559,
          "duration": 0.06976744186044925
        },
        {
          "name": "C7",
          "midi": 96,
          "time": 72.43023255813324,
          "velocity": 0.25984251968503935,
          "duration": 0.04651162790696617
        },
        {
          "name": "D7",
          "midi": 98,
          "time": 72.43023255813324,
          "velocity": 0.18110236220472442,
          "duration": 0.04651162790696617
        },
        {
          "name": "D#7",
          "midi": 99,
          "time": 72.43023255813324,
          "velocity": 0.13385826771653545,
          "duration": 0.034883720930224626
        },
        {
          "name": "G1",
          "midi": 31,
          "time": 72.44186046510998,
          "velocity": 0.7716535433070866,
          "duration": 0.6279069767440433
        },
        {
          "name": "F5",
          "midi": 77,
          "time": 72.44186046510998,
          "velocity": 0.2992125984251969,
          "duration": 0.18604651162786467
        },
        {
          "name": "F#7",
          "midi": 102,
          "time": 72.44186046510998,
          "velocity": 0.13385826771653545,
          "duration": 0.04651162790696617
        },
        {
          "name": "A#5",
          "midi": 82,
          "time": 72.45348837208672,
          "velocity": 0.1732283464566929,
          "duration": 0.09302325581393234
        },
        {
          "name": "C#7",
          "midi": 97,
          "time": 72.45348837208672,
          "velocity": 0.2283464566929134,
          "duration": 0.034883720930224626
        },
        {
          "name": "C#3",
          "midi": 49,
          "time": 72.46511627906347,
          "velocity": 0.2755905511811024,
          "duration": 0.023255813953483084
        },
        {
          "name": "G#4",
          "midi": 68,
          "time": 72.49999999999369,
          "velocity": 0.28346456692913385,
          "duration": 0.05813953488370771
        },
        {
          "name": "G3",
          "midi": 55,
          "time": 72.51162790697043,
          "velocity": 0.44881889763779526,
          "duration": 0.023255813953483084
        },
        {
          "name": "E4",
          "midi": 64,
          "time": 72.51162790697043,
          "velocity": 0.2283464566929134,
          "duration": 0.023255813953483084
        },
        {
          "name": "C#5",
          "midi": 73,
          "time": 72.51162790697043,
          "velocity": 0.16535433070866143,
          "duration": 0.034883720930224626
        },
        {
          "name": "D#5",
          "midi": 75,
          "time": 72.52325581394717,
          "velocity": 0.2125984251968504,
          "duration": 0.04651162790696617
        },
        {
          "name": "D#3",
          "midi": 51,
          "time": 72.53488372092392,
          "velocity": 0.30708661417322836,
          "duration": 0.023255813953483084
        },
        {
          "name": "F4",
          "midi": 65,
          "time": 72.54651162790066,
          "velocity": 0.1732283464566929,
          "duration": 0.04651162790696617
        },
        {
          "name": "D5",
          "midi": 74,
          "time": 72.54651162790066,
          "velocity": 0.11811023622047244,
          "duration": 0.034883720930224626
        },
        {
          "name": "D3",
          "midi": 50,
          "time": 72.5581395348774,
          "velocity": 0.2755905511811024,
          "duration": 0.04651162790696617
        },
        {
          "name": "G#3",
          "midi": 56,
          "time": 72.5581395348774,
          "velocity": 0.33858267716535434,
          "duration": 0.034883720930224626
        },
        {
          "name": "G#5",
          "midi": 80,
          "time": 72.5581395348774,
          "velocity": 0.14173228346456693,
          "duration": 0.05813953488370771
        },
        {
          "name": "G4",
          "midi": 67,
          "time": 72.59302325580762,
          "velocity": 0.3543307086614173,
          "duration": 0.023255813953483084
        },
        {
          "name": "A#4",
          "midi": 70,
          "time": 72.59302325580762,
          "velocity": 0.2992125984251969,
          "duration": 0.034883720930224626
        },
        {
          "name": "G#6",
          "midi": 92,
          "time": 72.59302325580762,
          "velocity": 0.2992125984251969,
          "duration": 0.10465116279067388
        },
        {
          "name": "F#5",
          "midi": 78,
          "time": 72.60465116278436,
          "velocity": 0.33070866141732286,
          "duration": 0.034883720930224626
        },
        {
          "name": "A#6",
          "midi": 94,
          "time": 72.60465116278436,
          "velocity": 0.2992125984251969,
          "duration": 0.06976744186044925
        },
        {
          "name": "G3",
          "midi": 55,
          "time": 72.6162790697611,
          "velocity": 0.4409448818897638,
          "duration": 0.034883720930224626
        },
        {
          "name": "F#4",
          "midi": 66,
          "time": 72.6162790697611,
          "velocity": 0.3228346456692913,
          "duration": 0.034883720930224626
        },
        {
          "name": "D5",
          "midi": 74,
          "time": 72.6162790697611,
          "velocity": 0.4409448818897638,
          "duration": 0.034883720930224626
        },
        {
          "name": "G6",
          "midi": 91,
          "time": 72.6162790697611,
          "velocity": 0.28346456692913385,
          "duration": 0.279069767441797
        },
        {
          "name": "C#7",
          "midi": 97,
          "time": 72.6162790697611,
          "velocity": 0.15748031496062992,
          "duration": 0.04651162790696617
        },
        {
          "name": "F7",
          "midi": 101,
          "time": 72.6162790697611,
          "velocity": 0.2755905511811024,
          "duration": 0.31395348837202164
        },
        {
          "name": "A5",
          "midi": 81,
          "time": 72.62790697673785,
          "velocity": 0.2440944881889764,
          "duration": 0.09302325581393234
        },
        {
          "name": "C7",
          "midi": 96,
          "time": 72.62790697673785,
          "velocity": 0.16535433070866143,
          "duration": 0.09302325581393234
        },
        {
          "name": "E7",
          "midi": 100,
          "time": 72.62790697673785,
          "velocity": 0.25196850393700787,
          "duration": 0.06976744186044925
        },
        {
          "name": "C5",
          "midi": 72,
          "time": 72.63953488371459,
          "velocity": 0.2440944881889764,
          "duration": 0.023255813953483084
        },
        {
          "name": "F5",
          "midi": 77,
          "time": 72.63953488371459,
          "velocity": 0.3937007874015748,
          "duration": 0.43023255813943706
        },
        {
          "name": "B5",
          "midi": 83,
          "time": 72.63953488371459,
          "velocity": 0.4015748031496063,
          "duration": 0.2558139534883139
        },
        {
          "name": "D#5",
          "midi": 75,
          "time": 72.65116279069133,
          "velocity": 0.29133858267716534,
          "duration": 0.04651162790696617
        },
        {
          "name": "G3",
          "midi": 55,
          "time": 72.66279069766807,
          "velocity": 0.3937007874015748,
          "duration": 0.04651162790696617
        },
        {
          "name": "D#4",
          "midi": 63,
          "time": 72.66279069766807,
          "velocity": 0.2283464566929134,
          "duration": 0.05813953488370771
        },
        {
          "name": "C#6",
          "midi": 85,
          "time": 72.66279069766807,
          "velocity": 0.1732283464566929,
          "duration": 0.034883720930224626
        },
        {
          "name": "A6",
          "midi": 93,
          "time": 72.66279069766807,
          "velocity": 0.30708661417322836,
          "duration": 0.23255813953483084
        },
        {
          "name": "G5",
          "midi": 79,
          "time": 72.67441860464481,
          "velocity": 0.4566929133858268,
          "duration": 0.20930232558134776
        },
        {
          "name": "D5",
          "midi": 74,
          "time": 72.68604651162156,
          "velocity": 0.3858267716535433,
          "duration": 0.20930232558134776
        },
        {
          "name": "D3",
          "midi": 50,
          "time": 72.6976744185983,
          "velocity": 0.28346456692913385,
          "duration": 0.05813953488370771
        },
        {
          "name": "B3",
          "midi": 59,
          "time": 72.6976744185983,
          "velocity": 0.2677165354330709,
          "duration": 0.023255813953483084
        },
        {
          "name": "G#4",
          "midi": 68,
          "time": 72.70930232557504,
          "velocity": 0.23622047244094488,
          "duration": 0.034883720930224626
        },
        {
          "name": "C#7",
          "midi": 97,
          "time": 72.72093023255178,
          "velocity": 0.1889763779527559,
          "duration": 0.04651162790696617
        },
        {
          "name": "D#4",
          "midi": 63,
          "time": 72.73255813952852,
          "velocity": 0.2125984251968504,
          "duration": 0.034883720930224626
        },
        {
          "name": "F#7",
          "midi": 102,
          "time": 72.73255813952852,
          "velocity": 0.2204724409448819,
          "duration": 0.23255813953483084
        },
        {
          "name": "G3",
          "midi": 55,
          "time": 72.74418604650526,
          "velocity": 0.4566929133858268,
          "duration": 0.1395348837208985
        },
        {
          "name": "D#7",
          "midi": 99,
          "time": 72.74418604650526,
          "velocity": 0.1732283464566929,
          "duration": 0.04651162790696617
        },
        {
          "name": "D3",
          "midi": 50,
          "time": 72.76744186045875,
          "velocity": 0.25196850393700787,
          "duration": 0.04651162790696617
        },
        {
          "name": "C#7",
          "midi": 97,
          "time": 72.80232558138897,
          "velocity": 0.2125984251968504,
          "duration": 0.0813953488371908
        },
        {
          "name": "A#5",
          "midi": 82,
          "time": 72.8372093023192,
          "velocity": 0.13385826771653545,
          "duration": 0.034883720930224626
        },
        {
          "name": "E7",
          "midi": 100,
          "time": 72.8372093023192,
          "velocity": 0.23622047244094488,
          "duration": 0.11627906976741542
        },
        {
          "name": "D3",
          "midi": 50,
          "time": 72.84883720929594,
          "velocity": 0.2992125984251969,
          "duration": 0.20930232558134776
        },
        {
          "name": "F4",
          "midi": 65,
          "time": 72.86046511627268,
          "velocity": 0.1732283464566929,
          "duration": 0.05813953488370771
        },
        {
          "name": "G#6",
          "midi": 92,
          "time": 72.87209302324942,
          "velocity": 0.29133858267716534,
          "duration": 0.10465116279067388
        },
        {
          "name": "G#3",
          "midi": 56,
          "time": 72.88372093022616,
          "velocity": 0.4251968503937008,
          "duration": 0.12790697674415696
        },
        {
          "name": "D#5",
          "midi": 75,
          "time": 72.88372093022616,
          "velocity": 0.30708661417322836,
          "duration": 0.1627906976743816
        },
        {
          "name": "F#6",
          "midi": 90,
          "time": 72.88372093022616,
          "velocity": 0.13385826771653545,
          "duration": 0.09302325581393234
        },
        {
          "name": "A#6",
          "midi": 94,
          "time": 72.88372093022616,
          "velocity": 0.29133858267716534,
          "duration": 0.09302325581393234
        },
        {
          "name": "D#7",
          "midi": 99,
          "time": 72.88372093022616,
          "velocity": 0.11811023622047244,
          "duration": 0.06976744186044925
        },
        {
          "name": "C6",
          "midi": 84,
          "time": 72.8953488372029,
          "velocity": 0.10236220472440945,
          "duration": 0.04651162790696617
        },
        {
          "name": "C7",
          "midi": 96,
          "time": 72.8953488372029,
          "velocity": 0.16535433070866143,
          "duration": 0.06976744186044925
        },
        {
          "name": "D7",
          "midi": 98,
          "time": 72.91860465115639,
          "velocity": 0.12598425196850394,
          "duration": 0.04651162790696617
        },
        {
          "name": "F4",
          "midi": 65,
          "time": 72.95348837208661,
          "velocity": 0.14173228346456693,
          "duration": 0.05813953488370771
        },
        {
          "name": "D#4",
          "midi": 63,
          "time": 72.98837209301684,
          "velocity": 0.1968503937007874,
          "duration": 0.04651162790696617
        },
        {
          "name": "A4",
          "midi": 69,
          "time": 72.98837209301684,
          "velocity": 0.1732283464566929,
          "duration": 0.034883720930224626
        },
        {
          "name": "A#5",
          "midi": 82,
          "time": 73.02325581394706,
          "velocity": 0.11811023622047244,
          "duration": 0.06976744186044925
        },
        {
          "name": "A4",
          "midi": 69,
          "time": 73.0348837209238,
          "velocity": 0.3543307086614173,
          "duration": 0.04651162790696617
        },
        {
          "name": "C#5",
          "midi": 73,
          "time": 73.0348837209238,
          "velocity": 0.4251968503937008,
          "duration": 0.06976744186044925
        },
        {
          "name": "G#3",
          "midi": 56,
          "time": 73.04651162790054,
          "velocity": 0.5039370078740157,
          "duration": 0.023255813953483084
        },
        {
          "name": "G4",
          "midi": 67,
          "time": 73.05813953487728,
          "velocity": 0.3779527559055118,
          "duration": 0.023255813953483084
        },
        {
          "name": "F#1",
          "midi": 30,
          "time": 73.06976744185403,
          "velocity": 0.6220472440944882,
          "duration": 0.011627906976741542
        },
        {
          "name": "G3",
          "midi": 55,
          "time": 73.06976744185403,
          "velocity": 0.4881889763779528,
          "duration": 0.023255813953483084
        },
        {
          "name": "F#5",
          "midi": 78,
          "time": 73.06976744185403,
          "velocity": 0.2440944881889764,
          "duration": 0.034883720930224626
        },
        {
          "name": "A#6",
          "midi": 94,
          "time": 73.06976744185403,
          "velocity": 0.28346456692913385,
          "duration": 0.04651162790696617
        },
        {
          "name": "B6",
          "midi": 95,
          "time": 73.06976744185403,
          "velocity": 0.2677165354330709,
          "duration": 0.15116279069764005
        },
        {
          "name": "C7",
          "midi": 96,
          "time": 73.06976744185403,
          "velocity": 0.2440944881889764,
          "duration": 0.0813953488371908
        },
        {
          "name": "F#4",
          "midi": 66,
          "time": 73.08139534883077,
          "velocity": 0.25196850393700787,
          "duration": 0.023255813953483084
        },
        {
          "name": "F5",
          "midi": 77,
          "time": 73.08139534883077,
          "velocity": 0.3464566929133858,
          "duration": 0.06976744186044925
        },
        {
          "name": "G6",
          "midi": 91,
          "time": 73.08139534883077,
          "velocity": 0.33070866141732286,
          "duration": 0.15116279069764005
        },
        {
          "name": "A6",
          "midi": 93,
          "time": 73.08139534883077,
          "velocity": 0.3228346456692913,
          "duration": 0.17441860465112313
        },
        {
          "name": "C#7",
          "midi": 97,
          "time": 73.08139534883077,
          "velocity": 0.13385826771653545,
          "duration": 0.04651162790696617
        },
        {
          "name": "D5",
          "midi": 74,
          "time": 73.09302325580751,
          "velocity": 0.28346456692913385,
          "duration": 0.034883720930224626
        },
        {
          "name": "A5",
          "midi": 81,
          "time": 73.09302325580751,
          "velocity": 0.23622047244094488,
          "duration": 0.05813953488370771
        },
        {
          "name": "E7",
          "midi": 100,
          "time": 73.09302325580751,
          "velocity": 0.1732283464566929,
          "duration": 0.06976744186044925
        },
        {
          "name": "F7",
          "midi": 101,
          "time": 73.09302325580751,
          "velocity": 0.18110236220472442,
          "duration": 0.04651162790696617
        },
        {
          "name": "F#1",
          "midi": 30,
          "time": 73.10465116278425,
          "velocity": 0.5590551181102362,
          "duration": 0.011627906976741542
        },
        {
          "name": "F4",
          "midi": 65,
          "time": 73.10465116278425,
          "velocity": 0.23622047244094488,
          "duration": 0.034883720930224626
        },
        {
          "name": "C5",
          "midi": 72,
          "time": 73.10465116278425,
          "velocity": 0.4409448818897638,
          "duration": 0.04651162790696617
        },
        {
          "name": "G5",
          "midi": 79,
          "time": 73.10465116278425,
          "velocity": 0.3779527559055118,
          "duration": 0.45348837209293436
        },
        {
          "name": "F#7",
          "midi": 102,
          "time": 73.10465116278425,
          "velocity": 0.11023622047244094,
          "duration": 0.0813953488371908
        },
        {
          "name": "D#1",
          "midi": 27,
          "time": 73.11627906976099,
          "velocity": 0.6771653543307087,
          "duration": 0.011627906976741542
        },
        {
          "name": "D1",
          "midi": 26,
          "time": 73.12790697673773,
          "velocity": 0.7086614173228346,
          "duration": 0.011627906976741542
        },
        {
          "name": "G4",
          "midi": 67,
          "time": 73.12790697673773,
          "velocity": 0.36220472440944884,
          "duration": 0.0813953488371908
        },
        {
          "name": "A#6",
          "midi": 94,
          "time": 73.12790697673773,
          "velocity": 0.14173228346456693,
          "duration": 0.06976744186044925
        },
        {
          "name": "C1",
          "midi": 24,
          "time": 73.13953488371448,
          "velocity": 0.7244094488188977,
          "duration": 0.011627906976741542
        },
        {
          "name": "D5",
          "midi": 74,
          "time": 73.13953488371448,
          "velocity": 0.4409448818897638,
          "duration": 0.05813953488370771
        },
        {
          "name": "B5",
          "midi": 83,
          "time": 73.13953488371448,
          "velocity": 0.12598425196850394,
          "duration": 0.04651162790696617
        },
        {
          "name": "B0",
          "midi": 23,
          "time": 73.15116279069122,
          "velocity": 0.7401574803149606,
          "duration": 0.023255813953483084
        },
        {
          "name": "G#3",
          "midi": 56,
          "time": 73.15116279069122,
          "velocity": 0.4094488188976378,
          "duration": 0.023255813953483084
        },
        {
          "name": "C1",
          "midi": 24,
          "time": 73.1744186046447,
          "velocity": 0.7480314960629921,
          "duration": 1.2325581395346603
        },
        {
          "name": "G3",
          "midi": 55,
          "time": 73.18604651162144,
          "velocity": 0.4330708661417323,
          "duration": 0.023255813953483084
        },
        {
          "name": "C5",
          "midi": 72,
          "time": 73.18604651162144,
          "velocity": 0.2677165354330709,
          "duration": 0.06976744186044925
        },
        {
          "name": "F6",
          "midi": 89,
          "time": 73.18604651162144,
          "velocity": 0.11023622047244094,
          "duration": 0.034883720930224626
        },
        {
          "name": "E7",
          "midi": 100,
          "time": 73.18604651162144,
          "velocity": 0.14960629921259844,
          "duration": 0.034883720930224626
        },
        {
          "name": "G2",
          "midi": 43,
          "time": 73.19767441859818,
          "velocity": 0.31496062992125984,
          "duration": 0.023255813953483084
        },
        {
          "name": "F4",
          "midi": 65,
          "time": 73.19767441859818,
          "velocity": 0.4094488188976378,
          "duration": 0.05813953488370771
        },
        {
          "name": "D5",
          "midi": 74,
          "time": 73.20930232557492,
          "velocity": 0.16535433070866143,
          "duration": 0.06976744186044925
        },
        {
          "name": "G#4",
          "midi": 68,
          "time": 73.22093023255167,
          "velocity": 0.14960629921259844,
          "duration": 0.04651162790696617
        },
        {
          "name": "F3",
          "midi": 53,
          "time": 73.23255813952841,
          "velocity": 0.4330708661417323,
          "duration": 0.034883720930224626
        },
        {
          "name": "E4",
          "midi": 64,
          "time": 73.25581395348189,
          "velocity": 0.2755905511811024,
          "duration": 0.023255813953483084
        },
        {
          "name": "D#3",
          "midi": 51,
          "time": 73.27906976743537,
          "velocity": 0.3779527559055118,
          "duration": 0.023255813953483084
        },
        {
          "name": "G#3",
          "midi": 56,
          "time": 73.29069767441212,
          "velocity": 0.3464566929133858,
          "duration": 0.034883720930224626
        },
        {
          "name": "G4",
          "midi": 67,
          "time": 73.3139534883656,
          "velocity": 0.23622047244094488,
          "duration": 0.023255813953483084
        },
        {
          "name": "G#3",
          "midi": 56,
          "time": 73.33720930231908,
          "velocity": 0.3937007874015748,
          "duration": 0.023255813953483084
        },
        {
          "name": "F5",
          "midi": 77,
          "time": 73.33720930231908,
          "velocity": 0.1889763779527559,
          "duration": 0.13953488372091272
        },
        {
          "name": "G2",
          "midi": 43,
          "time": 73.34883720929582,
          "velocity": 0.2677165354330709,
          "duration": 0.023255813953483084
        },
        {
          "name": "D#5",
          "midi": 75,
          "time": 73.34883720929582,
          "velocity": 0.2204724409448819,
          "duration": 0.15116279069765426
        },
        {
          "name": "E3",
          "midi": 52,
          "time": 73.3720930232493,
          "velocity": 0.4330708661417323,
          "duration": 0.023255813953483084
        },
        {
          "name": "D#4",
          "midi": 63,
          "time": 73.38372093022605,
          "velocity": 0.4251968503937008,
          "duration": 0.19767441860462043
        },
        {
          "name": "A#4",
          "midi": 70,
          "time": 73.38372093022605,
          "velocity": 0.4645669291338583,
          "duration": 0.3837209302324851
        },
        {
          "name": "D#3",
          "midi": 51,
          "time": 73.39534883720279,
          "velocity": 0.49606299212598426,
          "duration": 0.19767441860462043
        },
        {
          "name": "G#3",
          "midi": 56,
          "time": 73.43023255813303,
          "velocity": 0.36220472440944884,
          "duration": 0.023255813953483084
        },
        {
          "name": "G4",
          "midi": 67,
          "time": 73.46511627906325,
          "velocity": 0.2677165354330709,
          "duration": 0.023255813953483084
        },
        {
          "name": "G#3",
          "midi": 56,
          "time": 73.47674418604,
          "velocity": 0.3464566929133858,
          "duration": 0.023255813953483084
        },
        {
          "name": "G2",
          "midi": 43,
          "time": 73.48837209301674,
          "velocity": 0.3228346456692913,
          "duration": 0.023255813953483084
        },
        {
          "name": "G#6",
          "midi": 92,
          "time": 73.48837209301674,
          "velocity": 0.18110236220472442,
          "duration": 0.04651162790696617
        },
        {
          "name": "G4",
          "midi": 67,
          "time": 73.49999999999348,
          "velocity": 0.2283464566929134,
          "duration": 0.04651162790696617
        },
        {
          "name": "D5",
          "midi": 74,
          "time": 73.49999999999348,
          "velocity": 0.4251968503937008,
          "duration": 0.23255813953483084
        },
        {
          "name": "F5",
          "midi": 77,
          "time": 73.51162790697022,
          "velocity": 0.3700787401574803,
          "duration": 0.2558139534883139
        },
        {
          "name": "A6",
          "midi": 93,
          "time": 73.5348837209237,
          "velocity": 0.1889763779527559,
          "duration": 0.10465116279067388
        },
        {
          "name": "G#6",
          "midi": 92,
          "time": 73.54651162790044,
          "velocity": 0.16535433070866143,
          "duration": 0.04651162790696617
        },
        {
          "name": "F4",
          "midi": 65,
          "time": 73.55813953487718,
          "velocity": 0.33858267716535434,
          "duration": 0.19767441860460622
        },
        {
          "name": "G#5",
          "midi": 80,
          "time": 73.55813953487718,
          "velocity": 0.1889763779527559,
          "duration": 0.05813953488370771
        },
        {
          "name": "G#3",
          "midi": 56,
          "time": 73.58139534883067,
          "velocity": 0.4330708661417323,
          "duration": 0.0813953488371908
        },
        {
          "name": "D4",
          "midi": 62,
          "time": 73.58139534883067,
          "velocity": 0.2204724409448819,
          "duration": 0.10465116279067388
        },
        {
          "name": "D#6",
          "midi": 87,
          "time": 73.62790697673763,
          "velocity": 0.18110236220472442,
          "duration": 0.3023255813952801
        },
        {
          "name": "G#3",
          "midi": 56,
          "time": 73.6744186046446,
          "velocity": 0.3543307086614173,
          "duration": 0.034883720930224626
        },
        {
          "name": "G2",
          "midi": 43,
          "time": 73.68604651162134,
          "velocity": 0.2677165354330709,
          "duration": 0.023255813953483084
        },
        {
          "name": "G5",
          "midi": 79,
          "time": 73.69767441859808,
          "velocity": 0.2677165354330709,
          "duration": 0.12790697674415696
        },
        {
          "name": "E3",
          "midi": 52,
          "time": 73.74418604650505,
          "velocity": 0.2677165354330709,
          "duration": 0.023255813953483084
        },
        {
          "name": "G#3",
          "midi": 56,
          "time": 73.74418604650505,
          "velocity": 0.25984251968503935,
          "duration": 0.023255813953483084
        },
        {
          "name": "D#5",
          "midi": 75,
          "time": 73.74418604650505,
          "velocity": 0.18110236220472442,
          "duration": 0.09302325581393234
        },
        {
          "name": "E4",
          "midi": 64,
          "time": 73.75581395348179,
          "velocity": 0.3464566929133858,
          "duration": 0.023255813953483084
        },
        {
          "name": "A4",
          "midi": 69,
          "time": 73.75581395348179,
          "velocity": 0.15748031496062992,
          "duration": 0.034883720930224626
        },
        {
          "name": "C5",
          "midi": 72,
          "time": 73.75581395348179,
          "velocity": 0.1732283464566929,
          "duration": 0.05813953488370771
        },
        {
          "name": "F3",
          "midi": 53,
          "time": 73.76744186045853,
          "velocity": 0.30708661417322836,
          "duration": 0.023255813953483084
        },
        {
          "name": "A#3",
          "midi": 58,
          "time": 73.77906976743527,
          "velocity": 0.2125984251968504,
          "duration": 0.034883720930224626
        },
        {
          "name": "D#4",
          "midi": 63,
          "time": 73.77906976743527,
          "velocity": 0.31496062992125984,
          "duration": 0.023255813953483084
        },
        {
          "name": "G4",
          "midi": 67,
          "time": 73.77906976743527,
          "velocity": 0.25196850393700787,
          "duration": 0.023255813953483084
        },
        {
          "name": "D4",
          "midi": 62,
          "time": 73.80232558138876,
          "velocity": 0.3228346456692913,
          "duration": 0.04651162790696617
        },
        {
          "name": "G#4",
          "midi": 68,
          "time": 73.80232558138876,
          "velocity": 0.30708661417322836,
          "duration": 0.023255813953483084
        },
        {
          "name": "G#3",
          "midi": 56,
          "time": 73.83720930231898,
          "velocity": 0.33858267716535434,
          "duration": 0.034883720930224626
        },
        {
          "name": "D#4",
          "midi": 63,
          "time": 73.84883720929572,
          "velocity": 0.18110236220472442,
          "duration": 0.034883720930224626
        },
        {
          "name": "A3",
          "midi": 57,
          "time": 73.8720930232492,
          "velocity": 0.23622047244094488,
          "duration": 0.023255813953483084
        },
        {
          "name": "A#4",
          "midi": 70,
          "time": 73.8720930232492,
          "velocity": 0.25984251968503935,
          "duration": 0.10465116279067388
        },
        {
          "name": "D4",
          "midi": 62,
          "time": 73.88372093022595,
          "velocity": 0.2047244094488189,
          "duration": 0.11627906976741542
        },
        {
          "name": "D#5",
          "midi": 75,
          "time": 73.88372093022595,
          "velocity": 0.25984251968503935,
          "duration": 0.09302325581393234
        },
        {
          "name": "G5",
          "midi": 79,
          "time": 73.88372093022595,
          "velocity": 0.11023622047244094,
          "duration": 0.05813953488370771
        },
        {
          "name": "G#4",
          "midi": 68,
          "time": 73.89534883720269,
          "velocity": 0.07874015748031496,
          "duration": 0.034883720930224626
        },
        {
          "name": "G#3",
          "midi": 56,
          "time": 73.91860465115617,
          "velocity": 0.33070866141732286,
          "duration": 0.034883720930224626
        },
        {
          "name": "A5",
          "midi": 81,
          "time": 73.91860465115617,
          "velocity": 0.25984251968503935,
          "duration": 0.034883720930224626
        },
        {
          "name": "F4",
          "midi": 65,
          "time": 73.93023255813291,
          "velocity": 0.11023622047244094,
          "duration": 0.034883720930224626
        },
        {
          "name": "F5",
          "midi": 77,
          "time": 73.93023255813291,
          "velocity": 0.28346456692913385,
          "duration": 0.10465116279067388
        },
        {
          "name": "E6",
          "midi": 88,
          "time": 73.93023255813291,
          "velocity": 0.2992125984251969,
          "duration": 0.034883720930224626
        },
        {
          "name": "G#2",
          "midi": 44,
          "time": 73.94186046510966,
          "velocity": 0.29133858267716534,
          "duration": 0.023255813953483084
        },
        {
          "name": "F#5",
          "midi": 78,
          "time": 73.94186046510966,
          "velocity": 0.2440944881889764,
          "duration": 0.023255813953483084
        },
        {
          "name": "C6",
          "midi": 84,
          "time": 73.94186046510966,
          "velocity": 0.30708661417322836,
          "duration": 0.09302325581393234
        },
        {
          "name": "D6",
          "midi": 86,
          "time": 73.94186046510966,
          "velocity": 0.2283464566929134,
          "duration": 0.034883720930224626
        },
        {
          "name": "F#6",
          "midi": 90,
          "time": 73.94186046510966,
          "velocity": 0.2440944881889764,
          "duration": 0.023255813953483084
        },
        {
          "name": "A#5",
          "midi": 82,
          "time": 73.9534883720864,
          "velocity": 0.29133858267716534,
          "duration": 0.034883720930224626
        },
        {
          "name": "G#4",
          "midi": 68,
          "time": 73.96511627906314,
          "velocity": 0.11023622047244094,
          "duration": 0.034883720930224626
        },
        {
          "name": "G5",
          "midi": 79,
          "time": 73.96511627906314,
          "velocity": 0.33858267716535434,
          "duration": 0.11627906976741542
        },
        {
          "name": "A5",
          "midi": 81,
          "time": 73.96511627906314,
          "velocity": 0.3779527559055118,
          "duration": 0.06976744186044925
        },
        {
          "name": "D#6",
          "midi": 87,
          "time": 73.96511627906314,
          "velocity": 0.2992125984251969,
          "duration": 0.0813953488371908
        },
        {
          "name": "F6",
          "midi": 89,
          "time": 73.96511627906314,
          "velocity": 0.4094488188976378,
          "duration": 0.19767441860462043
        },
        {
          "name": "G6",
          "midi": 91,
          "time": 73.96511627906314,
          "velocity": 0.3779527559055118,
          "duration": 0.372093023255772
        },
        {
          "name": "G2",
          "midi": 43,
          "time": 73.97674418603988,
          "velocity": 0.2755905511811024,
          "duration": 0.023255813953483084
        },
        {
          "name": "C5",
          "midi": 72,
          "time": 73.97674418603988,
          "velocity": 0.33070866141732286,
          "duration": 0.04651162790696617
        },
        {
          "name": "G#3",
          "midi": 56,
          "time": 73.98837209301662,
          "velocity": 0.3543307086614173,
          "duration": 0.023255813953483084
        },
        {
          "name": "F3",
          "midi": 53,
          "time": 74.02325581394685,
          "velocity": 0.31496062992125984,
          "duration": 0.023255813953483084
        },
        {
          "name": "G#4",
          "midi": 68,
          "time": 74.02325581394685,
          "velocity": 0.2204724409448819,
          "duration": 0.04651162790696617
        },
        {
          "name": "B5",
          "midi": 83,
          "time": 74.02325581394685,
          "velocity": 0.29133858267716534,
          "duration": 0.04651162790696617
        },
        {
          "name": "D6",
          "midi": 86,
          "time": 74.02325581394685,
          "velocity": 0.1889763779527559,
          "duration": 0.04651162790696617
        },
        {
          "name": "F#7",
          "midi": 102,
          "time": 74.02325581394685,
          "velocity": 0.11811023622047244,
          "duration": 0.034883720930224626
        },
        {
          "name": "B4",
          "midi": 71,
          "time": 74.03488372092359,
          "velocity": 0.14960629921259844,
          "duration": 0.0813953488371908
        },
        {
          "name": "D5",
          "midi": 74,
          "time": 74.03488372092359,
          "velocity": 0.3937007874015748,
          "duration": 0.04651162790696617
        },
        {
          "name": "G3",
          "midi": 55,
          "time": 74.04651162790033,
          "velocity": 0.4881889763779528,
          "duration": 0.4651162790697043
        },
        {
          "name": "D#4",
          "midi": 63,
          "time": 74.04651162790033,
          "velocity": 0.2125984251968504,
          "duration": 0.034883720930224626
        },
        {
          "name": "G#2",
          "midi": 44,
          "time": 74.05813953487707,
          "velocity": 0.31496062992125984,
          "duration": 0.023255813953483084
        },
        {
          "name": "B5",
          "midi": 83,
          "time": 74.08139534883055,
          "velocity": 0.29133858267716534,
          "duration": 0.2906976744185812
        },
        {
          "name": "D#4",
          "midi": 63,
          "time": 74.0930232558073,
          "velocity": 0.2125984251968504,
          "duration": 0.05813953488372192
        },
        {
          "name": "D5",
          "midi": 74,
          "time": 74.0930232558073,
          "velocity": 0.4566929133858268,
          "duration": 0.25581395348835656
        },
        {
          "name": "F#7",
          "midi": 102,
          "time": 74.10465116278404,
          "velocity": 0.16535433070866143,
          "duration": 0.16279069767441
        },
        {
          "name": "A6",
          "midi": 93,
          "time": 74.11627906976078,
          "velocity": 0.15748031496062992,
          "duration": 0.13953488372092693
        },
        {
          "name": "D#4",
          "midi": 63,
          "time": 74.16279069766776,
          "velocity": 0.2440944881889764,
          "duration": 0.16279069767441
        },
        {
          "name": "E6",
          "midi": 88,
          "time": 74.16279069766776,
          "velocity": 0.4251968503937008,
          "duration": 0.023255813953483084
        },
        {
          "name": "F6",
          "midi": 89,
          "time": 74.18604651162124,
          "velocity": 0.33070866141732286,
          "duration": 0.3023255813953085
        },
        {
          "name": "A#4",
          "midi": 70,
          "time": 74.32558139534217,
          "velocity": 0.16535433070866143,
          "duration": 0.034883720930224626
        },
        {
          "name": "D#4",
          "midi": 63,
          "time": 74.34883720929565,
          "velocity": 0.2440944881889764,
          "duration": 0.3255813953487632
        },
        {
          "name": "D5",
          "midi": 74,
          "time": 74.3604651162724,
          "velocity": 0.33858267716535434,
          "duration": 0.15116279069764005
        },
        {
          "name": "G6",
          "midi": 91,
          "time": 74.3604651162724,
          "velocity": 0.4566929133858268,
          "duration": 0.1627906976743816
        },
        {
          "name": "A#4",
          "midi": 70,
          "time": 74.38372093022588,
          "velocity": 0.1732283464566929,
          "duration": 0.04651162790696617
        },
        {
          "name": "B5",
          "midi": 83,
          "time": 74.39534883720262,
          "velocity": 0.2047244094488189,
          "duration": 0.11627906976741542
        },
        {
          "name": "C#1",
          "midi": 25,
          "time": 74.40697674417936,
          "velocity": 0.7244094488188977,
          "duration": 0.011627906976741542
        },
        {
          "name": "A6",
          "midi": 93,
          "time": 74.40697674417936,
          "velocity": 0.1889763779527559,
          "duration": 0.09302325581393234
        },
        {
          "name": "F#7",
          "midi": 102,
          "time": 74.40697674417936,
          "velocity": 0.07874015748031496,
          "duration": 0.034883720930224626
        },
        {
          "name": "B0",
          "midi": 23,
          "time": 74.4186046511561,
          "velocity": 0.6377952755905512,
          "duration": 0.011627906976741542
        },
        {
          "name": "A0",
          "midi": 21,
          "time": 74.43023255813284,
          "velocity": 0.5511811023622047,
          "duration": 0.011627906976741542
        },
        {
          "name": "F5",
          "midi": 77,
          "time": 74.43023255813284,
          "velocity": 0.10236220472440945,
          "duration": 0.04651162790696617
        },
        {
          "name": "D#6",
          "midi": 87,
          "time": 74.44186046510958,
          "velocity": 0.2440944881889764,
          "duration": 0.06976744186044925
        },
        {
          "name": "E7",
          "midi": 100,
          "time": 74.44186046510958,
          "velocity": 0.11023622047244094,
          "duration": 0.05813953488370771
        },
        {
          "name": "G5",
          "midi": 79,
          "time": 74.45348837208633,
          "velocity": 0.3858267716535433,
          "duration": 0.279069767441797
        },
        {
          "name": "C#6",
          "midi": 85,
          "time": 74.45348837208633,
          "velocity": 0.1968503937007874,
          "duration": 0.04651162790696617
        },
        {
          "name": "F#7",
          "midi": 102,
          "time": 74.46511627906307,
          "velocity": 0.11023622047244094,
          "duration": 0.034883720930224626
        },
        {
          "name": "F0",
          "midi": 17,
          "time": 74.47674418603981,
          "velocity": 0.2755905511811024,
          "duration": 0.023255813953483084
        },
        {
          "name": "F#4",
          "midi": 66,
          "time": 74.49999999999329,
          "velocity": 0.25984251968503935,
          "duration": 0.023255813953483084
        },
        {
          "name": "G#5",
          "midi": 80,
          "time": 74.49999999999329,
          "velocity": 0.12598425196850394,
          "duration": 0.04651162790696617
        },
        {
          "name": "F3",
          "midi": 53,
          "time": 74.52325581394678,
          "velocity": 0.33070866141732286,
          "duration": 0.04651162790696617
        },
        {
          "name": "F#4",
          "midi": 66,
          "time": 74.54651162790026,
          "velocity": 0.23622047244094488,
          "duration": 0.023255813953483084
        },
        {
          "name": "D5",
          "midi": 74,
          "time": 74.558139534877,
          "velocity": 0.3937007874015748,
          "duration": 0.11627906976741542
        },
        {
          "name": "F6",
          "midi": 89,
          "time": 74.558139534877,
          "velocity": 0.25196850393700787,
          "duration": 0.023255813953483084
        },
        {
          "name": "G#4",
          "midi": 68,
          "time": 74.56976744185374,
          "velocity": 0.2677165354330709,
          "duration": 0.023255813953483084
        },
        {
          "name": "G3",
          "midi": 55,
          "time": 74.58139534883048,
          "velocity": 0.4645669291338583,
          "duration": 0.12790697674415696
        },
        {
          "name": "E6",
          "midi": 88,
          "time": 74.61627906976071,
          "velocity": 0.25196850393700787,
          "duration": 0.023255813953483084
        },
        {
          "name": "B5",
          "midi": 83,
          "time": 74.62790697673745,
          "velocity": 0.33070866141732286,
          "duration": 0.0813953488371908
        },
        {
          "name": "F6",
          "midi": 89,
          "time": 74.63953488371419,
          "velocity": 0.44881889763779526,
          "duration": 0.05813953488370771
        },
        {
          "name": "A6",
          "midi": 93,
          "time": 74.63953488371419,
          "velocity": 0.16535433070866143,
          "duration": 0.10465116279067388
        },
        {
          "name": "F#7",
          "midi": 102,
          "time": 74.65116279069093,
          "velocity": 0.11811023622047244,
          "duration": 0.06976744186044925
        },
        {
          "name": "B4",
          "midi": 71,
          "time": 74.66279069766767,
          "velocity": 0.14173228346456693,
          "duration": 0.034883720930224626
        },
        {
          "name": "C#7",
          "midi": 97,
          "time": 74.66279069766767,
          "velocity": 0.11811023622047244,
          "duration": 0.05813953488370771
        },
        {
          "name": "E7",
          "midi": 100,
          "time": 74.66279069766767,
          "velocity": 0.11811023622047244,
          "duration": 0.05813953488370771
        },
        {
          "name": "D#5",
          "midi": 75,
          "time": 74.67441860464442,
          "velocity": 0.2992125984251969,
          "duration": 0.034883720930224626
        },
        {
          "name": "D5",
          "midi": 74,
          "time": 74.68604651162116,
          "velocity": 0.44881889763779526,
          "duration": 0.10465116279067388
        },
        {
          "name": "G#6",
          "midi": 92,
          "time": 74.68604651162116,
          "velocity": 0.2755905511811024,
          "duration": 0.06976744186044925
        },
        {
          "name": "A#4",
          "midi": 70,
          "time": 74.6976744185979,
          "velocity": 0.1968503937007874,
          "duration": 0.0813953488371908
        },
        {
          "name": "G#5",
          "midi": 80,
          "time": 74.6976744185979,
          "velocity": 0.30708661417322836,
          "duration": 0.05813953488370771
        },
        {
          "name": "C6",
          "midi": 84,
          "time": 74.6976744185979,
          "velocity": 0.1968503937007874,
          "duration": 0.034883720930224626
        },
        {
          "name": "F#6",
          "midi": 90,
          "time": 74.6976744185979,
          "velocity": 0.29133858267716534,
          "duration": 0.04651162790696617
        },
        {
          "name": "G#3",
          "midi": 56,
          "time": 74.70930232557464,
          "velocity": 0.47244094488188976,
          "duration": 0.0813953488371908
        },
        {
          "name": "D4",
          "midi": 62,
          "time": 74.70930232557464,
          "velocity": 0.2755905511811024,
          "duration": 0.34883720930224626
        },
        {
          "name": "F6",
          "midi": 89,
          "time": 74.70930232557464,
          "velocity": 0.14960629921259844,
          "duration": 0.05813953488370771
        },
        {
          "name": "G5",
          "midi": 79,
          "time": 74.74418604650486,
          "velocity": 0.2440944881889764,
          "duration": 0.09302325581393234
        },
        {
          "name": "G4",
          "midi": 67,
          "time": 74.81395348836531,
          "velocity": 0.2755905511811024,
          "duration": 0.034883720930224626
        },
        {
          "name": "A#4",
          "midi": 70,
          "time": 74.82558139534206,
          "velocity": 0.14173228346456693,
          "duration": 0.034883720930224626
        },
        {
          "name": "D5",
          "midi": 74,
          "time": 74.82558139534206,
          "velocity": 0.41732283464566927,
          "duration": 0.04651162790696617
        },
        {
          "name": "A5",
          "midi": 81,
          "time": 74.82558139534206,
          "velocity": 0.2047244094488189,
          "duration": 0.10465116279067388
        },
        {
          "name": "G3",
          "midi": 55,
          "time": 74.8372093023188,
          "velocity": 0.41732283464566927,
          "duration": 0.034883720930224626
        },
        {
          "name": "F#5",
          "midi": 78,
          "time": 74.8372093023188,
          "velocity": 0.25196850393700787,
          "duration": 0.05813953488370771
        },
        {
          "name": "A#5",
          "midi": 82,
          "time": 74.8372093023188,
          "velocity": 0.16535433070866143,
          "duration": 0.034883720930224626
        },
        {
          "name": "G#6",
          "midi": 92,
          "time": 74.8372093023188,
          "velocity": 0.25984251968503935,
          "duration": 0.034883720930224626
        },
        {
          "name": "A#6",
          "midi": 94,
          "time": 74.8372093023188,
          "velocity": 0.3228346456692913,
          "duration": 0.0813953488371908
        },
        {
          "name": "E7",
          "midi": 100,
          "time": 74.8372093023188,
          "velocity": 0.2755905511811024,
          "duration": 0.0813953488371908
        },
        {
          "name": "F7",
          "midi": 101,
          "time": 74.8372093023188,
          "velocity": 0.1968503937007874,
          "duration": 0.18604651162786467
        },
        {
          "name": "C6",
          "midi": 84,
          "time": 74.84883720929554,
          "velocity": 0.23622047244094488,
          "duration": 0.023255813953483084
        },
        {
          "name": "D#6",
          "midi": 87,
          "time": 74.84883720929554,
          "velocity": 0.2677165354330709,
          "duration": 0.0813953488371908
        },
        {
          "name": "E6",
          "midi": 88,
          "time": 74.84883720929554,
          "velocity": 0.13385826771653545,
          "duration": 0.034883720930224626
        },
        {
          "name": "F6",
          "midi": 89,
          "time": 74.84883720929554,
          "velocity": 0.08661417322834646,
          "duration": 0.05813953488370771
        },
        {
          "name": "C#7",
          "midi": 97,
          "time": 74.84883720929554,
          "velocity": 0.2440944881889764,
          "duration": 0.11627906976741542
        },
        {
          "name": "A6",
          "midi": 93,
          "time": 74.86046511627228,
          "velocity": 0.3700787401574803,
          "duration": 0.24418604651157239
        },
        {
          "name": "C7",
          "midi": 96,
          "time": 74.86046511627228,
          "velocity": 0.2677165354330709,
          "duration": 0.05813953488370771
        },
        {
          "name": "F5",
          "midi": 77,
          "time": 74.87209302324902,
          "velocity": 0.2440944881889764,
          "duration": 0.04651162790696617
        },
        {
          "name": "F3",
          "midi": 53,
          "time": 74.88372093022576,
          "velocity": 0.3700787401574803,
          "duration": 0.023255813953483084
        },
        {
          "name": "C5",
          "midi": 72,
          "time": 74.88372093022576,
          "velocity": 0.4251968503937008,
          "duration": 0.023255813953483084
        },
        {
          "name": "D5",
          "midi": 74,
          "time": 74.88372093022576,
          "velocity": 0.48031496062992124,
          "duration": 0.3488372093022889
        },
        {
          "name": "A#4",
          "midi": 70,
          "time": 74.8953488372025,
          "velocity": 0.2283464566929134,
          "duration": 0.0813953488371908
        },
        {
          "name": "G5",
          "midi": 79,
          "time": 74.8953488372025,
          "velocity": 0.31496062992125984,
          "duration": 0.33720930232554736
        },
        {
          "name": "B6",
          "midi": 95,
          "time": 74.8953488372025,
          "velocity": 0.3937007874015748,
          "duration": 0.11627906976741542
        },
        {
          "name": "F#7",
          "midi": 102,
          "time": 74.8953488372025,
          "velocity": 0.3228346456692913,
          "duration": 0.09302325581393234
        },
        {
          "name": "G4",
          "midi": 67,
          "time": 74.90697674417925,
          "velocity": 0.28346456692913385,
          "duration": 0.0813953488371908
        },
        {
          "name": "B5",
          "midi": 83,
          "time": 74.90697674417925,
          "velocity": 0.1968503937007874,
          "duration": 0.0813953488371908
        },
        {
          "name": "G3",
          "midi": 55,
          "time": 74.91860465115599,
          "velocity": 0.4251968503937008,
          "duration": 0.06976744186044925
        },
        {
          "name": "G7",
          "midi": 103,
          "time": 74.91860465115599,
          "velocity": 0.16535433070866143,
          "duration": 0.06976744186044925
        },
        {
          "name": "C7",
          "midi": 96,
          "time": 74.95348837208621,
          "velocity": 0.18110236220472442,
          "duration": 0.034883720930224626
        },
        {
          "name": "A#6",
          "midi": 94,
          "time": 74.96511627906295,
          "velocity": 0.23622047244094488,
          "duration": 0.1395348837208985
        },
        {
          "name": "F4",
          "midi": 65,
          "time": 74.98837209301644,
          "velocity": 0.2992125984251969,
          "duration": 0.11627906976741542
        },
        {
          "name": "A#4",
          "midi": 70,
          "time": 74.98837209301644,
          "velocity": 0.10236220472440945,
          "duration": 0.034883720930224626
        },
        {
          "name": "C5",
          "midi": 72,
          "time": 74.98837209301644,
          "velocity": 0.33070866141732286,
          "duration": 0.10465116279067388
        },
        {
          "name": "E7",
          "midi": 100,
          "time": 74.98837209301644,
          "velocity": 0.07874015748031496,
          "duration": 0.034883720930224626
        },
        {
          "name": "F3",
          "midi": 53,
          "time": 74.99999999999318,
          "velocity": 0.4409448818897638,
          "duration": 0.10465116279067388
        },
        {
          "name": "A5",
          "midi": 81,
          "time": 75.0348837209234,
          "velocity": 0.14173228346456693,
          "duration": 0.04651162790696617
        },
        {
          "name": "F#7",
          "midi": 102,
          "time": 75.0348837209234,
          "velocity": 0.10236220472440945,
          "duration": 0.034883720930224626
        },
        {
          "name": "C7",
          "midi": 96,
          "time": 75.04651162790014,
          "velocity": 0.09448818897637795,
          "duration": 0.06976744186044925
        },
        {
          "name": "A#4",
          "midi": 70,
          "time": 75.09302325580711,
          "velocity": 0.29133858267716534,
          "duration": 0.23255813953487348
        },
        {
          "name": "D#4",
          "midi": 63,
          "time": 75.10465116278385,
          "velocity": 0.4330708661417323,
          "duration": 0.24418604651161502
        },
        {
          "name": "G#6",
          "midi": 92,
          "time": 75.10465116278385,
          "velocity": 0.08661417322834646,
          "duration": 0.04651162790698038
        },
        {
          "name": "D#3",
          "midi": 51,
          "time": 75.1162790697606,
          "velocity": 0.44881889763779526,
          "duration": 0.372093023255772
        },
        {
          "name": "A#6",
          "midi": 94,
          "time": 75.18604651162107,
          "velocity": 0.11023622047244094,
          "duration": 0.05813953488372192
        },
        {
          "name": "G4",
          "midi": 67,
          "time": 75.2441860465048,
          "velocity": 0.1889763779527559,
          "duration": 0.09302325581393234
        },
        {
          "name": "D5",
          "midi": 74,
          "time": 75.26744186045828,
          "velocity": 0.3937007874015748,
          "duration": 0.034883720930224626
        },
        {
          "name": "A5",
          "midi": 81,
          "time": 75.26744186045828,
          "velocity": 0.13385826771653545,
          "duration": 0.034883720930224626
        },
        {
          "name": "F5",
          "midi": 77,
          "time": 75.27906976743502,
          "velocity": 0.14173228346456693,
          "duration": 0.034883720930224626
        },
        {
          "name": "G5",
          "midi": 79,
          "time": 75.27906976743502,
          "velocity": 0.33070866141732286,
          "duration": 0.11627906976741542
        },
        {
          "name": "A3",
          "midi": 57,
          "time": 75.29069767441176,
          "velocity": 0.1732283464566929,
          "duration": 0.05813953488370771
        },
        {
          "name": "C#5",
          "midi": 73,
          "time": 75.3023255813885,
          "velocity": 0.4330708661417323,
          "duration": 0.04651162790696617
        },
        {
          "name": "E5",
          "midi": 76,
          "time": 75.31395348836524,
          "velocity": 0.25196850393700787,
          "duration": 0.034883720930224626
        },
        {
          "name": "A5",
          "midi": 81,
          "time": 75.31395348836524,
          "velocity": 0.2677165354330709,
          "duration": 0.05813953488370771
        },
        {
          "name": "B5",
          "midi": 83,
          "time": 75.31395348836524,
          "velocity": 0.23622047244094488,
          "duration": 0.06976744186044925
        },
        {
          "name": "A#6",
          "midi": 94,
          "time": 75.33720930231873,
          "velocity": 0.12598425196850394,
          "duration": 0.04651162790696617
        },
        {
          "name": "G1",
          "midi": 31,
          "time": 75.34883720929547,
          "velocity": 0.7637795275590551,
          "duration": 0.034883720930224626
        },
        {
          "name": "A#3",
          "midi": 58,
          "time": 75.34883720929547,
          "velocity": 0.28346456692913385,
          "duration": 0.023255813953483084
        },
        {
          "name": "E4",
          "midi": 64,
          "time": 75.34883720929547,
          "velocity": 0.31496062992125984,
          "duration": 0.023255813953483084
        },
        {
          "name": "A#4",
          "midi": 70,
          "time": 75.34883720929547,
          "velocity": 0.3779527559055118,
          "duration": 0.15116279069764005
        },
        {
          "name": "D5",
          "midi": 74,
          "time": 75.34883720929547,
          "velocity": 0.4251968503937008,
          "duration": 0.1395348837208985
        },
        {
          "name": "F5",
          "midi": 77,
          "time": 75.34883720929547,
          "velocity": 0.3543307086614173,
          "duration": 0.1395348837208985
        },
        {
          "name": "F#4",
          "midi": 66,
          "time": 75.36046511627221,
          "velocity": 0.25196850393700787,
          "duration": 0.023255813953483084
        },
        {
          "name": "C6",
          "midi": 84,
          "time": 75.36046511627221,
          "velocity": 0.2992125984251969,
          "duration": 0.06976744186044925
        },
        {
          "name": "F#7",
          "midi": 102,
          "time": 75.36046511627221,
          "velocity": 0.12598425196850394,
          "duration": 0.04651162790696617
        },
        {
          "name": "D4",
          "midi": 62,
          "time": 75.37209302324895,
          "velocity": 0.2992125984251969,
          "duration": 0.023255813953483084
        },
        {
          "name": "D7",
          "midi": 98,
          "time": 75.37209302324895,
          "velocity": 0.11023622047244094,
          "duration": 0.034883720930224626
        },
        {
          "name": "G#1",
          "midi": 32,
          "time": 75.38372093022569,
          "velocity": 0.7637795275590551,
          "duration": 0.5930232558138187
        },
        {
          "name": "A5",
          "midi": 81,
          "time": 75.38372093022569,
          "velocity": 0.2047244094488189,
          "duration": 0.034883720930224626
        },
        {
          "name": "D4",
          "midi": 62,
          "time": 75.43023255813266,
          "velocity": 0.3700787401574803,
          "duration": 0.023255813953483084
        },
        {
          "name": "B5",
          "midi": 83,
          "time": 75.43023255813266,
          "velocity": 0.2283464566929134,
          "duration": 0.023255813953483084
        },
        {
          "name": "F4",
          "midi": 65,
          "time": 75.4418604651094,
          "velocity": 0.3464566929133858,
          "duration": 0.05813953488370771
        },
        {
          "name": "C4",
          "midi": 60,
          "time": 75.45348837208614,
          "velocity": 0.23622047244094488,
          "duration": 0.09302325581393234
        },
        {
          "name": "G5",
          "midi": 79,
          "time": 75.47674418603962,
          "velocity": 0.16535433070866143,
          "duration": 0.17441860465112313
        },
        {
          "name": "C#5",
          "midi": 73,
          "time": 75.48837209301637,
          "velocity": 0.2047244094488189,
          "duration": 0.034883720930224626
        },
        {
          "name": "D#3",
          "midi": 51,
          "time": 75.49999999999311,
          "velocity": 0.29133858267716534,
          "duration": 0.05813953488370771
        },
        {
          "name": "E4",
          "midi": 64,
          "time": 75.49999999999311,
          "velocity": 0.28346456692913385,
          "duration": 0.023255813953483084
        },
        {
          "name": "D5",
          "midi": 74,
          "time": 75.52325581394659,
          "velocity": 0.28346456692913385,
          "duration": 0.15116279069764005
        },
        {
          "name": "D4",
          "midi": 62,
          "time": 75.53488372092333,
          "velocity": 0.3543307086614173,
          "duration": 0.04651162790696617
        },
        {
          "name": "F#4",
          "midi": 66,
          "time": 75.53488372092333,
          "velocity": 0.1732283464566929,
          "duration": 0.034883720930224626
        },
        {
          "name": "G#3",
          "midi": 56,
          "time": 75.56976744185356,
          "velocity": 0.3228346456692913,
          "duration": 0.023255813953483084
        },
        {
          "name": "A#4",
          "midi": 70,
          "time": 75.56976744185356,
          "velocity": 0.3228346456692913,
          "duration": 0.10465116279067388
        },
        {
          "name": "F5",
          "midi": 77,
          "time": 75.56976744185356,
          "velocity": 0.25984251968503935,
          "duration": 0.1627906976743816
        },
        {
          "name": "F#4",
          "midi": 66,
          "time": 75.5813953488303,
          "velocity": 0.1732283464566929,
          "duration": 0.034883720930224626
        },
        {
          "name": "D#3",
          "midi": 51,
          "time": 75.59302325580704,
          "velocity": 0.30708661417322836,
          "duration": 0.15116279069764005
        },
        {
          "name": "D#4",
          "midi": 63,
          "time": 75.61627906976052,
          "velocity": 0.3700787401574803,
          "duration": 0.034883720930224626
        },
        {
          "name": "A#3",
          "midi": 58,
          "time": 75.62790697673726,
          "velocity": 0.2992125984251969,
          "duration": 0.023255813953483084
        },
        {
          "name": "F#4",
          "midi": 66,
          "time": 75.62790697673726,
          "velocity": 0.1968503937007874,
          "duration": 0.06976744186044925
        },
        {
          "name": "A3",
          "midi": 57,
          "time": 75.65116279069075,
          "velocity": 0.33858267716535434,
          "duration": 0.023255813953483084
        },
        {
          "name": "D#4",
          "midi": 63,
          "time": 75.66279069766749,
          "velocity": 0.31496062992125984,
          "duration": 0.04651162790696617
        },
        {
          "name": "G5",
          "midi": 79,
          "time": 75.66279069766749,
          "velocity": 0.25196850393700787,
          "duration": 0.034883720930224626
        },
        {
          "name": "F6",
          "midi": 89,
          "time": 75.67441860464423,
          "velocity": 0.29133858267716534,
          "duration": 0.11627906976741542
        },
        {
          "name": "F#6",
          "midi": 90,
          "time": 75.67441860464423,
          "velocity": 0.23622047244094488,
          "duration": 0.0813953488371908
        },
        {
          "name": "C4",
          "midi": 60,
          "time": 75.68604651162097,
          "velocity": 0.2283464566929134,
          "duration": 0.034883720930224626
        },
        {
          "name": "G#5",
          "midi": 80,
          "time": 75.68604651162097,
          "velocity": 0.3464566929133858,
          "duration": 0.023255813953483084
        },
        {
          "name": "B5",
          "midi": 83,
          "time": 75.68604651162097,
          "velocity": 0.2204724409448819,
          "duration": 0.04651162790696617
        },
        {
          "name": "C#6",
          "midi": 85,
          "time": 75.68604651162097,
          "velocity": 0.2125984251968504,
          "duration": 0.05813953488370771
        },
        {
          "name": "D#6",
          "midi": 87,
          "time": 75.68604651162097,
          "velocity": 0.16535433070866143,
          "duration": 0.06976744186044925
        },
        {
          "name": "A#4",
          "midi": 70,
          "time": 75.69767441859771,
          "velocity": 0.2992125984251969,
          "duration": 0.0813953488371908
        },
        {
          "name": "A5",
          "midi": 81,
          "time": 75.69767441859771,
          "velocity": 0.29133858267716534,
          "duration": 0.04651162790696617
        },
        {
          "name": "E6",
          "midi": 88,
          "time": 75.69767441859771,
          "velocity": 0.1968503937007874,
          "duration": 0.1395348837208985
        },
        {
          "name": "D#7",
          "midi": 99,
          "time": 75.69767441859771,
          "velocity": 0.23622047244094488,
          "duration": 0.17441860465112313
        },
        {
          "name": "D5",
          "midi": 74,
          "time": 75.70930232557446,
          "velocity": 0.28346456692913385,
          "duration": 0.05813953488370771
        },
        {
          "name": "G5",
          "midi": 79,
          "time": 75.70930232557446,
          "velocity": 0.4015748031496063,
          "duration": 0.023255813953483084
        },
        {
          "name": "C6",
          "midi": 84,
          "time": 75.70930232557446,
          "velocity": 0.25984251968503935,
          "duration": 0.06976744186044925
        },
        {
          "name": "F#5",
          "midi": 78,
          "time": 75.7209302325512,
          "velocity": 0.2755905511811024,
          "duration": 0.04651162790696617
        },
        {
          "name": "C4",
          "midi": 60,
          "time": 75.73255813952794,
          "velocity": 0.2440944881889764,
          "duration": 0.023255813953483084
        },
        {
          "name": "E5",
          "midi": 76,
          "time": 75.73255813952794,
          "velocity": 0.2204724409448819,
          "duration": 0.034883720930224626
        },
        {
          "name": "A#5",
          "midi": 82,
          "time": 75.73255813952794,
          "velocity": 0.36220472440944884,
          "duration": 0.10465116279067388
        },
        {
          "name": "D7",
          "midi": 98,
          "time": 75.73255813952794,
          "velocity": 0.14173228346456693,
          "duration": 0.1395348837208985
        },
        {
          "name": "G4",
          "midi": 67,
          "time": 75.74418604650468,
          "velocity": 0.14960629921259844,
          "duration": 0.034883720930224626
        },
        {
          "name": "G#5",
          "midi": 80,
          "time": 75.74418604650468,
          "velocity": 0.28346456692913385,
          "duration": 0.04651162790696617
        },
        {
          "name": "G6",
          "midi": 91,
          "time": 75.74418604650468,
          "velocity": 0.41732283464566927,
          "duration": 0.1627906976743816
        },
        {
          "name": "G5",
          "midi": 79,
          "time": 75.75581395348142,
          "velocity": 0.2992125984251969,
          "duration": 0.023255813953483084
        },
        {
          "name": "C4",
          "midi": 60,
          "time": 75.76744186045816,
          "velocity": 0.1968503937007874,
          "duration": 0.034883720930224626
        },
        {
          "name": "F5",
          "midi": 77,
          "time": 75.76744186045816,
          "velocity": 0.30708661417322836,
          "duration": 0.023255813953483084
        },
        {
          "name": "C#6",
          "midi": 85,
          "time": 75.76744186045816,
          "velocity": 0.1732283464566929,
          "duration": 0.04651162790696617
        },
        {
          "name": "F#6",
          "midi": 90,
          "time": 75.76744186045816,
          "velocity": 0.2283464566929134,
          "duration": 0.04651162790696617
        },
        {
          "name": "A6",
          "midi": 93,
          "time": 75.76744186045816,
          "velocity": 0.25196850393700787,
          "duration": 0.12790697674415696
        },
        {
          "name": "C#5",
          "midi": 73,
          "time": 75.7790697674349,
          "velocity": 0.29133858267716534,
          "duration": 0.034883720930224626
        },
        {
          "name": "F#5",
          "midi": 78,
          "time": 75.7790697674349,
          "velocity": 0.3779527559055118,
          "duration": 0.04651162790696617
        },
        {
          "name": "B5",
          "midi": 83,
          "time": 75.7790697674349,
          "velocity": 0.23622047244094488,
          "duration": 0.11627906976741542
        },
        {
          "name": "F#3",
          "midi": 54,
          "time": 75.79069767441165,
          "velocity": 0.28346456692913385,
          "duration": 0.023255813953483084
        },
        {
          "name": "D4",
          "midi": 62,
          "time": 75.80232558138839,
          "velocity": 0.25196850393700787,
          "duration": 0.034883720930224626
        },
        {
          "name": "E5",
          "midi": 76,
          "time": 75.80232558138839,
          "velocity": 0.2283464566929134,
          "duration": 0.034883720930224626
        },
        {
          "name": "F6",
          "midi": 89,
          "time": 75.80232558138839,
          "velocity": 0.28346456692913385,
          "duration": 0.12790697674415696
        },
        {
          "name": "F3",
          "midi": 53,
          "time": 75.81395348836513,
          "velocity": 0.3779527559055118,
          "duration": 0.023255813953483084
        },
        {
          "name": "A#4",
          "midi": 70,
          "time": 75.81395348836513,
          "velocity": 0.14173228346456693,
          "duration": 0.034883720930224626
        },
        {
          "name": "D5",
          "midi": 74,
          "time": 75.81395348836513,
          "velocity": 0.4409448818897638,
          "duration": 0.12790697674415696
        },
        {
          "name": "G#5",
          "midi": 80,
          "time": 75.81395348836513,
          "velocity": 0.10236220472440945,
          "duration": 0.034883720930224626
        },
        {
          "name": "G#4",
          "midi": 68,
          "time": 75.82558139534187,
          "velocity": 0.2677165354330709,
          "duration": 0.034883720930224626
        },
        {
          "name": "G5",
          "midi": 79,
          "time": 75.82558139534187,
          "velocity": 0.30708661417322836,
          "duration": 0.11627906976741542
        },
        {
          "name": "F#7",
          "midi": 102,
          "time": 75.82558139534187,
          "velocity": 0.1968503937007874,
          "duration": 0.04651162790696617
        },
        {
          "name": "D#6",
          "midi": 87,
          "time": 75.83720930231861,
          "velocity": 0.11811023622047244,
          "duration": 0.034883720930224626
        },
        {
          "name": "G3",
          "midi": 55,
          "time": 75.84883720929535,
          "velocity": 0.4566929133858268,
          "duration": 0.0813953488371908
        },
        {
          "name": "D4",
          "midi": 62,
          "time": 75.8604651162721,
          "velocity": 0.30708661417322836,
          "duration": 0.034883720930224626
        },
        {
          "name": "A5",
          "midi": 81,
          "time": 75.8604651162721,
          "velocity": 0.10236220472440945,
          "duration": 0.034883720930224626
        },
        {
          "name": "A#5",
          "midi": 82,
          "time": 75.88372093022558,
          "velocity": 0.2440944881889764,
          "duration": 0.18604651162786467
        },
        {
          "name": "C4",
          "midi": 60,
          "time": 75.89534883720232,
          "velocity": 0.15748031496062992,
          "duration": 0.034883720930224626
        },
        {
          "name": "F#4",
          "midi": 66,
          "time": 75.9186046511558,
          "velocity": 0.2204724409448819,
          "duration": 0.034883720930224626
        },
        {
          "name": "D#5",
          "midi": 75,
          "time": 75.9186046511558,
          "velocity": 0.4881889763779528,
          "duration": 0.10465116279067388
        },
        {
          "name": "F5",
          "midi": 77,
          "time": 75.9186046511558,
          "velocity": 0.07874015748031496,
          "duration": 0.04651162790696617
        },
        {
          "name": "D#3",
          "midi": 51,
          "time": 75.94186046510929,
          "velocity": 0.30708661417322836,
          "duration": 0.034883720930224626
        },
        {
          "name": "A5",
          "midi": 81,
          "time": 75.94186046510929,
          "velocity": 0.07874015748031496,
          "duration": 0.034883720930224626
        },
        {
          "name": "F4",
          "midi": 65,
          "time": 75.95348837208603,
          "velocity": 0.1732283464566929,
          "duration": 0.034883720930224626
        },
        {
          "name": "G1",
          "midi": 31,
          "time": 75.97674418603951,
          "velocity": 0.7165354330708661,
          "duration": 0.011627906976741542
        },
        {
          "name": "G#5",
          "midi": 80,
          "time": 75.97674418603951,
          "velocity": 0.2755905511811024,
          "duration": 0.034883720930224626
        },
        {
          "name": "C6",
          "midi": 84,
          "time": 75.97674418603951,
          "velocity": 0.2283464566929134,
          "duration": 0.09302325581393234
        },
        {
          "name": "F#6",
          "midi": 90,
          "time": 75.97674418603951,
          "velocity": 0.3779527559055118,
          "duration": 0.0813953488371908
        },
        {
          "name": "G#6",
          "midi": 92,
          "time": 75.97674418603951,
          "velocity": 0.3700787401574803,
          "duration": 0.09302325581393234
        },
        {
          "name": "E7",
          "midi": 100,
          "time": 75.97674418603951,
          "velocity": 0.29133858267716534,
          "duration": 0.10465116279067388
        },
        {
          "name": "F#1",
          "midi": 30,
          "time": 75.98837209301625,
          "velocity": 0.5984251968503937,
          "duration": 0.011627906976741542
        },
        {
          "name": "G#4",
          "midi": 68,
          "time": 75.98837209301625,
          "velocity": 0.3543307086614173,
          "duration": 0.15116279069764005
        },
        {
          "name": "E6",
          "midi": 88,
          "time": 75.98837209301625,
          "velocity": 0.09448818897637795,
          "duration": 0.034883720930224626
        },
        {
          "name": "G6",
          "midi": 91,
          "time": 75.98837209301625,
          "velocity": 0.36220472440944884,
          "duration": 0.09302325581393234
        },
        {
          "name": "C#7",
          "midi": 97,
          "time": 75.98837209301625,
          "velocity": 0.07874015748031496,
          "duration": 0.034883720930224626
        },
        {
          "name": "F7",
          "midi": 101,
          "time": 75.98837209301625,
          "velocity": 0.13385826771653545,
          "duration": 0.034883720930224626
        },
        {
          "name": "G#3",
          "midi": 56,
          "time": 75.999999999993,
          "velocity": 0.31496062992125984,
          "duration": 0.023255813953483084
        },
        {
          "name": "A#3",
          "midi": 58,
          "time": 76.01162790696974,
          "velocity": 0.30708661417322836,
          "duration": 0.023255813953483084
        },
        {
          "name": "G5",
          "midi": 79,
          "time": 76.01162790696974,
          "velocity": 0.33858267716535434,
          "duration": 0.06976744186044925
        },
        {
          "name": "B5",
          "midi": 83,
          "time": 76.01162790696974,
          "velocity": 0.2283464566929134,
          "duration": 0.06976744186044925
        },
        {
          "name": "A6",
          "midi": 93,
          "time": 76.01162790696974,
          "velocity": 0.31496062992125984,
          "duration": 0.0813953488371908
        },
        {
          "name": "F#1",
          "midi": 30,
          "time": 76.02325581394648,
          "velocity": 0.6692913385826772,
          "duration": 0.011627906976741542
        },
        {
          "name": "D5",
          "midi": 74,
          "time": 76.02325581394648,
          "velocity": 0.3858267716535433,
          "duration": 0.06976744186044925
        },
        {
          "name": "F6",
          "midi": 89,
          "time": 76.02325581394648,
          "velocity": 0.15748031496062992,
          "duration": 0.06976744186044925
        },
        {
          "name": "G1",
          "midi": 31,
          "time": 76.03488372092322,
          "velocity": 0.7716535433070866,
          "duration": 0.616279069767316
        },
        {
          "name": "F5",
          "midi": 77,
          "time": 76.03488372092322,
          "velocity": 0.3543307086614173,
          "duration": 0.6860465116277652
        },
        {
          "name": "F7",
          "midi": 101,
          "time": 76.03488372092322,
          "velocity": 0.23622047244094488,
          "duration": 0.04651162790696617
        },
        {
          "name": "G#3",
          "midi": 56,
          "time": 76.04651162789996,
          "velocity": 0.3543307086614173,
          "duration": 0.023255813953483084
        },
        {
          "name": "E4",
          "midi": 64,
          "time": 76.04651162789996,
          "velocity": 0.2755905511811024,
          "duration": 0.023255813953483084
        },
        {
          "name": "D#4",
          "midi": 63,
          "time": 76.06976744185344,
          "velocity": 0.33070866141732286,
          "duration": 0.09302325581393234
        },
        {
          "name": "A#5",
          "midi": 82,
          "time": 76.08139534883018,
          "velocity": 0.2047244094488189,
          "duration": 0.034883720930224626
        },
        {
          "name": "G3",
          "midi": 55,
          "time": 76.09302325580693,
          "velocity": 0.4330708661417323,
          "duration": 0.023255813953483084
        },
        {
          "name": "G#3",
          "midi": 56,
          "time": 76.11627906976041,
          "velocity": 0.3858267716535433,
          "duration": 0.04651162790696617
        },
        {
          "name": "C#5",
          "midi": 73,
          "time": 76.12790697673715,
          "velocity": 0.08661417322834646,
          "duration": 0.034883720930224626
        },
        {
          "name": "A4",
          "midi": 69,
          "time": 76.13953488371389,
          "velocity": 0.1968503937007874,
          "duration": 0.034883720930224626
        },
        {
          "name": "G#5",
          "midi": 80,
          "time": 76.13953488371389,
          "velocity": 0.11023622047244094,
          "duration": 0.04651162790696617
        },
        {
          "name": "A#5",
          "midi": 82,
          "time": 76.13953488371389,
          "velocity": 0.14960629921259844,
          "duration": 0.05813953488370771
        },
        {
          "name": "G3",
          "midi": 55,
          "time": 76.16279069766738,
          "velocity": 0.36220472440944884,
          "duration": 0.023255813953483084
        },
        {
          "name": "A#6",
          "midi": 94,
          "time": 76.16279069766738,
          "velocity": 0.28346456692913385,
          "duration": 0.05813953488370771
        },
        {
          "name": "C7",
          "midi": 96,
          "time": 76.16279069766738,
          "velocity": 0.16535433070866143,
          "duration": 0.05813953488370771
        },
        {
          "name": "D#7",
          "midi": 99,
          "time": 76.16279069766738,
          "velocity": 0.2204724409448819,
          "duration": 0.05813953488370771
        },
        {
          "name": "A6",
          "midi": 93,
          "time": 76.17441860464412,
          "velocity": 0.3858267716535433,
          "duration": 0.05813953488370771
        },
        {
          "name": "D7",
          "midi": 98,
          "time": 76.17441860464412,
          "velocity": 0.14960629921259844,
          "duration": 0.05813953488370771
        },
        {
          "name": "D5",
          "midi": 74,
          "time": 76.18604651162086,
          "velocity": 0.3700787401574803,
          "duration": 0.0813953488371908
        },
        {
          "name": "G6",
          "midi": 91,
          "time": 76.18604651162086,
          "velocity": 0.3543307086614173,
          "duration": 0.23255813953483084
        },
        {
          "name": "B6",
          "midi": 95,
          "time": 76.18604651162086,
          "velocity": 0.18110236220472442,
          "duration": 0.04651162790696617
        },
        {
          "name": "B5",
          "midi": 83,
          "time": 76.1976744185976,
          "velocity": 0.16535433070866143,
          "duration": 0.0813953488371908
        },
        {
          "name": "G3",
          "midi": 55,
          "time": 76.20930232557434,
          "velocity": 0.5196850393700787,
          "duration": 0.05813953488370771
        },
        {
          "name": "D#4",
          "midi": 63,
          "time": 76.22093023255108,
          "velocity": 0.25984251968503935,
          "duration": 0.023255813953483084
        },
        {
          "name": "D#6",
          "midi": 87,
          "time": 76.24418604650457,
          "velocity": 0.13385826771653545,
          "duration": 0.04651162790696617
        },
        {
          "name": "G#3",
          "midi": 56,
          "time": 76.26744186045805,
          "velocity": 0.4015748031496063,
          "duration": 0.023255813953483084
        },
        {
          "name": "D#4",
          "midi": 63,
          "time": 76.27906976743479,
          "velocity": 0.23622047244094488,
          "duration": 0.04651162790696617
        },
        {
          "name": "F#6",
          "midi": 90,
          "time": 76.27906976743479,
          "velocity": 0.07874015748031496,
          "duration": 0.04651162790696617
        },
        {
          "name": "D#5",
          "midi": 75,
          "time": 76.29069767441153,
          "velocity": 0.2440944881889764,
          "duration": 0.04651162790696617
        },
        {
          "name": "G4",
          "midi": 67,
          "time": 76.30232558138827,
          "velocity": 0.3937007874015748,
          "duration": 0.11627906976741542
        },
        {
          "name": "A#5",
          "midi": 82,
          "time": 76.30232558138827,
          "velocity": 0.1732283464566929,
          "duration": 0.034883720930224626
        },
        {
          "name": "A6",
          "midi": 93,
          "time": 76.31395348836502,
          "velocity": 0.33858267716535434,
          "duration": 0.18604651162786467
        },
        {
          "name": "G3",
          "midi": 55,
          "time": 76.32558139534176,
          "velocity": 0.4094488188976378,
          "duration": 0.04651162790696617
        },
        {
          "name": "D5",
          "midi": 74,
          "time": 76.32558139534176,
          "velocity": 0.4015748031496063,
          "duration": 0.10465116279067388
        },
        {
          "name": "B6",
          "midi": 95,
          "time": 76.32558139534176,
          "velocity": 0.13385826771653545,
          "duration": 0.0813953488371908
        },
        {
          "name": "D#7",
          "midi": 99,
          "time": 76.32558139534176,
          "velocity": 0.12598425196850394,
          "duration": 0.06976744186044925
        },
        {
          "name": "B5",
          "midi": 83,
          "time": 76.3372093023185,
          "velocity": 0.1968503937007874,
          "duration": 0.04651162790696617
        },
        {
          "name": "G#6",
          "midi": 92,
          "time": 76.3372093023185,
          "velocity": 0.1889763779527559,
          "duration": 0.11627906976741542
        },
        {
          "name": "D3",
          "midi": 50,
          "time": 76.36046511627198,
          "velocity": 0.29133858267716534,
          "duration": 0.11627906976741542
        },
        {
          "name": "A#5",
          "midi": 82,
          "time": 76.37209302324872,
          "velocity": 0.1732283464566929,
          "duration": 0.034883720930224626
        },
        {
          "name": "G#3",
          "midi": 56,
          "time": 76.40697674417895,
          "velocity": 0.3858267716535433,
          "duration": 0.0813953488371908
        },
        {
          "name": "G#5",
          "midi": 80,
          "time": 76.40697674417895,
          "velocity": 0.18110236220472442,
          "duration": 0.05813953488370771
        },
        {
          "name": "D#4",
          "midi": 63,
          "time": 76.41860465115569,
          "velocity": 0.18110236220472442,
          "duration": 0.04651162790696617
        },
        {
          "name": "D#5",
          "midi": 75,
          "time": 76.41860465115569,
          "velocity": 0.31496062992125984,
          "duration": 0.19767441860462043
        },
        {
          "name": "A#6",
          "midi": 94,
          "time": 76.41860465115569,
          "velocity": 0.25984251968503935,
          "duration": 0.0813953488371908
        },
        {
          "name": "C5",
          "midi": 72,
          "time": 76.43023255813243,
          "velocity": 0.11023622047244094,
          "duration": 0.034883720930224626
        },
        {
          "name": "E7",
          "midi": 100,
          "time": 76.43023255813243,
          "velocity": 0.11023622047244094,
          "duration": 0.04651162790696617
        },
        {
          "name": "A#5",
          "midi": 82,
          "time": 76.44186046510917,
          "velocity": 0.08661417322834646,
          "duration": 0.034883720930224626
        },
        {
          "name": "G6",
          "midi": 91,
          "time": 76.45348837208591,
          "velocity": 0.13385826771653545,
          "duration": 0.06976744186044925
        },
        {
          "name": "B6",
          "midi": 95,
          "time": 76.45348837208591,
          "velocity": 0.14173228346456693,
          "duration": 0.05813953488370771
        },
        {
          "name": "C7",
          "midi": 96,
          "time": 76.45348837208591,
          "velocity": 0.14960629921259844,
          "duration": 0.04651162790696617
        },
        {
          "name": "D7",
          "midi": 98,
          "time": 76.45348837208591,
          "velocity": 0.23622047244094488,
          "duration": 0.0813953488371908
        },
        {
          "name": "G4",
          "midi": 67,
          "time": 76.4767441860394,
          "velocity": 0.30708661417322836,
          "duration": 0.05813953488370771
        },
        {
          "name": "D5",
          "midi": 74,
          "time": 76.4767441860394,
          "velocity": 0.2283464566929134,
          "duration": 0.04651162790696617
        },
        {
          "name": "D#7",
          "midi": 99,
          "time": 76.4767441860394,
          "velocity": 0.13385826771653545,
          "duration": 0.04651162790696617
        },
        {
          "name": "G3",
          "midi": 55,
          "time": 76.48837209301614,
          "velocity": 0.44881889763779526,
          "duration": 0.023255813953483084
        },
        {
          "name": "C#7",
          "midi": 97,
          "time": 76.48837209301614,
          "velocity": 0.25196850393700787,
          "duration": 0.04651162790696617
        },
        {
          "name": "E7",
          "midi": 100,
          "time": 76.48837209301614,
          "velocity": 0.2440944881889764,
          "duration": 0.034883720930224626
        },
        {
          "name": "D3",
          "midi": 50,
          "time": 76.51162790696962,
          "velocity": 0.29133858267716534,
          "duration": 0.081395348837205
        },
        {
          "name": "G#3",
          "midi": 56,
          "time": 76.51162790696962,
          "velocity": 0.4330708661417323,
          "duration": 0.09302325581394655
        },
        {
          "name": "D#4",
          "midi": 63,
          "time": 76.5348837209231,
          "velocity": 0.2755905511811024,
          "duration": 0.06976744186046346
        },
        {
          "name": "A4",
          "midi": 69,
          "time": 76.5348837209231,
          "velocity": 0.15748031496062992,
          "duration": 0.05813953488372192
        },
        {
          "name": "A#5",
          "midi": 82,
          "time": 76.54651162789985,
          "velocity": 0.14173228346456693,
          "duration": 0.081395348837205
        },
        {
          "name": "F#7",
          "midi": 102,
          "time": 76.55813953487659,
          "velocity": 0.11811023622047244,
          "duration": 0.03488372093023884
        },
        {
          "name": "G4",
          "midi": 67,
          "time": 76.59302325580683,
          "velocity": 0.36220472440944884,
          "duration": 0.023255813953483084
        },
        {
          "name": "D#7",
          "midi": 99,
          "time": 76.59302325580683,
          "velocity": 0.25984251968503935,
          "duration": 0.12790697674415696
        },
        {
          "name": "G3",
          "midi": 55,
          "time": 76.60465116278357,
          "velocity": 0.5196850393700787,
          "duration": 0.023255813953483084
        },
        {
          "name": "C#5",
          "midi": 73,
          "time": 76.60465116278357,
          "velocity": 0.3779527559055118,
          "duration": 0.04651162790696617
        },
        {
          "name": "G#5",
          "midi": 80,
          "time": 76.61627906976031,
          "velocity": 0.15748031496062992,
          "duration": 0.034883720930224626
        },
        {
          "name": "C6",
          "midi": 84,
          "time": 76.61627906976031,
          "velocity": 0.25196850393700787,
          "duration": 0.10465116279067388
        },
        {
          "name": "A#6",
          "midi": 94,
          "time": 76.61627906976031,
          "velocity": 0.2677165354330709,
          "duration": 0.06976744186044925
        },
        {
          "name": "C#7",
          "midi": 97,
          "time": 76.61627906976031,
          "velocity": 0.14960629921259844,
          "duration": 0.0813953488371908
        },
        {
          "name": "D7",
          "midi": 98,
          "time": 76.61627906976031,
          "velocity": 0.1732283464566929,
          "duration": 0.04651162790696617
        },
        {
          "name": "E7",
          "midi": 100,
          "time": 76.61627906976031,
          "velocity": 0.2204724409448819,
          "duration": 0.12790697674415696
        },
        {
          "name": "F4",
          "midi": 65,
          "time": 76.62790697673705,
          "velocity": 0.2755905511811024,
          "duration": 0.05813953488370771
        },
        {
          "name": "G7",
          "midi": 103,
          "time": 76.62790697673705,
          "velocity": 0.12598425196850394,
          "duration": 0.09302325581393234
        },
        {
          "name": "F3",
          "midi": 53,
          "time": 76.6395348837138,
          "velocity": 0.33858267716535434,
          "duration": 0.034883720930224626
        },
        {
          "name": "C5",
          "midi": 72,
          "time": 76.6395348837138,
          "velocity": 0.41732283464566927,
          "duration": 0.06976744186044925
        },
        {
          "name": "G6",
          "midi": 91,
          "time": 76.6395348837138,
          "velocity": 0.3228346456692913,
          "duration": 0.5116279069766279
        },
        {
          "name": "A6",
          "midi": 93,
          "time": 76.6395348837138,
          "velocity": 0.3779527559055118,
          "duration": 0.23255813953483084
        },
        {
          "name": "F7",
          "midi": 101,
          "time": 76.6395348837138,
          "velocity": 0.1889763779527559,
          "duration": 0.10465116279067388
        },
        {
          "name": "F#7",
          "midi": 102,
          "time": 76.6395348837138,
          "velocity": 0.2047244094488189,
          "duration": 0.06976744186044925
        },
        {
          "name": "F#1",
          "midi": 30,
          "time": 76.65116279069053,
          "velocity": 0.6535433070866141,
          "duration": 0.011627906976741542
        },
        {
          "name": "D5",
          "midi": 74,
          "time": 76.65116279069053,
          "velocity": 0.14960629921259844,
          "duration": 0.04651162790696617
        },
        {
          "name": "A5",
          "midi": 81,
          "time": 76.65116279069053,
          "velocity": 0.12598425196850394,
          "duration": 0.04651162790696617
        },
        {
          "name": "F1",
          "midi": 29,
          "time": 76.66279069766728,
          "velocity": 0.5118110236220472,
          "duration": 0.011627906976741542
        },
        {
          "name": "B6",
          "midi": 95,
          "time": 76.68604651162076,
          "velocity": 0.14960629921259844,
          "duration": 0.09302325581393234
        },
        {
          "name": "D#1",
          "midi": 27,
          "time": 76.6976744185975,
          "velocity": 0.7007874015748031,
          "duration": 0.023255813953483084
        },
        {
          "name": "G#4",
          "midi": 68,
          "time": 76.6976744185975,
          "velocity": 0.3228346456692913,
          "duration": 0.023255813953483084
        },
        {
          "name": "G5",
          "midi": 79,
          "time": 76.6976744185975,
          "velocity": 0.3779527559055118,
          "duration": 0.0813953488371908
        },
        {
          "name": "D6",
          "midi": 86,
          "time": 76.6976744185975,
          "velocity": 0.29133858267716534,
          "duration": 0.20930232558134776
        },
        {
          "name": "C#7",
          "midi": 97,
          "time": 76.70930232557424,
          "velocity": 0.15748031496062992,
          "duration": 0.05813953488370771
        },
        {
          "name": "C#1",
          "midi": 25,
          "time": 76.72093023255098,
          "velocity": 0.7244094488188977,
          "duration": 0.011627906976741542
        },
        {
          "name": "G#3",
          "midi": 56,
          "time": 76.72093023255098,
          "velocity": 0.41732283464566927,
          "duration": 0.034883720930224626
        },
        {
          "name": "D#4",
          "midi": 63,
          "time": 76.72093023255098,
          "velocity": 0.2047244094488189,
          "duration": 0.034883720930224626
        },
        {
          "name": "G4",
          "midi": 67,
          "time": 76.72093023255098,
          "velocity": 0.4645669291338583,
          "duration": 0.09302325581393234
        },
        {
          "name": "D5",
          "midi": 74,
          "time": 76.72093023255098,
          "velocity": 0.3937007874015748,
          "duration": 0.17441860465112313
        },
        {
          "name": "B5",
          "midi": 83,
          "time": 76.72093023255098,
          "velocity": 0.1968503937007874,
          "duration": 0.11627906976741542
        },
        {
          "name": "G#6",
          "midi": 92,
          "time": 76.72093023255098,
          "velocity": 0.10236220472440945,
          "duration": 0.04651162790696617
        },
        {
          "name": "B0",
          "midi": 23,
          "time": 76.73255813952773,
          "velocity": 0.7559055118110236,
          "duration": 0.023255813953483084
        },
        {
          "name": "F5",
          "midi": 77,
          "time": 76.73255813952773,
          "velocity": 0.12598425196850394,
          "duration": 0.09302325581393234
        },
        {
          "name": "C1",
          "midi": 24,
          "time": 76.75581395348121,
          "velocity": 0.7480314960629921,
          "duration": 1.232558139534632
        },
        {
          "name": "F3",
          "midi": 53,
          "time": 76.75581395348121,
          "velocity": 0.33858267716535434,
          "duration": 0.023255813953483084
        },
        {
          "name": "D4",
          "midi": 62,
          "time": 76.75581395348121,
          "velocity": 0.2204724409448819,
          "duration": 0.0813953488371908
        },
        {
          "name": "G3",
          "midi": 55,
          "time": 76.77906976743469,
          "velocity": 0.48031496062992124,
          "duration": 0.04651162790696617
        },
        {
          "name": "B4",
          "midi": 71,
          "time": 76.77906976743469,
          "velocity": 0.09448818897637795,
          "duration": 0.04651162790696617
        },
        {
          "name": "E6",
          "midi": 88,
          "time": 76.77906976743469,
          "velocity": 0.33070866141732286,
          "duration": 0.023255813953483084
        },
        {
          "name": "C7",
          "midi": 96,
          "time": 76.77906976743469,
          "velocity": 0.16535433070866143,
          "duration": 0.05813953488370771
        },
        {
          "name": "F6",
          "midi": 89,
          "time": 76.80232558138817,
          "velocity": 0.3858267716535433,
          "duration": 0.39534883720921243
        },
        {
          "name": "E6",
          "midi": 88,
          "time": 76.81395348836492,
          "velocity": 0.2677165354330709,
          "duration": 0.023255813953483084
        },
        {
          "name": "A#6",
          "midi": 94,
          "time": 76.81395348836492,
          "velocity": 0.1732283464566929,
          "duration": 0.10465116279067388
        },
        {
          "name": "G#4",
          "midi": 68,
          "time": 76.82558139534166,
          "velocity": 0.2677165354330709,
          "duration": 0.023255813953483084
        },
        {
          "name": "C5",
          "midi": 72,
          "time": 76.82558139534166,
          "velocity": 0.4409448818897638,
          "duration": 0.06976744186044925
        },
        {
          "name": "A5",
          "midi": 81,
          "time": 76.82558139534166,
          "velocity": 0.16535433070866143,
          "duration": 0.04651162790696617
        },
        {
          "name": "F3",
          "midi": 53,
          "time": 76.8372093023184,
          "velocity": 0.4251968503937008,
          "duration": 0.023255813953483084
        },
        {
          "name": "F5",
          "midi": 77,
          "time": 76.8372093023184,
          "velocity": 0.2992125984251969,
          "duration": 0.09302325581393234
        },
        {
          "name": "G4",
          "midi": 67,
          "time": 76.84883720929514,
          "velocity": 0.2440944881889764,
          "duration": 0.04651162790696617
        },
        {
          "name": "F3",
          "midi": 53,
          "time": 76.87209302324862,
          "velocity": 0.3937007874015748,
          "duration": 0.023255813953483084
        },
        {
          "name": "B4",
          "midi": 71,
          "time": 76.88372093022537,
          "velocity": 0.3858267716535433,
          "duration": 0.023255813953483084
        },
        {
          "name": "D#5",
          "midi": 75,
          "time": 76.8953488372021,
          "velocity": 0.3543307086614173,
          "duration": 0.2209302325580893
        },
        {
          "name": "D#3",
          "midi": 51,
          "time": 76.90697674417885,
          "velocity": 0.4566929133858268,
          "duration": 0.2558139534883139
        },
        {
          "name": "G#3",
          "midi": 56,
          "time": 76.90697674417885,
          "velocity": 0.3858267716535433,
          "duration": 0.04651162790696617
        },
        {
          "name": "A#4",
          "midi": 70,
          "time": 76.90697674417885,
          "velocity": 0.4330708661417323,
          "duration": 0.2558139534883139
        },
        {
          "name": "G#6",
          "midi": 92,
          "time": 76.90697674417885,
          "velocity": 0.10236220472440945,
          "duration": 0.11627906976741542
        },
        {
          "name": "C6",
          "midi": 84,
          "time": 76.91860465115559,
          "velocity": 0.11811023622047244,
          "duration": 0.034883720930224626
        },
        {
          "name": "F5",
          "midi": 77,
          "time": 76.94186046510907,
          "velocity": 0.2047244094488189,
          "duration": 0.09302325581393234
        },
        {
          "name": "G5",
          "midi": 79,
          "time": 76.95348837208581,
          "velocity": 0.28346456692913385,
          "duration": 0.1395348837208985
        },
        {
          "name": "C#6",
          "midi": 85,
          "time": 76.95348837208581,
          "velocity": 0.14173228346456693,
          "duration": 0.17441860465112313
        },
        {
          "name": "G#3",
          "midi": 56,
          "time": 76.96511627906256,
          "velocity": 0.3937007874015748,
          "duration": 0.06976744186044925
        },
        {
          "name": "B6",
          "midi": 95,
          "time": 76.96511627906256,
          "velocity": 0.13385826771653545,
          "duration": 0.04651162790696617
        },
        {
          "name": "C#7",
          "midi": 97,
          "time": 76.98837209301604,
          "velocity": 0.18110236220472442,
          "duration": 0.15116279069764005
        },
        {
          "name": "D7",
          "midi": 98,
          "time": 76.99999999999278,
          "velocity": 0.25196850393700787,
          "duration": 0.15116279069764005
        },
        {
          "name": "G#4",
          "midi": 68,
          "time": 77.034883720923,
          "velocity": 0.2440944881889764,
          "duration": 0.023255813953483084
        },
        {
          "name": "C#5",
          "midi": 73,
          "time": 77.04651162789975,
          "velocity": 0.2755905511811024,
          "duration": 0.034883720930224626
        },
        {
          "name": "G4",
          "midi": 67,
          "time": 77.05813953487649,
          "velocity": 0.29133858267716534,
          "duration": 0.06976744186044925
        },
        {
          "name": "G#3",
          "midi": 56,
          "time": 77.08139534882997,
          "velocity": 0.4330708661417323,
          "duration": 0.15116279069764005
        },
        {
          "name": "C5",
          "midi": 72,
          "time": 77.08139534882997,
          "velocity": 0.3858267716535433,
          "duration": 0.05813953488370771
        },
        {
          "name": "A6",
          "midi": 93,
          "time": 77.08139534882997,
          "velocity": 0.11023622047244094,
          "duration": 0.10465116279067388
        },
        {
          "name": "F#5",
          "midi": 78,
          "time": 77.09302325580671,
          "velocity": 0.30708661417322836,
          "duration": 0.0813953488371908
        },
        {
          "name": "E5",
          "midi": 76,
          "time": 77.10465116278345,
          "velocity": 0.2992125984251969,
          "duration": 0.05813953488370771
        },
        {
          "name": "F#7",
          "midi": 102,
          "time": 77.10465116278345,
          "velocity": 0.11023622047244094,
          "duration": 0.034883720930224626
        },
        {
          "name": "A5",
          "midi": 81,
          "time": 77.12790697673694,
          "velocity": 0.10236220472440945,
          "duration": 0.034883720930224626
        },
        {
          "name": "D6",
          "midi": 86,
          "time": 77.12790697673694,
          "velocity": 0.13385826771653545,
          "duration": 0.0813953488371908
        },
        {
          "name": "C#5",
          "midi": 73,
          "time": 77.13953488371368,
          "velocity": 0.3700787401574803,
          "duration": 0.034883720930224626
        },
        {
          "name": "G#2",
          "midi": 44,
          "time": 77.15116279069042,
          "velocity": 0.3543307086614173,
          "duration": 0.023255813953483084
        },
        {
          "name": "D#5",
          "midi": 75,
          "time": 77.16279069766716,
          "velocity": 0.2440944881889764,
          "duration": 0.023255813953483084
        },
        {
          "name": "F5",
          "midi": 77,
          "time": 77.16279069766716,
          "velocity": 0.3937007874015748,
          "duration": 0.05813953488370771
        },
        {
          "name": "D#4",
          "midi": 63,
          "time": 77.1744186046439,
          "velocity": 0.2283464566929134,
          "duration": 0.034883720930224626
        },
        {
          "name": "A#4",
          "midi": 70,
          "time": 77.1744186046439,
          "velocity": 0.3858267716535433,
          "duration": 0.11627906976742963
        },
        {
          "name": "G5",
          "midi": 79,
          "time": 77.1744186046439,
          "velocity": 0.2125984251968504,
          "duration": 0.18604651162787889
        },
        {
          "name": "D5",
          "midi": 74,
          "time": 77.18604651162065,
          "velocity": 0.3700787401574803,
          "duration": 0.09302325581394655
        },
        {
          "name": "F4",
          "midi": 65,
          "time": 77.20930232557413,
          "velocity": 0.3858267716535433,
          "duration": 0.11627906976742963
        },
        {
          "name": "D#6",
          "midi": 87,
          "time": 77.20930232557413,
          "velocity": 0.2283464566929134,
          "duration": 0.47674418604643165
        },
        {
          "name": "G2",
          "midi": 43,
          "time": 77.24418604650435,
          "velocity": 0.3464566929133858,
          "duration": 0.03488372093023884
        },
        {
          "name": "G#3",
          "midi": 56,
          "time": 77.24418604650435,
          "velocity": 0.4015748031496063,
          "duration": 0.03488372093023884
        },
        {
          "name": "A3",
          "midi": 57,
          "time": 77.29069767441133,
          "velocity": 0.3779527559055118,
          "duration": 0.023255813953483084
        },
        {
          "name": "C#5",
          "midi": 73,
          "time": 77.30232558138808,
          "velocity": 0.25984251968503935,
          "duration": 0.023255813953483084
        },
        {
          "name": "E4",
          "midi": 64,
          "time": 77.31395348836482,
          "velocity": 0.3543307086614173,
          "duration": 0.023255813953483084
        },
        {
          "name": "A4",
          "midi": 69,
          "time": 77.31395348836482,
          "velocity": 0.15748031496062992,
          "duration": 0.034883720930224626
        },
        {
          "name": "C5",
          "midi": 72,
          "time": 77.32558139534156,
          "velocity": 0.31496062992125984,
          "duration": 0.04651162790696617
        },
        {
          "name": "F5",
          "midi": 77,
          "time": 77.32558139534156,
          "velocity": 0.11811023622047244,
          "duration": 0.05813953488370771
        },
        {
          "name": "D#4",
          "midi": 63,
          "time": 77.3372093023183,
          "velocity": 0.30708661417322836,
          "duration": 0.034883720930224626
        },
        {
          "name": "A#4",
          "midi": 70,
          "time": 77.36046511627178,
          "velocity": 0.2677165354330709,
          "duration": 0.09302325581393234
        },
        {
          "name": "A3",
          "midi": 57,
          "time": 77.37209302324852,
          "velocity": 0.3464566929133858,
          "duration": 0.023255813953483084
        },
        {
          "name": "D4",
          "midi": 62,
          "time": 77.37209302324852,
          "velocity": 0.2283464566929134,
          "duration": 0.023255813953483084
        },
        {
          "name": "G6",
          "midi": 91,
          "time": 77.37209302324852,
          "velocity": 0.10236220472440945,
          "duration": 0.04651162790696617
        },
        {
          "name": "G5",
          "midi": 79,
          "time": 77.38372093022527,
          "velocity": 0.2283464566929134,
          "duration": 0.0813953488371908
        },
        {
          "name": "G#2",
          "midi": 44,
          "time": 77.39534883720201,
          "velocity": 0.3464566929133858,
          "duration": 0.023255813953483084
        },
        {
          "name": "G#3",
          "midi": 56,
          "time": 77.39534883720201,
          "velocity": 0.4251968503937008,
          "duration": 0.06976744186044925
        },
        {
          "name": "D4",
          "midi": 62,
          "time": 77.44186046510897,
          "velocity": 0.18110236220472442,
          "duration": 0.0813953488371908
        },
        {
          "name": "F6",
          "midi": 89,
          "time": 77.45348837208572,
          "velocity": 0.1968503937007874,
          "duration": 0.1395348837208985
        },
        {
          "name": "A#4",
          "midi": 70,
          "time": 77.46511627906246,
          "velocity": 0.18110236220472442,
          "duration": 0.04651162790696617
        },
        {
          "name": "F5",
          "midi": 77,
          "time": 77.46511627906246,
          "velocity": 0.08661417322834646,
          "duration": 0.034883720930224626
        },
        {
          "name": "G#3",
          "midi": 56,
          "time": 77.4767441860392,
          "velocity": 0.33070866141732286,
          "duration": 0.023255813953483084
        },
        {
          "name": "G5",
          "midi": 79,
          "time": 77.4767441860392,
          "velocity": 0.1889763779527559,
          "duration": 0.12790697674415696
        },
        {
          "name": "F#4",
          "midi": 66,
          "time": 77.48837209301594,
          "velocity": 0.15748031496062992,
          "duration": 0.034883720930224626
        },
        {
          "name": "C#5",
          "midi": 73,
          "time": 77.49999999999268,
          "velocity": 0.07874015748031496,
          "duration": 0.034883720930224626
        },
        {
          "name": "C#6",
          "midi": 85,
          "time": 77.51162790696942,
          "velocity": 0.09448818897637795,
          "duration": 0.04651162790696617
        },
        {
          "name": "D6",
          "midi": 86,
          "time": 77.51162790696942,
          "velocity": 0.25196850393700787,
          "duration": 0.04651162790696617
        },
        {
          "name": "F4",
          "midi": 65,
          "time": 77.52325581394616,
          "velocity": 0.16535433070866143,
          "duration": 0.034883720930224626
        },
        {
          "name": "G#4",
          "midi": 68,
          "time": 77.52325581394616,
          "velocity": 0.25984251968503935,
          "duration": 0.023255813953483084
        },
        {
          "name": "G2",
          "midi": 43,
          "time": 77.5348837209229,
          "velocity": 0.30708661417322836,
          "duration": 0.023255813953483084
        },
        {
          "name": "A#3",
          "midi": 58,
          "time": 77.5348837209229,
          "velocity": 0.28346456692913385,
          "duration": 0.023255813953483084
        },
        {
          "name": "F5",
          "midi": 77,
          "time": 77.5348837209229,
          "velocity": 0.1732283464566929,
          "duration": 0.034883720930224626
        },
        {
          "name": "D#7",
          "midi": 99,
          "time": 77.5348837209229,
          "velocity": 0.3464566929133858,
          "duration": 0.3023255813952943
        },
        {
          "name": "B4",
          "midi": 71,
          "time": 77.54651162789965,
          "velocity": 0.3700787401574803,
          "duration": 0.023255813953483084
        },
        {
          "name": "F#6",
          "midi": 90,
          "time": 77.54651162789965,
          "velocity": 0.1732283464566929,
          "duration": 0.04651162790696617
        },
        {
          "name": "D4",
          "midi": 62,
          "time": 77.55813953487639,
          "velocity": 0.31496062992125984,
          "duration": 0.05813953488370771
        },
        {
          "name": "F#4",
          "midi": 66,
          "time": 77.55813953487639,
          "velocity": 0.29133858267716534,
          "duration": 0.023255813953483084
        },
        {
          "name": "C#5",
          "midi": 73,
          "time": 77.55813953487639,
          "velocity": 0.2755905511811024,
          "duration": 0.034883720930224626
        },
        {
          "name": "A6",
          "midi": 93,
          "time": 77.55813953487639,
          "velocity": 0.28346456692913385,
          "duration": 0.06976744186044925
        },
        {
          "name": "G3",
          "midi": 55,
          "time": 77.56976744185313,
          "velocity": 0.3779527559055118,
          "duration": 0.023255813953483084
        },
        {
          "name": "B6",
          "midi": 95,
          "time": 77.56976744185313,
          "velocity": 0.14960629921259844,
          "duration": 0.05813953488370771
        },
        {
          "name": "C#7",
          "midi": 97,
          "time": 77.56976744185313,
          "velocity": 0.1732283464566929,
          "duration": 0.05813953488370771
        },
        {
          "name": "D7",
          "midi": 98,
          "time": 77.56976744185313,
          "velocity": 0.25196850393700787,
          "duration": 0.06976744186044925
        },
        {
          "name": "E7",
          "midi": 100,
          "time": 77.56976744185313,
          "velocity": 0.33070866141732286,
          "duration": 0.12790697674417117
        },
        {
          "name": "B4",
          "midi": 71,
          "time": 77.58139534882987,
          "velocity": 0.3228346456692913,
          "duration": 0.09302325581394655
        },
        {
          "name": "G#6",
          "midi": 92,
          "time": 77.58139534882987,
          "velocity": 0.28346456692913385,
          "duration": 0.10465116279068809
        },
        {
          "name": "A#6",
          "midi": 94,
          "time": 77.58139534882987,
          "velocity": 0.36220472440944884,
          "duration": 0.11627906976742963
        },
        {
          "name": "C7",
          "midi": 96,
          "time": 77.59302325580661,
          "velocity": 0.36220472440944884,
          "duration": 0.09302325581394655
        },
        {
          "name": "G#5",
          "midi": 80,
          "time": 77.60465116278336,
          "velocity": 0.3228346456692913,
          "duration": 0.081395348837205
        },
        {
          "name": "G#3",
          "midi": 56,
          "time": 77.6162790697601,
          "velocity": 0.3779527559055118,
          "duration": 0.06976744186046346
        },
        {
          "name": "D#4",
          "midi": 63,
          "time": 77.6162790697601,
          "velocity": 0.2677165354330709,
          "duration": 0.3255813953487774
        },
        {
          "name": "D#5",
          "midi": 75,
          "time": 77.6162790697601,
          "velocity": 0.4251968503937008,
          "duration": 0.081395348837205
        },
        {
          "name": "F#7",
          "midi": 102,
          "time": 77.6162790697601,
          "velocity": 0.15748031496062992,
          "duration": 0.05813953488372192
        },
        {
          "name": "C6",
          "midi": 84,
          "time": 77.62790697673684,
          "velocity": 0.14173228346456693,
          "duration": 0.05813953488372192
        },
        {
          "name": "F#6",
          "midi": 90,
          "time": 77.62790697673684,
          "velocity": 0.07874015748031496,
          "duration": 0.04651162790698038
        },
        {
          "name": "C#7",
          "midi": 97,
          "time": 77.63953488371358,
          "velocity": 0.25196850393700787,
          "duration": 0.06976744186046346
        },
        {
          "name": "A6",
          "midi": 93,
          "time": 77.67441860464382,
          "velocity": 0.3779527559055118,
          "duration": 0.2209302325580893
        },
        {
          "name": "F7",
          "midi": 101,
          "time": 77.67441860464382,
          "velocity": 0.25196850393700787,
          "duration": 0.23255813953483084
        },
        {
          "name": "G3",
          "midi": 55,
          "time": 77.68604651162056,
          "velocity": 0.25196850393700787,
          "duration": 0.023255813953483084
        },
        {
          "name": "G5",
          "midi": 79,
          "time": 77.68604651162056,
          "velocity": 0.48031496062992124,
          "duration": 0.19767441860460622
        },
        {
          "name": "B5",
          "midi": 83,
          "time": 77.68604651162056,
          "velocity": 0.28346456692913385,
          "duration": 0.18604651162786467
        },
        {
          "name": "D7",
          "midi": 98,
          "time": 77.68604651162056,
          "velocity": 0.2047244094488189,
          "duration": 0.0813953488371908
        },
        {
          "name": "D5",
          "midi": 74,
          "time": 77.6976744185973,
          "velocity": 0.44881889763779526,
          "duration": 0.19767441860460622
        },
        {
          "name": "F6",
          "midi": 89,
          "time": 77.6976744185973,
          "velocity": 0.1732283464566929,
          "duration": 0.15116279069764005
        },
        {
          "name": "D#6",
          "midi": 87,
          "time": 77.70930232557404,
          "velocity": 0.11023622047244094,
          "duration": 0.05813953488370771
        },
        {
          "name": "G#6",
          "midi": 92,
          "time": 77.70930232557404,
          "velocity": 0.1732283464566929,
          "duration": 0.05813953488370771
        },
        {
          "name": "G3",
          "midi": 55,
          "time": 77.72093023255078,
          "velocity": 0.36220472440944884,
          "duration": 0.06976744186044925
        },
        {
          "name": "C5",
          "midi": 72,
          "time": 77.73255813952753,
          "velocity": 0.11023622047244094,
          "duration": 0.05813953488370771
        },
        {
          "name": "C7",
          "midi": 96,
          "time": 77.74418604650427,
          "velocity": 0.12598425196850394,
          "duration": 0.04651162790696617
        },
        {
          "name": "C#7",
          "midi": 97,
          "time": 77.79069767441123,
          "velocity": 0.09448818897637795,
          "duration": 0.034883720930224626
        },
        {
          "name": "G#6",
          "midi": 92,
          "time": 77.80232558138798,
          "velocity": 0.10236220472440945,
          "duration": 0.04651162790696617
        },
        {
          "name": "G3",
          "midi": 55,
          "time": 77.81395348836472,
          "velocity": 0.36220472440944884,
          "duration": 0.06976744186044925
        },
        {
          "name": "A#4",
          "midi": 70,
          "time": 77.81395348836472,
          "velocity": 0.1732283464566929,
          "duration": 0.05813953488370771
        },
        {
          "name": "G2",
          "midi": 43,
          "time": 77.87209302324842,
          "velocity": 0.2992125984251969,
          "duration": 0.023255813953483084
        },
        {
          "name": "E3",
          "midi": 52,
          "time": 77.93023255813213,
          "velocity": 0.3464566929133858,
          "duration": 0.023255813953483084
        },
        {
          "name": "F5",
          "midi": 77,
          "time": 77.93023255813213,
          "velocity": 0.07086614173228346,
          "duration": 0.034883720930224626
        },
        {
          "name": "G5",
          "midi": 79,
          "time": 77.93023255813213,
          "velocity": 0.3700787401574803,
          "duration": 0.360465116279002
        },
        {
          "name": "A4",
          "midi": 69,
          "time": 77.94186046510887,
          "velocity": 0.25196850393700787,
          "duration": 0.04651162790696617
        },
        {
          "name": "C#5",
          "midi": 73,
          "time": 77.94186046510887,
          "velocity": 0.29133858267716534,
          "duration": 0.034883720930224626
        },
        {
          "name": "F#3",
          "midi": 54,
          "time": 77.95348837208562,
          "velocity": 0.30708661417322836,
          "duration": 0.023255813953483084
        },
        {
          "name": "A6",
          "midi": 93,
          "time": 77.95348837208562,
          "velocity": 0.31496062992125984,
          "duration": 0.0813953488371908
        },
        {
          "name": "A#6",
          "midi": 94,
          "time": 77.95348837208562,
          "velocity": 0.08661417322834646,
          "duration": 0.034883720930224626
        },
        {
          "name": "D#7",
          "midi": 99,
          "time": 77.95348837208562,
          "velocity": 0.1732283464566929,
          "duration": 0.0813953488371908
        },
        {
          "name": "D#4",
          "midi": 63,
          "time": 77.96511627906236,
          "velocity": 0.2440944881889764,
          "duration": 0.31395348837203585
        },
        {
          "name": "B6",
          "midi": 95,
          "time": 77.96511627906236,
          "velocity": 0.10236220472440945,
          "duration": 0.034883720930224626
        },
        {
          "name": "F7",
          "midi": 101,
          "time": 77.96511627906236,
          "velocity": 0.33858267716535434,
          "duration": 0.15116279069764005
        },
        {
          "name": "G3",
          "midi": 55,
          "time": 77.9767441860391,
          "velocity": 0.4251968503937008,
          "duration": 0.1627906976743816
        },
        {
          "name": "D5",
          "midi": 74,
          "time": 77.9767441860391,
          "velocity": 0.5039370078740157,
          "duration": 0.39534883720922664
        },
        {
          "name": "C#1",
          "midi": 25,
          "time": 77.98837209301584,
          "velocity": 0.7401574803149606,
          "duration": 0.011627906976741542
        },
        {
          "name": "B5",
          "midi": 83,
          "time": 77.98837209301584,
          "velocity": 0.14173228346456693,
          "duration": 0.04651162790696617
        },
        {
          "name": "F6",
          "midi": 89,
          "time": 77.98837209301584,
          "velocity": 0.3937007874015748,
          "duration": 0.1395348837208985
        },
        {
          "name": "D1",
          "midi": 26,
          "time": 77.99999999999258,
          "velocity": 0.7007874015748031,
          "duration": 0.011627906976741542
        },
        {
          "name": "A#5",
          "midi": 82,
          "time": 77.99999999999258,
          "velocity": 0.14173228346456693,
          "duration": 0.05813953488370771
        },
        {
          "name": "B0",
          "midi": 23,
          "time": 78.01162790696932,
          "velocity": 0.6062992125984252,
          "duration": 0.011627906976741542
        },
        {
          "name": "B4",
          "midi": 71,
          "time": 78.01162790696932,
          "velocity": 0.13385826771653545,
          "duration": 0.04651162790696617
        },
        {
          "name": "F0",
          "midi": 17,
          "time": 78.02325581394607,
          "velocity": 0.5118110236220472,
          "duration": 0.011627906976741542
        },
        {
          "name": "D#6",
          "midi": 87,
          "time": 78.02325581394607,
          "velocity": 0.1968503937007874,
          "duration": 0.06976744186044925
        },
        {
          "name": "G#4",
          "midi": 68,
          "time": 78.0348837209228,
          "velocity": 0.1968503937007874,
          "duration": 0.034883720930224626
        },
        {
          "name": "F5",
          "midi": 77,
          "time": 78.0348837209228,
          "velocity": 0.11023622047244094,
          "duration": 0.034883720930224626
        },
        {
          "name": "A#6",
          "midi": 94,
          "time": 78.0348837209228,
          "velocity": 0.15748031496062992,
          "duration": 0.10465116279067388
        },
        {
          "name": "C#7",
          "midi": 97,
          "time": 78.0348837209228,
          "velocity": 0.10236220472440945,
          "duration": 0.06976744186044925
        },
        {
          "name": "E7",
          "midi": 100,
          "time": 78.0348837209228,
          "velocity": 0.15748031496062992,
          "duration": 0.09302325581393234
        },
        {
          "name": "B5",
          "midi": 83,
          "time": 78.04651162789955,
          "velocity": 0.2992125984251969,
          "duration": 0.0813953488371908
        },
        {
          "name": "C#6",
          "midi": 85,
          "time": 78.05813953487629,
          "velocity": 0.2204724409448819,
          "duration": 0.034883720930224626
        },
        {
          "name": "F#7",
          "midi": 102,
          "time": 78.05813953487629,
          "velocity": 0.11811023622047244,
          "duration": 0.06976744186044925
        },
        {
          "name": "A6",
          "midi": 93,
          "time": 78.06976744185303,
          "velocity": 0.07874015748031496,
          "duration": 0.034883720930224626
        },
        {
          "name": "C7",
          "midi": 96,
          "time": 78.06976744185303,
          "velocity": 0.14173228346456693,
          "duration": 0.04651162790696617
        },
        {
          "name": "B4",
          "midi": 71,
          "time": 78.08139534882977,
          "velocity": 0.11023622047244094,
          "duration": 0.05813953488370771
        },
        {
          "name": "A6",
          "midi": 93,
          "time": 78.13953488371348,
          "velocity": 0.16535433070866143,
          "duration": 0.1627906976743958
        },
        {
          "name": "G#3",
          "midi": 56,
          "time": 78.17441860464372,
          "velocity": 0.2440944881889764,
          "duration": 0.023255813953483084
        },
        {
          "name": "G3",
          "midi": 55,
          "time": 78.1976744185972,
          "velocity": 0.3937007874015748,
          "duration": 0.023255813953483084
        },
        {
          "name": "G#6",
          "midi": 92,
          "time": 78.20930232557394,
          "velocity": 0.23622047244094488,
          "duration": 0.034883720930224626
        },
        {
          "name": "F6",
          "midi": 89,
          "time": 78.22093023255069,
          "velocity": 0.14173228346456693,
          "duration": 0.04651162790696617
        },
        {
          "name": "G3",
          "midi": 55,
          "time": 78.23255813952743,
          "velocity": 0.4251968503937008,
          "duration": 0.034883720930224626
        },
        {
          "name": "E7",
          "midi": 100,
          "time": 78.24418604650417,
          "velocity": 0.12598425196850394,
          "duration": 0.06976744186044925
        },
        {
          "name": "G#6",
          "midi": 92,
          "time": 78.25581395348091,
          "velocity": 0.3700787401574803,
          "duration": 0.0813953488371908
        },
        {
          "name": "D#7",
          "midi": 99,
          "time": 78.25581395348091,
          "velocity": 0.15748031496062992,
          "duration": 0.06976744186044925
        },
        {
          "name": "G#3",
          "midi": 56,
          "time": 78.26744186045765,
          "velocity": 0.4409448818897638,
          "duration": 0.10465116279067388
        },
        {
          "name": "A#4",
          "midi": 70,
          "time": 78.26744186045765,
          "velocity": 0.2992125984251969,
          "duration": 0.06976744186044925
        },
        {
          "name": "F#6",
          "midi": 90,
          "time": 78.26744186045765,
          "velocity": 0.1889763779527559,
          "duration": 0.05813953488370771
        },
        {
          "name": "C3",
          "midi": 48,
          "time": 78.2790697674344,
          "velocity": 0.1889763779527559,
          "duration": 0.04651162790696617
        },
        {
          "name": "F6",
          "midi": 89,
          "time": 78.2790697674344,
          "velocity": 0.1732283464566929,
          "duration": 0.0813953488371908
        },
        {
          "name": "A#6",
          "midi": 94,
          "time": 78.2790697674344,
          "velocity": 0.3464566929133858,
          "duration": 0.09302325581393234
        },
        {
          "name": "C7",
          "midi": 96,
          "time": 78.2790697674344,
          "velocity": 0.2283464566929134,
          "duration": 0.04651162790696617
        },
        {
          "name": "D4",
          "midi": 62,
          "time": 78.29069767441113,
          "velocity": 0.30708661417322836,
          "duration": 0.10465116279067388
        },
        {
          "name": "C6",
          "midi": 84,
          "time": 78.29069767441113,
          "velocity": 0.13385826771653545,
          "duration": 0.04651162790696617
        },
        {
          "name": "D#6",
          "midi": 87,
          "time": 78.29069767441113,
          "velocity": 0.11811023622047244,
          "duration": 0.04651162790696617
        },
        {
          "name": "B6",
          "midi": 95,
          "time": 78.32558139534136,
          "velocity": 0.3543307086614173,
          "duration": 0.3488372093022605
        },
        {
          "name": "A#5",
          "midi": 82,
          "time": 78.3372093023181,
          "velocity": 0.15748031496062992,
          "duration": 0.05813953488370771
        },
        {
          "name": "A6",
          "midi": 93,
          "time": 78.3372093023181,
          "velocity": 0.4645669291338583,
          "duration": 0.39534883720922664
        },
        {
          "name": "G6",
          "midi": 91,
          "time": 78.34883720929484,
          "velocity": 0.15748031496062992,
          "duration": 0.12790697674415696
        },
        {
          "name": "G4",
          "midi": 67,
          "time": 78.36046511627158,
          "velocity": 0.23622047244094488,
          "duration": 0.023255813953483084
        },
        {
          "name": "D#5",
          "midi": 75,
          "time": 78.36046511627158,
          "velocity": 0.31496062992125984,
          "duration": 0.06976744186044925
        },
        {
          "name": "G5",
          "midi": 79,
          "time": 78.36046511627158,
          "velocity": 0.44881889763779526,
          "duration": 0.4418604651161928
        },
        {
          "name": "B5",
          "midi": 83,
          "time": 78.36046511627158,
          "velocity": 0.15748031496062992,
          "duration": 0.05813953488370771
        },
        {
          "name": "C5",
          "midi": 72,
          "time": 78.37209302324833,
          "velocity": 0.2755905511811024,
          "duration": 0.034883720930224626
        },
        {
          "name": "F5",
          "midi": 77,
          "time": 78.37209302324833,
          "velocity": 0.30708661417322836,
          "duration": 0.034883720930224626
        },
        {
          "name": "F#3",
          "midi": 54,
          "time": 78.38372093022507,
          "velocity": 0.28346456692913385,
          "duration": 0.05813953488370771
        },
        {
          "name": "G#4",
          "midi": 68,
          "time": 78.38372093022507,
          "velocity": 0.2283464566929134,
          "duration": 0.034883720930224626
        },
        {
          "name": "A#6",
          "midi": 94,
          "time": 78.38372093022507,
          "velocity": 0.28346456692913385,
          "duration": 0.06976744186044925
        },
        {
          "name": "D7",
          "midi": 98,
          "time": 78.39534883720181,
          "velocity": 0.2992125984251969,
          "duration": 0.2790697674418112
        },
        {
          "name": "D#7",
          "midi": 99,
          "time": 78.39534883720181,
          "velocity": 0.28346456692913385,
          "duration": 0.09302325581393234
        },
        {
          "name": "F7",
          "midi": 101,
          "time": 78.39534883720181,
          "velocity": 0.2992125984251969,
          "duration": 0.15116279069764005
        },
        {
          "name": "D4",
          "midi": 62,
          "time": 78.40697674417855,
          "velocity": 0.25984251968503935,
          "duration": 0.3023255813952943
        },
        {
          "name": "C#5",
          "midi": 73,
          "time": 78.40697674417855,
          "velocity": 0.2755905511811024,
          "duration": 0.023255813953483084
        },
        {
          "name": "F#5",
          "midi": 78,
          "time": 78.40697674417855,
          "velocity": 0.29133858267716534,
          "duration": 0.023255813953483084
        },
        {
          "name": "C7",
          "midi": 96,
          "time": 78.40697674417855,
          "velocity": 0.2283464566929134,
          "duration": 0.034883720930224626
        },
        {
          "name": "C#7",
          "midi": 97,
          "time": 78.40697674417855,
          "velocity": 0.3464566929133858,
          "duration": 0.1395348837208985
        },
        {
          "name": "E7",
          "midi": 100,
          "time": 78.40697674417855,
          "velocity": 0.11811023622047244,
          "duration": 0.034883720930224626
        },
        {
          "name": "F#7",
          "midi": 102,
          "time": 78.40697674417855,
          "velocity": 0.28346456692913385,
          "duration": 0.12790697674415696
        },
        {
          "name": "G4",
          "midi": 67,
          "time": 78.41860465115529,
          "velocity": 0.33070866141732286,
          "duration": 0.23255813953484505
        },
        {
          "name": "A#4",
          "midi": 70,
          "time": 78.41860465115529,
          "velocity": 0.16535433070866143,
          "duration": 0.10465116279067388
        },
        {
          "name": "D5",
          "midi": 74,
          "time": 78.43023255813203,
          "velocity": 0.4251968503937008,
          "duration": 0.2209302325581035
        },
        {
          "name": "B5",
          "midi": 83,
          "time": 78.43023255813203,
          "velocity": 0.1889763779527559,
          "duration": 0.17441860465112313
        },
        {
          "name": "G3",
          "midi": 55,
          "time": 78.44186046510877,
          "velocity": 0.36220472440944884,
          "duration": 0.2209302325581035
        },
        {
          "name": "E7",
          "midi": 100,
          "time": 78.45348837208552,
          "velocity": 0.2755905511811024,
          "duration": 0.023255813953483084
        },
        {
          "name": "E7",
          "midi": 100,
          "time": 78.48837209301574,
          "velocity": 0.28346456692913385,
          "duration": 0.0813953488371908
        },
        {
          "name": "A#6",
          "midi": 94,
          "time": 78.49999999999248,
          "velocity": 0.18110236220472442,
          "duration": 0.09302325581393234
        },
        {
          "name": "G#6",
          "midi": 92,
          "time": 78.52325581394597,
          "velocity": 0.07874015748031496,
          "duration": 0.034883720930224626
        },
        {
          "name": "C7",
          "midi": 96,
          "time": 78.52325581394597,
          "velocity": 0.30708661417322836,
          "duration": 0.2441860465115866
        },
        {
          "name": "D#7",
          "midi": 99,
          "time": 78.52325581394597,
          "velocity": 0.16535433070866143,
          "duration": 0.034883720930224626
        },
        {
          "name": "F6",
          "midi": 89,
          "time": 78.5348837209227,
          "velocity": 0.16535433070866143,
          "duration": 0.06976744186044925
        },
        {
          "name": "A5",
          "midi": 81,
          "time": 78.55813953487619,
          "velocity": 0.11811023622047244,
          "duration": 0.04651162790696617
        },
        {
          "name": "A#4",
          "midi": 70,
          "time": 78.59302325580641,
          "velocity": 0.10236220472440945,
          "duration": 0.05813953488372192
        },
        {
          "name": "F4",
          "midi": 65,
          "time": 78.65116279069014,
          "velocity": 0.2992125984251969,
          "duration": 0.0813953488371908
        },
        {
          "name": "C5",
          "midi": 72,
          "time": 78.65116279069014,
          "velocity": 0.44881889763779526,
          "duration": 0.09302325581393234
        },
        {
          "name": "G#6",
          "midi": 92,
          "time": 78.65116279069014,
          "velocity": 0.2440944881889764,
          "duration": 0.023255813953483084
        },
        {
          "name": "A#6",
          "midi": 94,
          "time": 78.65116279069014,
          "velocity": 0.2677165354330709,
          "duration": 0.1627906976743816
        },
        {
          "name": "F#7",
          "midi": 102,
          "time": 78.65116279069014,
          "velocity": 0.07874015748031496,
          "duration": 0.034883720930224626
        },
        {
          "name": "F3",
          "midi": 53,
          "time": 78.66279069766688,
          "velocity": 0.3464566929133858,
          "duration": 0.0813953488371908
        },
        {
          "name": "C#7",
          "midi": 97,
          "time": 78.66279069766688,
          "velocity": 0.14960629921259844,
          "duration": 0.09302325581393234
        },
        {
          "name": "D5",
          "midi": 74,
          "time": 78.67441860464362,
          "velocity": 0.2677165354330709,
          "duration": 0.0813953488371908
        },
        {
          "name": "F7",
          "midi": 101,
          "time": 78.6976744185971,
          "velocity": 0.11023622047244094,
          "duration": 0.06976744186044925
        },
        {
          "name": "B5",
          "midi": 83,
          "time": 78.70930232557384,
          "velocity": 0.13385826771653545,
          "duration": 0.034883720930224626
        },
        {
          "name": "E7",
          "midi": 100,
          "time": 78.70930232557384,
          "velocity": 0.11811023622047244,
          "duration": 0.05813953488370771
        },
        {
          "name": "D#6",
          "midi": 87,
          "time": 78.72093023255059,
          "velocity": 0.1968503937007874,
          "duration": 0.034883720930224626
        },
        {
          "name": "G#6",
          "midi": 92,
          "time": 78.72093023255059,
          "velocity": 0.2755905511811024,
          "duration": 0.15116279069765426
        },
        {
          "name": "E4",
          "midi": 64,
          "time": 78.73255813952733,
          "velocity": 0.28346456692913385,
          "duration": 0.034883720930224626
        },
        {
          "name": "C#6",
          "midi": 85,
          "time": 78.73255813952733,
          "velocity": 0.2204724409448819,
          "duration": 0.04651162790696617
        },
        {
          "name": "A#4",
          "midi": 70,
          "time": 78.74418604650407,
          "velocity": 0.33858267716535434,
          "duration": 0.1627906976743958
        },
        {
          "name": "D#3",
          "midi": 51,
          "time": 78.75581395348081,
          "velocity": 0.3464566929133858,
          "duration": 0.17441860465113734
        },
        {
          "name": "D#5",
          "midi": 75,
          "time": 78.75581395348081,
          "velocity": 0.4409448818897638,
          "duration": 0.23255813953484505
        },
        {
          "name": "D#4",
          "midi": 63,
          "time": 78.76744186045755,
          "velocity": 0.36220472440944884,
          "duration": 0.13953488372091272
        },
        {
          "name": "D#7",
          "midi": 99,
          "time": 78.76744186045755,
          "velocity": 0.2047244094488189,
          "duration": 0.15116279069765426
        },
        {
          "name": "G5",
          "midi": 79,
          "time": 78.81395348836452,
          "velocity": 0.29133858267716534,
          "duration": 0.11627906976742963
        },
        {
          "name": "F6",
          "midi": 89,
          "time": 78.81395348836452,
          "velocity": 0.30708661417322836,
          "duration": 0.13953488372091272
        },
        {
          "name": "E6",
          "midi": 88,
          "time": 78.8604651162715,
          "velocity": 0.2283464566929134,
          "duration": 0.023255813953483084
        },
        {
          "name": "G#5",
          "midi": 80,
          "time": 78.87209302324824,
          "velocity": 0.33070866141732286,
          "duration": 0.19767441860462043
        },
        {
          "name": "D6",
          "midi": 86,
          "time": 78.87209302324824,
          "velocity": 0.2125984251968504,
          "duration": 0.04651162790696617
        },
        {
          "name": "F#6",
          "midi": 90,
          "time": 78.87209302324824,
          "velocity": 0.28346456692913385,
          "duration": 0.19767441860462043
        },
        {
          "name": "C#7",
          "midi": 97,
          "time": 78.88372093022498,
          "velocity": 0.11023622047244094,
          "duration": 0.05813953488370771
        },
        {
          "name": "E7",
          "midi": 100,
          "time": 78.88372093022498,
          "velocity": 0.2125984251968504,
          "duration": 0.034883720930224626
        },
        {
          "name": "G#4",
          "midi": 68,
          "time": 78.89534883720172,
          "velocity": 0.25984251968503935,
          "duration": 0.05813953488370771
        },
        {
          "name": "C6",
          "midi": 84,
          "time": 78.89534883720172,
          "velocity": 0.41732283464566927,
          "duration": 0.18604651162787889
        },
        {
          "name": "G#3",
          "midi": 56,
          "time": 78.90697674417846,
          "velocity": 0.36220472440944884,
          "duration": 0.18604651162787889
        },
        {
          "name": "A#4",
          "midi": 70,
          "time": 78.9186046511552,
          "velocity": 0.2440944881889764,
          "duration": 0.034883720930224626
        },
        {
          "name": "A#1",
          "midi": 34,
          "time": 78.93023255813195,
          "velocity": 0.5826771653543307,
          "duration": 0.011627906976741542
        },
        {
          "name": "F5",
          "midi": 77,
          "time": 78.93023255813195,
          "velocity": 0.10236220472440945,
          "duration": 0.034883720930224626
        },
        {
          "name": "G1",
          "midi": 31,
          "time": 78.94186046510869,
          "velocity": 0.7480314960629921,
          "duration": 0.023255813953483084
        },
        {
          "name": "D#3",
          "midi": 51,
          "time": 78.94186046510869,
          "velocity": 0.4015748031496063,
          "duration": 0.15116279069765426
        },
        {
          "name": "G#1",
          "midi": 32,
          "time": 78.96511627906217,
          "velocity": 0.7637795275590551,
          "duration": 0.6046511627905744
        },
        {
          "name": "A#5",
          "midi": 82,
          "time": 78.96511627906217,
          "velocity": 0.2283464566929134,
          "duration": 0.023255813953483084
        },
        {
          "name": "A6",
          "midi": 93,
          "time": 78.98837209301566,
          "velocity": 0.16535433070866143,
          "duration": 0.12790697674417117
        },
        {
          "name": "D#5",
          "midi": 75,
          "time": 78.9999999999924,
          "velocity": 0.4015748031496063,
          "duration": 0.081395348837205
        },
        {
          "name": "A#5",
          "midi": 82,
          "time": 79.03488372092264,
          "velocity": 0.3700787401574803,
          "duration": 0.4651162790696617
        },
        {
          "name": "C4",
          "midi": 60,
          "time": 79.04651162789938,
          "velocity": 0.2125984251968504,
          "duration": 0.09302325581393234
        },
        {
          "name": "G4",
          "midi": 67,
          "time": 79.06976744185286,
          "velocity": 0.2440944881889764,
          "duration": 0.10465116279067388
        },
        {
          "name": "G5",
          "midi": 79,
          "time": 79.06976744185286,
          "velocity": 0.2440944881889764,
          "duration": 0.10465116279067388
        },
        {
          "name": "D6",
          "midi": 86,
          "time": 79.06976744185286,
          "velocity": 0.07086614173228346,
          "duration": 0.05813953488370771
        },
        {
          "name": "A#4",
          "midi": 70,
          "time": 79.0813953488296,
          "velocity": 0.36220472440944884,
          "duration": 0.17441860465112313
        },
        {
          "name": "D5",
          "midi": 74,
          "time": 79.0813953488296,
          "velocity": 0.36220472440944884,
          "duration": 0.1627906976743816
        },
        {
          "name": "E5",
          "midi": 76,
          "time": 79.0813953488296,
          "velocity": 0.07874015748031496,
          "duration": 0.034883720930224626
        },
        {
          "name": "F6",
          "midi": 89,
          "time": 79.0813953488296,
          "velocity": 0.09448818897637795,
          "duration": 0.034883720930224626
        },
        {
          "name": "G3",
          "midi": 55,
          "time": 79.09302325580634,
          "velocity": 0.29133858267716534,
          "duration": 0.04651162790696617
        },
        {
          "name": "D#3",
          "midi": 51,
          "time": 79.10465116278309,
          "velocity": 0.28346456692913385,
          "duration": 0.034883720930224626
        },
        {
          "name": "D4",
          "midi": 62,
          "time": 79.13953488371331,
          "velocity": 0.3937007874015748,
          "duration": 0.034883720930224626
        },
        {
          "name": "D#3",
          "midi": 51,
          "time": 79.15116279069005,
          "velocity": 0.33858267716535434,
          "duration": 0.04651162790696617
        },
        {
          "name": "F5",
          "midi": 77,
          "time": 79.15116279069005,
          "velocity": 0.2283464566929134,
          "duration": 0.10465116279067388
        },
        {
          "name": "G#3",
          "midi": 56,
          "time": 79.1627906976668,
          "velocity": 0.29133858267716534,
          "duration": 0.023255813953483084
        },
        {
          "name": "F#4",
          "midi": 66,
          "time": 79.18604651162028,
          "velocity": 0.2125984251968504,
          "duration": 0.09302325581393234
        },
        {
          "name": "E3",
          "midi": 52,
          "time": 79.19767441859702,
          "velocity": 0.3937007874015748,
          "duration": 0.023255813953483084
        },
        {
          "name": "D4",
          "midi": 62,
          "time": 79.20930232557376,
          "velocity": 0.3543307086614173,
          "duration": 0.034883720930224626
        },
        {
          "name": "D#3",
          "midi": 51,
          "time": 79.2209302325505,
          "velocity": 0.3228346456692913,
          "duration": 0.11627906976741542
        },
        {
          "name": "D#5",
          "midi": 75,
          "time": 79.23255813952724,
          "velocity": 0.2125984251968504,
          "duration": 0.04651162790696617
        },
        {
          "name": "C4",
          "midi": 60,
          "time": 79.25581395348073,
          "velocity": 0.2047244094488189,
          "duration": 0.0813953488371908
        },
        {
          "name": "A#4",
          "midi": 70,
          "time": 79.29069767441095,
          "velocity": 0.2440944881889764,
          "duration": 0.04651162790696617
        },
        {
          "name": "D5",
          "midi": 74,
          "time": 79.29069767441095,
          "velocity": 0.2992125984251969,
          "duration": 0.10465116279067388
        },
        {
          "name": "C6",
          "midi": 84,
          "time": 79.29069767441095,
          "velocity": 0.10236220472440945,
          "duration": 0.06976744186044925
        },
        {
          "name": "A5",
          "midi": 81,
          "time": 79.31395348836443,
          "velocity": 0.07874015748031496,
          "duration": 0.034883720930224626
        },
        {
          "name": "E7",
          "midi": 100,
          "time": 79.31395348836443,
          "velocity": 0.10236220472440945,
          "duration": 0.034883720930224626
        },
        {
          "name": "G4",
          "midi": 67,
          "time": 79.32558139534117,
          "velocity": 0.5433070866141733,
          "duration": 0.10465116279067388
        },
        {
          "name": "C7",
          "midi": 96,
          "time": 79.32558139534117,
          "velocity": 0.10236220472440945,
          "duration": 0.04651162790696617
        },
        {
          "name": "G3",
          "midi": 55,
          "time": 79.33720930231792,
          "velocity": 0.5196850393700787,
          "duration": 0.0813953488371908
        },
        {
          "name": "F7",
          "midi": 101,
          "time": 79.33720930231792,
          "velocity": 0.09448818897637795,
          "duration": 0.05813953488370771
        },
        {
          "name": "D#4",
          "midi": 63,
          "time": 79.34883720929466,
          "velocity": 0.2992125984251969,
          "duration": 0.04651162790696617
        },
        {
          "name": "A#4",
          "midi": 70,
          "time": 79.34883720929466,
          "velocity": 0.2047244094488189,
          "duration": 0.11627906976741542
        },
        {
          "name": "A6",
          "midi": 93,
          "time": 79.34883720929466,
          "velocity": 0.18110236220472442,
          "duration": 0.09302325581393234
        },
        {
          "name": "E5",
          "midi": 76,
          "time": 79.37209302324814,
          "velocity": 0.2677165354330709,
          "duration": 0.05813953488370771
        },
        {
          "name": "G#5",
          "midi": 80,
          "time": 79.39534883720162,
          "velocity": 0.18110236220472442,
          "duration": 0.04651162790696617
        },
        {
          "name": "C6",
          "midi": 84,
          "time": 79.39534883720162,
          "velocity": 0.11811023622047244,
          "duration": 0.034883720930224626
        },
        {
          "name": "D#4",
          "midi": 63,
          "time": 79.40697674417837,
          "velocity": 0.3228346456692913,
          "duration": 0.034883720930224626
        },
        {
          "name": "G#3",
          "midi": 56,
          "time": 79.4186046511551,
          "velocity": 0.4409448818897638,
          "duration": 0.05813953488370771
        },
        {
          "name": "D#5",
          "midi": 75,
          "time": 79.4186046511551,
          "velocity": 0.3228346456692913,
          "duration": 0.06976744186044925
        },
        {
          "name": "A5",
          "midi": 81,
          "time": 79.43023255813185,
          "velocity": 0.13385826771653545,
          "duration": 0.05813953488370771
        },
        {
          "name": "D#3",
          "midi": 51,
          "time": 79.44186046510859,
          "velocity": 0.3228346456692913,
          "duration": 0.034883720930224626
        },
        {
          "name": "D4",
          "midi": 62,
          "time": 79.45348837208533,
          "velocity": 0.33858267716535434,
          "duration": 0.023255813953483084
        },
        {
          "name": "G4",
          "midi": 67,
          "time": 79.45348837208533,
          "velocity": 0.3858267716535433,
          "duration": 0.10465116279067388
        },
        {
          "name": "G3",
          "midi": 55,
          "time": 79.47674418603881,
          "velocity": 0.4566929133858268,
          "duration": 0.023255813953483084
        },
        {
          "name": "C4",
          "midi": 60,
          "time": 79.47674418603881,
          "velocity": 0.25196850393700787,
          "duration": 0.023255813953483084
        },
        {
          "name": "D#4",
          "midi": 63,
          "time": 79.47674418603881,
          "velocity": 0.30708661417322836,
          "duration": 0.0813953488371908
        },
        {
          "name": "E7",
          "midi": 100,
          "time": 79.47674418603881,
          "velocity": 0.13385826771653545,
          "duration": 0.06976744186044925
        },
        {
          "name": "D5",
          "midi": 74,
          "time": 79.48837209301556,
          "velocity": 0.4645669291338583,
          "duration": 0.05813953488370771
        },
        {
          "name": "A6",
          "midi": 93,
          "time": 79.48837209301556,
          "velocity": 0.2992125984251969,
          "duration": 0.04651162790696617
        },
        {
          "name": "B5",
          "midi": 83,
          "time": 79.4999999999923,
          "velocity": 0.2755905511811024,
          "duration": 0.04651162790696617
        },
        {
          "name": "G3",
          "midi": 55,
          "time": 79.51162790696904,
          "velocity": 0.4409448818897638,
          "duration": 0.04651162790696617
        },
        {
          "name": "F5",
          "midi": 77,
          "time": 79.52325581394578,
          "velocity": 0.10236220472440945,
          "duration": 0.04651162790696617
        },
        {
          "name": "A5",
          "midi": 81,
          "time": 79.52325581394578,
          "velocity": 0.15748031496062992,
          "duration": 0.09302325581393234
        },
        {
          "name": "A#5",
          "midi": 82,
          "time": 79.52325581394578,
          "velocity": 0.11811023622047244,
          "duration": 0.04651162790696617
        },
        {
          "name": "D#5",
          "midi": 75,
          "time": 79.54651162789926,
          "velocity": 0.3228346456692913,
          "duration": 0.06976744186044925
        },
        {
          "name": "D#3",
          "midi": 51,
          "time": 79.558139534876,
          "velocity": 0.3228346456692913,
          "duration": 0.023255813953483084
        },
        {
          "name": "D4",
          "midi": 62,
          "time": 79.558139534876,
          "velocity": 0.2283464566929134,
          "duration": 0.023255813953483084
        },
        {
          "name": "G1",
          "midi": 31,
          "time": 79.56976744185275,
          "velocity": 0.6692913385826772,
          "duration": 0.011627906976741542
        },
        {
          "name": "A#4",
          "midi": 70,
          "time": 79.56976744185275,
          "velocity": 0.2283464566929134,
          "duration": 0.05813953488370771
        },
        {
          "name": "G4",
          "midi": 67,
          "time": 79.58139534882949,
          "velocity": 0.28346456692913385,
          "duration": 0.04651162790696617
        },
        {
          "name": "C7",
          "midi": 96,
          "time": 79.58139534882949,
          "velocity": 0.15748031496062992,
          "duration": 0.05813953488370771
        },
        {
          "name": "A3",
          "midi": 57,
          "time": 79.59302325580623,
          "velocity": 0.3543307086614173,
          "duration": 0.023255813953483084
        },
        {
          "name": "D#4",
          "midi": 63,
          "time": 79.59302325580623,
          "velocity": 0.2283464566929134,
          "duration": 0.023255813953483084
        },
        {
          "name": "D5",
          "midi": 74,
          "time": 79.59302325580623,
          "velocity": 0.4094488188976378,
          "duration": 0.0813953488371908
        },
        {
          "name": "F5",
          "midi": 77,
          "time": 79.59302325580623,
          "velocity": 0.29133858267716534,
          "duration": 0.023255813953483084
        },
        {
          "name": "G#6",
          "midi": 92,
          "time": 79.59302325580623,
          "velocity": 0.2204724409448819,
          "duration": 0.05813953488370771
        },
        {
          "name": "A#6",
          "midi": 94,
          "time": 79.59302325580623,
          "velocity": 0.1889763779527559,
          "duration": 0.06976744186044925
        },
        {
          "name": "D7",
          "midi": 98,
          "time": 79.59302325580623,
          "velocity": 0.14960629921259844,
          "duration": 0.04651162790696617
        },
        {
          "name": "D#1",
          "midi": 27,
          "time": 79.60465116278297,
          "velocity": 0.5984251968503937,
          "duration": 0.011627906976741542
        },
        {
          "name": "E6",
          "midi": 88,
          "time": 79.60465116278297,
          "velocity": 0.2283464566929134,
          "duration": 0.034883720930224626
        },
        {
          "name": "G6",
          "midi": 91,
          "time": 79.60465116278297,
          "velocity": 0.33858267716535434,
          "duration": 0.0813953488371908
        },
        {
          "name": "D#7",
          "midi": 99,
          "time": 79.60465116278297,
          "velocity": 0.25196850393700787,
          "duration": 0.0813953488371908
        },
        {
          "name": "G1",
          "midi": 31,
          "time": 79.61627906975971,
          "velocity": 0.7716535433070866,
          "duration": 0.6279069767440717
        },
        {
          "name": "G3",
          "midi": 55,
          "time": 79.61627906975971,
          "velocity": 0.4566929133858268,
          "duration": 0.034883720930224626
        },
        {
          "name": "G5",
          "midi": 79,
          "time": 79.61627906975971,
          "velocity": 0.41732283464566927,
          "duration": 0.06976744186044925
        },
        {
          "name": "B5",
          "midi": 83,
          "time": 79.61627906975971,
          "velocity": 0.31496062992125984,
          "duration": 0.06976744186044925
        },
        {
          "name": "A6",
          "midi": 93,
          "time": 79.61627906975971,
          "velocity": 0.25984251968503935,
          "duration": 0.06976744186044925
        },
        {
          "name": "F5",
          "midi": 77,
          "time": 79.62790697673645,
          "velocity": 0.4881889763779528,
          "duration": 0.17441860465112313
        },
        {
          "name": "F7",
          "midi": 101,
          "time": 79.62790697673645,
          "velocity": 0.14960629921259844,
          "duration": 0.04651162790696617
        },
        {
          "name": "G#4",
          "midi": 68,
          "time": 79.65116279068994,
          "velocity": 0.33858267716535434,
          "duration": 0.06976744186044925
        },
        {
          "name": "F4",
          "midi": 65,
          "time": 79.66279069766668,
          "velocity": 0.23622047244094488,
          "duration": 0.023255813953483084
        },
        {
          "name": "C#5",
          "midi": 73,
          "time": 79.67441860464342,
          "velocity": 0.29133858267716534,
          "duration": 0.023255813953483084
        },
        {
          "name": "E4",
          "midi": 64,
          "time": 79.68604651162016,
          "velocity": 0.2440944881889764,
          "duration": 0.023255813953483084
        },
        {
          "name": "A#5",
          "midi": 82,
          "time": 79.68604651162016,
          "velocity": 0.14173228346456693,
          "duration": 0.034883720930224626
        },
        {
          "name": "G#3",
          "midi": 56,
          "time": 79.6976744185969,
          "velocity": 0.3543307086614173,
          "duration": 0.05813953488370771
        },
        {
          "name": "D#5",
          "midi": 75,
          "time": 79.6976744185969,
          "velocity": 0.1889763779527559,
          "duration": 0.034883720930224626
        },
        {
          "name": "D#3",
          "midi": 51,
          "time": 79.70930232557365,
          "velocity": 0.4251968503937008,
          "duration": 0.04651162790696617
        },
        {
          "name": "G#5",
          "midi": 80,
          "time": 79.73255813952713,
          "velocity": 0.09448818897637795,
          "duration": 0.05813953488370771
        },
        {
          "name": "A#5",
          "midi": 82,
          "time": 79.73255813952713,
          "velocity": 0.11811023622047244,
          "duration": 0.04651162790696617
        },
        {
          "name": "C#5",
          "midi": 73,
          "time": 79.74418604650387,
          "velocity": 0.41732283464566927,
          "duration": 0.023255813953483084
        },
        {
          "name": "F4",
          "midi": 65,
          "time": 79.75581395348061,
          "velocity": 0.3937007874015748,
          "duration": 0.05813953488370771
        },
        {
          "name": "G6",
          "midi": 91,
          "time": 79.75581395348061,
          "velocity": 0.25196850393700787,
          "duration": 0.20930232558134776
        },
        {
          "name": "C5",
          "midi": 72,
          "time": 79.76744186045735,
          "velocity": 0.3858267716535433,
          "duration": 0.034883720930224626
        },
        {
          "name": "A5",
          "midi": 81,
          "time": 79.76744186045735,
          "velocity": 0.3700787401574803,
          "duration": 0.15116279069764005
        },
        {
          "name": "D#7",
          "midi": 99,
          "time": 79.76744186045735,
          "velocity": 0.11811023622047244,
          "duration": 0.05813953488370771
        },
        {
          "name": "E7",
          "midi": 100,
          "time": 79.7790697674341,
          "velocity": 0.2047244094488189,
          "duration": 0.034883720930224626
        },
        {
          "name": "G5",
          "midi": 79,
          "time": 79.79069767441084,
          "velocity": 0.4645669291338583,
          "duration": 0.2209302325581035
        },
        {
          "name": "B5",
          "midi": 83,
          "time": 79.79069767441084,
          "velocity": 0.48031496062992124,
          "duration": 0.12790697674415696
        },
        {
          "name": "F#3",
          "midi": 54,
          "time": 79.80232558138758,
          "velocity": 0.41732283464566927,
          "duration": 0.023255813953483084
        },
        {
          "name": "G4",
          "midi": 67,
          "time": 79.80232558138758,
          "velocity": 0.25196850393700787,
          "duration": 0.023255813953483084
        },
        {
          "name": "A4",
          "midi": 69,
          "time": 79.80232558138758,
          "velocity": 0.1889763779527559,
          "duration": 0.034883720930224626
        },
        {
          "name": "F7",
          "midi": 101,
          "time": 79.80232558138758,
          "velocity": 0.23622047244094488,
          "duration": 0.19767441860462043
        },
        {
          "name": "D5",
          "midi": 74,
          "time": 79.81395348836432,
          "velocity": 0.2283464566929134,
          "duration": 0.023255813953483084
        },
        {
          "name": "D6",
          "midi": 86,
          "time": 79.81395348836432,
          "velocity": 0.2283464566929134,
          "duration": 0.11627906976741542
        },
        {
          "name": "G3",
          "midi": 55,
          "time": 79.82558139534106,
          "velocity": 0.47244094488188976,
          "duration": 0.05813953488370771
        },
        {
          "name": "D#4",
          "midi": 63,
          "time": 79.8372093023178,
          "velocity": 0.1889763779527559,
          "duration": 0.04651162790696617
        },
        {
          "name": "G#4",
          "midi": 68,
          "time": 79.8372093023178,
          "velocity": 0.23622047244094488,
          "duration": 0.0813953488371908
        },
        {
          "name": "D#5",
          "midi": 75,
          "time": 79.8372093023178,
          "velocity": 0.23622047244094488,
          "duration": 0.034883720930224626
        },
        {
          "name": "C6",
          "midi": 84,
          "time": 79.84883720929454,
          "velocity": 0.15748031496062992,
          "duration": 0.034883720930224626
        },
        {
          "name": "G#6",
          "midi": 92,
          "time": 79.84883720929454,
          "velocity": 0.2125984251968504,
          "duration": 0.10465116279067388
        },
        {
          "name": "A#6",
          "midi": 94,
          "time": 79.84883720929454,
          "velocity": 0.1732283464566929,
          "duration": 0.09302325581393234
        },
        {
          "name": "D5",
          "midi": 74,
          "time": 79.86046511627129,
          "velocity": 0.4251968503937008,
          "duration": 0.1627906976743958
        },
        {
          "name": "C#6",
          "midi": 85,
          "time": 79.86046511627129,
          "velocity": 0.13385826771653545,
          "duration": 0.034883720930224626
        },
        {
          "name": "F#6",
          "midi": 90,
          "time": 79.86046511627129,
          "velocity": 0.10236220472440945,
          "duration": 0.04651162790696617
        },
        {
          "name": "E7",
          "midi": 100,
          "time": 79.86046511627129,
          "velocity": 0.1732283464566929,
          "duration": 0.05813953488370771
        },
        {
          "name": "D3",
          "midi": 50,
          "time": 79.87209302324803,
          "velocity": 0.25196850393700787,
          "duration": 0.034883720930224626
        },
        {
          "name": "F5",
          "midi": 77,
          "time": 79.87209302324803,
          "velocity": 0.23622047244094488,
          "duration": 0.04651162790696617
        },
        {
          "name": "F4",
          "midi": 65,
          "time": 79.88372093022477,
          "velocity": 0.11811023622047244,
          "duration": 0.034883720930224626
        },
        {
          "name": "C7",
          "midi": 96,
          "time": 79.88372093022477,
          "velocity": 0.14960629921259844,
          "duration": 0.034883720930224626
        },
        {
          "name": "A#5",
          "midi": 82,
          "time": 79.90697674417825,
          "velocity": 0.11811023622047244,
          "duration": 0.034883720930224626
        },
        {
          "name": "G3",
          "midi": 55,
          "time": 79.918604651155,
          "velocity": 0.4251968503937008,
          "duration": 0.023255813953483084
        },
        {
          "name": "F5",
          "midi": 77,
          "time": 79.93023255813173,
          "velocity": 0.2677165354330709,
          "duration": 0.4069767441859824
        },
        {
          "name": "D3",
          "midi": 50,
          "time": 79.94186046510848,
          "velocity": 0.2677165354330709,
          "duration": 0.023255813953483084
        },
        {
          "name": "G#3",
          "midi": 56,
          "time": 79.94186046510848,
          "velocity": 0.4330708661417323,
          "duration": 0.023255813953483084
        },
        {
          "name": "B5",
          "midi": 83,
          "time": 79.94186046510848,
          "velocity": 0.1889763779527559,
          "duration": 0.081395348837205
        },
        {
          "name": "G3",
          "midi": 55,
          "time": 79.96511627906196,
          "velocity": 0.48031496062992124,
          "duration": 0.05813953488372192
        },
        {
          "name": "G4",
          "midi": 67,
          "time": 79.96511627906196,
          "velocity": 0.5039370078740157,
          "duration": 0.06976744186046346
        },
        {
          "name": "D7",
          "midi": 98,
          "time": 79.96511627906196,
          "velocity": 0.07874015748031496,
          "duration": 0.03488372093023884
        },
        {
          "name": "D#7",
          "midi": 99,
          "time": 79.96511627906196,
          "velocity": 0.2125984251968504,
          "duration": 0.04651162790698038
        },
        {
          "name": "C5",
          "midi": 72,
          "time": 80.01162790696894,
          "velocity": 0.07874015748031496,
          "duration": 0.034883720930224626
        },
        {
          "name": "G#3",
          "midi": 56,
          "time": 80.02325581394568,
          "velocity": 0.5433070866141733,
          "duration": 0.11627906976741542
        },
        {
          "name": "C6",
          "midi": 84,
          "time": 80.02325581394568,
          "velocity": 0.16535433070866143,
          "duration": 0.034883720930224626
        },
        {
          "name": "D3",
          "midi": 50,
          "time": 80.03488372092242,
          "velocity": 0.25984251968503935,
          "duration": 0.05813953488370771
        },
        {
          "name": "D#5",
          "midi": 75,
          "time": 80.0581395348759,
          "velocity": 0.25196850393700787,
          "duration": 0.1627906976743958
        },
        {
          "name": "G5",
          "midi": 79,
          "time": 80.06976744185265,
          "velocity": 0.14173228346456693,
          "duration": 0.05813953488370771
        },
        {
          "name": "D7",
          "midi": 98,
          "time": 80.06976744185265,
          "velocity": 0.2283464566929134,
          "duration": 0.06976744186044925
        },
        {
          "name": "D#7",
          "midi": 99,
          "time": 80.06976744185265,
          "velocity": 0.1889763779527559,
          "duration": 0.06976744186044925
        },
        {
          "name": "C7",
          "midi": 96,
          "time": 80.08139534882939,
          "velocity": 0.2677165354330709,
          "duration": 0.05813953488370771
        },
        {
          "name": "D5",
          "midi": 74,
          "time": 80.09302325580613,
          "velocity": 0.15748031496062992,
          "duration": 0.034883720930224626
        },
        {
          "name": "D3",
          "midi": 50,
          "time": 80.10465116278287,
          "velocity": 0.2755905511811024,
          "duration": 0.023255813953483084
        },
        {
          "name": "F4",
          "midi": 65,
          "time": 80.10465116278287,
          "velocity": 0.28346456692913385,
          "duration": 0.09302325581394655
        },
        {
          "name": "A4",
          "midi": 69,
          "time": 80.12790697673636,
          "velocity": 0.2125984251968504,
          "duration": 0.05813953488372192
        },
        {
          "name": "B3",
          "midi": 59,
          "time": 80.17441860464334,
          "velocity": 0.25196850393700787,
          "duration": 0.023255813953483084
        },
        {
          "name": "D#4",
          "midi": 63,
          "time": 80.17441860464334,
          "velocity": 0.25984251968503935,
          "duration": 0.034883720930224626
        },
        {
          "name": "C#5",
          "midi": 73,
          "time": 80.17441860464334,
          "velocity": 0.1889763779527559,
          "duration": 0.04651162790696617
        },
        {
          "name": "G4",
          "midi": 67,
          "time": 80.19767441859682,
          "velocity": 0.5196850393700787,
          "duration": 0.24418604651157239
        },
        {
          "name": "D#7",
          "midi": 99,
          "time": 80.19767441859682,
          "velocity": 0.2204724409448819,
          "duration": 0.12790697674415696
        },
        {
          "name": "F#3",
          "midi": 54,
          "time": 80.2209302325503,
          "velocity": 0.4645669291338583,
          "duration": 0.023255813953483084
        },
        {
          "name": "D5",
          "midi": 74,
          "time": 80.2209302325503,
          "velocity": 0.41732283464566927,
          "duration": 0.2209302325580893
        },
        {
          "name": "B6",
          "midi": 95,
          "time": 80.2209302325503,
          "velocity": 0.1889763779527559,
          "duration": 0.2209302325580893
        },
        {
          "name": "D7",
          "midi": 98,
          "time": 80.23255813952704,
          "velocity": 0.2992125984251969,
          "duration": 0.15116279069764005
        },
        {
          "name": "F#1",
          "midi": 30,
          "time": 80.24418604650378,
          "velocity": 0.6377952755905512,
          "duration": 0.011627906976741542
        },
        {
          "name": "G3",
          "midi": 55,
          "time": 80.24418604650378,
          "velocity": 0.5354330708661418,
          "duration": 0.05813953488370771
        },
        {
          "name": "B5",
          "midi": 83,
          "time": 80.24418604650378,
          "velocity": 0.2677165354330709,
          "duration": 0.17441860465112313
        },
        {
          "name": "A6",
          "midi": 93,
          "time": 80.24418604650378,
          "velocity": 0.2204724409448819,
          "duration": 0.2209302325580893
        },
        {
          "name": "F7",
          "midi": 101,
          "time": 80.24418604650378,
          "velocity": 0.09448818897637795,
          "duration": 0.0813953488371908
        },
        {
          "name": "G1",
          "midi": 31,
          "time": 80.27906976743401,
          "velocity": 0.5511811023622047,
          "duration": 0.011627906976741542
        },
        {
          "name": "C7",
          "midi": 96,
          "time": 80.27906976743401,
          "velocity": 0.2283464566929134,
          "duration": 0.12790697674415696
        },
        {
          "name": "D#1",
          "midi": 27,
          "time": 80.29069767441075,
          "velocity": 0.6771653543307087,
          "duration": 0.011627906976741542
        },
        {
          "name": "C#4",
          "midi": 61,
          "time": 80.29069767441075,
          "velocity": 0.18110236220472442,
          "duration": 0.034883720930224626
        },
        {
          "name": "C6",
          "midi": 84,
          "time": 80.29069767441075,
          "velocity": 0.12598425196850394,
          "duration": 0.034883720930224626
        },
        {
          "name": "D1",
          "midi": 26,
          "time": 80.30232558138749,
          "velocity": 0.7165354330708661,
          "duration": 0.011627906976741542
        },
        {
          "name": "C1",
          "midi": 24,
          "time": 80.31395348836423,
          "velocity": 0.7322834645669292,
          "duration": 0.011627906976741542
        },
        {
          "name": "G3",
          "midi": 55,
          "time": 80.31395348836423,
          "velocity": 0.5354330708661418,
          "duration": 0.12790697674415696
        },
        {
          "name": "B0",
          "midi": 23,
          "time": 80.32558139534098,
          "velocity": 0.7401574803149606,
          "duration": 0.023255813953483084
        },
        {
          "name": "C1",
          "midi": 24,
          "time": 80.34883720929446,
          "velocity": 0.7401574803149606,
          "duration": 0.34883720930224626
        },
        {
          "name": "D4",
          "midi": 62,
          "time": 80.3604651162712,
          "velocity": 0.10236220472440945,
          "duration": 0.05813953488370771
        },
        {
          "name": "F5",
          "midi": 77,
          "time": 80.39534883720142,
          "velocity": 0.13385826771653545,
          "duration": 0.09302325581393234
        },
        {
          "name": "C#7",
          "midi": 97,
          "time": 80.40697674417817,
          "velocity": 0.11811023622047244,
          "duration": 0.05813953488370771
        },
        {
          "name": "G2",
          "midi": 43,
          "time": 80.41860465115491,
          "velocity": 0.2755905511811024,
          "duration": 0.023255813953483084
        },
        {
          "name": "F4",
          "midi": 65,
          "time": 80.44186046510839,
          "velocity": 0.44881889763779526,
          "duration": 0.04651162790696617
        },
        {
          "name": "F3",
          "midi": 53,
          "time": 80.45348837208513,
          "velocity": 0.5118110236220472,
          "duration": 0.04651162790696617
        },
        {
          "name": "C5",
          "midi": 72,
          "time": 80.45348837208513,
          "velocity": 0.2125984251968504,
          "duration": 0.05813953488370771
        },
        {
          "name": "D7",
          "midi": 98,
          "time": 80.45348837208513,
          "velocity": 0.11811023622047244,
          "duration": 0.04651162790696617
        },
        {
          "name": "E7",
          "midi": 100,
          "time": 80.46511627906187,
          "velocity": 0.11023622047244094,
          "duration": 0.034883720930224626
        },
        {
          "name": "E4",
          "midi": 64,
          "time": 80.48837209301536,
          "velocity": 0.36220472440944884,
          "duration": 0.023255813953483084
        },
        {
          "name": "A#4",
          "midi": 70,
          "time": 80.4999999999921,
          "velocity": 0.4094488188976378,
          "duration": 0.19767441860460622
        },
        {
          "name": "D#3",
          "midi": 51,
          "time": 80.51162790696884,
          "velocity": 0.5196850393700787,
          "duration": 0.20930232558134776
        },
        {
          "name": "D5",
          "midi": 74,
          "time": 80.51162790696884,
          "velocity": 0.16535433070866143,
          "duration": 0.04651162790696617
        },
        {
          "name": "F5",
          "midi": 77,
          "time": 80.51162790696884,
          "velocity": 0.18110236220472442,
          "duration": 0.1395348837208985
        },
        {
          "name": "G#3",
          "midi": 56,
          "time": 80.52325581394558,
          "velocity": 0.3464566929133858,
          "duration": 0.023255813953483084
        },
        {
          "name": "G#6",
          "midi": 92,
          "time": 80.52325581394558,
          "velocity": 0.11811023622047244,
          "duration": 0.04651162790696617
        },
        {
          "name": "G#3",
          "midi": 56,
          "time": 80.5581395348758,
          "velocity": 0.3700787401574803,
          "duration": 0.023255813953483084
        },
        {
          "name": "C#6",
          "midi": 85,
          "time": 80.5581395348758,
          "velocity": 0.07086614173228346,
          "duration": 0.034883720930224626
        },
        {
          "name": "G#4",
          "midi": 68,
          "time": 80.61627906975951,
          "velocity": 0.3464566929133858,
          "duration": 0.023255813953483084
        },
        {
          "name": "D#6",
          "midi": 87,
          "time": 80.61627906975951,
          "velocity": 0.11023622047244094,
          "duration": 0.05813953488370771
        },
        {
          "name": "G4",
          "midi": 67,
          "time": 80.639534883713,
          "velocity": 0.3464566929133858,
          "duration": 0.05813953488370771
        },
        {
          "name": "G#3",
          "midi": 56,
          "time": 80.65116279068974,
          "velocity": 0.33070866141732286,
          "duration": 0.06976744186044925
        },
        {
          "name": "C#5",
          "midi": 73,
          "time": 80.65116279068974,
          "velocity": 0.1889763779527559,
          "duration": 0.034883720930224626
        },
        {
          "name": "E5",
          "midi": 76,
          "time": 80.66279069766648,
          "velocity": 0.23622047244094488,
          "duration": 0.023255813953483084
        },
        {
          "name": "A5",
          "midi": 81,
          "time": 80.66279069766648,
          "velocity": 0.2125984251968504,
          "duration": 0.034883720930224626
        },
        {
          "name": "D6",
          "midi": 86,
          "time": 80.66279069766648,
          "velocity": 0.25984251968503935,
          "duration": 0.05813953488370771
        },
        {
          "name": "F5",
          "midi": 77,
          "time": 80.67441860464322,
          "velocity": 0.25984251968503935,
          "duration": 0.04651162790696617
        },
        {
          "name": "B5",
          "midi": 83,
          "time": 80.67441860464322,
          "velocity": 0.2125984251968504,
          "duration": 0.04651162790696617
        },
        {
          "name": "D#5",
          "midi": 75,
          "time": 80.68604651161996,
          "velocity": 0.4330708661417323,
          "duration": 0.18604651162787889
        },
        {
          "name": "F#6",
          "midi": 90,
          "time": 80.68604651161996,
          "velocity": 0.2047244094488189,
          "duration": 0.17441860465113734
        },
        {
          "name": "C#1",
          "midi": 25,
          "time": 80.6976744185967,
          "velocity": 0.7165354330708661,
          "duration": 0.011627906976741542
        },
        {
          "name": "G#4",
          "midi": 68,
          "time": 80.6976744185967,
          "velocity": 0.33070866141732286,
          "duration": 0.1627906976743958
        },
        {
          "name": "C6",
          "midi": 84,
          "time": 80.6976744185967,
          "velocity": 0.31496062992125984,
          "duration": 0.18604651162787889
        },
        {
          "name": "C1",
          "midi": 24,
          "time": 80.70930232557345,
          "velocity": 0.7480314960629921,
          "duration": 0.8720930232556725
        },
        {
          "name": "D4",
          "midi": 62,
          "time": 80.70930232557345,
          "velocity": 0.25196850393700787,
          "duration": 0.04651162790696617
        },
        {
          "name": "D3",
          "midi": 50,
          "time": 80.72093023255019,
          "velocity": 0.4409448818897638,
          "duration": 0.023255813953483084
        },
        {
          "name": "D6",
          "midi": 86,
          "time": 80.73255813952693,
          "velocity": 0.2755905511811024,
          "duration": 0.2209302325581035
        },
        {
          "name": "D#3",
          "midi": 51,
          "time": 80.74418604650367,
          "velocity": 0.4330708661417323,
          "duration": 0.12790697674417117
        },
        {
          "name": "G#3",
          "midi": 56,
          "time": 80.74418604650367,
          "velocity": 0.4330708661417323,
          "duration": 0.04651162790698038
        },
        {
          "name": "G#2",
          "midi": 44,
          "time": 80.8023255813874,
          "velocity": 0.33858267716535434,
          "duration": 0.023255813953483084
        },
        {
          "name": "D4",
          "midi": 62,
          "time": 80.8023255813874,
          "velocity": 0.18110236220472442,
          "duration": 0.05813953488370771
        },
        {
          "name": "F5",
          "midi": 77,
          "time": 80.8023255813874,
          "velocity": 0.14173228346456693,
          "duration": 0.0813953488371908
        },
        {
          "name": "G2",
          "midi": 43,
          "time": 80.84883720929436,
          "velocity": 0.28346456692913385,
          "duration": 0.023255813953483084
        },
        {
          "name": "G5",
          "midi": 79,
          "time": 80.84883720929436,
          "velocity": 0.28346456692913385,
          "duration": 0.15116279069764005
        },
        {
          "name": "G4",
          "midi": 67,
          "time": 80.8604651162711,
          "velocity": 0.33858267716535434,
          "duration": 0.034883720930224626
        },
        {
          "name": "B5",
          "midi": 83,
          "time": 80.8604651162711,
          "velocity": 0.2283464566929134,
          "duration": 0.0813953488371908
        },
        {
          "name": "D5",
          "midi": 74,
          "time": 80.87209302324784,
          "velocity": 0.41732283464566927,
          "duration": 0.12790697674415696
        },
        {
          "name": "F6",
          "midi": 89,
          "time": 80.87209302324784,
          "velocity": 0.1732283464566929,
          "duration": 0.0813953488371908
        },
        {
          "name": "D4",
          "midi": 62,
          "time": 80.88372093022458,
          "velocity": 0.15748031496062992,
          "duration": 0.034883720930224626
        },
        {
          "name": "G#4",
          "midi": 68,
          "time": 80.88372093022458,
          "velocity": 0.25984251968503935,
          "duration": 0.023255813953483084
        },
        {
          "name": "G3",
          "midi": 55,
          "time": 80.90697674417807,
          "velocity": 0.3779527559055118,
          "duration": 0.023255813953483084
        },
        {
          "name": "B4",
          "midi": 71,
          "time": 80.93023255813155,
          "velocity": 0.11023622047244094,
          "duration": 0.034883720930224626
        },
        {
          "name": "A3",
          "midi": 57,
          "time": 80.94186046510829,
          "velocity": 0.31496062992125984,
          "duration": 0.023255813953483084
        },
        {
          "name": "G4",
          "midi": 67,
          "time": 80.95348837208503,
          "velocity": 0.25196850393700787,
          "duration": 0.023255813953483084
        },
        {
          "name": "G#3",
          "midi": 56,
          "time": 80.96511627906177,
          "velocity": 0.36220472440944884,
          "duration": 0.034883720930224626
        },
        {
          "name": "D#4",
          "midi": 63,
          "time": 80.96511627906177,
          "velocity": 0.23622047244094488,
          "duration": 0.023255813953483084
        },
        {
          "name": "A#4",
          "midi": 70,
          "time": 80.98837209301526,
          "velocity": 0.1889763779527559,
          "duration": 0.11627906976741542
        },
        {
          "name": "A3",
          "midi": 57,
          "time": 81.02325581394548,
          "velocity": 0.3464566929133858,
          "duration": 0.04651162790696617
        },
        {
          "name": "G#4",
          "midi": 68,
          "time": 81.02325581394548,
          "velocity": 0.2440944881889764,
          "duration": 0.034883720930224626
        },
        {
          "name": "D4",
          "midi": 62,
          "time": 81.03488372092222,
          "velocity": 0.2125984251968504,
          "duration": 0.034883720930224626
        },
        {
          "name": "G5",
          "midi": 79,
          "time": 81.0581395348757,
          "velocity": 0.4330708661417323,
          "duration": 0.7325581395347598
        },
        {
          "name": "G2",
          "midi": 43,
          "time": 81.09302325580593,
          "velocity": 0.29133858267716534,
          "duration": 0.023255813953483084
        },
        {
          "name": "C#5",
          "midi": 73,
          "time": 81.09302325580593,
          "velocity": 0.2283464566929134,
          "duration": 0.034883720930224626
        },
        {
          "name": "F#6",
          "midi": 90,
          "time": 81.09302325580593,
          "velocity": 0.23622047244094488,
          "duration": 0.023255813953483084
        },
        {
          "name": "C7",
          "midi": 96,
          "time": 81.09302325580593,
          "velocity": 0.25196850393700787,
          "duration": 0.12790697674415696
        },
        {
          "name": "G#4",
          "midi": 68,
          "time": 81.10465116278267,
          "velocity": 0.3779527559055118,
          "duration": 0.023255813953483084
        },
        {
          "name": "D6",
          "midi": 86,
          "time": 81.10465116278267,
          "velocity": 0.07874015748031496,
          "duration": 0.034883720930224626
        },
        {
          "name": "C#7",
          "midi": 97,
          "time": 81.10465116278267,
          "velocity": 0.14173228346456693,
          "duration": 0.034883720930224626
        },
        {
          "name": "G#3",
          "midi": 56,
          "time": 81.11627906975941,
          "velocity": 0.2755905511811024,
          "duration": 0.034883720930224626
        },
        {
          "name": "F6",
          "midi": 89,
          "time": 81.11627906975941,
          "velocity": 0.30708661417322836,
          "duration": 0.034883720930224626
        },
        {
          "name": "G#6",
          "midi": 92,
          "time": 81.11627906975941,
          "velocity": 0.1968503937007874,
          "duration": 0.10465116279067388
        },
        {
          "name": "B6",
          "midi": 95,
          "time": 81.11627906975941,
          "velocity": 0.2755905511811024,
          "duration": 0.39534883720925507
        },
        {
          "name": "D3",
          "midi": 50,
          "time": 81.12790697673616,
          "velocity": 0.2440944881889764,
          "duration": 0.023255813953483084
        },
        {
          "name": "D#4",
          "midi": 63,
          "time": 81.12790697673616,
          "velocity": 0.33858267716535434,
          "duration": 0.034883720930224626
        },
        {
          "name": "F#6",
          "midi": 90,
          "time": 81.12790697673616,
          "velocity": 0.33070866141732286,
          "duration": 0.04651162790696617
        },
        {
          "name": "A6",
          "midi": 93,
          "time": 81.1395348837129,
          "velocity": 0.4015748031496063,
          "duration": 0.5813953488371197
        },
        {
          "name": "G#2",
          "midi": 44,
          "time": 81.15116279068964,
          "velocity": 0.28346456692913385,
          "duration": 0.023255813953483084
        },
        {
          "name": "D#3",
          "midi": 51,
          "time": 81.15116279068964,
          "velocity": 0.25984251968503935,
          "duration": 0.023255813953483084
        },
        {
          "name": "C#7",
          "midi": 97,
          "time": 81.15116279068964,
          "velocity": 0.2755905511811024,
          "duration": 0.034883720930224626
        },
        {
          "name": "G#3",
          "midi": 56,
          "time": 81.16279069766638,
          "velocity": 0.3464566929133858,
          "duration": 0.023255813953483084
        },
        {
          "name": "C5",
          "midi": 72,
          "time": 81.16279069766638,
          "velocity": 0.4094488188976378,
          "duration": 0.034883720930224626
        },
        {
          "name": "F5",
          "midi": 77,
          "time": 81.16279069766638,
          "velocity": 0.2204724409448819,
          "duration": 0.04651162790696617
        },
        {
          "name": "A5",
          "midi": 81,
          "time": 81.16279069766638,
          "velocity": 0.11023622047244094,
          "duration": 0.04651162790696617
        },
        {
          "name": "F4",
          "midi": 65,
          "time": 81.17441860464312,
          "velocity": 0.31496062992125984,
          "duration": 0.034883720930224626
        },
        {
          "name": "D7",
          "midi": 98,
          "time": 81.17441860464312,
          "velocity": 0.2677165354330709,
          "duration": 0.05813953488370771
        },
        {
          "name": "F3",
          "midi": 53,
          "time": 81.1976744185966,
          "velocity": 0.3464566929133858,
          "duration": 0.023255813953483084
        },
        {
          "name": "F7",
          "midi": 101,
          "time": 81.1976744185966,
          "velocity": 0.2755905511811024,
          "duration": 0.6744186046510521
        },
        {
          "name": "G4",
          "midi": 67,
          "time": 81.20930232557335,
          "velocity": 0.36220472440944884,
          "duration": 0.44186046511622123
        },
        {
          "name": "D5",
          "midi": 74,
          "time": 81.20930232557335,
          "velocity": 0.44881889763779526,
          "duration": 0.6279069767440859
        },
        {
          "name": "F#7",
          "midi": 102,
          "time": 81.20930232557335,
          "velocity": 0.12598425196850394,
          "duration": 0.2906976744185812
        },
        {
          "name": "G3",
          "midi": 55,
          "time": 81.22093023255009,
          "velocity": 0.49606299212598426,
          "duration": 0.6162790697673444
        },
        {
          "name": "D#4",
          "midi": 63,
          "time": 81.22093023255009,
          "velocity": 0.25196850393700787,
          "duration": 0.15116279069766847
        },
        {
          "name": "C#7",
          "midi": 97,
          "time": 81.22093023255009,
          "velocity": 0.11811023622047244,
          "duration": 0.06976744186046346
        },
        {
          "name": "B5",
          "midi": 83,
          "time": 81.23255813952683,
          "velocity": 0.31496062992125984,
          "duration": 0.5697674418603782
        },
        {
          "name": "C7",
          "midi": 96,
          "time": 81.29069767441055,
          "velocity": 0.14960629921259844,
          "duration": 0.03488372093023884
        },
        {
          "name": "C#7",
          "midi": 97,
          "time": 81.32558139534079,
          "velocity": 0.2047244094488189,
          "duration": 0.034883720930224626
        },
        {
          "name": "G2",
          "midi": 43,
          "time": 81.33720930231753,
          "velocity": 0.2755905511811024,
          "duration": 0.023255813953483084
        },
        {
          "name": "D7",
          "midi": 98,
          "time": 81.33720930231753,
          "velocity": 0.14173228346456693,
          "duration": 0.10465116279068809
        },
        {
          "name": "C7",
          "midi": 96,
          "time": 81.36046511627102,
          "velocity": 0.2125984251968504,
          "duration": 0.12790697674417117
        },
        {
          "name": "D#7",
          "midi": 99,
          "time": 81.36046511627102,
          "velocity": 0.11023622047244094,
          "duration": 0.18604651162787889
        },
        {
          "name": "D#4",
          "midi": 63,
          "time": 81.3837209302245,
          "velocity": 0.25984251968503935,
          "duration": 0.09302325581394655
        },
        {
          "name": "F6",
          "midi": 89,
          "time": 81.39534883720124,
          "velocity": 0.1889763779527559,
          "duration": 0.18604651162787889
        },
        {
          "name": "G2",
          "midi": 43,
          "time": 81.44186046510822,
          "velocity": 0.2283464566929134,
          "duration": 0.023255813953483084
        },
        {
          "name": "C#7",
          "midi": 97,
          "time": 81.48837209301519,
          "velocity": 0.07874015748031496,
          "duration": 0.034883720930224626
        },
        {
          "name": "D#4",
          "midi": 63,
          "time": 81.49999999999193,
          "velocity": 0.18110236220472442,
          "duration": 0.05813953488370771
        },
        {
          "name": "A#4",
          "midi": 70,
          "time": 81.49999999999193,
          "velocity": 0.07086614173228346,
          "duration": 0.034883720930224626
        },
        {
          "name": "F#7",
          "midi": 102,
          "time": 81.52325581394541,
          "velocity": 0.16535433070866143,
          "duration": 0.1627906976743816
        },
        {
          "name": "G#6",
          "midi": 92,
          "time": 81.5465116278989,
          "velocity": 0.2992125984251969,
          "duration": 0.17441860465112313
        },
        {
          "name": "F#6",
          "midi": 90,
          "time": 81.55813953487564,
          "velocity": 0.10236220472440945,
          "duration": 0.034883720930224626
        },
        {
          "name": "C7",
          "midi": 96,
          "time": 81.56976744185238,
          "velocity": 0.12598425196850394,
          "duration": 0.12790697674415696
        },
        {
          "name": "C#1",
          "midi": 25,
          "time": 81.58139534882912,
          "velocity": 0.7165354330708661,
          "duration": 0.011627906976741542
        },
        {
          "name": "B0",
          "midi": 23,
          "time": 81.59302325580586,
          "velocity": 0.6377952755905512,
          "duration": 0.011627906976741542
        },
        {
          "name": "F6",
          "midi": 89,
          "time": 81.59302325580586,
          "velocity": 0.2283464566929134,
          "duration": 0.15116279069764005
        },
        {
          "name": "A0",
          "midi": 21,
          "time": 81.6046511627826,
          "velocity": 0.5511811023622047,
          "duration": 0.011627906976741542
        },
        {
          "name": "D#7",
          "midi": 99,
          "time": 81.6046511627826,
          "velocity": 0.14960629921259844,
          "duration": 0.17441860465112313
        },
        {
          "name": "C5",
          "midi": 72,
          "time": 81.61627906975934,
          "velocity": 0.2047244094488189,
          "duration": 0.034883720930224626
        },
        {
          "name": "D#6",
          "midi": 87,
          "time": 81.61627906975934,
          "velocity": 0.23622047244094488,
          "duration": 0.06976744186044925
        },
        {
          "name": "C#7",
          "midi": 97,
          "time": 81.61627906975934,
          "velocity": 0.11811023622047244,
          "duration": 0.06976744186044925
        },
        {
          "name": "D#4",
          "midi": 63,
          "time": 81.62790697673609,
          "velocity": 0.2125984251968504,
          "duration": 0.20930232558134776
        },
        {
          "name": "F#6",
          "midi": 90,
          "time": 81.62790697673609,
          "velocity": 0.16535433070866143,
          "duration": 0.034883720930224626
        },
        {
          "name": "A#6",
          "midi": 94,
          "time": 81.65116279068957,
          "velocity": 0.07874015748031496,
          "duration": 0.034883720930224626
        },
        {
          "name": "E7",
          "midi": 100,
          "time": 81.65116279068957,
          "velocity": 0.15748031496062992,
          "duration": 0.04651162790696617
        },
        {
          "name": "F5",
          "midi": 77,
          "time": 81.66279069766631,
          "velocity": 0.13385826771653545,
          "duration": 0.05813953488370771
        },
        {
          "name": "F#6",
          "midi": 90,
          "time": 81.67441860464305,
          "velocity": 0.15748031496062992,
          "duration": 0.034883720930224626
        },
        {
          "name": "A6",
          "midi": 93,
          "time": 81.73255813952676,
          "velocity": 0.2283464566929134,
          "duration": 0.04651162790696617
        },
        {
          "name": "F#7",
          "midi": 102,
          "time": 81.75581395348024,
          "velocity": 0.2283464566929134,
          "duration": 0.1395348837208985
        },
        {
          "name": "C#7",
          "midi": 97,
          "time": 81.76744186045698,
          "velocity": 0.2755905511811024,
          "duration": 0.1395348837208985
        },
        {
          "name": "E7",
          "midi": 100,
          "time": 81.77906976743373,
          "velocity": 0.14173228346456693,
          "duration": 0.05813953488370771
        },
        {
          "name": "D7",
          "midi": 98,
          "time": 81.79069767441047,
          "velocity": 0.2125984251968504,
          "duration": 0.0813953488371908
        },
        {
          "name": "C7",
          "midi": 96,
          "time": 81.82558139534069,
          "velocity": 0.2992125984251969,
          "duration": 0.0813953488371908
        },
        {
          "name": "G#3",
          "midi": 56,
          "time": 81.83720930231743,
          "velocity": 0.4881889763779528,
          "duration": 0.10465116279067388
        },
        {
          "name": "B4",
          "midi": 71,
          "time": 81.83720930231743,
          "velocity": 0.2125984251968504,
          "duration": 0.034883720930224626
        },
        {
          "name": "D#7",
          "midi": 99,
          "time": 81.83720930231743,
          "velocity": 0.15748031496062992,
          "duration": 0.06976744186044925
        },
        {
          "name": "G7",
          "midi": 103,
          "time": 81.83720930231743,
          "velocity": 0.13385826771653545,
          "duration": 0.034883720930224626
        },
        {
          "name": "D#4",
          "midi": 63,
          "time": 81.84883720929417,
          "velocity": 0.2204724409448819,
          "duration": 0.04651162790696617
        },
        {
          "name": "D5",
          "midi": 74,
          "time": 81.84883720929417,
          "velocity": 0.3858267716535433,
          "duration": 0.6279069767441001
        },
        {
          "name": "E7",
          "midi": 100,
          "time": 81.84883720929417,
          "velocity": 0.2755905511811024,
          "duration": 0.05813953488370771
        },
        {
          "name": "A6",
          "midi": 93,
          "time": 81.86046511627092,
          "velocity": 0.14960629921259844,
          "duration": 0.12790697674415696
        },
        {
          "name": "A#6",
          "midi": 94,
          "time": 81.86046511627092,
          "velocity": 0.2440944881889764,
          "duration": 0.06976744186044925
        },
        {
          "name": "A#4",
          "midi": 70,
          "time": 81.87209302324766,
          "velocity": 0.2440944881889764,
          "duration": 0.0813953488371908
        },
        {
          "name": "D#6",
          "midi": 87,
          "time": 81.87209302324766,
          "velocity": 0.09448818897637795,
          "duration": 0.034883720930224626
        },
        {
          "name": "G6",
          "midi": 91,
          "time": 81.87209302324766,
          "velocity": 0.13385826771653545,
          "duration": 0.12790697674415696
        },
        {
          "name": "B2",
          "midi": 47,
          "time": 81.89534883720114,
          "velocity": 0.2204724409448819,
          "duration": 0.034883720930224626
        },
        {
          "name": "D4",
          "midi": 62,
          "time": 81.89534883720114,
          "velocity": 0.23622047244094488,
          "duration": 0.3488372093022605
        },
        {
          "name": "G4",
          "midi": 67,
          "time": 81.93023255813137,
          "velocity": 0.2677165354330709,
          "duration": 0.04651162790696617
        },
        {
          "name": "F#3",
          "midi": 54,
          "time": 81.95348837208485,
          "velocity": 0.33858267716535434,
          "duration": 0.034883720930224626
        },
        {
          "name": "B4",
          "midi": 71,
          "time": 81.96511627906159,
          "velocity": 0.18110236220472442,
          "duration": 0.034883720930224626
        },
        {
          "name": "G#4",
          "midi": 68,
          "time": 81.97674418603833,
          "velocity": 0.23622047244094488,
          "duration": 0.034883720930224626
        },
        {
          "name": "G5",
          "midi": 79,
          "time": 81.97674418603833,
          "velocity": 0.3937007874015748,
          "duration": 0.453488372092977
        },
        {
          "name": "G4",
          "midi": 67,
          "time": 81.99999999999181,
          "velocity": 0.41732283464566927,
          "duration": 0.23255813953484505
        },
        {
          "name": "A#4",
          "midi": 70,
          "time": 81.99999999999181,
          "velocity": 0.18110236220472442,
          "duration": 0.10465116279067388
        },
        {
          "name": "G3",
          "midi": 55,
          "time": 82.01162790696856,
          "velocity": 0.44881889763779526,
          "duration": 0.23255813953484505
        },
        {
          "name": "A6",
          "midi": 93,
          "time": 82.01162790696856,
          "velocity": 0.4409448818897638,
          "duration": 0.27906976744182543
        },
        {
          "name": "F7",
          "midi": 101,
          "time": 82.0232558139453,
          "velocity": 0.25196850393700787,
          "duration": 0.11627906976741542
        },
        {
          "name": "C7",
          "midi": 96,
          "time": 82.03488372092204,
          "velocity": 0.25984251968503935,
          "duration": 0.04651162790696617
        },
        {
          "name": "B6",
          "midi": 95,
          "time": 82.04651162789878,
          "velocity": 0.33858267716535434,
          "duration": 0.19767441860462043
        },
        {
          "name": "D#7",
          "midi": 99,
          "time": 82.04651162789878,
          "velocity": 0.18110236220472442,
          "duration": 0.05813953488370771
        },
        {
          "name": "F6",
          "midi": 89,
          "time": 82.05813953487552,
          "velocity": 0.18110236220472442,
          "duration": 0.04651162790696617
        },
        {
          "name": "D7",
          "midi": 98,
          "time": 82.05813953487552,
          "velocity": 0.2755905511811024,
          "duration": 0.09302325581393234
        },
        {
          "name": "C#7",
          "midi": 97,
          "time": 82.081395348829,
          "velocity": 0.3228346456692913,
          "duration": 0.04651162790696617
        },
        {
          "name": "F#7",
          "midi": 102,
          "time": 82.09302325580575,
          "velocity": 0.10236220472440945,
          "duration": 0.06976744186044925
        },
        {
          "name": "B5",
          "midi": 83,
          "time": 82.10465116278249,
          "velocity": 0.11811023622047244,
          "duration": 0.12790697674417117
        },
        {
          "name": "F6",
          "midi": 89,
          "time": 82.11627906975923,
          "velocity": 0.14173228346456693,
          "duration": 0.09302325581394655
        },
        {
          "name": "C7",
          "midi": 96,
          "time": 82.12790697673597,
          "velocity": 0.31496062992125984,
          "duration": 0.19767441860463464
        },
        {
          "name": "A#4",
          "midi": 70,
          "time": 82.17441860464294,
          "velocity": 0.14960629921259844,
          "duration": 0.04651162790698038
        },
        {
          "name": "F4",
          "midi": 65,
          "time": 82.2441860465034,
          "velocity": 0.4094488188976378,
          "duration": 0.05813953488372192
        },
        {
          "name": "C5",
          "midi": 72,
          "time": 82.2441860465034,
          "velocity": 0.1732283464566929,
          "duration": 0.05813953488372192
        },
        {
          "name": "A#6",
          "midi": 94,
          "time": 82.2441860465034,
          "velocity": 0.2047244094488189,
          "duration": 0.11627906976742963
        },
        {
          "name": "C#7",
          "midi": 97,
          "time": 82.2441860465034,
          "velocity": 0.13385826771653545,
          "duration": 0.05813953488372192
        },
        {
          "name": "F3",
          "midi": 53,
          "time": 82.25581395348014,
          "velocity": 0.4094488188976378,
          "duration": 0.04651162790698038
        },
        {
          "name": "A5",
          "midi": 81,
          "time": 82.25581395348014,
          "velocity": 0.13385826771653545,
          "duration": 0.03488372093023884
        },
        {
          "name": "D#3",
          "midi": 51,
          "time": 82.31395348836386,
          "velocity": 0.41732283464566927,
          "duration": 0.27906976744182543
        },
        {
          "name": "D#4",
          "midi": 63,
          "time": 82.31395348836386,
          "velocity": 0.4645669291338583,
          "duration": 0.20930232558137618
        },
        {
          "name": "A#4",
          "midi": 70,
          "time": 82.31395348836386,
          "velocity": 0.33070866141732286,
          "duration": 0.20930232558137618
        },
        {
          "name": "G#4",
          "midi": 68,
          "time": 82.3255813953406,
          "velocity": 0.25196850393700787,
          "duration": 0.06976744186046346
        },
        {
          "name": "G#6",
          "midi": 92,
          "time": 82.33720930231735,
          "velocity": 0.1968503937007874,
          "duration": 0.25581395348834235
        },
        {
          "name": "G4",
          "midi": 67,
          "time": 82.43023255813131,
          "velocity": 0.25984251968503935,
          "duration": 0.04651162790696617
        },
        {
          "name": "F#5",
          "midi": 78,
          "time": 82.45348837208479,
          "velocity": 0.30708661417322836,
          "duration": 0.023255813953483084
        },
        {
          "name": "G#5",
          "midi": 80,
          "time": 82.45348837208479,
          "velocity": 0.3228346456692913,
          "duration": 0.20930232558134776
        },
        {
          "name": "C6",
          "midi": 84,
          "time": 82.45348837208479,
          "velocity": 0.36220472440944884,
          "duration": 0.20930232558134776
        },
        {
          "name": "D#6",
          "midi": 87,
          "time": 82.45348837208479,
          "velocity": 0.4094488188976378,
          "duration": 0.20930232558134776
        },
        {
          "name": "E6",
          "midi": 88,
          "time": 82.45348837208479,
          "velocity": 0.31496062992125984,
          "duration": 0.034883720930224626
        },
        {
          "name": "G#4",
          "midi": 68,
          "time": 82.47674418603827,
          "velocity": 0.29133858267716534,
          "duration": 0.023255813953483084
        },
        {
          "name": "F5",
          "midi": 77,
          "time": 82.47674418603827,
          "velocity": 0.1968503937007874,
          "duration": 0.04651162790696617
        },
        {
          "name": "G5",
          "midi": 79,
          "time": 82.47674418603827,
          "velocity": 0.25984251968503935,
          "duration": 0.023255813953483084
        },
        {
          "name": "G6",
          "midi": 91,
          "time": 82.49999999999176,
          "velocity": 0.14960629921259844,
          "duration": 0.05813953488370771
        },
        {
          "name": "G#3",
          "midi": 56,
          "time": 82.5116279069685,
          "velocity": 0.30708661417322836,
          "duration": 0.10465116279067388
        },
        {
          "name": "G4",
          "midi": 67,
          "time": 82.5116279069685,
          "velocity": 0.29133858267716534,
          "duration": 0.04651162790696617
        },
        {
          "name": "F#5",
          "midi": 78,
          "time": 82.5116279069685,
          "velocity": 0.18110236220472442,
          "duration": 0.034883720930224626
        },
        {
          "name": "G1",
          "midi": 31,
          "time": 82.52325581394524,
          "velocity": 0.7244094488188977,
          "duration": 0.023255813953483084
        },
        {
          "name": "A#4",
          "midi": 70,
          "time": 82.53488372092198,
          "velocity": 0.15748031496062992,
          "duration": 0.04651162790696617
        },
        {
          "name": "A#5",
          "midi": 82,
          "time": 82.53488372092198,
          "velocity": 0.25196850393700787,
          "duration": 0.05813953488370771
        },
        {
          "name": "G#1",
          "midi": 32,
          "time": 82.54651162789872,
          "velocity": 0.7637795275590551,
          "duration": 0.6046511627905602
        },
        {
          "name": "C4",
          "midi": 60,
          "time": 82.54651162789872,
          "velocity": 0.2677165354330709,
          "duration": 0.04651162790696617
        },
        {
          "name": "E4",
          "midi": 64,
          "time": 82.5697674418522,
          "velocity": 0.2283464566929134,
          "duration": 0.023255813953483084
        },
        {
          "name": "F#6",
          "midi": 90,
          "time": 82.58139534882895,
          "velocity": 0.11811023622047244,
          "duration": 0.0813953488371908
        },
        {
          "name": "A6",
          "midi": 93,
          "time": 82.58139534882895,
          "velocity": 0.14173228346456693,
          "duration": 0.0813953488371908
        },
        {
          "name": "D4",
          "midi": 62,
          "time": 82.59302325580569,
          "velocity": 0.3464566929133858,
          "duration": 0.023255813953483084
        },
        {
          "name": "D#3",
          "midi": 51,
          "time": 82.60465116278243,
          "velocity": 0.28346456692913385,
          "duration": 0.09302325581393234
        },
        {
          "name": "B5",
          "midi": 83,
          "time": 82.60465116278243,
          "velocity": 0.2283464566929134,
          "duration": 0.034883720930224626
        },
        {
          "name": "C4",
          "midi": 60,
          "time": 82.62790697673591,
          "velocity": 0.2125984251968504,
          "duration": 0.10465116279067388
        },
        {
          "name": "A#4",
          "midi": 70,
          "time": 82.62790697673591,
          "velocity": 0.09448818897637795,
          "duration": 0.10465116279067388
        },
        {
          "name": "A#6",
          "midi": 94,
          "time": 82.62790697673591,
          "velocity": 0.14960629921259844,
          "duration": 0.1395348837208985
        },
        {
          "name": "G#3",
          "midi": 56,
          "time": 82.63953488371266,
          "velocity": 0.2204724409448819,
          "duration": 0.034883720930224626
        },
        {
          "name": "A#5",
          "midi": 82,
          "time": 82.63953488371266,
          "velocity": 0.30708661417322836,
          "duration": 0.34883720930224626
        },
        {
          "name": "D6",
          "midi": 86,
          "time": 82.6511627906894,
          "velocity": 0.1889763779527559,
          "duration": 0.0813953488371908
        },
        {
          "name": "D5",
          "midi": 74,
          "time": 82.66279069766614,
          "velocity": 0.3779527559055118,
          "duration": 0.12790697674415696
        },
        {
          "name": "E5",
          "midi": 76,
          "time": 82.66279069766614,
          "velocity": 0.11811023622047244,
          "duration": 0.0813953488371908
        },
        {
          "name": "G5",
          "midi": 79,
          "time": 82.66279069766614,
          "velocity": 0.29133858267716534,
          "duration": 0.17441860465112313
        },
        {
          "name": "F6",
          "midi": 89,
          "time": 82.66279069766614,
          "velocity": 0.14173228346456693,
          "duration": 0.0813953488371908
        },
        {
          "name": "F#4",
          "midi": 66,
          "time": 82.67441860464288,
          "velocity": 0.23622047244094488,
          "duration": 0.034883720930224626
        },
        {
          "name": "G3",
          "midi": 55,
          "time": 82.68604651161962,
          "velocity": 0.2755905511811024,
          "duration": 0.034883720930224626
        },
        {
          "name": "D#3",
          "midi": 51,
          "time": 82.7093023255731,
          "velocity": 0.2992125984251969,
          "duration": 0.04651162790696617
        },
        {
          "name": "A#3",
          "midi": 58,
          "time": 82.73255813952659,
          "velocity": 0.2283464566929134,
          "duration": 0.023255813953483084
        },
        {
          "name": "F5",
          "midi": 77,
          "time": 82.74418604650333,
          "velocity": 0.25196850393700787,
          "duration": 0.11627906976741542
        },
        {
          "name": "F#4",
          "midi": 66,
          "time": 82.75581395348007,
          "velocity": 0.18110236220472442,
          "duration": 0.034883720930224626
        },
        {
          "name": "A#4",
          "midi": 70,
          "time": 82.75581395348007,
          "velocity": 0.3228346456692913,
          "duration": 0.10465116279067388
        },
        {
          "name": "G3",
          "midi": 55,
          "time": 82.76744186045681,
          "velocity": 0.3464566929133858,
          "duration": 0.023255813953483084
        },
        {
          "name": "D#4",
          "midi": 63,
          "time": 82.77906976743355,
          "velocity": 0.33858267716535434,
          "duration": 0.034883720930224626
        },
        {
          "name": "G#4",
          "midi": 68,
          "time": 82.77906976743355,
          "velocity": 0.12598425196850394,
          "duration": 0.034883720930224626
        },
        {
          "name": "F#4",
          "midi": 66,
          "time": 82.80232558138704,
          "velocity": 0.13385826771653545,
          "duration": 0.034883720930224626
        },
        {
          "name": "D5",
          "midi": 74,
          "time": 82.80232558138704,
          "velocity": 0.1889763779527559,
          "duration": 0.04651162790696617
        },
        {
          "name": "D#3",
          "midi": 51,
          "time": 82.81395348836378,
          "velocity": 0.5039370078740157,
          "duration": 0.11627906976741542
        },
        {
          "name": "A3",
          "midi": 57,
          "time": 82.82558139534052,
          "velocity": 0.33858267716535434,
          "duration": 0.023255813953483084
        },
        {
          "name": "F#4",
          "midi": 66,
          "time": 82.848837209294,
          "velocity": 0.2283464566929134,
          "duration": 0.034883720930224626
        },
        {
          "name": "D#5",
          "midi": 75,
          "time": 82.848837209294,
          "velocity": 0.15748031496062992,
          "duration": 0.034883720930224626
        },
        {
          "name": "C4",
          "midi": 60,
          "time": 82.86046511627075,
          "velocity": 0.18110236220472442,
          "duration": 0.034883720930224626
        },
        {
          "name": "C6",
          "midi": 84,
          "time": 82.86046511627075,
          "velocity": 0.1732283464566929,
          "duration": 0.06976744186044925
        },
        {
          "name": "D5",
          "midi": 74,
          "time": 82.88372093022423,
          "velocity": 0.2283464566929134,
          "duration": 0.034883720930224626
        },
        {
          "name": "A#4",
          "midi": 70,
          "time": 82.91860465115445,
          "velocity": 0.2992125984251969,
          "duration": 0.05813953488370771
        },
        {
          "name": "D#4",
          "midi": 63,
          "time": 82.9302325581312,
          "velocity": 0.2992125984251969,
          "duration": 0.05813953488370771
        },
        {
          "name": "D5",
          "midi": 74,
          "time": 82.9302325581312,
          "velocity": 0.4015748031496063,
          "duration": 0.0813953488371908
        },
        {
          "name": "A6",
          "midi": 93,
          "time": 82.9302325581312,
          "velocity": 0.11023622047244094,
          "duration": 0.034883720930224626
        },
        {
          "name": "G3",
          "midi": 55,
          "time": 82.94186046510794,
          "velocity": 0.5039370078740157,
          "duration": 0.05813953488370771
        },
        {
          "name": "C4",
          "midi": 60,
          "time": 82.94186046510794,
          "velocity": 0.2755905511811024,
          "duration": 0.034883720930224626
        },
        {
          "name": "G5",
          "midi": 79,
          "time": 82.94186046510794,
          "velocity": 0.2677165354330709,
          "duration": 0.18604651162786467
        },
        {
          "name": "B6",
          "midi": 95,
          "time": 82.94186046510794,
          "velocity": 0.2204724409448819,
          "duration": 0.04651162790696617
        },
        {
          "name": "D7",
          "midi": 98,
          "time": 82.94186046510794,
          "velocity": 0.1968503937007874,
          "duration": 0.06976744186044925
        },
        {
          "name": "E7",
          "midi": 100,
          "time": 82.94186046510794,
          "velocity": 0.1732283464566929,
          "duration": 0.05813953488370771
        },
        {
          "name": "F7",
          "midi": 101,
          "time": 82.94186046510794,
          "velocity": 0.2755905511811024,
          "duration": 0.05813953488370771
        },
        {
          "name": "F#7",
          "midi": 102,
          "time": 82.94186046510794,
          "velocity": 0.07874015748031496,
          "duration": 0.04651162790696617
        },
        {
          "name": "C#7",
          "midi": 97,
          "time": 82.95348837208468,
          "velocity": 0.15748031496062992,
          "duration": 0.05813953488370771
        },
        {
          "name": "B5",
          "midi": 83,
          "time": 82.96511627906142,
          "velocity": 0.10236220472440945,
          "duration": 0.034883720930224626
        },
        {
          "name": "D#7",
          "midi": 99,
          "time": 82.96511627906142,
          "velocity": 0.18110236220472442,
          "duration": 0.04651162790696617
        },
        {
          "name": "A#4",
          "midi": 70,
          "time": 82.9883720930149,
          "velocity": 0.12598425196850394,
          "duration": 0.034883720930224626
        },
        {
          "name": "E5",
          "midi": 76,
          "time": 82.9883720930149,
          "velocity": 0.25196850393700787,
          "duration": 0.034883720930224626
        },
        {
          "name": "G#5",
          "midi": 80,
          "time": 82.9883720930149,
          "velocity": 0.13385826771653545,
          "duration": 0.034883720930224626
        },
        {
          "name": "A#5",
          "midi": 82,
          "time": 82.99999999999164,
          "velocity": 0.2755905511811024,
          "duration": 0.24418604651157239
        },
        {
          "name": "D#5",
          "midi": 75,
          "time": 83.02325581394513,
          "velocity": 0.3464566929133858,
          "duration": 0.17441860465112313
        },
        {
          "name": "A5",
          "midi": 81,
          "time": 83.02325581394513,
          "velocity": 0.11811023622047244,
          "duration": 0.06976744186044925
        },
        {
          "name": "D4",
          "midi": 62,
          "time": 83.03488372092187,
          "velocity": 0.3543307086614173,
          "duration": 0.034883720930224626
        },
        {
          "name": "C7",
          "midi": 96,
          "time": 83.03488372092187,
          "velocity": 0.14960629921259844,
          "duration": 0.0813953488371908
        },
        {
          "name": "G4",
          "midi": 67,
          "time": 83.04651162789861,
          "velocity": 0.4881889763779528,
          "duration": 0.10465116279067388
        },
        {
          "name": "D#7",
          "midi": 99,
          "time": 83.04651162789861,
          "velocity": 0.23622047244094488,
          "duration": 0.05813953488370771
        },
        {
          "name": "E7",
          "midi": 100,
          "time": 83.04651162789861,
          "velocity": 0.14173228346456693,
          "duration": 0.04651162790696617
        },
        {
          "name": "D7",
          "midi": 98,
          "time": 83.05813953487535,
          "velocity": 0.16535433070866143,
          "duration": 0.034883720930224626
        },
        {
          "name": "F#3",
          "midi": 54,
          "time": 83.0697674418521,
          "velocity": 0.41732283464566927,
          "duration": 0.023255813953483084
        },
        {
          "name": "D#4",
          "midi": 63,
          "time": 83.0697674418521,
          "velocity": 0.25984251968503935,
          "duration": 0.034883720930224626
        },
        {
          "name": "B6",
          "midi": 95,
          "time": 83.0697674418521,
          "velocity": 0.13385826771653545,
          "duration": 0.034883720930224626
        },
        {
          "name": "F7",
          "midi": 101,
          "time": 83.08139534882883,
          "velocity": 0.1732283464566929,
          "duration": 0.034883720930224626
        },
        {
          "name": "G3",
          "midi": 55,
          "time": 83.09302325580558,
          "velocity": 0.48031496062992124,
          "duration": 0.04651162790696617
        },
        {
          "name": "D5",
          "midi": 74,
          "time": 83.09302325580558,
          "velocity": 0.2283464566929134,
          "duration": 0.023255813953483084
        },
        {
          "name": "A6",
          "midi": 93,
          "time": 83.09302325580558,
          "velocity": 0.2047244094488189,
          "duration": 0.034883720930224626
        },
        {
          "name": "F5",
          "midi": 77,
          "time": 83.10465116278232,
          "velocity": 0.07874015748031496,
          "duration": 0.034883720930224626
        },
        {
          "name": "G1",
          "midi": 31,
          "time": 83.15116279068928,
          "velocity": 0.7165354330708661,
          "duration": 0.011627906976741542
        },
        {
          "name": "A#4",
          "midi": 70,
          "time": 83.15116279068928,
          "velocity": 0.1889763779527559,
          "duration": 0.05813953488370771
        },
        {
          "name": "F#1",
          "midi": 30,
          "time": 83.16279069766603,
          "velocity": 0.6141732283464567,
          "duration": 0.011627906976741542
        },
        {
          "name": "G4",
          "midi": 67,
          "time": 83.17441860464277,
          "velocity": 0.4094488188976378,
          "duration": 0.06976744186044925
        },
        {
          "name": "F#3",
          "midi": 54,
          "time": 83.18604651161951,
          "velocity": 0.48031496062992124,
          "duration": 0.034883720930224626
        },
        {
          "name": "F#1",
          "midi": 30,
          "time": 83.19767441859625,
          "velocity": 0.6614173228346457,
          "duration": 0.011627906976741542
        },
        {
          "name": "D5",
          "midi": 74,
          "time": 83.19767441859625,
          "velocity": 0.44881889763779526,
          "duration": 0.2674418604650839
        },
        {
          "name": "F5",
          "midi": 77,
          "time": 83.19767441859625,
          "velocity": 0.23622047244094488,
          "duration": 0.6976744186045352
        },
        {
          "name": "G1",
          "midi": 31,
          "time": 83.20930232557299,
          "velocity": 0.7716535433070866,
          "duration": 0.6279069767440859
        },
        {
          "name": "A6",
          "midi": 93,
          "time": 83.20930232557299,
          "velocity": 0.2283464566929134,
          "duration": 0.09302325581393234
        },
        {
          "name": "G3",
          "midi": 55,
          "time": 83.22093023254973,
          "velocity": 0.5039370078740157,
          "duration": 0.04651162790696617
        },
        {
          "name": "D#4",
          "midi": 63,
          "time": 83.22093023254973,
          "velocity": 0.33070866141732286,
          "duration": 0.12790697674415696
        },
        {
          "name": "B5",
          "midi": 83,
          "time": 83.22093023254973,
          "velocity": 0.1968503937007874,
          "duration": 0.05813953488370771
        },
        {
          "name": "G#4",
          "midi": 68,
          "time": 83.23255813952647,
          "velocity": 0.3464566929133858,
          "duration": 0.034883720930224626
        },
        {
          "name": "B6",
          "midi": 95,
          "time": 83.23255813952647,
          "velocity": 0.28346456692913385,
          "duration": 0.06976744186044925
        },
        {
          "name": "C#7",
          "midi": 97,
          "time": 83.24418604650322,
          "velocity": 0.12598425196850394,
          "duration": 0.034883720930224626
        },
        {
          "name": "A#5",
          "midi": 82,
          "time": 83.25581395347996,
          "velocity": 0.18110236220472442,
          "duration": 0.034883720930224626
        },
        {
          "name": "G3",
          "midi": 55,
          "time": 83.29069767441018,
          "velocity": 0.5118110236220472,
          "duration": 0.17441860465115155
        },
        {
          "name": "B5",
          "midi": 83,
          "time": 83.29069767441018,
          "velocity": 0.18110236220472442,
          "duration": 0.04651162790696617
        },
        {
          "name": "C#5",
          "midi": 73,
          "time": 83.31395348836367,
          "velocity": 0.14960629921259844,
          "duration": 0.04651162790696617
        },
        {
          "name": "G#5",
          "midi": 80,
          "time": 83.31395348836367,
          "velocity": 0.12598425196850394,
          "duration": 0.034883720930224626
        },
        {
          "name": "A#5",
          "midi": 82,
          "time": 83.31395348836367,
          "velocity": 0.15748031496062992,
          "duration": 0.04651162790696617
        },
        {
          "name": "G6",
          "midi": 91,
          "time": 83.33720930231715,
          "velocity": 0.33858267716535434,
          "duration": 0.13953488372092693
        },
        {
          "name": "A4",
          "midi": 69,
          "time": 83.34883720929389,
          "velocity": 0.2283464566929134,
          "duration": 0.023255813953483084
        },
        {
          "name": "G5",
          "midi": 79,
          "time": 83.34883720929389,
          "velocity": 0.4251968503937008,
          "duration": 0.12790697674418539
        },
        {
          "name": "D#4",
          "midi": 63,
          "time": 83.36046511627063,
          "velocity": 0.2677165354330709,
          "duration": 0.13953488372092693
        },
        {
          "name": "B5",
          "midi": 83,
          "time": 83.36046511627063,
          "velocity": 0.28346456692913385,
          "duration": 0.12790697674418539
        },
        {
          "name": "F6",
          "midi": 89,
          "time": 83.36046511627063,
          "velocity": 0.29133858267716534,
          "duration": 0.11627906976744384
        },
        {
          "name": "A6",
          "midi": 93,
          "time": 83.36046511627063,
          "velocity": 0.12598425196850394,
          "duration": 0.09302325581396076
        },
        {
          "name": "F#7",
          "midi": 102,
          "time": 83.37209302324737,
          "velocity": 0.07086614173228346,
          "duration": 0.09302325581396076
        },
        {
          "name": "D#6",
          "midi": 87,
          "time": 83.40697674417761,
          "velocity": 0.11811023622047244,
          "duration": 0.05813953488372192
        },
        {
          "name": "G#4",
          "midi": 68,
          "time": 83.44186046510785,
          "velocity": 0.1889763779527559,
          "duration": 0.06976744186044925
        },
        {
          "name": "C#6",
          "midi": 85,
          "time": 83.44186046510785,
          "velocity": 0.14173228346456693,
          "duration": 0.034883720930224626
        },
        {
          "name": "C#5",
          "midi": 73,
          "time": 83.46511627906133,
          "velocity": 0.15748031496062992,
          "duration": 0.04651162790696617
        },
        {
          "name": "D#5",
          "midi": 75,
          "time": 83.46511627906133,
          "velocity": 0.3700787401574803,
          "duration": 0.06976744186044925
        },
        {
          "name": "G#3",
          "midi": 56,
          "time": 83.49999999999156,
          "velocity": 0.3858267716535433,
          "duration": 0.023255813953483084
        },
        {
          "name": "G4",
          "midi": 67,
          "time": 83.5116279069683,
          "velocity": 0.33858267716535434,
          "duration": 0.06976744186044925
        },
        {
          "name": "G6",
          "midi": 91,
          "time": 83.5116279069683,
          "velocity": 0.2755905511811024,
          "duration": 0.0813953488371908
        },
        {
          "name": "B5",
          "midi": 83,
          "time": 83.52325581394504,
          "velocity": 0.2204724409448819,
          "duration": 0.06976744186044925
        },
        {
          "name": "D6",
          "midi": 86,
          "time": 83.52325581394504,
          "velocity": 0.08661417322834646,
          "duration": 0.04651162790696617
        },
        {
          "name": "A6",
          "midi": 93,
          "time": 83.52325581394504,
          "velocity": 0.2992125984251969,
          "duration": 0.06976744186044925
        },
        {
          "name": "F#3",
          "midi": 54,
          "time": 83.53488372092178,
          "velocity": 0.3464566929133858,
          "duration": 0.023255813953483084
        },
        {
          "name": "D5",
          "midi": 74,
          "time": 83.53488372092178,
          "velocity": 0.49606299212598426,
          "duration": 0.06976744186044925
        },
        {
          "name": "F7",
          "midi": 101,
          "time": 83.53488372092178,
          "velocity": 0.10236220472440945,
          "duration": 0.034883720930224626
        },
        {
          "name": "G3",
          "midi": 55,
          "time": 83.55813953487527,
          "velocity": 0.3937007874015748,
          "duration": 0.04651162790696617
        },
        {
          "name": "G#5",
          "midi": 80,
          "time": 83.58139534882875,
          "velocity": 0.10236220472440945,
          "duration": 0.04651162790696617
        },
        {
          "name": "D#5",
          "midi": 75,
          "time": 83.59302325580549,
          "velocity": 0.1889763779527559,
          "duration": 0.034883720930224626
        },
        {
          "name": "G4",
          "midi": 67,
          "time": 83.60465116278223,
          "velocity": 0.30708661417322836,
          "duration": 0.12790697674417117
        },
        {
          "name": "G6",
          "midi": 91,
          "time": 83.60465116278223,
          "velocity": 0.25196850393700787,
          "duration": 0.09302325581394655
        },
        {
          "name": "A6",
          "midi": 93,
          "time": 83.60465116278223,
          "velocity": 0.3700787401574803,
          "duration": 0.11627906976742963
        },
        {
          "name": "D5",
          "midi": 74,
          "time": 83.61627906975897,
          "velocity": 0.44881889763779526,
          "duration": 0.12790697674417117
        },
        {
          "name": "G5",
          "midi": 79,
          "time": 83.61627906975897,
          "velocity": 0.4251968503937008,
          "duration": 0.09302325581394655
        },
        {
          "name": "B5",
          "midi": 83,
          "time": 83.61627906975897,
          "velocity": 0.2283464566929134,
          "duration": 0.09302325581394655
        },
        {
          "name": "E6",
          "midi": 88,
          "time": 83.61627906975897,
          "velocity": 0.12598425196850394,
          "duration": 0.04651162790698038
        },
        {
          "name": "G3",
          "midi": 55,
          "time": 83.62790697673572,
          "velocity": 0.4330708661417323,
          "duration": 0.06976744186046346
        },
        {
          "name": "D#7",
          "midi": 99,
          "time": 83.62790697673572,
          "velocity": 0.16535433070866143,
          "duration": 0.081395348837205
        },
        {
          "name": "F7",
          "midi": 101,
          "time": 83.66279069766595,
          "velocity": 0.1732283464566929,
          "duration": 0.05813953488370771
        },
        {
          "name": "C#7",
          "midi": 97,
          "time": 83.6744186046427,
          "velocity": 0.10236220472440945,
          "duration": 0.04651162790696617
        },
        {
          "name": "D#4",
          "midi": 63,
          "time": 83.69767441859618,
          "velocity": 0.30708661417322836,
          "duration": 0.17441860465112313
        },
        {
          "name": "G3",
          "midi": 55,
          "time": 83.70930232557292,
          "velocity": 0.4330708661417323,
          "duration": 0.034883720930224626
        },
        {
          "name": "A4",
          "midi": 69,
          "time": 83.72093023254966,
          "velocity": 0.12598425196850394,
          "duration": 0.05813953488370771
        },
        {
          "name": "A#5",
          "midi": 82,
          "time": 83.72093023254966,
          "velocity": 0.11023622047244094,
          "duration": 0.10465116279067388
        },
        {
          "name": "G#3",
          "midi": 56,
          "time": 83.74418604650315,
          "velocity": 0.3543307086614173,
          "duration": 0.04651162790696617
        },
        {
          "name": "D3",
          "midi": 50,
          "time": 83.75581395347989,
          "velocity": 0.3228346456692913,
          "duration": 0.04651162790696617
        },
        {
          "name": "F7",
          "midi": 101,
          "time": 83.76744186045663,
          "velocity": 0.14960629921259844,
          "duration": 0.06976744186044925
        },
        {
          "name": "G#5",
          "midi": 80,
          "time": 83.77906976743337,
          "velocity": 0.08661417322834646,
          "duration": 0.034883720930224626
        },
        {
          "name": "D5",
          "midi": 74,
          "time": 83.79069767441011,
          "velocity": 0.48031496062992124,
          "duration": 0.24418604651157239
        },
        {
          "name": "G3",
          "midi": 55,
          "time": 83.80232558138685,
          "velocity": 0.5118110236220472,
          "duration": 0.05813953488370771
        },
        {
          "name": "G5",
          "midi": 79,
          "time": 83.80232558138685,
          "velocity": 0.4330708661417323,
          "duration": 0.5581395348836082
        },
        {
          "name": "D7",
          "midi": 98,
          "time": 83.80232558138685,
          "velocity": 0.3228346456692913,
          "duration": 0.20930232558134776
        },
        {
          "name": "D#7",
          "midi": 99,
          "time": 83.80232558138685,
          "velocity": 0.2755905511811024,
          "duration": 0.10465116279067388
        },
        {
          "name": "B5",
          "midi": 83,
          "time": 83.8139534883636,
          "velocity": 0.31496062992125984,
          "duration": 0.2209302325580893
        },
        {
          "name": "C7",
          "midi": 96,
          "time": 83.8139534883636,
          "velocity": 0.2283464566929134,
          "duration": 0.04651162790696617
        },
        {
          "name": "E7",
          "midi": 100,
          "time": 83.8139534883636,
          "velocity": 0.1968503937007874,
          "duration": 0.034883720930224626
        },
        {
          "name": "F#7",
          "midi": 102,
          "time": 83.8139534883636,
          "velocity": 0.10236220472440945,
          "duration": 0.04651162790696617
        },
        {
          "name": "B6",
          "midi": 95,
          "time": 83.82558139534034,
          "velocity": 0.4015748031496063,
          "duration": 0.18604651162786467
        },
        {
          "name": "F1",
          "midi": 29,
          "time": 83.83720930231708,
          "velocity": 0.5669291338582677,
          "duration": 0.011627906976741542
        },
        {
          "name": "A6",
          "midi": 93,
          "time": 83.83720930231708,
          "velocity": 0.41732283464566927,
          "duration": 0.3023255813952801
        },
        {
          "name": "C#7",
          "midi": 97,
          "time": 83.86046511627056,
          "velocity": 0.29133858267716534,
          "duration": 0.11627906976741542
        },
        {
          "name": "F7",
          "midi": 101,
          "time": 83.86046511627056,
          "velocity": 0.11811023622047244,
          "duration": 0.04651162790696617
        },
        {
          "name": "D#1",
          "midi": 27,
          "time": 83.8720930232473,
          "velocity": 0.6850393700787402,
          "duration": 0.023255813953483084
        },
        {
          "name": "G3",
          "midi": 55,
          "time": 83.8720930232473,
          "velocity": 0.4645669291338583,
          "duration": 0.04651162790696617
        },
        {
          "name": "C#1",
          "midi": 25,
          "time": 83.89534883720079,
          "velocity": 0.7007874015748031,
          "duration": 0.011627906976741542
        },
        {
          "name": "B0",
          "midi": 23,
          "time": 83.90697674417753,
          "velocity": 0.7244094488188977,
          "duration": 0.023255813953483084
        },
        {
          "name": "D4",
          "midi": 62,
          "time": 83.90697674417753,
          "velocity": 0.2204724409448819,
          "duration": 0.11627906976741542
        },
        {
          "name": "G#4",
          "midi": 68,
          "time": 83.90697674417753,
          "velocity": 0.2677165354330709,
          "duration": 0.023255813953483084
        },
        {
          "name": "F6",
          "midi": 89,
          "time": 83.90697674417753,
          "velocity": 0.09448818897637795,
          "duration": 0.06976744186044925
        },
        {
          "name": "C1",
          "midi": 24,
          "time": 83.93023255813101,
          "velocity": 0.7322834645669292,
          "duration": 0.18604651162786467
        },
        {
          "name": "G3",
          "midi": 55,
          "time": 83.93023255813101,
          "velocity": 0.4094488188976378,
          "duration": 0.023255813953483084
        },
        {
          "name": "F5",
          "midi": 77,
          "time": 83.9534883720845,
          "velocity": 0.07874015748031496,
          "duration": 0.04651162790696617
        },
        {
          "name": "F#4",
          "midi": 66,
          "time": 83.96511627906123,
          "velocity": 0.23622047244094488,
          "duration": 0.023255813953483084
        },
        {
          "name": "G3",
          "midi": 55,
          "time": 83.97674418603798,
          "velocity": 0.44881889763779526,
          "duration": 0.05813953488370771
        },
        {
          "name": "C#7",
          "midi": 97,
          "time": 83.98837209301472,
          "velocity": 0.14960629921259844,
          "duration": 0.05813953488370771
        },
        {
          "name": "D#7",
          "midi": 99,
          "time": 83.99999999999146,
          "velocity": 0.18110236220472442,
          "duration": 0.06976744186044925
        },
        {
          "name": "F7",
          "midi": 101,
          "time": 83.99999999999146,
          "velocity": 0.11811023622047244,
          "duration": 0.034883720930224626
        },
        {
          "name": "F5",
          "midi": 77,
          "time": 84.02325581394494,
          "velocity": 0.2047244094488189,
          "duration": 0.06976744186044925
        },
        {
          "name": "G#2",
          "midi": 44,
          "time": 84.03488372092168,
          "velocity": 0.31496062992125984,
          "duration": 0.023255813953483084
        },
        {
          "name": "F4",
          "midi": 65,
          "time": 84.03488372092168,
          "velocity": 0.3464566929133858,
          "duration": 0.034883720930224626
        },
        {
          "name": "C5",
          "midi": 72,
          "time": 84.03488372092168,
          "velocity": 0.3464566929133858,
          "duration": 0.034883720930224626
        },
        {
          "name": "D#5",
          "midi": 75,
          "time": 84.03488372092168,
          "velocity": 0.15748031496062992,
          "duration": 0.04651162790696617
        },
        {
          "name": "A5",
          "midi": 81,
          "time": 84.03488372092168,
          "velocity": 0.11811023622047244,
          "duration": 0.034883720930224626
        },
        {
          "name": "G#3",
          "midi": 56,
          "time": 84.06976744185191,
          "velocity": 0.4094488188976378,
          "duration": 0.12790697674417117
        },
        {
          "name": "E4",
          "midi": 64,
          "time": 84.06976744185191,
          "velocity": 0.28346456692913385,
          "duration": 0.023255813953483084
        },
        {
          "name": "A4",
          "midi": 69,
          "time": 84.06976744185191,
          "velocity": 0.2677165354330709,
          "duration": 0.023255813953483084
        },
        {
          "name": "D5",
          "midi": 74,
          "time": 84.08139534882865,
          "velocity": 0.30708661417322836,
          "duration": 0.023255813953483084
        },
        {
          "name": "D3",
          "midi": 50,
          "time": 84.09302325580539,
          "velocity": 0.31496062992125984,
          "duration": 0.023255813953483084
        },
        {
          "name": "D#4",
          "midi": 63,
          "time": 84.09302325580539,
          "velocity": 0.3779527559055118,
          "duration": 0.1627906976743958
        },
        {
          "name": "A#4",
          "midi": 70,
          "time": 84.09302325580539,
          "velocity": 0.4015748031496063,
          "duration": 0.1627906976743958
        },
        {
          "name": "C#1",
          "midi": 25,
          "time": 84.11627906975887,
          "velocity": 0.7086614173228346,
          "duration": 0.011627906976741542
        },
        {
          "name": "D#3",
          "midi": 51,
          "time": 84.11627906975887,
          "velocity": 0.44881889763779526,
          "duration": 0.19767441860462043
        },
        {
          "name": "C1",
          "midi": 24,
          "time": 84.12790697673562,
          "velocity": 0.7480314960629921,
          "duration": 0.19767441860462043
        },
        {
          "name": "F5",
          "midi": 77,
          "time": 84.12790697673562,
          "velocity": 0.2125984251968504,
          "duration": 0.081395348837205
        },
        {
          "name": "C#6",
          "midi": 85,
          "time": 84.16279069766584,
          "velocity": 0.1968503937007874,
          "duration": 0.13953488372091272
        },
        {
          "name": "G2",
          "midi": 43,
          "time": 84.22093023254956,
          "velocity": 0.3464566929133858,
          "duration": 0.023255813953483084
        },
        {
          "name": "G#3",
          "midi": 56,
          "time": 84.2325581395263,
          "velocity": 0.3543307086614173,
          "duration": 0.023255813953483084
        },
        {
          "name": "G4",
          "midi": 67,
          "time": 84.25581395347979,
          "velocity": 0.23622047244094488,
          "duration": 0.023255813953483084
        },
        {
          "name": "E4",
          "midi": 64,
          "time": 84.26744186045653,
          "velocity": 0.4015748031496063,
          "duration": 0.023255813953483084
        },
        {
          "name": "A#5",
          "midi": 82,
          "time": 84.26744186045653,
          "velocity": 0.11811023622047244,
          "duration": 0.04651162790696617
        },
        {
          "name": "B5",
          "midi": 83,
          "time": 84.26744186045653,
          "velocity": 0.11811023622047244,
          "duration": 0.05813953488370771
        },
        {
          "name": "G#3",
          "midi": 56,
          "time": 84.27906976743327,
          "velocity": 0.3700787401574803,
          "duration": 0.034883720930224626
        },
        {
          "name": "B4",
          "midi": 71,
          "time": 84.27906976743327,
          "velocity": 0.2125984251968504,
          "duration": 0.034883720930224626
        },
        {
          "name": "D#5",
          "midi": 75,
          "time": 84.27906976743327,
          "velocity": 0.23622047244094488,
          "duration": 0.034883720930224626
        },
        {
          "name": "D6",
          "midi": 86,
          "time": 84.29069767441001,
          "velocity": 0.18110236220472442,
          "duration": 0.05813953488370771
        },
        {
          "name": "D#6",
          "midi": 87,
          "time": 84.29069767441001,
          "velocity": 0.30708661417322836,
          "duration": 0.6046511627905602
        },
        {
          "name": "E6",
          "midi": 88,
          "time": 84.29069767441001,
          "velocity": 0.2125984251968504,
          "duration": 0.04651162790696617
        },
        {
          "name": "F6",
          "midi": 89,
          "time": 84.29069767441001,
          "velocity": 0.13385826771653545,
          "duration": 0.06976744186044925
        },
        {
          "name": "C6",
          "midi": 84,
          "time": 84.30232558138675,
          "velocity": 0.33070866141732286,
          "duration": 0.20930232558134776
        },
        {
          "name": "D5",
          "midi": 74,
          "time": 84.3139534883635,
          "velocity": 0.3228346456692913,
          "duration": 0.034883720930224626
        },
        {
          "name": "B0",
          "midi": 23,
          "time": 84.32558139534024,
          "velocity": 0.6850393700787402,
          "duration": 0.011627906976741542
        },
        {
          "name": "D#5",
          "midi": 75,
          "time": 84.32558139534024,
          "velocity": 0.3700787401574803,
          "duration": 0.18604651162786467
        },
        {
          "name": "G#5",
          "midi": 80,
          "time": 84.32558139534024,
          "velocity": 0.2992125984251969,
          "duration": 0.1627906976743816
        },
        {
          "name": "F#6",
          "midi": 90,
          "time": 84.32558139534024,
          "velocity": 0.18110236220472442,
          "duration": 0.1627906976743816
        },
        {
          "name": "C1",
          "midi": 24,
          "time": 84.33720930231698,
          "velocity": 0.7480314960629921,
          "duration": 0.8255813953486637
        },
        {
          "name": "A3",
          "midi": 57,
          "time": 84.33720930231698,
          "velocity": 0.30708661417322836,
          "duration": 0.023255813953483084
        },
        {
          "name": "D4",
          "midi": 62,
          "time": 84.33720930231698,
          "velocity": 0.2283464566929134,
          "duration": 0.023255813953483084
        },
        {
          "name": "A6",
          "midi": 93,
          "time": 84.33720930231698,
          "velocity": 0.10236220472440945,
          "duration": 0.0813953488371908
        },
        {
          "name": "D#3",
          "midi": 51,
          "time": 84.34883720929372,
          "velocity": 0.3858267716535433,
          "duration": 0.04651162790696617
        },
        {
          "name": "G#4",
          "midi": 68,
          "time": 84.34883720929372,
          "velocity": 0.33070866141732286,
          "duration": 0.15116279069764005
        },
        {
          "name": "G#3",
          "midi": 56,
          "time": 84.36046511627046,
          "velocity": 0.4330708661417323,
          "duration": 0.04651162790696617
        },
        {
          "name": "G2",
          "midi": 43,
          "time": 84.3720930232472,
          "velocity": 0.2992125984251969,
          "duration": 0.023255813953483084
        },
        {
          "name": "D6",
          "midi": 86,
          "time": 84.3720930232472,
          "velocity": 0.2204724409448819,
          "duration": 0.26744186046505547
        },
        {
          "name": "A#5",
          "midi": 82,
          "time": 84.39534883720069,
          "velocity": 0.08661417322834646,
          "duration": 0.034883720930224626
        },
        {
          "name": "D#4",
          "midi": 63,
          "time": 84.40697674417743,
          "velocity": 0.1732283464566929,
          "duration": 0.034883720930224626
        },
        {
          "name": "G#2",
          "midi": 44,
          "time": 84.41860465115417,
          "velocity": 0.33070866141732286,
          "duration": 0.023255813953483084
        },
        {
          "name": "D#3",
          "midi": 51,
          "time": 84.44186046510765,
          "velocity": 0.2755905511811024,
          "duration": 0.034883720930224626
        },
        {
          "name": "A3",
          "midi": 57,
          "time": 84.44186046510765,
          "velocity": 0.2440944881889764,
          "duration": 0.023255813953483084
        },
        {
          "name": "G2",
          "midi": 43,
          "time": 84.46511627906114,
          "velocity": 0.33858267716535434,
          "duration": 0.023255813953483084
        },
        {
          "name": "D4",
          "midi": 62,
          "time": 84.46511627906114,
          "velocity": 0.23622047244094488,
          "duration": 0.05813953488370771
        },
        {
          "name": "G5",
          "midi": 79,
          "time": 84.46511627906114,
          "velocity": 0.2992125984251969,
          "duration": 0.24418604651157239
        },
        {
          "name": "G3",
          "midi": 55,
          "time": 84.49999999999136,
          "velocity": 0.3779527559055118,
          "duration": 0.034883720930224626
        },
        {
          "name": "D5",
          "midi": 74,
          "time": 84.49999999999136,
          "velocity": 0.3779527559055118,
          "duration": 0.10465116279067388
        },
        {
          "name": "B5",
          "midi": 83,
          "time": 84.49999999999136,
          "velocity": 0.15748031496062992,
          "duration": 0.05813953488370771
        },
        {
          "name": "G2",
          "midi": 43,
          "time": 84.5116279069681,
          "velocity": 0.31496062992125984,
          "duration": 0.023255813953483084
        },
        {
          "name": "F6",
          "midi": 89,
          "time": 84.5116279069681,
          "velocity": 0.07874015748031496,
          "duration": 0.0813953488371908
        },
        {
          "name": "F5",
          "midi": 77,
          "time": 84.52325581394484,
          "velocity": 0.07874015748031496,
          "duration": 0.034883720930224626
        },
        {
          "name": "D4",
          "midi": 62,
          "time": 84.53488372092158,
          "velocity": 0.1968503937007874,
          "duration": 0.04651162790696617
        },
        {
          "name": "A#5",
          "midi": 82,
          "time": 84.53488372092158,
          "velocity": 0.08661417322834646,
          "duration": 0.034883720930224626
        },
        {
          "name": "G#4",
          "midi": 68,
          "time": 84.54651162789833,
          "velocity": 0.2677165354330709,
          "duration": 0.04651162790696617
        },
        {
          "name": "A#4",
          "midi": 70,
          "time": 84.54651162789833,
          "velocity": 0.2204724409448819,
          "duration": 0.20930232558134776
        },
        {
          "name": "G3",
          "midi": 55,
          "time": 84.59302325580529,
          "velocity": 0.4645669291338583,
          "duration": 0.034883720930224626
        },
        {
          "name": "G2",
          "midi": 43,
          "time": 84.60465116278203,
          "velocity": 0.31496062992125984,
          "duration": 0.023255813953483084
        },
        {
          "name": "C#5",
          "midi": 73,
          "time": 84.60465116278203,
          "velocity": 0.11811023622047244,
          "duration": 0.04651162790696617
        },
        {
          "name": "D#5",
          "midi": 75,
          "time": 84.60465116278203,
          "velocity": 0.14960629921259844,
          "duration": 0.10465116279067388
        },
        {
          "name": "D4",
          "midi": 62,
          "time": 84.61627906975878,
          "velocity": 0.2204724409448819,
          "duration": 0.0813953488371908
        },
        {
          "name": "G#3",
          "midi": 56,
          "time": 84.62790697673552,
          "velocity": 0.33858267716535434,
          "duration": 0.06976744186044925
        },
        {
          "name": "F5",
          "midi": 77,
          "time": 84.63953488371226,
          "velocity": 0.09448818897637795,
          "duration": 0.034883720930224626
        },
        {
          "name": "E3",
          "midi": 52,
          "time": 84.67441860464248,
          "velocity": 0.2755905511811024,
          "duration": 0.04651162790696617
        },
        {
          "name": "A3",
          "midi": 57,
          "time": 84.69767441859597,
          "velocity": 0.29133858267716534,
          "duration": 0.023255813953483084
        },
        {
          "name": "F5",
          "midi": 77,
          "time": 84.69767441859597,
          "velocity": 0.4015748031496063,
          "duration": 0.05813953488370771
        },
        {
          "name": "A5",
          "midi": 81,
          "time": 84.69767441859597,
          "velocity": 0.23622047244094488,
          "duration": 0.023255813953483084
        },
        {
          "name": "B5",
          "midi": 83,
          "time": 84.70930232557271,
          "velocity": 0.2047244094488189,
          "duration": 0.04651162790696617
        },
        {
          "name": "E6",
          "midi": 88,
          "time": 84.70930232557271,
          "velocity": 0.28346456692913385,
          "duration": 0.034883720930224626
        },
        {
          "name": "G6",
          "midi": 91,
          "time": 84.70930232557271,
          "velocity": 0.09448818897637795,
          "duration": 0.034883720930224626
        },
        {
          "name": "D7",
          "midi": 98,
          "time": 84.70930232557271,
          "velocity": 0.2125984251968504,
          "duration": 0.034883720930224626
        },
        {
          "name": "G4",
          "midi": 67,
          "time": 84.72093023254945,
          "velocity": 0.25984251968503935,
          "duration": 0.023255813953483084
        },
        {
          "name": "D#5",
          "midi": 75,
          "time": 84.72093023254945,
          "velocity": 0.5118110236220472,
          "duration": 0.06976744186044925
        },
        {
          "name": "G5",
          "midi": 79,
          "time": 84.73255813952619,
          "velocity": 0.25984251968503935,
          "duration": 0.023255813953483084
        },
        {
          "name": "C7",
          "midi": 96,
          "time": 84.73255813952619,
          "velocity": 0.10236220472440945,
          "duration": 0.04651162790696617
        },
        {
          "name": "G#3",
          "midi": 56,
          "time": 84.74418604650293,
          "velocity": 0.4409448818897638,
          "duration": 0.05813953488370771
        },
        {
          "name": "G#5",
          "midi": 80,
          "time": 84.74418604650293,
          "velocity": 0.28346456692913385,
          "duration": 0.034883720930224626
        },
        {
          "name": "C6",
          "midi": 84,
          "time": 84.74418604650293,
          "velocity": 0.2283464566929134,
          "duration": 0.034883720930224626
        },
        {
          "name": "F#6",
          "midi": 90,
          "time": 84.74418604650293,
          "velocity": 0.1732283464566929,
          "duration": 0.034883720930224626
        },
        {
          "name": "C#7",
          "midi": 97,
          "time": 84.74418604650293,
          "velocity": 0.10236220472440945,
          "duration": 0.04651162790696617
        },
        {
          "name": "G2",
          "midi": 43,
          "time": 84.75581395347967,
          "velocity": 0.2677165354330709,
          "duration": 0.023255813953483084
        },
        {
          "name": "G4",
          "midi": 67,
          "time": 84.77906976743316,
          "velocity": 0.30708661417322836,
          "duration": 0.034883720930224626
        },
        {
          "name": "B4",
          "midi": 71,
          "time": 84.77906976743316,
          "velocity": 0.07874015748031496,
          "duration": 0.034883720930224626
        },
        {
          "name": "B5",
          "midi": 83,
          "time": 84.77906976743316,
          "velocity": 0.16535433070866143,
          "duration": 0.034883720930224626
        },
        {
          "name": "D6",
          "midi": 86,
          "time": 84.77906976743316,
          "velocity": 0.2283464566929134,
          "duration": 0.04651162790696617
        },
        {
          "name": "F6",
          "midi": 89,
          "time": 84.77906976743316,
          "velocity": 0.11811023622047244,
          "duration": 0.034883720930224626
        },
        {
          "name": "G#2",
          "midi": 44,
          "time": 84.7906976744099,
          "velocity": 0.30708661417322836,
          "duration": 0.023255813953483084
        },
        {
          "name": "D5",
          "midi": 74,
          "time": 84.7906976744099,
          "velocity": 0.2755905511811024,
          "duration": 0.09302325581393234
        },
        {
          "name": "G3",
          "midi": 55,
          "time": 84.80232558138664,
          "velocity": 0.4251968503937008,
          "duration": 0.034883720930224626
        },
        {
          "name": "D#4",
          "midi": 63,
          "time": 84.81395348836338,
          "velocity": 0.2204724409448819,
          "duration": 0.034883720930224626
        },
        {
          "name": "G#4",
          "midi": 68,
          "time": 84.81395348836338,
          "velocity": 0.25984251968503935,
          "duration": 0.023255813953483084
        },
        {
          "name": "A#4",
          "midi": 70,
          "time": 84.81395348836338,
          "velocity": 0.36220472440944884,
          "duration": 0.05813953488370771
        },
        {
          "name": "F5",
          "midi": 77,
          "time": 84.81395348836338,
          "velocity": 0.11811023622047244,
          "duration": 0.05813953488370771
        },
        {
          "name": "G4",
          "midi": 67,
          "time": 84.83720930231686,
          "velocity": 0.3464566929133858,
          "duration": 0.034883720930224626
        },
        {
          "name": "G2",
          "midi": 43,
          "time": 84.8488372092936,
          "velocity": 0.2992125984251969,
          "duration": 0.023255813953483084
        },
        {
          "name": "G3",
          "midi": 55,
          "time": 84.8488372092936,
          "velocity": 0.4094488188976378,
          "duration": 0.04651162790696617
        },
        {
          "name": "G#6",
          "midi": 92,
          "time": 84.86046511627035,
          "velocity": 0.28346456692913385,
          "duration": 0.034883720930224626
        },
        {
          "name": "D#4",
          "midi": 63,
          "time": 84.87209302324709,
          "velocity": 0.2125984251968504,
          "duration": 0.0813953488371908
        },
        {
          "name": "G#4",
          "midi": 68,
          "time": 84.87209302324709,
          "velocity": 0.41732283464566927,
          "duration": 0.034883720930224626
        },
        {
          "name": "D#5",
          "midi": 75,
          "time": 84.87209302324709,
          "velocity": 0.36220472440944884,
          "duration": 0.023255813953483084
        },
        {
          "name": "F6",
          "midi": 89,
          "time": 84.87209302324709,
          "velocity": 0.14173228346456693,
          "duration": 0.04651162790696617
        },
        {
          "name": "A#4",
          "midi": 70,
          "time": 84.88372093022383,
          "velocity": 0.3700787401574803,
          "duration": 0.4418604651161928
        },
        {
          "name": "B5",
          "midi": 83,
          "time": 84.88372093022383,
          "velocity": 0.14173228346456693,
          "duration": 0.05813953488370771
        },
        {
          "name": "A6",
          "midi": 93,
          "time": 84.88372093022383,
          "velocity": 0.14960629921259844,
          "duration": 0.06976744186044925
        },
        {
          "name": "D5",
          "midi": 74,
          "time": 84.89534883720057,
          "velocity": 0.4409448818897638,
          "duration": 0.04651162790696617
        },
        {
          "name": "G5",
          "midi": 79,
          "time": 84.89534883720057,
          "velocity": 0.48031496062992124,
          "duration": 0.4999999999999005
        },
        {
          "name": "G3",
          "midi": 55,
          "time": 84.90697674417731,
          "velocity": 0.49606299212598426,
          "duration": 0.06976744186044925
        },
        {
          "name": "D#6",
          "midi": 87,
          "time": 84.90697674417731,
          "velocity": 0.08661417322834646,
          "duration": 0.034883720930224626
        },
        {
          "name": "D#4",
          "midi": 63,
          "time": 84.97674418603776,
          "velocity": 0.2755905511811024,
          "duration": 0.05813953488370771
        },
        {
          "name": "D6",
          "midi": 86,
          "time": 84.9883720930145,
          "velocity": 0.1889763779527559,
          "duration": 0.034883720930224626
        },
        {
          "name": "G2",
          "midi": 43,
          "time": 84.99999999999125,
          "velocity": 0.2755905511811024,
          "duration": 0.023255813953483084
        },
        {
          "name": "F5",
          "midi": 77,
          "time": 85.01162790696799,
          "velocity": 0.11811023622047244,
          "duration": 0.04651162790696617
        },
        {
          "name": "D5",
          "midi": 74,
          "time": 85.02325581394473,
          "velocity": 0.3937007874015748,
          "duration": 0.3023255813952943
        },
        {
          "name": "G3",
          "midi": 55,
          "time": 85.03488372092147,
          "velocity": 0.4881889763779528,
          "duration": 0.31395348837203585
        },
        {
          "name": "B5",
          "midi": 83,
          "time": 85.03488372092147,
          "velocity": 0.3228346456692913,
          "duration": 0.25581395348832814
        },
        {
          "name": "D6",
          "midi": 86,
          "time": 85.03488372092147,
          "velocity": 0.5196850393700787,
          "duration": 0.360465116279002
        },
        {
          "name": "D#4",
          "midi": 63,
          "time": 85.04651162789821,
          "velocity": 0.29133858267716534,
          "duration": 0.11627906976742963
        },
        {
          "name": "F6",
          "midi": 89,
          "time": 85.05813953487495,
          "velocity": 0.2992125984251969,
          "duration": 0.2441860465115866
        },
        {
          "name": "C#6",
          "midi": 85,
          "time": 85.08139534882844,
          "velocity": 0.12598425196850394,
          "duration": 0.034883720930224626
        },
        {
          "name": "D#6",
          "midi": 87,
          "time": 85.09302325580518,
          "velocity": 0.11811023622047244,
          "duration": 0.034883720930224626
        },
        {
          "name": "C#1",
          "midi": 25,
          "time": 85.16279069766564,
          "velocity": 0.7165354330708661,
          "duration": 0.011627906976741542
        },
        {
          "name": "D1",
          "midi": 26,
          "time": 85.17441860464238,
          "velocity": 0.6771653543307087,
          "duration": 0.011627906976741542
        },
        {
          "name": "D#4",
          "midi": 63,
          "time": 85.17441860464238,
          "velocity": 0.2283464566929134,
          "duration": 0.09302325581393234
        },
        {
          "name": "B0",
          "midi": 23,
          "time": 85.18604651161912,
          "velocity": 0.5826771653543307,
          "duration": 0.011627906976741542
        },
        {
          "name": "A6",
          "midi": 93,
          "time": 85.18604651161912,
          "velocity": 0.13385826771653545,
          "duration": 0.12790697674415696
        },
        {
          "name": "F#7",
          "midi": 102,
          "time": 85.18604651161912,
          "velocity": 0.10236220472440945,
          "duration": 0.034883720930224626
        },
        {
          "name": "G#5",
          "midi": 80,
          "time": 85.19767441859587,
          "velocity": 0.28346456692913385,
          "duration": 0.05813953488370771
        },
        {
          "name": "D#6",
          "midi": 87,
          "time": 85.19767441859587,
          "velocity": 0.1889763779527559,
          "duration": 0.11627906976741542
        },
        {
          "name": "C#7",
          "midi": 97,
          "time": 85.19767441859587,
          "velocity": 0.18110236220472442,
          "duration": 0.06976744186044925
        },
        {
          "name": "C6",
          "midi": 84,
          "time": 85.20930232557261,
          "velocity": 0.15748031496062992,
          "duration": 0.034883720930224626
        },
        {
          "name": "E7",
          "midi": 100,
          "time": 85.22093023254935,
          "velocity": 0.09448818897637795,
          "duration": 0.034883720930224626
        },
        {
          "name": "C#6",
          "midi": 85,
          "time": 85.23255813952609,
          "velocity": 0.23622047244094488,
          "duration": 0.023255813953483084
        },
        {
          "name": "D#5",
          "midi": 75,
          "time": 85.31395348836328,
          "velocity": 0.28346456692913385,
          "duration": 0.04651162790696617
        },
        {
          "name": "D#4",
          "midi": 63,
          "time": 85.32558139534002,
          "velocity": 0.1889763779527559,
          "duration": 0.1395348837208985
        },
        {
          "name": "G#4",
          "midi": 68,
          "time": 85.33720930231677,
          "velocity": 0.2283464566929134,
          "duration": 0.023255813953483084
        },
        {
          "name": "F#3",
          "midi": 54,
          "time": 85.3488372092935,
          "velocity": 0.4251968503937008,
          "duration": 0.023255813953483084
        },
        {
          "name": "D5",
          "midi": 74,
          "time": 85.3488372092935,
          "velocity": 0.41732283464566927,
          "duration": 0.04651162790696617
        },
        {
          "name": "B5",
          "midi": 83,
          "time": 85.3488372092935,
          "velocity": 0.2992125984251969,
          "duration": 0.04651162790696617
        },
        {
          "name": "G4",
          "midi": 67,
          "time": 85.36046511627025,
          "velocity": 0.3228346456692913,
          "duration": 0.04651162790696617
        },
        {
          "name": "F6",
          "midi": 89,
          "time": 85.36046511627025,
          "velocity": 0.2047244094488189,
          "duration": 0.04651162790696617
        },
        {
          "name": "G3",
          "midi": 55,
          "time": 85.37209302324699,
          "velocity": 0.44881889763779526,
          "duration": 0.034883720930224626
        },
        {
          "name": "D#5",
          "midi": 75,
          "time": 85.39534883720047,
          "velocity": 0.4330708661417323,
          "duration": 0.12790697674417117
        },
        {
          "name": "G#5",
          "midi": 80,
          "time": 85.39534883720047,
          "velocity": 0.4330708661417323,
          "duration": 0.1627906976743958
        },
        {
          "name": "C6",
          "midi": 84,
          "time": 85.39534883720047,
          "velocity": 0.4094488188976378,
          "duration": 0.1627906976743958
        },
        {
          "name": "D#6",
          "midi": 87,
          "time": 85.39534883720047,
          "velocity": 0.4881889763779528,
          "duration": 0.17441860465113734
        },
        {
          "name": "G#3",
          "midi": 56,
          "time": 85.40697674417721,
          "velocity": 0.44881889763779526,
          "duration": 0.15116279069765426
        },
        {
          "name": "F#6",
          "midi": 90,
          "time": 85.40697674417721,
          "velocity": 0.1889763779527559,
          "duration": 0.13953488372091272
        },
        {
          "name": "B4",
          "midi": 71,
          "time": 85.4302325581307,
          "velocity": 0.14173228346456693,
          "duration": 0.034883720930224626
        },
        {
          "name": "A#5",
          "midi": 82,
          "time": 85.4302325581307,
          "velocity": 0.16535433070866143,
          "duration": 0.10465116279068809
        },
        {
          "name": "D6",
          "midi": 86,
          "time": 85.44186046510744,
          "velocity": 0.25196850393700787,
          "duration": 0.034883720930224626
        },
        {
          "name": "A#4",
          "midi": 70,
          "time": 85.46511627906092,
          "velocity": 0.2125984251968504,
          "duration": 0.05813953488372192
        },
        {
          "name": "E7",
          "midi": 100,
          "time": 85.46511627906092,
          "velocity": 0.09448818897637795,
          "duration": 0.04651162790698038
        },
        {
          "name": "D4",
          "midi": 62,
          "time": 85.47674418603766,
          "velocity": 0.30708661417322836,
          "duration": 0.4767441860464601
        },
        {
          "name": "D5",
          "midi": 74,
          "time": 85.47674418603766,
          "velocity": 0.3228346456692913,
          "duration": 0.03488372093023884
        },
        {
          "name": "D6",
          "midi": 86,
          "time": 85.5116279069679,
          "velocity": 0.41732283464566927,
          "duration": 0.22093023255811772
        },
        {
          "name": "D5",
          "midi": 74,
          "time": 85.52325581394464,
          "velocity": 0.4645669291338583,
          "duration": 0.372093023255772
        },
        {
          "name": "A#4",
          "midi": 70,
          "time": 85.53488372092139,
          "velocity": 0.10236220472440945,
          "duration": 0.04651162790696617
        },
        {
          "name": "G5",
          "midi": 79,
          "time": 85.53488372092139,
          "velocity": 0.3779527559055118,
          "duration": 0.25581395348835656
        },
        {
          "name": "B5",
          "midi": 83,
          "time": 85.53488372092139,
          "velocity": 0.13385826771653545,
          "duration": 0.05813953488370771
        },
        {
          "name": "G3",
          "midi": 55,
          "time": 85.55813953487487,
          "velocity": 0.3700787401574803,
          "duration": 0.023255813953483084
        },
        {
          "name": "F#3",
          "midi": 54,
          "time": 85.58139534882835,
          "velocity": 0.29133858267716534,
          "duration": 0.023255813953483084
        },
        {
          "name": "F6",
          "midi": 89,
          "time": 85.60465116278183,
          "velocity": 0.4094488188976378,
          "duration": 0.25581395348835656
        },
        {
          "name": "G3",
          "midi": 55,
          "time": 85.61627906975858,
          "velocity": 0.4409448818897638,
          "duration": 0.19767441860464885
        },
        {
          "name": "B5",
          "midi": 83,
          "time": 85.61627906975858,
          "velocity": 0.2755905511811024,
          "duration": 0.24418604651161502
        },
        {
          "name": "G6",
          "midi": 91,
          "time": 85.61627906975858,
          "velocity": 0.4094488188976378,
          "duration": 0.23255813953487348
        },
        {
          "name": "A6",
          "midi": 93,
          "time": 85.61627906975858,
          "velocity": 0.3228346456692913,
          "duration": 0.22093023255813193
        },
        {
          "name": "B6",
          "midi": 95,
          "time": 85.61627906975858,
          "velocity": 0.28346456692913385,
          "duration": 0.2093023255813904
        },
        {
          "name": "A#4",
          "midi": 70,
          "time": 85.66279069766556,
          "velocity": 0.2047244094488189,
          "duration": 0.081395348837205
        },
        {
          "name": "F#6",
          "midi": 90,
          "time": 85.6744186046423,
          "velocity": 0.10236220472440945,
          "duration": 0.05813953488372192
        },
        {
          "name": "A#4",
          "midi": 70,
          "time": 85.7558139534795,
          "velocity": 0.14173228346456693,
          "duration": 0.04651162790698038
        },
        {
          "name": "G3",
          "midi": 55,
          "time": 85.82558139533997,
          "velocity": 0.4094488188976378,
          "duration": 0.023255813953483084
        },
        {
          "name": "G#5",
          "midi": 80,
          "time": 85.84883720929345,
          "velocity": 0.2047244094488189,
          "duration": 0.0813953488371908
        },
        {
          "name": "C6",
          "midi": 84,
          "time": 85.87209302324693,
          "velocity": 0.1889763779527559,
          "duration": 0.0813953488371908
        },
        {
          "name": "B5",
          "midi": 83,
          "time": 85.88372093022367,
          "velocity": 0.1732283464566929,
          "duration": 0.04651162790696617
        },
        {
          "name": "E6",
          "midi": 88,
          "time": 85.88372093022367,
          "velocity": 0.2047244094488189,
          "duration": 0.04651162790696617
        },
        {
          "name": "F#6",
          "midi": 90,
          "time": 85.88372093022367,
          "velocity": 0.12598425196850394,
          "duration": 0.04651162790696617
        },
        {
          "name": "A6",
          "midi": 93,
          "time": 85.88372093022367,
          "velocity": 0.11811023622047244,
          "duration": 0.06976744186044925
        },
        {
          "name": "D#5",
          "midi": 75,
          "time": 85.89534883720042,
          "velocity": 0.1732283464566929,
          "duration": 0.04651162790696617
        },
        {
          "name": "G5",
          "midi": 79,
          "time": 85.89534883720042,
          "velocity": 0.3464566929133858,
          "duration": 0.2674418604650697
        },
        {
          "name": "C#6",
          "midi": 85,
          "time": 85.90697674417716,
          "velocity": 0.14960629921259844,
          "duration": 0.05813953488370771
        },
        {
          "name": "G#4",
          "midi": 68,
          "time": 85.9186046511539,
          "velocity": 0.18110236220472442,
          "duration": 0.034883720930224626
        },
        {
          "name": "E3",
          "midi": 52,
          "time": 85.93023255813064,
          "velocity": 0.28346456692913385,
          "duration": 0.023255813953483084
        },
        {
          "name": "A#4",
          "midi": 70,
          "time": 85.94186046510738,
          "velocity": 0.3700787401574803,
          "duration": 0.2209302325581035
        },
        {
          "name": "D#3",
          "midi": 51,
          "time": 85.95348837208412,
          "velocity": 0.4094488188976378,
          "duration": 0.2209302325581035
        },
        {
          "name": "D#4",
          "midi": 63,
          "time": 85.95348837208412,
          "velocity": 0.4251968503937008,
          "duration": 0.18604651162787889
        },
        {
          "name": "D#5",
          "midi": 75,
          "time": 85.95348837208412,
          "velocity": 0.49606299212598426,
          "duration": 0.3488372093022605
        },
        {
          "name": "G#4",
          "midi": 68,
          "time": 85.96511627906087,
          "velocity": 0.14960629921259844,
          "duration": 0.04651162790696617
        },
        {
          "name": "C#6",
          "midi": 85,
          "time": 85.9767441860376,
          "velocity": 0.2204724409448819,
          "duration": 0.09302325581394655
        },
        {
          "name": "A6",
          "midi": 93,
          "time": 85.99999999999109,
          "velocity": 0.07086614173228346,
          "duration": 0.034883720930224626
        },
        {
          "name": "G4",
          "midi": 67,
          "time": 86.06976744185155,
          "velocity": 0.16535433070866143,
          "duration": 0.04651162790696617
        },
        {
          "name": "F6",
          "midi": 89,
          "time": 86.0813953488283,
          "velocity": 0.2755905511811024,
          "duration": 0.15116279069764005
        },
        {
          "name": "E6",
          "midi": 88,
          "time": 86.09302325580504,
          "velocity": 0.18110236220472442,
          "duration": 0.05813953488370771
        },
        {
          "name": "C#5",
          "midi": 73,
          "time": 86.10465116278178,
          "velocity": 0.1889763779527559,
          "duration": 0.034883720930224626
        },
        {
          "name": "B5",
          "midi": 83,
          "time": 86.10465116278178,
          "velocity": 0.23622047244094488,
          "duration": 0.04651162790696617
        },
        {
          "name": "F#6",
          "midi": 90,
          "time": 86.10465116278178,
          "velocity": 0.2125984251968504,
          "duration": 0.18604651162786467
        },
        {
          "name": "G#4",
          "midi": 68,
          "time": 86.11627906975852,
          "velocity": 0.33070866141732286,
          "duration": 0.1627906976743816
        },
        {
          "name": "D6",
          "midi": 86,
          "time": 86.11627906975852,
          "velocity": 0.2125984251968504,
          "duration": 0.09302325581393234
        },
        {
          "name": "G#6",
          "midi": 92,
          "time": 86.11627906975852,
          "velocity": 0.12598425196850394,
          "duration": 0.10465116279067388
        },
        {
          "name": "C6",
          "midi": 84,
          "time": 86.12790697673526,
          "velocity": 0.3937007874015748,
          "duration": 0.1627906976743816
        },
        {
          "name": "G#2",
          "midi": 44,
          "time": 86.139534883712,
          "velocity": 0.30708661417322836,
          "duration": 0.09302325581393234
        },
        {
          "name": "G#3",
          "midi": 56,
          "time": 86.15116279068874,
          "velocity": 0.3543307086614173,
          "duration": 0.15116279069764005
        },
        {
          "name": "D#4",
          "midi": 63,
          "time": 86.15116279068874,
          "velocity": 0.44881889763779526,
          "duration": 0.0813953488371908
        },
        {
          "name": "A5",
          "midi": 81,
          "time": 86.17441860464223,
          "velocity": 0.14173228346456693,
          "duration": 0.05813953488370771
        },
        {
          "name": "B5",
          "midi": 83,
          "time": 86.18604651161897,
          "velocity": 0.2992125984251969,
          "duration": 0.023255813953483084
        },
        {
          "name": "A#5",
          "midi": 82,
          "time": 86.20930232557245,
          "velocity": 0.3700787401574803,
          "duration": 0.3023255813952801
        },
        {
          "name": "D#4",
          "midi": 63,
          "time": 86.24418604650268,
          "velocity": 0.1732283464566929,
          "duration": 0.04651162790696617
        },
        {
          "name": "G4",
          "midi": 67,
          "time": 86.26744186045616,
          "velocity": 0.25196850393700787,
          "duration": 0.1395348837208985
        },
        {
          "name": "G5",
          "midi": 79,
          "time": 86.29069767440964,
          "velocity": 0.3228346456692913,
          "duration": 0.11627906976741542
        },
        {
          "name": "D6",
          "midi": 86,
          "time": 86.29069767440964,
          "velocity": 0.18110236220472442,
          "duration": 0.0813953488371908
        },
        {
          "name": "F6",
          "midi": 89,
          "time": 86.29069767440964,
          "velocity": 0.1732283464566929,
          "duration": 0.0813953488371908
        },
        {
          "name": "G3",
          "midi": 55,
          "time": 86.30232558138638,
          "velocity": 0.2755905511811024,
          "duration": 0.034883720930224626
        },
        {
          "name": "D5",
          "midi": 74,
          "time": 86.30232558138638,
          "velocity": 0.3779527559055118,
          "duration": 0.1395348837208985
        },
        {
          "name": "D4",
          "midi": 62,
          "time": 86.31395348836313,
          "velocity": 0.4094488188976378,
          "duration": 0.04651162790696617
        },
        {
          "name": "F5",
          "midi": 77,
          "time": 86.33720930231661,
          "velocity": 0.2755905511811024,
          "duration": 0.09302325581393234
        },
        {
          "name": "D#4",
          "midi": 63,
          "time": 86.34883720929335,
          "velocity": 0.3779527559055118,
          "duration": 0.04651162790696617
        },
        {
          "name": "A#4",
          "midi": 70,
          "time": 86.34883720929335,
          "velocity": 0.3228346456692913,
          "duration": 0.0813953488371908
        },
        {
          "name": "G#2",
          "midi": 44,
          "time": 86.37209302324683,
          "velocity": 0.25984251968503935,
          "duration": 0.06976744186044925
        },
        {
          "name": "A#3",
          "midi": 58,
          "time": 86.37209302324683,
          "velocity": 0.3464566929133858,
          "duration": 0.034883720930224626
        },
        {
          "name": "D4",
          "midi": 62,
          "time": 86.39534883720032,
          "velocity": 0.36220472440944884,
          "duration": 0.023255813953483084
        },
        {
          "name": "G3",
          "midi": 55,
          "time": 86.40697674417706,
          "velocity": 0.3543307086614173,
          "duration": 0.04651162790696617
        },
        {
          "name": "G5",
          "midi": 79,
          "time": 86.4186046511538,
          "velocity": 0.07874015748031496,
          "duration": 0.05813953488370771
        },
        {
          "name": "B4",
          "midi": 71,
          "time": 86.43023255813054,
          "velocity": 0.25984251968503935,
          "duration": 0.05813953488370771
        },
        {
          "name": "D#4",
          "midi": 63,
          "time": 86.44186046510728,
          "velocity": 0.2992125984251969,
          "duration": 0.0813953488371908
        },
        {
          "name": "F5",
          "midi": 77,
          "time": 86.44186046510728,
          "velocity": 0.11811023622047244,
          "duration": 0.034883720930224626
        },
        {
          "name": "C6",
          "midi": 84,
          "time": 86.45348837208402,
          "velocity": 0.28346456692913385,
          "duration": 0.0813953488371908
        },
        {
          "name": "D6",
          "midi": 86,
          "time": 86.45348837208402,
          "velocity": 0.2755905511811024,
          "duration": 0.279069767441797
        },
        {
          "name": "D5",
          "midi": 74,
          "time": 86.46511627906077,
          "velocity": 0.2992125984251969,
          "duration": 0.0813953488371908
        },
        {
          "name": "G#2",
          "midi": 44,
          "time": 86.47674418603751,
          "velocity": 0.31496062992125984,
          "duration": 0.5116279069766421
        },
        {
          "name": "A#4",
          "midi": 70,
          "time": 86.47674418603751,
          "velocity": 0.2283464566929134,
          "duration": 0.09302325581393234
        },
        {
          "name": "G#5",
          "midi": 80,
          "time": 86.47674418603751,
          "velocity": 0.3228346456692913,
          "duration": 0.023255813953483084
        },
        {
          "name": "E6",
          "midi": 88,
          "time": 86.47674418603751,
          "velocity": 0.15748031496062992,
          "duration": 0.09302325581393234
        },
        {
          "name": "F#6",
          "midi": 90,
          "time": 86.47674418603751,
          "velocity": 0.2677165354330709,
          "duration": 0.10465116279067388
        },
        {
          "name": "F5",
          "midi": 77,
          "time": 86.48837209301425,
          "velocity": 0.2283464566929134,
          "duration": 0.034883720930224626
        },
        {
          "name": "A5",
          "midi": 81,
          "time": 86.48837209301425,
          "velocity": 0.36220472440944884,
          "duration": 0.04651162790696617
        },
        {
          "name": "B5",
          "midi": 83,
          "time": 86.48837209301425,
          "velocity": 0.3464566929133858,
          "duration": 0.24418604651157239
        },
        {
          "name": "F6",
          "midi": 89,
          "time": 86.48837209301425,
          "velocity": 0.3228346456692913,
          "duration": 0.24418604651157239
        },
        {
          "name": "G5",
          "midi": 79,
          "time": 86.49999999999099,
          "velocity": 0.33858267716535434,
          "duration": 0.04651162790696617
        },
        {
          "name": "G3",
          "midi": 55,
          "time": 86.51162790696773,
          "velocity": 0.3543307086614173,
          "duration": 0.05813953488370771
        },
        {
          "name": "D4",
          "midi": 62,
          "time": 86.52325581394447,
          "velocity": 0.3700787401574803,
          "duration": 0.023255813953483084
        },
        {
          "name": "E5",
          "midi": 76,
          "time": 86.52325581394447,
          "velocity": 0.2755905511811024,
          "duration": 0.0813953488371908
        },
        {
          "name": "G#6",
          "midi": 92,
          "time": 86.52325581394447,
          "velocity": 0.2283464566929134,
          "duration": 0.034883720930224626
        },
        {
          "name": "G#5",
          "midi": 80,
          "time": 86.53488372092121,
          "velocity": 0.3779527559055118,
          "duration": 0.023255813953483084
        },
        {
          "name": "G6",
          "midi": 91,
          "time": 86.53488372092121,
          "velocity": 0.4409448818897638,
          "duration": 0.18604651162786467
        },
        {
          "name": "A6",
          "midi": 93,
          "time": 86.53488372092121,
          "velocity": 0.30708661417322836,
          "duration": 0.17441860465112313
        },
        {
          "name": "F#7",
          "midi": 102,
          "time": 86.53488372092121,
          "velocity": 0.3464566929133858,
          "duration": 0.18604651162786467
        },
        {
          "name": "D#4",
          "midi": 63,
          "time": 86.54651162789796,
          "velocity": 0.3228346456692913,
          "duration": 0.023255813953483084
        },
        {
          "name": "G#4",
          "midi": 68,
          "time": 86.5581395348747,
          "velocity": 0.2283464566929134,
          "duration": 0.023255813953483084
        },
        {
          "name": "D5",
          "midi": 74,
          "time": 86.5581395348747,
          "velocity": 0.41732283464566927,
          "duration": 0.1627906976743816
        },
        {
          "name": "G5",
          "midi": 79,
          "time": 86.5581395348747,
          "velocity": 0.44881889763779526,
          "duration": 0.17441860465112313
        },
        {
          "name": "G#3",
          "midi": 56,
          "time": 86.56976744185144,
          "velocity": 0.4645669291338583,
          "duration": 0.05813953488370771
        },
        {
          "name": "D4",
          "midi": 62,
          "time": 86.56976744185144,
          "velocity": 0.3464566929133858,
          "duration": 0.05813953488370771
        },
        {
          "name": "C#7",
          "midi": 97,
          "time": 86.56976744185144,
          "velocity": 0.07874015748031496,
          "duration": 0.05813953488370771
        },
        {
          "name": "G4",
          "midi": 67,
          "time": 86.58139534882818,
          "velocity": 0.31496062992125984,
          "duration": 0.0813953488371908
        },
        {
          "name": "D#6",
          "midi": 87,
          "time": 86.59302325580492,
          "velocity": 0.09448818897637795,
          "duration": 0.04651162790696617
        },
        {
          "name": "D#4",
          "midi": 63,
          "time": 86.60465116278166,
          "velocity": 0.3543307086614173,
          "duration": 0.12790697674415696
        },
        {
          "name": "A5",
          "midi": 81,
          "time": 86.6162790697584,
          "velocity": 0.09448818897637795,
          "duration": 0.034883720930224626
        },
        {
          "name": "G3",
          "midi": 55,
          "time": 86.62790697673515,
          "velocity": 0.4881889763779528,
          "duration": 0.04651162790696617
        },
        {
          "name": "G#4",
          "midi": 68,
          "time": 86.65116279068863,
          "velocity": 0.23622047244094488,
          "duration": 0.023255813953483084
        },
        {
          "name": "C7",
          "midi": 96,
          "time": 86.65116279068863,
          "velocity": 0.07874015748031496,
          "duration": 0.04651162790696617
        },
        {
          "name": "A#4",
          "midi": 70,
          "time": 86.66279069766537,
          "velocity": 0.2125984251968504,
          "duration": 0.11627906976741542
        },
        {
          "name": "G4",
          "midi": 67,
          "time": 86.67441860464211,
          "velocity": 0.2677165354330709,
          "duration": 0.05813953488370771
        },
        {
          "name": "G3",
          "midi": 55,
          "time": 86.68604651161885,
          "velocity": 0.4251968503937008,
          "duration": 0.05813953488370771
        },
        {
          "name": "D4",
          "midi": 62,
          "time": 86.73255813952582,
          "velocity": 0.25984251968503935,
          "duration": 0.034883720930224626
        },
        {
          "name": "F#4",
          "midi": 66,
          "time": 86.73255813952582,
          "velocity": 0.2283464566929134,
          "duration": 0.023255813953483084
        },
        {
          "name": "F#3",
          "midi": 54,
          "time": 86.74418604650256,
          "velocity": 0.3937007874015748,
          "duration": 0.023255813953483084
        },
        {
          "name": "G4",
          "midi": 67,
          "time": 86.7558139534793,
          "velocity": 0.30708661417322836,
          "duration": 0.034883720930224626
        },
        {
          "name": "D6",
          "midi": 86,
          "time": 86.7558139534793,
          "velocity": 0.3779527559055118,
          "duration": 0.3837209302324851
        },
        {
          "name": "G6",
          "midi": 91,
          "time": 86.7558139534793,
          "velocity": 0.33858267716535434,
          "duration": 0.13953488372091272
        },
        {
          "name": "G3",
          "midi": 55,
          "time": 86.76744186045605,
          "velocity": 0.4330708661417323,
          "duration": 0.023255813953483084
        },
        {
          "name": "E4",
          "midi": 64,
          "time": 86.76744186045605,
          "velocity": 0.14173228346456693,
          "duration": 0.04651162790696617
        },
        {
          "name": "G5",
          "midi": 79,
          "time": 86.76744186045605,
          "velocity": 0.3779527559055118,
          "duration": 0.13953488372091272
        },
        {
          "name": "B5",
          "midi": 83,
          "time": 86.76744186045605,
          "velocity": 0.25196850393700787,
          "duration": 0.023255813953483084
        },
        {
          "name": "F6",
          "midi": 89,
          "time": 86.76744186045605,
          "velocity": 0.44881889763779526,
          "duration": 0.15116279069765426
        },
        {
          "name": "A6",
          "midi": 93,
          "time": 86.76744186045605,
          "velocity": 0.2047244094488189,
          "duration": 0.12790697674417117
        },
        {
          "name": "D5",
          "midi": 74,
          "time": 86.77906976743279,
          "velocity": 0.3464566929133858,
          "duration": 0.11627906976742963
        },
        {
          "name": "C6",
          "midi": 84,
          "time": 86.77906976743279,
          "velocity": 0.2204724409448819,
          "duration": 0.034883720930224626
        },
        {
          "name": "F#7",
          "midi": 102,
          "time": 86.77906976743279,
          "velocity": 0.25196850393700787,
          "duration": 0.11627906976742963
        },
        {
          "name": "G#3",
          "midi": 56,
          "time": 86.79069767440953,
          "velocity": 0.4251968503937008,
          "duration": 0.034883720930224626
        },
        {
          "name": "F5",
          "midi": 77,
          "time": 86.79069767440953,
          "velocity": 0.3228346456692913,
          "duration": 0.5697674418603498
        },
        {
          "name": "B5",
          "midi": 83,
          "time": 86.80232558138627,
          "velocity": 0.25984251968503935,
          "duration": 0.11627906976742963
        },
        {
          "name": "D#4",
          "midi": 63,
          "time": 86.81395348836301,
          "velocity": 0.2283464566929134,
          "duration": 0.06976744186046346
        },
        {
          "name": "A#5",
          "midi": 82,
          "time": 86.81395348836301,
          "velocity": 0.2283464566929134,
          "duration": 0.023255813953483084
        },
        {
          "name": "G#3",
          "midi": 56,
          "time": 86.8372093023165,
          "velocity": 0.47244094488188976,
          "duration": 0.04651162790698038
        },
        {
          "name": "C#7",
          "midi": 97,
          "time": 86.84883720929324,
          "velocity": 0.07086614173228346,
          "duration": 0.03488372093023884
        },
        {
          "name": "G3",
          "midi": 55,
          "time": 86.88372093022348,
          "velocity": 0.4015748031496063,
          "duration": 0.023255813953483084
        },
        {
          "name": "A#4",
          "midi": 70,
          "time": 86.89534883720022,
          "velocity": 0.11023622047244094,
          "duration": 0.034883720930224626
        },
        {
          "name": "D#5",
          "midi": 75,
          "time": 86.89534883720022,
          "velocity": 0.1732283464566929,
          "duration": 0.04651162790696617
        },
        {
          "name": "D4",
          "midi": 62,
          "time": 86.90697674417696,
          "velocity": 0.18110236220472442,
          "duration": 0.034883720930224626
        },
        {
          "name": "G3",
          "midi": 55,
          "time": 86.9186046511537,
          "velocity": 0.4881889763779528,
          "duration": 0.05813953488370771
        },
        {
          "name": "B5",
          "midi": 83,
          "time": 86.93023255813044,
          "velocity": 0.2677165354330709,
          "duration": 0.20930232558134776
        },
        {
          "name": "D5",
          "midi": 74,
          "time": 86.94186046510718,
          "velocity": 0.3779527559055118,
          "duration": 0.23255813953483084
        },
        {
          "name": "G5",
          "midi": 79,
          "time": 86.94186046510718,
          "velocity": 0.4015748031496063,
          "duration": 0.15116279069764005
        },
        {
          "name": "F6",
          "midi": 89,
          "time": 86.95348837208392,
          "velocity": 0.3700787401574803,
          "duration": 0.11627906976741542
        },
        {
          "name": "D4",
          "midi": 62,
          "time": 86.96511627906067,
          "velocity": 0.15748031496062992,
          "duration": 0.034883720930224626
        },
        {
          "name": "C6",
          "midi": 84,
          "time": 86.96511627906067,
          "velocity": 0.07874015748031496,
          "duration": 0.034883720930224626
        },
        {
          "name": "G4",
          "midi": 67,
          "time": 86.97674418603741,
          "velocity": 0.2283464566929134,
          "duration": 0.034883720930224626
        },
        {
          "name": "A6",
          "midi": 93,
          "time": 86.97674418603741,
          "velocity": 0.4330708661417323,
          "duration": 0.15116279069764005
        },
        {
          "name": "F#7",
          "midi": 102,
          "time": 86.98837209301415,
          "velocity": 0.2204724409448819,
          "duration": 0.1627906976743816
        },
        {
          "name": "G#2",
          "midi": 44,
          "time": 86.99999999999089,
          "velocity": 0.33070866141732286,
          "duration": 0.05813953488370771
        },
        {
          "name": "G3",
          "midi": 55,
          "time": 86.99999999999089,
          "velocity": 0.4330708661417323,
          "duration": 0.023255813953483084
        },
        {
          "name": "D#4",
          "midi": 63,
          "time": 87.01162790696763,
          "velocity": 0.25984251968503935,
          "duration": 0.11627906976741542
        },
        {
          "name": "G#4",
          "midi": 68,
          "time": 87.01162790696763,
          "velocity": 0.29133858267716534,
          "duration": 0.05813953488370771
        },
        {
          "name": "B6",
          "midi": 95,
          "time": 87.01162790696763,
          "velocity": 0.28346456692913385,
          "duration": 0.11627906976741542
        },
        {
          "name": "G#3",
          "midi": 56,
          "time": 87.02325581394437,
          "velocity": 0.44881889763779526,
          "duration": 0.023255813953483084
        },
        {
          "name": "C#7",
          "midi": 97,
          "time": 87.02325581394437,
          "velocity": 0.14173228346456693,
          "duration": 0.05813953488370771
        },
        {
          "name": "G3",
          "midi": 55,
          "time": 87.04651162789786,
          "velocity": 0.44881889763779526,
          "duration": 0.023255813953483084
        },
        {
          "name": "D#7",
          "midi": 99,
          "time": 87.04651162789786,
          "velocity": 0.18110236220472442,
          "duration": 0.09302325581393234
        },
        {
          "name": "G2",
          "midi": 43,
          "time": 87.0581395348746,
          "velocity": 0.31496062992125984,
          "duration": 0.04651162790696617
        },
        {
          "name": "G#3",
          "midi": 56,
          "time": 87.06976744185134,
          "velocity": 0.3700787401574803,
          "duration": 0.034883720930224626
        },
        {
          "name": "G4",
          "midi": 67,
          "time": 87.06976744185134,
          "velocity": 0.3228346456692913,
          "duration": 0.10465116279067388
        },
        {
          "name": "C#7",
          "midi": 97,
          "time": 87.09302325580482,
          "velocity": 0.1732283464566929,
          "duration": 0.05813953488370771
        },
        {
          "name": "G#3",
          "midi": 56,
          "time": 87.1162790697583,
          "velocity": 0.3858267716535433,
          "duration": 0.09302325581393234
        },
        {
          "name": "A#5",
          "midi": 82,
          "time": 87.13953488371179,
          "velocity": 0.11811023622047244,
          "duration": 0.10465116279067388
        },
        {
          "name": "G#2",
          "midi": 44,
          "time": 87.15116279068853,
          "velocity": 0.1968503937007874,
          "duration": 0.09302325581393234
        },
        {
          "name": "D#4",
          "midi": 63,
          "time": 87.16279069766527,
          "velocity": 0.11811023622047244,
          "duration": 0.06976744186044925
        },
        {
          "name": "D#5",
          "midi": 75,
          "time": 87.1976744185955,
          "velocity": 0.5039370078740157,
          "duration": 0.19767441860460622
        },
        {
          "name": "G3",
          "midi": 55,
          "time": 87.20930232557224,
          "velocity": 0.3228346456692913,
          "duration": 0.023255813953483084
        },
        {
          "name": "G#5",
          "midi": 80,
          "time": 87.20930232557224,
          "velocity": 0.30708661417322836,
          "duration": 0.09302325581393234
        },
        {
          "name": "G#4",
          "midi": 68,
          "time": 87.22093023254898,
          "velocity": 0.36220472440944884,
          "duration": 0.0813953488371908
        },
        {
          "name": "C6",
          "midi": 84,
          "time": 87.22093023254898,
          "velocity": 0.2677165354330709,
          "duration": 0.11627906976741542
        },
        {
          "name": "G#3",
          "midi": 56,
          "time": 87.23255813952572,
          "velocity": 0.36220472440944884,
          "duration": 0.05813953488370771
        },
        {
          "name": "F#6",
          "midi": 90,
          "time": 87.24418604650246,
          "velocity": 0.30708661417322836,
          "duration": 0.034883720930224626
        },
        {
          "name": "G#2",
          "midi": 44,
          "time": 87.2558139534792,
          "velocity": 0.2125984251968504,
          "duration": 0.1395348837208985
        },
        {
          "name": "D#4",
          "midi": 63,
          "time": 87.2558139534792,
          "velocity": 0.2204724409448819,
          "duration": 0.19767441860460622
        },
        {
          "name": "D6",
          "midi": 86,
          "time": 87.27906976743269,
          "velocity": 0.10236220472440945,
          "duration": 0.05813953488370771
        },
        {
          "name": "A3",
          "midi": 57,
          "time": 87.29069767440943,
          "velocity": 0.2440944881889764,
          "duration": 0.023255813953483084
        },
        {
          "name": "G#3",
          "midi": 56,
          "time": 87.31395348836291,
          "velocity": 0.2677165354330709,
          "duration": 0.034883720930224626
        },
        {
          "name": "G3",
          "midi": 55,
          "time": 87.34883720929314,
          "velocity": 0.3858267716535433,
          "duration": 0.023255813953483084
        },
        {
          "name": "G#4",
          "midi": 68,
          "time": 87.36046511626988,
          "velocity": 0.30708661417322836,
          "duration": 0.034883720930224626
        },
        {
          "name": "G#5",
          "midi": 80,
          "time": 87.36046511626988,
          "velocity": 0.33858267716535434,
          "duration": 0.023255813953483084
        },
        {
          "name": "F6",
          "midi": 89,
          "time": 87.36046511626988,
          "velocity": 0.33070866141732286,
          "duration": 0.2209302325580893
        },
        {
          "name": "G#3",
          "midi": 56,
          "time": 87.37209302324662,
          "velocity": 0.4015748031496063,
          "duration": 0.034883720930224626
        },
        {
          "name": "F5",
          "midi": 77,
          "time": 87.37209302324662,
          "velocity": 0.2677165354330709,
          "duration": 0.11627906976741542
        },
        {
          "name": "C6",
          "midi": 84,
          "time": 87.37209302324662,
          "velocity": 0.2440944881889764,
          "duration": 0.034883720930224626
        },
        {
          "name": "G5",
          "midi": 79,
          "time": 87.38372093022336,
          "velocity": 0.5039370078740157,
          "duration": 0.45348837209292014
        },
        {
          "name": "B6",
          "midi": 95,
          "time": 87.38372093022336,
          "velocity": 0.15748031496062992,
          "duration": 0.0813953488371908
        },
        {
          "name": "G2",
          "midi": 43,
          "time": 87.3953488372001,
          "velocity": 0.1889763779527559,
          "duration": 0.04651162790696617
        },
        {
          "name": "G4",
          "midi": 67,
          "time": 87.3953488372001,
          "velocity": 0.41732283464566927,
          "duration": 0.18604651162786467
        },
        {
          "name": "D5",
          "midi": 74,
          "time": 87.3953488372001,
          "velocity": 0.4409448818897638,
          "duration": 0.12790697674415696
        },
        {
          "name": "B5",
          "midi": 83,
          "time": 87.3953488372001,
          "velocity": 0.31496062992125984,
          "duration": 0.11627906976741542
        },
        {
          "name": "A6",
          "midi": 93,
          "time": 87.3953488372001,
          "velocity": 0.28346456692913385,
          "duration": 0.11627906976741542
        },
        {
          "name": "G3",
          "midi": 55,
          "time": 87.40697674417684,
          "velocity": 0.3779527559055118,
          "duration": 0.023255813953483084
        },
        {
          "name": "C#7",
          "midi": 97,
          "time": 87.41860465115359,
          "velocity": 0.15748031496062992,
          "duration": 0.09302325581393234
        },
        {
          "name": "G#3",
          "midi": 56,
          "time": 87.45348837208381,
          "velocity": 0.4645669291338583,
          "duration": 0.0813953488371908
        },
        {
          "name": "C6",
          "midi": 84,
          "time": 87.45348837208381,
          "velocity": 0.11811023622047244,
          "duration": 0.034883720930224626
        },
        {
          "name": "F#7",
          "midi": 102,
          "time": 87.46511627906055,
          "velocity": 0.13385826771653545,
          "duration": 0.034883720930224626
        },
        {
          "name": "A#5",
          "midi": 82,
          "time": 87.52325581394426,
          "velocity": 0.11023622047244094,
          "duration": 0.034883720930224626
        },
        {
          "name": "C5",
          "midi": 72,
          "time": 87.534883720921,
          "velocity": 0.4566929133858268,
          "duration": 0.06976744186044925
        },
        {
          "name": "D5",
          "midi": 74,
          "time": 87.534883720921,
          "velocity": 0.3228346456692913,
          "duration": 0.05813953488370771
        },
        {
          "name": "F5",
          "midi": 77,
          "time": 87.534883720921,
          "velocity": 0.28346456692913385,
          "duration": 0.29069767441853855
        },
        {
          "name": "G#3",
          "midi": 56,
          "time": 87.54651162789774,
          "velocity": 0.4094488188976378,
          "duration": 0.034883720930224626
        },
        {
          "name": "A5",
          "midi": 81,
          "time": 87.54651162789774,
          "velocity": 0.13385826771653545,
          "duration": 0.04651162790696617
        },
        {
          "name": "D#6",
          "midi": 87,
          "time": 87.55813953487448,
          "velocity": 0.18110236220472442,
          "duration": 0.04651162790696617
        },
        {
          "name": "E3",
          "midi": 52,
          "time": 87.59302325580471,
          "velocity": 0.2283464566929134,
          "duration": 0.023255813953483084
        },
        {
          "name": "G#3",
          "midi": 56,
          "time": 87.59302325580471,
          "velocity": 0.4409448818897638,
          "duration": 0.17441860465112313
        },
        {
          "name": "G4",
          "midi": 67,
          "time": 87.59302325580471,
          "velocity": 0.2992125984251969,
          "duration": 0.06976744186044925
        },
        {
          "name": "D6",
          "midi": 86,
          "time": 87.60465116278145,
          "velocity": 0.08661417322834646,
          "duration": 0.034883720930224626
        },
        {
          "name": "D#3",
          "midi": 51,
          "time": 87.61627906975819,
          "velocity": 0.2677165354330709,
          "duration": 0.06976744186044925
        },
        {
          "name": "D5",
          "midi": 74,
          "time": 87.65116279068842,
          "velocity": 0.1732283464566929,
          "duration": 0.04651162790696617
        },
        {
          "name": "D#4",
          "midi": 63,
          "time": 87.66279069766516,
          "velocity": 0.31496062992125984,
          "duration": 0.2558139534883139
        },
        {
          "name": "A#4",
          "midi": 70,
          "time": 87.66279069766516,
          "velocity": 0.44881889763779526,
          "duration": 0.23255813953483084
        },
        {
          "name": "D#3",
          "midi": 51,
          "time": 87.69767441859538,
          "velocity": 0.28346456692913385,
          "duration": 0.05813953488370771
        },
        {
          "name": "D5",
          "midi": 74,
          "time": 87.70930232557212,
          "velocity": 0.2125984251968504,
          "duration": 0.034883720930224626
        },
        {
          "name": "D#5",
          "midi": 75,
          "time": 87.72093023254887,
          "velocity": 0.3543307086614173,
          "duration": 0.1395348837208985
        },
        {
          "name": "C#6",
          "midi": 85,
          "time": 87.75581395347909,
          "velocity": 0.14960629921259844,
          "duration": 0.09302325581393234
        },
        {
          "name": "G#3",
          "midi": 56,
          "time": 87.77906976743257,
          "velocity": 0.36220472440944884,
          "duration": 0.0813953488371908
        },
        {
          "name": "D#3",
          "midi": 51,
          "time": 87.80232558138606,
          "velocity": 0.2755905511811024,
          "duration": 0.04651162790696617
        },
        {
          "name": "G4",
          "midi": 67,
          "time": 87.8139534883628,
          "velocity": 0.36220472440944884,
          "duration": 0.06976744186044925
        },
        {
          "name": "G#5",
          "midi": 80,
          "time": 87.83720930231628,
          "velocity": 0.3228346456692913,
          "duration": 0.20930232558136197
        },
        {
          "name": "D6",
          "midi": 86,
          "time": 87.83720930231628,
          "velocity": 0.25196850393700787,
          "duration": 0.04651162790696617
        },
        {
          "name": "E6",
          "midi": 88,
          "time": 87.83720930231628,
          "velocity": 0.23622047244094488,
          "duration": 0.034883720930224626
        },
        {
          "name": "F#6",
          "midi": 90,
          "time": 87.83720930231628,
          "velocity": 0.2047244094488189,
          "duration": 0.20930232558136197
        },
        {
          "name": "F5",
          "midi": 77,
          "time": 87.84883720929302,
          "velocity": 0.2125984251968504,
          "duration": 0.034883720930224626
        },
        {
          "name": "C6",
          "midi": 84,
          "time": 87.84883720929302,
          "velocity": 0.33858267716535434,
          "duration": 0.20930232558136197
        },
        {
          "name": "D#3",
          "midi": 51,
          "time": 87.86046511626976,
          "velocity": 0.25984251968503935,
          "duration": 0.023255813953483084
        },
        {
          "name": "G3",
          "midi": 55,
          "time": 87.86046511626976,
          "velocity": 0.3228346456692913,
          "duration": 0.023255813953483084
        },
        {
          "name": "G#4",
          "midi": 68,
          "time": 87.88372093022325,
          "velocity": 0.2755905511811024,
          "duration": 0.1627906976743958
        },
        {
          "name": "D#5",
          "midi": 75,
          "time": 87.88372093022325,
          "velocity": 0.4015748031496063,
          "duration": 0.17441860465113734
        },
        {
          "name": "D6",
          "midi": 86,
          "time": 87.89534883719999,
          "velocity": 0.2204724409448819,
          "duration": 0.081395348837205
        },
        {
          "name": "G3",
          "midi": 55,
          "time": 87.91860465115347,
          "velocity": 0.31496062992125984,
          "duration": 0.081395348837205
        },
        {
          "name": "A6",
          "midi": 93,
          "time": 87.91860465115347,
          "velocity": 0.11023622047244094,
          "duration": 0.03488372093023884
        },
        {
          "name": "C5",
          "midi": 72,
          "time": 87.98837209301394,
          "velocity": 0.1889763779527559,
          "duration": 0.05813953488370771
        },
        {
          "name": "F5",
          "midi": 77,
          "time": 87.98837209301394,
          "velocity": 0.14173228346456693,
          "duration": 0.09302325581393234
        },
        {
          "name": "G#3",
          "midi": 56,
          "time": 87.99999999999068,
          "velocity": 0.2755905511811024,
          "duration": 0.04651162790696617
        },
        {
          "name": "D6",
          "midi": 86,
          "time": 87.99999999999068,
          "velocity": 0.2283464566929134,
          "duration": 0.18604651162786467
        },
        {
          "name": "C3",
          "midi": 48,
          "time": 88.02325581394416,
          "velocity": 0.12598425196850394,
          "duration": 0.034883720930224626
        },
        {
          "name": "G5",
          "midi": 79,
          "time": 88.02325581394416,
          "velocity": 0.25984251968503935,
          "duration": 0.18604651162786467
        },
        {
          "name": "G4",
          "midi": 67,
          "time": 88.04651162789764,
          "velocity": 0.28346456692913385,
          "duration": 0.10465116279067388
        },
        {
          "name": "D5",
          "midi": 74,
          "time": 88.04651162789764,
          "velocity": 0.33070866141732286,
          "duration": 0.10465116279067388
        },
        {
          "name": "B5",
          "midi": 83,
          "time": 88.04651162789764,
          "velocity": 0.16535433070866143,
          "duration": 0.0813953488371908
        },
        {
          "name": "G3",
          "midi": 55,
          "time": 88.06976744185113,
          "velocity": 0.4094488188976378,
          "duration": 0.04651162790696617
        },
        {
          "name": "C3",
          "midi": 48,
          "time": 88.09302325580461,
          "velocity": 0.11811023622047244,
          "duration": 0.034883720930224626
        },
        {
          "name": "G#3",
          "midi": 56,
          "time": 88.1162790697581,
          "velocity": 0.33070866141732286,
          "duration": 0.023255813953483084
        },
        {
          "name": "A#4",
          "midi": 70,
          "time": 88.13953488371158,
          "velocity": 0.2047244094488189,
          "duration": 0.12790697674415696
        },
        {
          "name": "F#3",
          "midi": 54,
          "time": 88.15116279068832,
          "velocity": 0.3543307086614173,
          "duration": 0.023255813953483084
        },
        {
          "name": "G#4",
          "midi": 68,
          "time": 88.15116279068832,
          "velocity": 0.2677165354330709,
          "duration": 0.023255813953483084
        },
        {
          "name": "D#4",
          "midi": 63,
          "time": 88.1744186046418,
          "velocity": 0.07086614173228346,
          "duration": 0.034883720930224626
        },
        {
          "name": "G#3",
          "midi": 56,
          "time": 88.18604651161854,
          "velocity": 0.30708661417322836,
          "duration": 0.04651162790696617
        },
        {
          "name": "C3",
          "midi": 48,
          "time": 88.20930232557203,
          "velocity": 0.2204724409448819,
          "duration": 0.06976744186044925
        },
        {
          "name": "G4",
          "midi": 67,
          "time": 88.20930232557203,
          "velocity": 0.13385826771653545,
          "duration": 0.034883720930224626
        },
        {
          "name": "A3",
          "midi": 57,
          "time": 88.23255813952551,
          "velocity": 0.2755905511811024,
          "duration": 0.034883720930224626
        },
        {
          "name": "D#5",
          "midi": 75,
          "time": 88.25581395347899,
          "velocity": 0.2440944881889764,
          "duration": 0.023255813953483084
        },
        {
          "name": "C6",
          "midi": 84,
          "time": 88.25581395347899,
          "velocity": 0.31496062992125984,
          "duration": 0.034883720930224626
        },
        {
          "name": "G5",
          "midi": 79,
          "time": 88.26744186045573,
          "velocity": 0.3700787401574803,
          "duration": 0.279069767441797
        },
        {
          "name": "A#5",
          "midi": 82,
          "time": 88.26744186045573,
          "velocity": 0.25196850393700787,
          "duration": 0.06976744186044925
        },
        {
          "name": "C#6",
          "midi": 85,
          "time": 88.26744186045573,
          "velocity": 0.4015748031496063,
          "duration": 0.05813953488370771
        },
        {
          "name": "D5",
          "midi": 74,
          "time": 88.27906976743247,
          "velocity": 0.33070866141732286,
          "duration": 0.034883720930224626
        },
        {
          "name": "G#3",
          "midi": 56,
          "time": 88.29069767440922,
          "velocity": 0.2992125984251969,
          "duration": 0.034883720930224626
        },
        {
          "name": "D#4",
          "midi": 63,
          "time": 88.29069767440922,
          "velocity": 0.28346456692913385,
          "duration": 0.023255813953483084
        },
        {
          "name": "A#4",
          "midi": 70,
          "time": 88.29069767440922,
          "velocity": 0.3858267716535433,
          "duration": 0.023255813953483084
        },
        {
          "name": "D#3",
          "midi": 51,
          "time": 88.30232558138596,
          "velocity": 0.33070866141732286,
          "duration": 0.023255813953483084
        },
        {
          "name": "G6",
          "midi": 91,
          "time": 88.30232558138596,
          "velocity": 0.4094488188976378,
          "duration": 0.3372093023255047
        },
        {
          "name": "A5",
          "midi": 81,
          "time": 88.3139534883627,
          "velocity": 0.07086614173228346,
          "duration": 0.034883720930224626
        },
        {
          "name": "F6",
          "midi": 89,
          "time": 88.3139534883627,
          "velocity": 0.18110236220472442,
          "duration": 0.04651162790696617
        },
        {
          "name": "F#6",
          "midi": 90,
          "time": 88.3139534883627,
          "velocity": 0.2125984251968504,
          "duration": 0.034883720930224626
        },
        {
          "name": "F4",
          "midi": 65,
          "time": 88.32558139533944,
          "velocity": 0.3464566929133858,
          "duration": 0.034883720930224626
        },
        {
          "name": "C5",
          "midi": 72,
          "time": 88.32558139533944,
          "velocity": 0.4330708661417323,
          "duration": 0.034883720930224626
        },
        {
          "name": "A6",
          "midi": 93,
          "time": 88.32558139533944,
          "velocity": 0.3464566929133858,
          "duration": 0.23255813953483084
        },
        {
          "name": "C#7",
          "midi": 97,
          "time": 88.32558139533944,
          "velocity": 0.1968503937007874,
          "duration": 0.05813953488370771
        },
        {
          "name": "C7",
          "midi": 96,
          "time": 88.33720930231618,
          "velocity": 0.11023622047244094,
          "duration": 0.034883720930224626
        },
        {
          "name": "D5",
          "midi": 74,
          "time": 88.34883720929292,
          "velocity": 0.4015748031496063,
          "duration": 0.19767441860460622
        },
        {
          "name": "B5",
          "midi": 83,
          "time": 88.34883720929292,
          "velocity": 0.2440944881889764,
          "duration": 0.20930232558134776
        },
        {
          "name": "B6",
          "midi": 95,
          "time": 88.34883720929292,
          "velocity": 0.29133858267716534,
          "duration": 0.12790697674415696
        },
        {
          "name": "D#4",
          "midi": 63,
          "time": 88.36046511626967,
          "velocity": 0.28346456692913385,
          "duration": 0.29069767441853855
        },
        {
          "name": "G4",
          "midi": 67,
          "time": 88.36046511626967,
          "velocity": 0.3700787401574803,
          "duration": 0.18604651162786467
        },
        {
          "name": "C3",
          "midi": 48,
          "time": 88.3720930232464,
          "velocity": 0.25984251968503935,
          "duration": 0.023255813953483084
        },
        {
          "name": "F#3",
          "midi": 54,
          "time": 88.3720930232464,
          "velocity": 0.31496062992125984,
          "duration": 0.023255813953483084
        },
        {
          "name": "F7",
          "midi": 101,
          "time": 88.3720930232464,
          "velocity": 0.25196850393700787,
          "duration": 0.15116279069764005
        },
        {
          "name": "C7",
          "midi": 96,
          "time": 88.38372093022315,
          "velocity": 0.2204724409448819,
          "duration": 0.0813953488371908
        },
        {
          "name": "G3",
          "midi": 55,
          "time": 88.39534883719989,
          "velocity": 0.44881889763779526,
          "duration": 0.15116279069764005
        },
        {
          "name": "B2",
          "midi": 47,
          "time": 88.40697674417663,
          "velocity": 0.2283464566929134,
          "duration": 0.023255813953483084
        },
        {
          "name": "F6",
          "midi": 89,
          "time": 88.41860465115337,
          "velocity": 0.33070866141732286,
          "duration": 0.20930232558134776
        },
        {
          "name": "F#7",
          "midi": 102,
          "time": 88.44186046510686,
          "velocity": 0.16535433070866143,
          "duration": 0.04651162790696617
        },
        {
          "name": "C5",
          "midi": 72,
          "time": 88.4534883720836,
          "velocity": 0.08661417322834646,
          "duration": 0.04651162790696617
        },
        {
          "name": "C3",
          "midi": 48,
          "time": 88.48837209301382,
          "velocity": 0.07086614173228346,
          "duration": 0.05813953488370771
        },
        {
          "name": "D#6",
          "midi": 87,
          "time": 88.49999999999056,
          "velocity": 0.1889763779527559,
          "duration": 0.12790697674415696
        },
        {
          "name": "F#7",
          "midi": 102,
          "time": 88.52325581394405,
          "velocity": 0.07086614173228346,
          "duration": 0.034883720930224626
        },
        {
          "name": "F3",
          "midi": 53,
          "time": 88.55813953487427,
          "velocity": 0.31496062992125984,
          "duration": 0.04651162790696617
        },
        {
          "name": "C5",
          "midi": 72,
          "time": 88.55813953487427,
          "velocity": 0.4409448818897638,
          "duration": 0.06976744186044925
        },
        {
          "name": "F5",
          "midi": 77,
          "time": 88.55813953487427,
          "velocity": 0.2283464566929134,
          "duration": 0.06976744186044925
        },
        {
          "name": "G5",
          "midi": 79,
          "time": 88.55813953487427,
          "velocity": 0.3779527559055118,
          "duration": 0.12790697674415696
        },
        {
          "name": "A5",
          "midi": 81,
          "time": 88.58139534882775,
          "velocity": 0.14960629921259844,
          "duration": 0.034883720930224626
        },
        {
          "name": "A#5",
          "midi": 82,
          "time": 88.58139534882775,
          "velocity": 0.11023622047244094,
          "duration": 0.1395348837208985
        },
        {
          "name": "D6",
          "midi": 86,
          "time": 88.58139534882775,
          "velocity": 0.2125984251968504,
          "duration": 0.10465116279067388
        },
        {
          "name": "G4",
          "midi": 67,
          "time": 88.5930232558045,
          "velocity": 0.28346456692913385,
          "duration": 0.09302325581393234
        },
        {
          "name": "G#3",
          "midi": 56,
          "time": 88.61627906975798,
          "velocity": 0.25984251968503935,
          "duration": 0.023255813953483084
        },
        {
          "name": "B4",
          "midi": 71,
          "time": 88.62790697673472,
          "velocity": 0.2440944881889764,
          "duration": 0.023255813953483084
        },
        {
          "name": "G#3",
          "midi": 56,
          "time": 88.6511627906882,
          "velocity": 0.2125984251968504,
          "duration": 0.034883720930224626
        },
        {
          "name": "D#4",
          "midi": 63,
          "time": 88.66279069766495,
          "velocity": 0.2283464566929134,
          "duration": 0.33720930232551893
        },
        {
          "name": "G#3",
          "midi": 56,
          "time": 88.69767441859517,
          "velocity": 0.23622047244094488,
          "duration": 0.04651162790696617
        },
        {
          "name": "G5",
          "midi": 79,
          "time": 88.69767441859517,
          "velocity": 0.5669291338582677,
          "duration": 0.3255813953487774
        },
        {
          "name": "D#5",
          "midi": 75,
          "time": 88.72093023254865,
          "velocity": 0.2440944881889764,
          "duration": 0.034883720930224626
        },
        {
          "name": "A#4",
          "midi": 70,
          "time": 88.7325581395254,
          "velocity": 0.15748031496062992,
          "duration": 0.04651162790696617
        },
        {
          "name": "D5",
          "midi": 74,
          "time": 88.75581395347888,
          "velocity": 0.4881889763779528,
          "duration": 0.2441860465115866
        },
        {
          "name": "B5",
          "midi": 83,
          "time": 88.75581395347888,
          "velocity": 0.3543307086614173,
          "duration": 0.2441860465115866
        },
        {
          "name": "G3",
          "midi": 55,
          "time": 88.76744186045562,
          "velocity": 0.29133858267716534,
          "duration": 0.05813953488370771
        },
        {
          "name": "G4",
          "midi": 67,
          "time": 88.76744186045562,
          "velocity": 0.3858267716535433,
          "duration": 0.20930232558136197
        },
        {
          "name": "F6",
          "midi": 89,
          "time": 88.76744186045562,
          "velocity": 0.4645669291338583,
          "duration": 0.23255813953484505
        },
        {
          "name": "A6",
          "midi": 93,
          "time": 88.7906976744091,
          "velocity": 0.29133858267716534,
          "duration": 0.20930232558136197
        },
        {
          "name": "C#7",
          "midi": 97,
          "time": 88.80232558138584,
          "velocity": 0.14173228346456693,
          "duration": 0.034883720930224626
        },
        {
          "name": "D#6",
          "midi": 87,
          "time": 88.82558139533933,
          "velocity": 0.07874015748031496,
          "duration": 0.04651162790696617
        },
        {
          "name": "B4",
          "midi": 71,
          "time": 88.83720930231607,
          "velocity": 0.07086614173228346,
          "duration": 0.06976744186044925
        },
        {
          "name": "C7",
          "midi": 96,
          "time": 88.83720930231607,
          "velocity": 0.14173228346456693,
          "duration": 0.04651162790696617
        },
        {
          "name": "G3",
          "midi": 55,
          "time": 88.86046511626955,
          "velocity": 0.23622047244094488,
          "duration": 0.023255813953483084
        },
        {
          "name": "C#7",
          "midi": 97,
          "time": 88.88372093022303,
          "velocity": 0.2283464566929134,
          "duration": 0.034883720930224626
        },
        {
          "name": "D#7",
          "midi": 99,
          "time": 88.90697674417652,
          "velocity": 0.33858267716535434,
          "duration": 0.09302325581394655
        },
        {
          "name": "C7",
          "midi": 96,
          "time": 88.91860465115326,
          "velocity": 0.15748031496062992,
          "duration": 0.081395348837205
        },
        {
          "name": "G3",
          "midi": 55,
          "time": 88.94186046510674,
          "velocity": 0.2992125984251969,
          "duration": 0.05813953488372192
        },
        {
          "name": "F#7",
          "midi": 102,
          "time": 88.94186046510674,
          "velocity": 0.10236220472440945,
          "duration": 0.04651162790698038
        },
        {
          "name": "G#6",
          "midi": 92,
          "time": 88.97674418603698,
          "velocity": 0.23622047244094488,
          "duration": 0.05813953488370771
        },
        {
          "name": "E7",
          "midi": 100,
          "time": 88.97674418603698,
          "velocity": 0.3464566929133858,
          "duration": 0.023255813953483084
        },
        {
          "name": "G4",
          "midi": 67,
          "time": 88.98837209301372,
          "velocity": 0.2992125984251969,
          "duration": 0.15116279069766847
        },
        {
          "name": "D5",
          "midi": 74,
          "time": 89.02325581394395,
          "velocity": 0.4015748031496063,
          "duration": 0.12790697674418539
        },
        {
          "name": "D4",
          "midi": 62,
          "time": 89.03488372092069,
          "velocity": 0.2440944881889764,
          "duration": 0.39534883720924086
        },
        {
          "name": "A#4",
          "midi": 70,
          "time": 89.04651162789743,
          "velocity": 0.2125984251968504,
          "duration": 0.08139534883721922
        },
        {
          "name": "G#3",
          "midi": 56,
          "time": 89.08139534882767,
          "velocity": 0.09448818897637795,
          "duration": 0.04651162790698038
        },
        {
          "name": "G#4",
          "midi": 68,
          "time": 89.13953488371139,
          "velocity": 0.18110236220472442,
          "duration": 0.05813953488370771
        },
        {
          "name": "A5",
          "midi": 81,
          "time": 89.13953488371139,
          "velocity": 0.11023622047244094,
          "duration": 0.0813953488371908
        },
        {
          "name": "G3",
          "midi": 55,
          "time": 89.17441860464162,
          "velocity": 0.3700787401574803,
          "duration": 0.06976744186044925
        },
        {
          "name": "G6",
          "midi": 91,
          "time": 89.18604651161836,
          "velocity": 0.41732283464566927,
          "duration": 0.26744186046505547
        },
        {
          "name": "D5",
          "midi": 74,
          "time": 89.1976744185951,
          "velocity": 0.4094488188976378,
          "duration": 0.023255813953483084
        },
        {
          "name": "D#6",
          "midi": 87,
          "time": 89.20930232557184,
          "velocity": 0.3228346456692913,
          "duration": 0.04651162790696617
        },
        {
          "name": "G#4",
          "midi": 68,
          "time": 89.22093023254858,
          "velocity": 0.23622047244094488,
          "duration": 0.023255813953483084
        },
        {
          "name": "D#5",
          "midi": 75,
          "time": 89.22093023254858,
          "velocity": 0.47244094488188976,
          "duration": 0.023255813953483084
        },
        {
          "name": "C6",
          "midi": 84,
          "time": 89.22093023254858,
          "velocity": 0.2677165354330709,
          "duration": 0.034883720930224626
        },
        {
          "name": "F6",
          "midi": 89,
          "time": 89.22093023254858,
          "velocity": 0.4566929133858268,
          "duration": 0.1627906976743816
        },
        {
          "name": "G#6",
          "midi": 92,
          "time": 89.22093023254858,
          "velocity": 0.1968503937007874,
          "duration": 0.04651162790696617
        },
        {
          "name": "A6",
          "midi": 93,
          "time": 89.22093023254858,
          "velocity": 0.4251968503937008,
          "duration": 0.17441860465112313
        },
        {
          "name": "A#6",
          "midi": 94,
          "time": 89.22093023254858,
          "velocity": 0.2677165354330709,
          "duration": 0.023255813953483084
        },
        {
          "name": "A#4",
          "midi": 70,
          "time": 89.23255813952532,
          "velocity": 0.16535433070866143,
          "duration": 0.10465116279067388
        },
        {
          "name": "G4",
          "midi": 67,
          "time": 89.24418604650207,
          "velocity": 0.3464566929133858,
          "duration": 0.12790697674415696
        },
        {
          "name": "D5",
          "midi": 74,
          "time": 89.24418604650207,
          "velocity": 0.4409448818897638,
          "duration": 0.2558139534883139
        },
        {
          "name": "G5",
          "midi": 79,
          "time": 89.24418604650207,
          "velocity": 0.4094488188976378,
          "duration": 0.4069767441859682
        },
        {
          "name": "B5",
          "midi": 83,
          "time": 89.24418604650207,
          "velocity": 0.3464566929133858,
          "duration": 0.1395348837208985
        },
        {
          "name": "G3",
          "midi": 55,
          "time": 89.2558139534788,
          "velocity": 0.31496062992125984,
          "duration": 0.15116279069764005
        },
        {
          "name": "C#7",
          "midi": 97,
          "time": 89.2558139534788,
          "velocity": 0.10236220472440945,
          "duration": 0.034883720930224626
        },
        {
          "name": "D#7",
          "midi": 99,
          "time": 89.26744186045555,
          "velocity": 0.11811023622047244,
          "duration": 0.05813953488370771
        },
        {
          "name": "F#7",
          "midi": 102,
          "time": 89.30232558138577,
          "velocity": 0.07874015748031496,
          "duration": 0.034883720930224626
        },
        {
          "name": "A#4",
          "midi": 70,
          "time": 89.34883720929274,
          "velocity": 0.10236220472440945,
          "duration": 0.05813953488370771
        },
        {
          "name": "D7",
          "midi": 98,
          "time": 89.36046511626948,
          "velocity": 0.08661417322834646,
          "duration": 0.034883720930224626
        },
        {
          "name": "B5",
          "midi": 83,
          "time": 89.3953488371997,
          "velocity": 0.16535433070866143,
          "duration": 0.034883720930224626
        },
        {
          "name": "F#3",
          "midi": 54,
          "time": 89.40697674417645,
          "velocity": 0.2440944881889764,
          "duration": 0.023255813953483084
        },
        {
          "name": "F5",
          "midi": 77,
          "time": 89.40697674417645,
          "velocity": 0.25984251968503935,
          "duration": 0.05813953488370771
        },
        {
          "name": "A5",
          "midi": 81,
          "time": 89.40697674417645,
          "velocity": 0.2204724409448819,
          "duration": 0.05813953488370771
        },
        {
          "name": "F4",
          "midi": 65,
          "time": 89.41860465115319,
          "velocity": 0.2677165354330709,
          "duration": 0.034883720930224626
        },
        {
          "name": "C5",
          "midi": 72,
          "time": 89.41860465115319,
          "velocity": 0.2755905511811024,
          "duration": 0.05813953488370771
        },
        {
          "name": "D#6",
          "midi": 87,
          "time": 89.41860465115319,
          "velocity": 0.3464566929133858,
          "duration": 0.05813953488370771
        },
        {
          "name": "F3",
          "midi": 53,
          "time": 89.43023255812993,
          "velocity": 0.2440944881889764,
          "duration": 0.034883720930224626
        },
        {
          "name": "D#3",
          "midi": 51,
          "time": 89.4767441860369,
          "velocity": 0.2677165354330709,
          "duration": 0.1627906976743958
        },
        {
          "name": "D#4",
          "midi": 63,
          "time": 89.4767441860369,
          "velocity": 0.3543307086614173,
          "duration": 0.0813953488371908
        },
        {
          "name": "C5",
          "midi": 72,
          "time": 89.48837209301364,
          "velocity": 0.12598425196850394,
          "duration": 0.034883720930224626
        },
        {
          "name": "A#5",
          "midi": 82,
          "time": 89.48837209301364,
          "velocity": 0.2755905511811024,
          "duration": 0.1627906976743958
        },
        {
          "name": "C6",
          "midi": 84,
          "time": 89.51162790696712,
          "velocity": 0.23622047244094488,
          "duration": 0.023255813953483084
        },
        {
          "name": "A#4",
          "midi": 70,
          "time": 89.52325581394386,
          "velocity": 0.2677165354330709,
          "duration": 0.17441860465113734
        },
        {
          "name": "C#6",
          "midi": 85,
          "time": 89.5348837209206,
          "velocity": 0.25984251968503935,
          "duration": 0.081395348837205
        },
        {
          "name": "D#4",
          "midi": 63,
          "time": 89.56976744185083,
          "velocity": 0.2677165354330709,
          "duration": 0.03488372093023884
        },
        {
          "name": "D4",
          "midi": 62,
          "time": 89.60465116278107,
          "velocity": 0.3228346456692913,
          "duration": 0.09302325581393234
        },
        {
          "name": "G4",
          "midi": 67,
          "time": 89.61627906975781,
          "velocity": 0.08661417322834646,
          "duration": 0.034883720930224626
        },
        {
          "name": "D#6",
          "midi": 87,
          "time": 89.61627906975781,
          "velocity": 0.3543307086614173,
          "duration": 0.2209302325580893
        },
        {
          "name": "E6",
          "midi": 88,
          "time": 89.62790697673455,
          "velocity": 0.2204724409448819,
          "duration": 0.09302325581393234
        },
        {
          "name": "C5",
          "midi": 72,
          "time": 89.63953488371129,
          "velocity": 0.1968503937007874,
          "duration": 0.04651162790696617
        },
        {
          "name": "E5",
          "midi": 76,
          "time": 89.63953488371129,
          "velocity": 0.2677165354330709,
          "duration": 0.023255813953483084
        },
        {
          "name": "F#5",
          "midi": 78,
          "time": 89.63953488371129,
          "velocity": 0.2283464566929134,
          "duration": 0.023255813953483084
        },
        {
          "name": "G#5",
          "midi": 80,
          "time": 89.63953488371129,
          "velocity": 0.3464566929133858,
          "duration": 0.18604651162786467
        },
        {
          "name": "D#3",
          "midi": 51,
          "time": 89.65116279068803,
          "velocity": 0.18110236220472442,
          "duration": 0.034883720930224626
        },
        {
          "name": "C#6",
          "midi": 85,
          "time": 89.65116279068803,
          "velocity": 0.14960629921259844,
          "duration": 0.06976744186044925
        },
        {
          "name": "G#3",
          "midi": 56,
          "time": 89.66279069766478,
          "velocity": 0.31496062992125984,
          "duration": 0.034883720930224626
        },
        {
          "name": "G#4",
          "midi": 68,
          "time": 89.66279069766478,
          "velocity": 0.33858267716535434,
          "duration": 0.1627906976743816
        },
        {
          "name": "D#5",
          "midi": 75,
          "time": 89.66279069766478,
          "velocity": 0.4330708661417323,
          "duration": 0.18604651162786467
        },
        {
          "name": "C6",
          "midi": 84,
          "time": 89.66279069766478,
          "velocity": 0.3858267716535433,
          "duration": 0.18604651162786467
        },
        {
          "name": "E4",
          "midi": 64,
          "time": 89.68604651161826,
          "velocity": 0.25984251968503935,
          "duration": 0.023255813953483084
        },
        {
          "name": "A6",
          "midi": 93,
          "time": 89.68604651161826,
          "velocity": 0.16535433070866143,
          "duration": 0.04651162790696617
        },
        {
          "name": "A#1",
          "midi": 34,
          "time": 89.697674418595,
          "velocity": 0.6299212598425197,
          "duration": 0.011627906976741542
        },
        {
          "name": "G1",
          "midi": 31,
          "time": 89.70930232557174,
          "velocity": 0.7401574803149606,
          "duration": 0.023255813953483084
        },
        {
          "name": "G#3",
          "midi": 56,
          "time": 89.70930232557174,
          "velocity": 0.3464566929133858,
          "duration": 0.1395348837208985
        },
        {
          "name": "D#4",
          "midi": 63,
          "time": 89.70930232557174,
          "velocity": 0.29133858267716534,
          "duration": 0.023255813953483084
        },
        {
          "name": "G#1",
          "midi": 32,
          "time": 89.73255813952522,
          "velocity": 0.7637795275590551,
          "duration": 0.5930232558138329
        },
        {
          "name": "D#3",
          "midi": 51,
          "time": 89.73255813952522,
          "velocity": 0.29133858267716534,
          "duration": 0.10465116279067388
        },
        {
          "name": "C4",
          "midi": 60,
          "time": 89.74418604650197,
          "velocity": 0.2440944881889764,
          "duration": 0.023255813953483084
        },
        {
          "name": "D6",
          "midi": 86,
          "time": 89.74418604650197,
          "velocity": 0.12598425196850394,
          "duration": 0.034883720930224626
        },
        {
          "name": "F6",
          "midi": 89,
          "time": 89.74418604650197,
          "velocity": 0.16535433070866143,
          "duration": 0.19767441860462043
        },
        {
          "name": "D#4",
          "midi": 63,
          "time": 89.75581395347871,
          "velocity": 0.36220472440944884,
          "duration": 0.023255813953483084
        },
        {
          "name": "F#4",
          "midi": 66,
          "time": 89.76744186045545,
          "velocity": 0.1968503937007874,
          "duration": 0.05813953488370771
        },
        {
          "name": "G5",
          "midi": 79,
          "time": 89.76744186045545,
          "velocity": 0.23622047244094488,
          "duration": 0.034883720930224626
        },
        {
          "name": "A6",
          "midi": 93,
          "time": 89.76744186045545,
          "velocity": 0.07874015748031496,
          "duration": 0.034883720930224626
        },
        {
          "name": "D4",
          "midi": 62,
          "time": 89.77906976743219,
          "velocity": 0.3543307086614173,
          "duration": 0.023255813953483084
        },
        {
          "name": "A#5",
          "midi": 82,
          "time": 89.80232558138567,
          "velocity": 0.30708661417322836,
          "duration": 0.25581395348832814
        },
        {
          "name": "A#4",
          "midi": 70,
          "time": 89.81395348836242,
          "velocity": 0.29133858267716534,
          "duration": 0.20930232558136197
        },
        {
          "name": "G5",
          "midi": 79,
          "time": 89.81395348836242,
          "velocity": 0.3543307086614173,
          "duration": 0.11627906976742963
        },
        {
          "name": "C4",
          "midi": 60,
          "time": 89.82558139533916,
          "velocity": 0.1968503937007874,
          "duration": 0.06976744186046346
        },
        {
          "name": "G4",
          "midi": 67,
          "time": 89.82558139533916,
          "velocity": 0.25984251968503935,
          "duration": 0.09302325581394655
        },
        {
          "name": "D6",
          "midi": 86,
          "time": 89.82558139533916,
          "velocity": 0.1968503937007874,
          "duration": 0.081395348837205
        },
        {
          "name": "D5",
          "midi": 74,
          "time": 89.8372093023159,
          "velocity": 0.4015748031496063,
          "duration": 0.11627906976742963
        },
        {
          "name": "G3",
          "midi": 55,
          "time": 89.84883720929264,
          "velocity": 0.2992125984251969,
          "duration": 0.03488372093023884
        },
        {
          "name": "D#3",
          "midi": 51,
          "time": 89.9186046511531,
          "velocity": 0.31496062992125984,
          "duration": 0.034883720930224626
        },
        {
          "name": "G3",
          "midi": 55,
          "time": 89.9186046511531,
          "velocity": 0.3779527559055118,
          "duration": 0.04651162790696617
        },
        {
          "name": "F#4",
          "midi": 66,
          "time": 89.95348837208333,
          "velocity": 0.14960629921259844,
          "duration": 0.04651162790696617
        },
        {
          "name": "F5",
          "midi": 77,
          "time": 89.95348837208333,
          "velocity": 0.25196850393700787,
          "duration": 0.09302325581393234
        },
        {
          "name": "D#3",
          "midi": 51,
          "time": 89.96511627906007,
          "velocity": 0.31496062992125984,
          "duration": 0.023255813953483084
        },
        {
          "name": "A#3",
          "midi": 58,
          "time": 89.96511627906007,
          "velocity": 0.4094488188976378,
          "duration": 0.05813953488370771
        },
        {
          "name": "D4",
          "midi": 62,
          "time": 89.96511627906007,
          "velocity": 0.33070866141732286,
          "duration": 0.023255813953483084
        },
        {
          "name": "G5",
          "midi": 79,
          "time": 89.97674418603681,
          "velocity": 0.12598425196850394,
          "duration": 0.11627906976741542
        },
        {
          "name": "D#3",
          "midi": 51,
          "time": 89.9999999999903,
          "velocity": 0.3464566929133858,
          "duration": 0.034883720930224626
        },
        {
          "name": "D#5",
          "midi": 75,
          "time": 89.9999999999903,
          "velocity": 0.1889763779527559,
          "duration": 0.04651162790696617
        },
        {
          "name": "G6",
          "midi": 91,
          "time": 90.02325581394378,
          "velocity": 0.4251968503937008,
          "duration": 0.3023255813952801
        },
        {
          "name": "F#4",
          "midi": 66,
          "time": 90.03488372092052,
          "velocity": 0.1968503937007874,
          "duration": 0.034883720930224626
        },
        {
          "name": "B4",
          "midi": 71,
          "time": 90.03488372092052,
          "velocity": 0.2755905511811024,
          "duration": 0.034883720930224626
        },
        {
          "name": "D5",
          "midi": 74,
          "time": 90.03488372092052,
          "velocity": 0.36220472440944884,
          "duration": 0.06976744186044925
        },
        {
          "name": "C#4",
          "midi": 61,
          "time": 90.04651162789726,
          "velocity": 0.2755905511811024,
          "duration": 0.023255813953483084
        },
        {
          "name": "F5",
          "midi": 77,
          "time": 90.058139534874,
          "velocity": 0.33070866141732286,
          "duration": 0.11627906976741542
        },
        {
          "name": "C6",
          "midi": 84,
          "time": 90.058139534874,
          "velocity": 0.2047244094488189,
          "duration": 0.04651162790696617
        },
        {
          "name": "G#6",
          "midi": 92,
          "time": 90.058139534874,
          "velocity": 0.3700787401574803,
          "duration": 0.05813953488370771
        },
        {
          "name": "A#5",
          "midi": 82,
          "time": 90.06976744185074,
          "velocity": 0.28346456692913385,
          "duration": 0.06976744186044925
        },
        {
          "name": "F#6",
          "midi": 90,
          "time": 90.06976744185074,
          "velocity": 0.1732283464566929,
          "duration": 0.04651162790696617
        },
        {
          "name": "A6",
          "midi": 93,
          "time": 90.06976744185074,
          "velocity": 0.5118110236220472,
          "duration": 0.3255813953487632
        },
        {
          "name": "D#3",
          "midi": 51,
          "time": 90.08139534882748,
          "velocity": 0.29133858267716534,
          "duration": 0.023255813953483084
        },
        {
          "name": "A#4",
          "midi": 70,
          "time": 90.08139534882748,
          "velocity": 0.3779527559055118,
          "duration": 0.05813953488370771
        },
        {
          "name": "C#4",
          "midi": 61,
          "time": 90.09302325580423,
          "velocity": 0.2440944881889764,
          "duration": 0.023255813953483084
        },
        {
          "name": "G4",
          "midi": 67,
          "time": 90.09302325580423,
          "velocity": 0.12598425196850394,
          "duration": 0.034883720930224626
        },
        {
          "name": "D#5",
          "midi": 75,
          "time": 90.09302325580423,
          "velocity": 0.3464566929133858,
          "duration": 0.023255813953483084
        },
        {
          "name": "A5",
          "midi": 81,
          "time": 90.09302325580423,
          "velocity": 0.31496062992125984,
          "duration": 0.09302325581393234
        },
        {
          "name": "E7",
          "midi": 100,
          "time": 90.09302325580423,
          "velocity": 0.1889763779527559,
          "duration": 0.0813953488371908
        },
        {
          "name": "F7",
          "midi": 101,
          "time": 90.09302325580423,
          "velocity": 0.3464566929133858,
          "duration": 0.29069767441853855
        },
        {
          "name": "F3",
          "midi": 53,
          "time": 90.11627906975771,
          "velocity": 0.30708661417322836,
          "duration": 0.023255813953483084
        },
        {
          "name": "C4",
          "midi": 60,
          "time": 90.11627906975771,
          "velocity": 0.1732283464566929,
          "duration": 0.034883720930224626
        },
        {
          "name": "C5",
          "midi": 72,
          "time": 90.11627906975771,
          "velocity": 0.2992125984251969,
          "duration": 0.06976744186044925
        },
        {
          "name": "B6",
          "midi": 95,
          "time": 90.11627906975771,
          "velocity": 0.1732283464566929,
          "duration": 0.04651162790696617
        },
        {
          "name": "D#5",
          "midi": 75,
          "time": 90.12790697673445,
          "velocity": 0.14960629921259844,
          "duration": 0.034883720930224626
        },
        {
          "name": "E3",
          "midi": 52,
          "time": 90.13953488371119,
          "velocity": 0.31496062992125984,
          "duration": 0.023255813953483084
        },
        {
          "name": "D#4",
          "midi": 63,
          "time": 90.13953488371119,
          "velocity": 0.25196850393700787,
          "duration": 0.023255813953483084
        },
        {
          "name": "G5",
          "midi": 79,
          "time": 90.15116279068793,
          "velocity": 0.28346456692913385,
          "duration": 0.20930232558134776
        },
        {
          "name": "D4",
          "midi": 62,
          "time": 90.16279069766468,
          "velocity": 0.2440944881889764,
          "duration": 0.023255813953483084
        },
        {
          "name": "F#4",
          "midi": 66,
          "time": 90.16279069766468,
          "velocity": 0.2283464566929134,
          "duration": 0.034883720930224626
        },
        {
          "name": "D5",
          "midi": 74,
          "time": 90.16279069766468,
          "velocity": 0.33858267716535434,
          "duration": 0.04651162790696617
        },
        {
          "name": "B5",
          "midi": 83,
          "time": 90.16279069766468,
          "velocity": 0.23622047244094488,
          "duration": 0.04651162790696617
        },
        {
          "name": "F#7",
          "midi": 102,
          "time": 90.16279069766468,
          "velocity": 0.2677165354330709,
          "duration": 0.15116279069764005
        },
        {
          "name": "G#6",
          "midi": 92,
          "time": 90.17441860464142,
          "velocity": 0.11811023622047244,
          "duration": 0.034883720930224626
        },
        {
          "name": "C#7",
          "midi": 97,
          "time": 90.17441860464142,
          "velocity": 0.2125984251968504,
          "duration": 0.05813953488370771
        },
        {
          "name": "D#3",
          "midi": 51,
          "time": 90.18604651161816,
          "velocity": 0.25984251968503935,
          "duration": 0.023255813953483084
        },
        {
          "name": "G#4",
          "midi": 68,
          "time": 90.18604651161816,
          "velocity": 0.2992125984251969,
          "duration": 0.034883720930224626
        },
        {
          "name": "D#5",
          "midi": 75,
          "time": 90.1976744185949,
          "velocity": 0.3464566929133858,
          "duration": 0.04651162790696617
        },
        {
          "name": "A5",
          "midi": 81,
          "time": 90.1976744185949,
          "velocity": 0.13385826771653545,
          "duration": 0.1627906976743816
        },
        {
          "name": "G3",
          "midi": 55,
          "time": 90.20930232557164,
          "velocity": 0.44881889763779526,
          "duration": 0.1627906976743816
        },
        {
          "name": "D4",
          "midi": 62,
          "time": 90.20930232557164,
          "velocity": 0.2992125984251969,
          "duration": 0.034883720930224626
        },
        {
          "name": "A#5",
          "midi": 82,
          "time": 90.20930232557164,
          "velocity": 0.2125984251968504,
          "duration": 0.20930232558134776
        },
        {
          "name": "D#7",
          "midi": 99,
          "time": 90.20930232557164,
          "velocity": 0.15748031496062992,
          "duration": 0.04651162790696617
        },
        {
          "name": "D5",
          "midi": 74,
          "time": 90.23255813952512,
          "velocity": 0.3228346456692913,
          "duration": 0.06976744186044925
        },
        {
          "name": "C7",
          "midi": 96,
          "time": 90.23255813952512,
          "velocity": 0.1889763779527559,
          "duration": 0.04651162790696617
        },
        {
          "name": "E7",
          "midi": 100,
          "time": 90.23255813952512,
          "velocity": 0.09448818897637795,
          "duration": 0.034883720930224626
        },
        {
          "name": "C4",
          "midi": 60,
          "time": 90.25581395347861,
          "velocity": 0.1889763779527559,
          "duration": 0.034883720930224626
        },
        {
          "name": "A#6",
          "midi": 94,
          "time": 90.25581395347861,
          "velocity": 0.25984251968503935,
          "duration": 0.034883720930224626
        },
        {
          "name": "F5",
          "midi": 77,
          "time": 90.26744186045535,
          "velocity": 0.08661417322834646,
          "duration": 0.04651162790696617
        },
        {
          "name": "C#7",
          "midi": 97,
          "time": 90.26744186045535,
          "velocity": 0.25984251968503935,
          "duration": 0.04651162790696617
        },
        {
          "name": "D#4",
          "midi": 63,
          "time": 90.27906976743209,
          "velocity": 0.23622047244094488,
          "duration": 0.023255813953483084
        },
        {
          "name": "D#5",
          "midi": 75,
          "time": 90.29069767440883,
          "velocity": 0.2992125984251969,
          "duration": 0.0813953488371908
        },
        {
          "name": "D4",
          "midi": 62,
          "time": 90.30232558138557,
          "velocity": 0.23622047244094488,
          "duration": 0.023255813953483084
        },
        {
          "name": "G#6",
          "midi": 92,
          "time": 90.31395348836232,
          "velocity": 0.31496062992125984,
          "duration": 0.04651162790696617
        },
        {
          "name": "G1",
          "midi": 31,
          "time": 90.32558139533906,
          "velocity": 0.7244094488188977,
          "duration": 0.011627906976741542
        },
        {
          "name": "F5",
          "midi": 77,
          "time": 90.32558139533906,
          "velocity": 0.10236220472440945,
          "duration": 0.034883720930224626
        },
        {
          "name": "F#1",
          "midi": 30,
          "time": 90.3372093023158,
          "velocity": 0.6220472440944882,
          "duration": 0.011627906976741542
        },
        {
          "name": "D6",
          "midi": 86,
          "time": 90.3372093023158,
          "velocity": 0.11811023622047244,
          "duration": 0.04651162790696617
        },
        {
          "name": "E7",
          "midi": 100,
          "time": 90.3372093023158,
          "velocity": 0.18110236220472442,
          "duration": 0.034883720930224626
        },
        {
          "name": "D#7",
          "midi": 99,
          "time": 90.34883720929254,
          "velocity": 0.10236220472440945,
          "duration": 0.034883720930224626
        },
        {
          "name": "D5",
          "midi": 74,
          "time": 90.36046511626928,
          "velocity": 0.31496062992125984,
          "duration": 0.04651162790696617
        },
        {
          "name": "F#1",
          "midi": 30,
          "time": 90.37209302324602,
          "velocity": 0.6535433070866141,
          "duration": 0.011627906976741542
        },
        {
          "name": "F5",
          "midi": 77,
          "time": 90.37209302324602,
          "velocity": 0.25984251968503935,
          "duration": 0.7093023255812483
        },
        {
          "name": "G1",
          "midi": 31,
          "time": 90.38372093022276,
          "velocity": 0.7401574803149606,
          "duration": 0.011627906976741542
        },
        {
          "name": "G#5",
          "midi": 80,
          "time": 90.38372093022276,
          "velocity": 0.2125984251968504,
          "duration": 0.04651162790696617
        },
        {
          "name": "F#1",
          "midi": 30,
          "time": 90.3953488371995,
          "velocity": 0.7637795275590551,
          "duration": 0.011627906976741542
        },
        {
          "name": "G#3",
          "midi": 56,
          "time": 90.3953488371995,
          "velocity": 0.4015748031496063,
          "duration": 0.15116279069765426
        },
        {
          "name": "D#4",
          "midi": 63,
          "time": 90.3953488371995,
          "velocity": 0.3543307086614173,
          "duration": 0.2790697674418112
        },
        {
          "name": "G1",
          "midi": 31,
          "time": 90.40697674417625,
          "velocity": 0.7795275590551181,
          "duration": 0.6046511627905744
        },
        {
          "name": "D3",
          "midi": 50,
          "time": 90.43023255812973,
          "velocity": 0.31496062992125984,
          "duration": 0.1627906976743958
        },
        {
          "name": "A#5",
          "midi": 82,
          "time": 90.44186046510647,
          "velocity": 0.2204724409448819,
          "duration": 0.034883720930224626
        },
        {
          "name": "D5",
          "midi": 74,
          "time": 90.46511627905996,
          "velocity": 0.13385826771653545,
          "duration": 0.06976744186046346
        },
        {
          "name": "G#5",
          "midi": 80,
          "time": 90.48837209301344,
          "velocity": 0.11023622047244094,
          "duration": 0.04651162790698038
        },
        {
          "name": "A#5",
          "midi": 82,
          "time": 90.48837209301344,
          "velocity": 0.16535433070866143,
          "duration": 0.12790697674417117
        },
        {
          "name": "G4",
          "midi": 67,
          "time": 90.52325581394368,
          "velocity": 0.47244094488188976,
          "duration": 0.09302325581393234
        },
        {
          "name": "A6",
          "midi": 93,
          "time": 90.53488372092042,
          "velocity": 0.4881889763779528,
          "duration": 0.20930232558134776
        },
        {
          "name": "G3",
          "midi": 55,
          "time": 90.54651162789716,
          "velocity": 0.3543307086614173,
          "duration": 0.023255813953483084
        },
        {
          "name": "G6",
          "midi": 91,
          "time": 90.54651162789716,
          "velocity": 0.2047244094488189,
          "duration": 0.18604651162786467
        },
        {
          "name": "E7",
          "midi": 100,
          "time": 90.54651162789716,
          "velocity": 0.1968503937007874,
          "duration": 0.1395348837208985
        },
        {
          "name": "D#7",
          "midi": 99,
          "time": 90.5581395348739,
          "velocity": 0.2204724409448819,
          "duration": 0.1627906976743816
        },
        {
          "name": "G#3",
          "midi": 56,
          "time": 90.56976744185064,
          "velocity": 0.3779527559055118,
          "duration": 0.05813953488370771
        },
        {
          "name": "F7",
          "midi": 101,
          "time": 90.56976744185064,
          "velocity": 0.33070866141732286,
          "duration": 0.1627906976743816
        },
        {
          "name": "D7",
          "midi": 98,
          "time": 90.58139534882739,
          "velocity": 0.1732283464566929,
          "duration": 0.05813953488370771
        },
        {
          "name": "D5",
          "midi": 74,
          "time": 90.59302325580413,
          "velocity": 0.2283464566929134,
          "duration": 0.023255813953483084
        },
        {
          "name": "D#6",
          "midi": 87,
          "time": 90.59302325580413,
          "velocity": 0.11811023622047244,
          "duration": 0.04651162790696617
        },
        {
          "name": "A4",
          "midi": 69,
          "time": 90.60465116278087,
          "velocity": 0.16535433070866143,
          "duration": 0.04651162790696617
        },
        {
          "name": "G#6",
          "midi": 92,
          "time": 90.60465116278087,
          "velocity": 0.14173228346456693,
          "duration": 0.04651162790696617
        },
        {
          "name": "B6",
          "midi": 95,
          "time": 90.60465116278087,
          "velocity": 0.1968503937007874,
          "duration": 0.11627906976741542
        },
        {
          "name": "D3",
          "midi": 50,
          "time": 90.62790697673435,
          "velocity": 0.2677165354330709,
          "duration": 0.034883720930224626
        },
        {
          "name": "C#6",
          "midi": 85,
          "time": 90.62790697673435,
          "velocity": 0.14960629921259844,
          "duration": 0.034883720930224626
        },
        {
          "name": "C7",
          "midi": 96,
          "time": 90.62790697673435,
          "velocity": 0.1732283464566929,
          "duration": 0.06976744186044925
        },
        {
          "name": "G#3",
          "midi": 56,
          "time": 90.6395348837111,
          "velocity": 0.31496062992125984,
          "duration": 0.034883720930224626
        },
        {
          "name": "G4",
          "midi": 67,
          "time": 90.6395348837111,
          "velocity": 0.3858267716535433,
          "duration": 0.279069767441797
        },
        {
          "name": "D5",
          "midi": 74,
          "time": 90.66279069766458,
          "velocity": 0.2125984251968504,
          "duration": 0.0813953488371908
        },
        {
          "name": "A#5",
          "midi": 82,
          "time": 90.66279069766458,
          "velocity": 0.15748031496062992,
          "duration": 0.09302325581393234
        },
        {
          "name": "D3",
          "midi": 50,
          "time": 90.67441860464132,
          "velocity": 0.25196850393700787,
          "duration": 0.023255813953483084
        },
        {
          "name": "G#3",
          "midi": 56,
          "time": 90.68604651161806,
          "velocity": 0.33858267716535434,
          "duration": 0.04651162790696617
        },
        {
          "name": "D3",
          "midi": 50,
          "time": 90.70930232557154,
          "velocity": 0.33858267716535434,
          "duration": 0.0813953488371908
        },
        {
          "name": "D#5",
          "midi": 75,
          "time": 90.75581395347851,
          "velocity": 0.2125984251968504,
          "duration": 0.10465116279067388
        },
        {
          "name": "G#3",
          "midi": 56,
          "time": 90.76744186045525,
          "velocity": 0.3228346456692913,
          "duration": 0.023255813953483084
        },
        {
          "name": "D3",
          "midi": 50,
          "time": 90.80232558138547,
          "velocity": 0.3228346456692913,
          "duration": 0.19767441860460622
        },
        {
          "name": "G6",
          "midi": 91,
          "time": 90.80232558138547,
          "velocity": 0.2755905511811024,
          "duration": 0.05813953488370771
        },
        {
          "name": "A6",
          "midi": 93,
          "time": 90.80232558138547,
          "velocity": 0.10236220472440945,
          "duration": 0.0813953488371908
        },
        {
          "name": "G#3",
          "midi": 56,
          "time": 90.81395348836222,
          "velocity": 0.2992125984251969,
          "duration": 0.023255813953483084
        },
        {
          "name": "F6",
          "midi": 89,
          "time": 90.82558139533896,
          "velocity": 0.25984251968503935,
          "duration": 0.0813953488371908
        },
        {
          "name": "D5",
          "midi": 74,
          "time": 90.84883720929244,
          "velocity": 0.1968503937007874,
          "duration": 0.034883720930224626
        },
        {
          "name": "D6",
          "midi": 86,
          "time": 90.86046511626918,
          "velocity": 0.1968503937007874,
          "duration": 0.04651162790696617
        },
        {
          "name": "G#3",
          "midi": 56,
          "time": 90.87209302324592,
          "velocity": 0.3937007874015748,
          "duration": 0.04651162790696617
        },
        {
          "name": "D#4",
          "midi": 63,
          "time": 90.87209302324592,
          "velocity": 0.2755905511811024,
          "duration": 0.06976744186044925
        },
        {
          "name": "A4",
          "midi": 69,
          "time": 90.88372093022267,
          "velocity": 0.28346456692913385,
          "duration": 0.09302325581393234
        },
        {
          "name": "A#5",
          "midi": 82,
          "time": 90.8953488371994,
          "velocity": 0.08661417322834646,
          "duration": 0.04651162790696617
        },
        {
          "name": "C6",
          "midi": 84,
          "time": 90.8953488371994,
          "velocity": 0.11023622047244094,
          "duration": 0.04651162790696617
        },
        {
          "name": "G#3",
          "midi": 56,
          "time": 90.93023255812963,
          "velocity": 0.33070866141732286,
          "duration": 0.023255813953483084
        },
        {
          "name": "B5",
          "midi": 83,
          "time": 90.95348837208311,
          "velocity": 0.33070866141732286,
          "duration": 0.1395348837208985
        },
        {
          "name": "D6",
          "midi": 86,
          "time": 90.95348837208311,
          "velocity": 0.3543307086614173,
          "duration": 0.1395348837208985
        },
        {
          "name": "D#4",
          "midi": 63,
          "time": 90.96511627905986,
          "velocity": 0.23622047244094488,
          "duration": 0.0813953488371908
        },
        {
          "name": "A6",
          "midi": 93,
          "time": 90.96511627905986,
          "velocity": 0.3700787401574803,
          "duration": 0.19767441860460622
        },
        {
          "name": "D5",
          "midi": 74,
          "time": 90.9767441860366,
          "velocity": 0.4409448818897638,
          "duration": 0.15116279069764005
        },
        {
          "name": "G5",
          "midi": 79,
          "time": 90.9767441860366,
          "velocity": 0.36220472440944884,
          "duration": 0.0813953488371908
        },
        {
          "name": "F6",
          "midi": 89,
          "time": 90.9767441860366,
          "velocity": 0.4409448818897638,
          "duration": 0.11627906976741542
        },
        {
          "name": "F#6",
          "midi": 90,
          "time": 90.9767441860366,
          "velocity": 0.1732283464566929,
          "duration": 0.04651162790696617
        },
        {
          "name": "G6",
          "midi": 91,
          "time": 90.9767441860366,
          "velocity": 0.4015748031496063,
          "duration": 0.1395348837208985
        },
        {
          "name": "G4",
          "midi": 67,
          "time": 90.98837209301334,
          "velocity": 0.33858267716535434,
          "duration": 0.0813953488371908
        },
        {
          "name": "A4",
          "midi": 69,
          "time": 90.98837209301334,
          "velocity": 0.11023622047244094,
          "duration": 0.034883720930224626
        },
        {
          "name": "C6",
          "midi": 84,
          "time": 90.98837209301334,
          "velocity": 0.16535433070866143,
          "duration": 0.034883720930224626
        },
        {
          "name": "G#3",
          "midi": 56,
          "time": 90.99999999999008,
          "velocity": 0.4251968503937008,
          "duration": 0.15116279069764005
        },
        {
          "name": "F1",
          "midi": 29,
          "time": 91.01162790696682,
          "velocity": 0.5826771653543307,
          "duration": 0.011627906976741542
        },
        {
          "name": "G#6",
          "midi": 92,
          "time": 91.01162790696682,
          "velocity": 0.1889763779527559,
          "duration": 0.034883720930224626
        },
        {
          "name": "D#1",
          "midi": 27,
          "time": 91.04651162789705,
          "velocity": 0.7007874015748031,
          "duration": 0.023255813953483084
        },
        {
          "name": "F#5",
          "midi": 78,
          "time": 91.04651162789705,
          "velocity": 0.33070866141732286,
          "duration": 0.023255813953483084
        },
        {
          "name": "C6",
          "midi": 84,
          "time": 91.04651162789705,
          "velocity": 0.14960629921259844,
          "duration": 0.034883720930224626
        },
        {
          "name": "D1",
          "midi": 26,
          "time": 91.06976744185053,
          "velocity": 0.7322834645669292,
          "duration": 0.011627906976741542
        },
        {
          "name": "D#4",
          "midi": 63,
          "time": 91.06976744185053,
          "velocity": 0.18110236220472442,
          "duration": 0.034883720930224626
        },
        {
          "name": "G5",
          "midi": 79,
          "time": 91.06976744185053,
          "velocity": 0.3543307086614173,
          "duration": 0.3837209302324851
        },
        {
          "name": "C1",
          "midi": 24,
          "time": 91.08139534882727,
          "velocity": 0.7480314960629921,
          "duration": 0.011627906976741542
        },
        {
          "name": "G4",
          "midi": 67,
          "time": 91.08139534882727,
          "velocity": 0.41732283464566927,
          "duration": 0.09302325581393234
        },
        {
          "name": "G#6",
          "midi": 92,
          "time": 91.08139534882727,
          "velocity": 0.11811023622047244,
          "duration": 0.034883720930224626
        },
        {
          "name": "B0",
          "midi": 23,
          "time": 91.09302325580401,
          "velocity": 0.7637795275590551,
          "duration": 0.023255813953483084
        },
        {
          "name": "D4",
          "midi": 62,
          "time": 91.10465116278075,
          "velocity": 0.23622047244094488,
          "duration": 0.06976744186044925
        },
        {
          "name": "C1",
          "midi": 24,
          "time": 91.1162790697575,
          "velocity": 0.7480314960629921,
          "duration": 1.046511627906753
        },
        {
          "name": "F5",
          "midi": 77,
          "time": 91.1162790697575,
          "velocity": 0.18110236220472442,
          "duration": 0.15116279069764005
        },
        {
          "name": "E3",
          "midi": 52,
          "time": 91.13953488371098,
          "velocity": 0.29133858267716534,
          "duration": 0.034883720930224626
        },
        {
          "name": "G#2",
          "midi": 44,
          "time": 91.15116279068772,
          "velocity": 0.2440944881889764,
          "duration": 0.023255813953483084
        },
        {
          "name": "G#3",
          "midi": 56,
          "time": 91.1744186046412,
          "velocity": 0.41732283464566927,
          "duration": 0.20930232558136197
        },
        {
          "name": "D#4",
          "midi": 63,
          "time": 91.1744186046412,
          "velocity": 0.2440944881889764,
          "duration": 0.023255813953483084
        },
        {
          "name": "G2",
          "midi": 43,
          "time": 91.19767441859469,
          "velocity": 0.3228346456692913,
          "duration": 0.023255813953483084
        },
        {
          "name": "F4",
          "midi": 65,
          "time": 91.19767441859469,
          "velocity": 0.33070866141732286,
          "duration": 0.023255813953483084
        },
        {
          "name": "D#6",
          "midi": 87,
          "time": 91.19767441859469,
          "velocity": 0.10236220472440945,
          "duration": 0.034883720930224626
        },
        {
          "name": "D#5",
          "midi": 75,
          "time": 91.20930232557143,
          "velocity": 0.2992125984251969,
          "duration": 0.23255813953484505
        },
        {
          "name": "E3",
          "midi": 52,
          "time": 91.23255813952491,
          "velocity": 0.29133858267716534,
          "duration": 0.023255813953483084
        },
        {
          "name": "D#4",
          "midi": 63,
          "time": 91.23255813952491,
          "velocity": 0.41732283464566927,
          "duration": 0.2790697674418112
        },
        {
          "name": "A#5",
          "midi": 82,
          "time": 91.27906976743188,
          "velocity": 0.3858267716535433,
          "duration": 0.2209302325581035
        },
        {
          "name": "G4",
          "midi": 67,
          "time": 91.29069767440862,
          "velocity": 0.18110236220472442,
          "duration": 0.05813953488372192
        },
        {
          "name": "A#4",
          "midi": 70,
          "time": 91.30232558138536,
          "velocity": 0.4645669291338583,
          "duration": 0.2209302325581035
        },
        {
          "name": "F5",
          "midi": 77,
          "time": 91.30232558138536,
          "velocity": 0.2047244094488189,
          "duration": 0.081395348837205
        },
        {
          "name": "D#3",
          "midi": 51,
          "time": 91.3372093023156,
          "velocity": 0.3543307086614173,
          "duration": 0.023255813953483084
        },
        {
          "name": "C#6",
          "midi": 85,
          "time": 91.3372093023156,
          "velocity": 0.07086614173228346,
          "duration": 0.04651162790696617
        },
        {
          "name": "G3",
          "midi": 55,
          "time": 91.38372093022257,
          "velocity": 0.2440944881889764,
          "duration": 0.023255813953483084
        },
        {
          "name": "G2",
          "midi": 43,
          "time": 91.39534883719931,
          "velocity": 0.2992125984251969,
          "duration": 0.023255813953483084
        },
        {
          "name": "G4",
          "midi": 67,
          "time": 91.39534883719931,
          "velocity": 0.25196850393700787,
          "duration": 0.0813953488371908
        },
        {
          "name": "G#3",
          "midi": 56,
          "time": 91.40697674417605,
          "velocity": 0.31496062992125984,
          "duration": 0.034883720930224626
        },
        {
          "name": "C#6",
          "midi": 85,
          "time": 91.41860465115279,
          "velocity": 0.11023622047244094,
          "duration": 0.06976744186044925
        },
        {
          "name": "G2",
          "midi": 43,
          "time": 91.44186046510627,
          "velocity": 0.28346456692913385,
          "duration": 0.023255813953483084
        },
        {
          "name": "D5",
          "midi": 74,
          "time": 91.44186046510627,
          "velocity": 0.25196850393700787,
          "duration": 0.06976744186044925
        },
        {
          "name": "F6",
          "midi": 89,
          "time": 91.44186046510627,
          "velocity": 0.13385826771653545,
          "duration": 0.05813953488370771
        },
        {
          "name": "D#3",
          "midi": 51,
          "time": 91.45348837208302,
          "velocity": 0.33858267716535434,
          "duration": 0.05813953488370771
        },
        {
          "name": "G#3",
          "midi": 56,
          "time": 91.45348837208302,
          "velocity": 0.4094488188976378,
          "duration": 0.12790697674415696
        },
        {
          "name": "D4",
          "midi": 62,
          "time": 91.51162790696672,
          "velocity": 0.1889763779527559,
          "duration": 0.10465116279067388
        },
        {
          "name": "C#5",
          "midi": 73,
          "time": 91.51162790696672,
          "velocity": 0.08661417322834646,
          "duration": 0.04651162790696617
        },
        {
          "name": "F5",
          "midi": 77,
          "time": 91.51162790696672,
          "velocity": 0.11023622047244094,
          "duration": 0.04651162790696617
        },
        {
          "name": "G5",
          "midi": 79,
          "time": 91.51162790696672,
          "velocity": 0.2204724409448819,
          "duration": 0.0813953488371908
        },
        {
          "name": "G2",
          "midi": 43,
          "time": 91.54651162789695,
          "velocity": 0.31496062992125984,
          "duration": 0.023255813953483084
        },
        {
          "name": "D#6",
          "midi": 87,
          "time": 91.55813953487369,
          "velocity": 0.2204724409448819,
          "duration": 0.3372093023255047
        },
        {
          "name": "A6",
          "midi": 93,
          "time": 91.56976744185043,
          "velocity": 0.14173228346456693,
          "duration": 0.034883720930224626
        },
        {
          "name": "G#2",
          "midi": 44,
          "time": 91.59302325580391,
          "velocity": 0.3543307086614173,
          "duration": 0.023255813953483084
        },
        {
          "name": "G#3",
          "midi": 56,
          "time": 91.59302325580391,
          "velocity": 0.4015748031496063,
          "duration": 0.06976744186044925
        },
        {
          "name": "F5",
          "midi": 77,
          "time": 91.59302325580391,
          "velocity": 0.08661417322834646,
          "duration": 0.04651162790696617
        },
        {
          "name": "G5",
          "midi": 79,
          "time": 91.62790697673414,
          "velocity": 0.2125984251968504,
          "duration": 0.0813953488371908
        },
        {
          "name": "G2",
          "midi": 43,
          "time": 91.63953488371088,
          "velocity": 0.33070866141732286,
          "duration": 0.023255813953483084
        },
        {
          "name": "D4",
          "midi": 62,
          "time": 91.63953488371088,
          "velocity": 0.1889763779527559,
          "duration": 0.05813953488370771
        },
        {
          "name": "F#4",
          "midi": 66,
          "time": 91.6744186046411,
          "velocity": 0.09448818897637795,
          "duration": 0.034883720930224626
        },
        {
          "name": "G2",
          "midi": 43,
          "time": 91.68604651161785,
          "velocity": 0.3228346456692913,
          "duration": 0.023255813953483084
        },
        {
          "name": "G#3",
          "midi": 56,
          "time": 91.69767441859459,
          "velocity": 0.4251968503937008,
          "duration": 0.11627906976741542
        },
        {
          "name": "D4",
          "midi": 62,
          "time": 91.70930232557133,
          "velocity": 0.14173228346456693,
          "duration": 0.034883720930224626
        },
        {
          "name": "G5",
          "midi": 79,
          "time": 91.72093023254807,
          "velocity": 0.2047244094488189,
          "duration": 0.09302325581393234
        },
        {
          "name": "D#5",
          "midi": 75,
          "time": 91.73255813952481,
          "velocity": 0.09448818897637795,
          "duration": 0.034883720930224626
        },
        {
          "name": "D4",
          "midi": 62,
          "time": 91.7558139534783,
          "velocity": 0.2125984251968504,
          "duration": 0.04651162790696617
        },
        {
          "name": "G2",
          "midi": 43,
          "time": 91.77906976743178,
          "velocity": 0.3228346456692913,
          "duration": 0.023255813953483084
        },
        {
          "name": "A#4",
          "midi": 70,
          "time": 91.80232558138526,
          "velocity": 0.4251968503937008,
          "duration": 0.1395348837208985
        },
        {
          "name": "D#5",
          "midi": 75,
          "time": 91.813953488362,
          "velocity": 0.09448818897637795,
          "duration": 0.06976744186044925
        },
        {
          "name": "F5",
          "midi": 77,
          "time": 91.813953488362,
          "velocity": 0.11811023622047244,
          "duration": 0.034883720930224626
        },
        {
          "name": "G5",
          "midi": 79,
          "time": 91.83720930231549,
          "velocity": 0.2204724409448819,
          "duration": 0.06976744186044925
        },
        {
          "name": "G#6",
          "midi": 92,
          "time": 91.87209302324571,
          "velocity": 0.25984251968503935,
          "duration": 0.04651162790696617
        },
        {
          "name": "G#3",
          "midi": 56,
          "time": 91.88372093022245,
          "velocity": 0.29133858267716534,
          "duration": 0.023255813953483084
        },
        {
          "name": "D#4",
          "midi": 63,
          "time": 91.88372093022245,
          "velocity": 0.3543307086614173,
          "duration": 0.034883720930224626
        },
        {
          "name": "D5",
          "midi": 74,
          "time": 91.88372093022245,
          "velocity": 0.23622047244094488,
          "duration": 0.034883720930224626
        },
        {
          "name": "F#6",
          "midi": 90,
          "time": 91.88372093022245,
          "velocity": 0.2125984251968504,
          "duration": 0.034883720930224626
        },
        {
          "name": "G6",
          "midi": 91,
          "time": 91.88372093022245,
          "velocity": 0.41732283464566927,
          "duration": 0.23255813953483084
        },
        {
          "name": "A6",
          "midi": 93,
          "time": 91.88372093022245,
          "velocity": 0.4330708661417323,
          "duration": 0.2558139534883139
        },
        {
          "name": "F6",
          "midi": 89,
          "time": 91.8953488371992,
          "velocity": 0.1889763779527559,
          "duration": 0.1395348837208985
        },
        {
          "name": "F7",
          "midi": 101,
          "time": 91.8953488371992,
          "velocity": 0.33858267716535434,
          "duration": 0.3023255813952801
        },
        {
          "name": "A5",
          "midi": 81,
          "time": 91.90697674417594,
          "velocity": 0.2125984251968504,
          "duration": 0.0813953488371908
        },
        {
          "name": "D#6",
          "midi": 87,
          "time": 91.90697674417594,
          "velocity": 0.14960629921259844,
          "duration": 0.0813953488371908
        },
        {
          "name": "C#7",
          "midi": 97,
          "time": 91.90697674417594,
          "velocity": 0.09448818897637795,
          "duration": 0.04651162790696617
        },
        {
          "name": "F#7",
          "midi": 102,
          "time": 91.90697674417594,
          "velocity": 0.28346456692913385,
          "duration": 0.20930232558134776
        },
        {
          "name": "F4",
          "midi": 65,
          "time": 91.91860465115268,
          "velocity": 0.2283464566929134,
          "duration": 0.023255813953483084
        },
        {
          "name": "C5",
          "midi": 72,
          "time": 91.91860465115268,
          "velocity": 0.3700787401574803,
          "duration": 0.0813953488371908
        },
        {
          "name": "F5",
          "midi": 77,
          "time": 91.91860465115268,
          "velocity": 0.30708661417322836,
          "duration": 0.12790697674415696
        },
        {
          "name": "G5",
          "midi": 79,
          "time": 91.91860465115268,
          "velocity": 0.3228346456692913,
          "duration": 0.41860465116272394
        },
        {
          "name": "C7",
          "midi": 96,
          "time": 91.91860465115268,
          "velocity": 0.10236220472440945,
          "duration": 0.05813953488370771
        },
        {
          "name": "E7",
          "midi": 100,
          "time": 91.93023255812942,
          "velocity": 0.2047244094488189,
          "duration": 0.05813953488370771
        },
        {
          "name": "G#3",
          "midi": 56,
          "time": 91.94186046510616,
          "velocity": 0.3228346456692913,
          "duration": 0.023255813953483084
        },
        {
          "name": "G3",
          "midi": 55,
          "time": 91.96511627905964,
          "velocity": 0.3464566929133858,
          "duration": 0.034883720930224626
        },
        {
          "name": "D5",
          "midi": 74,
          "time": 91.96511627905964,
          "velocity": 0.4409448818897638,
          "duration": 0.1627906976743816
        },
        {
          "name": "G#6",
          "midi": 92,
          "time": 91.96511627905964,
          "velocity": 0.1889763779527559,
          "duration": 0.05813953488370771
        },
        {
          "name": "B5",
          "midi": 83,
          "time": 91.97674418603638,
          "velocity": 0.11023622047244094,
          "duration": 0.1395348837208985
        },
        {
          "name": "B6",
          "midi": 95,
          "time": 91.97674418603638,
          "velocity": 0.28346456692913385,
          "duration": 0.15116279069764005
        },
        {
          "name": "D#4",
          "midi": 63,
          "time": 91.98837209301313,
          "velocity": 0.25196850393700787,
          "duration": 0.09302325581393234
        },
        {
          "name": "G3",
          "midi": 55,
          "time": 92.02325581394335,
          "velocity": 0.3543307086614173,
          "duration": 0.04651162790696617
        },
        {
          "name": "G4",
          "midi": 67,
          "time": 92.02325581394335,
          "velocity": 0.48031496062992124,
          "duration": 0.25581395348832814
        },
        {
          "name": "C#7",
          "midi": 97,
          "time": 92.02325581394335,
          "velocity": 0.2440944881889764,
          "duration": 0.09302325581393234
        },
        {
          "name": "C7",
          "midi": 96,
          "time": 92.03488372092009,
          "velocity": 0.25984251968503935,
          "duration": 0.05813953488370771
        },
        {
          "name": "E7",
          "midi": 100,
          "time": 92.03488372092009,
          "velocity": 0.18110236220472442,
          "duration": 0.034883720930224626
        },
        {
          "name": "D#7",
          "midi": 99,
          "time": 92.04651162789683,
          "velocity": 0.08661417322834646,
          "duration": 0.034883720930224626
        },
        {
          "name": "A#6",
          "midi": 94,
          "time": 92.05813953487358,
          "velocity": 0.2047244094488189,
          "duration": 0.034883720930224626
        },
        {
          "name": "G2",
          "midi": 43,
          "time": 92.06976744185032,
          "velocity": 0.2755905511811024,
          "duration": 0.023255813953483084
        },
        {
          "name": "G3",
          "midi": 55,
          "time": 92.0930232558038,
          "velocity": 0.3937007874015748,
          "duration": 0.06976744186044925
        },
        {
          "name": "D#4",
          "midi": 63,
          "time": 92.0930232558038,
          "velocity": 0.25984251968503935,
          "duration": 0.034883720930224626
        },
        {
          "name": "G#6",
          "midi": 92,
          "time": 92.12790697673402,
          "velocity": 0.28346456692913385,
          "duration": 0.034883720930224626
        },
        {
          "name": "D#4",
          "midi": 63,
          "time": 92.13953488371077,
          "velocity": 0.31496062992125984,
          "duration": 0.5116279069766563
        },
        {
          "name": "A#5",
          "midi": 82,
          "time": 92.13953488371077,
          "velocity": 0.10236220472440945,
          "duration": 0.05813953488370771
        },
        {
          "name": "E7",
          "midi": 100,
          "time": 92.13953488371077,
          "velocity": 0.16535433070866143,
          "duration": 0.04651162790696617
        },
        {
          "name": "B6",
          "midi": 95,
          "time": 92.15116279068751,
          "velocity": 0.2204724409448819,
          "duration": 0.06976744186044925
        },
        {
          "name": "C#1",
          "midi": 25,
          "time": 92.16279069766425,
          "velocity": 0.7086614173228346,
          "duration": 0.011627906976741542
        },
        {
          "name": "D5",
          "midi": 74,
          "time": 92.16279069766425,
          "velocity": 0.14960629921259844,
          "duration": 0.034883720930224626
        },
        {
          "name": "D6",
          "midi": 86,
          "time": 92.16279069766425,
          "velocity": 0.1889763779527559,
          "duration": 0.06976744186044925
        },
        {
          "name": "A6",
          "midi": 93,
          "time": 92.16279069766425,
          "velocity": 0.23622047244094488,
          "duration": 0.034883720930224626
        },
        {
          "name": "C1",
          "midi": 24,
          "time": 92.17441860464099,
          "velocity": 0.7480314960629921,
          "duration": 0.16279069767441
        },
        {
          "name": "G3",
          "midi": 55,
          "time": 92.19767441859447,
          "velocity": 0.2992125984251969,
          "duration": 0.034883720930224626
        },
        {
          "name": "A#4",
          "midi": 70,
          "time": 92.2325581395247,
          "velocity": 0.1889763779527559,
          "duration": 0.09302325581396076
        },
        {
          "name": "G3",
          "midi": 55,
          "time": 92.29069767440842,
          "velocity": 0.3228346456692913,
          "duration": 0.03488372093023884
        },
        {
          "name": "G#3",
          "midi": 56,
          "time": 92.32558139533866,
          "velocity": 0.29133858267716534,
          "duration": 0.023255813953483084
        },
        {
          "name": "G4",
          "midi": 67,
          "time": 92.32558139533866,
          "velocity": 0.41732283464566927,
          "duration": 0.10465116279067388
        },
        {
          "name": "C#1",
          "midi": 25,
          "time": 92.3372093023154,
          "velocity": 0.7559055118110236,
          "duration": 0.011627906976741542
        },
        {
          "name": "D5",
          "midi": 74,
          "time": 92.3372093023154,
          "velocity": 0.29133858267716534,
          "duration": 0.09302325581393234
        },
        {
          "name": "D1",
          "midi": 26,
          "time": 92.34883720929214,
          "velocity": 0.7244094488188977,
          "duration": 0.011627906976741542
        },
        {
          "name": "G3",
          "midi": 55,
          "time": 92.34883720929214,
          "velocity": 0.3464566929133858,
          "duration": 0.11627906976741542
        },
        {
          "name": "G6",
          "midi": 91,
          "time": 92.34883720929214,
          "velocity": 0.2283464566929134,
          "duration": 0.09302325581393234
        },
        {
          "name": "A6",
          "midi": 93,
          "time": 92.34883720929214,
          "velocity": 0.3937007874015748,
          "duration": 0.0813953488371908
        },
        {
          "name": "B0",
          "midi": 23,
          "time": 92.36046511626888,
          "velocity": 0.6299212598425197,
          "duration": 0.011627906976741542
        },
        {
          "name": "D#7",
          "midi": 99,
          "time": 92.36046511626888,
          "velocity": 0.3228346456692913,
          "duration": 0.1627906976743816
        },
        {
          "name": "E7",
          "midi": 100,
          "time": 92.36046511626888,
          "velocity": 0.2047244094488189,
          "duration": 0.06976744186044925
        },
        {
          "name": "F#7",
          "midi": 102,
          "time": 92.36046511626888,
          "velocity": 0.10236220472440945,
          "duration": 0.0813953488371908
        },
        {
          "name": "F#0",
          "midi": 18,
          "time": 92.37209302324563,
          "velocity": 0.5275590551181102,
          "duration": 0.011627906976741542
        },
        {
          "name": "F5",
          "midi": 77,
          "time": 92.37209302324563,
          "velocity": 0.11023622047244094,
          "duration": 0.034883720930224626
        },
        {
          "name": "B5",
          "midi": 83,
          "time": 92.37209302324563,
          "velocity": 0.12598425196850394,
          "duration": 0.04651162790696617
        },
        {
          "name": "B6",
          "midi": 95,
          "time": 92.37209302324563,
          "velocity": 0.1732283464566929,
          "duration": 0.05813953488370771
        },
        {
          "name": "C6",
          "midi": 84,
          "time": 92.38372093022237,
          "velocity": 0.18110236220472442,
          "duration": 0.034883720930224626
        },
        {
          "name": "D#6",
          "midi": 87,
          "time": 92.38372093022237,
          "velocity": 0.1968503937007874,
          "duration": 0.04651162790696617
        },
        {
          "name": "F6",
          "midi": 89,
          "time": 92.38372093022237,
          "velocity": 0.13385826771653545,
          "duration": 0.05813953488370771
        },
        {
          "name": "C#7",
          "midi": 97,
          "time": 92.38372093022237,
          "velocity": 0.14173228346456693,
          "duration": 0.04651162790696617
        },
        {
          "name": "D7",
          "midi": 98,
          "time": 92.38372093022237,
          "velocity": 0.14960629921259844,
          "duration": 0.05813953488370771
        },
        {
          "name": "F7",
          "midi": 101,
          "time": 92.38372093022237,
          "velocity": 0.30708661417322836,
          "duration": 0.1627906976743816
        },
        {
          "name": "G0",
          "midi": 19,
          "time": 92.39534883719911,
          "velocity": 0.4645669291338583,
          "duration": 0.023255813953483084
        },
        {
          "name": "C#6",
          "midi": 85,
          "time": 92.39534883719911,
          "velocity": 0.2125984251968504,
          "duration": 0.04651162790696617
        },
        {
          "name": "F#6",
          "midi": 90,
          "time": 92.40697674417585,
          "velocity": 0.07086614173228346,
          "duration": 0.034883720930224626
        },
        {
          "name": "G#6",
          "midi": 92,
          "time": 92.40697674417585,
          "velocity": 0.23622047244094488,
          "duration": 0.0813953488371908
        },
        {
          "name": "A#6",
          "midi": 94,
          "time": 92.40697674417585,
          "velocity": 0.07086614173228346,
          "duration": 0.04651162790696617
        },
        {
          "name": "D5",
          "midi": 74,
          "time": 92.44186046510607,
          "velocity": 0.2283464566929134,
          "duration": 0.034883720930224626
        },
        {
          "name": "A6",
          "midi": 93,
          "time": 92.44186046510607,
          "velocity": 0.44881889763779526,
          "duration": 0.12790697674415696
        },
        {
          "name": "G4",
          "midi": 67,
          "time": 92.46511627905956,
          "velocity": 0.3228346456692913,
          "duration": 0.12790697674415696
        },
        {
          "name": "B6",
          "midi": 95,
          "time": 92.46511627905956,
          "velocity": 0.11811023622047244,
          "duration": 0.05813953488370771
        },
        {
          "name": "C7",
          "midi": 96,
          "time": 92.46511627905956,
          "velocity": 0.2125984251968504,
          "duration": 0.06976744186044925
        },
        {
          "name": "D7",
          "midi": 98,
          "time": 92.46511627905956,
          "velocity": 0.07086614173228346,
          "duration": 0.034883720930224626
        },
        {
          "name": "G3",
          "midi": 55,
          "time": 92.4767441860363,
          "velocity": 0.36220472440944884,
          "duration": 0.0813953488371908
        },
        {
          "name": "F#7",
          "midi": 102,
          "time": 92.4767441860363,
          "velocity": 0.07874015748031496,
          "duration": 0.05813953488370771
        },
        {
          "name": "D5",
          "midi": 74,
          "time": 92.49999999998978,
          "velocity": 0.1889763779527559,
          "duration": 0.0813953488371908
        },
        {
          "name": "F#4",
          "midi": 66,
          "time": 92.59302325580371,
          "velocity": 0.23622047244094488,
          "duration": 0.023255813953483084
        },
        {
          "name": "A3",
          "midi": 57,
          "time": 92.60465116278046,
          "velocity": 0.29133858267716534,
          "duration": 0.023255813953483084
        },
        {
          "name": "G#4",
          "midi": 68,
          "time": 92.60465116278046,
          "velocity": 0.33070866141732286,
          "duration": 0.023255813953483084
        },
        {
          "name": "B4",
          "midi": 71,
          "time": 92.60465116278046,
          "velocity": 0.2204724409448819,
          "duration": 0.034883720930224626
        },
        {
          "name": "D5",
          "midi": 74,
          "time": 92.6162790697572,
          "velocity": 0.3543307086614173,
          "duration": 0.12790697674417117
        },
        {
          "name": "G3",
          "midi": 55,
          "time": 92.62790697673394,
          "velocity": 0.33070866141732286,
          "duration": 0.09302325581394655
        },
        {
          "name": "G4",
          "midi": 67,
          "time": 92.62790697673394,
          "velocity": 0.4330708661417323,
          "duration": 0.09302325581394655
        },
        {
          "name": "A#4",
          "midi": 70,
          "time": 92.63953488371068,
          "velocity": 0.1968503937007874,
          "duration": 0.09302325581394655
        },
        {
          "name": "D4",
          "midi": 62,
          "time": 92.65116279068742,
          "velocity": 0.31496062992125984,
          "duration": 0.441860465116207
        },
        {
          "name": "F6",
          "midi": 89,
          "time": 92.65116279068742,
          "velocity": 0.25196850393700787,
          "duration": 0.06976744186046346
        },
        {
          "name": "A6",
          "midi": 93,
          "time": 92.65116279068742,
          "velocity": 0.1968503937007874,
          "duration": 0.081395348837205
        },
        {
          "name": "B5",
          "midi": 83,
          "time": 92.66279069766416,
          "velocity": 0.12598425196850394,
          "duration": 0.04651162790698038
        },
        {
          "name": "F3",
          "midi": 53,
          "time": 92.72093023254789,
          "velocity": 0.16535433070866143,
          "duration": 0.034883720930224626
        },
        {
          "name": "G#4",
          "midi": 68,
          "time": 92.72093023254789,
          "velocity": 0.2125984251968504,
          "duration": 0.04651162790696617
        },
        {
          "name": "G5",
          "midi": 79,
          "time": 92.72093023254789,
          "velocity": 0.3937007874015748,
          "duration": 0.15116279069764005
        },
        {
          "name": "A#4",
          "midi": 70,
          "time": 92.74418604650137,
          "velocity": 0.2204724409448819,
          "duration": 0.06976744186044925
        },
        {
          "name": "F#3",
          "midi": 54,
          "time": 92.75581395347811,
          "velocity": 0.18110236220472442,
          "duration": 0.034883720930224626
        },
        {
          "name": "G4",
          "midi": 67,
          "time": 92.76744186045485,
          "velocity": 0.3228346456692913,
          "duration": 0.023255813953483084
        },
        {
          "name": "D6",
          "midi": 86,
          "time": 92.76744186045485,
          "velocity": 0.3779527559055118,
          "duration": 0.29069767441855277
        },
        {
          "name": "B5",
          "midi": 83,
          "time": 92.7790697674316,
          "velocity": 0.33070866141732286,
          "duration": 0.1395348837208985
        },
        {
          "name": "F6",
          "midi": 89,
          "time": 92.7790697674316,
          "velocity": 0.41732283464566927,
          "duration": 0.12790697674415696
        },
        {
          "name": "A6",
          "midi": 93,
          "time": 92.7790697674316,
          "velocity": 0.33858267716535434,
          "duration": 0.18604651162786467
        },
        {
          "name": "G3",
          "midi": 55,
          "time": 92.79069767440834,
          "velocity": 0.3543307086614173,
          "duration": 0.1395348837208985
        },
        {
          "name": "D5",
          "midi": 74,
          "time": 92.79069767440834,
          "velocity": 0.48031496062992124,
          "duration": 0.15116279069764005
        },
        {
          "name": "E6",
          "midi": 88,
          "time": 92.79069767440834,
          "velocity": 0.25984251968503935,
          "duration": 0.023255813953483084
        },
        {
          "name": "G4",
          "midi": 67,
          "time": 92.80232558138508,
          "velocity": 0.3543307086614173,
          "duration": 0.2790697674418112
        },
        {
          "name": "C6",
          "midi": 84,
          "time": 92.80232558138508,
          "velocity": 0.2440944881889764,
          "duration": 0.023255813953483084
        },
        {
          "name": "C#6",
          "midi": 85,
          "time": 92.80232558138508,
          "velocity": 0.25196850393700787,
          "duration": 0.034883720930224626
        },
        {
          "name": "D#6",
          "midi": 87,
          "time": 92.80232558138508,
          "velocity": 0.2204724409448819,
          "duration": 0.04651162790696617
        },
        {
          "name": "G#6",
          "midi": 92,
          "time": 92.80232558138508,
          "velocity": 0.2755905511811024,
          "duration": 0.05813953488370771
        },
        {
          "name": "A#4",
          "midi": 70,
          "time": 92.82558139533856,
          "velocity": 0.1968503937007874,
          "duration": 0.034883720930224626
        },
        {
          "name": "E6",
          "midi": 88,
          "time": 92.82558139533856,
          "velocity": 0.2440944881889764,
          "duration": 0.034883720930224626
        },
        {
          "name": "A5",
          "midi": 81,
          "time": 92.84883720929204,
          "velocity": 0.14173228346456693,
          "duration": 0.04651162790696617
        },
        {
          "name": "A#6",
          "midi": 94,
          "time": 92.86046511626878,
          "velocity": 0.28346456692913385,
          "duration": 0.034883720930224626
        },
        {
          "name": "D#6",
          "midi": 87,
          "time": 92.87209302324553,
          "velocity": 0.30708661417322836,
          "duration": 0.023255813953483084
        },
        {
          "name": "E6",
          "midi": 88,
          "time": 92.87209302324553,
          "velocity": 0.2283464566929134,
          "duration": 0.023255813953483084
        },
        {
          "name": "G#6",
          "midi": 92,
          "time": 92.87209302324553,
          "velocity": 0.3464566929133858,
          "duration": 0.04651162790696617
        },
        {
          "name": "A#4",
          "midi": 70,
          "time": 92.93023255812923,
          "velocity": 0.14173228346456693,
          "duration": 0.06976744186046346
        },
        {
          "name": "D#3",
          "midi": 51,
          "time": 92.96511627905946,
          "velocity": 0.23622047244094488,
          "duration": 0.04651162790698038
        },
        {
          "name": "C5",
          "midi": 72,
          "time": 92.9999999999897,
          "velocity": 0.18110236220472442,
          "duration": 0.04651162790696617
        },
        {
          "name": "F3",
          "midi": 53,
          "time": 93.02325581394318,
          "velocity": 0.28346456692913385,
          "duration": 0.023255813953483084
        },
        {
          "name": "D#3",
          "midi": 51,
          "time": 93.0581395348734,
          "velocity": 0.33070866141732286,
          "duration": 0.22093023255811772
        },
        {
          "name": "A#4",
          "midi": 70,
          "time": 93.0581395348734,
          "velocity": 0.44881889763779526,
          "duration": 0.23255813953485927
        },
        {
          "name": "B5",
          "midi": 83,
          "time": 93.0581395348734,
          "velocity": 0.18110236220472442,
          "duration": 0.04651162790696617
        },
        {
          "name": "C6",
          "midi": 84,
          "time": 93.0581395348734,
          "velocity": 0.12598425196850394,
          "duration": 0.06976744186044925
        },
        {
          "name": "D#6",
          "midi": 87,
          "time": 93.0581395348734,
          "velocity": 0.3464566929133858,
          "duration": 0.04651162790696617
        },
        {
          "name": "D6",
          "midi": 86,
          "time": 93.06976744185015,
          "velocity": 0.36220472440944884,
          "duration": 0.13953488372091272
        },
        {
          "name": "C#6",
          "midi": 85,
          "time": 93.08139534882689,
          "velocity": 0.1889763779527559,
          "duration": 0.034883720930224626
        },
        {
          "name": "G#6",
          "midi": 92,
          "time": 93.08139534882689,
          "velocity": 0.16535433070866143,
          "duration": 0.034883720930224626
        },
        {
          "name": "A5",
          "midi": 81,
          "time": 93.09302325580363,
          "velocity": 0.25196850393700787,
          "duration": 0.023255813953483084
        },
        {
          "name": "F6",
          "midi": 89,
          "time": 93.09302325580363,
          "velocity": 0.13385826771653545,
          "duration": 0.034883720930224626
        },
        {
          "name": "D#4",
          "midi": 63,
          "time": 93.10465116278037,
          "velocity": 0.4015748031496063,
          "duration": 0.20930232558137618
        },
        {
          "name": "D0",
          "midi": 14,
          "time": 93.11627906975711,
          "velocity": 0.1968503937007874,
          "duration": 0.034883720930224626
        },
        {
          "name": "G4",
          "midi": 67,
          "time": 93.12790697673385,
          "velocity": 0.13385826771653545,
          "duration": 0.09302325581394655
        },
        {
          "name": "C#6",
          "midi": 85,
          "time": 93.15116279068734,
          "velocity": 0.11023622047244094,
          "duration": 0.15116279069766847
        },
        {
          "name": "D6",
          "midi": 86,
          "time": 93.2209302325478,
          "velocity": 0.13385826771653545,
          "duration": 0.03488372093023884
        },
        {
          "name": "D5",
          "midi": 74,
          "time": 93.26744186045478,
          "velocity": 0.25984251968503935,
          "duration": 0.034883720930224626
        },
        {
          "name": "A#1",
          "midi": 34,
          "time": 93.27906976743152,
          "velocity": 0.5590551181102362,
          "duration": 0.011627906976741542
        },
        {
          "name": "D3",
          "midi": 50,
          "time": 93.27906976743152,
          "velocity": 0.3228346456692913,
          "duration": 0.023255813953483084
        },
        {
          "name": "F6",
          "midi": 89,
          "time": 93.27906976743152,
          "velocity": 0.14173228346456693,
          "duration": 0.04651162790696617
        },
        {
          "name": "G1",
          "midi": 31,
          "time": 93.29069767440826,
          "velocity": 0.7559055118110236,
          "duration": 0.023255813953483084
        },
        {
          "name": "C6",
          "midi": 84,
          "time": 93.29069767440826,
          "velocity": 0.2992125984251969,
          "duration": 0.06976744186044925
        },
        {
          "name": "A6",
          "midi": 93,
          "time": 93.29069767440826,
          "velocity": 0.09448818897637795,
          "duration": 0.04651162790696617
        },
        {
          "name": "A5",
          "midi": 81,
          "time": 93.302325581385,
          "velocity": 0.25984251968503935,
          "duration": 0.04651162790696617
        },
        {
          "name": "G#1",
          "midi": 32,
          "time": 93.31395348836175,
          "velocity": 0.7637795275590551,
          "duration": 0.6046511627905886
        },
        {
          "name": "A#4",
          "midi": 70,
          "time": 93.31395348836175,
          "velocity": 0.3700787401574803,
          "duration": 0.49999999999991473
        },
        {
          "name": "D5",
          "midi": 74,
          "time": 93.31395348836175,
          "velocity": 0.3543307086614173,
          "duration": 0.034883720930224626
        },
        {
          "name": "B5",
          "midi": 83,
          "time": 93.31395348836175,
          "velocity": 0.12598425196850394,
          "duration": 0.034883720930224626
        },
        {
          "name": "G#3",
          "midi": 56,
          "time": 93.32558139533849,
          "velocity": 0.15748031496062992,
          "duration": 0.034883720930224626
        },
        {
          "name": "D#4",
          "midi": 63,
          "time": 93.32558139533849,
          "velocity": 0.4251968503937008,
          "duration": 0.05813953488370771
        },
        {
          "name": "D#3",
          "midi": 51,
          "time": 93.36046511626871,
          "velocity": 0.30708661417322836,
          "duration": 0.1627906976743958
        },
        {
          "name": "G#4",
          "midi": 68,
          "time": 93.36046511626871,
          "velocity": 0.1732283464566929,
          "duration": 0.034883720930224626
        },
        {
          "name": "B5",
          "midi": 83,
          "time": 93.36046511626871,
          "velocity": 0.28346456692913385,
          "duration": 0.023255813953483084
        },
        {
          "name": "C4",
          "midi": 60,
          "time": 93.39534883719894,
          "velocity": 0.23622047244094488,
          "duration": 0.09302325581394655
        },
        {
          "name": "D5",
          "midi": 74,
          "time": 93.40697674417568,
          "velocity": 0.15748031496062992,
          "duration": 0.03488372093023884
        },
        {
          "name": "F#4",
          "midi": 66,
          "time": 93.44186046510592,
          "velocity": 0.1889763779527559,
          "duration": 0.04651162790696617
        },
        {
          "name": "D5",
          "midi": 74,
          "time": 93.4651162790594,
          "velocity": 0.09448818897637795,
          "duration": 0.034883720930224626
        },
        {
          "name": "D4",
          "midi": 62,
          "time": 93.48837209301288,
          "velocity": 0.3858267716535433,
          "duration": 0.034883720930224626
        },
        {
          "name": "F5",
          "midi": 77,
          "time": 93.51162790696637,
          "velocity": 0.2283464566929134,
          "duration": 0.09302325581393234
        },
        {
          "name": "D#4",
          "midi": 63,
          "time": 93.52325581394311,
          "velocity": 0.36220472440944884,
          "duration": 0.04651162790696617
        },
        {
          "name": "D#3",
          "midi": 51,
          "time": 93.53488372091985,
          "velocity": 0.2992125984251969,
          "duration": 0.0813953488371908
        },
        {
          "name": "G#3",
          "midi": 56,
          "time": 93.53488372091985,
          "velocity": 0.33070866141732286,
          "duration": 0.023255813953483084
        },
        {
          "name": "F#4",
          "midi": 66,
          "time": 93.53488372091985,
          "velocity": 0.14173228346456693,
          "duration": 0.04651162790696617
        },
        {
          "name": "A3",
          "midi": 57,
          "time": 93.56976744185008,
          "velocity": 0.36220472440944884,
          "duration": 0.023255813953483084
        },
        {
          "name": "D4",
          "midi": 62,
          "time": 93.56976744185008,
          "velocity": 0.33858267716535434,
          "duration": 0.023255813953483084
        },
        {
          "name": "F#4",
          "midi": 66,
          "time": 93.59302325580356,
          "velocity": 0.14173228346456693,
          "duration": 0.04651162790696617
        },
        {
          "name": "E5",
          "midi": 76,
          "time": 93.59302325580356,
          "velocity": 0.1732283464566929,
          "duration": 0.034883720930224626
        },
        {
          "name": "A3",
          "midi": 57,
          "time": 93.6046511627803,
          "velocity": 0.2283464566929134,
          "duration": 0.023255813953483084
        },
        {
          "name": "C4",
          "midi": 60,
          "time": 93.6046511627803,
          "velocity": 0.2204724409448819,
          "duration": 0.09302325581394655
        },
        {
          "name": "D#5",
          "midi": 75,
          "time": 93.6046511627803,
          "velocity": 0.25984251968503935,
          "duration": 0.081395348837205
        },
        {
          "name": "D#4",
          "midi": 63,
          "time": 93.61627906975704,
          "velocity": 0.2992125984251969,
          "duration": 0.12790697674417117
        },
        {
          "name": "D#3",
          "midi": 51,
          "time": 93.62790697673378,
          "velocity": 0.2992125984251969,
          "duration": 0.3023255813952943
        },
        {
          "name": "C6",
          "midi": 84,
          "time": 93.63953488371052,
          "velocity": 0.14960629921259844,
          "duration": 0.05813953488372192
        },
        {
          "name": "G#3",
          "midi": 56,
          "time": 93.65116279068727,
          "velocity": 0.13385826771653545,
          "duration": 0.03488372093023884
        },
        {
          "name": "F#4",
          "midi": 66,
          "time": 93.65116279068727,
          "velocity": 0.1732283464566929,
          "duration": 0.05813953488372192
        },
        {
          "name": "E5",
          "midi": 76,
          "time": 93.6860465116175,
          "velocity": 0.12598425196850394,
          "duration": 0.034883720930224626
        },
        {
          "name": "F#4",
          "midi": 66,
          "time": 93.72093023254773,
          "velocity": 0.1968503937007874,
          "duration": 0.09302325581393234
        },
        {
          "name": "E5",
          "midi": 76,
          "time": 93.73255813952447,
          "velocity": 0.2677165354330709,
          "duration": 0.034883720930224626
        },
        {
          "name": "G#3",
          "midi": 56,
          "time": 93.74418604650121,
          "velocity": 0.3779527559055118,
          "duration": 0.10465116279067388
        },
        {
          "name": "D4",
          "midi": 62,
          "time": 93.74418604650121,
          "velocity": 0.3228346456692913,
          "duration": 0.023255813953483084
        },
        {
          "name": "G#5",
          "midi": 80,
          "time": 93.74418604650121,
          "velocity": 0.1732283464566929,
          "duration": 0.05813953488370771
        },
        {
          "name": "D#5",
          "midi": 75,
          "time": 93.75581395347795,
          "velocity": 0.31496062992125984,
          "duration": 0.20930232558134776
        },
        {
          "name": "D#4",
          "midi": 63,
          "time": 93.7674418604547,
          "velocity": 0.31496062992125984,
          "duration": 0.15116279069764005
        },
        {
          "name": "A5",
          "midi": 81,
          "time": 93.77906976743144,
          "velocity": 0.14173228346456693,
          "duration": 0.05813953488370771
        },
        {
          "name": "C4",
          "midi": 60,
          "time": 93.8255813953384,
          "velocity": 0.2283464566929134,
          "duration": 0.023255813953483084
        },
        {
          "name": "A#4",
          "midi": 70,
          "time": 93.8255813953384,
          "velocity": 0.07874015748031496,
          "duration": 0.04651162790696617
        },
        {
          "name": "F#4",
          "midi": 66,
          "time": 93.83720930231515,
          "velocity": 0.1968503937007874,
          "duration": 0.06976744186044925
        },
        {
          "name": "G#3",
          "midi": 56,
          "time": 93.86046511626863,
          "velocity": 0.2755905511811024,
          "duration": 0.023255813953483084
        },
        {
          "name": "F5",
          "midi": 77,
          "time": 93.87209302324537,
          "velocity": 0.12598425196850394,
          "duration": 0.05813953488370771
        },
        {
          "name": "G1",
          "midi": 31,
          "time": 93.91860465115234,
          "velocity": 0.6850393700787402,
          "duration": 0.011627906976741542
        },
        {
          "name": "F1",
          "midi": 29,
          "time": 93.93023255812908,
          "velocity": 0.5275590551181102,
          "duration": 0.011627906976741542
        },
        {
          "name": "G#3",
          "midi": 56,
          "time": 93.94186046510582,
          "velocity": 0.4094488188976378,
          "duration": 0.29069767441855277
        },
        {
          "name": "B0",
          "midi": 23,
          "time": 93.95348837208256,
          "velocity": 0.5748031496062992,
          "duration": 0.011627906976741542
        },
        {
          "name": "C6",
          "midi": 84,
          "time": 93.95348837208256,
          "velocity": 0.1889763779527559,
          "duration": 0.0813953488371908
        },
        {
          "name": "G1",
          "midi": 31,
          "time": 93.9651162790593,
          "velocity": 0.7716535433070866,
          "duration": 0.023255813953483084
        },
        {
          "name": "E4",
          "midi": 64,
          "time": 93.9651162790593,
          "velocity": 0.1968503937007874,
          "duration": 0.034883720930224626
        },
        {
          "name": "F5",
          "midi": 77,
          "time": 93.9651162790593,
          "velocity": 0.31496062992125984,
          "duration": 0.6744186046510805
        },
        {
          "name": "A#5",
          "midi": 82,
          "time": 93.9651162790593,
          "velocity": 0.18110236220472442,
          "duration": 0.10465116279067388
        },
        {
          "name": "C5",
          "midi": 72,
          "time": 93.97674418603604,
          "velocity": 0.10236220472440945,
          "duration": 0.034883720930224626
        },
        {
          "name": "D#5",
          "midi": 75,
          "time": 93.97674418603604,
          "velocity": 0.1889763779527559,
          "duration": 0.04651162790696617
        },
        {
          "name": "F#1",
          "midi": 30,
          "time": 93.98837209301279,
          "velocity": 0.7795275590551181,
          "duration": 0.011627906976741542
        },
        {
          "name": "G1",
          "midi": 31,
          "time": 93.99999999998953,
          "velocity": 0.7795275590551181,
          "duration": 0.5930232558138897
        },
        {
          "name": "D#4",
          "midi": 63,
          "time": 93.99999999998953,
          "velocity": 0.1889763779527559,
          "duration": 0.034883720930224626
        },
        {
          "name": "C#5",
          "midi": 73,
          "time": 94.03488372091975,
          "velocity": 0.11023622047244094,
          "duration": 0.034883720930224626
        },
        {
          "name": "D#5",
          "midi": 75,
          "time": 94.04651162789649,
          "velocity": 0.1732283464566929,
          "duration": 0.04651162790696617
        },
        {
          "name": "D3",
          "midi": 50,
          "time": 94.05813953487323,
          "velocity": 0.29133858267716534,
          "duration": 0.12790697674417117
        },
        {
          "name": "A4",
          "midi": 69,
          "time": 94.06976744184998,
          "velocity": 0.1968503937007874,
          "duration": 0.04651162790696617
        },
        {
          "name": "D5",
          "midi": 74,
          "time": 94.06976744184998,
          "velocity": 0.11023622047244094,
          "duration": 0.04651162790696617
        },
        {
          "name": "F4",
          "midi": 65,
          "time": 94.08139534882672,
          "velocity": 0.18110236220472442,
          "duration": 0.05813953488370771
        },
        {
          "name": "G#5",
          "midi": 80,
          "time": 94.08139534882672,
          "velocity": 0.11023622047244094,
          "duration": 0.034883720930224626
        },
        {
          "name": "A#5",
          "midi": 82,
          "time": 94.1046511627802,
          "velocity": 0.13385826771653545,
          "duration": 0.04651162790696617
        },
        {
          "name": "A4",
          "midi": 69,
          "time": 94.15116279068717,
          "velocity": 0.2204724409448819,
          "duration": 0.05813953488372192
        },
        {
          "name": "D#5",
          "midi": 75,
          "time": 94.15116279068717,
          "velocity": 0.28346456692913385,
          "duration": 0.13953488372091272
        },
        {
          "name": "D#4",
          "midi": 63,
          "time": 94.1860465116174,
          "velocity": 0.2125984251968504,
          "duration": 0.05813953488370771
        },
        {
          "name": "B5",
          "midi": 83,
          "time": 94.1860465116174,
          "velocity": 0.13385826771653545,
          "duration": 0.034883720930224626
        },
        {
          "name": "C#6",
          "midi": 85,
          "time": 94.19767441859415,
          "velocity": 0.18110236220472442,
          "duration": 0.04651162790696617
        },
        {
          "name": "D3",
          "midi": 50,
          "time": 94.22093023254763,
          "velocity": 0.30708661417322836,
          "duration": 0.36046511627904465
        },
        {
          "name": "G#3",
          "midi": 56,
          "time": 94.24418604650111,
          "velocity": 0.4251968503937008,
          "duration": 0.6976744186045778
        },
        {
          "name": "D#4",
          "midi": 63,
          "time": 94.25581395347785,
          "velocity": 0.2283464566929134,
          "duration": 0.034883720930224626
        },
        {
          "name": "A#5",
          "midi": 82,
          "time": 94.25581395347785,
          "velocity": 0.14173228346456693,
          "duration": 0.15116279069765426
        },
        {
          "name": "F4",
          "midi": 65,
          "time": 94.27906976743134,
          "velocity": 0.15748031496062992,
          "duration": 0.034883720930224626
        },
        {
          "name": "A4",
          "midi": 69,
          "time": 94.29069767440808,
          "velocity": 0.13385826771653545,
          "duration": 0.09302325581394655
        },
        {
          "name": "D#5",
          "midi": 75,
          "time": 94.31395348836156,
          "velocity": 0.1968503937007874,
          "duration": 0.081395348837205
        },
        {
          "name": "F4",
          "midi": 65,
          "time": 94.3255813953383,
          "velocity": 0.1889763779527559,
          "duration": 0.11627906976744384
        },
        {
          "name": "A4",
          "midi": 69,
          "time": 94.39534883719877,
          "velocity": 0.1732283464566929,
          "duration": 0.15116279069768268
        },
        {
          "name": "D#5",
          "midi": 75,
          "time": 94.40697674417551,
          "velocity": 0.2125984251968504,
          "duration": 0.23255813953487348
        },
        {
          "name": "A#5",
          "midi": 82,
          "time": 94.45348837208249,
          "velocity": 0.11023622047244094,
          "duration": 0.03488372093023884
        },
        {
          "name": "F4",
          "midi": 65,
          "time": 94.48837209301273,
          "velocity": 0.14960629921259844,
          "duration": 0.04651162790698038
        },
        {
          "name": "D#4",
          "midi": 63,
          "time": 94.52325581394297,
          "velocity": 0.2204724409448819,
          "duration": 0.034883720930224626
        },
        {
          "name": "C#5",
          "midi": 73,
          "time": 94.52325581394297,
          "velocity": 0.07086614173228346,
          "duration": 0.04651162790696617
        },
        {
          "name": "A#5",
          "midi": 82,
          "time": 94.54651162789645,
          "velocity": 0.08661417322834646,
          "duration": 0.034883720930224626
        },
        {
          "name": "A#4",
          "midi": 70,
          "time": 94.58139534882667,
          "velocity": 0.15748031496062992,
          "duration": 0.0813953488371908
        },
        {
          "name": "F#1",
          "midi": 30,
          "time": 94.59302325580342,
          "velocity": 0.6771653543307087,
          "duration": 0.011627906976741542
        },
        {
          "name": "D#4",
          "midi": 63,
          "time": 94.59302325580342,
          "velocity": 0.14960629921259844,
          "duration": 0.034883720930224626
        },
        {
          "name": "G5",
          "midi": 79,
          "time": 94.6162790697569,
          "velocity": 0.3779527559055118,
          "duration": 0.09302325581393234
        },
        {
          "name": "A#1",
          "midi": 34,
          "time": 94.62790697673364,
          "velocity": 0.5196850393700787,
          "duration": 0.011627906976741542
        },
        {
          "name": "E4",
          "midi": 64,
          "time": 94.62790697673364,
          "velocity": 0.11023622047244094,
          "duration": 0.034883720930224626
        },
        {
          "name": "D#1",
          "midi": 27,
          "time": 94.63953488371038,
          "velocity": 0.6614173228346457,
          "duration": 0.011627906976741542
        },
        {
          "name": "C#4",
          "midi": 61,
          "time": 94.63953488371038,
          "velocity": 0.18110236220472442,
          "duration": 0.034883720930224626
        },
        {
          "name": "G4",
          "midi": 67,
          "time": 94.63953488371038,
          "velocity": 0.3858267716535433,
          "duration": 0.10465116279068809
        },
        {
          "name": "D6",
          "midi": 86,
          "time": 94.63953488371038,
          "velocity": 0.16535433070866143,
          "duration": 0.06976744186044925
        },
        {
          "name": "D1",
          "midi": 26,
          "time": 94.65116279068712,
          "velocity": 0.7086614173228346,
          "duration": 0.011627906976741542
        },
        {
          "name": "C#1",
          "midi": 25,
          "time": 94.66279069766387,
          "velocity": 0.7322834645669292,
          "duration": 0.011627906976741542
        },
        {
          "name": "G2",
          "midi": 43,
          "time": 94.66279069766387,
          "velocity": 0.31496062992125984,
          "duration": 0.023255813953483084
        },
        {
          "name": "B0",
          "midi": 23,
          "time": 94.6744186046406,
          "velocity": 0.7559055118110236,
          "duration": 0.023255813953483084
        },
        {
          "name": "C1",
          "midi": 24,
          "time": 94.69767441859409,
          "velocity": 0.7559055118110236,
          "duration": 1.2325581395347456
        },
        {
          "name": "D4",
          "midi": 62,
          "time": 94.70930232557083,
          "velocity": 0.14960629921259844,
          "duration": 0.081395348837205
        },
        {
          "name": "F5",
          "midi": 77,
          "time": 94.74418604650107,
          "velocity": 0.14173228346456693,
          "duration": 0.06976744186044925
        },
        {
          "name": "G2",
          "midi": 43,
          "time": 94.76744186045455,
          "velocity": 0.30708661417322836,
          "duration": 0.023255813953483084
        },
        {
          "name": "G2",
          "midi": 43,
          "time": 94.81395348836152,
          "velocity": 0.2755905511811024,
          "duration": 0.023255813953483084
        },
        {
          "name": "D4",
          "midi": 62,
          "time": 94.81395348836152,
          "velocity": 0.13385826771653545,
          "duration": 0.034883720930224626
        },
        {
          "name": "F5",
          "midi": 77,
          "time": 94.84883720929174,
          "velocity": 0.2047244094488189,
          "duration": 0.1627906976743958
        },
        {
          "name": "F4",
          "midi": 65,
          "time": 94.87209302324523,
          "velocity": 0.07086614173228346,
          "duration": 0.03488372093023884
        },
        {
          "name": "D4",
          "midi": 62,
          "time": 94.91860465115221,
          "velocity": 0.15748031496062992,
          "duration": 0.10465116279067388
        },
        {
          "name": "G#4",
          "midi": 68,
          "time": 94.94186046510569,
          "velocity": 0.25984251968503935,
          "duration": 0.04651162790696617
        },
        {
          "name": "G#3",
          "midi": 56,
          "time": 94.95348837208243,
          "velocity": 0.3779527559055118,
          "duration": 0.11627906976742963
        },
        {
          "name": "G5",
          "midi": 79,
          "time": 94.97674418603592,
          "velocity": 0.2204724409448819,
          "duration": 0.10465116279068809
        },
        {
          "name": "G4",
          "midi": 67,
          "time": 94.98837209301266,
          "velocity": 0.2677165354330709,
          "duration": 0.081395348837205
        },
        {
          "name": "D4",
          "midi": 62,
          "time": 95.03488372091962,
          "velocity": 0.14960629921259844,
          "duration": 0.17441860465116577
        },
        {
          "name": "D6",
          "midi": 86,
          "time": 95.06976744184986,
          "velocity": 0.1968503937007874,
          "duration": 0.33720930232554736
        },
        {
          "name": "G#3",
          "midi": 56,
          "time": 95.0813953488266,
          "velocity": 0.4330708661417323,
          "duration": 0.13953488372092693
        },
        {
          "name": "F5",
          "midi": 77,
          "time": 95.15116279068707,
          "velocity": 0.11023622047244094,
          "duration": 0.06976744186046346
        },
        {
          "name": "D#6",
          "midi": 87,
          "time": 95.15116279068707,
          "velocity": 0.1968503937007874,
          "duration": 0.4069767441859966
        },
        {
          "name": "G5",
          "midi": 79,
          "time": 95.20930232557079,
          "velocity": 0.28346456692913385,
          "duration": 0.15116279069765426
        },
        {
          "name": "G#3",
          "midi": 56,
          "time": 95.23255813952427,
          "velocity": 0.3228346456692913,
          "duration": 0.05813953488372192
        },
        {
          "name": "D4",
          "midi": 62,
          "time": 95.23255813952427,
          "velocity": 0.13385826771653545,
          "duration": 0.06976744186046346
        },
        {
          "name": "F5",
          "midi": 77,
          "time": 95.25581395347776,
          "velocity": 0.08661417322834646,
          "duration": 0.03488372093023884
        },
        {
          "name": "G#4",
          "midi": 68,
          "time": 95.31395348836148,
          "velocity": 0.29133858267716534,
          "duration": 0.034883720930224626
        },
        {
          "name": "D4",
          "midi": 62,
          "time": 95.33720930231496,
          "velocity": 0.14960629921259844,
          "duration": 0.04651162790696617
        },
        {
          "name": "G3",
          "midi": 55,
          "time": 95.3488372092917,
          "velocity": 0.2992125984251969,
          "duration": 0.023255813953483084
        },
        {
          "name": "G#3",
          "midi": 56,
          "time": 95.37209302324518,
          "velocity": 0.3464566929133858,
          "duration": 0.023255813953483084
        },
        {
          "name": "A3",
          "midi": 57,
          "time": 95.39534883719867,
          "velocity": 0.2755905511811024,
          "duration": 0.034883720930224626
        },
        {
          "name": "B4",
          "midi": 71,
          "time": 95.39534883719867,
          "velocity": 0.07874015748031496,
          "duration": 0.034883720930224626
        },
        {
          "name": "D#3",
          "midi": 51,
          "time": 95.40697674417541,
          "velocity": 0.2677165354330709,
          "duration": 0.023255813953483084
        },
        {
          "name": "D4",
          "midi": 62,
          "time": 95.40697674417541,
          "velocity": 0.11811023622047244,
          "duration": 0.13953488372091272
        },
        {
          "name": "G5",
          "midi": 79,
          "time": 95.40697674417541,
          "velocity": 0.08661417322834646,
          "duration": 0.034883720930224626
        },
        {
          "name": "D#5",
          "midi": 75,
          "time": 95.41860465115215,
          "velocity": 0.07086614173228346,
          "duration": 0.04651162790696617
        },
        {
          "name": "G#3",
          "midi": 56,
          "time": 95.44186046510563,
          "velocity": 0.3464566929133858,
          "duration": 0.034883720930224626
        },
        {
          "name": "G5",
          "midi": 79,
          "time": 95.46511627905912,
          "velocity": 0.14960629921259844,
          "duration": 0.10465116279068809
        },
        {
          "name": "G2",
          "midi": 43,
          "time": 95.53488372091958,
          "velocity": 0.31496062992125984,
          "duration": 0.023255813953483084
        },
        {
          "name": "G#3",
          "midi": 56,
          "time": 95.53488372091958,
          "velocity": 0.33070866141732286,
          "duration": 0.034883720930224626
        },
        {
          "name": "B4",
          "midi": 71,
          "time": 95.53488372091958,
          "velocity": 0.13385826771653545,
          "duration": 0.11627906976742963
        },
        {
          "name": "D#4",
          "midi": 63,
          "time": 95.54651162789632,
          "velocity": 0.29133858267716534,
          "duration": 0.31395348837206427
        },
        {
          "name": "A#5",
          "midi": 82,
          "time": 95.55813953487306,
          "velocity": 0.08661417322834646,
          "duration": 0.09302325581394655
        },
        {
          "name": "G#3",
          "midi": 56,
          "time": 95.58139534882655,
          "velocity": 0.31496062992125984,
          "duration": 0.03488372093023884
        },
        {
          "name": "G5",
          "midi": 79,
          "time": 95.58139534882655,
          "velocity": 0.14173228346456693,
          "duration": 0.11627906976744384
        },
        {
          "name": "A3",
          "midi": 57,
          "time": 95.62790697673353,
          "velocity": 0.2992125984251969,
          "duration": 0.023255813953483084
        },
        {
          "name": "F#4",
          "midi": 66,
          "time": 95.62790697673353,
          "velocity": 0.14960629921259844,
          "duration": 0.034883720930224626
        },
        {
          "name": "G2",
          "midi": 43,
          "time": 95.63953488371027,
          "velocity": 0.2755905511811024,
          "duration": 0.023255813953483084
        },
        {
          "name": "G#3",
          "midi": 56,
          "time": 95.65116279068701,
          "velocity": 0.2992125984251969,
          "duration": 0.05813953488372192
        },
        {
          "name": "G4",
          "midi": 67,
          "time": 95.70930232557073,
          "velocity": 0.1889763779527559,
          "duration": 0.034883720930224626
        },
        {
          "name": "G5",
          "midi": 79,
          "time": 95.73255813952422,
          "velocity": 0.36220472440944884,
          "duration": 0.10465116279068809
        },
        {
          "name": "D6",
          "midi": 86,
          "time": 95.7558139534777,
          "velocity": 0.1889763779527559,
          "duration": 0.10465116279068809
        },
        {
          "name": "G4",
          "midi": 67,
          "time": 95.76744186045444,
          "velocity": 0.28346456692913385,
          "duration": 0.081395348837205
        },
        {
          "name": "F5",
          "midi": 77,
          "time": 95.79069767440792,
          "velocity": 0.07086614173228346,
          "duration": 0.04651162790698038
        },
        {
          "name": "F#4",
          "midi": 66,
          "time": 95.84883720929164,
          "velocity": 0.2283464566929134,
          "duration": 0.023255813953483084
        },
        {
          "name": "G2",
          "midi": 43,
          "time": 95.87209302324513,
          "velocity": 0.30708661417322836,
          "duration": 0.023255813953483084
        },
        {
          "name": "D#4",
          "midi": 63,
          "time": 95.87209302324513,
          "velocity": 0.23622047244094488,
          "duration": 0.3488372093022605
        },
        {
          "name": "B4",
          "midi": 71,
          "time": 95.87209302324513,
          "velocity": 0.07874015748031496,
          "duration": 0.04651162790696617
        },
        {
          "name": "G5",
          "midi": 79,
          "time": 95.88372093022187,
          "velocity": 0.15748031496062992,
          "duration": 0.034883720930224626
        },
        {
          "name": "E3",
          "midi": 52,
          "time": 95.90697674417535,
          "velocity": 0.2283464566929134,
          "duration": 0.023255813953483084
        },
        {
          "name": "A3",
          "midi": 57,
          "time": 95.90697674417535,
          "velocity": 0.25984251968503935,
          "duration": 0.034883720930224626
        },
        {
          "name": "D6",
          "midi": 86,
          "time": 95.9186046511521,
          "velocity": 0.09448818897637795,
          "duration": 0.034883720930224626
        },
        {
          "name": "C#1",
          "midi": 25,
          "time": 95.93023255812884,
          "velocity": 0.7480314960629921,
          "duration": 0.011627906976741542
        },
        {
          "name": "G4",
          "midi": 67,
          "time": 95.93023255812884,
          "velocity": 0.1889763779527559,
          "duration": 0.11627906976741542
        },
        {
          "name": "D1",
          "midi": 26,
          "time": 95.94186046510558,
          "velocity": 0.6771653543307087,
          "duration": 0.011627906976741542
        },
        {
          "name": "D5",
          "midi": 74,
          "time": 95.94186046510558,
          "velocity": 0.14173228346456693,
          "duration": 0.05813953488370771
        },
        {
          "name": "A#0",
          "midi": 22,
          "time": 95.95348837208232,
          "velocity": 0.5826771653543307,
          "duration": 0.011627906976741542
        },
        {
          "name": "G5",
          "midi": 79,
          "time": 95.95348837208232,
          "velocity": 0.3700787401574803,
          "duration": 0.1627906976743816
        },
        {
          "name": "D#6",
          "midi": 87,
          "time": 95.96511627905906,
          "velocity": 0.1968503937007874,
          "duration": 0.0813953488371908
        },
        {
          "name": "G#3",
          "midi": 56,
          "time": 95.9767441860358,
          "velocity": 0.25196850393700787,
          "duration": 0.023255813953483084
        },
        {
          "name": "B5",
          "midi": 83,
          "time": 95.9767441860358,
          "velocity": 0.14960629921259844,
          "duration": 0.034883720930224626
        },
        {
          "name": "C6",
          "midi": 84,
          "time": 95.9767441860358,
          "velocity": 0.14173228346456693,
          "duration": 0.05813953488370771
        },
        {
          "name": "D6",
          "midi": 86,
          "time": 95.9767441860358,
          "velocity": 0.23622047244094488,
          "duration": 0.06976744186044925
        },
        {
          "name": "E7",
          "midi": 100,
          "time": 95.98837209301254,
          "velocity": 0.11811023622047244,
          "duration": 0.034883720930224626
        },
        {
          "name": "C#6",
          "midi": 85,
          "time": 95.99999999998929,
          "velocity": 0.1968503937007874,
          "duration": 0.034883720930224626
        },
        {
          "name": "G#3",
          "midi": 56,
          "time": 96.01162790696603,
          "velocity": 0.25984251968503935,
          "duration": 0.034883720930224626
        },
        {
          "name": "G#5",
          "midi": 80,
          "time": 96.02325581394277,
          "velocity": 0.10236220472440945,
          "duration": 0.04651162790696617
        },
        {
          "name": "G#4",
          "midi": 68,
          "time": 96.04651162789625,
          "velocity": 0.13385826771653545,
          "duration": 0.034883720930224626
        },
        {
          "name": "G#3",
          "midi": 56,
          "time": 96.05813953487299,
          "velocity": 0.14960629921259844,
          "duration": 0.12790697674417117
        },
        {
          "name": "D6",
          "midi": 86,
          "time": 96.09302325580322,
          "velocity": 0.11023622047244094,
          "duration": 0.034883720930224626
        },
        {
          "name": "G4",
          "midi": 67,
          "time": 96.1162790697567,
          "velocity": 0.2283464566929134,
          "duration": 0.09302325581394655
        },
        {
          "name": "D5",
          "midi": 74,
          "time": 96.1976744185939,
          "velocity": 0.3700787401574803,
          "duration": 0.31395348837205006
        },
        {
          "name": "A#5",
          "midi": 82,
          "time": 96.1976744185939,
          "velocity": 0.08661417322834646,
          "duration": 0.11627906976741542
        },
        {
          "name": "F3",
          "midi": 53,
          "time": 96.20930232557065,
          "velocity": 0.1968503937007874,
          "duration": 0.034883720930224626
        },
        {
          "name": "D4",
          "midi": 62,
          "time": 96.22093023254739,
          "velocity": 0.25984251968503935,
          "duration": 0.6162790697674012
        },
        {
          "name": "G#4",
          "midi": 68,
          "time": 96.22093023254739,
          "velocity": 0.10236220472440945,
          "duration": 0.04651162790696617
        },
        {
          "name": "A#4",
          "midi": 70,
          "time": 96.22093023254739,
          "velocity": 0.18110236220472442,
          "duration": 0.0813953488371908
        },
        {
          "name": "B2",
          "midi": 47,
          "time": 96.24418604650087,
          "velocity": 0.2125984251968504,
          "duration": 0.034883720930224626
        },
        {
          "name": "G#3",
          "midi": 56,
          "time": 96.25581395347761,
          "velocity": 0.10236220472440945,
          "duration": 0.04651162790696617
        },
        {
          "name": "G5",
          "midi": 79,
          "time": 96.29069767440784,
          "velocity": 0.2440944881889764,
          "duration": 0.081395348837205
        },
        {
          "name": "A5",
          "midi": 81,
          "time": 96.31395348836132,
          "velocity": 0.08661417322834646,
          "duration": 0.081395348837205
        },
        {
          "name": "G5",
          "midi": 79,
          "time": 96.40697674417527,
          "velocity": 0.25196850393700787,
          "duration": 0.3488372093023173
        },
        {
          "name": "A#4",
          "midi": 70,
          "time": 96.41860465115201,
          "velocity": 0.15748031496062992,
          "duration": 0.09302325581394655
        },
        {
          "name": "G#3",
          "midi": 56,
          "time": 96.45348837208225,
          "velocity": 0.07874015748031496,
          "duration": 0.04651162790696617
        },
        {
          "name": "G4",
          "midi": 67,
          "time": 96.47674418603573,
          "velocity": 0.16535433070866143,
          "duration": 0.05813953488370771
        },
        {
          "name": "A#4",
          "midi": 70,
          "time": 96.5232558139427,
          "velocity": 0.11023622047244094,
          "duration": 0.06976744186046346
        },
        {
          "name": "D5",
          "midi": 74,
          "time": 96.53488372091944,
          "velocity": 0.25984251968503935,
          "duration": 0.1046511627907023
        },
        {
          "name": "D6",
          "midi": 86,
          "time": 96.58139534882642,
          "velocity": 0.3228346456692913,
          "duration": 0.22093023255814614
        },
        {
          "name": "G5",
          "midi": 79,
          "time": 96.80232558138457,
          "velocity": 0.11023622047244094,
          "duration": 0.034883720930224626
        },
        {
          "name": "G4",
          "midi": 67,
          "time": 96.82558139533805,
          "velocity": 0.08661417322834646,
          "duration": 0.04651162790696617
        },
        {
          "name": "D5",
          "midi": 74,
          "time": 96.86046511626827,
          "velocity": 0.23622047244094488,
          "duration": 0.04651162790696617
        },
        {
          "name": "A#1",
          "midi": 34,
          "time": 96.87209302324501,
          "velocity": 0.6377952755905512,
          "duration": 0.011627906976741542
        },
        {
          "name": "G5",
          "midi": 79,
          "time": 96.87209302324501,
          "velocity": 0.1732283464566929,
          "duration": 0.10465116279067388
        },
        {
          "name": "A#5",
          "midi": 82,
          "time": 96.87209302324501,
          "velocity": 0.29133858267716534,
          "duration": 0.05813953488370771
        },
        {
          "name": "B5",
          "midi": 83,
          "time": 96.87209302324501,
          "velocity": 0.2204724409448819,
          "duration": 0.034883720930224626
        },
        {
          "name": "G1",
          "midi": 31,
          "time": 96.88372093022176,
          "velocity": 0.7637795275590551,
          "duration": 0.023255813953483084
        },
        {
          "name": "G#3",
          "midi": 56,
          "time": 96.88372093022176,
          "velocity": 0.18110236220472442,
          "duration": 0.034883720930224626
        },
        {
          "name": "D#4",
          "midi": 63,
          "time": 96.88372093022176,
          "velocity": 0.30708661417322836,
          "duration": 0.034883720930224626
        },
        {
          "name": "A5",
          "midi": 81,
          "time": 96.88372093022176,
          "velocity": 0.2440944881889764,
          "duration": 0.06976744186044925
        },
        {
          "name": "C6",
          "midi": 84,
          "time": 96.88372093022176,
          "velocity": 0.2992125984251969,
          "duration": 0.06976744186044925
        },
        {
          "name": "G#1",
          "midi": 32,
          "time": 96.90697674417524,
          "velocity": 0.7637795275590551,
          "duration": 0.5930232558138329
        },
        {
          "name": "D#3",
          "midi": 51,
          "time": 96.90697674417524,
          "velocity": 0.30708661417322836,
          "duration": 0.6046511627905744
        },
        {
          "name": "A#4",
          "midi": 70,
          "time": 96.90697674417524,
          "velocity": 0.11811023622047244,
          "duration": 0.04651162790696617
        },
        {
          "name": "C4",
          "midi": 60,
          "time": 96.91860465115198,
          "velocity": 0.25984251968503935,
          "duration": 0.023255813953483084
        },
        {
          "name": "F#4",
          "midi": 66,
          "time": 96.93023255812872,
          "velocity": 0.18110236220472442,
          "duration": 0.1627906976743816
        },
        {
          "name": "D5",
          "midi": 74,
          "time": 96.94186046510546,
          "velocity": 0.3858267716535433,
          "duration": 0.09302325581393234
        },
        {
          "name": "G#3",
          "midi": 56,
          "time": 96.9534883720822,
          "velocity": 0.15748031496062992,
          "duration": 0.034883720930224626
        },
        {
          "name": "D4",
          "midi": 62,
          "time": 96.9534883720822,
          "velocity": 0.3700787401574803,
          "duration": 0.023255813953483084
        },
        {
          "name": "B5",
          "midi": 83,
          "time": 96.9534883720822,
          "velocity": 0.25196850393700787,
          "duration": 0.023255813953483084
        },
        {
          "name": "A#4",
          "midi": 70,
          "time": 96.96511627905895,
          "velocity": 0.2992125984251969,
          "duration": 0.23255813953483084
        },
        {
          "name": "C4",
          "midi": 60,
          "time": 96.97674418603569,
          "velocity": 0.2204724409448819,
          "duration": 0.09302325581393234
        },
        {
          "name": "E5",
          "midi": 76,
          "time": 96.97674418603569,
          "velocity": 0.11811023622047244,
          "duration": 0.05813953488370771
        },
        {
          "name": "A#5",
          "midi": 82,
          "time": 96.97674418603569,
          "velocity": 0.31496062992125984,
          "duration": 0.34883720930224626
        },
        {
          "name": "G5",
          "midi": 79,
          "time": 97.01162790696591,
          "velocity": 0.16535433070866143,
          "duration": 0.1627906976743816
        },
        {
          "name": "D5",
          "midi": 74,
          "time": 97.04651162789614,
          "velocity": 0.2125984251968504,
          "duration": 0.0813953488371908
        },
        {
          "name": "G#3",
          "midi": 56,
          "time": 97.0930232558031,
          "velocity": 0.28346456692913385,
          "duration": 0.023255813953483084
        },
        {
          "name": "F#4",
          "midi": 66,
          "time": 97.10465116277985,
          "velocity": 0.2047244094488189,
          "duration": 0.18604651162786467
        },
        {
          "name": "A#3",
          "midi": 58,
          "time": 97.11627906975659,
          "velocity": 0.29133858267716534,
          "duration": 0.023255813953483084
        },
        {
          "name": "D4",
          "midi": 62,
          "time": 97.12790697673333,
          "velocity": 0.3228346456692913,
          "duration": 0.04651162790696617
        },
        {
          "name": "F5",
          "midi": 77,
          "time": 97.12790697673333,
          "velocity": 0.2440944881889764,
          "duration": 0.09302325581393234
        },
        {
          "name": "A#3",
          "midi": 58,
          "time": 97.15116279068681,
          "velocity": 0.2755905511811024,
          "duration": 0.023255813953483084
        },
        {
          "name": "A3",
          "midi": 57,
          "time": 97.1744186046403,
          "velocity": 0.3464566929133858,
          "duration": 0.023255813953483084
        },
        {
          "name": "D4",
          "midi": 62,
          "time": 97.18604651161704,
          "velocity": 0.25984251968503935,
          "duration": 0.023255813953483084
        },
        {
          "name": "C4",
          "midi": 60,
          "time": 97.20930232557052,
          "velocity": 0.23622047244094488,
          "duration": 0.11627906976741542
        },
        {
          "name": "B4",
          "midi": 71,
          "time": 97.20930232557052,
          "velocity": 0.2677165354330709,
          "duration": 0.023255813953483084
        },
        {
          "name": "D5",
          "midi": 74,
          "time": 97.20930232557052,
          "velocity": 0.3228346456692913,
          "duration": 0.06976744186044925
        },
        {
          "name": "A#4",
          "midi": 70,
          "time": 97.232558139524,
          "velocity": 0.1968503937007874,
          "duration": 0.09302325581393234
        },
        {
          "name": "C6",
          "midi": 84,
          "time": 97.232558139524,
          "velocity": 0.16535433070866143,
          "duration": 0.06976744186044925
        },
        {
          "name": "E5",
          "midi": 76,
          "time": 97.25581395347749,
          "velocity": 0.08661417322834646,
          "duration": 0.04651162790696617
        },
        {
          "name": "F#4",
          "midi": 66,
          "time": 97.30232558138445,
          "velocity": 0.14173228346456693,
          "duration": 0.06976744186044925
        },
        {
          "name": "D#5",
          "midi": 75,
          "time": 97.30232558138445,
          "velocity": 0.1732283464566929,
          "duration": 0.034883720930224626
        },
        {
          "name": "F5",
          "midi": 77,
          "time": 97.30232558138445,
          "velocity": 0.12598425196850394,
          "duration": 0.034883720930224626
        },
        {
          "name": "D4",
          "midi": 62,
          "time": 97.33720930231468,
          "velocity": 0.29133858267716534,
          "duration": 0.023255813953483084
        },
        {
          "name": "E5",
          "midi": 76,
          "time": 97.33720930231468,
          "velocity": 0.2440944881889764,
          "duration": 0.034883720930224626
        },
        {
          "name": "G#5",
          "midi": 80,
          "time": 97.33720930231468,
          "velocity": 0.1732283464566929,
          "duration": 0.04651162790696617
        },
        {
          "name": "G#3",
          "midi": 56,
          "time": 97.34883720929142,
          "velocity": 0.3464566929133858,
          "duration": 0.09302325581394655
        },
        {
          "name": "A#5",
          "midi": 82,
          "time": 97.34883720929142,
          "velocity": 0.25196850393700787,
          "duration": 0.2441860465115866
        },
        {
          "name": "C4",
          "midi": 60,
          "time": 97.36046511626816,
          "velocity": 0.2283464566929134,
          "duration": 0.023255813953483084
        },
        {
          "name": "D#5",
          "midi": 75,
          "time": 97.3720930232449,
          "velocity": 0.36220472440944884,
          "duration": 0.290697674418567
        },
        {
          "name": "A5",
          "midi": 81,
          "time": 97.3720930232449,
          "velocity": 0.15748031496062992,
          "duration": 0.06976744186046346
        },
        {
          "name": "D4",
          "midi": 62,
          "time": 97.38372093022164,
          "velocity": 0.33858267716535434,
          "duration": 0.03488372093023884
        },
        {
          "name": "A#4",
          "midi": 70,
          "time": 97.38372093022164,
          "velocity": 0.11023622047244094,
          "duration": 0.03488372093023884
        },
        {
          "name": "C4",
          "midi": 60,
          "time": 97.43023255812862,
          "velocity": 0.2204724409448819,
          "duration": 0.04651162790696617
        },
        {
          "name": "F#4",
          "midi": 66,
          "time": 97.44186046510536,
          "velocity": 0.14960629921259844,
          "duration": 0.04651162790696617
        },
        {
          "name": "F5",
          "midi": 77,
          "time": 97.4534883720821,
          "velocity": 0.09448818897637795,
          "duration": 0.034883720930224626
        },
        {
          "name": "G#3",
          "midi": 56,
          "time": 97.46511627905885,
          "velocity": 0.2755905511811024,
          "duration": 0.023255813953483084
        },
        {
          "name": "D4",
          "midi": 62,
          "time": 97.47674418603559,
          "velocity": 0.25196850393700787,
          "duration": 0.023255813953483084
        },
        {
          "name": "G1",
          "midi": 31,
          "time": 97.49999999998907,
          "velocity": 0.7322834645669292,
          "duration": 0.011627906976741542
        },
        {
          "name": "F#1",
          "midi": 30,
          "time": 97.51162790696581,
          "velocity": 0.6299212598425197,
          "duration": 0.011627906976741542
        },
        {
          "name": "A#4",
          "midi": 70,
          "time": 97.51162790696581,
          "velocity": 0.1889763779527559,
          "duration": 0.04651162790696617
        },
        {
          "name": "G#3",
          "midi": 56,
          "time": 97.52325581394255,
          "velocity": 0.2677165354330709,
          "duration": 0.023255813953483084
        },
        {
          "name": "F1",
          "midi": 29,
          "time": 97.54651162789604,
          "velocity": 0.6456692913385826,
          "duration": 0.011627906976741542
        },
        {
          "name": "A#3",
          "midi": 58,
          "time": 97.54651162789604,
          "velocity": 0.3700787401574803,
          "duration": 0.023255813953483084
        },
        {
          "name": "G1",
          "midi": 31,
          "time": 97.55813953487278,
          "velocity": 0.7480314960629921,
          "duration": 0.011627906976741542
        },
        {
          "name": "G#4",
          "midi": 68,
          "time": 97.55813953487278,
          "velocity": 0.2755905511811024,
          "duration": 0.10465116279068809
        },
        {
          "name": "F5",
          "midi": 77,
          "time": 97.55813953487278,
          "velocity": 0.25984251968503935,
          "duration": 0.6976744186046204
        },
        {
          "name": "C6",
          "midi": 84,
          "time": 97.55813953487278,
          "velocity": 0.18110236220472442,
          "duration": 0.034883720930224626
        },
        {
          "name": "F#1",
          "midi": 30,
          "time": 97.56976744184952,
          "velocity": 0.7795275590551181,
          "duration": 0.011627906976741542
        },
        {
          "name": "E4",
          "midi": 64,
          "time": 97.56976744184952,
          "velocity": 0.30708661417322836,
          "duration": 0.023255813953483084
        },
        {
          "name": "G1",
          "midi": 31,
          "time": 97.58139534882626,
          "velocity": 0.7716535433070866,
          "duration": 0.6046511627906881
        },
        {
          "name": "D3",
          "midi": 50,
          "time": 97.58139534882626,
          "velocity": 0.2992125984251969,
          "duration": 0.023255813953483084
        },
        {
          "name": "G#3",
          "midi": 56,
          "time": 97.58139534882626,
          "velocity": 0.4015748031496063,
          "duration": 0.09302325581394655
        },
        {
          "name": "D#4",
          "midi": 63,
          "time": 97.593023255803,
          "velocity": 0.3228346456692913,
          "duration": 0.10465116279068809
        },
        {
          "name": "A#5",
          "midi": 82,
          "time": 97.60465116277975,
          "velocity": 0.2125984251968504,
          "duration": 0.04651162790698038
        },
        {
          "name": "D3",
          "midi": 50,
          "time": 97.63953488370998,
          "velocity": 0.31496062992125984,
          "duration": 0.15116279069765426
        },
        {
          "name": "C#5",
          "midi": 73,
          "time": 97.66279069766347,
          "velocity": 0.08661417322834646,
          "duration": 0.034883720930224626
        },
        {
          "name": "A#5",
          "midi": 82,
          "time": 97.66279069766347,
          "velocity": 0.15748031496062992,
          "duration": 0.12790697674417117
        },
        {
          "name": "A4",
          "midi": 69,
          "time": 97.67441860464021,
          "velocity": 0.1732283464566929,
          "duration": 0.034883720930224626
        },
        {
          "name": "G#3",
          "midi": 56,
          "time": 97.68604651161695,
          "velocity": 0.4015748031496063,
          "duration": 0.4767441860465169
        },
        {
          "name": "D#5",
          "midi": 75,
          "time": 97.69767441859369,
          "velocity": 0.25196850393700787,
          "duration": 0.06976744186046346
        },
        {
          "name": "D#4",
          "midi": 63,
          "time": 97.72093023254718,
          "velocity": 0.31496062992125984,
          "duration": 0.12790697674417117
        },
        {
          "name": "A4",
          "midi": 69,
          "time": 97.75581395347741,
          "velocity": 0.16535433070866143,
          "duration": 0.034883720930224626
        },
        {
          "name": "D#6",
          "midi": 87,
          "time": 97.76744186045416,
          "velocity": 0.13385826771653545,
          "duration": 0.04651162790696617
        },
        {
          "name": "D6",
          "midi": 86,
          "time": 97.7790697674309,
          "velocity": 0.14960629921259844,
          "duration": 0.034883720930224626
        },
        {
          "name": "F7",
          "midi": 101,
          "time": 97.7790697674309,
          "velocity": 0.08661417322834646,
          "duration": 0.034883720930224626
        },
        {
          "name": "C#6",
          "midi": 85,
          "time": 97.79069767440764,
          "velocity": 0.16535433070866143,
          "duration": 0.034883720930224626
        },
        {
          "name": "D3",
          "midi": 50,
          "time": 97.80232558138438,
          "velocity": 0.2677165354330709,
          "duration": 0.034883720930224626
        },
        {
          "name": "A#5",
          "midi": 82,
          "time": 97.8372093023146,
          "velocity": 0.1732283464566929,
          "duration": 0.09302325581396076
        },
        {
          "name": "D3",
          "midi": 50,
          "time": 97.84883720929135,
          "velocity": 0.2992125984251969,
          "duration": 0.15116279069768268
        },
        {
          "name": "F4",
          "midi": 65,
          "time": 97.84883720929135,
          "velocity": 0.1732283464566929,
          "duration": 0.03488372093023884
        },
        {
          "name": "A4",
          "midi": 69,
          "time": 97.88372093022159,
          "velocity": 0.16535433070866143,
          "duration": 0.1046511627907023
        },
        {
          "name": "D#5",
          "midi": 75,
          "time": 97.98837209301229,
          "velocity": 0.2047244094488189,
          "duration": 0.22093023255814614
        },
        {
          "name": "A4",
          "midi": 69,
          "time": 97.99999999998903,
          "velocity": 0.13385826771653545,
          "duration": 0.18604651162792152
        },
        {
          "name": "D3",
          "midi": 50,
          "time": 98.01162790696577,
          "velocity": 0.2992125984251969,
          "duration": 0.16279069767443843
        },
        {
          "name": "D#4",
          "midi": 63,
          "time": 98.04651162789601,
          "velocity": 0.29133858267716534,
          "duration": 0.06976744186047767
        },
        {
          "name": "A#5",
          "midi": 82,
          "time": 98.08139534882625,
          "velocity": 0.08661417322834646,
          "duration": 0.03488372093023884
        },
        {
          "name": "D#4",
          "midi": 63,
          "time": 98.12790697673323,
          "velocity": 0.25196850393700787,
          "duration": 0.09302325581394655
        },
        {
          "name": "G#3",
          "midi": 56,
          "time": 98.17441860464021,
          "velocity": 0.4251968503937008,
          "duration": 0.15116279069764005
        },
        {
          "name": "F1",
          "midi": 29,
          "time": 98.18604651161695,
          "velocity": 0.6062992125984252,
          "duration": 0.011627906976741542
        },
        {
          "name": "G5",
          "midi": 79,
          "time": 98.20930232557043,
          "velocity": 0.33858267716535434,
          "duration": 0.36046511627901623
        },
        {
          "name": "E1",
          "midi": 28,
          "time": 98.22093023254718,
          "velocity": 0.5984251968503937,
          "duration": 0.011627906976741542
        },
        {
          "name": "A4",
          "midi": 69,
          "time": 98.22093023254718,
          "velocity": 0.25984251968503935,
          "duration": 0.023255813953483084
        },
        {
          "name": "D#5",
          "midi": 75,
          "time": 98.22093023254718,
          "velocity": 0.2283464566929134,
          "duration": 0.023255813953483084
        },
        {
          "name": "D6",
          "midi": 86,
          "time": 98.22093023254718,
          "velocity": 0.18110236220472442,
          "duration": 0.0813953488371908
        },
        {
          "name": "D#1",
          "midi": 27,
          "time": 98.23255813952392,
          "velocity": 0.6929133858267716,
          "duration": 0.011627906976741542
        },
        {
          "name": "D1",
          "midi": 26,
          "time": 98.24418604650066,
          "velocity": 0.7244094488188977,
          "duration": 0.011627906976741542
        },
        {
          "name": "G4",
          "midi": 67,
          "time": 98.24418604650066,
          "velocity": 0.4409448818897638,
          "duration": 0.0813953488371908
        },
        {
          "name": "C1",
          "midi": 24,
          "time": 98.2558139534774,
          "velocity": 0.7401574803149606,
          "duration": 0.011627906976741542
        },
        {
          "name": "D5",
          "midi": 74,
          "time": 98.2558139534774,
          "velocity": 0.14960629921259844,
          "duration": 0.06976744186044925
        },
        {
          "name": "B0",
          "midi": 23,
          "time": 98.26744186045414,
          "velocity": 0.7559055118110236,
          "duration": 0.023255813953483084
        },
        {
          "name": "D4",
          "midi": 62,
          "time": 98.27906976743088,
          "velocity": 0.2283464566929134,
          "duration": 0.09302325581393234
        },
        {
          "name": "C1",
          "midi": 24,
          "time": 98.29069767440762,
          "velocity": 0.7559055118110236,
          "duration": 1.232558139534646
        },
        {
          "name": "C#5",
          "midi": 73,
          "time": 98.29069767440762,
          "velocity": 0.13385826771653545,
          "duration": 0.04651162790696617
        },
        {
          "name": "F5",
          "midi": 77,
          "time": 98.29069767440762,
          "velocity": 0.2047244094488189,
          "duration": 0.2674418604650839
        },
        {
          "name": "G#2",
          "midi": 44,
          "time": 98.32558139533785,
          "velocity": 0.2283464566929134,
          "duration": 0.023255813953483084
        },
        {
          "name": "G3",
          "midi": 55,
          "time": 98.32558139533785,
          "velocity": 0.28346456692913385,
          "duration": 0.023255813953483084
        },
        {
          "name": "G#4",
          "midi": 68,
          "time": 98.32558139533785,
          "velocity": 0.2440944881889764,
          "duration": 0.023255813953483084
        },
        {
          "name": "G#3",
          "midi": 56,
          "time": 98.34883720929133,
          "velocity": 0.41732283464566927,
          "duration": 0.20930232558137618
        },
        {
          "name": "G2",
          "midi": 43,
          "time": 98.37209302324482,
          "velocity": 0.31496062992125984,
          "duration": 0.023255813953483084
        },
        {
          "name": "G4",
          "midi": 67,
          "time": 98.38372093022156,
          "velocity": 0.28346456692913385,
          "duration": 0.034883720930224626
        },
        {
          "name": "D#4",
          "midi": 63,
          "time": 98.3953488371983,
          "velocity": 0.1889763779527559,
          "duration": 0.034883720930224626
        },
        {
          "name": "D4",
          "midi": 62,
          "time": 98.53488372091923,
          "velocity": 0.14960629921259844,
          "duration": 0.12790697674415696
        },
        {
          "name": "G2",
          "midi": 43,
          "time": 98.56976744184945,
          "velocity": 0.33858267716535434,
          "duration": 0.023255813953483084
        },
        {
          "name": "G#3",
          "midi": 56,
          "time": 98.56976744184945,
          "velocity": 0.4251968503937008,
          "duration": 0.26744186046505547
        },
        {
          "name": "G4",
          "midi": 67,
          "time": 98.58139534882619,
          "velocity": 0.29133858267716534,
          "duration": 0.06976744186044925
        },
        {
          "name": "G2",
          "midi": 43,
          "time": 98.61627906975642,
          "velocity": 0.2992125984251969,
          "duration": 0.023255813953483084
        },
        {
          "name": "D6",
          "midi": 86,
          "time": 98.66279069766338,
          "velocity": 0.14960629921259844,
          "duration": 0.3255813953487632
        },
        {
          "name": "F5",
          "midi": 77,
          "time": 98.67441860464012,
          "velocity": 0.11023622047244094,
          "duration": 0.04651162790696617
        },
        {
          "name": "D4",
          "midi": 62,
          "time": 98.68604651161687,
          "velocity": 0.1732283464566929,
          "duration": 0.05813953488370771
        },
        {
          "name": "G5",
          "midi": 79,
          "time": 98.70930232557035,
          "velocity": 0.09448818897637795,
          "duration": 0.05813953488370771
        },
        {
          "name": "D#6",
          "midi": 87,
          "time": 98.73255813952383,
          "velocity": 0.2204724409448819,
          "duration": 0.3255813953487632
        },
        {
          "name": "D4",
          "midi": 62,
          "time": 98.75581395347731,
          "velocity": 0.2047244094488189,
          "duration": 0.034883720930224626
        },
        {
          "name": "F5",
          "midi": 77,
          "time": 98.76744186045406,
          "velocity": 0.10236220472440945,
          "duration": 0.04651162790696617
        },
        {
          "name": "G2",
          "midi": 43,
          "time": 98.80232558138428,
          "velocity": 0.33858267716535434,
          "duration": 0.034883720930224626
        },
        {
          "name": "G5",
          "midi": 79,
          "time": 98.80232558138428,
          "velocity": 0.36220472440944884,
          "duration": 0.7209302325579898
        },
        {
          "name": "D4",
          "midi": 62,
          "time": 98.81395348836102,
          "velocity": 0.1889763779527559,
          "duration": 0.0813953488371908
        },
        {
          "name": "F#4",
          "midi": 66,
          "time": 98.84883720929125,
          "velocity": 0.09448818897637795,
          "duration": 0.034883720930224626
        },
        {
          "name": "A3",
          "midi": 57,
          "time": 98.86046511626799,
          "velocity": 0.30708661417322836,
          "duration": 0.023255813953483084
        },
        {
          "name": "F5",
          "midi": 77,
          "time": 98.86046511626799,
          "velocity": 0.07874015748031496,
          "duration": 0.034883720930224626
        },
        {
          "name": "G#3",
          "midi": 56,
          "time": 98.88372093022147,
          "velocity": 0.3228346456692913,
          "duration": 0.034883720930224626
        },
        {
          "name": "G2",
          "midi": 43,
          "time": 98.89534883719821,
          "velocity": 0.33858267716535434,
          "duration": 0.034883720930224626
        },
        {
          "name": "G#3",
          "midi": 56,
          "time": 98.93023255812844,
          "velocity": 0.4251968503937008,
          "duration": 0.11627906976741542
        },
        {
          "name": "D4",
          "midi": 62,
          "time": 98.93023255812844,
          "velocity": 0.16535433070866143,
          "duration": 0.20930232558134776
        },
        {
          "name": "G#2",
          "midi": 44,
          "time": 98.95348837208192,
          "velocity": 0.33070866141732286,
          "duration": 0.023255813953483084
        },
        {
          "name": "F5",
          "midi": 77,
          "time": 98.98837209301215,
          "velocity": 0.08661417322834646,
          "duration": 0.034883720930224626
        },
        {
          "name": "G2",
          "midi": 43,
          "time": 98.99999999998889,
          "velocity": 0.33858267716535434,
          "duration": 0.023255813953483084
        },
        {
          "name": "D#5",
          "midi": 75,
          "time": 99.01162790696563,
          "velocity": 0.07874015748031496,
          "duration": 0.034883720930224626
        },
        {
          "name": "E3",
          "midi": 52,
          "time": 99.02325581394237,
          "velocity": 0.2047244094488189,
          "duration": 0.034883720930224626
        },
        {
          "name": "F#4",
          "midi": 66,
          "time": 99.02325581394237,
          "velocity": 0.07086614173228346,
          "duration": 0.034883720930224626
        },
        {
          "name": "A3",
          "midi": 57,
          "time": 99.04651162789585,
          "velocity": 0.30708661417322836,
          "duration": 0.023255813953483084
        },
        {
          "name": "G#4",
          "midi": 68,
          "time": 99.04651162789585,
          "velocity": 0.10236220472440945,
          "duration": 0.04651162790696617
        },
        {
          "name": "D#6",
          "midi": 87,
          "time": 99.1162790697563,
          "velocity": 0.12598425196850394,
          "duration": 0.04651162790696617
        },
        {
          "name": "G#4",
          "midi": 68,
          "time": 99.12790697673304,
          "velocity": 0.15748031496062992,
          "duration": 0.05813953488370771
        },
        {
          "name": "B4",
          "midi": 71,
          "time": 99.12790697673304,
          "velocity": 0.09448818897637795,
          "duration": 0.10465116279067388
        },
        {
          "name": "G#2",
          "midi": 44,
          "time": 99.13953488370979,
          "velocity": 0.3543307086614173,
          "duration": 0.023255813953483084
        },
        {
          "name": "D#4",
          "midi": 63,
          "time": 99.13953488370979,
          "velocity": 0.29133858267716534,
          "duration": 0.6162790697673302
        },
        {
          "name": "G3",
          "midi": 55,
          "time": 99.15116279068653,
          "velocity": 0.2992125984251969,
          "duration": 0.023255813953483084
        },
        {
          "name": "F5",
          "midi": 77,
          "time": 99.15116279068653,
          "velocity": 0.11811023622047244,
          "duration": 0.06976744186044925
        },
        {
          "name": "A3",
          "midi": 57,
          "time": 99.18604651161675,
          "velocity": 0.25196850393700787,
          "duration": 0.023255813953483084
        },
        {
          "name": "G2",
          "midi": 43,
          "time": 99.1976744185935,
          "velocity": 0.30708661417322836,
          "duration": 0.023255813953483084
        },
        {
          "name": "G#4",
          "midi": 68,
          "time": 99.1976744185935,
          "velocity": 0.07874015748031496,
          "duration": 0.034883720930224626
        },
        {
          "name": "A3",
          "midi": 57,
          "time": 99.23255813952372,
          "velocity": 0.25984251968503935,
          "duration": 0.023255813953483084
        },
        {
          "name": "G#4",
          "midi": 68,
          "time": 99.2558139534772,
          "velocity": 0.11811023622047244,
          "duration": 0.04651162790696617
        },
        {
          "name": "G#3",
          "midi": 56,
          "time": 99.27906976743068,
          "velocity": 0.31496062992125984,
          "duration": 0.05813953488370771
        },
        {
          "name": "G4",
          "midi": 67,
          "time": 99.29069767440743,
          "velocity": 0.4251968503937008,
          "duration": 0.18604651162787889
        },
        {
          "name": "A#5",
          "midi": 82,
          "time": 99.32558139533765,
          "velocity": 0.08661417322834646,
          "duration": 0.034883720930224626
        },
        {
          "name": "G2",
          "midi": 43,
          "time": 99.33720930231439,
          "velocity": 0.25196850393700787,
          "duration": 0.023255813953483084
        },
        {
          "name": "D6",
          "midi": 86,
          "time": 99.34883720929113,
          "velocity": 0.15748031496062992,
          "duration": 0.06976744186046346
        },
        {
          "name": "E3",
          "midi": 52,
          "time": 99.36046511626787,
          "velocity": 0.2204724409448819,
          "duration": 0.05813953488372192
        },
        {
          "name": "A3",
          "midi": 57,
          "time": 99.36046511626787,
          "velocity": 0.23622047244094488,
          "duration": 0.03488372093023884
        },
        {
          "name": "G2",
          "midi": 43,
          "time": 99.43023255812834,
          "velocity": 0.30708661417322836,
          "duration": 0.034883720930224626
        },
        {
          "name": "G#3",
          "midi": 56,
          "time": 99.45348837208182,
          "velocity": 0.30708661417322836,
          "duration": 0.023255813953483084
        },
        {
          "name": "F5",
          "midi": 77,
          "time": 99.45348837208182,
          "velocity": 0.08661417322834646,
          "duration": 0.04651162790696617
        },
        {
          "name": "B4",
          "midi": 71,
          "time": 99.46511627905856,
          "velocity": 0.07086614173228346,
          "duration": 0.04651162790696617
        },
        {
          "name": "G#4",
          "midi": 68,
          "time": 99.48837209301205,
          "velocity": 0.25196850393700787,
          "duration": 0.023255813953483084
        },
        {
          "name": "A3",
          "midi": 57,
          "time": 99.49999999998879,
          "velocity": 0.25196850393700787,
          "duration": 0.023255813953483084
        },
        {
          "name": "G4",
          "midi": 67,
          "time": 99.51162790696553,
          "velocity": 0.2440944881889764,
          "duration": 0.06976744186044925
        },
        {
          "name": "D5",
          "midi": 74,
          "time": 99.51162790696553,
          "velocity": 0.18110236220472442,
          "duration": 0.0813953488371908
        },
        {
          "name": "D1",
          "midi": 26,
          "time": 99.52325581394227,
          "velocity": 0.7244094488188977,
          "duration": 0.011627906976741542
        },
        {
          "name": "B0",
          "midi": 23,
          "time": 99.53488372091901,
          "velocity": 0.6299212598425197,
          "duration": 0.011627906976741542
        },
        {
          "name": "G#3",
          "midi": 56,
          "time": 99.53488372091901,
          "velocity": 0.1889763779527559,
          "duration": 0.09302325581393234
        },
        {
          "name": "G0",
          "midi": 19,
          "time": 99.54651162789575,
          "velocity": 0.5275590551181102,
          "duration": 0.011627906976741542
        },
        {
          "name": "G5",
          "midi": 79,
          "time": 99.54651162789575,
          "velocity": 0.3700787401574803,
          "duration": 0.29069767441855277
        },
        {
          "name": "B5",
          "midi": 83,
          "time": 99.5581395348725,
          "velocity": 0.14960629921259844,
          "duration": 0.034883720930224626
        },
        {
          "name": "D6",
          "midi": 86,
          "time": 99.5581395348725,
          "velocity": 0.2125984251968504,
          "duration": 0.04651162790696617
        },
        {
          "name": "D#6",
          "midi": 87,
          "time": 99.5581395348725,
          "velocity": 0.1968503937007874,
          "duration": 0.05813953488370771
        },
        {
          "name": "G#4",
          "midi": 68,
          "time": 99.56976744184924,
          "velocity": 0.2440944881889764,
          "duration": 0.023255813953483084
        },
        {
          "name": "C6",
          "midi": 84,
          "time": 99.56976744184924,
          "velocity": 0.14173228346456693,
          "duration": 0.04651162790696617
        },
        {
          "name": "F7",
          "midi": 101,
          "time": 99.56976744184924,
          "velocity": 0.09448818897637795,
          "duration": 0.034883720930224626
        },
        {
          "name": "C#6",
          "midi": 85,
          "time": 99.58139534882598,
          "velocity": 0.1968503937007874,
          "duration": 0.034883720930224626
        },
        {
          "name": "G#6",
          "midi": 92,
          "time": 99.58139534882598,
          "velocity": 0.15748031496062992,
          "duration": 0.034883720930224626
        },
        {
          "name": "B4",
          "midi": 71,
          "time": 99.60465116277946,
          "velocity": 0.08661417322834646,
          "duration": 0.05813953488370771
        },
        {
          "name": "G#3",
          "midi": 56,
          "time": 99.63953488370969,
          "velocity": 0.1968503937007874,
          "duration": 0.13953488372091272
        },
        {
          "name": "G4",
          "midi": 67,
          "time": 99.65116279068643,
          "velocity": 0.2283464566929134,
          "duration": 0.04651162790698038
        },
        {
          "name": "G#4",
          "midi": 68,
          "time": 99.69767441859341,
          "velocity": 0.25984251968503935,
          "duration": 0.023255813953483084
        },
        {
          "name": "G4",
          "midi": 67,
          "time": 99.72093023254689,
          "velocity": 0.3464566929133858,
          "duration": 0.06976744186044925
        },
        {
          "name": "D5",
          "midi": 74,
          "time": 99.74418604650037,
          "velocity": 0.3700787401574803,
          "duration": 0.2674418604650981
        },
        {
          "name": "A3",
          "midi": 57,
          "time": 99.7790697674306,
          "velocity": 0.2440944881889764,
          "duration": 0.023255813953483084
        },
        {
          "name": "B4",
          "midi": 71,
          "time": 99.7790697674306,
          "velocity": 0.2204724409448819,
          "duration": 0.034883720930224626
        },
        {
          "name": "G3",
          "midi": 55,
          "time": 99.80232558138408,
          "velocity": 0.25984251968503935,
          "duration": 0.034883720930224626
        },
        {
          "name": "A#4",
          "midi": 70,
          "time": 99.81395348836082,
          "velocity": 0.1732283464566929,
          "duration": 0.05813953488372192
        },
        {
          "name": "D4",
          "midi": 62,
          "time": 99.82558139533757,
          "velocity": 0.2283464566929134,
          "duration": 0.6395348837208843
        },
        {
          "name": "G#3",
          "midi": 56,
          "time": 99.8372093023143,
          "velocity": 0.13385826771653545,
          "duration": 0.1860465116279073
        },
        {
          "name": "G#5",
          "midi": 80,
          "time": 99.8372093023143,
          "velocity": 0.08661417322834646,
          "duration": 0.04651162790698038
        },
        {
          "name": "G#4",
          "midi": 68,
          "time": 99.89534883719803,
          "velocity": 0.1889763779527559,
          "duration": 0.08139534883721922
        },
        {
          "name": "G5",
          "midi": 79,
          "time": 99.89534883719803,
          "velocity": 0.2992125984251969,
          "duration": 0.16279069767441
        },
        {
          "name": "A#4",
          "midi": 70,
          "time": 99.94186046510501,
          "velocity": 0.18110236220472442,
          "duration": 0.03488372093023884
        },
        {
          "name": "A#4",
          "midi": 70,
          "time": 99.99999999998873,
          "velocity": 0.1889763779527559,
          "duration": 0.17441860465113734
        },
        {
          "name": "D6",
          "midi": 86,
          "time": 100.01162790696547,
          "velocity": 0.36220472440944884,
          "duration": 0.38372093023252773
        },
        {
          "name": "G4",
          "midi": 67,
          "time": 100.0465116278957,
          "velocity": 0.14173228346456693,
          "duration": 0.06976744186044925
        },
        {
          "name": "A5",
          "midi": 81,
          "time": 100.08139534882592,
          "velocity": 0.12598425196850394,
          "duration": 0.04651162790696617
        },
        {
          "name": "G5",
          "midi": 79,
          "time": 100.09302325580266,
          "velocity": 0.2283464566929134,
          "duration": 0.25581395348835656
        },
        {
          "name": "G3",
          "midi": 55,
          "time": 100.13953488370963,
          "velocity": 0.14960629921259844,
          "duration": 0.03488372093023884
        },
        {
          "name": "D5",
          "midi": 74,
          "time": 100.13953488370963,
          "velocity": 0.30708661417322836,
          "duration": 0.27906976744185386
        },
        {
          "name": "A5",
          "midi": 81,
          "time": 100.23255813952359,
          "velocity": 0.13385826771653545,
          "duration": 0.06976744186044925
        },
        {
          "name": "B5",
          "midi": 83,
          "time": 100.23255813952359,
          "velocity": 0.16535433070866143,
          "duration": 0.05813953488370771
        },
        {
          "name": "D#6",
          "midi": 87,
          "time": 100.24418604650033,
          "velocity": 0.3228346456692913,
          "duration": 0.034883720930224626
        },
        {
          "name": "E7",
          "midi": 100,
          "time": 100.24418604650033,
          "velocity": 0.11023622047244094,
          "duration": 0.034883720930224626
        },
        {
          "name": "C#6",
          "midi": 85,
          "time": 100.25581395347707,
          "velocity": 0.2125984251968504,
          "duration": 0.034883720930224626
        },
        {
          "name": "G#6",
          "midi": 92,
          "time": 100.25581395347707,
          "velocity": 0.15748031496062992,
          "duration": 0.034883720930224626
        },
        {
          "name": "G5",
          "midi": 79,
          "time": 100.38372093022126,
          "velocity": 0.11811023622047244,
          "duration": 0.04651162790696617
        },
        {
          "name": "B1",
          "midi": 35,
          "time": 100.45348837208171,
          "velocity": 0.5433070866141733,
          "duration": 0.011627906976741542
        },
        {
          "name": "D#5",
          "midi": 75,
          "time": 100.45348837208171,
          "velocity": 0.2125984251968504,
          "duration": 0.034883720930224626
        },
        {
          "name": "G1",
          "midi": 31,
          "time": 100.46511627905845,
          "velocity": 0.7559055118110236,
          "duration": 0.023255813953483084
        },
        {
          "name": "D3",
          "midi": 50,
          "time": 100.46511627905845,
          "velocity": 0.2992125984251969,
          "duration": 0.023255813953483084
        },
        {
          "name": "A5",
          "midi": 81,
          "time": 100.46511627905845,
          "velocity": 0.28346456692913385,
          "duration": 0.05813953488370771
        },
        {
          "name": "C6",
          "midi": 84,
          "time": 100.46511627905845,
          "velocity": 0.30708661417322836,
          "duration": 0.06976744186044925
        },
        {
          "name": "D4",
          "midi": 62,
          "time": 100.47674418603519,
          "velocity": 0.3858267716535433,
          "duration": 0.023255813953483084
        },
        {
          "name": "D6",
          "midi": 86,
          "time": 100.47674418603519,
          "velocity": 0.07874015748031496,
          "duration": 0.06976744186044925
        },
        {
          "name": "G#1",
          "midi": 32,
          "time": 100.48837209301193,
          "velocity": 0.7637795275590551,
          "duration": 0.6046511627905886
        },
        {
          "name": "D#3",
          "midi": 51,
          "time": 100.48837209301193,
          "velocity": 0.29133858267716534,
          "duration": 0.20930232558137618
        },
        {
          "name": "A#4",
          "midi": 70,
          "time": 100.48837209301193,
          "velocity": 0.15748031496062992,
          "duration": 0.05813953488370771
        },
        {
          "name": "A#5",
          "midi": 82,
          "time": 100.48837209301193,
          "velocity": 0.2677165354330709,
          "duration": 0.034883720930224626
        },
        {
          "name": "G#3",
          "midi": 56,
          "time": 100.49999999998867,
          "velocity": 0.15748031496062992,
          "duration": 0.034883720930224626
        },
        {
          "name": "D#4",
          "midi": 63,
          "time": 100.51162790696542,
          "velocity": 0.4330708661417323,
          "duration": 0.04651162790696617
        },
        {
          "name": "F#4",
          "midi": 66,
          "time": 100.51162790696542,
          "velocity": 0.18110236220472442,
          "duration": 0.04651162790696617
        },
        {
          "name": "B5",
          "midi": 83,
          "time": 100.5348837209189,
          "velocity": 0.2755905511811024,
          "duration": 0.023255813953483084
        },
        {
          "name": "A#5",
          "midi": 82,
          "time": 100.55813953487238,
          "velocity": 0.3543307086614173,
          "duration": 0.5465116279068809
        },
        {
          "name": "C4",
          "midi": 60,
          "time": 100.56976744184912,
          "velocity": 0.23622047244094488,
          "duration": 0.09302325581396076
        },
        {
          "name": "A#4",
          "midi": 70,
          "time": 100.56976744184912,
          "velocity": 0.3464566929133858,
          "duration": 0.22093023255811772
        },
        {
          "name": "F#4",
          "midi": 66,
          "time": 100.58139534882586,
          "velocity": 0.15748031496062992,
          "duration": 0.08139534883721922
        },
        {
          "name": "D5",
          "midi": 74,
          "time": 100.58139534882586,
          "velocity": 0.11023622047244094,
          "duration": 0.03488372093023884
        },
        {
          "name": "D4",
          "midi": 62,
          "time": 100.66279069766308,
          "velocity": 0.3858267716535433,
          "duration": 0.034883720930224626
        },
        {
          "name": "F5",
          "midi": 77,
          "time": 100.68604651161657,
          "velocity": 0.2440944881889764,
          "duration": 0.1395348837208985
        },
        {
          "name": "D#4",
          "midi": 63,
          "time": 100.69767441859331,
          "velocity": 0.3700787401574803,
          "duration": 0.0813953488371908
        },
        {
          "name": "F#4",
          "midi": 66,
          "time": 100.69767441859331,
          "velocity": 0.1732283464566929,
          "duration": 0.034883720930224626
        },
        {
          "name": "D#3",
          "midi": 51,
          "time": 100.70930232557005,
          "velocity": 0.29133858267716534,
          "duration": 0.20930232558134776
        },
        {
          "name": "G#3",
          "midi": 56,
          "time": 100.70930232557005,
          "velocity": 0.3228346456692913,
          "duration": 0.023255813953483084
        },
        {
          "name": "A3",
          "midi": 57,
          "time": 100.74418604650027,
          "velocity": 0.3700787401574803,
          "duration": 0.023255813953483084
        },
        {
          "name": "F#4",
          "midi": 66,
          "time": 100.74418604650027,
          "velocity": 0.14960629921259844,
          "duration": 0.05813953488370771
        },
        {
          "name": "B3",
          "midi": 59,
          "time": 100.76744186045376,
          "velocity": 0.29133858267716534,
          "duration": 0.023255813953483084
        },
        {
          "name": "C4",
          "midi": 60,
          "time": 100.79069767440724,
          "velocity": 0.2047244094488189,
          "duration": 0.0813953488371908
        },
        {
          "name": "D#5",
          "midi": 75,
          "time": 100.79069767440724,
          "velocity": 0.2047244094488189,
          "duration": 0.034883720930224626
        },
        {
          "name": "B4",
          "midi": 71,
          "time": 100.80232558138398,
          "velocity": 0.25984251968503935,
          "duration": 0.034883720930224626
        },
        {
          "name": "C6",
          "midi": 84,
          "time": 100.81395348836072,
          "velocity": 0.14173228346456693,
          "duration": 0.0813953488371908
        },
        {
          "name": "A#4",
          "midi": 70,
          "time": 100.82558139533747,
          "velocity": 0.2047244094488189,
          "duration": 0.18604651162786467
        },
        {
          "name": "D5",
          "midi": 74,
          "time": 100.82558139533747,
          "velocity": 0.28346456692913385,
          "duration": 0.09302325581393234
        },
        {
          "name": "E5",
          "midi": 76,
          "time": 100.86046511626769,
          "velocity": 0.11811023622047244,
          "duration": 0.034883720930224626
        },
        {
          "name": "D#4",
          "midi": 63,
          "time": 100.87209302324443,
          "velocity": 0.33070866141732286,
          "duration": 0.2209302325580893
        },
        {
          "name": "C4",
          "midi": 60,
          "time": 100.88372093022117,
          "velocity": 0.23622047244094488,
          "duration": 0.034883720930224626
        },
        {
          "name": "G5",
          "midi": 79,
          "time": 100.88372093022117,
          "velocity": 0.18110236220472442,
          "duration": 0.04651162790696617
        },
        {
          "name": "F#4",
          "midi": 66,
          "time": 100.89534883719791,
          "velocity": 0.2125984251968504,
          "duration": 0.06976744186044925
        },
        {
          "name": "G#3",
          "midi": 56,
          "time": 100.9186046511514,
          "velocity": 0.3779527559055118,
          "duration": 0.1395348837208985
        },
        {
          "name": "E5",
          "midi": 76,
          "time": 100.9186046511514,
          "velocity": 0.2677165354330709,
          "duration": 0.034883720930224626
        },
        {
          "name": "D#3",
          "midi": 51,
          "time": 100.93023255812814,
          "velocity": 0.28346456692913385,
          "duration": 0.17441860465112313
        },
        {
          "name": "D5",
          "midi": 74,
          "time": 100.93023255812814,
          "velocity": 0.1889763779527559,
          "duration": 0.034883720930224626
        },
        {
          "name": "G#5",
          "midi": 80,
          "time": 100.93023255812814,
          "velocity": 0.1732283464566929,
          "duration": 0.034883720930224626
        },
        {
          "name": "A5",
          "midi": 81,
          "time": 100.93023255812814,
          "velocity": 0.12598425196850394,
          "duration": 0.0813953488371908
        },
        {
          "name": "D#6",
          "midi": 87,
          "time": 100.94186046510488,
          "velocity": 0.07086614173228346,
          "duration": 0.04651162790696617
        },
        {
          "name": "F#4",
          "midi": 66,
          "time": 101.01162790696533,
          "velocity": 0.2047244094488189,
          "duration": 0.06976744186044925
        },
        {
          "name": "F5",
          "midi": 77,
          "time": 101.03488372091881,
          "velocity": 0.12598425196850394,
          "duration": 0.06976744186044925
        },
        {
          "name": "A5",
          "midi": 81,
          "time": 101.03488372091881,
          "velocity": 0.12598425196850394,
          "duration": 0.0813953488371908
        },
        {
          "name": "G#4",
          "midi": 68,
          "time": 101.08139534882578,
          "velocity": 0.12598425196850394,
          "duration": 0.034883720930224626
        },
        {
          "name": "G1",
          "midi": 31,
          "time": 101.09302325580252,
          "velocity": 0.6929133858267716,
          "duration": 0.011627906976741542
        },
        {
          "name": "F1",
          "midi": 29,
          "time": 101.10465116277926,
          "velocity": 0.5433070866141733,
          "duration": 0.011627906976741542
        },
        {
          "name": "G#3",
          "midi": 56,
          "time": 101.116279069756,
          "velocity": 0.4094488188976378,
          "duration": 0.29069767441855277
        },
        {
          "name": "F0",
          "midi": 17,
          "time": 101.12790697673275,
          "velocity": 0.5669291338582677,
          "duration": 0.011627906976741542
        },
        {
          "name": "B4",
          "midi": 71,
          "time": 101.12790697673275,
          "velocity": 0.11023622047244094,
          "duration": 0.034883720930224626
        },
        {
          "name": "A#5",
          "midi": 82,
          "time": 101.12790697673275,
          "velocity": 0.2047244094488189,
          "duration": 0.11627906976741542
        },
        {
          "name": "C6",
          "midi": 84,
          "time": 101.12790697673275,
          "velocity": 0.2125984251968504,
          "duration": 0.0813953488371908
        },
        {
          "name": "G1",
          "midi": 31,
          "time": 101.13953488370949,
          "velocity": 0.7716535433070866,
          "duration": 0.023255813953483084
        },
        {
          "name": "D3",
          "midi": 50,
          "time": 101.13953488370949,
          "velocity": 0.2992125984251969,
          "duration": 0.05813953488370771
        },
        {
          "name": "E4",
          "midi": 64,
          "time": 101.13953488370949,
          "velocity": 0.2283464566929134,
          "duration": 0.023255813953483084
        },
        {
          "name": "F5",
          "midi": 77,
          "time": 101.13953488370949,
          "velocity": 0.30708661417322836,
          "duration": 0.6744186046510379
        },
        {
          "name": "F#1",
          "midi": 30,
          "time": 101.16279069766297,
          "velocity": 0.7795275590551181,
          "duration": 0.011627906976741542
        },
        {
          "name": "G1",
          "midi": 31,
          "time": 101.17441860463971,
          "velocity": 0.7795275590551181,
          "duration": 0.5930232558138471
        },
        {
          "name": "D#4",
          "midi": 63,
          "time": 101.17441860463971,
          "velocity": 0.1889763779527559,
          "duration": 0.034883720930224626
        },
        {
          "name": "D#5",
          "midi": 75,
          "time": 101.20930232556994,
          "velocity": 0.2125984251968504,
          "duration": 0.05813953488370771
        },
        {
          "name": "D3",
          "midi": 50,
          "time": 101.23255813952342,
          "velocity": 0.28346456692913385,
          "duration": 0.12790697674417117
        },
        {
          "name": "A4",
          "midi": 69,
          "time": 101.24418604650016,
          "velocity": 0.1889763779527559,
          "duration": 0.034883720930224626
        },
        {
          "name": "F4",
          "midi": 65,
          "time": 101.2558139534769,
          "velocity": 0.18110236220472442,
          "duration": 0.11627906976742963
        },
        {
          "name": "G#5",
          "midi": 80,
          "time": 101.2558139534769,
          "velocity": 0.11023622047244094,
          "duration": 0.034883720930224626
        },
        {
          "name": "A#5",
          "midi": 82,
          "time": 101.2558139534769,
          "velocity": 0.09448818897637795,
          "duration": 0.09302325581394655
        },
        {
          "name": "A4",
          "midi": 69,
          "time": 101.33720930231411,
          "velocity": 0.2125984251968504,
          "duration": 0.04651162790696617
        },
        {
          "name": "D#5",
          "midi": 75,
          "time": 101.33720930231411,
          "velocity": 0.29133858267716534,
          "duration": 0.12790697674415696
        },
        {
          "name": "D#4",
          "midi": 63,
          "time": 101.36046511626759,
          "velocity": 0.1889763779527559,
          "duration": 0.05813953488370771
        },
        {
          "name": "B5",
          "midi": 83,
          "time": 101.36046511626759,
          "velocity": 0.09448818897637795,
          "duration": 0.034883720930224626
        },
        {
          "name": "C#6",
          "midi": 85,
          "time": 101.38372093022107,
          "velocity": 0.1889763779527559,
          "duration": 0.034883720930224626
        },
        {
          "name": "D3",
          "midi": 50,
          "time": 101.39534883719782,
          "velocity": 0.2992125984251969,
          "duration": 0.37209302325574356
        },
        {
          "name": "C5",
          "midi": 72,
          "time": 101.39534883719782,
          "velocity": 0.07874015748031496,
          "duration": 0.034883720930224626
        },
        {
          "name": "A4",
          "midi": 69,
          "time": 101.40697674417456,
          "velocity": 0.2047244094488189,
          "duration": 0.034883720930224626
        },
        {
          "name": "G#3",
          "midi": 56,
          "time": 101.4186046511513,
          "velocity": 0.41732283464566927,
          "duration": 0.6976744186045352
        },
        {
          "name": "A#5",
          "midi": 82,
          "time": 101.4186046511513,
          "velocity": 0.09448818897637795,
          "duration": 0.0813953488371908
        },
        {
          "name": "F4",
          "midi": 65,
          "time": 101.45348837208152,
          "velocity": 0.16535433070866143,
          "duration": 0.034883720930224626
        },
        {
          "name": "A4",
          "midi": 69,
          "time": 101.46511627905826,
          "velocity": 0.14173228346456693,
          "duration": 0.09302325581394655
        },
        {
          "name": "D#5",
          "midi": 75,
          "time": 101.48837209301175,
          "velocity": 0.1889763779527559,
          "duration": 0.09302325581394655
        },
        {
          "name": "F4",
          "midi": 65,
          "time": 101.49999999998849,
          "velocity": 0.18110236220472442,
          "duration": 0.081395348837205
        },
        {
          "name": "C#5",
          "midi": 73,
          "time": 101.49999999998849,
          "velocity": 0.08661417322834646,
          "duration": 0.05813953488372192
        },
        {
          "name": "A#5",
          "midi": 82,
          "time": 101.53488372091873,
          "velocity": 0.14960629921259844,
          "duration": 0.04651162790696617
        },
        {
          "name": "C5",
          "midi": 72,
          "time": 101.55813953487221,
          "velocity": 0.07874015748031496,
          "duration": 0.04651162790696617
        },
        {
          "name": "A4",
          "midi": 69,
          "time": 101.56976744184895,
          "velocity": 0.1889763779527559,
          "duration": 0.19767441860460622
        },
        {
          "name": "D#5",
          "midi": 75,
          "time": 101.59302325580244,
          "velocity": 0.1889763779527559,
          "duration": 0.2209302325580893
        },
        {
          "name": "A#5",
          "midi": 82,
          "time": 101.62790697673266,
          "velocity": 0.10236220472440945,
          "duration": 0.034883720930224626
        },
        {
          "name": "F4",
          "midi": 65,
          "time": 101.65116279068614,
          "velocity": 0.15748031496062992,
          "duration": 0.05813953488370771
        },
        {
          "name": "C#5",
          "midi": 73,
          "time": 101.68604651161637,
          "velocity": 0.07874015748031496,
          "duration": 0.05813953488370771
        },
        {
          "name": "A#5",
          "midi": 82,
          "time": 101.72093023254659,
          "velocity": 0.07874015748031496,
          "duration": 0.034883720930224626
        },
        {
          "name": "F#1",
          "midi": 30,
          "time": 101.76744186045356,
          "velocity": 0.6850393700787402,
          "duration": 0.011627906976741542
        },
        {
          "name": "D#4",
          "midi": 63,
          "time": 101.76744186045356,
          "velocity": 0.11811023622047244,
          "duration": 0.034883720930224626
        },
        {
          "name": "E1",
          "midi": 28,
          "time": 101.7790697674303,
          "velocity": 0.5118110236220472,
          "duration": 0.011627906976741542
        },
        {
          "name": "A#4",
          "midi": 70,
          "time": 101.79069767440704,
          "velocity": 0.14173228346456693,
          "duration": 0.04651162790696617
        },
        {
          "name": "E4",
          "midi": 64,
          "time": 101.80232558138378,
          "velocity": 0.11023622047244094,
          "duration": 0.034883720930224626
        },
        {
          "name": "G5",
          "midi": 79,
          "time": 101.80232558138378,
          "velocity": 0.3700787401574803,
          "duration": 0.0813953488371908
        },
        {
          "name": "D#1",
          "midi": 27,
          "time": 101.81395348836053,
          "velocity": 0.6535433070866141,
          "duration": 0.011627906976741542
        },
        {
          "name": "C#4",
          "midi": 61,
          "time": 101.81395348836053,
          "velocity": 0.1968503937007874,
          "duration": 0.034883720930224626
        },
        {
          "name": "G4",
          "midi": 67,
          "time": 101.81395348836053,
          "velocity": 0.3779527559055118,
          "duration": 0.10465116279068809
        },
        {
          "name": "C6",
          "midi": 84,
          "time": 101.81395348836053,
          "velocity": 0.10236220472440945,
          "duration": 0.034883720930224626
        },
        {
          "name": "D6",
          "midi": 86,
          "time": 101.81395348836053,
          "velocity": 0.15748031496062992,
          "duration": 0.06976744186044925
        },
        {
          "name": "D1",
          "midi": 26,
          "time": 101.82558139533727,
          "velocity": 0.7086614173228346,
          "duration": 0.011627906976741542
        },
        {
          "name": "C#1",
          "midi": 25,
          "time": 101.83720930231401,
          "velocity": 0.7322834645669292,
          "duration": 0.011627906976741542
        },
        {
          "name": "G2",
          "midi": 43,
          "time": 101.83720930231401,
          "velocity": 0.31496062992125984,
          "duration": 0.023255813953483084
        },
        {
          "name": "B0",
          "midi": 23,
          "time": 101.84883720929075,
          "velocity": 0.7637795275590551,
          "duration": 0.023255813953483084
        },
        {
          "name": "C1",
          "midi": 24,
          "time": 101.87209302324423,
          "velocity": 0.7559055118110236,
          "duration": 1.2325581395347598
        },
        {
          "name": "D4",
          "midi": 62,
          "time": 101.88372093022097,
          "velocity": 0.13385826771653545,
          "duration": 0.081395348837205
        },
        {
          "name": "F5",
          "midi": 77,
          "time": 101.91860465115121,
          "velocity": 0.14960629921259844,
          "duration": 0.06976744186044925
        },
        {
          "name": "G2",
          "midi": 43,
          "time": 101.9418604651047,
          "velocity": 0.31496062992125984,
          "duration": 0.023255813953483084
        },
        {
          "name": "G2",
          "midi": 43,
          "time": 101.98837209301166,
          "velocity": 0.28346456692913385,
          "duration": 0.023255813953483084
        },
        {
          "name": "D4",
          "midi": 62,
          "time": 101.98837209301166,
          "velocity": 0.13385826771653545,
          "duration": 0.04651162790696617
        },
        {
          "name": "G4",
          "midi": 67,
          "time": 102.01162790696515,
          "velocity": 0.2755905511811024,
          "duration": 0.034883720930224626
        },
        {
          "name": "F5",
          "midi": 77,
          "time": 102.02325581394189,
          "velocity": 0.2125984251968504,
          "duration": 0.1627906976743958
        },
        {
          "name": "D#5",
          "midi": 75,
          "time": 102.04651162789537,
          "velocity": 0.12598425196850394,
          "duration": 0.03488372093023884
        },
        {
          "name": "G2",
          "midi": 43,
          "time": 102.08139534882561,
          "velocity": 0.2755905511811024,
          "duration": 0.023255813953483084
        },
        {
          "name": "D4",
          "midi": 62,
          "time": 102.09302325580235,
          "velocity": 0.14960629921259844,
          "duration": 0.2906976744185812
        },
        {
          "name": "F#4",
          "midi": 66,
          "time": 102.10465116277909,
          "velocity": 0.12598425196850394,
          "duration": 0.034883720930224626
        },
        {
          "name": "G#3",
          "midi": 56,
          "time": 102.12790697673258,
          "velocity": 0.3700787401574803,
          "duration": 0.11627906976742963
        },
        {
          "name": "G4",
          "midi": 67,
          "time": 102.1627906976628,
          "velocity": 0.3464566929133858,
          "duration": 0.081395348837205
        },
        {
          "name": "G2",
          "midi": 43,
          "time": 102.22093023254652,
          "velocity": 0.3228346456692913,
          "duration": 0.023255813953483084
        },
        {
          "name": "G#3",
          "midi": 56,
          "time": 102.25581395347675,
          "velocity": 0.4409448818897638,
          "duration": 0.04651162790698038
        },
        {
          "name": "D6",
          "midi": 86,
          "time": 102.25581395347675,
          "velocity": 0.1968503937007874,
          "duration": 0.3255813953488058
        },
        {
          "name": "G5",
          "midi": 79,
          "time": 102.26744186045349,
          "velocity": 0.10236220472440945,
          "duration": 0.04651162790698038
        },
        {
          "name": "G#3",
          "midi": 56,
          "time": 102.31395348836047,
          "velocity": 0.41732283464566927,
          "duration": 0.081395348837205
        },
        {
          "name": "F5",
          "midi": 77,
          "time": 102.32558139533721,
          "velocity": 0.11811023622047244,
          "duration": 0.06976744186046346
        },
        {
          "name": "D#6",
          "midi": 87,
          "time": 102.32558139533721,
          "velocity": 0.1889763779527559,
          "duration": 0.41860465116272394
        },
        {
          "name": "G5",
          "midi": 79,
          "time": 102.38372093022093,
          "velocity": 0.28346456692913385,
          "duration": 0.15116279069765426
        },
        {
          "name": "G#4",
          "midi": 68,
          "time": 102.39534883719767,
          "velocity": 0.2047244094488189,
          "duration": 0.04651162790696617
        },
        {
          "name": "G#3",
          "midi": 56,
          "time": 102.40697674417441,
          "velocity": 0.3228346456692913,
          "duration": 0.05813953488370771
        },
        {
          "name": "D4",
          "midi": 62,
          "time": 102.41860465115116,
          "velocity": 0.14960629921259844,
          "duration": 0.11627906976742963
        },
        {
          "name": "G#4",
          "midi": 68,
          "time": 102.4883720930116,
          "velocity": 0.2992125984251969,
          "duration": 0.03488372093023884
        },
        {
          "name": "D#5",
          "midi": 75,
          "time": 102.4883720930116,
          "velocity": 0.08661417322834646,
          "duration": 0.03488372093023884
        },
        {
          "name": "G3",
          "midi": 55,
          "time": 102.52325581394184,
          "velocity": 0.30708661417322836,
          "duration": 0.023255813953483084
        },
        {
          "name": "G#3",
          "midi": 56,
          "time": 102.54651162789533,
          "velocity": 0.3464566929133858,
          "duration": 0.023255813953483084
        },
        {
          "name": "A3",
          "midi": 57,
          "time": 102.56976744184881,
          "velocity": 0.2755905511811024,
          "duration": 0.023255813953483084
        },
        {
          "name": "B4",
          "midi": 71,
          "time": 102.56976744184881,
          "velocity": 0.09448818897637795,
          "duration": 0.034883720930224626
        },
        {
          "name": "D#5",
          "midi": 75,
          "time": 102.58139534882555,
          "velocity": 0.07874015748031496,
          "duration": 0.05813953488370771
        },
        {
          "name": "G5",
          "midi": 79,
          "time": 102.58139534882555,
          "velocity": 0.07086614173228346,
          "duration": 0.034883720930224626
        },
        {
          "name": "D4",
          "midi": 62,
          "time": 102.60465116277904,
          "velocity": 0.11023622047244094,
          "duration": 0.11627906976741542
        },
        {
          "name": "G#3",
          "midi": 56,
          "time": 102.61627906975578,
          "velocity": 0.3543307086614173,
          "duration": 0.034883720930224626
        },
        {
          "name": "F#4",
          "midi": 66,
          "time": 102.63953488370926,
          "velocity": 0.07874015748031496,
          "duration": 0.034883720930224626
        },
        {
          "name": "G5",
          "midi": 79,
          "time": 102.63953488370926,
          "velocity": 0.14173228346456693,
          "duration": 0.10465116279067388
        },
        {
          "name": "E3",
          "midi": 52,
          "time": 102.67441860463948,
          "velocity": 0.2283464566929134,
          "duration": 0.023255813953483084
        },
        {
          "name": "A3",
          "midi": 57,
          "time": 102.67441860463948,
          "velocity": 0.29133858267716534,
          "duration": 0.023255813953483084
        },
        {
          "name": "D3",
          "midi": 50,
          "time": 102.69767441859297,
          "velocity": 0.23622047244094488,
          "duration": 0.023255813953483084
        },
        {
          "name": "G2",
          "midi": 43,
          "time": 102.70930232556971,
          "velocity": 0.2992125984251969,
          "duration": 0.023255813953483084
        },
        {
          "name": "G#3",
          "midi": 56,
          "time": 102.70930232556971,
          "velocity": 0.33858267716535434,
          "duration": 0.034883720930224626
        },
        {
          "name": "B4",
          "midi": 71,
          "time": 102.70930232556971,
          "velocity": 0.09448818897637795,
          "duration": 0.10465116279068809
        },
        {
          "name": "D#4",
          "midi": 63,
          "time": 102.74418604649993,
          "velocity": 0.28346456692913385,
          "duration": 0.616279069767387
        },
        {
          "name": "G#3",
          "midi": 56,
          "time": 102.75581395347668,
          "velocity": 0.31496062992125984,
          "duration": 0.03488372093023884
        },
        {
          "name": "G5",
          "midi": 79,
          "time": 102.75581395347668,
          "velocity": 0.3543307086614173,
          "duration": 0.27906976744185386
        },
        {
          "name": "G#4",
          "midi": 68,
          "time": 102.79069767440691,
          "velocity": 0.12598425196850394,
          "duration": 0.034883720930224626
        },
        {
          "name": "G2",
          "midi": 43,
          "time": 102.80232558138366,
          "velocity": 0.29133858267716534,
          "duration": 0.023255813953483084
        },
        {
          "name": "A3",
          "midi": 57,
          "time": 102.80232558138366,
          "velocity": 0.2992125984251969,
          "duration": 0.034883720930224626
        },
        {
          "name": "G#3",
          "midi": 56,
          "time": 102.83720930231388,
          "velocity": 0.29133858267716534,
          "duration": 0.03488372093023884
        },
        {
          "name": "F#4",
          "midi": 66,
          "time": 102.8953488371976,
          "velocity": 0.14173228346456693,
          "duration": 0.03488372093023884
        },
        {
          "name": "D6",
          "midi": 86,
          "time": 102.93023255812784,
          "velocity": 0.1889763779527559,
          "duration": 0.10465116279068809
        },
        {
          "name": "G4",
          "midi": 67,
          "time": 102.94186046510458,
          "velocity": 0.30708661417322836,
          "duration": 0.081395348837205
        },
        {
          "name": "G5",
          "midi": 79,
          "time": 103.04651162789527,
          "velocity": 0.3858267716535433,
          "duration": 0.2441860465115866
        },
        {
          "name": "E3",
          "midi": 52,
          "time": 103.08139534882551,
          "velocity": 0.2125984251968504,
          "duration": 0.034883720930224626
        },
        {
          "name": "A3",
          "midi": 57,
          "time": 103.08139534882551,
          "velocity": 0.25984251968503935,
          "duration": 0.023255813953483084
        },
        {
          "name": "G#4",
          "midi": 68,
          "time": 103.08139534882551,
          "velocity": 0.11023622047244094,
          "duration": 0.06976744186044925
        },
        {
          "name": "C#1",
          "midi": 25,
          "time": 103.10465116277899,
          "velocity": 0.7559055118110236,
          "duration": 0.011627906976741542
        },
        {
          "name": "D1",
          "midi": 26,
          "time": 103.11627906975573,
          "velocity": 0.6850393700787402,
          "duration": 0.011627906976741542
        },
        {
          "name": "A#0",
          "midi": 22,
          "time": 103.12790697673248,
          "velocity": 0.5905511811023622,
          "duration": 0.011627906976741542
        },
        {
          "name": "D#6",
          "midi": 87,
          "time": 103.13953488370922,
          "velocity": 0.2204724409448819,
          "duration": 0.05813953488370771
        },
        {
          "name": "G#3",
          "midi": 56,
          "time": 103.15116279068596,
          "velocity": 0.25984251968503935,
          "duration": 0.023255813953483084
        },
        {
          "name": "B5",
          "midi": 83,
          "time": 103.15116279068596,
          "velocity": 0.15748031496062992,
          "duration": 0.05813953488370771
        },
        {
          "name": "C6",
          "midi": 84,
          "time": 103.15116279068596,
          "velocity": 0.15748031496062992,
          "duration": 0.05813953488370771
        },
        {
          "name": "D6",
          "midi": 86,
          "time": 103.15116279068596,
          "velocity": 0.23622047244094488,
          "duration": 0.06976744186044925
        },
        {
          "name": "F7",
          "midi": 101,
          "time": 103.15116279068596,
          "velocity": 0.11023622047244094,
          "duration": 0.04651162790696617
        },
        {
          "name": "E7",
          "midi": 100,
          "time": 103.1627906976627,
          "velocity": 0.13385826771653545,
          "duration": 0.034883720930224626
        },
        {
          "name": "F#0",
          "midi": 18,
          "time": 103.17441860463944,
          "velocity": 0.3228346456692913,
          "duration": 0.023255813953483084
        },
        {
          "name": "C#6",
          "midi": 85,
          "time": 103.17441860463944,
          "velocity": 0.1889763779527559,
          "duration": 0.034883720930224626
        },
        {
          "name": "G#6",
          "midi": 92,
          "time": 103.17441860463944,
          "velocity": 0.13385826771653545,
          "duration": 0.034883720930224626
        },
        {
          "name": "G4",
          "midi": 67,
          "time": 103.18604651161618,
          "velocity": 0.11811023622047244,
          "duration": 0.034883720930224626
        },
        {
          "name": "G#5",
          "midi": 80,
          "time": 103.19767441859292,
          "velocity": 0.10236220472440945,
          "duration": 0.04651162790696617
        },
        {
          "name": "G#4",
          "midi": 68,
          "time": 103.22093023254641,
          "velocity": 0.14960629921259844,
          "duration": 0.034883720930224626
        },
        {
          "name": "G#3",
          "midi": 56,
          "time": 103.23255813952315,
          "velocity": 0.15748031496062992,
          "duration": 0.12790697674417117
        },
        {
          "name": "D6",
          "midi": 86,
          "time": 103.26744186045337,
          "velocity": 0.11811023622047244,
          "duration": 0.034883720930224626
        },
        {
          "name": "G4",
          "midi": 67,
          "time": 103.29069767440686,
          "velocity": 0.2283464566929134,
          "duration": 0.19767441860462043
        },
        {
          "name": "A3",
          "midi": 57,
          "time": 103.36046511626732,
          "velocity": 0.1732283464566929,
          "duration": 0.034883720930224626
        },
        {
          "name": "B4",
          "midi": 71,
          "time": 103.36046511626732,
          "velocity": 0.2047244094488189,
          "duration": 0.04651162790696617
        },
        {
          "name": "D5",
          "midi": 74,
          "time": 103.37209302324406,
          "velocity": 0.4015748031496063,
          "duration": 0.23255813953483084
        },
        {
          "name": "F3",
          "midi": 53,
          "time": 103.3837209302208,
          "velocity": 0.1968503937007874,
          "duration": 0.034883720930224626
        },
        {
          "name": "D4",
          "midi": 62,
          "time": 103.40697674417429,
          "velocity": 0.28346456692913385,
          "duration": 0.6395348837208417
        },
        {
          "name": "A#4",
          "midi": 70,
          "time": 103.40697674417429,
          "velocity": 0.1732283464566929,
          "duration": 0.05813953488370771
        },
        {
          "name": "B2",
          "midi": 47,
          "time": 103.41860465115103,
          "velocity": 0.2125984251968504,
          "duration": 0.034883720930224626
        },
        {
          "name": "G#3",
          "midi": 56,
          "time": 103.43023255812777,
          "velocity": 0.11023622047244094,
          "duration": 0.04651162790696617
        },
        {
          "name": "G5",
          "midi": 79,
          "time": 103.43023255812777,
          "velocity": 0.25196850393700787,
          "duration": 0.11627906976741542
        },
        {
          "name": "A5",
          "midi": 81,
          "time": 103.465116279058,
          "velocity": 0.08661417322834646,
          "duration": 0.04651162790696617
        },
        {
          "name": "G#4",
          "midi": 68,
          "time": 103.48837209301148,
          "velocity": 0.14960629921259844,
          "duration": 0.05813953488370771
        },
        {
          "name": "B4",
          "midi": 71,
          "time": 103.48837209301148,
          "velocity": 0.15748031496062992,
          "duration": 0.04651162790696617
        },
        {
          "name": "A#4",
          "midi": 70,
          "time": 103.53488372091844,
          "velocity": 0.16535433070866143,
          "duration": 0.034883720930224626
        },
        {
          "name": "G#3",
          "midi": 56,
          "time": 103.58139534882541,
          "velocity": 0.07086614173228346,
          "duration": 0.034883720930224626
        },
        {
          "name": "G5",
          "midi": 79,
          "time": 103.58139534882541,
          "velocity": 0.23622047244094488,
          "duration": 0.3488372093022889
        },
        {
          "name": "A#4",
          "midi": 70,
          "time": 103.59302325580215,
          "velocity": 0.1732283464566929,
          "duration": 0.034883720930224626
        },
        {
          "name": "D6",
          "midi": 86,
          "time": 103.6046511627789,
          "velocity": 0.33070866141732286,
          "duration": 0.1395348837208985
        },
        {
          "name": "G#4",
          "midi": 68,
          "time": 103.61627906975563,
          "velocity": 0.10236220472440945,
          "duration": 0.034883720930224626
        },
        {
          "name": "G#3",
          "midi": 56,
          "time": 103.63953488370912,
          "velocity": 0.07086614173228346,
          "duration": 0.034883720930224626
        },
        {
          "name": "G4",
          "midi": 67,
          "time": 103.6627906976626,
          "velocity": 0.1968503937007874,
          "duration": 0.06976744186044925
        },
        {
          "name": "A#4",
          "midi": 70,
          "time": 103.69767441859283,
          "velocity": 0.12598425196850394,
          "duration": 0.05813953488370771
        },
        {
          "name": "D#5",
          "midi": 75,
          "time": 103.70930232556957,
          "velocity": 0.1889763779527559,
          "duration": 0.034883720930224626
        },
        {
          "name": "D5",
          "midi": 74,
          "time": 103.74418604649979,
          "velocity": 0.31496062992125984,
          "duration": 0.15116279069766847
        },
        {
          "name": "A5",
          "midi": 81,
          "time": 103.75581395347653,
          "velocity": 0.09448818897637795,
          "duration": 0.04651162790698038
        },
        {
          "name": "D6",
          "midi": 86,
          "time": 103.75581395347653,
          "velocity": 0.3228346456692913,
          "duration": 0.2325581395348877
        },
        {
          "name": "G5",
          "midi": 79,
          "time": 103.97674418603468,
          "velocity": 0.11023622047244094,
          "duration": 0.04651162790696617
        },
        {
          "name": "G4",
          "midi": 67,
          "time": 103.99999999998816,
          "velocity": 0.09448818897637795,
          "duration": 0.04651162790696617
        },
        {
          "name": "A#1",
          "midi": 34,
          "time": 104.04651162789513,
          "velocity": 0.6220472440944882,
          "duration": 0.011627906976741542
        },
        {
          "name": "G5",
          "midi": 79,
          "time": 104.04651162789513,
          "velocity": 0.16535433070866143,
          "duration": 0.05813953488370771
        },
        {
          "name": "A#5",
          "midi": 82,
          "time": 104.04651162789513,
          "velocity": 0.2677165354330709,
          "duration": 0.05813953488370771
        },
        {
          "name": "B5",
          "midi": 83,
          "time": 104.04651162789513,
          "velocity": 0.2204724409448819,
          "duration": 0.034883720930224626
        },
        {
          "name": "G1",
          "midi": 31,
          "time": 104.05813953487187,
          "velocity": 0.7637795275590551,
          "duration": 0.023255813953483084
        },
        {
          "name": "D#4",
          "midi": 63,
          "time": 104.05813953487187,
          "velocity": 0.3228346456692913,
          "duration": 0.023255813953483084
        },
        {
          "name": "A5",
          "midi": 81,
          "time": 104.05813953487187,
          "velocity": 0.23622047244094488,
          "duration": 0.06976744186044925
        },
        {
          "name": "C6",
          "midi": 84,
          "time": 104.05813953487187,
          "velocity": 0.2992125984251969,
          "duration": 0.06976744186044925
        },
        {
          "name": "D#3",
          "midi": 51,
          "time": 104.06976744184861,
          "velocity": 0.31496062992125984,
          "duration": 0.616279069767316
        },
        {
          "name": "A#4",
          "midi": 70,
          "time": 104.06976744184861,
          "velocity": 0.10236220472440945,
          "duration": 0.05813953488370771
        },
        {
          "name": "G#1",
          "midi": 32,
          "time": 104.08139534882535,
          "velocity": 0.7637795275590551,
          "duration": 0.6046511627905744
        },
        {
          "name": "D#5",
          "midi": 75,
          "time": 104.08139534882535,
          "velocity": 0.2283464566929134,
          "duration": 0.034883720930224626
        },
        {
          "name": "C4",
          "midi": 60,
          "time": 104.0930232558021,
          "velocity": 0.2755905511811024,
          "duration": 0.023255813953483084
        },
        {
          "name": "D5",
          "midi": 74,
          "time": 104.11627906975558,
          "velocity": 0.36220472440944884,
          "duration": 0.04651162790696617
        },
        {
          "name": "D4",
          "midi": 62,
          "time": 104.12790697673232,
          "velocity": 0.3700787401574803,
          "duration": 0.023255813953483084
        },
        {
          "name": "F#4",
          "midi": 66,
          "time": 104.12790697673232,
          "velocity": 0.18110236220472442,
          "duration": 0.1395348837208985
        },
        {
          "name": "B5",
          "midi": 83,
          "time": 104.12790697673232,
          "velocity": 0.25984251968503935,
          "duration": 0.023255813953483084
        },
        {
          "name": "A#4",
          "midi": 70,
          "time": 104.13953488370906,
          "velocity": 0.30708661417322836,
          "duration": 0.23255813953483084
        },
        {
          "name": "C4",
          "midi": 60,
          "time": 104.1511627906858,
          "velocity": 0.2204724409448819,
          "duration": 0.10465116279067388
        },
        {
          "name": "E5",
          "midi": 76,
          "time": 104.1511627906858,
          "velocity": 0.07874015748031496,
          "duration": 0.0813953488371908
        },
        {
          "name": "A#5",
          "midi": 82,
          "time": 104.1511627906858,
          "velocity": 0.31496062992125984,
          "duration": 0.34883720930224626
        },
        {
          "name": "D5",
          "midi": 74,
          "time": 104.17441860463929,
          "velocity": 0.11023622047244094,
          "duration": 0.034883720930224626
        },
        {
          "name": "G5",
          "midi": 79,
          "time": 104.18604651161603,
          "velocity": 0.1732283464566929,
          "duration": 0.17441860465112313
        },
        {
          "name": "D5",
          "midi": 74,
          "time": 104.232558139523,
          "velocity": 0.08661417322834646,
          "duration": 0.034883720930224626
        },
        {
          "name": "G#3",
          "midi": 56,
          "time": 104.25581395347648,
          "velocity": 0.28346456692913385,
          "duration": 0.034883720930224626
        },
        {
          "name": "F5",
          "midi": 77,
          "time": 104.26744186045322,
          "velocity": 0.2440944881889764,
          "duration": 0.11627906976741542
        },
        {
          "name": "F#4",
          "midi": 66,
          "time": 104.27906976742996,
          "velocity": 0.12598425196850394,
          "duration": 0.04651162790696617
        },
        {
          "name": "A#3",
          "midi": 58,
          "time": 104.2906976744067,
          "velocity": 0.28346456692913385,
          "duration": 0.023255813953483084
        },
        {
          "name": "D4",
          "midi": 62,
          "time": 104.31395348836018,
          "velocity": 0.3228346456692913,
          "duration": 0.034883720930224626
        },
        {
          "name": "F#4",
          "midi": 66,
          "time": 104.33720930231367,
          "velocity": 0.2047244094488189,
          "duration": 0.20930232558134776
        },
        {
          "name": "A3",
          "midi": 57,
          "time": 104.34883720929041,
          "velocity": 0.33858267716535434,
          "duration": 0.034883720930224626
        },
        {
          "name": "D4",
          "midi": 62,
          "time": 104.36046511626715,
          "velocity": 0.23622047244094488,
          "duration": 0.023255813953483084
        },
        {
          "name": "D#5",
          "midi": 75,
          "time": 104.37209302324389,
          "velocity": 0.16535433070866143,
          "duration": 0.034883720930224626
        },
        {
          "name": "C4",
          "midi": 60,
          "time": 104.38372093022063,
          "velocity": 0.2047244094488189,
          "duration": 0.06976744186044925
        },
        {
          "name": "C#5",
          "midi": 73,
          "time": 104.38372093022063,
          "velocity": 0.15748031496062992,
          "duration": 0.034883720930224626
        },
        {
          "name": "C6",
          "midi": 84,
          "time": 104.38372093022063,
          "velocity": 0.1889763779527559,
          "duration": 0.06976744186044925
        },
        {
          "name": "A#4",
          "midi": 70,
          "time": 104.40697674417412,
          "velocity": 0.14173228346456693,
          "duration": 0.09302325581393234
        },
        {
          "name": "D5",
          "midi": 74,
          "time": 104.41860465115086,
          "velocity": 0.25196850393700787,
          "duration": 0.06976744186044925
        },
        {
          "name": "E5",
          "midi": 76,
          "time": 104.4302325581276,
          "velocity": 0.09448818897637795,
          "duration": 0.034883720930224626
        },
        {
          "name": "C4",
          "midi": 60,
          "time": 104.46511627905782,
          "velocity": 0.2125984251968504,
          "duration": 0.034883720930224626
        },
        {
          "name": "D4",
          "midi": 62,
          "time": 104.46511627905782,
          "velocity": 0.2283464566929134,
          "duration": 0.023255813953483084
        },
        {
          "name": "G#3",
          "midi": 56,
          "time": 104.49999999998805,
          "velocity": 0.3464566929133858,
          "duration": 0.11627906976742963
        },
        {
          "name": "D4",
          "midi": 62,
          "time": 104.51162790696479,
          "velocity": 0.29133858267716534,
          "duration": 0.023255813953483084
        },
        {
          "name": "E5",
          "midi": 76,
          "time": 104.51162790696479,
          "velocity": 0.25984251968503935,
          "duration": 0.034883720930224626
        },
        {
          "name": "G#5",
          "midi": 80,
          "time": 104.51162790696479,
          "velocity": 0.18110236220472442,
          "duration": 0.04651162790696617
        },
        {
          "name": "A#5",
          "midi": 82,
          "time": 104.52325581394153,
          "velocity": 0.25196850393700787,
          "duration": 0.3023255813953085
        },
        {
          "name": "D#5",
          "midi": 75,
          "time": 104.54651162789501,
          "velocity": 0.3543307086614173,
          "duration": 0.290697674418567
        },
        {
          "name": "A5",
          "midi": 81,
          "time": 104.54651162789501,
          "velocity": 0.14960629921259844,
          "duration": 0.06976744186046346
        },
        {
          "name": "D4",
          "midi": 62,
          "time": 104.55813953487176,
          "velocity": 0.33858267716535434,
          "duration": 0.03488372093023884
        },
        {
          "name": "A#4",
          "midi": 70,
          "time": 104.55813953487176,
          "velocity": 0.11023622047244094,
          "duration": 0.04651162790698038
        },
        {
          "name": "C4",
          "midi": 60,
          "time": 104.60465116277874,
          "velocity": 0.1968503937007874,
          "duration": 0.034883720930224626
        },
        {
          "name": "F#4",
          "midi": 66,
          "time": 104.61627906975548,
          "velocity": 0.15748031496062992,
          "duration": 0.04651162790696617
        },
        {
          "name": "F5",
          "midi": 77,
          "time": 104.62790697673222,
          "velocity": 0.11023622047244094,
          "duration": 0.034883720930224626
        },
        {
          "name": "G#3",
          "midi": 56,
          "time": 104.63953488370896,
          "velocity": 0.2755905511811024,
          "duration": 0.023255813953483084
        },
        {
          "name": "D4",
          "midi": 62,
          "time": 104.6511627906857,
          "velocity": 0.25984251968503935,
          "duration": 0.023255813953483084
        },
        {
          "name": "G3",
          "midi": 55,
          "time": 104.66279069766244,
          "velocity": 0.2992125984251969,
          "duration": 0.023255813953483084
        },
        {
          "name": "F#1",
          "midi": 30,
          "time": 104.68604651161593,
          "velocity": 0.6456692913385826,
          "duration": 0.011627906976741542
        },
        {
          "name": "A#4",
          "midi": 70,
          "time": 104.68604651161593,
          "velocity": 0.2047244094488189,
          "duration": 0.04651162790696617
        },
        {
          "name": "F1",
          "midi": 29,
          "time": 104.72093023254615,
          "velocity": 0.6377952755905512,
          "duration": 0.011627906976741542
        },
        {
          "name": "A#3",
          "midi": 58,
          "time": 104.72093023254615,
          "velocity": 0.3543307086614173,
          "duration": 0.023255813953483084
        },
        {
          "name": "G#4",
          "midi": 68,
          "time": 104.72093023254615,
          "velocity": 0.30708661417322836,
          "duration": 0.11627906976742963
        },
        {
          "name": "G1",
          "midi": 31,
          "time": 104.7325581395229,
          "velocity": 0.7795275590551181,
          "duration": 0.6279069767441428
        },
        {
          "name": "F5",
          "midi": 77,
          "time": 104.7325581395229,
          "velocity": 0.25984251968503935,
          "duration": 0.697674418604592
        },
        {
          "name": "E4",
          "midi": 64,
          "time": 104.74418604649964,
          "velocity": 0.33070866141732286,
          "duration": 0.023255813953483084
        },
        {
          "name": "D3",
          "midi": 50,
          "time": 104.75581395347638,
          "velocity": 0.31496062992125984,
          "duration": 0.023255813953483084
        },
        {
          "name": "G#3",
          "midi": 56,
          "time": 104.75581395347638,
          "velocity": 0.4015748031496063,
          "duration": 0.09302325581394655
        },
        {
          "name": "D#4",
          "midi": 63,
          "time": 104.76744186045312,
          "velocity": 0.33070866141732286,
          "duration": 0.2441860465116008
        },
        {
          "name": "D5",
          "midi": 74,
          "time": 104.8139534883601,
          "velocity": 0.11811023622047244,
          "duration": 0.06976744186044925
        },
        {
          "name": "D3",
          "midi": 50,
          "time": 104.83720930231358,
          "velocity": 0.31496062992125984,
          "duration": 0.12790697674417117
        },
        {
          "name": "G#5",
          "midi": 80,
          "time": 104.83720930231358,
          "velocity": 0.11023622047244094,
          "duration": 0.034883720930224626
        },
        {
          "name": "A#5",
          "midi": 82,
          "time": 104.83720930231358,
          "velocity": 0.13385826771653545,
          "duration": 0.12790697674417117
        },
        {
          "name": "G#3",
          "midi": 56,
          "time": 104.86046511626706,
          "velocity": 0.3858267716535433,
          "duration": 0.4767441860464885
        },
        {
          "name": "B5",
          "midi": 83,
          "time": 104.94186046510427,
          "velocity": 0.08661417322834646,
          "duration": 0.034883720930224626
        },
        {
          "name": "D#6",
          "midi": 87,
          "time": 104.94186046510427,
          "velocity": 0.14960629921259844,
          "duration": 0.05813953488370771
        },
        {
          "name": "D6",
          "midi": 86,
          "time": 104.95348837208101,
          "velocity": 0.14173228346456693,
          "duration": 0.04651162790696617
        },
        {
          "name": "C#6",
          "midi": 85,
          "time": 104.96511627905775,
          "velocity": 0.1732283464566929,
          "duration": 0.034883720930224626
        },
        {
          "name": "D3",
          "midi": 50,
          "time": 104.9767441860345,
          "velocity": 0.2755905511811024,
          "duration": 0.034883720930224626
        },
        {
          "name": "C#5",
          "midi": 73,
          "time": 104.99999999998798,
          "velocity": 0.07086614173228346,
          "duration": 0.034883720930224626
        },
        {
          "name": "D3",
          "midi": 50,
          "time": 105.02325581394146,
          "velocity": 0.2992125984251969,
          "duration": 0.32558139534883423
        },
        {
          "name": "F4",
          "midi": 65,
          "time": 105.02325581394146,
          "velocity": 0.1732283464566929,
          "duration": 0.034883720930224626
        },
        {
          "name": "A#5",
          "midi": 82,
          "time": 105.02325581394146,
          "velocity": 0.1889763779527559,
          "duration": 0.0813953488371908
        },
        {
          "name": "A4",
          "midi": 69,
          "time": 105.05813953487169,
          "velocity": 0.16535433070866143,
          "duration": 0.12790697674418539
        },
        {
          "name": "D#5",
          "midi": 75,
          "time": 105.08139534882517,
          "velocity": 0.2125984251968504,
          "duration": 0.30232558139535115
        },
        {
          "name": "G#5",
          "midi": 80,
          "time": 105.10465116277865,
          "velocity": 0.07086614173228346,
          "duration": 0.03488372093023884
        },
        {
          "name": "A4",
          "midi": 69,
          "time": 105.19767441859261,
          "velocity": 0.13385826771653545,
          "duration": 0.16279069767442422
        },
        {
          "name": "D#4",
          "midi": 63,
          "time": 105.24418604649959,
          "velocity": 0.29133858267716534,
          "duration": 0.15116279069766847
        },
        {
          "name": "A#5",
          "midi": 82,
          "time": 105.24418604649959,
          "velocity": 0.10236220472440945,
          "duration": 0.04651162790698038
        },
        {
          "name": "G#3",
          "midi": 56,
          "time": 105.3488372092903,
          "velocity": 0.4330708661417323,
          "duration": 0.1627906976743958
        },
        {
          "name": "F#1",
          "midi": 30,
          "time": 105.36046511626704,
          "velocity": 0.6141732283464567,
          "duration": 0.011627906976741542
        },
        {
          "name": "E1",
          "midi": 28,
          "time": 105.39534883719726,
          "velocity": 0.5905511811023622,
          "duration": 0.011627906976741542
        },
        {
          "name": "G5",
          "midi": 79,
          "time": 105.39534883719726,
          "velocity": 0.33070866141732286,
          "duration": 0.38372093023252773
        },
        {
          "name": "D6",
          "midi": 86,
          "time": 105.39534883719726,
          "velocity": 0.1968503937007874,
          "duration": 0.06976744186044925
        },
        {
          "name": "D#1",
          "midi": 27,
          "time": 105.406976744174,
          "velocity": 0.6929133858267716,
          "duration": 0.011627906976741542
        },
        {
          "name": "D1",
          "midi": 26,
          "time": 105.41860465115074,
          "velocity": 0.7244094488188977,
          "duration": 0.011627906976741542
        },
        {
          "name": "D#4",
          "midi": 63,
          "time": 105.41860465115074,
          "velocity": 0.1968503937007874,
          "duration": 0.034883720930224626
        },
        {
          "name": "G4",
          "midi": 67,
          "time": 105.41860465115074,
          "velocity": 0.4015748031496063,
          "duration": 0.09302325581394655
        },
        {
          "name": "C1",
          "midi": 24,
          "time": 105.43023255812749,
          "velocity": 0.7480314960629921,
          "duration": 0.011627906976741542
        },
        {
          "name": "D5",
          "midi": 74,
          "time": 105.43023255812749,
          "velocity": 0.14173228346456693,
          "duration": 0.034883720930224626
        },
        {
          "name": "B0",
          "midi": 23,
          "time": 105.44186046510423,
          "velocity": 0.7637795275590551,
          "duration": 0.023255813953483084
        },
        {
          "name": "D4",
          "midi": 62,
          "time": 105.45348837208097,
          "velocity": 0.2204724409448819,
          "duration": 0.10465116279068809
        },
        {
          "name": "C1",
          "midi": 24,
          "time": 105.46511627905771,
          "velocity": 0.7559055118110236,
          "duration": 1.2325581395347314
        },
        {
          "name": "C#5",
          "midi": 73,
          "time": 105.46511627905771,
          "velocity": 0.14960629921259844,
          "duration": 0.04651162790698038
        },
        {
          "name": "F5",
          "midi": 77,
          "time": 105.46511627905771,
          "velocity": 0.14173228346456693,
          "duration": 0.16279069767441
        },
        {
          "name": "G#3",
          "midi": 56,
          "time": 105.52325581394143,
          "velocity": 0.41732283464566927,
          "duration": 0.2093023255813904
        },
        {
          "name": "G2",
          "midi": 43,
          "time": 105.54651162789492,
          "velocity": 0.30708661417322836,
          "duration": 0.023255813953483084
        },
        {
          "name": "D#5",
          "midi": 75,
          "time": 105.55813953487166,
          "velocity": 0.11023622047244094,
          "duration": 0.081395348837205
        },
        {
          "name": "F5",
          "midi": 77,
          "time": 105.6511627906856,
          "velocity": 0.1968503937007874,
          "duration": 0.12790697674418539
        },
        {
          "name": "D4",
          "midi": 62,
          "time": 105.68604651161584,
          "velocity": 0.14960629921259844,
          "duration": 0.15116279069765426
        },
        {
          "name": "G2",
          "midi": 43,
          "time": 105.74418604649956,
          "velocity": 0.33858267716535434,
          "duration": 0.023255813953483084
        },
        {
          "name": "G#3",
          "midi": 56,
          "time": 105.74418604649956,
          "velocity": 0.4251968503937008,
          "duration": 0.2674418604650839
        },
        {
          "name": "G4",
          "midi": 67,
          "time": 105.7558139534763,
          "velocity": 0.2755905511811024,
          "duration": 0.06976744186044925
        },
        {
          "name": "G2",
          "midi": 43,
          "time": 105.79069767440653,
          "velocity": 0.30708661417322836,
          "duration": 0.023255813953483084
        },
        {
          "name": "D#5",
          "midi": 75,
          "time": 105.79069767440653,
          "velocity": 0.12598425196850394,
          "duration": 0.034883720930224626
        },
        {
          "name": "D6",
          "midi": 86,
          "time": 105.8372093023135,
          "velocity": 0.15748031496062992,
          "duration": 0.32558139534882
        },
        {
          "name": "F5",
          "midi": 77,
          "time": 105.84883720929024,
          "velocity": 0.11811023622047244,
          "duration": 0.05813953488370771
        },
        {
          "name": "D4",
          "midi": 62,
          "time": 105.86046511626698,
          "velocity": 0.1968503937007874,
          "duration": 0.11627906976744384
        },
        {
          "name": "G5",
          "midi": 79,
          "time": 105.88372093022046,
          "velocity": 0.09448818897637795,
          "duration": 0.05813953488372192
        },
        {
          "name": "D#6",
          "midi": 87,
          "time": 105.90697674417395,
          "velocity": 0.2204724409448819,
          "duration": 0.32558139534882
        },
        {
          "name": "F5",
          "midi": 77,
          "time": 105.94186046510418,
          "velocity": 0.10236220472440945,
          "duration": 0.04651162790698038
        },
        {
          "name": "G2",
          "midi": 43,
          "time": 105.97674418603442,
          "velocity": 0.3464566929133858,
          "duration": 0.034883720930224626
        },
        {
          "name": "G5",
          "midi": 79,
          "time": 105.97674418603442,
          "velocity": 0.2204724409448819,
          "duration": 0.081395348837205
        },
        {
          "name": "D4",
          "midi": 62,
          "time": 105.98837209301117,
          "velocity": 0.1889763779527559,
          "duration": 0.081395348837205
        },
        {
          "name": "G#3",
          "midi": 56,
          "time": 106.04651162789489,
          "velocity": 0.29133858267716534,
          "duration": 0.023255813953483084
        },
        {
          "name": "G2",
          "midi": 43,
          "time": 106.06976744184837,
          "velocity": 0.3464566929133858,
          "duration": 0.034883720930224626
        },
        {
          "name": "G#4",
          "midi": 68,
          "time": 106.06976744184837,
          "velocity": 0.28346456692913385,
          "duration": 0.13953488372091272
        },
        {
          "name": "A3",
          "midi": 57,
          "time": 106.08139534882511,
          "velocity": 0.3700787401574803,
          "duration": 0.023255813953483084
        },
        {
          "name": "G5",
          "midi": 79,
          "time": 106.08139534882511,
          "velocity": 0.2047244094488189,
          "duration": 0.2209302325581035
        },
        {
          "name": "G#3",
          "midi": 56,
          "time": 106.1046511627786,
          "velocity": 0.41732283464566927,
          "duration": 0.11627906976742963
        },
        {
          "name": "D4",
          "midi": 62,
          "time": 106.1046511627786,
          "velocity": 0.1732283464566929,
          "duration": 0.20930232558136197
        },
        {
          "name": "F5",
          "midi": 77,
          "time": 106.16279069766232,
          "velocity": 0.09448818897637795,
          "duration": 0.034883720930224626
        },
        {
          "name": "G2",
          "midi": 43,
          "time": 106.17441860463906,
          "velocity": 0.33858267716535434,
          "duration": 0.023255813953483084
        },
        {
          "name": "D#5",
          "midi": 75,
          "time": 106.17441860463906,
          "velocity": 0.09448818897637795,
          "duration": 0.04651162790696617
        },
        {
          "name": "A3",
          "midi": 57,
          "time": 106.22093023254602,
          "velocity": 0.31496062992125984,
          "duration": 0.023255813953483084
        },
        {
          "name": "G#4",
          "midi": 68,
          "time": 106.23255813952277,
          "velocity": 0.14960629921259844,
          "duration": 0.034883720930224626
        },
        {
          "name": "G2",
          "midi": 43,
          "time": 106.26744186045299,
          "velocity": 0.2677165354330709,
          "duration": 0.023255813953483084
        },
        {
          "name": "A4",
          "midi": 69,
          "time": 106.26744186045299,
          "velocity": 0.10236220472440945,
          "duration": 0.034883720930224626
        },
        {
          "name": "D#6",
          "midi": 87,
          "time": 106.29069767440647,
          "velocity": 0.14960629921259844,
          "duration": 0.09302325581393234
        },
        {
          "name": "B4",
          "midi": 71,
          "time": 106.30232558138322,
          "velocity": 0.12598425196850394,
          "duration": 0.11627906976741542
        },
        {
          "name": "D#4",
          "midi": 63,
          "time": 106.31395348835996,
          "velocity": 0.2992125984251969,
          "duration": 0.6860465116277936
        },
        {
          "name": "G#4",
          "midi": 68,
          "time": 106.31395348835996,
          "velocity": 0.2047244094488189,
          "duration": 0.04651162790696617
        },
        {
          "name": "G5",
          "midi": 79,
          "time": 106.3255813953367,
          "velocity": 0.12598425196850394,
          "duration": 0.09302325581393234
        },
        {
          "name": "G#3",
          "midi": 56,
          "time": 106.33720930231344,
          "velocity": 0.25196850393700787,
          "duration": 0.023255813953483084
        },
        {
          "name": "F5",
          "midi": 77,
          "time": 106.33720930231344,
          "velocity": 0.12598425196850394,
          "duration": 0.05813953488370771
        },
        {
          "name": "A3",
          "midi": 57,
          "time": 106.36046511626692,
          "velocity": 0.25196850393700787,
          "duration": 0.023255813953483084
        },
        {
          "name": "G2",
          "midi": 43,
          "time": 106.37209302324366,
          "velocity": 0.31496062992125984,
          "duration": 0.023255813953483084
        },
        {
          "name": "G#4",
          "midi": 68,
          "time": 106.37209302324366,
          "velocity": 0.1889763779527559,
          "duration": 0.034883720930224626
        },
        {
          "name": "A3",
          "midi": 57,
          "time": 106.40697674417389,
          "velocity": 0.25196850393700787,
          "duration": 0.023255813953483084
        },
        {
          "name": "G#4",
          "midi": 68,
          "time": 106.41860465115063,
          "velocity": 0.18110236220472442,
          "duration": 0.04651162790696617
        },
        {
          "name": "G5",
          "midi": 79,
          "time": 106.44186046510411,
          "velocity": 0.36220472440944884,
          "duration": 0.25581395348832814
        },
        {
          "name": "G#3",
          "midi": 56,
          "time": 106.45348837208086,
          "velocity": 0.31496062992125984,
          "duration": 0.05813953488372192
        },
        {
          "name": "G4",
          "midi": 67,
          "time": 106.4651162790576,
          "velocity": 0.41732283464566927,
          "duration": 0.18604651162787889
        },
        {
          "name": "A#5",
          "midi": 82,
          "time": 106.49999999998784,
          "velocity": 0.11023622047244094,
          "duration": 0.04651162790696617
        },
        {
          "name": "G2",
          "midi": 43,
          "time": 106.51162790696458,
          "velocity": 0.2677165354330709,
          "duration": 0.023255813953483084
        },
        {
          "name": "E3",
          "midi": 52,
          "time": 106.52325581394132,
          "velocity": 0.2204724409448819,
          "duration": 0.06976744186044925
        },
        {
          "name": "G#3",
          "midi": 56,
          "time": 106.52325581394132,
          "velocity": 0.2283464566929134,
          "duration": 0.023255813953483084
        },
        {
          "name": "D6",
          "midi": 86,
          "time": 106.52325581394132,
          "velocity": 0.15748031496062992,
          "duration": 0.06976744186044925
        },
        {
          "name": "A3",
          "midi": 57,
          "time": 106.5465116278948,
          "velocity": 0.2283464566929134,
          "duration": 0.023255813953483084
        },
        {
          "name": "G#3",
          "midi": 56,
          "time": 106.58139534882503,
          "velocity": 0.2755905511811024,
          "duration": 0.034883720930224626
        },
        {
          "name": "G2",
          "midi": 43,
          "time": 106.60465116277851,
          "velocity": 0.2992125984251969,
          "duration": 0.034883720930224626
        },
        {
          "name": "G#3",
          "midi": 56,
          "time": 106.62790697673199,
          "velocity": 0.2992125984251969,
          "duration": 0.023255813953483084
        },
        {
          "name": "B4",
          "midi": 71,
          "time": 106.62790697673199,
          "velocity": 0.09448818897637795,
          "duration": 0.05813953488370771
        },
        {
          "name": "F5",
          "midi": 77,
          "time": 106.65116279068548,
          "velocity": 0.07086614173228346,
          "duration": 0.034883720930224626
        },
        {
          "name": "G#4",
          "midi": 68,
          "time": 106.66279069766222,
          "velocity": 0.2440944881889764,
          "duration": 0.023255813953483084
        },
        {
          "name": "G4",
          "midi": 67,
          "time": 106.6860465116157,
          "velocity": 0.23622047244094488,
          "duration": 0.06976744186044925
        },
        {
          "name": "D1",
          "midi": 26,
          "time": 106.69767441859244,
          "velocity": 0.7322834645669292,
          "duration": 0.011627906976741542
        },
        {
          "name": "B0",
          "midi": 23,
          "time": 106.70930232556918,
          "velocity": 0.6377952755905512,
          "duration": 0.011627906976741542
        },
        {
          "name": "G#3",
          "midi": 56,
          "time": 106.70930232556918,
          "velocity": 0.1732283464566929,
          "duration": 0.09302325581393234
        },
        {
          "name": "G0",
          "midi": 19,
          "time": 106.72093023254592,
          "velocity": 0.5433070866141733,
          "duration": 0.011627906976741542
        },
        {
          "name": "G5",
          "midi": 79,
          "time": 106.73255813952267,
          "velocity": 0.3464566929133858,
          "duration": 0.2441860465116008
        },
        {
          "name": "G#5",
          "midi": 80,
          "time": 106.73255813952267,
          "velocity": 0.23622047244094488,
          "duration": 0.034883720930224626
        },
        {
          "name": "B5",
          "midi": 83,
          "time": 106.73255813952267,
          "velocity": 0.14960629921259844,
          "duration": 0.05813953488370771
        },
        {
          "name": "D6",
          "midi": 86,
          "time": 106.73255813952267,
          "velocity": 0.2047244094488189,
          "duration": 0.04651162790696617
        },
        {
          "name": "D#6",
          "midi": 87,
          "time": 106.73255813952267,
          "velocity": 0.2125984251968504,
          "duration": 0.04651162790696617
        },
        {
          "name": "E6",
          "midi": 88,
          "time": 106.73255813952267,
          "velocity": 0.10236220472440945,
          "duration": 0.034883720930224626
        },
        {
          "name": "A#6",
          "midi": 94,
          "time": 106.74418604649941,
          "velocity": 0.15748031496062992,
          "duration": 0.05813953488370771
        },
        {
          "name": "C#7",
          "midi": 97,
          "time": 106.74418604649941,
          "velocity": 0.11023622047244094,
          "duration": 0.034883720930224626
        },
        {
          "name": "C#6",
          "midi": 85,
          "time": 106.75581395347615,
          "velocity": 0.18110236220472442,
          "duration": 0.034883720930224626
        },
        {
          "name": "C7",
          "midi": 96,
          "time": 106.75581395347615,
          "velocity": 0.11811023622047244,
          "duration": 0.034883720930224626
        },
        {
          "name": "G4",
          "midi": 67,
          "time": 106.76744186045289,
          "velocity": 0.14960629921259844,
          "duration": 0.04651162790696617
        },
        {
          "name": "F7",
          "midi": 101,
          "time": 106.76744186045289,
          "velocity": 0.07874015748031496,
          "duration": 0.034883720930224626
        },
        {
          "name": "G#5",
          "midi": 80,
          "time": 106.79069767440637,
          "velocity": 0.07874015748031496,
          "duration": 0.034883720930224626
        },
        {
          "name": "G#3",
          "midi": 56,
          "time": 106.81395348835986,
          "velocity": 0.2047244094488189,
          "duration": 0.13953488372092693
        },
        {
          "name": "G4",
          "midi": 67,
          "time": 106.87209302324358,
          "velocity": 0.29133858267716534,
          "duration": 0.09302325581394655
        },
        {
          "name": "A3",
          "midi": 57,
          "time": 106.95348837208078,
          "velocity": 0.23622047244094488,
          "duration": 0.023255813953483084
        },
        {
          "name": "B4",
          "midi": 71,
          "time": 106.95348837208078,
          "velocity": 0.12598425196850394,
          "duration": 0.034883720930224626
        },
        {
          "name": "D5",
          "midi": 74,
          "time": 106.96511627905753,
          "velocity": 0.4015748031496063,
          "duration": 0.4302325581395223
        },
        {
          "name": "A#5",
          "midi": 82,
          "time": 106.96511627905753,
          "velocity": 0.07874015748031496,
          "duration": 0.10465116279068809
        },
        {
          "name": "G#5",
          "midi": 80,
          "time": 106.97674418603427,
          "velocity": 0.12598425196850394,
          "duration": 0.09302325581394655
        },
        {
          "name": "G3",
          "midi": 55,
          "time": 106.98837209301101,
          "velocity": 0.25984251968503935,
          "duration": 0.023255813953483084
        },
        {
          "name": "A#4",
          "midi": 70,
          "time": 106.98837209301101,
          "velocity": 0.18110236220472442,
          "duration": 0.09302325581394655
        },
        {
          "name": "D4",
          "midi": 62,
          "time": 106.99999999998775,
          "velocity": 0.25196850393700787,
          "duration": 0.3953488372092977
        },
        {
          "name": "G#3",
          "midi": 56,
          "time": 107.01162790696449,
          "velocity": 0.12598425196850394,
          "duration": 0.1860465116279073
        },
        {
          "name": "G5",
          "midi": 79,
          "time": 107.06976744184821,
          "velocity": 0.29133858267716534,
          "duration": 0.16279069767441
        },
        {
          "name": "G#4",
          "midi": 68,
          "time": 107.08139534882496,
          "velocity": 0.16535433070866143,
          "duration": 0.03488372093023884
        },
        {
          "name": "A#4",
          "midi": 70,
          "time": 107.17441860463892,
          "velocity": 0.1889763779527559,
          "duration": 0.15116279069766847
        },
        {
          "name": "G4",
          "midi": 67,
          "time": 107.22093023254588,
          "velocity": 0.12598425196850394,
          "duration": 0.06976744186046346
        },
        {
          "name": "G5",
          "midi": 79,
          "time": 107.26744186045286,
          "velocity": 0.12598425196850394,
          "duration": 0.12790697674418539
        },
        {
          "name": "C3",
          "midi": 48,
          "time": 107.33720930231333,
          "velocity": 0.12598425196850394,
          "duration": 0.03488372093023884
        }
      ],
      "controlChanges": {},
      "id": 0,
      "instrumentNumber": 0,
      "instrument": "acoustic grand piano",
      "instrumentFamily": "piano",
      "channelNumber": 0,
      "isPercussion": false
    }
  ]
}