{
  "header": {
    "PPQ": 384,
    "timeSignature": [
      4,
      4
    ],
    "bpm": 130.00013000013,
    "name": ""
  },
  "tempo": [
    {
      "absoluteTime": 0,
      "seconds": 0,
      "bpm": 130.00013000013
    }
  ],
  "timeSignature": [
    {
      "absoluteTime": 0,
      "seconds": 0,
      "numerator": 4,
      "denominator": 2,
      "click": 24,
      "notesQ": 8
    }
  ],
  "startTime": 0,
  "duration": 29.538431999999958,
  "tracks": [
    {
      "startTime": 0,
      "duration": 29.538431999999958,
      "length": 306,
      "notes": [
        {
          "name": "F#2",
          "midi": 42,
          "time": 0,
          "velocity": 0.3937007874015748,
          "duration": 0.6923069999999999
        },
        {
          "name": "B2",
          "midi": 47,
          "time": 0,
          "velocity": 0.3937007874015748,
          "duration": 0.6923069999999999
        },
        {
          "name": "G#3",
          "midi": 56,
          "time": 0,
          "velocity": 0.3937007874015748,
          "duration": 0.6923069999999999
        },
        {
          "name": "D#4",
          "midi": 63,
          "time": 0,
          "velocity": 0.3937007874015748,
          "duration": 0.6923069999999999
        },
        {
          "name": "D#5",
          "midi": 75,
          "time": 0,
          "velocity": 0.3937007874015748,
          "duration": 0.23076899999999997
        },
        {
          "name": "D#6",
          "midi": 87,
          "time": 0,
          "velocity": 0.3937007874015748,
          "duration": 1.8461519999999998
        },
        {
          "name": "D#3",
          "midi": 51,
          "time": 0.6923069999999999,
          "velocity": 0.3937007874015748,
          "duration": 0.4615379999999999
        },
        {
          "name": "F#3",
          "midi": 54,
          "time": 0.6923069999999999,
          "velocity": 0.3937007874015748,
          "duration": 0.4615379999999999
        },
        {
          "name": "B3",
          "midi": 59,
          "time": 0.6923069999999999,
          "velocity": 0.3937007874015748,
          "duration": 0.4615379999999999
        },
        {
          "name": "F#4",
          "midi": 66,
          "time": 0.6923069999999999,
          "velocity": 0.3937007874015748,
          "duration": 0.6923069999999999
        },
        {
          "name": "G#2",
          "midi": 44,
          "time": 0.6923069999999999,
          "velocity": 0.3937007874015748,
          "duration": 0.6923069999999999
        },
        {
          "name": "F#5",
          "midi": 78,
          "time": 0.6923069999999999,
          "velocity": 0.3937007874015748,
          "duration": 0.230769
        },
        {
          "name": "E5",
          "midi": 76,
          "time": 0.9230759999999999,
          "velocity": 0.3937007874015748,
          "duration": 0.2307689999999999
        },
        {
          "name": "B2",
          "midi": 47,
          "time": 1.1538449999999998,
          "velocity": 0.3937007874015748,
          "duration": 0.230769
        },
        {
          "name": "D#3",
          "midi": 51,
          "time": 1.1538449999999998,
          "velocity": 0.3937007874015748,
          "duration": 0.461538
        },
        {
          "name": "F#3",
          "midi": 54,
          "time": 1.1538449999999998,
          "velocity": 0.3937007874015748,
          "duration": 0.230769
        },
        {
          "name": "G#3",
          "midi": 56,
          "time": 1.1538449999999998,
          "velocity": 0.3937007874015748,
          "duration": 0.230769
        },
        {
          "name": "D#5",
          "midi": 75,
          "time": 1.1538449999999998,
          "velocity": 0.3937007874015748,
          "duration": 0.692307
        },
        {
          "name": "D#3",
          "midi": 51,
          "time": 1.3846139999999998,
          "velocity": 0.3937007874015748,
          "duration": 0.461538
        },
        {
          "name": "F#3",
          "midi": 54,
          "time": 1.3846139999999998,
          "velocity": 0.3937007874015748,
          "duration": 0.461538
        },
        {
          "name": "B3",
          "midi": 59,
          "time": 1.3846139999999998,
          "velocity": 0.3937007874015748,
          "duration": 0.461538
        },
        {
          "name": "E4",
          "midi": 64,
          "time": 1.3846139999999998,
          "velocity": 0.3937007874015748,
          "duration": 0.461538
        },
        {
          "name": "G#2",
          "midi": 44,
          "time": 1.3846139999999998,
          "velocity": 0.3937007874015748,
          "duration": 0.461538
        },
        {
          "name": "F#2",
          "midi": 42,
          "time": 1.8461519999999998,
          "velocity": 0.3937007874015748,
          "duration": 0.6923069999999998
        },
        {
          "name": "B2",
          "midi": 47,
          "time": 1.8461519999999998,
          "velocity": 0.3937007874015748,
          "duration": 0.6923069999999998
        },
        {
          "name": "G#3",
          "midi": 56,
          "time": 1.8461519999999998,
          "velocity": 0.3937007874015748,
          "duration": 0.6923069999999998
        },
        {
          "name": "D#4",
          "midi": 63,
          "time": 1.8461519999999998,
          "velocity": 0.3937007874015748,
          "duration": 0.6923069999999998
        },
        {
          "name": "D#5",
          "midi": 75,
          "time": 1.8461519999999998,
          "velocity": 0.3937007874015748,
          "duration": 0.23076899999999978
        },
        {
          "name": "F#6",
          "midi": 90,
          "time": 1.8461519999999998,
          "velocity": 0.3937007874015748,
          "duration": 1.3846139999999998
        },
        {
          "name": "D#3",
          "midi": 51,
          "time": 2.5384589999999996,
          "velocity": 0.3937007874015748,
          "duration": 0.461538
        },
        {
          "name": "F#3",
          "midi": 54,
          "time": 2.5384589999999996,
          "velocity": 0.3937007874015748,
          "duration": 0.461538
        },
        {
          "name": "B3",
          "midi": 59,
          "time": 2.5384589999999996,
          "velocity": 0.3937007874015748,
          "duration": 0.461538
        },
        {
          "name": "F#4",
          "midi": 66,
          "time": 2.5384589999999996,
          "velocity": 0.3937007874015748,
          "duration": 0.692307
        },
        {
          "name": "G#2",
          "midi": 44,
          "time": 2.5384589999999996,
          "velocity": 0.3937007874015748,
          "duration": 0.692307
        },
        {
          "name": "F#5",
          "midi": 78,
          "time": 2.5384589999999996,
          "velocity": 0.3937007874015748,
          "duration": 0.230769
        },
        {
          "name": "E5",
          "midi": 76,
          "time": 2.7692279999999996,
          "velocity": 0.3937007874015748,
          "duration": 0.230769
        },
        {
          "name": "D#5",
          "midi": 75,
          "time": 2.9999969999999996,
          "velocity": 0.3937007874015748,
          "duration": 0.692307
        },
        {
          "name": "B2",
          "midi": 47,
          "time": 2.9999969999999996,
          "velocity": 0.3937007874015748,
          "duration": 0.230769
        },
        {
          "name": "D#3",
          "midi": 51,
          "time": 2.9999969999999996,
          "velocity": 0.3937007874015748,
          "duration": 0.461538
        },
        {
          "name": "F#3",
          "midi": 54,
          "time": 2.9999969999999996,
          "velocity": 0.3937007874015748,
          "duration": 0.230769
        },
        {
          "name": "G#3",
          "midi": 56,
          "time": 2.9999969999999996,
          "velocity": 0.3937007874015748,
          "duration": 0.230769
        },
        {
          "name": "D#3",
          "midi": 51,
          "time": 3.2307659999999996,
          "velocity": 0.3937007874015748,
          "duration": 0.461538
        },
        {
          "name": "F#3",
          "midi": 54,
          "time": 3.2307659999999996,
          "velocity": 0.3937007874015748,
          "duration": 0.461538
        },
        {
          "name": "B3",
          "midi": 59,
          "time": 3.2307659999999996,
          "velocity": 0.3937007874015748,
          "duration": 0.461538
        },
        {
          "name": "E4",
          "midi": 64,
          "time": 3.2307659999999996,
          "velocity": 0.3937007874015748,
          "duration": 0.461538
        },
        {
          "name": "G#2",
          "midi": 44,
          "time": 3.2307659999999996,
          "velocity": 0.3937007874015748,
          "duration": 0.461538
        },
        {
          "name": "G#6",
          "midi": 92,
          "time": 3.2307659999999996,
          "velocity": 0.3937007874015748,
          "duration": 0.461538
        },
        {
          "name": "F#2",
          "midi": 42,
          "time": 3.6923039999999996,
          "velocity": 0.3937007874015748,
          "duration": 0.692307
        },
        {
          "name": "B2",
          "midi": 47,
          "time": 3.6923039999999996,
          "velocity": 0.3937007874015748,
          "duration": 0.692307
        },
        {
          "name": "G#3",
          "midi": 56,
          "time": 3.6923039999999996,
          "velocity": 0.3937007874015748,
          "duration": 0.692307
        },
        {
          "name": "D#4",
          "midi": 63,
          "time": 3.6923039999999996,
          "velocity": 0.3937007874015748,
          "duration": 0.692307
        },
        {
          "name": "D#5",
          "midi": 75,
          "time": 3.6923039999999996,
          "velocity": 0.3937007874015748,
          "duration": 0.230769
        },
        {
          "name": "D#6",
          "midi": 87,
          "time": 3.6923039999999996,
          "velocity": 0.3937007874015748,
          "duration": 1.8461519999999978
        },
        {
          "name": "D#3",
          "midi": 51,
          "time": 4.384611,
          "velocity": 0.3937007874015748,
          "duration": 0.4615379999999991
        },
        {
          "name": "F#3",
          "midi": 54,
          "time": 4.384611,
          "velocity": 0.3937007874015748,
          "duration": 0.4615379999999991
        },
        {
          "name": "B3",
          "midi": 59,
          "time": 4.384611,
          "velocity": 0.3937007874015748,
          "duration": 0.4615379999999991
        },
        {
          "name": "F#4",
          "midi": 66,
          "time": 4.384611,
          "velocity": 0.3937007874015748,
          "duration": 0.6923069999999987
        },
        {
          "name": "G#2",
          "midi": 44,
          "time": 4.384611,
          "velocity": 0.3937007874015748,
          "duration": 0.6923069999999987
        },
        {
          "name": "F#5",
          "midi": 78,
          "time": 4.384611,
          "velocity": 0.3937007874015748,
          "duration": 0.23076899999999956
        },
        {
          "name": "E5",
          "midi": 76,
          "time": 4.615379999999999,
          "velocity": 0.3937007874015748,
          "duration": 0.23076899999999956
        },
        {
          "name": "D#5",
          "midi": 75,
          "time": 4.846148999999999,
          "velocity": 0.3937007874015748,
          "duration": 0.6923069999999987
        },
        {
          "name": "B2",
          "midi": 47,
          "time": 4.846148999999999,
          "velocity": 0.3937007874015748,
          "duration": 0.23076899999999956
        },
        {
          "name": "D#3",
          "midi": 51,
          "time": 4.846148999999999,
          "velocity": 0.3937007874015748,
          "duration": 0.4615379999999991
        },
        {
          "name": "F#3",
          "midi": 54,
          "time": 4.846148999999999,
          "velocity": 0.3937007874015748,
          "duration": 0.23076899999999956
        },
        {
          "name": "G#3",
          "midi": 56,
          "time": 4.846148999999999,
          "velocity": 0.3937007874015748,
          "duration": 0.23076899999999956
        },
        {
          "name": "D#3",
          "midi": 51,
          "time": 5.076917999999998,
          "velocity": 0.3937007874015748,
          "duration": 0.4615379999999991
        },
        {
          "name": "F#3",
          "midi": 54,
          "time": 5.076917999999998,
          "velocity": 0.3937007874015748,
          "duration": 0.4615379999999991
        },
        {
          "name": "B3",
          "midi": 59,
          "time": 5.076917999999998,
          "velocity": 0.3937007874015748,
          "duration": 0.4615379999999991
        },
        {
          "name": "E4",
          "midi": 64,
          "time": 5.076917999999998,
          "velocity": 0.3937007874015748,
          "duration": 0.4615379999999991
        },
        {
          "name": "G#2",
          "midi": 44,
          "time": 5.076917999999998,
          "velocity": 0.3937007874015748,
          "duration": 0.4615379999999991
        },
        {
          "name": "F#2",
          "midi": 42,
          "time": 5.538455999999997,
          "velocity": 0.3937007874015748,
          "duration": 0.6923069999999996
        },
        {
          "name": "B2",
          "midi": 47,
          "time": 5.538455999999997,
          "velocity": 0.3937007874015748,
          "duration": 0.6923069999999996
        },
        {
          "name": "G#3",
          "midi": 56,
          "time": 5.538455999999997,
          "velocity": 0.3937007874015748,
          "duration": 0.6923069999999996
        },
        {
          "name": "D#4",
          "midi": 63,
          "time": 5.538455999999997,
          "velocity": 0.3937007874015748,
          "duration": 0.6923069999999996
        },
        {
          "name": "D#5",
          "midi": 75,
          "time": 5.538455999999997,
          "velocity": 0.3937007874015748,
          "duration": 0.23076899999999956
        },
        {
          "name": "C#6",
          "midi": 85,
          "time": 5.538455999999997,
          "velocity": 0.3937007874015748,
          "duration": 1.8461519999999974
        },
        {
          "name": "D#3",
          "midi": 51,
          "time": 6.230762999999997,
          "velocity": 0.3937007874015748,
          "duration": 0.4615379999999991
        },
        {
          "name": "F#3",
          "midi": 54,
          "time": 6.230762999999997,
          "velocity": 0.3937007874015748,
          "duration": 0.4615379999999991
        },
        {
          "name": "B3",
          "midi": 59,
          "time": 6.230762999999997,
          "velocity": 0.3937007874015748,
          "duration": 0.4615379999999991
        },
        {
          "name": "F#4",
          "midi": 66,
          "time": 6.230762999999997,
          "velocity": 0.3937007874015748,
          "duration": 0.6923069999999987
        },
        {
          "name": "G#2",
          "midi": 44,
          "time": 6.230762999999997,
          "velocity": 0.3937007874015748,
          "duration": 0.6923069999999987
        },
        {
          "name": "F#5",
          "midi": 78,
          "time": 6.230762999999997,
          "velocity": 0.3937007874015748,
          "duration": 0.23076899999999956
        },
        {
          "name": "E5",
          "midi": 76,
          "time": 6.4615319999999965,
          "velocity": 0.3937007874015748,
          "duration": 0.23076899999999956
        },
        {
          "name": "D#5",
          "midi": 75,
          "time": 6.692300999999996,
          "velocity": 0.3937007874015748,
          "duration": 0.4615379999999991
        },
        {
          "name": "B2",
          "midi": 47,
          "time": 6.692300999999996,
          "velocity": 0.3937007874015748,
          "duration": 0.23076899999999956
        },
        {
          "name": "D#3",
          "midi": 51,
          "time": 6.692300999999996,
          "velocity": 0.3937007874015748,
          "duration": 0.4615379999999991
        },
        {
          "name": "F#3",
          "midi": 54,
          "time": 6.692300999999996,
          "velocity": 0.3937007874015748,
          "duration": 0.23076899999999956
        },
        {
          "name": "G#3",
          "midi": 56,
          "time": 6.692300999999996,
          "velocity": 0.3937007874015748,
          "duration": 0.23076899999999956
        },
        {
          "name": "D#3",
          "midi": 51,
          "time": 6.923069999999996,
          "velocity": 0.3937007874015748,
          "duration": 0.4615379999999991
        },
        {
          "name": "F#3",
          "midi": 54,
          "time": 6.923069999999996,
          "velocity": 0.3937007874015748,
          "duration": 0.4615379999999991
        },
        {
          "name": "B3",
          "midi": 59,
          "time": 6.923069999999996,
          "velocity": 0.3937007874015748,
          "duration": 0.4615379999999991
        },
        {
          "name": "E4",
          "midi": 64,
          "time": 6.923069999999996,
          "velocity": 0.3937007874015748,
          "duration": 0.4615379999999991
        },
        {
          "name": "G#2",
          "midi": 44,
          "time": 6.923069999999996,
          "velocity": 0.3937007874015748,
          "duration": 0.4615379999999991
        },
        {
          "name": "B4",
          "midi": 71,
          "time": 7.153838999999995,
          "velocity": 0.3937007874015748,
          "duration": 1.1538449999999996
        },
        {
          "name": "E4",
          "midi": 64,
          "time": 7.384607999999995,
          "velocity": 0.3937007874015748,
          "duration": 1.384614000000001
        },
        {
          "name": "G#3",
          "midi": 56,
          "time": 7.384607999999995,
          "velocity": 0.3937007874015748,
          "duration": 1.384614000000001
        },
        {
          "name": "C#3",
          "midi": 49,
          "time": 7.384607999999995,
          "velocity": 0.3937007874015748,
          "duration": 1.384614000000001
        },
        {
          "name": "F#2",
          "midi": 42,
          "time": 7.384607999999995,
          "velocity": 0.3937007874015748,
          "duration": 1.384614000000001
        },
        {
          "name": "B5",
          "midi": 83,
          "time": 7.384607999999995,
          "velocity": 0.3937007874015748,
          "duration": 1.846152
        },
        {
          "name": "A3",
          "midi": 57,
          "time": 8.307683999999995,
          "velocity": 0.3937007874015748,
          "duration": 0.23076900000000045
        },
        {
          "name": "C#4",
          "midi": 61,
          "time": 8.538452999999995,
          "velocity": 0.3937007874015748,
          "duration": 0.23076900000000045
        },
        {
          "name": "E4",
          "midi": 64,
          "time": 8.769221999999996,
          "velocity": 0.3937007874015748,
          "duration": 0.4615379999999991
        },
        {
          "name": "G#3",
          "midi": 56,
          "time": 8.769221999999996,
          "velocity": 0.3937007874015748,
          "duration": 0.4615379999999991
        },
        {
          "name": "C#3",
          "midi": 49,
          "time": 8.769221999999996,
          "velocity": 0.3937007874015748,
          "duration": 0.4615379999999991
        },
        {
          "name": "F#2",
          "midi": 42,
          "time": 8.769221999999996,
          "velocity": 0.3937007874015748,
          "duration": 0.4615379999999991
        },
        {
          "name": "F#4",
          "midi": 66,
          "time": 9.230759999999995,
          "velocity": 0.3937007874015748,
          "duration": 0.6923069999999996
        },
        {
          "name": "B3",
          "midi": 59,
          "time": 9.230759999999995,
          "velocity": 0.3937007874015748,
          "duration": 0.6923069999999996
        },
        {
          "name": "F#3",
          "midi": 54,
          "time": 9.230759999999995,
          "velocity": 0.3937007874015748,
          "duration": 0.6923069999999996
        },
        {
          "name": "B2",
          "midi": 47,
          "time": 9.230759999999995,
          "velocity": 0.3937007874015748,
          "duration": 0.6923069999999996
        },
        {
          "name": "G#2",
          "midi": 44,
          "time": 9.230759999999995,
          "velocity": 0.3937007874015748,
          "duration": 0.6923069999999996
        },
        {
          "name": "G#5",
          "midi": 80,
          "time": 9.230759999999995,
          "velocity": 0.3937007874015748,
          "duration": 1.8461519999999982
        },
        {
          "name": "G#4",
          "midi": 68,
          "time": 9.923066999999994,
          "velocity": 0.3937007874015748,
          "duration": 0.6923069999999996
        },
        {
          "name": "C#4",
          "midi": 61,
          "time": 9.923066999999994,
          "velocity": 0.3937007874015748,
          "duration": 0.6923069999999996
        },
        {
          "name": "G#3",
          "midi": 56,
          "time": 9.923066999999994,
          "velocity": 0.3937007874015748,
          "duration": 0.6923069999999996
        },
        {
          "name": "C#3",
          "midi": 49,
          "time": 9.923066999999994,
          "velocity": 0.3937007874015748,
          "duration": 0.6923069999999996
        },
        {
          "name": "A2",
          "midi": 45,
          "time": 9.923066999999994,
          "velocity": 0.3937007874015748,
          "duration": 0.6923069999999996
        },
        {
          "name": "D#4",
          "midi": 63,
          "time": 10.615373999999994,
          "velocity": 0.3937007874015748,
          "duration": 0.4615379999999991
        },
        {
          "name": "A3",
          "midi": 57,
          "time": 10.615373999999994,
          "velocity": 0.3937007874015748,
          "duration": 0.4615379999999991
        },
        {
          "name": "D#3",
          "midi": 51,
          "time": 10.615373999999994,
          "velocity": 0.3937007874015748,
          "duration": 0.4615379999999991
        },
        {
          "name": "B2",
          "midi": 47,
          "time": 10.615373999999994,
          "velocity": 0.3937007874015748,
          "duration": 0.4615379999999991
        },
        {
          "name": "B4",
          "midi": 71,
          "time": 10.615373999999994,
          "velocity": 0.3937007874015748,
          "duration": 0.4615379999999991
        },
        {
          "name": "E4",
          "midi": 64,
          "time": 11.076911999999993,
          "velocity": 0.3937007874015748,
          "duration": 1.384614000000001
        },
        {
          "name": "G#3",
          "midi": 56,
          "time": 11.076911999999993,
          "velocity": 0.3937007874015748,
          "duration": 1.384614000000001
        },
        {
          "name": "C#3",
          "midi": 49,
          "time": 11.076911999999993,
          "velocity": 0.3937007874015748,
          "duration": 1.384614000000001
        },
        {
          "name": "F#2",
          "midi": 42,
          "time": 11.076911999999993,
          "velocity": 0.3937007874015748,
          "duration": 1.384614000000001
        },
        {
          "name": "B5",
          "midi": 83,
          "time": 11.076911999999993,
          "velocity": 0.3937007874015748,
          "duration": 1.8461520000000018
        },
        {
          "name": "A3",
          "midi": 57,
          "time": 11.999987999999993,
          "velocity": 0.3937007874015748,
          "duration": 0.23076900000000045
        },
        {
          "name": "G#5",
          "midi": 80,
          "time": 11.999987999999993,
          "velocity": 0.3937007874015748,
          "duration": 0.23076900000000045
        },
        {
          "name": "C#4",
          "midi": 61,
          "time": 12.230756999999993,
          "velocity": 0.3937007874015748,
          "duration": 0.23076900000000045
        },
        {
          "name": "F#5",
          "midi": 78,
          "time": 12.230756999999993,
          "velocity": 0.3937007874015748,
          "duration": 0.23076900000000045
        },
        {
          "name": "E4",
          "midi": 64,
          "time": 12.461525999999994,
          "velocity": 0.3937007874015748,
          "duration": 0.4615380000000009
        },
        {
          "name": "G#3",
          "midi": 56,
          "time": 12.461525999999994,
          "velocity": 0.3937007874015748,
          "duration": 0.4615380000000009
        },
        {
          "name": "C#3",
          "midi": 49,
          "time": 12.461525999999994,
          "velocity": 0.3937007874015748,
          "duration": 0.4615380000000009
        },
        {
          "name": "F#2",
          "midi": 42,
          "time": 12.461525999999994,
          "velocity": 0.3937007874015748,
          "duration": 0.4615380000000009
        },
        {
          "name": "E5",
          "midi": 76,
          "time": 12.461525999999994,
          "velocity": 0.3937007874015748,
          "duration": 0.23076900000000045
        },
        {
          "name": "D#4",
          "midi": 63,
          "time": 12.692294999999994,
          "velocity": 0.3937007874015748,
          "duration": 0.23076900000000045
        },
        {
          "name": "C#5",
          "midi": 73,
          "time": 12.692294999999994,
          "velocity": 0.3937007874015748,
          "duration": 1.1538450000000005
        },
        {
          "name": "F#4",
          "midi": 66,
          "time": 12.923063999999995,
          "velocity": 0.3937007874015748,
          "duration": 0.6923069999999996
        },
        {
          "name": "B3",
          "midi": 59,
          "time": 12.923063999999995,
          "velocity": 0.3937007874015748,
          "duration": 0.6923069999999996
        },
        {
          "name": "F#3",
          "midi": 54,
          "time": 12.923063999999995,
          "velocity": 0.3937007874015748,
          "duration": 0.6923069999999996
        },
        {
          "name": "B2",
          "midi": 47,
          "time": 12.923063999999995,
          "velocity": 0.3937007874015748,
          "duration": 0.6923069999999996
        },
        {
          "name": "G#2",
          "midi": 44,
          "time": 12.923063999999995,
          "velocity": 0.3937007874015748,
          "duration": 0.6923069999999996
        },
        {
          "name": "G#5",
          "midi": 80,
          "time": 12.923063999999995,
          "velocity": 0.3937007874015748,
          "duration": 1.8461519999999982
        },
        {
          "name": "G#4",
          "midi": 68,
          "time": 13.615370999999994,
          "velocity": 0.3937007874015748,
          "duration": 0.6923069999999996
        },
        {
          "name": "C#4",
          "midi": 61,
          "time": 13.615370999999994,
          "velocity": 0.3937007874015748,
          "duration": 0.6923069999999996
        },
        {
          "name": "G#3",
          "midi": 56,
          "time": 13.615370999999994,
          "velocity": 0.3937007874015748,
          "duration": 0.6923069999999996
        },
        {
          "name": "C#3",
          "midi": 49,
          "time": 13.615370999999994,
          "velocity": 0.3937007874015748,
          "duration": 0.6923069999999996
        },
        {
          "name": "A2",
          "midi": 45,
          "time": 13.615370999999994,
          "velocity": 0.3937007874015748,
          "duration": 0.6923069999999996
        },
        {
          "name": "D#4",
          "midi": 63,
          "time": 14.307677999999994,
          "velocity": 0.3937007874015748,
          "duration": 0.4615379999999991
        },
        {
          "name": "A3",
          "midi": 57,
          "time": 14.307677999999994,
          "velocity": 0.3937007874015748,
          "duration": 0.4615379999999991
        },
        {
          "name": "D#3",
          "midi": 51,
          "time": 14.307677999999994,
          "velocity": 0.3937007874015748,
          "duration": 0.4615379999999991
        },
        {
          "name": "B2",
          "midi": 47,
          "time": 14.307677999999994,
          "velocity": 0.3937007874015748,
          "duration": 0.4615379999999991
        },
        {
          "name": "F#4",
          "midi": 66,
          "time": 14.307677999999994,
          "velocity": 0.3937007874015748,
          "duration": 0.4615379999999991
        },
        {
          "name": "F#2",
          "midi": 42,
          "time": 14.769215999999993,
          "velocity": 0.3937007874015748,
          "duration": 0.6923069999999996
        },
        {
          "name": "B2",
          "midi": 47,
          "time": 14.769215999999993,
          "velocity": 0.3937007874015748,
          "duration": 0.6923069999999996
        },
        {
          "name": "G#3",
          "midi": 56,
          "time": 14.769215999999993,
          "velocity": 0.3937007874015748,
          "duration": 0.6923069999999996
        },
        {
          "name": "D#4",
          "midi": 63,
          "time": 14.769215999999993,
          "velocity": 0.3937007874015748,
          "duration": 0.6923069999999996
        },
        {
          "name": "D#5",
          "midi": 75,
          "time": 14.769215999999993,
          "velocity": 0.3937007874015748,
          "duration": 0.23076900000000045
        },
        {
          "name": "D#6",
          "midi": 87,
          "time": 14.769215999999993,
          "velocity": 0.3937007874015748,
          "duration": 1.8461519999999965
        },
        {
          "name": "D#3",
          "midi": 51,
          "time": 15.461522999999993,
          "velocity": 0.3937007874015748,
          "duration": 0.4615380000000009
        },
        {
          "name": "F#3",
          "midi": 54,
          "time": 15.461522999999993,
          "velocity": 0.3937007874015748,
          "duration": 0.4615380000000009
        },
        {
          "name": "B3",
          "midi": 59,
          "time": 15.461522999999993,
          "velocity": 0.3937007874015748,
          "duration": 0.4615380000000009
        },
        {
          "name": "F#4",
          "midi": 66,
          "time": 15.461522999999993,
          "velocity": 0.3937007874015748,
          "duration": 0.6923069999999996
        },
        {
          "name": "G#2",
          "midi": 44,
          "time": 15.461522999999993,
          "velocity": 0.3937007874015748,
          "duration": 0.6923069999999996
        },
        {
          "name": "F#5",
          "midi": 78,
          "time": 15.461522999999993,
          "velocity": 0.3937007874015748,
          "duration": 0.23076900000000045
        },
        {
          "name": "E5",
          "midi": 76,
          "time": 15.692291999999993,
          "velocity": 0.3937007874015748,
          "duration": 0.23076900000000045
        },
        {
          "name": "B2",
          "midi": 47,
          "time": 15.923060999999993,
          "velocity": 0.3937007874015748,
          "duration": 0.23076899999999867
        },
        {
          "name": "D#3",
          "midi": 51,
          "time": 15.923060999999993,
          "velocity": 0.3937007874015748,
          "duration": 0.46153799999999734
        },
        {
          "name": "F#3",
          "midi": 54,
          "time": 15.923060999999993,
          "velocity": 0.3937007874015748,
          "duration": 0.23076899999999867
        },
        {
          "name": "G#3",
          "midi": 56,
          "time": 15.923060999999993,
          "velocity": 0.3937007874015748,
          "duration": 0.23076899999999867
        },
        {
          "name": "D#5",
          "midi": 75,
          "time": 15.923060999999993,
          "velocity": 0.3937007874015748,
          "duration": 0.692306999999996
        },
        {
          "name": "D#3",
          "midi": 51,
          "time": 16.153829999999992,
          "velocity": 0.3937007874015748,
          "duration": 0.46153799999999734
        },
        {
          "name": "F#3",
          "midi": 54,
          "time": 16.153829999999992,
          "velocity": 0.3937007874015748,
          "duration": 0.46153799999999734
        },
        {
          "name": "B3",
          "midi": 59,
          "time": 16.153829999999992,
          "velocity": 0.3937007874015748,
          "duration": 0.46153799999999734
        },
        {
          "name": "E4",
          "midi": 64,
          "time": 16.153829999999992,
          "velocity": 0.3937007874015748,
          "duration": 0.46153799999999734
        },
        {
          "name": "G#2",
          "midi": 44,
          "time": 16.153829999999992,
          "velocity": 0.3937007874015748,
          "duration": 0.46153799999999734
        },
        {
          "name": "F#2",
          "midi": 42,
          "time": 16.61536799999999,
          "velocity": 0.3937007874015748,
          "duration": 0.6923069999999996
        },
        {
          "name": "B2",
          "midi": 47,
          "time": 16.61536799999999,
          "velocity": 0.3937007874015748,
          "duration": 0.6923069999999996
        },
        {
          "name": "G#3",
          "midi": 56,
          "time": 16.61536799999999,
          "velocity": 0.3937007874015748,
          "duration": 0.6923069999999996
        },
        {
          "name": "D#4",
          "midi": 63,
          "time": 16.61536799999999,
          "velocity": 0.3937007874015748,
          "duration": 0.6923069999999996
        },
        {
          "name": "D#5",
          "midi": 75,
          "time": 16.61536799999999,
          "velocity": 0.3937007874015748,
          "duration": 0.23076899999999867
        },
        {
          "name": "F#6",
          "midi": 90,
          "time": 16.61536799999999,
          "velocity": 0.3937007874015748,
          "duration": 1.3846139999999956
        },
        {
          "name": "D#3",
          "midi": 51,
          "time": 17.30767499999999,
          "velocity": 0.3937007874015748,
          "duration": 0.46153799999999734
        },
        {
          "name": "F#3",
          "midi": 54,
          "time": 17.30767499999999,
          "velocity": 0.3937007874015748,
          "duration": 0.46153799999999734
        },
        {
          "name": "B3",
          "midi": 59,
          "time": 17.30767499999999,
          "velocity": 0.3937007874015748,
          "duration": 0.46153799999999734
        },
        {
          "name": "F#4",
          "midi": 66,
          "time": 17.30767499999999,
          "velocity": 0.3937007874015748,
          "duration": 0.692306999999996
        },
        {
          "name": "G#2",
          "midi": 44,
          "time": 17.30767499999999,
          "velocity": 0.3937007874015748,
          "duration": 0.692306999999996
        },
        {
          "name": "F#5",
          "midi": 78,
          "time": 17.30767499999999,
          "velocity": 0.3937007874015748,
          "duration": 0.23076899999999867
        },
        {
          "name": "E5",
          "midi": 76,
          "time": 17.538443999999988,
          "velocity": 0.3937007874015748,
          "duration": 0.23076899999999867
        },
        {
          "name": "D#5",
          "midi": 75,
          "time": 17.769212999999986,
          "velocity": 0.3937007874015748,
          "duration": 0.692306999999996
        },
        {
          "name": "B2",
          "midi": 47,
          "time": 17.769212999999986,
          "velocity": 0.3937007874015748,
          "duration": 0.23076899999999867
        },
        {
          "name": "D#3",
          "midi": 51,
          "time": 17.769212999999986,
          "velocity": 0.3937007874015748,
          "duration": 0.46153799999999734
        },
        {
          "name": "F#3",
          "midi": 54,
          "time": 17.769212999999986,
          "velocity": 0.3937007874015748,
          "duration": 0.23076899999999867
        },
        {
          "name": "G#3",
          "midi": 56,
          "time": 17.769212999999986,
          "velocity": 0.3937007874015748,
          "duration": 0.23076899999999867
        },
        {
          "name": "D#3",
          "midi": 51,
          "time": 17.999981999999985,
          "velocity": 0.3937007874015748,
          "duration": 0.46153799999999734
        },
        {
          "name": "F#3",
          "midi": 54,
          "time": 17.999981999999985,
          "velocity": 0.3937007874015748,
          "duration": 0.46153799999999734
        },
        {
          "name": "B3",
          "midi": 59,
          "time": 17.999981999999985,
          "velocity": 0.3937007874015748,
          "duration": 0.46153799999999734
        },
        {
          "name": "E4",
          "midi": 64,
          "time": 17.999981999999985,
          "velocity": 0.3937007874015748,
          "duration": 0.46153799999999734
        },
        {
          "name": "G#2",
          "midi": 44,
          "time": 17.999981999999985,
          "velocity": 0.3937007874015748,
          "duration": 0.46153799999999734
        },
        {
          "name": "G#6",
          "midi": 92,
          "time": 17.999981999999985,
          "velocity": 0.3937007874015748,
          "duration": 0.46153799999999734
        },
        {
          "name": "F#2",
          "midi": 42,
          "time": 18.461519999999982,
          "velocity": 0.3937007874015748,
          "duration": 0.6923069999999996
        },
        {
          "name": "B2",
          "midi": 47,
          "time": 18.461519999999982,
          "velocity": 0.3937007874015748,
          "duration": 0.6923069999999996
        },
        {
          "name": "G#3",
          "midi": 56,
          "time": 18.461519999999982,
          "velocity": 0.3937007874015748,
          "duration": 0.6923069999999996
        },
        {
          "name": "D#4",
          "midi": 63,
          "time": 18.461519999999982,
          "velocity": 0.3937007874015748,
          "duration": 0.6923069999999996
        },
        {
          "name": "D#5",
          "midi": 75,
          "time": 18.461519999999982,
          "velocity": 0.3937007874015748,
          "duration": 0.23076899999999867
        },
        {
          "name": "D#6",
          "midi": 87,
          "time": 18.461519999999982,
          "velocity": 0.3937007874015748,
          "duration": 1.846151999999993
        },
        {
          "name": "D#3",
          "midi": 51,
          "time": 19.153826999999982,
          "velocity": 0.3937007874015748,
          "duration": 0.46153799999999734
        },
        {
          "name": "F#3",
          "midi": 54,
          "time": 19.153826999999982,
          "velocity": 0.3937007874015748,
          "duration": 0.46153799999999734
        },
        {
          "name": "B3",
          "midi": 59,
          "time": 19.153826999999982,
          "velocity": 0.3937007874015748,
          "duration": 0.46153799999999734
        },
        {
          "name": "F#4",
          "midi": 66,
          "time": 19.153826999999982,
          "velocity": 0.3937007874015748,
          "duration": 0.692306999999996
        },
        {
          "name": "G#2",
          "midi": 44,
          "time": 19.153826999999982,
          "velocity": 0.3937007874015748,
          "duration": 0.692306999999996
        },
        {
          "name": "F#5",
          "midi": 78,
          "time": 19.153826999999982,
          "velocity": 0.3937007874015748,
          "duration": 0.23076899999999867
        },
        {
          "name": "E5",
          "midi": 76,
          "time": 19.38459599999998,
          "velocity": 0.3937007874015748,
          "duration": 0.23076899999999867
        },
        {
          "name": "D#5",
          "midi": 75,
          "time": 19.61536499999998,
          "velocity": 0.3937007874015748,
          "duration": 0.692306999999996
        },
        {
          "name": "B2",
          "midi": 47,
          "time": 19.61536499999998,
          "velocity": 0.3937007874015748,
          "duration": 0.23076899999999867
        },
        {
          "name": "D#3",
          "midi": 51,
          "time": 19.61536499999998,
          "velocity": 0.3937007874015748,
          "duration": 0.46153799999999734
        },
        {
          "name": "F#3",
          "midi": 54,
          "time": 19.61536499999998,
          "velocity": 0.3937007874015748,
          "duration": 0.23076899999999867
        },
        {
          "name": "G#3",
          "midi": 56,
          "time": 19.61536499999998,
          "velocity": 0.3937007874015748,
          "duration": 0.23076899999999867
        },
        {
          "name": "D#3",
          "midi": 51,
          "time": 19.846133999999978,
          "velocity": 0.3937007874015748,
          "duration": 0.46153799999999734
        },
        {
          "name": "F#3",
          "midi": 54,
          "time": 19.846133999999978,
          "velocity": 0.3937007874015748,
          "duration": 0.46153799999999734
        },
        {
          "name": "B3",
          "midi": 59,
          "time": 19.846133999999978,
          "velocity": 0.3937007874015748,
          "duration": 0.46153799999999734
        },
        {
          "name": "E4",
          "midi": 64,
          "time": 19.846133999999978,
          "velocity": 0.3937007874015748,
          "duration": 0.46153799999999734
        },
        {
          "name": "G#2",
          "midi": 44,
          "time": 19.846133999999978,
          "velocity": 0.3937007874015748,
          "duration": 0.46153799999999734
        },
        {
          "name": "F#2",
          "midi": 42,
          "time": 20.307671999999975,
          "velocity": 0.3937007874015748,
          "duration": 0.6923069999999996
        },
        {
          "name": "B2",
          "midi": 47,
          "time": 20.307671999999975,
          "velocity": 0.3937007874015748,
          "duration": 0.6923069999999996
        },
        {
          "name": "G#3",
          "midi": 56,
          "time": 20.307671999999975,
          "velocity": 0.3937007874015748,
          "duration": 0.6923069999999996
        },
        {
          "name": "D#4",
          "midi": 63,
          "time": 20.307671999999975,
          "velocity": 0.3937007874015748,
          "duration": 0.6923069999999996
        },
        {
          "name": "D#5",
          "midi": 75,
          "time": 20.307671999999975,
          "velocity": 0.3937007874015748,
          "duration": 0.23076899999999867
        },
        {
          "name": "C#6",
          "midi": 85,
          "time": 20.307671999999975,
          "velocity": 0.3937007874015748,
          "duration": 1.846151999999993
        },
        {
          "name": "D#3",
          "midi": 51,
          "time": 20.999978999999975,
          "velocity": 0.3937007874015748,
          "duration": 0.46153799999999734
        },
        {
          "name": "F#3",
          "midi": 54,
          "time": 20.999978999999975,
          "velocity": 0.3937007874015748,
          "duration": 0.46153799999999734
        },
        {
          "name": "B3",
          "midi": 59,
          "time": 20.999978999999975,
          "velocity": 0.3937007874015748,
          "duration": 0.46153799999999734
        },
        {
          "name": "F#4",
          "midi": 66,
          "time": 20.999978999999975,
          "velocity": 0.3937007874015748,
          "duration": 0.692306999999996
        },
        {
          "name": "G#2",
          "midi": 44,
          "time": 20.999978999999975,
          "velocity": 0.3937007874015748,
          "duration": 0.692306999999996
        },
        {
          "name": "F#5",
          "midi": 78,
          "time": 20.999978999999975,
          "velocity": 0.3937007874015748,
          "duration": 0.23076899999999867
        },
        {
          "name": "E5",
          "midi": 76,
          "time": 21.230747999999974,
          "velocity": 0.3937007874015748,
          "duration": 0.23076899999999867
        },
        {
          "name": "D#5",
          "midi": 75,
          "time": 21.461516999999972,
          "velocity": 0.3937007874015748,
          "duration": 0.46153799999999734
        },
        {
          "name": "B2",
          "midi": 47,
          "time": 21.461516999999972,
          "velocity": 0.3937007874015748,
          "duration": 0.23076899999999867
        },
        {
          "name": "D#3",
          "midi": 51,
          "time": 21.461516999999972,
          "velocity": 0.3937007874015748,
          "duration": 0.46153799999999734
        },
        {
          "name": "F#3",
          "midi": 54,
          "time": 21.461516999999972,
          "velocity": 0.3937007874015748,
          "duration": 0.23076899999999867
        },
        {
          "name": "G#3",
          "midi": 56,
          "time": 21.461516999999972,
          "velocity": 0.3937007874015748,
          "duration": 0.23076899999999867
        },
        {
          "name": "D#3",
          "midi": 51,
          "time": 21.69228599999997,
          "velocity": 0.3937007874015748,
          "duration": 0.46153799999999734
        },
        {
          "name": "F#3",
          "midi": 54,
          "time": 21.69228599999997,
          "velocity": 0.3937007874015748,
          "duration": 0.46153799999999734
        },
        {
          "name": "B3",
          "midi": 59,
          "time": 21.69228599999997,
          "velocity": 0.3937007874015748,
          "duration": 0.46153799999999734
        },
        {
          "name": "E4",
          "midi": 64,
          "time": 21.69228599999997,
          "velocity": 0.3937007874015748,
          "duration": 0.46153799999999734
        },
        {
          "name": "G#2",
          "midi": 44,
          "time": 21.69228599999997,
          "velocity": 0.3937007874015748,
          "duration": 0.46153799999999734
        },
        {
          "name": "B4",
          "midi": 71,
          "time": 21.92305499999997,
          "velocity": 0.3937007874015748,
          "duration": 1.153844999999997
        },
        {
          "name": "E4",
          "midi": 64,
          "time": 22.153823999999968,
          "velocity": 0.3937007874015748,
          "duration": 1.3846139999999956
        },
        {
          "name": "G#3",
          "midi": 56,
          "time": 22.153823999999968,
          "velocity": 0.3937007874015748,
          "duration": 1.3846139999999956
        },
        {
          "name": "C#3",
          "midi": 49,
          "time": 22.153823999999968,
          "velocity": 0.3937007874015748,
          "duration": 1.3846139999999956
        },
        {
          "name": "F#2",
          "midi": 42,
          "time": 22.153823999999968,
          "velocity": 0.3937007874015748,
          "duration": 1.3846139999999956
        },
        {
          "name": "B5",
          "midi": 83,
          "time": 22.153823999999968,
          "velocity": 0.3937007874015748,
          "duration": 1.8461519999999965
        },
        {
          "name": "A3",
          "midi": 57,
          "time": 23.076899999999966,
          "velocity": 0.3937007874015748,
          "duration": 0.23076899999999867
        },
        {
          "name": "C#4",
          "midi": 61,
          "time": 23.307668999999965,
          "velocity": 0.3937007874015748,
          "duration": 0.23076899999999867
        },
        {
          "name": "E4",
          "midi": 64,
          "time": 23.538437999999964,
          "velocity": 0.3937007874015748,
          "duration": 0.4615380000000009
        },
        {
          "name": "G#3",
          "midi": 56,
          "time": 23.538437999999964,
          "velocity": 0.3937007874015748,
          "duration": 0.4615380000000009
        },
        {
          "name": "C#3",
          "midi": 49,
          "time": 23.538437999999964,
          "velocity": 0.3937007874015748,
          "duration": 0.4615380000000009
        },
        {
          "name": "F#2",
          "midi": 42,
          "time": 23.538437999999964,
          "velocity": 0.3937007874015748,
          "duration": 0.4615380000000009
        },
        {
          "name": "F#4",
          "midi": 66,
          "time": 23.999975999999965,
          "velocity": 0.3937007874015748,
          "duration": 0.6923069999999996
        },
        {
          "name": "B3",
          "midi": 59,
          "time": 23.999975999999965,
          "velocity": 0.3937007874015748,
          "duration": 0.6923069999999996
        },
        {
          "name": "F#3",
          "midi": 54,
          "time": 23.999975999999965,
          "velocity": 0.3937007874015748,
          "duration": 0.6923069999999996
        },
        {
          "name": "B2",
          "midi": 47,
          "time": 23.999975999999965,
          "velocity": 0.3937007874015748,
          "duration": 0.6923069999999996
        },
        {
          "name": "G#2",
          "midi": 44,
          "time": 23.999975999999965,
          "velocity": 0.3937007874015748,
          "duration": 0.6923069999999996
        },
        {
          "name": "G#5",
          "midi": 80,
          "time": 23.999975999999965,
          "velocity": 0.3937007874015748,
          "duration": 1.846152
        },
        {
          "name": "G#4",
          "midi": 68,
          "time": 24.692282999999964,
          "velocity": 0.3937007874015748,
          "duration": 0.6923069999999996
        },
        {
          "name": "C#4",
          "midi": 61,
          "time": 24.692282999999964,
          "velocity": 0.3937007874015748,
          "duration": 0.6923069999999996
        },
        {
          "name": "G#3",
          "midi": 56,
          "time": 24.692282999999964,
          "velocity": 0.3937007874015748,
          "duration": 0.6923069999999996
        },
        {
          "name": "C#3",
          "midi": 49,
          "time": 24.692282999999964,
          "velocity": 0.3937007874015748,
          "duration": 0.6923069999999996
        },
        {
          "name": "A2",
          "midi": 45,
          "time": 24.692282999999964,
          "velocity": 0.3937007874015748,
          "duration": 0.6923069999999996
        },
        {
          "name": "D#4",
          "midi": 63,
          "time": 25.384589999999964,
          "velocity": 0.3937007874015748,
          "duration": 0.4615380000000009
        },
        {
          "name": "A3",
          "midi": 57,
          "time": 25.384589999999964,
          "velocity": 0.3937007874015748,
          "duration": 0.4615380000000009
        },
        {
          "name": "D#3",
          "midi": 51,
          "time": 25.384589999999964,
          "velocity": 0.3937007874015748,
          "duration": 0.4615380000000009
        },
        {
          "name": "B2",
          "midi": 47,
          "time": 25.384589999999964,
          "velocity": 0.3937007874015748,
          "duration": 0.4615380000000009
        },
        {
          "name": "B4",
          "midi": 71,
          "time": 25.384589999999964,
          "velocity": 0.3937007874015748,
          "duration": 0.4615380000000009
        },
        {
          "name": "E4",
          "midi": 64,
          "time": 25.846127999999965,
          "velocity": 0.3937007874015748,
          "duration": 1.3846139999999956
        },
        {
          "name": "G#3",
          "midi": 56,
          "time": 25.846127999999965,
          "velocity": 0.3937007874015748,
          "duration": 1.3846139999999956
        },
        {
          "name": "C#3",
          "midi": 49,
          "time": 25.846127999999965,
          "velocity": 0.3937007874015748,
          "duration": 1.3846139999999956
        },
        {
          "name": "F#2",
          "midi": 42,
          "time": 25.846127999999965,
          "velocity": 0.3937007874015748,
          "duration": 1.3846139999999956
        },
        {
          "name": "B5",
          "midi": 83,
          "time": 25.846127999999965,
          "velocity": 0.3937007874015748,
          "duration": 1.846151999999993
        },
        {
          "name": "A3",
          "midi": 57,
          "time": 26.769203999999963,
          "velocity": 0.3937007874015748,
          "duration": 0.23076899999999867
        },
        {
          "name": "G#5",
          "midi": 80,
          "time": 26.769203999999963,
          "velocity": 0.3937007874015748,
          "duration": 0.23076899999999867
        },
        {
          "name": "C#4",
          "midi": 61,
          "time": 26.99997299999996,
          "velocity": 0.3937007874015748,
          "duration": 0.23076899999999867
        },
        {
          "name": "F#5",
          "midi": 78,
          "time": 26.99997299999996,
          "velocity": 0.3937007874015748,
          "duration": 0.23076899999999867
        },
        {
          "name": "E4",
          "midi": 64,
          "time": 27.23074199999996,
          "velocity": 0.3937007874015748,
          "duration": 0.46153799999999734
        },
        {
          "name": "G#3",
          "midi": 56,
          "time": 27.23074199999996,
          "velocity": 0.3937007874015748,
          "duration": 0.46153799999999734
        },
        {
          "name": "C#3",
          "midi": 49,
          "time": 27.23074199999996,
          "velocity": 0.3937007874015748,
          "duration": 0.46153799999999734
        },
        {
          "name": "F#2",
          "midi": 42,
          "time": 27.23074199999996,
          "velocity": 0.3937007874015748,
          "duration": 0.46153799999999734
        },
        {
          "name": "E5",
          "midi": 76,
          "time": 27.23074199999996,
          "velocity": 0.3937007874015748,
          "duration": 0.23076899999999867
        },
        {
          "name": "D#4",
          "midi": 63,
          "time": 27.46151099999996,
          "velocity": 0.3937007874015748,
          "duration": 0.23076899999999867
        },
        {
          "name": "C#5",
          "midi": 73,
          "time": 27.46151099999996,
          "velocity": 0.3937007874015748,
          "duration": 1.153844999999997
        },
        {
          "name": "F#4",
          "midi": 66,
          "time": 27.692279999999958,
          "velocity": 0.3937007874015748,
          "duration": 0.6923069999999996
        },
        {
          "name": "B3",
          "midi": 59,
          "time": 27.692279999999958,
          "velocity": 0.3937007874015748,
          "duration": 0.6923069999999996
        },
        {
          "name": "F#3",
          "midi": 54,
          "time": 27.692279999999958,
          "velocity": 0.3937007874015748,
          "duration": 0.6923069999999996
        },
        {
          "name": "B2",
          "midi": 47,
          "time": 27.692279999999958,
          "velocity": 0.3937007874015748,
          "duration": 0.6923069999999996
        },
        {
          "name": "G#2",
          "midi": 44,
          "time": 27.692279999999958,
          "velocity": 0.3937007874015748,
          "duration": 0.6923069999999996
        },
        {
          "name": "G#5",
          "midi": 80,
          "time": 27.692279999999958,
          "velocity": 0.3937007874015748,
          "duration": 1.846152
        },
        {
          "name": "G#4",
          "midi": 68,
          "time": 28.384586999999957,
          "velocity": 0.3937007874015748,
          "duration": 0.6923069999999996
        },
        {
          "name": "C#4",
          "midi": 61,
          "time": 28.384586999999957,
          "velocity": 0.3937007874015748,
          "duration": 0.6923069999999996
        },
        {
          "name": "G#3",
          "midi": 56,
          "time": 28.384586999999957,
          "velocity": 0.3937007874015748,
          "duration": 0.6923069999999996
        },
        {
          "name": "C#3",
          "midi": 49,
          "time": 28.384586999999957,
          "velocity": 0.3937007874015748,
          "duration": 0.6923069999999996
        },
        {
          "name": "A2",
          "midi": 45,
          "time": 28.384586999999957,
          "velocity": 0.3937007874015748,
          "duration": 0.6923069999999996
        },
        {
          "name": "D#4",
          "midi": 63,
          "time": 29.076893999999957,
          "velocity": 0.3937007874015748,
          "duration": 0.4615380000000009
        },
        {
          "name": "A3",
          "midi": 57,
          "time": 29.076893999999957,
          "velocity": 0.3937007874015748,
          "duration": 0.4615380000000009
        },
        {
          "name": "D#3",
          "midi": 51,
          "time": 29.076893999999957,
          "velocity": 0.3937007874015748,
          "duration": 0.4615380000000009
        },
        {
          "name": "B2",
          "midi": 47,
          "time": 29.076893999999957,
          "velocity": 0.3937007874015748,
          "duration": 0.4615380000000009
        },
        {
          "name": "F#4",
          "midi": 66,
          "time": 29.076893999999957,
          "velocity": 0.3937007874015748,
          "duration": 0.4615380000000009
        }
      ],
      "controlChanges": {},
      "id": 0,
      "name": "Grand Piano",
      "instrumentNumber": 0,
      "instrument": "acoustic grand piano",
      "instrumentFamily": "piano",
      "channelNumber": 0,
      "isPercussion": false
    }
  ]
}