{
  "header": {
    "PPQ": 384,
    "timeSignature": [
      4,
      4
    ],
    "bpm": 130.00013000013,
    "name": ""
  },
  "tempo": [
    {
      "absoluteTime": 0,
      "seconds": 0,
      "bpm": 130.00013000013
    }
  ],
  "timeSignature": [
    {
      "absoluteTime": 0,
      "seconds": 0,
      "numerator": 4,
      "denominator": 2,
      "click": 24,
      "notesQ": 8
    }
  ],
  "startTime": 0,
  "duration": 88.61529599999999,
  "tracks": [
    {
      "startTime": 0,
      "duration": 88.61529599999999,
      "length": 195,
      "notes": [
        {
          "name": "D5",
          "midi": 74,
          "time": 0,
          "velocity": 0.3937007874015748,
          "duration": 0.9230759999999999
        },
        {
          "name": "D4",
          "midi": 62,
          "time": 0,
          "velocity": 0.3937007874015748,
          "duration": 3.6923039999999996
        },
        {
          "name": "A#3",
          "midi": 58,
          "time": 0,
          "velocity": 0.3937007874015748,
          "duration": 3.6923039999999996
        },
        {
          "name": "G3",
          "midi": 55,
          "time": 0,
          "velocity": 0.3937007874015748,
          "duration": 3.6923039999999996
        },
        {
          "name": "D#3",
          "midi": 51,
          "time": 0,
          "velocity": 0.3937007874015748,
          "duration": 3.6923039999999996
        },
        {
          "name": "D#2",
          "midi": 39,
          "time": 0,
          "velocity": 0.3937007874015748,
          "duration": 3.6923039999999996
        },
        {
          "name": "C5",
          "midi": 72,
          "time": 0.9230759999999999,
          "velocity": 0.3937007874015748,
          "duration": 0.4615379999999999
        },
        {
          "name": "A#4",
          "midi": 70,
          "time": 1.3846139999999998,
          "velocity": 0.3937007874015748,
          "duration": 0.461538
        },
        {
          "name": "A4",
          "midi": 69,
          "time": 1.8461519999999998,
          "velocity": 0.3937007874015748,
          "duration": 0.4615379999999998
        },
        {
          "name": "F4",
          "midi": 65,
          "time": 2.3076899999999996,
          "velocity": 0.3937007874015748,
          "duration": 0.461538
        },
        {
          "name": "D4",
          "midi": 62,
          "time": 2.7692279999999996,
          "velocity": 0.3937007874015748,
          "duration": 0.923076
        },
        {
          "name": "A4",
          "midi": 69,
          "time": 3.6923039999999996,
          "velocity": 0.3937007874015748,
          "duration": 0.9230759999999996
        },
        {
          "name": "D4",
          "midi": 62,
          "time": 3.6923039999999996,
          "velocity": 0.3937007874015748,
          "duration": 2.7692279999999996
        },
        {
          "name": "A#3",
          "midi": 58,
          "time": 3.6923039999999996,
          "velocity": 0.3937007874015748,
          "duration": 3.6923039999999996
        },
        {
          "name": "G3",
          "midi": 55,
          "time": 3.6923039999999996,
          "velocity": 0.3937007874015748,
          "duration": 3.6923039999999996
        },
        {
          "name": "D#3",
          "midi": 51,
          "time": 3.6923039999999996,
          "velocity": 0.3937007874015748,
          "duration": 3.6923039999999996
        },
        {
          "name": "D#2",
          "midi": 39,
          "time": 3.6923039999999996,
          "velocity": 0.3937007874015748,
          "duration": 3.6923039999999996
        },
        {
          "name": "F4",
          "midi": 65,
          "time": 4.615379999999999,
          "velocity": 0.3937007874015748,
          "duration": 0.461538
        },
        {
          "name": "G4",
          "midi": 67,
          "time": 5.076917999999999,
          "velocity": 0.3937007874015748,
          "duration": 0.461538
        },
        {
          "name": "D4",
          "midi": 62,
          "time": 5.538455999999999,
          "velocity": 0.3937007874015748,
          "duration": 1.846152
        },
        {
          "name": "C4",
          "midi": 60,
          "time": 6.461531999999999,
          "velocity": 0.3937007874015748,
          "duration": 0.923076
        },
        {
          "name": "A#1",
          "midi": 34,
          "time": 7.384607999999999,
          "velocity": 0.3937007874015748,
          "duration": 3.6923039999999974
        },
        {
          "name": "A#2",
          "midi": 46,
          "time": 7.384607999999999,
          "velocity": 0.3937007874015748,
          "duration": 3.6923039999999974
        },
        {
          "name": "F3",
          "midi": 53,
          "time": 7.384607999999999,
          "velocity": 0.3937007874015748,
          "duration": 3.6923039999999974
        },
        {
          "name": "D3",
          "midi": 50,
          "time": 7.384607999999999,
          "velocity": 0.3937007874015748,
          "duration": 3.6923039999999974
        },
        {
          "name": "A#3",
          "midi": 58,
          "time": 7.384607999999999,
          "velocity": 0.3937007874015748,
          "duration": 3.6923039999999974
        },
        {
          "name": "A#4",
          "midi": 70,
          "time": 7.384607999999999,
          "velocity": 0.3937007874015748,
          "duration": 0.9230759999999991
        },
        {
          "name": "A4",
          "midi": 69,
          "time": 8.307683999999998,
          "velocity": 0.3937007874015748,
          "duration": 0.4615379999999991
        },
        {
          "name": "F4",
          "midi": 65,
          "time": 8.769221999999997,
          "velocity": 0.3937007874015748,
          "duration": 0.4615379999999991
        },
        {
          "name": "D4",
          "midi": 62,
          "time": 9.230759999999997,
          "velocity": 0.3937007874015748,
          "duration": 1.846152
        },
        {
          "name": "A#1",
          "midi": 34,
          "time": 11.076911999999997,
          "velocity": 0.3937007874015748,
          "duration": 3.6923039999999983
        },
        {
          "name": "A#2",
          "midi": 46,
          "time": 11.076911999999997,
          "velocity": 0.3937007874015748,
          "duration": 3.6923039999999983
        },
        {
          "name": "F3",
          "midi": 53,
          "time": 11.076911999999997,
          "velocity": 0.3937007874015748,
          "duration": 3.6923039999999983
        },
        {
          "name": "D3",
          "midi": 50,
          "time": 11.076911999999997,
          "velocity": 0.3937007874015748,
          "duration": 3.6923039999999983
        },
        {
          "name": "A#3",
          "midi": 58,
          "time": 11.076911999999997,
          "velocity": 0.3937007874015748,
          "duration": 3.6923039999999983
        },
        {
          "name": "A#4",
          "midi": 70,
          "time": 11.076911999999997,
          "velocity": 0.3937007874015748,
          "duration": 0.923076
        },
        {
          "name": "A4",
          "midi": 69,
          "time": 11.999987999999997,
          "velocity": 0.3937007874015748,
          "duration": 0.4615379999999991
        },
        {
          "name": "F4",
          "midi": 65,
          "time": 12.461525999999996,
          "velocity": 0.3937007874015748,
          "duration": 0.4615379999999991
        },
        {
          "name": "D4",
          "midi": 62,
          "time": 12.923063999999995,
          "velocity": 0.3937007874015748,
          "duration": 1.846152
        },
        {
          "name": "G#4",
          "midi": 68,
          "time": 14.769215999999995,
          "velocity": 0.3937007874015748,
          "duration": 0.923076
        },
        {
          "name": "G#3",
          "midi": 56,
          "time": 14.769215999999995,
          "velocity": 0.3937007874015748,
          "duration": 3.6923039999999983
        },
        {
          "name": "C#3",
          "midi": 49,
          "time": 14.769215999999995,
          "velocity": 0.3937007874015748,
          "duration": 3.6923039999999983
        },
        {
          "name": "A2",
          "midi": 45,
          "time": 14.769215999999995,
          "velocity": 0.3937007874015748,
          "duration": 3.6923039999999983
        },
        {
          "name": "A1",
          "midi": 33,
          "time": 14.769215999999995,
          "velocity": 0.3937007874015748,
          "duration": 3.6923039999999983
        },
        {
          "name": "E3",
          "midi": 52,
          "time": 14.769215999999995,
          "velocity": 0.3937007874015748,
          "duration": 3.6923039999999983
        },
        {
          "name": "F#4",
          "midi": 66,
          "time": 15.692291999999995,
          "velocity": 0.3937007874015748,
          "duration": 0.4615380000000009
        },
        {
          "name": "E4",
          "midi": 64,
          "time": 16.153829999999996,
          "velocity": 0.3937007874015748,
          "duration": 0.4615380000000009
        },
        {
          "name": "C#4",
          "midi": 61,
          "time": 16.615367999999997,
          "velocity": 0.3937007874015748,
          "duration": 1.8461519999999965
        },
        {
          "name": "F#3",
          "midi": 54,
          "time": 17.538443999999995,
          "velocity": 0.3937007874015748,
          "duration": 0.9230759999999982
        },
        {
          "name": "G#3",
          "midi": 56,
          "time": 18.461519999999993,
          "velocity": 0.3937007874015748,
          "duration": 3.692304
        },
        {
          "name": "B2",
          "midi": 47,
          "time": 18.461519999999993,
          "velocity": 0.3937007874015748,
          "duration": 3.692304
        },
        {
          "name": "C#2",
          "midi": 37,
          "time": 18.461519999999993,
          "velocity": 0.3937007874015748,
          "duration": 3.692304
        },
        {
          "name": "C#1",
          "midi": 25,
          "time": 18.461519999999993,
          "velocity": 0.3937007874015748,
          "duration": 3.692304
        },
        {
          "name": "G#4",
          "midi": 68,
          "time": 22.153823999999993,
          "velocity": 0.3937007874015748,
          "duration": 0.9230759999999982
        },
        {
          "name": "G#3",
          "midi": 56,
          "time": 22.153823999999993,
          "velocity": 0.3937007874015748,
          "duration": 3.6923039999999965
        },
        {
          "name": "C#3",
          "midi": 49,
          "time": 22.153823999999993,
          "velocity": 0.3937007874015748,
          "duration": 3.6923039999999965
        },
        {
          "name": "A2",
          "midi": 45,
          "time": 22.153823999999993,
          "velocity": 0.3937007874015748,
          "duration": 3.6923039999999965
        },
        {
          "name": "A1",
          "midi": 33,
          "time": 22.153823999999993,
          "velocity": 0.3937007874015748,
          "duration": 3.6923039999999965
        },
        {
          "name": "E3",
          "midi": 52,
          "time": 22.153823999999993,
          "velocity": 0.3937007874015748,
          "duration": 3.6923039999999965
        },
        {
          "name": "F#4",
          "midi": 66,
          "time": 23.07689999999999,
          "velocity": 0.3937007874015748,
          "duration": 0.4615380000000009
        },
        {
          "name": "E4",
          "midi": 64,
          "time": 23.538437999999992,
          "velocity": 0.3937007874015748,
          "duration": 0.4615380000000009
        },
        {
          "name": "C#4",
          "midi": 61,
          "time": 23.999975999999993,
          "velocity": 0.3937007874015748,
          "duration": 1.8461519999999965
        },
        {
          "name": "F#3",
          "midi": 54,
          "time": 24.92305199999999,
          "velocity": 0.3937007874015748,
          "duration": 0.9230759999999982
        },
        {
          "name": "G#3",
          "midi": 56,
          "time": 25.84612799999999,
          "velocity": 0.3937007874015748,
          "duration": 3.692304
        },
        {
          "name": "B2",
          "midi": 47,
          "time": 25.84612799999999,
          "velocity": 0.3937007874015748,
          "duration": 3.692304
        },
        {
          "name": "C#2",
          "midi": 37,
          "time": 25.84612799999999,
          "velocity": 0.3937007874015748,
          "duration": 3.692304
        },
        {
          "name": "C#1",
          "midi": 25,
          "time": 25.84612799999999,
          "velocity": 0.3937007874015748,
          "duration": 3.692304
        },
        {
          "name": "G#3",
          "midi": 56,
          "time": 29.53843199999999,
          "velocity": 0.3937007874015748,
          "duration": 3.6923039999999965
        },
        {
          "name": "C#3",
          "midi": 49,
          "time": 29.53843199999999,
          "velocity": 0.3937007874015748,
          "duration": 3.6923039999999965
        },
        {
          "name": "A2",
          "midi": 45,
          "time": 29.53843199999999,
          "velocity": 0.3937007874015748,
          "duration": 3.6923039999999965
        },
        {
          "name": "A1",
          "midi": 33,
          "time": 29.53843199999999,
          "velocity": 0.3937007874015748,
          "duration": 3.6923039999999965
        },
        {
          "name": "E3",
          "midi": 52,
          "time": 29.53843199999999,
          "velocity": 0.3937007874015748,
          "duration": 3.6923039999999965
        },
        {
          "name": "C#5",
          "midi": 73,
          "time": 31.38458399999999,
          "velocity": 0.1968503937007874,
          "duration": 0.9230760000000018
        },
        {
          "name": "F#3",
          "midi": 54,
          "time": 32.30765999999999,
          "velocity": 0.3937007874015748,
          "duration": 0.9230759999999947
        },
        {
          "name": "B4",
          "midi": 71,
          "time": 32.30765999999999,
          "velocity": 0.1968503937007874,
          "duration": 0.46153799999999734
        },
        {
          "name": "C#5",
          "midi": 73,
          "time": 32.76919799999999,
          "velocity": 0.1968503937007874,
          "duration": 0.46153799999999734
        },
        {
          "name": "B4",
          "midi": 71,
          "time": 33.230735999999986,
          "velocity": 0.1968503937007874,
          "duration": 1.8461519999999965
        },
        {
          "name": "G#3",
          "midi": 56,
          "time": 33.230735999999986,
          "velocity": 0.3937007874015748,
          "duration": 3.692303999999993
        },
        {
          "name": "B2",
          "midi": 47,
          "time": 33.230735999999986,
          "velocity": 0.3937007874015748,
          "duration": 3.692303999999993
        },
        {
          "name": "C#2",
          "midi": 37,
          "time": 33.230735999999986,
          "velocity": 0.3937007874015748,
          "duration": 3.692303999999993
        },
        {
          "name": "C#1",
          "midi": 25,
          "time": 33.230735999999986,
          "velocity": 0.3937007874015748,
          "duration": 3.692303999999993
        },
        {
          "name": "G#4",
          "midi": 68,
          "time": 35.07688799999998,
          "velocity": 0.1968503937007874,
          "duration": 1.8461519999999965
        },
        {
          "name": "G#3",
          "midi": 56,
          "time": 36.92303999999998,
          "velocity": 0.3937007874015748,
          "duration": 3.692303999999993
        },
        {
          "name": "C#3",
          "midi": 49,
          "time": 36.92303999999998,
          "velocity": 0.3937007874015748,
          "duration": 3.692303999999993
        },
        {
          "name": "A2",
          "midi": 45,
          "time": 36.92303999999998,
          "velocity": 0.3937007874015748,
          "duration": 3.692303999999993
        },
        {
          "name": "A1",
          "midi": 33,
          "time": 36.92303999999998,
          "velocity": 0.3937007874015748,
          "duration": 3.692303999999993
        },
        {
          "name": "E3",
          "midi": 52,
          "time": 36.92303999999998,
          "velocity": 0.3937007874015748,
          "duration": 3.692303999999993
        },
        {
          "name": "E5",
          "midi": 76,
          "time": 38.769191999999975,
          "velocity": 0.1968503937007874,
          "duration": 0.9230760000000018
        },
        {
          "name": "F#3",
          "midi": 54,
          "time": 39.69226799999998,
          "velocity": 0.3937007874015748,
          "duration": 0.9230759999999947
        },
        {
          "name": "D#5",
          "midi": 75,
          "time": 39.69226799999998,
          "velocity": 0.1968503937007874,
          "duration": 0.46153799999999734
        },
        {
          "name": "C#5",
          "midi": 73,
          "time": 40.153805999999975,
          "velocity": 0.1968503937007874,
          "duration": 0.46153799999999734
        },
        {
          "name": "B4",
          "midi": 71,
          "time": 40.61534399999997,
          "velocity": 0.1968503937007874,
          "duration": 1.8461519999999965
        },
        {
          "name": "G#3",
          "midi": 56,
          "time": 40.61534399999997,
          "velocity": 0.3937007874015748,
          "duration": 3.692304
        },
        {
          "name": "B2",
          "midi": 47,
          "time": 40.61534399999997,
          "velocity": 0.3937007874015748,
          "duration": 3.692304
        },
        {
          "name": "C#2",
          "midi": 37,
          "time": 40.61534399999997,
          "velocity": 0.3937007874015748,
          "duration": 3.692304
        },
        {
          "name": "C#1",
          "midi": 25,
          "time": 40.61534399999997,
          "velocity": 0.3937007874015748,
          "duration": 3.692304
        },
        {
          "name": "G#4",
          "midi": 68,
          "time": 42.46149599999997,
          "velocity": 0.1968503937007874,
          "duration": 0.9230760000000018
        },
        {
          "name": "F#4",
          "midi": 66,
          "time": 43.38457199999997,
          "velocity": 0.1968503937007874,
          "duration": 0.9230760000000018
        },
        {
          "name": "G#3",
          "midi": 56,
          "time": 45.230723999999974,
          "velocity": 0.3937007874015748,
          "duration": 2.7692279999999982
        },
        {
          "name": "C#3",
          "midi": 49,
          "time": 45.230723999999974,
          "velocity": 0.3937007874015748,
          "duration": 2.7692279999999982
        },
        {
          "name": "A2",
          "midi": 45,
          "time": 45.230723999999974,
          "velocity": 0.3937007874015748,
          "duration": 2.7692279999999982
        },
        {
          "name": "F#4",
          "midi": 66,
          "time": 45.230723999999974,
          "velocity": 0.3937007874015748,
          "duration": 0.46153799999999734
        },
        {
          "name": "A1",
          "midi": 33,
          "time": 45.230723999999974,
          "velocity": 0.3937007874015748,
          "duration": 2.7692279999999982
        },
        {
          "name": "E3",
          "midi": 52,
          "time": 45.230723999999974,
          "velocity": 0.3937007874015748,
          "duration": 2.7692279999999982
        },
        {
          "name": "E4",
          "midi": 64,
          "time": 45.69226199999997,
          "velocity": 0.3937007874015748,
          "duration": 0.46153799999999734
        },
        {
          "name": "C#4",
          "midi": 61,
          "time": 46.15379999999997,
          "velocity": 0.3937007874015748,
          "duration": 1.8461520000000036
        },
        {
          "name": "F#3",
          "midi": 54,
          "time": 47.07687599999997,
          "velocity": 0.3937007874015748,
          "duration": 0.9230760000000018
        },
        {
          "name": "G#3",
          "midi": 56,
          "time": 47.99995199999997,
          "velocity": 0.3937007874015748,
          "duration": 3.692304
        },
        {
          "name": "B2",
          "midi": 47,
          "time": 47.99995199999997,
          "velocity": 0.3937007874015748,
          "duration": 3.692304
        },
        {
          "name": "C#2",
          "midi": 37,
          "time": 47.99995199999997,
          "velocity": 0.3937007874015748,
          "duration": 3.692304
        },
        {
          "name": "C#1",
          "midi": 25,
          "time": 47.99995199999997,
          "velocity": 0.3937007874015748,
          "duration": 3.692304
        },
        {
          "name": "G#4",
          "midi": 68,
          "time": 51.69225599999997,
          "velocity": 0.3937007874015748,
          "duration": 0.9230760000000018
        },
        {
          "name": "G#3",
          "midi": 56,
          "time": 51.69225599999997,
          "velocity": 0.3937007874015748,
          "duration": 3.692304
        },
        {
          "name": "C#3",
          "midi": 49,
          "time": 51.69225599999997,
          "velocity": 0.3937007874015748,
          "duration": 3.692304
        },
        {
          "name": "A2",
          "midi": 45,
          "time": 51.69225599999997,
          "velocity": 0.3937007874015748,
          "duration": 3.692304
        },
        {
          "name": "A1",
          "midi": 33,
          "time": 51.69225599999997,
          "velocity": 0.3937007874015748,
          "duration": 3.692304
        },
        {
          "name": "E3",
          "midi": 52,
          "time": 51.69225599999997,
          "velocity": 0.3937007874015748,
          "duration": 3.692304
        },
        {
          "name": "F#4",
          "midi": 66,
          "time": 52.615331999999974,
          "velocity": 0.3937007874015748,
          "duration": 0.46153799999999734
        },
        {
          "name": "E4",
          "midi": 64,
          "time": 53.07686999999997,
          "velocity": 0.3937007874015748,
          "duration": 0.46153799999999734
        },
        {
          "name": "C#4",
          "midi": 61,
          "time": 53.53840799999997,
          "velocity": 0.3937007874015748,
          "duration": 1.8461520000000036
        },
        {
          "name": "F#3",
          "midi": 54,
          "time": 54.46148399999997,
          "velocity": 0.3937007874015748,
          "duration": 0.9230760000000018
        },
        {
          "name": "G#3",
          "midi": 56,
          "time": 55.38455999999997,
          "velocity": 0.3937007874015748,
          "duration": 3.692304
        },
        {
          "name": "B2",
          "midi": 47,
          "time": 55.38455999999997,
          "velocity": 0.3937007874015748,
          "duration": 3.692304
        },
        {
          "name": "C#2",
          "midi": 37,
          "time": 55.38455999999997,
          "velocity": 0.3937007874015748,
          "duration": 3.692304
        },
        {
          "name": "C#1",
          "midi": 25,
          "time": 55.38455999999997,
          "velocity": 0.3937007874015748,
          "duration": 3.692304
        },
        {
          "name": "G#3",
          "midi": 56,
          "time": 59.07686399999997,
          "velocity": 0.3937007874015748,
          "duration": 3.692303999999993
        },
        {
          "name": "C#3",
          "midi": 49,
          "time": 59.07686399999997,
          "velocity": 0.3937007874015748,
          "duration": 3.692303999999993
        },
        {
          "name": "A2",
          "midi": 45,
          "time": 59.07686399999997,
          "velocity": 0.3937007874015748,
          "duration": 3.692303999999993
        },
        {
          "name": "A1",
          "midi": 33,
          "time": 59.07686399999997,
          "velocity": 0.3937007874015748,
          "duration": 3.692303999999993
        },
        {
          "name": "E3",
          "midi": 52,
          "time": 59.07686399999997,
          "velocity": 0.3937007874015748,
          "duration": 3.692303999999993
        },
        {
          "name": "C#5",
          "midi": 73,
          "time": 60.92301599999997,
          "velocity": 0.1968503937007874,
          "duration": 0.9230760000000018
        },
        {
          "name": "F#3",
          "midi": 54,
          "time": 61.84609199999997,
          "velocity": 0.3937007874015748,
          "duration": 0.9230759999999947
        },
        {
          "name": "B4",
          "midi": 71,
          "time": 61.84609199999997,
          "velocity": 0.1968503937007874,
          "duration": 0.46153799999999734
        },
        {
          "name": "C#5",
          "midi": 73,
          "time": 62.30762999999997,
          "velocity": 0.1968503937007874,
          "duration": 0.46153799999999734
        },
        {
          "name": "B4",
          "midi": 71,
          "time": 62.769167999999965,
          "velocity": 0.1968503937007874,
          "duration": 1.8461520000000036
        },
        {
          "name": "G#3",
          "midi": 56,
          "time": 62.769167999999965,
          "velocity": 0.3937007874015748,
          "duration": 3.692304000000007
        },
        {
          "name": "B2",
          "midi": 47,
          "time": 62.769167999999965,
          "velocity": 0.3937007874015748,
          "duration": 3.692304000000007
        },
        {
          "name": "C#2",
          "midi": 37,
          "time": 62.769167999999965,
          "velocity": 0.3937007874015748,
          "duration": 3.692304000000007
        },
        {
          "name": "C#1",
          "midi": 25,
          "time": 62.769167999999965,
          "velocity": 0.3937007874015748,
          "duration": 3.692304000000007
        },
        {
          "name": "G#4",
          "midi": 68,
          "time": 64.61531999999997,
          "velocity": 0.1968503937007874,
          "duration": 1.8461520000000036
        },
        {
          "name": "G#3",
          "midi": 56,
          "time": 66.46147199999997,
          "velocity": 0.3937007874015748,
          "duration": 3.692304000000007
        },
        {
          "name": "C#3",
          "midi": 49,
          "time": 66.46147199999997,
          "velocity": 0.3937007874015748,
          "duration": 3.692304000000007
        },
        {
          "name": "A2",
          "midi": 45,
          "time": 66.46147199999997,
          "velocity": 0.3937007874015748,
          "duration": 3.692304000000007
        },
        {
          "name": "A1",
          "midi": 33,
          "time": 66.46147199999997,
          "velocity": 0.3937007874015748,
          "duration": 3.692304000000007
        },
        {
          "name": "E3",
          "midi": 52,
          "time": 66.46147199999997,
          "velocity": 0.3937007874015748,
          "duration": 3.692304000000007
        },
        {
          "name": "E5",
          "midi": 76,
          "time": 68.30762399999998,
          "velocity": 0.1968503937007874,
          "duration": 0.9230759999999947
        },
        {
          "name": "F#3",
          "midi": 54,
          "time": 69.23069999999997,
          "velocity": 0.3937007874015748,
          "duration": 0.9230760000000089
        },
        {
          "name": "D#5",
          "midi": 75,
          "time": 69.23069999999997,
          "velocity": 0.1968503937007874,
          "duration": 0.46153800000000444
        },
        {
          "name": "C#5",
          "midi": 73,
          "time": 69.69223799999997,
          "velocity": 0.1968503937007874,
          "duration": 0.46153800000000444
        },
        {
          "name": "B4",
          "midi": 71,
          "time": 70.15377599999998,
          "velocity": 0.1968503937007874,
          "duration": 1.8461520000000036
        },
        {
          "name": "G#3",
          "midi": 56,
          "time": 70.15377599999998,
          "velocity": 0.3937007874015748,
          "duration": 3.692303999999993
        },
        {
          "name": "B2",
          "midi": 47,
          "time": 70.15377599999998,
          "velocity": 0.3937007874015748,
          "duration": 3.692303999999993
        },
        {
          "name": "C#2",
          "midi": 37,
          "time": 70.15377599999998,
          "velocity": 0.3937007874015748,
          "duration": 3.692303999999993
        },
        {
          "name": "C#1",
          "midi": 25,
          "time": 70.15377599999998,
          "velocity": 0.3937007874015748,
          "duration": 3.692303999999993
        },
        {
          "name": "G#4",
          "midi": 68,
          "time": 71.99992799999998,
          "velocity": 0.1968503937007874,
          "duration": 0.9230759999999947
        },
        {
          "name": "F#4",
          "midi": 66,
          "time": 72.92300399999998,
          "velocity": 0.1968503937007874,
          "duration": 0.9230759999999947
        },
        {
          "name": "D5",
          "midi": 74,
          "time": 73.84607999999997,
          "velocity": 0.3937007874015748,
          "duration": 0.9230759999999947
        },
        {
          "name": "D4",
          "midi": 62,
          "time": 73.84607999999997,
          "velocity": 0.3937007874015748,
          "duration": 3.692304000000007
        },
        {
          "name": "A#3",
          "midi": 58,
          "time": 73.84607999999997,
          "velocity": 0.3937007874015748,
          "duration": 3.692304000000007
        },
        {
          "name": "G3",
          "midi": 55,
          "time": 73.84607999999997,
          "velocity": 0.3937007874015748,
          "duration": 3.692304000000007
        },
        {
          "name": "D#3",
          "midi": 51,
          "time": 73.84607999999997,
          "velocity": 0.3937007874015748,
          "duration": 3.692304000000007
        },
        {
          "name": "D#2",
          "midi": 39,
          "time": 73.84607999999997,
          "velocity": 0.3937007874015748,
          "duration": 3.692304000000007
        },
        {
          "name": "C5",
          "midi": 72,
          "time": 74.76915599999997,
          "velocity": 0.3937007874015748,
          "duration": 0.46153800000000444
        },
        {
          "name": "A#4",
          "midi": 70,
          "time": 75.23069399999997,
          "velocity": 0.3937007874015748,
          "duration": 0.46153800000000444
        },
        {
          "name": "A4",
          "midi": 69,
          "time": 75.69223199999998,
          "velocity": 0.3937007874015748,
          "duration": 0.46153800000000444
        },
        {
          "name": "F4",
          "midi": 65,
          "time": 76.15376999999998,
          "velocity": 0.3937007874015748,
          "duration": 0.46153800000000444
        },
        {
          "name": "D4",
          "midi": 62,
          "time": 76.61530799999998,
          "velocity": 0.3937007874015748,
          "duration": 0.9230759999999947
        },
        {
          "name": "A4",
          "midi": 69,
          "time": 77.53838399999998,
          "velocity": 0.3937007874015748,
          "duration": 0.9230759999999947
        },
        {
          "name": "D4",
          "midi": 62,
          "time": 77.53838399999998,
          "velocity": 0.3937007874015748,
          "duration": 2.7692279999999982
        },
        {
          "name": "A#3",
          "midi": 58,
          "time": 77.53838399999998,
          "velocity": 0.3937007874015748,
          "duration": 3.692303999999993
        },
        {
          "name": "G3",
          "midi": 55,
          "time": 77.53838399999998,
          "velocity": 0.3937007874015748,
          "duration": 3.692303999999993
        },
        {
          "name": "D#3",
          "midi": 51,
          "time": 77.53838399999998,
          "velocity": 0.3937007874015748,
          "duration": 3.692303999999993
        },
        {
          "name": "D#2",
          "midi": 39,
          "time": 77.53838399999998,
          "velocity": 0.3937007874015748,
          "duration": 3.692303999999993
        },
        {
          "name": "F4",
          "midi": 65,
          "time": 78.46145999999997,
          "velocity": 0.3937007874015748,
          "duration": 0.46153800000000444
        },
        {
          "name": "G4",
          "midi": 67,
          "time": 78.92299799999998,
          "velocity": 0.3937007874015748,
          "duration": 0.46153800000000444
        },
        {
          "name": "D4",
          "midi": 62,
          "time": 79.38453599999998,
          "velocity": 0.3937007874015748,
          "duration": 1.8461519999999894
        },
        {
          "name": "C4",
          "midi": 60,
          "time": 80.30761199999998,
          "velocity": 0.3937007874015748,
          "duration": 0.9230759999999947
        },
        {
          "name": "A#1",
          "midi": 34,
          "time": 81.23068799999997,
          "velocity": 0.3937007874015748,
          "duration": 3.692304000000007
        },
        {
          "name": "A#2",
          "midi": 46,
          "time": 81.23068799999997,
          "velocity": 0.3937007874015748,
          "duration": 3.692304000000007
        },
        {
          "name": "F3",
          "midi": 53,
          "time": 81.23068799999997,
          "velocity": 0.3937007874015748,
          "duration": 3.692304000000007
        },
        {
          "name": "D3",
          "midi": 50,
          "time": 81.23068799999997,
          "velocity": 0.3937007874015748,
          "duration": 3.692304000000007
        },
        {
          "name": "A#3",
          "midi": 58,
          "time": 81.23068799999997,
          "velocity": 0.3937007874015748,
          "duration": 3.692304000000007
        },
        {
          "name": "A#4",
          "midi": 70,
          "time": 81.23068799999997,
          "velocity": 0.3937007874015748,
          "duration": 0.9230759999999947
        },
        {
          "name": "A4",
          "midi": 69,
          "time": 82.15376399999997,
          "velocity": 0.3937007874015748,
          "duration": 0.46153800000000444
        },
        {
          "name": "F4",
          "midi": 65,
          "time": 82.61530199999997,
          "velocity": 0.3937007874015748,
          "duration": 0.46153800000000444
        },
        {
          "name": "D4",
          "midi": 62,
          "time": 83.07683999999998,
          "velocity": 0.3937007874015748,
          "duration": 1.8461520000000036
        },
        {
          "name": "A#1",
          "midi": 34,
          "time": 84.92299199999998,
          "velocity": 0.3937007874015748,
          "duration": 3.692304000000007
        },
        {
          "name": "A#2",
          "midi": 46,
          "time": 84.92299199999998,
          "velocity": 0.3937007874015748,
          "duration": 3.692304000000007
        },
        {
          "name": "F3",
          "midi": 53,
          "time": 84.92299199999998,
          "velocity": 0.3937007874015748,
          "duration": 3.692304000000007
        },
        {
          "name": "D3",
          "midi": 50,
          "time": 84.92299199999998,
          "velocity": 0.3937007874015748,
          "duration": 3.692304000000007
        },
        {
          "name": "A#3",
          "midi": 58,
          "time": 84.92299199999998,
          "velocity": 0.3937007874015748,
          "duration": 3.692304000000007
        },
        {
          "name": "A#4",
          "midi": 70,
          "time": 84.92299199999998,
          "velocity": 0.3937007874015748,
          "duration": 0.9230759999999947
        },
        {
          "name": "A4",
          "midi": 69,
          "time": 85.84606799999997,
          "velocity": 0.3937007874015748,
          "duration": 0.46153800000000444
        },
        {
          "name": "F4",
          "midi": 65,
          "time": 86.30760599999998,
          "velocity": 0.3937007874015748,
          "duration": 0.46153800000000444
        },
        {
          "name": "D4",
          "midi": 62,
          "time": 86.76914399999998,
          "velocity": 0.3937007874015748,
          "duration": 1.8461520000000036
        }
      ],
      "controlChanges": {},
      "id": 0,
      "name": "8-Bit Sine",
      "instrumentNumber": 82,
      "instrument": "lead 3 (calliope)",
      "instrumentFamily": "synth lead",
      "channelNumber": 0,
      "isPercussion": false
    },
    {
      "startTime": 0,
      "duration": 86.88452850000009,
      "length": 77,
      "notes": [
        {
          "name": "D6",
          "midi": 86,
          "time": 0,
          "velocity": 0.3937007874015748,
          "duration": 0.11538449999999999
        },
        {
          "name": "C6",
          "midi": 84,
          "time": 0.9230759999999999,
          "velocity": 0.3937007874015748,
          "duration": 0.11538449999999989
        },
        {
          "name": "A#5",
          "midi": 82,
          "time": 1.3846139999999998,
          "velocity": 0.3937007874015748,
          "duration": 0.1153845
        },
        {
          "name": "A5",
          "midi": 81,
          "time": 1.8461519999999998,
          "velocity": 0.3937007874015748,
          "duration": 0.1153845
        },
        {
          "name": "F5",
          "midi": 77,
          "time": 2.3076899999999996,
          "velocity": 0.3937007874015748,
          "duration": 0.11538449999999978
        },
        {
          "name": "D5",
          "midi": 74,
          "time": 2.769227999999999,
          "velocity": 0.3937007874015748,
          "duration": 0.11538449999999978
        },
        {
          "name": "A5",
          "midi": 81,
          "time": 3.6923039999999987,
          "velocity": 0.3937007874015748,
          "duration": 0.11538449999999978
        },
        {
          "name": "F5",
          "midi": 77,
          "time": 4.615379999999998,
          "velocity": 0.3937007874015748,
          "duration": 0.11538450000000022
        },
        {
          "name": "G5",
          "midi": 79,
          "time": 5.076917999999998,
          "velocity": 0.3937007874015748,
          "duration": 0.11538450000000022
        },
        {
          "name": "D5",
          "midi": 74,
          "time": 5.538455999999998,
          "velocity": 0.3937007874015748,
          "duration": 0.11538450000000022
        },
        {
          "name": "C5",
          "midi": 72,
          "time": 6.461531999999998,
          "velocity": 0.3937007874015748,
          "duration": 0.11538450000000022
        },
        {
          "name": "A#5",
          "midi": 82,
          "time": 7.384607999999998,
          "velocity": 0.3937007874015748,
          "duration": 0.11538450000000022
        },
        {
          "name": "A5",
          "midi": 81,
          "time": 8.307683999999998,
          "velocity": 0.3937007874015748,
          "duration": 0.11538449999999933
        },
        {
          "name": "F5",
          "midi": 77,
          "time": 8.769221999999997,
          "velocity": 0.3937007874015748,
          "duration": 0.11538449999999933
        },
        {
          "name": "D5",
          "midi": 74,
          "time": 9.230759999999997,
          "velocity": 0.3937007874015748,
          "duration": 0.11538449999999933
        },
        {
          "name": "A#5",
          "midi": 82,
          "time": 11.076911999999997,
          "velocity": 0.3937007874015748,
          "duration": 0.11538449999999933
        },
        {
          "name": "A5",
          "midi": 81,
          "time": 11.999987999999997,
          "velocity": 0.3937007874015748,
          "duration": 0.11538449999999933
        },
        {
          "name": "F5",
          "midi": 77,
          "time": 12.461525999999996,
          "velocity": 0.3937007874015748,
          "duration": 0.11538449999999933
        },
        {
          "name": "D5",
          "midi": 74,
          "time": 12.923063999999995,
          "velocity": 0.3937007874015748,
          "duration": 0.11538449999999933
        },
        {
          "name": "G#5",
          "midi": 80,
          "time": 14.769215999999993,
          "velocity": 0.3937007874015748,
          "duration": 0.11538449999999933
        },
        {
          "name": "F#5",
          "midi": 78,
          "time": 15.692291999999993,
          "velocity": 0.3937007874015748,
          "duration": 0.11538449999999933
        },
        {
          "name": "E5",
          "midi": 76,
          "time": 16.153829999999992,
          "velocity": 0.3937007874015748,
          "duration": 0.11538450000000111
        },
        {
          "name": "C#5",
          "midi": 73,
          "time": 16.615367999999993,
          "velocity": 0.3937007874015748,
          "duration": 0.11538450000000111
        },
        {
          "name": "C#5",
          "midi": 73,
          "time": 18.461519999999993,
          "velocity": 0.3937007874015748,
          "duration": 0.11538450000000111
        },
        {
          "name": "G#5",
          "midi": 80,
          "time": 22.153823999999993,
          "velocity": 0.3937007874015748,
          "duration": 0.11538450000000111
        },
        {
          "name": "F#5",
          "midi": 78,
          "time": 23.076899999999995,
          "velocity": 0.3937007874015748,
          "duration": 0.11538450000000111
        },
        {
          "name": "E5",
          "midi": 76,
          "time": 23.538437999999996,
          "velocity": 0.3937007874015748,
          "duration": 0.11538450000000111
        },
        {
          "name": "C#5",
          "midi": 73,
          "time": 23.999975999999997,
          "velocity": 0.3937007874015748,
          "duration": 0.11538450000000111
        },
        {
          "name": "C#5",
          "midi": 73,
          "time": 25.846127999999997,
          "velocity": 0.3937007874015748,
          "duration": 0.11538450000000111
        },
        {
          "name": "C#6",
          "midi": 85,
          "time": 31.384583999999997,
          "velocity": 0.5433070866141733,
          "duration": 0.11538450000000111
        },
        {
          "name": "B5",
          "midi": 83,
          "time": 32.30766,
          "velocity": 0.5039370078740157,
          "duration": 0.11538449999999756
        },
        {
          "name": "C#6",
          "midi": 85,
          "time": 32.769197999999996,
          "velocity": 0.5433070866141733,
          "duration": 0.11538449999999756
        },
        {
          "name": "B5",
          "midi": 83,
          "time": 33.23073599999999,
          "velocity": 0.5039370078740157,
          "duration": 0.11538449999999756
        },
        {
          "name": "G#5",
          "midi": 80,
          "time": 35.07688799999999,
          "velocity": 0.5039370078740157,
          "duration": 0.11538449999999756
        },
        {
          "name": "E6",
          "midi": 88,
          "time": 38.76919199999999,
          "velocity": 0.5433070866141733,
          "duration": 0.11538449999999756
        },
        {
          "name": "D#6",
          "midi": 87,
          "time": 39.692267999999984,
          "velocity": 0.5433070866141733,
          "duration": 0.11538449999999756
        },
        {
          "name": "C#6",
          "midi": 85,
          "time": 40.15380599999998,
          "velocity": 0.5433070866141733,
          "duration": 0.11538449999999756
        },
        {
          "name": "B5",
          "midi": 83,
          "time": 40.61534399999998,
          "velocity": 0.5039370078740157,
          "duration": 0.11538449999999756
        },
        {
          "name": "G#5",
          "midi": 80,
          "time": 42.461495999999975,
          "velocity": 0.5039370078740157,
          "duration": 0.11538449999999756
        },
        {
          "name": "F#5",
          "midi": 78,
          "time": 45.230723999999974,
          "velocity": 0.3937007874015748,
          "duration": 0.11538449999999756
        },
        {
          "name": "E5",
          "midi": 76,
          "time": 45.69226199999997,
          "velocity": 0.3937007874015748,
          "duration": 0.11538449999999756
        },
        {
          "name": "C#5",
          "midi": 73,
          "time": 46.15379999999997,
          "velocity": 0.3937007874015748,
          "duration": 0.11538449999999756
        },
        {
          "name": "C#5",
          "midi": 73,
          "time": 47.999951999999965,
          "velocity": 0.3937007874015748,
          "duration": 0.11538449999999756
        },
        {
          "name": "G#5",
          "midi": 80,
          "time": 51.692255999999965,
          "velocity": 0.3937007874015748,
          "duration": 0.11538449999999756
        },
        {
          "name": "F#5",
          "midi": 78,
          "time": 52.61533199999996,
          "velocity": 0.3937007874015748,
          "duration": 0.11538449999999756
        },
        {
          "name": "E5",
          "midi": 76,
          "time": 53.07686999999996,
          "velocity": 0.3937007874015748,
          "duration": 0.11538449999999756
        },
        {
          "name": "C#5",
          "midi": 73,
          "time": 53.538407999999954,
          "velocity": 0.3937007874015748,
          "duration": 0.11538449999999756
        },
        {
          "name": "C#5",
          "midi": 73,
          "time": 55.38455999999995,
          "velocity": 0.3937007874015748,
          "duration": 0.11538449999999756
        },
        {
          "name": "C#6",
          "midi": 85,
          "time": 60.92301599999995,
          "velocity": 0.5433070866141733,
          "duration": 0.11538449999999756
        },
        {
          "name": "B5",
          "midi": 83,
          "time": 61.84609199999994,
          "velocity": 0.5039370078740157,
          "duration": 0.11538449999999756
        },
        {
          "name": "C#6",
          "midi": 85,
          "time": 62.30762999999994,
          "velocity": 0.5433070866141733,
          "duration": 0.11538449999999756
        },
        {
          "name": "B5",
          "midi": 83,
          "time": 62.76916799999994,
          "velocity": 0.5039370078740157,
          "duration": 0.11538449999999756
        },
        {
          "name": "G#5",
          "midi": 80,
          "time": 64.61531999999994,
          "velocity": 0.5039370078740157,
          "duration": 0.11538450000000466
        },
        {
          "name": "E6",
          "midi": 88,
          "time": 68.30762399999995,
          "velocity": 0.5433070866141733,
          "duration": 0.11538450000000466
        },
        {
          "name": "D#6",
          "midi": 87,
          "time": 69.23069999999996,
          "velocity": 0.5433070866141733,
          "duration": 0.11538450000000466
        },
        {
          "name": "C#6",
          "midi": 85,
          "time": 69.69223799999996,
          "velocity": 0.5433070866141733,
          "duration": 0.11538450000000466
        },
        {
          "name": "B5",
          "midi": 83,
          "time": 70.15377599999997,
          "velocity": 0.5039370078740157,
          "duration": 0.11538450000000466
        },
        {
          "name": "G#5",
          "midi": 80,
          "time": 71.99992799999997,
          "velocity": 0.5039370078740157,
          "duration": 0.11538450000000466
        },
        {
          "name": "D6",
          "midi": 86,
          "time": 73.84607999999997,
          "velocity": 0.3937007874015748,
          "duration": 0.11538450000000466
        },
        {
          "name": "C6",
          "midi": 84,
          "time": 74.76915599999998,
          "velocity": 0.3937007874015748,
          "duration": 0.11538450000000466
        },
        {
          "name": "A#5",
          "midi": 82,
          "time": 75.23069399999999,
          "velocity": 0.3937007874015748,
          "duration": 0.11538450000000466
        },
        {
          "name": "A5",
          "midi": 81,
          "time": 75.69223199999999,
          "velocity": 0.3937007874015748,
          "duration": 0.11538450000000466
        },
        {
          "name": "F5",
          "midi": 77,
          "time": 76.15377,
          "velocity": 0.3937007874015748,
          "duration": 0.11538450000000466
        },
        {
          "name": "D5",
          "midi": 74,
          "time": 76.615308,
          "velocity": 0.3937007874015748,
          "duration": 0.11538450000000466
        },
        {
          "name": "A5",
          "midi": 81,
          "time": 77.53838400000001,
          "velocity": 0.3937007874015748,
          "duration": 0.11538450000000466
        },
        {
          "name": "F5",
          "midi": 77,
          "time": 78.46146000000002,
          "velocity": 0.3937007874015748,
          "duration": 0.11538450000000466
        },
        {
          "name": "G5",
          "midi": 79,
          "time": 78.92299800000002,
          "velocity": 0.3937007874015748,
          "duration": 0.11538450000000466
        },
        {
          "name": "D5",
          "midi": 74,
          "time": 79.38453600000003,
          "velocity": 0.3937007874015748,
          "duration": 0.11538450000000466
        },
        {
          "name": "C5",
          "midi": 72,
          "time": 80.30761200000003,
          "velocity": 0.3937007874015748,
          "duration": 0.11538450000000466
        },
        {
          "name": "A#5",
          "midi": 82,
          "time": 81.23068800000004,
          "velocity": 0.3937007874015748,
          "duration": 0.11538450000000466
        },
        {
          "name": "A5",
          "midi": 81,
          "time": 82.15376400000005,
          "velocity": 0.3937007874015748,
          "duration": 0.11538450000000466
        },
        {
          "name": "F5",
          "midi": 77,
          "time": 82.61530200000006,
          "velocity": 0.3937007874015748,
          "duration": 0.11538450000000466
        },
        {
          "name": "D5",
          "midi": 74,
          "time": 83.07684000000006,
          "velocity": 0.3937007874015748,
          "duration": 0.11538450000000466
        },
        {
          "name": "A#5",
          "midi": 82,
          "time": 84.92299200000006,
          "velocity": 0.3937007874015748,
          "duration": 0.11538450000000466
        },
        {
          "name": "A5",
          "midi": 81,
          "time": 85.84606800000007,
          "velocity": 0.3937007874015748,
          "duration": 0.11538450000000466
        },
        {
          "name": "F5",
          "midi": 77,
          "time": 86.30760600000008,
          "velocity": 0.3937007874015748,
          "duration": 0.11538450000000466
        },
        {
          "name": "D5",
          "midi": 74,
          "time": 86.76914400000008,
          "velocity": 0.3937007874015748,
          "duration": 0.11538450000000466
        }
      ],
      "controlChanges": {},
      "id": 1,
      "name": "Music Box",
      "instrumentNumber": 10,
      "instrument": "music box",
      "instrumentFamily": "chromatic percussion",
      "channelNumber": 1,
      "isPercussion": false
    },
    {
      "startTime": 14.769215999999998,
      "duration": 73.73069549999995,
      "length": 214,
      "notes": [
        {
          "name": "A0",
          "midi": 21,
          "time": 14.769215999999998,
          "velocity": 0.3937007874015748,
          "duration": 0.3461534999999998
        },
        {
          "name": "A0",
          "midi": 21,
          "time": 15.115369499999998,
          "velocity": 0.3543307086614173,
          "duration": 0.11538449999999933
        },
        {
          "name": "A0",
          "midi": 21,
          "time": 15.230753999999997,
          "velocity": 0.31496062992125984,
          "duration": 0.11538449999999933
        },
        {
          "name": "A0",
          "midi": 21,
          "time": 15.346138499999997,
          "velocity": 0.2755905511811024,
          "duration": 0.11538449999999933
        },
        {
          "name": "A0",
          "midi": 21,
          "time": 16.153829999999996,
          "velocity": 0.3937007874015748,
          "duration": 0.3461534999999998
        },
        {
          "name": "A0",
          "midi": 21,
          "time": 16.499983499999995,
          "velocity": 0.3543307086614173,
          "duration": 0.11538450000000111
        },
        {
          "name": "A0",
          "midi": 21,
          "time": 16.615367999999997,
          "velocity": 0.31496062992125984,
          "duration": 0.11538450000000111
        },
        {
          "name": "A0",
          "midi": 21,
          "time": 16.730752499999998,
          "velocity": 0.2755905511811024,
          "duration": 0.11538450000000111
        },
        {
          "name": "A0",
          "midi": 21,
          "time": 17.076905999999997,
          "velocity": 0.3937007874015748,
          "duration": 0.3461534999999998
        },
        {
          "name": "A0",
          "midi": 21,
          "time": 17.423059499999997,
          "velocity": 0.3543307086614173,
          "duration": 0.11538450000000111
        },
        {
          "name": "E0",
          "midi": 16,
          "time": 17.769212999999997,
          "velocity": 0.48031496062992124,
          "duration": 0.3461534999999998
        },
        {
          "name": "E0",
          "midi": 16,
          "time": 18.115366499999997,
          "velocity": 0.4409448818897638,
          "duration": 0.11538450000000111
        },
        {
          "name": "E0",
          "midi": 16,
          "time": 18.230750999999998,
          "velocity": 0.3937007874015748,
          "duration": 0.11538450000000111
        },
        {
          "name": "C#0",
          "midi": 13,
          "time": 18.46152,
          "velocity": 0.48031496062992124,
          "duration": 0.3461534999999998
        },
        {
          "name": "C#0",
          "midi": 13,
          "time": 18.8076735,
          "velocity": 0.4409448818897638,
          "duration": 0.11538450000000111
        },
        {
          "name": "C#0",
          "midi": 13,
          "time": 18.923058,
          "velocity": 0.3937007874015748,
          "duration": 0.11538450000000111
        },
        {
          "name": "C#0",
          "midi": 13,
          "time": 19.038442500000002,
          "velocity": 0.3543307086614173,
          "duration": 0.11538450000000111
        },
        {
          "name": "C#0",
          "midi": 13,
          "time": 19.846134000000003,
          "velocity": 0.48031496062992124,
          "duration": 0.3461534999999998
        },
        {
          "name": "C#0",
          "midi": 13,
          "time": 20.192287500000003,
          "velocity": 0.4409448818897638,
          "duration": 0.11538450000000111
        },
        {
          "name": "C#0",
          "midi": 13,
          "time": 20.307672000000004,
          "velocity": 0.3937007874015748,
          "duration": 0.11538450000000111
        },
        {
          "name": "C#0",
          "midi": 13,
          "time": 20.423056500000005,
          "velocity": 0.3543307086614173,
          "duration": 0.11538450000000111
        },
        {
          "name": "C#0",
          "midi": 13,
          "time": 20.769210000000005,
          "velocity": 0.48031496062992124,
          "duration": 0.3461534999999998
        },
        {
          "name": "C#0",
          "midi": 13,
          "time": 21.115363500000004,
          "velocity": 0.4409448818897638,
          "duration": 0.11538450000000111
        },
        {
          "name": "C#0",
          "midi": 13,
          "time": 21.230748000000006,
          "velocity": 0.3937007874015748,
          "duration": 0.11538450000000111
        },
        {
          "name": "C#0",
          "midi": 13,
          "time": 21.346132500000007,
          "velocity": 0.3543307086614173,
          "duration": 0.11538450000000111
        },
        {
          "name": "G#0",
          "midi": 20,
          "time": 21.461517000000008,
          "velocity": 0.48031496062992124,
          "duration": 0.3461534999999998
        },
        {
          "name": "G#0",
          "midi": 20,
          "time": 21.807670500000008,
          "velocity": 0.4409448818897638,
          "duration": 0.11538450000000111
        },
        {
          "name": "G#0",
          "midi": 20,
          "time": 21.92305500000001,
          "velocity": 0.3937007874015748,
          "duration": 0.11538450000000111
        },
        {
          "name": "A0",
          "midi": 21,
          "time": 22.15382400000001,
          "velocity": 0.3937007874015748,
          "duration": 0.3461534999999998
        },
        {
          "name": "A0",
          "midi": 21,
          "time": 22.49997750000001,
          "velocity": 0.3543307086614173,
          "duration": 0.11538450000000111
        },
        {
          "name": "A0",
          "midi": 21,
          "time": 22.61536200000001,
          "velocity": 0.31496062992125984,
          "duration": 0.11538450000000111
        },
        {
          "name": "A0",
          "midi": 21,
          "time": 22.730746500000013,
          "velocity": 0.2755905511811024,
          "duration": 0.11538450000000111
        },
        {
          "name": "F#0",
          "midi": 18,
          "time": 23.538438000000014,
          "velocity": 0.3937007874015748,
          "duration": 0.3461534999999998
        },
        {
          "name": "F#0",
          "midi": 18,
          "time": 23.884591500000013,
          "velocity": 0.3543307086614173,
          "duration": 0.11538450000000111
        },
        {
          "name": "F#0",
          "midi": 18,
          "time": 23.999976000000014,
          "velocity": 0.31496062992125984,
          "duration": 0.11538450000000111
        },
        {
          "name": "F#0",
          "midi": 18,
          "time": 24.115360500000016,
          "velocity": 0.2755905511811024,
          "duration": 0.11538450000000111
        },
        {
          "name": "F#0",
          "midi": 18,
          "time": 24.461514000000015,
          "velocity": 0.3937007874015748,
          "duration": 0.3461534999999998
        },
        {
          "name": "F#0",
          "midi": 18,
          "time": 24.807667500000015,
          "velocity": 0.3543307086614173,
          "duration": 0.11538450000000111
        },
        {
          "name": "C#0",
          "midi": 13,
          "time": 25.153821000000015,
          "velocity": 0.48031496062992124,
          "duration": 0.3461534999999998
        },
        {
          "name": "C#0",
          "midi": 13,
          "time": 25.499974500000015,
          "velocity": 0.4409448818897638,
          "duration": 0.11538450000000111
        },
        {
          "name": "C#0",
          "midi": 13,
          "time": 25.615359000000016,
          "velocity": 0.3937007874015748,
          "duration": 0.11538450000000111
        },
        {
          "name": "C#0",
          "midi": 13,
          "time": 25.846128000000018,
          "velocity": 0.48031496062992124,
          "duration": 0.3461534999999998
        },
        {
          "name": "C#0",
          "midi": 13,
          "time": 26.192281500000018,
          "velocity": 0.4409448818897638,
          "duration": 0.11538450000000111
        },
        {
          "name": "C#0",
          "midi": 13,
          "time": 26.30766600000002,
          "velocity": 0.3937007874015748,
          "duration": 0.11538450000000111
        },
        {
          "name": "C#0",
          "midi": 13,
          "time": 26.42305050000002,
          "velocity": 0.3543307086614173,
          "duration": 0.11538450000000111
        },
        {
          "name": "C#0",
          "midi": 13,
          "time": 27.23074200000002,
          "velocity": 0.48031496062992124,
          "duration": 0.3461534999999998
        },
        {
          "name": "C#0",
          "midi": 13,
          "time": 27.57689550000002,
          "velocity": 0.4409448818897638,
          "duration": 0.11538450000000111
        },
        {
          "name": "C#0",
          "midi": 13,
          "time": 27.69228000000002,
          "velocity": 0.3937007874015748,
          "duration": 0.11538450000000111
        },
        {
          "name": "C#0",
          "midi": 13,
          "time": 27.807664500000023,
          "velocity": 0.3543307086614173,
          "duration": 0.11538450000000111
        },
        {
          "name": "G#0",
          "midi": 20,
          "time": 28.153818000000022,
          "velocity": 0.48031496062992124,
          "duration": 0.3461534999999998
        },
        {
          "name": "G#0",
          "midi": 20,
          "time": 28.499971500000022,
          "velocity": 0.4409448818897638,
          "duration": 0.11538450000000111
        },
        {
          "name": "G#0",
          "midi": 20,
          "time": 28.615356000000023,
          "velocity": 0.3937007874015748,
          "duration": 0.11538450000000111
        },
        {
          "name": "E0",
          "midi": 16,
          "time": 28.846125000000026,
          "velocity": 0.48031496062992124,
          "duration": 0.3461534999999998
        },
        {
          "name": "E0",
          "midi": 16,
          "time": 29.192278500000025,
          "velocity": 0.4409448818897638,
          "duration": 0.11538450000000111
        },
        {
          "name": "E0",
          "midi": 16,
          "time": 29.307663000000026,
          "velocity": 0.3937007874015748,
          "duration": 0.11538450000000111
        },
        {
          "name": "F#0",
          "midi": 18,
          "time": 29.53843200000003,
          "velocity": 0.3937007874015748,
          "duration": 0.3461534999999998
        },
        {
          "name": "F#0",
          "midi": 18,
          "time": 29.88458550000003,
          "velocity": 0.3543307086614173,
          "duration": 0.11538450000000111
        },
        {
          "name": "F#0",
          "midi": 18,
          "time": 29.99997000000003,
          "velocity": 0.31496062992125984,
          "duration": 0.11538450000000111
        },
        {
          "name": "F#0",
          "midi": 18,
          "time": 30.11535450000003,
          "velocity": 0.2755905511811024,
          "duration": 0.11538450000000111
        },
        {
          "name": "A0",
          "midi": 21,
          "time": 30.92304600000003,
          "velocity": 0.3937007874015748,
          "duration": 0.3461534999999998
        },
        {
          "name": "A0",
          "midi": 21,
          "time": 31.26919950000003,
          "velocity": 0.3543307086614173,
          "duration": 0.11538450000000111
        },
        {
          "name": "A0",
          "midi": 21,
          "time": 31.384584000000032,
          "velocity": 0.31496062992125984,
          "duration": 0.11538450000000111
        },
        {
          "name": "A0",
          "midi": 21,
          "time": 31.499968500000033,
          "velocity": 0.2755905511811024,
          "duration": 0.11538450000000111
        },
        {
          "name": "A0",
          "midi": 21,
          "time": 31.846122000000033,
          "velocity": 0.3937007874015748,
          "duration": 0.34615350000000333
        },
        {
          "name": "A0",
          "midi": 21,
          "time": 32.19227550000004,
          "velocity": 0.3543307086614173,
          "duration": 0.11538449999999756
        },
        {
          "name": "E0",
          "midi": 16,
          "time": 32.538429000000036,
          "velocity": 0.48031496062992124,
          "duration": 0.3461534999999998
        },
        {
          "name": "E0",
          "midi": 16,
          "time": 32.884582500000036,
          "velocity": 0.4409448818897638,
          "duration": 0.11538449999999756
        },
        {
          "name": "E0",
          "midi": 16,
          "time": 32.999967000000034,
          "velocity": 0.3937007874015748,
          "duration": 0.11538449999999756
        },
        {
          "name": "C#0",
          "midi": 13,
          "time": 33.23073600000003,
          "velocity": 0.48031496062992124,
          "duration": 0.3461534999999998
        },
        {
          "name": "C#0",
          "midi": 13,
          "time": 33.57688950000003,
          "velocity": 0.4409448818897638,
          "duration": 0.11538449999999756
        },
        {
          "name": "C#0",
          "midi": 13,
          "time": 33.692274000000026,
          "velocity": 0.3937007874015748,
          "duration": 0.11538449999999756
        },
        {
          "name": "C#0",
          "midi": 13,
          "time": 33.807658500000024,
          "velocity": 0.3543307086614173,
          "duration": 0.11538449999999756
        },
        {
          "name": "C#0",
          "midi": 13,
          "time": 34.61535000000002,
          "velocity": 0.48031496062992124,
          "duration": 0.3461534999999998
        },
        {
          "name": "C#0",
          "midi": 13,
          "time": 34.96150350000002,
          "velocity": 0.4409448818897638,
          "duration": 0.11538449999999756
        },
        {
          "name": "C#0",
          "midi": 13,
          "time": 35.07688800000002,
          "velocity": 0.3937007874015748,
          "duration": 0.11538449999999756
        },
        {
          "name": "C#0",
          "midi": 13,
          "time": 35.192272500000016,
          "velocity": 0.3543307086614173,
          "duration": 0.11538449999999756
        },
        {
          "name": "G#0",
          "midi": 20,
          "time": 35.538426000000015,
          "velocity": 0.48031496062992124,
          "duration": 0.3461534999999998
        },
        {
          "name": "G#0",
          "midi": 20,
          "time": 35.884579500000015,
          "velocity": 0.4409448818897638,
          "duration": 0.11538449999999756
        },
        {
          "name": "G#0",
          "midi": 20,
          "time": 35.99996400000001,
          "velocity": 0.3937007874015748,
          "duration": 0.11538449999999756
        },
        {
          "name": "G#0",
          "midi": 20,
          "time": 36.23073300000001,
          "velocity": 0.48031496062992124,
          "duration": 0.3461534999999998
        },
        {
          "name": "G#0",
          "midi": 20,
          "time": 36.57688650000001,
          "velocity": 0.4409448818897638,
          "duration": 0.11538449999999756
        },
        {
          "name": "G#0",
          "midi": 20,
          "time": 36.692271000000005,
          "velocity": 0.3937007874015748,
          "duration": 0.11538449999999756
        },
        {
          "name": "A0",
          "midi": 21,
          "time": 36.92304,
          "velocity": 0.3937007874015748,
          "duration": 0.3461534999999998
        },
        {
          "name": "A0",
          "midi": 21,
          "time": 37.2691935,
          "velocity": 0.3543307086614173,
          "duration": 0.11538449999999756
        },
        {
          "name": "A0",
          "midi": 21,
          "time": 37.384578,
          "velocity": 0.31496062992125984,
          "duration": 0.11538449999999756
        },
        {
          "name": "A0",
          "midi": 21,
          "time": 37.499962499999995,
          "velocity": 0.2755905511811024,
          "duration": 0.11538449999999756
        },
        {
          "name": "F#0",
          "midi": 18,
          "time": 38.30765399999999,
          "velocity": 0.3937007874015748,
          "duration": 0.3461534999999998
        },
        {
          "name": "F#0",
          "midi": 18,
          "time": 38.65380749999999,
          "velocity": 0.3543307086614173,
          "duration": 0.11538449999999756
        },
        {
          "name": "F#0",
          "midi": 18,
          "time": 38.76919199999999,
          "velocity": 0.31496062992125984,
          "duration": 0.11538449999999756
        },
        {
          "name": "F#0",
          "midi": 18,
          "time": 38.88457649999999,
          "velocity": 0.2755905511811024,
          "duration": 0.11538449999999756
        },
        {
          "name": "F#0",
          "midi": 18,
          "time": 39.23072999999999,
          "velocity": 0.3937007874015748,
          "duration": 0.3461534999999998
        },
        {
          "name": "F#0",
          "midi": 18,
          "time": 39.57688349999999,
          "velocity": 0.3543307086614173,
          "duration": 0.11538449999999756
        },
        {
          "name": "C#0",
          "midi": 13,
          "time": 39.92303699999999,
          "velocity": 0.48031496062992124,
          "duration": 0.3461534999999998
        },
        {
          "name": "C#0",
          "midi": 13,
          "time": 40.269190499999986,
          "velocity": 0.4409448818897638,
          "duration": 0.11538449999999756
        },
        {
          "name": "C#0",
          "midi": 13,
          "time": 40.384574999999984,
          "velocity": 0.3937007874015748,
          "duration": 0.11538449999999756
        },
        {
          "name": "C#0",
          "midi": 13,
          "time": 40.61534399999998,
          "velocity": 0.48031496062992124,
          "duration": 0.3461534999999998
        },
        {
          "name": "C#0",
          "midi": 13,
          "time": 40.96149749999998,
          "velocity": 0.4409448818897638,
          "duration": 0.11538449999999756
        },
        {
          "name": "C#0",
          "midi": 13,
          "time": 41.076881999999976,
          "velocity": 0.3937007874015748,
          "duration": 0.11538449999999756
        },
        {
          "name": "C#0",
          "midi": 13,
          "time": 41.192266499999974,
          "velocity": 0.3543307086614173,
          "duration": 0.11538449999999756
        },
        {
          "name": "C#0",
          "midi": 13,
          "time": 41.99995799999997,
          "velocity": 0.48031496062992124,
          "duration": 0.3461534999999998
        },
        {
          "name": "C#0",
          "midi": 13,
          "time": 42.34611149999997,
          "velocity": 0.4409448818897638,
          "duration": 0.11538449999999756
        },
        {
          "name": "C#0",
          "midi": 13,
          "time": 42.46149599999997,
          "velocity": 0.3937007874015748,
          "duration": 0.11538449999999756
        },
        {
          "name": "C#0",
          "midi": 13,
          "time": 42.576880499999966,
          "velocity": 0.3543307086614173,
          "duration": 0.11538449999999756
        },
        {
          "name": "G#0",
          "midi": 20,
          "time": 42.923033999999966,
          "velocity": 0.48031496062992124,
          "duration": 0.3461534999999998
        },
        {
          "name": "G#0",
          "midi": 20,
          "time": 43.269187499999965,
          "velocity": 0.4409448818897638,
          "duration": 0.11538449999999756
        },
        {
          "name": "G#0",
          "midi": 20,
          "time": 43.38457199999996,
          "velocity": 0.3937007874015748,
          "duration": 0.11538449999999756
        },
        {
          "name": "E0",
          "midi": 16,
          "time": 43.61534099999996,
          "velocity": 0.48031496062992124,
          "duration": 0.3461534999999998
        },
        {
          "name": "E0",
          "midi": 16,
          "time": 43.96149449999996,
          "velocity": 0.4409448818897638,
          "duration": 0.11538449999999756
        },
        {
          "name": "E0",
          "midi": 16,
          "time": 44.076878999999956,
          "velocity": 0.3937007874015748,
          "duration": 0.11538449999999756
        },
        {
          "name": "A0",
          "midi": 21,
          "time": 45.69226199999995,
          "velocity": 0.3937007874015748,
          "duration": 0.3461534999999998
        },
        {
          "name": "A0",
          "midi": 21,
          "time": 46.03841549999995,
          "velocity": 0.3543307086614173,
          "duration": 0.11538449999999756
        },
        {
          "name": "A0",
          "midi": 21,
          "time": 46.15379999999995,
          "velocity": 0.31496062992125984,
          "duration": 0.11538449999999756
        },
        {
          "name": "A0",
          "midi": 21,
          "time": 46.269184499999945,
          "velocity": 0.2755905511811024,
          "duration": 0.11538449999999756
        },
        {
          "name": "A0",
          "midi": 21,
          "time": 46.615337999999944,
          "velocity": 0.3937007874015748,
          "duration": 0.3461534999999998
        },
        {
          "name": "A0",
          "midi": 21,
          "time": 46.961491499999944,
          "velocity": 0.3543307086614173,
          "duration": 0.11538449999999756
        },
        {
          "name": "E0",
          "midi": 16,
          "time": 47.307644999999944,
          "velocity": 0.48031496062992124,
          "duration": 0.3461534999999998
        },
        {
          "name": "E0",
          "midi": 16,
          "time": 47.653798499999944,
          "velocity": 0.4409448818897638,
          "duration": 0.11538449999999756
        },
        {
          "name": "E0",
          "midi": 16,
          "time": 47.76918299999994,
          "velocity": 0.3937007874015748,
          "duration": 0.11538449999999756
        },
        {
          "name": "C#0",
          "midi": 13,
          "time": 47.999951999999936,
          "velocity": 0.48031496062992124,
          "duration": 0.3461534999999998
        },
        {
          "name": "C#0",
          "midi": 13,
          "time": 48.346105499999936,
          "velocity": 0.4409448818897638,
          "duration": 0.11538449999999756
        },
        {
          "name": "C#0",
          "midi": 13,
          "time": 48.461489999999934,
          "velocity": 0.3937007874015748,
          "duration": 0.11538449999999756
        },
        {
          "name": "C#0",
          "midi": 13,
          "time": 48.57687449999993,
          "velocity": 0.3543307086614173,
          "duration": 0.11538449999999756
        },
        {
          "name": "C#0",
          "midi": 13,
          "time": 49.38456599999993,
          "velocity": 0.48031496062992124,
          "duration": 0.3461534999999998
        },
        {
          "name": "C#0",
          "midi": 13,
          "time": 49.73071949999993,
          "velocity": 0.4409448818897638,
          "duration": 0.11538449999999756
        },
        {
          "name": "C#0",
          "midi": 13,
          "time": 49.846103999999926,
          "velocity": 0.3937007874015748,
          "duration": 0.11538449999999756
        },
        {
          "name": "C#0",
          "midi": 13,
          "time": 49.96148849999992,
          "velocity": 0.3543307086614173,
          "duration": 0.11538449999999756
        },
        {
          "name": "C#0",
          "midi": 13,
          "time": 50.30764199999992,
          "velocity": 0.48031496062992124,
          "duration": 0.3461534999999998
        },
        {
          "name": "C#0",
          "midi": 13,
          "time": 50.65379549999992,
          "velocity": 0.4409448818897638,
          "duration": 0.11538449999999756
        },
        {
          "name": "C#0",
          "midi": 13,
          "time": 50.76917999999992,
          "velocity": 0.3937007874015748,
          "duration": 0.11538449999999756
        },
        {
          "name": "C#0",
          "midi": 13,
          "time": 50.88456449999992,
          "velocity": 0.3543307086614173,
          "duration": 0.11538449999999756
        },
        {
          "name": "G#0",
          "midi": 20,
          "time": 50.999948999999916,
          "velocity": 0.48031496062992124,
          "duration": 0.3461534999999998
        },
        {
          "name": "G#0",
          "midi": 20,
          "time": 51.346102499999915,
          "velocity": 0.4409448818897638,
          "duration": 0.11538449999999756
        },
        {
          "name": "G#0",
          "midi": 20,
          "time": 51.46148699999991,
          "velocity": 0.3937007874015748,
          "duration": 0.11538449999999756
        },
        {
          "name": "A0",
          "midi": 21,
          "time": 51.69225599999991,
          "velocity": 0.3937007874015748,
          "duration": 0.3461534999999998
        },
        {
          "name": "A0",
          "midi": 21,
          "time": 52.03840949999991,
          "velocity": 0.3543307086614173,
          "duration": 0.11538449999999756
        },
        {
          "name": "A0",
          "midi": 21,
          "time": 52.153793999999905,
          "velocity": 0.31496062992125984,
          "duration": 0.11538449999999756
        },
        {
          "name": "A0",
          "midi": 21,
          "time": 52.2691784999999,
          "velocity": 0.2755905511811024,
          "duration": 0.11538449999999756
        },
        {
          "name": "F#0",
          "midi": 18,
          "time": 53.0768699999999,
          "velocity": 0.3937007874015748,
          "duration": 0.3461534999999998
        },
        {
          "name": "F#0",
          "midi": 18,
          "time": 53.4230234999999,
          "velocity": 0.3543307086614173,
          "duration": 0.11538449999999756
        },
        {
          "name": "F#0",
          "midi": 18,
          "time": 53.5384079999999,
          "velocity": 0.31496062992125984,
          "duration": 0.11538449999999756
        },
        {
          "name": "F#0",
          "midi": 18,
          "time": 53.653792499999895,
          "velocity": 0.2755905511811024,
          "duration": 0.11538449999999756
        },
        {
          "name": "F#0",
          "midi": 18,
          "time": 53.999945999999895,
          "velocity": 0.3937007874015748,
          "duration": 0.3461534999999998
        },
        {
          "name": "F#0",
          "midi": 18,
          "time": 54.346099499999895,
          "velocity": 0.3543307086614173,
          "duration": 0.11538449999999756
        },
        {
          "name": "C#0",
          "midi": 13,
          "time": 54.692252999999894,
          "velocity": 0.48031496062992124,
          "duration": 0.3461534999999998
        },
        {
          "name": "C#0",
          "midi": 13,
          "time": 55.038406499999894,
          "velocity": 0.4409448818897638,
          "duration": 0.11538449999999756
        },
        {
          "name": "C#0",
          "midi": 13,
          "time": 55.15379099999989,
          "velocity": 0.3937007874015748,
          "duration": 0.11538449999999756
        },
        {
          "name": "C#0",
          "midi": 13,
          "time": 55.38455999999989,
          "velocity": 0.48031496062992124,
          "duration": 0.3461534999999998
        },
        {
          "name": "C#0",
          "midi": 13,
          "time": 55.73071349999989,
          "velocity": 0.4409448818897638,
          "duration": 0.11538449999999756
        },
        {
          "name": "C#0",
          "midi": 13,
          "time": 55.846097999999884,
          "velocity": 0.3937007874015748,
          "duration": 0.11538449999999756
        },
        {
          "name": "C#0",
          "midi": 13,
          "time": 55.96148249999988,
          "velocity": 0.3543307086614173,
          "duration": 0.11538449999999756
        },
        {
          "name": "C#0",
          "midi": 13,
          "time": 56.76917399999988,
          "velocity": 0.48031496062992124,
          "duration": 0.3461534999999998
        },
        {
          "name": "C#0",
          "midi": 13,
          "time": 57.11532749999988,
          "velocity": 0.4409448818897638,
          "duration": 0.11538449999999756
        },
        {
          "name": "C#0",
          "midi": 13,
          "time": 57.230711999999876,
          "velocity": 0.3937007874015748,
          "duration": 0.11538449999999756
        },
        {
          "name": "C#0",
          "midi": 13,
          "time": 57.346096499999874,
          "velocity": 0.3543307086614173,
          "duration": 0.11538449999999756
        },
        {
          "name": "G#0",
          "midi": 20,
          "time": 57.69224999999987,
          "velocity": 0.48031496062992124,
          "duration": 0.3461534999999998
        },
        {
          "name": "G#0",
          "midi": 20,
          "time": 58.03840349999987,
          "velocity": 0.4409448818897638,
          "duration": 0.11538449999999756
        },
        {
          "name": "G#0",
          "midi": 20,
          "time": 58.15378799999987,
          "velocity": 0.3937007874015748,
          "duration": 0.11538449999999756
        },
        {
          "name": "E0",
          "midi": 16,
          "time": 58.384556999999866,
          "velocity": 0.48031496062992124,
          "duration": 0.3461534999999998
        },
        {
          "name": "E0",
          "midi": 16,
          "time": 58.730710499999866,
          "velocity": 0.4409448818897638,
          "duration": 0.11538449999999756
        },
        {
          "name": "E0",
          "midi": 16,
          "time": 58.84609499999986,
          "velocity": 0.3937007874015748,
          "duration": 0.11538449999999756
        },
        {
          "name": "F#0",
          "midi": 18,
          "time": 59.07686399999986,
          "velocity": 0.3937007874015748,
          "duration": 0.3461534999999998
        },
        {
          "name": "F#0",
          "midi": 18,
          "time": 59.42301749999986,
          "velocity": 0.3543307086614173,
          "duration": 0.11538449999999756
        },
        {
          "name": "F#0",
          "midi": 18,
          "time": 59.538401999999856,
          "velocity": 0.31496062992125984,
          "duration": 0.11538449999999756
        },
        {
          "name": "F#0",
          "midi": 18,
          "time": 59.65378649999985,
          "velocity": 0.2755905511811024,
          "duration": 0.11538449999999756
        },
        {
          "name": "A0",
          "midi": 21,
          "time": 60.46147799999985,
          "velocity": 0.3937007874015748,
          "duration": 0.3461534999999998
        },
        {
          "name": "A0",
          "midi": 21,
          "time": 60.80763149999985,
          "velocity": 0.3543307086614173,
          "duration": 0.11538449999999756
        },
        {
          "name": "A0",
          "midi": 21,
          "time": 60.92301599999985,
          "velocity": 0.31496062992125984,
          "duration": 0.11538449999999756
        },
        {
          "name": "A0",
          "midi": 21,
          "time": 61.038400499999845,
          "velocity": 0.2755905511811024,
          "duration": 0.11538449999999756
        },
        {
          "name": "A0",
          "midi": 21,
          "time": 61.384553999999845,
          "velocity": 0.3937007874015748,
          "duration": 0.3461534999999998
        },
        {
          "name": "A0",
          "midi": 21,
          "time": 61.730707499999845,
          "velocity": 0.3543307086614173,
          "duration": 0.11538449999999756
        },
        {
          "name": "E0",
          "midi": 16,
          "time": 62.076860999999845,
          "velocity": 0.48031496062992124,
          "duration": 0.3461534999999998
        },
        {
          "name": "E0",
          "midi": 16,
          "time": 62.423014499999844,
          "velocity": 0.4409448818897638,
          "duration": 0.11538449999999756
        },
        {
          "name": "E0",
          "midi": 16,
          "time": 62.53839899999984,
          "velocity": 0.3937007874015748,
          "duration": 0.11538449999999756
        },
        {
          "name": "C#0",
          "midi": 13,
          "time": 62.76916799999984,
          "velocity": 0.48031496062992124,
          "duration": 0.3461534999999998
        },
        {
          "name": "C#0",
          "midi": 13,
          "time": 63.11532149999984,
          "velocity": 0.4409448818897638,
          "duration": 0.11538449999999756
        },
        {
          "name": "C#0",
          "midi": 13,
          "time": 63.230705999999834,
          "velocity": 0.3937007874015748,
          "duration": 0.11538449999999756
        },
        {
          "name": "C#0",
          "midi": 13,
          "time": 63.34609049999983,
          "velocity": 0.3543307086614173,
          "duration": 0.11538449999999756
        },
        {
          "name": "C#0",
          "midi": 13,
          "time": 64.15378199999984,
          "velocity": 0.48031496062992124,
          "duration": 0.3461534999999998
        },
        {
          "name": "C#0",
          "midi": 13,
          "time": 64.49993549999984,
          "velocity": 0.4409448818897638,
          "duration": 0.11538450000000466
        },
        {
          "name": "C#0",
          "midi": 13,
          "time": 64.61531999999984,
          "velocity": 0.3937007874015748,
          "duration": 0.11538450000000466
        },
        {
          "name": "C#0",
          "midi": 13,
          "time": 64.73070449999985,
          "velocity": 0.3543307086614173,
          "duration": 0.11538450000000466
        },
        {
          "name": "G#0",
          "midi": 20,
          "time": 65.07685799999985,
          "velocity": 0.48031496062992124,
          "duration": 0.3461534999999998
        },
        {
          "name": "G#0",
          "midi": 20,
          "time": 65.42301149999984,
          "velocity": 0.4409448818897638,
          "duration": 0.11538450000000466
        },
        {
          "name": "G#0",
          "midi": 20,
          "time": 65.53839599999985,
          "velocity": 0.3937007874015748,
          "duration": 0.11538450000000466
        },
        {
          "name": "G#0",
          "midi": 20,
          "time": 65.76916499999986,
          "velocity": 0.48031496062992124,
          "duration": 0.3461534999999998
        },
        {
          "name": "G#0",
          "midi": 20,
          "time": 66.11531849999986,
          "velocity": 0.4409448818897638,
          "duration": 0.11538450000000466
        },
        {
          "name": "G#0",
          "midi": 20,
          "time": 66.23070299999986,
          "velocity": 0.3937007874015748,
          "duration": 0.11538450000000466
        },
        {
          "name": "A0",
          "midi": 21,
          "time": 66.46147199999987,
          "velocity": 0.3937007874015748,
          "duration": 0.3461534999999998
        },
        {
          "name": "A0",
          "midi": 21,
          "time": 66.80762549999987,
          "velocity": 0.3543307086614173,
          "duration": 0.11538450000000466
        },
        {
          "name": "A0",
          "midi": 21,
          "time": 66.92300999999988,
          "velocity": 0.31496062992125984,
          "duration": 0.11538450000000466
        },
        {
          "name": "A0",
          "midi": 21,
          "time": 67.03839449999988,
          "velocity": 0.2755905511811024,
          "duration": 0.11538450000000466
        },
        {
          "name": "F#0",
          "midi": 18,
          "time": 67.84608599999989,
          "velocity": 0.3937007874015748,
          "duration": 0.3461534999999998
        },
        {
          "name": "F#0",
          "midi": 18,
          "time": 68.19223949999989,
          "velocity": 0.3543307086614173,
          "duration": 0.11538450000000466
        },
        {
          "name": "F#0",
          "midi": 18,
          "time": 68.30762399999989,
          "velocity": 0.31496062992125984,
          "duration": 0.11538450000000466
        },
        {
          "name": "F#0",
          "midi": 18,
          "time": 68.4230084999999,
          "velocity": 0.2755905511811024,
          "duration": 0.11538450000000466
        },
        {
          "name": "F#0",
          "midi": 18,
          "time": 68.7691619999999,
          "velocity": 0.3937007874015748,
          "duration": 0.3461534999999998
        },
        {
          "name": "F#0",
          "midi": 18,
          "time": 69.1153154999999,
          "velocity": 0.3543307086614173,
          "duration": 0.11538450000000466
        },
        {
          "name": "C#0",
          "midi": 13,
          "time": 69.4614689999999,
          "velocity": 0.48031496062992124,
          "duration": 0.3461534999999998
        },
        {
          "name": "C#0",
          "midi": 13,
          "time": 69.8076224999999,
          "velocity": 0.4409448818897638,
          "duration": 0.11538450000000466
        },
        {
          "name": "C#0",
          "midi": 13,
          "time": 69.9230069999999,
          "velocity": 0.3937007874015748,
          "duration": 0.11538450000000466
        },
        {
          "name": "C#0",
          "midi": 13,
          "time": 70.15377599999991,
          "velocity": 0.48031496062992124,
          "duration": 0.3461534999999998
        },
        {
          "name": "C#0",
          "midi": 13,
          "time": 70.49992949999991,
          "velocity": 0.4409448818897638,
          "duration": 0.11538450000000466
        },
        {
          "name": "C#0",
          "midi": 13,
          "time": 70.61531399999991,
          "velocity": 0.3937007874015748,
          "duration": 0.11538450000000466
        },
        {
          "name": "C#0",
          "midi": 13,
          "time": 70.73069849999992,
          "velocity": 0.3543307086614173,
          "duration": 0.11538450000000466
        },
        {
          "name": "C#0",
          "midi": 13,
          "time": 71.53838999999992,
          "velocity": 0.48031496062992124,
          "duration": 0.3461534999999998
        },
        {
          "name": "C#0",
          "midi": 13,
          "time": 71.88454349999992,
          "velocity": 0.4409448818897638,
          "duration": 0.11538450000000466
        },
        {
          "name": "C#0",
          "midi": 13,
          "time": 71.99992799999993,
          "velocity": 0.3937007874015748,
          "duration": 0.11538450000000466
        },
        {
          "name": "C#0",
          "midi": 13,
          "time": 72.11531249999993,
          "velocity": 0.3543307086614173,
          "duration": 0.11538450000000466
        },
        {
          "name": "G#0",
          "midi": 20,
          "time": 72.46146599999993,
          "velocity": 0.48031496062992124,
          "duration": 0.3461534999999998
        },
        {
          "name": "G#0",
          "midi": 20,
          "time": 72.80761949999993,
          "velocity": 0.4409448818897638,
          "duration": 0.11538450000000466
        },
        {
          "name": "G#0",
          "midi": 20,
          "time": 72.92300399999993,
          "velocity": 0.3937007874015748,
          "duration": 0.11538450000000466
        },
        {
          "name": "E0",
          "midi": 16,
          "time": 73.15377299999994,
          "velocity": 0.48031496062992124,
          "duration": 0.3461534999999998
        },
        {
          "name": "E0",
          "midi": 16,
          "time": 73.49992649999994,
          "velocity": 0.4409448818897638,
          "duration": 0.11538450000000466
        },
        {
          "name": "E0",
          "midi": 16,
          "time": 73.61531099999995,
          "velocity": 0.3937007874015748,
          "duration": 0.11538450000000466
        }
      ],
      "controlChanges": {},
      "id": 2,
      "name": "8-Bit Triangle",
      "instrumentNumber": 87,
      "instrument": "lead 8 (bass + lead)",
      "instrumentFamily": "synth lead",
      "channelNumber": 2,
      "isPercussion": false
    },
    {
      "startTime": 14.769215999999998,
      "duration": 73.49992649999993,
      "length": 343,
      "notes": [
        {
          "name": "B1",
          "midi": 35,
          "time": 14.769215999999998,
          "velocity": 0.11811023622047244,
          "duration": 0.11538449999999933
        },
        {
          "name": "F#2",
          "midi": 42,
          "time": 15.692291999999998,
          "velocity": 0.3937007874015748,
          "duration": 0.11538449999999933
        },
        {
          "name": "D#2",
          "midi": 39,
          "time": 15.692291999999998,
          "velocity": 0.3937007874015748,
          "duration": 0.11538449999999933
        },
        {
          "name": "F#2",
          "midi": 42,
          "time": 16.15383,
          "velocity": 0.3937007874015748,
          "duration": 0.11538450000000111
        },
        {
          "name": "B1",
          "midi": 35,
          "time": 16.15383,
          "velocity": 0.11811023622047244,
          "duration": 0.11538450000000111
        },
        {
          "name": "F#2",
          "midi": 42,
          "time": 16.384599,
          "velocity": 0.3937007874015748,
          "duration": 0.11538450000000111
        },
        {
          "name": "C#2",
          "midi": 37,
          "time": 16.384599,
          "velocity": 0.3937007874015748,
          "duration": 0.11538450000000111
        },
        {
          "name": "F#2",
          "midi": 42,
          "time": 16.615368000000004,
          "velocity": 0.3937007874015748,
          "duration": 0.11538450000000111
        },
        {
          "name": "F#2",
          "midi": 42,
          "time": 16.846137000000006,
          "velocity": 0.3937007874015748,
          "duration": 0.11538450000000111
        },
        {
          "name": "C#2",
          "midi": 37,
          "time": 16.846137000000006,
          "velocity": 0.3937007874015748,
          "duration": 0.11538450000000111
        },
        {
          "name": "F#2",
          "midi": 42,
          "time": 17.076906000000008,
          "velocity": 0.3937007874015748,
          "duration": 0.11538450000000111
        },
        {
          "name": "D#3",
          "midi": 51,
          "time": 17.076906000000008,
          "velocity": 0.3937007874015748,
          "duration": 0.11538450000000111
        },
        {
          "name": "B1",
          "midi": 35,
          "time": 17.076906000000008,
          "velocity": 0.11811023622047244,
          "duration": 0.11538450000000111
        },
        {
          "name": "F#2",
          "midi": 42,
          "time": 17.30767500000001,
          "velocity": 0.3937007874015748,
          "duration": 0.11538450000000111
        },
        {
          "name": "F#2",
          "midi": 42,
          "time": 17.538444000000013,
          "velocity": 0.3937007874015748,
          "duration": 0.11538450000000111
        },
        {
          "name": "D#2",
          "midi": 39,
          "time": 17.538444000000013,
          "velocity": 0.3937007874015748,
          "duration": 0.11538450000000111
        },
        {
          "name": "B1",
          "midi": 35,
          "time": 17.769213000000015,
          "velocity": 0.11811023622047244,
          "duration": 0.11538450000000111
        },
        {
          "name": "F#2",
          "midi": 42,
          "time": 17.999982000000017,
          "velocity": 0.3937007874015748,
          "duration": 0.11538450000000111
        },
        {
          "name": "F#2",
          "midi": 42,
          "time": 18.115366500000018,
          "velocity": 0.3937007874015748,
          "duration": 0.11538450000000111
        },
        {
          "name": "F#2",
          "midi": 42,
          "time": 18.23075100000002,
          "velocity": 0.3937007874015748,
          "duration": 0.11538450000000111
        },
        {
          "name": "A#2",
          "midi": 46,
          "time": 18.46152000000002,
          "velocity": 0.3937007874015748,
          "duration": 0.11538450000000111
        },
        {
          "name": "B1",
          "midi": 35,
          "time": 18.46152000000002,
          "velocity": 0.11811023622047244,
          "duration": 0.11538450000000111
        },
        {
          "name": "F#2",
          "midi": 42,
          "time": 19.15382700000002,
          "velocity": 0.3937007874015748,
          "duration": 0.11538450000000111
        },
        {
          "name": "F#2",
          "midi": 42,
          "time": 19.384596000000023,
          "velocity": 0.3937007874015748,
          "duration": 0.11538450000000111
        },
        {
          "name": "D#2",
          "midi": 39,
          "time": 19.384596000000023,
          "velocity": 0.3937007874015748,
          "duration": 0.11538450000000111
        },
        {
          "name": "F#2",
          "midi": 42,
          "time": 19.846134000000024,
          "velocity": 0.3937007874015748,
          "duration": 0.11538450000000111
        },
        {
          "name": "B1",
          "midi": 35,
          "time": 19.846134000000024,
          "velocity": 0.11811023622047244,
          "duration": 0.11538450000000111
        },
        {
          "name": "F#2",
          "midi": 42,
          "time": 20.076903000000026,
          "velocity": 0.3937007874015748,
          "duration": 0.11538450000000111
        },
        {
          "name": "C#2",
          "midi": 37,
          "time": 20.076903000000026,
          "velocity": 0.3937007874015748,
          "duration": 0.11538450000000111
        },
        {
          "name": "F#2",
          "midi": 42,
          "time": 20.30767200000003,
          "velocity": 0.3937007874015748,
          "duration": 0.11538450000000111
        },
        {
          "name": "F#2",
          "midi": 42,
          "time": 20.53844100000003,
          "velocity": 0.3937007874015748,
          "duration": 0.11538450000000111
        },
        {
          "name": "C#2",
          "midi": 37,
          "time": 20.53844100000003,
          "velocity": 0.3937007874015748,
          "duration": 0.11538450000000111
        },
        {
          "name": "F#2",
          "midi": 42,
          "time": 20.769210000000033,
          "velocity": 0.3937007874015748,
          "duration": 0.11538450000000111
        },
        {
          "name": "D#3",
          "midi": 51,
          "time": 20.769210000000033,
          "velocity": 0.3937007874015748,
          "duration": 0.11538450000000111
        },
        {
          "name": "B1",
          "midi": 35,
          "time": 20.769210000000033,
          "velocity": 0.11811023622047244,
          "duration": 0.11538450000000111
        },
        {
          "name": "F#2",
          "midi": 42,
          "time": 20.999979000000035,
          "velocity": 0.3937007874015748,
          "duration": 0.11538450000000111
        },
        {
          "name": "F#2",
          "midi": 42,
          "time": 21.230748000000037,
          "velocity": 0.3937007874015748,
          "duration": 0.11538450000000111
        },
        {
          "name": "D#2",
          "midi": 39,
          "time": 21.230748000000037,
          "velocity": 0.3937007874015748,
          "duration": 0.11538450000000111
        },
        {
          "name": "D#3",
          "midi": 51,
          "time": 21.46151700000004,
          "velocity": 0.3937007874015748,
          "duration": 0.11538450000000111
        },
        {
          "name": "B1",
          "midi": 35,
          "time": 21.46151700000004,
          "velocity": 0.11811023622047244,
          "duration": 0.11538450000000111
        },
        {
          "name": "F#2",
          "midi": 42,
          "time": 21.692286000000042,
          "velocity": 0.3937007874015748,
          "duration": 0.11538450000000111
        },
        {
          "name": "B1",
          "midi": 35,
          "time": 22.153824000000043,
          "velocity": 0.11811023622047244,
          "duration": 0.11538450000000111
        },
        {
          "name": "F#2",
          "midi": 42,
          "time": 22.153824000000043,
          "velocity": 0.3937007874015748,
          "duration": 0.11538450000000111
        },
        {
          "name": "F#2",
          "midi": 42,
          "time": 22.615362000000044,
          "velocity": 0.3937007874015748,
          "duration": 0.11538450000000111
        },
        {
          "name": "F#2",
          "midi": 42,
          "time": 22.846131000000046,
          "velocity": 0.3937007874015748,
          "duration": 0.11538450000000111
        },
        {
          "name": "F#2",
          "midi": 42,
          "time": 23.076900000000048,
          "velocity": 0.3937007874015748,
          "duration": 0.11538450000000111
        },
        {
          "name": "D#2",
          "midi": 39,
          "time": 23.076900000000048,
          "velocity": 0.3937007874015748,
          "duration": 0.11538450000000111
        },
        {
          "name": "F#2",
          "midi": 42,
          "time": 23.53843800000005,
          "velocity": 0.3937007874015748,
          "duration": 0.11538450000000111
        },
        {
          "name": "B1",
          "midi": 35,
          "time": 23.53843800000005,
          "velocity": 0.11811023622047244,
          "duration": 0.11538450000000111
        },
        {
          "name": "F#2",
          "midi": 42,
          "time": 23.76920700000005,
          "velocity": 0.3937007874015748,
          "duration": 0.11538450000000111
        },
        {
          "name": "C#2",
          "midi": 37,
          "time": 23.76920700000005,
          "velocity": 0.3937007874015748,
          "duration": 0.11538450000000111
        },
        {
          "name": "F#2",
          "midi": 42,
          "time": 23.999976000000053,
          "velocity": 0.3937007874015748,
          "duration": 0.11538450000000111
        },
        {
          "name": "F#2",
          "midi": 42,
          "time": 24.230745000000056,
          "velocity": 0.3937007874015748,
          "duration": 0.11538450000000111
        },
        {
          "name": "C#2",
          "midi": 37,
          "time": 24.230745000000056,
          "velocity": 0.3937007874015748,
          "duration": 0.11538450000000111
        },
        {
          "name": "F#2",
          "midi": 42,
          "time": 24.461514000000058,
          "velocity": 0.3937007874015748,
          "duration": 0.11538450000000111
        },
        {
          "name": "D#3",
          "midi": 51,
          "time": 24.461514000000058,
          "velocity": 0.3937007874015748,
          "duration": 0.11538450000000111
        },
        {
          "name": "B1",
          "midi": 35,
          "time": 24.461514000000058,
          "velocity": 0.11811023622047244,
          "duration": 0.11538450000000111
        },
        {
          "name": "F#2",
          "midi": 42,
          "time": 24.69228300000006,
          "velocity": 0.3937007874015748,
          "duration": 0.11538450000000111
        },
        {
          "name": "F#2",
          "midi": 42,
          "time": 24.923052000000062,
          "velocity": 0.3937007874015748,
          "duration": 0.11538450000000111
        },
        {
          "name": "D#2",
          "midi": 39,
          "time": 24.923052000000062,
          "velocity": 0.3937007874015748,
          "duration": 0.11538450000000111
        },
        {
          "name": "B1",
          "midi": 35,
          "time": 25.153821000000065,
          "velocity": 0.11811023622047244,
          "duration": 0.11538450000000111
        },
        {
          "name": "F#2",
          "midi": 42,
          "time": 25.384590000000067,
          "velocity": 0.3937007874015748,
          "duration": 0.11538450000000111
        },
        {
          "name": "F#2",
          "midi": 42,
          "time": 25.499974500000068,
          "velocity": 0.3937007874015748,
          "duration": 0.11538450000000111
        },
        {
          "name": "F#2",
          "midi": 42,
          "time": 25.61535900000007,
          "velocity": 0.3937007874015748,
          "duration": 0.11538450000000111
        },
        {
          "name": "A#2",
          "midi": 46,
          "time": 25.84612800000007,
          "velocity": 0.3937007874015748,
          "duration": 0.11538450000000111
        },
        {
          "name": "B1",
          "midi": 35,
          "time": 25.84612800000007,
          "velocity": 0.11811023622047244,
          "duration": 0.11538450000000111
        },
        {
          "name": "F#2",
          "midi": 42,
          "time": 26.53843500000007,
          "velocity": 0.3937007874015748,
          "duration": 0.11538450000000111
        },
        {
          "name": "F#2",
          "midi": 42,
          "time": 26.769204000000073,
          "velocity": 0.3937007874015748,
          "duration": 0.11538450000000111
        },
        {
          "name": "D#2",
          "midi": 39,
          "time": 26.769204000000073,
          "velocity": 0.3937007874015748,
          "duration": 0.11538450000000111
        },
        {
          "name": "F#2",
          "midi": 42,
          "time": 27.230742000000074,
          "velocity": 0.3937007874015748,
          "duration": 0.11538450000000111
        },
        {
          "name": "B1",
          "midi": 35,
          "time": 27.230742000000074,
          "velocity": 0.11811023622047244,
          "duration": 0.11538450000000111
        },
        {
          "name": "F#2",
          "midi": 42,
          "time": 27.461511000000076,
          "velocity": 0.3937007874015748,
          "duration": 0.11538450000000111
        },
        {
          "name": "C#2",
          "midi": 37,
          "time": 27.461511000000076,
          "velocity": 0.3937007874015748,
          "duration": 0.11538450000000111
        },
        {
          "name": "F#2",
          "midi": 42,
          "time": 27.69228000000008,
          "velocity": 0.3937007874015748,
          "duration": 0.11538450000000111
        },
        {
          "name": "F#2",
          "midi": 42,
          "time": 27.92304900000008,
          "velocity": 0.3937007874015748,
          "duration": 0.11538450000000111
        },
        {
          "name": "C#2",
          "midi": 37,
          "time": 27.92304900000008,
          "velocity": 0.3937007874015748,
          "duration": 0.11538450000000111
        },
        {
          "name": "F#2",
          "midi": 42,
          "time": 28.153818000000083,
          "velocity": 0.3937007874015748,
          "duration": 0.11538450000000111
        },
        {
          "name": "D#3",
          "midi": 51,
          "time": 28.153818000000083,
          "velocity": 0.3937007874015748,
          "duration": 0.11538450000000111
        },
        {
          "name": "B1",
          "midi": 35,
          "time": 28.153818000000083,
          "velocity": 0.11811023622047244,
          "duration": 0.11538450000000111
        },
        {
          "name": "F#2",
          "midi": 42,
          "time": 28.384587000000085,
          "velocity": 0.3937007874015748,
          "duration": 0.11538450000000111
        },
        {
          "name": "F#2",
          "midi": 42,
          "time": 28.615356000000087,
          "velocity": 0.3937007874015748,
          "duration": 0.11538450000000111
        },
        {
          "name": "D#2",
          "midi": 39,
          "time": 28.615356000000087,
          "velocity": 0.3937007874015748,
          "duration": 0.11538450000000111
        },
        {
          "name": "D#3",
          "midi": 51,
          "time": 28.84612500000009,
          "velocity": 0.3937007874015748,
          "duration": 0.11538450000000111
        },
        {
          "name": "B1",
          "midi": 35,
          "time": 28.84612500000009,
          "velocity": 0.11811023622047244,
          "duration": 0.11538450000000111
        },
        {
          "name": "F#2",
          "midi": 42,
          "time": 29.07689400000009,
          "velocity": 0.3937007874015748,
          "duration": 0.11538450000000111
        },
        {
          "name": "B1",
          "midi": 35,
          "time": 29.538432000000093,
          "velocity": 0.11811023622047244,
          "duration": 0.11538450000000111
        },
        {
          "name": "F#2",
          "midi": 42,
          "time": 29.999970000000094,
          "velocity": 0.3937007874015748,
          "duration": 0.11538450000000111
        },
        {
          "name": "F#2",
          "midi": 42,
          "time": 30.230739000000096,
          "velocity": 0.3937007874015748,
          "duration": 0.11538450000000111
        },
        {
          "name": "F#2",
          "midi": 42,
          "time": 30.461508000000098,
          "velocity": 0.3937007874015748,
          "duration": 0.11538450000000111
        },
        {
          "name": "D#2",
          "midi": 39,
          "time": 30.461508000000098,
          "velocity": 0.3937007874015748,
          "duration": 0.11538450000000111
        },
        {
          "name": "F#2",
          "midi": 42,
          "time": 30.9230460000001,
          "velocity": 0.3937007874015748,
          "duration": 0.11538450000000111
        },
        {
          "name": "B1",
          "midi": 35,
          "time": 30.9230460000001,
          "velocity": 0.11811023622047244,
          "duration": 0.11538450000000111
        },
        {
          "name": "F#2",
          "midi": 42,
          "time": 31.1538150000001,
          "velocity": 0.3937007874015748,
          "duration": 0.11538450000000111
        },
        {
          "name": "C#2",
          "midi": 37,
          "time": 31.1538150000001,
          "velocity": 0.3937007874015748,
          "duration": 0.11538450000000111
        },
        {
          "name": "F#2",
          "midi": 42,
          "time": 31.384584000000103,
          "velocity": 0.3937007874015748,
          "duration": 0.11538450000000111
        },
        {
          "name": "F#2",
          "midi": 42,
          "time": 31.615353000000106,
          "velocity": 0.3937007874015748,
          "duration": 0.11538450000000111
        },
        {
          "name": "C#2",
          "midi": 37,
          "time": 31.615353000000106,
          "velocity": 0.3937007874015748,
          "duration": 0.11538450000000111
        },
        {
          "name": "F#2",
          "midi": 42,
          "time": 31.846122000000108,
          "velocity": 0.3937007874015748,
          "duration": 0.11538450000000111
        },
        {
          "name": "D#3",
          "midi": 51,
          "time": 31.846122000000108,
          "velocity": 0.3937007874015748,
          "duration": 0.11538450000000111
        },
        {
          "name": "B1",
          "midi": 35,
          "time": 31.846122000000108,
          "velocity": 0.11811023622047244,
          "duration": 0.11538450000000111
        },
        {
          "name": "F#2",
          "midi": 42,
          "time": 32.07689100000011,
          "velocity": 0.3937007874015748,
          "duration": 0.11538449999999756
        },
        {
          "name": "F#2",
          "midi": 42,
          "time": 32.307660000000105,
          "velocity": 0.3937007874015748,
          "duration": 0.11538449999999756
        },
        {
          "name": "D#2",
          "midi": 39,
          "time": 32.307660000000105,
          "velocity": 0.3937007874015748,
          "duration": 0.11538449999999756
        },
        {
          "name": "B1",
          "midi": 35,
          "time": 32.5384290000001,
          "velocity": 0.11811023622047244,
          "duration": 0.11538449999999756
        },
        {
          "name": "F#2",
          "midi": 42,
          "time": 32.769198000000095,
          "velocity": 0.3937007874015748,
          "duration": 0.11538449999999756
        },
        {
          "name": "F#2",
          "midi": 42,
          "time": 32.88458250000009,
          "velocity": 0.3937007874015748,
          "duration": 0.11538449999999756
        },
        {
          "name": "F#2",
          "midi": 42,
          "time": 32.99996700000009,
          "velocity": 0.3937007874015748,
          "duration": 0.11538449999999756
        },
        {
          "name": "A#2",
          "midi": 46,
          "time": 33.230736000000086,
          "velocity": 0.3937007874015748,
          "duration": 0.11538449999999756
        },
        {
          "name": "B1",
          "midi": 35,
          "time": 33.230736000000086,
          "velocity": 0.11811023622047244,
          "duration": 0.11538449999999756
        },
        {
          "name": "F#2",
          "midi": 42,
          "time": 33.923043000000085,
          "velocity": 0.3937007874015748,
          "duration": 0.11538449999999756
        },
        {
          "name": "F#2",
          "midi": 42,
          "time": 34.15381200000008,
          "velocity": 0.3937007874015748,
          "duration": 0.11538449999999756
        },
        {
          "name": "D#2",
          "midi": 39,
          "time": 34.15381200000008,
          "velocity": 0.3937007874015748,
          "duration": 0.11538449999999756
        },
        {
          "name": "F#2",
          "midi": 42,
          "time": 34.61535000000008,
          "velocity": 0.3937007874015748,
          "duration": 0.11538449999999756
        },
        {
          "name": "B1",
          "midi": 35,
          "time": 34.61535000000008,
          "velocity": 0.11811023622047244,
          "duration": 0.11538449999999756
        },
        {
          "name": "F#2",
          "midi": 42,
          "time": 34.84611900000007,
          "velocity": 0.3937007874015748,
          "duration": 0.11538449999999756
        },
        {
          "name": "C#2",
          "midi": 37,
          "time": 34.84611900000007,
          "velocity": 0.3937007874015748,
          "duration": 0.11538449999999756
        },
        {
          "name": "F#2",
          "midi": 42,
          "time": 35.07688800000007,
          "velocity": 0.3937007874015748,
          "duration": 0.11538449999999756
        },
        {
          "name": "F#2",
          "midi": 42,
          "time": 35.30765700000006,
          "velocity": 0.3937007874015748,
          "duration": 0.11538449999999756
        },
        {
          "name": "C#2",
          "midi": 37,
          "time": 35.30765700000006,
          "velocity": 0.3937007874015748,
          "duration": 0.11538449999999756
        },
        {
          "name": "F#2",
          "midi": 42,
          "time": 35.53842600000006,
          "velocity": 0.3937007874015748,
          "duration": 0.11538449999999756
        },
        {
          "name": "D#3",
          "midi": 51,
          "time": 35.53842600000006,
          "velocity": 0.3937007874015748,
          "duration": 0.11538449999999756
        },
        {
          "name": "B1",
          "midi": 35,
          "time": 35.53842600000006,
          "velocity": 0.11811023622047244,
          "duration": 0.11538449999999756
        },
        {
          "name": "F#2",
          "midi": 42,
          "time": 35.76919500000005,
          "velocity": 0.3937007874015748,
          "duration": 0.11538449999999756
        },
        {
          "name": "F#2",
          "midi": 42,
          "time": 35.99996400000005,
          "velocity": 0.3937007874015748,
          "duration": 0.11538449999999756
        },
        {
          "name": "D#2",
          "midi": 39,
          "time": 35.99996400000005,
          "velocity": 0.3937007874015748,
          "duration": 0.11538449999999756
        },
        {
          "name": "D#3",
          "midi": 51,
          "time": 36.23073300000004,
          "velocity": 0.3937007874015748,
          "duration": 0.11538449999999756
        },
        {
          "name": "B1",
          "midi": 35,
          "time": 36.23073300000004,
          "velocity": 0.11811023622047244,
          "duration": 0.11538449999999756
        },
        {
          "name": "F#2",
          "midi": 42,
          "time": 36.46150200000004,
          "velocity": 0.3937007874015748,
          "duration": 0.11538449999999756
        },
        {
          "name": "B1",
          "midi": 35,
          "time": 36.923040000000036,
          "velocity": 0.11811023622047244,
          "duration": 0.11538449999999756
        },
        {
          "name": "F#2",
          "midi": 42,
          "time": 36.923040000000036,
          "velocity": 0.3937007874015748,
          "duration": 0.11538449999999756
        },
        {
          "name": "F#2",
          "midi": 42,
          "time": 37.38457800000003,
          "velocity": 0.3937007874015748,
          "duration": 0.11538449999999756
        },
        {
          "name": "F#2",
          "midi": 42,
          "time": 37.61534700000003,
          "velocity": 0.3937007874015748,
          "duration": 0.11538449999999756
        },
        {
          "name": "F#2",
          "midi": 42,
          "time": 37.84611600000002,
          "velocity": 0.3937007874015748,
          "duration": 0.11538449999999756
        },
        {
          "name": "D#2",
          "midi": 39,
          "time": 37.84611600000002,
          "velocity": 0.3937007874015748,
          "duration": 0.11538449999999756
        },
        {
          "name": "F#2",
          "midi": 42,
          "time": 38.30765400000002,
          "velocity": 0.3937007874015748,
          "duration": 0.11538449999999756
        },
        {
          "name": "B1",
          "midi": 35,
          "time": 38.30765400000002,
          "velocity": 0.11811023622047244,
          "duration": 0.11538449999999756
        },
        {
          "name": "F#2",
          "midi": 42,
          "time": 38.538423000000016,
          "velocity": 0.3937007874015748,
          "duration": 0.11538449999999756
        },
        {
          "name": "C#2",
          "midi": 37,
          "time": 38.538423000000016,
          "velocity": 0.3937007874015748,
          "duration": 0.11538449999999756
        },
        {
          "name": "F#2",
          "midi": 42,
          "time": 38.76919200000001,
          "velocity": 0.3937007874015748,
          "duration": 0.11538449999999756
        },
        {
          "name": "F#2",
          "midi": 42,
          "time": 38.999961000000006,
          "velocity": 0.3937007874015748,
          "duration": 0.11538449999999756
        },
        {
          "name": "C#2",
          "midi": 37,
          "time": 38.999961000000006,
          "velocity": 0.3937007874015748,
          "duration": 0.11538449999999756
        },
        {
          "name": "F#2",
          "midi": 42,
          "time": 39.23073,
          "velocity": 0.3937007874015748,
          "duration": 0.11538449999999756
        },
        {
          "name": "D#3",
          "midi": 51,
          "time": 39.23073,
          "velocity": 0.3937007874015748,
          "duration": 0.11538449999999756
        },
        {
          "name": "B1",
          "midi": 35,
          "time": 39.23073,
          "velocity": 0.11811023622047244,
          "duration": 0.11538449999999756
        },
        {
          "name": "F#2",
          "midi": 42,
          "time": 39.461498999999996,
          "velocity": 0.3937007874015748,
          "duration": 0.11538449999999756
        },
        {
          "name": "F#2",
          "midi": 42,
          "time": 39.69226799999999,
          "velocity": 0.3937007874015748,
          "duration": 0.11538449999999756
        },
        {
          "name": "D#2",
          "midi": 39,
          "time": 39.69226799999999,
          "velocity": 0.3937007874015748,
          "duration": 0.11538449999999756
        },
        {
          "name": "B1",
          "midi": 35,
          "time": 39.92303699999999,
          "velocity": 0.11811023622047244,
          "duration": 0.11538449999999756
        },
        {
          "name": "F#2",
          "midi": 42,
          "time": 40.15380599999998,
          "velocity": 0.3937007874015748,
          "duration": 0.11538449999999756
        },
        {
          "name": "F#2",
          "midi": 42,
          "time": 40.26919049999998,
          "velocity": 0.3937007874015748,
          "duration": 0.11538449999999756
        },
        {
          "name": "F#2",
          "midi": 42,
          "time": 40.38457499999998,
          "velocity": 0.3937007874015748,
          "duration": 0.11538449999999756
        },
        {
          "name": "A#2",
          "midi": 46,
          "time": 40.61534399999997,
          "velocity": 0.3937007874015748,
          "duration": 0.11538449999999756
        },
        {
          "name": "B1",
          "midi": 35,
          "time": 40.61534399999997,
          "velocity": 0.11811023622047244,
          "duration": 0.11538449999999756
        },
        {
          "name": "F#2",
          "midi": 42,
          "time": 41.30765099999997,
          "velocity": 0.3937007874015748,
          "duration": 0.11538449999999756
        },
        {
          "name": "F#2",
          "midi": 42,
          "time": 41.53841999999997,
          "velocity": 0.3937007874015748,
          "duration": 0.11538449999999756
        },
        {
          "name": "D#2",
          "midi": 39,
          "time": 41.53841999999997,
          "velocity": 0.3937007874015748,
          "duration": 0.11538449999999756
        },
        {
          "name": "F#2",
          "midi": 42,
          "time": 41.999957999999964,
          "velocity": 0.3937007874015748,
          "duration": 0.11538449999999756
        },
        {
          "name": "B1",
          "midi": 35,
          "time": 41.999957999999964,
          "velocity": 0.11811023622047244,
          "duration": 0.11538449999999756
        },
        {
          "name": "F#2",
          "midi": 42,
          "time": 42.23072699999996,
          "velocity": 0.3937007874015748,
          "duration": 0.11538449999999756
        },
        {
          "name": "C#2",
          "midi": 37,
          "time": 42.23072699999996,
          "velocity": 0.3937007874015748,
          "duration": 0.11538449999999756
        },
        {
          "name": "F#2",
          "midi": 42,
          "time": 42.461495999999954,
          "velocity": 0.3937007874015748,
          "duration": 0.11538449999999756
        },
        {
          "name": "F#2",
          "midi": 42,
          "time": 42.69226499999995,
          "velocity": 0.3937007874015748,
          "duration": 0.11538449999999756
        },
        {
          "name": "C#2",
          "midi": 37,
          "time": 42.69226499999995,
          "velocity": 0.3937007874015748,
          "duration": 0.11538449999999756
        },
        {
          "name": "F#2",
          "midi": 42,
          "time": 42.923033999999944,
          "velocity": 0.3937007874015748,
          "duration": 0.11538449999999756
        },
        {
          "name": "D#3",
          "midi": 51,
          "time": 42.923033999999944,
          "velocity": 0.3937007874015748,
          "duration": 0.11538449999999756
        },
        {
          "name": "B1",
          "midi": 35,
          "time": 42.923033999999944,
          "velocity": 0.11811023622047244,
          "duration": 0.11538449999999756
        },
        {
          "name": "F#2",
          "midi": 42,
          "time": 43.15380299999994,
          "velocity": 0.3937007874015748,
          "duration": 0.11538449999999756
        },
        {
          "name": "F#2",
          "midi": 42,
          "time": 43.384571999999935,
          "velocity": 0.3937007874015748,
          "duration": 0.11538449999999756
        },
        {
          "name": "D#2",
          "midi": 39,
          "time": 43.384571999999935,
          "velocity": 0.3937007874015748,
          "duration": 0.11538449999999756
        },
        {
          "name": "D#3",
          "midi": 51,
          "time": 43.61534099999993,
          "velocity": 0.3937007874015748,
          "duration": 0.11538449999999756
        },
        {
          "name": "B1",
          "midi": 35,
          "time": 43.61534099999993,
          "velocity": 0.11811023622047244,
          "duration": 0.11538449999999756
        },
        {
          "name": "F#2",
          "midi": 42,
          "time": 43.846109999999925,
          "velocity": 0.3937007874015748,
          "duration": 0.11538449999999756
        },
        {
          "name": "F#2",
          "midi": 42,
          "time": 45.230723999999924,
          "velocity": 0.3937007874015748,
          "duration": 0.11538449999999756
        },
        {
          "name": "D#2",
          "midi": 39,
          "time": 45.230723999999924,
          "velocity": 0.3937007874015748,
          "duration": 0.11538449999999756
        },
        {
          "name": "F#2",
          "midi": 42,
          "time": 45.69226199999992,
          "velocity": 0.3937007874015748,
          "duration": 0.11538449999999756
        },
        {
          "name": "B1",
          "midi": 35,
          "time": 45.69226199999992,
          "velocity": 0.11811023622047244,
          "duration": 0.11538449999999756
        },
        {
          "name": "F#2",
          "midi": 42,
          "time": 45.923030999999916,
          "velocity": 0.3937007874015748,
          "duration": 0.11538449999999756
        },
        {
          "name": "C#2",
          "midi": 37,
          "time": 45.923030999999916,
          "velocity": 0.3937007874015748,
          "duration": 0.11538449999999756
        },
        {
          "name": "F#2",
          "midi": 42,
          "time": 46.15379999999991,
          "velocity": 0.3937007874015748,
          "duration": 0.11538449999999756
        },
        {
          "name": "F#2",
          "midi": 42,
          "time": 46.38456899999991,
          "velocity": 0.3937007874015748,
          "duration": 0.11538449999999756
        },
        {
          "name": "C#2",
          "midi": 37,
          "time": 46.38456899999991,
          "velocity": 0.3937007874015748,
          "duration": 0.11538449999999756
        },
        {
          "name": "F#2",
          "midi": 42,
          "time": 46.6153379999999,
          "velocity": 0.3937007874015748,
          "duration": 0.11538449999999756
        },
        {
          "name": "D#3",
          "midi": 51,
          "time": 46.6153379999999,
          "velocity": 0.3937007874015748,
          "duration": 0.11538449999999756
        },
        {
          "name": "B1",
          "midi": 35,
          "time": 46.6153379999999,
          "velocity": 0.11811023622047244,
          "duration": 0.11538449999999756
        },
        {
          "name": "F#2",
          "midi": 42,
          "time": 46.8461069999999,
          "velocity": 0.3937007874015748,
          "duration": 0.11538449999999756
        },
        {
          "name": "F#2",
          "midi": 42,
          "time": 47.07687599999989,
          "velocity": 0.3937007874015748,
          "duration": 0.11538449999999756
        },
        {
          "name": "D#2",
          "midi": 39,
          "time": 47.07687599999989,
          "velocity": 0.3937007874015748,
          "duration": 0.11538449999999756
        },
        {
          "name": "B1",
          "midi": 35,
          "time": 47.30764499999989,
          "velocity": 0.11811023622047244,
          "duration": 0.11538449999999756
        },
        {
          "name": "F#2",
          "midi": 42,
          "time": 47.53841399999988,
          "velocity": 0.3937007874015748,
          "duration": 0.11538449999999756
        },
        {
          "name": "F#2",
          "midi": 42,
          "time": 47.65379849999988,
          "velocity": 0.3937007874015748,
          "duration": 0.11538449999999756
        },
        {
          "name": "F#2",
          "midi": 42,
          "time": 47.76918299999988,
          "velocity": 0.3937007874015748,
          "duration": 0.11538449999999756
        },
        {
          "name": "A#2",
          "midi": 46,
          "time": 47.99995199999987,
          "velocity": 0.3937007874015748,
          "duration": 0.11538449999999756
        },
        {
          "name": "B1",
          "midi": 35,
          "time": 47.99995199999987,
          "velocity": 0.11811023622047244,
          "duration": 0.11538449999999756
        },
        {
          "name": "F#2",
          "midi": 42,
          "time": 48.69225899999987,
          "velocity": 0.3937007874015748,
          "duration": 0.11538449999999756
        },
        {
          "name": "F#2",
          "midi": 42,
          "time": 48.92302799999987,
          "velocity": 0.3937007874015748,
          "duration": 0.11538449999999756
        },
        {
          "name": "D#2",
          "midi": 39,
          "time": 48.92302799999987,
          "velocity": 0.3937007874015748,
          "duration": 0.11538449999999756
        },
        {
          "name": "F#2",
          "midi": 42,
          "time": 49.384565999999865,
          "velocity": 0.3937007874015748,
          "duration": 0.11538449999999756
        },
        {
          "name": "B1",
          "midi": 35,
          "time": 49.384565999999865,
          "velocity": 0.11811023622047244,
          "duration": 0.11538449999999756
        },
        {
          "name": "F#2",
          "midi": 42,
          "time": 49.61533499999986,
          "velocity": 0.3937007874015748,
          "duration": 0.11538449999999756
        },
        {
          "name": "C#2",
          "midi": 37,
          "time": 49.61533499999986,
          "velocity": 0.3937007874015748,
          "duration": 0.11538449999999756
        },
        {
          "name": "F#2",
          "midi": 42,
          "time": 49.846103999999855,
          "velocity": 0.3937007874015748,
          "duration": 0.11538449999999756
        },
        {
          "name": "F#2",
          "midi": 42,
          "time": 50.07687299999985,
          "velocity": 0.3937007874015748,
          "duration": 0.11538449999999756
        },
        {
          "name": "C#2",
          "midi": 37,
          "time": 50.07687299999985,
          "velocity": 0.3937007874015748,
          "duration": 0.11538449999999756
        },
        {
          "name": "F#2",
          "midi": 42,
          "time": 50.307641999999845,
          "velocity": 0.3937007874015748,
          "duration": 0.11538449999999756
        },
        {
          "name": "D#3",
          "midi": 51,
          "time": 50.307641999999845,
          "velocity": 0.3937007874015748,
          "duration": 0.11538449999999756
        },
        {
          "name": "B1",
          "midi": 35,
          "time": 50.307641999999845,
          "velocity": 0.11811023622047244,
          "duration": 0.11538449999999756
        },
        {
          "name": "F#2",
          "midi": 42,
          "time": 50.53841099999984,
          "velocity": 0.3937007874015748,
          "duration": 0.11538449999999756
        },
        {
          "name": "F#2",
          "midi": 42,
          "time": 50.769179999999835,
          "velocity": 0.3937007874015748,
          "duration": 0.11538449999999756
        },
        {
          "name": "D#2",
          "midi": 39,
          "time": 50.769179999999835,
          "velocity": 0.3937007874015748,
          "duration": 0.11538449999999756
        },
        {
          "name": "D#3",
          "midi": 51,
          "time": 50.99994899999983,
          "velocity": 0.3937007874015748,
          "duration": 0.11538449999999756
        },
        {
          "name": "B1",
          "midi": 35,
          "time": 50.99994899999983,
          "velocity": 0.11811023622047244,
          "duration": 0.11538449999999756
        },
        {
          "name": "F#2",
          "midi": 42,
          "time": 51.230717999999825,
          "velocity": 0.3937007874015748,
          "duration": 0.11538449999999756
        },
        {
          "name": "B1",
          "midi": 35,
          "time": 51.69225599999982,
          "velocity": 0.11811023622047244,
          "duration": 0.11538449999999756
        },
        {
          "name": "F#2",
          "midi": 42,
          "time": 51.69225599999982,
          "velocity": 0.3937007874015748,
          "duration": 0.11538449999999756
        },
        {
          "name": "F#2",
          "midi": 42,
          "time": 52.15379399999982,
          "velocity": 0.3937007874015748,
          "duration": 0.11538449999999756
        },
        {
          "name": "F#2",
          "midi": 42,
          "time": 52.384562999999815,
          "velocity": 0.3937007874015748,
          "duration": 0.11538449999999756
        },
        {
          "name": "F#2",
          "midi": 42,
          "time": 52.61533199999981,
          "velocity": 0.3937007874015748,
          "duration": 0.11538449999999756
        },
        {
          "name": "D#2",
          "midi": 39,
          "time": 52.61533199999981,
          "velocity": 0.3937007874015748,
          "duration": 0.11538449999999756
        },
        {
          "name": "F#2",
          "midi": 42,
          "time": 53.07686999999981,
          "velocity": 0.3937007874015748,
          "duration": 0.11538449999999756
        },
        {
          "name": "B1",
          "midi": 35,
          "time": 53.07686999999981,
          "velocity": 0.11811023622047244,
          "duration": 0.11538449999999756
        },
        {
          "name": "F#2",
          "midi": 42,
          "time": 53.3076389999998,
          "velocity": 0.3937007874015748,
          "duration": 0.11538449999999756
        },
        {
          "name": "C#2",
          "midi": 37,
          "time": 53.3076389999998,
          "velocity": 0.3937007874015748,
          "duration": 0.11538449999999756
        },
        {
          "name": "F#2",
          "midi": 42,
          "time": 53.5384079999998,
          "velocity": 0.3937007874015748,
          "duration": 0.11538449999999756
        },
        {
          "name": "F#2",
          "midi": 42,
          "time": 53.76917699999979,
          "velocity": 0.3937007874015748,
          "duration": 0.11538449999999756
        },
        {
          "name": "C#2",
          "midi": 37,
          "time": 53.76917699999979,
          "velocity": 0.3937007874015748,
          "duration": 0.11538449999999756
        },
        {
          "name": "F#2",
          "midi": 42,
          "time": 53.99994599999979,
          "velocity": 0.3937007874015748,
          "duration": 0.11538449999999756
        },
        {
          "name": "D#3",
          "midi": 51,
          "time": 53.99994599999979,
          "velocity": 0.3937007874015748,
          "duration": 0.11538449999999756
        },
        {
          "name": "B1",
          "midi": 35,
          "time": 53.99994599999979,
          "velocity": 0.11811023622047244,
          "duration": 0.11538449999999756
        },
        {
          "name": "F#2",
          "midi": 42,
          "time": 54.23071499999978,
          "velocity": 0.3937007874015748,
          "duration": 0.11538449999999756
        },
        {
          "name": "F#2",
          "midi": 42,
          "time": 54.46148399999978,
          "velocity": 0.3937007874015748,
          "duration": 0.11538449999999756
        },
        {
          "name": "D#2",
          "midi": 39,
          "time": 54.46148399999978,
          "velocity": 0.3937007874015748,
          "duration": 0.11538449999999756
        },
        {
          "name": "B1",
          "midi": 35,
          "time": 54.69225299999977,
          "velocity": 0.11811023622047244,
          "duration": 0.11538449999999756
        },
        {
          "name": "F#2",
          "midi": 42,
          "time": 54.92302199999977,
          "velocity": 0.3937007874015748,
          "duration": 0.11538449999999756
        },
        {
          "name": "F#2",
          "midi": 42,
          "time": 55.038406499999766,
          "velocity": 0.3937007874015748,
          "duration": 0.11538449999999756
        },
        {
          "name": "F#2",
          "midi": 42,
          "time": 55.153790999999764,
          "velocity": 0.3937007874015748,
          "duration": 0.11538449999999756
        },
        {
          "name": "A#2",
          "midi": 46,
          "time": 55.38455999999976,
          "velocity": 0.3937007874015748,
          "duration": 0.11538449999999756
        },
        {
          "name": "B1",
          "midi": 35,
          "time": 55.38455999999976,
          "velocity": 0.11811023622047244,
          "duration": 0.11538449999999756
        },
        {
          "name": "F#2",
          "midi": 42,
          "time": 56.07686699999976,
          "velocity": 0.3937007874015748,
          "duration": 0.11538449999999756
        },
        {
          "name": "F#2",
          "midi": 42,
          "time": 56.30763599999975,
          "velocity": 0.3937007874015748,
          "duration": 0.11538449999999756
        },
        {
          "name": "D#2",
          "midi": 39,
          "time": 56.30763599999975,
          "velocity": 0.3937007874015748,
          "duration": 0.11538449999999756
        },
        {
          "name": "F#2",
          "midi": 42,
          "time": 56.76917399999975,
          "velocity": 0.3937007874015748,
          "duration": 0.11538449999999756
        },
        {
          "name": "B1",
          "midi": 35,
          "time": 56.76917399999975,
          "velocity": 0.11811023622047244,
          "duration": 0.11538449999999756
        },
        {
          "name": "F#2",
          "midi": 42,
          "time": 56.999942999999746,
          "velocity": 0.3937007874015748,
          "duration": 0.11538449999999756
        },
        {
          "name": "C#2",
          "midi": 37,
          "time": 56.999942999999746,
          "velocity": 0.3937007874015748,
          "duration": 0.11538449999999756
        },
        {
          "name": "F#2",
          "midi": 42,
          "time": 57.23071199999974,
          "velocity": 0.3937007874015748,
          "duration": 0.11538449999999756
        },
        {
          "name": "F#2",
          "midi": 42,
          "time": 57.461480999999736,
          "velocity": 0.3937007874015748,
          "duration": 0.11538449999999756
        },
        {
          "name": "C#2",
          "midi": 37,
          "time": 57.461480999999736,
          "velocity": 0.3937007874015748,
          "duration": 0.11538449999999756
        },
        {
          "name": "F#2",
          "midi": 42,
          "time": 57.69224999999973,
          "velocity": 0.3937007874015748,
          "duration": 0.11538449999999756
        },
        {
          "name": "D#3",
          "midi": 51,
          "time": 57.69224999999973,
          "velocity": 0.3937007874015748,
          "duration": 0.11538449999999756
        },
        {
          "name": "B1",
          "midi": 35,
          "time": 57.69224999999973,
          "velocity": 0.11811023622047244,
          "duration": 0.11538449999999756
        },
        {
          "name": "F#2",
          "midi": 42,
          "time": 57.92301899999973,
          "velocity": 0.3937007874015748,
          "duration": 0.11538449999999756
        },
        {
          "name": "F#2",
          "midi": 42,
          "time": 58.15378799999972,
          "velocity": 0.3937007874015748,
          "duration": 0.11538449999999756
        },
        {
          "name": "D#2",
          "midi": 39,
          "time": 58.15378799999972,
          "velocity": 0.3937007874015748,
          "duration": 0.11538449999999756
        },
        {
          "name": "D#3",
          "midi": 51,
          "time": 58.38455699999972,
          "velocity": 0.3937007874015748,
          "duration": 0.11538449999999756
        },
        {
          "name": "B1",
          "midi": 35,
          "time": 58.38455699999972,
          "velocity": 0.11811023622047244,
          "duration": 0.11538449999999756
        },
        {
          "name": "F#2",
          "midi": 42,
          "time": 58.61532599999971,
          "velocity": 0.3937007874015748,
          "duration": 0.11538449999999756
        },
        {
          "name": "B1",
          "midi": 35,
          "time": 59.07686399999971,
          "velocity": 0.11811023622047244,
          "duration": 0.11538449999999756
        },
        {
          "name": "F#2",
          "midi": 42,
          "time": 59.53840199999971,
          "velocity": 0.3937007874015748,
          "duration": 0.11538449999999756
        },
        {
          "name": "F#2",
          "midi": 42,
          "time": 59.7691709999997,
          "velocity": 0.3937007874015748,
          "duration": 0.11538449999999756
        },
        {
          "name": "F#2",
          "midi": 42,
          "time": 59.9999399999997,
          "velocity": 0.3937007874015748,
          "duration": 0.11538449999999756
        },
        {
          "name": "D#2",
          "midi": 39,
          "time": 59.9999399999997,
          "velocity": 0.3937007874015748,
          "duration": 0.11538449999999756
        },
        {
          "name": "F#2",
          "midi": 42,
          "time": 60.461477999999694,
          "velocity": 0.3937007874015748,
          "duration": 0.11538449999999756
        },
        {
          "name": "B1",
          "midi": 35,
          "time": 60.461477999999694,
          "velocity": 0.11811023622047244,
          "duration": 0.11538449999999756
        },
        {
          "name": "F#2",
          "midi": 42,
          "time": 60.69224699999969,
          "velocity": 0.3937007874015748,
          "duration": 0.11538449999999756
        },
        {
          "name": "C#2",
          "midi": 37,
          "time": 60.69224699999969,
          "velocity": 0.3937007874015748,
          "duration": 0.11538449999999756
        },
        {
          "name": "F#2",
          "midi": 42,
          "time": 60.923015999999684,
          "velocity": 0.3937007874015748,
          "duration": 0.11538449999999756
        },
        {
          "name": "F#2",
          "midi": 42,
          "time": 61.15378499999968,
          "velocity": 0.3937007874015748,
          "duration": 0.11538449999999756
        },
        {
          "name": "C#2",
          "midi": 37,
          "time": 61.15378499999968,
          "velocity": 0.3937007874015748,
          "duration": 0.11538449999999756
        },
        {
          "name": "F#2",
          "midi": 42,
          "time": 61.384553999999675,
          "velocity": 0.3937007874015748,
          "duration": 0.11538449999999756
        },
        {
          "name": "D#3",
          "midi": 51,
          "time": 61.384553999999675,
          "velocity": 0.3937007874015748,
          "duration": 0.11538449999999756
        },
        {
          "name": "B1",
          "midi": 35,
          "time": 61.384553999999675,
          "velocity": 0.11811023622047244,
          "duration": 0.11538449999999756
        },
        {
          "name": "F#2",
          "midi": 42,
          "time": 61.61532299999967,
          "velocity": 0.3937007874015748,
          "duration": 0.11538449999999756
        },
        {
          "name": "F#2",
          "midi": 42,
          "time": 61.846091999999665,
          "velocity": 0.3937007874015748,
          "duration": 0.11538449999999756
        },
        {
          "name": "D#2",
          "midi": 39,
          "time": 61.846091999999665,
          "velocity": 0.3937007874015748,
          "duration": 0.11538449999999756
        },
        {
          "name": "B1",
          "midi": 35,
          "time": 62.07686099999966,
          "velocity": 0.11811023622047244,
          "duration": 0.11538449999999756
        },
        {
          "name": "F#2",
          "midi": 42,
          "time": 62.307629999999655,
          "velocity": 0.3937007874015748,
          "duration": 0.11538449999999756
        },
        {
          "name": "F#2",
          "midi": 42,
          "time": 62.42301449999965,
          "velocity": 0.3937007874015748,
          "duration": 0.11538449999999756
        },
        {
          "name": "F#2",
          "midi": 42,
          "time": 62.53839899999965,
          "velocity": 0.3937007874015748,
          "duration": 0.11538449999999756
        },
        {
          "name": "A#2",
          "midi": 46,
          "time": 62.769167999999645,
          "velocity": 0.3937007874015748,
          "duration": 0.11538449999999756
        },
        {
          "name": "B1",
          "midi": 35,
          "time": 62.769167999999645,
          "velocity": 0.11811023622047244,
          "duration": 0.11538449999999756
        },
        {
          "name": "F#2",
          "midi": 42,
          "time": 63.461474999999645,
          "velocity": 0.3937007874015748,
          "duration": 0.11538449999999756
        },
        {
          "name": "F#2",
          "midi": 42,
          "time": 63.69224399999964,
          "velocity": 0.3937007874015748,
          "duration": 0.11538449999999756
        },
        {
          "name": "D#2",
          "midi": 39,
          "time": 63.69224399999964,
          "velocity": 0.3937007874015748,
          "duration": 0.11538449999999756
        },
        {
          "name": "F#2",
          "midi": 42,
          "time": 64.15378199999964,
          "velocity": 0.3937007874015748,
          "duration": 0.11538450000000466
        },
        {
          "name": "B1",
          "midi": 35,
          "time": 64.15378199999964,
          "velocity": 0.11811023622047244,
          "duration": 0.11538450000000466
        },
        {
          "name": "F#2",
          "midi": 42,
          "time": 64.38455099999965,
          "velocity": 0.3937007874015748,
          "duration": 0.11538450000000466
        },
        {
          "name": "C#2",
          "midi": 37,
          "time": 64.38455099999965,
          "velocity": 0.3937007874015748,
          "duration": 0.11538450000000466
        },
        {
          "name": "F#2",
          "midi": 42,
          "time": 64.61531999999966,
          "velocity": 0.3937007874015748,
          "duration": 0.11538450000000466
        },
        {
          "name": "F#2",
          "midi": 42,
          "time": 64.84608899999967,
          "velocity": 0.3937007874015748,
          "duration": 0.11538450000000466
        },
        {
          "name": "C#2",
          "midi": 37,
          "time": 64.84608899999967,
          "velocity": 0.3937007874015748,
          "duration": 0.11538450000000466
        },
        {
          "name": "F#2",
          "midi": 42,
          "time": 65.07685799999967,
          "velocity": 0.3937007874015748,
          "duration": 0.11538450000000466
        },
        {
          "name": "D#3",
          "midi": 51,
          "time": 65.07685799999967,
          "velocity": 0.3937007874015748,
          "duration": 0.11538450000000466
        },
        {
          "name": "B1",
          "midi": 35,
          "time": 65.07685799999967,
          "velocity": 0.11811023622047244,
          "duration": 0.11538450000000466
        },
        {
          "name": "F#2",
          "midi": 42,
          "time": 65.30762699999968,
          "velocity": 0.3937007874015748,
          "duration": 0.11538450000000466
        },
        {
          "name": "F#2",
          "midi": 42,
          "time": 65.5383959999997,
          "velocity": 0.3937007874015748,
          "duration": 0.11538450000000466
        },
        {
          "name": "D#2",
          "midi": 39,
          "time": 65.5383959999997,
          "velocity": 0.3937007874015748,
          "duration": 0.11538450000000466
        },
        {
          "name": "D#3",
          "midi": 51,
          "time": 65.7691649999997,
          "velocity": 0.3937007874015748,
          "duration": 0.11538450000000466
        },
        {
          "name": "B1",
          "midi": 35,
          "time": 65.7691649999997,
          "velocity": 0.11811023622047244,
          "duration": 0.11538450000000466
        },
        {
          "name": "F#2",
          "midi": 42,
          "time": 65.99993399999971,
          "velocity": 0.3937007874015748,
          "duration": 0.11538450000000466
        },
        {
          "name": "B1",
          "midi": 35,
          "time": 66.46147199999972,
          "velocity": 0.11811023622047244,
          "duration": 0.11538450000000466
        },
        {
          "name": "F#2",
          "midi": 42,
          "time": 66.46147199999972,
          "velocity": 0.3937007874015748,
          "duration": 0.11538450000000466
        },
        {
          "name": "F#2",
          "midi": 42,
          "time": 66.92300999999972,
          "velocity": 0.3937007874015748,
          "duration": 0.11538450000000466
        },
        {
          "name": "F#2",
          "midi": 42,
          "time": 67.15377899999973,
          "velocity": 0.3937007874015748,
          "duration": 0.11538450000000466
        },
        {
          "name": "F#2",
          "midi": 42,
          "time": 67.38454799999974,
          "velocity": 0.3937007874015748,
          "duration": 0.11538450000000466
        },
        {
          "name": "D#2",
          "midi": 39,
          "time": 67.38454799999974,
          "velocity": 0.3937007874015748,
          "duration": 0.11538450000000466
        },
        {
          "name": "F#2",
          "midi": 42,
          "time": 67.84608599999974,
          "velocity": 0.3937007874015748,
          "duration": 0.11538450000000466
        },
        {
          "name": "B1",
          "midi": 35,
          "time": 67.84608599999974,
          "velocity": 0.11811023622047244,
          "duration": 0.11538450000000466
        },
        {
          "name": "F#2",
          "midi": 42,
          "time": 68.07685499999975,
          "velocity": 0.3937007874015748,
          "duration": 0.11538450000000466
        },
        {
          "name": "C#2",
          "midi": 37,
          "time": 68.07685499999975,
          "velocity": 0.3937007874015748,
          "duration": 0.11538450000000466
        },
        {
          "name": "F#2",
          "midi": 42,
          "time": 68.30762399999976,
          "velocity": 0.3937007874015748,
          "duration": 0.11538450000000466
        },
        {
          "name": "F#2",
          "midi": 42,
          "time": 68.53839299999977,
          "velocity": 0.3937007874015748,
          "duration": 0.11538450000000466
        },
        {
          "name": "C#2",
          "midi": 37,
          "time": 68.53839299999977,
          "velocity": 0.3937007874015748,
          "duration": 0.11538450000000466
        },
        {
          "name": "F#2",
          "midi": 42,
          "time": 68.76916199999978,
          "velocity": 0.3937007874015748,
          "duration": 0.11538450000000466
        },
        {
          "name": "D#3",
          "midi": 51,
          "time": 68.76916199999978,
          "velocity": 0.3937007874015748,
          "duration": 0.11538450000000466
        },
        {
          "name": "B1",
          "midi": 35,
          "time": 68.76916199999978,
          "velocity": 0.11811023622047244,
          "duration": 0.11538450000000466
        },
        {
          "name": "F#2",
          "midi": 42,
          "time": 68.99993099999979,
          "velocity": 0.3937007874015748,
          "duration": 0.11538450000000466
        },
        {
          "name": "F#2",
          "midi": 42,
          "time": 69.2306999999998,
          "velocity": 0.3937007874015748,
          "duration": 0.11538450000000466
        },
        {
          "name": "D#2",
          "midi": 39,
          "time": 69.2306999999998,
          "velocity": 0.3937007874015748,
          "duration": 0.11538450000000466
        },
        {
          "name": "B1",
          "midi": 35,
          "time": 69.46146899999981,
          "velocity": 0.11811023622047244,
          "duration": 0.11538450000000466
        },
        {
          "name": "F#2",
          "midi": 42,
          "time": 69.69223799999982,
          "velocity": 0.3937007874015748,
          "duration": 0.11538450000000466
        },
        {
          "name": "F#2",
          "midi": 42,
          "time": 69.80762249999982,
          "velocity": 0.3937007874015748,
          "duration": 0.11538450000000466
        },
        {
          "name": "F#2",
          "midi": 42,
          "time": 69.92300699999983,
          "velocity": 0.3937007874015748,
          "duration": 0.11538450000000466
        },
        {
          "name": "A#2",
          "midi": 46,
          "time": 70.15377599999984,
          "velocity": 0.3937007874015748,
          "duration": 0.11538450000000466
        },
        {
          "name": "B1",
          "midi": 35,
          "time": 70.15377599999984,
          "velocity": 0.11811023622047244,
          "duration": 0.11538450000000466
        },
        {
          "name": "F#2",
          "midi": 42,
          "time": 70.84608299999984,
          "velocity": 0.3937007874015748,
          "duration": 0.11538450000000466
        },
        {
          "name": "F#2",
          "midi": 42,
          "time": 71.07685199999985,
          "velocity": 0.3937007874015748,
          "duration": 0.11538450000000466
        },
        {
          "name": "D#2",
          "midi": 39,
          "time": 71.07685199999985,
          "velocity": 0.3937007874015748,
          "duration": 0.11538450000000466
        },
        {
          "name": "F#2",
          "midi": 42,
          "time": 71.53838999999985,
          "velocity": 0.3937007874015748,
          "duration": 0.11538450000000466
        },
        {
          "name": "B1",
          "midi": 35,
          "time": 71.53838999999985,
          "velocity": 0.11811023622047244,
          "duration": 0.11538450000000466
        },
        {
          "name": "F#2",
          "midi": 42,
          "time": 71.76915899999986,
          "velocity": 0.3937007874015748,
          "duration": 0.11538450000000466
        },
        {
          "name": "C#2",
          "midi": 37,
          "time": 71.76915899999986,
          "velocity": 0.3937007874015748,
          "duration": 0.11538450000000466
        },
        {
          "name": "F#2",
          "midi": 42,
          "time": 71.99992799999987,
          "velocity": 0.3937007874015748,
          "duration": 0.11538450000000466
        },
        {
          "name": "F#2",
          "midi": 42,
          "time": 72.23069699999988,
          "velocity": 0.3937007874015748,
          "duration": 0.11538450000000466
        },
        {
          "name": "C#2",
          "midi": 37,
          "time": 72.23069699999988,
          "velocity": 0.3937007874015748,
          "duration": 0.11538450000000466
        },
        {
          "name": "F#2",
          "midi": 42,
          "time": 72.46146599999989,
          "velocity": 0.3937007874015748,
          "duration": 0.11538450000000466
        },
        {
          "name": "D#3",
          "midi": 51,
          "time": 72.46146599999989,
          "velocity": 0.3937007874015748,
          "duration": 0.11538450000000466
        },
        {
          "name": "B1",
          "midi": 35,
          "time": 72.46146599999989,
          "velocity": 0.11811023622047244,
          "duration": 0.11538450000000466
        },
        {
          "name": "F#2",
          "midi": 42,
          "time": 72.6922349999999,
          "velocity": 0.3937007874015748,
          "duration": 0.11538450000000466
        },
        {
          "name": "F#2",
          "midi": 42,
          "time": 72.9230039999999,
          "velocity": 0.3937007874015748,
          "duration": 0.11538450000000466
        },
        {
          "name": "D#2",
          "midi": 39,
          "time": 72.9230039999999,
          "velocity": 0.3937007874015748,
          "duration": 0.11538450000000466
        },
        {
          "name": "D#3",
          "midi": 51,
          "time": 73.15377299999992,
          "velocity": 0.3937007874015748,
          "duration": 0.11538450000000466
        },
        {
          "name": "B1",
          "midi": 35,
          "time": 73.15377299999992,
          "velocity": 0.11811023622047244,
          "duration": 0.11538450000000466
        },
        {
          "name": "F#2",
          "midi": 42,
          "time": 73.38454199999993,
          "velocity": 0.3937007874015748,
          "duration": 0.11538450000000466
        }
      ],
      "controlChanges": {},
      "id": 3,
      "name": "808 Drum Kit",
      "instrumentNumber": 0,
      "instrument": "standard kit",
      "instrumentFamily": "drums",
      "channelNumber": 9,
      "isPercussion": true
    },
    {
      "startTime": 29.538431999999997,
      "duration": 73.84608,
      "length": 48,
      "notes": [
        {
          "name": "G#5",
          "midi": 80,
          "time": 29.538431999999997,
          "velocity": 0.3937007874015748,
          "duration": 0.23076899999999867
        },
        {
          "name": "E5",
          "midi": 76,
          "time": 29.769200999999995,
          "velocity": 0.3937007874015748,
          "duration": 0.23076899999999867
        },
        {
          "name": "G#5",
          "midi": 80,
          "time": 29.999969999999994,
          "velocity": 0.3937007874015748,
          "duration": 0.23076899999999867
        },
        {
          "name": "A5",
          "midi": 81,
          "time": 30.230738999999993,
          "velocity": 0.3937007874015748,
          "duration": 0.23076899999999867
        },
        {
          "name": "G#5",
          "midi": 80,
          "time": 30.46150799999999,
          "velocity": 0.3937007874015748,
          "duration": 0.23076899999999867
        },
        {
          "name": "E5",
          "midi": 76,
          "time": 30.69227699999999,
          "velocity": 0.3937007874015748,
          "duration": 0.23076899999999867
        },
        {
          "name": "E5",
          "midi": 76,
          "time": 30.92304599999999,
          "velocity": 0.2677165354330709,
          "duration": 0.23076899999999867
        },
        {
          "name": "E5",
          "midi": 76,
          "time": 31.153814999999987,
          "velocity": 0.1968503937007874,
          "duration": 0.23076899999999867
        },
        {
          "name": "G#5",
          "midi": 80,
          "time": 31.384583999999986,
          "velocity": 0.3937007874015748,
          "duration": 0.23076899999999867
        },
        {
          "name": "E5",
          "midi": 76,
          "time": 31.615352999999985,
          "velocity": 0.3937007874015748,
          "duration": 0.23076899999999867
        },
        {
          "name": "G#5",
          "midi": 80,
          "time": 31.846121999999983,
          "velocity": 0.3937007874015748,
          "duration": 0.23076899999999867
        },
        {
          "name": "A5",
          "midi": 81,
          "time": 32.07689099999998,
          "velocity": 0.3937007874015748,
          "duration": 0.23076900000000222
        },
        {
          "name": "G#5",
          "midi": 80,
          "time": 32.307659999999984,
          "velocity": 0.3937007874015748,
          "duration": 0.23076900000000222
        },
        {
          "name": "B4",
          "midi": 71,
          "time": 32.53842899999999,
          "velocity": 0.23622047244094488,
          "duration": 0.6923069999999996
        },
        {
          "name": "G#5",
          "midi": 80,
          "time": 33.230735999999986,
          "velocity": 0.3937007874015748,
          "duration": 1.8461519999999965
        },
        {
          "name": "C#6",
          "midi": 85,
          "time": 35.999963999999984,
          "velocity": 0.3937007874015748,
          "duration": 0.23076900000000222
        },
        {
          "name": "B5",
          "midi": 83,
          "time": 36.23073299999999,
          "velocity": 0.3937007874015748,
          "duration": 0.23076900000000222
        },
        {
          "name": "G#5",
          "midi": 80,
          "time": 36.46150199999999,
          "velocity": 0.3937007874015748,
          "duration": 0.23076900000000222
        },
        {
          "name": "F#5",
          "midi": 78,
          "time": 36.69227099999999,
          "velocity": 0.3937007874015748,
          "duration": 0.23076900000000222
        },
        {
          "name": "G#5",
          "midi": 80,
          "time": 36.92303999999999,
          "velocity": 0.23622047244094488,
          "duration": 0.46153799999999734
        },
        {
          "name": "G#5",
          "midi": 80,
          "time": 37.38457799999999,
          "velocity": 0.3937007874015748,
          "duration": 0.23076900000000222
        },
        {
          "name": "E5",
          "midi": 76,
          "time": 37.61534699999999,
          "velocity": 0.31496062992125984,
          "duration": 0.6923069999999996
        },
        {
          "name": "G#5",
          "midi": 80,
          "time": 38.30765399999999,
          "velocity": 0.1968503937007874,
          "duration": 0.46153799999999734
        },
        {
          "name": "F#5",
          "midi": 78,
          "time": 43.38457199999999,
          "velocity": 0.3937007874015748,
          "duration": 0.9230760000000018
        },
        {
          "name": "G#5",
          "midi": 80,
          "time": 59.07686399999999,
          "velocity": 0.3937007874015748,
          "duration": 0.23076900000000222
        },
        {
          "name": "E5",
          "midi": 76,
          "time": 59.307632999999996,
          "velocity": 0.3937007874015748,
          "duration": 0.23076900000000222
        },
        {
          "name": "G#5",
          "midi": 80,
          "time": 59.538402,
          "velocity": 0.3937007874015748,
          "duration": 0.23076900000000222
        },
        {
          "name": "A5",
          "midi": 81,
          "time": 59.769171,
          "velocity": 0.3937007874015748,
          "duration": 0.23076900000000222
        },
        {
          "name": "G#5",
          "midi": 80,
          "time": 59.99994,
          "velocity": 0.3937007874015748,
          "duration": 0.23076900000000222
        },
        {
          "name": "E5",
          "midi": 76,
          "time": 60.230709000000004,
          "velocity": 0.3937007874015748,
          "duration": 0.23076900000000222
        },
        {
          "name": "E5",
          "midi": 76,
          "time": 60.46147800000001,
          "velocity": 0.2677165354330709,
          "duration": 0.23076900000000222
        },
        {
          "name": "E5",
          "midi": 76,
          "time": 60.69224700000001,
          "velocity": 0.1968503937007874,
          "duration": 0.23076900000000222
        },
        {
          "name": "G#5",
          "midi": 80,
          "time": 60.92301600000001,
          "velocity": 0.3937007874015748,
          "duration": 0.23076900000000222
        },
        {
          "name": "E5",
          "midi": 76,
          "time": 61.15378500000001,
          "velocity": 0.3937007874015748,
          "duration": 0.23076900000000222
        },
        {
          "name": "G#5",
          "midi": 80,
          "time": 61.384554000000016,
          "velocity": 0.3937007874015748,
          "duration": 0.23076900000000222
        },
        {
          "name": "A5",
          "midi": 81,
          "time": 61.61532300000002,
          "velocity": 0.3937007874015748,
          "duration": 0.23076900000000222
        },
        {
          "name": "G#5",
          "midi": 80,
          "time": 61.84609200000002,
          "velocity": 0.3937007874015748,
          "duration": 0.23076900000000222
        },
        {
          "name": "B4",
          "midi": 71,
          "time": 62.07686100000002,
          "velocity": 0.23622047244094488,
          "duration": 0.6923069999999996
        },
        {
          "name": "G#5",
          "midi": 80,
          "time": 62.76916800000002,
          "velocity": 0.3937007874015748,
          "duration": 1.8461520000000036
        },
        {
          "name": "C#6",
          "midi": 85,
          "time": 65.53839600000002,
          "velocity": 0.3937007874015748,
          "duration": 0.23076899999999512
        },
        {
          "name": "B5",
          "midi": 83,
          "time": 65.76916500000002,
          "velocity": 0.3937007874015748,
          "duration": 0.23076899999999512
        },
        {
          "name": "G#5",
          "midi": 80,
          "time": 65.99993400000001,
          "velocity": 0.3937007874015748,
          "duration": 0.23076899999999512
        },
        {
          "name": "F#5",
          "midi": 78,
          "time": 66.230703,
          "velocity": 0.3937007874015748,
          "duration": 0.23076899999999512
        },
        {
          "name": "G#5",
          "midi": 80,
          "time": 66.461472,
          "velocity": 0.23622047244094488,
          "duration": 0.46153800000000444
        },
        {
          "name": "G#5",
          "midi": 80,
          "time": 66.92301,
          "velocity": 0.3937007874015748,
          "duration": 0.23076899999999512
        },
        {
          "name": "E5",
          "midi": 76,
          "time": 67.153779,
          "velocity": 0.31496062992125984,
          "duration": 0.6923069999999996
        },
        {
          "name": "G#5",
          "midi": 80,
          "time": 67.846086,
          "velocity": 0.1968503937007874,
          "duration": 0.46153800000000444
        },
        {
          "name": "F#5",
          "midi": 78,
          "time": 72.923004,
          "velocity": 0.3937007874015748,
          "duration": 0.9230759999999947
        }
      ],
      "controlChanges": {},
      "id": 4,
      "name": "Grand Piano",
      "instrumentNumber": 0,
      "instrument": "acoustic grand piano",
      "instrumentFamily": "piano",
      "channelNumber": 3,
      "isPercussion": false
    },
    {
      "startTime": 15.230753999999997,
      "duration": 72.57685049999998,
      "length": 27,
      "notes": [
        {
          "name": "F1",
          "midi": 29,
          "time": 15.230753999999997,
          "velocity": 0.3858267716535433,
          "duration": 0.11538449999999933
        },
        {
          "name": "F#1",
          "midi": 30,
          "time": 17.076905999999997,
          "velocity": 0.3858267716535433,
          "duration": 0.11538450000000111
        },
        {
          "name": "F#1",
          "midi": 30,
          "time": 20.769209999999998,
          "velocity": 0.3858267716535433,
          "duration": 0.11538450000000111
        },
        {
          "name": "F1",
          "midi": 29,
          "time": 22.615361999999998,
          "velocity": 0.3858267716535433,
          "duration": 0.11538450000000111
        },
        {
          "name": "F#1",
          "midi": 30,
          "time": 24.461513999999998,
          "velocity": 0.3858267716535433,
          "duration": 0.11538450000000111
        },
        {
          "name": "F#1",
          "midi": 30,
          "time": 28.153817999999998,
          "velocity": 0.3858267716535433,
          "duration": 0.11538450000000111
        },
        {
          "name": "F1",
          "midi": 29,
          "time": 29.999969999999998,
          "velocity": 0.3858267716535433,
          "duration": 0.11538450000000111
        },
        {
          "name": "F#1",
          "midi": 30,
          "time": 31.846121999999998,
          "velocity": 0.3858267716535433,
          "duration": 0.11538450000000111
        },
        {
          "name": "F1",
          "midi": 29,
          "time": 33.692274,
          "velocity": 0.3858267716535433,
          "duration": 0.11538449999999756
        },
        {
          "name": "F#1",
          "midi": 30,
          "time": 35.538425999999994,
          "velocity": 0.3858267716535433,
          "duration": 0.11538449999999756
        },
        {
          "name": "F1",
          "midi": 29,
          "time": 37.38457799999999,
          "velocity": 0.3858267716535433,
          "duration": 0.11538449999999756
        },
        {
          "name": "F#1",
          "midi": 30,
          "time": 39.23072999999999,
          "velocity": 0.3858267716535433,
          "duration": 0.11538449999999756
        },
        {
          "name": "F1",
          "midi": 29,
          "time": 41.07688199999998,
          "velocity": 0.3858267716535433,
          "duration": 0.11538449999999756
        },
        {
          "name": "F#1",
          "midi": 30,
          "time": 42.92303399999998,
          "velocity": 0.3858267716535433,
          "duration": 0.11538449999999756
        },
        {
          "name": "F#1",
          "midi": 30,
          "time": 46.61533799999998,
          "velocity": 0.3858267716535433,
          "duration": 0.11538449999999756
        },
        {
          "name": "F#1",
          "midi": 30,
          "time": 50.30764199999998,
          "velocity": 0.3858267716535433,
          "duration": 0.11538449999999756
        },
        {
          "name": "F1",
          "midi": 29,
          "time": 52.15379399999998,
          "velocity": 0.3858267716535433,
          "duration": 0.11538449999999756
        },
        {
          "name": "F#1",
          "midi": 30,
          "time": 53.99994599999997,
          "velocity": 0.3858267716535433,
          "duration": 0.11538449999999756
        },
        {
          "name": "F#1",
          "midi": 30,
          "time": 57.69224999999997,
          "velocity": 0.3858267716535433,
          "duration": 0.11538449999999756
        },
        {
          "name": "F1",
          "midi": 29,
          "time": 59.53840199999997,
          "velocity": 0.3858267716535433,
          "duration": 0.11538449999999756
        },
        {
          "name": "F#1",
          "midi": 30,
          "time": 61.384553999999966,
          "velocity": 0.3858267716535433,
          "duration": 0.11538449999999756
        },
        {
          "name": "F1",
          "midi": 29,
          "time": 63.23070599999996,
          "velocity": 0.3858267716535433,
          "duration": 0.11538449999999756
        },
        {
          "name": "F#1",
          "midi": 30,
          "time": 65.07685799999996,
          "velocity": 0.3858267716535433,
          "duration": 0.11538450000000466
        },
        {
          "name": "F1",
          "midi": 29,
          "time": 66.92300999999996,
          "velocity": 0.3858267716535433,
          "duration": 0.11538450000000466
        },
        {
          "name": "F#1",
          "midi": 30,
          "time": 68.76916199999997,
          "velocity": 0.3858267716535433,
          "duration": 0.11538450000000466
        },
        {
          "name": "F1",
          "midi": 29,
          "time": 70.61531399999997,
          "velocity": 0.3858267716535433,
          "duration": 0.11538450000000466
        },
        {
          "name": "F#1",
          "midi": 30,
          "time": 72.46146599999997,
          "velocity": 0.3858267716535433,
          "duration": 0.11538450000000466
        }
      ],
      "controlChanges": {},
      "id": 5,
      "name": "Electric Drum Kit",
      "instrumentNumber": 0,
      "instrument": "standard kit",
      "instrumentFamily": "drums",
      "channelNumber": 9,
      "isPercussion": true
    },
    {
      "startTime": 14.769215999999998,
      "duration": 59.19224849999999,
      "length": 3,
      "notes": [
        {
          "name": "A3",
          "midi": 57,
          "time": 14.769215999999998,
          "velocity": 0.3937007874015748,
          "duration": 0.11538449999999933
        },
        {
          "name": "A3",
          "midi": 57,
          "time": 29.538431999999997,
          "velocity": 0.3937007874015748,
          "duration": 0.11538450000000111
        },
        {
          "name": "A3",
          "midi": 57,
          "time": 59.07686399999999,
          "velocity": 0.3937007874015748,
          "duration": 0.11538449999999756
        }
      ],
      "controlChanges": {},
      "id": 6,
      "name": "2013 Drum Kit",
      "instrumentNumber": 0,
      "instrument": "standard kit",
      "instrumentFamily": "drums",
      "channelNumber": 9,
      "isPercussion": true
    }
  ]
}