{
  "header": {
    "PPQ": 384,
    "timeSignature": [
      4,
      4
    ],
    "bpm": 160,
    "name": ""
  },
  "tempo": [
    {
      "absoluteTime": 0,
      "seconds": 0,
      "bpm": 160
    }
  ],
  "timeSignature": [
    {
      "absoluteTime": 0,
      "seconds": 0,
      "numerator": 4,
      "denominator": 2,
      "click": 24,
      "notesQ": 8
    }
  ],
  "startTime": 0,
  "duration": 72,
  "tracks": [
    {
      "startTime": 0,
      "duration": 72,
      "length": 349,
      "notes": [
        {
          "name": "B5",
          "midi": 83,
          "time": 0,
          "velocity": 0.4330708661417323,
          "duration": 0.375
        },
        {
          "name": "D5",
          "midi": 74,
          "time": 0,
          "velocity": 0.4330708661417323,
          "duration": 0.375
        },
        {
          "name": "G2",
          "midi": 43,
          "time": 0,
          "velocity": 0.4330708661417323,
          "duration": 0.65625
        },
        {
          "name": "G1",
          "midi": 31,
          "time": 0.375,
          "velocity": 0.4330708661417323,
          "duration": 2.53125
        },
        {
          "name": "G5",
          "midi": 79,
          "time": 0.375,
          "velocity": 0.4330708661417323,
          "duration": 0.5625
        },
        {
          "name": "D5",
          "midi": 74,
          "time": 0.375,
          "velocity": 0.4330708661417323,
          "duration": 1.875
        },
        {
          "name": "D4",
          "midi": 62,
          "time": 0.375,
          "velocity": 0.4330708661417323,
          "duration": 1.875
        },
        {
          "name": "B4",
          "midi": 71,
          "time": 0.375,
          "velocity": 0.4330708661417323,
          "duration": 1.875
        },
        {
          "name": "F#5",
          "midi": 78,
          "time": 0.9375,
          "velocity": 0.4330708661417323,
          "duration": 0.375
        },
        {
          "name": "E5",
          "midi": 76,
          "time": 1.3125,
          "velocity": 0.4330708661417323,
          "duration": 0.375
        },
        {
          "name": "F#6",
          "midi": 90,
          "time": 1.875,
          "velocity": 0.4330708661417323,
          "duration": 0.375
        },
        {
          "name": "E6",
          "midi": 88,
          "time": 1.875,
          "velocity": 0.4330708661417323,
          "duration": 0.09375
        },
        {
          "name": "D4",
          "midi": 62,
          "time": 2.25,
          "velocity": 0.4330708661417323,
          "duration": 0.75
        },
        {
          "name": "A3",
          "midi": 57,
          "time": 2.25,
          "velocity": 0.4330708661417323,
          "duration": 0.75
        },
        {
          "name": "F#4",
          "midi": 66,
          "time": 2.25,
          "velocity": 0.4330708661417323,
          "duration": 0.75
        },
        {
          "name": "D6",
          "midi": 86,
          "time": 3,
          "velocity": 0.4330708661417323,
          "duration": 0.375
        },
        {
          "name": "D4",
          "midi": 62,
          "time": 3,
          "velocity": 0.4330708661417323,
          "duration": 0.375
        },
        {
          "name": "D2",
          "midi": 38,
          "time": 3,
          "velocity": 0.4330708661417323,
          "duration": 1.40625
        },
        {
          "name": "A5",
          "midi": 81,
          "time": 3.375,
          "velocity": 0.4330708661417323,
          "duration": 0.75
        },
        {
          "name": "D4",
          "midi": 62,
          "time": 3.375,
          "velocity": 0.4330708661417323,
          "duration": 1.21875
        },
        {
          "name": "F#4",
          "midi": 66,
          "time": 3.375,
          "velocity": 0.4330708661417323,
          "duration": 1.21875
        },
        {
          "name": "F#5",
          "midi": 78,
          "time": 3.9375,
          "velocity": 0.4330708661417323,
          "duration": 0.375
        },
        {
          "name": "E5",
          "midi": 76,
          "time": 4.3125,
          "velocity": 0.4330708661417323,
          "duration": 0.9375
        },
        {
          "name": "C#2",
          "midi": 37,
          "time": 4.5,
          "velocity": 0.4330708661417323,
          "duration": 1.40625
        },
        {
          "name": "F#6",
          "midi": 90,
          "time": 4.875,
          "velocity": 0.4330708661417323,
          "duration": 0.375
        },
        {
          "name": "E6",
          "midi": 88,
          "time": 4.875,
          "velocity": 0.4330708661417323,
          "duration": 0.09375
        },
        {
          "name": "E4",
          "midi": 64,
          "time": 5.25,
          "velocity": 0.4330708661417323,
          "duration": 0.7734375
        },
        {
          "name": "B4",
          "midi": 71,
          "time": 5.25,
          "velocity": 0.4330708661417323,
          "duration": 0.7734375
        },
        {
          "name": "A3",
          "midi": 57,
          "time": 5.25,
          "velocity": 0.4330708661417323,
          "duration": 0.75
        },
        {
          "name": "B5",
          "midi": 83,
          "time": 6,
          "velocity": 0.4330708661417323,
          "duration": 0.375
        },
        {
          "name": "D5",
          "midi": 74,
          "time": 6,
          "velocity": 0.4330708661417323,
          "duration": 0.375
        },
        {
          "name": "G2",
          "midi": 43,
          "time": 6,
          "velocity": 0.4330708661417323,
          "duration": 0.65625
        },
        {
          "name": "G1",
          "midi": 31,
          "time": 6.375,
          "velocity": 0.4330708661417323,
          "duration": 2.53125
        },
        {
          "name": "G5",
          "midi": 79,
          "time": 6.375,
          "velocity": 0.4330708661417323,
          "duration": 0.5625
        },
        {
          "name": "D5",
          "midi": 74,
          "time": 6.375,
          "velocity": 0.4330708661417323,
          "duration": 1.875
        },
        {
          "name": "D4",
          "midi": 62,
          "time": 6.375,
          "velocity": 0.4330708661417323,
          "duration": 1.875
        },
        {
          "name": "B4",
          "midi": 71,
          "time": 6.375,
          "velocity": 0.4330708661417323,
          "duration": 1.875
        },
        {
          "name": "F#5",
          "midi": 78,
          "time": 6.9375,
          "velocity": 0.4330708661417323,
          "duration": 0.375
        },
        {
          "name": "E5",
          "midi": 76,
          "time": 7.3125,
          "velocity": 0.4330708661417323,
          "duration": 0.375
        },
        {
          "name": "F#6",
          "midi": 90,
          "time": 7.875,
          "velocity": 0.4330708661417323,
          "duration": 0.375
        },
        {
          "name": "E6",
          "midi": 88,
          "time": 7.875,
          "velocity": 0.4330708661417323,
          "duration": 0.09375
        },
        {
          "name": "D4",
          "midi": 62,
          "time": 8.25,
          "velocity": 0.4330708661417323,
          "duration": 0.75
        },
        {
          "name": "A3",
          "midi": 57,
          "time": 8.25,
          "velocity": 0.4330708661417323,
          "duration": 0.75
        },
        {
          "name": "F#4",
          "midi": 66,
          "time": 8.25,
          "velocity": 0.4330708661417323,
          "duration": 0.75
        },
        {
          "name": "D6",
          "midi": 86,
          "time": 9,
          "velocity": 0.4330708661417323,
          "duration": 0.375
        },
        {
          "name": "D4",
          "midi": 62,
          "time": 9,
          "velocity": 0.4330708661417323,
          "duration": 0.375
        },
        {
          "name": "D2",
          "midi": 38,
          "time": 9,
          "velocity": 0.4330708661417323,
          "duration": 1.40625
        },
        {
          "name": "A5",
          "midi": 81,
          "time": 9.375,
          "velocity": 0.4330708661417323,
          "duration": 0.75
        },
        {
          "name": "D4",
          "midi": 62,
          "time": 9.375,
          "velocity": 0.4330708661417323,
          "duration": 1.21875
        },
        {
          "name": "F#4",
          "midi": 66,
          "time": 9.375,
          "velocity": 0.4330708661417323,
          "duration": 1.21875
        },
        {
          "name": "F#5",
          "midi": 78,
          "time": 9.9375,
          "velocity": 0.4330708661417323,
          "duration": 0.375
        },
        {
          "name": "E5",
          "midi": 76,
          "time": 10.3125,
          "velocity": 0.4330708661417323,
          "duration": 0.9375
        },
        {
          "name": "C#2",
          "midi": 37,
          "time": 10.5,
          "velocity": 0.4330708661417323,
          "duration": 1.40625
        },
        {
          "name": "F#6",
          "midi": 90,
          "time": 10.875,
          "velocity": 0.4330708661417323,
          "duration": 0.375
        },
        {
          "name": "E6",
          "midi": 88,
          "time": 10.875,
          "velocity": 0.4330708661417323,
          "duration": 0.09375
        },
        {
          "name": "E4",
          "midi": 64,
          "time": 11.25,
          "velocity": 0.4330708661417323,
          "duration": 0.7734375
        },
        {
          "name": "B4",
          "midi": 71,
          "time": 11.25,
          "velocity": 0.4330708661417323,
          "duration": 0.7734375
        },
        {
          "name": "A3",
          "midi": 57,
          "time": 11.25,
          "velocity": 0.4330708661417323,
          "duration": 0.75
        },
        {
          "name": "B5",
          "midi": 83,
          "time": 12,
          "velocity": 0.4330708661417323,
          "duration": 0.375
        },
        {
          "name": "D5",
          "midi": 74,
          "time": 12,
          "velocity": 0.4330708661417323,
          "duration": 0.375
        },
        {
          "name": "G2",
          "midi": 43,
          "time": 12,
          "velocity": 0.4330708661417323,
          "duration": 0.65625
        },
        {
          "name": "G1",
          "midi": 31,
          "time": 12.375,
          "velocity": 0.4330708661417323,
          "duration": 2.53125
        },
        {
          "name": "G5",
          "midi": 79,
          "time": 12.375,
          "velocity": 0.4330708661417323,
          "duration": 0.5625
        },
        {
          "name": "D5",
          "midi": 74,
          "time": 12.375,
          "velocity": 0.4330708661417323,
          "duration": 1.875
        },
        {
          "name": "D4",
          "midi": 62,
          "time": 12.375,
          "velocity": 0.4330708661417323,
          "duration": 1.875
        },
        {
          "name": "B4",
          "midi": 71,
          "time": 12.375,
          "velocity": 0.4330708661417323,
          "duration": 1.875
        },
        {
          "name": "F#5",
          "midi": 78,
          "time": 12.9375,
          "velocity": 0.4330708661417323,
          "duration": 0.375
        },
        {
          "name": "E5",
          "midi": 76,
          "time": 13.3125,
          "velocity": 0.4330708661417323,
          "duration": 0.375
        },
        {
          "name": "F#6",
          "midi": 90,
          "time": 13.875,
          "velocity": 0.4330708661417323,
          "duration": 0.375
        },
        {
          "name": "E6",
          "midi": 88,
          "time": 13.875,
          "velocity": 0.4330708661417323,
          "duration": 0.09375
        },
        {
          "name": "D4",
          "midi": 62,
          "time": 14.25,
          "velocity": 0.4330708661417323,
          "duration": 0.75
        },
        {
          "name": "A3",
          "midi": 57,
          "time": 14.25,
          "velocity": 0.4330708661417323,
          "duration": 0.75
        },
        {
          "name": "F#4",
          "midi": 66,
          "time": 14.25,
          "velocity": 0.4330708661417323,
          "duration": 0.75
        },
        {
          "name": "D6",
          "midi": 86,
          "time": 15,
          "velocity": 0.4330708661417323,
          "duration": 0.375
        },
        {
          "name": "D4",
          "midi": 62,
          "time": 15,
          "velocity": 0.4330708661417323,
          "duration": 0.375
        },
        {
          "name": "D2",
          "midi": 38,
          "time": 15,
          "velocity": 0.4330708661417323,
          "duration": 1.40625
        },
        {
          "name": "A5",
          "midi": 81,
          "time": 15.375,
          "velocity": 0.4330708661417323,
          "duration": 0.75
        },
        {
          "name": "D4",
          "midi": 62,
          "time": 15.375,
          "velocity": 0.4330708661417323,
          "duration": 1.21875
        },
        {
          "name": "F#4",
          "midi": 66,
          "time": 15.375,
          "velocity": 0.4330708661417323,
          "duration": 1.21875
        },
        {
          "name": "F#5",
          "midi": 78,
          "time": 15.9375,
          "velocity": 0.4330708661417323,
          "duration": 0.375
        },
        {
          "name": "E5",
          "midi": 76,
          "time": 16.3125,
          "velocity": 0.4330708661417323,
          "duration": 0.9375
        },
        {
          "name": "C#2",
          "midi": 37,
          "time": 16.5,
          "velocity": 0.4330708661417323,
          "duration": 1.40625
        },
        {
          "name": "F#6",
          "midi": 90,
          "time": 16.875,
          "velocity": 0.4330708661417323,
          "duration": 0.375
        },
        {
          "name": "E6",
          "midi": 88,
          "time": 16.875,
          "velocity": 0.4330708661417323,
          "duration": 0.09375
        },
        {
          "name": "E4",
          "midi": 64,
          "time": 17.25,
          "velocity": 0.4330708661417323,
          "duration": 0.7734375
        },
        {
          "name": "B4",
          "midi": 71,
          "time": 17.25,
          "velocity": 0.4330708661417323,
          "duration": 0.7734375
        },
        {
          "name": "A3",
          "midi": 57,
          "time": 17.25,
          "velocity": 0.4330708661417323,
          "duration": 0.75
        },
        {
          "name": "B5",
          "midi": 83,
          "time": 18,
          "velocity": 0.4330708661417323,
          "duration": 0.375
        },
        {
          "name": "D5",
          "midi": 74,
          "time": 18,
          "velocity": 0.4330708661417323,
          "duration": 0.375
        },
        {
          "name": "G2",
          "midi": 43,
          "time": 18,
          "velocity": 0.4330708661417323,
          "duration": 0.65625
        },
        {
          "name": "G1",
          "midi": 31,
          "time": 18.375,
          "velocity": 0.4330708661417323,
          "duration": 2.53125
        },
        {
          "name": "G5",
          "midi": 79,
          "time": 18.375,
          "velocity": 0.4330708661417323,
          "duration": 0.5625
        },
        {
          "name": "D5",
          "midi": 74,
          "time": 18.375,
          "velocity": 0.4330708661417323,
          "duration": 1.875
        },
        {
          "name": "D4",
          "midi": 62,
          "time": 18.375,
          "velocity": 0.4330708661417323,
          "duration": 1.875
        },
        {
          "name": "B4",
          "midi": 71,
          "time": 18.375,
          "velocity": 0.4330708661417323,
          "duration": 1.875
        },
        {
          "name": "F#5",
          "midi": 78,
          "time": 18.9375,
          "velocity": 0.4330708661417323,
          "duration": 0.375
        },
        {
          "name": "E5",
          "midi": 76,
          "time": 19.3125,
          "velocity": 0.4330708661417323,
          "duration": 0.375
        },
        {
          "name": "F#6",
          "midi": 90,
          "time": 19.875,
          "velocity": 0.4330708661417323,
          "duration": 0.375
        },
        {
          "name": "E6",
          "midi": 88,
          "time": 19.875,
          "velocity": 0.4330708661417323,
          "duration": 0.09375
        },
        {
          "name": "E6",
          "midi": 88,
          "time": 20.0625,
          "velocity": 0.4330708661417323,
          "duration": 0.09375
        },
        {
          "name": "D4",
          "midi": 62,
          "time": 20.25,
          "velocity": 0.4330708661417323,
          "duration": 0.75
        },
        {
          "name": "A3",
          "midi": 57,
          "time": 20.25,
          "velocity": 0.4330708661417323,
          "duration": 0.75
        },
        {
          "name": "F#4",
          "midi": 66,
          "time": 20.25,
          "velocity": 0.4330708661417323,
          "duration": 0.75
        },
        {
          "name": "D6",
          "midi": 86,
          "time": 21,
          "velocity": 0.4330708661417323,
          "duration": 0.375
        },
        {
          "name": "D4",
          "midi": 62,
          "time": 21,
          "velocity": 0.4330708661417323,
          "duration": 0.375
        },
        {
          "name": "D2",
          "midi": 38,
          "time": 21,
          "velocity": 0.4330708661417323,
          "duration": 1.40625
        },
        {
          "name": "A5",
          "midi": 81,
          "time": 21.375,
          "velocity": 0.4330708661417323,
          "duration": 0.75
        },
        {
          "name": "D4",
          "midi": 62,
          "time": 21.375,
          "velocity": 0.4330708661417323,
          "duration": 1.21875
        },
        {
          "name": "F#4",
          "midi": 66,
          "time": 21.375,
          "velocity": 0.4330708661417323,
          "duration": 1.21875
        },
        {
          "name": "F#5",
          "midi": 78,
          "time": 21.9375,
          "velocity": 0.4330708661417323,
          "duration": 0.375
        },
        {
          "name": "E5",
          "midi": 76,
          "time": 22.3125,
          "velocity": 0.4330708661417323,
          "duration": 0.9375
        },
        {
          "name": "C#2",
          "midi": 37,
          "time": 22.5,
          "velocity": 0.4330708661417323,
          "duration": 1.40625
        },
        {
          "name": "F#6",
          "midi": 90,
          "time": 22.875,
          "velocity": 0.4330708661417323,
          "duration": 0.375
        },
        {
          "name": "E6",
          "midi": 88,
          "time": 22.875,
          "velocity": 0.4330708661417323,
          "duration": 0.09375
        },
        {
          "name": "E4",
          "midi": 64,
          "time": 23.25,
          "velocity": 0.4330708661417323,
          "duration": 0.7734375
        },
        {
          "name": "B4",
          "midi": 71,
          "time": 23.25,
          "velocity": 0.4330708661417323,
          "duration": 0.7734375
        },
        {
          "name": "A3",
          "midi": 57,
          "time": 23.25,
          "velocity": 0.4330708661417323,
          "duration": 0.75
        },
        {
          "name": "B5",
          "midi": 83,
          "time": 24,
          "velocity": 0.4330708661417323,
          "duration": 0.375
        },
        {
          "name": "D5",
          "midi": 74,
          "time": 24,
          "velocity": 0.4330708661417323,
          "duration": 0.375
        },
        {
          "name": "G2",
          "midi": 43,
          "time": 24,
          "velocity": 0.4330708661417323,
          "duration": 0.65625
        },
        {
          "name": "G1",
          "midi": 31,
          "time": 24.375,
          "velocity": 0.4330708661417323,
          "duration": 2.53125
        },
        {
          "name": "G5",
          "midi": 79,
          "time": 24.375,
          "velocity": 0.4330708661417323,
          "duration": 0.5625
        },
        {
          "name": "D5",
          "midi": 74,
          "time": 24.375,
          "velocity": 0.4330708661417323,
          "duration": 1.875
        },
        {
          "name": "D4",
          "midi": 62,
          "time": 24.375,
          "velocity": 0.4330708661417323,
          "duration": 1.875
        },
        {
          "name": "B4",
          "midi": 71,
          "time": 24.375,
          "velocity": 0.4330708661417323,
          "duration": 1.875
        },
        {
          "name": "F#5",
          "midi": 78,
          "time": 24.9375,
          "velocity": 0.4330708661417323,
          "duration": 0.375
        },
        {
          "name": "E5",
          "midi": 76,
          "time": 25.3125,
          "velocity": 0.4330708661417323,
          "duration": 0.375
        },
        {
          "name": "F#6",
          "midi": 90,
          "time": 25.875,
          "velocity": 0.4330708661417323,
          "duration": 0.375
        },
        {
          "name": "E6",
          "midi": 88,
          "time": 25.875,
          "velocity": 0.4330708661417323,
          "duration": 0.09375
        },
        {
          "name": "D4",
          "midi": 62,
          "time": 26.25,
          "velocity": 0.4330708661417323,
          "duration": 0.75
        },
        {
          "name": "A3",
          "midi": 57,
          "time": 26.25,
          "velocity": 0.4330708661417323,
          "duration": 0.75
        },
        {
          "name": "F#4",
          "midi": 66,
          "time": 26.25,
          "velocity": 0.4330708661417323,
          "duration": 0.75
        },
        {
          "name": "D6",
          "midi": 86,
          "time": 27,
          "velocity": 0.4330708661417323,
          "duration": 0.375
        },
        {
          "name": "D4",
          "midi": 62,
          "time": 27,
          "velocity": 0.4330708661417323,
          "duration": 0.375
        },
        {
          "name": "D2",
          "midi": 38,
          "time": 27,
          "velocity": 0.4330708661417323,
          "duration": 1.40625
        },
        {
          "name": "A5",
          "midi": 81,
          "time": 27.375,
          "velocity": 0.4330708661417323,
          "duration": 0.75
        },
        {
          "name": "D4",
          "midi": 62,
          "time": 27.375,
          "velocity": 0.4330708661417323,
          "duration": 1.21875
        },
        {
          "name": "F#4",
          "midi": 66,
          "time": 27.375,
          "velocity": 0.4330708661417323,
          "duration": 1.21875
        },
        {
          "name": "F#5",
          "midi": 78,
          "time": 27.9375,
          "velocity": 0.4330708661417323,
          "duration": 0.375
        },
        {
          "name": "E5",
          "midi": 76,
          "time": 28.3125,
          "velocity": 0.4330708661417323,
          "duration": 0.9375
        },
        {
          "name": "C#2",
          "midi": 37,
          "time": 28.5,
          "velocity": 0.4330708661417323,
          "duration": 1.40625
        },
        {
          "name": "F#6",
          "midi": 90,
          "time": 28.875,
          "velocity": 0.4330708661417323,
          "duration": 0.375
        },
        {
          "name": "E6",
          "midi": 88,
          "time": 28.875,
          "velocity": 0.4330708661417323,
          "duration": 0.09375
        },
        {
          "name": "E4",
          "midi": 64,
          "time": 29.25,
          "velocity": 0.4330708661417323,
          "duration": 0.7734375
        },
        {
          "name": "B4",
          "midi": 71,
          "time": 29.25,
          "velocity": 0.4330708661417323,
          "duration": 0.7734375
        },
        {
          "name": "A3",
          "midi": 57,
          "time": 29.25,
          "velocity": 0.4330708661417323,
          "duration": 0.75
        },
        {
          "name": "B5",
          "midi": 83,
          "time": 30,
          "velocity": 0.4330708661417323,
          "duration": 0.375
        },
        {
          "name": "D5",
          "midi": 74,
          "time": 30,
          "velocity": 0.4330708661417323,
          "duration": 0.375
        },
        {
          "name": "G2",
          "midi": 43,
          "time": 30,
          "velocity": 0.4330708661417323,
          "duration": 0.65625
        },
        {
          "name": "G1",
          "midi": 31,
          "time": 30.375,
          "velocity": 0.4330708661417323,
          "duration": 2.53125
        },
        {
          "name": "G5",
          "midi": 79,
          "time": 30.375,
          "velocity": 0.4330708661417323,
          "duration": 0.5625
        },
        {
          "name": "D5",
          "midi": 74,
          "time": 30.375,
          "velocity": 0.4330708661417323,
          "duration": 1.875
        },
        {
          "name": "D4",
          "midi": 62,
          "time": 30.375,
          "velocity": 0.4330708661417323,
          "duration": 1.875
        },
        {
          "name": "B4",
          "midi": 71,
          "time": 30.375,
          "velocity": 0.4330708661417323,
          "duration": 1.875
        },
        {
          "name": "F#5",
          "midi": 78,
          "time": 30.9375,
          "velocity": 0.4330708661417323,
          "duration": 0.375
        },
        {
          "name": "E5",
          "midi": 76,
          "time": 31.3125,
          "velocity": 0.4330708661417323,
          "duration": 0.375
        },
        {
          "name": "F#6",
          "midi": 90,
          "time": 31.875,
          "velocity": 0.4330708661417323,
          "duration": 0.375
        },
        {
          "name": "E6",
          "midi": 88,
          "time": 31.875,
          "velocity": 0.4330708661417323,
          "duration": 0.09375
        },
        {
          "name": "D4",
          "midi": 62,
          "time": 32.25,
          "velocity": 0.4330708661417323,
          "duration": 0.75
        },
        {
          "name": "A3",
          "midi": 57,
          "time": 32.25,
          "velocity": 0.4330708661417323,
          "duration": 0.75
        },
        {
          "name": "F#4",
          "midi": 66,
          "time": 32.25,
          "velocity": 0.4330708661417323,
          "duration": 0.75
        },
        {
          "name": "D6",
          "midi": 86,
          "time": 33,
          "velocity": 0.4330708661417323,
          "duration": 0.375
        },
        {
          "name": "D4",
          "midi": 62,
          "time": 33,
          "velocity": 0.4330708661417323,
          "duration": 0.375
        },
        {
          "name": "D2",
          "midi": 38,
          "time": 33,
          "velocity": 0.4330708661417323,
          "duration": 1.40625
        },
        {
          "name": "A5",
          "midi": 81,
          "time": 33.375,
          "velocity": 0.4330708661417323,
          "duration": 0.75
        },
        {
          "name": "D4",
          "midi": 62,
          "time": 33.375,
          "velocity": 0.4330708661417323,
          "duration": 1.21875
        },
        {
          "name": "F#4",
          "midi": 66,
          "time": 33.375,
          "velocity": 0.4330708661417323,
          "duration": 1.21875
        },
        {
          "name": "F#5",
          "midi": 78,
          "time": 33.9375,
          "velocity": 0.4330708661417323,
          "duration": 0.375
        },
        {
          "name": "E5",
          "midi": 76,
          "time": 34.3125,
          "velocity": 0.4330708661417323,
          "duration": 0.9375
        },
        {
          "name": "C#2",
          "midi": 37,
          "time": 34.5,
          "velocity": 0.4330708661417323,
          "duration": 1.40625
        },
        {
          "name": "F#6",
          "midi": 90,
          "time": 34.875,
          "velocity": 0.4330708661417323,
          "duration": 0.375
        },
        {
          "name": "E6",
          "midi": 88,
          "time": 34.875,
          "velocity": 0.4330708661417323,
          "duration": 0.09375
        },
        {
          "name": "E4",
          "midi": 64,
          "time": 35.25,
          "velocity": 0.4330708661417323,
          "duration": 0.7734375
        },
        {
          "name": "B4",
          "midi": 71,
          "time": 35.25,
          "velocity": 0.4330708661417323,
          "duration": 0.7734375
        },
        {
          "name": "A3",
          "midi": 57,
          "time": 35.25,
          "velocity": 0.4330708661417323,
          "duration": 0.75
        },
        {
          "name": "B5",
          "midi": 83,
          "time": 36,
          "velocity": 0.4330708661417323,
          "duration": 0.375
        },
        {
          "name": "D5",
          "midi": 74,
          "time": 36,
          "velocity": 0.4330708661417323,
          "duration": 0.375
        },
        {
          "name": "G2",
          "midi": 43,
          "time": 36,
          "velocity": 0.4330708661417323,
          "duration": 0.65625
        },
        {
          "name": "G1",
          "midi": 31,
          "time": 36.375,
          "velocity": 0.4330708661417323,
          "duration": 2.53125
        },
        {
          "name": "G5",
          "midi": 79,
          "time": 36.375,
          "velocity": 0.4330708661417323,
          "duration": 0.5625
        },
        {
          "name": "D5",
          "midi": 74,
          "time": 36.375,
          "velocity": 0.4330708661417323,
          "duration": 1.875
        },
        {
          "name": "D4",
          "midi": 62,
          "time": 36.375,
          "velocity": 0.4330708661417323,
          "duration": 1.875
        },
        {
          "name": "B4",
          "midi": 71,
          "time": 36.375,
          "velocity": 0.4330708661417323,
          "duration": 1.875
        },
        {
          "name": "F#5",
          "midi": 78,
          "time": 36.9375,
          "velocity": 0.4330708661417323,
          "duration": 0.375
        },
        {
          "name": "E5",
          "midi": 76,
          "time": 37.3125,
          "velocity": 0.4330708661417323,
          "duration": 0.375
        },
        {
          "name": "F#6",
          "midi": 90,
          "time": 37.875,
          "velocity": 0.4330708661417323,
          "duration": 0.375
        },
        {
          "name": "E6",
          "midi": 88,
          "time": 37.875,
          "velocity": 0.4330708661417323,
          "duration": 0.09375
        },
        {
          "name": "D4",
          "midi": 62,
          "time": 38.25,
          "velocity": 0.4330708661417323,
          "duration": 0.75
        },
        {
          "name": "A3",
          "midi": 57,
          "time": 38.25,
          "velocity": 0.4330708661417323,
          "duration": 0.75
        },
        {
          "name": "F#4",
          "midi": 66,
          "time": 38.25,
          "velocity": 0.4330708661417323,
          "duration": 0.75
        },
        {
          "name": "D6",
          "midi": 86,
          "time": 39,
          "velocity": 0.4330708661417323,
          "duration": 0.375
        },
        {
          "name": "D4",
          "midi": 62,
          "time": 39,
          "velocity": 0.4330708661417323,
          "duration": 0.375
        },
        {
          "name": "D2",
          "midi": 38,
          "time": 39,
          "velocity": 0.4330708661417323,
          "duration": 1.40625
        },
        {
          "name": "A5",
          "midi": 81,
          "time": 39.375,
          "velocity": 0.4330708661417323,
          "duration": 0.75
        },
        {
          "name": "D4",
          "midi": 62,
          "time": 39.375,
          "velocity": 0.4330708661417323,
          "duration": 1.21875
        },
        {
          "name": "F#4",
          "midi": 66,
          "time": 39.375,
          "velocity": 0.4330708661417323,
          "duration": 1.21875
        },
        {
          "name": "F#5",
          "midi": 78,
          "time": 39.9375,
          "velocity": 0.4330708661417323,
          "duration": 0.375
        },
        {
          "name": "E5",
          "midi": 76,
          "time": 40.3125,
          "velocity": 0.4330708661417323,
          "duration": 0.9375
        },
        {
          "name": "C#2",
          "midi": 37,
          "time": 40.5,
          "velocity": 0.4330708661417323,
          "duration": 1.40625
        },
        {
          "name": "F#6",
          "midi": 90,
          "time": 40.875,
          "velocity": 0.4330708661417323,
          "duration": 0.375
        },
        {
          "name": "E6",
          "midi": 88,
          "time": 40.875,
          "velocity": 0.4330708661417323,
          "duration": 0.09375
        },
        {
          "name": "E4",
          "midi": 64,
          "time": 41.25,
          "velocity": 0.4330708661417323,
          "duration": 0.7734375
        },
        {
          "name": "B4",
          "midi": 71,
          "time": 41.25,
          "velocity": 0.4330708661417323,
          "duration": 0.7734375
        },
        {
          "name": "A3",
          "midi": 57,
          "time": 41.25,
          "velocity": 0.4330708661417323,
          "duration": 0.75
        },
        {
          "name": "B5",
          "midi": 83,
          "time": 42,
          "velocity": 0.4330708661417323,
          "duration": 0.375
        },
        {
          "name": "D5",
          "midi": 74,
          "time": 42,
          "velocity": 0.4330708661417323,
          "duration": 0.375
        },
        {
          "name": "G2",
          "midi": 43,
          "time": 42,
          "velocity": 0.4330708661417323,
          "duration": 0.65625
        },
        {
          "name": "G1",
          "midi": 31,
          "time": 42.375,
          "velocity": 0.4330708661417323,
          "duration": 2.53125
        },
        {
          "name": "G5",
          "midi": 79,
          "time": 42.375,
          "velocity": 0.4330708661417323,
          "duration": 0.5625
        },
        {
          "name": "D5",
          "midi": 74,
          "time": 42.375,
          "velocity": 0.4330708661417323,
          "duration": 1.875
        },
        {
          "name": "D4",
          "midi": 62,
          "time": 42.375,
          "velocity": 0.4330708661417323,
          "duration": 1.875
        },
        {
          "name": "B4",
          "midi": 71,
          "time": 42.375,
          "velocity": 0.4330708661417323,
          "duration": 1.875
        },
        {
          "name": "F#5",
          "midi": 78,
          "time": 42.9375,
          "velocity": 0.4330708661417323,
          "duration": 0.375
        },
        {
          "name": "E5",
          "midi": 76,
          "time": 43.3125,
          "velocity": 0.4330708661417323,
          "duration": 0.375
        },
        {
          "name": "F#6",
          "midi": 90,
          "time": 43.875,
          "velocity": 0.4330708661417323,
          "duration": 0.375
        },
        {
          "name": "E6",
          "midi": 88,
          "time": 43.875,
          "velocity": 0.4330708661417323,
          "duration": 0.09375
        },
        {
          "name": "D4",
          "midi": 62,
          "time": 44.25,
          "velocity": 0.4330708661417323,
          "duration": 0.75
        },
        {
          "name": "A3",
          "midi": 57,
          "time": 44.25,
          "velocity": 0.4330708661417323,
          "duration": 0.75
        },
        {
          "name": "F#4",
          "midi": 66,
          "time": 44.25,
          "velocity": 0.4330708661417323,
          "duration": 0.75
        },
        {
          "name": "D6",
          "midi": 86,
          "time": 45,
          "velocity": 0.4330708661417323,
          "duration": 0.375
        },
        {
          "name": "D4",
          "midi": 62,
          "time": 45,
          "velocity": 0.4330708661417323,
          "duration": 0.375
        },
        {
          "name": "D2",
          "midi": 38,
          "time": 45,
          "velocity": 0.4330708661417323,
          "duration": 1.40625
        },
        {
          "name": "A5",
          "midi": 81,
          "time": 45.375,
          "velocity": 0.4330708661417323,
          "duration": 0.75
        },
        {
          "name": "D4",
          "midi": 62,
          "time": 45.375,
          "velocity": 0.4330708661417323,
          "duration": 1.21875
        },
        {
          "name": "F#4",
          "midi": 66,
          "time": 45.375,
          "velocity": 0.4330708661417323,
          "duration": 1.21875
        },
        {
          "name": "F#5",
          "midi": 78,
          "time": 45.9375,
          "velocity": 0.4330708661417323,
          "duration": 0.375
        },
        {
          "name": "E5",
          "midi": 76,
          "time": 46.3125,
          "velocity": 0.4330708661417323,
          "duration": 0.9375
        },
        {
          "name": "C#2",
          "midi": 37,
          "time": 46.5,
          "velocity": 0.4330708661417323,
          "duration": 1.40625
        },
        {
          "name": "F#6",
          "midi": 90,
          "time": 46.875,
          "velocity": 0.4330708661417323,
          "duration": 0.375
        },
        {
          "name": "E6",
          "midi": 88,
          "time": 46.875,
          "velocity": 0.4330708661417323,
          "duration": 0.09375
        },
        {
          "name": "E4",
          "midi": 64,
          "time": 47.25,
          "velocity": 0.4330708661417323,
          "duration": 0.7734375
        },
        {
          "name": "B4",
          "midi": 71,
          "time": 47.25,
          "velocity": 0.4330708661417323,
          "duration": 0.7734375
        },
        {
          "name": "A3",
          "midi": 57,
          "time": 47.25,
          "velocity": 0.4330708661417323,
          "duration": 0.75
        },
        {
          "name": "B5",
          "midi": 83,
          "time": 48,
          "velocity": 0.4330708661417323,
          "duration": 0.375
        },
        {
          "name": "D5",
          "midi": 74,
          "time": 48,
          "velocity": 0.4330708661417323,
          "duration": 0.375
        },
        {
          "name": "G2",
          "midi": 43,
          "time": 48,
          "velocity": 0.4330708661417323,
          "duration": 0.65625
        },
        {
          "name": "G1",
          "midi": 31,
          "time": 48.375,
          "velocity": 0.4330708661417323,
          "duration": 2.53125
        },
        {
          "name": "G5",
          "midi": 79,
          "time": 48.375,
          "velocity": 0.4330708661417323,
          "duration": 0.5625
        },
        {
          "name": "D5",
          "midi": 74,
          "time": 48.375,
          "velocity": 0.4330708661417323,
          "duration": 1.875
        },
        {
          "name": "D4",
          "midi": 62,
          "time": 48.375,
          "velocity": 0.4330708661417323,
          "duration": 1.875
        },
        {
          "name": "B4",
          "midi": 71,
          "time": 48.375,
          "velocity": 0.4330708661417323,
          "duration": 1.875
        },
        {
          "name": "F#5",
          "midi": 78,
          "time": 48.9375,
          "velocity": 0.4330708661417323,
          "duration": 0.375
        },
        {
          "name": "E5",
          "midi": 76,
          "time": 49.3125,
          "velocity": 0.4330708661417323,
          "duration": 0.375
        },
        {
          "name": "F#6",
          "midi": 90,
          "time": 49.875,
          "velocity": 0.4330708661417323,
          "duration": 0.375
        },
        {
          "name": "E6",
          "midi": 88,
          "time": 49.875,
          "velocity": 0.4330708661417323,
          "duration": 0.09375
        },
        {
          "name": "D4",
          "midi": 62,
          "time": 50.25,
          "velocity": 0.4330708661417323,
          "duration": 0.75
        },
        {
          "name": "A3",
          "midi": 57,
          "time": 50.25,
          "velocity": 0.4330708661417323,
          "duration": 0.75
        },
        {
          "name": "F#4",
          "midi": 66,
          "time": 50.25,
          "velocity": 0.4330708661417323,
          "duration": 0.75
        },
        {
          "name": "D6",
          "midi": 86,
          "time": 51,
          "velocity": 0.4330708661417323,
          "duration": 0.375
        },
        {
          "name": "D4",
          "midi": 62,
          "time": 51,
          "velocity": 0.4330708661417323,
          "duration": 0.375
        },
        {
          "name": "D2",
          "midi": 38,
          "time": 51,
          "velocity": 0.4330708661417323,
          "duration": 1.40625
        },
        {
          "name": "A5",
          "midi": 81,
          "time": 51.375,
          "velocity": 0.4330708661417323,
          "duration": 0.75
        },
        {
          "name": "D4",
          "midi": 62,
          "time": 51.375,
          "velocity": 0.4330708661417323,
          "duration": 1.21875
        },
        {
          "name": "F#4",
          "midi": 66,
          "time": 51.375,
          "velocity": 0.4330708661417323,
          "duration": 1.21875
        },
        {
          "name": "F#5",
          "midi": 78,
          "time": 51.9375,
          "velocity": 0.4330708661417323,
          "duration": 0.375
        },
        {
          "name": "E5",
          "midi": 76,
          "time": 52.3125,
          "velocity": 0.4330708661417323,
          "duration": 0.9375
        },
        {
          "name": "C#2",
          "midi": 37,
          "time": 52.5,
          "velocity": 0.4330708661417323,
          "duration": 1.40625
        },
        {
          "name": "F#6",
          "midi": 90,
          "time": 52.875,
          "velocity": 0.4330708661417323,
          "duration": 0.375
        },
        {
          "name": "E6",
          "midi": 88,
          "time": 52.875,
          "velocity": 0.4330708661417323,
          "duration": 0.09375
        },
        {
          "name": "E4",
          "midi": 64,
          "time": 53.25,
          "velocity": 0.4330708661417323,
          "duration": 0.7734375
        },
        {
          "name": "B4",
          "midi": 71,
          "time": 53.25,
          "velocity": 0.4330708661417323,
          "duration": 0.7734375
        },
        {
          "name": "A3",
          "midi": 57,
          "time": 53.25,
          "velocity": 0.4330708661417323,
          "duration": 0.75
        },
        {
          "name": "B5",
          "midi": 83,
          "time": 54,
          "velocity": 0.4330708661417323,
          "duration": 0.375
        },
        {
          "name": "D5",
          "midi": 74,
          "time": 54,
          "velocity": 0.4330708661417323,
          "duration": 0.375
        },
        {
          "name": "G2",
          "midi": 43,
          "time": 54,
          "velocity": 0.4330708661417323,
          "duration": 0.65625
        },
        {
          "name": "G1",
          "midi": 31,
          "time": 54.375,
          "velocity": 0.4330708661417323,
          "duration": 2.53125
        },
        {
          "name": "G5",
          "midi": 79,
          "time": 54.375,
          "velocity": 0.4330708661417323,
          "duration": 0.5625
        },
        {
          "name": "D5",
          "midi": 74,
          "time": 54.375,
          "velocity": 0.4330708661417323,
          "duration": 1.875
        },
        {
          "name": "D4",
          "midi": 62,
          "time": 54.375,
          "velocity": 0.4330708661417323,
          "duration": 1.875
        },
        {
          "name": "B4",
          "midi": 71,
          "time": 54.375,
          "velocity": 0.4330708661417323,
          "duration": 1.875
        },
        {
          "name": "F#5",
          "midi": 78,
          "time": 54.9375,
          "velocity": 0.4330708661417323,
          "duration": 0.375
        },
        {
          "name": "E5",
          "midi": 76,
          "time": 55.3125,
          "velocity": 0.4330708661417323,
          "duration": 0.375
        },
        {
          "name": "F#6",
          "midi": 90,
          "time": 55.875,
          "velocity": 0.4330708661417323,
          "duration": 0.375
        },
        {
          "name": "E6",
          "midi": 88,
          "time": 55.875,
          "velocity": 0.4330708661417323,
          "duration": 0.09375
        },
        {
          "name": "D4",
          "midi": 62,
          "time": 56.25,
          "velocity": 0.4330708661417323,
          "duration": 0.75
        },
        {
          "name": "A3",
          "midi": 57,
          "time": 56.25,
          "velocity": 0.4330708661417323,
          "duration": 0.75
        },
        {
          "name": "F#4",
          "midi": 66,
          "time": 56.25,
          "velocity": 0.4330708661417323,
          "duration": 0.75
        },
        {
          "name": "D6",
          "midi": 86,
          "time": 57,
          "velocity": 0.4330708661417323,
          "duration": 0.375
        },
        {
          "name": "D4",
          "midi": 62,
          "time": 57,
          "velocity": 0.4330708661417323,
          "duration": 0.375
        },
        {
          "name": "D2",
          "midi": 38,
          "time": 57,
          "velocity": 0.4330708661417323,
          "duration": 1.40625
        },
        {
          "name": "A5",
          "midi": 81,
          "time": 57.375,
          "velocity": 0.4330708661417323,
          "duration": 0.75
        },
        {
          "name": "D4",
          "midi": 62,
          "time": 57.375,
          "velocity": 0.4330708661417323,
          "duration": 1.21875
        },
        {
          "name": "F#4",
          "midi": 66,
          "time": 57.375,
          "velocity": 0.4330708661417323,
          "duration": 1.21875
        },
        {
          "name": "F#5",
          "midi": 78,
          "time": 57.9375,
          "velocity": 0.4330708661417323,
          "duration": 0.375
        },
        {
          "name": "E5",
          "midi": 76,
          "time": 58.3125,
          "velocity": 0.4330708661417323,
          "duration": 0.9375
        },
        {
          "name": "C#2",
          "midi": 37,
          "time": 58.5,
          "velocity": 0.4330708661417323,
          "duration": 1.40625
        },
        {
          "name": "F#6",
          "midi": 90,
          "time": 58.875,
          "velocity": 0.4330708661417323,
          "duration": 0.375
        },
        {
          "name": "E6",
          "midi": 88,
          "time": 58.875,
          "velocity": 0.4330708661417323,
          "duration": 0.09375
        },
        {
          "name": "E4",
          "midi": 64,
          "time": 59.25,
          "velocity": 0.4330708661417323,
          "duration": 0.75
        },
        {
          "name": "B4",
          "midi": 71,
          "time": 59.25,
          "velocity": 0.4330708661417323,
          "duration": 0.75
        },
        {
          "name": "A3",
          "midi": 57,
          "time": 59.25,
          "velocity": 0.4330708661417323,
          "duration": 0.75
        },
        {
          "name": "B5",
          "midi": 83,
          "time": 60,
          "velocity": 0.4330708661417323,
          "duration": 0.375
        },
        {
          "name": "D5",
          "midi": 74,
          "time": 60,
          "velocity": 0.4330708661417323,
          "duration": 0.375
        },
        {
          "name": "G2",
          "midi": 43,
          "time": 60,
          "velocity": 0.4330708661417323,
          "duration": 0.65625
        },
        {
          "name": "G1",
          "midi": 31,
          "time": 60.375,
          "velocity": 0.4330708661417323,
          "duration": 2.53125
        },
        {
          "name": "G5",
          "midi": 79,
          "time": 60.375,
          "velocity": 0.4330708661417323,
          "duration": 0.5625
        },
        {
          "name": "D5",
          "midi": 74,
          "time": 60.375,
          "velocity": 0.4330708661417323,
          "duration": 1.875
        },
        {
          "name": "D4",
          "midi": 62,
          "time": 60.375,
          "velocity": 0.4330708661417323,
          "duration": 1.875
        },
        {
          "name": "B4",
          "midi": 71,
          "time": 60.375,
          "velocity": 0.4330708661417323,
          "duration": 1.875
        },
        {
          "name": "F#5",
          "midi": 78,
          "time": 60.9375,
          "velocity": 0.4330708661417323,
          "duration": 0.375
        },
        {
          "name": "E5",
          "midi": 76,
          "time": 61.3125,
          "velocity": 0.4330708661417323,
          "duration": 0.375
        },
        {
          "name": "F#6",
          "midi": 90,
          "time": 61.875,
          "velocity": 0.4330708661417323,
          "duration": 0.375
        },
        {
          "name": "E6",
          "midi": 88,
          "time": 61.875,
          "velocity": 0.4330708661417323,
          "duration": 0.09375
        },
        {
          "name": "D4",
          "midi": 62,
          "time": 62.25,
          "velocity": 0.4330708661417323,
          "duration": 0.75
        },
        {
          "name": "A3",
          "midi": 57,
          "time": 62.25,
          "velocity": 0.4330708661417323,
          "duration": 0.75
        },
        {
          "name": "F#4",
          "midi": 66,
          "time": 62.25,
          "velocity": 0.4330708661417323,
          "duration": 0.75
        },
        {
          "name": "D6",
          "midi": 86,
          "time": 63,
          "velocity": 0.4330708661417323,
          "duration": 0.375
        },
        {
          "name": "D4",
          "midi": 62,
          "time": 63,
          "velocity": 0.4330708661417323,
          "duration": 0.375
        },
        {
          "name": "D2",
          "midi": 38,
          "time": 63,
          "velocity": 0.4330708661417323,
          "duration": 1.40625
        },
        {
          "name": "A5",
          "midi": 81,
          "time": 63.375,
          "velocity": 0.4330708661417323,
          "duration": 0.75
        },
        {
          "name": "D4",
          "midi": 62,
          "time": 63.375,
          "velocity": 0.4330708661417323,
          "duration": 1.21875
        },
        {
          "name": "F#4",
          "midi": 66,
          "time": 63.375,
          "velocity": 0.4330708661417323,
          "duration": 1.21875
        },
        {
          "name": "F#5",
          "midi": 78,
          "time": 63.9375,
          "velocity": 0.4330708661417323,
          "duration": 0.375
        },
        {
          "name": "E5",
          "midi": 76,
          "time": 64.3125,
          "velocity": 0.4330708661417323,
          "duration": 0.9375
        },
        {
          "name": "C#2",
          "midi": 37,
          "time": 64.5,
          "velocity": 0.4330708661417323,
          "duration": 1.40625
        },
        {
          "name": "F#6",
          "midi": 90,
          "time": 64.875,
          "velocity": 0.4330708661417323,
          "duration": 0.375
        },
        {
          "name": "E6",
          "midi": 88,
          "time": 64.875,
          "velocity": 0.4330708661417323,
          "duration": 0.09375
        },
        {
          "name": "E4",
          "midi": 64,
          "time": 65.25,
          "velocity": 0.4330708661417323,
          "duration": 0.75
        },
        {
          "name": "B4",
          "midi": 71,
          "time": 65.25,
          "velocity": 0.4330708661417323,
          "duration": 0.75
        },
        {
          "name": "A3",
          "midi": 57,
          "time": 65.25,
          "velocity": 0.4330708661417323,
          "duration": 0.75
        },
        {
          "name": "B5",
          "midi": 83,
          "time": 66,
          "velocity": 0.4330708661417323,
          "duration": 0.375
        },
        {
          "name": "D5",
          "midi": 74,
          "time": 66,
          "velocity": 0.4330708661417323,
          "duration": 0.375
        },
        {
          "name": "G2",
          "midi": 43,
          "time": 66,
          "velocity": 0.4330708661417323,
          "duration": 0.65625
        },
        {
          "name": "G1",
          "midi": 31,
          "time": 66.375,
          "velocity": 0.4330708661417323,
          "duration": 2.53125
        },
        {
          "name": "G5",
          "midi": 79,
          "time": 66.375,
          "velocity": 0.4330708661417323,
          "duration": 0.5625
        },
        {
          "name": "D5",
          "midi": 74,
          "time": 66.375,
          "velocity": 0.4330708661417323,
          "duration": 1.875
        },
        {
          "name": "D4",
          "midi": 62,
          "time": 66.375,
          "velocity": 0.4330708661417323,
          "duration": 1.875
        },
        {
          "name": "B4",
          "midi": 71,
          "time": 66.375,
          "velocity": 0.4330708661417323,
          "duration": 1.875
        },
        {
          "name": "F#5",
          "midi": 78,
          "time": 66.9375,
          "velocity": 0.4330708661417323,
          "duration": 0.375
        },
        {
          "name": "E5",
          "midi": 76,
          "time": 67.3125,
          "velocity": 0.4330708661417323,
          "duration": 0.375
        },
        {
          "name": "F#6",
          "midi": 90,
          "time": 67.875,
          "velocity": 0.4330708661417323,
          "duration": 0.375
        },
        {
          "name": "E6",
          "midi": 88,
          "time": 67.875,
          "velocity": 0.4330708661417323,
          "duration": 0.09375
        },
        {
          "name": "D4",
          "midi": 62,
          "time": 68.25,
          "velocity": 0.4330708661417323,
          "duration": 0.75
        },
        {
          "name": "A3",
          "midi": 57,
          "time": 68.25,
          "velocity": 0.4330708661417323,
          "duration": 0.75
        },
        {
          "name": "F#4",
          "midi": 66,
          "time": 68.25,
          "velocity": 0.4330708661417323,
          "duration": 0.75
        },
        {
          "name": "D6",
          "midi": 86,
          "time": 69,
          "velocity": 0.4330708661417323,
          "duration": 0.375
        },
        {
          "name": "D4",
          "midi": 62,
          "time": 69,
          "velocity": 0.4330708661417323,
          "duration": 0.375
        },
        {
          "name": "D2",
          "midi": 38,
          "time": 69,
          "velocity": 0.4330708661417323,
          "duration": 1.40625
        },
        {
          "name": "A5",
          "midi": 81,
          "time": 69.375,
          "velocity": 0.4330708661417323,
          "duration": 0.75
        },
        {
          "name": "D4",
          "midi": 62,
          "time": 69.375,
          "velocity": 0.4330708661417323,
          "duration": 1.21875
        },
        {
          "name": "F#4",
          "midi": 66,
          "time": 69.375,
          "velocity": 0.4330708661417323,
          "duration": 1.21875
        },
        {
          "name": "F#5",
          "midi": 78,
          "time": 69.9375,
          "velocity": 0.4330708661417323,
          "duration": 0.375
        },
        {
          "name": "E5",
          "midi": 76,
          "time": 70.3125,
          "velocity": 0.4330708661417323,
          "duration": 0.9375
        },
        {
          "name": "C#2",
          "midi": 37,
          "time": 70.5,
          "velocity": 0.4330708661417323,
          "duration": 1.40625
        },
        {
          "name": "F#6",
          "midi": 90,
          "time": 70.875,
          "velocity": 0.4330708661417323,
          "duration": 0.375
        },
        {
          "name": "E6",
          "midi": 88,
          "time": 70.875,
          "velocity": 0.4330708661417323,
          "duration": 0.09375
        },
        {
          "name": "E4",
          "midi": 64,
          "time": 71.25,
          "velocity": 0.4330708661417323,
          "duration": 0.75
        },
        {
          "name": "B4",
          "midi": 71,
          "time": 71.25,
          "velocity": 0.4330708661417323,
          "duration": 0.75
        },
        {
          "name": "A3",
          "midi": 57,
          "time": 71.25,
          "velocity": 0.4330708661417323,
          "duration": 0.75
        }
      ],
      "controlChanges": {},
      "id": 0,
      "name": "Grand Piano",
      "instrumentNumber": 0,
      "instrument": "acoustic grand piano",
      "instrumentFamily": "piano",
      "channelNumber": 0,
      "isPercussion": false
    },
    {
      "startTime": 12,
      "duration": 71.90625,
      "length": 389,
      "notes": [
        {
          "name": "F#2",
          "midi": 42,
          "time": 12,
          "velocity": 0.7874015748031497,
          "duration": 0.09375
        },
        {
          "name": "A#2",
          "midi": 46,
          "time": 12,
          "velocity": 0.7874015748031497,
          "duration": 0.09375
        },
        {
          "name": "F#2",
          "midi": 42,
          "time": 12.1875,
          "velocity": 0.7874015748031497,
          "duration": 0.09375
        },
        {
          "name": "F#2",
          "midi": 42,
          "time": 12.375,
          "velocity": 0.7874015748031497,
          "duration": 0.09375
        },
        {
          "name": "F#2",
          "midi": 42,
          "time": 12.5625,
          "velocity": 0.7874015748031497,
          "duration": 0.09375
        },
        {
          "name": "D#2",
          "midi": 39,
          "time": 12.75,
          "velocity": 0.7874015748031497,
          "duration": 0.09375
        },
        {
          "name": "F#2",
          "midi": 42,
          "time": 12.75,
          "velocity": 0.7874015748031497,
          "duration": 0.09375
        },
        {
          "name": "F#2",
          "midi": 42,
          "time": 12.9375,
          "velocity": 0.7874015748031497,
          "duration": 0.09375
        },
        {
          "name": "F#2",
          "midi": 42,
          "time": 13.125,
          "velocity": 0.7874015748031497,
          "duration": 0.09375
        },
        {
          "name": "F#2",
          "midi": 42,
          "time": 13.3125,
          "velocity": 0.7874015748031497,
          "duration": 0.09375
        },
        {
          "name": "F#2",
          "midi": 42,
          "time": 13.5,
          "velocity": 0.7874015748031497,
          "duration": 0.09375
        },
        {
          "name": "F#2",
          "midi": 42,
          "time": 13.6875,
          "velocity": 0.7874015748031497,
          "duration": 0.09375
        },
        {
          "name": "F#2",
          "midi": 42,
          "time": 13.875,
          "velocity": 0.7874015748031497,
          "duration": 0.09375
        },
        {
          "name": "F#2",
          "midi": 42,
          "time": 14.0625,
          "velocity": 0.7874015748031497,
          "duration": 0.09375
        },
        {
          "name": "D#2",
          "midi": 39,
          "time": 14.25,
          "velocity": 0.7874015748031497,
          "duration": 0.09375
        },
        {
          "name": "F#2",
          "midi": 42,
          "time": 14.25,
          "velocity": 0.7874015748031497,
          "duration": 0.09375
        },
        {
          "name": "F#2",
          "midi": 42,
          "time": 14.4375,
          "velocity": 0.7874015748031497,
          "duration": 0.09375
        },
        {
          "name": "F#2",
          "midi": 42,
          "time": 14.625,
          "velocity": 0.7874015748031497,
          "duration": 0.09375
        },
        {
          "name": "F#2",
          "midi": 42,
          "time": 14.8125,
          "velocity": 0.7874015748031497,
          "duration": 0.09375
        },
        {
          "name": "F#2",
          "midi": 42,
          "time": 15,
          "velocity": 0.7874015748031497,
          "duration": 0.09375
        },
        {
          "name": "F#2",
          "midi": 42,
          "time": 15.1875,
          "velocity": 0.7874015748031497,
          "duration": 0.09375
        },
        {
          "name": "F#2",
          "midi": 42,
          "time": 15.375,
          "velocity": 0.7874015748031497,
          "duration": 0.09375
        },
        {
          "name": "F#2",
          "midi": 42,
          "time": 15.5625,
          "velocity": 0.7874015748031497,
          "duration": 0.09375
        },
        {
          "name": "D#2",
          "midi": 39,
          "time": 15.75,
          "velocity": 0.7874015748031497,
          "duration": 0.09375
        },
        {
          "name": "F#2",
          "midi": 42,
          "time": 15.75,
          "velocity": 0.7874015748031497,
          "duration": 0.09375
        },
        {
          "name": "F#2",
          "midi": 42,
          "time": 15.9375,
          "velocity": 0.7874015748031497,
          "duration": 0.09375
        },
        {
          "name": "F#2",
          "midi": 42,
          "time": 16.125,
          "velocity": 0.7874015748031497,
          "duration": 0.09375
        },
        {
          "name": "F#2",
          "midi": 42,
          "time": 16.3125,
          "velocity": 0.7874015748031497,
          "duration": 0.09375
        },
        {
          "name": "C#2",
          "midi": 37,
          "time": 16.3125,
          "velocity": 0.7874015748031497,
          "duration": 0.09375
        },
        {
          "name": "F#2",
          "midi": 42,
          "time": 16.5,
          "velocity": 0.7874015748031497,
          "duration": 0.09375
        },
        {
          "name": "F#2",
          "midi": 42,
          "time": 16.6875,
          "velocity": 0.7874015748031497,
          "duration": 0.09375
        },
        {
          "name": "C#2",
          "midi": 37,
          "time": 16.6875,
          "velocity": 0.7874015748031497,
          "duration": 0.09375
        },
        {
          "name": "F#2",
          "midi": 42,
          "time": 16.875,
          "velocity": 0.7874015748031497,
          "duration": 0.09375
        },
        {
          "name": "F#2",
          "midi": 42,
          "time": 17.0625,
          "velocity": 0.7874015748031497,
          "duration": 0.09375
        },
        {
          "name": "D#2",
          "midi": 39,
          "time": 17.25,
          "velocity": 0.7874015748031497,
          "duration": 0.09375
        },
        {
          "name": "F#2",
          "midi": 42,
          "time": 17.25,
          "velocity": 0.7874015748031497,
          "duration": 0.09375
        },
        {
          "name": "F#2",
          "midi": 42,
          "time": 17.4375,
          "velocity": 0.7874015748031497,
          "duration": 0.09375
        },
        {
          "name": "F#2",
          "midi": 42,
          "time": 17.625,
          "velocity": 0.7874015748031497,
          "duration": 0.09375
        },
        {
          "name": "F#2",
          "midi": 42,
          "time": 17.8125,
          "velocity": 0.7874015748031497,
          "duration": 0.09375
        },
        {
          "name": "F#2",
          "midi": 42,
          "time": 18,
          "velocity": 0.7874015748031497,
          "duration": 0.09375
        },
        {
          "name": "A#2",
          "midi": 46,
          "time": 18,
          "velocity": 0.7874015748031497,
          "duration": 0.09375
        },
        {
          "name": "F#2",
          "midi": 42,
          "time": 18.1875,
          "velocity": 0.7874015748031497,
          "duration": 0.09375
        },
        {
          "name": "F#2",
          "midi": 42,
          "time": 18.375,
          "velocity": 0.7874015748031497,
          "duration": 0.09375
        },
        {
          "name": "F#2",
          "midi": 42,
          "time": 18.5625,
          "velocity": 0.7874015748031497,
          "duration": 0.09375
        },
        {
          "name": "D#2",
          "midi": 39,
          "time": 18.75,
          "velocity": 0.7874015748031497,
          "duration": 0.09375
        },
        {
          "name": "F#2",
          "midi": 42,
          "time": 18.75,
          "velocity": 0.7874015748031497,
          "duration": 0.09375
        },
        {
          "name": "F#2",
          "midi": 42,
          "time": 18.9375,
          "velocity": 0.7874015748031497,
          "duration": 0.09375
        },
        {
          "name": "F#2",
          "midi": 42,
          "time": 19.125,
          "velocity": 0.7874015748031497,
          "duration": 0.09375
        },
        {
          "name": "F#2",
          "midi": 42,
          "time": 19.3125,
          "velocity": 0.7874015748031497,
          "duration": 0.09375
        },
        {
          "name": "F#2",
          "midi": 42,
          "time": 19.5,
          "velocity": 0.7874015748031497,
          "duration": 0.09375
        },
        {
          "name": "F#2",
          "midi": 42,
          "time": 19.6875,
          "velocity": 0.7874015748031497,
          "duration": 0.09375
        },
        {
          "name": "F#2",
          "midi": 42,
          "time": 19.875,
          "velocity": 0.7874015748031497,
          "duration": 0.09375
        },
        {
          "name": "F#2",
          "midi": 42,
          "time": 20.0625,
          "velocity": 0.7874015748031497,
          "duration": 0.09375
        },
        {
          "name": "D#2",
          "midi": 39,
          "time": 20.25,
          "velocity": 0.7874015748031497,
          "duration": 0.09375
        },
        {
          "name": "F#2",
          "midi": 42,
          "time": 20.25,
          "velocity": 0.7874015748031497,
          "duration": 0.09375
        },
        {
          "name": "F#2",
          "midi": 42,
          "time": 20.4375,
          "velocity": 0.7874015748031497,
          "duration": 0.09375
        },
        {
          "name": "F#2",
          "midi": 42,
          "time": 20.625,
          "velocity": 0.7874015748031497,
          "duration": 0.09375
        },
        {
          "name": "F#2",
          "midi": 42,
          "time": 20.8125,
          "velocity": 0.7874015748031497,
          "duration": 0.09375
        },
        {
          "name": "F#2",
          "midi": 42,
          "time": 21,
          "velocity": 0.7874015748031497,
          "duration": 0.09375
        },
        {
          "name": "F#2",
          "midi": 42,
          "time": 21.1875,
          "velocity": 0.7874015748031497,
          "duration": 0.09375
        },
        {
          "name": "F#2",
          "midi": 42,
          "time": 21.375,
          "velocity": 0.7874015748031497,
          "duration": 0.09375
        },
        {
          "name": "F#2",
          "midi": 42,
          "time": 21.5625,
          "velocity": 0.7874015748031497,
          "duration": 0.09375
        },
        {
          "name": "D#2",
          "midi": 39,
          "time": 21.75,
          "velocity": 0.7874015748031497,
          "duration": 0.09375
        },
        {
          "name": "F#2",
          "midi": 42,
          "time": 21.75,
          "velocity": 0.7874015748031497,
          "duration": 0.09375
        },
        {
          "name": "F#2",
          "midi": 42,
          "time": 21.9375,
          "velocity": 0.7874015748031497,
          "duration": 0.09375
        },
        {
          "name": "F#2",
          "midi": 42,
          "time": 22.125,
          "velocity": 0.7874015748031497,
          "duration": 0.09375
        },
        {
          "name": "F#2",
          "midi": 42,
          "time": 22.3125,
          "velocity": 0.7874015748031497,
          "duration": 0.09375
        },
        {
          "name": "C#2",
          "midi": 37,
          "time": 22.3125,
          "velocity": 0.7874015748031497,
          "duration": 0.09375
        },
        {
          "name": "F#2",
          "midi": 42,
          "time": 22.5,
          "velocity": 0.7874015748031497,
          "duration": 0.09375
        },
        {
          "name": "F#2",
          "midi": 42,
          "time": 22.6875,
          "velocity": 0.7874015748031497,
          "duration": 0.09375
        },
        {
          "name": "C#2",
          "midi": 37,
          "time": 22.6875,
          "velocity": 0.7874015748031497,
          "duration": 0.09375
        },
        {
          "name": "F#2",
          "midi": 42,
          "time": 22.875,
          "velocity": 0.7874015748031497,
          "duration": 0.09375
        },
        {
          "name": "F#2",
          "midi": 42,
          "time": 23.0625,
          "velocity": 0.7874015748031497,
          "duration": 0.09375
        },
        {
          "name": "D#2",
          "midi": 39,
          "time": 23.25,
          "velocity": 0.7874015748031497,
          "duration": 0.09375
        },
        {
          "name": "F#2",
          "midi": 42,
          "time": 23.25,
          "velocity": 0.7874015748031497,
          "duration": 0.09375
        },
        {
          "name": "F#2",
          "midi": 42,
          "time": 23.4375,
          "velocity": 0.7874015748031497,
          "duration": 0.09375
        },
        {
          "name": "F#2",
          "midi": 42,
          "time": 23.625,
          "velocity": 0.7874015748031497,
          "duration": 0.09375
        },
        {
          "name": "F#2",
          "midi": 42,
          "time": 23.8125,
          "velocity": 0.7874015748031497,
          "duration": 0.09375
        },
        {
          "name": "F#2",
          "midi": 42,
          "time": 24,
          "velocity": 0.7874015748031497,
          "duration": 0.09375
        },
        {
          "name": "A#2",
          "midi": 46,
          "time": 24,
          "velocity": 0.7874015748031497,
          "duration": 0.09375
        },
        {
          "name": "F#2",
          "midi": 42,
          "time": 24.1875,
          "velocity": 0.7874015748031497,
          "duration": 0.09375
        },
        {
          "name": "F#2",
          "midi": 42,
          "time": 24.375,
          "velocity": 0.7874015748031497,
          "duration": 0.09375
        },
        {
          "name": "F#2",
          "midi": 42,
          "time": 24.5625,
          "velocity": 0.7874015748031497,
          "duration": 0.09375
        },
        {
          "name": "D#2",
          "midi": 39,
          "time": 24.75,
          "velocity": 0.7874015748031497,
          "duration": 0.09375
        },
        {
          "name": "F#2",
          "midi": 42,
          "time": 24.75,
          "velocity": 0.7874015748031497,
          "duration": 0.09375
        },
        {
          "name": "F#2",
          "midi": 42,
          "time": 24.9375,
          "velocity": 0.7874015748031497,
          "duration": 0.09375
        },
        {
          "name": "F#2",
          "midi": 42,
          "time": 25.125,
          "velocity": 0.7874015748031497,
          "duration": 0.09375
        },
        {
          "name": "F#2",
          "midi": 42,
          "time": 25.3125,
          "velocity": 0.7874015748031497,
          "duration": 0.09375
        },
        {
          "name": "F#2",
          "midi": 42,
          "time": 25.5,
          "velocity": 0.7874015748031497,
          "duration": 0.09375
        },
        {
          "name": "F#2",
          "midi": 42,
          "time": 25.6875,
          "velocity": 0.7874015748031497,
          "duration": 0.09375
        },
        {
          "name": "F#2",
          "midi": 42,
          "time": 25.875,
          "velocity": 0.7874015748031497,
          "duration": 0.09375
        },
        {
          "name": "F#2",
          "midi": 42,
          "time": 26.0625,
          "velocity": 0.7874015748031497,
          "duration": 0.09375
        },
        {
          "name": "D#2",
          "midi": 39,
          "time": 26.25,
          "velocity": 0.7874015748031497,
          "duration": 0.09375
        },
        {
          "name": "F#2",
          "midi": 42,
          "time": 26.25,
          "velocity": 0.7874015748031497,
          "duration": 0.09375
        },
        {
          "name": "F#2",
          "midi": 42,
          "time": 26.4375,
          "velocity": 0.7874015748031497,
          "duration": 0.09375
        },
        {
          "name": "F#2",
          "midi": 42,
          "time": 26.625,
          "velocity": 0.7874015748031497,
          "duration": 0.09375
        },
        {
          "name": "F#2",
          "midi": 42,
          "time": 26.8125,
          "velocity": 0.7874015748031497,
          "duration": 0.09375
        },
        {
          "name": "F#2",
          "midi": 42,
          "time": 27,
          "velocity": 0.7874015748031497,
          "duration": 0.09375
        },
        {
          "name": "F#2",
          "midi": 42,
          "time": 27.1875,
          "velocity": 0.7874015748031497,
          "duration": 0.09375
        },
        {
          "name": "F#2",
          "midi": 42,
          "time": 27.375,
          "velocity": 0.7874015748031497,
          "duration": 0.09375
        },
        {
          "name": "F#2",
          "midi": 42,
          "time": 27.5625,
          "velocity": 0.7874015748031497,
          "duration": 0.09375
        },
        {
          "name": "D#2",
          "midi": 39,
          "time": 27.75,
          "velocity": 0.7874015748031497,
          "duration": 0.09375
        },
        {
          "name": "F#2",
          "midi": 42,
          "time": 27.75,
          "velocity": 0.7874015748031497,
          "duration": 0.09375
        },
        {
          "name": "F#2",
          "midi": 42,
          "time": 27.9375,
          "velocity": 0.7874015748031497,
          "duration": 0.09375
        },
        {
          "name": "F#2",
          "midi": 42,
          "time": 28.125,
          "velocity": 0.7874015748031497,
          "duration": 0.09375
        },
        {
          "name": "F#2",
          "midi": 42,
          "time": 28.3125,
          "velocity": 0.7874015748031497,
          "duration": 0.09375
        },
        {
          "name": "C#2",
          "midi": 37,
          "time": 28.3125,
          "velocity": 0.7874015748031497,
          "duration": 0.09375
        },
        {
          "name": "F#2",
          "midi": 42,
          "time": 28.5,
          "velocity": 0.7874015748031497,
          "duration": 0.09375
        },
        {
          "name": "F#2",
          "midi": 42,
          "time": 28.6875,
          "velocity": 0.7874015748031497,
          "duration": 0.09375
        },
        {
          "name": "C#2",
          "midi": 37,
          "time": 28.6875,
          "velocity": 0.7874015748031497,
          "duration": 0.09375
        },
        {
          "name": "F#2",
          "midi": 42,
          "time": 28.875,
          "velocity": 0.7874015748031497,
          "duration": 0.09375
        },
        {
          "name": "F#2",
          "midi": 42,
          "time": 29.0625,
          "velocity": 0.7874015748031497,
          "duration": 0.09375
        },
        {
          "name": "D#2",
          "midi": 39,
          "time": 29.25,
          "velocity": 0.7874015748031497,
          "duration": 0.09375
        },
        {
          "name": "F#2",
          "midi": 42,
          "time": 29.25,
          "velocity": 0.7874015748031497,
          "duration": 0.09375
        },
        {
          "name": "F#2",
          "midi": 42,
          "time": 29.4375,
          "velocity": 0.7874015748031497,
          "duration": 0.09375
        },
        {
          "name": "F#2",
          "midi": 42,
          "time": 29.625,
          "velocity": 0.7874015748031497,
          "duration": 0.09375
        },
        {
          "name": "F#2",
          "midi": 42,
          "time": 29.8125,
          "velocity": 0.7874015748031497,
          "duration": 0.09375
        },
        {
          "name": "F#2",
          "midi": 42,
          "time": 30,
          "velocity": 0.7874015748031497,
          "duration": 0.09375
        },
        {
          "name": "A#2",
          "midi": 46,
          "time": 30,
          "velocity": 0.7874015748031497,
          "duration": 0.09375
        },
        {
          "name": "F#2",
          "midi": 42,
          "time": 30.1875,
          "velocity": 0.7874015748031497,
          "duration": 0.09375
        },
        {
          "name": "F#2",
          "midi": 42,
          "time": 30.375,
          "velocity": 0.7874015748031497,
          "duration": 0.09375
        },
        {
          "name": "F#2",
          "midi": 42,
          "time": 30.5625,
          "velocity": 0.7874015748031497,
          "duration": 0.09375
        },
        {
          "name": "D#2",
          "midi": 39,
          "time": 30.75,
          "velocity": 0.7874015748031497,
          "duration": 0.09375
        },
        {
          "name": "F#2",
          "midi": 42,
          "time": 30.75,
          "velocity": 0.7874015748031497,
          "duration": 0.09375
        },
        {
          "name": "F#2",
          "midi": 42,
          "time": 30.9375,
          "velocity": 0.7874015748031497,
          "duration": 0.09375
        },
        {
          "name": "F#2",
          "midi": 42,
          "time": 31.125,
          "velocity": 0.7874015748031497,
          "duration": 0.09375
        },
        {
          "name": "F#2",
          "midi": 42,
          "time": 31.3125,
          "velocity": 0.7874015748031497,
          "duration": 0.09375
        },
        {
          "name": "F#2",
          "midi": 42,
          "time": 31.5,
          "velocity": 0.7874015748031497,
          "duration": 0.09375
        },
        {
          "name": "F#2",
          "midi": 42,
          "time": 31.6875,
          "velocity": 0.7874015748031497,
          "duration": 0.09375
        },
        {
          "name": "F#2",
          "midi": 42,
          "time": 31.875,
          "velocity": 0.7874015748031497,
          "duration": 0.09375
        },
        {
          "name": "F#2",
          "midi": 42,
          "time": 32.0625,
          "velocity": 0.7874015748031497,
          "duration": 0.09375
        },
        {
          "name": "D#2",
          "midi": 39,
          "time": 32.25,
          "velocity": 0.7874015748031497,
          "duration": 0.09375
        },
        {
          "name": "F#2",
          "midi": 42,
          "time": 32.25,
          "velocity": 0.7874015748031497,
          "duration": 0.09375
        },
        {
          "name": "F#2",
          "midi": 42,
          "time": 32.4375,
          "velocity": 0.7874015748031497,
          "duration": 0.09375
        },
        {
          "name": "F#2",
          "midi": 42,
          "time": 32.625,
          "velocity": 0.7874015748031497,
          "duration": 0.09375
        },
        {
          "name": "F#2",
          "midi": 42,
          "time": 32.8125,
          "velocity": 0.7874015748031497,
          "duration": 0.09375
        },
        {
          "name": "F#2",
          "midi": 42,
          "time": 33,
          "velocity": 0.7874015748031497,
          "duration": 0.09375
        },
        {
          "name": "F#2",
          "midi": 42,
          "time": 33.1875,
          "velocity": 0.7874015748031497,
          "duration": 0.09375
        },
        {
          "name": "F#2",
          "midi": 42,
          "time": 33.375,
          "velocity": 0.7874015748031497,
          "duration": 0.09375
        },
        {
          "name": "F#2",
          "midi": 42,
          "time": 33.5625,
          "velocity": 0.7874015748031497,
          "duration": 0.09375
        },
        {
          "name": "D#2",
          "midi": 39,
          "time": 33.75,
          "velocity": 0.7874015748031497,
          "duration": 0.09375
        },
        {
          "name": "F#2",
          "midi": 42,
          "time": 33.75,
          "velocity": 0.7874015748031497,
          "duration": 0.09375
        },
        {
          "name": "F#2",
          "midi": 42,
          "time": 33.9375,
          "velocity": 0.7874015748031497,
          "duration": 0.09375
        },
        {
          "name": "F#2",
          "midi": 42,
          "time": 34.125,
          "velocity": 0.7874015748031497,
          "duration": 0.09375
        },
        {
          "name": "F#2",
          "midi": 42,
          "time": 34.3125,
          "velocity": 0.7874015748031497,
          "duration": 0.09375
        },
        {
          "name": "C#2",
          "midi": 37,
          "time": 34.3125,
          "velocity": 0.7874015748031497,
          "duration": 0.09375
        },
        {
          "name": "F#2",
          "midi": 42,
          "time": 34.5,
          "velocity": 0.7874015748031497,
          "duration": 0.09375
        },
        {
          "name": "F#2",
          "midi": 42,
          "time": 34.6875,
          "velocity": 0.7874015748031497,
          "duration": 0.09375
        },
        {
          "name": "C#2",
          "midi": 37,
          "time": 34.6875,
          "velocity": 0.7874015748031497,
          "duration": 0.09375
        },
        {
          "name": "F#2",
          "midi": 42,
          "time": 34.875,
          "velocity": 0.7874015748031497,
          "duration": 0.09375
        },
        {
          "name": "F#2",
          "midi": 42,
          "time": 35.0625,
          "velocity": 0.7874015748031497,
          "duration": 0.09375
        },
        {
          "name": "D#2",
          "midi": 39,
          "time": 35.25,
          "velocity": 0.7874015748031497,
          "duration": 0.09375
        },
        {
          "name": "F#2",
          "midi": 42,
          "time": 35.25,
          "velocity": 0.7874015748031497,
          "duration": 0.09375
        },
        {
          "name": "F#2",
          "midi": 42,
          "time": 35.4375,
          "velocity": 0.7874015748031497,
          "duration": 0.09375
        },
        {
          "name": "F#2",
          "midi": 42,
          "time": 35.625,
          "velocity": 0.7874015748031497,
          "duration": 0.09375
        },
        {
          "name": "F#2",
          "midi": 42,
          "time": 35.8125,
          "velocity": 0.7874015748031497,
          "duration": 0.09375
        },
        {
          "name": "F#2",
          "midi": 42,
          "time": 36,
          "velocity": 0.7874015748031497,
          "duration": 0.09375
        },
        {
          "name": "A#2",
          "midi": 46,
          "time": 36,
          "velocity": 0.7874015748031497,
          "duration": 0.09375
        },
        {
          "name": "F#2",
          "midi": 42,
          "time": 36.1875,
          "velocity": 0.7874015748031497,
          "duration": 0.09375
        },
        {
          "name": "F#2",
          "midi": 42,
          "time": 36.375,
          "velocity": 0.7874015748031497,
          "duration": 0.09375
        },
        {
          "name": "F#2",
          "midi": 42,
          "time": 36.5625,
          "velocity": 0.7874015748031497,
          "duration": 0.09375
        },
        {
          "name": "D#2",
          "midi": 39,
          "time": 36.75,
          "velocity": 0.7874015748031497,
          "duration": 0.09375
        },
        {
          "name": "F#2",
          "midi": 42,
          "time": 36.75,
          "velocity": 0.7874015748031497,
          "duration": 0.09375
        },
        {
          "name": "F#2",
          "midi": 42,
          "time": 36.9375,
          "velocity": 0.7874015748031497,
          "duration": 0.09375
        },
        {
          "name": "F#2",
          "midi": 42,
          "time": 37.125,
          "velocity": 0.7874015748031497,
          "duration": 0.09375
        },
        {
          "name": "F#2",
          "midi": 42,
          "time": 37.3125,
          "velocity": 0.7874015748031497,
          "duration": 0.09375
        },
        {
          "name": "F#2",
          "midi": 42,
          "time": 37.5,
          "velocity": 0.7874015748031497,
          "duration": 0.09375
        },
        {
          "name": "F#2",
          "midi": 42,
          "time": 37.6875,
          "velocity": 0.7874015748031497,
          "duration": 0.09375
        },
        {
          "name": "F#2",
          "midi": 42,
          "time": 37.875,
          "velocity": 0.7874015748031497,
          "duration": 0.09375
        },
        {
          "name": "F#2",
          "midi": 42,
          "time": 38.0625,
          "velocity": 0.7874015748031497,
          "duration": 0.09375
        },
        {
          "name": "D#2",
          "midi": 39,
          "time": 38.25,
          "velocity": 0.7874015748031497,
          "duration": 0.09375
        },
        {
          "name": "F#2",
          "midi": 42,
          "time": 38.25,
          "velocity": 0.7874015748031497,
          "duration": 0.09375
        },
        {
          "name": "F#2",
          "midi": 42,
          "time": 38.4375,
          "velocity": 0.7874015748031497,
          "duration": 0.09375
        },
        {
          "name": "F#2",
          "midi": 42,
          "time": 38.625,
          "velocity": 0.7874015748031497,
          "duration": 0.09375
        },
        {
          "name": "F#2",
          "midi": 42,
          "time": 38.8125,
          "velocity": 0.7874015748031497,
          "duration": 0.09375
        },
        {
          "name": "F#2",
          "midi": 42,
          "time": 39,
          "velocity": 0.7874015748031497,
          "duration": 0.09375
        },
        {
          "name": "F#2",
          "midi": 42,
          "time": 39.1875,
          "velocity": 0.7874015748031497,
          "duration": 0.09375
        },
        {
          "name": "F#2",
          "midi": 42,
          "time": 39.375,
          "velocity": 0.7874015748031497,
          "duration": 0.09375
        },
        {
          "name": "F#2",
          "midi": 42,
          "time": 39.5625,
          "velocity": 0.7874015748031497,
          "duration": 0.09375
        },
        {
          "name": "D#2",
          "midi": 39,
          "time": 39.75,
          "velocity": 0.7874015748031497,
          "duration": 0.09375
        },
        {
          "name": "F#2",
          "midi": 42,
          "time": 39.75,
          "velocity": 0.7874015748031497,
          "duration": 0.09375
        },
        {
          "name": "F#2",
          "midi": 42,
          "time": 39.9375,
          "velocity": 0.7874015748031497,
          "duration": 0.09375
        },
        {
          "name": "F#2",
          "midi": 42,
          "time": 40.125,
          "velocity": 0.7874015748031497,
          "duration": 0.09375
        },
        {
          "name": "F#2",
          "midi": 42,
          "time": 40.3125,
          "velocity": 0.7874015748031497,
          "duration": 0.09375
        },
        {
          "name": "C#2",
          "midi": 37,
          "time": 40.3125,
          "velocity": 0.7874015748031497,
          "duration": 0.09375
        },
        {
          "name": "F#2",
          "midi": 42,
          "time": 40.5,
          "velocity": 0.7874015748031497,
          "duration": 0.09375
        },
        {
          "name": "F#2",
          "midi": 42,
          "time": 40.6875,
          "velocity": 0.7874015748031497,
          "duration": 0.09375
        },
        {
          "name": "C#2",
          "midi": 37,
          "time": 40.6875,
          "velocity": 0.7874015748031497,
          "duration": 0.09375
        },
        {
          "name": "F#2",
          "midi": 42,
          "time": 40.875,
          "velocity": 0.7874015748031497,
          "duration": 0.09375
        },
        {
          "name": "F#2",
          "midi": 42,
          "time": 41.0625,
          "velocity": 0.7874015748031497,
          "duration": 0.09375
        },
        {
          "name": "D#2",
          "midi": 39,
          "time": 41.25,
          "velocity": 0.7874015748031497,
          "duration": 0.09375
        },
        {
          "name": "F#2",
          "midi": 42,
          "time": 41.25,
          "velocity": 0.7874015748031497,
          "duration": 0.09375
        },
        {
          "name": "F#2",
          "midi": 42,
          "time": 41.4375,
          "velocity": 0.7874015748031497,
          "duration": 0.09375
        },
        {
          "name": "F#2",
          "midi": 42,
          "time": 41.625,
          "velocity": 0.7874015748031497,
          "duration": 0.09375
        },
        {
          "name": "F#2",
          "midi": 42,
          "time": 41.8125,
          "velocity": 0.7874015748031497,
          "duration": 0.09375
        },
        {
          "name": "F#2",
          "midi": 42,
          "time": 42,
          "velocity": 0.7874015748031497,
          "duration": 0.09375
        },
        {
          "name": "F#2",
          "midi": 42,
          "time": 42.1875,
          "velocity": 0.7874015748031497,
          "duration": 0.09375
        },
        {
          "name": "F#2",
          "midi": 42,
          "time": 42.375,
          "velocity": 0.7874015748031497,
          "duration": 0.09375
        },
        {
          "name": "F#2",
          "midi": 42,
          "time": 42.5625,
          "velocity": 0.7874015748031497,
          "duration": 0.09375
        },
        {
          "name": "D#2",
          "midi": 39,
          "time": 42.75,
          "velocity": 0.7874015748031497,
          "duration": 0.09375
        },
        {
          "name": "F#2",
          "midi": 42,
          "time": 42.75,
          "velocity": 0.7874015748031497,
          "duration": 0.09375
        },
        {
          "name": "F#2",
          "midi": 42,
          "time": 42.9375,
          "velocity": 0.7874015748031497,
          "duration": 0.09375
        },
        {
          "name": "F#2",
          "midi": 42,
          "time": 43.125,
          "velocity": 0.7874015748031497,
          "duration": 0.09375
        },
        {
          "name": "F#2",
          "midi": 42,
          "time": 43.3125,
          "velocity": 0.7874015748031497,
          "duration": 0.09375
        },
        {
          "name": "F#2",
          "midi": 42,
          "time": 43.5,
          "velocity": 0.7874015748031497,
          "duration": 0.09375
        },
        {
          "name": "F#2",
          "midi": 42,
          "time": 43.6875,
          "velocity": 0.7874015748031497,
          "duration": 0.09375
        },
        {
          "name": "F#2",
          "midi": 42,
          "time": 43.875,
          "velocity": 0.7874015748031497,
          "duration": 0.09375
        },
        {
          "name": "F#2",
          "midi": 42,
          "time": 44.0625,
          "velocity": 0.7874015748031497,
          "duration": 0.09375
        },
        {
          "name": "D#2",
          "midi": 39,
          "time": 44.25,
          "velocity": 0.7874015748031497,
          "duration": 0.09375
        },
        {
          "name": "F#2",
          "midi": 42,
          "time": 44.25,
          "velocity": 0.7874015748031497,
          "duration": 0.09375
        },
        {
          "name": "F#2",
          "midi": 42,
          "time": 44.4375,
          "velocity": 0.7874015748031497,
          "duration": 0.09375
        },
        {
          "name": "F#2",
          "midi": 42,
          "time": 44.625,
          "velocity": 0.7874015748031497,
          "duration": 0.09375
        },
        {
          "name": "F#2",
          "midi": 42,
          "time": 44.8125,
          "velocity": 0.7874015748031497,
          "duration": 0.09375
        },
        {
          "name": "F#2",
          "midi": 42,
          "time": 45,
          "velocity": 0.7874015748031497,
          "duration": 0.09375
        },
        {
          "name": "F#2",
          "midi": 42,
          "time": 45.1875,
          "velocity": 0.7874015748031497,
          "duration": 0.09375
        },
        {
          "name": "F#2",
          "midi": 42,
          "time": 45.375,
          "velocity": 0.7874015748031497,
          "duration": 0.09375
        },
        {
          "name": "F#2",
          "midi": 42,
          "time": 45.5625,
          "velocity": 0.7874015748031497,
          "duration": 0.09375
        },
        {
          "name": "D#2",
          "midi": 39,
          "time": 45.75,
          "velocity": 0.7874015748031497,
          "duration": 0.09375
        },
        {
          "name": "F#2",
          "midi": 42,
          "time": 45.75,
          "velocity": 0.7874015748031497,
          "duration": 0.09375
        },
        {
          "name": "F#2",
          "midi": 42,
          "time": 45.9375,
          "velocity": 0.7874015748031497,
          "duration": 0.09375
        },
        {
          "name": "F#2",
          "midi": 42,
          "time": 46.125,
          "velocity": 0.7874015748031497,
          "duration": 0.09375
        },
        {
          "name": "F#2",
          "midi": 42,
          "time": 46.3125,
          "velocity": 0.7874015748031497,
          "duration": 0.09375
        },
        {
          "name": "C#2",
          "midi": 37,
          "time": 46.3125,
          "velocity": 0.7874015748031497,
          "duration": 0.09375
        },
        {
          "name": "F#2",
          "midi": 42,
          "time": 46.5,
          "velocity": 0.7874015748031497,
          "duration": 0.09375
        },
        {
          "name": "F#2",
          "midi": 42,
          "time": 46.6875,
          "velocity": 0.7874015748031497,
          "duration": 0.09375
        },
        {
          "name": "C#2",
          "midi": 37,
          "time": 46.6875,
          "velocity": 0.7874015748031497,
          "duration": 0.09375
        },
        {
          "name": "F#2",
          "midi": 42,
          "time": 46.875,
          "velocity": 0.7874015748031497,
          "duration": 0.09375
        },
        {
          "name": "F#2",
          "midi": 42,
          "time": 47.0625,
          "velocity": 0.7874015748031497,
          "duration": 0.09375
        },
        {
          "name": "D#2",
          "midi": 39,
          "time": 47.25,
          "velocity": 0.7874015748031497,
          "duration": 0.09375
        },
        {
          "name": "F#2",
          "midi": 42,
          "time": 47.25,
          "velocity": 0.7874015748031497,
          "duration": 0.09375
        },
        {
          "name": "F#2",
          "midi": 42,
          "time": 47.4375,
          "velocity": 0.7874015748031497,
          "duration": 0.09375
        },
        {
          "name": "F#2",
          "midi": 42,
          "time": 47.625,
          "velocity": 0.7874015748031497,
          "duration": 0.09375
        },
        {
          "name": "F#2",
          "midi": 42,
          "time": 47.8125,
          "velocity": 0.7874015748031497,
          "duration": 0.09375
        },
        {
          "name": "F#2",
          "midi": 42,
          "time": 48,
          "velocity": 0.7874015748031497,
          "duration": 0.09375
        },
        {
          "name": "A#2",
          "midi": 46,
          "time": 48,
          "velocity": 0.7874015748031497,
          "duration": 0.09375
        },
        {
          "name": "F#2",
          "midi": 42,
          "time": 48.1875,
          "velocity": 0.7874015748031497,
          "duration": 0.09375
        },
        {
          "name": "F#2",
          "midi": 42,
          "time": 48.375,
          "velocity": 0.7874015748031497,
          "duration": 0.09375
        },
        {
          "name": "F#2",
          "midi": 42,
          "time": 48.5625,
          "velocity": 0.7874015748031497,
          "duration": 0.09375
        },
        {
          "name": "D#2",
          "midi": 39,
          "time": 48.75,
          "velocity": 0.7874015748031497,
          "duration": 0.09375
        },
        {
          "name": "F#2",
          "midi": 42,
          "time": 48.75,
          "velocity": 0.7874015748031497,
          "duration": 0.09375
        },
        {
          "name": "F#2",
          "midi": 42,
          "time": 48.9375,
          "velocity": 0.7874015748031497,
          "duration": 0.09375
        },
        {
          "name": "F#2",
          "midi": 42,
          "time": 49.125,
          "velocity": 0.7874015748031497,
          "duration": 0.09375
        },
        {
          "name": "F#2",
          "midi": 42,
          "time": 49.3125,
          "velocity": 0.7874015748031497,
          "duration": 0.09375
        },
        {
          "name": "F#2",
          "midi": 42,
          "time": 49.5,
          "velocity": 0.7874015748031497,
          "duration": 0.09375
        },
        {
          "name": "F#2",
          "midi": 42,
          "time": 49.6875,
          "velocity": 0.7874015748031497,
          "duration": 0.09375
        },
        {
          "name": "F#2",
          "midi": 42,
          "time": 49.875,
          "velocity": 0.7874015748031497,
          "duration": 0.09375
        },
        {
          "name": "F#2",
          "midi": 42,
          "time": 50.0625,
          "velocity": 0.7874015748031497,
          "duration": 0.09375
        },
        {
          "name": "D#2",
          "midi": 39,
          "time": 50.25,
          "velocity": 0.7874015748031497,
          "duration": 0.09375
        },
        {
          "name": "F#2",
          "midi": 42,
          "time": 50.25,
          "velocity": 0.7874015748031497,
          "duration": 0.09375
        },
        {
          "name": "F#2",
          "midi": 42,
          "time": 50.4375,
          "velocity": 0.7874015748031497,
          "duration": 0.09375
        },
        {
          "name": "F#2",
          "midi": 42,
          "time": 50.625,
          "velocity": 0.7874015748031497,
          "duration": 0.09375
        },
        {
          "name": "F#2",
          "midi": 42,
          "time": 50.8125,
          "velocity": 0.7874015748031497,
          "duration": 0.09375
        },
        {
          "name": "F#2",
          "midi": 42,
          "time": 51,
          "velocity": 0.7874015748031497,
          "duration": 0.09375
        },
        {
          "name": "F#2",
          "midi": 42,
          "time": 51.1875,
          "velocity": 0.7874015748031497,
          "duration": 0.09375
        },
        {
          "name": "F#2",
          "midi": 42,
          "time": 51.375,
          "velocity": 0.7874015748031497,
          "duration": 0.09375
        },
        {
          "name": "F#2",
          "midi": 42,
          "time": 51.5625,
          "velocity": 0.7874015748031497,
          "duration": 0.09375
        },
        {
          "name": "D#2",
          "midi": 39,
          "time": 51.75,
          "velocity": 0.7874015748031497,
          "duration": 0.09375
        },
        {
          "name": "F#2",
          "midi": 42,
          "time": 51.75,
          "velocity": 0.7874015748031497,
          "duration": 0.09375
        },
        {
          "name": "F#2",
          "midi": 42,
          "time": 51.9375,
          "velocity": 0.7874015748031497,
          "duration": 0.09375
        },
        {
          "name": "F#2",
          "midi": 42,
          "time": 52.125,
          "velocity": 0.7874015748031497,
          "duration": 0.09375
        },
        {
          "name": "F#2",
          "midi": 42,
          "time": 52.3125,
          "velocity": 0.7874015748031497,
          "duration": 0.09375
        },
        {
          "name": "C#2",
          "midi": 37,
          "time": 52.3125,
          "velocity": 0.7874015748031497,
          "duration": 0.09375
        },
        {
          "name": "F#2",
          "midi": 42,
          "time": 52.5,
          "velocity": 0.7874015748031497,
          "duration": 0.09375
        },
        {
          "name": "F#2",
          "midi": 42,
          "time": 52.6875,
          "velocity": 0.7874015748031497,
          "duration": 0.09375
        },
        {
          "name": "C#2",
          "midi": 37,
          "time": 52.6875,
          "velocity": 0.7874015748031497,
          "duration": 0.09375
        },
        {
          "name": "F#2",
          "midi": 42,
          "time": 52.875,
          "velocity": 0.7874015748031497,
          "duration": 0.09375
        },
        {
          "name": "F#2",
          "midi": 42,
          "time": 53.0625,
          "velocity": 0.7874015748031497,
          "duration": 0.09375
        },
        {
          "name": "D#2",
          "midi": 39,
          "time": 53.25,
          "velocity": 0.7874015748031497,
          "duration": 0.09375
        },
        {
          "name": "F#2",
          "midi": 42,
          "time": 53.25,
          "velocity": 0.7874015748031497,
          "duration": 0.09375
        },
        {
          "name": "F#2",
          "midi": 42,
          "time": 53.4375,
          "velocity": 0.7874015748031497,
          "duration": 0.09375
        },
        {
          "name": "F#2",
          "midi": 42,
          "time": 53.625,
          "velocity": 0.7874015748031497,
          "duration": 0.09375
        },
        {
          "name": "F#2",
          "midi": 42,
          "time": 53.8125,
          "velocity": 0.7874015748031497,
          "duration": 0.09375
        },
        {
          "name": "F#2",
          "midi": 42,
          "time": 54,
          "velocity": 0.7874015748031497,
          "duration": 0.09375
        },
        {
          "name": "A#2",
          "midi": 46,
          "time": 54,
          "velocity": 0.7874015748031497,
          "duration": 0.09375
        },
        {
          "name": "F#2",
          "midi": 42,
          "time": 54.1875,
          "velocity": 0.7874015748031497,
          "duration": 0.09375
        },
        {
          "name": "F#2",
          "midi": 42,
          "time": 54.375,
          "velocity": 0.7874015748031497,
          "duration": 0.09375
        },
        {
          "name": "F#2",
          "midi": 42,
          "time": 54.5625,
          "velocity": 0.7874015748031497,
          "duration": 0.09375
        },
        {
          "name": "D#2",
          "midi": 39,
          "time": 54.75,
          "velocity": 0.7874015748031497,
          "duration": 0.09375
        },
        {
          "name": "F#2",
          "midi": 42,
          "time": 54.75,
          "velocity": 0.7874015748031497,
          "duration": 0.09375
        },
        {
          "name": "F#2",
          "midi": 42,
          "time": 54.9375,
          "velocity": 0.7874015748031497,
          "duration": 0.09375
        },
        {
          "name": "F#2",
          "midi": 42,
          "time": 55.125,
          "velocity": 0.7874015748031497,
          "duration": 0.09375
        },
        {
          "name": "F#2",
          "midi": 42,
          "time": 55.3125,
          "velocity": 0.7874015748031497,
          "duration": 0.09375
        },
        {
          "name": "F#2",
          "midi": 42,
          "time": 55.5,
          "velocity": 0.7874015748031497,
          "duration": 0.09375
        },
        {
          "name": "F#2",
          "midi": 42,
          "time": 55.6875,
          "velocity": 0.7874015748031497,
          "duration": 0.09375
        },
        {
          "name": "F#2",
          "midi": 42,
          "time": 55.875,
          "velocity": 0.7874015748031497,
          "duration": 0.09375
        },
        {
          "name": "F#2",
          "midi": 42,
          "time": 56.0625,
          "velocity": 0.7874015748031497,
          "duration": 0.09375
        },
        {
          "name": "D#2",
          "midi": 39,
          "time": 56.25,
          "velocity": 0.7874015748031497,
          "duration": 0.09375
        },
        {
          "name": "F#2",
          "midi": 42,
          "time": 56.25,
          "velocity": 0.7874015748031497,
          "duration": 0.09375
        },
        {
          "name": "F#2",
          "midi": 42,
          "time": 56.4375,
          "velocity": 0.7874015748031497,
          "duration": 0.09375
        },
        {
          "name": "F#2",
          "midi": 42,
          "time": 56.625,
          "velocity": 0.7874015748031497,
          "duration": 0.09375
        },
        {
          "name": "F#2",
          "midi": 42,
          "time": 56.8125,
          "velocity": 0.7874015748031497,
          "duration": 0.09375
        },
        {
          "name": "F#2",
          "midi": 42,
          "time": 57,
          "velocity": 0.7874015748031497,
          "duration": 0.09375
        },
        {
          "name": "F#2",
          "midi": 42,
          "time": 57.1875,
          "velocity": 0.7874015748031497,
          "duration": 0.09375
        },
        {
          "name": "F#2",
          "midi": 42,
          "time": 57.375,
          "velocity": 0.7874015748031497,
          "duration": 0.09375
        },
        {
          "name": "F#2",
          "midi": 42,
          "time": 57.5625,
          "velocity": 0.7874015748031497,
          "duration": 0.09375
        },
        {
          "name": "D#2",
          "midi": 39,
          "time": 57.75,
          "velocity": 0.7874015748031497,
          "duration": 0.09375
        },
        {
          "name": "F#2",
          "midi": 42,
          "time": 57.75,
          "velocity": 0.7874015748031497,
          "duration": 0.09375
        },
        {
          "name": "F#2",
          "midi": 42,
          "time": 57.9375,
          "velocity": 0.7874015748031497,
          "duration": 0.09375
        },
        {
          "name": "F#2",
          "midi": 42,
          "time": 58.125,
          "velocity": 0.7874015748031497,
          "duration": 0.09375
        },
        {
          "name": "F#2",
          "midi": 42,
          "time": 58.3125,
          "velocity": 0.7874015748031497,
          "duration": 0.09375
        },
        {
          "name": "C#2",
          "midi": 37,
          "time": 58.3125,
          "velocity": 0.7874015748031497,
          "duration": 0.09375
        },
        {
          "name": "F#2",
          "midi": 42,
          "time": 58.5,
          "velocity": 0.7874015748031497,
          "duration": 0.09375
        },
        {
          "name": "F#2",
          "midi": 42,
          "time": 58.6875,
          "velocity": 0.7874015748031497,
          "duration": 0.09375
        },
        {
          "name": "C#2",
          "midi": 37,
          "time": 58.6875,
          "velocity": 0.7874015748031497,
          "duration": 0.09375
        },
        {
          "name": "F#2",
          "midi": 42,
          "time": 58.875,
          "velocity": 0.7874015748031497,
          "duration": 0.09375
        },
        {
          "name": "F#2",
          "midi": 42,
          "time": 59.0625,
          "velocity": 0.7874015748031497,
          "duration": 0.09375
        },
        {
          "name": "D#2",
          "midi": 39,
          "time": 59.25,
          "velocity": 0.7874015748031497,
          "duration": 0.09375
        },
        {
          "name": "F#2",
          "midi": 42,
          "time": 59.25,
          "velocity": 0.7874015748031497,
          "duration": 0.09375
        },
        {
          "name": "F#2",
          "midi": 42,
          "time": 59.4375,
          "velocity": 0.7874015748031497,
          "duration": 0.09375
        },
        {
          "name": "F#2",
          "midi": 42,
          "time": 59.625,
          "velocity": 0.7874015748031497,
          "duration": 0.09375
        },
        {
          "name": "F#2",
          "midi": 42,
          "time": 59.8125,
          "velocity": 0.7874015748031497,
          "duration": 0.09375
        },
        {
          "name": "F#2",
          "midi": 42,
          "time": 60,
          "velocity": 0.7874015748031497,
          "duration": 0.09375
        },
        {
          "name": "A#2",
          "midi": 46,
          "time": 60,
          "velocity": 0.7874015748031497,
          "duration": 0.09375
        },
        {
          "name": "F#2",
          "midi": 42,
          "time": 60.1875,
          "velocity": 0.7874015748031497,
          "duration": 0.09375
        },
        {
          "name": "F#2",
          "midi": 42,
          "time": 60.375,
          "velocity": 0.7874015748031497,
          "duration": 0.09375
        },
        {
          "name": "F#2",
          "midi": 42,
          "time": 60.5625,
          "velocity": 0.7874015748031497,
          "duration": 0.09375
        },
        {
          "name": "D#2",
          "midi": 39,
          "time": 60.75,
          "velocity": 0.7874015748031497,
          "duration": 0.09375
        },
        {
          "name": "F#2",
          "midi": 42,
          "time": 60.75,
          "velocity": 0.7874015748031497,
          "duration": 0.09375
        },
        {
          "name": "F#2",
          "midi": 42,
          "time": 60.9375,
          "velocity": 0.7874015748031497,
          "duration": 0.09375
        },
        {
          "name": "F#2",
          "midi": 42,
          "time": 61.125,
          "velocity": 0.7874015748031497,
          "duration": 0.09375
        },
        {
          "name": "F#2",
          "midi": 42,
          "time": 61.3125,
          "velocity": 0.7874015748031497,
          "duration": 0.09375
        },
        {
          "name": "F#2",
          "midi": 42,
          "time": 61.5,
          "velocity": 0.7874015748031497,
          "duration": 0.09375
        },
        {
          "name": "F#2",
          "midi": 42,
          "time": 61.6875,
          "velocity": 0.7874015748031497,
          "duration": 0.09375
        },
        {
          "name": "F#2",
          "midi": 42,
          "time": 61.875,
          "velocity": 0.7874015748031497,
          "duration": 0.09375
        },
        {
          "name": "F#2",
          "midi": 42,
          "time": 62.0625,
          "velocity": 0.7874015748031497,
          "duration": 0.09375
        },
        {
          "name": "D#2",
          "midi": 39,
          "time": 62.25,
          "velocity": 0.7874015748031497,
          "duration": 0.09375
        },
        {
          "name": "F#2",
          "midi": 42,
          "time": 62.25,
          "velocity": 0.7874015748031497,
          "duration": 0.09375
        },
        {
          "name": "F#2",
          "midi": 42,
          "time": 62.4375,
          "velocity": 0.7874015748031497,
          "duration": 0.09375
        },
        {
          "name": "F#2",
          "midi": 42,
          "time": 62.625,
          "velocity": 0.7874015748031497,
          "duration": 0.09375
        },
        {
          "name": "F#2",
          "midi": 42,
          "time": 62.8125,
          "velocity": 0.7874015748031497,
          "duration": 0.09375
        },
        {
          "name": "F#2",
          "midi": 42,
          "time": 63,
          "velocity": 0.7874015748031497,
          "duration": 0.09375
        },
        {
          "name": "F#2",
          "midi": 42,
          "time": 63.1875,
          "velocity": 0.7874015748031497,
          "duration": 0.09375
        },
        {
          "name": "F#2",
          "midi": 42,
          "time": 63.375,
          "velocity": 0.7874015748031497,
          "duration": 0.09375
        },
        {
          "name": "F#2",
          "midi": 42,
          "time": 63.5625,
          "velocity": 0.7874015748031497,
          "duration": 0.09375
        },
        {
          "name": "D#2",
          "midi": 39,
          "time": 63.75,
          "velocity": 0.7874015748031497,
          "duration": 0.09375
        },
        {
          "name": "F#2",
          "midi": 42,
          "time": 63.75,
          "velocity": 0.7874015748031497,
          "duration": 0.09375
        },
        {
          "name": "F#2",
          "midi": 42,
          "time": 63.9375,
          "velocity": 0.7874015748031497,
          "duration": 0.09375
        },
        {
          "name": "F#2",
          "midi": 42,
          "time": 64.125,
          "velocity": 0.7874015748031497,
          "duration": 0.09375
        },
        {
          "name": "F#2",
          "midi": 42,
          "time": 64.3125,
          "velocity": 0.7874015748031497,
          "duration": 0.09375
        },
        {
          "name": "C#2",
          "midi": 37,
          "time": 64.3125,
          "velocity": 0.7874015748031497,
          "duration": 0.09375
        },
        {
          "name": "F#2",
          "midi": 42,
          "time": 64.5,
          "velocity": 0.7874015748031497,
          "duration": 0.09375
        },
        {
          "name": "F#2",
          "midi": 42,
          "time": 64.6875,
          "velocity": 0.7874015748031497,
          "duration": 0.09375
        },
        {
          "name": "C#2",
          "midi": 37,
          "time": 64.6875,
          "velocity": 0.7874015748031497,
          "duration": 0.09375
        },
        {
          "name": "F#2",
          "midi": 42,
          "time": 64.875,
          "velocity": 0.7874015748031497,
          "duration": 0.09375
        },
        {
          "name": "F#2",
          "midi": 42,
          "time": 65.0625,
          "velocity": 0.7874015748031497,
          "duration": 0.09375
        },
        {
          "name": "D#2",
          "midi": 39,
          "time": 65.25,
          "velocity": 0.7874015748031497,
          "duration": 0.09375
        },
        {
          "name": "F#2",
          "midi": 42,
          "time": 65.25,
          "velocity": 0.7874015748031497,
          "duration": 0.09375
        },
        {
          "name": "F#2",
          "midi": 42,
          "time": 65.4375,
          "velocity": 0.7874015748031497,
          "duration": 0.09375
        },
        {
          "name": "F#2",
          "midi": 42,
          "time": 65.625,
          "velocity": 0.7874015748031497,
          "duration": 0.09375
        },
        {
          "name": "F#2",
          "midi": 42,
          "time": 65.8125,
          "velocity": 0.7874015748031497,
          "duration": 0.09375
        },
        {
          "name": "F#2",
          "midi": 42,
          "time": 66,
          "velocity": 0.7874015748031497,
          "duration": 0.09375
        },
        {
          "name": "A#2",
          "midi": 46,
          "time": 66,
          "velocity": 0.7874015748031497,
          "duration": 0.09375
        },
        {
          "name": "F#2",
          "midi": 42,
          "time": 66.1875,
          "velocity": 0.7874015748031497,
          "duration": 0.09375
        },
        {
          "name": "F#2",
          "midi": 42,
          "time": 66.375,
          "velocity": 0.7874015748031497,
          "duration": 0.09375
        },
        {
          "name": "F#2",
          "midi": 42,
          "time": 66.5625,
          "velocity": 0.7874015748031497,
          "duration": 0.09375
        },
        {
          "name": "D#2",
          "midi": 39,
          "time": 66.75,
          "velocity": 0.7874015748031497,
          "duration": 0.09375
        },
        {
          "name": "F#2",
          "midi": 42,
          "time": 66.75,
          "velocity": 0.7874015748031497,
          "duration": 0.09375
        },
        {
          "name": "F#2",
          "midi": 42,
          "time": 66.9375,
          "velocity": 0.7874015748031497,
          "duration": 0.09375
        },
        {
          "name": "F#2",
          "midi": 42,
          "time": 67.125,
          "velocity": 0.7874015748031497,
          "duration": 0.09375
        },
        {
          "name": "F#2",
          "midi": 42,
          "time": 67.3125,
          "velocity": 0.7874015748031497,
          "duration": 0.09375
        },
        {
          "name": "F#2",
          "midi": 42,
          "time": 67.5,
          "velocity": 0.7874015748031497,
          "duration": 0.09375
        },
        {
          "name": "F#2",
          "midi": 42,
          "time": 67.6875,
          "velocity": 0.7874015748031497,
          "duration": 0.09375
        },
        {
          "name": "F#2",
          "midi": 42,
          "time": 67.875,
          "velocity": 0.7874015748031497,
          "duration": 0.09375
        },
        {
          "name": "F#2",
          "midi": 42,
          "time": 68.0625,
          "velocity": 0.7874015748031497,
          "duration": 0.09375
        },
        {
          "name": "D#2",
          "midi": 39,
          "time": 68.25,
          "velocity": 0.7874015748031497,
          "duration": 0.09375
        },
        {
          "name": "F#2",
          "midi": 42,
          "time": 68.25,
          "velocity": 0.7874015748031497,
          "duration": 0.09375
        },
        {
          "name": "F#2",
          "midi": 42,
          "time": 68.4375,
          "velocity": 0.7874015748031497,
          "duration": 0.09375
        },
        {
          "name": "F#2",
          "midi": 42,
          "time": 68.625,
          "velocity": 0.7874015748031497,
          "duration": 0.09375
        },
        {
          "name": "F#2",
          "midi": 42,
          "time": 68.8125,
          "velocity": 0.7874015748031497,
          "duration": 0.09375
        },
        {
          "name": "F#2",
          "midi": 42,
          "time": 69,
          "velocity": 0.7874015748031497,
          "duration": 0.09375
        },
        {
          "name": "F#2",
          "midi": 42,
          "time": 69.1875,
          "velocity": 0.7874015748031497,
          "duration": 0.09375
        },
        {
          "name": "F#2",
          "midi": 42,
          "time": 69.375,
          "velocity": 0.7874015748031497,
          "duration": 0.09375
        },
        {
          "name": "F#2",
          "midi": 42,
          "time": 69.5625,
          "velocity": 0.7874015748031497,
          "duration": 0.09375
        },
        {
          "name": "D#2",
          "midi": 39,
          "time": 69.75,
          "velocity": 0.7874015748031497,
          "duration": 0.09375
        },
        {
          "name": "F#2",
          "midi": 42,
          "time": 69.75,
          "velocity": 0.7874015748031497,
          "duration": 0.09375
        },
        {
          "name": "F#2",
          "midi": 42,
          "time": 69.9375,
          "velocity": 0.7874015748031497,
          "duration": 0.09375
        },
        {
          "name": "F#2",
          "midi": 42,
          "time": 70.125,
          "velocity": 0.7874015748031497,
          "duration": 0.09375
        },
        {
          "name": "F#2",
          "midi": 42,
          "time": 70.3125,
          "velocity": 0.7874015748031497,
          "duration": 0.09375
        },
        {
          "name": "C#2",
          "midi": 37,
          "time": 70.3125,
          "velocity": 0.7874015748031497,
          "duration": 0.09375
        },
        {
          "name": "F#2",
          "midi": 42,
          "time": 70.5,
          "velocity": 0.7874015748031497,
          "duration": 0.09375
        },
        {
          "name": "F#2",
          "midi": 42,
          "time": 70.6875,
          "velocity": 0.7874015748031497,
          "duration": 0.09375
        },
        {
          "name": "C#2",
          "midi": 37,
          "time": 70.6875,
          "velocity": 0.7874015748031497,
          "duration": 0.09375
        },
        {
          "name": "F#2",
          "midi": 42,
          "time": 70.875,
          "velocity": 0.7874015748031497,
          "duration": 0.09375
        },
        {
          "name": "F#2",
          "midi": 42,
          "time": 71.0625,
          "velocity": 0.7874015748031497,
          "duration": 0.09375
        },
        {
          "name": "D#2",
          "midi": 39,
          "time": 71.25,
          "velocity": 0.7874015748031497,
          "duration": 0.09375
        },
        {
          "name": "F#2",
          "midi": 42,
          "time": 71.25,
          "velocity": 0.7874015748031497,
          "duration": 0.09375
        },
        {
          "name": "F#2",
          "midi": 42,
          "time": 71.4375,
          "velocity": 0.7874015748031497,
          "duration": 0.09375
        },
        {
          "name": "F#2",
          "midi": 42,
          "time": 71.625,
          "velocity": 0.7874015748031497,
          "duration": 0.09375
        },
        {
          "name": "F#2",
          "midi": 42,
          "time": 71.8125,
          "velocity": 0.7874015748031497,
          "duration": 0.09375
        }
      ],
      "controlChanges": {},
      "id": 1,
      "name": "808 Drum Kit",
      "instrumentNumber": 0,
      "instrument": "standard kit",
      "instrumentFamily": "drums",
      "channelNumber": 9,
      "isPercussion": true
    },
    {
      "startTime": 24,
      "duration": 71.53125,
      "length": 43,
      "notes": [
        {
          "name": "G1",
          "midi": 31,
          "time": 24,
          "velocity": 0.47244094488188976,
          "duration": 0.1875
        },
        {
          "name": "G1",
          "midi": 31,
          "time": 24.5625,
          "velocity": 0.47244094488188976,
          "duration": 0.1875
        },
        {
          "name": "G1",
          "midi": 31,
          "time": 25.3125,
          "velocity": 0.47244094488188976,
          "duration": 0.1875
        },
        {
          "name": "D1",
          "midi": 26,
          "time": 27,
          "velocity": 0.47244094488188976,
          "duration": 0.1875
        },
        {
          "name": "D1",
          "midi": 26,
          "time": 28.125,
          "velocity": 0.47244094488188976,
          "duration": 0.1875
        },
        {
          "name": "C#1",
          "midi": 25,
          "time": 28.875,
          "velocity": 0.47244094488188976,
          "duration": 0.1875
        },
        {
          "name": "A1",
          "midi": 33,
          "time": 29.4375,
          "velocity": 0.47244094488188976,
          "duration": 0.09375
        },
        {
          "name": "G1",
          "midi": 31,
          "time": 30,
          "velocity": 0.47244094488188976,
          "duration": 0.1875
        },
        {
          "name": "G1",
          "midi": 31,
          "time": 30.5625,
          "velocity": 0.47244094488188976,
          "duration": 0.1875
        },
        {
          "name": "G1",
          "midi": 31,
          "time": 31.3125,
          "velocity": 0.47244094488188976,
          "duration": 0.1875
        },
        {
          "name": "D1",
          "midi": 26,
          "time": 33,
          "velocity": 0.47244094488188976,
          "duration": 0.1875
        },
        {
          "name": "D1",
          "midi": 26,
          "time": 34.125,
          "velocity": 0.47244094488188976,
          "duration": 0.1875
        },
        {
          "name": "C#1",
          "midi": 25,
          "time": 34.875,
          "velocity": 0.47244094488188976,
          "duration": 0.1875
        },
        {
          "name": "A1",
          "midi": 33,
          "time": 35.4375,
          "velocity": 0.47244094488188976,
          "duration": 0.09375
        },
        {
          "name": "G1",
          "midi": 31,
          "time": 48,
          "velocity": 0.47244094488188976,
          "duration": 0.1875
        },
        {
          "name": "G1",
          "midi": 31,
          "time": 48.5625,
          "velocity": 0.47244094488188976,
          "duration": 0.1875
        },
        {
          "name": "G1",
          "midi": 31,
          "time": 49.3125,
          "velocity": 0.47244094488188976,
          "duration": 0.1875
        },
        {
          "name": "D1",
          "midi": 26,
          "time": 51,
          "velocity": 0.47244094488188976,
          "duration": 0.1875
        },
        {
          "name": "D1",
          "midi": 26,
          "time": 52.125,
          "velocity": 0.47244094488188976,
          "duration": 0.1875
        },
        {
          "name": "C#1",
          "midi": 25,
          "time": 52.875,
          "velocity": 0.47244094488188976,
          "duration": 0.1875
        },
        {
          "name": "A1",
          "midi": 33,
          "time": 53.4375,
          "velocity": 0.47244094488188976,
          "duration": 0.09375
        },
        {
          "name": "A1",
          "midi": 33,
          "time": 53.4375,
          "velocity": 0.47244094488188976,
          "duration": 0.09375
        },
        {
          "name": "G1",
          "midi": 31,
          "time": 54,
          "velocity": 0.47244094488188976,
          "duration": 0.1875
        },
        {
          "name": "G1",
          "midi": 31,
          "time": 54.5625,
          "velocity": 0.47244094488188976,
          "duration": 0.1875
        },
        {
          "name": "G1",
          "midi": 31,
          "time": 55.3125,
          "velocity": 0.47244094488188976,
          "duration": 0.1875
        },
        {
          "name": "D1",
          "midi": 26,
          "time": 57,
          "velocity": 0.47244094488188976,
          "duration": 0.1875
        },
        {
          "name": "D1",
          "midi": 26,
          "time": 58.125,
          "velocity": 0.47244094488188976,
          "duration": 0.1875
        },
        {
          "name": "C#1",
          "midi": 25,
          "time": 58.875,
          "velocity": 0.47244094488188976,
          "duration": 0.1875
        },
        {
          "name": "A1",
          "midi": 33,
          "time": 59.4375,
          "velocity": 0.47244094488188976,
          "duration": 0.09375
        },
        {
          "name": "G1",
          "midi": 31,
          "time": 60,
          "velocity": 0.47244094488188976,
          "duration": 0.1875
        },
        {
          "name": "G1",
          "midi": 31,
          "time": 60.5625,
          "velocity": 0.47244094488188976,
          "duration": 0.1875
        },
        {
          "name": "G1",
          "midi": 31,
          "time": 61.3125,
          "velocity": 0.47244094488188976,
          "duration": 0.1875
        },
        {
          "name": "D1",
          "midi": 26,
          "time": 63,
          "velocity": 0.47244094488188976,
          "duration": 0.1875
        },
        {
          "name": "D1",
          "midi": 26,
          "time": 64.125,
          "velocity": 0.47244094488188976,
          "duration": 0.1875
        },
        {
          "name": "C#1",
          "midi": 25,
          "time": 64.875,
          "velocity": 0.47244094488188976,
          "duration": 0.1875
        },
        {
          "name": "A1",
          "midi": 33,
          "time": 65.4375,
          "velocity": 0.47244094488188976,
          "duration": 0.09375
        },
        {
          "name": "G1",
          "midi": 31,
          "time": 66,
          "velocity": 0.47244094488188976,
          "duration": 0.1875
        },
        {
          "name": "G1",
          "midi": 31,
          "time": 66.5625,
          "velocity": 0.47244094488188976,
          "duration": 0.1875
        },
        {
          "name": "G1",
          "midi": 31,
          "time": 67.3125,
          "velocity": 0.47244094488188976,
          "duration": 0.1875
        },
        {
          "name": "D1",
          "midi": 26,
          "time": 69,
          "velocity": 0.47244094488188976,
          "duration": 0.1875
        },
        {
          "name": "D1",
          "midi": 26,
          "time": 70.125,
          "velocity": 0.47244094488188976,
          "duration": 0.1875
        },
        {
          "name": "C#1",
          "midi": 25,
          "time": 70.875,
          "velocity": 0.47244094488188976,
          "duration": 0.1875
        },
        {
          "name": "A1",
          "midi": 33,
          "time": 71.4375,
          "velocity": 0.47244094488188976,
          "duration": 0.09375
        }
      ],
      "controlChanges": {},
      "id": 2,
      "name": "Slap Bass",
      "instrumentNumber": 36,
      "instrument": "slap bass 1",
      "instrumentFamily": "bass",
      "channelNumber": 1,
      "isPercussion": false
    },
    {
      "startTime": 2.0625,
      "duration": 71.90625,
      "length": 83,
      "notes": [
        {
          "name": "E6",
          "midi": 88,
          "time": 2.0625,
          "velocity": 0.7874015748031497,
          "duration": 0.09375
        },
        {
          "name": "E6",
          "midi": 88,
          "time": 5.0625,
          "velocity": 0.7874015748031497,
          "duration": 0.09375
        },
        {
          "name": "E6",
          "midi": 88,
          "time": 8.0625,
          "velocity": 0.7874015748031497,
          "duration": 0.09375
        },
        {
          "name": "E6",
          "midi": 88,
          "time": 11.0625,
          "velocity": 0.7874015748031497,
          "duration": 0.09375
        },
        {
          "name": "E6",
          "midi": 88,
          "time": 14.0625,
          "velocity": 0.7874015748031497,
          "duration": 0.09375
        },
        {
          "name": "F#6",
          "midi": 90,
          "time": 14.4375,
          "velocity": 0.7874015748031497,
          "duration": 0.09375
        },
        {
          "name": "F#6",
          "midi": 90,
          "time": 14.625,
          "velocity": 0.7874015748031497,
          "duration": 0.09375
        },
        {
          "name": "F#6",
          "midi": 90,
          "time": 14.8125,
          "velocity": 0.7874015748031497,
          "duration": 0.09375
        },
        {
          "name": "E6",
          "midi": 88,
          "time": 17.0625,
          "velocity": 0.7874015748031497,
          "duration": 0.09375
        },
        {
          "name": "F#6",
          "midi": 90,
          "time": 17.4375,
          "velocity": 0.7874015748031497,
          "duration": 0.09375
        },
        {
          "name": "F#6",
          "midi": 90,
          "time": 17.625,
          "velocity": 0.7874015748031497,
          "duration": 0.09375
        },
        {
          "name": "F#6",
          "midi": 90,
          "time": 17.8125,
          "velocity": 0.7874015748031497,
          "duration": 0.09375
        },
        {
          "name": "F#6",
          "midi": 90,
          "time": 20.4375,
          "velocity": 0.7874015748031497,
          "duration": 0.09375
        },
        {
          "name": "F#6",
          "midi": 90,
          "time": 20.625,
          "velocity": 0.7874015748031497,
          "duration": 0.09375
        },
        {
          "name": "F#6",
          "midi": 90,
          "time": 20.8125,
          "velocity": 0.7874015748031497,
          "duration": 0.09375
        },
        {
          "name": "E6",
          "midi": 88,
          "time": 23.0625,
          "velocity": 0.7874015748031497,
          "duration": 0.09375
        },
        {
          "name": "F#6",
          "midi": 90,
          "time": 23.4375,
          "velocity": 0.7874015748031497,
          "duration": 0.09375
        },
        {
          "name": "F#6",
          "midi": 90,
          "time": 23.625,
          "velocity": 0.7874015748031497,
          "duration": 0.09375
        },
        {
          "name": "F#6",
          "midi": 90,
          "time": 23.8125,
          "velocity": 0.7874015748031497,
          "duration": 0.09375
        },
        {
          "name": "E6",
          "midi": 88,
          "time": 26.0625,
          "velocity": 0.7874015748031497,
          "duration": 0.09375
        },
        {
          "name": "F#6",
          "midi": 90,
          "time": 26.4375,
          "velocity": 0.7874015748031497,
          "duration": 0.09375
        },
        {
          "name": "F#6",
          "midi": 90,
          "time": 26.625,
          "velocity": 0.7874015748031497,
          "duration": 0.09375
        },
        {
          "name": "F#6",
          "midi": 90,
          "time": 26.8125,
          "velocity": 0.7874015748031497,
          "duration": 0.09375
        },
        {
          "name": "E6",
          "midi": 88,
          "time": 29.0625,
          "velocity": 0.7874015748031497,
          "duration": 0.09375
        },
        {
          "name": "F#6",
          "midi": 90,
          "time": 29.4375,
          "velocity": 0.7874015748031497,
          "duration": 0.09375
        },
        {
          "name": "F#6",
          "midi": 90,
          "time": 29.625,
          "velocity": 0.7874015748031497,
          "duration": 0.09375
        },
        {
          "name": "F#6",
          "midi": 90,
          "time": 29.8125,
          "velocity": 0.7874015748031497,
          "duration": 0.09375
        },
        {
          "name": "E6",
          "midi": 88,
          "time": 32.0625,
          "velocity": 0.7874015748031497,
          "duration": 0.09375
        },
        {
          "name": "F#6",
          "midi": 90,
          "time": 32.4375,
          "velocity": 0.7874015748031497,
          "duration": 0.09375
        },
        {
          "name": "F#6",
          "midi": 90,
          "time": 32.625,
          "velocity": 0.7874015748031497,
          "duration": 0.09375
        },
        {
          "name": "F#6",
          "midi": 90,
          "time": 32.8125,
          "velocity": 0.7874015748031497,
          "duration": 0.09375
        },
        {
          "name": "E6",
          "midi": 88,
          "time": 35.0625,
          "velocity": 0.7874015748031497,
          "duration": 0.09375
        },
        {
          "name": "F#6",
          "midi": 90,
          "time": 35.4375,
          "velocity": 0.7874015748031497,
          "duration": 0.09375
        },
        {
          "name": "F#6",
          "midi": 90,
          "time": 35.625,
          "velocity": 0.7874015748031497,
          "duration": 0.09375
        },
        {
          "name": "F#6",
          "midi": 90,
          "time": 35.8125,
          "velocity": 0.7874015748031497,
          "duration": 0.09375
        },
        {
          "name": "E6",
          "midi": 88,
          "time": 38.0625,
          "velocity": 0.7874015748031497,
          "duration": 0.09375
        },
        {
          "name": "F#6",
          "midi": 90,
          "time": 38.4375,
          "velocity": 0.7874015748031497,
          "duration": 0.09375
        },
        {
          "name": "F#6",
          "midi": 90,
          "time": 38.625,
          "velocity": 0.7874015748031497,
          "duration": 0.09375
        },
        {
          "name": "F#6",
          "midi": 90,
          "time": 38.8125,
          "velocity": 0.7874015748031497,
          "duration": 0.09375
        },
        {
          "name": "E6",
          "midi": 88,
          "time": 41.0625,
          "velocity": 0.7874015748031497,
          "duration": 0.09375
        },
        {
          "name": "F#6",
          "midi": 90,
          "time": 41.4375,
          "velocity": 0.7874015748031497,
          "duration": 0.09375
        },
        {
          "name": "F#6",
          "midi": 90,
          "time": 41.625,
          "velocity": 0.7874015748031497,
          "duration": 0.09375
        },
        {
          "name": "F#6",
          "midi": 90,
          "time": 41.8125,
          "velocity": 0.7874015748031497,
          "duration": 0.09375
        },
        {
          "name": "E6",
          "midi": 88,
          "time": 44.0625,
          "velocity": 0.7874015748031497,
          "duration": 0.09375
        },
        {
          "name": "F#6",
          "midi": 90,
          "time": 44.4375,
          "velocity": 0.7874015748031497,
          "duration": 0.09375
        },
        {
          "name": "F#6",
          "midi": 90,
          "time": 44.625,
          "velocity": 0.7874015748031497,
          "duration": 0.09375
        },
        {
          "name": "F#6",
          "midi": 90,
          "time": 44.8125,
          "velocity": 0.7874015748031497,
          "duration": 0.09375
        },
        {
          "name": "E6",
          "midi": 88,
          "time": 47.0625,
          "velocity": 0.7874015748031497,
          "duration": 0.09375
        },
        {
          "name": "F#6",
          "midi": 90,
          "time": 47.4375,
          "velocity": 0.7874015748031497,
          "duration": 0.09375
        },
        {
          "name": "F#6",
          "midi": 90,
          "time": 47.625,
          "velocity": 0.7874015748031497,
          "duration": 0.09375
        },
        {
          "name": "F#6",
          "midi": 90,
          "time": 47.8125,
          "velocity": 0.7874015748031497,
          "duration": 0.09375
        },
        {
          "name": "E6",
          "midi": 88,
          "time": 50.0625,
          "velocity": 0.7874015748031497,
          "duration": 0.09375
        },
        {
          "name": "F#6",
          "midi": 90,
          "time": 50.4375,
          "velocity": 0.7874015748031497,
          "duration": 0.09375
        },
        {
          "name": "F#6",
          "midi": 90,
          "time": 50.625,
          "velocity": 0.7874015748031497,
          "duration": 0.09375
        },
        {
          "name": "F#6",
          "midi": 90,
          "time": 50.8125,
          "velocity": 0.7874015748031497,
          "duration": 0.09375
        },
        {
          "name": "E6",
          "midi": 88,
          "time": 53.0625,
          "velocity": 0.7874015748031497,
          "duration": 0.09375
        },
        {
          "name": "F#6",
          "midi": 90,
          "time": 53.4375,
          "velocity": 0.7874015748031497,
          "duration": 0.09375
        },
        {
          "name": "F#6",
          "midi": 90,
          "time": 53.625,
          "velocity": 0.7874015748031497,
          "duration": 0.09375
        },
        {
          "name": "F#6",
          "midi": 90,
          "time": 53.8125,
          "velocity": 0.7874015748031497,
          "duration": 0.09375
        },
        {
          "name": "E6",
          "midi": 88,
          "time": 56.0625,
          "velocity": 0.7874015748031497,
          "duration": 0.09375
        },
        {
          "name": "F#6",
          "midi": 90,
          "time": 56.4375,
          "velocity": 0.7874015748031497,
          "duration": 0.09375
        },
        {
          "name": "F#6",
          "midi": 90,
          "time": 56.625,
          "velocity": 0.7874015748031497,
          "duration": 0.09375
        },
        {
          "name": "F#6",
          "midi": 90,
          "time": 56.8125,
          "velocity": 0.7874015748031497,
          "duration": 0.09375
        },
        {
          "name": "E6",
          "midi": 88,
          "time": 59.0625,
          "velocity": 0.7874015748031497,
          "duration": 0.09375
        },
        {
          "name": "F#6",
          "midi": 90,
          "time": 59.4375,
          "velocity": 0.7874015748031497,
          "duration": 0.09375
        },
        {
          "name": "F#6",
          "midi": 90,
          "time": 59.625,
          "velocity": 0.7874015748031497,
          "duration": 0.09375
        },
        {
          "name": "F#6",
          "midi": 90,
          "time": 59.8125,
          "velocity": 0.7874015748031497,
          "duration": 0.09375
        },
        {
          "name": "E6",
          "midi": 88,
          "time": 62.0625,
          "velocity": 0.7874015748031497,
          "duration": 0.09375
        },
        {
          "name": "F#6",
          "midi": 90,
          "time": 62.4375,
          "velocity": 0.7874015748031497,
          "duration": 0.09375
        },
        {
          "name": "F#6",
          "midi": 90,
          "time": 62.625,
          "velocity": 0.7874015748031497,
          "duration": 0.09375
        },
        {
          "name": "F#6",
          "midi": 90,
          "time": 62.8125,
          "velocity": 0.7874015748031497,
          "duration": 0.09375
        },
        {
          "name": "E6",
          "midi": 88,
          "time": 65.0625,
          "velocity": 0.7874015748031497,
          "duration": 0.09375
        },
        {
          "name": "F#6",
          "midi": 90,
          "time": 65.4375,
          "velocity": 0.7874015748031497,
          "duration": 0.09375
        },
        {
          "name": "F#6",
          "midi": 90,
          "time": 65.625,
          "velocity": 0.7874015748031497,
          "duration": 0.09375
        },
        {
          "name": "F#6",
          "midi": 90,
          "time": 65.8125,
          "velocity": 0.7874015748031497,
          "duration": 0.09375
        },
        {
          "name": "E6",
          "midi": 88,
          "time": 68.0625,
          "velocity": 0.7874015748031497,
          "duration": 0.09375
        },
        {
          "name": "F#6",
          "midi": 90,
          "time": 68.4375,
          "velocity": 0.7874015748031497,
          "duration": 0.09375
        },
        {
          "name": "F#6",
          "midi": 90,
          "time": 68.625,
          "velocity": 0.7874015748031497,
          "duration": 0.09375
        },
        {
          "name": "F#6",
          "midi": 90,
          "time": 68.8125,
          "velocity": 0.7874015748031497,
          "duration": 0.09375
        },
        {
          "name": "E6",
          "midi": 88,
          "time": 71.0625,
          "velocity": 0.7874015748031497,
          "duration": 0.09375
        },
        {
          "name": "F#6",
          "midi": 90,
          "time": 71.4375,
          "velocity": 0.7874015748031497,
          "duration": 0.09375
        },
        {
          "name": "F#6",
          "midi": 90,
          "time": 71.625,
          "velocity": 0.7874015748031497,
          "duration": 0.09375
        },
        {
          "name": "F#6",
          "midi": 90,
          "time": 71.8125,
          "velocity": 0.7874015748031497,
          "duration": 0.09375
        }
      ],
      "controlChanges": {},
      "id": 3,
      "name": "Grand Piano (Classic)",
      "instrumentNumber": 0,
      "instrument": "acoustic grand piano",
      "instrumentFamily": "piano",
      "channelNumber": 2,
      "isPercussion": false
    },
    {
      "startTime": 12.375,
      "duration": 69.46875,
      "length": 20,
      "notes": [
        {
          "name": "A4",
          "midi": 69,
          "time": 12.375,
          "velocity": 0.7874015748031497,
          "duration": 0.09375
        },
        {
          "name": "A4",
          "midi": 69,
          "time": 15.375,
          "velocity": 0.7874015748031497,
          "duration": 0.09375
        },
        {
          "name": "A4",
          "midi": 69,
          "time": 18.375,
          "velocity": 0.7874015748031497,
          "duration": 0.09375
        },
        {
          "name": "A4",
          "midi": 69,
          "time": 21.375,
          "velocity": 0.7874015748031497,
          "duration": 0.09375
        },
        {
          "name": "A4",
          "midi": 69,
          "time": 24.375,
          "velocity": 0.7874015748031497,
          "duration": 0.09375
        },
        {
          "name": "A4",
          "midi": 69,
          "time": 27.375,
          "velocity": 0.7874015748031497,
          "duration": 0.09375
        },
        {
          "name": "A4",
          "midi": 69,
          "time": 30.375,
          "velocity": 0.7874015748031497,
          "duration": 0.09375
        },
        {
          "name": "A4",
          "midi": 69,
          "time": 33.375,
          "velocity": 0.7874015748031497,
          "duration": 0.09375
        },
        {
          "name": "A4",
          "midi": 69,
          "time": 36.375,
          "velocity": 0.7874015748031497,
          "duration": 0.09375
        },
        {
          "name": "A4",
          "midi": 69,
          "time": 39.375,
          "velocity": 0.7874015748031497,
          "duration": 0.09375
        },
        {
          "name": "A4",
          "midi": 69,
          "time": 42.375,
          "velocity": 0.7874015748031497,
          "duration": 0.09375
        },
        {
          "name": "A4",
          "midi": 69,
          "time": 45.375,
          "velocity": 0.7874015748031497,
          "duration": 0.09375
        },
        {
          "name": "A4",
          "midi": 69,
          "time": 48.375,
          "velocity": 0.7874015748031497,
          "duration": 0.09375
        },
        {
          "name": "A4",
          "midi": 69,
          "time": 51.375,
          "velocity": 0.7874015748031497,
          "duration": 0.09375
        },
        {
          "name": "A4",
          "midi": 69,
          "time": 54.375,
          "velocity": 0.7874015748031497,
          "duration": 0.09375
        },
        {
          "name": "A4",
          "midi": 69,
          "time": 57.375,
          "velocity": 0.7874015748031497,
          "duration": 0.09375
        },
        {
          "name": "A4",
          "midi": 69,
          "time": 60.375,
          "velocity": 0.7874015748031497,
          "duration": 0.09375
        },
        {
          "name": "A4",
          "midi": 69,
          "time": 63.375,
          "velocity": 0.7874015748031497,
          "duration": 0.09375
        },
        {
          "name": "A4",
          "midi": 69,
          "time": 66.375,
          "velocity": 0.7874015748031497,
          "duration": 0.09375
        },
        {
          "name": "A4",
          "midi": 69,
          "time": 69.375,
          "velocity": 0.7874015748031497,
          "duration": 0.09375
        }
      ],
      "controlChanges": {},
      "id": 4,
      "name": "Drum Kit",
      "instrumentNumber": 0,
      "instrument": "standard kit",
      "instrumentFamily": "drums",
      "channelNumber": 9,
      "isPercussion": true
    },
    {
      "startTime": 12,
      "duration": 47.90625,
      "length": 288,
      "notes": [
        {
          "name": "F#6",
          "midi": 90,
          "time": 12,
          "velocity": 0.2204724409448819,
          "duration": 0.09375
        },
        {
          "name": "D6",
          "midi": 86,
          "time": 12,
          "velocity": 0.2204724409448819,
          "duration": 0.09375
        },
        {
          "name": "B6",
          "midi": 95,
          "time": 12,
          "velocity": 0.2204724409448819,
          "duration": 0.09375
        },
        {
          "name": "E6",
          "midi": 88,
          "time": 12,
          "velocity": 0.2204724409448819,
          "duration": 0.09375
        },
        {
          "name": "B5",
          "midi": 83,
          "time": 12,
          "velocity": 0.2204724409448819,
          "duration": 0.09375
        },
        {
          "name": "E6",
          "midi": 88,
          "time": 12.1875,
          "velocity": 0.2204724409448819,
          "duration": 0.09375
        },
        {
          "name": "F#6",
          "midi": 90,
          "time": 12.375,
          "velocity": 0.2204724409448819,
          "duration": 0.09375
        },
        {
          "name": "E6",
          "midi": 88,
          "time": 12.5625,
          "velocity": 0.2204724409448819,
          "duration": 0.09375
        },
        {
          "name": "B5",
          "midi": 83,
          "time": 12.75,
          "velocity": 0.2204724409448819,
          "duration": 0.09375
        },
        {
          "name": "F#6",
          "midi": 90,
          "time": 12.75,
          "velocity": 0.2204724409448819,
          "duration": 0.09375
        },
        {
          "name": "A6",
          "midi": 93,
          "time": 12.75,
          "velocity": 0.2204724409448819,
          "duration": 0.09375
        },
        {
          "name": "F#5",
          "midi": 78,
          "time": 12.75,
          "velocity": 0.2204724409448819,
          "duration": 0.09375
        },
        {
          "name": "E6",
          "midi": 88,
          "time": 12.9375,
          "velocity": 0.2204724409448819,
          "duration": 0.09375
        },
        {
          "name": "F#5",
          "midi": 78,
          "time": 12.9375,
          "velocity": 0.2204724409448819,
          "duration": 0.09375
        },
        {
          "name": "D6",
          "midi": 86,
          "time": 13.125,
          "velocity": 0.2204724409448819,
          "duration": 0.09375
        },
        {
          "name": "A6",
          "midi": 93,
          "time": 13.125,
          "velocity": 0.2204724409448819,
          "duration": 0.09375
        },
        {
          "name": "E6",
          "midi": 88,
          "time": 13.3125,
          "velocity": 0.2204724409448819,
          "duration": 0.09375
        },
        {
          "name": "A5",
          "midi": 81,
          "time": 13.3125,
          "velocity": 0.2204724409448819,
          "duration": 0.09375
        },
        {
          "name": "D6",
          "midi": 86,
          "time": 13.5,
          "velocity": 0.2204724409448819,
          "duration": 0.09375
        },
        {
          "name": "F#6",
          "midi": 90,
          "time": 13.5,
          "velocity": 0.2204724409448819,
          "duration": 0.09375
        },
        {
          "name": "A5",
          "midi": 81,
          "time": 13.5,
          "velocity": 0.2204724409448819,
          "duration": 0.09375
        },
        {
          "name": "C#6",
          "midi": 85,
          "time": 13.6875,
          "velocity": 0.2204724409448819,
          "duration": 0.09375
        },
        {
          "name": "A6",
          "midi": 93,
          "time": 13.6875,
          "velocity": 0.2204724409448819,
          "duration": 0.09375
        },
        {
          "name": "A5",
          "midi": 81,
          "time": 13.6875,
          "velocity": 0.2204724409448819,
          "duration": 0.09375
        },
        {
          "name": "D6",
          "midi": 86,
          "time": 13.875,
          "velocity": 0.2204724409448819,
          "duration": 0.09375
        },
        {
          "name": "F#6",
          "midi": 90,
          "time": 13.875,
          "velocity": 0.2204724409448819,
          "duration": 0.09375
        },
        {
          "name": "E6",
          "midi": 88,
          "time": 14.0625,
          "velocity": 0.2204724409448819,
          "duration": 0.09375
        },
        {
          "name": "C#6",
          "midi": 85,
          "time": 14.25,
          "velocity": 0.2204724409448819,
          "duration": 0.09375
        },
        {
          "name": "A6",
          "midi": 93,
          "time": 14.25,
          "velocity": 0.2204724409448819,
          "duration": 0.09375
        },
        {
          "name": "F6",
          "midi": 89,
          "time": 14.25,
          "velocity": 0.2204724409448819,
          "duration": 0.09375
        },
        {
          "name": "F#6",
          "midi": 90,
          "time": 14.4375,
          "velocity": 0.2204724409448819,
          "duration": 0.09375
        },
        {
          "name": "D6",
          "midi": 86,
          "time": 14.4375,
          "velocity": 0.2204724409448819,
          "duration": 0.09375
        },
        {
          "name": "A6",
          "midi": 93,
          "time": 14.625,
          "velocity": 0.2204724409448819,
          "duration": 0.09375
        },
        {
          "name": "C#6",
          "midi": 85,
          "time": 14.625,
          "velocity": 0.2204724409448819,
          "duration": 0.09375
        },
        {
          "name": "A6",
          "midi": 93,
          "time": 14.8125,
          "velocity": 0.2204724409448819,
          "duration": 0.09375
        },
        {
          "name": "D6",
          "midi": 86,
          "time": 14.8125,
          "velocity": 0.2204724409448819,
          "duration": 0.09375
        },
        {
          "name": "F#6",
          "midi": 90,
          "time": 15,
          "velocity": 0.2204724409448819,
          "duration": 0.09375
        },
        {
          "name": "D6",
          "midi": 86,
          "time": 15,
          "velocity": 0.2204724409448819,
          "duration": 0.09375
        },
        {
          "name": "B6",
          "midi": 95,
          "time": 15,
          "velocity": 0.2204724409448819,
          "duration": 0.09375
        },
        {
          "name": "E6",
          "midi": 88,
          "time": 15,
          "velocity": 0.2204724409448819,
          "duration": 0.09375
        },
        {
          "name": "B5",
          "midi": 83,
          "time": 15,
          "velocity": 0.2204724409448819,
          "duration": 0.09375
        },
        {
          "name": "E6",
          "midi": 88,
          "time": 15.1875,
          "velocity": 0.2204724409448819,
          "duration": 0.09375
        },
        {
          "name": "F#6",
          "midi": 90,
          "time": 15.375,
          "velocity": 0.2204724409448819,
          "duration": 0.09375
        },
        {
          "name": "E6",
          "midi": 88,
          "time": 15.5625,
          "velocity": 0.2204724409448819,
          "duration": 0.09375
        },
        {
          "name": "B5",
          "midi": 83,
          "time": 15.75,
          "velocity": 0.2204724409448819,
          "duration": 0.09375
        },
        {
          "name": "F#6",
          "midi": 90,
          "time": 15.75,
          "velocity": 0.2204724409448819,
          "duration": 0.09375
        },
        {
          "name": "A6",
          "midi": 93,
          "time": 15.75,
          "velocity": 0.2204724409448819,
          "duration": 0.09375
        },
        {
          "name": "F#5",
          "midi": 78,
          "time": 15.75,
          "velocity": 0.2204724409448819,
          "duration": 0.09375
        },
        {
          "name": "E6",
          "midi": 88,
          "time": 15.9375,
          "velocity": 0.2204724409448819,
          "duration": 0.09375
        },
        {
          "name": "F#5",
          "midi": 78,
          "time": 15.9375,
          "velocity": 0.2204724409448819,
          "duration": 0.09375
        },
        {
          "name": "D6",
          "midi": 86,
          "time": 16.125,
          "velocity": 0.2204724409448819,
          "duration": 0.09375
        },
        {
          "name": "A6",
          "midi": 93,
          "time": 16.125,
          "velocity": 0.2204724409448819,
          "duration": 0.09375
        },
        {
          "name": "E6",
          "midi": 88,
          "time": 16.3125,
          "velocity": 0.2204724409448819,
          "duration": 0.09375
        },
        {
          "name": "A5",
          "midi": 81,
          "time": 16.3125,
          "velocity": 0.2204724409448819,
          "duration": 0.09375
        },
        {
          "name": "D6",
          "midi": 86,
          "time": 16.5,
          "velocity": 0.2204724409448819,
          "duration": 0.09375
        },
        {
          "name": "F#6",
          "midi": 90,
          "time": 16.5,
          "velocity": 0.2204724409448819,
          "duration": 0.09375
        },
        {
          "name": "A5",
          "midi": 81,
          "time": 16.5,
          "velocity": 0.2204724409448819,
          "duration": 0.09375
        },
        {
          "name": "C#6",
          "midi": 85,
          "time": 16.6875,
          "velocity": 0.2204724409448819,
          "duration": 0.09375
        },
        {
          "name": "A6",
          "midi": 93,
          "time": 16.6875,
          "velocity": 0.2204724409448819,
          "duration": 0.09375
        },
        {
          "name": "A5",
          "midi": 81,
          "time": 16.6875,
          "velocity": 0.2204724409448819,
          "duration": 0.09375
        },
        {
          "name": "D6",
          "midi": 86,
          "time": 16.875,
          "velocity": 0.2204724409448819,
          "duration": 0.09375
        },
        {
          "name": "F#6",
          "midi": 90,
          "time": 16.875,
          "velocity": 0.2204724409448819,
          "duration": 0.09375
        },
        {
          "name": "E6",
          "midi": 88,
          "time": 17.0625,
          "velocity": 0.2204724409448819,
          "duration": 0.09375
        },
        {
          "name": "C#6",
          "midi": 85,
          "time": 17.25,
          "velocity": 0.2204724409448819,
          "duration": 0.09375
        },
        {
          "name": "A6",
          "midi": 93,
          "time": 17.25,
          "velocity": 0.2204724409448819,
          "duration": 0.09375
        },
        {
          "name": "F6",
          "midi": 89,
          "time": 17.25,
          "velocity": 0.2204724409448819,
          "duration": 0.09375
        },
        {
          "name": "F#6",
          "midi": 90,
          "time": 17.4375,
          "velocity": 0.2204724409448819,
          "duration": 0.09375
        },
        {
          "name": "D6",
          "midi": 86,
          "time": 17.4375,
          "velocity": 0.2204724409448819,
          "duration": 0.09375
        },
        {
          "name": "A6",
          "midi": 93,
          "time": 17.625,
          "velocity": 0.2204724409448819,
          "duration": 0.09375
        },
        {
          "name": "C#6",
          "midi": 85,
          "time": 17.625,
          "velocity": 0.2204724409448819,
          "duration": 0.09375
        },
        {
          "name": "A6",
          "midi": 93,
          "time": 17.8125,
          "velocity": 0.2204724409448819,
          "duration": 0.09375
        },
        {
          "name": "D6",
          "midi": 86,
          "time": 17.8125,
          "velocity": 0.2204724409448819,
          "duration": 0.09375
        },
        {
          "name": "F#6",
          "midi": 90,
          "time": 18,
          "velocity": 0.2204724409448819,
          "duration": 0.09375
        },
        {
          "name": "D6",
          "midi": 86,
          "time": 18,
          "velocity": 0.2204724409448819,
          "duration": 0.09375
        },
        {
          "name": "B6",
          "midi": 95,
          "time": 18,
          "velocity": 0.2204724409448819,
          "duration": 0.09375
        },
        {
          "name": "E6",
          "midi": 88,
          "time": 18,
          "velocity": 0.2204724409448819,
          "duration": 0.09375
        },
        {
          "name": "B5",
          "midi": 83,
          "time": 18,
          "velocity": 0.2204724409448819,
          "duration": 0.09375
        },
        {
          "name": "E6",
          "midi": 88,
          "time": 18.1875,
          "velocity": 0.2204724409448819,
          "duration": 0.09375
        },
        {
          "name": "F#6",
          "midi": 90,
          "time": 18.375,
          "velocity": 0.2204724409448819,
          "duration": 0.09375
        },
        {
          "name": "E6",
          "midi": 88,
          "time": 18.5625,
          "velocity": 0.2204724409448819,
          "duration": 0.09375
        },
        {
          "name": "B5",
          "midi": 83,
          "time": 18.75,
          "velocity": 0.2204724409448819,
          "duration": 0.09375
        },
        {
          "name": "F#6",
          "midi": 90,
          "time": 18.75,
          "velocity": 0.2204724409448819,
          "duration": 0.09375
        },
        {
          "name": "A6",
          "midi": 93,
          "time": 18.75,
          "velocity": 0.2204724409448819,
          "duration": 0.09375
        },
        {
          "name": "F#5",
          "midi": 78,
          "time": 18.75,
          "velocity": 0.2204724409448819,
          "duration": 0.09375
        },
        {
          "name": "E6",
          "midi": 88,
          "time": 18.9375,
          "velocity": 0.2204724409448819,
          "duration": 0.09375
        },
        {
          "name": "F#5",
          "midi": 78,
          "time": 18.9375,
          "velocity": 0.2204724409448819,
          "duration": 0.09375
        },
        {
          "name": "D6",
          "midi": 86,
          "time": 19.125,
          "velocity": 0.2204724409448819,
          "duration": 0.09375
        },
        {
          "name": "A6",
          "midi": 93,
          "time": 19.125,
          "velocity": 0.2204724409448819,
          "duration": 0.09375
        },
        {
          "name": "E6",
          "midi": 88,
          "time": 19.3125,
          "velocity": 0.2204724409448819,
          "duration": 0.09375
        },
        {
          "name": "A5",
          "midi": 81,
          "time": 19.3125,
          "velocity": 0.2204724409448819,
          "duration": 0.09375
        },
        {
          "name": "D6",
          "midi": 86,
          "time": 19.5,
          "velocity": 0.2204724409448819,
          "duration": 0.09375
        },
        {
          "name": "F#6",
          "midi": 90,
          "time": 19.5,
          "velocity": 0.2204724409448819,
          "duration": 0.09375
        },
        {
          "name": "A5",
          "midi": 81,
          "time": 19.5,
          "velocity": 0.2204724409448819,
          "duration": 0.09375
        },
        {
          "name": "C#6",
          "midi": 85,
          "time": 19.6875,
          "velocity": 0.2204724409448819,
          "duration": 0.09375
        },
        {
          "name": "A6",
          "midi": 93,
          "time": 19.6875,
          "velocity": 0.2204724409448819,
          "duration": 0.09375
        },
        {
          "name": "A5",
          "midi": 81,
          "time": 19.6875,
          "velocity": 0.2204724409448819,
          "duration": 0.09375
        },
        {
          "name": "D6",
          "midi": 86,
          "time": 19.875,
          "velocity": 0.2204724409448819,
          "duration": 0.09375
        },
        {
          "name": "F#6",
          "midi": 90,
          "time": 19.875,
          "velocity": 0.2204724409448819,
          "duration": 0.09375
        },
        {
          "name": "E6",
          "midi": 88,
          "time": 20.0625,
          "velocity": 0.2204724409448819,
          "duration": 0.09375
        },
        {
          "name": "C#6",
          "midi": 85,
          "time": 20.25,
          "velocity": 0.2204724409448819,
          "duration": 0.09375
        },
        {
          "name": "A6",
          "midi": 93,
          "time": 20.25,
          "velocity": 0.2204724409448819,
          "duration": 0.09375
        },
        {
          "name": "F6",
          "midi": 89,
          "time": 20.25,
          "velocity": 0.2204724409448819,
          "duration": 0.09375
        },
        {
          "name": "F#6",
          "midi": 90,
          "time": 20.4375,
          "velocity": 0.2204724409448819,
          "duration": 0.09375
        },
        {
          "name": "D6",
          "midi": 86,
          "time": 20.4375,
          "velocity": 0.2204724409448819,
          "duration": 0.09375
        },
        {
          "name": "A6",
          "midi": 93,
          "time": 20.625,
          "velocity": 0.2204724409448819,
          "duration": 0.09375
        },
        {
          "name": "C#6",
          "midi": 85,
          "time": 20.625,
          "velocity": 0.2204724409448819,
          "duration": 0.09375
        },
        {
          "name": "A6",
          "midi": 93,
          "time": 20.8125,
          "velocity": 0.2204724409448819,
          "duration": 0.09375
        },
        {
          "name": "D6",
          "midi": 86,
          "time": 20.8125,
          "velocity": 0.2204724409448819,
          "duration": 0.09375
        },
        {
          "name": "F#6",
          "midi": 90,
          "time": 21,
          "velocity": 0.2204724409448819,
          "duration": 0.09375
        },
        {
          "name": "D6",
          "midi": 86,
          "time": 21,
          "velocity": 0.2204724409448819,
          "duration": 0.09375
        },
        {
          "name": "B6",
          "midi": 95,
          "time": 21,
          "velocity": 0.2204724409448819,
          "duration": 0.09375
        },
        {
          "name": "E6",
          "midi": 88,
          "time": 21,
          "velocity": 0.2204724409448819,
          "duration": 0.09375
        },
        {
          "name": "B5",
          "midi": 83,
          "time": 21,
          "velocity": 0.2204724409448819,
          "duration": 0.09375
        },
        {
          "name": "E6",
          "midi": 88,
          "time": 21.1875,
          "velocity": 0.2204724409448819,
          "duration": 0.09375
        },
        {
          "name": "F#6",
          "midi": 90,
          "time": 21.375,
          "velocity": 0.2204724409448819,
          "duration": 0.09375
        },
        {
          "name": "E6",
          "midi": 88,
          "time": 21.5625,
          "velocity": 0.2204724409448819,
          "duration": 0.09375
        },
        {
          "name": "B5",
          "midi": 83,
          "time": 21.75,
          "velocity": 0.2204724409448819,
          "duration": 0.09375
        },
        {
          "name": "F#6",
          "midi": 90,
          "time": 21.75,
          "velocity": 0.2204724409448819,
          "duration": 0.09375
        },
        {
          "name": "A6",
          "midi": 93,
          "time": 21.75,
          "velocity": 0.2204724409448819,
          "duration": 0.09375
        },
        {
          "name": "F#5",
          "midi": 78,
          "time": 21.75,
          "velocity": 0.2204724409448819,
          "duration": 0.09375
        },
        {
          "name": "E6",
          "midi": 88,
          "time": 21.9375,
          "velocity": 0.2204724409448819,
          "duration": 0.09375
        },
        {
          "name": "F#5",
          "midi": 78,
          "time": 21.9375,
          "velocity": 0.2204724409448819,
          "duration": 0.09375
        },
        {
          "name": "D6",
          "midi": 86,
          "time": 22.125,
          "velocity": 0.2204724409448819,
          "duration": 0.09375
        },
        {
          "name": "A6",
          "midi": 93,
          "time": 22.125,
          "velocity": 0.2204724409448819,
          "duration": 0.09375
        },
        {
          "name": "E6",
          "midi": 88,
          "time": 22.3125,
          "velocity": 0.2204724409448819,
          "duration": 0.09375
        },
        {
          "name": "A5",
          "midi": 81,
          "time": 22.3125,
          "velocity": 0.2204724409448819,
          "duration": 0.09375
        },
        {
          "name": "D6",
          "midi": 86,
          "time": 22.5,
          "velocity": 0.2204724409448819,
          "duration": 0.09375
        },
        {
          "name": "F#6",
          "midi": 90,
          "time": 22.5,
          "velocity": 0.2204724409448819,
          "duration": 0.09375
        },
        {
          "name": "A5",
          "midi": 81,
          "time": 22.5,
          "velocity": 0.2204724409448819,
          "duration": 0.09375
        },
        {
          "name": "C#6",
          "midi": 85,
          "time": 22.6875,
          "velocity": 0.2204724409448819,
          "duration": 0.09375
        },
        {
          "name": "A6",
          "midi": 93,
          "time": 22.6875,
          "velocity": 0.2204724409448819,
          "duration": 0.09375
        },
        {
          "name": "A5",
          "midi": 81,
          "time": 22.6875,
          "velocity": 0.2204724409448819,
          "duration": 0.09375
        },
        {
          "name": "D6",
          "midi": 86,
          "time": 22.875,
          "velocity": 0.2204724409448819,
          "duration": 0.09375
        },
        {
          "name": "F#6",
          "midi": 90,
          "time": 22.875,
          "velocity": 0.2204724409448819,
          "duration": 0.09375
        },
        {
          "name": "E6",
          "midi": 88,
          "time": 23.0625,
          "velocity": 0.2204724409448819,
          "duration": 0.09375
        },
        {
          "name": "C#6",
          "midi": 85,
          "time": 23.25,
          "velocity": 0.2204724409448819,
          "duration": 0.09375
        },
        {
          "name": "A6",
          "midi": 93,
          "time": 23.25,
          "velocity": 0.2204724409448819,
          "duration": 0.09375
        },
        {
          "name": "F6",
          "midi": 89,
          "time": 23.25,
          "velocity": 0.2204724409448819,
          "duration": 0.09375
        },
        {
          "name": "F#6",
          "midi": 90,
          "time": 23.4375,
          "velocity": 0.2204724409448819,
          "duration": 0.09375
        },
        {
          "name": "D6",
          "midi": 86,
          "time": 23.4375,
          "velocity": 0.2204724409448819,
          "duration": 0.09375
        },
        {
          "name": "A6",
          "midi": 93,
          "time": 23.625,
          "velocity": 0.2204724409448819,
          "duration": 0.09375
        },
        {
          "name": "C#6",
          "midi": 85,
          "time": 23.625,
          "velocity": 0.2204724409448819,
          "duration": 0.09375
        },
        {
          "name": "A6",
          "midi": 93,
          "time": 23.8125,
          "velocity": 0.2204724409448819,
          "duration": 0.09375
        },
        {
          "name": "D6",
          "midi": 86,
          "time": 23.8125,
          "velocity": 0.2204724409448819,
          "duration": 0.09375
        },
        {
          "name": "F#6",
          "midi": 90,
          "time": 36,
          "velocity": 0.2204724409448819,
          "duration": 0.09375
        },
        {
          "name": "D6",
          "midi": 86,
          "time": 36,
          "velocity": 0.2204724409448819,
          "duration": 0.09375
        },
        {
          "name": "B6",
          "midi": 95,
          "time": 36,
          "velocity": 0.2204724409448819,
          "duration": 0.09375
        },
        {
          "name": "E6",
          "midi": 88,
          "time": 36,
          "velocity": 0.2204724409448819,
          "duration": 0.09375
        },
        {
          "name": "B5",
          "midi": 83,
          "time": 36,
          "velocity": 0.2204724409448819,
          "duration": 0.09375
        },
        {
          "name": "E6",
          "midi": 88,
          "time": 36.1875,
          "velocity": 0.2204724409448819,
          "duration": 0.09375
        },
        {
          "name": "F#6",
          "midi": 90,
          "time": 36.375,
          "velocity": 0.2204724409448819,
          "duration": 0.09375
        },
        {
          "name": "E6",
          "midi": 88,
          "time": 36.5625,
          "velocity": 0.2204724409448819,
          "duration": 0.09375
        },
        {
          "name": "B5",
          "midi": 83,
          "time": 36.75,
          "velocity": 0.2204724409448819,
          "duration": 0.09375
        },
        {
          "name": "F#6",
          "midi": 90,
          "time": 36.75,
          "velocity": 0.2204724409448819,
          "duration": 0.09375
        },
        {
          "name": "A6",
          "midi": 93,
          "time": 36.75,
          "velocity": 0.2204724409448819,
          "duration": 0.09375
        },
        {
          "name": "F#5",
          "midi": 78,
          "time": 36.75,
          "velocity": 0.2204724409448819,
          "duration": 0.09375
        },
        {
          "name": "E6",
          "midi": 88,
          "time": 36.9375,
          "velocity": 0.2204724409448819,
          "duration": 0.09375
        },
        {
          "name": "F#5",
          "midi": 78,
          "time": 36.9375,
          "velocity": 0.2204724409448819,
          "duration": 0.09375
        },
        {
          "name": "D6",
          "midi": 86,
          "time": 37.125,
          "velocity": 0.2204724409448819,
          "duration": 0.09375
        },
        {
          "name": "A6",
          "midi": 93,
          "time": 37.125,
          "velocity": 0.2204724409448819,
          "duration": 0.09375
        },
        {
          "name": "E6",
          "midi": 88,
          "time": 37.3125,
          "velocity": 0.2204724409448819,
          "duration": 0.09375
        },
        {
          "name": "A5",
          "midi": 81,
          "time": 37.3125,
          "velocity": 0.2204724409448819,
          "duration": 0.09375
        },
        {
          "name": "D6",
          "midi": 86,
          "time": 37.5,
          "velocity": 0.2204724409448819,
          "duration": 0.09375
        },
        {
          "name": "F#6",
          "midi": 90,
          "time": 37.5,
          "velocity": 0.2204724409448819,
          "duration": 0.09375
        },
        {
          "name": "A5",
          "midi": 81,
          "time": 37.5,
          "velocity": 0.2204724409448819,
          "duration": 0.09375
        },
        {
          "name": "C#6",
          "midi": 85,
          "time": 37.6875,
          "velocity": 0.2204724409448819,
          "duration": 0.09375
        },
        {
          "name": "A6",
          "midi": 93,
          "time": 37.6875,
          "velocity": 0.2204724409448819,
          "duration": 0.09375
        },
        {
          "name": "A5",
          "midi": 81,
          "time": 37.6875,
          "velocity": 0.2204724409448819,
          "duration": 0.09375
        },
        {
          "name": "D6",
          "midi": 86,
          "time": 37.875,
          "velocity": 0.2204724409448819,
          "duration": 0.09375
        },
        {
          "name": "F#6",
          "midi": 90,
          "time": 37.875,
          "velocity": 0.2204724409448819,
          "duration": 0.09375
        },
        {
          "name": "E6",
          "midi": 88,
          "time": 38.0625,
          "velocity": 0.2204724409448819,
          "duration": 0.09375
        },
        {
          "name": "C#6",
          "midi": 85,
          "time": 38.25,
          "velocity": 0.2204724409448819,
          "duration": 0.09375
        },
        {
          "name": "A6",
          "midi": 93,
          "time": 38.25,
          "velocity": 0.2204724409448819,
          "duration": 0.09375
        },
        {
          "name": "F6",
          "midi": 89,
          "time": 38.25,
          "velocity": 0.2204724409448819,
          "duration": 0.09375
        },
        {
          "name": "F#6",
          "midi": 90,
          "time": 38.4375,
          "velocity": 0.2204724409448819,
          "duration": 0.09375
        },
        {
          "name": "D6",
          "midi": 86,
          "time": 38.4375,
          "velocity": 0.2204724409448819,
          "duration": 0.09375
        },
        {
          "name": "A6",
          "midi": 93,
          "time": 38.625,
          "velocity": 0.2204724409448819,
          "duration": 0.09375
        },
        {
          "name": "C#6",
          "midi": 85,
          "time": 38.625,
          "velocity": 0.2204724409448819,
          "duration": 0.09375
        },
        {
          "name": "A6",
          "midi": 93,
          "time": 38.8125,
          "velocity": 0.2204724409448819,
          "duration": 0.09375
        },
        {
          "name": "D6",
          "midi": 86,
          "time": 38.8125,
          "velocity": 0.2204724409448819,
          "duration": 0.09375
        },
        {
          "name": "F#6",
          "midi": 90,
          "time": 39,
          "velocity": 0.2204724409448819,
          "duration": 0.09375
        },
        {
          "name": "D6",
          "midi": 86,
          "time": 39,
          "velocity": 0.2204724409448819,
          "duration": 0.09375
        },
        {
          "name": "B6",
          "midi": 95,
          "time": 39,
          "velocity": 0.2204724409448819,
          "duration": 0.09375
        },
        {
          "name": "E6",
          "midi": 88,
          "time": 39,
          "velocity": 0.2204724409448819,
          "duration": 0.09375
        },
        {
          "name": "B5",
          "midi": 83,
          "time": 39,
          "velocity": 0.2204724409448819,
          "duration": 0.09375
        },
        {
          "name": "E6",
          "midi": 88,
          "time": 39.1875,
          "velocity": 0.2204724409448819,
          "duration": 0.09375
        },
        {
          "name": "F#6",
          "midi": 90,
          "time": 39.375,
          "velocity": 0.2204724409448819,
          "duration": 0.09375
        },
        {
          "name": "E6",
          "midi": 88,
          "time": 39.5625,
          "velocity": 0.2204724409448819,
          "duration": 0.09375
        },
        {
          "name": "B5",
          "midi": 83,
          "time": 39.75,
          "velocity": 0.2204724409448819,
          "duration": 0.09375
        },
        {
          "name": "F#6",
          "midi": 90,
          "time": 39.75,
          "velocity": 0.2204724409448819,
          "duration": 0.09375
        },
        {
          "name": "A6",
          "midi": 93,
          "time": 39.75,
          "velocity": 0.2204724409448819,
          "duration": 0.09375
        },
        {
          "name": "F#5",
          "midi": 78,
          "time": 39.75,
          "velocity": 0.2204724409448819,
          "duration": 0.09375
        },
        {
          "name": "E6",
          "midi": 88,
          "time": 39.9375,
          "velocity": 0.2204724409448819,
          "duration": 0.09375
        },
        {
          "name": "F#5",
          "midi": 78,
          "time": 39.9375,
          "velocity": 0.2204724409448819,
          "duration": 0.09375
        },
        {
          "name": "D6",
          "midi": 86,
          "time": 40.125,
          "velocity": 0.2204724409448819,
          "duration": 0.09375
        },
        {
          "name": "A6",
          "midi": 93,
          "time": 40.125,
          "velocity": 0.2204724409448819,
          "duration": 0.09375
        },
        {
          "name": "E6",
          "midi": 88,
          "time": 40.3125,
          "velocity": 0.2204724409448819,
          "duration": 0.09375
        },
        {
          "name": "A5",
          "midi": 81,
          "time": 40.3125,
          "velocity": 0.2204724409448819,
          "duration": 0.09375
        },
        {
          "name": "D6",
          "midi": 86,
          "time": 40.5,
          "velocity": 0.2204724409448819,
          "duration": 0.09375
        },
        {
          "name": "F#6",
          "midi": 90,
          "time": 40.5,
          "velocity": 0.2204724409448819,
          "duration": 0.09375
        },
        {
          "name": "A5",
          "midi": 81,
          "time": 40.5,
          "velocity": 0.2204724409448819,
          "duration": 0.09375
        },
        {
          "name": "C#6",
          "midi": 85,
          "time": 40.6875,
          "velocity": 0.2204724409448819,
          "duration": 0.09375
        },
        {
          "name": "A6",
          "midi": 93,
          "time": 40.6875,
          "velocity": 0.2204724409448819,
          "duration": 0.09375
        },
        {
          "name": "A5",
          "midi": 81,
          "time": 40.6875,
          "velocity": 0.2204724409448819,
          "duration": 0.09375
        },
        {
          "name": "D6",
          "midi": 86,
          "time": 40.875,
          "velocity": 0.2204724409448819,
          "duration": 0.09375
        },
        {
          "name": "F#6",
          "midi": 90,
          "time": 40.875,
          "velocity": 0.2204724409448819,
          "duration": 0.09375
        },
        {
          "name": "E6",
          "midi": 88,
          "time": 41.0625,
          "velocity": 0.2204724409448819,
          "duration": 0.09375
        },
        {
          "name": "C#6",
          "midi": 85,
          "time": 41.25,
          "velocity": 0.2204724409448819,
          "duration": 0.09375
        },
        {
          "name": "A6",
          "midi": 93,
          "time": 41.25,
          "velocity": 0.2204724409448819,
          "duration": 0.09375
        },
        {
          "name": "F6",
          "midi": 89,
          "time": 41.25,
          "velocity": 0.2204724409448819,
          "duration": 0.09375
        },
        {
          "name": "F#6",
          "midi": 90,
          "time": 41.4375,
          "velocity": 0.2204724409448819,
          "duration": 0.09375
        },
        {
          "name": "D6",
          "midi": 86,
          "time": 41.4375,
          "velocity": 0.2204724409448819,
          "duration": 0.09375
        },
        {
          "name": "A6",
          "midi": 93,
          "time": 41.625,
          "velocity": 0.2204724409448819,
          "duration": 0.09375
        },
        {
          "name": "C#6",
          "midi": 85,
          "time": 41.625,
          "velocity": 0.2204724409448819,
          "duration": 0.09375
        },
        {
          "name": "A6",
          "midi": 93,
          "time": 41.8125,
          "velocity": 0.2204724409448819,
          "duration": 0.09375
        },
        {
          "name": "D6",
          "midi": 86,
          "time": 41.8125,
          "velocity": 0.2204724409448819,
          "duration": 0.09375
        },
        {
          "name": "F#6",
          "midi": 90,
          "time": 42,
          "velocity": 0.2204724409448819,
          "duration": 0.09375
        },
        {
          "name": "D6",
          "midi": 86,
          "time": 42,
          "velocity": 0.2204724409448819,
          "duration": 0.09375
        },
        {
          "name": "B6",
          "midi": 95,
          "time": 42,
          "velocity": 0.2204724409448819,
          "duration": 0.09375
        },
        {
          "name": "E6",
          "midi": 88,
          "time": 42,
          "velocity": 0.2204724409448819,
          "duration": 0.09375
        },
        {
          "name": "B5",
          "midi": 83,
          "time": 42,
          "velocity": 0.2204724409448819,
          "duration": 0.09375
        },
        {
          "name": "E6",
          "midi": 88,
          "time": 42.1875,
          "velocity": 0.2204724409448819,
          "duration": 0.09375
        },
        {
          "name": "F#6",
          "midi": 90,
          "time": 42.375,
          "velocity": 0.2204724409448819,
          "duration": 0.09375
        },
        {
          "name": "E6",
          "midi": 88,
          "time": 42.5625,
          "velocity": 0.2204724409448819,
          "duration": 0.09375
        },
        {
          "name": "B5",
          "midi": 83,
          "time": 42.75,
          "velocity": 0.2204724409448819,
          "duration": 0.09375
        },
        {
          "name": "F#6",
          "midi": 90,
          "time": 42.75,
          "velocity": 0.2204724409448819,
          "duration": 0.09375
        },
        {
          "name": "A6",
          "midi": 93,
          "time": 42.75,
          "velocity": 0.2204724409448819,
          "duration": 0.09375
        },
        {
          "name": "F#5",
          "midi": 78,
          "time": 42.75,
          "velocity": 0.2204724409448819,
          "duration": 0.09375
        },
        {
          "name": "E6",
          "midi": 88,
          "time": 42.9375,
          "velocity": 0.2204724409448819,
          "duration": 0.09375
        },
        {
          "name": "F#5",
          "midi": 78,
          "time": 42.9375,
          "velocity": 0.2204724409448819,
          "duration": 0.09375
        },
        {
          "name": "D6",
          "midi": 86,
          "time": 43.125,
          "velocity": 0.2204724409448819,
          "duration": 0.09375
        },
        {
          "name": "A6",
          "midi": 93,
          "time": 43.125,
          "velocity": 0.2204724409448819,
          "duration": 0.09375
        },
        {
          "name": "E6",
          "midi": 88,
          "time": 43.3125,
          "velocity": 0.2204724409448819,
          "duration": 0.09375
        },
        {
          "name": "A5",
          "midi": 81,
          "time": 43.3125,
          "velocity": 0.2204724409448819,
          "duration": 0.09375
        },
        {
          "name": "D6",
          "midi": 86,
          "time": 43.5,
          "velocity": 0.2204724409448819,
          "duration": 0.09375
        },
        {
          "name": "F#6",
          "midi": 90,
          "time": 43.5,
          "velocity": 0.2204724409448819,
          "duration": 0.09375
        },
        {
          "name": "A5",
          "midi": 81,
          "time": 43.5,
          "velocity": 0.2204724409448819,
          "duration": 0.09375
        },
        {
          "name": "C#6",
          "midi": 85,
          "time": 43.6875,
          "velocity": 0.2204724409448819,
          "duration": 0.09375
        },
        {
          "name": "A6",
          "midi": 93,
          "time": 43.6875,
          "velocity": 0.2204724409448819,
          "duration": 0.09375
        },
        {
          "name": "A5",
          "midi": 81,
          "time": 43.6875,
          "velocity": 0.2204724409448819,
          "duration": 0.09375
        },
        {
          "name": "D6",
          "midi": 86,
          "time": 43.875,
          "velocity": 0.2204724409448819,
          "duration": 0.09375
        },
        {
          "name": "F#6",
          "midi": 90,
          "time": 43.875,
          "velocity": 0.2204724409448819,
          "duration": 0.09375
        },
        {
          "name": "E6",
          "midi": 88,
          "time": 44.0625,
          "velocity": 0.2204724409448819,
          "duration": 0.09375
        },
        {
          "name": "C#6",
          "midi": 85,
          "time": 44.25,
          "velocity": 0.2204724409448819,
          "duration": 0.09375
        },
        {
          "name": "A6",
          "midi": 93,
          "time": 44.25,
          "velocity": 0.2204724409448819,
          "duration": 0.09375
        },
        {
          "name": "F6",
          "midi": 89,
          "time": 44.25,
          "velocity": 0.2204724409448819,
          "duration": 0.09375
        },
        {
          "name": "F#6",
          "midi": 90,
          "time": 44.4375,
          "velocity": 0.2204724409448819,
          "duration": 0.09375
        },
        {
          "name": "D6",
          "midi": 86,
          "time": 44.4375,
          "velocity": 0.2204724409448819,
          "duration": 0.09375
        },
        {
          "name": "A6",
          "midi": 93,
          "time": 44.625,
          "velocity": 0.2204724409448819,
          "duration": 0.09375
        },
        {
          "name": "C#6",
          "midi": 85,
          "time": 44.625,
          "velocity": 0.2204724409448819,
          "duration": 0.09375
        },
        {
          "name": "A6",
          "midi": 93,
          "time": 44.8125,
          "velocity": 0.2204724409448819,
          "duration": 0.09375
        },
        {
          "name": "D6",
          "midi": 86,
          "time": 44.8125,
          "velocity": 0.2204724409448819,
          "duration": 0.09375
        },
        {
          "name": "F#6",
          "midi": 90,
          "time": 45,
          "velocity": 0.2204724409448819,
          "duration": 0.09375
        },
        {
          "name": "D6",
          "midi": 86,
          "time": 45,
          "velocity": 0.2204724409448819,
          "duration": 0.09375
        },
        {
          "name": "B6",
          "midi": 95,
          "time": 45,
          "velocity": 0.2204724409448819,
          "duration": 0.09375
        },
        {
          "name": "E6",
          "midi": 88,
          "time": 45,
          "velocity": 0.2204724409448819,
          "duration": 0.09375
        },
        {
          "name": "B5",
          "midi": 83,
          "time": 45,
          "velocity": 0.2204724409448819,
          "duration": 0.09375
        },
        {
          "name": "E6",
          "midi": 88,
          "time": 45.1875,
          "velocity": 0.2204724409448819,
          "duration": 0.09375
        },
        {
          "name": "F#6",
          "midi": 90,
          "time": 45.375,
          "velocity": 0.2204724409448819,
          "duration": 0.09375
        },
        {
          "name": "E6",
          "midi": 88,
          "time": 45.5625,
          "velocity": 0.2204724409448819,
          "duration": 0.09375
        },
        {
          "name": "B5",
          "midi": 83,
          "time": 45.75,
          "velocity": 0.2204724409448819,
          "duration": 0.09375
        },
        {
          "name": "F#6",
          "midi": 90,
          "time": 45.75,
          "velocity": 0.2204724409448819,
          "duration": 0.09375
        },
        {
          "name": "A6",
          "midi": 93,
          "time": 45.75,
          "velocity": 0.2204724409448819,
          "duration": 0.09375
        },
        {
          "name": "F#5",
          "midi": 78,
          "time": 45.75,
          "velocity": 0.2204724409448819,
          "duration": 0.09375
        },
        {
          "name": "E6",
          "midi": 88,
          "time": 45.9375,
          "velocity": 0.2204724409448819,
          "duration": 0.09375
        },
        {
          "name": "F#5",
          "midi": 78,
          "time": 45.9375,
          "velocity": 0.2204724409448819,
          "duration": 0.09375
        },
        {
          "name": "D6",
          "midi": 86,
          "time": 46.125,
          "velocity": 0.2204724409448819,
          "duration": 0.09375
        },
        {
          "name": "A6",
          "midi": 93,
          "time": 46.125,
          "velocity": 0.2204724409448819,
          "duration": 0.09375
        },
        {
          "name": "E6",
          "midi": 88,
          "time": 46.3125,
          "velocity": 0.2204724409448819,
          "duration": 0.09375
        },
        {
          "name": "A5",
          "midi": 81,
          "time": 46.3125,
          "velocity": 0.2204724409448819,
          "duration": 0.09375
        },
        {
          "name": "D6",
          "midi": 86,
          "time": 46.5,
          "velocity": 0.2204724409448819,
          "duration": 0.09375
        },
        {
          "name": "F#6",
          "midi": 90,
          "time": 46.5,
          "velocity": 0.2204724409448819,
          "duration": 0.09375
        },
        {
          "name": "A5",
          "midi": 81,
          "time": 46.5,
          "velocity": 0.2204724409448819,
          "duration": 0.09375
        },
        {
          "name": "C#6",
          "midi": 85,
          "time": 46.6875,
          "velocity": 0.2204724409448819,
          "duration": 0.09375
        },
        {
          "name": "A6",
          "midi": 93,
          "time": 46.6875,
          "velocity": 0.2204724409448819,
          "duration": 0.09375
        },
        {
          "name": "A5",
          "midi": 81,
          "time": 46.6875,
          "velocity": 0.2204724409448819,
          "duration": 0.09375
        },
        {
          "name": "D6",
          "midi": 86,
          "time": 46.875,
          "velocity": 0.2204724409448819,
          "duration": 0.09375
        },
        {
          "name": "F#6",
          "midi": 90,
          "time": 46.875,
          "velocity": 0.2204724409448819,
          "duration": 0.09375
        },
        {
          "name": "E6",
          "midi": 88,
          "time": 47.0625,
          "velocity": 0.2204724409448819,
          "duration": 0.09375
        },
        {
          "name": "C#6",
          "midi": 85,
          "time": 47.25,
          "velocity": 0.2204724409448819,
          "duration": 0.09375
        },
        {
          "name": "A6",
          "midi": 93,
          "time": 47.25,
          "velocity": 0.2204724409448819,
          "duration": 0.09375
        },
        {
          "name": "F6",
          "midi": 89,
          "time": 47.25,
          "velocity": 0.2204724409448819,
          "duration": 0.09375
        },
        {
          "name": "F#6",
          "midi": 90,
          "time": 47.4375,
          "velocity": 0.2204724409448819,
          "duration": 0.09375
        },
        {
          "name": "D6",
          "midi": 86,
          "time": 47.4375,
          "velocity": 0.2204724409448819,
          "duration": 0.09375
        },
        {
          "name": "A6",
          "midi": 93,
          "time": 47.625,
          "velocity": 0.2204724409448819,
          "duration": 0.09375
        },
        {
          "name": "C#6",
          "midi": 85,
          "time": 47.625,
          "velocity": 0.2204724409448819,
          "duration": 0.09375
        },
        {
          "name": "A6",
          "midi": 93,
          "time": 47.8125,
          "velocity": 0.2204724409448819,
          "duration": 0.09375
        },
        {
          "name": "D6",
          "midi": 86,
          "time": 47.8125,
          "velocity": 0.2204724409448819,
          "duration": 0.09375
        }
      ],
      "controlChanges": {},
      "id": 5,
      "name": "Ragtime Piano",
      "instrumentNumber": 3,
      "instrument": "honky-tonk piano",
      "instrumentFamily": "piano",
      "channelNumber": 3,
      "isPercussion": false
    },
    {
      "startTime": 12,
      "duration": 48,
      "length": 288,
      "notes": [
        {
          "name": "F#5",
          "midi": 78,
          "time": 12,
          "velocity": 0.2204724409448819,
          "duration": 0.1875
        },
        {
          "name": "D5",
          "midi": 74,
          "time": 12,
          "velocity": 0.2204724409448819,
          "duration": 0.1875
        },
        {
          "name": "B5",
          "midi": 83,
          "time": 12,
          "velocity": 0.2204724409448819,
          "duration": 0.1875
        },
        {
          "name": "E5",
          "midi": 76,
          "time": 12,
          "velocity": 0.2204724409448819,
          "duration": 0.1875
        },
        {
          "name": "B4",
          "midi": 71,
          "time": 12,
          "velocity": 0.2204724409448819,
          "duration": 0.1875
        },
        {
          "name": "E5",
          "midi": 76,
          "time": 12.1875,
          "velocity": 0.2204724409448819,
          "duration": 0.1875
        },
        {
          "name": "F#5",
          "midi": 78,
          "time": 12.375,
          "velocity": 0.2204724409448819,
          "duration": 0.1875
        },
        {
          "name": "E5",
          "midi": 76,
          "time": 12.5625,
          "velocity": 0.2204724409448819,
          "duration": 0.1875
        },
        {
          "name": "B4",
          "midi": 71,
          "time": 12.75,
          "velocity": 0.2204724409448819,
          "duration": 0.1875
        },
        {
          "name": "F#5",
          "midi": 78,
          "time": 12.75,
          "velocity": 0.2204724409448819,
          "duration": 0.1875
        },
        {
          "name": "A5",
          "midi": 81,
          "time": 12.75,
          "velocity": 0.2204724409448819,
          "duration": 0.1875
        },
        {
          "name": "F#4",
          "midi": 66,
          "time": 12.75,
          "velocity": 0.2204724409448819,
          "duration": 0.1875
        },
        {
          "name": "E5",
          "midi": 76,
          "time": 12.9375,
          "velocity": 0.2204724409448819,
          "duration": 0.1875
        },
        {
          "name": "F#4",
          "midi": 66,
          "time": 12.9375,
          "velocity": 0.2204724409448819,
          "duration": 0.1875
        },
        {
          "name": "D5",
          "midi": 74,
          "time": 13.125,
          "velocity": 0.2204724409448819,
          "duration": 0.1875
        },
        {
          "name": "A5",
          "midi": 81,
          "time": 13.125,
          "velocity": 0.2204724409448819,
          "duration": 0.1875
        },
        {
          "name": "E5",
          "midi": 76,
          "time": 13.3125,
          "velocity": 0.2204724409448819,
          "duration": 0.1875
        },
        {
          "name": "A4",
          "midi": 69,
          "time": 13.3125,
          "velocity": 0.2204724409448819,
          "duration": 0.1875
        },
        {
          "name": "D5",
          "midi": 74,
          "time": 13.5,
          "velocity": 0.2204724409448819,
          "duration": 0.1875
        },
        {
          "name": "F#5",
          "midi": 78,
          "time": 13.5,
          "velocity": 0.2204724409448819,
          "duration": 0.1875
        },
        {
          "name": "A4",
          "midi": 69,
          "time": 13.5,
          "velocity": 0.2204724409448819,
          "duration": 0.1875
        },
        {
          "name": "C#5",
          "midi": 73,
          "time": 13.6875,
          "velocity": 0.2204724409448819,
          "duration": 0.1875
        },
        {
          "name": "A5",
          "midi": 81,
          "time": 13.6875,
          "velocity": 0.2204724409448819,
          "duration": 0.1875
        },
        {
          "name": "A4",
          "midi": 69,
          "time": 13.6875,
          "velocity": 0.2204724409448819,
          "duration": 0.1875
        },
        {
          "name": "D5",
          "midi": 74,
          "time": 13.875,
          "velocity": 0.2204724409448819,
          "duration": 0.1875
        },
        {
          "name": "F#5",
          "midi": 78,
          "time": 13.875,
          "velocity": 0.2204724409448819,
          "duration": 0.1875
        },
        {
          "name": "E5",
          "midi": 76,
          "time": 14.0625,
          "velocity": 0.2204724409448819,
          "duration": 0.1875
        },
        {
          "name": "C#5",
          "midi": 73,
          "time": 14.25,
          "velocity": 0.2204724409448819,
          "duration": 0.1875
        },
        {
          "name": "A5",
          "midi": 81,
          "time": 14.25,
          "velocity": 0.2204724409448819,
          "duration": 0.1875
        },
        {
          "name": "F5",
          "midi": 77,
          "time": 14.25,
          "velocity": 0.2204724409448819,
          "duration": 0.1875
        },
        {
          "name": "F#5",
          "midi": 78,
          "time": 14.4375,
          "velocity": 0.2204724409448819,
          "duration": 0.1875
        },
        {
          "name": "D5",
          "midi": 74,
          "time": 14.4375,
          "velocity": 0.2204724409448819,
          "duration": 0.1875
        },
        {
          "name": "A5",
          "midi": 81,
          "time": 14.625,
          "velocity": 0.2204724409448819,
          "duration": 0.1875
        },
        {
          "name": "C#5",
          "midi": 73,
          "time": 14.625,
          "velocity": 0.2204724409448819,
          "duration": 0.1875
        },
        {
          "name": "A5",
          "midi": 81,
          "time": 14.8125,
          "velocity": 0.2204724409448819,
          "duration": 0.1875
        },
        {
          "name": "D5",
          "midi": 74,
          "time": 14.8125,
          "velocity": 0.2204724409448819,
          "duration": 0.1875
        },
        {
          "name": "F#5",
          "midi": 78,
          "time": 15,
          "velocity": 0.2204724409448819,
          "duration": 0.1875
        },
        {
          "name": "D5",
          "midi": 74,
          "time": 15,
          "velocity": 0.2204724409448819,
          "duration": 0.1875
        },
        {
          "name": "B5",
          "midi": 83,
          "time": 15,
          "velocity": 0.2204724409448819,
          "duration": 0.1875
        },
        {
          "name": "E5",
          "midi": 76,
          "time": 15,
          "velocity": 0.2204724409448819,
          "duration": 0.1875
        },
        {
          "name": "B4",
          "midi": 71,
          "time": 15,
          "velocity": 0.2204724409448819,
          "duration": 0.1875
        },
        {
          "name": "E5",
          "midi": 76,
          "time": 15.1875,
          "velocity": 0.2204724409448819,
          "duration": 0.1875
        },
        {
          "name": "F#5",
          "midi": 78,
          "time": 15.375,
          "velocity": 0.2204724409448819,
          "duration": 0.1875
        },
        {
          "name": "E5",
          "midi": 76,
          "time": 15.5625,
          "velocity": 0.2204724409448819,
          "duration": 0.1875
        },
        {
          "name": "B4",
          "midi": 71,
          "time": 15.75,
          "velocity": 0.2204724409448819,
          "duration": 0.1875
        },
        {
          "name": "F#5",
          "midi": 78,
          "time": 15.75,
          "velocity": 0.2204724409448819,
          "duration": 0.1875
        },
        {
          "name": "A5",
          "midi": 81,
          "time": 15.75,
          "velocity": 0.2204724409448819,
          "duration": 0.1875
        },
        {
          "name": "F#4",
          "midi": 66,
          "time": 15.75,
          "velocity": 0.2204724409448819,
          "duration": 0.1875
        },
        {
          "name": "E5",
          "midi": 76,
          "time": 15.9375,
          "velocity": 0.2204724409448819,
          "duration": 0.1875
        },
        {
          "name": "F#4",
          "midi": 66,
          "time": 15.9375,
          "velocity": 0.2204724409448819,
          "duration": 0.1875
        },
        {
          "name": "D5",
          "midi": 74,
          "time": 16.125,
          "velocity": 0.2204724409448819,
          "duration": 0.1875
        },
        {
          "name": "A5",
          "midi": 81,
          "time": 16.125,
          "velocity": 0.2204724409448819,
          "duration": 0.1875
        },
        {
          "name": "E5",
          "midi": 76,
          "time": 16.3125,
          "velocity": 0.2204724409448819,
          "duration": 0.1875
        },
        {
          "name": "A4",
          "midi": 69,
          "time": 16.3125,
          "velocity": 0.2204724409448819,
          "duration": 0.1875
        },
        {
          "name": "D5",
          "midi": 74,
          "time": 16.5,
          "velocity": 0.2204724409448819,
          "duration": 0.1875
        },
        {
          "name": "F#5",
          "midi": 78,
          "time": 16.5,
          "velocity": 0.2204724409448819,
          "duration": 0.1875
        },
        {
          "name": "A4",
          "midi": 69,
          "time": 16.5,
          "velocity": 0.2204724409448819,
          "duration": 0.1875
        },
        {
          "name": "C#5",
          "midi": 73,
          "time": 16.6875,
          "velocity": 0.2204724409448819,
          "duration": 0.1875
        },
        {
          "name": "A5",
          "midi": 81,
          "time": 16.6875,
          "velocity": 0.2204724409448819,
          "duration": 0.1875
        },
        {
          "name": "A4",
          "midi": 69,
          "time": 16.6875,
          "velocity": 0.2204724409448819,
          "duration": 0.1875
        },
        {
          "name": "D5",
          "midi": 74,
          "time": 16.875,
          "velocity": 0.2204724409448819,
          "duration": 0.1875
        },
        {
          "name": "F#5",
          "midi": 78,
          "time": 16.875,
          "velocity": 0.2204724409448819,
          "duration": 0.1875
        },
        {
          "name": "E5",
          "midi": 76,
          "time": 17.0625,
          "velocity": 0.2204724409448819,
          "duration": 0.1875
        },
        {
          "name": "C#5",
          "midi": 73,
          "time": 17.25,
          "velocity": 0.2204724409448819,
          "duration": 0.1875
        },
        {
          "name": "A5",
          "midi": 81,
          "time": 17.25,
          "velocity": 0.2204724409448819,
          "duration": 0.1875
        },
        {
          "name": "F5",
          "midi": 77,
          "time": 17.25,
          "velocity": 0.2204724409448819,
          "duration": 0.1875
        },
        {
          "name": "F#5",
          "midi": 78,
          "time": 17.4375,
          "velocity": 0.2204724409448819,
          "duration": 0.1875
        },
        {
          "name": "D5",
          "midi": 74,
          "time": 17.4375,
          "velocity": 0.2204724409448819,
          "duration": 0.1875
        },
        {
          "name": "A5",
          "midi": 81,
          "time": 17.625,
          "velocity": 0.2204724409448819,
          "duration": 0.1875
        },
        {
          "name": "C#5",
          "midi": 73,
          "time": 17.625,
          "velocity": 0.2204724409448819,
          "duration": 0.1875
        },
        {
          "name": "A5",
          "midi": 81,
          "time": 17.8125,
          "velocity": 0.2204724409448819,
          "duration": 0.1875
        },
        {
          "name": "D5",
          "midi": 74,
          "time": 17.8125,
          "velocity": 0.2204724409448819,
          "duration": 0.1875
        },
        {
          "name": "F#5",
          "midi": 78,
          "time": 18,
          "velocity": 0.2204724409448819,
          "duration": 0.1875
        },
        {
          "name": "D5",
          "midi": 74,
          "time": 18,
          "velocity": 0.2204724409448819,
          "duration": 0.1875
        },
        {
          "name": "B5",
          "midi": 83,
          "time": 18,
          "velocity": 0.2204724409448819,
          "duration": 0.1875
        },
        {
          "name": "E5",
          "midi": 76,
          "time": 18,
          "velocity": 0.2204724409448819,
          "duration": 0.1875
        },
        {
          "name": "B4",
          "midi": 71,
          "time": 18,
          "velocity": 0.2204724409448819,
          "duration": 0.1875
        },
        {
          "name": "E5",
          "midi": 76,
          "time": 18.1875,
          "velocity": 0.2204724409448819,
          "duration": 0.1875
        },
        {
          "name": "F#5",
          "midi": 78,
          "time": 18.375,
          "velocity": 0.2204724409448819,
          "duration": 0.1875
        },
        {
          "name": "E5",
          "midi": 76,
          "time": 18.5625,
          "velocity": 0.2204724409448819,
          "duration": 0.1875
        },
        {
          "name": "B4",
          "midi": 71,
          "time": 18.75,
          "velocity": 0.2204724409448819,
          "duration": 0.1875
        },
        {
          "name": "F#5",
          "midi": 78,
          "time": 18.75,
          "velocity": 0.2204724409448819,
          "duration": 0.1875
        },
        {
          "name": "A5",
          "midi": 81,
          "time": 18.75,
          "velocity": 0.2204724409448819,
          "duration": 0.1875
        },
        {
          "name": "F#4",
          "midi": 66,
          "time": 18.75,
          "velocity": 0.2204724409448819,
          "duration": 0.1875
        },
        {
          "name": "E5",
          "midi": 76,
          "time": 18.9375,
          "velocity": 0.2204724409448819,
          "duration": 0.1875
        },
        {
          "name": "F#4",
          "midi": 66,
          "time": 18.9375,
          "velocity": 0.2204724409448819,
          "duration": 0.1875
        },
        {
          "name": "D5",
          "midi": 74,
          "time": 19.125,
          "velocity": 0.2204724409448819,
          "duration": 0.1875
        },
        {
          "name": "A5",
          "midi": 81,
          "time": 19.125,
          "velocity": 0.2204724409448819,
          "duration": 0.1875
        },
        {
          "name": "E5",
          "midi": 76,
          "time": 19.3125,
          "velocity": 0.2204724409448819,
          "duration": 0.1875
        },
        {
          "name": "A4",
          "midi": 69,
          "time": 19.3125,
          "velocity": 0.2204724409448819,
          "duration": 0.1875
        },
        {
          "name": "D5",
          "midi": 74,
          "time": 19.5,
          "velocity": 0.2204724409448819,
          "duration": 0.1875
        },
        {
          "name": "F#5",
          "midi": 78,
          "time": 19.5,
          "velocity": 0.2204724409448819,
          "duration": 0.1875
        },
        {
          "name": "A4",
          "midi": 69,
          "time": 19.5,
          "velocity": 0.2204724409448819,
          "duration": 0.1875
        },
        {
          "name": "C#5",
          "midi": 73,
          "time": 19.6875,
          "velocity": 0.2204724409448819,
          "duration": 0.1875
        },
        {
          "name": "A5",
          "midi": 81,
          "time": 19.6875,
          "velocity": 0.2204724409448819,
          "duration": 0.1875
        },
        {
          "name": "A4",
          "midi": 69,
          "time": 19.6875,
          "velocity": 0.2204724409448819,
          "duration": 0.1875
        },
        {
          "name": "D5",
          "midi": 74,
          "time": 19.875,
          "velocity": 0.2204724409448819,
          "duration": 0.1875
        },
        {
          "name": "F#5",
          "midi": 78,
          "time": 19.875,
          "velocity": 0.2204724409448819,
          "duration": 0.1875
        },
        {
          "name": "E5",
          "midi": 76,
          "time": 20.0625,
          "velocity": 0.2204724409448819,
          "duration": 0.1875
        },
        {
          "name": "C#5",
          "midi": 73,
          "time": 20.25,
          "velocity": 0.2204724409448819,
          "duration": 0.1875
        },
        {
          "name": "A5",
          "midi": 81,
          "time": 20.25,
          "velocity": 0.2204724409448819,
          "duration": 0.1875
        },
        {
          "name": "F5",
          "midi": 77,
          "time": 20.25,
          "velocity": 0.2204724409448819,
          "duration": 0.1875
        },
        {
          "name": "F#5",
          "midi": 78,
          "time": 20.4375,
          "velocity": 0.2204724409448819,
          "duration": 0.1875
        },
        {
          "name": "D5",
          "midi": 74,
          "time": 20.4375,
          "velocity": 0.2204724409448819,
          "duration": 0.1875
        },
        {
          "name": "A5",
          "midi": 81,
          "time": 20.625,
          "velocity": 0.2204724409448819,
          "duration": 0.1875
        },
        {
          "name": "C#5",
          "midi": 73,
          "time": 20.625,
          "velocity": 0.2204724409448819,
          "duration": 0.1875
        },
        {
          "name": "A5",
          "midi": 81,
          "time": 20.8125,
          "velocity": 0.2204724409448819,
          "duration": 0.1875
        },
        {
          "name": "D5",
          "midi": 74,
          "time": 20.8125,
          "velocity": 0.2204724409448819,
          "duration": 0.1875
        },
        {
          "name": "F#5",
          "midi": 78,
          "time": 21,
          "velocity": 0.2204724409448819,
          "duration": 0.1875
        },
        {
          "name": "D5",
          "midi": 74,
          "time": 21,
          "velocity": 0.2204724409448819,
          "duration": 0.1875
        },
        {
          "name": "B5",
          "midi": 83,
          "time": 21,
          "velocity": 0.2204724409448819,
          "duration": 0.1875
        },
        {
          "name": "E5",
          "midi": 76,
          "time": 21,
          "velocity": 0.2204724409448819,
          "duration": 0.1875
        },
        {
          "name": "B4",
          "midi": 71,
          "time": 21,
          "velocity": 0.2204724409448819,
          "duration": 0.1875
        },
        {
          "name": "E5",
          "midi": 76,
          "time": 21.1875,
          "velocity": 0.2204724409448819,
          "duration": 0.1875
        },
        {
          "name": "F#5",
          "midi": 78,
          "time": 21.375,
          "velocity": 0.2204724409448819,
          "duration": 0.1875
        },
        {
          "name": "E5",
          "midi": 76,
          "time": 21.5625,
          "velocity": 0.2204724409448819,
          "duration": 0.1875
        },
        {
          "name": "B4",
          "midi": 71,
          "time": 21.75,
          "velocity": 0.2204724409448819,
          "duration": 0.1875
        },
        {
          "name": "F#5",
          "midi": 78,
          "time": 21.75,
          "velocity": 0.2204724409448819,
          "duration": 0.1875
        },
        {
          "name": "A5",
          "midi": 81,
          "time": 21.75,
          "velocity": 0.2204724409448819,
          "duration": 0.1875
        },
        {
          "name": "F#4",
          "midi": 66,
          "time": 21.75,
          "velocity": 0.2204724409448819,
          "duration": 0.1875
        },
        {
          "name": "E5",
          "midi": 76,
          "time": 21.9375,
          "velocity": 0.2204724409448819,
          "duration": 0.1875
        },
        {
          "name": "F#4",
          "midi": 66,
          "time": 21.9375,
          "velocity": 0.2204724409448819,
          "duration": 0.1875
        },
        {
          "name": "D5",
          "midi": 74,
          "time": 22.125,
          "velocity": 0.2204724409448819,
          "duration": 0.1875
        },
        {
          "name": "A5",
          "midi": 81,
          "time": 22.125,
          "velocity": 0.2204724409448819,
          "duration": 0.1875
        },
        {
          "name": "E5",
          "midi": 76,
          "time": 22.3125,
          "velocity": 0.2204724409448819,
          "duration": 0.1875
        },
        {
          "name": "A4",
          "midi": 69,
          "time": 22.3125,
          "velocity": 0.2204724409448819,
          "duration": 0.1875
        },
        {
          "name": "D5",
          "midi": 74,
          "time": 22.5,
          "velocity": 0.2204724409448819,
          "duration": 0.1875
        },
        {
          "name": "F#5",
          "midi": 78,
          "time": 22.5,
          "velocity": 0.2204724409448819,
          "duration": 0.1875
        },
        {
          "name": "A4",
          "midi": 69,
          "time": 22.5,
          "velocity": 0.2204724409448819,
          "duration": 0.1875
        },
        {
          "name": "C#5",
          "midi": 73,
          "time": 22.6875,
          "velocity": 0.2204724409448819,
          "duration": 0.1875
        },
        {
          "name": "A5",
          "midi": 81,
          "time": 22.6875,
          "velocity": 0.2204724409448819,
          "duration": 0.1875
        },
        {
          "name": "A4",
          "midi": 69,
          "time": 22.6875,
          "velocity": 0.2204724409448819,
          "duration": 0.1875
        },
        {
          "name": "D5",
          "midi": 74,
          "time": 22.875,
          "velocity": 0.2204724409448819,
          "duration": 0.1875
        },
        {
          "name": "F#5",
          "midi": 78,
          "time": 22.875,
          "velocity": 0.2204724409448819,
          "duration": 0.1875
        },
        {
          "name": "E5",
          "midi": 76,
          "time": 23.0625,
          "velocity": 0.2204724409448819,
          "duration": 0.1875
        },
        {
          "name": "C#5",
          "midi": 73,
          "time": 23.25,
          "velocity": 0.2204724409448819,
          "duration": 0.1875
        },
        {
          "name": "A5",
          "midi": 81,
          "time": 23.25,
          "velocity": 0.2204724409448819,
          "duration": 0.1875
        },
        {
          "name": "F5",
          "midi": 77,
          "time": 23.25,
          "velocity": 0.2204724409448819,
          "duration": 0.1875
        },
        {
          "name": "F#5",
          "midi": 78,
          "time": 23.4375,
          "velocity": 0.2204724409448819,
          "duration": 0.1875
        },
        {
          "name": "D5",
          "midi": 74,
          "time": 23.4375,
          "velocity": 0.2204724409448819,
          "duration": 0.1875
        },
        {
          "name": "A5",
          "midi": 81,
          "time": 23.625,
          "velocity": 0.2204724409448819,
          "duration": 0.1875
        },
        {
          "name": "C#5",
          "midi": 73,
          "time": 23.625,
          "velocity": 0.2204724409448819,
          "duration": 0.1875
        },
        {
          "name": "A5",
          "midi": 81,
          "time": 23.8125,
          "velocity": 0.2204724409448819,
          "duration": 0.1875
        },
        {
          "name": "D5",
          "midi": 74,
          "time": 23.8125,
          "velocity": 0.2204724409448819,
          "duration": 0.1875
        },
        {
          "name": "F#5",
          "midi": 78,
          "time": 36,
          "velocity": 0.2204724409448819,
          "duration": 0.1875
        },
        {
          "name": "D5",
          "midi": 74,
          "time": 36,
          "velocity": 0.2204724409448819,
          "duration": 0.1875
        },
        {
          "name": "B5",
          "midi": 83,
          "time": 36,
          "velocity": 0.2204724409448819,
          "duration": 0.1875
        },
        {
          "name": "E5",
          "midi": 76,
          "time": 36,
          "velocity": 0.2204724409448819,
          "duration": 0.1875
        },
        {
          "name": "B4",
          "midi": 71,
          "time": 36,
          "velocity": 0.2204724409448819,
          "duration": 0.1875
        },
        {
          "name": "E5",
          "midi": 76,
          "time": 36.1875,
          "velocity": 0.2204724409448819,
          "duration": 0.1875
        },
        {
          "name": "F#5",
          "midi": 78,
          "time": 36.375,
          "velocity": 0.2204724409448819,
          "duration": 0.1875
        },
        {
          "name": "E5",
          "midi": 76,
          "time": 36.5625,
          "velocity": 0.2204724409448819,
          "duration": 0.1875
        },
        {
          "name": "B4",
          "midi": 71,
          "time": 36.75,
          "velocity": 0.2204724409448819,
          "duration": 0.1875
        },
        {
          "name": "F#5",
          "midi": 78,
          "time": 36.75,
          "velocity": 0.2204724409448819,
          "duration": 0.1875
        },
        {
          "name": "A5",
          "midi": 81,
          "time": 36.75,
          "velocity": 0.2204724409448819,
          "duration": 0.1875
        },
        {
          "name": "F#4",
          "midi": 66,
          "time": 36.75,
          "velocity": 0.2204724409448819,
          "duration": 0.1875
        },
        {
          "name": "E5",
          "midi": 76,
          "time": 36.9375,
          "velocity": 0.2204724409448819,
          "duration": 0.1875
        },
        {
          "name": "F#4",
          "midi": 66,
          "time": 36.9375,
          "velocity": 0.2204724409448819,
          "duration": 0.1875
        },
        {
          "name": "D5",
          "midi": 74,
          "time": 37.125,
          "velocity": 0.2204724409448819,
          "duration": 0.1875
        },
        {
          "name": "A5",
          "midi": 81,
          "time": 37.125,
          "velocity": 0.2204724409448819,
          "duration": 0.1875
        },
        {
          "name": "E5",
          "midi": 76,
          "time": 37.3125,
          "velocity": 0.2204724409448819,
          "duration": 0.1875
        },
        {
          "name": "A4",
          "midi": 69,
          "time": 37.3125,
          "velocity": 0.2204724409448819,
          "duration": 0.1875
        },
        {
          "name": "D5",
          "midi": 74,
          "time": 37.5,
          "velocity": 0.2204724409448819,
          "duration": 0.1875
        },
        {
          "name": "F#5",
          "midi": 78,
          "time": 37.5,
          "velocity": 0.2204724409448819,
          "duration": 0.1875
        },
        {
          "name": "A4",
          "midi": 69,
          "time": 37.5,
          "velocity": 0.2204724409448819,
          "duration": 0.1875
        },
        {
          "name": "C#5",
          "midi": 73,
          "time": 37.6875,
          "velocity": 0.2204724409448819,
          "duration": 0.1875
        },
        {
          "name": "A5",
          "midi": 81,
          "time": 37.6875,
          "velocity": 0.2204724409448819,
          "duration": 0.1875
        },
        {
          "name": "A4",
          "midi": 69,
          "time": 37.6875,
          "velocity": 0.2204724409448819,
          "duration": 0.1875
        },
        {
          "name": "D5",
          "midi": 74,
          "time": 37.875,
          "velocity": 0.2204724409448819,
          "duration": 0.1875
        },
        {
          "name": "F#5",
          "midi": 78,
          "time": 37.875,
          "velocity": 0.2204724409448819,
          "duration": 0.1875
        },
        {
          "name": "E5",
          "midi": 76,
          "time": 38.0625,
          "velocity": 0.2204724409448819,
          "duration": 0.1875
        },
        {
          "name": "C#5",
          "midi": 73,
          "time": 38.25,
          "velocity": 0.2204724409448819,
          "duration": 0.1875
        },
        {
          "name": "A5",
          "midi": 81,
          "time": 38.25,
          "velocity": 0.2204724409448819,
          "duration": 0.1875
        },
        {
          "name": "F5",
          "midi": 77,
          "time": 38.25,
          "velocity": 0.2204724409448819,
          "duration": 0.1875
        },
        {
          "name": "F#5",
          "midi": 78,
          "time": 38.4375,
          "velocity": 0.2204724409448819,
          "duration": 0.1875
        },
        {
          "name": "D5",
          "midi": 74,
          "time": 38.4375,
          "velocity": 0.2204724409448819,
          "duration": 0.1875
        },
        {
          "name": "A5",
          "midi": 81,
          "time": 38.625,
          "velocity": 0.2204724409448819,
          "duration": 0.1875
        },
        {
          "name": "C#5",
          "midi": 73,
          "time": 38.625,
          "velocity": 0.2204724409448819,
          "duration": 0.1875
        },
        {
          "name": "A5",
          "midi": 81,
          "time": 38.8125,
          "velocity": 0.2204724409448819,
          "duration": 0.1875
        },
        {
          "name": "D5",
          "midi": 74,
          "time": 38.8125,
          "velocity": 0.2204724409448819,
          "duration": 0.1875
        },
        {
          "name": "F#5",
          "midi": 78,
          "time": 39,
          "velocity": 0.2204724409448819,
          "duration": 0.1875
        },
        {
          "name": "D5",
          "midi": 74,
          "time": 39,
          "velocity": 0.2204724409448819,
          "duration": 0.1875
        },
        {
          "name": "B5",
          "midi": 83,
          "time": 39,
          "velocity": 0.2204724409448819,
          "duration": 0.1875
        },
        {
          "name": "E5",
          "midi": 76,
          "time": 39,
          "velocity": 0.2204724409448819,
          "duration": 0.1875
        },
        {
          "name": "B4",
          "midi": 71,
          "time": 39,
          "velocity": 0.2204724409448819,
          "duration": 0.1875
        },
        {
          "name": "E5",
          "midi": 76,
          "time": 39.1875,
          "velocity": 0.2204724409448819,
          "duration": 0.1875
        },
        {
          "name": "F#5",
          "midi": 78,
          "time": 39.375,
          "velocity": 0.2204724409448819,
          "duration": 0.1875
        },
        {
          "name": "E5",
          "midi": 76,
          "time": 39.5625,
          "velocity": 0.2204724409448819,
          "duration": 0.1875
        },
        {
          "name": "B4",
          "midi": 71,
          "time": 39.75,
          "velocity": 0.2204724409448819,
          "duration": 0.1875
        },
        {
          "name": "F#5",
          "midi": 78,
          "time": 39.75,
          "velocity": 0.2204724409448819,
          "duration": 0.1875
        },
        {
          "name": "A5",
          "midi": 81,
          "time": 39.75,
          "velocity": 0.2204724409448819,
          "duration": 0.1875
        },
        {
          "name": "F#4",
          "midi": 66,
          "time": 39.75,
          "velocity": 0.2204724409448819,
          "duration": 0.1875
        },
        {
          "name": "E5",
          "midi": 76,
          "time": 39.9375,
          "velocity": 0.2204724409448819,
          "duration": 0.1875
        },
        {
          "name": "F#4",
          "midi": 66,
          "time": 39.9375,
          "velocity": 0.2204724409448819,
          "duration": 0.1875
        },
        {
          "name": "D5",
          "midi": 74,
          "time": 40.125,
          "velocity": 0.2204724409448819,
          "duration": 0.1875
        },
        {
          "name": "A5",
          "midi": 81,
          "time": 40.125,
          "velocity": 0.2204724409448819,
          "duration": 0.1875
        },
        {
          "name": "E5",
          "midi": 76,
          "time": 40.3125,
          "velocity": 0.2204724409448819,
          "duration": 0.1875
        },
        {
          "name": "A4",
          "midi": 69,
          "time": 40.3125,
          "velocity": 0.2204724409448819,
          "duration": 0.1875
        },
        {
          "name": "D5",
          "midi": 74,
          "time": 40.5,
          "velocity": 0.2204724409448819,
          "duration": 0.1875
        },
        {
          "name": "F#5",
          "midi": 78,
          "time": 40.5,
          "velocity": 0.2204724409448819,
          "duration": 0.1875
        },
        {
          "name": "A4",
          "midi": 69,
          "time": 40.5,
          "velocity": 0.2204724409448819,
          "duration": 0.1875
        },
        {
          "name": "C#5",
          "midi": 73,
          "time": 40.6875,
          "velocity": 0.2204724409448819,
          "duration": 0.1875
        },
        {
          "name": "A5",
          "midi": 81,
          "time": 40.6875,
          "velocity": 0.2204724409448819,
          "duration": 0.1875
        },
        {
          "name": "A4",
          "midi": 69,
          "time": 40.6875,
          "velocity": 0.2204724409448819,
          "duration": 0.1875
        },
        {
          "name": "D5",
          "midi": 74,
          "time": 40.875,
          "velocity": 0.2204724409448819,
          "duration": 0.1875
        },
        {
          "name": "F#5",
          "midi": 78,
          "time": 40.875,
          "velocity": 0.2204724409448819,
          "duration": 0.1875
        },
        {
          "name": "E5",
          "midi": 76,
          "time": 41.0625,
          "velocity": 0.2204724409448819,
          "duration": 0.1875
        },
        {
          "name": "C#5",
          "midi": 73,
          "time": 41.25,
          "velocity": 0.2204724409448819,
          "duration": 0.1875
        },
        {
          "name": "A5",
          "midi": 81,
          "time": 41.25,
          "velocity": 0.2204724409448819,
          "duration": 0.1875
        },
        {
          "name": "F5",
          "midi": 77,
          "time": 41.25,
          "velocity": 0.2204724409448819,
          "duration": 0.1875
        },
        {
          "name": "F#5",
          "midi": 78,
          "time": 41.4375,
          "velocity": 0.2204724409448819,
          "duration": 0.1875
        },
        {
          "name": "D5",
          "midi": 74,
          "time": 41.4375,
          "velocity": 0.2204724409448819,
          "duration": 0.1875
        },
        {
          "name": "A5",
          "midi": 81,
          "time": 41.625,
          "velocity": 0.2204724409448819,
          "duration": 0.1875
        },
        {
          "name": "C#5",
          "midi": 73,
          "time": 41.625,
          "velocity": 0.2204724409448819,
          "duration": 0.1875
        },
        {
          "name": "A5",
          "midi": 81,
          "time": 41.8125,
          "velocity": 0.2204724409448819,
          "duration": 0.1875
        },
        {
          "name": "D5",
          "midi": 74,
          "time": 41.8125,
          "velocity": 0.2204724409448819,
          "duration": 0.1875
        },
        {
          "name": "F#5",
          "midi": 78,
          "time": 42,
          "velocity": 0.2204724409448819,
          "duration": 0.1875
        },
        {
          "name": "D5",
          "midi": 74,
          "time": 42,
          "velocity": 0.2204724409448819,
          "duration": 0.1875
        },
        {
          "name": "B5",
          "midi": 83,
          "time": 42,
          "velocity": 0.2204724409448819,
          "duration": 0.1875
        },
        {
          "name": "E5",
          "midi": 76,
          "time": 42,
          "velocity": 0.2204724409448819,
          "duration": 0.1875
        },
        {
          "name": "B4",
          "midi": 71,
          "time": 42,
          "velocity": 0.2204724409448819,
          "duration": 0.1875
        },
        {
          "name": "E5",
          "midi": 76,
          "time": 42.1875,
          "velocity": 0.2204724409448819,
          "duration": 0.1875
        },
        {
          "name": "F#5",
          "midi": 78,
          "time": 42.375,
          "velocity": 0.2204724409448819,
          "duration": 0.1875
        },
        {
          "name": "E5",
          "midi": 76,
          "time": 42.5625,
          "velocity": 0.2204724409448819,
          "duration": 0.1875
        },
        {
          "name": "B4",
          "midi": 71,
          "time": 42.75,
          "velocity": 0.2204724409448819,
          "duration": 0.1875
        },
        {
          "name": "F#5",
          "midi": 78,
          "time": 42.75,
          "velocity": 0.2204724409448819,
          "duration": 0.1875
        },
        {
          "name": "A5",
          "midi": 81,
          "time": 42.75,
          "velocity": 0.2204724409448819,
          "duration": 0.1875
        },
        {
          "name": "F#4",
          "midi": 66,
          "time": 42.75,
          "velocity": 0.2204724409448819,
          "duration": 0.1875
        },
        {
          "name": "E5",
          "midi": 76,
          "time": 42.9375,
          "velocity": 0.2204724409448819,
          "duration": 0.1875
        },
        {
          "name": "F#4",
          "midi": 66,
          "time": 42.9375,
          "velocity": 0.2204724409448819,
          "duration": 0.1875
        },
        {
          "name": "D5",
          "midi": 74,
          "time": 43.125,
          "velocity": 0.2204724409448819,
          "duration": 0.1875
        },
        {
          "name": "A5",
          "midi": 81,
          "time": 43.125,
          "velocity": 0.2204724409448819,
          "duration": 0.1875
        },
        {
          "name": "E5",
          "midi": 76,
          "time": 43.3125,
          "velocity": 0.2204724409448819,
          "duration": 0.1875
        },
        {
          "name": "A4",
          "midi": 69,
          "time": 43.3125,
          "velocity": 0.2204724409448819,
          "duration": 0.1875
        },
        {
          "name": "D5",
          "midi": 74,
          "time": 43.5,
          "velocity": 0.2204724409448819,
          "duration": 0.1875
        },
        {
          "name": "F#5",
          "midi": 78,
          "time": 43.5,
          "velocity": 0.2204724409448819,
          "duration": 0.1875
        },
        {
          "name": "A4",
          "midi": 69,
          "time": 43.5,
          "velocity": 0.2204724409448819,
          "duration": 0.1875
        },
        {
          "name": "C#5",
          "midi": 73,
          "time": 43.6875,
          "velocity": 0.2204724409448819,
          "duration": 0.1875
        },
        {
          "name": "A5",
          "midi": 81,
          "time": 43.6875,
          "velocity": 0.2204724409448819,
          "duration": 0.1875
        },
        {
          "name": "A4",
          "midi": 69,
          "time": 43.6875,
          "velocity": 0.2204724409448819,
          "duration": 0.1875
        },
        {
          "name": "D5",
          "midi": 74,
          "time": 43.875,
          "velocity": 0.2204724409448819,
          "duration": 0.1875
        },
        {
          "name": "F#5",
          "midi": 78,
          "time": 43.875,
          "velocity": 0.2204724409448819,
          "duration": 0.1875
        },
        {
          "name": "E5",
          "midi": 76,
          "time": 44.0625,
          "velocity": 0.2204724409448819,
          "duration": 0.1875
        },
        {
          "name": "C#5",
          "midi": 73,
          "time": 44.25,
          "velocity": 0.2204724409448819,
          "duration": 0.1875
        },
        {
          "name": "A5",
          "midi": 81,
          "time": 44.25,
          "velocity": 0.2204724409448819,
          "duration": 0.1875
        },
        {
          "name": "F5",
          "midi": 77,
          "time": 44.25,
          "velocity": 0.2204724409448819,
          "duration": 0.1875
        },
        {
          "name": "F#5",
          "midi": 78,
          "time": 44.4375,
          "velocity": 0.2204724409448819,
          "duration": 0.1875
        },
        {
          "name": "D5",
          "midi": 74,
          "time": 44.4375,
          "velocity": 0.2204724409448819,
          "duration": 0.1875
        },
        {
          "name": "A5",
          "midi": 81,
          "time": 44.625,
          "velocity": 0.2204724409448819,
          "duration": 0.1875
        },
        {
          "name": "C#5",
          "midi": 73,
          "time": 44.625,
          "velocity": 0.2204724409448819,
          "duration": 0.1875
        },
        {
          "name": "A5",
          "midi": 81,
          "time": 44.8125,
          "velocity": 0.2204724409448819,
          "duration": 0.1875
        },
        {
          "name": "D5",
          "midi": 74,
          "time": 44.8125,
          "velocity": 0.2204724409448819,
          "duration": 0.1875
        },
        {
          "name": "F#5",
          "midi": 78,
          "time": 45,
          "velocity": 0.2204724409448819,
          "duration": 0.1875
        },
        {
          "name": "D5",
          "midi": 74,
          "time": 45,
          "velocity": 0.2204724409448819,
          "duration": 0.1875
        },
        {
          "name": "B5",
          "midi": 83,
          "time": 45,
          "velocity": 0.2204724409448819,
          "duration": 0.1875
        },
        {
          "name": "E5",
          "midi": 76,
          "time": 45,
          "velocity": 0.2204724409448819,
          "duration": 0.1875
        },
        {
          "name": "B4",
          "midi": 71,
          "time": 45,
          "velocity": 0.2204724409448819,
          "duration": 0.1875
        },
        {
          "name": "E5",
          "midi": 76,
          "time": 45.1875,
          "velocity": 0.2204724409448819,
          "duration": 0.1875
        },
        {
          "name": "F#5",
          "midi": 78,
          "time": 45.375,
          "velocity": 0.2204724409448819,
          "duration": 0.1875
        },
        {
          "name": "E5",
          "midi": 76,
          "time": 45.5625,
          "velocity": 0.2204724409448819,
          "duration": 0.1875
        },
        {
          "name": "B4",
          "midi": 71,
          "time": 45.75,
          "velocity": 0.2204724409448819,
          "duration": 0.1875
        },
        {
          "name": "F#5",
          "midi": 78,
          "time": 45.75,
          "velocity": 0.2204724409448819,
          "duration": 0.1875
        },
        {
          "name": "A5",
          "midi": 81,
          "time": 45.75,
          "velocity": 0.2204724409448819,
          "duration": 0.1875
        },
        {
          "name": "F#4",
          "midi": 66,
          "time": 45.75,
          "velocity": 0.2204724409448819,
          "duration": 0.1875
        },
        {
          "name": "E5",
          "midi": 76,
          "time": 45.9375,
          "velocity": 0.2204724409448819,
          "duration": 0.1875
        },
        {
          "name": "F#4",
          "midi": 66,
          "time": 45.9375,
          "velocity": 0.2204724409448819,
          "duration": 0.1875
        },
        {
          "name": "D5",
          "midi": 74,
          "time": 46.125,
          "velocity": 0.2204724409448819,
          "duration": 0.1875
        },
        {
          "name": "A5",
          "midi": 81,
          "time": 46.125,
          "velocity": 0.2204724409448819,
          "duration": 0.1875
        },
        {
          "name": "E5",
          "midi": 76,
          "time": 46.3125,
          "velocity": 0.2204724409448819,
          "duration": 0.1875
        },
        {
          "name": "A4",
          "midi": 69,
          "time": 46.3125,
          "velocity": 0.2204724409448819,
          "duration": 0.1875
        },
        {
          "name": "D5",
          "midi": 74,
          "time": 46.5,
          "velocity": 0.2204724409448819,
          "duration": 0.1875
        },
        {
          "name": "F#5",
          "midi": 78,
          "time": 46.5,
          "velocity": 0.2204724409448819,
          "duration": 0.1875
        },
        {
          "name": "A4",
          "midi": 69,
          "time": 46.5,
          "velocity": 0.2204724409448819,
          "duration": 0.1875
        },
        {
          "name": "C#5",
          "midi": 73,
          "time": 46.6875,
          "velocity": 0.2204724409448819,
          "duration": 0.1875
        },
        {
          "name": "A5",
          "midi": 81,
          "time": 46.6875,
          "velocity": 0.2204724409448819,
          "duration": 0.1875
        },
        {
          "name": "A4",
          "midi": 69,
          "time": 46.6875,
          "velocity": 0.2204724409448819,
          "duration": 0.1875
        },
        {
          "name": "D5",
          "midi": 74,
          "time": 46.875,
          "velocity": 0.2204724409448819,
          "duration": 0.1875
        },
        {
          "name": "F#5",
          "midi": 78,
          "time": 46.875,
          "velocity": 0.2204724409448819,
          "duration": 0.1875
        },
        {
          "name": "E5",
          "midi": 76,
          "time": 47.0625,
          "velocity": 0.2204724409448819,
          "duration": 0.1875
        },
        {
          "name": "C#5",
          "midi": 73,
          "time": 47.25,
          "velocity": 0.2204724409448819,
          "duration": 0.1875
        },
        {
          "name": "A5",
          "midi": 81,
          "time": 47.25,
          "velocity": 0.2204724409448819,
          "duration": 0.1875
        },
        {
          "name": "F5",
          "midi": 77,
          "time": 47.25,
          "velocity": 0.2204724409448819,
          "duration": 0.1875
        },
        {
          "name": "F#5",
          "midi": 78,
          "time": 47.4375,
          "velocity": 0.2204724409448819,
          "duration": 0.1875
        },
        {
          "name": "D5",
          "midi": 74,
          "time": 47.4375,
          "velocity": 0.2204724409448819,
          "duration": 0.1875
        },
        {
          "name": "A5",
          "midi": 81,
          "time": 47.625,
          "velocity": 0.2204724409448819,
          "duration": 0.1875
        },
        {
          "name": "C#5",
          "midi": 73,
          "time": 47.625,
          "velocity": 0.2204724409448819,
          "duration": 0.1875
        },
        {
          "name": "A5",
          "midi": 81,
          "time": 47.8125,
          "velocity": 0.2204724409448819,
          "duration": 0.1875
        },
        {
          "name": "D5",
          "midi": 74,
          "time": 47.8125,
          "velocity": 0.2204724409448819,
          "duration": 0.1875
        }
      ],
      "controlChanges": {},
      "id": 6,
      "name": "Strings (Sustain)",
      "instrumentNumber": 43,
      "instrument": "contrabass",
      "instrumentFamily": "strings",
      "channelNumber": 4,
      "isPercussion": false
    }
  ]
}