{
  "header": {
    "PPQ": 43,
    "bpm": 120,
    "name": ""
  },
  "tempo": [
    {
      "absoluteTime": 0,
      "seconds": 0,
      "bpm": 120
    }
  ],
  "timeSignature": [],
  "startTime": 0,
  "duration": 157.18604651160828,
  "tracks": [
    {
      "startTime": 0,
      "duration": 157.18604651160828,
      "length": 12800,
      "notes": [
        {
          "name": "D#3",
          "midi": 51,
          "time": 0,
          "velocity": 0.31496062992125984,
          "duration": 1.2790697674418605
        },
        {
          "name": "G#4",
          "midi": 68,
          "time": 0.011627906976744186,
          "velocity": 0.2992125984251969,
          "duration": 1.2790697674418605
        },
        {
          "name": "A#3",
          "midi": 58,
          "time": 0.023255813953488372,
          "velocity": 0.31496062992125984,
          "duration": 1.2790697674418605
        },
        {
          "name": "D#4",
          "midi": 63,
          "time": 1.2906976744186047,
          "velocity": 0.2755905511811024,
          "duration": 1.2906976744186047
        },
        {
          "name": "F#4",
          "midi": 66,
          "time": 1.302325581395349,
          "velocity": 0.18110236220472442,
          "duration": 1.0116279069767442
        },
        {
          "name": "B2",
          "midi": 47,
          "time": 1.3139534883720931,
          "velocity": 0.30708661417322836,
          "duration": 1.255813953488372
        },
        {
          "name": "F#3",
          "midi": 54,
          "time": 1.3139534883720931,
          "velocity": 0.29133858267716534,
          "duration": 1.255813953488372
        },
        {
          "name": "F3",
          "midi": 53,
          "time": 2.5697674418604652,
          "velocity": 0.28346456692913385,
          "duration": 0.023255813953488413
        },
        {
          "name": "F#3",
          "midi": 54,
          "time": 2.5930232558139537,
          "velocity": 0.2755905511811024,
          "duration": 0.19767441860465107
        },
        {
          "name": "F3",
          "midi": 53,
          "time": 2.802325581395349,
          "velocity": 0.2992125984251969,
          "duration": 0.19767441860465107
        },
        {
          "name": "D#3",
          "midi": 51,
          "time": 3.0232558139534884,
          "velocity": 0.30708661417322836,
          "duration": 0.19767441860465107
        },
        {
          "name": "G#4",
          "midi": 68,
          "time": 3.2325581395348837,
          "velocity": 0.08661417322834646,
          "duration": 0.19767441860465107
        },
        {
          "name": "C#3",
          "midi": 49,
          "time": 3.244186046511628,
          "velocity": 0.29133858267716534,
          "duration": 0.18604651162790686
        },
        {
          "name": "D#3",
          "midi": 51,
          "time": 3.441860465116279,
          "velocity": 0.30708661417322836,
          "duration": 1.279069767441861
        },
        {
          "name": "A#3",
          "midi": 58,
          "time": 3.441860465116279,
          "velocity": 0.25984251968503935,
          "duration": 1.279069767441861
        },
        {
          "name": "G#4",
          "midi": 68,
          "time": 3.441860465116279,
          "velocity": 0.2755905511811024,
          "duration": 1.279069767441861
        },
        {
          "name": "A#4",
          "midi": 70,
          "time": 4.709302325581396,
          "velocity": 0.2677165354330709,
          "duration": 1.3139534883720927
        },
        {
          "name": "F#3",
          "midi": 54,
          "time": 4.732558139534884,
          "velocity": 0.25984251968503935,
          "duration": 1.2674418604651159
        },
        {
          "name": "D#4",
          "midi": 63,
          "time": 4.732558139534884,
          "velocity": 0.16535433070866143,
          "duration": 1.27906976744186
        },
        {
          "name": "B2",
          "midi": 47,
          "time": 4.744186046511628,
          "velocity": 0.30708661417322836,
          "duration": 1.2674418604651159
        },
        {
          "name": "G3",
          "midi": 55,
          "time": 6,
          "velocity": 0.2440944881889764,
          "duration": 0.023255813953488413
        },
        {
          "name": "F3",
          "midi": 53,
          "time": 6.023255813953488,
          "velocity": 0.28346456692913385,
          "duration": 0.22093023255813993
        },
        {
          "name": "F#3",
          "midi": 54,
          "time": 6.244186046511628,
          "velocity": 0.25196850393700787,
          "duration": 0.19767441860465151
        },
        {
          "name": "G#3",
          "midi": 56,
          "time": 6.453488372093024,
          "velocity": 0.2283464566929134,
          "duration": 0.19767441860465151
        },
        {
          "name": "A#3",
          "midi": 58,
          "time": 6.66279069767442,
          "velocity": 0.1889763779527559,
          "duration": 1.4883720930232576
        },
        {
          "name": "D#3",
          "midi": 51,
          "time": 6.860465116279071,
          "velocity": 0.29133858267716534,
          "duration": 1.290697674418606
        },
        {
          "name": "G#4",
          "midi": 68,
          "time": 6.8720930232558155,
          "velocity": 0.2677165354330709,
          "duration": 1.2790697674418618
        },
        {
          "name": "F5",
          "midi": 77,
          "time": 6.8720930232558155,
          "velocity": 0.2283464566929134,
          "duration": 0.25581395348837166
        },
        {
          "name": "B4",
          "midi": 71,
          "time": 7.30232558139535,
          "velocity": 0.33070866141732286,
          "duration": 0.24418604651162834
        },
        {
          "name": "A#4",
          "midi": 70,
          "time": 7.732558139534886,
          "velocity": 0.33858267716535434,
          "duration": 1.7209302325581373
        },
        {
          "name": "A2",
          "midi": 45,
          "time": 8.151162790697677,
          "velocity": 0.2677165354330709,
          "duration": 0.023255813953486637
        },
        {
          "name": "F#3",
          "midi": 54,
          "time": 8.16279069767442,
          "velocity": 0.2755905511811024,
          "duration": 1.5116279069767415
        },
        {
          "name": "B2",
          "midi": 47,
          "time": 8.174418604651164,
          "velocity": 0.30708661417322836,
          "duration": 1.2674418604651159
        },
        {
          "name": "F3",
          "midi": 53,
          "time": 9.674418604651162,
          "velocity": 0.28346456692913385,
          "duration": 0.19767441860465063
        },
        {
          "name": "A#4",
          "midi": 70,
          "time": 9.872093023255813,
          "velocity": 0.09448818897637795,
          "duration": 0.22093023255813904
        },
        {
          "name": "D#3",
          "midi": 51,
          "time": 9.883720930232556,
          "velocity": 0.2992125984251969,
          "duration": 0.20930232558139572
        },
        {
          "name": "C#3",
          "midi": 49,
          "time": 10.104651162790695,
          "velocity": 0.29133858267716534,
          "duration": 0.1860465116279073
        },
        {
          "name": "G#4",
          "midi": 68,
          "time": 10.104651162790695,
          "velocity": 0.2755905511811024,
          "duration": 1.4883720930232531
        },
        {
          "name": "F5",
          "midi": 77,
          "time": 10.290697674418603,
          "velocity": 0.33070866141732286,
          "duration": 0.3023255813953458
        },
        {
          "name": "E3",
          "midi": 52,
          "time": 10.302325581395346,
          "velocity": 0.28346456692913385,
          "duration": 0.023255813953486637
        },
        {
          "name": "A#3",
          "midi": 58,
          "time": 10.31395348837209,
          "velocity": 0.23622047244094488,
          "duration": 1.2906976744186025
        },
        {
          "name": "D#3",
          "midi": 51,
          "time": 10.325581395348832,
          "velocity": 0.29133858267716534,
          "duration": 1.2790697674418592
        },
        {
          "name": "B4",
          "midi": 71,
          "time": 10.732558139534879,
          "velocity": 0.3464566929133858,
          "duration": 0.27906976744186096
        },
        {
          "name": "A#4",
          "midi": 70,
          "time": 11.162790697674414,
          "velocity": 0.3858267716535433,
          "duration": 1.7209302325581355
        },
        {
          "name": "D#6",
          "midi": 87,
          "time": 11.232558139534879,
          "velocity": 0.07874015748031496,
          "duration": 0.3488372093023262
        },
        {
          "name": "F#4",
          "midi": 66,
          "time": 11.593023255813948,
          "velocity": 0.12598425196850394,
          "duration": 0.7441860465116257
        },
        {
          "name": "C#5",
          "midi": 73,
          "time": 11.593023255813948,
          "velocity": 0.08661417322834646,
          "duration": 1.2906976744186007
        },
        {
          "name": "F#3",
          "midi": 54,
          "time": 11.604651162790692,
          "velocity": 0.2755905511811024,
          "duration": 1.267441860465114
        },
        {
          "name": "F6",
          "midi": 89,
          "time": 11.604651162790692,
          "velocity": 0.09448818897637795,
          "duration": 1.267441860465114
        },
        {
          "name": "B2",
          "midi": 47,
          "time": 11.616279069767435,
          "velocity": 0.30708661417322836,
          "duration": 1.2558139534883708
        },
        {
          "name": "C5",
          "midi": 72,
          "time": 12.883720930232549,
          "velocity": 0.10236220472440945,
          "duration": 0.22093023255813904
        },
        {
          "name": "F3",
          "midi": 53,
          "time": 12.895348837209292,
          "velocity": 0.30708661417322836,
          "duration": 0.1860465116279073
        },
        {
          "name": "E3",
          "midi": 52,
          "time": 13.0813953488372,
          "velocity": 0.25196850393700787,
          "duration": 0.023255813953488413
        },
        {
          "name": "F#3",
          "midi": 54,
          "time": 13.104651162790688,
          "velocity": 0.29133858267716534,
          "duration": 0.19767441860465063
        },
        {
          "name": "C#5",
          "midi": 73,
          "time": 13.104651162790688,
          "velocity": 0.11023622047244094,
          "duration": 0.19767441860465063
        },
        {
          "name": "G#3",
          "midi": 56,
          "time": 13.313953488372082,
          "velocity": 0.30708661417322836,
          "duration": 0.20930232558139572
        },
        {
          "name": "D#5",
          "midi": 75,
          "time": 13.313953488372082,
          "velocity": 0.11811023622047244,
          "duration": 0.20930232558139572
        },
        {
          "name": "A#3",
          "midi": 58,
          "time": 13.534883720930221,
          "velocity": 0.3858267716535433,
          "duration": 0.20930232558139217
        },
        {
          "name": "F5",
          "midi": 77,
          "time": 13.534883720930221,
          "velocity": 0.3779527559055118,
          "duration": 0.5581395348837042
        },
        {
          "name": "A4",
          "midi": 69,
          "time": 13.662790697674406,
          "velocity": 0.2047244094488189,
          "duration": 0.058139534883720145
        },
        {
          "name": "G#4",
          "midi": 68,
          "time": 13.720930232558127,
          "velocity": 0.4251968503937008,
          "duration": 0.348837209302312
        },
        {
          "name": "G1",
          "midi": 31,
          "time": 13.73255813953487,
          "velocity": 0.5433070866141733,
          "duration": 0.011627906976743319
        },
        {
          "name": "E4",
          "midi": 64,
          "time": 13.73255813953487,
          "velocity": 0.2283464566929134,
          "duration": 0.023255813953486637
        },
        {
          "name": "C7",
          "midi": 96,
          "time": 13.73255813953487,
          "velocity": 0.13385826771653545,
          "duration": 0.08139534883720323
        },
        {
          "name": "F#1",
          "midi": 30,
          "time": 13.744186046511613,
          "velocity": 0.6771653543307087,
          "duration": 0.011627906976743319
        },
        {
          "name": "D3",
          "midi": 50,
          "time": 13.744186046511613,
          "velocity": 0.48031496062992124,
          "duration": 0.023255813953486637
        },
        {
          "name": "D#6",
          "midi": 87,
          "time": 13.744186046511613,
          "velocity": 0.13385826771653545,
          "duration": 0.39534883720928526
        },
        {
          "name": "F1",
          "midi": 29,
          "time": 13.755813953488357,
          "velocity": 0.7165354330708661,
          "duration": 0.011627906976743319
        },
        {
          "name": "A#3",
          "midi": 58,
          "time": 13.755813953488357,
          "velocity": 0.41732283464566927,
          "duration": 0.023255813953486637
        },
        {
          "name": "D#4",
          "midi": 63,
          "time": 13.755813953488357,
          "velocity": 0.2440944881889764,
          "duration": 0.046511627906973274
        },
        {
          "name": "D#1",
          "midi": 27,
          "time": 13.7674418604651,
          "velocity": 0.7401574803149606,
          "duration": 1.2441860465115688
        },
        {
          "name": "A#2",
          "midi": 46,
          "time": 13.790697674418587,
          "velocity": 0.4330708661417323,
          "duration": 0.26744186046510876
        },
        {
          "name": "G3",
          "midi": 55,
          "time": 13.790697674418587,
          "velocity": 0.5196850393700787,
          "duration": 0.32558139534882535
        },
        {
          "name": "D5",
          "midi": 74,
          "time": 13.80232558139533,
          "velocity": 0.1732283464566929,
          "duration": 0.06976744186046346
        },
        {
          "name": "A#4",
          "midi": 70,
          "time": 13.86046511627905,
          "velocity": 0.14173228346456693,
          "duration": 0.04651162790697505
        },
        {
          "name": "G5",
          "midi": 79,
          "time": 13.872093023255793,
          "velocity": 0.07086614173228346,
          "duration": 0.058139534883720145
        },
        {
          "name": "A#4",
          "midi": 70,
          "time": 14.011627906976722,
          "velocity": 0.2047244094488189,
          "duration": 0.034883720930229956
        },
        {
          "name": "F4",
          "midi": 65,
          "time": 14.023255813953465,
          "velocity": 0.5590551181102362,
          "duration": 0.05813953488371659
        },
        {
          "name": "D#5",
          "midi": 75,
          "time": 14.023255813953465,
          "velocity": 0.11023622047244094,
          "duration": 0.034883720930229956
        },
        {
          "name": "G5",
          "midi": 79,
          "time": 14.034883720930209,
          "velocity": 0.15748031496062992,
          "duration": 0.046511627906973274
        },
        {
          "name": "E4",
          "midi": 64,
          "time": 14.081395348837182,
          "velocity": 0.5511811023622047,
          "duration": 0.023255813953486637
        },
        {
          "name": "G#4",
          "midi": 68,
          "time": 14.081395348837182,
          "velocity": 0.5669291338582677,
          "duration": 0.11627906976743496
        },
        {
          "name": "C7",
          "midi": 96,
          "time": 14.081395348837182,
          "velocity": 0.2677165354330709,
          "duration": 0.2093023255813833
        },
        {
          "name": "C#7",
          "midi": 97,
          "time": 14.081395348837182,
          "velocity": 0.1732283464566929,
          "duration": 0.09302325581394832
        },
        {
          "name": "A#2",
          "midi": 46,
          "time": 14.093023255813925,
          "velocity": 0.4330708661417323,
          "duration": 0.09302325581394832
        },
        {
          "name": "E7",
          "midi": 100,
          "time": 14.093023255813925,
          "velocity": 0.07874015748031496,
          "duration": 0.046511627906973274
        },
        {
          "name": "F7",
          "midi": 101,
          "time": 14.093023255813925,
          "velocity": 0.10236220472440945,
          "duration": 0.034883720930229956
        },
        {
          "name": "A#3",
          "midi": 58,
          "time": 14.104651162790669,
          "velocity": 0.5196850393700787,
          "duration": 0.011627906976743319
        },
        {
          "name": "D#5",
          "midi": 75,
          "time": 14.104651162790669,
          "velocity": 0.15748031496062992,
          "duration": 0.09302325581394832
        },
        {
          "name": "G5",
          "midi": 79,
          "time": 14.104651162790669,
          "velocity": 0.14173228346456693,
          "duration": 0.06976744186046169
        },
        {
          "name": "F5",
          "midi": 77,
          "time": 14.127906976744155,
          "velocity": 0.11023622047244094,
          "duration": 0.04651162790697505
        },
        {
          "name": "G3",
          "midi": 55,
          "time": 14.151162790697642,
          "velocity": 0.47244094488188976,
          "duration": 0.09302325581394832
        },
        {
          "name": "A#5",
          "midi": 82,
          "time": 14.151162790697642,
          "velocity": 0.1889763779527559,
          "duration": 0.04651162790697505
        },
        {
          "name": "B4",
          "midi": 71,
          "time": 14.17441860465113,
          "velocity": 0.3700787401574803,
          "duration": 0.023255813953486637
        },
        {
          "name": "E7",
          "midi": 100,
          "time": 14.17441860465113,
          "velocity": 0.09448818897637795,
          "duration": 0.034883720930229956
        },
        {
          "name": "A#3",
          "midi": 58,
          "time": 14.197674418604617,
          "velocity": 0.4251968503937008,
          "duration": 0.046511627906973274
        },
        {
          "name": "A4",
          "midi": 69,
          "time": 14.197674418604617,
          "velocity": 0.5118110236220472,
          "duration": 0.011627906976743319
        },
        {
          "name": "D#6",
          "midi": 87,
          "time": 14.197674418604617,
          "velocity": 0.14173228346456693,
          "duration": 0.31395348837208026
        },
        {
          "name": "G#6",
          "midi": 92,
          "time": 14.197674418604617,
          "velocity": 0.08661417322834646,
          "duration": 0.046511627906973274
        },
        {
          "name": "D7",
          "midi": 98,
          "time": 14.197674418604617,
          "velocity": 0.15748031496062992,
          "duration": 0.081395348837205
        },
        {
          "name": "A#4",
          "midi": 70,
          "time": 14.20930232558136,
          "velocity": 0.5669291338582677,
          "duration": 0.11627906976743496
        },
        {
          "name": "F5",
          "midi": 77,
          "time": 14.20930232558136,
          "velocity": 0.25196850393700787,
          "duration": 0.1511627906976667
        },
        {
          "name": "F7",
          "midi": 101,
          "time": 14.20930232558136,
          "velocity": 0.15748031496062992,
          "duration": 0.046511627906973274
        },
        {
          "name": "A#2",
          "midi": 46,
          "time": 14.220930232558104,
          "velocity": 0.4094488188976378,
          "duration": 0.09302325581394832
        },
        {
          "name": "A#6",
          "midi": 94,
          "time": 14.220930232558104,
          "velocity": 0.13385826771653545,
          "duration": 0.081395348837205
        },
        {
          "name": "E7",
          "midi": 100,
          "time": 14.220930232558104,
          "velocity": 0.1968503937007874,
          "duration": 0.081395348837205
        },
        {
          "name": "G#4",
          "midi": 68,
          "time": 14.232558139534847,
          "velocity": 0.31496062992125984,
          "duration": 0.05813953488371837
        },
        {
          "name": "G3",
          "midi": 55,
          "time": 14.279069767441822,
          "velocity": 0.4094488188976378,
          "duration": 0.20930232558138862
        },
        {
          "name": "G#6",
          "midi": 92,
          "time": 14.290697674418565,
          "velocity": 0.07874015748031496,
          "duration": 0.046511627906973274
        },
        {
          "name": "B4",
          "midi": 71,
          "time": 14.313953488372052,
          "velocity": 0.3700787401574803,
          "duration": 0.11627906976744029
        },
        {
          "name": "A#2",
          "midi": 46,
          "time": 14.325581395348795,
          "velocity": 0.4094488188976378,
          "duration": 0.11627906976744029
        },
        {
          "name": "G#4",
          "midi": 68,
          "time": 14.325581395348795,
          "velocity": 0.3858267716535433,
          "duration": 0.30232558139533516
        },
        {
          "name": "F5",
          "midi": 77,
          "time": 14.383720930232515,
          "velocity": 0.14173228346456693,
          "duration": 0.04651162790697683
        },
        {
          "name": "D6",
          "midi": 86,
          "time": 14.406976744186004,
          "velocity": 0.07874015748031496,
          "duration": 0.05813953488371837
        },
        {
          "name": "A#2",
          "midi": 46,
          "time": 14.453488372092979,
          "velocity": 0.3700787401574803,
          "duration": 0.05813953488371837
        },
        {
          "name": "F5",
          "midi": 77,
          "time": 14.48837209302321,
          "velocity": 0.2992125984251969,
          "duration": 0.046511627906973274
        },
        {
          "name": "A#5",
          "midi": 82,
          "time": 14.499999999999954,
          "velocity": 0.2204724409448819,
          "duration": 0.05813953488371659
        },
        {
          "name": "D6",
          "midi": 86,
          "time": 14.499999999999954,
          "velocity": 0.11811023622047244,
          "duration": 0.034883720930229956
        },
        {
          "name": "D#6",
          "midi": 87,
          "time": 14.52325581395344,
          "velocity": 0.2677165354330709,
          "duration": 0.5116279069767149
        },
        {
          "name": "B3",
          "midi": 59,
          "time": 14.534883720930184,
          "velocity": 0.4409448818897638,
          "duration": 0.034883720930229956
        },
        {
          "name": "B4",
          "midi": 71,
          "time": 14.534883720930184,
          "velocity": 0.4881889763779528,
          "duration": 0.09302325581394655
        },
        {
          "name": "F#5",
          "midi": 78,
          "time": 14.534883720930184,
          "velocity": 0.3464566929133858,
          "duration": 0.10465116279068987
        },
        {
          "name": "A2",
          "midi": 45,
          "time": 14.546511627906927,
          "velocity": 0.36220472440944884,
          "duration": 0.023255813953486637
        },
        {
          "name": "G3",
          "midi": 55,
          "time": 14.546511627906927,
          "velocity": 0.3543307086614173,
          "duration": 0.023255813953486637
        },
        {
          "name": "A#3",
          "midi": 58,
          "time": 14.569767441860414,
          "velocity": 0.4094488188976378,
          "duration": 0.05813953488371659
        },
        {
          "name": "F7",
          "midi": 101,
          "time": 14.569767441860414,
          "velocity": 0.28346456692913385,
          "duration": 0.25581395348835656
        },
        {
          "name": "A#2",
          "midi": 46,
          "time": 14.581395348837157,
          "velocity": 0.3464566929133858,
          "duration": 0.05813953488371659
        },
        {
          "name": "G3",
          "midi": 55,
          "time": 14.581395348837157,
          "velocity": 0.3464566929133858,
          "duration": 0.034883720930229956
        },
        {
          "name": "C#5",
          "midi": 73,
          "time": 14.581395348837157,
          "velocity": 0.13385826771653545,
          "duration": 0.046511627906973274
        },
        {
          "name": "E4",
          "midi": 64,
          "time": 14.5930232558139,
          "velocity": 0.2677165354330709,
          "duration": 0.05813953488371659
        },
        {
          "name": "A6",
          "midi": 93,
          "time": 14.5930232558139,
          "velocity": 0.3779527559055118,
          "duration": 0.034883720930229956
        },
        {
          "name": "A#6",
          "midi": 94,
          "time": 14.5930232558139,
          "velocity": 0.2992125984251969,
          "duration": 0.06976744186045991
        },
        {
          "name": "B6",
          "midi": 95,
          "time": 14.5930232558139,
          "velocity": 0.2992125984251969,
          "duration": 0.034883720930229956
        },
        {
          "name": "C7",
          "midi": 96,
          "time": 14.5930232558139,
          "velocity": 0.28346456692913385,
          "duration": 0.2906976744185883
        },
        {
          "name": "D7",
          "midi": 98,
          "time": 14.5930232558139,
          "velocity": 0.33858267716535434,
          "duration": 0.05813953488371659
        },
        {
          "name": "D#7",
          "midi": 99,
          "time": 14.5930232558139,
          "velocity": 0.33070866141732286,
          "duration": 0.1279069767441765
        },
        {
          "name": "C#7",
          "midi": 97,
          "time": 14.604651162790644,
          "velocity": 0.28346456692913385,
          "duration": 0.06976744186045991
        },
        {
          "name": "E7",
          "midi": 100,
          "time": 14.604651162790644,
          "velocity": 0.25196850393700787,
          "duration": 0.06976744186045991
        },
        {
          "name": "A#4",
          "midi": 70,
          "time": 14.616279069767387,
          "velocity": 0.4566929133858268,
          "duration": 0.023255813953486637
        },
        {
          "name": "F6",
          "midi": 89,
          "time": 14.616279069767387,
          "velocity": 0.3543307086614173,
          "duration": 0.2906976744185883
        },
        {
          "name": "F#7",
          "midi": 102,
          "time": 14.616279069767387,
          "velocity": 0.10236220472440945,
          "duration": 0.034883720930229956
        },
        {
          "name": "F5",
          "midi": 77,
          "time": 14.62790697674413,
          "velocity": 0.5118110236220472,
          "duration": 0.8372093023255456
        },
        {
          "name": "G#6",
          "midi": 92,
          "time": 14.62790697674413,
          "velocity": 0.33858267716535434,
          "duration": 0.023255813953486637
        },
        {
          "name": "B4",
          "midi": 71,
          "time": 14.639534883720874,
          "velocity": 0.3779527559055118,
          "duration": 0.023255813953486637
        },
        {
          "name": "G6",
          "midi": 91,
          "time": 14.639534883720874,
          "velocity": 0.2677165354330709,
          "duration": 0.023255813953486637
        },
        {
          "name": "A#2",
          "midi": 46,
          "time": 14.651162790697617,
          "velocity": 0.31496062992125984,
          "duration": 0.023255813953486637
        },
        {
          "name": "G#4",
          "midi": 68,
          "time": 14.651162790697617,
          "velocity": 0.4094488188976378,
          "duration": 0.11627906976743496
        },
        {
          "name": "G5",
          "midi": 79,
          "time": 14.66279069767436,
          "velocity": 0.09448818897637795,
          "duration": 0.034883720930229956
        },
        {
          "name": "G#6",
          "midi": 92,
          "time": 14.66279069767436,
          "velocity": 0.3779527559055118,
          "duration": 0.18604651162789665
        },
        {
          "name": "D6",
          "midi": 86,
          "time": 14.674418604651104,
          "velocity": 0.13385826771653545,
          "duration": 0.16279069767441
        },
        {
          "name": "D#3",
          "midi": 51,
          "time": 14.686046511627847,
          "velocity": 0.3464566929133858,
          "duration": 0.3372093023255651
        },
        {
          "name": "A#4",
          "midi": 70,
          "time": 14.686046511627847,
          "velocity": 0.2992125984251969,
          "duration": 0.023255813953486637
        },
        {
          "name": "C#5",
          "midi": 73,
          "time": 14.686046511627847,
          "velocity": 0.2440944881889764,
          "duration": 0.034883720930229956
        },
        {
          "name": "A#6",
          "midi": 94,
          "time": 14.686046511627847,
          "velocity": 0.1968503937007874,
          "duration": 0.046511627906973274
        },
        {
          "name": "D7",
          "midi": 98,
          "time": 14.686046511627847,
          "velocity": 0.14173228346456693,
          "duration": 0.09302325581394832
        },
        {
          "name": "A#4",
          "midi": 70,
          "time": 14.720930232558077,
          "velocity": 0.4251968503937008,
          "duration": 0.11627906976743674
        },
        {
          "name": "E7",
          "midi": 100,
          "time": 14.720930232558077,
          "velocity": 0.29133858267716534,
          "duration": 0.05813953488371837
        },
        {
          "name": "D#7",
          "midi": 99,
          "time": 14.779069767441795,
          "velocity": 0.2755905511811024,
          "duration": 0.04651162790697505
        },
        {
          "name": "A#3",
          "midi": 58,
          "time": 14.790697674418539,
          "velocity": 0.2204724409448819,
          "duration": 0.04651162790697505
        },
        {
          "name": "G#4",
          "midi": 68,
          "time": 14.802325581395282,
          "velocity": 0.3228346456692913,
          "duration": 0.03488372093023173
        },
        {
          "name": "C#5",
          "midi": 73,
          "time": 14.82558139534877,
          "velocity": 0.11811023622047244,
          "duration": 0.04651162790697505
        },
        {
          "name": "A4",
          "midi": 69,
          "time": 14.837209302325514,
          "velocity": 0.4015748031496063,
          "duration": 0.03488372093023173
        },
        {
          "name": "A#5",
          "midi": 82,
          "time": 14.837209302325514,
          "velocity": 0.11811023622047244,
          "duration": 0.04651162790697505
        },
        {
          "name": "A#3",
          "midi": 58,
          "time": 14.848837209302257,
          "velocity": 0.44881889763779526,
          "duration": 0.04651162790697505
        },
        {
          "name": "G#4",
          "midi": 68,
          "time": 14.848837209302257,
          "velocity": 0.3228346456692913,
          "duration": 0.05813953488371837
        },
        {
          "name": "D6",
          "midi": 86,
          "time": 14.883720930232489,
          "velocity": 0.08661417322834646,
          "duration": 0.034883720930229956
        },
        {
          "name": "B3",
          "midi": 59,
          "time": 14.895348837209232,
          "velocity": 0.4330708661417323,
          "duration": 0.023255813953486637
        },
        {
          "name": "G5",
          "midi": 79,
          "time": 14.895348837209232,
          "velocity": 0.13385826771653545,
          "duration": 0.11627906976743674
        },
        {
          "name": "A#3",
          "midi": 58,
          "time": 14.918604651162719,
          "velocity": 0.29133858267716534,
          "duration": 0.10465116279069342
        },
        {
          "name": "D#5",
          "midi": 75,
          "time": 14.918604651162719,
          "velocity": 0.15748031496062992,
          "duration": 0.034883720930229956
        },
        {
          "name": "C7",
          "midi": 96,
          "time": 14.918604651162719,
          "velocity": 0.33070866141732286,
          "duration": 0.20930232558138506
        },
        {
          "name": "G#6",
          "midi": 92,
          "time": 14.930232558139462,
          "velocity": 0.2283464566929134,
          "duration": 0.023255813953486637
        },
        {
          "name": "F4",
          "midi": 65,
          "time": 14.941860465116205,
          "velocity": 0.2677165354330709,
          "duration": 0.06976744186046346
        },
        {
          "name": "G#4",
          "midi": 68,
          "time": 14.941860465116205,
          "velocity": 0.29133858267716534,
          "duration": 0.06976744186046346
        },
        {
          "name": "D7",
          "midi": 98,
          "time": 14.941860465116205,
          "velocity": 0.2283464566929134,
          "duration": 0.023255813953486637
        },
        {
          "name": "F7",
          "midi": 101,
          "time": 14.941860465116205,
          "velocity": 0.2677165354330709,
          "duration": 0.5465116279069573
        },
        {
          "name": "G7",
          "midi": 103,
          "time": 14.941860465116205,
          "velocity": 0.1889763779527559,
          "duration": 0.04651162790697505
        },
        {
          "name": "A6",
          "midi": 93,
          "time": 14.953488372092949,
          "velocity": 0.3858267716535433,
          "duration": 0.4767441860464974
        },
        {
          "name": "C6",
          "midi": 84,
          "time": 14.965116279069692,
          "velocity": 0.1968503937007874,
          "duration": 0.5116279069767273
        },
        {
          "name": "C#1",
          "midi": 25,
          "time": 15.011627906976669,
          "velocity": 0.5118110236220472,
          "duration": 0.011627906976743319
        },
        {
          "name": "G7",
          "midi": 103,
          "time": 15.011627906976669,
          "velocity": 0.12598425196850394,
          "duration": 0.034883720930229956
        },
        {
          "name": "B0",
          "midi": 23,
          "time": 15.023255813953412,
          "velocity": 0.5826771653543307,
          "duration": 0.011627906976743319
        },
        {
          "name": "D#4",
          "midi": 63,
          "time": 15.023255813953412,
          "velocity": 0.33858267716535434,
          "duration": 0.23255813953487703
        },
        {
          "name": "C#1",
          "midi": 25,
          "time": 15.034883720930155,
          "velocity": 0.6692913385826772,
          "duration": 0.011627906976743319
        },
        {
          "name": "A2",
          "midi": 45,
          "time": 15.034883720930155,
          "velocity": 0.47244094488188976,
          "duration": 0.023255813953486637
        },
        {
          "name": "C#5",
          "midi": 73,
          "time": 15.034883720930155,
          "velocity": 0.1889763779527559,
          "duration": 0.43023255813952055
        },
        {
          "name": "D7",
          "midi": 98,
          "time": 15.034883720930155,
          "velocity": 0.07086614173228346,
          "duration": 0.046511627906973274
        },
        {
          "name": "D1",
          "midi": 26,
          "time": 15.046511627906899,
          "velocity": 0.7007874015748031,
          "duration": 0.011627906976743319
        },
        {
          "name": "B0",
          "midi": 23,
          "time": 15.058139534883642,
          "velocity": 0.7244094488188977,
          "duration": 0.24418604651162212
        },
        {
          "name": "D#3",
          "midi": 51,
          "time": 15.058139534883642,
          "velocity": 0.48031496062992124,
          "duration": 0.05813953488371837
        },
        {
          "name": "F#4",
          "midi": 66,
          "time": 15.058139534883642,
          "velocity": 0.2125984251968504,
          "duration": 0.04651162790697505
        },
        {
          "name": "G6",
          "midi": 91,
          "time": 15.069767441860385,
          "velocity": 0.07874015748031496,
          "duration": 0.03488372093023173
        },
        {
          "name": "D#3",
          "midi": 51,
          "time": 15.127906976744104,
          "velocity": 0.5275590551181102,
          "duration": 0.12790697674418539
        },
        {
          "name": "F#2",
          "midi": 42,
          "time": 15.197674418604569,
          "velocity": 0.4566929133858268,
          "duration": 0.023255813953488413
        },
        {
          "name": "F#4",
          "midi": 66,
          "time": 15.255813953488289,
          "velocity": 0.2047244094488189,
          "duration": 0.04651162790697505
        },
        {
          "name": "D#3",
          "midi": 51,
          "time": 15.267441860465032,
          "velocity": 0.5511811023622047,
          "duration": 0.15116279069767025
        },
        {
          "name": "A#0",
          "midi": 22,
          "time": 15.302325581395264,
          "velocity": 0.7165354330708661,
          "duration": 0.011627906976743319
        },
        {
          "name": "B0",
          "midi": 23,
          "time": 15.313953488372007,
          "velocity": 0.7244094488188977,
          "duration": 1.1162790697674083
        },
        {
          "name": "F#2",
          "midi": 42,
          "time": 15.32558139534875,
          "velocity": 0.4645669291338583,
          "duration": 0.023255813953488413
        },
        {
          "name": "G7",
          "midi": 103,
          "time": 15.34883720930224,
          "velocity": 0.10236220472440945,
          "duration": 0.08139534883720678
        },
        {
          "name": "F#2",
          "midi": 42,
          "time": 15.360465116278982,
          "velocity": 0.48031496062992124,
          "duration": 0.023255813953488413
        },
        {
          "name": "F#4",
          "midi": 66,
          "time": 15.383720930232471,
          "velocity": 0.2047244094488189,
          "duration": 0.10465116279069164
        },
        {
          "name": "D#3",
          "midi": 51,
          "time": 15.430232558139446,
          "velocity": 0.5039370078740157,
          "duration": 0.05813953488371659
        },
        {
          "name": "F#2",
          "midi": 42,
          "time": 15.44186046511619,
          "velocity": 0.44881889763779526,
          "duration": 0.023255813953486637
        },
        {
          "name": "G#5",
          "midi": 80,
          "time": 15.44186046511619,
          "velocity": 0.28346456692913385,
          "duration": 0.046511627906973274
        },
        {
          "name": "E6",
          "midi": 88,
          "time": 15.44186046511619,
          "velocity": 0.14173228346456693,
          "duration": 0.08139534883720323
        },
        {
          "name": "F#6",
          "midi": 90,
          "time": 15.44186046511619,
          "velocity": 0.2677165354330709,
          "duration": 0.06976744186045991
        },
        {
          "name": "D6",
          "midi": 86,
          "time": 15.453488372092933,
          "velocity": 0.09448818897637795,
          "duration": 0.034883720930229956
        },
        {
          "name": "E5",
          "midi": 76,
          "time": 15.465116279069676,
          "velocity": 0.36220472440944884,
          "duration": 0.05813953488371659
        },
        {
          "name": "F5",
          "midi": 77,
          "time": 15.47674418604642,
          "velocity": 0.28346456692913385,
          "duration": 0.05813953488371659
        },
        {
          "name": "G5",
          "midi": 79,
          "time": 15.47674418604642,
          "velocity": 0.28346456692913385,
          "duration": 0.046511627906973274
        },
        {
          "name": "F#2",
          "midi": 42,
          "time": 15.488372093023163,
          "velocity": 0.4566929133858268,
          "duration": 0.023255813953486637
        },
        {
          "name": "D#3",
          "midi": 51,
          "time": 15.499999999999906,
          "velocity": 0.4881889763779528,
          "duration": 0.023255813953486637
        },
        {
          "name": "C#5",
          "midi": 73,
          "time": 15.499999999999906,
          "velocity": 0.4409448818897638,
          "duration": 0.06976744186045991
        },
        {
          "name": "F4",
          "midi": 65,
          "time": 15.51162790697665,
          "velocity": 0.28346456692913385,
          "duration": 0.023255813953486637
        },
        {
          "name": "C6",
          "midi": 84,
          "time": 15.51162790697665,
          "velocity": 0.14960629921259844,
          "duration": 0.11627906976743319
        },
        {
          "name": "F6",
          "midi": 89,
          "time": 15.51162790697665,
          "velocity": 0.33070866141732286,
          "duration": 0.1860465116278931
        },
        {
          "name": "F#2",
          "midi": 42,
          "time": 15.523255813953392,
          "velocity": 0.4566929133858268,
          "duration": 0.034883720930229956
        },
        {
          "name": "D#7",
          "midi": 99,
          "time": 15.523255813953392,
          "velocity": 0.2047244094488189,
          "duration": 0.05813953488371659
        },
        {
          "name": "D#3",
          "midi": 51,
          "time": 15.534883720930136,
          "velocity": 0.48031496062992124,
          "duration": 0.046511627906973274
        },
        {
          "name": "G#5",
          "midi": 80,
          "time": 15.534883720930136,
          "velocity": 0.1889763779527559,
          "duration": 0.046511627906973274
        },
        {
          "name": "F5",
          "midi": 77,
          "time": 15.54651162790688,
          "velocity": 0.1889763779527559,
          "duration": 0.09302325581394655
        },
        {
          "name": "E6",
          "midi": 88,
          "time": 15.558139534883622,
          "velocity": 0.10236220472440945,
          "duration": 0.034883720930229956
        },
        {
          "name": "B4",
          "midi": 71,
          "time": 15.569767441860366,
          "velocity": 0.4881889763779528,
          "duration": 0.046511627906973274
        },
        {
          "name": "B3",
          "midi": 59,
          "time": 15.581395348837109,
          "velocity": 0.4251968503937008,
          "duration": 0.15116279069766314
        },
        {
          "name": "C#5",
          "midi": 73,
          "time": 15.581395348837109,
          "velocity": 0.2047244094488189,
          "duration": 0.3139534883720714
        },
        {
          "name": "D#3",
          "midi": 51,
          "time": 15.593023255813852,
          "velocity": 0.4645669291338583,
          "duration": 0.023255813953486637
        },
        {
          "name": "F#5",
          "midi": 78,
          "time": 15.593023255813852,
          "velocity": 0.16535433070866143,
          "duration": 0.09302325581394655
        },
        {
          "name": "A#5",
          "midi": 82,
          "time": 15.593023255813852,
          "velocity": 0.1732283464566929,
          "duration": 0.05813953488371659
        },
        {
          "name": "F#2",
          "midi": 42,
          "time": 15.604651162790596,
          "velocity": 0.44881889763779526,
          "duration": 0.023255813953486637
        },
        {
          "name": "F#4",
          "midi": 66,
          "time": 15.604651162790596,
          "velocity": 0.28346456692913385,
          "duration": 0.034883720930229956
        },
        {
          "name": "D#7",
          "midi": 99,
          "time": 15.604651162790596,
          "velocity": 0.2992125984251969,
          "duration": 0.13953488372091982
        },
        {
          "name": "D3",
          "midi": 50,
          "time": 15.616279069767339,
          "velocity": 0.4409448818897638,
          "duration": 0.023255813953486637
        },
        {
          "name": "A6",
          "midi": 93,
          "time": 15.616279069767339,
          "velocity": 0.2992125984251969,
          "duration": 0.09302325581394655
        },
        {
          "name": "A#4",
          "midi": 70,
          "time": 15.639534883720826,
          "velocity": 0.41732283464566927,
          "duration": 0.23255813953486815
        },
        {
          "name": "C6",
          "midi": 84,
          "time": 15.662790697674312,
          "velocity": 0.13385826771653545,
          "duration": 0.1976744186046382
        },
        {
          "name": "E6",
          "midi": 88,
          "time": 15.662790697674312,
          "velocity": 0.12598425196850394,
          "duration": 0.046511627906973274
        },
        {
          "name": "B6",
          "midi": 95,
          "time": 15.662790697674312,
          "velocity": 0.2755905511811024,
          "duration": 0.06976744186045991
        },
        {
          "name": "D7",
          "midi": 98,
          "time": 15.662790697674312,
          "velocity": 0.2992125984251969,
          "duration": 0.05813953488371659
        },
        {
          "name": "F#6",
          "midi": 90,
          "time": 15.674418604651056,
          "velocity": 0.25196850393700787,
          "duration": 0.046511627906973274
        },
        {
          "name": "A#6",
          "midi": 94,
          "time": 15.674418604651056,
          "velocity": 0.31496062992125984,
          "duration": 0.05813953488371659
        },
        {
          "name": "C7",
          "midi": 96,
          "time": 15.674418604651056,
          "velocity": 0.2677165354330709,
          "duration": 0.05813953488371659
        },
        {
          "name": "C#7",
          "midi": 97,
          "time": 15.674418604651056,
          "velocity": 0.33070866141732286,
          "duration": 0.06976744186045991
        },
        {
          "name": "E7",
          "midi": 100,
          "time": 15.674418604651056,
          "velocity": 0.23622047244094488,
          "duration": 0.06976744186045991
        },
        {
          "name": "G7",
          "midi": 103,
          "time": 15.674418604651056,
          "velocity": 0.18110236220472442,
          "duration": 0.06976744186045991
        },
        {
          "name": "F5",
          "midi": 77,
          "time": 15.686046511627799,
          "velocity": 0.2440944881889764,
          "duration": 0.1976744186046382
        },
        {
          "name": "G2",
          "midi": 43,
          "time": 15.697674418604542,
          "velocity": 0.41732283464566927,
          "duration": 0.023255813953486637
        },
        {
          "name": "A5",
          "midi": 81,
          "time": 15.697674418604542,
          "velocity": 0.07086614173228346,
          "duration": 0.034883720930229956
        },
        {
          "name": "G#6",
          "midi": 92,
          "time": 15.709302325581286,
          "velocity": 0.2125984251968504,
          "duration": 0.034883720930229956
        },
        {
          "name": "F#2",
          "midi": 42,
          "time": 15.720930232558029,
          "velocity": 0.41732283464566927,
          "duration": 0.034883720930229956
        },
        {
          "name": "D#4",
          "midi": 63,
          "time": 15.720930232558029,
          "velocity": 0.2755905511811024,
          "duration": 0.023255813953486637
        },
        {
          "name": "F4",
          "midi": 65,
          "time": 15.744186046511516,
          "velocity": 0.31496062992125984,
          "duration": 0.023255813953486637
        },
        {
          "name": "D#4",
          "midi": 63,
          "time": 15.755813953488259,
          "velocity": 0.30708661417322836,
          "duration": 0.034883720930229956
        },
        {
          "name": "F4",
          "midi": 65,
          "time": 15.779069767441745,
          "velocity": 0.3228346456692913,
          "duration": 0.03488372093023173
        },
        {
          "name": "D#5",
          "midi": 75,
          "time": 15.790697674418489,
          "velocity": 0.12598425196850394,
          "duration": 0.09302325581394832
        },
        {
          "name": "A6",
          "midi": 93,
          "time": 15.790697674418489,
          "velocity": 0.10236220472440945,
          "duration": 0.04651162790697505
        },
        {
          "name": "F#2",
          "midi": 42,
          "time": 15.813953488371977,
          "velocity": 0.41732283464566927,
          "duration": 0.046511627906973274
        },
        {
          "name": "D#7",
          "midi": 99,
          "time": 15.82558139534872,
          "velocity": 0.4015748031496063,
          "duration": 0.15116279069766314
        },
        {
          "name": "B3",
          "midi": 59,
          "time": 15.837209302325464,
          "velocity": 0.4645669291338583,
          "duration": 0.09302325581394655
        },
        {
          "name": "F4",
          "midi": 65,
          "time": 15.837209302325464,
          "velocity": 0.2992125984251969,
          "duration": 0.023255813953486637
        },
        {
          "name": "B5",
          "midi": 83,
          "time": 15.848837209302207,
          "velocity": 0.1732283464566929,
          "duration": 0.06976744186045991
        },
        {
          "name": "D7",
          "midi": 98,
          "time": 15.848837209302207,
          "velocity": 0.2440944881889764,
          "duration": 0.034883720930229956
        },
        {
          "name": "G2",
          "midi": 43,
          "time": 15.86046511627895,
          "velocity": 0.4094488188976378,
          "duration": 0.023255813953486637
        },
        {
          "name": "D#4",
          "midi": 63,
          "time": 15.86046511627895,
          "velocity": 0.3700787401574803,
          "duration": 0.40697674418603746
        },
        {
          "name": "A6",
          "midi": 93,
          "time": 15.86046511627895,
          "velocity": 0.15748031496062992,
          "duration": 0.046511627906973274
        },
        {
          "name": "B6",
          "midi": 95,
          "time": 15.86046511627895,
          "velocity": 0.3779527559055118,
          "duration": 0.06976744186045991
        },
        {
          "name": "C#7",
          "midi": 97,
          "time": 15.86046511627895,
          "velocity": 0.2440944881889764,
          "duration": 0.08139534883720323
        },
        {
          "name": "F#5",
          "midi": 78,
          "time": 15.872093023255694,
          "velocity": 0.15748031496062992,
          "duration": 0.06976744186045991
        },
        {
          "name": "E7",
          "midi": 100,
          "time": 15.883720930232437,
          "velocity": 0.13385826771653545,
          "duration": 0.05813953488371659
        },
        {
          "name": "F#4",
          "midi": 66,
          "time": 15.89534883720918,
          "velocity": 0.2283464566929134,
          "duration": 0.023255813953486637
        },
        {
          "name": "E3",
          "midi": 52,
          "time": 15.918604651162667,
          "velocity": 0.3858267716535433,
          "duration": 0.023255813953486637
        },
        {
          "name": "C#5",
          "midi": 73,
          "time": 15.918604651162667,
          "velocity": 0.1968503937007874,
          "duration": 0.6162790697674474
        },
        {
          "name": "C7",
          "midi": 96,
          "time": 15.918604651162667,
          "velocity": 0.14960629921259844,
          "duration": 0.046511627906973274
        },
        {
          "name": "D7",
          "midi": 98,
          "time": 15.918604651162667,
          "velocity": 0.1889763779527559,
          "duration": 0.034883720930229956
        },
        {
          "name": "A#3",
          "midi": 58,
          "time": 15.93023255813941,
          "velocity": 0.4015748031496063,
          "duration": 0.034883720930229956
        },
        {
          "name": "A#5",
          "midi": 82,
          "time": 15.93023255813941,
          "velocity": 0.14173228346456693,
          "duration": 0.06976744186045991
        },
        {
          "name": "F#4",
          "midi": 66,
          "time": 15.953488372092897,
          "velocity": 0.33070866141732286,
          "duration": 0.27906976744185563
        },
        {
          "name": "A3",
          "midi": 57,
          "time": 15.96511627906964,
          "velocity": 0.3779527559055118,
          "duration": 0.023255813953486637
        },
        {
          "name": "D7",
          "midi": 98,
          "time": 15.988372093023127,
          "velocity": 0.3700787401574803,
          "duration": 0.15116279069767558
        },
        {
          "name": "G3",
          "midi": 55,
          "time": 15.99999999999987,
          "velocity": 0.41732283464566927,
          "duration": 0.023255813953488413
        },
        {
          "name": "D#7",
          "midi": 99,
          "time": 15.99999999999987,
          "velocity": 0.29133858267716534,
          "duration": 0.058139534883720145
        },
        {
          "name": "F#2",
          "midi": 42,
          "time": 16.011627906976614,
          "velocity": 0.3464566929133858,
          "duration": 0.02325581395349019
        },
        {
          "name": "A#3",
          "midi": 58,
          "time": 16.02325581395336,
          "velocity": 0.4015748031496063,
          "duration": 0.10465116279069875
        },
        {
          "name": "A#6",
          "midi": 94,
          "time": 16.02325581395336,
          "velocity": 0.11023622047244094,
          "duration": 0.03488372093023173
        },
        {
          "name": "C7",
          "midi": 96,
          "time": 16.034883720930104,
          "velocity": 0.2992125984251969,
          "duration": 0.09302325581395365
        },
        {
          "name": "F#7",
          "midi": 102,
          "time": 16.05813953488359,
          "velocity": 0.10236220472440945,
          "duration": 0.05813953488372192
        },
        {
          "name": "E7",
          "midi": 100,
          "time": 16.069767441860336,
          "velocity": 0.1889763779527559,
          "duration": 0.06976744186046702
        },
        {
          "name": "G6",
          "midi": 91,
          "time": 16.104651162790567,
          "velocity": 0.10236220472440945,
          "duration": 0.06976744186046702
        },
        {
          "name": "F#2",
          "midi": 42,
          "time": 16.127906976744057,
          "velocity": 0.3543307086614173,
          "duration": 0.02325581395349019
        },
        {
          "name": "F#2",
          "midi": 42,
          "time": 16.174418604651034,
          "velocity": 0.30708661417322836,
          "duration": 0.023255813953486637
        },
        {
          "name": "F3",
          "midi": 53,
          "time": 16.244186046511498,
          "velocity": 0.47244094488188976,
          "duration": 0.02325581395349019
        },
        {
          "name": "F#4",
          "midi": 66,
          "time": 16.244186046511498,
          "velocity": 0.5118110236220472,
          "duration": 0.1162790697674474
        },
        {
          "name": "A#6",
          "midi": 94,
          "time": 16.244186046511498,
          "velocity": 0.28346456692913385,
          "duration": 0.15116279069768268
        },
        {
          "name": "F5",
          "midi": 77,
          "time": 16.255813953488243,
          "velocity": 0.15748031496062992,
          "duration": 0.13953488372093759
        },
        {
          "name": "C7",
          "midi": 96,
          "time": 16.255813953488243,
          "velocity": 0.3779527559055118,
          "duration": 0.13953488372093759
        },
        {
          "name": "D#7",
          "midi": 99,
          "time": 16.255813953488243,
          "velocity": 0.2677165354330709,
          "duration": 0.04651162790697683
        },
        {
          "name": "A#3",
          "midi": 58,
          "time": 16.267441860464988,
          "velocity": 0.48031496062992124,
          "duration": 0.1162790697674474
        },
        {
          "name": "D7",
          "midi": 98,
          "time": 16.267441860464988,
          "velocity": 0.4094488188976378,
          "duration": 0.1162790697674474
        },
        {
          "name": "F7",
          "midi": 101,
          "time": 16.267441860464988,
          "velocity": 0.2440944881889764,
          "duration": 0.13953488372093759
        },
        {
          "name": "G#6",
          "midi": 92,
          "time": 16.290697674418475,
          "velocity": 0.1732283464566929,
          "duration": 0.04651162790698038
        },
        {
          "name": "F#7",
          "midi": 102,
          "time": 16.290697674418475,
          "velocity": 0.25196850393700787,
          "duration": 0.10465116279070585
        },
        {
          "name": "E7",
          "midi": 100,
          "time": 16.30232558139522,
          "velocity": 0.23622047244094488,
          "duration": 0.058139534883725474
        },
        {
          "name": "D6",
          "midi": 86,
          "time": 16.313953488371965,
          "velocity": 0.13385826771653545,
          "duration": 0.058139534883725474
        },
        {
          "name": "E6",
          "midi": 88,
          "time": 16.313953488371965,
          "velocity": 0.13385826771653545,
          "duration": 0.034883720930235285
        },
        {
          "name": "A6",
          "midi": 93,
          "time": 16.313953488371965,
          "velocity": 0.30708661417322836,
          "duration": 0.058139534883725474
        },
        {
          "name": "B6",
          "midi": 95,
          "time": 16.313953488371965,
          "velocity": 0.25196850393700787,
          "duration": 0.058139534883725474
        },
        {
          "name": "D#7",
          "midi": 99,
          "time": 16.313953488371965,
          "velocity": 0.3228346456692913,
          "duration": 0.09302325581396076
        },
        {
          "name": "F#6",
          "midi": 90,
          "time": 16.32558139534871,
          "velocity": 0.16535433070866143,
          "duration": 0.04651162790698038
        },
        {
          "name": "C#7",
          "midi": 97,
          "time": 16.32558139534871,
          "velocity": 0.2992125984251969,
          "duration": 0.06976744186047057
        },
        {
          "name": "G#6",
          "midi": 92,
          "time": 16.3488372093022,
          "velocity": 0.25196850393700787,
          "duration": 0.034883720930235285
        },
        {
          "name": "G#4",
          "midi": 68,
          "time": 16.37209302325569,
          "velocity": 0.28346456692913385,
          "duration": 0.02325581395349019
        },
        {
          "name": "E7",
          "midi": 100,
          "time": 16.37209302325569,
          "velocity": 0.10236220472440945,
          "duration": 0.034883720930235285
        },
        {
          "name": "A3",
          "midi": 57,
          "time": 16.383720930232435,
          "velocity": 0.41732283464566927,
          "duration": 0.034883720930235285
        },
        {
          "name": "D#6",
          "midi": 87,
          "time": 16.383720930232435,
          "velocity": 0.11023622047244094,
          "duration": 0.3604651162790766
        },
        {
          "name": "G#4",
          "midi": 68,
          "time": 16.406976744185926,
          "velocity": 0.41732283464566927,
          "duration": 0.27906976744186807
        },
        {
          "name": "G3",
          "midi": 55,
          "time": 16.41860465116267,
          "velocity": 0.2992125984251969,
          "duration": 0.034883720930235285
        },
        {
          "name": "C1",
          "midi": 24,
          "time": 16.430232558139416,
          "velocity": 0.5669291338582677,
          "duration": 0.011627906976745095
        },
        {
          "name": "B0",
          "midi": 23,
          "time": 16.44186046511616,
          "velocity": 0.5590551181102362,
          "duration": 0.5232558139535044
        },
        {
          "name": "F#3",
          "midi": 54,
          "time": 16.453488372092906,
          "velocity": 0.3543307086614173,
          "duration": 0.06976744186046346
        },
        {
          "name": "F4",
          "midi": 65,
          "time": 16.476744186046393,
          "velocity": 0.11811023622047244,
          "duration": 0.03488372093023173
        },
        {
          "name": "C#4",
          "midi": 61,
          "time": 16.511627906976624,
          "velocity": 0.33070866141732286,
          "duration": 0.05813953488372192
        },
        {
          "name": "F3",
          "midi": 53,
          "time": 16.52325581395337,
          "velocity": 0.3543307086614173,
          "duration": 0.11627906976744384
        },
        {
          "name": "C5",
          "midi": 72,
          "time": 16.534883720930114,
          "velocity": 0.2440944881889764,
          "duration": 0.10465116279069875
        },
        {
          "name": "B3",
          "midi": 59,
          "time": 16.5581395348836,
          "velocity": 0.2283464566929134,
          "duration": 0.02325581395349019
        },
        {
          "name": "A#3",
          "midi": 58,
          "time": 16.604651162790578,
          "velocity": 0.23622047244094488,
          "duration": 0.02325581395349019
        },
        {
          "name": "D4",
          "midi": 62,
          "time": 16.604651162790578,
          "velocity": 0.25984251968503935,
          "duration": 0.02325581395349019
        },
        {
          "name": "C7",
          "midi": 96,
          "time": 16.616279069767323,
          "velocity": 0.2283464566929134,
          "duration": 0.17441860465116932
        },
        {
          "name": "D#4",
          "midi": 63,
          "time": 16.627906976744068,
          "velocity": 0.2440944881889764,
          "duration": 0.02325581395349019
        },
        {
          "name": "F4",
          "midi": 65,
          "time": 16.65116279069756,
          "velocity": 0.4409448818897638,
          "duration": 0.02325581395349019
        },
        {
          "name": "D4",
          "midi": 62,
          "time": 16.662790697674303,
          "velocity": 0.25196850393700787,
          "duration": 0.02325581395349019
        },
        {
          "name": "A#4",
          "midi": 70,
          "time": 16.662790697674303,
          "velocity": 0.5275590551181102,
          "duration": 0.10465116279069875
        },
        {
          "name": "B6",
          "midi": 95,
          "time": 16.662790697674303,
          "velocity": 0.13385826771653545,
          "duration": 0.05813953488372192
        },
        {
          "name": "A3",
          "midi": 57,
          "time": 16.67441860465105,
          "velocity": 0.29133858267716534,
          "duration": 0.04651162790697683
        },
        {
          "name": "F#4",
          "midi": 66,
          "time": 16.67441860465105,
          "velocity": 0.4881889763779528,
          "duration": 0.12790697674418894
        },
        {
          "name": "A#6",
          "midi": 94,
          "time": 16.67441860465105,
          "velocity": 0.2755905511811024,
          "duration": 0.18604651162791086
        },
        {
          "name": "F3",
          "midi": 53,
          "time": 16.686046511627794,
          "velocity": 0.3228346456692913,
          "duration": 0.06976744186046346
        },
        {
          "name": "D7",
          "midi": 98,
          "time": 16.686046511627794,
          "velocity": 0.13385826771653545,
          "duration": 0.05813953488371837
        },
        {
          "name": "F5",
          "midi": 77,
          "time": 16.69767441860454,
          "velocity": 0.11023622047244094,
          "duration": 0.05813953488371837
        },
        {
          "name": "A#3",
          "midi": 58,
          "time": 16.720930232558025,
          "velocity": 0.25984251968503935,
          "duration": 0.023255813953486637
        },
        {
          "name": "F#7",
          "midi": 102,
          "time": 16.720930232558025,
          "velocity": 0.07086614173228346,
          "duration": 0.03488372093023173
        },
        {
          "name": "A3",
          "midi": 57,
          "time": 16.744186046511512,
          "velocity": 0.2755905511811024,
          "duration": 0.034883720930235285
        },
        {
          "name": "C#5",
          "midi": 73,
          "time": 16.744186046511512,
          "velocity": 0.11811023622047244,
          "duration": 0.04651162790698038
        },
        {
          "name": "D#7",
          "midi": 99,
          "time": 16.744186046511512,
          "velocity": 0.14960629921259844,
          "duration": 0.18604651162791797
        },
        {
          "name": "D#3",
          "midi": 51,
          "time": 16.755813953488257,
          "velocity": 0.3228346456692913,
          "duration": 0.18604651162791797
        },
        {
          "name": "G5",
          "midi": 79,
          "time": 16.755813953488257,
          "velocity": 0.10236220472440945,
          "duration": 0.06976744186047057
        },
        {
          "name": "B6",
          "midi": 95,
          "time": 16.755813953488257,
          "velocity": 0.11811023622047244,
          "duration": 0.04651162790698038
        },
        {
          "name": "A#3",
          "midi": 58,
          "time": 16.779069767441747,
          "velocity": 0.2992125984251969,
          "duration": 0.058139534883725474
        },
        {
          "name": "A#4",
          "midi": 70,
          "time": 16.779069767441747,
          "velocity": 0.4881889763779528,
          "duration": 0.058139534883725474
        },
        {
          "name": "F4",
          "midi": 65,
          "time": 16.802325581395237,
          "velocity": 0.33070866141732286,
          "duration": 0.06976744186046702
        },
        {
          "name": "A6",
          "midi": 93,
          "time": 16.802325581395237,
          "velocity": 0.1732283464566929,
          "duration": 0.08139534883721211
        },
        {
          "name": "F6",
          "midi": 89,
          "time": 16.813953488371983,
          "velocity": 0.1732283464566929,
          "duration": 0.27906976744186807
        },
        {
          "name": "B6",
          "midi": 95,
          "time": 16.813953488371983,
          "velocity": 0.1889763779527559,
          "duration": 0.08139534883721211
        },
        {
          "name": "F#5",
          "midi": 78,
          "time": 16.825581395348728,
          "velocity": 0.10236220472440945,
          "duration": 0.05813953488372192
        },
        {
          "name": "B3",
          "midi": 59,
          "time": 16.837209302325473,
          "velocity": 0.25196850393700787,
          "duration": 0.05813953488372192
        },
        {
          "name": "B4",
          "midi": 71,
          "time": 16.837209302325473,
          "velocity": 0.5275590551181102,
          "duration": 0.05813953488372192
        },
        {
          "name": "C#7",
          "midi": 97,
          "time": 16.837209302325473,
          "velocity": 0.12598425196850394,
          "duration": 0.04651162790697683
        },
        {
          "name": "D5",
          "midi": 74,
          "time": 16.86046511627896,
          "velocity": 0.15748031496062992,
          "duration": 0.04651162790698038
        },
        {
          "name": "E4",
          "midi": 64,
          "time": 16.872093023255704,
          "velocity": 0.2125984251968504,
          "duration": 0.04651162790698038
        },
        {
          "name": "D#5",
          "midi": 75,
          "time": 16.88372093023245,
          "velocity": 0.33070866141732286,
          "duration": 0.06976744186047057
        },
        {
          "name": "A#6",
          "midi": 94,
          "time": 16.88372093023245,
          "velocity": 0.1968503937007874,
          "duration": 0.058139534883725474
        },
        {
          "name": "A#5",
          "midi": 82,
          "time": 16.895348837209195,
          "velocity": 0.08661417322834646,
          "duration": 0.034883720930235285
        },
        {
          "name": "A4",
          "midi": 69,
          "time": 16.90697674418594,
          "velocity": 0.31496062992125984,
          "duration": 0.034883720930235285
        },
        {
          "name": "B4",
          "midi": 71,
          "time": 16.90697674418594,
          "velocity": 0.25196850393700787,
          "duration": 0.02325581395349019
        },
        {
          "name": "A3",
          "midi": 57,
          "time": 16.918604651162685,
          "velocity": 0.1732283464566929,
          "duration": 0.034883720930235285
        },
        {
          "name": "A6",
          "midi": 93,
          "time": 16.918604651162685,
          "velocity": 0.07874015748031496,
          "duration": 0.034883720930235285
        },
        {
          "name": "A#4",
          "midi": 70,
          "time": 16.941860465116175,
          "velocity": 0.3543307086614173,
          "duration": 0.12790697674418539
        },
        {
          "name": "C#3",
          "midi": 49,
          "time": 16.95348837209292,
          "velocity": 0.2992125984251969,
          "duration": 0.20930232558140105
        },
        {
          "name": "F#4",
          "midi": 66,
          "time": 16.95348837209292,
          "velocity": 0.13385826771653545,
          "duration": 0.034883720930235285
        },
        {
          "name": "G#4",
          "midi": 68,
          "time": 16.965116279069665,
          "velocity": 0.18110236220472442,
          "duration": 0.04651162790697683
        },
        {
          "name": "D#5",
          "midi": 75,
          "time": 16.97674418604641,
          "velocity": 0.2125984251968504,
          "duration": 0.11627906976744029
        },
        {
          "name": "F5",
          "midi": 77,
          "time": 17.03488372093013,
          "velocity": 0.07874015748031496,
          "duration": 0.06976744186046702
        },
        {
          "name": "G#4",
          "midi": 68,
          "time": 17.06976744186036,
          "velocity": 0.41732283464566927,
          "duration": 0.04651162790698038
        },
        {
          "name": "F4",
          "midi": 65,
          "time": 17.081395348837106,
          "velocity": 0.25196850393700787,
          "duration": 0.04651162790698038
        },
        {
          "name": "C5",
          "midi": 72,
          "time": 17.081395348837106,
          "velocity": 0.4330708661417323,
          "duration": 0.02325581395349019
        },
        {
          "name": "A#6",
          "midi": 94,
          "time": 17.081395348837106,
          "velocity": 0.2992125984251969,
          "duration": 0.034883720930235285
        },
        {
          "name": "A#4",
          "midi": 70,
          "time": 17.09302325581385,
          "velocity": 0.41732283464566927,
          "duration": 0.02325581395349019
        },
        {
          "name": "A6",
          "midi": 93,
          "time": 17.09302325581385,
          "velocity": 0.2283464566929134,
          "duration": 0.04651162790698038
        },
        {
          "name": "D7",
          "midi": 98,
          "time": 17.09302325581385,
          "velocity": 0.15748031496062992,
          "duration": 0.17441860465117642
        },
        {
          "name": "D#7",
          "midi": 99,
          "time": 17.104651162790596,
          "velocity": 0.15748031496062992,
          "duration": 0.04651162790698038
        },
        {
          "name": "A4",
          "midi": 69,
          "time": 17.11627906976734,
          "velocity": 0.5118110236220472,
          "duration": 0.02325581395349019
        },
        {
          "name": "E5",
          "midi": 76,
          "time": 17.11627906976734,
          "velocity": 0.2992125984251969,
          "duration": 0.02325581395349019
        },
        {
          "name": "G6",
          "midi": 91,
          "time": 17.11627906976734,
          "velocity": 0.13385826771653545,
          "duration": 0.034883720930235285
        },
        {
          "name": "G#6",
          "midi": 92,
          "time": 17.11627906976734,
          "velocity": 0.13385826771653545,
          "duration": 0.058139534883725474
        },
        {
          "name": "B6",
          "midi": 95,
          "time": 17.11627906976734,
          "velocity": 0.28346456692913385,
          "duration": 0.02325581395349019
        },
        {
          "name": "C#7",
          "midi": 97,
          "time": 17.11627906976734,
          "velocity": 0.07086614173228346,
          "duration": 0.034883720930235285
        },
        {
          "name": "F#4",
          "midi": 66,
          "time": 17.127906976744086,
          "velocity": 0.23622047244094488,
          "duration": 0.034883720930235285
        },
        {
          "name": "C#5",
          "midi": 73,
          "time": 17.127906976744086,
          "velocity": 0.1732283464566929,
          "duration": 0.06976744186047057
        },
        {
          "name": "A#4",
          "midi": 70,
          "time": 17.13953488372083,
          "velocity": 0.5354330708661418,
          "duration": 0.12790697674419604
        },
        {
          "name": "F5",
          "midi": 77,
          "time": 17.13953488372083,
          "velocity": 0.41732283464566927,
          "duration": 0.4651162790697825
        },
        {
          "name": "A#6",
          "midi": 94,
          "time": 17.13953488372083,
          "velocity": 0.28346456692913385,
          "duration": 0.13953488372094114
        },
        {
          "name": "F#5",
          "midi": 78,
          "time": 17.151162790697576,
          "velocity": 0.28346456692913385,
          "duration": 0.034883720930235285
        },
        {
          "name": "D3",
          "midi": 50,
          "time": 17.16279069767432,
          "velocity": 0.31496062992125984,
          "duration": 0.02325581395349019
        },
        {
          "name": "C7",
          "midi": 96,
          "time": 17.16279069767432,
          "velocity": 0.18110236220472442,
          "duration": 0.12790697674419604
        },
        {
          "name": "F#1",
          "midi": 30,
          "time": 17.174418604651066,
          "velocity": 0.6456692913385826,
          "duration": 0.011627906976745095
        },
        {
          "name": "D6",
          "midi": 86,
          "time": 17.174418604651066,
          "velocity": 0.14173228346456693,
          "duration": 0.08139534883721566
        },
        {
          "name": "D#6",
          "midi": 87,
          "time": 17.174418604651066,
          "velocity": 0.25196850393700787,
          "duration": 0.8720930232558359
        },
        {
          "name": "F1",
          "midi": 29,
          "time": 17.18604651162781,
          "velocity": 0.7086614173228346,
          "duration": 0.011627906976745095
        },
        {
          "name": "G#6",
          "midi": 92,
          "time": 17.18604651162781,
          "velocity": 0.14960629921259844,
          "duration": 0.10465116279070585
        },
        {
          "name": "A6",
          "midi": 93,
          "time": 17.18604651162781,
          "velocity": 0.08661417322834646,
          "duration": 0.034883720930235285
        },
        {
          "name": "E1",
          "midi": 28,
          "time": 17.197674418604556,
          "velocity": 0.7244094488188977,
          "duration": 0.011627906976745095
        },
        {
          "name": "C#4",
          "midi": 61,
          "time": 17.197674418604556,
          "velocity": 0.23622047244094488,
          "duration": 0.02325581395349019
        },
        {
          "name": "D#1",
          "midi": 27,
          "time": 17.2093023255813,
          "velocity": 0.7480314960629921,
          "duration": 1.2325581395349197
        },
        {
          "name": "G3",
          "midi": 55,
          "time": 17.2093023255813,
          "velocity": 0.5433070866141733,
          "duration": 0.4651162790697825
        },
        {
          "name": "G#4",
          "midi": 68,
          "time": 17.2093023255813,
          "velocity": 0.30708661417322836,
          "duration": 0.02325581395349019
        },
        {
          "name": "A#2",
          "midi": 46,
          "time": 17.244186046511537,
          "velocity": 0.4330708661417323,
          "duration": 0.3837209302325668
        },
        {
          "name": "F4",
          "midi": 65,
          "time": 17.255813953488282,
          "velocity": 0.2992125984251969,
          "duration": 0.034883720930235285
        },
        {
          "name": "A4",
          "midi": 69,
          "time": 17.267441860465027,
          "velocity": 0.4015748031496063,
          "duration": 0.02325581395349019
        },
        {
          "name": "B4",
          "midi": 71,
          "time": 17.267441860465027,
          "velocity": 0.3779527559055118,
          "duration": 0.2209302325581426
        },
        {
          "name": "A6",
          "midi": 93,
          "time": 17.267441860465027,
          "velocity": 0.13385826771653545,
          "duration": 0.034883720930235285
        },
        {
          "name": "F#4",
          "midi": 66,
          "time": 17.302325581395262,
          "velocity": 0.2440944881889764,
          "duration": 0.03488372093023173
        },
        {
          "name": "G#4",
          "midi": 68,
          "time": 17.302325581395262,
          "velocity": 0.36220472440944884,
          "duration": 0.24418604651162568
        },
        {
          "name": "F4",
          "midi": 65,
          "time": 17.476744186046425,
          "velocity": 0.2204724409448819,
          "duration": 0.06976744186046346
        },
        {
          "name": "G#6",
          "midi": 92,
          "time": 17.476744186046425,
          "velocity": 0.09448818897637795,
          "duration": 0.03488372093023173
        },
        {
          "name": "C7",
          "midi": 96,
          "time": 17.476744186046425,
          "velocity": 0.14173228346456693,
          "duration": 0.11627906976744384
        },
        {
          "name": "A#4",
          "midi": 70,
          "time": 17.48837209302317,
          "velocity": 0.4330708661417323,
          "duration": 0.05813953488371837
        },
        {
          "name": "A6",
          "midi": 93,
          "time": 17.511627906976656,
          "velocity": 0.2204724409448819,
          "duration": 0.05813953488372192
        },
        {
          "name": "D7",
          "midi": 98,
          "time": 17.534883720930143,
          "velocity": 0.14173228346456693,
          "duration": 0.06976744186047057
        },
        {
          "name": "A4",
          "midi": 69,
          "time": 17.546511627906888,
          "velocity": 0.5275590551181102,
          "duration": 0.02325581395349019
        },
        {
          "name": "G#6",
          "midi": 92,
          "time": 17.546511627906888,
          "velocity": 0.09448818897637795,
          "duration": 0.034883720930235285
        },
        {
          "name": "C#5",
          "midi": 73,
          "time": 17.558139534883633,
          "velocity": 0.2755905511811024,
          "duration": 0.058139534883725474
        },
        {
          "name": "A#6",
          "midi": 94,
          "time": 17.558139534883633,
          "velocity": 0.2677165354330709,
          "duration": 0.058139534883725474
        },
        {
          "name": "A#4",
          "midi": 70,
          "time": 17.569767441860378,
          "velocity": 0.5275590551181102,
          "duration": 0.011627906976745095
        },
        {
          "name": "F#4",
          "midi": 66,
          "time": 17.581395348837123,
          "velocity": 0.2992125984251969,
          "duration": 0.09302325581396076
        },
        {
          "name": "B4",
          "midi": 71,
          "time": 17.581395348837123,
          "velocity": 0.5039370078740157,
          "duration": 0.058139534883725474
        },
        {
          "name": "A#5",
          "midi": 82,
          "time": 17.581395348837123,
          "velocity": 0.25196850393700787,
          "duration": 0.058139534883725474
        },
        {
          "name": "G#4",
          "midi": 68,
          "time": 17.59302325581387,
          "velocity": 0.30708661417322836,
          "duration": 0.04651162790698038
        },
        {
          "name": "G#6",
          "midi": 92,
          "time": 17.59302325581387,
          "velocity": 0.1732283464566929,
          "duration": 0.058139534883725474
        },
        {
          "name": "C#7",
          "midi": 97,
          "time": 17.59302325581387,
          "velocity": 0.1732283464566929,
          "duration": 0.034883720930235285
        },
        {
          "name": "F#6",
          "midi": 90,
          "time": 17.604651162790613,
          "velocity": 0.1732283464566929,
          "duration": 0.034883720930235285
        },
        {
          "name": "C#5",
          "midi": 73,
          "time": 17.627906976744104,
          "velocity": 0.25196850393700787,
          "duration": 0.034883720930235285
        },
        {
          "name": "F5",
          "midi": 77,
          "time": 17.627906976744104,
          "velocity": 0.1889763779527559,
          "duration": 0.39534883720930836
        },
        {
          "name": "A#2",
          "midi": 46,
          "time": 17.63953488372085,
          "velocity": 0.41732283464566927,
          "duration": 0.09302325581395365
        },
        {
          "name": "A#4",
          "midi": 70,
          "time": 17.63953488372085,
          "velocity": 0.4015748031496063,
          "duration": 0.02325581395349019
        },
        {
          "name": "A#6",
          "midi": 94,
          "time": 17.63953488372085,
          "velocity": 0.14173228346456693,
          "duration": 0.034883720930235285
        },
        {
          "name": "G#4",
          "midi": 68,
          "time": 17.651162790697594,
          "velocity": 0.2992125984251969,
          "duration": 0.3255813953488378
        },
        {
          "name": "B4",
          "midi": 71,
          "time": 17.66279069767434,
          "velocity": 0.3937007874015748,
          "duration": 0.18604651162790375
        },
        {
          "name": "F4",
          "midi": 65,
          "time": 17.674418604651084,
          "velocity": 0.3464566929133858,
          "duration": 0.03488372093023173
        },
        {
          "name": "G3",
          "midi": 55,
          "time": 17.68604651162783,
          "velocity": 0.4251968503937008,
          "duration": 0.348837209302328
        },
        {
          "name": "A#2",
          "midi": 46,
          "time": 17.767441860465034,
          "velocity": 0.4015748031496063,
          "duration": 0.09302325581395365
        },
        {
          "name": "A#2",
          "midi": 46,
          "time": 17.89534883720922,
          "velocity": 0.36220472440944884,
          "duration": 0.04651162790697683
        },
        {
          "name": "F4",
          "midi": 65,
          "time": 17.906976744185965,
          "velocity": 0.4330708661417323,
          "duration": 0.1046511627907023
        },
        {
          "name": "B4",
          "midi": 71,
          "time": 17.91860465116271,
          "velocity": 0.25196850393700787,
          "duration": 0.03488372093023173
        },
        {
          "name": "C7",
          "midi": 96,
          "time": 17.941860465116196,
          "velocity": 0.11023622047244094,
          "duration": 0.034883720930235285
        },
        {
          "name": "A#3",
          "midi": 58,
          "time": 17.95348837209294,
          "velocity": 0.3228346456692913,
          "duration": 0.02325581395349019
        },
        {
          "name": "A#4",
          "midi": 70,
          "time": 17.95348837209294,
          "velocity": 0.4251968503937008,
          "duration": 0.034883720930235285
        },
        {
          "name": "A#2",
          "midi": 46,
          "time": 17.965116279069687,
          "velocity": 0.3228346456692913,
          "duration": 0.02325581395349019
        },
        {
          "name": "B4",
          "midi": 71,
          "time": 17.988372093023177,
          "velocity": 0.5511811023622047,
          "duration": 0.058139534883725474
        },
        {
          "name": "D#7",
          "midi": 99,
          "time": 17.988372093023177,
          "velocity": 0.3228346456692913,
          "duration": 0.10465116279070585
        },
        {
          "name": "G5",
          "midi": 79,
          "time": 17.999999999999922,
          "velocity": 0.07874015748031496,
          "duration": 0.058139534883725474
        },
        {
          "name": "D6",
          "midi": 86,
          "time": 17.999999999999922,
          "velocity": 0.1889763779527559,
          "duration": 0.058139534883725474
        },
        {
          "name": "E6",
          "midi": 88,
          "time": 17.999999999999922,
          "velocity": 0.16535433070866143,
          "duration": 0.06976744186047057
        },
        {
          "name": "A#6",
          "midi": 94,
          "time": 17.999999999999922,
          "velocity": 0.31496062992125984,
          "duration": 0.10465116279070585
        },
        {
          "name": "F#4",
          "midi": 66,
          "time": 18.011627906976667,
          "velocity": 0.4094488188976378,
          "duration": 0.08139534883721566
        },
        {
          "name": "E7",
          "midi": 100,
          "time": 18.011627906976667,
          "velocity": 0.2677165354330709,
          "duration": 0.09302325581396076
        },
        {
          "name": "A#3",
          "midi": 58,
          "time": 18.023255813953412,
          "velocity": 0.3464566929133858,
          "duration": 0.058139534883725474
        },
        {
          "name": "F6",
          "midi": 89,
          "time": 18.023255813953412,
          "velocity": 0.31496062992125984,
          "duration": 0.06976744186047057
        },
        {
          "name": "G#6",
          "midi": 92,
          "time": 18.023255813953412,
          "velocity": 0.2283464566929134,
          "duration": 0.2790697674418716
        },
        {
          "name": "B6",
          "midi": 95,
          "time": 18.023255813953412,
          "velocity": 0.30708661417322836,
          "duration": 0.034883720930235285
        },
        {
          "name": "C#7",
          "midi": 97,
          "time": 18.023255813953412,
          "velocity": 0.29133858267716534,
          "duration": 0.08139534883721566
        },
        {
          "name": "D7",
          "midi": 98,
          "time": 18.023255813953412,
          "velocity": 0.33070866141732286,
          "duration": 0.09302325581396076
        },
        {
          "name": "F#6",
          "midi": 90,
          "time": 18.034883720930157,
          "velocity": 0.11811023622047244,
          "duration": 0.04651162790698038
        },
        {
          "name": "A6",
          "midi": 93,
          "time": 18.034883720930157,
          "velocity": 0.2677165354330709,
          "duration": 0.058139534883725474
        },
        {
          "name": "C7",
          "midi": 96,
          "time": 18.034883720930157,
          "velocity": 0.1968503937007874,
          "duration": 0.06976744186047057
        },
        {
          "name": "F#7",
          "midi": 102,
          "time": 18.034883720930157,
          "velocity": 0.1889763779527559,
          "duration": 0.08139534883721566
        },
        {
          "name": "A#2",
          "midi": 46,
          "time": 18.046511627906902,
          "velocity": 0.3228346456692913,
          "duration": 0.034883720930235285
        },
        {
          "name": "E4",
          "midi": 64,
          "time": 18.046511627906902,
          "velocity": 0.30708661417322836,
          "duration": 0.034883720930235285
        },
        {
          "name": "A#4",
          "midi": 70,
          "time": 18.046511627906902,
          "velocity": 0.5118110236220472,
          "duration": 0.9651162790698073
        },
        {
          "name": "F5",
          "midi": 77,
          "time": 18.046511627906902,
          "velocity": 0.33070866141732286,
          "duration": 0.23255813953489124
        },
        {
          "name": "G7",
          "midi": 103,
          "time": 18.058139534883647,
          "velocity": 0.07874015748031496,
          "duration": 0.04651162790698038
        },
        {
          "name": "D#6",
          "midi": 87,
          "time": 18.069767441860392,
          "velocity": 0.16535433070866143,
          "duration": 0.45348837209304094
        },
        {
          "name": "G#4",
          "midi": 68,
          "time": 18.081395348837138,
          "velocity": 0.29133858267716534,
          "duration": 0.058139534883725474
        },
        {
          "name": "A#2",
          "midi": 46,
          "time": 18.093023255813883,
          "velocity": 0.29133858267716534,
          "duration": 0.02325581395349019
        },
        {
          "name": "F4",
          "midi": 65,
          "time": 18.093023255813883,
          "velocity": 0.23622047244094488,
          "duration": 0.034883720930235285
        },
        {
          "name": "F#6",
          "midi": 90,
          "time": 18.093023255813883,
          "velocity": 0.36220472440944884,
          "duration": 0.034883720930235285
        },
        {
          "name": "F6",
          "midi": 89,
          "time": 18.127906976744118,
          "velocity": 0.4094488188976378,
          "duration": 0.18604651162791086
        },
        {
          "name": "C7",
          "midi": 96,
          "time": 18.139534883720863,
          "velocity": 0.12598425196850394,
          "duration": 0.06976744186046702
        },
        {
          "name": "D#3",
          "midi": 51,
          "time": 18.151162790697608,
          "velocity": 0.3228346456692913,
          "duration": 0.29069767441861316
        },
        {
          "name": "A#3",
          "midi": 58,
          "time": 18.151162790697608,
          "velocity": 0.30708661417322836,
          "duration": 0.16279069767442067
        },
        {
          "name": "D6",
          "midi": 86,
          "time": 18.151162790697608,
          "velocity": 0.1732283464566929,
          "duration": 0.09302325581395365
        },
        {
          "name": "E7",
          "midi": 100,
          "time": 18.162790697674353,
          "velocity": 0.2283464566929134,
          "duration": 0.05813953488372192
        },
        {
          "name": "G#4",
          "midi": 68,
          "time": 18.1744186046511,
          "velocity": 0.2992125984251969,
          "duration": 0.08139534883720856
        },
        {
          "name": "D#7",
          "midi": 99,
          "time": 18.220930232558075,
          "velocity": 0.23622047244094488,
          "duration": 0.03488372093023173
        },
        {
          "name": "G4",
          "midi": 67,
          "time": 18.255813953488307,
          "velocity": 0.30708661417322836,
          "duration": 0.03488372093023173
        },
        {
          "name": "G#4",
          "midi": 68,
          "time": 18.29069767441854,
          "velocity": 0.2992125984251969,
          "duration": 0.058139534883725474
        },
        {
          "name": "F5",
          "midi": 77,
          "time": 18.325581395348774,
          "velocity": 0.5433070866141733,
          "duration": 0.24418604651163633
        },
        {
          "name": "A3",
          "midi": 57,
          "time": 18.33720930232552,
          "velocity": 0.2440944881889764,
          "duration": 0.02325581395349019
        },
        {
          "name": "C#4",
          "midi": 61,
          "time": 18.348837209302264,
          "velocity": 0.25196850393700787,
          "duration": 0.02325581395349019
        },
        {
          "name": "A#3",
          "midi": 58,
          "time": 18.36046511627901,
          "velocity": 0.30708661417322836,
          "duration": 0.1046511627907023
        },
        {
          "name": "G#4",
          "midi": 68,
          "time": 18.36046511627901,
          "velocity": 0.30708661417322836,
          "duration": 0.08139534883721211
        },
        {
          "name": "G6",
          "midi": 91,
          "time": 18.372093023255754,
          "velocity": 0.2440944881889764,
          "duration": 0.04651162790697683
        },
        {
          "name": "G#6",
          "midi": 92,
          "time": 18.372093023255754,
          "velocity": 0.2440944881889764,
          "duration": 0.04651162790697683
        },
        {
          "name": "F4",
          "midi": 65,
          "time": 18.39534883720924,
          "velocity": 0.3464566929133858,
          "duration": 0.04651162790698038
        },
        {
          "name": "A6",
          "midi": 93,
          "time": 18.39534883720924,
          "velocity": 0.33070866141732286,
          "duration": 0.1860465116279144
        },
        {
          "name": "C6",
          "midi": 84,
          "time": 18.406976744185986,
          "velocity": 0.16535433070866143,
          "duration": 0.17441860465116932
        },
        {
          "name": "A#6",
          "midi": 94,
          "time": 18.430232558139476,
          "velocity": 0.09448818897637795,
          "duration": 0.034883720930235285
        },
        {
          "name": "D1",
          "midi": 26,
          "time": 18.44186046511622,
          "velocity": 0.5118110236220472,
          "duration": 0.011627906976745095
        },
        {
          "name": "E3",
          "midi": 52,
          "time": 18.44186046511622,
          "velocity": 0.2992125984251969,
          "duration": 0.034883720930235285
        },
        {
          "name": "C#5",
          "midi": 73,
          "time": 18.44186046511622,
          "velocity": 0.18110236220472442,
          "duration": 0.4418604651162923
        },
        {
          "name": "B0",
          "midi": 23,
          "time": 18.453488372092966,
          "velocity": 0.5511811023622047,
          "duration": 0.011627906976745095
        },
        {
          "name": "D#4",
          "midi": 63,
          "time": 18.453488372092966,
          "velocity": 0.3543307086614173,
          "duration": 0.4418604651162923
        },
        {
          "name": "C#1",
          "midi": 25,
          "time": 18.46511627906971,
          "velocity": 0.6535433070866141,
          "duration": 0.011627906976745095
        },
        {
          "name": "A2",
          "midi": 45,
          "time": 18.46511627906971,
          "velocity": 0.4330708661417323,
          "duration": 0.02325581395349019
        },
        {
          "name": "D1",
          "midi": 26,
          "time": 18.476744186046457,
          "velocity": 0.6929133858267716,
          "duration": 0.011627906976745095
        },
        {
          "name": "G6",
          "midi": 91,
          "time": 18.476744186046457,
          "velocity": 0.09448818897637795,
          "duration": 0.04651162790697683
        },
        {
          "name": "C1",
          "midi": 24,
          "time": 18.4883720930232,
          "velocity": 0.6929133858267716,
          "duration": 0.011627906976745095
        },
        {
          "name": "B0",
          "midi": 23,
          "time": 18.499999999999947,
          "velocity": 0.7322834645669292,
          "duration": 1.2906976744186665
        },
        {
          "name": "D#3",
          "midi": 51,
          "time": 18.499999999999947,
          "velocity": 0.5196850393700787,
          "duration": 0.19767441860464885
        },
        {
          "name": "F#4",
          "midi": 66,
          "time": 18.523255813953433,
          "velocity": 0.25984251968503935,
          "duration": 0.11627906976744029
        },
        {
          "name": "F#6",
          "midi": 90,
          "time": 18.558139534883665,
          "velocity": 0.2677165354330709,
          "duration": 0.04651162790697683
        },
        {
          "name": "F#5",
          "midi": 78,
          "time": 18.56976744186041,
          "velocity": 0.5118110236220472,
          "duration": 0.04651162790697683
        },
        {
          "name": "E7",
          "midi": 100,
          "time": 18.56976744186041,
          "velocity": 0.11023622047244094,
          "duration": 0.03488372093023173
        },
        {
          "name": "F5",
          "midi": 77,
          "time": 18.581395348837155,
          "velocity": 0.3543307086614173,
          "duration": 0.023255813953486637
        },
        {
          "name": "C6",
          "midi": 84,
          "time": 18.604651162790642,
          "velocity": 0.2204724409448819,
          "duration": 0.3139534883721069
        },
        {
          "name": "A6",
          "midi": 93,
          "time": 18.604651162790642,
          "velocity": 0.25196850393700787,
          "duration": 0.2906976744186167
        },
        {
          "name": "F5",
          "midi": 77,
          "time": 18.616279069767387,
          "velocity": 0.5275590551181102,
          "duration": 0.25581395348838143
        },
        {
          "name": "F#4",
          "midi": 66,
          "time": 18.65116279069762,
          "velocity": 0.2125984251968504,
          "duration": 0.03488372093023173
        },
        {
          "name": "F#2",
          "midi": 42,
          "time": 18.662790697674364,
          "velocity": 0.4409448818897638,
          "duration": 0.023255813953486637
        },
        {
          "name": "F#4",
          "midi": 66,
          "time": 18.697674418604596,
          "velocity": 0.1968503937007874,
          "duration": 0.05813953488372192
        },
        {
          "name": "D#3",
          "midi": 51,
          "time": 18.70930232558134,
          "velocity": 0.5354330708661418,
          "duration": 0.04651162790697683
        },
        {
          "name": "F#2",
          "midi": 42,
          "time": 18.744186046511572,
          "velocity": 0.44881889763779526,
          "duration": 0.02325581395349019
        },
        {
          "name": "D#3",
          "midi": 51,
          "time": 18.767441860465063,
          "velocity": 0.5118110236220472,
          "duration": 0.02325581395349019
        },
        {
          "name": "F#4",
          "midi": 66,
          "time": 18.767441860465063,
          "velocity": 0.18110236220472442,
          "duration": 0.06976744186047057
        },
        {
          "name": "F#2",
          "midi": 42,
          "time": 18.779069767441808,
          "velocity": 0.48031496062992124,
          "duration": 0.02325581395349019
        },
        {
          "name": "D#7",
          "midi": 99,
          "time": 18.779069767441808,
          "velocity": 0.07874015748031496,
          "duration": 0.034883720930235285
        },
        {
          "name": "D#3",
          "midi": 51,
          "time": 18.802325581395298,
          "velocity": 0.5039370078740157,
          "duration": 0.02325581395349019
        },
        {
          "name": "F#2",
          "midi": 42,
          "time": 18.813953488372043,
          "velocity": 0.4566929133858268,
          "duration": 0.034883720930235285
        },
        {
          "name": "F#4",
          "midi": 66,
          "time": 18.84883720930228,
          "velocity": 0.2125984251968504,
          "duration": 0.08139534883721566
        },
        {
          "name": "F#2",
          "midi": 42,
          "time": 18.860465116279023,
          "velocity": 0.44881889763779526,
          "duration": 0.02325581395349019
        },
        {
          "name": "D#3",
          "midi": 51,
          "time": 18.87209302325577,
          "velocity": 0.4881889763779528,
          "duration": 0.08139534883721566
        },
        {
          "name": "C#4",
          "midi": 61,
          "time": 18.883720930232514,
          "velocity": 0.2283464566929134,
          "duration": 0.02325581395349019
        },
        {
          "name": "D#5",
          "midi": 75,
          "time": 18.883720930232514,
          "velocity": 0.5118110236220472,
          "duration": 0.06976744186047057
        },
        {
          "name": "F5",
          "midi": 77,
          "time": 18.883720930232514,
          "velocity": 0.36220472440944884,
          "duration": 0.12790697674419604
        },
        {
          "name": "G6",
          "midi": 91,
          "time": 18.883720930232514,
          "velocity": 0.12598425196850394,
          "duration": 0.09302325581396076
        },
        {
          "name": "D#7",
          "midi": 99,
          "time": 18.883720930232514,
          "velocity": 0.12598425196850394,
          "duration": 0.04651162790698038
        },
        {
          "name": "F#2",
          "midi": 42,
          "time": 18.906976744186004,
          "velocity": 0.4409448818897638,
          "duration": 0.02325581395349019
        },
        {
          "name": "F#2",
          "midi": 42,
          "time": 18.94186046511624,
          "velocity": 0.4566929133858268,
          "duration": 0.02325581395349019
        },
        {
          "name": "C6",
          "midi": 84,
          "time": 18.94186046511624,
          "velocity": 0.14173228346456693,
          "duration": 0.034883720930235285
        },
        {
          "name": "C#5",
          "midi": 73,
          "time": 18.953488372092984,
          "velocity": 0.4330708661417323,
          "duration": 0.11627906976745095
        },
        {
          "name": "G#5",
          "midi": 80,
          "time": 18.953488372092984,
          "velocity": 0.18110236220472442,
          "duration": 0.04651162790698038
        },
        {
          "name": "F#2",
          "midi": 42,
          "time": 18.976744186046474,
          "velocity": 0.4409448818897638,
          "duration": 0.034883720930235285
        },
        {
          "name": "C4",
          "midi": 60,
          "time": 18.98837209302322,
          "velocity": 0.28346456692913385,
          "duration": 0.02325581395349019
        },
        {
          "name": "B5",
          "midi": 83,
          "time": 18.98837209302322,
          "velocity": 0.36220472440944884,
          "duration": 0.09302325581396076
        },
        {
          "name": "F#5",
          "midi": 78,
          "time": 18.999999999999964,
          "velocity": 0.2440944881889764,
          "duration": 0.034883720930235285
        },
        {
          "name": "A6",
          "midi": 93,
          "time": 18.999999999999964,
          "velocity": 0.14173228346456693,
          "duration": 0.04651162790698038
        },
        {
          "name": "B3",
          "midi": 59,
          "time": 19.01162790697671,
          "velocity": 0.48031496062992124,
          "duration": 0.12790697674419604
        },
        {
          "name": "F4",
          "midi": 65,
          "time": 19.01162790697671,
          "velocity": 0.2992125984251969,
          "duration": 0.02325581395349019
        },
        {
          "name": "A#4",
          "midi": 70,
          "time": 19.023255813953455,
          "velocity": 0.3700787401574803,
          "duration": 0.04651162790698038
        },
        {
          "name": "C6",
          "midi": 84,
          "time": 19.023255813953455,
          "velocity": 0.09448818897637795,
          "duration": 0.04651162790698038
        },
        {
          "name": "D#7",
          "midi": 99,
          "time": 19.023255813953455,
          "velocity": 0.07874015748031496,
          "duration": 0.034883720930235285
        },
        {
          "name": "D#4",
          "midi": 63,
          "time": 19.0348837209302,
          "velocity": 0.29133858267716534,
          "duration": 0.02325581395349019
        },
        {
          "name": "F#5",
          "midi": 78,
          "time": 19.046511627906945,
          "velocity": 0.25196850393700787,
          "duration": 0.058139534883725474
        },
        {
          "name": "F#2",
          "midi": 42,
          "time": 19.069767441860435,
          "velocity": 0.4330708661417323,
          "duration": 0.02325581395349019
        },
        {
          "name": "D#3",
          "midi": 51,
          "time": 19.069767441860435,
          "velocity": 0.4409448818897638,
          "duration": 0.02325581395349019
        },
        {
          "name": "A#4",
          "midi": 70,
          "time": 19.08139534883718,
          "velocity": 0.3543307086614173,
          "duration": 0.23255813953489834
        },
        {
          "name": "F5",
          "midi": 77,
          "time": 19.093023255813925,
          "velocity": 0.30708661417322836,
          "duration": 0.4883720930232833
        },
        {
          "name": "B6",
          "midi": 95,
          "time": 19.093023255813925,
          "velocity": 0.28346456692913385,
          "duration": 0.06976744186047057
        },
        {
          "name": "D7",
          "midi": 98,
          "time": 19.093023255813925,
          "velocity": 0.33858267716535434,
          "duration": 0.11627906976745095
        },
        {
          "name": "D#7",
          "midi": 99,
          "time": 19.093023255813925,
          "velocity": 0.29133858267716534,
          "duration": 0.06976744186047057
        },
        {
          "name": "F#2",
          "midi": 42,
          "time": 19.10465116279067,
          "velocity": 0.4330708661417323,
          "duration": 0.02325581395349019
        },
        {
          "name": "D6",
          "midi": 86,
          "time": 19.10465116279067,
          "velocity": 0.09448818897637795,
          "duration": 0.034883720930235285
        },
        {
          "name": "D#6",
          "midi": 87,
          "time": 19.10465116279067,
          "velocity": 0.07086614173228346,
          "duration": 0.04651162790698038
        },
        {
          "name": "E6",
          "midi": 88,
          "time": 19.10465116279067,
          "velocity": 0.12598425196850394,
          "duration": 0.034883720930235285
        },
        {
          "name": "G#6",
          "midi": 92,
          "time": 19.10465116279067,
          "velocity": 0.2283464566929134,
          "duration": 0.058139534883725474
        },
        {
          "name": "A6",
          "midi": 93,
          "time": 19.10465116279067,
          "velocity": 0.2992125984251969,
          "duration": 0.06976744186047057
        },
        {
          "name": "A#6",
          "midi": 94,
          "time": 19.10465116279067,
          "velocity": 0.2992125984251969,
          "duration": 0.06976744186047057
        },
        {
          "name": "C7",
          "midi": 96,
          "time": 19.10465116279067,
          "velocity": 0.25984251968503935,
          "duration": 0.058139534883725474
        },
        {
          "name": "C#7",
          "midi": 97,
          "time": 19.10465116279067,
          "velocity": 0.2677165354330709,
          "duration": 0.06976744186047057
        },
        {
          "name": "E7",
          "midi": 100,
          "time": 19.10465116279067,
          "velocity": 0.2283464566929134,
          "duration": 0.08139534883721566
        },
        {
          "name": "F#7",
          "midi": 102,
          "time": 19.10465116279067,
          "velocity": 0.16535433070866143,
          "duration": 0.06976744186047057
        },
        {
          "name": "G7",
          "midi": 103,
          "time": 19.10465116279067,
          "velocity": 0.12598425196850394,
          "duration": 0.08139534883721566
        },
        {
          "name": "F#6",
          "midi": 90,
          "time": 19.116279069767415,
          "velocity": 0.1732283464566929,
          "duration": 0.04651162790698038
        },
        {
          "name": "C#5",
          "midi": 73,
          "time": 19.12790697674416,
          "velocity": 0.2677165354330709,
          "duration": 0.16279069767442778
        },
        {
          "name": "G6",
          "midi": 91,
          "time": 19.139534883720906,
          "velocity": 0.09448818897637795,
          "duration": 0.034883720930235285
        },
        {
          "name": "F#2",
          "midi": 42,
          "time": 19.15116279069765,
          "velocity": 0.4330708661417323,
          "duration": 0.02325581395349019
        },
        {
          "name": "F4",
          "midi": 65,
          "time": 19.162790697674396,
          "velocity": 0.2992125984251969,
          "duration": 0.02325581395349019
        },
        {
          "name": "D#4",
          "midi": 63,
          "time": 19.17441860465114,
          "velocity": 0.4251968503937008,
          "duration": 0.1279069767441925
        },
        {
          "name": "F#2",
          "midi": 42,
          "time": 19.186046511627886,
          "velocity": 0.4094488188976378,
          "duration": 0.034883720930235285
        },
        {
          "name": "C6",
          "midi": 84,
          "time": 19.19767441860463,
          "velocity": 0.08661417322834646,
          "duration": 0.034883720930235285
        },
        {
          "name": "F#3",
          "midi": 54,
          "time": 19.24418604651161,
          "velocity": 0.33858267716535434,
          "duration": 0.023255813953486637
        },
        {
          "name": "F#6",
          "midi": 90,
          "time": 19.24418604651161,
          "velocity": 0.1889763779527559,
          "duration": 0.1046511627907023
        },
        {
          "name": "F#3",
          "midi": 54,
          "time": 19.279069767441843,
          "velocity": 0.41732283464566927,
          "duration": 0.04651162790698038
        },
        {
          "name": "A#3",
          "midi": 58,
          "time": 19.279069767441843,
          "velocity": 0.4645669291338583,
          "duration": 0.02325581395349019
        },
        {
          "name": "D5",
          "midi": 74,
          "time": 19.29069767441859,
          "velocity": 0.3543307086614173,
          "duration": 0.10465116279070585
        },
        {
          "name": "E6",
          "midi": 88,
          "time": 19.29069767441859,
          "velocity": 0.14960629921259844,
          "duration": 0.10465116279070585
        },
        {
          "name": "C#7",
          "midi": 97,
          "time": 19.29069767441859,
          "velocity": 0.23622047244094488,
          "duration": 0.10465116279070585
        },
        {
          "name": "C4",
          "midi": 60,
          "time": 19.302325581395333,
          "velocity": 0.5433070866141733,
          "duration": 0.034883720930235285
        },
        {
          "name": "F4",
          "midi": 65,
          "time": 19.302325581395333,
          "velocity": 0.3543307086614173,
          "duration": 0.06976744186047057
        },
        {
          "name": "B5",
          "midi": 83,
          "time": 19.302325581395333,
          "velocity": 0.11811023622047244,
          "duration": 0.034883720930235285
        },
        {
          "name": "A6",
          "midi": 93,
          "time": 19.302325581395333,
          "velocity": 0.1732283464566929,
          "duration": 0.06976744186047057
        },
        {
          "name": "B6",
          "midi": 95,
          "time": 19.302325581395333,
          "velocity": 0.2755905511811024,
          "duration": 0.06976744186047057
        },
        {
          "name": "D#7",
          "midi": 99,
          "time": 19.302325581395333,
          "velocity": 0.23622047244094488,
          "duration": 0.06976744186047057
        },
        {
          "name": "F#2",
          "midi": 42,
          "time": 19.31395348837208,
          "velocity": 0.4015748031496063,
          "duration": 0.02325581395349019
        },
        {
          "name": "A#4",
          "midi": 70,
          "time": 19.325581395348824,
          "velocity": 0.4409448818897638,
          "duration": 0.4069767441860641
        },
        {
          "name": "A5",
          "midi": 81,
          "time": 19.325581395348824,
          "velocity": 0.10236220472440945,
          "duration": 0.034883720930235285
        },
        {
          "name": "B3",
          "midi": 59,
          "time": 19.33720930232557,
          "velocity": 0.49606299212598426,
          "duration": 0.034883720930235285
        },
        {
          "name": "C5",
          "midi": 72,
          "time": 19.33720930232557,
          "velocity": 0.2677165354330709,
          "duration": 0.02325581395349019
        },
        {
          "name": "D#6",
          "midi": 87,
          "time": 19.33720930232557,
          "velocity": 0.11811023622047244,
          "duration": 0.034883720930235285
        },
        {
          "name": "G#5",
          "midi": 80,
          "time": 19.348837209302314,
          "velocity": 0.11811023622047244,
          "duration": 0.034883720930235285
        },
        {
          "name": "G6",
          "midi": 91,
          "time": 19.348837209302314,
          "velocity": 0.10236220472440945,
          "duration": 0.08139534883721566
        },
        {
          "name": "D#3",
          "midi": 51,
          "time": 19.36046511627906,
          "velocity": 0.3700787401574803,
          "duration": 0.04651162790698038
        },
        {
          "name": "A#3",
          "midi": 58,
          "time": 19.372093023255804,
          "velocity": 0.5039370078740157,
          "duration": 0.02325581395349019
        },
        {
          "name": "F#6",
          "midi": 90,
          "time": 19.372093023255804,
          "velocity": 0.1968503937007874,
          "duration": 0.12790697674419604
        },
        {
          "name": "D7",
          "midi": 98,
          "time": 19.372093023255804,
          "velocity": 0.31496062992125984,
          "duration": 0.12790697674419604
        },
        {
          "name": "A3",
          "midi": 57,
          "time": 19.395348837209294,
          "velocity": 0.4566929133858268,
          "duration": 0.02325581395349019
        },
        {
          "name": "F#4",
          "midi": 66,
          "time": 19.395348837209294,
          "velocity": 0.4409448818897638,
          "duration": 0.02325581395349019
        },
        {
          "name": "D#5",
          "midi": 75,
          "time": 19.395348837209294,
          "velocity": 0.3228346456692913,
          "duration": 0.08139534883721566
        },
        {
          "name": "C#7",
          "midi": 97,
          "time": 19.40697674418604,
          "velocity": 0.2755905511811024,
          "duration": 0.13953488372093759
        },
        {
          "name": "G#3",
          "midi": 56,
          "time": 19.43023255813953,
          "velocity": 0.4409448818897638,
          "duration": 0.034883720930235285
        },
        {
          "name": "F#4",
          "midi": 66,
          "time": 19.441860465116275,
          "velocity": 0.3858267716535433,
          "duration": 0.24418604651163633
        },
        {
          "name": "C#5",
          "midi": 73,
          "time": 19.441860465116275,
          "velocity": 0.1732283464566929,
          "duration": 0.30232558139535826
        },
        {
          "name": "C7",
          "midi": 96,
          "time": 19.45348837209302,
          "velocity": 0.2677165354330709,
          "duration": 0.058139534883725474
        },
        {
          "name": "D#3",
          "midi": 51,
          "time": 19.465116279069765,
          "velocity": 0.3700787401574803,
          "duration": 0.02325581395349019
        },
        {
          "name": "A#3",
          "midi": 58,
          "time": 19.465116279069765,
          "velocity": 0.5196850393700787,
          "duration": 0.034883720930235285
        },
        {
          "name": "A5",
          "midi": 81,
          "time": 19.488372093023255,
          "velocity": 0.1732283464566929,
          "duration": 0.09302325581395365
        },
        {
          "name": "B5",
          "midi": 83,
          "time": 19.488372093023255,
          "velocity": 0.09448818897637795,
          "duration": 0.05813953488372192
        },
        {
          "name": "B3",
          "midi": 59,
          "time": 19.5,
          "velocity": 0.48031496062992124,
          "duration": 0.09302325581395365
        },
        {
          "name": "B6",
          "midi": 95,
          "time": 19.5,
          "velocity": 0.1968503937007874,
          "duration": 0.04651162790697683
        },
        {
          "name": "D#7",
          "midi": 99,
          "time": 19.5,
          "velocity": 0.2047244094488189,
          "duration": 0.04651162790697683
        },
        {
          "name": "F#6",
          "midi": 90,
          "time": 19.546511627906977,
          "velocity": 0.11023622047244094,
          "duration": 0.03488372093023173
        },
        {
          "name": "D#3",
          "midi": 51,
          "time": 19.558139534883722,
          "velocity": 0.33070866141732286,
          "duration": 0.04651162790697683
        },
        {
          "name": "F#6",
          "midi": 90,
          "time": 19.616279069767444,
          "velocity": 0.12598425196850394,
          "duration": 0.04651162790697683
        },
        {
          "name": "D#3",
          "midi": 51,
          "time": 19.62790697674419,
          "velocity": 0.4015748031496063,
          "duration": 0.04651162790697683
        },
        {
          "name": "A5",
          "midi": 81,
          "time": 19.651162790697676,
          "velocity": 0.11811023622047244,
          "duration": 0.1046511627907023
        },
        {
          "name": "G6",
          "midi": 91,
          "time": 19.68604651162791,
          "velocity": 0.12598425196850394,
          "duration": 0.06976744186046702
        },
        {
          "name": "F#4",
          "midi": 66,
          "time": 19.697674418604656,
          "velocity": 0.4094488188976378,
          "duration": 0.05813953488372192
        },
        {
          "name": "B6",
          "midi": 95,
          "time": 19.697674418604656,
          "velocity": 0.31496062992125984,
          "duration": 0.13953488372093759
        },
        {
          "name": "C7",
          "midi": 96,
          "time": 19.697674418604656,
          "velocity": 0.28346456692913385,
          "duration": 0.13953488372093759
        },
        {
          "name": "C#7",
          "midi": 97,
          "time": 19.697674418604656,
          "velocity": 0.30708661417322836,
          "duration": 0.13953488372093759
        },
        {
          "name": "D#7",
          "midi": 99,
          "time": 19.697674418604656,
          "velocity": 0.29133858267716534,
          "duration": 0.13953488372093759
        },
        {
          "name": "A#3",
          "midi": 58,
          "time": 19.7093023255814,
          "velocity": 0.4566929133858268,
          "duration": 0.03488372093023173
        },
        {
          "name": "F5",
          "midi": 77,
          "time": 19.7093023255814,
          "velocity": 0.14173228346456693,
          "duration": 0.03488372093023173
        },
        {
          "name": "F#6",
          "midi": 90,
          "time": 19.7093023255814,
          "velocity": 0.16535433070866143,
          "duration": 0.06976744186046702
        },
        {
          "name": "A#6",
          "midi": 94,
          "time": 19.7093023255814,
          "velocity": 0.31496062992125984,
          "duration": 0.1046511627907023
        },
        {
          "name": "D7",
          "midi": 98,
          "time": 19.7093023255814,
          "velocity": 0.33070866141732286,
          "duration": 0.1046511627907023
        },
        {
          "name": "E7",
          "midi": 100,
          "time": 19.7093023255814,
          "velocity": 0.2283464566929134,
          "duration": 0.1162790697674474
        },
        {
          "name": "D4",
          "midi": 62,
          "time": 19.732558139534888,
          "velocity": 0.2677165354330709,
          "duration": 0.034883720930235285
        },
        {
          "name": "B4",
          "midi": 71,
          "time": 19.732558139534888,
          "velocity": 0.2992125984251969,
          "duration": 0.10465116279070585
        },
        {
          "name": "B3",
          "midi": 59,
          "time": 19.744186046511633,
          "velocity": 0.49606299212598426,
          "duration": 0.08139534883721566
        },
        {
          "name": "D5",
          "midi": 74,
          "time": 19.744186046511633,
          "velocity": 0.3543307086614173,
          "duration": 0.06976744186047057
        },
        {
          "name": "F6",
          "midi": 89,
          "time": 19.744186046511633,
          "velocity": 0.1968503937007874,
          "duration": 0.06976744186047057
        },
        {
          "name": "A6",
          "midi": 93,
          "time": 19.744186046511633,
          "velocity": 0.2677165354330709,
          "duration": 0.06976744186047057
        },
        {
          "name": "G7",
          "midi": 103,
          "time": 19.744186046511633,
          "velocity": 0.2047244094488189,
          "duration": 0.08139534883721566
        },
        {
          "name": "F7",
          "midi": 101,
          "time": 19.755813953488378,
          "velocity": 0.25984251968503935,
          "duration": 0.058139534883725474
        },
        {
          "name": "F#7",
          "midi": 102,
          "time": 19.767441860465123,
          "velocity": 0.1968503937007874,
          "duration": 0.058139534883725474
        },
        {
          "name": "F4",
          "midi": 65,
          "time": 19.779069767441868,
          "velocity": 0.25196850393700787,
          "duration": 0.1279069767441925
        },
        {
          "name": "D#6",
          "midi": 87,
          "time": 19.779069767441868,
          "velocity": 0.14960629921259844,
          "duration": 0.15116279069768268
        },
        {
          "name": "A#0",
          "midi": 22,
          "time": 19.790697674418613,
          "velocity": 0.5669291338582677,
          "duration": 0.011627906976745095
        },
        {
          "name": "G#5",
          "midi": 80,
          "time": 19.790697674418613,
          "velocity": 0.10236220472440945,
          "duration": 0.058139534883725474
        },
        {
          "name": "F#6",
          "midi": 90,
          "time": 19.790697674418613,
          "velocity": 0.1732283464566929,
          "duration": 0.058139534883725474
        },
        {
          "name": "B0",
          "midi": 23,
          "time": 19.80232558139536,
          "velocity": 0.5748031496062992,
          "duration": 0.15116279069768268
        },
        {
          "name": "F3",
          "midi": 53,
          "time": 19.813953488372103,
          "velocity": 0.3543307086614173,
          "duration": 0.05813953488372192
        },
        {
          "name": "G#4",
          "midi": 68,
          "time": 19.813953488372103,
          "velocity": 0.2755905511811024,
          "duration": 0.08139534883721211
        },
        {
          "name": "D#5",
          "midi": 75,
          "time": 19.813953488372103,
          "velocity": 0.23622047244094488,
          "duration": 0.23255813953489124
        },
        {
          "name": "C5",
          "midi": 72,
          "time": 19.82558139534885,
          "velocity": 0.1968503937007874,
          "duration": 0.05813953488372192
        },
        {
          "name": "A5",
          "midi": 81,
          "time": 19.82558139534885,
          "velocity": 0.12598425196850394,
          "duration": 0.06976744186046702
        },
        {
          "name": "F6",
          "midi": 89,
          "time": 19.84883720930234,
          "velocity": 0.2047244094488189,
          "duration": 0.03488372093023173
        },
        {
          "name": "B3",
          "midi": 59,
          "time": 19.872093023255825,
          "velocity": 0.3228346456692913,
          "duration": 0.02325581395349019
        },
        {
          "name": "F3",
          "midi": 53,
          "time": 19.88372093023257,
          "velocity": 0.2992125984251969,
          "duration": 0.058139534883725474
        },
        {
          "name": "A#4",
          "midi": 70,
          "time": 19.88372093023257,
          "velocity": 0.3228346456692913,
          "duration": 0.034883720930235285
        },
        {
          "name": "A#3",
          "midi": 58,
          "time": 19.895348837209315,
          "velocity": 0.31496062992125984,
          "duration": 0.02325581395349019
        },
        {
          "name": "G#4",
          "midi": 68,
          "time": 19.90697674418606,
          "velocity": 0.5433070866141733,
          "duration": 0.25581395348838143
        },
        {
          "name": "B3",
          "midi": 59,
          "time": 19.918604651162806,
          "velocity": 0.23622047244094488,
          "duration": 0.06976744186047057
        },
        {
          "name": "B4",
          "midi": 71,
          "time": 19.918604651162806,
          "velocity": 0.29133858267716534,
          "duration": 0.06976744186047057
        },
        {
          "name": "F#6",
          "midi": 90,
          "time": 19.918604651162806,
          "velocity": 0.09448818897637795,
          "duration": 0.034883720930235285
        },
        {
          "name": "E3",
          "midi": 52,
          "time": 19.941860465116296,
          "velocity": 0.4015748031496063,
          "duration": 0.034883720930235285
        },
        {
          "name": "A#0",
          "midi": 22,
          "time": 19.95348837209304,
          "velocity": 0.5433070866141733,
          "duration": 0.011627906976745095
        },
        {
          "name": "B0",
          "midi": 23,
          "time": 19.965116279069786,
          "velocity": 0.5511811023622047,
          "duration": 0.17441860465116577
        },
        {
          "name": "C#5",
          "midi": 73,
          "time": 19.965116279069786,
          "velocity": 0.2283464566929134,
          "duration": 0.13953488372093048
        },
        {
          "name": "F#3",
          "midi": 54,
          "time": 19.988372093023276,
          "velocity": 0.33070866141732286,
          "duration": 0.11627906976744029
        },
        {
          "name": "C3",
          "midi": 48,
          "time": 20.00000000000002,
          "velocity": 0.25984251968503935,
          "duration": 0.023255813953486637
        },
        {
          "name": "F#6",
          "midi": 90,
          "time": 20.00000000000002,
          "velocity": 0.09448818897637795,
          "duration": 0.05813953488371837
        },
        {
          "name": "B4",
          "midi": 71,
          "time": 20.046511627906995,
          "velocity": 0.12598425196850394,
          "duration": 0.04651162790697683
        },
        {
          "name": "B3",
          "midi": 59,
          "time": 20.05813953488374,
          "velocity": 0.2283464566929134,
          "duration": 0.05813953488372192
        },
        {
          "name": "B5",
          "midi": 83,
          "time": 20.05813953488374,
          "velocity": 0.2440944881889764,
          "duration": 0.17441860465117287
        },
        {
          "name": "F4",
          "midi": 65,
          "time": 20.081395348837226,
          "velocity": 0.41732283464566927,
          "duration": 0.058139534883725474
        },
        {
          "name": "A5",
          "midi": 81,
          "time": 20.081395348837226,
          "velocity": 0.08661417322834646,
          "duration": 0.034883720930235285
        },
        {
          "name": "A6",
          "midi": 93,
          "time": 20.081395348837226,
          "velocity": 0.11811023622047244,
          "duration": 0.034883720930235285
        },
        {
          "name": "D#5",
          "midi": 75,
          "time": 20.09302325581397,
          "velocity": 0.1732283464566929,
          "duration": 0.058139534883725474
        },
        {
          "name": "G6",
          "midi": 91,
          "time": 20.09302325581397,
          "velocity": 0.2125984251968504,
          "duration": 0.04651162790698038
        },
        {
          "name": "C5",
          "midi": 72,
          "time": 20.104651162790717,
          "velocity": 0.33070866141732286,
          "duration": 0.034883720930235285
        },
        {
          "name": "F#6",
          "midi": 90,
          "time": 20.104651162790717,
          "velocity": 0.2125984251968504,
          "duration": 0.16279069767442778
        },
        {
          "name": "F#5",
          "midi": 78,
          "time": 20.127906976744207,
          "velocity": 0.11811023622047244,
          "duration": 0.04651162790698038
        },
        {
          "name": "G#6",
          "midi": 92,
          "time": 20.127906976744207,
          "velocity": 0.08661417322834646,
          "duration": 0.034883720930235285
        },
        {
          "name": "D5",
          "midi": 74,
          "time": 20.139534883720952,
          "velocity": 0.25196850393700787,
          "duration": 0.034883720930235285
        },
        {
          "name": "A#6",
          "midi": 94,
          "time": 20.139534883720952,
          "velocity": 0.15748031496062992,
          "duration": 0.13953488372093759
        },
        {
          "name": "B0",
          "midi": 23,
          "time": 20.151162790697697,
          "velocity": 0.44881889763779526,
          "duration": 0.02325581395349019
        },
        {
          "name": "C7",
          "midi": 96,
          "time": 20.151162790697697,
          "velocity": 0.13385826771653545,
          "duration": 0.1279069767441925
        },
        {
          "name": "F3",
          "midi": 53,
          "time": 20.162790697674442,
          "velocity": 0.33858267716535434,
          "duration": 0.02325581395349019
        },
        {
          "name": "A4",
          "midi": 69,
          "time": 20.162790697674442,
          "velocity": 0.5196850393700787,
          "duration": 0.011627906976745095
        },
        {
          "name": "G4",
          "midi": 67,
          "time": 20.174418604651187,
          "velocity": 0.2204724409448819,
          "duration": 0.034883720930235285
        },
        {
          "name": "A#4",
          "midi": 70,
          "time": 20.174418604651187,
          "velocity": 0.5511811023622047,
          "duration": 0.43023255813955075
        },
        {
          "name": "D#5",
          "midi": 75,
          "time": 20.174418604651187,
          "velocity": 0.2755905511811024,
          "duration": 0.02325581395349019
        },
        {
          "name": "F5",
          "midi": 77,
          "time": 20.174418604651187,
          "velocity": 0.2440944881889764,
          "duration": 0.1046511627907023
        },
        {
          "name": "B0",
          "midi": 23,
          "time": 20.186046511627932,
          "velocity": 0.4409448818897638,
          "duration": 0.2209302325581497
        },
        {
          "name": "G3",
          "midi": 55,
          "time": 20.186046511627932,
          "velocity": 0.3700787401574803,
          "duration": 0.02325581395349019
        },
        {
          "name": "G#5",
          "midi": 80,
          "time": 20.186046511627932,
          "velocity": 0.14173228346456693,
          "duration": 0.0930232558139572
        },
        {
          "name": "C6",
          "midi": 84,
          "time": 20.186046511627932,
          "velocity": 0.11023622047244094,
          "duration": 0.058139534883725474
        },
        {
          "name": "D5",
          "midi": 74,
          "time": 20.197674418604677,
          "velocity": 0.2755905511811024,
          "duration": 0.04651162790698038
        },
        {
          "name": "E7",
          "midi": 100,
          "time": 20.197674418604677,
          "velocity": 0.14173228346456693,
          "duration": 0.06976744186046702
        },
        {
          "name": "F#4",
          "midi": 66,
          "time": 20.220930232558167,
          "velocity": 0.2677165354330709,
          "duration": 0.05813953488372192
        },
        {
          "name": "D#5",
          "midi": 75,
          "time": 20.232558139534913,
          "velocity": 0.2283464566929134,
          "duration": 0.2209302325581426
        },
        {
          "name": "D7",
          "midi": 98,
          "time": 20.244186046511658,
          "velocity": 0.12598425196850394,
          "duration": 0.03488372093023173
        },
        {
          "name": "F4",
          "midi": 65,
          "time": 20.27906976744189,
          "velocity": 0.2283464566929134,
          "duration": 0.034883720930235285
        },
        {
          "name": "F#6",
          "midi": 90,
          "time": 20.27906976744189,
          "velocity": 0.09448818897637795,
          "duration": 0.04651162790698038
        },
        {
          "name": "A#2",
          "midi": 46,
          "time": 20.290697674418634,
          "velocity": 0.2283464566929134,
          "duration": 0.02325581395349019
        },
        {
          "name": "G#3",
          "midi": 56,
          "time": 20.290697674418634,
          "velocity": 0.3700787401574803,
          "duration": 0.0930232558139572
        },
        {
          "name": "F6",
          "midi": 89,
          "time": 20.290697674418634,
          "velocity": 0.14173228346456693,
          "duration": 0.29069767441861316
        },
        {
          "name": "G4",
          "midi": 67,
          "time": 20.30232558139538,
          "velocity": 0.12598425196850394,
          "duration": 0.034883720930235285
        },
        {
          "name": "B5",
          "midi": 83,
          "time": 20.32558139534887,
          "velocity": 0.08661417322834646,
          "duration": 0.034883720930235285
        },
        {
          "name": "C3",
          "midi": 48,
          "time": 20.337209302325615,
          "velocity": 0.33070866141732286,
          "duration": 0.02325581395349019
        },
        {
          "name": "C#4",
          "midi": 61,
          "time": 20.34883720930236,
          "velocity": 0.3228346456692913,
          "duration": 0.05813953488372192
        },
        {
          "name": "F5",
          "midi": 77,
          "time": 20.34883720930236,
          "velocity": 0.1968503937007874,
          "duration": 0.2093023255813975
        },
        {
          "name": "C#3",
          "midi": 49,
          "time": 20.360465116279105,
          "velocity": 0.30708661417322836,
          "duration": 0.023255813953486637
        },
        {
          "name": "C#3",
          "midi": 49,
          "time": 20.395348837209337,
          "velocity": 0.30708661417322836,
          "duration": 0.03488372093023173
        },
        {
          "name": "F4",
          "midi": 65,
          "time": 20.395348837209337,
          "velocity": 0.10236220472440945,
          "duration": 0.03488372093023173
        },
        {
          "name": "A#3",
          "midi": 58,
          "time": 20.406976744186082,
          "velocity": 0.44881889763779526,
          "duration": 0.23255813953489124
        },
        {
          "name": "C3",
          "midi": 48,
          "time": 20.43023255813957,
          "velocity": 0.25984251968503935,
          "duration": 0.023255813953486637
        },
        {
          "name": "A#2",
          "midi": 46,
          "time": 20.4651162790698,
          "velocity": 0.1732283464566929,
          "duration": 0.05813953488372192
        },
        {
          "name": "B5",
          "midi": 83,
          "time": 20.476744186046545,
          "velocity": 0.12598425196850394,
          "duration": 0.06976744186046702
        },
        {
          "name": "F#6",
          "midi": 90,
          "time": 20.534883720930267,
          "velocity": 0.2677165354330709,
          "duration": 0.11627906976745095
        },
        {
          "name": "F#4",
          "midi": 66,
          "time": 20.546511627907012,
          "velocity": 0.25984251968503935,
          "duration": 0.058139534883725474
        },
        {
          "name": "C#5",
          "midi": 73,
          "time": 20.546511627907012,
          "velocity": 0.31496062992125984,
          "duration": 0.034883720930235285
        },
        {
          "name": "A2",
          "midi": 45,
          "time": 20.558139534883757,
          "velocity": 0.30708661417322836,
          "duration": 0.034883720930235285
        },
        {
          "name": "E5",
          "midi": 76,
          "time": 20.558139534883757,
          "velocity": 0.25984251968503935,
          "duration": 0.04651162790698038
        },
        {
          "name": "G#6",
          "midi": 92,
          "time": 20.569767441860503,
          "velocity": 0.1889763779527559,
          "duration": 0.11627906976745095
        },
        {
          "name": "C#7",
          "midi": 97,
          "time": 20.569767441860503,
          "velocity": 0.18110236220472442,
          "duration": 0.10465116279070585
        },
        {
          "name": "D5",
          "midi": 74,
          "time": 20.593023255813993,
          "velocity": 0.3779527559055118,
          "duration": 0.08139534883721566
        },
        {
          "name": "F#1",
          "midi": 30,
          "time": 20.604651162790738,
          "velocity": 0.6141732283464567,
          "duration": 0.011627906976745095
        },
        {
          "name": "B4",
          "midi": 71,
          "time": 20.604651162790738,
          "velocity": 0.29133858267716534,
          "duration": 0.02325581395349019
        },
        {
          "name": "F5",
          "midi": 77,
          "time": 20.604651162790738,
          "velocity": 0.4094488188976378,
          "duration": 0.4069767441860712
        },
        {
          "name": "C7",
          "midi": 96,
          "time": 20.604651162790738,
          "velocity": 0.12598425196850394,
          "duration": 0.06976744186047057
        },
        {
          "name": "F1",
          "midi": 29,
          "time": 20.616279069767483,
          "velocity": 0.7007874015748031,
          "duration": 0.011627906976745095
        },
        {
          "name": "F#4",
          "midi": 66,
          "time": 20.616279069767483,
          "velocity": 0.31496062992125984,
          "duration": 0.034883720930235285
        },
        {
          "name": "G#4",
          "midi": 68,
          "time": 20.616279069767483,
          "velocity": 0.33070866141732286,
          "duration": 0.34883720930234574
        },
        {
          "name": "D#6",
          "midi": 87,
          "time": 20.616279069767483,
          "velocity": 0.14173228346456693,
          "duration": 0.5116279069767771
        },
        {
          "name": "E1",
          "midi": 28,
          "time": 20.627906976744228,
          "velocity": 0.7165354330708661,
          "duration": 0.011627906976745095
        },
        {
          "name": "G3",
          "midi": 55,
          "time": 20.627906976744228,
          "velocity": 0.5275590551181102,
          "duration": 0.4534883720930516
        },
        {
          "name": "D#1",
          "midi": 27,
          "time": 20.639534883720973,
          "velocity": 0.7480314960629921,
          "duration": 0.500000000000032
        },
        {
          "name": "A#4",
          "midi": 70,
          "time": 20.639534883720973,
          "velocity": 0.30708661417322836,
          "duration": 0.06976744186047057
        },
        {
          "name": "A#2",
          "midi": 46,
          "time": 20.651162790697718,
          "velocity": 0.4251968503937008,
          "duration": 0.04651162790698038
        },
        {
          "name": "A6",
          "midi": 93,
          "time": 20.651162790697718,
          "velocity": 0.07086614173228346,
          "duration": 0.04651162790698038
        },
        {
          "name": "F#4",
          "midi": 66,
          "time": 20.662790697674463,
          "velocity": 0.3543307086614173,
          "duration": 0.034883720930235285
        },
        {
          "name": "F4",
          "midi": 65,
          "time": 20.6976744186047,
          "velocity": 0.3228346456692913,
          "duration": 0.058139534883725474
        },
        {
          "name": "G5",
          "midi": 79,
          "time": 20.6976744186047,
          "velocity": 0.07086614173228346,
          "duration": 0.034883720930235285
        },
        {
          "name": "A#2",
          "midi": 46,
          "time": 20.709302325581444,
          "velocity": 0.4330708661417323,
          "duration": 0.2209302325581497
        },
        {
          "name": "A#4",
          "midi": 70,
          "time": 20.72093023255819,
          "velocity": 0.2283464566929134,
          "duration": 0.02325581395349019
        },
        {
          "name": "C4",
          "midi": 60,
          "time": 20.76744186046517,
          "velocity": 0.2283464566929134,
          "duration": 0.02325581395349019
        },
        {
          "name": "C#5",
          "midi": 73,
          "time": 20.779069767441914,
          "velocity": 0.2125984251968504,
          "duration": 0.0930232558139572
        },
        {
          "name": "C7",
          "midi": 96,
          "time": 20.779069767441914,
          "velocity": 0.11023622047244094,
          "duration": 0.06976744186046702
        },
        {
          "name": "C#4",
          "midi": 61,
          "time": 20.79069767441866,
          "velocity": 0.2992125984251969,
          "duration": 0.06976744186046702
        },
        {
          "name": "A#4",
          "midi": 70,
          "time": 20.837209302325636,
          "velocity": 0.09448818897637795,
          "duration": 0.034883720930235285
        },
        {
          "name": "D#4",
          "midi": 63,
          "time": 20.883720930232617,
          "velocity": 0.07086614173228346,
          "duration": 0.03488372093023173
        },
        {
          "name": "A#4",
          "midi": 70,
          "time": 20.930232558139593,
          "velocity": 0.16535433070866143,
          "duration": 0.034883720930235285
        },
        {
          "name": "A#2",
          "midi": 46,
          "time": 20.94186046511634,
          "velocity": 0.48031496062992124,
          "duration": 0.04651162790698038
        },
        {
          "name": "F#4",
          "midi": 66,
          "time": 20.953488372093084,
          "velocity": 0.33858267716535434,
          "duration": 0.034883720930235285
        },
        {
          "name": "F#6",
          "midi": 90,
          "time": 20.976744186046574,
          "velocity": 0.14960629921259844,
          "duration": 0.058139534883725474
        },
        {
          "name": "C7",
          "midi": 96,
          "time": 20.98837209302332,
          "velocity": 0.18110236220472442,
          "duration": 0.06976744186047057
        },
        {
          "name": "C5",
          "midi": 72,
          "time": 21.000000000000064,
          "velocity": 0.11811023622047244,
          "duration": 0.034883720930235285
        },
        {
          "name": "E5",
          "midi": 76,
          "time": 21.000000000000064,
          "velocity": 0.23622047244094488,
          "duration": 0.02325581395349019
        },
        {
          "name": "G6",
          "midi": 91,
          "time": 21.000000000000064,
          "velocity": 0.14960629921259844,
          "duration": 0.058139534883725474
        },
        {
          "name": "C#7",
          "midi": 97,
          "time": 21.000000000000064,
          "velocity": 0.15748031496062992,
          "duration": 0.06976744186047057
        },
        {
          "name": "F4",
          "midi": 65,
          "time": 21.01162790697681,
          "velocity": 0.5275590551181102,
          "duration": 0.011627906976745095
        },
        {
          "name": "G5",
          "midi": 79,
          "time": 21.01162790697681,
          "velocity": 0.11811023622047244,
          "duration": 0.06976744186047057
        },
        {
          "name": "F#4",
          "midi": 66,
          "time": 21.023255813953554,
          "velocity": 0.5511811023622047,
          "duration": 0.011627906976745095
        },
        {
          "name": "A6",
          "midi": 93,
          "time": 21.023255813953554,
          "velocity": 0.18110236220472442,
          "duration": 0.09302325581396076
        },
        {
          "name": "B6",
          "midi": 95,
          "time": 21.023255813953554,
          "velocity": 0.10236220472440945,
          "duration": 0.058139534883725474
        },
        {
          "name": "F4",
          "midi": 65,
          "time": 21.0348837209303,
          "velocity": 0.48031496062992124,
          "duration": 0.058139534883725474
        },
        {
          "name": "B4",
          "midi": 71,
          "time": 21.0348837209303,
          "velocity": 0.4251968503937008,
          "duration": 0.034883720930235285
        },
        {
          "name": "D6",
          "midi": 86,
          "time": 21.0348837209303,
          "velocity": 0.11023622047244094,
          "duration": 0.06976744186047057
        },
        {
          "name": "A#6",
          "midi": 94,
          "time": 21.0348837209303,
          "velocity": 0.10236220472440945,
          "duration": 0.04651162790698038
        },
        {
          "name": "A#3",
          "midi": 58,
          "time": 21.046511627907044,
          "velocity": 0.4330708661417323,
          "duration": 0.02325581395349019
        },
        {
          "name": "G#4",
          "midi": 68,
          "time": 21.046511627907044,
          "velocity": 0.3228346456692913,
          "duration": 0.06976744186047057
        },
        {
          "name": "F6",
          "midi": 89,
          "time": 21.05813953488379,
          "velocity": 0.11811023622047244,
          "duration": 0.04651162790698038
        },
        {
          "name": "A#2",
          "midi": 46,
          "time": 21.069767441860535,
          "velocity": 0.4251968503937008,
          "duration": 0.034883720930235285
        },
        {
          "name": "A#4",
          "midi": 70,
          "time": 21.069767441860535,
          "velocity": 0.3779527559055118,
          "duration": 0.02325581395349019
        },
        {
          "name": "B4",
          "midi": 71,
          "time": 21.08139534883728,
          "velocity": 0.3937007874015748,
          "duration": 0.04651162790698038
        },
        {
          "name": "G3",
          "midi": 55,
          "time": 21.093023255814025,
          "velocity": 0.4881889763779528,
          "duration": 0.04651162790698038
        },
        {
          "name": "A2",
          "midi": 45,
          "time": 21.10465116279077,
          "velocity": 0.47244094488188976,
          "duration": 0.034883720930235285
        },
        {
          "name": "A#4",
          "midi": 70,
          "time": 21.12790697674426,
          "velocity": 0.4015748031496063,
          "duration": 0.02325581395349019
        },
        {
          "name": "D1",
          "midi": 26,
          "time": 21.139534883721005,
          "velocity": 0.7007874015748031,
          "duration": 0.011627906976745095
        },
        {
          "name": "G#2",
          "midi": 44,
          "time": 21.139534883721005,
          "velocity": 0.3937007874015748,
          "duration": 0.02325581395349019
        },
        {
          "name": "F3",
          "midi": 53,
          "time": 21.139534883721005,
          "velocity": 0.4645669291338583,
          "duration": 0.034883720930235285
        },
        {
          "name": "C5",
          "midi": 72,
          "time": 21.139534883721005,
          "velocity": 0.2283464566929134,
          "duration": 0.04651162790698038
        },
        {
          "name": "C#1",
          "midi": 25,
          "time": 21.15116279069775,
          "velocity": 0.6929133858267716,
          "duration": 0.02325581395349019
        },
        {
          "name": "F#4",
          "midi": 66,
          "time": 21.15116279069775,
          "velocity": 0.31496062992125984,
          "duration": 0.02325581395349019
        },
        {
          "name": "A4",
          "midi": 69,
          "time": 21.15116279069775,
          "velocity": 0.36220472440944884,
          "duration": 0.02325581395349019
        },
        {
          "name": "F5",
          "midi": 77,
          "time": 21.15116279069775,
          "velocity": 0.15748031496062992,
          "duration": 0.034883720930235285
        },
        {
          "name": "C1",
          "midi": 24,
          "time": 21.17441860465124,
          "velocity": 0.6850393700787402,
          "duration": 0.02325581395349019
        },
        {
          "name": "E3",
          "midi": 52,
          "time": 21.17441860465124,
          "velocity": 0.4409448818897638,
          "duration": 0.02325581395349019
        },
        {
          "name": "F#2",
          "midi": 42,
          "time": 21.186046511627985,
          "velocity": 0.4409448818897638,
          "duration": 0.02325581395349019
        },
        {
          "name": "A#0",
          "midi": 22,
          "time": 21.19767441860473,
          "velocity": 0.6850393700787402,
          "duration": 0.011627906976745095
        },
        {
          "name": "F#4",
          "midi": 66,
          "time": 21.19767441860473,
          "velocity": 0.3858267716535433,
          "duration": 0.02325581395349019
        },
        {
          "name": "A0",
          "midi": 21,
          "time": 21.209302325581476,
          "velocity": 0.6929133858267716,
          "duration": 0.02325581395349019
        },
        {
          "name": "F5",
          "midi": 77,
          "time": 21.209302325581476,
          "velocity": 0.09448818897637795,
          "duration": 0.058139534883725474
        },
        {
          "name": "G#0",
          "midi": 20,
          "time": 21.232558139534966,
          "velocity": 0.6850393700787402,
          "duration": 0.011627906976745095
        },
        {
          "name": "G0",
          "midi": 19,
          "time": 21.24418604651171,
          "velocity": 0.6929133858267716,
          "duration": 0.011627906976745095
        },
        {
          "name": "F#0",
          "midi": 18,
          "time": 21.255813953488456,
          "velocity": 0.6850393700787402,
          "duration": 0.011627906976745095
        },
        {
          "name": "C#4",
          "midi": 61,
          "time": 21.255813953488456,
          "velocity": 0.3937007874015748,
          "duration": 0.02325581395349019
        },
        {
          "name": "F0",
          "midi": 17,
          "time": 21.2674418604652,
          "velocity": 0.6850393700787402,
          "duration": 0.011627906976745095
        },
        {
          "name": "E0",
          "midi": 16,
          "time": 21.279069767441946,
          "velocity": 0.6850393700787402,
          "duration": 0.011627906976745095
        },
        {
          "name": "F4",
          "midi": 65,
          "time": 21.279069767441946,
          "velocity": 0.1889763779527559,
          "duration": 0.034883720930235285
        },
        {
          "name": "D#0",
          "midi": 15,
          "time": 21.29069767441869,
          "velocity": 0.6692913385826772,
          "duration": 0.011627906976745095
        },
        {
          "name": "G3",
          "midi": 55,
          "time": 21.29069767441869,
          "velocity": 0.36220472440944884,
          "duration": 0.034883720930235285
        },
        {
          "name": "D#7",
          "midi": 99,
          "time": 21.29069767441869,
          "velocity": 0.2440944881889764,
          "duration": 0.06976744186047057
        },
        {
          "name": "E7",
          "midi": 100,
          "time": 21.29069767441869,
          "velocity": 0.1968503937007874,
          "duration": 0.04651162790698038
        },
        {
          "name": "F7",
          "midi": 101,
          "time": 21.29069767441869,
          "velocity": 0.2440944881889764,
          "duration": 0.058139534883725474
        },
        {
          "name": "F#7",
          "midi": 102,
          "time": 21.29069767441869,
          "velocity": 0.3464566929133858,
          "duration": 0.058139534883725474
        },
        {
          "name": "G7",
          "midi": 103,
          "time": 21.29069767441869,
          "velocity": 0.2755905511811024,
          "duration": 0.02325581395349019
        },
        {
          "name": "D0",
          "midi": 14,
          "time": 21.302325581395436,
          "velocity": 0.6850393700787402,
          "duration": 0.011627906976745095
        },
        {
          "name": "B4",
          "midi": 71,
          "time": 21.302325581395436,
          "velocity": 0.10236220472440945,
          "duration": 0.04651162790698038
        },
        {
          "name": "D7",
          "midi": 98,
          "time": 21.302325581395436,
          "velocity": 0.13385826771653545,
          "duration": 0.058139534883725474
        },
        {
          "name": "B-1",
          "midi": 11,
          "time": 21.31395348837218,
          "velocity": 0.6377952755905512,
          "duration": 0.011627906976745095
        },
        {
          "name": "F#4",
          "midi": 66,
          "time": 21.31395348837218,
          "velocity": 0.15748031496062992,
          "duration": 0.034883720930235285
        },
        {
          "name": "A-1",
          "midi": 9,
          "time": 21.325581395348927,
          "velocity": 0.6220472440944882,
          "duration": 0.011627906976745095
        },
        {
          "name": "D3",
          "midi": 50,
          "time": 21.325581395348927,
          "velocity": 0.3858267716535433,
          "duration": 0.02325581395349019
        },
        {
          "name": "C#7",
          "midi": 97,
          "time": 21.325581395348927,
          "velocity": 0.11811023622047244,
          "duration": 0.034883720930235285
        },
        {
          "name": "A#-1",
          "midi": 10,
          "time": 21.33720930232567,
          "velocity": 0.6850393700787402,
          "duration": 0.011627906976745095
        },
        {
          "name": "G#-1",
          "midi": 8,
          "time": 21.348837209302417,
          "velocity": 0.5984251968503937,
          "duration": 0.011627906976745095
        },
        {
          "name": "C#3",
          "midi": 49,
          "time": 21.348837209302417,
          "velocity": 0.2992125984251969,
          "duration": 0.034883720930235285
        },
        {
          "name": "F4",
          "midi": 65,
          "time": 21.348837209302417,
          "velocity": 0.1732283464566929,
          "duration": 0.034883720930235285
        },
        {
          "name": "D0",
          "midi": 14,
          "time": 21.372093023255907,
          "velocity": 0.6062992125984252,
          "duration": 0.011627906976745095
        },
        {
          "name": "A4",
          "midi": 69,
          "time": 21.383720930232652,
          "velocity": 0.2283464566929134,
          "duration": 0.034883720930235285
        },
        {
          "name": "C5",
          "midi": 72,
          "time": 21.383720930232652,
          "velocity": 0.31496062992125984,
          "duration": 0.04651162790698038
        },
        {
          "name": "F#4",
          "midi": 66,
          "time": 21.395348837209397,
          "velocity": 0.2992125984251969,
          "duration": 0.02325581395349019
        },
        {
          "name": "C3",
          "midi": 48,
          "time": 21.406976744186142,
          "velocity": 0.47244094488188976,
          "duration": 0.02325581395349019
        },
        {
          "name": "G6",
          "midi": 91,
          "time": 21.406976744186142,
          "velocity": 0.15748031496062992,
          "duration": 0.08139534883721566
        },
        {
          "name": "D-1",
          "midi": 2,
          "time": 21.418604651162887,
          "velocity": 0.5511811023622047,
          "duration": 0.011627906976745095
        },
        {
          "name": "A#4",
          "midi": 70,
          "time": 21.418604651162887,
          "velocity": 0.23622047244094488,
          "duration": 0.02325581395349019
        },
        {
          "name": "D6",
          "midi": 86,
          "time": 21.418604651162887,
          "velocity": 0.2047244094488189,
          "duration": 0.034883720930235285
        },
        {
          "name": "A#-1",
          "midi": 10,
          "time": 21.430232558139632,
          "velocity": 0.5984251968503937,
          "duration": 0.011627906976745095
        },
        {
          "name": "B2",
          "midi": 47,
          "time": 21.430232558139632,
          "velocity": 0.47244094488188976,
          "duration": 0.034883720930235285
        },
        {
          "name": "B4",
          "midi": 71,
          "time": 21.430232558139632,
          "velocity": 0.4566929133858268,
          "duration": 0.058139534883725474
        },
        {
          "name": "F5",
          "midi": 77,
          "time": 21.430232558139632,
          "velocity": 0.16535433070866143,
          "duration": 0.034883720930235285
        },
        {
          "name": "D#6",
          "midi": 87,
          "time": 21.430232558139632,
          "velocity": 0.1968503937007874,
          "duration": 0.18604651162791797
        },
        {
          "name": "F#6",
          "midi": 90,
          "time": 21.430232558139632,
          "velocity": 0.2677165354330709,
          "duration": 0.09302325581396076
        },
        {
          "name": "A-1",
          "midi": 9,
          "time": 21.441860465116378,
          "velocity": 0.6692913385826772,
          "duration": 0.011627906976745095
        },
        {
          "name": "D#5",
          "midi": 75,
          "time": 21.441860465116378,
          "velocity": 0.23622047244094488,
          "duration": 0.034883720930235285
        },
        {
          "name": "E6",
          "midi": 88,
          "time": 21.441860465116378,
          "velocity": 0.14173228346456693,
          "duration": 0.034883720930235285
        },
        {
          "name": "D1",
          "midi": 26,
          "time": 21.453488372093123,
          "velocity": 0.6456692913385826,
          "duration": 0.011627906976745095
        },
        {
          "name": "F#4",
          "midi": 66,
          "time": 21.453488372093123,
          "velocity": 0.3858267716535433,
          "duration": 0.034883720930235285
        },
        {
          "name": "G#4",
          "midi": 68,
          "time": 21.453488372093123,
          "velocity": 0.3228346456692913,
          "duration": 0.08139534883721566
        },
        {
          "name": "F6",
          "midi": 89,
          "time": 21.453488372093123,
          "velocity": 0.36220472440944884,
          "duration": 0.2441860465116399
        },
        {
          "name": "B6",
          "midi": 95,
          "time": 21.453488372093123,
          "velocity": 0.30708661417322836,
          "duration": 0.06976744186047057
        },
        {
          "name": "D7",
          "midi": 98,
          "time": 21.453488372093123,
          "velocity": 0.33070866141732286,
          "duration": 0.09302325581396076
        },
        {
          "name": "E7",
          "midi": 100,
          "time": 21.453488372093123,
          "velocity": 0.2677165354330709,
          "duration": 0.034883720930235285
        },
        {
          "name": "D#1",
          "midi": 27,
          "time": 21.465116279069868,
          "velocity": 0.6299212598425197,
          "duration": 0.4186046511628092
        },
        {
          "name": "A#2",
          "midi": 46,
          "time": 21.465116279069868,
          "velocity": 0.3700787401574803,
          "duration": 0.02325581395349019
        },
        {
          "name": "A6",
          "midi": 93,
          "time": 21.465116279069868,
          "velocity": 0.29133858267716534,
          "duration": 0.08139534883721566
        },
        {
          "name": "A#6",
          "midi": 94,
          "time": 21.465116279069868,
          "velocity": 0.2992125984251969,
          "duration": 0.058139534883725474
        },
        {
          "name": "C7",
          "midi": 96,
          "time": 21.465116279069868,
          "velocity": 0.2755905511811024,
          "duration": 0.09302325581396076
        },
        {
          "name": "C#7",
          "midi": 97,
          "time": 21.465116279069868,
          "velocity": 0.2992125984251969,
          "duration": 0.06976744186047057
        },
        {
          "name": "G7",
          "midi": 103,
          "time": 21.465116279069868,
          "velocity": 0.15748031496062992,
          "duration": 0.06976744186047057
        },
        {
          "name": "F5",
          "midi": 77,
          "time": 21.476744186046613,
          "velocity": 0.1889763779527559,
          "duration": 0.06976744186047057
        },
        {
          "name": "D#7",
          "midi": 99,
          "time": 21.476744186046613,
          "velocity": 0.29133858267716534,
          "duration": 0.058139534883725474
        },
        {
          "name": "F#3",
          "midi": 54,
          "time": 21.488372093023358,
          "velocity": 0.3858267716535433,
          "duration": 0.034883720930235285
        },
        {
          "name": "F4",
          "midi": 65,
          "time": 21.488372093023358,
          "velocity": 0.4015748031496063,
          "duration": 0.04651162790698038
        },
        {
          "name": "A#4",
          "midi": 70,
          "time": 21.488372093023358,
          "velocity": 0.5196850393700787,
          "duration": 1.6860465116279748
        },
        {
          "name": "A#3",
          "midi": 58,
          "time": 21.500000000000103,
          "velocity": 0.4566929133858268,
          "duration": 0.034883720930235285
        },
        {
          "name": "G6",
          "midi": 91,
          "time": 21.500000000000103,
          "velocity": 0.07874015748031496,
          "duration": 0.034883720930235285
        },
        {
          "name": "G#6",
          "midi": 92,
          "time": 21.500000000000103,
          "velocity": 0.2204724409448819,
          "duration": 0.058139534883725474
        },
        {
          "name": "E7",
          "midi": 100,
          "time": 21.500000000000103,
          "velocity": 0.1968503937007874,
          "duration": 0.034883720930235285
        },
        {
          "name": "D#3",
          "midi": 51,
          "time": 21.511627906976848,
          "velocity": 0.31496062992125984,
          "duration": 0.02325581395349019
        },
        {
          "name": "D3",
          "midi": 50,
          "time": 21.53488372093034,
          "velocity": 0.30708661417322836,
          "duration": 0.02325581395349019
        },
        {
          "name": "B3",
          "midi": 59,
          "time": 21.53488372093034,
          "velocity": 0.4409448818897638,
          "duration": 0.05813953488372192
        },
        {
          "name": "F#4",
          "midi": 66,
          "time": 21.53488372093034,
          "velocity": 0.4094488188976378,
          "duration": 0.034883720930235285
        },
        {
          "name": "D5",
          "midi": 74,
          "time": 21.546511627907083,
          "velocity": 0.3464566929133858,
          "duration": 0.17441860465116932
        },
        {
          "name": "E6",
          "midi": 88,
          "time": 21.546511627907083,
          "velocity": 0.13385826771653545,
          "duration": 0.04651162790697683
        },
        {
          "name": "F#6",
          "midi": 90,
          "time": 21.55813953488383,
          "velocity": 0.23622047244094488,
          "duration": 0.05813953488372192
        },
        {
          "name": "E7",
          "midi": 100,
          "time": 21.569767441860574,
          "velocity": 0.2204724409448819,
          "duration": 0.13953488372093403
        },
        {
          "name": "A#3",
          "midi": 58,
          "time": 21.59302325581406,
          "velocity": 0.4409448818897638,
          "duration": 0.1279069767441925
        },
        {
          "name": "F4",
          "midi": 65,
          "time": 21.59302325581406,
          "velocity": 0.29133858267716534,
          "duration": 0.1162790697674474
        },
        {
          "name": "A#2",
          "midi": 46,
          "time": 21.604651162790805,
          "velocity": 0.3700787401574803,
          "duration": 0.034883720930235285
        },
        {
          "name": "C6",
          "midi": 84,
          "time": 21.604651162790805,
          "velocity": 0.07874015748031496,
          "duration": 0.06976744186046702
        },
        {
          "name": "G#4",
          "midi": 68,
          "time": 21.61627906976755,
          "velocity": 0.2992125984251969,
          "duration": 0.02325581395349019
        },
        {
          "name": "F#7",
          "midi": 102,
          "time": 21.61627906976755,
          "velocity": 0.07874015748031496,
          "duration": 0.05813953488372192
        },
        {
          "name": "D#6",
          "midi": 87,
          "time": 21.627906976744296,
          "velocity": 0.1968503937007874,
          "duration": 0.3372093023255971
        },
        {
          "name": "A#2",
          "midi": 46,
          "time": 21.651162790697786,
          "velocity": 0.3464566929133858,
          "duration": 0.04651162790697683
        },
        {
          "name": "F#6",
          "midi": 90,
          "time": 21.651162790697786,
          "velocity": 0.2204724409448819,
          "duration": 0.04651162790697683
        },
        {
          "name": "G#6",
          "midi": 92,
          "time": 21.686046511628017,
          "velocity": 0.1732283464566929,
          "duration": 0.034883720930235285
        },
        {
          "name": "A#2",
          "midi": 46,
          "time": 21.709302325581508,
          "velocity": 0.33070866141732286,
          "duration": 0.034883720930235285
        },
        {
          "name": "G#4",
          "midi": 68,
          "time": 21.732558139534998,
          "velocity": 0.29133858267716534,
          "duration": 0.09302325581395365
        },
        {
          "name": "A#3",
          "midi": 58,
          "time": 21.744186046511743,
          "velocity": 0.47244094488188976,
          "duration": 0.023255813953486637
        },
        {
          "name": "B2",
          "midi": 47,
          "time": 21.76744186046523,
          "velocity": 0.4251968503937008,
          "duration": 0.023255813953486637
        },
        {
          "name": "B3",
          "midi": 59,
          "time": 21.76744186046523,
          "velocity": 0.5118110236220472,
          "duration": 0.03488372093023173
        },
        {
          "name": "D3",
          "midi": 50,
          "time": 21.80232558139546,
          "velocity": 0.3858267716535433,
          "duration": 0.02325581395349019
        },
        {
          "name": "C5",
          "midi": 72,
          "time": 21.80232558139546,
          "velocity": 0.2440944881889764,
          "duration": 0.034883720930235285
        },
        {
          "name": "C#4",
          "midi": 61,
          "time": 21.813953488372206,
          "velocity": 0.5196850393700787,
          "duration": 0.058139534883725474
        },
        {
          "name": "D#3",
          "midi": 51,
          "time": 21.82558139534895,
          "velocity": 0.3858267716535433,
          "duration": 0.02325581395349019
        },
        {
          "name": "C#6",
          "midi": 85,
          "time": 21.82558139534895,
          "velocity": 0.16535433070866143,
          "duration": 0.06976744186047057
        },
        {
          "name": "F#6",
          "midi": 90,
          "time": 21.82558139534895,
          "velocity": 0.2283464566929134,
          "duration": 0.058139534883725474
        },
        {
          "name": "G#6",
          "midi": 92,
          "time": 21.82558139534895,
          "velocity": 0.2047244094488189,
          "duration": 0.08139534883721566
        },
        {
          "name": "A6",
          "midi": 93,
          "time": 21.82558139534895,
          "velocity": 0.1889763779527559,
          "duration": 0.04651162790698038
        },
        {
          "name": "G#4",
          "midi": 68,
          "time": 21.837209302325697,
          "velocity": 0.3700787401574803,
          "duration": 0.04651162790698038
        },
        {
          "name": "E5",
          "midi": 76,
          "time": 21.837209302325697,
          "velocity": 0.4015748031496063,
          "duration": 0.02325581395349019
        },
        {
          "name": "D3",
          "midi": 50,
          "time": 21.84883720930244,
          "velocity": 0.4409448818897638,
          "duration": 0.02325581395349019
        },
        {
          "name": "A#3",
          "midi": 58,
          "time": 21.860465116279187,
          "velocity": 0.31496062992125984,
          "duration": 0.04651162790698038
        },
        {
          "name": "D#5",
          "midi": 75,
          "time": 21.860465116279187,
          "velocity": 0.30708661417322836,
          "duration": 0.08139534883721566
        },
        {
          "name": "F5",
          "midi": 77,
          "time": 21.860465116279187,
          "velocity": 0.47244094488188976,
          "duration": 0.3837209302325668
        },
        {
          "name": "G6",
          "midi": 91,
          "time": 21.860465116279187,
          "velocity": 0.25196850393700787,
          "duration": 0.18604651162791797
        },
        {
          "name": "D4",
          "midi": 62,
          "time": 21.872093023255932,
          "velocity": 0.33070866141732286,
          "duration": 0.02325581395349019
        },
        {
          "name": "G5",
          "midi": 79,
          "time": 21.872093023255932,
          "velocity": 0.48031496062992124,
          "duration": 0.09302325581396076
        },
        {
          "name": "C1",
          "midi": 24,
          "time": 21.883720930232677,
          "velocity": 0.6299212598425197,
          "duration": 0.02325581395349019
        },
        {
          "name": "A5",
          "midi": 81,
          "time": 21.883720930232677,
          "velocity": 0.3779527559055118,
          "duration": 0.34883720930233153
        },
        {
          "name": "D7",
          "midi": 98,
          "time": 21.895348837209422,
          "velocity": 0.10236220472440945,
          "duration": 0.09302325581396076
        },
        {
          "name": "D1",
          "midi": 26,
          "time": 21.906976744186167,
          "velocity": 0.6850393700787402,
          "duration": 0.011627906976745095
        },
        {
          "name": "A2",
          "midi": 45,
          "time": 21.906976744186167,
          "velocity": 0.48031496062992124,
          "duration": 0.02325581395349019
        },
        {
          "name": "D4",
          "midi": 62,
          "time": 21.906976744186167,
          "velocity": 0.25196850393700787,
          "duration": 0.02325581395349019
        },
        {
          "name": "C#5",
          "midi": 73,
          "time": 21.906976744186167,
          "velocity": 0.18110236220472442,
          "duration": 0.04651162790698038
        },
        {
          "name": "C#1",
          "midi": 25,
          "time": 21.918604651162912,
          "velocity": 0.7007874015748031,
          "duration": 0.011627906976745095
        },
        {
          "name": "B0",
          "midi": 23,
          "time": 21.930232558139657,
          "velocity": 0.7165354330708661,
          "duration": 0.04651162790698038
        },
        {
          "name": "F#3",
          "midi": 54,
          "time": 21.930232558139657,
          "velocity": 0.5039370078740157,
          "duration": 0.02325581395349019
        },
        {
          "name": "C6",
          "midi": 84,
          "time": 21.930232558139657,
          "velocity": 0.31496062992125984,
          "duration": 0.31395348837209625
        },
        {
          "name": "E6",
          "midi": 88,
          "time": 21.930232558139657,
          "velocity": 0.14173228346456693,
          "duration": 0.034883720930235285
        },
        {
          "name": "D#4",
          "midi": 63,
          "time": 21.941860465116402,
          "velocity": 0.3228346456692913,
          "duration": 0.33720930232558644
        },
        {
          "name": "A#0",
          "midi": 22,
          "time": 21.976744186046638,
          "velocity": 0.7086614173228346,
          "duration": 0.011627906976745095
        },
        {
          "name": "B0",
          "midi": 23,
          "time": 21.988372093023383,
          "velocity": 0.7322834645669292,
          "duration": 0.5465116279069839
        },
        {
          "name": "D#6",
          "midi": 87,
          "time": 21.988372093023383,
          "velocity": 0.33858267716535434,
          "duration": 0.24418604651162568
        },
        {
          "name": "F2",
          "midi": 41,
          "time": 22.000000000000128,
          "velocity": 0.44881889763779526,
          "duration": 0.02325581395349019
        },
        {
          "name": "C#5",
          "midi": 73,
          "time": 22.000000000000128,
          "velocity": 0.14173228346456693,
          "duration": 0.05813953488372192
        },
        {
          "name": "E3",
          "midi": 52,
          "time": 22.011627906976873,
          "velocity": 0.5118110236220472,
          "duration": 0.011627906976745095
        },
        {
          "name": "D#3",
          "midi": 51,
          "time": 22.046511627907105,
          "velocity": 0.5118110236220472,
          "duration": 0.05813953488371837
        },
        {
          "name": "C5",
          "midi": 72,
          "time": 22.05813953488385,
          "velocity": 0.15748031496062992,
          "duration": 0.046511627906973274
        },
        {
          "name": "F#2",
          "midi": 42,
          "time": 22.081395348837336,
          "velocity": 0.4409448818897638,
          "duration": 0.023255813953486637
        },
        {
          "name": "G6",
          "midi": 91,
          "time": 22.081395348837336,
          "velocity": 0.18110236220472442,
          "duration": 0.12790697674418539
        },
        {
          "name": "E3",
          "midi": 52,
          "time": 22.104651162790823,
          "velocity": 0.5275590551181102,
          "duration": 0.011627906976745095
        },
        {
          "name": "C5",
          "midi": 72,
          "time": 22.116279069767568,
          "velocity": 0.15748031496062992,
          "duration": 0.03488372093023173
        },
        {
          "name": "D#3",
          "midi": 51,
          "time": 22.139534883721055,
          "velocity": 0.5275590551181102,
          "duration": 0.09302325581395365
        },
        {
          "name": "E7",
          "midi": 100,
          "time": 22.162790697674545,
          "velocity": 0.10236220472440945,
          "duration": 0.03488372093023173
        },
        {
          "name": "E7",
          "midi": 100,
          "time": 22.209302325581522,
          "velocity": 0.07086614173228346,
          "duration": 0.04651162790697683
        },
        {
          "name": "D3",
          "midi": 50,
          "time": 22.23255813953501,
          "velocity": 0.49606299212598426,
          "duration": 0.02325581395349019
        },
        {
          "name": "G#5",
          "midi": 80,
          "time": 22.23255813953501,
          "velocity": 0.33858267716535434,
          "duration": 0.04651162790698038
        },
        {
          "name": "B5",
          "midi": 83,
          "time": 22.23255813953501,
          "velocity": 0.1968503937007874,
          "duration": 0.034883720930235285
        },
        {
          "name": "D6",
          "midi": 86,
          "time": 22.23255813953501,
          "velocity": 0.18110236220472442,
          "duration": 0.04651162790698038
        },
        {
          "name": "E6",
          "midi": 88,
          "time": 22.23255813953501,
          "velocity": 0.2283464566929134,
          "duration": 0.02325581395349019
        },
        {
          "name": "C#5",
          "midi": 73,
          "time": 22.244186046511754,
          "velocity": 0.14173228346456693,
          "duration": 0.08139534883720856
        },
        {
          "name": "E5",
          "midi": 76,
          "time": 22.244186046511754,
          "velocity": 0.4015748031496063,
          "duration": 0.02325581395349019
        },
        {
          "name": "D#3",
          "midi": 51,
          "time": 22.2558139534885,
          "velocity": 0.5275590551181102,
          "duration": 0.08139534883720856
        },
        {
          "name": "F#4",
          "midi": 66,
          "time": 22.2558139534885,
          "velocity": 0.14173228346456693,
          "duration": 0.10465116279069875
        },
        {
          "name": "G5",
          "midi": 79,
          "time": 22.2558139534885,
          "velocity": 0.3937007874015748,
          "duration": 0.08139534883720856
        },
        {
          "name": "C#6",
          "midi": 85,
          "time": 22.2558139534885,
          "velocity": 0.18110236220472442,
          "duration": 0.06976744186046346
        },
        {
          "name": "D#6",
          "midi": 87,
          "time": 22.2558139534885,
          "velocity": 0.29133858267716534,
          "duration": 0.12790697674418894
        },
        {
          "name": "D#5",
          "midi": 75,
          "time": 22.267441860465244,
          "velocity": 0.3937007874015748,
          "duration": 0.06976744186046346
        },
        {
          "name": "F5",
          "midi": 77,
          "time": 22.302325581395475,
          "velocity": 0.2204724409448819,
          "duration": 0.04651162790697683
        },
        {
          "name": "E6",
          "midi": 88,
          "time": 22.325581395348962,
          "velocity": 0.12598425196850394,
          "duration": 0.034883720930235285
        },
        {
          "name": "C#5",
          "midi": 73,
          "time": 22.337209302325707,
          "velocity": 0.1968503937007874,
          "duration": 0.034883720930235285
        },
        {
          "name": "D#3",
          "midi": 51,
          "time": 22.348837209302452,
          "velocity": 0.4881889763779528,
          "duration": 0.0930232558139572
        },
        {
          "name": "D#5",
          "midi": 75,
          "time": 22.348837209302452,
          "velocity": 0.33070866141732286,
          "duration": 0.034883720930235285
        },
        {
          "name": "G5",
          "midi": 79,
          "time": 22.348837209302452,
          "velocity": 0.25196850393700787,
          "duration": 0.034883720930235285
        },
        {
          "name": "B5",
          "midi": 83,
          "time": 22.348837209302452,
          "velocity": 0.16535433070866143,
          "duration": 0.034883720930235285
        },
        {
          "name": "D6",
          "midi": 86,
          "time": 22.348837209302452,
          "velocity": 0.2125984251968504,
          "duration": 0.04651162790698038
        },
        {
          "name": "F5",
          "midi": 77,
          "time": 22.360465116279197,
          "velocity": 0.2992125984251969,
          "duration": 0.08139534883721211
        },
        {
          "name": "F#2",
          "midi": 42,
          "time": 22.372093023255943,
          "velocity": 0.4409448818897638,
          "duration": 0.02325581395349019
        },
        {
          "name": "G#5",
          "midi": 80,
          "time": 22.372093023255943,
          "velocity": 0.11023622047244094,
          "duration": 0.034883720930235285
        },
        {
          "name": "D5",
          "midi": 74,
          "time": 22.383720930232688,
          "velocity": 0.2992125984251969,
          "duration": 0.02325581395349019
        },
        {
          "name": "C6",
          "midi": 84,
          "time": 22.383720930232688,
          "velocity": 0.1732283464566929,
          "duration": 0.3720930232558324
        },
        {
          "name": "C#5",
          "midi": 73,
          "time": 22.395348837209433,
          "velocity": 0.1968503937007874,
          "duration": 0.3837209302325775
        },
        {
          "name": "D#6",
          "midi": 87,
          "time": 22.395348837209433,
          "velocity": 0.2047244094488189,
          "duration": 0.08139534883721211
        },
        {
          "name": "A5",
          "midi": 81,
          "time": 22.430232558139664,
          "velocity": 0.07086614173228346,
          "duration": 0.034883720930235285
        },
        {
          "name": "G#5",
          "midi": 80,
          "time": 22.44186046511641,
          "velocity": 0.11811023622047244,
          "duration": 0.034883720930235285
        },
        {
          "name": "D#3",
          "midi": 51,
          "time": 22.453488372093155,
          "velocity": 0.4645669291338583,
          "duration": 0.08139534883721211
        },
        {
          "name": "F5",
          "midi": 77,
          "time": 22.453488372093155,
          "velocity": 0.2047244094488189,
          "duration": 0.1046511627907023
        },
        {
          "name": "A5",
          "midi": 81,
          "time": 22.48837209302339,
          "velocity": 0.1889763779527559,
          "duration": 0.06976744186046702
        },
        {
          "name": "G6",
          "midi": 91,
          "time": 22.48837209302339,
          "velocity": 0.09448818897637795,
          "duration": 0.06976744186046702
        },
        {
          "name": "G5",
          "midi": 79,
          "time": 22.52325581395362,
          "velocity": 0.1968503937007874,
          "duration": 0.04651162790698038
        },
        {
          "name": "D7",
          "midi": 98,
          "time": 22.52325581395362,
          "velocity": 0.33858267716535434,
          "duration": 0.06976744186047057
        },
        {
          "name": "C1",
          "midi": 24,
          "time": 22.534883720930367,
          "velocity": 0.6929133858267716,
          "duration": 0.011627906976745095
        },
        {
          "name": "A6",
          "midi": 93,
          "time": 22.534883720930367,
          "velocity": 0.29133858267716534,
          "duration": 0.06976744186047057
        },
        {
          "name": "A#6",
          "midi": 94,
          "time": 22.534883720930367,
          "velocity": 0.28346456692913385,
          "duration": 0.06976744186047057
        },
        {
          "name": "B6",
          "midi": 95,
          "time": 22.534883720930367,
          "velocity": 0.2755905511811024,
          "duration": 0.058139534883725474
        },
        {
          "name": "C7",
          "midi": 96,
          "time": 22.534883720930367,
          "velocity": 0.2677165354330709,
          "duration": 0.09302325581396076
        },
        {
          "name": "D#7",
          "midi": 99,
          "time": 22.534883720930367,
          "velocity": 0.2992125984251969,
          "duration": 0.06976744186047057
        },
        {
          "name": "E7",
          "midi": 100,
          "time": 22.534883720930367,
          "velocity": 0.2125984251968504,
          "duration": 0.06976744186047057
        },
        {
          "name": "G7",
          "midi": 103,
          "time": 22.534883720930367,
          "velocity": 0.1968503937007874,
          "duration": 0.08139534883721566
        },
        {
          "name": "B0",
          "midi": 23,
          "time": 22.546511627907112,
          "velocity": 0.6929133858267716,
          "duration": 0.639534883720966
        },
        {
          "name": "F#2",
          "midi": 42,
          "time": 22.546511627907112,
          "velocity": 0.4251968503937008,
          "duration": 0.04651162790698038
        },
        {
          "name": "D#3",
          "midi": 51,
          "time": 22.546511627907112,
          "velocity": 0.4409448818897638,
          "duration": 0.02325581395349019
        },
        {
          "name": "D6",
          "midi": 86,
          "time": 22.546511627907112,
          "velocity": 0.11811023622047244,
          "duration": 0.034883720930235285
        },
        {
          "name": "E6",
          "midi": 88,
          "time": 22.546511627907112,
          "velocity": 0.15748031496062992,
          "duration": 0.058139534883725474
        },
        {
          "name": "F#6",
          "midi": 90,
          "time": 22.546511627907112,
          "velocity": 0.18110236220472442,
          "duration": 0.08139534883721566
        },
        {
          "name": "C#7",
          "midi": 97,
          "time": 22.546511627907112,
          "velocity": 0.29133858267716534,
          "duration": 0.09302325581396076
        },
        {
          "name": "F7",
          "midi": 101,
          "time": 22.546511627907112,
          "velocity": 0.2755905511811024,
          "duration": 0.06976744186047057
        },
        {
          "name": "F#5",
          "midi": 78,
          "time": 22.558139534883857,
          "velocity": 0.1732283464566929,
          "duration": 0.09302325581396076
        },
        {
          "name": "G6",
          "midi": 91,
          "time": 22.569767441860602,
          "velocity": 0.08661417322834646,
          "duration": 0.034883720930235285
        },
        {
          "name": "G#6",
          "midi": 92,
          "time": 22.569767441860602,
          "velocity": 0.23622047244094488,
          "duration": 0.02325581395349019
        },
        {
          "name": "F4",
          "midi": 65,
          "time": 22.581395348837347,
          "velocity": 0.2992125984251969,
          "duration": 0.06976744186047057
        },
        {
          "name": "A5",
          "midi": 81,
          "time": 22.627906976744327,
          "velocity": 0.12598425196850394,
          "duration": 0.06976744186047057
        },
        {
          "name": "D#4",
          "midi": 63,
          "time": 22.651162790697818,
          "velocity": 0.30708661417322836,
          "duration": 0.04651162790698038
        },
        {
          "name": "F5",
          "midi": 77,
          "time": 22.662790697674563,
          "velocity": 0.1732283464566929,
          "duration": 0.08139534883721211
        },
        {
          "name": "B5",
          "midi": 83,
          "time": 22.662790697674563,
          "velocity": 0.11811023622047244,
          "duration": 0.04651162790698038
        },
        {
          "name": "D#3",
          "midi": 51,
          "time": 22.674418604651308,
          "velocity": 0.4015748031496063,
          "duration": 0.02325581395349019
        },
        {
          "name": "F4",
          "midi": 65,
          "time": 22.686046511628053,
          "velocity": 0.3228346456692913,
          "duration": 0.04651162790697683
        },
        {
          "name": "D#4",
          "midi": 63,
          "time": 22.709302325581543,
          "velocity": 0.28346456692913385,
          "duration": 0.023255813953486637
        },
        {
          "name": "G4",
          "midi": 67,
          "time": 22.73255813953503,
          "velocity": 0.29133858267716534,
          "duration": 0.02325581395349019
        },
        {
          "name": "A5",
          "midi": 81,
          "time": 22.73255813953503,
          "velocity": 0.1968503937007874,
          "duration": 0.04651162790698038
        },
        {
          "name": "B6",
          "midi": 95,
          "time": 22.73255813953503,
          "velocity": 0.2047244094488189,
          "duration": 0.058139534883725474
        },
        {
          "name": "C#7",
          "midi": 97,
          "time": 22.73255813953503,
          "velocity": 0.1889763779527559,
          "duration": 0.08139534883721566
        },
        {
          "name": "D7",
          "midi": 98,
          "time": 22.73255813953503,
          "velocity": 0.2677165354330709,
          "duration": 0.058139534883725474
        },
        {
          "name": "A3",
          "midi": 57,
          "time": 22.744186046511775,
          "velocity": 0.4881889763779528,
          "duration": 0.02325581395349019
        },
        {
          "name": "D4",
          "midi": 62,
          "time": 22.744186046511775,
          "velocity": 0.41732283464566927,
          "duration": 0.02325581395349019
        },
        {
          "name": "F#5",
          "midi": 78,
          "time": 22.744186046511775,
          "velocity": 0.1732283464566929,
          "duration": 0.034883720930235285
        },
        {
          "name": "A2",
          "midi": 45,
          "time": 22.75581395348852,
          "velocity": 0.49606299212598426,
          "duration": 0.02325581395349019
        },
        {
          "name": "E7",
          "midi": 100,
          "time": 22.75581395348852,
          "velocity": 0.12598425196850394,
          "duration": 0.034883720930235285
        },
        {
          "name": "A#3",
          "midi": 58,
          "time": 22.767441860465265,
          "velocity": 0.47244094488188976,
          "duration": 0.09302325581396076
        },
        {
          "name": "F#4",
          "midi": 66,
          "time": 22.767441860465265,
          "velocity": 0.4015748031496063,
          "duration": 0.18604651162791797
        },
        {
          "name": "B5",
          "midi": 83,
          "time": 22.767441860465265,
          "velocity": 0.15748031496062992,
          "duration": 0.034883720930235285
        },
        {
          "name": "F5",
          "midi": 77,
          "time": 22.77906976744201,
          "velocity": 0.11023622047244094,
          "duration": 0.04651162790698038
        },
        {
          "name": "D#4",
          "midi": 63,
          "time": 22.790697674418755,
          "velocity": 0.3228346456692913,
          "duration": 0.16279069767442778
        },
        {
          "name": "C#5",
          "midi": 73,
          "time": 22.790697674418755,
          "velocity": 0.16535433070866143,
          "duration": 0.3720930232558324
        },
        {
          "name": "C7",
          "midi": 96,
          "time": 22.8023255813955,
          "velocity": 0.10236220472440945,
          "duration": 0.034883720930235285
        },
        {
          "name": "G2",
          "midi": 43,
          "time": 22.813953488372245,
          "velocity": 0.4094488188976378,
          "duration": 0.02325581395349019
        },
        {
          "name": "D7",
          "midi": 98,
          "time": 22.813953488372245,
          "velocity": 0.09448818897637795,
          "duration": 0.034883720930235285
        },
        {
          "name": "C#6",
          "midi": 85,
          "time": 22.84883720930248,
          "velocity": 0.1732283464566929,
          "duration": 0.06976744186046702
        },
        {
          "name": "B2",
          "midi": 47,
          "time": 22.860465116279226,
          "velocity": 0.4409448818897638,
          "duration": 0.03488372093023173
        },
        {
          "name": "A#3",
          "midi": 58,
          "time": 22.883720930232712,
          "velocity": 0.5433070866141733,
          "duration": 0.11627906976745095
        },
        {
          "name": "C#7",
          "midi": 97,
          "time": 22.895348837209458,
          "velocity": 0.2125984251968504,
          "duration": 0.09302325581396076
        },
        {
          "name": "D7",
          "midi": 98,
          "time": 22.895348837209458,
          "velocity": 0.2204724409448819,
          "duration": 0.09302325581396076
        },
        {
          "name": "G2",
          "midi": 43,
          "time": 22.906976744186203,
          "velocity": 0.36220472440944884,
          "duration": 0.02325581395349019
        },
        {
          "name": "C6",
          "midi": 84,
          "time": 22.906976744186203,
          "velocity": 0.07874015748031496,
          "duration": 0.034883720930235285
        },
        {
          "name": "F#7",
          "midi": 102,
          "time": 22.906976744186203,
          "velocity": 0.1968503937007874,
          "duration": 0.058139534883725474
        },
        {
          "name": "G7",
          "midi": 103,
          "time": 22.906976744186203,
          "velocity": 0.1732283464566929,
          "duration": 0.034883720930235285
        },
        {
          "name": "E7",
          "midi": 100,
          "time": 22.918604651162948,
          "velocity": 0.13385826771653545,
          "duration": 0.058139534883725474
        },
        {
          "name": "C7",
          "midi": 96,
          "time": 22.930232558139693,
          "velocity": 0.14960629921259844,
          "duration": 0.08139534883721566
        },
        {
          "name": "D#7",
          "midi": 99,
          "time": 22.930232558139693,
          "velocity": 0.15748031496062992,
          "duration": 0.06976744186047057
        },
        {
          "name": "A5",
          "midi": 81,
          "time": 22.941860465116438,
          "velocity": 0.11023622047244094,
          "duration": 0.04651162790698038
        },
        {
          "name": "F4",
          "midi": 65,
          "time": 22.953488372093183,
          "velocity": 0.3858267716535433,
          "duration": 0.034883720930235285
        },
        {
          "name": "D#4",
          "midi": 63,
          "time": 22.98837209302342,
          "velocity": 0.33858267716535434,
          "duration": 0.13953488372093403
        },
        {
          "name": "F#4",
          "midi": 66,
          "time": 22.98837209302342,
          "velocity": 0.3779527559055118,
          "duration": 0.16279069767442422
        },
        {
          "name": "G3",
          "midi": 55,
          "time": 23.000000000000163,
          "velocity": 0.3858267716535433,
          "duration": 0.02325581395349019
        },
        {
          "name": "A#6",
          "midi": 94,
          "time": 23.01162790697691,
          "velocity": 0.09448818897637795,
          "duration": 0.03488372093023173
        },
        {
          "name": "G3",
          "midi": 55,
          "time": 23.04651162790714,
          "velocity": 0.3464566929133858,
          "duration": 0.02325581395349019
        },
        {
          "name": "G2",
          "midi": 43,
          "time": 23.058139534883885,
          "velocity": 0.3779527559055118,
          "duration": 0.02325581395349019
        },
        {
          "name": "G3",
          "midi": 55,
          "time": 23.09302325581412,
          "velocity": 0.3700787401574803,
          "duration": 0.023255813953486637
        },
        {
          "name": "C#7",
          "midi": 97,
          "time": 23.127906976744352,
          "velocity": 0.14960629921259844,
          "duration": 0.04651162790698038
        },
        {
          "name": "D7",
          "midi": 98,
          "time": 23.127906976744352,
          "velocity": 0.16535433070866143,
          "duration": 0.034883720930235285
        },
        {
          "name": "B6",
          "midi": 95,
          "time": 23.139534883721097,
          "velocity": 0.2755905511811024,
          "duration": 0.06976744186047057
        },
        {
          "name": "C7",
          "midi": 96,
          "time": 23.139534883721097,
          "velocity": 0.2992125984251969,
          "duration": 0.11627906976745095
        },
        {
          "name": "B2",
          "midi": 47,
          "time": 23.151162790697843,
          "velocity": 0.4645669291338583,
          "duration": 0.02325581395349019
        },
        {
          "name": "A#3",
          "midi": 58,
          "time": 23.151162790697843,
          "velocity": 0.5039370078740157,
          "duration": 0.09302325581396076
        },
        {
          "name": "F4",
          "midi": 65,
          "time": 23.151162790697843,
          "velocity": 0.3700787401574803,
          "duration": 0.09302325581396076
        },
        {
          "name": "D#7",
          "midi": 99,
          "time": 23.162790697674588,
          "velocity": 0.2992125984251969,
          "duration": 0.08139534883721566
        },
        {
          "name": "A6",
          "midi": 93,
          "time": 23.174418604651333,
          "velocity": 0.2755905511811024,
          "duration": 0.08139534883721566
        },
        {
          "name": "A#6",
          "midi": 94,
          "time": 23.174418604651333,
          "velocity": 0.3228346456692913,
          "duration": 0.06976744186047057
        },
        {
          "name": "D7",
          "midi": 98,
          "time": 23.174418604651333,
          "velocity": 0.3464566929133858,
          "duration": 0.10465116279070585
        },
        {
          "name": "E7",
          "midi": 100,
          "time": 23.174418604651333,
          "velocity": 0.2755905511811024,
          "duration": 0.08139534883721566
        },
        {
          "name": "C1",
          "midi": 24,
          "time": 23.186046511628078,
          "velocity": 0.5905511811023622,
          "duration": 0.011627906976745095
        },
        {
          "name": "A#5",
          "midi": 82,
          "time": 23.186046511628078,
          "velocity": 0.14173228346456693,
          "duration": 0.034883720930235285
        },
        {
          "name": "D6",
          "midi": 86,
          "time": 23.186046511628078,
          "velocity": 0.11023622047244094,
          "duration": 0.04651162790698038
        },
        {
          "name": "E6",
          "midi": 88,
          "time": 23.186046511628078,
          "velocity": 0.14173228346456693,
          "duration": 0.034883720930235285
        },
        {
          "name": "F#6",
          "midi": 90,
          "time": 23.186046511628078,
          "velocity": 0.1889763779527559,
          "duration": 0.058139534883725474
        },
        {
          "name": "C#7",
          "midi": 97,
          "time": 23.186046511628078,
          "velocity": 0.30708661417322836,
          "duration": 0.06976744186047057
        },
        {
          "name": "F7",
          "midi": 101,
          "time": 23.186046511628078,
          "velocity": 0.30708661417322836,
          "duration": 0.06976744186047057
        },
        {
          "name": "G7",
          "midi": 103,
          "time": 23.186046511628078,
          "velocity": 0.1968503937007874,
          "duration": 0.06976744186047057
        },
        {
          "name": "B0",
          "midi": 23,
          "time": 23.197674418604823,
          "velocity": 0.5748031496062992,
          "duration": 0.011627906976745095
        },
        {
          "name": "C#5",
          "midi": 73,
          "time": 23.197674418604823,
          "velocity": 0.15748031496062992,
          "duration": 0.19767441860465595
        },
        {
          "name": "A#0",
          "midi": 22,
          "time": 23.209302325581568,
          "velocity": 0.5826771653543307,
          "duration": 0.02325581395349019
        },
        {
          "name": "G4",
          "midi": 67,
          "time": 23.220930232558313,
          "velocity": 0.2755905511811024,
          "duration": 0.02325581395349019
        },
        {
          "name": "D#6",
          "midi": 87,
          "time": 23.220930232558313,
          "velocity": 0.13385826771653545,
          "duration": 0.3720930232558217
        },
        {
          "name": "G#6",
          "midi": 92,
          "time": 23.220930232558313,
          "velocity": 0.2204724409448819,
          "duration": 0.04651162790698038
        },
        {
          "name": "B0",
          "midi": 23,
          "time": 23.232558139535058,
          "velocity": 0.5748031496062992,
          "duration": 0.3604651162790766
        },
        {
          "name": "D#5",
          "midi": 75,
          "time": 23.232558139535058,
          "velocity": 0.11023622047244094,
          "duration": 0.08139534883721211
        },
        {
          "name": "G#4",
          "midi": 68,
          "time": 23.244186046511803,
          "velocity": 0.3779527559055118,
          "duration": 0.3604651162790766
        },
        {
          "name": "G#3",
          "midi": 56,
          "time": 23.25581395348855,
          "velocity": 0.31496062992125984,
          "duration": 0.02325581395349019
        },
        {
          "name": "G3",
          "midi": 55,
          "time": 23.27906976744204,
          "velocity": 0.28346456692913385,
          "duration": 0.023255813953486637
        },
        {
          "name": "F#3",
          "midi": 54,
          "time": 23.302325581395525,
          "velocity": 0.28346456692913385,
          "duration": 0.08139534883720856
        },
        {
          "name": "A#3",
          "midi": 58,
          "time": 23.325581395349015,
          "velocity": 0.31496062992125984,
          "duration": 0.11627906976744029
        },
        {
          "name": "F4",
          "midi": 65,
          "time": 23.360465116279247,
          "velocity": 0.25984251968503935,
          "duration": 0.1744186046511622
        },
        {
          "name": "C5",
          "midi": 72,
          "time": 23.39534883720948,
          "velocity": 0.29133858267716534,
          "duration": 0.19767441860465595
        },
        {
          "name": "F3",
          "midi": 53,
          "time": 23.406976744186224,
          "velocity": 0.3779527559055118,
          "duration": 0.19767441860465595
        },
        {
          "name": "G#2",
          "midi": 44,
          "time": 23.441860465116456,
          "velocity": 0.2047244094488189,
          "duration": 0.03488372093023173
        },
        {
          "name": "A#3",
          "midi": 58,
          "time": 23.488372093023433,
          "velocity": 0.1732283464566929,
          "duration": 0.04651162790697683
        },
        {
          "name": "D4",
          "midi": 62,
          "time": 23.546511627907154,
          "velocity": 0.2125984251968504,
          "duration": 0.034883720930235285
        },
        {
          "name": "A#6",
          "midi": 94,
          "time": 23.5581395348839,
          "velocity": 0.14173228346456693,
          "duration": 0.06976744186047057
        },
        {
          "name": "B6",
          "midi": 95,
          "time": 23.5581395348839,
          "velocity": 0.1732283464566929,
          "duration": 0.058139534883725474
        },
        {
          "name": "F#2",
          "midi": 42,
          "time": 23.569767441860645,
          "velocity": 0.2677165354330709,
          "duration": 0.02325581395349019
        },
        {
          "name": "A#4",
          "midi": 70,
          "time": 23.569767441860645,
          "velocity": 0.31496062992125984,
          "duration": 0.034883720930235285
        },
        {
          "name": "D5",
          "midi": 74,
          "time": 23.593023255814135,
          "velocity": 0.2440944881889764,
          "duration": 0.034883720930235285
        },
        {
          "name": "B0",
          "midi": 23,
          "time": 23.60465116279088,
          "velocity": 0.4330708661417323,
          "duration": 0.24418604651163633
        },
        {
          "name": "G4",
          "midi": 67,
          "time": 23.60465116279088,
          "velocity": 0.2283464566929134,
          "duration": 0.02325581395349019
        },
        {
          "name": "B4",
          "midi": 71,
          "time": 23.60465116279088,
          "velocity": 0.29133858267716534,
          "duration": 0.02325581395349019
        },
        {
          "name": "C#3",
          "midi": 49,
          "time": 23.616279069767625,
          "velocity": 0.3464566929133858,
          "duration": 0.02325581395349019
        },
        {
          "name": "D#4",
          "midi": 63,
          "time": 23.616279069767625,
          "velocity": 0.25984251968503935,
          "duration": 0.02325581395349019
        },
        {
          "name": "A#4",
          "midi": 70,
          "time": 23.616279069767625,
          "velocity": 0.2125984251968504,
          "duration": 0.034883720930235285
        },
        {
          "name": "D#3",
          "midi": 51,
          "time": 23.62790697674437,
          "velocity": 0.3779527559055118,
          "duration": 0.1860465116279144
        },
        {
          "name": "A#4",
          "midi": 70,
          "time": 23.662790697674605,
          "velocity": 0.3464566929133858,
          "duration": 0.41860465116279855
        },
        {
          "name": "F6",
          "midi": 89,
          "time": 23.67441860465135,
          "velocity": 0.10236220472440945,
          "duration": 0.32558139534884134
        },
        {
          "name": "D4",
          "midi": 62,
          "time": 23.709302325581582,
          "velocity": 0.14173228346456693,
          "duration": 0.034883720930235285
        },
        {
          "name": "D5",
          "midi": 74,
          "time": 23.720930232558327,
          "velocity": 0.28346456692913385,
          "duration": 0.034883720930235285
        },
        {
          "name": "F#4",
          "midi": 66,
          "time": 23.732558139535072,
          "velocity": 0.1889763779527559,
          "duration": 0.05813953488372192
        },
        {
          "name": "A6",
          "midi": 93,
          "time": 23.744186046511818,
          "velocity": 0.2047244094488189,
          "duration": 0.05813953488372192
        },
        {
          "name": "B3",
          "midi": 59,
          "time": 23.755813953488563,
          "velocity": 0.18110236220472442,
          "duration": 0.04651162790697683
        },
        {
          "name": "D#5",
          "midi": 75,
          "time": 23.755813953488563,
          "velocity": 0.31496062992125984,
          "duration": 0.04651162790697683
        },
        {
          "name": "G6",
          "midi": 91,
          "time": 23.767441860465308,
          "velocity": 0.11023622047244094,
          "duration": 0.03488372093023173
        },
        {
          "name": "D7",
          "midi": 98,
          "time": 23.767441860465308,
          "velocity": 0.07874015748031496,
          "duration": 0.03488372093023173
        },
        {
          "name": "C#5",
          "midi": 73,
          "time": 23.813953488372285,
          "velocity": 0.29133858267716534,
          "duration": 0.05813953488371837
        },
        {
          "name": "C#3",
          "midi": 49,
          "time": 23.848837209302516,
          "velocity": 0.3228346456692913,
          "duration": 0.1860465116279073
        },
        {
          "name": "E4",
          "midi": 64,
          "time": 23.848837209302516,
          "velocity": 0.14173228346456693,
          "duration": 0.03488372093023173
        },
        {
          "name": "G#4",
          "midi": 68,
          "time": 23.94186046511647,
          "velocity": 0.3858267716535433,
          "duration": 0.4534883720930267
        },
        {
          "name": "F4",
          "midi": 65,
          "time": 24.000000000000192,
          "velocity": 0.1889763779527559,
          "duration": 0.04651162790697683
        },
        {
          "name": "D5",
          "midi": 74,
          "time": 24.000000000000192,
          "velocity": 0.2125984251968504,
          "duration": 0.04651162790697683
        },
        {
          "name": "D7",
          "midi": 98,
          "time": 24.000000000000192,
          "velocity": 0.10236220472440945,
          "duration": 0.04651162790697683
        },
        {
          "name": "F5",
          "midi": 77,
          "time": 24.011627906976937,
          "velocity": 0.3858267716535433,
          "duration": 0.4302325581395401
        },
        {
          "name": "A6",
          "midi": 93,
          "time": 24.011627906976937,
          "velocity": 0.12598425196850394,
          "duration": 0.03488372093023173
        },
        {
          "name": "F#1",
          "midi": 30,
          "time": 24.034883720930424,
          "velocity": 0.6850393700787402,
          "duration": 0.02325581395349019
        },
        {
          "name": "C3",
          "midi": 48,
          "time": 24.034883720930424,
          "velocity": 0.3858267716535433,
          "duration": 0.02325581395349019
        },
        {
          "name": "A#3",
          "midi": 58,
          "time": 24.034883720930424,
          "velocity": 0.5039370078740157,
          "duration": 0.04651162790698038
        },
        {
          "name": "D4",
          "midi": 62,
          "time": 24.034883720930424,
          "velocity": 0.2677165354330709,
          "duration": 0.02325581395349019
        },
        {
          "name": "D#6",
          "midi": 87,
          "time": 24.04651162790717,
          "velocity": 0.1732283464566929,
          "duration": 0.5813953488372263
        },
        {
          "name": "C7",
          "midi": 96,
          "time": 24.04651162790717,
          "velocity": 0.14173228346456693,
          "duration": 0.034883720930235285
        },
        {
          "name": "F1",
          "midi": 29,
          "time": 24.058139534883914,
          "velocity": 0.7165354330708661,
          "duration": 0.011627906976745095
        },
        {
          "name": "D#4",
          "midi": 63,
          "time": 24.058139534883914,
          "velocity": 0.25984251968503935,
          "duration": 0.05813953488372192
        },
        {
          "name": "D#1",
          "midi": 27,
          "time": 24.06976744186066,
          "velocity": 0.7480314960629921,
          "duration": 1.2441860465116612
        },
        {
          "name": "A#2",
          "midi": 46,
          "time": 24.081395348837404,
          "velocity": 0.4330708661417323,
          "duration": 0.06976744186046346
        },
        {
          "name": "G3",
          "midi": 55,
          "time": 24.09302325581415,
          "velocity": 0.5039370078740157,
          "duration": 0.3023255813953476
        },
        {
          "name": "C7",
          "midi": 96,
          "time": 24.116279069767636,
          "velocity": 0.07874015748031496,
          "duration": 0.03488372093023173
        },
        {
          "name": "D#4",
          "midi": 63,
          "time": 24.12790697674438,
          "velocity": 0.1889763779527559,
          "duration": 0.046511627906973274
        },
        {
          "name": "A2",
          "midi": 45,
          "time": 24.151162790697867,
          "velocity": 0.4409448818897638,
          "duration": 0.023255813953486637
        },
        {
          "name": "D5",
          "midi": 74,
          "time": 24.151162790697867,
          "velocity": 0.2992125984251969,
          "duration": 0.03488372093023173
        },
        {
          "name": "D#5",
          "midi": 75,
          "time": 24.1860465116281,
          "velocity": 0.2992125984251969,
          "duration": 0.04651162790697683
        },
        {
          "name": "C7",
          "midi": 96,
          "time": 24.1860465116281,
          "velocity": 0.11811023622047244,
          "duration": 0.03488372093023173
        },
        {
          "name": "A#2",
          "midi": 46,
          "time": 24.232558139535076,
          "velocity": 0.4251968503937008,
          "duration": 0.05813953488372192
        },
        {
          "name": "D5",
          "midi": 74,
          "time": 24.232558139535076,
          "velocity": 0.14173228346456693,
          "duration": 0.03488372093023173
        },
        {
          "name": "C7",
          "midi": 96,
          "time": 24.232558139535076,
          "velocity": 0.10236220472440945,
          "duration": 0.04651162790697683
        },
        {
          "name": "A#2",
          "midi": 46,
          "time": 24.302325581395543,
          "velocity": 0.4645669291338583,
          "duration": 0.08139534883720856
        },
        {
          "name": "C#5",
          "midi": 73,
          "time": 24.38372093023275,
          "velocity": 0.3858267716535433,
          "duration": 0.034883720930235285
        },
        {
          "name": "A6",
          "midi": 93,
          "time": 24.38372093023275,
          "velocity": 0.2204724409448819,
          "duration": 0.04651162790698038
        },
        {
          "name": "A#6",
          "midi": 94,
          "time": 24.38372093023275,
          "velocity": 0.14173228346456693,
          "duration": 0.034883720930235285
        },
        {
          "name": "C7",
          "midi": 96,
          "time": 24.38372093023275,
          "velocity": 0.1968503937007874,
          "duration": 0.11627906976745095
        },
        {
          "name": "C#7",
          "midi": 97,
          "time": 24.38372093023275,
          "velocity": 0.2204724409448819,
          "duration": 0.034883720930235285
        },
        {
          "name": "D7",
          "midi": 98,
          "time": 24.38372093023275,
          "velocity": 0.08661417322834646,
          "duration": 0.04651162790698038
        },
        {
          "name": "F#7",
          "midi": 102,
          "time": 24.38372093023275,
          "velocity": 0.13385826771653545,
          "duration": 0.034883720930235285
        },
        {
          "name": "A#2",
          "midi": 46,
          "time": 24.395348837209497,
          "velocity": 0.49606299212598426,
          "duration": 0.058139534883725474
        },
        {
          "name": "G4",
          "midi": 67,
          "time": 24.395348837209497,
          "velocity": 0.47244094488188976,
          "duration": 0.04651162790698038
        },
        {
          "name": "A#4",
          "midi": 70,
          "time": 24.395348837209497,
          "velocity": 0.4330708661417323,
          "duration": 0.058139534883725474
        },
        {
          "name": "G6",
          "midi": 91,
          "time": 24.395348837209497,
          "velocity": 0.28346456692913385,
          "duration": 0.08139534883721566
        },
        {
          "name": "G#6",
          "midi": 92,
          "time": 24.395348837209497,
          "velocity": 0.2125984251968504,
          "duration": 0.034883720930235285
        },
        {
          "name": "A3",
          "midi": 57,
          "time": 24.40697674418624,
          "velocity": 0.5196850393700787,
          "duration": 0.011627906976745095
        },
        {
          "name": "D6",
          "midi": 86,
          "time": 24.40697674418624,
          "velocity": 0.14960629921259844,
          "duration": 0.058139534883725474
        },
        {
          "name": "F#6",
          "midi": 90,
          "time": 24.40697674418624,
          "velocity": 0.25984251968503935,
          "duration": 0.09302325581396076
        },
        {
          "name": "G3",
          "midi": 55,
          "time": 24.418604651162987,
          "velocity": 0.48031496062992124,
          "duration": 0.20930232558140816
        },
        {
          "name": "D5",
          "midi": 74,
          "time": 24.418604651162987,
          "velocity": 0.44881889763779526,
          "duration": 0.034883720930235285
        },
        {
          "name": "G#5",
          "midi": 80,
          "time": 24.430232558139732,
          "velocity": 0.18110236220472442,
          "duration": 0.034883720930235285
        },
        {
          "name": "E4",
          "midi": 64,
          "time": 24.441860465116477,
          "velocity": 0.30708661417322836,
          "duration": 0.02325581395349019
        },
        {
          "name": "G#4",
          "midi": 68,
          "time": 24.441860465116477,
          "velocity": 0.3228346456692913,
          "duration": 0.3023255813953618
        },
        {
          "name": "F#5",
          "midi": 78,
          "time": 24.441860465116477,
          "velocity": 0.30708661417322836,
          "duration": 0.04651162790698038
        },
        {
          "name": "B4",
          "midi": 71,
          "time": 24.453488372093222,
          "velocity": 0.44881889763779526,
          "duration": 0.2674418604651301
        },
        {
          "name": "D#5",
          "midi": 75,
          "time": 24.453488372093222,
          "velocity": 0.4251968503937008,
          "duration": 0.04651162790698038
        },
        {
          "name": "A5",
          "midi": 81,
          "time": 24.453488372093222,
          "velocity": 0.2440944881889764,
          "duration": 0.04651162790698038
        },
        {
          "name": "B3",
          "midi": 59,
          "time": 24.465116279069967,
          "velocity": 0.3779527559055118,
          "duration": 0.04651162790698038
        },
        {
          "name": "F6",
          "midi": 89,
          "time": 24.465116279069967,
          "velocity": 0.14173228346456693,
          "duration": 0.058139534883725474
        },
        {
          "name": "G#6",
          "midi": 92,
          "time": 24.465116279069967,
          "velocity": 0.28346456692913385,
          "duration": 0.02325581395349019
        },
        {
          "name": "A#2",
          "midi": 46,
          "time": 24.488372093023457,
          "velocity": 0.25984251968503935,
          "duration": 0.02325581395349019
        },
        {
          "name": "D#4",
          "midi": 63,
          "time": 24.488372093023457,
          "velocity": 0.1968503937007874,
          "duration": 0.04651162790698038
        },
        {
          "name": "F5",
          "midi": 77,
          "time": 24.500000000000203,
          "velocity": 0.3700787401574803,
          "duration": 0.24418604651163633
        },
        {
          "name": "A#2",
          "midi": 46,
          "time": 24.546511627907183,
          "velocity": 0.41732283464566927,
          "duration": 0.05813953488372192
        },
        {
          "name": "D5",
          "midi": 74,
          "time": 24.59302325581416,
          "velocity": 0.4330708661417323,
          "duration": 0.16279069767442422
        },
        {
          "name": "F#6",
          "midi": 90,
          "time": 24.604651162790905,
          "velocity": 0.28346456692913385,
          "duration": 0.06976744186046702
        },
        {
          "name": "A#2",
          "midi": 46,
          "time": 24.61627906976765,
          "velocity": 0.4251968503937008,
          "duration": 0.0930232558139572
        },
        {
          "name": "A#5",
          "midi": 82,
          "time": 24.61627906976765,
          "velocity": 0.31496062992125984,
          "duration": 0.5813953488372263
        },
        {
          "name": "G#6",
          "midi": 92,
          "time": 24.61627906976765,
          "velocity": 0.1889763779527559,
          "duration": 0.0930232558139572
        },
        {
          "name": "F4",
          "midi": 65,
          "time": 24.627906976744395,
          "velocity": 0.25984251968503935,
          "duration": 0.06976744186046702
        },
        {
          "name": "C6",
          "midi": 84,
          "time": 24.627906976744395,
          "velocity": 0.25984251968503935,
          "duration": 0.16279069767442422
        },
        {
          "name": "G3",
          "midi": 55,
          "time": 24.63953488372114,
          "velocity": 0.4015748031496063,
          "duration": 0.04651162790697683
        },
        {
          "name": "D#6",
          "midi": 87,
          "time": 24.63953488372114,
          "velocity": 0.3779527559055118,
          "duration": 0.04651162790697683
        },
        {
          "name": "E6",
          "midi": 88,
          "time": 24.686046511628117,
          "velocity": 0.33858267716535434,
          "duration": 0.06976744186046702
        },
        {
          "name": "F4",
          "midi": 65,
          "time": 24.709302325581607,
          "velocity": 0.25984251968503935,
          "duration": 0.11627906976744384
        },
        {
          "name": "A#2",
          "midi": 46,
          "time": 24.720930232558352,
          "velocity": 0.3543307086614173,
          "duration": 0.05813953488372192
        },
        {
          "name": "A#4",
          "midi": 70,
          "time": 24.720930232558352,
          "velocity": 0.3700787401574803,
          "duration": 0.04651162790697683
        },
        {
          "name": "D#6",
          "midi": 87,
          "time": 24.755813953488584,
          "velocity": 0.3543307086614173,
          "duration": 0.1279069767441925
        },
        {
          "name": "A#3",
          "midi": 58,
          "time": 24.76744186046533,
          "velocity": 0.4094488188976378,
          "duration": 0.0930232558139572
        },
        {
          "name": "A4",
          "midi": 69,
          "time": 24.76744186046533,
          "velocity": 0.3228346456692913,
          "duration": 0.02325581395349019
        },
        {
          "name": "D5",
          "midi": 74,
          "time": 24.76744186046533,
          "velocity": 0.3858267716535433,
          "duration": 0.36046511627908373
        },
        {
          "name": "G3",
          "midi": 55,
          "time": 24.79069767441882,
          "velocity": 0.3543307086614173,
          "duration": 0.023255813953486637
        },
        {
          "name": "G#4",
          "midi": 68,
          "time": 24.79069767441882,
          "velocity": 0.33070866141732286,
          "duration": 0.04651162790697683
        },
        {
          "name": "F#4",
          "midi": 66,
          "time": 24.82558139534905,
          "velocity": 0.4566929133858268,
          "duration": 0.04651162790698038
        },
        {
          "name": "C6",
          "midi": 84,
          "time": 24.837209302325796,
          "velocity": 0.33858267716535434,
          "duration": 0.2790697674418716
        },
        {
          "name": "A#2",
          "midi": 46,
          "time": 24.84883720930254,
          "velocity": 0.3464566929133858,
          "duration": 0.034883720930235285
        },
        {
          "name": "B4",
          "midi": 71,
          "time": 24.84883720930254,
          "velocity": 0.31496062992125984,
          "duration": 0.02325581395349019
        },
        {
          "name": "F5",
          "midi": 77,
          "time": 24.84883720930254,
          "velocity": 0.3858267716535433,
          "duration": 0.3488372093023351
        },
        {
          "name": "B6",
          "midi": 95,
          "time": 24.84883720930254,
          "velocity": 0.29133858267716534,
          "duration": 0.15116279069768268
        },
        {
          "name": "G#4",
          "midi": 68,
          "time": 24.860465116279286,
          "velocity": 0.31496062992125984,
          "duration": 0.22093023255814614
        },
        {
          "name": "A#3",
          "midi": 58,
          "time": 24.87209302325603,
          "velocity": 0.4015748031496063,
          "duration": 0.3953488372093119
        },
        {
          "name": "E4",
          "midi": 64,
          "time": 24.883720930232776,
          "velocity": 0.3464566929133858,
          "duration": 0.04651162790697683
        },
        {
          "name": "G#5",
          "midi": 80,
          "time": 24.883720930232776,
          "velocity": 0.31496062992125984,
          "duration": 0.22093023255814614
        },
        {
          "name": "E6",
          "midi": 88,
          "time": 24.883720930232776,
          "velocity": 0.3858267716535433,
          "duration": 0.06976744186046702
        },
        {
          "name": "F#6",
          "midi": 90,
          "time": 24.89534883720952,
          "velocity": 0.2677165354330709,
          "duration": 0.04651162790697683
        },
        {
          "name": "A6",
          "midi": 93,
          "time": 24.89534883720952,
          "velocity": 0.2992125984251969,
          "duration": 0.04651162790697683
        },
        {
          "name": "C#7",
          "midi": 97,
          "time": 24.89534883720952,
          "velocity": 0.31496062992125984,
          "duration": 0.0930232558139572
        },
        {
          "name": "D#7",
          "midi": 99,
          "time": 24.89534883720952,
          "velocity": 0.31496062992125984,
          "duration": 0.1046511627907023
        },
        {
          "name": "G7",
          "midi": 103,
          "time": 24.89534883720952,
          "velocity": 0.2125984251968504,
          "duration": 0.08139534883721211
        },
        {
          "name": "A#2",
          "midi": 46,
          "time": 24.918604651163008,
          "velocity": 0.33070866141732286,
          "duration": 0.02325581395349019
        },
        {
          "name": "F#6",
          "midi": 90,
          "time": 24.953488372093243,
          "velocity": 0.30708661417322836,
          "duration": 0.1860465116279144
        },
        {
          "name": "E6",
          "midi": 88,
          "time": 24.96511627906999,
          "velocity": 0.30708661417322836,
          "duration": 0.04651162790698038
        },
        {
          "name": "A#2",
          "midi": 46,
          "time": 24.976744186046734,
          "velocity": 0.33858267716535434,
          "duration": 0.034883720930235285
        },
        {
          "name": "F4",
          "midi": 65,
          "time": 25.01162790697697,
          "velocity": 0.1968503937007874,
          "duration": 0.09302325581395365
        },
        {
          "name": "D#6",
          "midi": 87,
          "time": 25.01162790697697,
          "velocity": 0.29133858267716534,
          "duration": 0.02325581395349019
        },
        {
          "name": "E6",
          "midi": 88,
          "time": 25.023255813953714,
          "velocity": 0.29133858267716534,
          "duration": 0.03488372093023173
        },
        {
          "name": "D#6",
          "midi": 87,
          "time": 25.058139534883946,
          "velocity": 0.4094488188976378,
          "duration": 0.6162790697674687
        },
        {
          "name": "G#4",
          "midi": 68,
          "time": 25.093023255814177,
          "velocity": 0.3543307086614173,
          "duration": 0.17441860465116577
        },
        {
          "name": "A#2",
          "midi": 46,
          "time": 25.104651162790923,
          "velocity": 0.3464566929133858,
          "duration": 0.04651162790698038
        },
        {
          "name": "G5",
          "midi": 79,
          "time": 25.104651162790923,
          "velocity": 0.08661417322834646,
          "duration": 0.034883720930235285
        },
        {
          "name": "D#3",
          "midi": 51,
          "time": 25.151162790697903,
          "velocity": 0.30708661417322836,
          "duration": 0.05813953488371837
        },
        {
          "name": "A#2",
          "midi": 46,
          "time": 25.17441860465139,
          "velocity": 0.2283464566929134,
          "duration": 0.023255813953486637
        },
        {
          "name": "F5",
          "midi": 77,
          "time": 25.232558139535108,
          "velocity": 0.14960629921259844,
          "duration": 0.034883720930235285
        },
        {
          "name": "D3",
          "midi": 50,
          "time": 25.244186046511853,
          "velocity": 0.4566929133858268,
          "duration": 0.034883720930235285
        },
        {
          "name": "C#4",
          "midi": 61,
          "time": 25.244186046511853,
          "velocity": 0.4251968503937008,
          "duration": 0.06976744186046702
        },
        {
          "name": "D5",
          "midi": 74,
          "time": 25.255813953488598,
          "velocity": 0.29133858267716534,
          "duration": 0.02325581395349019
        },
        {
          "name": "C#6",
          "midi": 85,
          "time": 25.255813953488598,
          "velocity": 0.2440944881889764,
          "duration": 0.13953488372093759
        },
        {
          "name": "F#6",
          "midi": 90,
          "time": 25.267441860465343,
          "velocity": 0.2677165354330709,
          "duration": 0.06976744186046702
        },
        {
          "name": "G#4",
          "midi": 68,
          "time": 25.27906976744209,
          "velocity": 0.3464566929133858,
          "duration": 0.06976744186046702
        },
        {
          "name": "F5",
          "midi": 77,
          "time": 25.27906976744209,
          "velocity": 0.44881889763779526,
          "duration": 0.04651162790697683
        },
        {
          "name": "B5",
          "midi": 83,
          "time": 25.302325581395575,
          "velocity": 0.18110236220472442,
          "duration": 0.034883720930235285
        },
        {
          "name": "C#1",
          "midi": 25,
          "time": 25.31395348837232,
          "velocity": 0.5275590551181102,
          "duration": 0.011627906976745095
        },
        {
          "name": "A#2",
          "midi": 46,
          "time": 25.31395348837232,
          "velocity": 0.41732283464566927,
          "duration": 0.02325581395349019
        },
        {
          "name": "D#4",
          "midi": 63,
          "time": 25.31395348837232,
          "velocity": 0.41732283464566927,
          "duration": 0.23255813953489834
        },
        {
          "name": "B0",
          "midi": 23,
          "time": 25.325581395349065,
          "velocity": 0.5905511811023622,
          "duration": 0.011627906976745095
        },
        {
          "name": "F3",
          "midi": 53,
          "time": 25.325581395349065,
          "velocity": 0.4881889763779528,
          "duration": 0.02325581395349019
        },
        {
          "name": "G6",
          "midi": 91,
          "time": 25.325581395349065,
          "velocity": 0.14173228346456693,
          "duration": 0.04651162790698038
        },
        {
          "name": "A6",
          "midi": 93,
          "time": 25.325581395349065,
          "velocity": 0.13385826771653545,
          "duration": 0.04651162790698038
        },
        {
          "name": "C#1",
          "midi": 25,
          "time": 25.33720930232581,
          "velocity": 0.6692913385826772,
          "duration": 0.011627906976745095
        },
        {
          "name": "G5",
          "midi": 79,
          "time": 25.33720930232581,
          "velocity": 0.3858267716535433,
          "duration": 0.058139534883725474
        },
        {
          "name": "D1",
          "midi": 26,
          "time": 25.348837209302555,
          "velocity": 0.7007874015748031,
          "duration": 0.011627906976745095
        },
        {
          "name": "F#3",
          "midi": 54,
          "time": 25.348837209302555,
          "velocity": 0.4566929133858268,
          "duration": 0.02325581395349019
        },
        {
          "name": "C4",
          "midi": 60,
          "time": 25.348837209302555,
          "velocity": 0.23622047244094488,
          "duration": 0.02325581395349019
        },
        {
          "name": "E7",
          "midi": 100,
          "time": 25.348837209302555,
          "velocity": 0.07086614173228346,
          "duration": 0.034883720930235285
        },
        {
          "name": "B0",
          "midi": 23,
          "time": 25.3604651162793,
          "velocity": 0.7165354330708661,
          "duration": 0.04651162790698038
        },
        {
          "name": "F3",
          "midi": 53,
          "time": 25.372093023256046,
          "velocity": 0.5354330708661418,
          "duration": 0.011627906976745095
        },
        {
          "name": "F#4",
          "midi": 66,
          "time": 25.372093023256046,
          "velocity": 0.23622047244094488,
          "duration": 0.02325581395349019
        },
        {
          "name": "C#5",
          "midi": 73,
          "time": 25.372093023256046,
          "velocity": 0.16535433070866143,
          "duration": 0.06976744186047057
        },
        {
          "name": "F5",
          "midi": 77,
          "time": 25.38372093023279,
          "velocity": 0.4566929133858268,
          "duration": 0.37209302325583593
        },
        {
          "name": "A5",
          "midi": 81,
          "time": 25.38372093023279,
          "velocity": 0.3779527559055118,
          "duration": 0.313953488372114
        },
        {
          "name": "C6",
          "midi": 84,
          "time": 25.395348837209536,
          "velocity": 0.29133858267716534,
          "duration": 0.17441860465117287
        },
        {
          "name": "G6",
          "midi": 91,
          "time": 25.395348837209536,
          "velocity": 0.11811023622047244,
          "duration": 0.034883720930235285
        },
        {
          "name": "A#0",
          "midi": 22,
          "time": 25.40697674418628,
          "velocity": 0.7165354330708661,
          "duration": 0.011627906976745095
        },
        {
          "name": "D#3",
          "midi": 51,
          "time": 25.40697674418628,
          "velocity": 0.5275590551181102,
          "duration": 0.058139534883725474
        },
        {
          "name": "F#4",
          "midi": 66,
          "time": 25.40697674418628,
          "velocity": 0.2440944881889764,
          "duration": 0.02325581395349019
        },
        {
          "name": "F#7",
          "midi": 102,
          "time": 25.40697674418628,
          "velocity": 0.1889763779527559,
          "duration": 0.19767441860466306
        },
        {
          "name": "B0",
          "midi": 23,
          "time": 25.418604651163026,
          "velocity": 0.7244094488188977,
          "duration": 0.18604651162791797
        },
        {
          "name": "C5",
          "midi": 72,
          "time": 25.43023255813977,
          "velocity": 0.18110236220472442,
          "duration": 0.0930232558139572
        },
        {
          "name": "F#4",
          "midi": 66,
          "time": 25.45348837209326,
          "velocity": 0.29133858267716534,
          "duration": 0.02325581395349019
        },
        {
          "name": "D3",
          "midi": 50,
          "time": 25.465116279070006,
          "velocity": 0.5275590551181102,
          "duration": 0.011627906976745095
        },
        {
          "name": "D#3",
          "midi": 51,
          "time": 25.47674418604675,
          "velocity": 0.5433070866141733,
          "duration": 0.04651162790697683
        },
        {
          "name": "F#4",
          "midi": 66,
          "time": 25.488372093023496,
          "velocity": 0.31496062992125984,
          "duration": 0.023255813953486637
        },
        {
          "name": "D3",
          "midi": 50,
          "time": 25.523255813953728,
          "velocity": 0.5196850393700787,
          "duration": 0.011627906976745095
        },
        {
          "name": "F#4",
          "midi": 66,
          "time": 25.523255813953728,
          "velocity": 0.3228346456692913,
          "duration": 0.058139534883725474
        },
        {
          "name": "E3",
          "midi": 52,
          "time": 25.534883720930473,
          "velocity": 0.5196850393700787,
          "duration": 0.011627906976745095
        },
        {
          "name": "D#3",
          "midi": 51,
          "time": 25.54651162790722,
          "velocity": 0.5118110236220472,
          "duration": 0.011627906976745095
        },
        {
          "name": "G#2",
          "midi": 44,
          "time": 25.558139534883964,
          "velocity": 0.49606299212598426,
          "duration": 0.02325581395349019
        },
        {
          "name": "D#4",
          "midi": 63,
          "time": 25.558139534883964,
          "velocity": 0.2755905511811024,
          "duration": 0.058139534883725474
        },
        {
          "name": "C#5",
          "midi": 73,
          "time": 25.558139534883964,
          "velocity": 0.2440944881889764,
          "duration": 0.02325581395349019
        },
        {
          "name": "D#3",
          "midi": 51,
          "time": 25.56976744186071,
          "velocity": 0.5354330708661418,
          "duration": 0.02325581395349019
        },
        {
          "name": "A#4",
          "midi": 70,
          "time": 25.56976744186071,
          "velocity": 0.3700787401574803,
          "duration": 0.5465116279070088
        },
        {
          "name": "C#6",
          "midi": 85,
          "time": 25.56976744186071,
          "velocity": 0.29133858267716534,
          "duration": 0.02325581395349019
        },
        {
          "name": "C5",
          "midi": 72,
          "time": 25.581395348837454,
          "velocity": 0.2440944881889764,
          "duration": 0.09302325581396076
        },
        {
          "name": "D3",
          "midi": 50,
          "time": 25.5930232558142,
          "velocity": 0.5118110236220472,
          "duration": 0.011627906976745095
        },
        {
          "name": "C6",
          "midi": 84,
          "time": 25.5930232558142,
          "velocity": 0.30708661417322836,
          "duration": 0.10465116279070585
        },
        {
          "name": "A#0",
          "midi": 22,
          "time": 25.604651162790944,
          "velocity": 0.7165354330708661,
          "duration": 0.011627906976745095
        },
        {
          "name": "D#3",
          "midi": 51,
          "time": 25.604651162790944,
          "velocity": 0.5118110236220472,
          "duration": 0.02325581395349019
        },
        {
          "name": "F4",
          "midi": 65,
          "time": 25.604651162790944,
          "velocity": 0.2992125984251969,
          "duration": 0.034883720930235285
        },
        {
          "name": "B0",
          "midi": 23,
          "time": 25.61627906976769,
          "velocity": 0.7244094488188977,
          "duration": 1.4069767441860925
        },
        {
          "name": "F#2",
          "midi": 42,
          "time": 25.627906976744434,
          "velocity": 0.4645669291338583,
          "duration": 0.02325581395349019
        },
        {
          "name": "D#4",
          "midi": 63,
          "time": 25.627906976744434,
          "velocity": 0.33070866141732286,
          "duration": 0.034883720930235285
        },
        {
          "name": "D#3",
          "midi": 51,
          "time": 25.63953488372118,
          "velocity": 0.5118110236220472,
          "duration": 0.08139534883721566
        },
        {
          "name": "F#4",
          "midi": 66,
          "time": 25.63953488372118,
          "velocity": 0.25984251968503935,
          "duration": 0.02325581395349019
        },
        {
          "name": "F#2",
          "midi": 42,
          "time": 25.66279069767467,
          "velocity": 0.4566929133858268,
          "duration": 0.02325581395349019
        },
        {
          "name": "E4",
          "midi": 64,
          "time": 25.674418604651414,
          "velocity": 0.41732283464566927,
          "duration": 0.02325581395349019
        },
        {
          "name": "C#5",
          "midi": 73,
          "time": 25.674418604651414,
          "velocity": 0.25984251968503935,
          "duration": 0.22093023255814614
        },
        {
          "name": "G5",
          "midi": 79,
          "time": 25.674418604651414,
          "velocity": 0.36220472440944884,
          "duration": 0.15116279069767913
        },
        {
          "name": "D#5",
          "midi": 75,
          "time": 25.68604651162816,
          "velocity": 0.4330708661417323,
          "duration": 0.18604651162791086
        },
        {
          "name": "F#2",
          "midi": 42,
          "time": 25.70930232558165,
          "velocity": 0.44881889763779526,
          "duration": 0.02325581395349019
        },
        {
          "name": "C6",
          "midi": 84,
          "time": 25.720930232558395,
          "velocity": 0.18110236220472442,
          "duration": 0.04651162790697683
        },
        {
          "name": "D#3",
          "midi": 51,
          "time": 25.73255813953514,
          "velocity": 0.3700787401574803,
          "duration": 0.023255813953486637
        },
        {
          "name": "A5",
          "midi": 81,
          "time": 25.73255813953514,
          "velocity": 0.15748031496062992,
          "duration": 0.04651162790697683
        },
        {
          "name": "F#4",
          "midi": 66,
          "time": 25.755813953488627,
          "velocity": 0.13385826771653545,
          "duration": 0.034883720930235285
        },
        {
          "name": "D#3",
          "midi": 51,
          "time": 25.76744186046537,
          "velocity": 0.4645669291338583,
          "duration": 0.05813953488372192
        },
        {
          "name": "F#2",
          "midi": 42,
          "time": 25.779069767442117,
          "velocity": 0.44881889763779526,
          "duration": 0.03488372093023173
        },
        {
          "name": "D7",
          "midi": 98,
          "time": 25.779069767442117,
          "velocity": 0.10236220472440945,
          "duration": 0.03488372093023173
        },
        {
          "name": "E3",
          "midi": 52,
          "time": 25.825581395349094,
          "velocity": 0.3937007874015748,
          "duration": 0.02325581395349019
        },
        {
          "name": "G#4",
          "midi": 68,
          "time": 25.825581395349094,
          "velocity": 0.23622047244094488,
          "duration": 0.05813953488372192
        },
        {
          "name": "F5",
          "midi": 77,
          "time": 25.825581395349094,
          "velocity": 0.2283464566929134,
          "duration": 0.08139534883721211
        },
        {
          "name": "C#4",
          "midi": 61,
          "time": 25.83720930232584,
          "velocity": 0.4566929133858268,
          "duration": 0.03488372093023173
        },
        {
          "name": "F4",
          "midi": 65,
          "time": 25.83720930232584,
          "velocity": 0.31496062992125984,
          "duration": 0.04651162790697683
        },
        {
          "name": "C6",
          "midi": 84,
          "time": 25.83720930232584,
          "velocity": 0.15748031496062992,
          "duration": 0.04651162790697683
        },
        {
          "name": "D3",
          "midi": 50,
          "time": 25.848837209302584,
          "velocity": 0.5039370078740157,
          "duration": 0.03488372093023173
        },
        {
          "name": "D7",
          "midi": 98,
          "time": 25.848837209302584,
          "velocity": 0.11811023622047244,
          "duration": 0.08139534883721211
        },
        {
          "name": "F#2",
          "midi": 42,
          "time": 25.87209302325607,
          "velocity": 0.4251968503937008,
          "duration": 0.02325581395349019
        },
        {
          "name": "A5",
          "midi": 81,
          "time": 25.87209302325607,
          "velocity": 0.14960629921259844,
          "duration": 0.04651162790698038
        },
        {
          "name": "D#3",
          "midi": 51,
          "time": 25.883720930232816,
          "velocity": 0.4566929133858268,
          "duration": 0.09302325581396076
        },
        {
          "name": "B3",
          "midi": 59,
          "time": 25.883720930232816,
          "velocity": 0.4251968503937008,
          "duration": 0.04651162790698038
        },
        {
          "name": "D#5",
          "midi": 75,
          "time": 25.89534883720956,
          "velocity": 0.18110236220472442,
          "duration": 0.04651162790698038
        },
        {
          "name": "F#2",
          "midi": 42,
          "time": 25.906976744186306,
          "velocity": 0.4409448818897638,
          "duration": 0.034883720930235285
        },
        {
          "name": "F4",
          "midi": 65,
          "time": 25.906976744186306,
          "velocity": 0.36220472440944884,
          "duration": 0.058139534883725474
        },
        {
          "name": "C6",
          "midi": 84,
          "time": 25.906976744186306,
          "velocity": 0.1889763779527559,
          "duration": 0.17441860465117642
        },
        {
          "name": "A#3",
          "midi": 58,
          "time": 25.930232558139796,
          "velocity": 0.3700787401574803,
          "duration": 0.058139534883725474
        },
        {
          "name": "E6",
          "midi": 88,
          "time": 25.930232558139796,
          "velocity": 0.14173228346456693,
          "duration": 0.06976744186047057
        },
        {
          "name": "F#2",
          "midi": 42,
          "time": 25.953488372093286,
          "velocity": 0.4251968503937008,
          "duration": 0.02325581395349019
        },
        {
          "name": "C#5",
          "midi": 73,
          "time": 25.953488372093286,
          "velocity": 0.31496062992125984,
          "duration": 0.18604651162792152
        },
        {
          "name": "F#6",
          "midi": 90,
          "time": 25.953488372093286,
          "velocity": 0.1732283464566929,
          "duration": 0.08139534883721566
        },
        {
          "name": "E4",
          "midi": 64,
          "time": 25.96511627907003,
          "velocity": 0.36220472440944884,
          "duration": 0.02325581395349019
        },
        {
          "name": "A6",
          "midi": 93,
          "time": 25.96511627907003,
          "velocity": 0.29133858267716534,
          "duration": 0.04651162790698038
        },
        {
          "name": "A#6",
          "midi": 94,
          "time": 25.96511627907003,
          "velocity": 0.29133858267716534,
          "duration": 0.06976744186047057
        },
        {
          "name": "B6",
          "midi": 95,
          "time": 25.96511627907003,
          "velocity": 0.2440944881889764,
          "duration": 0.034883720930235285
        },
        {
          "name": "C7",
          "midi": 96,
          "time": 25.96511627907003,
          "velocity": 0.2992125984251969,
          "duration": 0.09302325581396076
        },
        {
          "name": "D7",
          "midi": 98,
          "time": 25.96511627907003,
          "velocity": 0.2992125984251969,
          "duration": 0.058139534883725474
        },
        {
          "name": "E7",
          "midi": 100,
          "time": 25.96511627907003,
          "velocity": 0.2283464566929134,
          "duration": 0.08139534883721566
        },
        {
          "name": "D#6",
          "midi": 87,
          "time": 25.976744186046776,
          "velocity": 0.14173228346456693,
          "duration": 0.12790697674419604
        },
        {
          "name": "C#7",
          "midi": 97,
          "time": 25.976744186046776,
          "velocity": 0.2992125984251969,
          "duration": 0.08139534883721566
        },
        {
          "name": "D#7",
          "midi": 99,
          "time": 25.976744186046776,
          "velocity": 0.2755905511811024,
          "duration": 0.09302325581396076
        },
        {
          "name": "F#7",
          "midi": 102,
          "time": 25.976744186046776,
          "velocity": 0.1732283464566929,
          "duration": 0.04651162790698038
        },
        {
          "name": "G7",
          "midi": 103,
          "time": 25.976744186046776,
          "velocity": 0.14173228346456693,
          "duration": 0.04651162790698038
        },
        {
          "name": "B3",
          "midi": 59,
          "time": 25.98837209302352,
          "velocity": 0.2677165354330709,
          "duration": 0.08139534883721566
        },
        {
          "name": "F4",
          "midi": 65,
          "time": 25.98837209302352,
          "velocity": 0.33858267716535434,
          "duration": 0.10465116279070585
        },
        {
          "name": "D#5",
          "midi": 75,
          "time": 25.98837209302352,
          "velocity": 0.11023622047244094,
          "duration": 0.10465116279070585
        },
        {
          "name": "G#6",
          "midi": 92,
          "time": 25.98837209302352,
          "velocity": 0.1968503937007874,
          "duration": 0.04651162790698038
        },
        {
          "name": "G2",
          "midi": 43,
          "time": 26.000000000000266,
          "velocity": 0.41732283464566927,
          "duration": 0.02325581395349019
        },
        {
          "name": "D#3",
          "midi": 51,
          "time": 26.000000000000266,
          "velocity": 0.4566929133858268,
          "duration": 0.09302325581396076
        },
        {
          "name": "A5",
          "midi": 81,
          "time": 26.023255813953757,
          "velocity": 0.12598425196850394,
          "duration": 0.13953488372094114
        },
        {
          "name": "F#2",
          "midi": 42,
          "time": 26.0348837209305,
          "velocity": 0.41732283464566927,
          "duration": 0.02325581395349019
        },
        {
          "name": "G6",
          "midi": 91,
          "time": 26.046511627907247,
          "velocity": 0.08661417322834646,
          "duration": 0.06976744186047057
        },
        {
          "name": "F#5",
          "midi": 78,
          "time": 26.058139534883992,
          "velocity": 0.10236220472440945,
          "duration": 0.058139534883725474
        },
        {
          "name": "C4",
          "midi": 60,
          "time": 26.104651162790972,
          "velocity": 0.33858267716535434,
          "duration": 0.02325581395349019
        },
        {
          "name": "D#4",
          "midi": 63,
          "time": 26.104651162790972,
          "velocity": 0.3228346456692913,
          "duration": 0.034883720930235285
        },
        {
          "name": "F#2",
          "midi": 42,
          "time": 26.116279069767717,
          "velocity": 0.4094488188976378,
          "duration": 0.02325581395349019
        },
        {
          "name": "G#4",
          "midi": 68,
          "time": 26.116279069767717,
          "velocity": 0.2677165354330709,
          "duration": 0.02325581395349019
        },
        {
          "name": "D#5",
          "midi": 75,
          "time": 26.116279069767717,
          "velocity": 0.4094488188976378,
          "duration": 0.034883720930235285
        },
        {
          "name": "C6",
          "midi": 84,
          "time": 26.116279069767717,
          "velocity": 0.23622047244094488,
          "duration": 0.08139534883721566
        },
        {
          "name": "F#6",
          "midi": 90,
          "time": 26.116279069767717,
          "velocity": 0.2047244094488189,
          "duration": 0.08139534883721566
        },
        {
          "name": "G#6",
          "midi": 92,
          "time": 26.116279069767717,
          "velocity": 0.33070866141732286,
          "duration": 0.1046511627907023
        },
        {
          "name": "A6",
          "midi": 93,
          "time": 26.116279069767717,
          "velocity": 0.2755905511811024,
          "duration": 0.1046511627907023
        },
        {
          "name": "E6",
          "midi": 88,
          "time": 26.127906976744462,
          "velocity": 0.12598425196850394,
          "duration": 0.034883720930235285
        },
        {
          "name": "G6",
          "midi": 91,
          "time": 26.127906976744462,
          "velocity": 0.25196850393700787,
          "duration": 0.02325581395349019
        },
        {
          "name": "F7",
          "midi": 101,
          "time": 26.127906976744462,
          "velocity": 0.11811023622047244,
          "duration": 0.058139534883725474
        },
        {
          "name": "D#3",
          "midi": 51,
          "time": 26.139534883721208,
          "velocity": 0.4251968503937008,
          "duration": 0.04651162790698038
        },
        {
          "name": "A#3",
          "midi": 58,
          "time": 26.139534883721208,
          "velocity": 0.3700787401574803,
          "duration": 0.1046511627907023
        },
        {
          "name": "F5",
          "midi": 77,
          "time": 26.139534883721208,
          "velocity": 0.4566929133858268,
          "duration": 0.1162790697674474
        },
        {
          "name": "D6",
          "midi": 86,
          "time": 26.139534883721208,
          "velocity": 0.12598425196850394,
          "duration": 0.058139534883725474
        },
        {
          "name": "C#5",
          "midi": 73,
          "time": 26.162790697674698,
          "velocity": 0.3858267716535433,
          "duration": 0.06976744186046702
        },
        {
          "name": "D#6",
          "midi": 87,
          "time": 26.162790697674698,
          "velocity": 0.12598425196850394,
          "duration": 0.034883720930235285
        },
        {
          "name": "G5",
          "midi": 79,
          "time": 26.174418604651443,
          "velocity": 0.15748031496062992,
          "duration": 0.06976744186046702
        },
        {
          "name": "B6",
          "midi": 95,
          "time": 26.186046511628188,
          "velocity": 0.2677165354330709,
          "duration": 0.05813953488372192
        },
        {
          "name": "F#2",
          "midi": 42,
          "time": 26.197674418604933,
          "velocity": 0.3858267716535433,
          "duration": 0.023255813953486637
        },
        {
          "name": "F4",
          "midi": 65,
          "time": 26.22093023255842,
          "velocity": 0.2755905511811024,
          "duration": 0.02325581395349019
        },
        {
          "name": "D#3",
          "midi": 51,
          "time": 26.232558139535165,
          "velocity": 0.3937007874015748,
          "duration": 0.02325581395349019
        },
        {
          "name": "F#4",
          "midi": 66,
          "time": 26.24418604651191,
          "velocity": 0.4015748031496063,
          "duration": 0.3604651162790766
        },
        {
          "name": "C#5",
          "midi": 73,
          "time": 26.24418604651191,
          "velocity": 0.15748031496062992,
          "duration": 0.11627906976744384
        },
        {
          "name": "C#6",
          "midi": 85,
          "time": 26.24418604651191,
          "velocity": 0.2047244094488189,
          "duration": 0.12790697674418894
        },
        {
          "name": "A#3",
          "midi": 58,
          "time": 26.255813953488655,
          "velocity": 0.5275590551181102,
          "duration": 0.08139534883720856
        },
        {
          "name": "F#2",
          "midi": 42,
          "time": 26.27906976744214,
          "velocity": 0.3937007874015748,
          "duration": 0.023255813953486637
        },
        {
          "name": "A2",
          "midi": 45,
          "time": 26.30232558139563,
          "velocity": 0.4015748031496063,
          "duration": 0.02325581395349019
        },
        {
          "name": "C7",
          "midi": 96,
          "time": 26.313953488372373,
          "velocity": 0.1889763779527559,
          "duration": 0.0930232558139572
        },
        {
          "name": "C#7",
          "midi": 97,
          "time": 26.313953488372373,
          "velocity": 0.25984251968503935,
          "duration": 0.0930232558139572
        },
        {
          "name": "E7",
          "midi": 100,
          "time": 26.313953488372373,
          "velocity": 0.14173228346456693,
          "duration": 0.0930232558139572
        },
        {
          "name": "B3",
          "midi": 59,
          "time": 26.337209302325864,
          "velocity": 0.4881889763779528,
          "duration": 0.11627906976744384
        },
        {
          "name": "C3",
          "midi": 48,
          "time": 26.34883720930261,
          "velocity": 0.47244094488188976,
          "duration": 0.02325581395349019
        },
        {
          "name": "D#4",
          "midi": 63,
          "time": 26.34883720930261,
          "velocity": 0.25984251968503935,
          "duration": 0.02325581395349019
        },
        {
          "name": "F5",
          "midi": 77,
          "time": 26.34883720930261,
          "velocity": 0.14173228346456693,
          "duration": 0.10465116279069875
        },
        {
          "name": "D#4",
          "midi": 63,
          "time": 26.40697674418633,
          "velocity": 0.29133858267716534,
          "duration": 0.16279069767442067
        },
        {
          "name": "C#5",
          "midi": 73,
          "time": 26.40697674418633,
          "velocity": 0.1732283464566929,
          "duration": 0.20930232558140105
        },
        {
          "name": "C#6",
          "midi": 85,
          "time": 26.40697674418633,
          "velocity": 0.1968503937007874,
          "duration": 0.20930232558140105
        },
        {
          "name": "F6",
          "midi": 89,
          "time": 26.40697674418633,
          "velocity": 0.1732283464566929,
          "duration": 0.22093023255814614
        },
        {
          "name": "F#3",
          "midi": 54,
          "time": 26.441860465116562,
          "velocity": 0.2755905511811024,
          "duration": 0.02325581395349019
        },
        {
          "name": "B3",
          "midi": 59,
          "time": 26.465116279070052,
          "velocity": 0.15748031496062992,
          "duration": 0.03488372093023173
        },
        {
          "name": "A5",
          "midi": 81,
          "time": 26.500000000000284,
          "velocity": 0.14960629921259844,
          "duration": 0.05813953488372192
        },
        {
          "name": "F#3",
          "midi": 54,
          "time": 26.51162790697703,
          "velocity": 0.36220472440944884,
          "duration": 0.023255813953486637
        },
        {
          "name": "F5",
          "midi": 77,
          "time": 26.534883720930516,
          "velocity": 0.15748031496062992,
          "duration": 0.1162790697674474
        },
        {
          "name": "F#3",
          "midi": 54,
          "time": 26.54651162790726,
          "velocity": 0.28346456692913385,
          "duration": 0.04651162790698038
        },
        {
          "name": "G#2",
          "midi": 44,
          "time": 26.558139534884006,
          "velocity": 0.31496062992125984,
          "duration": 0.02325581395349019
        },
        {
          "name": "C3",
          "midi": 48,
          "time": 26.581395348837496,
          "velocity": 0.4330708661417323,
          "duration": 0.04651162790698038
        },
        {
          "name": "C#4",
          "midi": 61,
          "time": 26.581395348837496,
          "velocity": 0.5118110236220472,
          "duration": 0.034883720930235285
        },
        {
          "name": "C#7",
          "midi": 97,
          "time": 26.581395348837496,
          "velocity": 0.2677165354330709,
          "duration": 0.1162790697674474
        },
        {
          "name": "C7",
          "midi": 96,
          "time": 26.59302325581424,
          "velocity": 0.3779527559055118,
          "duration": 0.1162790697674474
        },
        {
          "name": "D7",
          "midi": 98,
          "time": 26.59302325581424,
          "velocity": 0.3779527559055118,
          "duration": 0.1162790697674474
        },
        {
          "name": "G4",
          "midi": 67,
          "time": 26.604651162790987,
          "velocity": 0.3464566929133858,
          "duration": 0.02325581395349019
        },
        {
          "name": "A#6",
          "midi": 94,
          "time": 26.604651162790987,
          "velocity": 0.30708661417322836,
          "duration": 0.08139534883721211
        },
        {
          "name": "B6",
          "midi": 95,
          "time": 26.604651162790987,
          "velocity": 0.28346456692913385,
          "duration": 0.06976744186046702
        },
        {
          "name": "D#7",
          "midi": 99,
          "time": 26.604651162790987,
          "velocity": 0.30708661417322836,
          "duration": 0.08139534883721211
        },
        {
          "name": "E7",
          "midi": 100,
          "time": 26.604651162790987,
          "velocity": 0.2440944881889764,
          "duration": 0.0930232558139572
        },
        {
          "name": "B3",
          "midi": 59,
          "time": 26.61627906976773,
          "velocity": 0.41732283464566927,
          "duration": 0.04651162790697683
        },
        {
          "name": "E6",
          "midi": 88,
          "time": 26.61627906976773,
          "velocity": 0.14960629921259844,
          "duration": 0.03488372093023173
        },
        {
          "name": "F#6",
          "midi": 90,
          "time": 26.61627906976773,
          "velocity": 0.1732283464566929,
          "duration": 0.05813953488372192
        },
        {
          "name": "A6",
          "midi": 93,
          "time": 26.61627906976773,
          "velocity": 0.29133858267716534,
          "duration": 0.06976744186046702
        },
        {
          "name": "F7",
          "midi": 101,
          "time": 26.61627906976773,
          "velocity": 0.2677165354330709,
          "duration": 0.06976744186046702
        },
        {
          "name": "F#7",
          "midi": 102,
          "time": 26.61627906976773,
          "velocity": 0.2283464566929134,
          "duration": 0.05813953488372192
        },
        {
          "name": "F3",
          "midi": 53,
          "time": 26.627906976744477,
          "velocity": 0.36220472440944884,
          "duration": 0.03488372093023173
        },
        {
          "name": "F#4",
          "midi": 66,
          "time": 26.627906976744477,
          "velocity": 0.33070866141732286,
          "duration": 0.023255813953486637
        },
        {
          "name": "D#5",
          "midi": 75,
          "time": 26.627906976744477,
          "velocity": 0.13385826771653545,
          "duration": 0.04651162790697683
        },
        {
          "name": "C#6",
          "midi": 85,
          "time": 26.627906976744477,
          "velocity": 0.15748031496062992,
          "duration": 0.03488372093023173
        },
        {
          "name": "G7",
          "midi": 103,
          "time": 26.627906976744477,
          "velocity": 0.2047244094488189,
          "duration": 0.05813953488372192
        },
        {
          "name": "G4",
          "midi": 67,
          "time": 26.651162790697963,
          "velocity": 0.25984251968503935,
          "duration": 0.02325581395349019
        },
        {
          "name": "C5",
          "midi": 72,
          "time": 26.651162790697963,
          "velocity": 0.12598425196850394,
          "duration": 0.17441860465116932
        },
        {
          "name": "F3",
          "midi": 53,
          "time": 26.674418604651454,
          "velocity": 0.3464566929133858,
          "duration": 0.034883720930235285
        },
        {
          "name": "A3",
          "midi": 57,
          "time": 26.674418604651454,
          "velocity": 0.33858267716535434,
          "duration": 0.02325581395349019
        },
        {
          "name": "G#4",
          "midi": 68,
          "time": 26.674418604651454,
          "velocity": 0.28346456692913385,
          "duration": 0.38372093023256326
        },
        {
          "name": "G2",
          "midi": 43,
          "time": 26.697674418604944,
          "velocity": 0.2755905511811024,
          "duration": 0.02325581395349019
        },
        {
          "name": "A5",
          "midi": 81,
          "time": 26.697674418604944,
          "velocity": 0.14173228346456693,
          "duration": 0.04651162790698038
        },
        {
          "name": "F3",
          "midi": 53,
          "time": 26.720930232558434,
          "velocity": 0.33858267716535434,
          "duration": 0.05813953488372192
        },
        {
          "name": "D#6",
          "midi": 87,
          "time": 26.73255813953518,
          "velocity": 0.12598425196850394,
          "duration": 0.3139534883720927
        },
        {
          "name": "G2",
          "midi": 43,
          "time": 26.744186046511924,
          "velocity": 0.2677165354330709,
          "duration": 0.05813953488372192
        },
        {
          "name": "C#4",
          "midi": 61,
          "time": 26.744186046511924,
          "velocity": 0.33070866141732286,
          "duration": 0.09302325581395365
        },
        {
          "name": "F3",
          "midi": 53,
          "time": 26.7906976744189,
          "velocity": 0.30708661417322836,
          "duration": 0.03488372093023173
        },
        {
          "name": "F#3",
          "midi": 54,
          "time": 26.825581395349133,
          "velocity": 0.31496062992125984,
          "duration": 0.22093023255813904
        },
        {
          "name": "B3",
          "midi": 59,
          "time": 26.848837209302623,
          "velocity": 0.14960629921259844,
          "duration": 0.03488372093023173
        },
        {
          "name": "G2",
          "midi": 43,
          "time": 26.860465116279368,
          "velocity": 0.1889763779527559,
          "duration": 0.03488372093023173
        },
        {
          "name": "C4",
          "midi": 60,
          "time": 26.918604651163086,
          "velocity": 0.23622047244094488,
          "duration": 0.023255813953486637
        },
        {
          "name": "B3",
          "midi": 59,
          "time": 26.941860465116573,
          "velocity": 0.2204724409448819,
          "duration": 0.04651162790697683
        },
        {
          "name": "A6",
          "midi": 93,
          "time": 26.953488372093318,
          "velocity": 0.1732283464566929,
          "duration": 0.03488372093023173
        },
        {
          "name": "A6",
          "midi": 93,
          "time": 27.02325581395378,
          "velocity": 0.23622047244094488,
          "duration": 0.02325581395349019
        },
        {
          "name": "B0",
          "midi": 23,
          "time": 27.034883720930527,
          "velocity": 0.4409448818897638,
          "duration": 0.23255813953488413
        },
        {
          "name": "A#6",
          "midi": 94,
          "time": 27.034883720930527,
          "velocity": 0.1732283464566929,
          "duration": 0.04651162790697683
        },
        {
          "name": "D#5",
          "midi": 75,
          "time": 27.04651162790727,
          "velocity": 0.2204724409448819,
          "duration": 0.20930232558139394
        },
        {
          "name": "G#3",
          "midi": 56,
          "time": 27.058139534884017,
          "velocity": 0.33070866141732286,
          "duration": 0.18604651162790375
        },
        {
          "name": "A4",
          "midi": 69,
          "time": 27.081395348837503,
          "velocity": 0.2677165354330709,
          "duration": 0.023255813953486637
        },
        {
          "name": "A6",
          "midi": 93,
          "time": 27.081395348837503,
          "velocity": 0.14173228346456693,
          "duration": 0.04651162790697683
        },
        {
          "name": "A#4",
          "midi": 70,
          "time": 27.10465116279099,
          "velocity": 0.3228346456692913,
          "duration": 0.3953488372093119
        },
        {
          "name": "F6",
          "midi": 89,
          "time": 27.116279069767735,
          "velocity": 0.30708661417322836,
          "duration": 0.30232558139535115
        },
        {
          "name": "E4",
          "midi": 64,
          "time": 27.174418604651457,
          "velocity": 0.18110236220472442,
          "duration": 0.04651162790697683
        },
        {
          "name": "A#3",
          "midi": 58,
          "time": 27.255813953488666,
          "velocity": 0.4015748031496063,
          "duration": 0.19767441860465595
        },
        {
          "name": "F5",
          "midi": 77,
          "time": 27.255813953488666,
          "velocity": 0.2125984251968504,
          "duration": 0.13953488372093048
        },
        {
          "name": "A5",
          "midi": 81,
          "time": 27.38372093023285,
          "velocity": 0.33858267716535434,
          "duration": 0.02325581395349019
        },
        {
          "name": "E6",
          "midi": 88,
          "time": 27.38372093023285,
          "velocity": 0.41732283464566927,
          "duration": 0.08139534883721566
        },
        {
          "name": "G#6",
          "midi": 92,
          "time": 27.38372093023285,
          "velocity": 0.1732283464566929,
          "duration": 0.11627906976745095
        },
        {
          "name": "E5",
          "midi": 76,
          "time": 27.395348837209596,
          "velocity": 0.2677165354330709,
          "duration": 0.02325581395349019
        },
        {
          "name": "G5",
          "midi": 79,
          "time": 27.395348837209596,
          "velocity": 0.4330708661417323,
          "duration": 0.034883720930235285
        },
        {
          "name": "A#5",
          "midi": 82,
          "time": 27.395348837209596,
          "velocity": 0.33858267716535434,
          "duration": 0.04651162790698038
        },
        {
          "name": "D6",
          "midi": 86,
          "time": 27.395348837209596,
          "velocity": 0.25984251968503935,
          "duration": 0.034883720930235285
        },
        {
          "name": "F#6",
          "midi": 90,
          "time": 27.395348837209596,
          "velocity": 0.2677165354330709,
          "duration": 0.09302325581396076
        },
        {
          "name": "B6",
          "midi": 95,
          "time": 27.395348837209596,
          "velocity": 0.09448818897637795,
          "duration": 0.034883720930235285
        },
        {
          "name": "D5",
          "midi": 74,
          "time": 27.40697674418634,
          "velocity": 0.2283464566929134,
          "duration": 0.02325581395349019
        },
        {
          "name": "G#5",
          "midi": 80,
          "time": 27.40697674418634,
          "velocity": 0.4566929133858268,
          "duration": 0.04651162790698038
        },
        {
          "name": "B5",
          "midi": 83,
          "time": 27.40697674418634,
          "velocity": 0.29133858267716534,
          "duration": 0.058139534883725474
        },
        {
          "name": "D#6",
          "midi": 87,
          "time": 27.40697674418634,
          "velocity": 0.3779527559055118,
          "duration": 0.034883720930235285
        },
        {
          "name": "D#5",
          "midi": 75,
          "time": 27.43023255813983,
          "velocity": 0.25196850393700787,
          "duration": 0.034883720930235285
        },
        {
          "name": "F#5",
          "midi": 78,
          "time": 27.43023255813983,
          "velocity": 0.41732283464566927,
          "duration": 0.02325581395349019
        },
        {
          "name": "C#6",
          "midi": 85,
          "time": 27.43023255813983,
          "velocity": 0.23622047244094488,
          "duration": 0.034883720930235285
        },
        {
          "name": "B3",
          "midi": 59,
          "time": 27.45348837209332,
          "velocity": 0.2440944881889764,
          "duration": 0.02325581395349019
        },
        {
          "name": "G5",
          "midi": 79,
          "time": 27.45348837209332,
          "velocity": 0.4251968503937008,
          "duration": 0.02325581395349019
        },
        {
          "name": "A5",
          "midi": 81,
          "time": 27.45348837209332,
          "velocity": 0.3858267716535433,
          "duration": 0.02325581395349019
        },
        {
          "name": "D#6",
          "midi": 87,
          "time": 27.45348837209332,
          "velocity": 0.3228346456692913,
          "duration": 0.034883720930235285
        },
        {
          "name": "G#4",
          "midi": 68,
          "time": 27.465116279070067,
          "velocity": 0.4330708661417323,
          "duration": 0.45348837209304094
        },
        {
          "name": "D5",
          "midi": 74,
          "time": 27.465116279070067,
          "velocity": 0.2047244094488189,
          "duration": 0.13953488372093403
        },
        {
          "name": "F5",
          "midi": 77,
          "time": 27.465116279070067,
          "velocity": 0.3779527559055118,
          "duration": 0.3720930232558253
        },
        {
          "name": "C6",
          "midi": 84,
          "time": 27.465116279070067,
          "velocity": 0.29133858267716534,
          "duration": 0.058139534883725474
        },
        {
          "name": "F6",
          "midi": 89,
          "time": 27.465116279070067,
          "velocity": 0.3937007874015748,
          "duration": 0.22093023255814614
        },
        {
          "name": "A#6",
          "midi": 94,
          "time": 27.465116279070067,
          "velocity": 0.14173228346456693,
          "duration": 0.034883720930235285
        },
        {
          "name": "F#1",
          "midi": 30,
          "time": 27.476744186046812,
          "velocity": 0.6535433070866141,
          "duration": 0.011627906976745095
        },
        {
          "name": "A#3",
          "midi": 58,
          "time": 27.476744186046812,
          "velocity": 0.44881889763779526,
          "duration": 0.034883720930235285
        },
        {
          "name": "G#5",
          "midi": 80,
          "time": 27.476744186046812,
          "velocity": 0.4645669291338583,
          "duration": 0.12790697674418894
        },
        {
          "name": "E6",
          "midi": 88,
          "time": 27.476744186046812,
          "velocity": 0.3543307086614173,
          "duration": 0.06976744186046702
        },
        {
          "name": "F1",
          "midi": 29,
          "time": 27.488372093023557,
          "velocity": 0.7165354330708661,
          "duration": 0.011627906976745095
        },
        {
          "name": "E1",
          "midi": 28,
          "time": 27.500000000000302,
          "velocity": 0.7244094488188977,
          "duration": 0.011627906976745095
        },
        {
          "name": "A#2",
          "midi": 46,
          "time": 27.500000000000302,
          "velocity": 0.47244094488188976,
          "duration": 0.2906976744186096
        },
        {
          "name": "F#6",
          "midi": 90,
          "time": 27.500000000000302,
          "velocity": 0.16535433070866143,
          "duration": 0.06976744186046702
        },
        {
          "name": "D#1",
          "midi": 27,
          "time": 27.511627906977047,
          "velocity": 0.7401574803149606,
          "duration": 1.2325581395349339
        },
        {
          "name": "D#4",
          "midi": 63,
          "time": 27.511627906977047,
          "velocity": 0.2283464566929134,
          "duration": 0.04651162790697683
        },
        {
          "name": "G3",
          "midi": 55,
          "time": 27.523255813953792,
          "velocity": 0.5118110236220472,
          "duration": 0.4534883720930374
        },
        {
          "name": "G5",
          "midi": 79,
          "time": 27.56976744186077,
          "velocity": 0.12598425196850394,
          "duration": 0.09302325581395365
        },
        {
          "name": "D#6",
          "midi": 87,
          "time": 27.581395348837514,
          "velocity": 0.13385826771653545,
          "duration": 0.1976744186046524
        },
        {
          "name": "A#4",
          "midi": 70,
          "time": 27.674418604651468,
          "velocity": 0.1968503937007874,
          "duration": 0.10465116279069875
        },
        {
          "name": "G5",
          "midi": 79,
          "time": 27.686046511628213,
          "velocity": 0.13385826771653545,
          "duration": 0.05813953488372192
        },
        {
          "name": "E6",
          "midi": 88,
          "time": 27.744186046511935,
          "velocity": 0.3543307086614173,
          "duration": 0.16279069767442778
        },
        {
          "name": "G5",
          "midi": 79,
          "time": 27.76744186046542,
          "velocity": 0.3228346456692913,
          "duration": 0.06976744186047057
        },
        {
          "name": "A5",
          "midi": 81,
          "time": 27.76744186046542,
          "velocity": 0.4094488188976378,
          "duration": 0.06976744186047057
        },
        {
          "name": "D#4",
          "midi": 63,
          "time": 27.779069767442166,
          "velocity": 0.07086614173228346,
          "duration": 0.034883720930235285
        },
        {
          "name": "D5",
          "midi": 74,
          "time": 27.79069767441891,
          "velocity": 0.13385826771653545,
          "duration": 0.04651162790698038
        },
        {
          "name": "A#2",
          "midi": 46,
          "time": 27.802325581395657,
          "velocity": 0.4094488188976378,
          "duration": 0.034883720930235285
        },
        {
          "name": "C6",
          "midi": 84,
          "time": 27.802325581395657,
          "velocity": 0.1968503937007874,
          "duration": 0.04651162790698038
        },
        {
          "name": "D6",
          "midi": 86,
          "time": 27.802325581395657,
          "velocity": 0.14960629921259844,
          "duration": 0.034883720930235285
        },
        {
          "name": "F#6",
          "midi": 90,
          "time": 27.802325581395657,
          "velocity": 0.31496062992125984,
          "duration": 0.08139534883721566
        },
        {
          "name": "D#6",
          "midi": 87,
          "time": 27.813953488372402,
          "velocity": 0.2204724409448819,
          "duration": 0.46511627906978603
        },
        {
          "name": "C#6",
          "midi": 85,
          "time": 27.825581395349147,
          "velocity": 0.1968503937007874,
          "duration": 0.058139534883725474
        },
        {
          "name": "E4",
          "midi": 64,
          "time": 27.837209302325892,
          "velocity": 0.13385826771653545,
          "duration": 0.034883720930235285
        },
        {
          "name": "G#5",
          "midi": 80,
          "time": 27.837209302325892,
          "velocity": 0.4330708661417323,
          "duration": 0.02325581395349019
        },
        {
          "name": "A#2",
          "midi": 46,
          "time": 27.848837209302637,
          "velocity": 0.44881889763779526,
          "duration": 0.04651162790698038
        },
        {
          "name": "G5",
          "midi": 79,
          "time": 27.848837209302637,
          "velocity": 0.4409448818897638,
          "duration": 0.13953488372093759
        },
        {
          "name": "A5",
          "midi": 81,
          "time": 27.848837209302637,
          "velocity": 0.4015748031496063,
          "duration": 0.04651162790698038
        },
        {
          "name": "B5",
          "midi": 83,
          "time": 27.848837209302637,
          "velocity": 0.2283464566929134,
          "duration": 0.034883720930235285
        },
        {
          "name": "C#5",
          "midi": 73,
          "time": 27.860465116279382,
          "velocity": 0.11023622047244094,
          "duration": 0.034883720930235285
        },
        {
          "name": "E5",
          "midi": 76,
          "time": 27.860465116279382,
          "velocity": 0.29133858267716534,
          "duration": 0.02325581395349019
        },
        {
          "name": "D5",
          "midi": 74,
          "time": 27.883720930232872,
          "velocity": 0.30708661417322836,
          "duration": 0.034883720930235285
        },
        {
          "name": "F5",
          "midi": 77,
          "time": 27.883720930232872,
          "velocity": 0.4645669291338583,
          "duration": 0.2093023255814046
        },
        {
          "name": "A#5",
          "midi": 82,
          "time": 27.883720930232872,
          "velocity": 0.16535433070866143,
          "duration": 0.034883720930235285
        },
        {
          "name": "F4",
          "midi": 65,
          "time": 27.895348837209617,
          "velocity": 0.2755905511811024,
          "duration": 0.2093023255814046
        },
        {
          "name": "B4",
          "midi": 71,
          "time": 27.895348837209617,
          "velocity": 0.30708661417322836,
          "duration": 0.02325581395349019
        },
        {
          "name": "A#2",
          "midi": 46,
          "time": 27.906976744186363,
          "velocity": 0.47244094488188976,
          "duration": 0.29069767441861316
        },
        {
          "name": "A#4",
          "midi": 70,
          "time": 27.918604651163108,
          "velocity": 0.3779527559055118,
          "duration": 0.02325581395349019
        },
        {
          "name": "C#7",
          "midi": 97,
          "time": 27.918604651163108,
          "velocity": 0.2204724409448819,
          "duration": 0.1046511627907023
        },
        {
          "name": "D7",
          "midi": 98,
          "time": 27.918604651163108,
          "velocity": 0.2677165354330709,
          "duration": 0.1162790697674474
        },
        {
          "name": "B4",
          "midi": 71,
          "time": 27.930232558139853,
          "velocity": 0.3937007874015748,
          "duration": 0.05813953488372192
        },
        {
          "name": "D5",
          "midi": 74,
          "time": 27.930232558139853,
          "velocity": 0.3937007874015748,
          "duration": 0.15116279069767913
        },
        {
          "name": "G#4",
          "midi": 68,
          "time": 27.953488372093343,
          "velocity": 0.33070866141732286,
          "duration": 0.3604651162790802
        },
        {
          "name": "G#6",
          "midi": 92,
          "time": 27.97674418604683,
          "velocity": 0.3228346456692913,
          "duration": 0.13953488372093759
        },
        {
          "name": "B6",
          "midi": 95,
          "time": 27.97674418604683,
          "velocity": 0.14960629921259844,
          "duration": 0.04651162790698038
        },
        {
          "name": "C7",
          "midi": 96,
          "time": 27.97674418604683,
          "velocity": 0.2125984251968504,
          "duration": 0.04651162790698038
        },
        {
          "name": "A6",
          "midi": 93,
          "time": 27.988372093023575,
          "velocity": 0.2677165354330709,
          "duration": 0.1162790697674474
        },
        {
          "name": "B4",
          "midi": 71,
          "time": 28.00000000000032,
          "velocity": 0.41732283464566927,
          "duration": 0.17441860465116932
        },
        {
          "name": "F#6",
          "midi": 90,
          "time": 28.011627906977065,
          "velocity": 0.18110236220472442,
          "duration": 0.0930232558139572
        },
        {
          "name": "G3",
          "midi": 55,
          "time": 28.034883720930555,
          "velocity": 0.4094488188976378,
          "duration": 0.06976744186046702
        },
        {
          "name": "A#5",
          "midi": 82,
          "time": 28.034883720930555,
          "velocity": 0.14173228346456693,
          "duration": 0.05813953488372192
        },
        {
          "name": "C6",
          "midi": 84,
          "time": 28.034883720930555,
          "velocity": 0.12598425196850394,
          "duration": 0.05813953488372192
        },
        {
          "name": "E7",
          "midi": 100,
          "time": 28.034883720930555,
          "velocity": 0.12598425196850394,
          "duration": 0.06976744186046702
        },
        {
          "name": "C#5",
          "midi": 73,
          "time": 28.081395348837532,
          "velocity": 0.3464566929133858,
          "duration": 0.034883720930235285
        },
        {
          "name": "F5",
          "midi": 77,
          "time": 28.104651162791022,
          "velocity": 0.18110236220472442,
          "duration": 0.09302325581395365
        },
        {
          "name": "G3",
          "midi": 55,
          "time": 28.116279069767767,
          "velocity": 0.3779527559055118,
          "duration": 0.11627906976744029
        },
        {
          "name": "G5",
          "midi": 79,
          "time": 28.127906976744512,
          "velocity": 0.08661417322834646,
          "duration": 0.03488372093023173
        },
        {
          "name": "G5",
          "midi": 79,
          "time": 28.17441860465149,
          "velocity": 0.14960629921259844,
          "duration": 0.046511627906973274
        },
        {
          "name": "A#2",
          "midi": 46,
          "time": 28.232558139535207,
          "velocity": 0.33070866141732286,
          "duration": 0.02325581395349019
        },
        {
          "name": "G3",
          "midi": 55,
          "time": 28.244186046511953,
          "velocity": 0.3228346456692913,
          "duration": 0.034883720930235285
        },
        {
          "name": "D6",
          "midi": 86,
          "time": 28.255813953488698,
          "velocity": 0.28346456692913385,
          "duration": 0.18604651162792152
        },
        {
          "name": "A#3",
          "midi": 58,
          "time": 28.267441860465443,
          "velocity": 0.4566929133858268,
          "duration": 0.17441860465117642
        },
        {
          "name": "B4",
          "midi": 71,
          "time": 28.267441860465443,
          "velocity": 0.41732283464566927,
          "duration": 0.04651162790698038
        },
        {
          "name": "A5",
          "midi": 81,
          "time": 28.267441860465443,
          "velocity": 0.12598425196850394,
          "duration": 0.034883720930235285
        },
        {
          "name": "C#6",
          "midi": 85,
          "time": 28.267441860465443,
          "velocity": 0.1968503937007874,
          "duration": 0.034883720930235285
        },
        {
          "name": "F#4",
          "midi": 66,
          "time": 28.279069767442188,
          "velocity": 0.2677165354330709,
          "duration": 0.034883720930235285
        },
        {
          "name": "D5",
          "midi": 74,
          "time": 28.279069767442188,
          "velocity": 0.2755905511811024,
          "duration": 0.15116279069768623
        },
        {
          "name": "G5",
          "midi": 79,
          "time": 28.279069767442188,
          "velocity": 0.09448818897637795,
          "duration": 0.06976744186047057
        },
        {
          "name": "A#2",
          "midi": 46,
          "time": 28.290697674418933,
          "velocity": 0.4330708661417323,
          "duration": 0.034883720930235285
        },
        {
          "name": "F5",
          "midi": 77,
          "time": 28.302325581395678,
          "velocity": 0.18110236220472442,
          "duration": 0.3720930232558324
        },
        {
          "name": "A#5",
          "midi": 82,
          "time": 28.302325581395678,
          "velocity": 0.18110236220472442,
          "duration": 0.034883720930235285
        },
        {
          "name": "C6",
          "midi": 84,
          "time": 28.302325581395678,
          "velocity": 0.30708661417322836,
          "duration": 0.058139534883725474
        },
        {
          "name": "D#6",
          "midi": 87,
          "time": 28.302325581395678,
          "velocity": 0.12598425196850394,
          "duration": 0.034883720930235285
        },
        {
          "name": "F4",
          "midi": 65,
          "time": 28.313953488372423,
          "velocity": 0.36220472440944884,
          "duration": 0.06976744186047057
        },
        {
          "name": "G#4",
          "midi": 68,
          "time": 28.325581395349168,
          "velocity": 0.2992125984251969,
          "duration": 0.034883720930235285
        },
        {
          "name": "A#6",
          "midi": 94,
          "time": 28.325581395349168,
          "velocity": 0.3228346456692913,
          "duration": 0.06976744186047057
        },
        {
          "name": "B6",
          "midi": 95,
          "time": 28.325581395349168,
          "velocity": 0.29133858267716534,
          "duration": 0.034883720930235285
        },
        {
          "name": "D7",
          "midi": 98,
          "time": 28.325581395349168,
          "velocity": 0.3228346456692913,
          "duration": 0.058139534883725474
        },
        {
          "name": "E7",
          "midi": 100,
          "time": 28.325581395349168,
          "velocity": 0.25196850393700787,
          "duration": 0.08139534883721566
        },
        {
          "name": "A#2",
          "midi": 46,
          "time": 28.337209302325913,
          "velocity": 0.4015748031496063,
          "duration": 0.04651162790698038
        },
        {
          "name": "E6",
          "midi": 88,
          "time": 28.337209302325913,
          "velocity": 0.25984251968503935,
          "duration": 0.04651162790698038
        },
        {
          "name": "F#6",
          "midi": 90,
          "time": 28.337209302325913,
          "velocity": 0.1732283464566929,
          "duration": 0.04651162790698038
        },
        {
          "name": "A6",
          "midi": 93,
          "time": 28.337209302325913,
          "velocity": 0.2677165354330709,
          "duration": 0.058139534883725474
        },
        {
          "name": "C#7",
          "midi": 97,
          "time": 28.337209302325913,
          "velocity": 0.28346456692913385,
          "duration": 0.06976744186047057
        },
        {
          "name": "D#7",
          "midi": 99,
          "time": 28.337209302325913,
          "velocity": 0.30708661417322836,
          "duration": 0.06976744186047057
        },
        {
          "name": "F7",
          "midi": 101,
          "time": 28.337209302325913,
          "velocity": 0.2677165354330709,
          "duration": 0.058139534883725474
        },
        {
          "name": "G7",
          "midi": 103,
          "time": 28.337209302325913,
          "velocity": 0.14173228346456693,
          "duration": 0.06976744186047057
        },
        {
          "name": "A4",
          "midi": 69,
          "time": 28.34883720930266,
          "velocity": 0.36220472440944884,
          "duration": 0.02325581395349019
        },
        {
          "name": "F#7",
          "midi": 102,
          "time": 28.34883720930266,
          "velocity": 0.2204724409448819,
          "duration": 0.034883720930235285
        },
        {
          "name": "G#4",
          "midi": 68,
          "time": 28.37209302325615,
          "velocity": 0.3937007874015748,
          "duration": 0.02325581395349019
        },
        {
          "name": "D#6",
          "midi": 87,
          "time": 28.383720930232894,
          "velocity": 0.2677165354330709,
          "duration": 0.45348837209304804
        },
        {
          "name": "A#2",
          "midi": 46,
          "time": 28.39534883720964,
          "velocity": 0.3779527559055118,
          "duration": 0.058139534883725474
        },
        {
          "name": "G#4",
          "midi": 68,
          "time": 28.41860465116313,
          "velocity": 0.3700787401574803,
          "duration": 0.02325581395349019
        },
        {
          "name": "G5",
          "midi": 79,
          "time": 28.41860465116313,
          "velocity": 0.08661417322834646,
          "duration": 0.13953488372093403
        },
        {
          "name": "G#4",
          "midi": 68,
          "time": 28.453488372093364,
          "velocity": 0.33858267716535434,
          "duration": 0.20930232558140105
        },
        {
          "name": "D#3",
          "midi": 51,
          "time": 28.46511627907011,
          "velocity": 0.2992125984251969,
          "duration": 0.04651162790697683
        },
        {
          "name": "A#3",
          "midi": 58,
          "time": 28.476744186046854,
          "velocity": 0.29133858267716534,
          "duration": 0.03488372093023173
        },
        {
          "name": "B3",
          "midi": 59,
          "time": 28.511627906977086,
          "velocity": 0.5039370078740157,
          "duration": 0.13953488372093403
        },
        {
          "name": "A#2",
          "midi": 46,
          "time": 28.52325581395383,
          "velocity": 0.36220472440944884,
          "duration": 0.023255813953486637
        },
        {
          "name": "F#4",
          "midi": 66,
          "time": 28.52325581395383,
          "velocity": 0.28346456692913385,
          "duration": 0.04651162790697683
        },
        {
          "name": "B6",
          "midi": 95,
          "time": 28.546511627907318,
          "velocity": 0.14960629921259844,
          "duration": 0.034883720930235285
        },
        {
          "name": "C7",
          "midi": 96,
          "time": 28.546511627907318,
          "velocity": 0.2125984251968504,
          "duration": 0.06976744186047057
        },
        {
          "name": "D#3",
          "midi": 51,
          "time": 28.558139534884063,
          "velocity": 0.31496062992125984,
          "duration": 0.034883720930235285
        },
        {
          "name": "D7",
          "midi": 98,
          "time": 28.558139534884063,
          "velocity": 0.11023622047244094,
          "duration": 0.058139534883725474
        },
        {
          "name": "C#7",
          "midi": 97,
          "time": 28.569767441860808,
          "velocity": 0.2125984251968504,
          "duration": 0.13953488372093759
        },
        {
          "name": "E7",
          "midi": 100,
          "time": 28.569767441860808,
          "velocity": 0.15748031496062992,
          "duration": 0.08139534883721211
        },
        {
          "name": "F#4",
          "midi": 66,
          "time": 28.581395348837553,
          "velocity": 0.2204724409448819,
          "duration": 0.034883720930235285
        },
        {
          "name": "F7",
          "midi": 101,
          "time": 28.5930232558143,
          "velocity": 0.07874015748031496,
          "duration": 0.034883720930235285
        },
        {
          "name": "D#3",
          "midi": 51,
          "time": 28.604651162791043,
          "velocity": 0.33858267716535434,
          "duration": 0.02325581395349019
        },
        {
          "name": "F#4",
          "midi": 66,
          "time": 28.627906976744534,
          "velocity": 0.4409448818897638,
          "duration": 0.06976744186046702
        },
        {
          "name": "G5",
          "midi": 79,
          "time": 28.627906976744534,
          "velocity": 0.09448818897637795,
          "duration": 0.03488372093023173
        },
        {
          "name": "D7",
          "midi": 98,
          "time": 28.627906976744534,
          "velocity": 0.13385826771653545,
          "duration": 0.04651162790697683
        },
        {
          "name": "B2",
          "midi": 47,
          "time": 28.65116279069802,
          "velocity": 0.33858267716535434,
          "duration": 0.02325581395349019
        },
        {
          "name": "A#3",
          "midi": 58,
          "time": 28.65116279069802,
          "velocity": 0.49606299212598426,
          "duration": 0.11627906976745095
        },
        {
          "name": "G#6",
          "midi": 92,
          "time": 28.662790697674765,
          "velocity": 0.15748031496062992,
          "duration": 0.04651162790698038
        },
        {
          "name": "A#2",
          "midi": 46,
          "time": 28.67441860465151,
          "velocity": 0.33070866141732286,
          "duration": 0.034883720930235285
        },
        {
          "name": "D5",
          "midi": 74,
          "time": 28.686046511628255,
          "velocity": 0.23622047244094488,
          "duration": 0.06976744186047057
        },
        {
          "name": "F6",
          "midi": 89,
          "time": 28.686046511628255,
          "velocity": 0.1968503937007874,
          "duration": 0.08139534883721566
        },
        {
          "name": "F#6",
          "midi": 90,
          "time": 28.686046511628255,
          "velocity": 0.12598425196850394,
          "duration": 0.034883720930235285
        },
        {
          "name": "F4",
          "midi": 65,
          "time": 28.697674418605,
          "velocity": 0.3543307086614173,
          "duration": 0.058139534883725474
        },
        {
          "name": "G#4",
          "midi": 68,
          "time": 28.697674418605,
          "velocity": 0.3543307086614173,
          "duration": 0.058139534883725474
        },
        {
          "name": "D6",
          "midi": 86,
          "time": 28.697674418605,
          "velocity": 0.29133858267716534,
          "duration": 0.06976744186047057
        },
        {
          "name": "B4",
          "midi": 71,
          "time": 28.709302325581746,
          "velocity": 0.36220472440944884,
          "duration": 0.02325581395349019
        },
        {
          "name": "D#3",
          "midi": 51,
          "time": 28.72093023255849,
          "velocity": 0.33070866141732286,
          "duration": 0.034883720930235285
        },
        {
          "name": "D1",
          "midi": 26,
          "time": 28.74418604651198,
          "velocity": 0.5590551181102362,
          "duration": 0.02325581395349019
        },
        {
          "name": "F#4",
          "midi": 66,
          "time": 28.755813953488726,
          "velocity": 0.29133858267716534,
          "duration": 0.08139534883721566
        },
        {
          "name": "D#5",
          "midi": 75,
          "time": 28.755813953488726,
          "velocity": 0.33070866141732286,
          "duration": 0.09302325581396076
        },
        {
          "name": "C#6",
          "midi": 85,
          "time": 28.755813953488726,
          "velocity": 0.30708661417322836,
          "duration": 0.058139534883725474
        },
        {
          "name": "C#1",
          "midi": 25,
          "time": 28.76744186046547,
          "velocity": 0.6535433070866141,
          "duration": 0.011627906976745095
        },
        {
          "name": "A2",
          "midi": 45,
          "time": 28.76744186046547,
          "velocity": 0.4645669291338583,
          "duration": 0.02325581395349019
        },
        {
          "name": "B3",
          "midi": 59,
          "time": 28.76744186046547,
          "velocity": 0.4645669291338583,
          "duration": 0.16279069767442778
        },
        {
          "name": "D#4",
          "midi": 63,
          "time": 28.76744186046547,
          "velocity": 0.3464566929133858,
          "duration": 0.19767441860466306
        },
        {
          "name": "G6",
          "midi": 91,
          "time": 28.76744186046547,
          "velocity": 0.07086614173228346,
          "duration": 0.1046511627907023
        },
        {
          "name": "D7",
          "midi": 98,
          "time": 28.76744186046547,
          "velocity": 0.08661417322834646,
          "duration": 0.058139534883725474
        },
        {
          "name": "D1",
          "midi": 26,
          "time": 28.779069767442216,
          "velocity": 0.7007874015748031,
          "duration": 0.011627906976745095
        },
        {
          "name": "F6",
          "midi": 89,
          "time": 28.779069767442216,
          "velocity": 0.29133858267716534,
          "duration": 0.15116279069768268
        },
        {
          "name": "C1",
          "midi": 24,
          "time": 28.79069767441896,
          "velocity": 0.7007874015748031,
          "duration": 0.011627906976745095
        },
        {
          "name": "A#4",
          "midi": 70,
          "time": 28.79069767441896,
          "velocity": 0.48031496062992124,
          "duration": 0.034883720930235285
        },
        {
          "name": "B0",
          "midi": 23,
          "time": 28.802325581395706,
          "velocity": 0.7322834645669292,
          "duration": 0.7790697674419107
        },
        {
          "name": "D#3",
          "midi": 51,
          "time": 28.802325581395706,
          "velocity": 0.5354330708661418,
          "duration": 0.0930232558139572
        },
        {
          "name": "C#5",
          "midi": 73,
          "time": 28.825581395349197,
          "velocity": 0.14173228346456693,
          "duration": 0.0930232558139572
        },
        {
          "name": "A#4",
          "midi": 70,
          "time": 28.83720930232594,
          "velocity": 0.49606299212598426,
          "duration": 0.255813953488385
        },
        {
          "name": "F#2",
          "midi": 42,
          "time": 28.848837209302687,
          "velocity": 0.4566929133858268,
          "duration": 0.023255813953486637
        },
        {
          "name": "F#4",
          "midi": 66,
          "time": 28.848837209302687,
          "velocity": 0.33070866141732286,
          "duration": 0.0930232558139572
        },
        {
          "name": "F#6",
          "midi": 90,
          "time": 28.88372093023292,
          "velocity": 0.2283464566929134,
          "duration": 0.02325581395349019
        },
        {
          "name": "G6",
          "midi": 91,
          "time": 28.895348837209664,
          "velocity": 0.11023622047244094,
          "duration": 0.06976744186047057
        },
        {
          "name": "D#3",
          "midi": 51,
          "time": 28.90697674418641,
          "velocity": 0.5275590551181102,
          "duration": 0.04651162790698038
        },
        {
          "name": "C#7",
          "midi": 97,
          "time": 28.90697674418641,
          "velocity": 0.12598425196850394,
          "duration": 0.058139534883725474
        },
        {
          "name": "D5",
          "midi": 74,
          "time": 28.918604651163154,
          "velocity": 0.2283464566929134,
          "duration": 0.15116279069768268
        },
        {
          "name": "F5",
          "midi": 77,
          "time": 28.918604651163154,
          "velocity": 0.11023622047244094,
          "duration": 0.15116279069768268
        },
        {
          "name": "D#6",
          "midi": 87,
          "time": 28.918604651163154,
          "velocity": 0.2283464566929134,
          "duration": 0.034883720930235285
        },
        {
          "name": "D7",
          "midi": 98,
          "time": 28.918604651163154,
          "velocity": 0.10236220472440945,
          "duration": 0.10465116279070585
        },
        {
          "name": "A#3",
          "midi": 58,
          "time": 28.9302325581399,
          "velocity": 0.4015748031496063,
          "duration": 0.1279069767441925
        },
        {
          "name": "C6",
          "midi": 84,
          "time": 28.9302325581399,
          "velocity": 0.25984251968503935,
          "duration": 0.08139534883721566
        },
        {
          "name": "D3",
          "midi": 50,
          "time": 28.95348837209339,
          "velocity": 0.5196850393700787,
          "duration": 0.011627906976745095
        },
        {
          "name": "F4",
          "midi": 65,
          "time": 28.95348837209339,
          "velocity": 0.3700787401574803,
          "duration": 0.1162790697674474
        },
        {
          "name": "D#3",
          "midi": 51,
          "time": 28.965116279070134,
          "velocity": 0.5196850393700787,
          "duration": 0.02325581395349019
        },
        {
          "name": "G#5",
          "midi": 80,
          "time": 28.97674418604688,
          "velocity": 0.18110236220472442,
          "duration": 0.08139534883721211
        },
        {
          "name": "F6",
          "midi": 89,
          "time": 28.97674418604688,
          "velocity": 0.14173228346456693,
          "duration": 0.13953488372093759
        },
        {
          "name": "D#3",
          "midi": 51,
          "time": 29.00000000000037,
          "velocity": 0.5433070866141733,
          "duration": 0.05813953488372192
        },
        {
          "name": "F#2",
          "midi": 42,
          "time": 29.046511627907346,
          "velocity": 0.4566929133858268,
          "duration": 0.02325581395349019
        },
        {
          "name": "B3",
          "midi": 59,
          "time": 29.05813953488409,
          "velocity": 0.3779527559055118,
          "duration": 0.15116279069768623
        },
        {
          "name": "D#4",
          "midi": 63,
          "time": 29.05813953488409,
          "velocity": 0.3464566929133858,
          "duration": 0.1976744186046666
        },
        {
          "name": "A5",
          "midi": 81,
          "time": 29.05813953488409,
          "velocity": 0.1889763779527559,
          "duration": 0.058139534883725474
        },
        {
          "name": "B5",
          "midi": 83,
          "time": 29.05813953488409,
          "velocity": 0.33858267716535434,
          "duration": 0.13953488372094114
        },
        {
          "name": "D#3",
          "midi": 51,
          "time": 29.069767441860836,
          "velocity": 0.5118110236220472,
          "duration": 0.02325581395349019
        },
        {
          "name": "F#4",
          "midi": 66,
          "time": 29.069767441860836,
          "velocity": 0.36220472440944884,
          "duration": 0.16279069767443133
        },
        {
          "name": "D#5",
          "midi": 75,
          "time": 29.069767441860836,
          "velocity": 0.47244094488188976,
          "duration": 0.13953488372094114
        },
        {
          "name": "C#6",
          "midi": 85,
          "time": 29.08139534883758,
          "velocity": 0.28346456692913385,
          "duration": 0.10465116279070585
        },
        {
          "name": "B4",
          "midi": 71,
          "time": 29.093023255814327,
          "velocity": 0.5196850393700787,
          "duration": 0.058139534883725474
        },
        {
          "name": "D#3",
          "midi": 51,
          "time": 29.104651162791072,
          "velocity": 0.5118110236220472,
          "duration": 0.02325581395349019
        },
        {
          "name": "F#6",
          "midi": 90,
          "time": 29.104651162791072,
          "velocity": 0.4015748031496063,
          "duration": 0.12790697674419604
        },
        {
          "name": "D7",
          "midi": 98,
          "time": 29.104651162791072,
          "velocity": 0.1889763779527559,
          "duration": 0.16279069767443133
        },
        {
          "name": "F6",
          "midi": 89,
          "time": 29.127906976744562,
          "velocity": 0.33070866141732286,
          "duration": 0.09302325581396076
        },
        {
          "name": "D#3",
          "midi": 51,
          "time": 29.139534883721307,
          "velocity": 0.5039370078740157,
          "duration": 0.02325581395349019
        },
        {
          "name": "A#4",
          "midi": 70,
          "time": 29.151162790698052,
          "velocity": 0.41732283464566927,
          "duration": 0.9069767441860854
        },
        {
          "name": "A6",
          "midi": 93,
          "time": 29.151162790698052,
          "velocity": 0.2677165354330709,
          "duration": 0.06976744186047057
        },
        {
          "name": "G#6",
          "midi": 92,
          "time": 29.162790697674797,
          "velocity": 0.25196850393700787,
          "duration": 0.02325581395349019
        },
        {
          "name": "D#3",
          "midi": 51,
          "time": 29.174418604651542,
          "velocity": 0.49606299212598426,
          "duration": 0.04651162790698038
        },
        {
          "name": "G6",
          "midi": 91,
          "time": 29.186046511628287,
          "velocity": 0.18110236220472442,
          "duration": 0.06976744186047057
        },
        {
          "name": "A#3",
          "midi": 58,
          "time": 29.209302325581778,
          "velocity": 0.31496062992125984,
          "duration": 0.02325581395349019
        },
        {
          "name": "C7",
          "midi": 96,
          "time": 29.209302325581778,
          "velocity": 0.1732283464566929,
          "duration": 0.058139534883725474
        },
        {
          "name": "C#5",
          "midi": 73,
          "time": 29.220930232558523,
          "velocity": 0.25984251968503935,
          "duration": 0.3023255813953689
        },
        {
          "name": "D#3",
          "midi": 51,
          "time": 29.232558139535268,
          "velocity": 0.4881889763779528,
          "duration": 0.02325581395349019
        },
        {
          "name": "F6",
          "midi": 89,
          "time": 29.244186046512013,
          "velocity": 0.2204724409448819,
          "duration": 0.3023255813953689
        },
        {
          "name": "G4",
          "midi": 67,
          "time": 29.255813953488758,
          "velocity": 0.25984251968503935,
          "duration": 0.02325581395349019
        },
        {
          "name": "D#3",
          "midi": 51,
          "time": 29.267441860465503,
          "velocity": 0.4881889763779528,
          "duration": 0.02325581395349019
        },
        {
          "name": "F#2",
          "midi": 42,
          "time": 29.279069767442248,
          "velocity": 0.4566929133858268,
          "duration": 0.034883720930235285
        },
        {
          "name": "F4",
          "midi": 65,
          "time": 29.279069767442248,
          "velocity": 0.33858267716535434,
          "duration": 0.034883720930235285
        },
        {
          "name": "D#3",
          "midi": 51,
          "time": 29.30232558139574,
          "velocity": 0.47244094488188976,
          "duration": 0.02325581395349019
        },
        {
          "name": "F4",
          "midi": 65,
          "time": 29.32558139534923,
          "velocity": 0.33070866141732286,
          "duration": 0.04651162790697683
        },
        {
          "name": "C6",
          "midi": 84,
          "time": 29.32558139534923,
          "velocity": 0.14960629921259844,
          "duration": 0.25581395348838853
        },
        {
          "name": "D#3",
          "midi": 51,
          "time": 29.337209302325974,
          "velocity": 0.4645669291338583,
          "duration": 0.04651162790697683
        },
        {
          "name": "G#4",
          "midi": 68,
          "time": 29.36046511627946,
          "velocity": 0.1889763779527559,
          "duration": 0.04651162790698038
        },
        {
          "name": "F#2",
          "midi": 42,
          "time": 29.372093023256205,
          "velocity": 0.4409448818897638,
          "duration": 0.02325581395349019
        },
        {
          "name": "D#3",
          "midi": 51,
          "time": 29.395348837209696,
          "velocity": 0.4330708661417323,
          "duration": 0.02325581395349019
        },
        {
          "name": "A6",
          "midi": 93,
          "time": 29.395348837209696,
          "velocity": 0.2677165354330709,
          "duration": 0.04651162790698038
        },
        {
          "name": "D7",
          "midi": 98,
          "time": 29.395348837209696,
          "velocity": 0.3228346456692913,
          "duration": 0.058139534883725474
        },
        {
          "name": "E7",
          "midi": 100,
          "time": 29.395348837209696,
          "velocity": 0.23622047244094488,
          "duration": 0.09302325581396076
        },
        {
          "name": "F#4",
          "midi": 66,
          "time": 29.40697674418644,
          "velocity": 0.28346456692913385,
          "duration": 0.034883720930235285
        },
        {
          "name": "E6",
          "midi": 88,
          "time": 29.40697674418644,
          "velocity": 0.13385826771653545,
          "duration": 0.034883720930235285
        },
        {
          "name": "F#6",
          "midi": 90,
          "time": 29.40697674418644,
          "velocity": 0.1968503937007874,
          "duration": 0.04651162790698038
        },
        {
          "name": "G6",
          "midi": 91,
          "time": 29.40697674418644,
          "velocity": 0.07874015748031496,
          "duration": 0.034883720930235285
        },
        {
          "name": "A#6",
          "midi": 94,
          "time": 29.40697674418644,
          "velocity": 0.29133858267716534,
          "duration": 0.06976744186047057
        },
        {
          "name": "B6",
          "midi": 95,
          "time": 29.40697674418644,
          "velocity": 0.28346456692913385,
          "duration": 0.058139534883725474
        },
        {
          "name": "C7",
          "midi": 96,
          "time": 29.40697674418644,
          "velocity": 0.25196850393700787,
          "duration": 0.058139534883725474
        },
        {
          "name": "C#7",
          "midi": 97,
          "time": 29.40697674418644,
          "velocity": 0.31496062992125984,
          "duration": 0.06976744186047057
        },
        {
          "name": "D#7",
          "midi": 99,
          "time": 29.40697674418644,
          "velocity": 0.2992125984251969,
          "duration": 0.09302325581396076
        },
        {
          "name": "F7",
          "midi": 101,
          "time": 29.40697674418644,
          "velocity": 0.2755905511811024,
          "duration": 0.08139534883721566
        },
        {
          "name": "G7",
          "midi": 103,
          "time": 29.40697674418644,
          "velocity": 0.18110236220472442,
          "duration": 0.06976744186047057
        },
        {
          "name": "D#6",
          "midi": 87,
          "time": 29.43023255813993,
          "velocity": 0.13385826771653545,
          "duration": 0.034883720930235285
        },
        {
          "name": "G#6",
          "midi": 92,
          "time": 29.441860465116676,
          "velocity": 0.23622047244094488,
          "duration": 0.034883720930235285
        },
        {
          "name": "F#2",
          "midi": 42,
          "time": 29.45348837209342,
          "velocity": 0.4251968503937008,
          "duration": 0.034883720930235285
        },
        {
          "name": "D#5",
          "midi": 75,
          "time": 29.45348837209342,
          "velocity": 0.18110236220472442,
          "duration": 0.058139534883725474
        },
        {
          "name": "F4",
          "midi": 65,
          "time": 29.47674418604691,
          "velocity": 0.31496062992125984,
          "duration": 0.02325581395349019
        },
        {
          "name": "D#4",
          "midi": 63,
          "time": 29.488372093023656,
          "velocity": 0.31496062992125984,
          "duration": 0.04651162790698038
        },
        {
          "name": "D7",
          "midi": 98,
          "time": 29.488372093023656,
          "velocity": 0.09448818897637795,
          "duration": 0.034883720930235285
        },
        {
          "name": "F4",
          "midi": 65,
          "time": 29.52325581395389,
          "velocity": 0.29133858267716534,
          "duration": 0.02325581395349019
        },
        {
          "name": "F#6",
          "midi": 90,
          "time": 29.534883720930637,
          "velocity": 0.3228346456692913,
          "duration": 0.13953488372093759
        },
        {
          "name": "D3",
          "midi": 50,
          "time": 29.546511627907382,
          "velocity": 0.4094488188976378,
          "duration": 0.02325581395349019
        },
        {
          "name": "B3",
          "midi": 59,
          "time": 29.546511627907382,
          "velocity": 0.3937007874015748,
          "duration": 0.02325581395349019
        },
        {
          "name": "E7",
          "midi": 100,
          "time": 29.546511627907382,
          "velocity": 0.23622047244094488,
          "duration": 0.1279069767441925
        },
        {
          "name": "F4",
          "midi": 65,
          "time": 29.558139534884127,
          "velocity": 0.44881889763779526,
          "duration": 0.06976744186047057
        },
        {
          "name": "F#5",
          "midi": 78,
          "time": 29.558139534884127,
          "velocity": 0.1889763779527559,
          "duration": 0.08139534883721566
        },
        {
          "name": "F6",
          "midi": 89,
          "time": 29.558139534884127,
          "velocity": 0.2125984251968504,
          "duration": 0.5232558139535008
        },
        {
          "name": "B6",
          "midi": 95,
          "time": 29.558139534884127,
          "velocity": 0.08661417322834646,
          "duration": 0.08139534883721566
        },
        {
          "name": "D#7",
          "midi": 99,
          "time": 29.558139534884127,
          "velocity": 0.2283464566929134,
          "duration": 0.13953488372093759
        },
        {
          "name": "A#3",
          "midi": 58,
          "time": 29.569767441860872,
          "velocity": 0.4645669291338583,
          "duration": 0.15116279069767913
        },
        {
          "name": "C7",
          "midi": 96,
          "time": 29.569767441860872,
          "velocity": 0.2440944881889764,
          "duration": 0.0930232558139572
        },
        {
          "name": "C#7",
          "midi": 97,
          "time": 29.569767441860872,
          "velocity": 0.1968503937007874,
          "duration": 0.1046511627907023
        },
        {
          "name": "D7",
          "midi": 98,
          "time": 29.569767441860872,
          "velocity": 0.12598425196850394,
          "duration": 0.034883720930235285
        },
        {
          "name": "C1",
          "midi": 24,
          "time": 29.581395348837617,
          "velocity": 0.6692913385826772,
          "duration": 0.011627906976745095
        },
        {
          "name": "B0",
          "midi": 23,
          "time": 29.593023255814362,
          "velocity": 0.6692913385826772,
          "duration": 0.47674418604652047
        },
        {
          "name": "D#4",
          "midi": 63,
          "time": 29.616279069767852,
          "velocity": 0.3700787401574803,
          "duration": 0.04651162790697683
        },
        {
          "name": "D7",
          "midi": 98,
          "time": 29.627906976744598,
          "velocity": 0.11023622047244094,
          "duration": 0.09302325581395365
        },
        {
          "name": "C#5",
          "midi": 73,
          "time": 29.639534883721343,
          "velocity": 0.13385826771653545,
          "duration": 0.4069767441860499
        },
        {
          "name": "F4",
          "midi": 65,
          "time": 29.66279069767483,
          "velocity": 0.2992125984251969,
          "duration": 0.02325581395349019
        },
        {
          "name": "A2",
          "midi": 45,
          "time": 29.674418604651574,
          "velocity": 0.47244094488188976,
          "duration": 0.02325581395349019
        },
        {
          "name": "D#4",
          "midi": 63,
          "time": 29.674418604651574,
          "velocity": 0.3228346456692913,
          "duration": 0.0930232558139572
        },
        {
          "name": "F#4",
          "midi": 66,
          "time": 29.68604651162832,
          "velocity": 0.3779527559055118,
          "duration": 0.0930232558139572
        },
        {
          "name": "G2",
          "midi": 43,
          "time": 29.72093023255855,
          "velocity": 0.3779527559055118,
          "duration": 0.02325581395349019
        },
        {
          "name": "A3",
          "midi": 57,
          "time": 29.72093023255855,
          "velocity": 0.4645669291338583,
          "duration": 0.034883720930235285
        },
        {
          "name": "D7",
          "midi": 98,
          "time": 29.732558139535296,
          "velocity": 0.2125984251968504,
          "duration": 0.15116279069767913
        },
        {
          "name": "C3",
          "midi": 48,
          "time": 29.74418604651204,
          "velocity": 0.3937007874015748,
          "duration": 0.02325581395349019
        },
        {
          "name": "C#7",
          "midi": 97,
          "time": 29.74418604651204,
          "velocity": 0.2204724409448819,
          "duration": 0.13953488372093403
        },
        {
          "name": "A#3",
          "midi": 58,
          "time": 29.755813953488786,
          "velocity": 0.44881889763779526,
          "duration": 0.12790697674418894
        },
        {
          "name": "D#7",
          "midi": 99,
          "time": 29.755813953488786,
          "velocity": 0.16535433070866143,
          "duration": 0.09302325581395365
        },
        {
          "name": "E7",
          "midi": 100,
          "time": 29.76744186046553,
          "velocity": 0.14173228346456693,
          "duration": 0.11627906976744384
        },
        {
          "name": "F#7",
          "midi": 102,
          "time": 29.76744186046553,
          "velocity": 0.09448818897637795,
          "duration": 0.08139534883720856
        },
        {
          "name": "F4",
          "midi": 65,
          "time": 29.779069767442277,
          "velocity": 0.3700787401574803,
          "duration": 0.03488372093023173
        },
        {
          "name": "C7",
          "midi": 96,
          "time": 29.79069767441902,
          "velocity": 0.10236220472440945,
          "duration": 0.08139534883720856
        },
        {
          "name": "F#4",
          "midi": 66,
          "time": 29.81395348837251,
          "velocity": 0.4094488188976378,
          "duration": 0.03488372093023173
        },
        {
          "name": "D#4",
          "midi": 63,
          "time": 29.825581395349253,
          "velocity": 0.3543307086614173,
          "duration": 0.04651162790697683
        },
        {
          "name": "F#4",
          "midi": 66,
          "time": 29.860465116279485,
          "velocity": 0.3700787401574803,
          "duration": 0.1744186046511622
        },
        {
          "name": "B2",
          "midi": 47,
          "time": 29.883720930232975,
          "velocity": 0.36220472440944884,
          "duration": 0.023255813953486637
        },
        {
          "name": "D#4",
          "midi": 63,
          "time": 29.883720930232975,
          "velocity": 0.3228346456692913,
          "duration": 0.081395348837205
        },
        {
          "name": "F#2",
          "midi": 42,
          "time": 29.941860465116694,
          "velocity": 0.31496062992125984,
          "duration": 0.023255813953486637
        },
        {
          "name": "D4",
          "midi": 62,
          "time": 29.96511627907018,
          "velocity": 0.2992125984251969,
          "duration": 0.02325581395349019
        },
        {
          "name": "E7",
          "midi": 100,
          "time": 29.96511627907018,
          "velocity": 0.31496062992125984,
          "duration": 0.16279069767442778
        },
        {
          "name": "B6",
          "midi": 95,
          "time": 29.976744186046925,
          "velocity": 0.16535433070866143,
          "duration": 0.05813953488372192
        },
        {
          "name": "C7",
          "midi": 96,
          "time": 29.976744186046925,
          "velocity": 0.25984251968503935,
          "duration": 0.16279069767442778
        },
        {
          "name": "C#7",
          "midi": 97,
          "time": 29.976744186046925,
          "velocity": 0.31496062992125984,
          "duration": 0.15116279069768268
        },
        {
          "name": "D7",
          "midi": 98,
          "time": 29.976744186046925,
          "velocity": 0.31496062992125984,
          "duration": 0.16279069767442778
        },
        {
          "name": "D#7",
          "midi": 99,
          "time": 29.976744186046925,
          "velocity": 0.33070866141732286,
          "duration": 0.13953488372093759
        },
        {
          "name": "F7",
          "midi": 101,
          "time": 29.976744186046925,
          "velocity": 0.2755905511811024,
          "duration": 0.15116279069768268
        },
        {
          "name": "G#2",
          "midi": 44,
          "time": 29.98837209302367,
          "velocity": 0.4251968503937008,
          "duration": 0.023255813953486637
        },
        {
          "name": "D#4",
          "midi": 63,
          "time": 29.98837209302367,
          "velocity": 0.3937007874015748,
          "duration": 0.05813953488372192
        },
        {
          "name": "F#7",
          "midi": 102,
          "time": 29.98837209302367,
          "velocity": 0.2047244094488189,
          "duration": 0.1162790697674474
        },
        {
          "name": "A3",
          "midi": 57,
          "time": 30.023255813953902,
          "velocity": 0.36220472440944884,
          "duration": 0.02325581395349019
        },
        {
          "name": "F#6",
          "midi": 90,
          "time": 30.023255813953902,
          "velocity": 0.25984251968503935,
          "duration": 0.08139534883721566
        },
        {
          "name": "F4",
          "midi": 65,
          "time": 30.034883720930647,
          "velocity": 0.4330708661417323,
          "duration": 0.09302325581396076
        },
        {
          "name": "A#3",
          "midi": 58,
          "time": 30.046511627907392,
          "velocity": 0.4015748031496063,
          "duration": 0.08139534883721566
        },
        {
          "name": "B4",
          "midi": 71,
          "time": 30.046511627907392,
          "velocity": 0.16535433070866143,
          "duration": 0.034883720930235285
        },
        {
          "name": "D#6",
          "midi": 87,
          "time": 30.046511627907392,
          "velocity": 0.13385826771653545,
          "duration": 0.04651162790698038
        },
        {
          "name": "G#6",
          "midi": 92,
          "time": 30.046511627907392,
          "velocity": 0.25984251968503935,
          "duration": 0.058139534883725474
        },
        {
          "name": "A#6",
          "midi": 94,
          "time": 30.046511627907392,
          "velocity": 0.30708661417322836,
          "duration": 0.09302325581396076
        },
        {
          "name": "B6",
          "midi": 95,
          "time": 30.046511627907392,
          "velocity": 0.28346456692913385,
          "duration": 0.09302325581396076
        },
        {
          "name": "G7",
          "midi": 103,
          "time": 30.046511627907392,
          "velocity": 0.12598425196850394,
          "duration": 0.034883720930235285
        },
        {
          "name": "F#3",
          "midi": 54,
          "time": 30.058139534884138,
          "velocity": 0.33070866141732286,
          "duration": 0.02325581395349019
        },
        {
          "name": "C#5",
          "midi": 73,
          "time": 30.058139534884138,
          "velocity": 0.14960629921259844,
          "duration": 0.1860465116279144
        },
        {
          "name": "A6",
          "midi": 93,
          "time": 30.058139534884138,
          "velocity": 0.29133858267716534,
          "duration": 0.058139534883725474
        },
        {
          "name": "C1",
          "midi": 24,
          "time": 30.069767441860883,
          "velocity": 0.5826771653543307,
          "duration": 0.011627906976745095
        },
        {
          "name": "B0",
          "midi": 23,
          "time": 30.081395348837628,
          "velocity": 0.5748031496062992,
          "duration": 0.011627906976745095
        },
        {
          "name": "A#0",
          "midi": 22,
          "time": 30.093023255814373,
          "velocity": 0.5748031496062992,
          "duration": 0.011627906976745095
        },
        {
          "name": "B0",
          "midi": 23,
          "time": 30.104651162791118,
          "velocity": 0.5826771653543307,
          "duration": 0.12790697674418894
        },
        {
          "name": "A2",
          "midi": 45,
          "time": 30.104651162791118,
          "velocity": 0.3464566929133858,
          "duration": 0.02325581395349019
        },
        {
          "name": "C6",
          "midi": 84,
          "time": 30.104651162791118,
          "velocity": 0.2047244094488189,
          "duration": 0.034883720930235285
        },
        {
          "name": "G#4",
          "midi": 68,
          "time": 30.116279069767863,
          "velocity": 0.2755905511811024,
          "duration": 0.12790697674418894
        },
        {
          "name": "A#5",
          "midi": 82,
          "time": 30.116279069767863,
          "velocity": 0.08661417322834646,
          "duration": 0.08139534883721211
        },
        {
          "name": "A3",
          "midi": 57,
          "time": 30.127906976744608,
          "velocity": 0.4094488188976378,
          "duration": 0.02325581395349019
        },
        {
          "name": "D#6",
          "midi": 87,
          "time": 30.127906976744608,
          "velocity": 0.11811023622047244,
          "duration": 0.11627906976744384
        },
        {
          "name": "G2",
          "midi": 43,
          "time": 30.1511627906981,
          "velocity": 0.33858267716535434,
          "duration": 0.03488372093023173
        },
        {
          "name": "D#4",
          "midi": 63,
          "time": 30.1511627906981,
          "velocity": 0.11811023622047244,
          "duration": 0.06976744186046346
        },
        {
          "name": "G3",
          "midi": 55,
          "time": 30.162790697674843,
          "velocity": 0.3700787401574803,
          "duration": 0.03488372093023173
        },
        {
          "name": "F#3",
          "midi": 54,
          "time": 30.197674418605075,
          "velocity": 0.33070866141732286,
          "duration": 0.023255813953486637
        },
        {
          "name": "A2",
          "midi": 45,
          "time": 30.232558139535307,
          "velocity": 0.28346456692913385,
          "duration": 0.03488372093023173
        },
        {
          "name": "D#4",
          "midi": 63,
          "time": 30.244186046512052,
          "velocity": 0.16535433070866143,
          "duration": 0.11627906976743674
        },
        {
          "name": "A#3",
          "midi": 58,
          "time": 30.26744186046554,
          "velocity": 0.14173228346456693,
          "duration": 0.03488372093023173
        },
        {
          "name": "A3",
          "midi": 57,
          "time": 30.337209302326002,
          "velocity": 0.14960629921259844,
          "duration": 0.046511627906973274
        },
        {
          "name": "D4",
          "midi": 62,
          "time": 30.39534883720972,
          "velocity": 0.2440944881889764,
          "duration": 0.02325581395349019
        },
        {
          "name": "B4",
          "midi": 71,
          "time": 30.406976744186466,
          "velocity": 0.08661417322834646,
          "duration": 0.034883720930235285
        },
        {
          "name": "D#4",
          "midi": 63,
          "time": 30.41860465116321,
          "velocity": 0.48031496062992124,
          "duration": 0.04651162790697683
        },
        {
          "name": "A#3",
          "midi": 58,
          "time": 30.430232558139956,
          "velocity": 0.1968503937007874,
          "duration": 0.04651162790697683
        },
        {
          "name": "F4",
          "midi": 65,
          "time": 30.476744186046933,
          "velocity": 0.4251968503937008,
          "duration": 0.1046511627907023
        },
        {
          "name": "C7",
          "midi": 96,
          "time": 30.476744186046933,
          "velocity": 0.25984251968503935,
          "duration": 0.06976744186046702
        },
        {
          "name": "F7",
          "midi": 101,
          "time": 30.476744186046933,
          "velocity": 0.2047244094488189,
          "duration": 0.08139534883721211
        },
        {
          "name": "C6",
          "midi": 84,
          "time": 30.488372093023678,
          "velocity": 0.14960629921259844,
          "duration": 0.05813953488372192
        },
        {
          "name": "A6",
          "midi": 93,
          "time": 30.534883720930655,
          "velocity": 0.14960629921259844,
          "duration": 0.034883720930235285
        },
        {
          "name": "F4",
          "midi": 65,
          "time": 30.686046511628334,
          "velocity": 0.11811023622047244,
          "duration": 0.03488372093023173
        },
        {
          "name": "F4",
          "midi": 65,
          "time": 30.81395348837252,
          "velocity": 0.1889763779527559,
          "duration": 0.03488372093023173
        },
        {
          "name": "D#4",
          "midi": 63,
          "time": 30.84883720930275,
          "velocity": 0.4094488188976378,
          "duration": 0.04651162790697683
        },
        {
          "name": "C#7",
          "midi": 97,
          "time": 30.860465116279496,
          "velocity": 0.14960629921259844,
          "duration": 0.03488372093023173
        },
        {
          "name": "A4",
          "midi": 69,
          "time": 30.883720930232982,
          "velocity": 0.3543307086614173,
          "duration": 0.02325581395349019
        },
        {
          "name": "D3",
          "midi": 50,
          "time": 30.895348837209728,
          "velocity": 0.3228346456692913,
          "duration": 0.02325581395349019
        },
        {
          "name": "A#3",
          "midi": 58,
          "time": 30.895348837209728,
          "velocity": 0.36220472440944884,
          "duration": 0.02325581395349019
        },
        {
          "name": "C7",
          "midi": 96,
          "time": 30.895348837209728,
          "velocity": 0.1732283464566929,
          "duration": 0.1162790697674474
        },
        {
          "name": "F#1",
          "midi": 30,
          "time": 30.906976744186473,
          "velocity": 0.6220472440944882,
          "duration": 0.011627906976745095
        },
        {
          "name": "F4",
          "midi": 65,
          "time": 30.906976744186473,
          "velocity": 0.30708661417322836,
          "duration": 0.1162790697674474
        },
        {
          "name": "F5",
          "midi": 77,
          "time": 30.906976744186473,
          "velocity": 0.4015748031496063,
          "duration": 0.5232558139534973
        },
        {
          "name": "G5",
          "midi": 79,
          "time": 30.906976744186473,
          "velocity": 0.18110236220472442,
          "duration": 0.18604651162791086
        },
        {
          "name": "D#6",
          "midi": 87,
          "time": 30.906976744186473,
          "velocity": 0.2755905511811024,
          "duration": 0.8372093023256042
        },
        {
          "name": "F7",
          "midi": 101,
          "time": 30.906976744186473,
          "velocity": 0.2047244094488189,
          "duration": 0.04651162790698038
        },
        {
          "name": "F1",
          "midi": 29,
          "time": 30.918604651163218,
          "velocity": 0.7007874015748031,
          "duration": 0.011627906976745095
        },
        {
          "name": "C3",
          "midi": 48,
          "time": 30.918604651163218,
          "velocity": 0.3858267716535433,
          "duration": 0.02325581395349019
        },
        {
          "name": "G#4",
          "midi": 68,
          "time": 30.918604651163218,
          "velocity": 0.3228346456692913,
          "duration": 0.3604651162790731
        },
        {
          "name": "E1",
          "midi": 28,
          "time": 30.930232558139963,
          "velocity": 0.7165354330708661,
          "duration": 0.011627906976745095
        },
        {
          "name": "G3",
          "midi": 55,
          "time": 30.930232558139963,
          "velocity": 0.5118110236220472,
          "duration": 0.3604651162790731
        },
        {
          "name": "D#1",
          "midi": 27,
          "time": 30.941860465116708,
          "velocity": 0.7401574803149606,
          "duration": 1.2441860465116399
        },
        {
          "name": "D7",
          "midi": 98,
          "time": 30.941860465116708,
          "velocity": 0.11023622047244094,
          "duration": 0.03488372093023173
        },
        {
          "name": "A#2",
          "midi": 46,
          "time": 30.97674418604694,
          "velocity": 0.4094488188976378,
          "duration": 0.02325581395349019
        },
        {
          "name": "C4",
          "midi": 60,
          "time": 30.988372093023685,
          "velocity": 0.2204724409448819,
          "duration": 0.034883720930235285
        },
        {
          "name": "A#4",
          "midi": 70,
          "time": 30.988372093023685,
          "velocity": 0.1889763779527559,
          "duration": 0.034883720930235285
        },
        {
          "name": "A#2",
          "midi": 46,
          "time": 31.011627906977175,
          "velocity": 0.4409448818897638,
          "duration": 0.22093023255813904
        },
        {
          "name": "C#4",
          "midi": 61,
          "time": 31.034883720930665,
          "velocity": 0.23622047244094488,
          "duration": 0.023255813953486637
        },
        {
          "name": "C7",
          "midi": 96,
          "time": 31.058139534884152,
          "velocity": 0.12598425196850394,
          "duration": 0.03488372093023173
        },
        {
          "name": "A#3",
          "midi": 58,
          "time": 31.267441860465546,
          "velocity": 0.5748031496062992,
          "duration": 0.04651162790698038
        },
        {
          "name": "F4",
          "midi": 65,
          "time": 31.27906976744229,
          "velocity": 0.4566929133858268,
          "duration": 0.3255813953488449
        },
        {
          "name": "A6",
          "midi": 93,
          "time": 31.27906976744229,
          "velocity": 0.18110236220472442,
          "duration": 0.05813953488372192
        },
        {
          "name": "G#4",
          "midi": 68,
          "time": 31.290697674419036,
          "velocity": 0.33858267716535434,
          "duration": 0.10465116279069875
        },
        {
          "name": "A#6",
          "midi": 94,
          "time": 31.290697674419036,
          "velocity": 0.08661417322834646,
          "duration": 0.04651162790697683
        },
        {
          "name": "C7",
          "midi": 96,
          "time": 31.290697674419036,
          "velocity": 0.2047244094488189,
          "duration": 0.08139534883720856
        },
        {
          "name": "D6",
          "midi": 86,
          "time": 31.30232558139578,
          "velocity": 0.07086614173228346,
          "duration": 0.03488372093023173
        },
        {
          "name": "F#7",
          "midi": 102,
          "time": 31.30232558139578,
          "velocity": 0.08661417322834646,
          "duration": 0.03488372093023173
        },
        {
          "name": "A#2",
          "midi": 46,
          "time": 31.337209302326013,
          "velocity": 0.4094488188976378,
          "duration": 0.04651162790697683
        },
        {
          "name": "A3",
          "midi": 57,
          "time": 31.337209302326013,
          "velocity": 0.5118110236220472,
          "duration": 0.011627906976745095
        },
        {
          "name": "A#4",
          "midi": 70,
          "time": 31.337209302326013,
          "velocity": 0.44881889763779526,
          "duration": 0.06976744186046702
        },
        {
          "name": "F7",
          "midi": 101,
          "time": 31.337209302326013,
          "velocity": 0.15748031496062992,
          "duration": 0.03488372093023173
        },
        {
          "name": "A#3",
          "midi": 58,
          "time": 31.348837209302758,
          "velocity": 0.47244094488188976,
          "duration": 0.03488372093023173
        },
        {
          "name": "G3",
          "midi": 55,
          "time": 31.372093023256244,
          "velocity": 0.4566929133858268,
          "duration": 0.22093023255814614
        },
        {
          "name": "C7",
          "midi": 96,
          "time": 31.38372093023299,
          "velocity": 0.18110236220472442,
          "duration": 0.034883720930235285
        },
        {
          "name": "A#2",
          "midi": 46,
          "time": 31.395348837209735,
          "velocity": 0.44881889763779526,
          "duration": 0.06976744186047057
        },
        {
          "name": "G#4",
          "midi": 68,
          "time": 31.40697674418648,
          "velocity": 0.33858267716535434,
          "duration": 0.2906976744186167
        },
        {
          "name": "B4",
          "midi": 71,
          "time": 31.40697674418648,
          "velocity": 0.3858267716535433,
          "duration": 0.058139534883725474
        },
        {
          "name": "B3",
          "midi": 59,
          "time": 31.43023255813997,
          "velocity": 0.25984251968503935,
          "duration": 0.02325581395349019
        },
        {
          "name": "G#5",
          "midi": 80,
          "time": 31.441860465116715,
          "velocity": 0.3858267716535433,
          "duration": 0.08139534883721211
        },
        {
          "name": "A#4",
          "midi": 70,
          "time": 31.465116279070205,
          "velocity": 0.41732283464566927,
          "duration": 0.04651162790697683
        },
        {
          "name": "D5",
          "midi": 74,
          "time": 31.465116279070205,
          "velocity": 0.33070866141732286,
          "duration": 0.12790697674418539
        },
        {
          "name": "B5",
          "midi": 83,
          "time": 31.465116279070205,
          "velocity": 0.07874015748031496,
          "duration": 0.03488372093023173
        },
        {
          "name": "A#2",
          "midi": 46,
          "time": 31.500000000000437,
          "velocity": 0.3779527559055118,
          "duration": 0.034883720930235285
        },
        {
          "name": "C7",
          "midi": 96,
          "time": 31.500000000000437,
          "velocity": 0.07086614173228346,
          "duration": 0.05813953488372192
        },
        {
          "name": "B4",
          "midi": 71,
          "time": 31.511627906977182,
          "velocity": 0.3779527559055118,
          "duration": 0.06976744186046346
        },
        {
          "name": "C6",
          "midi": 84,
          "time": 31.523255813953927,
          "velocity": 0.2283464566929134,
          "duration": 0.05813953488371837
        },
        {
          "name": "G5",
          "midi": 79,
          "time": 31.581395348837646,
          "velocity": 0.2992125984251969,
          "duration": 0.058139534883725474
        },
        {
          "name": "C#5",
          "midi": 73,
          "time": 31.59302325581439,
          "velocity": 0.30708661417322836,
          "duration": 0.034883720930235285
        },
        {
          "name": "A5",
          "midi": 81,
          "time": 31.59302325581439,
          "velocity": 0.2283464566929134,
          "duration": 0.02325581395349019
        },
        {
          "name": "E4",
          "midi": 64,
          "time": 31.604651162791136,
          "velocity": 0.23622047244094488,
          "duration": 0.02325581395349019
        },
        {
          "name": "G3",
          "midi": 55,
          "time": 31.627906976744626,
          "velocity": 0.4015748031496063,
          "duration": 0.02325581395349019
        },
        {
          "name": "D#4",
          "midi": 63,
          "time": 31.627906976744626,
          "velocity": 0.2440944881889764,
          "duration": 0.034883720930235285
        },
        {
          "name": "A#4",
          "midi": 70,
          "time": 31.627906976744626,
          "velocity": 0.4566929133858268,
          "duration": 1.8488372093021397
        },
        {
          "name": "A#3",
          "midi": 58,
          "time": 31.63953488372137,
          "velocity": 0.47244094488188976,
          "duration": 0.13953488372094114
        },
        {
          "name": "A#2",
          "midi": 46,
          "time": 31.674418604651606,
          "velocity": 0.41732283464566927,
          "duration": 0.04651162790698038
        },
        {
          "name": "F4",
          "midi": 65,
          "time": 31.674418604651606,
          "velocity": 0.2677165354330709,
          "duration": 0.06976744186047057
        },
        {
          "name": "G#5",
          "midi": 80,
          "time": 31.674418604651606,
          "velocity": 0.3543307086614173,
          "duration": 0.058139534883725474
        },
        {
          "name": "F5",
          "midi": 77,
          "time": 31.68604651162835,
          "velocity": 0.3464566929133858,
          "duration": 0.13953488372094114
        },
        {
          "name": "D5",
          "midi": 74,
          "time": 31.697674418605096,
          "velocity": 0.3779527559055118,
          "duration": 0.13953488372094114
        },
        {
          "name": "G#4",
          "midi": 68,
          "time": 31.70930232558184,
          "velocity": 0.3700787401574803,
          "duration": 0.12790697674419604
        },
        {
          "name": "D7",
          "midi": 98,
          "time": 31.70930232558184,
          "velocity": 0.3464566929133858,
          "duration": 0.13953488372094114
        },
        {
          "name": "C6",
          "midi": 84,
          "time": 31.720930232558587,
          "velocity": 0.2047244094488189,
          "duration": 0.06976744186047057
        },
        {
          "name": "D#7",
          "midi": 99,
          "time": 31.720930232558587,
          "velocity": 0.29133858267716534,
          "duration": 0.10465116279070585
        },
        {
          "name": "A#2",
          "midi": 46,
          "time": 31.73255813953533,
          "velocity": 0.3779527559055118,
          "duration": 0.058139534883725474
        },
        {
          "name": "C7",
          "midi": 96,
          "time": 31.73255813953533,
          "velocity": 0.2440944881889764,
          "duration": 0.15116279069768268
        },
        {
          "name": "E6",
          "midi": 88,
          "time": 31.744186046512077,
          "velocity": 0.33070866141732286,
          "duration": 0.058139534883725474
        },
        {
          "name": "D#4",
          "midi": 63,
          "time": 31.755813953488822,
          "velocity": 0.2440944881889764,
          "duration": 0.02325581395349019
        },
        {
          "name": "B6",
          "midi": 95,
          "time": 31.755813953488822,
          "velocity": 0.2440944881889764,
          "duration": 0.034883720930235285
        },
        {
          "name": "F#7",
          "midi": 102,
          "time": 31.755813953488822,
          "velocity": 0.1968503937007874,
          "duration": 0.09302325581396076
        },
        {
          "name": "G#6",
          "midi": 92,
          "time": 31.767441860465567,
          "velocity": 0.2440944881889764,
          "duration": 0.06976744186047057
        },
        {
          "name": "C#7",
          "midi": 97,
          "time": 31.767441860465567,
          "velocity": 0.28346456692913385,
          "duration": 0.06976744186047057
        },
        {
          "name": "F7",
          "midi": 101,
          "time": 31.767441860465567,
          "velocity": 0.25196850393700787,
          "duration": 0.08139534883721566
        },
        {
          "name": "G7",
          "midi": 103,
          "time": 31.767441860465567,
          "velocity": 0.1968503937007874,
          "duration": 0.06976744186047057
        },
        {
          "name": "E4",
          "midi": 64,
          "time": 31.779069767442312,
          "velocity": 0.2992125984251969,
          "duration": 0.034883720930235285
        },
        {
          "name": "D#6",
          "midi": 87,
          "time": 31.779069767442312,
          "velocity": 0.2125984251968504,
          "duration": 0.4069767441860357
        },
        {
          "name": "F#6",
          "midi": 90,
          "time": 31.779069767442312,
          "velocity": 0.28346456692913385,
          "duration": 0.04651162790698038
        },
        {
          "name": "A6",
          "midi": 93,
          "time": 31.779069767442312,
          "velocity": 0.2755905511811024,
          "duration": 0.06976744186047057
        },
        {
          "name": "A#3",
          "midi": 58,
          "time": 31.790697674419057,
          "velocity": 0.4094488188976378,
          "duration": 0.06976744186047057
        },
        {
          "name": "B6",
          "midi": 95,
          "time": 31.802325581395802,
          "velocity": 0.15748031496062992,
          "duration": 0.058139534883725474
        },
        {
          "name": "F4",
          "midi": 65,
          "time": 31.813953488372547,
          "velocity": 0.10236220472440945,
          "duration": 0.034883720930235285
        },
        {
          "name": "A#2",
          "midi": 46,
          "time": 31.825581395349293,
          "velocity": 0.3543307086614173,
          "duration": 0.02325581395349019
        },
        {
          "name": "G#4",
          "midi": 68,
          "time": 31.848837209302783,
          "velocity": 0.2992125984251969,
          "duration": 0.15116279069767202
        },
        {
          "name": "A#2",
          "midi": 46,
          "time": 31.860465116279528,
          "velocity": 0.33858267716535434,
          "duration": 0.03488372093023173
        },
        {
          "name": "G3",
          "midi": 55,
          "time": 31.860465116279528,
          "velocity": 0.31496062992125984,
          "duration": 0.023255813953486637
        },
        {
          "name": "D#3",
          "midi": 51,
          "time": 31.883720930233014,
          "velocity": 0.3228346456692913,
          "duration": 0.10465116279069875
        },
        {
          "name": "B3",
          "midi": 59,
          "time": 31.883720930233014,
          "velocity": 0.25196850393700787,
          "duration": 0.02325581395349019
        },
        {
          "name": "A#6",
          "midi": 94,
          "time": 31.89534883720976,
          "velocity": 0.2283464566929134,
          "duration": 0.06976744186046346
        },
        {
          "name": "A#3",
          "midi": 58,
          "time": 31.906976744186505,
          "velocity": 0.3464566929133858,
          "duration": 0.0930232558139501
        },
        {
          "name": "E7",
          "midi": 100,
          "time": 31.906976744186505,
          "velocity": 0.11023622047244094,
          "duration": 0.03488372093023173
        },
        {
          "name": "F4",
          "midi": 65,
          "time": 31.91860465116325,
          "velocity": 0.1968503937007874,
          "duration": 0.05813953488371837
        },
        {
          "name": "G#6",
          "midi": 92,
          "time": 31.91860465116325,
          "velocity": 0.09448818897637795,
          "duration": 0.05813953488371837
        },
        {
          "name": "D#3",
          "midi": 51,
          "time": 32.000000000000455,
          "velocity": 0.31496062992125984,
          "duration": 0.12790697674418539
        },
        {
          "name": "A#3",
          "midi": 58,
          "time": 32.011627906977196,
          "velocity": 0.33858267716535434,
          "duration": 0.13953488372092693
        },
        {
          "name": "G#4",
          "midi": 68,
          "time": 32.011627906977196,
          "velocity": 0.2992125984251969,
          "duration": 0.12790697674418539
        },
        {
          "name": "F5",
          "midi": 77,
          "time": 32.03488372093069,
          "velocity": 0.14173228346456693,
          "duration": 0.12790697674417828
        },
        {
          "name": "C5",
          "midi": 72,
          "time": 32.12790697674464,
          "velocity": 0.25984251968503935,
          "duration": 0.023255813953483084
        },
        {
          "name": "F#6",
          "midi": 90,
          "time": 32.12790697674464,
          "velocity": 0.2677165354330709,
          "duration": 0.05813953488370771
        },
        {
          "name": "D#5",
          "midi": 75,
          "time": 32.13953488372138,
          "velocity": 0.36220472440944884,
          "duration": 0.06976744186044925
        },
        {
          "name": "A5",
          "midi": 81,
          "time": 32.13953488372138,
          "velocity": 0.23622047244094488,
          "duration": 0.034883720930224626
        },
        {
          "name": "G#4",
          "midi": 68,
          "time": 32.15116279069812,
          "velocity": 0.30708661417322836,
          "duration": 0.034883720930224626
        },
        {
          "name": "F#5",
          "midi": 78,
          "time": 32.15116279069812,
          "velocity": 0.3228346456692913,
          "duration": 0.034883720930224626
        },
        {
          "name": "G6",
          "midi": 91,
          "time": 32.15116279069812,
          "velocity": 0.2677165354330709,
          "duration": 0.05813953488370771
        },
        {
          "name": "A#3",
          "midi": 58,
          "time": 32.162790697674865,
          "velocity": 0.41732283464566927,
          "duration": 0.04651162790696617
        },
        {
          "name": "C#6",
          "midi": 85,
          "time": 32.162790697674865,
          "velocity": 0.08661417322834646,
          "duration": 0.04651162790696617
        },
        {
          "name": "E6",
          "midi": 88,
          "time": 32.162790697674865,
          "velocity": 0.2283464566929134,
          "duration": 0.0813953488371908
        },
        {
          "name": "A#2",
          "midi": 46,
          "time": 32.174418604651606,
          "velocity": 0.4094488188976378,
          "duration": 0.023255813953483084
        },
        {
          "name": "D6",
          "midi": 86,
          "time": 32.174418604651606,
          "velocity": 0.2283464566929134,
          "duration": 0.11627906976741542
        },
        {
          "name": "C1",
          "midi": 24,
          "time": 32.18604651162835,
          "velocity": 0.6299212598425197,
          "duration": 0.023255813953483084
        },
        {
          "name": "D5",
          "midi": 74,
          "time": 32.18604651162835,
          "velocity": 0.3543307086614173,
          "duration": 0.09302325581393234
        },
        {
          "name": "F5",
          "midi": 77,
          "time": 32.18604651162835,
          "velocity": 0.3464566929133858,
          "duration": 0.10465116279067388
        },
        {
          "name": "A2",
          "midi": 45,
          "time": 32.19767441860509,
          "velocity": 0.4881889763779528,
          "duration": 0.023255813953483084
        },
        {
          "name": "D#4",
          "midi": 63,
          "time": 32.19767441860509,
          "velocity": 0.33858267716535434,
          "duration": 0.47674418604645297
        },
        {
          "name": "F#6",
          "midi": 90,
          "time": 32.19767441860509,
          "velocity": 0.33070866141732286,
          "duration": 0.0813953488371908
        },
        {
          "name": "A6",
          "midi": 93,
          "time": 32.19767441860509,
          "velocity": 0.29133858267716534,
          "duration": 0.18604651162786467
        },
        {
          "name": "C7",
          "midi": 96,
          "time": 32.19767441860509,
          "velocity": 0.11023622047244094,
          "duration": 0.10465116279067388
        },
        {
          "name": "D1",
          "midi": 26,
          "time": 32.20930232558183,
          "velocity": 0.6850393700787402,
          "duration": 0.011627906976741542
        },
        {
          "name": "C#1",
          "midi": 25,
          "time": 32.22093023255857,
          "velocity": 0.6929133858267716,
          "duration": 0.011627906976741542
        },
        {
          "name": "G#6",
          "midi": 92,
          "time": 32.22093023255857,
          "velocity": 0.25196850393700787,
          "duration": 0.15116279069764005
        },
        {
          "name": "B0",
          "midi": 23,
          "time": 32.232558139535314,
          "velocity": 0.7244094488188977,
          "duration": 0.09302325581393234
        },
        {
          "name": "A#3",
          "midi": 58,
          "time": 32.244186046512056,
          "velocity": 0.3543307086614173,
          "duration": 0.023255813953483084
        },
        {
          "name": "D#3",
          "midi": 51,
          "time": 32.2558139534888,
          "velocity": 0.5118110236220472,
          "duration": 0.06976744186044925
        },
        {
          "name": "F#4",
          "midi": 66,
          "time": 32.2558139534888,
          "velocity": 0.2204724409448819,
          "duration": 0.034883720930224626
        },
        {
          "name": "E6",
          "midi": 88,
          "time": 32.26744186046554,
          "velocity": 0.10236220472440945,
          "duration": 0.05813953488370771
        },
        {
          "name": "C#5",
          "midi": 73,
          "time": 32.27906976744228,
          "velocity": 0.33070866141732286,
          "duration": 0.06976744186044925
        },
        {
          "name": "A#3",
          "midi": 58,
          "time": 32.29069767441902,
          "velocity": 0.3700787401574803,
          "duration": 0.034883720930224626
        },
        {
          "name": "D#7",
          "midi": 99,
          "time": 32.30232558139576,
          "velocity": 0.15748031496062992,
          "duration": 0.0813953488371908
        },
        {
          "name": "G6",
          "midi": 91,
          "time": 32.313953488372505,
          "velocity": 0.13385826771653545,
          "duration": 0.034883720930224626
        },
        {
          "name": "E7",
          "midi": 100,
          "time": 32.313953488372505,
          "velocity": 0.14173228346456693,
          "duration": 0.06976744186044925
        },
        {
          "name": "A#0",
          "midi": 22,
          "time": 32.325581395349246,
          "velocity": 0.7165354330708661,
          "duration": 0.011627906976741542
        },
        {
          "name": "A2",
          "midi": 45,
          "time": 32.325581395349246,
          "velocity": 0.49606299212598426,
          "duration": 0.023255813953483084
        },
        {
          "name": "B0",
          "midi": 23,
          "time": 32.33720930232599,
          "velocity": 0.7244094488188977,
          "duration": 1.1511627906975193
        },
        {
          "name": "D#3",
          "midi": 51,
          "time": 32.33720930232599,
          "velocity": 0.5275590551181102,
          "duration": 0.09302325581394655
        },
        {
          "name": "A#3",
          "midi": 58,
          "time": 32.33720930232599,
          "velocity": 0.3700787401574803,
          "duration": 0.034883720930224626
        },
        {
          "name": "D7",
          "midi": 98,
          "time": 32.33720930232599,
          "velocity": 0.07874015748031496,
          "duration": 0.034883720930224626
        },
        {
          "name": "C#5",
          "midi": 73,
          "time": 32.36046511627947,
          "velocity": 0.14960629921259844,
          "duration": 0.13953488372092693
        },
        {
          "name": "A3",
          "midi": 57,
          "time": 32.37209302325621,
          "velocity": 0.41732283464566927,
          "duration": 0.03488372093023173
        },
        {
          "name": "F#2",
          "midi": 42,
          "time": 32.383720930232954,
          "velocity": 0.4409448818897638,
          "duration": 0.02325581395349019
        },
        {
          "name": "A#3",
          "midi": 58,
          "time": 32.406976744186444,
          "velocity": 0.5039370078740157,
          "duration": 0.15116279069766847
        },
        {
          "name": "F#4",
          "midi": 66,
          "time": 32.406976744186444,
          "velocity": 0.2204724409448819,
          "duration": 0.03488372093023173
        },
        {
          "name": "F6",
          "midi": 89,
          "time": 32.430232558139934,
          "velocity": 0.3937007874015748,
          "duration": 0.39534883720926217
        },
        {
          "name": "D#3",
          "midi": 51,
          "time": 32.441860465116676,
          "velocity": 0.5511811023622047,
          "duration": 0.02325581395349019
        },
        {
          "name": "D#3",
          "midi": 51,
          "time": 32.5000000000004,
          "velocity": 0.5039370078740157,
          "duration": 0.09302325581394655
        },
        {
          "name": "D6",
          "midi": 86,
          "time": 32.5000000000004,
          "velocity": 0.41732283464566927,
          "duration": 0.15116279069766136
        },
        {
          "name": "F#6",
          "midi": 90,
          "time": 32.5000000000004,
          "velocity": 0.1889763779527559,
          "duration": 0.06976744186045636
        },
        {
          "name": "D5",
          "midi": 74,
          "time": 32.51162790697714,
          "velocity": 0.3858267716535433,
          "duration": 0.15116279069766136
        },
        {
          "name": "G#5",
          "midi": 80,
          "time": 32.51162790697714,
          "velocity": 0.3228346456692913,
          "duration": 0.22093023255811772
        },
        {
          "name": "D#6",
          "midi": 87,
          "time": 32.51162790697714,
          "velocity": 0.3228346456692913,
          "duration": 0.058139534883714816
        },
        {
          "name": "F5",
          "midi": 77,
          "time": 32.52325581395388,
          "velocity": 0.2047244094488189,
          "duration": 0.09302325581395365
        },
        {
          "name": "C6",
          "midi": 84,
          "time": 32.54651162790737,
          "velocity": 0.31496062992125984,
          "duration": 0.290697674418567
        },
        {
          "name": "A#3",
          "midi": 58,
          "time": 32.569767441860854,
          "velocity": 0.3464566929133858,
          "duration": 0.17441860465114445
        },
        {
          "name": "F#4",
          "midi": 66,
          "time": 32.569767441860854,
          "velocity": 0.23622047244094488,
          "duration": 0.02325581395349019
        },
        {
          "name": "F#2",
          "midi": 42,
          "time": 32.627906976744576,
          "velocity": 0.4566929133858268,
          "duration": 0.023255813953483084
        },
        {
          "name": "F#4",
          "midi": 66,
          "time": 32.627906976744576,
          "velocity": 0.2125984251968504,
          "duration": 0.034883720930224626
        },
        {
          "name": "D#3",
          "midi": 51,
          "time": 32.63953488372132,
          "velocity": 0.4881889763779528,
          "duration": 0.11627906976742253
        },
        {
          "name": "C#5",
          "midi": 73,
          "time": 32.6627906976748,
          "velocity": 0.2204724409448819,
          "duration": 0.3837209302325064
        },
        {
          "name": "F5",
          "midi": 77,
          "time": 32.67441860465154,
          "velocity": 0.11023622047244094,
          "duration": 0.046511627906973274
        },
        {
          "name": "G2",
          "midi": 43,
          "time": 32.709302325581774,
          "velocity": 0.44881889763779526,
          "duration": 0.023255813953483084
        },
        {
          "name": "G5",
          "midi": 79,
          "time": 32.73255813953526,
          "velocity": 0.2992125984251969,
          "duration": 0.023255813953483084
        },
        {
          "name": "G2",
          "midi": 43,
          "time": 32.75581395348874,
          "velocity": 0.47244094488188976,
          "duration": 0.023255813953483084
        },
        {
          "name": "F4",
          "midi": 65,
          "time": 32.75581395348874,
          "velocity": 0.2992125984251969,
          "duration": 0.034883720930224626
        },
        {
          "name": "F#5",
          "midi": 78,
          "time": 32.75581395348874,
          "velocity": 0.2440944881889764,
          "duration": 0.023255813953483084
        },
        {
          "name": "D#3",
          "midi": 51,
          "time": 32.76744186046548,
          "velocity": 0.44881889763779526,
          "duration": 0.023255813953483084
        },
        {
          "name": "G#4",
          "midi": 68,
          "time": 32.76744186046548,
          "velocity": 0.29133858267716534,
          "duration": 0.0813953488371979
        },
        {
          "name": "D7",
          "midi": 98,
          "time": 32.8255813953492,
          "velocity": 0.3543307086614173,
          "duration": 0.06976744186045636
        },
        {
          "name": "D6",
          "midi": 86,
          "time": 32.83720930232594,
          "velocity": 0.14173228346456693,
          "duration": 0.0813953488371979
        },
        {
          "name": "F6",
          "midi": 89,
          "time": 32.83720930232594,
          "velocity": 0.1889763779527559,
          "duration": 0.03488372093023173
        },
        {
          "name": "F#6",
          "midi": 90,
          "time": 32.83720930232594,
          "velocity": 0.18110236220472442,
          "duration": 0.058139534883714816
        },
        {
          "name": "A6",
          "midi": 93,
          "time": 32.83720930232594,
          "velocity": 0.2992125984251969,
          "duration": 0.03488372093023173
        },
        {
          "name": "A#6",
          "midi": 94,
          "time": 32.83720930232594,
          "velocity": 0.2755905511811024,
          "duration": 0.06976744186045636
        },
        {
          "name": "B6",
          "midi": 95,
          "time": 32.83720930232594,
          "velocity": 0.28346456692913385,
          "duration": 0.03488372093023173
        },
        {
          "name": "C7",
          "midi": 96,
          "time": 32.83720930232594,
          "velocity": 0.28346456692913385,
          "duration": 0.09302325581393944
        },
        {
          "name": "D#7",
          "midi": 99,
          "time": 32.83720930232594,
          "velocity": 0.29133858267716534,
          "duration": 0.058139534883714816
        },
        {
          "name": "E7",
          "midi": 100,
          "time": 32.83720930232594,
          "velocity": 0.2283464566929134,
          "duration": 0.0813953488371979
        },
        {
          "name": "F7",
          "midi": 101,
          "time": 32.83720930232594,
          "velocity": 0.2440944881889764,
          "duration": 0.0813953488371979
        },
        {
          "name": "C#7",
          "midi": 97,
          "time": 32.84883720930268,
          "velocity": 0.2755905511811024,
          "duration": 0.058139534883714816
        },
        {
          "name": "G7",
          "midi": 103,
          "time": 32.84883720930268,
          "velocity": 0.16535433070866143,
          "duration": 0.06976744186045636
        },
        {
          "name": "F#2",
          "midi": 42,
          "time": 32.87209302325617,
          "velocity": 0.4409448818897638,
          "duration": 0.023255813953483084
        },
        {
          "name": "D#3",
          "midi": 51,
          "time": 32.87209302325617,
          "velocity": 0.41732283464566927,
          "duration": 0.023255813953483084
        },
        {
          "name": "G#6",
          "midi": 92,
          "time": 32.87209302325617,
          "velocity": 0.2283464566929134,
          "duration": 0.04651162790696617
        },
        {
          "name": "F4",
          "midi": 65,
          "time": 32.88372093023291,
          "velocity": 0.31496062992125984,
          "duration": 0.034883720930224626
        },
        {
          "name": "F6",
          "midi": 89,
          "time": 32.88372093023291,
          "velocity": 0.2047244094488189,
          "duration": 0.6395348837208203
        },
        {
          "name": "G6",
          "midi": 91,
          "time": 32.88372093023291,
          "velocity": 0.13385826771653545,
          "duration": 0.09302325581393944
        },
        {
          "name": "A6",
          "midi": 93,
          "time": 32.88372093023291,
          "velocity": 0.08661417322834646,
          "duration": 0.034883720930224626
        },
        {
          "name": "D#4",
          "midi": 63,
          "time": 32.906976744186395,
          "velocity": 0.31496062992125984,
          "duration": 0.034883720930224626
        },
        {
          "name": "F#2",
          "midi": 42,
          "time": 32.918604651163136,
          "velocity": 0.41732283464566927,
          "duration": 0.023255813953483084
        },
        {
          "name": "F4",
          "midi": 65,
          "time": 32.93023255813988,
          "velocity": 0.3228346456692913,
          "duration": 0.11627906976742963
        },
        {
          "name": "F#2",
          "midi": 42,
          "time": 32.95348837209336,
          "velocity": 0.4015748031496063,
          "duration": 0.02325581395349019
        },
        {
          "name": "F#2",
          "midi": 42,
          "time": 33.00000000000034,
          "velocity": 0.3937007874015748,
          "duration": 0.023255813953483084
        },
        {
          "name": "D7",
          "midi": 98,
          "time": 33.01162790697708,
          "velocity": 0.25984251968503935,
          "duration": 0.11627906976742253
        },
        {
          "name": "C6",
          "midi": 84,
          "time": 33.034883720930566,
          "velocity": 0.08661417322834646,
          "duration": 0.034883720930224626
        },
        {
          "name": "C#7",
          "midi": 97,
          "time": 33.034883720930566,
          "velocity": 0.18110236220472442,
          "duration": 0.0813953488371979
        },
        {
          "name": "B2",
          "midi": 47,
          "time": 33.04651162790731,
          "velocity": 0.48031496062992124,
          "duration": 0.034883720930224626
        },
        {
          "name": "A#3",
          "midi": 58,
          "time": 33.04651162790731,
          "velocity": 0.4881889763779528,
          "duration": 0.10465116279068098
        },
        {
          "name": "D5",
          "midi": 74,
          "time": 33.04651162790731,
          "velocity": 0.1732283464566929,
          "duration": 0.034883720930224626
        },
        {
          "name": "A#6",
          "midi": 94,
          "time": 33.04651162790731,
          "velocity": 0.18110236220472442,
          "duration": 0.058139534883714816
        },
        {
          "name": "B6",
          "midi": 95,
          "time": 33.04651162790731,
          "velocity": 0.2440944881889764,
          "duration": 0.058139534883714816
        },
        {
          "name": "C7",
          "midi": 96,
          "time": 33.04651162790731,
          "velocity": 0.2204724409448819,
          "duration": 0.06976744186045636
        },
        {
          "name": "D#7",
          "midi": 99,
          "time": 33.04651162790731,
          "velocity": 0.23622047244094488,
          "duration": 0.0813953488371979
        },
        {
          "name": "F4",
          "midi": 65,
          "time": 33.05813953488405,
          "velocity": 0.4015748031496063,
          "duration": 0.058139534883714816
        },
        {
          "name": "C#5",
          "midi": 73,
          "time": 33.08139534883753,
          "velocity": 0.15748031496062992,
          "duration": 0.39534883720923375
        },
        {
          "name": "D#3",
          "midi": 51,
          "time": 33.10465116279102,
          "velocity": 0.3858267716535433,
          "duration": 0.023255813953483084
        },
        {
          "name": "F#4",
          "midi": 66,
          "time": 33.116279069767764,
          "velocity": 0.3543307086614173,
          "duration": 0.09302325581393234
        },
        {
          "name": "D#3",
          "midi": 51,
          "time": 33.13953488372125,
          "velocity": 0.3858267716535433,
          "duration": 0.034883720930224626
        },
        {
          "name": "D7",
          "midi": 98,
          "time": 33.13953488372125,
          "velocity": 0.2677165354330709,
          "duration": 0.29069767441855277
        },
        {
          "name": "A3",
          "midi": 57,
          "time": 33.15116279069799,
          "velocity": 0.4015748031496063,
          "duration": 0.023255813953483084
        },
        {
          "name": "G#2",
          "midi": 44,
          "time": 33.16279069767473,
          "velocity": 0.4409448818897638,
          "duration": 0.023255813953483084
        },
        {
          "name": "A#3",
          "midi": 58,
          "time": 33.18604651162821,
          "velocity": 0.44881889763779526,
          "duration": 0.1395348837209056
        },
        {
          "name": "D#7",
          "midi": 99,
          "time": 33.18604651162821,
          "velocity": 0.25196850393700787,
          "duration": 0.1627906976743887
        },
        {
          "name": "D#3",
          "midi": 51,
          "time": 33.197674418604954,
          "velocity": 0.33858267716535434,
          "duration": 0.023255813953483084
        },
        {
          "name": "A#6",
          "midi": 94,
          "time": 33.197674418604954,
          "velocity": 0.07086614173228346,
          "duration": 0.04651162790696617
        },
        {
          "name": "C#7",
          "midi": 97,
          "time": 33.197674418604954,
          "velocity": 0.28346456692913385,
          "duration": 0.1395348837209056
        },
        {
          "name": "E7",
          "midi": 100,
          "time": 33.197674418604954,
          "velocity": 0.2677165354330709,
          "duration": 0.15116279069764715
        },
        {
          "name": "F#7",
          "midi": 102,
          "time": 33.197674418604954,
          "velocity": 0.2047244094488189,
          "duration": 0.2674418604650697
        },
        {
          "name": "G2",
          "midi": 43,
          "time": 33.209302325581696,
          "velocity": 0.3858267716535433,
          "duration": 0.023255813953483084
        },
        {
          "name": "F4",
          "midi": 65,
          "time": 33.209302325581696,
          "velocity": 0.3779527559055118,
          "duration": 0.04651162790696617
        },
        {
          "name": "D#3",
          "midi": 51,
          "time": 33.23255813953518,
          "velocity": 0.3543307086614173,
          "duration": 0.023255813953483084
        },
        {
          "name": "C7",
          "midi": 96,
          "time": 33.23255813953518,
          "velocity": 0.1889763779527559,
          "duration": 0.09302325581393944
        },
        {
          "name": "F#4",
          "midi": 66,
          "time": 33.25581395348866,
          "velocity": 0.3779527559055118,
          "duration": 0.18604651162787889
        },
        {
          "name": "D#4",
          "midi": 63,
          "time": 33.267441860465404,
          "velocity": 0.31496062992125984,
          "duration": 0.03488372093023173
        },
        {
          "name": "B6",
          "midi": 95,
          "time": 33.290697674418894,
          "velocity": 0.15748031496062992,
          "duration": 0.034883720930224626
        },
        {
          "name": "D#4",
          "midi": 63,
          "time": 33.31395348837238,
          "velocity": 0.41732283464566927,
          "duration": 0.12790697674416407
        },
        {
          "name": "F#2",
          "midi": 42,
          "time": 33.32558139534912,
          "velocity": 0.31496062992125984,
          "duration": 0.023255813953483084
        },
        {
          "name": "A3",
          "midi": 57,
          "time": 33.32558139534912,
          "velocity": 0.33858267716535434,
          "duration": 0.023255813953483084
        },
        {
          "name": "G7",
          "midi": 103,
          "time": 33.33720930232586,
          "velocity": 0.12598425196850394,
          "duration": 0.10465116279068098
        },
        {
          "name": "E7",
          "midi": 100,
          "time": 33.37209302325609,
          "velocity": 0.07086614173228346,
          "duration": 0.034883720930224626
        },
        {
          "name": "G6",
          "midi": 91,
          "time": 33.38372093023283,
          "velocity": 0.07086614173228346,
          "duration": 0.06976744186044925
        },
        {
          "name": "G3",
          "midi": 55,
          "time": 33.395348837209575,
          "velocity": 0.4015748031496063,
          "duration": 0.023255813953483084
        },
        {
          "name": "A3",
          "midi": 57,
          "time": 33.41860465116306,
          "velocity": 0.3937007874015748,
          "duration": 0.023255813953483084
        },
        {
          "name": "A#3",
          "midi": 58,
          "time": 33.44186046511654,
          "velocity": 0.4094488188976378,
          "duration": 0.10465116279067388
        },
        {
          "name": "F4",
          "midi": 65,
          "time": 33.44186046511654,
          "velocity": 0.3937007874015748,
          "duration": 0.10465116279067388
        },
        {
          "name": "E7",
          "midi": 100,
          "time": 33.44186046511654,
          "velocity": 0.25196850393700787,
          "duration": 0.11627906976741542
        },
        {
          "name": "A#6",
          "midi": 94,
          "time": 33.45348837209328,
          "velocity": 0.33858267716535434,
          "duration": 0.09302325581393234
        },
        {
          "name": "B6",
          "midi": 95,
          "time": 33.45348837209328,
          "velocity": 0.2677165354330709,
          "duration": 0.0813953488371908
        },
        {
          "name": "D#7",
          "midi": 99,
          "time": 33.45348837209328,
          "velocity": 0.2677165354330709,
          "duration": 0.0813953488371908
        },
        {
          "name": "F7",
          "midi": 101,
          "time": 33.45348837209328,
          "velocity": 0.29133858267716534,
          "duration": 0.11627906976741542
        },
        {
          "name": "C7",
          "midi": 96,
          "time": 33.465116279070024,
          "velocity": 0.31496062992125984,
          "duration": 0.10465116279067388
        },
        {
          "name": "C#7",
          "midi": 97,
          "time": 33.465116279070024,
          "velocity": 0.30708661417322836,
          "duration": 0.09302325581393234
        },
        {
          "name": "D5",
          "midi": 74,
          "time": 33.476744186046766,
          "velocity": 0.14960629921259844,
          "duration": 0.04651162790696617
        },
        {
          "name": "D7",
          "midi": 98,
          "time": 33.476744186046766,
          "velocity": 0.2992125984251969,
          "duration": 0.09302325581393234
        },
        {
          "name": "F#7",
          "midi": 102,
          "time": 33.476744186046766,
          "velocity": 0.18110236220472442,
          "duration": 0.0813953488371908
        },
        {
          "name": "C1",
          "midi": 24,
          "time": 33.48837209302351,
          "velocity": 0.5826771653543307,
          "duration": 0.011627906976741542
        },
        {
          "name": "E3",
          "midi": 52,
          "time": 33.48837209302351,
          "velocity": 0.3543307086614173,
          "duration": 0.023255813953483084
        },
        {
          "name": "A5",
          "midi": 81,
          "time": 33.48837209302351,
          "velocity": 0.14173228346456693,
          "duration": 0.034883720930224626
        },
        {
          "name": "E6",
          "midi": 88,
          "time": 33.48837209302351,
          "velocity": 0.08661417322834646,
          "duration": 0.034883720930224626
        },
        {
          "name": "A6",
          "midi": 93,
          "time": 33.48837209302351,
          "velocity": 0.29133858267716534,
          "duration": 0.04651162790696617
        },
        {
          "name": "B0",
          "midi": 23,
          "time": 33.50000000000025,
          "velocity": 0.5748031496062992,
          "duration": 0.011627906976741542
        },
        {
          "name": "C5",
          "midi": 72,
          "time": 33.50000000000025,
          "velocity": 0.1889763779527559,
          "duration": 0.17441860465114445
        },
        {
          "name": "A#0",
          "midi": 22,
          "time": 33.51162790697699,
          "velocity": 0.5669291338582677,
          "duration": 0.011627906976741542
        },
        {
          "name": "F3",
          "midi": 53,
          "time": 33.51162790697699,
          "velocity": 0.3543307086614173,
          "duration": 0.04651162790696617
        },
        {
          "name": "G7",
          "midi": 103,
          "time": 33.51162790697699,
          "velocity": 0.09448818897637795,
          "duration": 0.04651162790696617
        },
        {
          "name": "B0",
          "midi": 23,
          "time": 33.52325581395373,
          "velocity": 0.5748031496062992,
          "duration": 0.41860465116275236
        },
        {
          "name": "A2",
          "midi": 45,
          "time": 33.52325581395373,
          "velocity": 0.36220472440944884,
          "duration": 0.023255813953483084
        },
        {
          "name": "G4",
          "midi": 67,
          "time": 33.52325581395373,
          "velocity": 0.25984251968503935,
          "duration": 0.023255813953483084
        },
        {
          "name": "G#6",
          "midi": 92,
          "time": 33.52325581395373,
          "velocity": 0.1968503937007874,
          "duration": 0.034883720930224626
        },
        {
          "name": "G#4",
          "midi": 68,
          "time": 33.546511627907215,
          "velocity": 0.28346456692913385,
          "duration": 0.13953488372091982
        },
        {
          "name": "D#6",
          "midi": 87,
          "time": 33.558139534883956,
          "velocity": 0.11023622047244094,
          "duration": 0.3488372093023031
        },
        {
          "name": "F3",
          "midi": 53,
          "time": 33.58139534883744,
          "velocity": 0.33070866141732286,
          "duration": 0.1046511627906952
        },
        {
          "name": "C#4",
          "midi": 61,
          "time": 33.66279069767465,
          "velocity": 0.2047244094488189,
          "duration": 0.034883720930224626
        },
        {
          "name": "C7",
          "midi": 96,
          "time": 33.66279069767465,
          "velocity": 0.07086614173228346,
          "duration": 0.034883720930224626
        },
        {
          "name": "A#4",
          "midi": 70,
          "time": 33.67441860465139,
          "velocity": 0.3858267716535433,
          "duration": 0.023255813953483084
        },
        {
          "name": "C4",
          "midi": 60,
          "time": 33.697674418604876,
          "velocity": 0.23622047244094488,
          "duration": 0.03488372093023173
        },
        {
          "name": "A4",
          "midi": 69,
          "time": 33.697674418604876,
          "velocity": 0.47244094488188976,
          "duration": 0.02325581395349019
        },
        {
          "name": "C#5",
          "midi": 73,
          "time": 33.697674418604876,
          "velocity": 0.14173228346456693,
          "duration": 0.22093023255812483
        },
        {
          "name": "F#3",
          "midi": 54,
          "time": 33.720930232558366,
          "velocity": 0.31496062992125984,
          "duration": 0.17441860465115155
        },
        {
          "name": "G#4",
          "midi": 68,
          "time": 33.720930232558366,
          "velocity": 0.49606299212598426,
          "duration": 0.1860465116278931
        },
        {
          "name": "F4",
          "midi": 65,
          "time": 33.8372093023258,
          "velocity": 0.11023622047244094,
          "duration": 0.03488372093023173
        },
        {
          "name": "A#4",
          "midi": 70,
          "time": 33.883720930232776,
          "velocity": 0.33858267716535434,
          "duration": 0.05813953488370771
        },
        {
          "name": "A3",
          "midi": 57,
          "time": 33.89534883720952,
          "velocity": 0.30708661417322836,
          "duration": 0.034883720930224626
        },
        {
          "name": "C7",
          "midi": 96,
          "time": 33.89534883720952,
          "velocity": 0.11811023622047244,
          "duration": 0.034883720930224626
        },
        {
          "name": "D#5",
          "midi": 75,
          "time": 33.90697674418626,
          "velocity": 0.14960629921259844,
          "duration": 0.11627906976742253
        },
        {
          "name": "C6",
          "midi": 84,
          "time": 33.918604651163,
          "velocity": 0.08661417322834646,
          "duration": 0.0813953488371908
        },
        {
          "name": "G#3",
          "midi": 56,
          "time": 33.93023255813974,
          "velocity": 0.33858267716535434,
          "duration": 0.186046511627886
        },
        {
          "name": "E7",
          "midi": 100,
          "time": 33.93023255813974,
          "velocity": 0.23622047244094488,
          "duration": 0.034883720930224626
        },
        {
          "name": "B0",
          "midi": 23,
          "time": 33.953488372093226,
          "velocity": 0.41732283464566927,
          "duration": 0.15116279069766136
        },
        {
          "name": "A4",
          "midi": 69,
          "time": 33.953488372093226,
          "velocity": 0.28346456692913385,
          "duration": 0.023255813953483084
        },
        {
          "name": "A#4",
          "midi": 70,
          "time": 33.97674418604671,
          "velocity": 0.3858267716535433,
          "duration": 0.4069767441860179
        },
        {
          "name": "F6",
          "midi": 89,
          "time": 33.98837209302345,
          "velocity": 0.3543307086614173,
          "duration": 0.639534883720863
        },
        {
          "name": "E4",
          "midi": 64,
          "time": 34.04651162790717,
          "velocity": 0.1732283464566929,
          "duration": 0.046511627906973274
        },
        {
          "name": "D#5",
          "midi": 75,
          "time": 34.04651162790717,
          "velocity": 0.2440944881889764,
          "duration": 0.0813953488371979
        },
        {
          "name": "F#5",
          "midi": 78,
          "time": 34.06976744186066,
          "velocity": 0.3228346456692913,
          "duration": 0.06976744186044925
        },
        {
          "name": "D#6",
          "midi": 87,
          "time": 34.081395348837404,
          "velocity": 0.25196850393700787,
          "duration": 0.04651162790696617
        },
        {
          "name": "B0",
          "midi": 23,
          "time": 34.11627906976763,
          "velocity": 0.25196850393700787,
          "duration": 0.034883720930224626
        },
        {
          "name": "D7",
          "midi": 98,
          "time": 34.11627906976763,
          "velocity": 0.08661417322834646,
          "duration": 0.034883720930224626
        },
        {
          "name": "A4",
          "midi": 69,
          "time": 34.12790697674437,
          "velocity": 0.25196850393700787,
          "duration": 0.023255813953483084
        },
        {
          "name": "A#3",
          "midi": 58,
          "time": 34.13953488372111,
          "velocity": 0.4645669291338583,
          "duration": 0.24418604651161502
        },
        {
          "name": "D6",
          "midi": 86,
          "time": 34.13953488372111,
          "velocity": 0.13385826771653545,
          "duration": 0.1860465116279073
        },
        {
          "name": "G#4",
          "midi": 68,
          "time": 34.15116279069785,
          "velocity": 0.2204724409448819,
          "duration": 0.05813953488372192
        },
        {
          "name": "E5",
          "midi": 76,
          "time": 34.17441860465134,
          "velocity": 0.2755905511811024,
          "duration": 0.02325581395349019
        },
        {
          "name": "F5",
          "midi": 77,
          "time": 34.197674418604834,
          "velocity": 0.48031496062992124,
          "duration": 0.39534883720925507
        },
        {
          "name": "D#6",
          "midi": 87,
          "time": 34.197674418604834,
          "velocity": 0.13385826771653545,
          "duration": 0.03488372093023173
        },
        {
          "name": "C7",
          "midi": 96,
          "time": 34.29069767441879,
          "velocity": 0.2440944881889764,
          "duration": 0.23255813953484505
        },
        {
          "name": "F#1",
          "midi": 30,
          "time": 34.33720930232576,
          "velocity": 0.6850393700787402,
          "duration": 0.023255813953483084
        },
        {
          "name": "E4",
          "midi": 64,
          "time": 34.33720930232576,
          "velocity": 0.23622047244094488,
          "duration": 0.023255813953483084
        },
        {
          "name": "G#4",
          "midi": 68,
          "time": 34.33720930232576,
          "velocity": 0.33858267716535434,
          "duration": 0.2674418604650697
        },
        {
          "name": "D#6",
          "midi": 87,
          "time": 34.33720930232576,
          "velocity": 0.15748031496062992,
          "duration": 0.1395348837209056
        },
        {
          "name": "E7",
          "midi": 100,
          "time": 34.33720930232576,
          "velocity": 0.25984251968503935,
          "duration": 0.05813953488370771
        },
        {
          "name": "D3",
          "midi": 50,
          "time": 34.3488372093025,
          "velocity": 0.41732283464566927,
          "duration": 0.023255813953483084
        },
        {
          "name": "F1",
          "midi": 29,
          "time": 34.360465116279244,
          "velocity": 0.7165354330708661,
          "duration": 0.011627906976741542
        },
        {
          "name": "D#4",
          "midi": 63,
          "time": 34.360465116279244,
          "velocity": 0.2440944881889764,
          "duration": 0.023255813953483084
        },
        {
          "name": "D#1",
          "midi": 27,
          "time": 34.372093023255985,
          "velocity": 0.7480314960629921,
          "duration": 1.1395348837207635
        },
        {
          "name": "D6",
          "midi": 86,
          "time": 34.372093023255985,
          "velocity": 0.07874015748031496,
          "duration": 0.06976744186045636
        },
        {
          "name": "G3",
          "midi": 55,
          "time": 34.38372093023273,
          "velocity": 0.5196850393700787,
          "duration": 0.49999999999992895
        },
        {
          "name": "D#4",
          "midi": 63,
          "time": 34.39534883720947,
          "velocity": 0.2047244094488189,
          "duration": 0.03488372093023173
        },
        {
          "name": "D#7",
          "midi": 99,
          "time": 34.39534883720947,
          "velocity": 0.25984251968503935,
          "duration": 0.03488372093023173
        },
        {
          "name": "A#2",
          "midi": 46,
          "time": 34.44186046511644,
          "velocity": 0.4094488188976378,
          "duration": 0.04651162790696617
        },
        {
          "name": "A#4",
          "midi": 70,
          "time": 34.45348837209318,
          "velocity": 0.2125984251968504,
          "duration": 0.05813953488370771
        },
        {
          "name": "D6",
          "midi": 86,
          "time": 34.465116279069925,
          "velocity": 0.3858267716535433,
          "duration": 0.2441860465115937
        },
        {
          "name": "A#5",
          "midi": 82,
          "time": 34.48837209302341,
          "velocity": 0.2677165354330709,
          "duration": 0.034883720930224626
        },
        {
          "name": "C#6",
          "midi": 85,
          "time": 34.48837209302341,
          "velocity": 0.29133858267716534,
          "duration": 0.04651162790696617
        },
        {
          "name": "D#6",
          "midi": 87,
          "time": 34.48837209302341,
          "velocity": 0.4330708661417323,
          "duration": 0.06976744186044925
        },
        {
          "name": "A#2",
          "midi": 46,
          "time": 34.50000000000015,
          "velocity": 0.4566929133858268,
          "duration": 0.11627906976742253
        },
        {
          "name": "D5",
          "midi": 74,
          "time": 34.50000000000015,
          "velocity": 0.33070866141732286,
          "duration": 0.10465116279068098
        },
        {
          "name": "G5",
          "midi": 79,
          "time": 34.50000000000015,
          "velocity": 0.3858267716535433,
          "duration": 0.023255813953483084
        },
        {
          "name": "A5",
          "midi": 81,
          "time": 34.50000000000015,
          "velocity": 0.4094488188976378,
          "duration": 0.023255813953483084
        },
        {
          "name": "B5",
          "midi": 83,
          "time": 34.50000000000015,
          "velocity": 0.25196850393700787,
          "duration": 0.04651162790696617
        },
        {
          "name": "G#5",
          "midi": 80,
          "time": 34.51162790697689,
          "velocity": 0.4409448818897638,
          "duration": 0.034883720930224626
        },
        {
          "name": "C6",
          "midi": 84,
          "time": 34.52325581395363,
          "velocity": 0.25984251968503935,
          "duration": 0.12790697674417117
        },
        {
          "name": "F4",
          "midi": 65,
          "time": 34.534883720930374,
          "velocity": 0.1889763779527559,
          "duration": 0.0813953488371979
        },
        {
          "name": "A#5",
          "midi": 82,
          "time": 34.534883720930374,
          "velocity": 0.1732283464566929,
          "duration": 0.0813953488371979
        },
        {
          "name": "E6",
          "midi": 88,
          "time": 34.534883720930374,
          "velocity": 0.3779527559055118,
          "duration": 0.06976744186045636
        },
        {
          "name": "G5",
          "midi": 79,
          "time": 34.546511627907115,
          "velocity": 0.33070866141732286,
          "duration": 0.023255813953483084
        },
        {
          "name": "E4",
          "midi": 64,
          "time": 34.61627906976757,
          "velocity": 0.2283464566929134,
          "duration": 0.03488372093023173
        },
        {
          "name": "D#6",
          "midi": 87,
          "time": 34.61627906976757,
          "velocity": 0.12598425196850394,
          "duration": 0.12790697674417117
        },
        {
          "name": "A#2",
          "midi": 46,
          "time": 34.62790697674431,
          "velocity": 0.4881889763779528,
          "duration": 0.11627906976742963
        },
        {
          "name": "G#4",
          "midi": 68,
          "time": 34.62790697674431,
          "velocity": 0.3700787401574803,
          "duration": 0.081395348837205
        },
        {
          "name": "F5",
          "midi": 77,
          "time": 34.662790697674545,
          "velocity": 0.2047244094488189,
          "duration": 0.27906976744182543
        },
        {
          "name": "A4",
          "midi": 69,
          "time": 34.70930232558152,
          "velocity": 0.36220472440944884,
          "duration": 0.023255813953483084
        },
        {
          "name": "B3",
          "midi": 59,
          "time": 34.72093023255826,
          "velocity": 0.48031496062992124,
          "duration": 0.15116279069765426
        },
        {
          "name": "F#4",
          "midi": 66,
          "time": 34.72093023255826,
          "velocity": 0.48031496062992124,
          "duration": 0.05813953488370771
        },
        {
          "name": "C#6",
          "midi": 85,
          "time": 34.72093023255826,
          "velocity": 0.1732283464566929,
          "duration": 0.06976744186044925
        },
        {
          "name": "F6",
          "midi": 89,
          "time": 34.732558139535,
          "velocity": 0.2125984251968504,
          "duration": 0.04651162790696617
        },
        {
          "name": "D#5",
          "midi": 75,
          "time": 34.74418604651174,
          "velocity": 0.15748031496062992,
          "duration": 0.034883720930224626
        },
        {
          "name": "A#2",
          "midi": 46,
          "time": 34.755813953488484,
          "velocity": 0.4566929133858268,
          "duration": 0.034883720930224626
        },
        {
          "name": "G#4",
          "midi": 68,
          "time": 34.755813953488484,
          "velocity": 0.3543307086614173,
          "duration": 0.06976744186045636
        },
        {
          "name": "D#6",
          "midi": 87,
          "time": 34.755813953488484,
          "velocity": 0.3779527559055118,
          "duration": 0.49999999999992895
        },
        {
          "name": "F#6",
          "midi": 90,
          "time": 34.755813953488484,
          "velocity": 0.1732283464566929,
          "duration": 0.034883720930224626
        },
        {
          "name": "C7",
          "midi": 96,
          "time": 34.755813953488484,
          "velocity": 0.16535433070866143,
          "duration": 0.0813953488371979
        },
        {
          "name": "G5",
          "midi": 79,
          "time": 34.767441860465226,
          "velocity": 0.07874015748031496,
          "duration": 0.034883720930224626
        },
        {
          "name": "E7",
          "midi": 100,
          "time": 34.79069767441871,
          "velocity": 0.2047244094488189,
          "duration": 0.081395348837205
        },
        {
          "name": "F#4",
          "midi": 66,
          "time": 34.82558139534894,
          "velocity": 0.3700787401574803,
          "duration": 0.046511627906973274
        },
        {
          "name": "A6",
          "midi": 93,
          "time": 34.82558139534894,
          "velocity": 0.16535433070866143,
          "duration": 0.046511627906973274
        },
        {
          "name": "G#5",
          "midi": 80,
          "time": 34.83720930232568,
          "velocity": 0.12598425196850394,
          "duration": 0.03488372093023173
        },
        {
          "name": "G#4",
          "midi": 68,
          "time": 34.848837209302424,
          "velocity": 0.2992125984251969,
          "duration": 0.10465116279068809
        },
        {
          "name": "A#2",
          "midi": 46,
          "time": 34.906976744186146,
          "velocity": 0.3937007874015748,
          "duration": 0.034883720930224626
        },
        {
          "name": "G3",
          "midi": 55,
          "time": 34.91860465116289,
          "velocity": 0.41732283464566927,
          "duration": 0.15116279069764715
        },
        {
          "name": "E7",
          "midi": 100,
          "time": 34.93023255813963,
          "velocity": 0.2440944881889764,
          "duration": 0.06976744186044925
        },
        {
          "name": "G#6",
          "midi": 92,
          "time": 34.94186046511637,
          "velocity": 0.11023622047244094,
          "duration": 0.034883720930224626
        },
        {
          "name": "F#4",
          "midi": 66,
          "time": 34.95348837209311,
          "velocity": 0.44881889763779526,
          "duration": 0.09302325581393944
        },
        {
          "name": "G6",
          "midi": 91,
          "time": 34.95348837209311,
          "velocity": 0.14173228346456693,
          "duration": 0.034883720930224626
        },
        {
          "name": "F#7",
          "midi": 102,
          "time": 34.95348837209311,
          "velocity": 0.10236220472440945,
          "duration": 0.034883720930224626
        },
        {
          "name": "B3",
          "midi": 59,
          "time": 34.96511627906985,
          "velocity": 0.4409448818897638,
          "duration": 0.09302325581393944
        },
        {
          "name": "F#6",
          "midi": 90,
          "time": 34.96511627906985,
          "velocity": 0.11023622047244094,
          "duration": 0.034883720930224626
        },
        {
          "name": "F7",
          "midi": 101,
          "time": 34.96511627906985,
          "velocity": 0.08661417322834646,
          "duration": 0.034883720930224626
        },
        {
          "name": "D#5",
          "midi": 75,
          "time": 34.976744186046595,
          "velocity": 0.15748031496062992,
          "duration": 0.058139534883714816
        },
        {
          "name": "F5",
          "midi": 77,
          "time": 34.976744186046595,
          "velocity": 0.28346456692913385,
          "duration": 0.06976744186045636
        },
        {
          "name": "A#4",
          "midi": 70,
          "time": 35.02325581395357,
          "velocity": 0.2440944881889764,
          "duration": 0.04651162790696617
        },
        {
          "name": "A#2",
          "midi": 46,
          "time": 35.03488372093031,
          "velocity": 0.4409448818897638,
          "duration": 0.034883720930224626
        },
        {
          "name": "G#4",
          "midi": 68,
          "time": 35.03488372093031,
          "velocity": 0.3700787401574803,
          "duration": 0.09302325581393944
        },
        {
          "name": "D5",
          "midi": 74,
          "time": 35.03488372093031,
          "velocity": 0.15748031496062992,
          "duration": 0.06976744186045636
        },
        {
          "name": "F4",
          "midi": 65,
          "time": 35.04651162790705,
          "velocity": 0.3858267716535433,
          "duration": 0.058139534883714816
        },
        {
          "name": "A#2",
          "midi": 46,
          "time": 35.081395348837276,
          "velocity": 0.41732283464566927,
          "duration": 0.02325581395349019
        },
        {
          "name": "B3",
          "midi": 59,
          "time": 35.104651162790766,
          "velocity": 0.5039370078740157,
          "duration": 0.10465116279068098
        },
        {
          "name": "D#5",
          "midi": 75,
          "time": 35.104651162790766,
          "velocity": 0.3700787401574803,
          "duration": 0.15116279069764715
        },
        {
          "name": "F#4",
          "midi": 66,
          "time": 35.11627906976751,
          "velocity": 0.33858267716535434,
          "duration": 0.058139534883714816
        },
        {
          "name": "G3",
          "midi": 55,
          "time": 35.13953488372099,
          "velocity": 0.3543307086614173,
          "duration": 0.046511627906973274
        },
        {
          "name": "G#4",
          "midi": 68,
          "time": 35.13953488372099,
          "velocity": 0.31496062992125984,
          "duration": 0.0813953488371979
        },
        {
          "name": "B5",
          "midi": 83,
          "time": 35.15116279069773,
          "velocity": 0.3779527559055118,
          "duration": 0.10465116279068098
        },
        {
          "name": "C7",
          "midi": 96,
          "time": 35.17441860465122,
          "velocity": 0.14173228346456693,
          "duration": 0.034883720930224626
        },
        {
          "name": "E7",
          "midi": 100,
          "time": 35.17441860465122,
          "velocity": 0.2440944881889764,
          "duration": 0.10465116279067388
        },
        {
          "name": "C#6",
          "midi": 85,
          "time": 35.186046511627964,
          "velocity": 0.30708661417322836,
          "duration": 0.09302325581393234
        },
        {
          "name": "A#4",
          "midi": 70,
          "time": 35.197674418604706,
          "velocity": 0.5118110236220472,
          "duration": 1.2325581395346887
        },
        {
          "name": "A5",
          "midi": 81,
          "time": 35.197674418604706,
          "velocity": 0.11811023622047244,
          "duration": 0.05813953488370771
        },
        {
          "name": "A6",
          "midi": 93,
          "time": 35.197674418604706,
          "velocity": 0.2755905511811024,
          "duration": 0.04651162790696617
        },
        {
          "name": "A#6",
          "midi": 94,
          "time": 35.197674418604706,
          "velocity": 0.29133858267716534,
          "duration": 0.0813953488371908
        },
        {
          "name": "C#7",
          "midi": 97,
          "time": 35.197674418604706,
          "velocity": 0.30708661417322836,
          "duration": 0.06976744186044925
        },
        {
          "name": "D7",
          "midi": 98,
          "time": 35.197674418604706,
          "velocity": 0.33070866141732286,
          "duration": 0.09302325581393234
        },
        {
          "name": "F7",
          "midi": 101,
          "time": 35.197674418604706,
          "velocity": 0.2677165354330709,
          "duration": 0.06976744186044925
        },
        {
          "name": "F#7",
          "midi": 102,
          "time": 35.197674418604706,
          "velocity": 0.2125984251968504,
          "duration": 0.06976744186044925
        },
        {
          "name": "G7",
          "midi": 103,
          "time": 35.197674418604706,
          "velocity": 0.2047244094488189,
          "duration": 0.06976744186044925
        },
        {
          "name": "A#2",
          "midi": 46,
          "time": 35.20930232558145,
          "velocity": 0.3937007874015748,
          "duration": 0.023255813953483084
        },
        {
          "name": "E4",
          "midi": 64,
          "time": 35.20930232558145,
          "velocity": 0.28346456692913385,
          "duration": 0.04651162790696617
        },
        {
          "name": "F5",
          "midi": 77,
          "time": 35.20930232558145,
          "velocity": 0.14173228346456693,
          "duration": 0.15116279069764005
        },
        {
          "name": "E6",
          "midi": 88,
          "time": 35.20930232558145,
          "velocity": 0.23622047244094488,
          "duration": 0.023255813953483084
        },
        {
          "name": "F6",
          "midi": 89,
          "time": 35.20930232558145,
          "velocity": 0.25984251968503935,
          "duration": 0.05813953488370771
        },
        {
          "name": "F#6",
          "midi": 90,
          "time": 35.20930232558145,
          "velocity": 0.16535433070866143,
          "duration": 0.04651162790696617
        },
        {
          "name": "G3",
          "midi": 55,
          "time": 35.22093023255819,
          "velocity": 0.31496062992125984,
          "duration": 0.04651162790696617
        },
        {
          "name": "B3",
          "midi": 59,
          "time": 35.22093023255819,
          "velocity": 0.3543307086614173,
          "duration": 0.023255813953483084
        },
        {
          "name": "C7",
          "midi": 96,
          "time": 35.22093023255819,
          "velocity": 0.25196850393700787,
          "duration": 0.0813953488371908
        },
        {
          "name": "G#4",
          "midi": 68,
          "time": 35.23255813953493,
          "velocity": 0.31496062992125984,
          "duration": 0.023255813953483084
        },
        {
          "name": "A#2",
          "midi": 46,
          "time": 35.267441860465155,
          "velocity": 0.3779527559055118,
          "duration": 0.023255813953483084
        },
        {
          "name": "B3",
          "midi": 59,
          "time": 35.267441860465155,
          "velocity": 0.5275590551181102,
          "duration": 0.09302325581393234
        },
        {
          "name": "G#4",
          "midi": 68,
          "time": 35.267441860465155,
          "velocity": 0.30708661417322836,
          "duration": 0.06976744186044925
        },
        {
          "name": "D#5",
          "midi": 75,
          "time": 35.2790697674419,
          "velocity": 0.3543307086614173,
          "duration": 0.0813953488371908
        },
        {
          "name": "G#6",
          "midi": 92,
          "time": 35.30232558139538,
          "velocity": 0.2677165354330709,
          "duration": 0.034883720930224626
        },
        {
          "name": "F7",
          "midi": 101,
          "time": 35.30232558139538,
          "velocity": 0.16535433070866143,
          "duration": 0.05813953488370771
        },
        {
          "name": "D#3",
          "midi": 51,
          "time": 35.31395348837212,
          "velocity": 0.33070866141732286,
          "duration": 0.023255813953483084
        },
        {
          "name": "A6",
          "midi": 93,
          "time": 35.31395348837212,
          "velocity": 0.2283464566929134,
          "duration": 0.04651162790696617
        },
        {
          "name": "C7",
          "midi": 96,
          "time": 35.32558139534886,
          "velocity": 0.11811023622047244,
          "duration": 0.06976744186045636
        },
        {
          "name": "A#2",
          "midi": 46,
          "time": 35.337209302325604,
          "velocity": 0.33858267716535434,
          "duration": 0.046511627906973274
        },
        {
          "name": "G6",
          "midi": 91,
          "time": 35.337209302325604,
          "velocity": 0.23622047244094488,
          "duration": 0.023255813953483084
        },
        {
          "name": "G#4",
          "midi": 68,
          "time": 35.348837209302346,
          "velocity": 0.3464566929133858,
          "duration": 0.12790697674417828
        },
        {
          "name": "F#6",
          "midi": 90,
          "time": 35.348837209302346,
          "velocity": 0.25196850393700787,
          "duration": 0.03488372093023173
        },
        {
          "name": "A#3",
          "midi": 58,
          "time": 35.36046511627909,
          "velocity": 0.4330708661417323,
          "duration": 0.03488372093023173
        },
        {
          "name": "F4",
          "midi": 65,
          "time": 35.36046511627909,
          "velocity": 0.1968503937007874,
          "duration": 0.03488372093023173
        },
        {
          "name": "D5",
          "midi": 74,
          "time": 35.36046511627909,
          "velocity": 0.3543307086614173,
          "duration": 0.046511627906973274
        },
        {
          "name": "F6",
          "midi": 89,
          "time": 35.36046511627909,
          "velocity": 0.14173228346456693,
          "duration": 0.03488372093023173
        },
        {
          "name": "D#3",
          "midi": 51,
          "time": 35.40697674418606,
          "velocity": 0.3228346456692913,
          "duration": 0.09302325581394655
        },
        {
          "name": "G#3",
          "midi": 56,
          "time": 35.40697674418606,
          "velocity": 0.30708661417322836,
          "duration": 0.023255813953483084
        },
        {
          "name": "F6",
          "midi": 89,
          "time": 35.4186046511628,
          "velocity": 0.08661417322834646,
          "duration": 0.03488372093023173
        },
        {
          "name": "A#3",
          "midi": 58,
          "time": 35.430232558139544,
          "velocity": 0.33858267716535434,
          "duration": 0.081395348837205
        },
        {
          "name": "F5",
          "midi": 77,
          "time": 35.453488372093034,
          "velocity": 0.12598425196850394,
          "duration": 0.15116279069764715
        },
        {
          "name": "D#5",
          "midi": 75,
          "time": 35.476744186046524,
          "velocity": 0.09448818897637795,
          "duration": 0.04651162790696617
        },
        {
          "name": "G#4",
          "midi": 68,
          "time": 35.488372093023266,
          "velocity": 0.33858267716535434,
          "duration": 0.12790697674415696
        },
        {
          "name": "D1",
          "midi": 26,
          "time": 35.51162790697675,
          "velocity": 0.5905511811023622,
          "duration": 0.023255813953483084
        },
        {
          "name": "F2",
          "midi": 41,
          "time": 35.52325581395349,
          "velocity": 0.5590551181102362,
          "duration": 0.011627906976741542
        },
        {
          "name": "D#3",
          "midi": 51,
          "time": 35.52325581395349,
          "velocity": 0.3779527559055118,
          "duration": 0.05813953488370771
        },
        {
          "name": "F1",
          "midi": 29,
          "time": 35.53488372093023,
          "velocity": 0.5984251968503937,
          "duration": 0.011627906976741542
        },
        {
          "name": "D#1",
          "midi": 27,
          "time": 35.54651162790697,
          "velocity": 0.5196850393700787,
          "duration": 0.011627906976741542
        },
        {
          "name": "A#3",
          "midi": 58,
          "time": 35.54651162790697,
          "velocity": 0.4645669291338583,
          "duration": 0.06976744186044925
        },
        {
          "name": "C#1",
          "midi": 25,
          "time": 35.558139534883715,
          "velocity": 0.5275590551181102,
          "duration": 0.011627906976741542
        },
        {
          "name": "D#1",
          "midi": 27,
          "time": 35.569767441860456,
          "velocity": 0.5354330708661418,
          "duration": 0.04651162790696617
        },
        {
          "name": "E3",
          "midi": 52,
          "time": 35.5813953488372,
          "velocity": 0.3543307086614173,
          "duration": 0.023255813953483084
        },
        {
          "name": "G#6",
          "midi": 92,
          "time": 35.5813953488372,
          "velocity": 0.07874015748031496,
          "duration": 0.04651162790696617
        },
        {
          "name": "D5",
          "midi": 74,
          "time": 35.59302325581394,
          "velocity": 0.2677165354330709,
          "duration": 0.034883720930224626
        },
        {
          "name": "F#5",
          "midi": 78,
          "time": 35.60465116279068,
          "velocity": 0.15748031496062992,
          "duration": 0.034883720930224626
        },
        {
          "name": "F#6",
          "midi": 90,
          "time": 35.60465116279068,
          "velocity": 0.2204724409448819,
          "duration": 0.05813953488370771
        },
        {
          "name": "C1",
          "midi": 24,
          "time": 35.61627906976742,
          "velocity": 0.6141732283464567,
          "duration": 0.023255813953483084
        },
        {
          "name": "B3",
          "midi": 59,
          "time": 35.61627906976742,
          "velocity": 0.4645669291338583,
          "duration": 0.0813953488371908
        },
        {
          "name": "A5",
          "midi": 81,
          "time": 35.61627906976742,
          "velocity": 0.13385826771653545,
          "duration": 0.034883720930224626
        },
        {
          "name": "C#6",
          "midi": 85,
          "time": 35.61627906976742,
          "velocity": 0.09448818897637795,
          "duration": 0.04651162790696617
        },
        {
          "name": "G6",
          "midi": 91,
          "time": 35.61627906976742,
          "velocity": 0.11023622047244094,
          "duration": 0.04651162790696617
        },
        {
          "name": "D#4",
          "midi": 63,
          "time": 35.627906976744164,
          "velocity": 0.33858267716535434,
          "duration": 0.19767441860462043
        },
        {
          "name": "F#4",
          "midi": 66,
          "time": 35.627906976744164,
          "velocity": 0.29133858267716534,
          "duration": 0.17441860465113734
        },
        {
          "name": "F6",
          "midi": 89,
          "time": 35.627906976744164,
          "velocity": 0.2677165354330709,
          "duration": 0.8720930232556796
        },
        {
          "name": "C#1",
          "midi": 25,
          "time": 35.639534883720906,
          "velocity": 0.7007874015748031,
          "duration": 0.023255813953483084
        },
        {
          "name": "C#5",
          "midi": 73,
          "time": 35.639534883720906,
          "velocity": 0.16535433070866143,
          "duration": 0.5116279069766847
        },
        {
          "name": "B6",
          "midi": 95,
          "time": 35.639534883720906,
          "velocity": 0.07086614173228346,
          "duration": 0.05813953488370771
        },
        {
          "name": "G2",
          "midi": 43,
          "time": 35.65116279069765,
          "velocity": 0.47244094488188976,
          "duration": 0.023255813953483084
        },
        {
          "name": "F#3",
          "midi": 54,
          "time": 35.65116279069765,
          "velocity": 0.5039370078740157,
          "duration": 0.034883720930224626
        },
        {
          "name": "A6",
          "midi": 93,
          "time": 35.65116279069765,
          "velocity": 0.12598425196850394,
          "duration": 0.034883720930224626
        },
        {
          "name": "B0",
          "midi": 23,
          "time": 35.66279069767439,
          "velocity": 0.7165354330708661,
          "duration": 0.04651162790696617
        },
        {
          "name": "A#0",
          "midi": 22,
          "time": 35.709302325581355,
          "velocity": 0.7165354330708661,
          "duration": 0.011627906976741542
        },
        {
          "name": "B3",
          "midi": 59,
          "time": 35.709302325581355,
          "velocity": 0.2283464566929134,
          "duration": 0.03488372093023173
        },
        {
          "name": "B0",
          "midi": 23,
          "time": 35.720930232558096,
          "velocity": 0.7322834645669292,
          "duration": 0.186046511627886
        },
        {
          "name": "F#2",
          "midi": 42,
          "time": 35.76744186046508,
          "velocity": 0.4251968503937008,
          "duration": 0.023255813953483084
        },
        {
          "name": "D3",
          "midi": 50,
          "time": 35.76744186046508,
          "velocity": 0.5118110236220472,
          "duration": 0.011627906976741542
        },
        {
          "name": "D#3",
          "midi": 51,
          "time": 35.79069767441856,
          "velocity": 0.5354330708661418,
          "duration": 0.011627906976741542
        },
        {
          "name": "C4",
          "midi": 60,
          "time": 35.79069767441856,
          "velocity": 0.44881889763779526,
          "duration": 0.023255813953483084
        },
        {
          "name": "D3",
          "midi": 50,
          "time": 35.8023255813953,
          "velocity": 0.5433070866141733,
          "duration": 0.011627906976741542
        },
        {
          "name": "D#3",
          "midi": 51,
          "time": 35.81395348837204,
          "velocity": 0.5039370078740157,
          "duration": 0.023255813953483084
        },
        {
          "name": "B3",
          "midi": 59,
          "time": 35.81395348837204,
          "velocity": 0.4094488188976378,
          "duration": 0.023255813953483084
        },
        {
          "name": "D7",
          "midi": 98,
          "time": 35.81395348837204,
          "velocity": 0.07086614173228346,
          "duration": 0.06976744186045636
        },
        {
          "name": "F4",
          "midi": 65,
          "time": 35.825581395348784,
          "velocity": 0.31496062992125984,
          "duration": 0.023255813953483084
        },
        {
          "name": "D3",
          "midi": 50,
          "time": 35.837209302325526,
          "velocity": 0.5118110236220472,
          "duration": 0.011627906976741542
        },
        {
          "name": "D#4",
          "midi": 63,
          "time": 35.837209302325526,
          "velocity": 0.31496062992125984,
          "duration": 0.22093023255811772
        },
        {
          "name": "F#4",
          "midi": 66,
          "time": 35.84883720930227,
          "velocity": 0.1889763779527559,
          "duration": 0.09302325581394655
        },
        {
          "name": "D#3",
          "midi": 51,
          "time": 35.87209302325576,
          "velocity": 0.5196850393700787,
          "duration": 0.267441860465091
        },
        {
          "name": "F#2",
          "midi": 42,
          "time": 35.89534883720924,
          "velocity": 0.4330708661417323,
          "duration": 0.023255813953483084
        },
        {
          "name": "A#0",
          "midi": 22,
          "time": 35.90697674418598,
          "velocity": 0.7165354330708661,
          "duration": 0.011627906976741542
        },
        {
          "name": "B0",
          "midi": 23,
          "time": 35.918604651162724,
          "velocity": 0.7322834645669292,
          "duration": 0.9534883720928846
        },
        {
          "name": "B3",
          "midi": 59,
          "time": 35.965116279069704,
          "velocity": 0.3937007874015748,
          "duration": 0.11627906976742963
        },
        {
          "name": "F#4",
          "midi": 66,
          "time": 35.965116279069704,
          "velocity": 0.11023622047244094,
          "duration": 0.058139534883714816
        },
        {
          "name": "G2",
          "midi": 43,
          "time": 36.01162790697668,
          "velocity": 0.44881889763779526,
          "duration": 0.023255813953483084
        },
        {
          "name": "G4",
          "midi": 67,
          "time": 36.02325581395342,
          "velocity": 0.36220472440944884,
          "duration": 0.023255813953483084
        },
        {
          "name": "F#4",
          "midi": 66,
          "time": 36.0465116279069,
          "velocity": 0.3937007874015748,
          "duration": 0.03488372093023173
        },
        {
          "name": "A#3",
          "midi": 58,
          "time": 36.081395348837134,
          "velocity": 0.3464566929133858,
          "duration": 0.0813953488371979
        },
        {
          "name": "C#7",
          "midi": 97,
          "time": 36.081395348837134,
          "velocity": 0.11811023622047244,
          "duration": 0.06976744186045636
        },
        {
          "name": "D#7",
          "midi": 99,
          "time": 36.093023255813875,
          "velocity": 0.10236220472440945,
          "duration": 0.03488372093023173
        },
        {
          "name": "E7",
          "midi": 100,
          "time": 36.10465116279062,
          "velocity": 0.07874015748031496,
          "duration": 0.046511627906973274
        },
        {
          "name": "F#4",
          "midi": 66,
          "time": 36.12790697674411,
          "velocity": 0.2677165354330709,
          "duration": 0.023255813953483084
        },
        {
          "name": "D#3",
          "midi": 51,
          "time": 36.15116279069759,
          "velocity": 0.47244094488188976,
          "duration": 0.023255813953483084
        },
        {
          "name": "F4",
          "midi": 65,
          "time": 36.15116279069759,
          "velocity": 0.28346456692913385,
          "duration": 0.023255813953483084
        },
        {
          "name": "B4",
          "midi": 71,
          "time": 36.15116279069759,
          "velocity": 0.25984251968503935,
          "duration": 0.023255813953483084
        },
        {
          "name": "C6",
          "midi": 84,
          "time": 36.16279069767433,
          "velocity": 0.14960629921259844,
          "duration": 0.0813953488371908
        },
        {
          "name": "F#2",
          "midi": 42,
          "time": 36.17441860465107,
          "velocity": 0.4566929133858268,
          "duration": 0.05813953488370771
        },
        {
          "name": "D#3",
          "midi": 51,
          "time": 36.186046511627815,
          "velocity": 0.44881889763779526,
          "duration": 0.023255813953483084
        },
        {
          "name": "D5",
          "midi": 74,
          "time": 36.19767441860456,
          "velocity": 0.2677165354330709,
          "duration": 0.0813953488371908
        },
        {
          "name": "F#6",
          "midi": 90,
          "time": 36.19767441860456,
          "velocity": 0.14960629921259844,
          "duration": 0.034883720930224626
        },
        {
          "name": "F5",
          "midi": 77,
          "time": 36.2093023255813,
          "velocity": 0.33070866141732286,
          "duration": 0.06976744186044925
        },
        {
          "name": "G5",
          "midi": 79,
          "time": 36.2093023255813,
          "velocity": 0.2755905511811024,
          "duration": 0.034883720930224626
        },
        {
          "name": "D6",
          "midi": 86,
          "time": 36.2093023255813,
          "velocity": 0.2677165354330709,
          "duration": 0.10465116279067388
        },
        {
          "name": "D#6",
          "midi": 87,
          "time": 36.2093023255813,
          "velocity": 0.2440944881889764,
          "duration": 0.023255813953483084
        },
        {
          "name": "E6",
          "midi": 88,
          "time": 36.2093023255813,
          "velocity": 0.2204724409448819,
          "duration": 0.09302325581393234
        },
        {
          "name": "D#3",
          "midi": 51,
          "time": 36.22093023255804,
          "velocity": 0.4645669291338583,
          "duration": 0.023255813953483084
        },
        {
          "name": "B3",
          "midi": 59,
          "time": 36.23255813953478,
          "velocity": 0.33858267716535434,
          "duration": 0.034883720930224626
        },
        {
          "name": "G#5",
          "midi": 80,
          "time": 36.23255813953478,
          "velocity": 0.13385826771653545,
          "duration": 0.04651162790696617
        },
        {
          "name": "D#4",
          "midi": 63,
          "time": 36.255813953488264,
          "velocity": 0.3779527559055118,
          "duration": 0.09302325581393234
        },
        {
          "name": "C6",
          "midi": 84,
          "time": 36.255813953488264,
          "velocity": 0.1889763779527559,
          "duration": 0.034883720930224626
        },
        {
          "name": "G#6",
          "midi": 92,
          "time": 36.255813953488264,
          "velocity": 0.14173228346456693,
          "duration": 0.034883720930224626
        },
        {
          "name": "C#5",
          "midi": 73,
          "time": 36.267441860465006,
          "velocity": 0.2125984251968504,
          "duration": 0.15116279069764715
        },
        {
          "name": "B6",
          "midi": 95,
          "time": 36.267441860465006,
          "velocity": 0.25984251968503935,
          "duration": 0.034883720930224626
        },
        {
          "name": "D7",
          "midi": 98,
          "time": 36.267441860465006,
          "velocity": 0.33070866141732286,
          "duration": 0.05813953488370771
        },
        {
          "name": "D#3",
          "midi": 51,
          "time": 36.27906976744175,
          "velocity": 0.41732283464566927,
          "duration": 0.023255813953483084
        },
        {
          "name": "A3",
          "midi": 57,
          "time": 36.27906976744175,
          "velocity": 0.28346456692913385,
          "duration": 0.034883720930224626
        },
        {
          "name": "C7",
          "midi": 96,
          "time": 36.27906976744175,
          "velocity": 0.2755905511811024,
          "duration": 0.0813953488371908
        },
        {
          "name": "C#7",
          "midi": 97,
          "time": 36.27906976744175,
          "velocity": 0.28346456692913385,
          "duration": 0.09302325581393234
        },
        {
          "name": "D#7",
          "midi": 99,
          "time": 36.27906976744175,
          "velocity": 0.31496062992125984,
          "duration": 0.05813953488370771
        },
        {
          "name": "F7",
          "midi": 101,
          "time": 36.27906976744175,
          "velocity": 0.28346456692913385,
          "duration": 0.0813953488371908
        },
        {
          "name": "F#7",
          "midi": 102,
          "time": 36.27906976744175,
          "velocity": 0.1732283464566929,
          "duration": 0.04651162790696617
        },
        {
          "name": "A6",
          "midi": 93,
          "time": 36.29069767441849,
          "velocity": 0.2755905511811024,
          "duration": 0.05813953488370771
        },
        {
          "name": "G7",
          "midi": 103,
          "time": 36.30232558139523,
          "velocity": 0.08661417322834646,
          "duration": 0.04651162790696617
        },
        {
          "name": "D#3",
          "midi": 51,
          "time": 36.31395348837197,
          "velocity": 0.41732283464566927,
          "duration": 0.023255813953483084
        },
        {
          "name": "C6",
          "midi": 84,
          "time": 36.32558139534871,
          "velocity": 0.11811023622047244,
          "duration": 0.1627906976743887
        },
        {
          "name": "F#2",
          "midi": 42,
          "time": 36.337209302325455,
          "velocity": 0.4094488188976378,
          "duration": 0.023255813953483084
        },
        {
          "name": "D7",
          "midi": 98,
          "time": 36.3488372093022,
          "velocity": 0.08661417322834646,
          "duration": 0.034883720930224626
        },
        {
          "name": "F4",
          "midi": 65,
          "time": 36.36046511627894,
          "velocity": 0.3228346456692913,
          "duration": 0.06976744186045636
        },
        {
          "name": "F#2",
          "midi": 42,
          "time": 36.37209302325568,
          "velocity": 0.3937007874015748,
          "duration": 0.023255813953483084
        },
        {
          "name": "A#3",
          "midi": 58,
          "time": 36.41860465116265,
          "velocity": 0.4251968503937008,
          "duration": 0.034883720930224626
        },
        {
          "name": "B4",
          "midi": 71,
          "time": 36.430232558139394,
          "velocity": 0.48031496062992124,
          "duration": 0.034883720930224626
        },
        {
          "name": "F#5",
          "midi": 78,
          "time": 36.430232558139394,
          "velocity": 0.08661417322834646,
          "duration": 0.034883720930224626
        },
        {
          "name": "D#7",
          "midi": 99,
          "time": 36.430232558139394,
          "velocity": 0.15748031496062992,
          "duration": 0.10465116279067388
        },
        {
          "name": "B2",
          "midi": 47,
          "time": 36.441860465116136,
          "velocity": 0.4645669291338583,
          "duration": 0.023255813953483084
        },
        {
          "name": "B3",
          "midi": 59,
          "time": 36.45348837209288,
          "velocity": 0.4645669291338583,
          "duration": 0.023255813953483084
        },
        {
          "name": "F#4",
          "midi": 66,
          "time": 36.45348837209288,
          "velocity": 0.4330708661417323,
          "duration": 0.023255813953483084
        },
        {
          "name": "C#5",
          "midi": 73,
          "time": 36.45348837209288,
          "velocity": 0.15748031496062992,
          "duration": 0.23255813953485216
        },
        {
          "name": "D7",
          "midi": 98,
          "time": 36.45348837209288,
          "velocity": 0.1732283464566929,
          "duration": 0.05813953488370771
        },
        {
          "name": "E7",
          "midi": 100,
          "time": 36.45348837209288,
          "velocity": 0.10236220472440945,
          "duration": 0.09302325581393234
        },
        {
          "name": "C7",
          "midi": 96,
          "time": 36.46511627906962,
          "velocity": 0.16535433070866143,
          "duration": 0.034883720930224626
        },
        {
          "name": "A#3",
          "midi": 58,
          "time": 36.47674418604636,
          "velocity": 0.44881889763779526,
          "duration": 0.10465116279068098
        },
        {
          "name": "F4",
          "midi": 65,
          "time": 36.47674418604636,
          "velocity": 0.36220472440944884,
          "duration": 0.05813953488370771
        },
        {
          "name": "C#7",
          "midi": 97,
          "time": 36.47674418604636,
          "velocity": 0.1889763779527559,
          "duration": 0.05813953488370771
        },
        {
          "name": "D#5",
          "midi": 75,
          "time": 36.4883720930231,
          "velocity": 0.11811023622047244,
          "duration": 0.09302325581393944
        },
        {
          "name": "D#4",
          "midi": 63,
          "time": 36.52325581395333,
          "velocity": 0.33070866141732286,
          "duration": 0.13953488372091982
        },
        {
          "name": "F6",
          "midi": 89,
          "time": 36.52325581395333,
          "velocity": 0.1968503937007874,
          "duration": 0.44186046511621413
        },
        {
          "name": "F#4",
          "midi": 66,
          "time": 36.53488372093007,
          "velocity": 0.4251968503937008,
          "duration": 0.13953488372091982
        },
        {
          "name": "G3",
          "midi": 55,
          "time": 36.58139534883704,
          "velocity": 0.3858267716535433,
          "duration": 0.02325581395349019
        },
        {
          "name": "A#3",
          "midi": 58,
          "time": 36.60465116279053,
          "velocity": 0.4645669291338583,
          "duration": 0.046511627906973274
        },
        {
          "name": "C#7",
          "midi": 97,
          "time": 36.61627906976727,
          "velocity": 0.2047244094488189,
          "duration": 0.046511627906973274
        },
        {
          "name": "D7",
          "midi": 98,
          "time": 36.61627906976727,
          "velocity": 0.12598425196850394,
          "duration": 0.09302325581393944
        },
        {
          "name": "A#6",
          "midi": 94,
          "time": 36.63953488372076,
          "velocity": 0.2204724409448819,
          "duration": 0.0813953488371908
        },
        {
          "name": "D#7",
          "midi": 99,
          "time": 36.63953488372076,
          "velocity": 0.07086614173228346,
          "duration": 0.034883720930224626
        },
        {
          "name": "B3",
          "midi": 59,
          "time": 36.651162790697505,
          "velocity": 0.3858267716535433,
          "duration": 0.023255813953483084
        },
        {
          "name": "D#5",
          "midi": 75,
          "time": 36.66279069767425,
          "velocity": 0.12598425196850394,
          "duration": 0.10465116279068098
        },
        {
          "name": "A#3",
          "midi": 58,
          "time": 36.67441860465099,
          "velocity": 0.36220472440944884,
          "duration": 0.023255813953483084
        },
        {
          "name": "D#4",
          "midi": 63,
          "time": 36.67441860465099,
          "velocity": 0.2755905511811024,
          "duration": 0.023255813953483084
        },
        {
          "name": "G#4",
          "midi": 68,
          "time": 36.67441860465099,
          "velocity": 0.4015748031496063,
          "duration": 0.023255813953483084
        },
        {
          "name": "F3",
          "midi": 53,
          "time": 36.70930232558121,
          "velocity": 0.3543307086614173,
          "duration": 0.03488372093023173
        },
        {
          "name": "D#4",
          "midi": 63,
          "time": 36.70930232558121,
          "velocity": 0.2992125984251969,
          "duration": 0.15116279069765426
        },
        {
          "name": "F#4",
          "midi": 66,
          "time": 36.70930232558121,
          "velocity": 0.49606299212598426,
          "duration": 0.2209302325581035
        },
        {
          "name": "A#4",
          "midi": 70,
          "time": 36.70930232558121,
          "velocity": 0.33070866141732286,
          "duration": 0.15116279069765426
        },
        {
          "name": "C#5",
          "midi": 73,
          "time": 36.70930232558121,
          "velocity": 0.12598425196850394,
          "duration": 0.13953488372091272
        },
        {
          "name": "F#3",
          "midi": 54,
          "time": 36.744186046511444,
          "velocity": 0.2755905511811024,
          "duration": 0.023255813953483084
        },
        {
          "name": "A#6",
          "midi": 94,
          "time": 36.744186046511444,
          "velocity": 0.10236220472440945,
          "duration": 0.04651162790696617
        },
        {
          "name": "B3",
          "midi": 59,
          "time": 36.755813953488186,
          "velocity": 0.14173228346456693,
          "duration": 0.04651162790696617
        },
        {
          "name": "F#3",
          "midi": 54,
          "time": 36.77906976744167,
          "velocity": 0.2755905511811024,
          "duration": 0.023255813953483084
        },
        {
          "name": "B2",
          "midi": 47,
          "time": 36.79069767441841,
          "velocity": 0.3700787401574803,
          "duration": 0.023255813953483084
        },
        {
          "name": "C3",
          "midi": 48,
          "time": 36.86046511627887,
          "velocity": 0.47244094488188976,
          "duration": 0.023255813953483084
        },
        {
          "name": "B4",
          "midi": 71,
          "time": 36.86046511627887,
          "velocity": 0.3858267716535433,
          "duration": 0.023255813953483084
        },
        {
          "name": "C1",
          "midi": 24,
          "time": 36.87209302325561,
          "velocity": 0.6062992125984252,
          "duration": 0.011627906976741542
        },
        {
          "name": "F#3",
          "midi": 54,
          "time": 36.87209302325561,
          "velocity": 0.29133858267716534,
          "duration": 0.023255813953483084
        },
        {
          "name": "A#6",
          "midi": 94,
          "time": 36.87209302325561,
          "velocity": 0.28346456692913385,
          "duration": 0.11627906976741542
        },
        {
          "name": "E7",
          "midi": 100,
          "time": 36.87209302325561,
          "velocity": 0.2204724409448819,
          "duration": 0.11627906976741542
        },
        {
          "name": "B0",
          "midi": 23,
          "time": 36.88372093023235,
          "velocity": 0.5984251968503937,
          "duration": 0.034883720930224626
        },
        {
          "name": "B2",
          "midi": 47,
          "time": 36.88372093023235,
          "velocity": 0.4251968503937008,
          "duration": 0.023255813953483084
        },
        {
          "name": "C#5",
          "midi": 73,
          "time": 36.88372093023235,
          "velocity": 0.15748031496062992,
          "duration": 0.2441860465115937
        },
        {
          "name": "G#6",
          "midi": 92,
          "time": 36.88372093023235,
          "velocity": 0.15748031496062992,
          "duration": 0.05813953488370771
        },
        {
          "name": "C7",
          "midi": 96,
          "time": 36.88372093023235,
          "velocity": 0.2992125984251969,
          "duration": 0.09302325581393234
        },
        {
          "name": "A#4",
          "midi": 70,
          "time": 36.89534883720909,
          "velocity": 0.28346456692913385,
          "duration": 0.06976744186044925
        },
        {
          "name": "C#7",
          "midi": 97,
          "time": 36.89534883720909,
          "velocity": 0.29133858267716534,
          "duration": 0.09302325581393234
        },
        {
          "name": "A#2",
          "midi": 46,
          "time": 36.90697674418583,
          "velocity": 0.36220472440944884,
          "duration": 0.023255813953483084
        },
        {
          "name": "D7",
          "midi": 98,
          "time": 36.90697674418583,
          "velocity": 0.3464566929133858,
          "duration": 0.09302325581393234
        },
        {
          "name": "C1",
          "midi": 24,
          "time": 36.918604651162575,
          "velocity": 0.5826771653543307,
          "duration": 0.011627906976741542
        },
        {
          "name": "D6",
          "midi": 86,
          "time": 36.918604651162575,
          "velocity": 0.13385826771653545,
          "duration": 0.04651162790696617
        },
        {
          "name": "E6",
          "midi": 88,
          "time": 36.918604651162575,
          "velocity": 0.15748031496062992,
          "duration": 0.05813953488370771
        },
        {
          "name": "F#6",
          "midi": 90,
          "time": 36.918604651162575,
          "velocity": 0.1732283464566929,
          "duration": 0.05813953488370771
        },
        {
          "name": "B6",
          "midi": 95,
          "time": 36.918604651162575,
          "velocity": 0.30708661417322836,
          "duration": 0.06976744186044925
        },
        {
          "name": "D#7",
          "midi": 99,
          "time": 36.918604651162575,
          "velocity": 0.30708661417322836,
          "duration": 0.06976744186044925
        },
        {
          "name": "F7",
          "midi": 101,
          "time": 36.918604651162575,
          "velocity": 0.2755905511811024,
          "duration": 0.05813953488370771
        },
        {
          "name": "F#7",
          "midi": 102,
          "time": 36.918604651162575,
          "velocity": 0.2125984251968504,
          "duration": 0.05813953488370771
        },
        {
          "name": "B0",
          "midi": 23,
          "time": 36.930232558139316,
          "velocity": 0.5748031496062992,
          "duration": 0.15116279069766136
        },
        {
          "name": "F4",
          "midi": 65,
          "time": 36.930232558139316,
          "velocity": 0.3779527559055118,
          "duration": 0.023255813953483084
        },
        {
          "name": "A6",
          "midi": 93,
          "time": 36.930232558139316,
          "velocity": 0.29133858267716534,
          "duration": 0.05813953488370771
        },
        {
          "name": "G#2",
          "midi": 44,
          "time": 36.94186046511606,
          "velocity": 0.36220472440944884,
          "duration": 0.034883720930224626
        },
        {
          "name": "G7",
          "midi": 103,
          "time": 36.94186046511606,
          "velocity": 0.10236220472440945,
          "duration": 0.04651162790696617
        },
        {
          "name": "F#4",
          "midi": 66,
          "time": 36.9534883720928,
          "velocity": 0.2677165354330709,
          "duration": 0.023255813953483084
        },
        {
          "name": "D#6",
          "midi": 87,
          "time": 36.9534883720928,
          "velocity": 0.12598425196850394,
          "duration": 0.38372093023252773
        },
        {
          "name": "F#3",
          "midi": 54,
          "time": 36.96511627906954,
          "velocity": 0.33070866141732286,
          "duration": 0.15116279069766136
        },
        {
          "name": "G#4",
          "midi": 68,
          "time": 36.96511627906954,
          "velocity": 0.31496062992125984,
          "duration": 0.3720930232557862
        },
        {
          "name": "C1",
          "midi": 24,
          "time": 37.08139534883698,
          "velocity": 0.5511811023622047,
          "duration": 0.011627906976741542
        },
        {
          "name": "B0",
          "midi": 23,
          "time": 37.09302325581372,
          "velocity": 0.5511811023622047,
          "duration": 0.06976744186044925
        },
        {
          "name": "G2",
          "midi": 43,
          "time": 37.10465116279046,
          "velocity": 0.31496062992125984,
          "duration": 0.034883720930224626
        },
        {
          "name": "C5",
          "midi": 72,
          "time": 37.139534883720685,
          "velocity": 0.13385826771653545,
          "duration": 0.22093023255813193
        },
        {
          "name": "F3",
          "midi": 53,
          "time": 37.15116279069743,
          "velocity": 0.33070866141732286,
          "duration": 0.1860465116279002
        },
        {
          "name": "C1",
          "midi": 24,
          "time": 37.16279069767417,
          "velocity": 0.5275590551181102,
          "duration": 0.011627906976741542
        },
        {
          "name": "B0",
          "midi": 23,
          "time": 37.17441860465091,
          "velocity": 0.5275590551181102,
          "duration": 0.15116279069767558
        },
        {
          "name": "G#2",
          "midi": 44,
          "time": 37.25581395348812,
          "velocity": 0.11023622047244094,
          "duration": 0.03488372093023173
        },
        {
          "name": "A5",
          "midi": 81,
          "time": 37.27906976744161,
          "velocity": 0.12598425196850394,
          "duration": 0.081395348837205
        },
        {
          "name": "A#3",
          "midi": 58,
          "time": 37.313953488371844,
          "velocity": 0.3858267716535433,
          "duration": 0.15116279069766136
        },
        {
          "name": "A#4",
          "midi": 70,
          "time": 37.325581395348586,
          "velocity": 0.41732283464566927,
          "duration": 0.17441860465114445
        },
        {
          "name": "B0",
          "midi": 23,
          "time": 37.33720930232533,
          "velocity": 0.4409448818897638,
          "duration": 0.2441860465116008
        },
        {
          "name": "D#3",
          "midi": 51,
          "time": 37.36046511627882,
          "velocity": 0.33858267716535434,
          "duration": 0.186046511627886
        },
        {
          "name": "F6",
          "midi": 89,
          "time": 37.40697674418579,
          "velocity": 0.15748031496062992,
          "duration": 0.4883720930231732
        },
        {
          "name": "D7",
          "midi": 98,
          "time": 37.40697674418579,
          "velocity": 0.12598425196850394,
          "duration": 0.03488372093023173
        },
        {
          "name": "D5",
          "midi": 74,
          "time": 37.453488372092764,
          "velocity": 0.14960629921259844,
          "duration": 0.034883720930224626
        },
        {
          "name": "G#4",
          "midi": 68,
          "time": 37.465116279069505,
          "velocity": 0.3937007874015748,
          "duration": 0.04651162790696617
        },
        {
          "name": "E4",
          "midi": 64,
          "time": 37.47674418604625,
          "velocity": 0.1732283464566929,
          "duration": 0.04651162790696617
        },
        {
          "name": "G#3",
          "midi": 56,
          "time": 37.48837209302299,
          "velocity": 0.2440944881889764,
          "duration": 0.023255813953483084
        },
        {
          "name": "A#3",
          "midi": 58,
          "time": 37.51162790697647,
          "velocity": 0.23622047244094488,
          "duration": 0.0813953488371979
        },
        {
          "name": "A#4",
          "midi": 70,
          "time": 37.51162790697647,
          "velocity": 0.31496062992125984,
          "duration": 0.20930232558136908
        },
        {
          "name": "C7",
          "midi": 96,
          "time": 37.52325581395321,
          "velocity": 0.11811023622047244,
          "duration": 0.03488372093023173
        },
        {
          "name": "E3",
          "midi": 52,
          "time": 37.5465116279067,
          "velocity": 0.25196850393700787,
          "duration": 0.023255813953483084
        },
        {
          "name": "C#3",
          "midi": 49,
          "time": 37.58139534883693,
          "velocity": 0.2992125984251969,
          "duration": 0.09302325581394655
        },
        {
          "name": "G#4",
          "midi": 68,
          "time": 37.59302325581367,
          "velocity": 0.13385826771653545,
          "duration": 0.03488372093023173
        },
        {
          "name": "F#4",
          "midi": 66,
          "time": 37.686046511627616,
          "velocity": 0.25196850393700787,
          "duration": 0.023255813953483084
        },
        {
          "name": "C#3",
          "midi": 49,
          "time": 37.69767441860436,
          "velocity": 0.23622047244094488,
          "duration": 0.023255813953483084
        },
        {
          "name": "C4",
          "midi": 60,
          "time": 37.69767441860436,
          "velocity": 0.25984251968503935,
          "duration": 0.034883720930224626
        },
        {
          "name": "F4",
          "midi": 65,
          "time": 37.7093023255811,
          "velocity": 0.4251968503937008,
          "duration": 0.04651162790696617
        },
        {
          "name": "G#4",
          "midi": 68,
          "time": 37.7093023255811,
          "velocity": 0.33070866141732286,
          "duration": 0.034883720930224626
        },
        {
          "name": "A3",
          "midi": 57,
          "time": 37.72093023255784,
          "velocity": 0.3543307086614173,
          "duration": 0.023255813953483084
        },
        {
          "name": "A#4",
          "midi": 70,
          "time": 37.73255813953458,
          "velocity": 0.4015748031496063,
          "duration": 0.06976744186044925
        },
        {
          "name": "C#7",
          "midi": 97,
          "time": 37.73255813953458,
          "velocity": 0.23622047244094488,
          "duration": 0.1627906976743816
        },
        {
          "name": "D7",
          "midi": 98,
          "time": 37.73255813953458,
          "velocity": 0.29133858267716534,
          "duration": 0.1627906976743816
        },
        {
          "name": "B2",
          "midi": 47,
          "time": 37.744186046511324,
          "velocity": 0.3779527559055118,
          "duration": 0.023255813953483084
        },
        {
          "name": "A#3",
          "midi": 58,
          "time": 37.744186046511324,
          "velocity": 0.5118110236220472,
          "duration": 0.023255813953483084
        },
        {
          "name": "F7",
          "midi": 101,
          "time": 37.744186046511324,
          "velocity": 0.1889763779527559,
          "duration": 0.11627906976741542
        },
        {
          "name": "F#7",
          "midi": 102,
          "time": 37.744186046511324,
          "velocity": 0.2204724409448819,
          "duration": 0.09302325581393234
        },
        {
          "name": "G7",
          "midi": 103,
          "time": 37.744186046511324,
          "velocity": 0.2283464566929134,
          "duration": 0.0813953488371908
        },
        {
          "name": "F#4",
          "midi": 66,
          "time": 37.755813953488065,
          "velocity": 0.41732283464566927,
          "duration": 0.05813953488370771
        },
        {
          "name": "F5",
          "midi": 77,
          "time": 37.755813953488065,
          "velocity": 0.48031496062992124,
          "duration": 0.5348837209301607
        },
        {
          "name": "C7",
          "midi": 96,
          "time": 37.755813953488065,
          "velocity": 0.2677165354330709,
          "duration": 0.1395348837208985
        },
        {
          "name": "D#7",
          "midi": 99,
          "time": 37.755813953488065,
          "velocity": 0.1889763779527559,
          "duration": 0.12790697674415696
        },
        {
          "name": "B3",
          "midi": 59,
          "time": 37.76744186046481,
          "velocity": 0.5826771653543307,
          "duration": 0.034883720930224626
        },
        {
          "name": "E7",
          "midi": 100,
          "time": 37.76744186046481,
          "velocity": 0.23622047244094488,
          "duration": 0.11627906976741542
        },
        {
          "name": "F#1",
          "midi": 30,
          "time": 37.77906976744155,
          "velocity": 0.6614173228346457,
          "duration": 0.011627906976741542
        },
        {
          "name": "D#4",
          "midi": 63,
          "time": 37.77906976744155,
          "velocity": 0.2755905511811024,
          "duration": 0.05813953488370771
        },
        {
          "name": "D#6",
          "midi": 87,
          "time": 37.77906976744155,
          "velocity": 0.3700787401574803,
          "duration": 0.7093023255812909
        },
        {
          "name": "F1",
          "midi": 29,
          "time": 37.79069767441829,
          "velocity": 0.7165354330708661,
          "duration": 0.011627906976741542
        },
        {
          "name": "E1",
          "midi": 28,
          "time": 37.80232558139503,
          "velocity": 0.7165354330708661,
          "duration": 0.011627906976741542
        },
        {
          "name": "A#3",
          "midi": 58,
          "time": 37.80232558139503,
          "velocity": 0.5354330708661418,
          "duration": 0.034883720930224626
        },
        {
          "name": "G5",
          "midi": 79,
          "time": 37.80232558139503,
          "velocity": 0.07086614173228346,
          "duration": 0.20930232558136197
        },
        {
          "name": "D#1",
          "midi": 27,
          "time": 37.81395348837177,
          "velocity": 0.7401574803149606,
          "duration": 1.232558139534703
        },
        {
          "name": "B6",
          "midi": 95,
          "time": 37.81395348837177,
          "velocity": 0.13385826771653545,
          "duration": 0.06976744186044925
        },
        {
          "name": "G3",
          "midi": 55,
          "time": 37.825581395348514,
          "velocity": 0.5039370078740157,
          "duration": 0.6162790697673586
        },
        {
          "name": "G#4",
          "midi": 68,
          "time": 37.825581395348514,
          "velocity": 0.4409448818897638,
          "duration": 0.33720930232554736
        },
        {
          "name": "D6",
          "midi": 86,
          "time": 37.825581395348514,
          "velocity": 0.07874015748031496,
          "duration": 0.06976744186044925
        },
        {
          "name": "F4",
          "midi": 65,
          "time": 37.837209302325256,
          "velocity": 0.4094488188976378,
          "duration": 0.034883720930224626
        },
        {
          "name": "A#2",
          "midi": 46,
          "time": 37.848837209302,
          "velocity": 0.4251968503937008,
          "duration": 0.023255813953483084
        },
        {
          "name": "A#4",
          "midi": 70,
          "time": 37.848837209302,
          "velocity": 0.3858267716535433,
          "duration": 0.04651162790696617
        },
        {
          "name": "A#3",
          "midi": 58,
          "time": 37.87209302325548,
          "velocity": 0.44881889763779526,
          "duration": 0.023255813953483084
        },
        {
          "name": "B4",
          "midi": 71,
          "time": 37.895348837208964,
          "velocity": 0.29133858267716534,
          "duration": 0.02325581395349019
        },
        {
          "name": "C7",
          "midi": 96,
          "time": 37.918604651162454,
          "velocity": 0.10236220472440945,
          "duration": 0.03488372093023173
        },
        {
          "name": "A#2",
          "midi": 46,
          "time": 37.941860465115944,
          "velocity": 0.4251968503937008,
          "duration": 0.034883720930224626
        },
        {
          "name": "A#4",
          "midi": 70,
          "time": 37.953488372092686,
          "velocity": 0.2204724409448819,
          "duration": 0.034883720930224626
        },
        {
          "name": "C#4",
          "midi": 61,
          "time": 37.96511627906943,
          "velocity": 0.2204724409448819,
          "duration": 0.034883720930224626
        },
        {
          "name": "C7",
          "midi": 96,
          "time": 37.97674418604617,
          "velocity": 0.15748031496062992,
          "duration": 0.034883720930224626
        },
        {
          "name": "A#2",
          "midi": 46,
          "time": 38.01162790697639,
          "velocity": 0.4409448818897638,
          "duration": 0.1046511627906952
        },
        {
          "name": "A2",
          "midi": 45,
          "time": 38.11627906976709,
          "velocity": 0.44881889763779526,
          "duration": 0.02325581395349019
        },
        {
          "name": "B3",
          "midi": 59,
          "time": 38.15116279069732,
          "velocity": 0.4566929133858268,
          "duration": 0.023255813953483084
        },
        {
          "name": "D5",
          "midi": 74,
          "time": 38.15116279069732,
          "velocity": 0.47244094488188976,
          "duration": 0.10465116279068098
        },
        {
          "name": "G5",
          "midi": 79,
          "time": 38.15116279069732,
          "velocity": 0.18110236220472442,
          "duration": 0.034883720930224626
        },
        {
          "name": "A#5",
          "midi": 82,
          "time": 38.15116279069732,
          "velocity": 0.18110236220472442,
          "duration": 0.034883720930224626
        },
        {
          "name": "C6",
          "midi": 84,
          "time": 38.15116279069732,
          "velocity": 0.2125984251968504,
          "duration": 0.0813953488371979
        },
        {
          "name": "A4",
          "midi": 69,
          "time": 38.16279069767406,
          "velocity": 0.48031496062992124,
          "duration": 0.023255813953483084
        },
        {
          "name": "C#6",
          "midi": 85,
          "time": 38.16279069767406,
          "velocity": 0.16535433070866143,
          "duration": 0.034883720930224626
        },
        {
          "name": "G#6",
          "midi": 92,
          "time": 38.16279069767406,
          "velocity": 0.2755905511811024,
          "duration": 0.11627906976742253
        },
        {
          "name": "D7",
          "midi": 98,
          "time": 38.16279069767406,
          "velocity": 0.1889763779527559,
          "duration": 0.10465116279068098
        },
        {
          "name": "F4",
          "midi": 65,
          "time": 38.1744186046508,
          "velocity": 0.28346456692913385,
          "duration": 0.046511627906973274
        },
        {
          "name": "F#6",
          "midi": 90,
          "time": 38.1744186046508,
          "velocity": 0.2992125984251969,
          "duration": 0.046511627906973274
        },
        {
          "name": "C#7",
          "midi": 97,
          "time": 38.1744186046508,
          "velocity": 0.16535433070866143,
          "duration": 0.058139534883714816
        },
        {
          "name": "G#4",
          "midi": 68,
          "time": 38.186046511627545,
          "velocity": 0.33858267716535434,
          "duration": 0.1627906976743887
        },
        {
          "name": "A#2",
          "midi": 46,
          "time": 38.19767441860429,
          "velocity": 0.36220472440944884,
          "duration": 0.046511627906973274
        },
        {
          "name": "B4",
          "midi": 71,
          "time": 38.19767441860429,
          "velocity": 0.3858267716535433,
          "duration": 0.11627906976742253
        },
        {
          "name": "A#6",
          "midi": 94,
          "time": 38.19767441860429,
          "velocity": 0.08661417322834646,
          "duration": 0.0813953488371979
        },
        {
          "name": "E7",
          "midi": 100,
          "time": 38.19767441860429,
          "velocity": 0.14173228346456693,
          "duration": 0.03488372093023173
        },
        {
          "name": "G6",
          "midi": 91,
          "time": 38.22093023255778,
          "velocity": 0.3228346456692913,
          "duration": 0.034883720930224626
        },
        {
          "name": "F4",
          "midi": 65,
          "time": 38.23255813953452,
          "velocity": 0.1732283464566929,
          "duration": 0.04651162790696617
        },
        {
          "name": "A2",
          "midi": 45,
          "time": 38.24418604651126,
          "velocity": 0.36220472440944884,
          "duration": 0.023255813953483084
        },
        {
          "name": "A6",
          "midi": 93,
          "time": 38.24418604651126,
          "velocity": 0.11811023622047244,
          "duration": 0.034883720930224626
        },
        {
          "name": "A#3",
          "midi": 58,
          "time": 38.255813953488,
          "velocity": 0.36220472440944884,
          "duration": 0.023255813953483084
        },
        {
          "name": "C#5",
          "midi": 73,
          "time": 38.255813953488,
          "velocity": 0.3543307086614173,
          "duration": 0.034883720930224626
        },
        {
          "name": "F#6",
          "midi": 90,
          "time": 38.255813953488,
          "velocity": 0.18110236220472442,
          "duration": 0.034883720930224626
        },
        {
          "name": "G6",
          "midi": 91,
          "time": 38.279069767441484,
          "velocity": 0.11811023622047244,
          "duration": 0.034883720930224626
        },
        {
          "name": "A#2",
          "midi": 46,
          "time": 38.290697674418226,
          "velocity": 0.33858267716535434,
          "duration": 0.023255813953483084
        },
        {
          "name": "F4",
          "midi": 65,
          "time": 38.30232558139497,
          "velocity": 0.3464566929133858,
          "duration": 0.12790697674416407
        },
        {
          "name": "G#6",
          "midi": 92,
          "time": 38.30232558139497,
          "velocity": 0.2047244094488189,
          "duration": 0.1395348837209056
        },
        {
          "name": "A6",
          "midi": 93,
          "time": 38.30232558139497,
          "velocity": 0.2992125984251969,
          "duration": 0.1395348837209056
        },
        {
          "name": "E7",
          "midi": 100,
          "time": 38.30232558139497,
          "velocity": 0.25984251968503935,
          "duration": 0.1395348837209056
        },
        {
          "name": "F7",
          "midi": 101,
          "time": 38.30232558139497,
          "velocity": 0.2047244094488189,
          "duration": 0.12790697674416407
        },
        {
          "name": "A#4",
          "midi": 70,
          "time": 38.31395348837171,
          "velocity": 0.5196850393700787,
          "duration": 0.1395348837209056
        },
        {
          "name": "D5",
          "midi": 74,
          "time": 38.31395348837171,
          "velocity": 0.2440944881889764,
          "duration": 0.11627906976742253
        },
        {
          "name": "A#2",
          "midi": 46,
          "time": 38.32558139534845,
          "velocity": 0.3228346456692913,
          "duration": 0.034883720930224626
        },
        {
          "name": "F#7",
          "midi": 102,
          "time": 38.32558139534845,
          "velocity": 0.11811023622047244,
          "duration": 0.09302325581393944
        },
        {
          "name": "A#6",
          "midi": 94,
          "time": 38.33720930232519,
          "velocity": 0.2125984251968504,
          "duration": 0.09302325581393944
        },
        {
          "name": "A#2",
          "midi": 46,
          "time": 38.37209302325542,
          "velocity": 0.30708661417322836,
          "duration": 0.046511627906973274
        },
        {
          "name": "C#4",
          "midi": 61,
          "time": 38.38372093023216,
          "velocity": 0.2440944881889764,
          "duration": 0.058139534883714816
        },
        {
          "name": "G#4",
          "midi": 68,
          "time": 38.43023255813913,
          "velocity": 0.3228346456692913,
          "duration": 0.1395348837209056
        },
        {
          "name": "A#2",
          "midi": 46,
          "time": 38.453488372092615,
          "velocity": 0.3543307086614173,
          "duration": 0.034883720930224626
        },
        {
          "name": "G3",
          "midi": 55,
          "time": 38.453488372092615,
          "velocity": 0.3779527559055118,
          "duration": 0.04651162790696617
        },
        {
          "name": "A#4",
          "midi": 70,
          "time": 38.465116279069356,
          "velocity": 0.1732283464566929,
          "duration": 0.06976744186045636
        },
        {
          "name": "A#3",
          "midi": 58,
          "time": 38.4767441860461,
          "velocity": 0.3779527559055118,
          "duration": 0.046511627906973274
        },
        {
          "name": "D5",
          "midi": 74,
          "time": 38.48837209302284,
          "velocity": 0.11811023622047244,
          "duration": 0.046511627906973274
        },
        {
          "name": "A#2",
          "midi": 46,
          "time": 38.49999999999958,
          "velocity": 0.30708661417322836,
          "duration": 0.02325581395349019
        },
        {
          "name": "D#6",
          "midi": 87,
          "time": 38.49999999999958,
          "velocity": 0.1889763779527559,
          "duration": 0.49999999999992895
        },
        {
          "name": "B2",
          "midi": 47,
          "time": 38.52325581395307,
          "velocity": 0.31496062992125984,
          "duration": 0.023255813953483084
        },
        {
          "name": "A#3",
          "midi": 58,
          "time": 38.53488372092981,
          "velocity": 0.41732283464566927,
          "duration": 0.023255813953483084
        },
        {
          "name": "C7",
          "midi": 96,
          "time": 38.546511627906554,
          "velocity": 0.2992125984251969,
          "duration": 0.11627906976741542
        },
        {
          "name": "A2",
          "midi": 45,
          "time": 38.558139534883296,
          "velocity": 0.2755905511811024,
          "duration": 0.023255813953483084
        },
        {
          "name": "G5",
          "midi": 79,
          "time": 38.558139534883296,
          "velocity": 0.07874015748031496,
          "duration": 0.034883720930224626
        },
        {
          "name": "G6",
          "midi": 91,
          "time": 38.558139534883296,
          "velocity": 0.3228346456692913,
          "duration": 0.12790697674415696
        },
        {
          "name": "G#6",
          "midi": 92,
          "time": 38.558139534883296,
          "velocity": 0.2283464566929134,
          "duration": 0.04651162790696617
        },
        {
          "name": "A6",
          "midi": 93,
          "time": 38.558139534883296,
          "velocity": 0.11811023622047244,
          "duration": 0.034883720930224626
        },
        {
          "name": "E7",
          "midi": 100,
          "time": 38.558139534883296,
          "velocity": 0.25984251968503935,
          "duration": 0.15116279069764005
        },
        {
          "name": "B4",
          "midi": 71,
          "time": 38.56976744186004,
          "velocity": 0.4330708661417323,
          "duration": 0.06976744186044925
        },
        {
          "name": "A#6",
          "midi": 94,
          "time": 38.56976744186004,
          "velocity": 0.13385826771653545,
          "duration": 0.05813953488370771
        },
        {
          "name": "F7",
          "midi": 101,
          "time": 38.56976744186004,
          "velocity": 0.12598425196850394,
          "duration": 0.034883720930224626
        },
        {
          "name": "G3",
          "midi": 55,
          "time": 38.58139534883678,
          "velocity": 0.3937007874015748,
          "duration": 0.06976744186044925
        },
        {
          "name": "B3",
          "midi": 59,
          "time": 38.58139534883678,
          "velocity": 0.48031496062992124,
          "duration": 0.034883720930224626
        },
        {
          "name": "F#4",
          "midi": 66,
          "time": 38.58139534883678,
          "velocity": 0.41732283464566927,
          "duration": 0.06976744186044925
        },
        {
          "name": "D#5",
          "midi": 75,
          "time": 38.58139534883678,
          "velocity": 0.3779527559055118,
          "duration": 0.12790697674415696
        },
        {
          "name": "F#6",
          "midi": 90,
          "time": 38.58139534883678,
          "velocity": 0.30708661417322836,
          "duration": 0.11627906976741542
        },
        {
          "name": "C#7",
          "midi": 97,
          "time": 38.58139534883678,
          "velocity": 0.31496062992125984,
          "duration": 0.12790697674415696
        },
        {
          "name": "G#4",
          "midi": 68,
          "time": 38.60465116279026,
          "velocity": 0.41732283464566927,
          "duration": 0.47674418604643876
        },
        {
          "name": "A5",
          "midi": 81,
          "time": 38.60465116279026,
          "velocity": 0.07874015748031496,
          "duration": 0.034883720930224626
        },
        {
          "name": "D7",
          "midi": 98,
          "time": 38.60465116279026,
          "velocity": 0.33070866141732286,
          "duration": 0.10465116279067388
        },
        {
          "name": "E6",
          "midi": 88,
          "time": 38.616279069767,
          "velocity": 0.33070866141732286,
          "duration": 0.034883720930224626
        },
        {
          "name": "A#2",
          "midi": 46,
          "time": 38.627906976743745,
          "velocity": 0.3937007874015748,
          "duration": 0.023255813953483084
        },
        {
          "name": "B3",
          "midi": 59,
          "time": 38.627906976743745,
          "velocity": 0.41732283464566927,
          "duration": 0.04651162790696617
        },
        {
          "name": "A#5",
          "midi": 82,
          "time": 38.627906976743745,
          "velocity": 0.13385826771653545,
          "duration": 0.04651162790696617
        },
        {
          "name": "A6",
          "midi": 93,
          "time": 38.627906976743745,
          "velocity": 0.29133858267716534,
          "duration": 0.05813953488370771
        },
        {
          "name": "B6",
          "midi": 95,
          "time": 38.627906976743745,
          "velocity": 0.2755905511811024,
          "duration": 0.05813953488370771
        },
        {
          "name": "D#7",
          "midi": 99,
          "time": 38.627906976743745,
          "velocity": 0.2992125984251969,
          "duration": 0.06976744186044925
        },
        {
          "name": "A#4",
          "midi": 70,
          "time": 38.639534883720486,
          "velocity": 0.41732283464566927,
          "duration": 0.11627906976742253
        },
        {
          "name": "A#6",
          "midi": 94,
          "time": 38.639534883720486,
          "velocity": 0.2992125984251969,
          "duration": 0.05813953488370771
        },
        {
          "name": "F7",
          "midi": 101,
          "time": 38.639534883720486,
          "velocity": 0.23622047244094488,
          "duration": 0.05813953488370771
        },
        {
          "name": "C#6",
          "midi": 85,
          "time": 38.65116279069723,
          "velocity": 0.18110236220472442,
          "duration": 0.034883720930224626
        },
        {
          "name": "F6",
          "midi": 89,
          "time": 38.65116279069723,
          "velocity": 0.30708661417322836,
          "duration": 0.023255813953483084
        },
        {
          "name": "F#4",
          "midi": 66,
          "time": 38.66279069767397,
          "velocity": 0.2677165354330709,
          "duration": 0.034883720930224626
        },
        {
          "name": "A#3",
          "midi": 58,
          "time": 38.67441860465071,
          "velocity": 0.3937007874015748,
          "duration": 0.023255813953483084
        },
        {
          "name": "E6",
          "midi": 88,
          "time": 38.67441860465071,
          "velocity": 0.1968503937007874,
          "duration": 0.034883720930224626
        },
        {
          "name": "G#6",
          "midi": 92,
          "time": 38.67441860465071,
          "velocity": 0.2283464566929134,
          "duration": 0.034883720930224626
        },
        {
          "name": "C7",
          "midi": 96,
          "time": 38.67441860465071,
          "velocity": 0.23622047244094488,
          "duration": 0.20930232558136908
        },
        {
          "name": "F5",
          "midi": 77,
          "time": 38.68604651162745,
          "velocity": 0.07874015748031496,
          "duration": 0.06976744186045636
        },
        {
          "name": "D#3",
          "midi": 51,
          "time": 38.72093023255768,
          "velocity": 0.30708661417322836,
          "duration": 0.02325581395349019
        },
        {
          "name": "A#3",
          "midi": 58,
          "time": 38.72093023255768,
          "velocity": 0.4330708661417323,
          "duration": 0.03488372093023173
        },
        {
          "name": "F#4",
          "midi": 66,
          "time": 38.74418604651117,
          "velocity": 0.4094488188976378,
          "duration": 0.023255813953483084
        },
        {
          "name": "A6",
          "midi": 93,
          "time": 38.74418604651117,
          "velocity": 0.1968503937007874,
          "duration": 0.04651162790696617
        },
        {
          "name": "D7",
          "midi": 98,
          "time": 38.74418604651117,
          "velocity": 0.2204724409448819,
          "duration": 0.12790697674417117
        },
        {
          "name": "B4",
          "midi": 71,
          "time": 38.75581395348791,
          "velocity": 0.28346456692913385,
          "duration": 0.023255813953483084
        },
        {
          "name": "A#6",
          "midi": 94,
          "time": 38.75581395348791,
          "velocity": 0.1889763779527559,
          "duration": 0.12790697674417117
        },
        {
          "name": "C#7",
          "midi": 97,
          "time": 38.75581395348791,
          "velocity": 0.14173228346456693,
          "duration": 0.11627906976742963
        },
        {
          "name": "A#3",
          "midi": 58,
          "time": 38.76744186046465,
          "velocity": 0.3858267716535433,
          "duration": 0.12790697674417117
        },
        {
          "name": "F4",
          "midi": 65,
          "time": 38.76744186046465,
          "velocity": 0.33070866141732286,
          "duration": 0.11627906976742963
        },
        {
          "name": "D5",
          "midi": 74,
          "time": 38.76744186046465,
          "velocity": 0.1889763779527559,
          "duration": 0.11627906976742963
        },
        {
          "name": "B6",
          "midi": 95,
          "time": 38.76744186046465,
          "velocity": 0.25196850393700787,
          "duration": 0.11627906976742963
        },
        {
          "name": "D#7",
          "midi": 99,
          "time": 38.76744186046465,
          "velocity": 0.1889763779527559,
          "duration": 0.11627906976742963
        },
        {
          "name": "F#7",
          "midi": 102,
          "time": 38.76744186046465,
          "velocity": 0.08661417322834646,
          "duration": 0.11627906976742963
        },
        {
          "name": "A#4",
          "midi": 70,
          "time": 38.77906976744139,
          "velocity": 0.4251968503937008,
          "duration": 0.19767441860463464
        },
        {
          "name": "D#3",
          "midi": 51,
          "time": 38.79069767441813,
          "velocity": 0.31496062992125984,
          "duration": 0.03488372093023173
        },
        {
          "name": "E7",
          "midi": 100,
          "time": 38.79069767441813,
          "velocity": 0.16535433070866143,
          "duration": 0.09302325581394655
        },
        {
          "name": "D#3",
          "midi": 51,
          "time": 38.87209302325534,
          "velocity": 0.3464566929133858,
          "duration": 0.17441860465113734
        },
        {
          "name": "F5",
          "midi": 77,
          "time": 38.87209302325534,
          "velocity": 0.44881889763779526,
          "duration": 0.1627906976743958
        },
        {
          "name": "A#3",
          "midi": 58,
          "time": 38.90697674418556,
          "velocity": 0.41732283464566927,
          "duration": 0.15116279069765426
        },
        {
          "name": "D6",
          "midi": 86,
          "time": 38.97674418604603,
          "velocity": 0.14173228346456693,
          "duration": 0.06976744186044925
        },
        {
          "name": "F#6",
          "midi": 90,
          "time": 38.97674418604603,
          "velocity": 0.2283464566929134,
          "duration": 0.1395348837208985
        },
        {
          "name": "G#6",
          "midi": 92,
          "time": 38.97674418604603,
          "velocity": 0.3464566929133858,
          "duration": 0.06976744186044925
        },
        {
          "name": "C7",
          "midi": 96,
          "time": 38.97674418604603,
          "velocity": 0.08661417322834646,
          "duration": 0.034883720930224626
        },
        {
          "name": "F4",
          "midi": 65,
          "time": 38.98837209302277,
          "velocity": 0.2283464566929134,
          "duration": 0.04651162790696617
        },
        {
          "name": "D5",
          "midi": 74,
          "time": 38.98837209302277,
          "velocity": 0.41732283464566927,
          "duration": 0.05813953488370771
        },
        {
          "name": "A6",
          "midi": 93,
          "time": 38.98837209302277,
          "velocity": 0.28346456692913385,
          "duration": 0.15116279069764005
        },
        {
          "name": "C#7",
          "midi": 97,
          "time": 38.99999999999951,
          "velocity": 0.09448818897637795,
          "duration": 0.04651162790696617
        },
        {
          "name": "D7",
          "midi": 98,
          "time": 38.99999999999951,
          "velocity": 0.14173228346456693,
          "duration": 0.15116279069764005
        },
        {
          "name": "D#7",
          "midi": 99,
          "time": 38.99999999999951,
          "velocity": 0.14173228346456693,
          "duration": 0.11627906976741542
        },
        {
          "name": "D#6",
          "midi": 87,
          "time": 39.01162790697625,
          "velocity": 0.1732283464566929,
          "duration": 0.05813953488370771
        },
        {
          "name": "A#6",
          "midi": 94,
          "time": 39.02325581395299,
          "velocity": 0.1732283464566929,
          "duration": 0.12790697674415696
        },
        {
          "name": "F#5",
          "midi": 78,
          "time": 39.034883720929734,
          "velocity": 0.4330708661417323,
          "duration": 0.10465116279067388
        },
        {
          "name": "B5",
          "midi": 83,
          "time": 39.034883720929734,
          "velocity": 0.1732283464566929,
          "duration": 0.04651162790696617
        },
        {
          "name": "G6",
          "midi": 91,
          "time": 39.034883720929734,
          "velocity": 0.30708661417322836,
          "duration": 0.023255813953483084
        },
        {
          "name": "D1",
          "midi": 26,
          "time": 39.046511627906476,
          "velocity": 0.5196850393700787,
          "duration": 0.011627906976741542
        },
        {
          "name": "D#5",
          "midi": 75,
          "time": 39.046511627906476,
          "velocity": 0.4330708661417323,
          "duration": 0.19767441860462043
        },
        {
          "name": "B0",
          "midi": 23,
          "time": 39.05813953488322,
          "velocity": 0.5748031496062992,
          "duration": 0.011627906976741542
        },
        {
          "name": "F3",
          "midi": 53,
          "time": 39.05813953488322,
          "velocity": 0.44881889763779526,
          "duration": 0.023255813953483084
        },
        {
          "name": "G#6",
          "midi": 92,
          "time": 39.05813953488322,
          "velocity": 0.29133858267716534,
          "duration": 0.034883720930224626
        },
        {
          "name": "C7",
          "midi": 96,
          "time": 39.05813953488322,
          "velocity": 0.07086614173228346,
          "duration": 0.05813953488370771
        },
        {
          "name": "C#1",
          "midi": 25,
          "time": 39.06976744185996,
          "velocity": 0.6614173228346457,
          "duration": 0.011627906976741542
        },
        {
          "name": "D#4",
          "midi": 63,
          "time": 39.06976744185996,
          "velocity": 0.33070866141732286,
          "duration": 0.17441860465113734
        },
        {
          "name": "F#4",
          "midi": 66,
          "time": 39.06976744185996,
          "velocity": 0.25984251968503935,
          "duration": 0.0813953488371908
        },
        {
          "name": "D1",
          "midi": 26,
          "time": 39.0813953488367,
          "velocity": 0.7007874015748031,
          "duration": 0.011627906976741542
        },
        {
          "name": "F#3",
          "midi": 54,
          "time": 39.0813953488367,
          "velocity": 0.4645669291338583,
          "duration": 0.023255813953483084
        },
        {
          "name": "C1",
          "midi": 24,
          "time": 39.09302325581344,
          "velocity": 0.6929133858267716,
          "duration": 0.011627906976741542
        },
        {
          "name": "G6",
          "midi": 91,
          "time": 39.09302325581344,
          "velocity": 0.14960629921259844,
          "duration": 0.06976744186044925
        },
        {
          "name": "B0",
          "midi": 23,
          "time": 39.104651162790184,
          "velocity": 0.7322834645669292,
          "duration": 1.2441860465114445
        },
        {
          "name": "B3",
          "midi": 59,
          "time": 39.104651162790184,
          "velocity": 0.36220472440944884,
          "duration": 0.05813953488370771
        },
        {
          "name": "C#5",
          "midi": 73,
          "time": 39.12790697674367,
          "velocity": 0.11811023622047244,
          "duration": 0.11627906976742963
        },
        {
          "name": "F#4",
          "midi": 66,
          "time": 39.16279069767389,
          "velocity": 0.3937007874015748,
          "duration": 0.10465116279068809
        },
        {
          "name": "D#3",
          "midi": 51,
          "time": 39.18604651162738,
          "velocity": 0.5118110236220472,
          "duration": 0.011627906976741542
        },
        {
          "name": "D#3",
          "midi": 51,
          "time": 39.22093023255761,
          "velocity": 0.5275590551181102,
          "duration": 0.011627906976741542
        },
        {
          "name": "B3",
          "midi": 59,
          "time": 39.22093023255761,
          "velocity": 0.41732283464566927,
          "duration": 0.04651162790696617
        },
        {
          "name": "D3",
          "midi": 50,
          "time": 39.232558139534355,
          "velocity": 0.5196850393700787,
          "duration": 0.011627906976741542
        },
        {
          "name": "D#3",
          "midi": 51,
          "time": 39.244186046511096,
          "velocity": 0.5196850393700787,
          "duration": 0.04651162790696617
        },
        {
          "name": "D5",
          "midi": 74,
          "time": 39.244186046511096,
          "velocity": 0.15748031496062992,
          "duration": 0.04651162790696617
        },
        {
          "name": "A6",
          "midi": 93,
          "time": 39.244186046511096,
          "velocity": 0.11811023622047244,
          "duration": 0.04651162790696617
        },
        {
          "name": "A#6",
          "midi": 94,
          "time": 39.244186046511096,
          "velocity": 0.2440944881889764,
          "duration": 0.09302325581393234
        },
        {
          "name": "B6",
          "midi": 95,
          "time": 39.244186046511096,
          "velocity": 0.30708661417322836,
          "duration": 0.09302325581393234
        },
        {
          "name": "E7",
          "midi": 100,
          "time": 39.244186046511096,
          "velocity": 0.25196850393700787,
          "duration": 0.09302325581393234
        },
        {
          "name": "D#7",
          "midi": 99,
          "time": 39.25581395348784,
          "velocity": 0.2440944881889764,
          "duration": 0.09302325581393234
        },
        {
          "name": "A#3",
          "midi": 58,
          "time": 39.26744186046458,
          "velocity": 0.3937007874015748,
          "duration": 0.034883720930224626
        },
        {
          "name": "F4",
          "midi": 65,
          "time": 39.26744186046458,
          "velocity": 0.33858267716535434,
          "duration": 0.05813953488370771
        },
        {
          "name": "C7",
          "midi": 96,
          "time": 39.26744186046458,
          "velocity": 0.11811023622047244,
          "duration": 0.06976744186044925
        },
        {
          "name": "F#7",
          "midi": 102,
          "time": 39.27906976744132,
          "velocity": 0.07086614173228346,
          "duration": 0.04651162790696617
        },
        {
          "name": "A2",
          "midi": 45,
          "time": 39.29069767441806,
          "velocity": 0.5118110236220472,
          "duration": 0.023255813953483084
        },
        {
          "name": "D3",
          "midi": 50,
          "time": 39.29069767441806,
          "velocity": 0.5118110236220472,
          "duration": 0.011627906976741542
        },
        {
          "name": "D#3",
          "midi": 51,
          "time": 39.302325581394804,
          "velocity": 0.5433070866141733,
          "duration": 0.023255813953483084
        },
        {
          "name": "A#3",
          "midi": 58,
          "time": 39.313953488371546,
          "velocity": 0.28346456692913385,
          "duration": 0.023255813953483084
        },
        {
          "name": "D7",
          "midi": 98,
          "time": 39.313953488371546,
          "velocity": 0.10236220472440945,
          "duration": 0.04651162790696617
        },
        {
          "name": "D3",
          "midi": 50,
          "time": 39.32558139534829,
          "velocity": 0.5196850393700787,
          "duration": 0.011627906976741542
        },
        {
          "name": "C#5",
          "midi": 73,
          "time": 39.32558139534829,
          "velocity": 0.12598425196850394,
          "duration": 0.23255813953485927
        },
        {
          "name": "D#3",
          "midi": 51,
          "time": 39.33720930232503,
          "velocity": 0.49606299212598426,
          "duration": 0.023255813953483084
        },
        {
          "name": "F#2",
          "midi": 42,
          "time": 39.34883720930177,
          "velocity": 0.4330708661417323,
          "duration": 0.023255813953483084
        },
        {
          "name": "A#3",
          "midi": 58,
          "time": 39.34883720930177,
          "velocity": 0.47244094488188976,
          "duration": 0.023255813953483084
        },
        {
          "name": "F#5",
          "midi": 78,
          "time": 39.36046511627851,
          "velocity": 0.13385826771653545,
          "duration": 0.11627906976743674
        },
        {
          "name": "D#3",
          "midi": 51,
          "time": 39.37209302325525,
          "velocity": 0.5196850393700787,
          "duration": 0.25581395348834945
        },
        {
          "name": "B3",
          "midi": 59,
          "time": 39.37209302325525,
          "velocity": 0.48031496062992124,
          "duration": 0.20930232558137618
        },
        {
          "name": "D#7",
          "midi": 99,
          "time": 39.39534883720874,
          "velocity": 0.2125984251968504,
          "duration": 0.267441860465091
        },
        {
          "name": "F#4",
          "midi": 66,
          "time": 39.418604651162234,
          "velocity": 0.33070866141732286,
          "duration": 0.10465116279068809
        },
        {
          "name": "B6",
          "midi": 95,
          "time": 39.418604651162234,
          "velocity": 0.2047244094488189,
          "duration": 0.17441860465113734
        },
        {
          "name": "C7",
          "midi": 96,
          "time": 39.418604651162234,
          "velocity": 0.2992125984251969,
          "duration": 0.15116279069765426
        },
        {
          "name": "E7",
          "midi": 100,
          "time": 39.418604651162234,
          "velocity": 0.2047244094488189,
          "duration": 0.15116279069765426
        },
        {
          "name": "F#2",
          "midi": 42,
          "time": 39.430232558138975,
          "velocity": 0.44881889763779526,
          "duration": 0.023255813953483084
        },
        {
          "name": "C#7",
          "midi": 97,
          "time": 39.44186046511572,
          "velocity": 0.14173228346456693,
          "duration": 0.15116279069765426
        },
        {
          "name": "A#4",
          "midi": 70,
          "time": 39.45348837209246,
          "velocity": 0.30708661417322836,
          "duration": 0.081395348837205
        },
        {
          "name": "G7",
          "midi": 103,
          "time": 39.47674418604595,
          "velocity": 0.11023622047244094,
          "duration": 0.0813953488371979
        },
        {
          "name": "F#2",
          "midi": 42,
          "time": 39.51162790697618,
          "velocity": 0.44881889763779526,
          "duration": 0.023255813953483084
        },
        {
          "name": "F#4",
          "midi": 66,
          "time": 39.53488372092966,
          "velocity": 0.31496062992125984,
          "duration": 0.023255813953483084
        },
        {
          "name": "D7",
          "midi": 98,
          "time": 39.53488372092966,
          "velocity": 0.11811023622047244,
          "duration": 0.034883720930224626
        },
        {
          "name": "A6",
          "midi": 93,
          "time": 39.546511627906405,
          "velocity": 0.29133858267716534,
          "duration": 0.2209302325581035
        },
        {
          "name": "F#2",
          "midi": 42,
          "time": 39.558139534883146,
          "velocity": 0.44881889763779526,
          "duration": 0.023255813953483084
        },
        {
          "name": "F4",
          "midi": 65,
          "time": 39.558139534883146,
          "velocity": 0.33070866141732286,
          "duration": 0.058139534883714816
        },
        {
          "name": "C6",
          "midi": 84,
          "time": 39.558139534883146,
          "velocity": 0.23622047244094488,
          "duration": 0.18604651162787889
        },
        {
          "name": "A#4",
          "midi": 70,
          "time": 39.56976744185989,
          "velocity": 0.3700787401574803,
          "duration": 0.3023255813952943
        },
        {
          "name": "D5",
          "midi": 74,
          "time": 39.56976744185989,
          "velocity": 0.4094488188976378,
          "duration": 0.06976744186045636
        },
        {
          "name": "F5",
          "midi": 77,
          "time": 39.56976744185989,
          "velocity": 0.44881889763779526,
          "duration": 0.18604651162787889
        },
        {
          "name": "F#6",
          "midi": 90,
          "time": 39.56976744185989,
          "velocity": 0.23622047244094488,
          "duration": 0.12790697674417117
        },
        {
          "name": "G#6",
          "midi": 92,
          "time": 39.56976744185989,
          "velocity": 0.1968503937007874,
          "duration": 0.046511627906973274
        },
        {
          "name": "A#3",
          "midi": 58,
          "time": 39.58139534883663,
          "velocity": 0.25984251968503935,
          "duration": 0.12790697674417117
        },
        {
          "name": "F#2",
          "midi": 42,
          "time": 39.59302325581337,
          "velocity": 0.4251968503937008,
          "duration": 0.02325581395349019
        },
        {
          "name": "D#6",
          "midi": 87,
          "time": 39.61627906976686,
          "velocity": 0.25196850393700787,
          "duration": 0.046511627906973274
        },
        {
          "name": "F4",
          "midi": 65,
          "time": 39.6279069767436,
          "velocity": 0.3228346456692913,
          "duration": 0.03488372093023173
        },
        {
          "name": "G#5",
          "midi": 80,
          "time": 39.6279069767436,
          "velocity": 0.31496062992125984,
          "duration": 0.12790697674416407
        },
        {
          "name": "D#3",
          "midi": 51,
          "time": 39.639534883720344,
          "velocity": 0.4645669291338583,
          "duration": 0.09302325581393944
        },
        {
          "name": "C#5",
          "midi": 73,
          "time": 39.639534883720344,
          "velocity": 0.15748031496062992,
          "duration": 0.06976744186045636
        },
        {
          "name": "F#2",
          "midi": 42,
          "time": 39.674418604650576,
          "velocity": 0.4330708661417323,
          "duration": 0.023255813953483084
        },
        {
          "name": "F4",
          "midi": 65,
          "time": 39.674418604650576,
          "velocity": 0.3228346456692913,
          "duration": 0.023255813953483084
        },
        {
          "name": "E6",
          "midi": 88,
          "time": 39.68604651162732,
          "velocity": 0.3543307086614173,
          "duration": 0.034883720930224626
        },
        {
          "name": "D5",
          "midi": 74,
          "time": 39.69767441860406,
          "velocity": 0.30708661417322836,
          "duration": 0.05813953488370771
        },
        {
          "name": "B6",
          "midi": 95,
          "time": 39.69767441860406,
          "velocity": 0.25984251968503935,
          "duration": 0.034883720930224626
        },
        {
          "name": "D7",
          "midi": 98,
          "time": 39.69767441860406,
          "velocity": 0.30708661417322836,
          "duration": 0.05813953488370771
        },
        {
          "name": "F4",
          "midi": 65,
          "time": 39.7093023255808,
          "velocity": 0.30708661417322836,
          "duration": 0.034883720930224626
        },
        {
          "name": "A#6",
          "midi": 94,
          "time": 39.7093023255808,
          "velocity": 0.29133858267716534,
          "duration": 0.05813953488370771
        },
        {
          "name": "C7",
          "midi": 96,
          "time": 39.7093023255808,
          "velocity": 0.28346456692913385,
          "duration": 0.10465116279067388
        },
        {
          "name": "C#7",
          "midi": 97,
          "time": 39.7093023255808,
          "velocity": 0.30708661417322836,
          "duration": 0.06976744186044925
        },
        {
          "name": "D#7",
          "midi": 99,
          "time": 39.7093023255808,
          "velocity": 0.29133858267716534,
          "duration": 0.10465116279067388
        },
        {
          "name": "F#7",
          "midi": 102,
          "time": 39.7093023255808,
          "velocity": 0.2204724409448819,
          "duration": 0.04651162790696617
        },
        {
          "name": "G7",
          "midi": 103,
          "time": 39.7093023255808,
          "velocity": 0.1968503937007874,
          "duration": 0.06976744186044925
        },
        {
          "name": "F#2",
          "midi": 42,
          "time": 39.72093023255754,
          "velocity": 0.4330708661417323,
          "duration": 0.023255813953483084
        },
        {
          "name": "D#6",
          "midi": 87,
          "time": 39.72093023255754,
          "velocity": 0.3543307086614173,
          "duration": 0.034883720930224626
        },
        {
          "name": "D#3",
          "midi": 51,
          "time": 39.744186046511025,
          "velocity": 0.4330708661417323,
          "duration": 0.04651162790696617
        },
        {
          "name": "F#2",
          "midi": 42,
          "time": 39.75581395348777,
          "velocity": 0.4094488188976378,
          "duration": 0.023255813953483084
        },
        {
          "name": "F4",
          "midi": 65,
          "time": 39.75581395348777,
          "velocity": 0.2992125984251969,
          "duration": 0.04651162790696617
        },
        {
          "name": "C#5",
          "midi": 73,
          "time": 39.75581395348777,
          "velocity": 0.2125984251968504,
          "duration": 0.1395348837208985
        },
        {
          "name": "C6",
          "midi": 84,
          "time": 39.75581395348777,
          "velocity": 0.09448818897637795,
          "duration": 0.1627906976743816
        },
        {
          "name": "D#5",
          "midi": 75,
          "time": 39.76744186046451,
          "velocity": 0.1732283464566929,
          "duration": 0.1395348837208985
        },
        {
          "name": "F#2",
          "midi": 42,
          "time": 39.80232558139473,
          "velocity": 0.4015748031496063,
          "duration": 0.023255813953483084
        },
        {
          "name": "D#3",
          "midi": 51,
          "time": 39.80232558139473,
          "velocity": 0.4094488188976378,
          "duration": 0.05813953488370771
        },
        {
          "name": "F#2",
          "midi": 42,
          "time": 39.83720930232496,
          "velocity": 0.4015748031496063,
          "duration": 0.023255813953483084
        },
        {
          "name": "A#3",
          "midi": 58,
          "time": 39.83720930232496,
          "velocity": 0.2440944881889764,
          "duration": 0.034883720930224626
        },
        {
          "name": "G6",
          "midi": 91,
          "time": 39.8488372093017,
          "velocity": 0.15748031496062992,
          "duration": 0.09302325581393234
        },
        {
          "name": "D7",
          "midi": 98,
          "time": 39.8488372093017,
          "velocity": 0.23622047244094488,
          "duration": 0.20930232558135486
        },
        {
          "name": "A6",
          "midi": 93,
          "time": 39.86046511627844,
          "velocity": 0.3228346456692913,
          "duration": 0.05813953488370771
        },
        {
          "name": "A#6",
          "midi": 94,
          "time": 39.86046511627844,
          "velocity": 0.2204724409448819,
          "duration": 0.04651162790696617
        },
        {
          "name": "F#4",
          "midi": 66,
          "time": 39.87209302325518,
          "velocity": 0.3700787401574803,
          "duration": 0.023255813953483084
        },
        {
          "name": "B4",
          "midi": 71,
          "time": 39.87209302325518,
          "velocity": 0.33070866141732286,
          "duration": 0.023255813953483084
        },
        {
          "name": "B6",
          "midi": 95,
          "time": 39.87209302325518,
          "velocity": 0.16535433070866143,
          "duration": 0.034883720930224626
        },
        {
          "name": "C#7",
          "midi": 97,
          "time": 39.87209302325518,
          "velocity": 0.13385826771653545,
          "duration": 0.034883720930224626
        },
        {
          "name": "D#7",
          "midi": 99,
          "time": 39.87209302325518,
          "velocity": 0.25196850393700787,
          "duration": 0.09302325581393234
        },
        {
          "name": "B3",
          "midi": 59,
          "time": 39.883720930231924,
          "velocity": 0.36220472440944884,
          "duration": 0.023255813953483084
        },
        {
          "name": "D#4",
          "midi": 63,
          "time": 39.883720930231924,
          "velocity": 0.3228346456692913,
          "duration": 0.023255813953483084
        },
        {
          "name": "A#4",
          "midi": 70,
          "time": 39.883720930231924,
          "velocity": 0.3779527559055118,
          "duration": 0.15116279069764005
        },
        {
          "name": "A#3",
          "midi": 58,
          "time": 39.90697674418541,
          "velocity": 0.4094488188976378,
          "duration": 0.023255813953483084
        },
        {
          "name": "D5",
          "midi": 74,
          "time": 39.90697674418541,
          "velocity": 0.1968503937007874,
          "duration": 0.04651162790696617
        },
        {
          "name": "F#2",
          "midi": 42,
          "time": 39.91860465116215,
          "velocity": 0.36220472440944884,
          "duration": 0.023255813953483084
        },
        {
          "name": "D#4",
          "midi": 63,
          "time": 39.91860465116215,
          "velocity": 0.3543307086614173,
          "duration": 0.04651162790696617
        },
        {
          "name": "F#4",
          "midi": 66,
          "time": 39.91860465116215,
          "velocity": 0.2992125984251969,
          "duration": 0.023255813953483084
        },
        {
          "name": "C#5",
          "midi": 73,
          "time": 39.91860465116215,
          "velocity": 0.18110236220472442,
          "duration": 0.10465116279067388
        },
        {
          "name": "G#6",
          "midi": 92,
          "time": 39.91860465116215,
          "velocity": 0.2440944881889764,
          "duration": 0.05813953488370771
        },
        {
          "name": "D#3",
          "midi": 51,
          "time": 39.93023255813889,
          "velocity": 0.4015748031496063,
          "duration": 0.023255813953483084
        },
        {
          "name": "B3",
          "midi": 59,
          "time": 39.93023255813889,
          "velocity": 0.4015748031496063,
          "duration": 0.034883720930224626
        },
        {
          "name": "F5",
          "midi": 77,
          "time": 39.93023255813889,
          "velocity": 0.09448818897637795,
          "duration": 0.06976744186044925
        },
        {
          "name": "A6",
          "midi": 93,
          "time": 39.93023255813889,
          "velocity": 0.2125984251968504,
          "duration": 0.05813953488370771
        },
        {
          "name": "C#7",
          "midi": 97,
          "time": 39.93023255813889,
          "velocity": 0.2125984251968504,
          "duration": 0.04651162790696617
        },
        {
          "name": "E7",
          "midi": 100,
          "time": 39.93023255813889,
          "velocity": 0.12598425196850394,
          "duration": 0.034883720930224626
        },
        {
          "name": "F#7",
          "midi": 102,
          "time": 39.93023255813889,
          "velocity": 0.12598425196850394,
          "duration": 0.034883720930224626
        },
        {
          "name": "C7",
          "midi": 96,
          "time": 39.94186046511563,
          "velocity": 0.12598425196850394,
          "duration": 0.034883720930224626
        },
        {
          "name": "F#2",
          "midi": 42,
          "time": 39.965116279069115,
          "velocity": 0.3700787401574803,
          "duration": 0.023255813953483084
        },
        {
          "name": "A3",
          "midi": 57,
          "time": 39.976744186045856,
          "velocity": 0.33070866141732286,
          "duration": 0.023255813953483084
        },
        {
          "name": "D#4",
          "midi": 63,
          "time": 39.9883720930226,
          "velocity": 0.28346456692913385,
          "duration": 0.034883720930224626
        },
        {
          "name": "F#2",
          "midi": 42,
          "time": 39.99999999999934,
          "velocity": 0.3543307086614173,
          "duration": 0.023255813953483084
        },
        {
          "name": "D#3",
          "midi": 51,
          "time": 39.99999999999934,
          "velocity": 0.3700787401574803,
          "duration": 0.023255813953483084
        },
        {
          "name": "A#3",
          "midi": 58,
          "time": 39.99999999999934,
          "velocity": 0.3700787401574803,
          "duration": 0.15116279069766136
        },
        {
          "name": "F#4",
          "midi": 66,
          "time": 40.01162790697608,
          "velocity": 0.4094488188976378,
          "duration": 0.31395348837206427
        },
        {
          "name": "D#6",
          "midi": 87,
          "time": 40.01162790697608,
          "velocity": 0.31496062992125984,
          "duration": 0.06976744186045636
        },
        {
          "name": "D5",
          "midi": 74,
          "time": 40.02325581395282,
          "velocity": 0.47244094488188976,
          "duration": 0.10465116279068809
        },
        {
          "name": "D#4",
          "midi": 63,
          "time": 40.034883720929564,
          "velocity": 0.28346456692913385,
          "duration": 0.09302325581394655
        },
        {
          "name": "B4",
          "midi": 71,
          "time": 40.034883720929564,
          "velocity": 0.2755905511811024,
          "duration": 0.02325581395349019
        },
        {
          "name": "F5",
          "midi": 77,
          "time": 40.034883720929564,
          "velocity": 0.14960629921259844,
          "duration": 0.046511627906973274
        },
        {
          "name": "C6",
          "midi": 84,
          "time": 40.034883720929564,
          "velocity": 0.3228346456692913,
          "duration": 0.12790697674417828
        },
        {
          "name": "G#5",
          "midi": 80,
          "time": 40.069767441859796,
          "velocity": 0.12598425196850394,
          "duration": 0.046511627906973274
        },
        {
          "name": "A#5",
          "midi": 82,
          "time": 40.069767441859796,
          "velocity": 0.15748031496062992,
          "duration": 0.046511627906973274
        },
        {
          "name": "F#2",
          "midi": 42,
          "time": 40.08139534883654,
          "velocity": 0.33858267716535434,
          "duration": 0.02325581395349019
        },
        {
          "name": "A4",
          "midi": 69,
          "time": 40.12790697674351,
          "velocity": 0.3543307086614173,
          "duration": 0.03488372093023173
        },
        {
          "name": "C#5",
          "midi": 73,
          "time": 40.12790697674351,
          "velocity": 0.2125984251968504,
          "duration": 0.22093023255811772
        },
        {
          "name": "A#5",
          "midi": 82,
          "time": 40.151162790697,
          "velocity": 0.14173228346456693,
          "duration": 0.046511627906973274
        },
        {
          "name": "D#4",
          "midi": 63,
          "time": 40.16279069767374,
          "velocity": 0.3858267716535433,
          "duration": 0.186046511627886
        },
        {
          "name": "A#4",
          "midi": 70,
          "time": 40.16279069767374,
          "velocity": 0.3543307086614173,
          "duration": 0.17441860465114445
        },
        {
          "name": "F#3",
          "midi": 54,
          "time": 40.209302325580715,
          "velocity": 0.2755905511811024,
          "duration": 0.02325581395349019
        },
        {
          "name": "F#3",
          "midi": 54,
          "time": 40.27906976744118,
          "velocity": 0.33858267716535434,
          "duration": 0.023255813953483084
        },
        {
          "name": "A2",
          "midi": 45,
          "time": 40.29069767441792,
          "velocity": 0.4251968503937008,
          "duration": 0.023255813953483084
        },
        {
          "name": "F#6",
          "midi": 90,
          "time": 40.29069767441792,
          "velocity": 0.2283464566929134,
          "duration": 0.11627906976741542
        },
        {
          "name": "G6",
          "midi": 91,
          "time": 40.29069767441792,
          "velocity": 0.3228346456692913,
          "duration": 0.0813953488371908
        },
        {
          "name": "B2",
          "midi": 47,
          "time": 40.3139534883714,
          "velocity": 0.33858267716535434,
          "duration": 0.023255813953483084
        },
        {
          "name": "G#4",
          "midi": 68,
          "time": 40.3139534883714,
          "velocity": 0.4094488188976378,
          "duration": 0.06976744186044925
        },
        {
          "name": "E6",
          "midi": 88,
          "time": 40.3139534883714,
          "velocity": 0.1889763779527559,
          "duration": 0.06976744186044925
        },
        {
          "name": "G#6",
          "midi": 92,
          "time": 40.3139534883714,
          "velocity": 0.30708661417322836,
          "duration": 0.05813953488370771
        },
        {
          "name": "A6",
          "midi": 93,
          "time": 40.3139534883714,
          "velocity": 0.28346456692913385,
          "duration": 0.15116279069764005
        },
        {
          "name": "A#6",
          "midi": 94,
          "time": 40.3139534883714,
          "velocity": 0.2755905511811024,
          "duration": 0.1395348837208985
        },
        {
          "name": "B6",
          "midi": 95,
          "time": 40.3139534883714,
          "velocity": 0.33858267716535434,
          "duration": 0.12790697674415696
        },
        {
          "name": "G3",
          "midi": 55,
          "time": 40.33720930232489,
          "velocity": 0.3464566929133858,
          "duration": 0.023255813953483084
        },
        {
          "name": "B3",
          "midi": 59,
          "time": 40.33720930232489,
          "velocity": 0.4251968503937008,
          "duration": 0.034883720930224626
        },
        {
          "name": "C7",
          "midi": 96,
          "time": 40.33720930232489,
          "velocity": 0.29133858267716534,
          "duration": 0.10465116279067388
        },
        {
          "name": "C1",
          "midi": 24,
          "time": 40.34883720930163,
          "velocity": 0.5826771653543307,
          "duration": 0.011627906976741542
        },
        {
          "name": "F5",
          "midi": 77,
          "time": 40.34883720930163,
          "velocity": 0.10236220472440945,
          "duration": 0.034883720930224626
        },
        {
          "name": "D6",
          "midi": 86,
          "time": 40.34883720930163,
          "velocity": 0.16535433070866143,
          "duration": 0.05813953488370771
        },
        {
          "name": "D#6",
          "midi": 87,
          "time": 40.34883720930163,
          "velocity": 0.12598425196850394,
          "duration": 0.430232558139501
        },
        {
          "name": "D7",
          "midi": 98,
          "time": 40.34883720930163,
          "velocity": 0.33070866141732286,
          "duration": 0.09302325581393234
        },
        {
          "name": "D#7",
          "midi": 99,
          "time": 40.34883720930163,
          "velocity": 0.30708661417322836,
          "duration": 0.09302325581393234
        },
        {
          "name": "F7",
          "midi": 101,
          "time": 40.34883720930163,
          "velocity": 0.23622047244094488,
          "duration": 0.09302325581393234
        },
        {
          "name": "B0",
          "midi": 23,
          "time": 40.36046511627837,
          "velocity": 0.5826771653543307,
          "duration": 0.034883720930224626
        },
        {
          "name": "C#7",
          "midi": 97,
          "time": 40.36046511627837,
          "velocity": 0.30708661417322836,
          "duration": 0.0813953488371908
        },
        {
          "name": "E7",
          "midi": 100,
          "time": 40.36046511627837,
          "velocity": 0.23622047244094488,
          "duration": 0.10465116279067388
        },
        {
          "name": "A3",
          "midi": 57,
          "time": 40.37209302325511,
          "velocity": 0.3228346456692913,
          "duration": 0.023255813953483084
        },
        {
          "name": "F3",
          "midi": 53,
          "time": 40.38372093023185,
          "velocity": 0.3464566929133858,
          "duration": 0.186046511627886
        },
        {
          "name": "A4",
          "midi": 69,
          "time": 40.38372093023185,
          "velocity": 0.3464566929133858,
          "duration": 0.023255813953483084
        },
        {
          "name": "G#6",
          "midi": 92,
          "time": 40.38372093023185,
          "velocity": 0.2677165354330709,
          "duration": 0.023255813953483084
        },
        {
          "name": "A#0",
          "midi": 22,
          "time": 40.395348837208594,
          "velocity": 0.5748031496062992,
          "duration": 0.011627906976741542
        },
        {
          "name": "A#3",
          "midi": 58,
          "time": 40.395348837208594,
          "velocity": 0.36220472440944884,
          "duration": 0.13953488372091272
        },
        {
          "name": "B0",
          "midi": 23,
          "time": 40.406976744185336,
          "velocity": 0.5826771653543307,
          "duration": 0.593023255813911
        },
        {
          "name": "G#4",
          "midi": 68,
          "time": 40.406976744185336,
          "velocity": 0.3543307086614173,
          "duration": 0.38372093023253484
        },
        {
          "name": "A2",
          "midi": 45,
          "time": 40.41860465116208,
          "velocity": 0.3464566929133858,
          "duration": 0.023255813953483084
        },
        {
          "name": "C5",
          "midi": 72,
          "time": 40.43023255813882,
          "velocity": 0.11023622047244094,
          "duration": 0.058139534883714816
        },
        {
          "name": "A#2",
          "midi": 46,
          "time": 40.44186046511556,
          "velocity": 0.31496062992125984,
          "duration": 0.023255813953483084
        },
        {
          "name": "G#6",
          "midi": 92,
          "time": 40.46511627906904,
          "velocity": 0.07874015748031496,
          "duration": 0.03488372093023173
        },
        {
          "name": "G#2",
          "midi": 44,
          "time": 40.499999999999275,
          "velocity": 0.2677165354330709,
          "duration": 0.02325581395349019
        },
        {
          "name": "C5",
          "midi": 72,
          "time": 40.499999999999275,
          "velocity": 0.11023622047244094,
          "duration": 0.05813953488372192
        },
        {
          "name": "G2",
          "midi": 43,
          "time": 40.558139534883,
          "velocity": 0.25196850393700787,
          "duration": 0.03488372093023173
        },
        {
          "name": "C#5",
          "midi": 73,
          "time": 40.558139534883,
          "velocity": 0.14173228346456693,
          "duration": 0.22093023255813193
        },
        {
          "name": "F#3",
          "midi": 54,
          "time": 40.56976744185974,
          "velocity": 0.31496062992125984,
          "duration": 0.2093023255813904
        },
        {
          "name": "F#4",
          "midi": 66,
          "time": 40.68604651162718,
          "velocity": 0.31496062992125984,
          "duration": 0.03488372093023173
        },
        {
          "name": "D#4",
          "midi": 63,
          "time": 40.697674418603924,
          "velocity": 0.2677165354330709,
          "duration": 0.03488372093023173
        },
        {
          "name": "G5",
          "midi": 79,
          "time": 40.697674418603924,
          "velocity": 0.1732283464566929,
          "duration": 0.046511627906973274
        },
        {
          "name": "A#5",
          "midi": 82,
          "time": 40.720930232557414,
          "velocity": 0.12598425196850394,
          "duration": 0.046511627906973274
        },
        {
          "name": "F5",
          "midi": 77,
          "time": 40.7441860465109,
          "velocity": 0.09448818897637795,
          "duration": 0.03488372093023173
        },
        {
          "name": "A#3",
          "midi": 58,
          "time": 40.76744186046439,
          "velocity": 0.3858267716535433,
          "duration": 0.046511627906973274
        },
        {
          "name": "D#5",
          "midi": 75,
          "time": 40.79069767441787,
          "velocity": 0.1968503937007874,
          "duration": 0.19767441860463464
        },
        {
          "name": "A3",
          "midi": 57,
          "time": 40.81395348837136,
          "velocity": 0.3858267716535433,
          "duration": 0.02325581395349019
        },
        {
          "name": "A#3",
          "midi": 58,
          "time": 40.83720930232485,
          "velocity": 0.3779527559055118,
          "duration": 0.023255813953483084
        },
        {
          "name": "A#4",
          "midi": 70,
          "time": 40.83720930232485,
          "velocity": 0.4330708661417323,
          "duration": 0.3953488372092693
        },
        {
          "name": "F6",
          "midi": 89,
          "time": 40.84883720930159,
          "velocity": 0.11023622047244094,
          "duration": 0.09302325581393944
        },
        {
          "name": "D7",
          "midi": 98,
          "time": 40.84883720930159,
          "velocity": 0.15748031496062992,
          "duration": 0.04651162790696617
        },
        {
          "name": "G#3",
          "midi": 56,
          "time": 40.872093023255076,
          "velocity": 0.33070866141732286,
          "duration": 0.11627906976742963
        },
        {
          "name": "D4",
          "midi": 62,
          "time": 40.88372093023182,
          "velocity": 0.14173228346456693,
          "duration": 0.034883720930224626
        },
        {
          "name": "C7",
          "midi": 96,
          "time": 40.9069767441853,
          "velocity": 0.1889763779527559,
          "duration": 0.046511627906973274
        },
        {
          "name": "F6",
          "midi": 89,
          "time": 40.976744186045764,
          "velocity": 0.13385826771653545,
          "duration": 0.23255813953487348
        },
        {
          "name": "A#3",
          "midi": 58,
          "time": 40.988372093022505,
          "velocity": 0.33858267716535434,
          "duration": 0.2093023255813904
        },
        {
          "name": "F5",
          "midi": 77,
          "time": 40.99999999999925,
          "velocity": 0.3937007874015748,
          "duration": 0.6046511627906455
        },
        {
          "name": "A#6",
          "midi": 94,
          "time": 41.06976744185971,
          "velocity": 0.11023622047244094,
          "duration": 0.03488372093023173
        },
        {
          "name": "D#4",
          "midi": 63,
          "time": 41.12790697674343,
          "velocity": 0.1889763779527559,
          "duration": 0.03488372093023173
        },
        {
          "name": "C7",
          "midi": 96,
          "time": 41.15116279069692,
          "velocity": 0.12598425196850394,
          "duration": 0.03488372093023173
        },
        {
          "name": "A3",
          "midi": 57,
          "time": 41.197674418603896,
          "velocity": 0.4251968503937008,
          "duration": 0.034883720930224626
        },
        {
          "name": "C7",
          "midi": 96,
          "time": 41.197674418603896,
          "velocity": 0.2047244094488189,
          "duration": 0.0813953488371979
        },
        {
          "name": "F#1",
          "midi": 30,
          "time": 41.20930232558064,
          "velocity": 0.6220472440944882,
          "duration": 0.011627906976741542
        },
        {
          "name": "D3",
          "midi": 50,
          "time": 41.20930232558064,
          "velocity": 0.4645669291338583,
          "duration": 0.023255813953483084
        },
        {
          "name": "G#4",
          "midi": 68,
          "time": 41.20930232558064,
          "velocity": 0.33858267716535434,
          "duration": 0.19767441860461332
        },
        {
          "name": "D#6",
          "midi": 87,
          "time": 41.20930232558064,
          "velocity": 0.3937007874015748,
          "duration": 1.3720930232556654
        },
        {
          "name": "F1",
          "midi": 29,
          "time": 41.22093023255738,
          "velocity": 0.7007874015748031,
          "duration": 0.011627906976741542
        },
        {
          "name": "E1",
          "midi": 28,
          "time": 41.23255813953412,
          "velocity": 0.7165354330708661,
          "duration": 0.011627906976741542
        },
        {
          "name": "G3",
          "midi": 55,
          "time": 41.23255813953412,
          "velocity": 0.5118110236220472,
          "duration": 0.6279069767441285
        },
        {
          "name": "D#1",
          "midi": 27,
          "time": 41.24418604651086,
          "velocity": 0.7480314960629921,
          "duration": 1.2441860465115084
        },
        {
          "name": "A#4",
          "midi": 70,
          "time": 41.26744186046435,
          "velocity": 0.36220472440944884,
          "duration": 0.15116279069764005
        },
        {
          "name": "B6",
          "midi": 95,
          "time": 41.26744186046435,
          "velocity": 0.14173228346456693,
          "duration": 0.034883720930224626
        },
        {
          "name": "A#2",
          "midi": 46,
          "time": 41.279069767441094,
          "velocity": 0.41732283464566927,
          "duration": 0.05813953488370771
        },
        {
          "name": "C4",
          "midi": 60,
          "time": 41.290697674417835,
          "velocity": 0.1889763779527559,
          "duration": 0.034883720930224626
        },
        {
          "name": "D6",
          "midi": 86,
          "time": 41.31395348837132,
          "velocity": 0.08661417322834646,
          "duration": 0.04651162790696617
        },
        {
          "name": "C#4",
          "midi": 61,
          "time": 41.32558139534806,
          "velocity": 0.16535433070866143,
          "duration": 0.04651162790696617
        },
        {
          "name": "C7",
          "midi": 96,
          "time": 41.3372093023248,
          "velocity": 0.11023622047244094,
          "duration": 0.04651162790696617
        },
        {
          "name": "A#2",
          "midi": 46,
          "time": 41.34883720930154,
          "velocity": 0.4251968503937008,
          "duration": 0.04651162790696617
        },
        {
          "name": "F4",
          "midi": 65,
          "time": 41.39534883720851,
          "velocity": 0.08661417322834646,
          "duration": 0.06976744186045636
        },
        {
          "name": "A#2",
          "midi": 46,
          "time": 41.40697674418525,
          "velocity": 0.44881889763779526,
          "duration": 0.22093023255813193
        },
        {
          "name": "C7",
          "midi": 96,
          "time": 41.40697674418525,
          "velocity": 0.11023622047244094,
          "duration": 0.058139534883714816
        },
        {
          "name": "G#4",
          "midi": 68,
          "time": 41.430232558138734,
          "velocity": 0.3779527559055118,
          "duration": 0.6395348837208985
        },
        {
          "name": "D#4",
          "midi": 63,
          "time": 41.453488372092224,
          "velocity": 0.08661417322834646,
          "duration": 0.06976744186045636
        },
        {
          "name": "A#4",
          "midi": 70,
          "time": 41.465116279068965,
          "velocity": 0.14960629921259844,
          "duration": 0.046511627906973274
        },
        {
          "name": "A#4",
          "midi": 70,
          "time": 41.52325581395268,
          "velocity": 0.13385826771653545,
          "duration": 0.04651162790698038
        },
        {
          "name": "D#4",
          "midi": 63,
          "time": 41.54651162790617,
          "velocity": 0.12598425196850394,
          "duration": 0.03488372093023173
        },
        {
          "name": "C7",
          "midi": 96,
          "time": 41.5813953488364,
          "velocity": 0.18110236220472442,
          "duration": 0.09302325581395365
        },
        {
          "name": "G5",
          "midi": 79,
          "time": 41.62790697674338,
          "velocity": 0.10236220472440945,
          "duration": 0.3488372093023031
        },
        {
          "name": "A#2",
          "midi": 46,
          "time": 41.639534883720124,
          "velocity": 0.4251968503937008,
          "duration": 0.09302325581395365
        },
        {
          "name": "B4",
          "midi": 71,
          "time": 41.639534883720124,
          "velocity": 0.3858267716535433,
          "duration": 0.1046511627906952
        },
        {
          "name": "F5",
          "midi": 77,
          "time": 41.674418604650356,
          "velocity": 0.2204724409448819,
          "duration": 0.720930232558068
        },
        {
          "name": "A#4",
          "midi": 70,
          "time": 41.73255813953408,
          "velocity": 0.4251968503937008,
          "duration": 0.023255813953483084
        },
        {
          "name": "A#2",
          "midi": 46,
          "time": 41.74418604651082,
          "velocity": 0.4015748031496063,
          "duration": 0.058139534883714816
        },
        {
          "name": "B4",
          "midi": 71,
          "time": 41.75581395348756,
          "velocity": 0.4015748031496063,
          "duration": 0.11627906976742963
        },
        {
          "name": "A#2",
          "midi": 46,
          "time": 41.813953488371276,
          "velocity": 0.3858267716535433,
          "duration": 0.046511627906973274
        },
        {
          "name": "G3",
          "midi": 55,
          "time": 41.87209302325499,
          "velocity": 0.3700787401574803,
          "duration": 0.23255813953486637
        },
        {
          "name": "A#4",
          "midi": 70,
          "time": 41.87209302325499,
          "velocity": 0.33070866141732286,
          "duration": 0.02325581395349019
        },
        {
          "name": "A#2",
          "midi": 46,
          "time": 41.89534883720848,
          "velocity": 0.3779527559055118,
          "duration": 0.03488372093023173
        },
        {
          "name": "A#4",
          "midi": 70,
          "time": 41.90697674418522,
          "velocity": 0.11811023622047244,
          "duration": 0.03488372093023173
        },
        {
          "name": "A#3",
          "midi": 58,
          "time": 41.93023255813871,
          "velocity": 0.33070866141732286,
          "duration": 0.046511627906973274
        },
        {
          "name": "A#2",
          "midi": 46,
          "time": 41.941860465115454,
          "velocity": 0.3464566929133858,
          "duration": 0.046511627906973274
        },
        {
          "name": "D#4",
          "midi": 63,
          "time": 41.98837209302243,
          "velocity": 0.1889763779527559,
          "duration": 0.046511627906973274
        },
        {
          "name": "A#2",
          "midi": 46,
          "time": 42.02325581395266,
          "velocity": 0.3543307086614173,
          "duration": 0.03488372093023173
        },
        {
          "name": "C#5",
          "midi": 73,
          "time": 42.02325581395266,
          "velocity": 0.33070866141732286,
          "duration": 0.058139534883714816
        },
        {
          "name": "F6",
          "midi": 89,
          "time": 42.02325581395266,
          "velocity": 0.23622047244094488,
          "duration": 0.11627906976742253
        },
        {
          "name": "C7",
          "midi": 96,
          "time": 42.02325581395266,
          "velocity": 0.07086614173228346,
          "duration": 0.03488372093023173
        },
        {
          "name": "A#3",
          "midi": 58,
          "time": 42.05813953488289,
          "velocity": 0.2992125984251969,
          "duration": 0.023255813953483084
        },
        {
          "name": "E4",
          "midi": 64,
          "time": 42.05813953488289,
          "velocity": 0.31496062992125984,
          "duration": 0.04651162790696617
        },
        {
          "name": "B6",
          "midi": 95,
          "time": 42.05813953488289,
          "velocity": 0.3228346456692913,
          "duration": 0.034883720930224626
        },
        {
          "name": "D7",
          "midi": 98,
          "time": 42.05813953488289,
          "velocity": 0.3543307086614173,
          "duration": 0.05813953488370771
        },
        {
          "name": "E7",
          "midi": 100,
          "time": 42.05813953488289,
          "velocity": 0.2125984251968504,
          "duration": 0.09302325581393234
        },
        {
          "name": "A#4",
          "midi": 70,
          "time": 42.06976744185963,
          "velocity": 0.3543307086614173,
          "duration": 0.0813953488371908
        },
        {
          "name": "A6",
          "midi": 93,
          "time": 42.06976744185963,
          "velocity": 0.2677165354330709,
          "duration": 0.05813953488370771
        },
        {
          "name": "A#6",
          "midi": 94,
          "time": 42.06976744185963,
          "velocity": 0.3228346456692913,
          "duration": 0.05813953488370771
        },
        {
          "name": "C7",
          "midi": 96,
          "time": 42.06976744185963,
          "velocity": 0.33070866141732286,
          "duration": 0.10465116279067388
        },
        {
          "name": "C#7",
          "midi": 97,
          "time": 42.06976744185963,
          "velocity": 0.28346456692913385,
          "duration": 0.06976744186044925
        },
        {
          "name": "F7",
          "midi": 101,
          "time": 42.06976744185963,
          "velocity": 0.25984251968503935,
          "duration": 0.06976744186044925
        },
        {
          "name": "G#4",
          "midi": 68,
          "time": 42.081395348836374,
          "velocity": 0.3464566929133858,
          "duration": 0.4069767441859966
        },
        {
          "name": "D6",
          "midi": 86,
          "time": 42.081395348836374,
          "velocity": 0.10236220472440945,
          "duration": 0.05813953488370771
        },
        {
          "name": "F#6",
          "midi": 90,
          "time": 42.081395348836374,
          "velocity": 0.1732283464566929,
          "duration": 0.034883720930224626
        },
        {
          "name": "F#7",
          "midi": 102,
          "time": 42.081395348836374,
          "velocity": 0.2047244094488189,
          "duration": 0.06976744186044925
        },
        {
          "name": "A#2",
          "midi": 46,
          "time": 42.093023255813115,
          "velocity": 0.29133858267716534,
          "duration": 0.023255813953483084
        },
        {
          "name": "C#5",
          "midi": 73,
          "time": 42.093023255813115,
          "velocity": 0.29133858267716534,
          "duration": 0.05813953488370771
        },
        {
          "name": "G#6",
          "midi": 92,
          "time": 42.10465116278986,
          "velocity": 0.2204724409448819,
          "duration": 0.04651162790696617
        },
        {
          "name": "D#3",
          "midi": 51,
          "time": 42.12790697674334,
          "velocity": 0.2992125984251969,
          "duration": 0.034883720930224626
        },
        {
          "name": "A#3",
          "midi": 58,
          "time": 42.13953488372008,
          "velocity": 0.3464566929133858,
          "duration": 0.3488372093022889
        },
        {
          "name": "G5",
          "midi": 79,
          "time": 42.13953488372008,
          "velocity": 0.09448818897637795,
          "duration": 0.05813953488370771
        },
        {
          "name": "A#2",
          "midi": 46,
          "time": 42.15116279069682,
          "velocity": 0.2992125984251969,
          "duration": 0.034883720930224626
        },
        {
          "name": "A#4",
          "midi": 70,
          "time": 42.162790697673564,
          "velocity": 0.4409448818897638,
          "duration": 0.5348837209301607
        },
        {
          "name": "D#3",
          "midi": 51,
          "time": 42.174418604650306,
          "velocity": 0.30708661417322836,
          "duration": 0.023255813953483084
        },
        {
          "name": "C#5",
          "midi": 73,
          "time": 42.174418604650306,
          "velocity": 0.47244094488188976,
          "duration": 0.10465116279068809
        },
        {
          "name": "F6",
          "midi": 89,
          "time": 42.18604651162705,
          "velocity": 0.25196850393700787,
          "duration": 0.09302325581394655
        },
        {
          "name": "G#6",
          "midi": 92,
          "time": 42.18604651162705,
          "velocity": 0.1889763779527559,
          "duration": 0.09302325581394655
        },
        {
          "name": "D#3",
          "midi": 51,
          "time": 42.20930232558053,
          "velocity": 0.33858267716535434,
          "duration": 0.2906976744185812
        },
        {
          "name": "B5",
          "midi": 83,
          "time": 42.290697674417736,
          "velocity": 0.09448818897637795,
          "duration": 0.046511627906973274
        },
        {
          "name": "F#5",
          "midi": 78,
          "time": 42.38372093023168,
          "velocity": 0.18110236220472442,
          "duration": 0.09302325581394655
        },
        {
          "name": "B5",
          "midi": 83,
          "time": 42.38372093023168,
          "velocity": 0.15748031496062992,
          "duration": 0.081395348837205
        },
        {
          "name": "C#5",
          "midi": 73,
          "time": 42.453488372092146,
          "velocity": 0.33858267716535434,
          "duration": 0.15116279069764005
        },
        {
          "name": "F5",
          "midi": 77,
          "time": 42.46511627906889,
          "velocity": 0.12598425196850394,
          "duration": 0.034883720930224626
        },
        {
          "name": "B0",
          "midi": 23,
          "time": 42.48837209302237,
          "velocity": 0.5433070866141733,
          "duration": 0.011627906976741542
        },
        {
          "name": "C#1",
          "midi": 25,
          "time": 42.49999999999911,
          "velocity": 0.6377952755905512,
          "duration": 0.011627906976741542
        },
        {
          "name": "F6",
          "midi": 89,
          "time": 42.49999999999911,
          "velocity": 0.3228346456692913,
          "duration": 0.47674418604643165
        },
        {
          "name": "D1",
          "midi": 26,
          "time": 42.51162790697585,
          "velocity": 0.6929133858267716,
          "duration": 0.011627906976741542
        },
        {
          "name": "F3",
          "midi": 53,
          "time": 42.51162790697585,
          "velocity": 0.4645669291338583,
          "duration": 0.023255813953483084
        },
        {
          "name": "D#4",
          "midi": 63,
          "time": 42.51162790697585,
          "velocity": 0.3228346456692913,
          "duration": 0.4302325581394655
        },
        {
          "name": "D7",
          "midi": 98,
          "time": 42.51162790697585,
          "velocity": 0.07086614173228346,
          "duration": 0.034883720930224626
        },
        {
          "name": "C1",
          "midi": 24,
          "time": 42.523255813952595,
          "velocity": 0.6929133858267716,
          "duration": 0.011627906976741542
        },
        {
          "name": "F#4",
          "midi": 66,
          "time": 42.523255813952595,
          "velocity": 0.08661417322834646,
          "duration": 0.034883720930224626
        },
        {
          "name": "B0",
          "midi": 23,
          "time": 42.53488372092934,
          "velocity": 0.7322834645669292,
          "duration": 0.45348837209294857
        },
        {
          "name": "F#3",
          "midi": 54,
          "time": 42.53488372092934,
          "velocity": 0.47244094488188976,
          "duration": 0.023255813953483084
        },
        {
          "name": "B5",
          "midi": 83,
          "time": 42.53488372092934,
          "velocity": 0.10236220472440945,
          "duration": 0.05813953488370771
        },
        {
          "name": "F#5",
          "midi": 78,
          "time": 42.54651162790608,
          "velocity": 0.18110236220472442,
          "duration": 0.09302325581393234
        },
        {
          "name": "D#3",
          "midi": 51,
          "time": 42.56976744185956,
          "velocity": 0.5275590551181102,
          "duration": 0.2209302325581035
        },
        {
          "name": "C#5",
          "midi": 73,
          "time": 42.61627906976653,
          "velocity": 0.3779527559055118,
          "duration": 0.0813953488371979
        },
        {
          "name": "D6",
          "midi": 86,
          "time": 42.62790697674327,
          "velocity": 0.1968503937007874,
          "duration": 0.09302325581393944
        },
        {
          "name": "G#6",
          "midi": 92,
          "time": 42.63953488372001,
          "velocity": 0.08661417322834646,
          "duration": 0.046511627906973274
        },
        {
          "name": "A#4",
          "midi": 70,
          "time": 42.70930232558047,
          "velocity": 0.44881889763779526,
          "duration": 0.20930232558136908
        },
        {
          "name": "D#6",
          "midi": 87,
          "time": 42.70930232558047,
          "velocity": 0.3858267716535433,
          "duration": 0.22093023255811062
        },
        {
          "name": "C#5",
          "midi": 73,
          "time": 42.72093023255721,
          "velocity": 0.25984251968503935,
          "duration": 0.2674418604650768
        },
        {
          "name": "F#2",
          "midi": 42,
          "time": 42.73255813953395,
          "velocity": 0.4645669291338583,
          "duration": 0.02325581395349019
        },
        {
          "name": "F#2",
          "midi": 42,
          "time": 42.76744186046418,
          "velocity": 0.44881889763779526,
          "duration": 0.023255813953483084
        },
        {
          "name": "B5",
          "midi": 83,
          "time": 42.77906976744092,
          "velocity": 0.12598425196850394,
          "duration": 0.034883720930224626
        },
        {
          "name": "F#5",
          "midi": 78,
          "time": 42.790697674417665,
          "velocity": 0.1968503937007874,
          "duration": 0.034883720930224626
        },
        {
          "name": "D#3",
          "midi": 51,
          "time": 42.802325581394406,
          "velocity": 0.5354330708661418,
          "duration": 0.023255813953483084
        },
        {
          "name": "D6",
          "midi": 86,
          "time": 42.81395348837115,
          "velocity": 0.3543307086614173,
          "duration": 0.18604651162787889
        },
        {
          "name": "D#3",
          "midi": 51,
          "time": 42.83720930232463,
          "velocity": 0.5118110236220472,
          "duration": 0.05813953488372192
        },
        {
          "name": "F#2",
          "midi": 42,
          "time": 42.84883720930137,
          "velocity": 0.4566929133858268,
          "duration": 0.02325581395349019
        },
        {
          "name": "F#2",
          "midi": 42,
          "time": 42.89534883720835,
          "velocity": 0.4566929133858268,
          "duration": 0.023255813953483084
        },
        {
          "name": "D#3",
          "midi": 51,
          "time": 42.906976744185094,
          "velocity": 0.49606299212598426,
          "duration": 0.04651162790696617
        },
        {
          "name": "B4",
          "midi": 71,
          "time": 42.918604651161836,
          "velocity": 0.23622047244094488,
          "duration": 0.023255813953483084
        },
        {
          "name": "A5",
          "midi": 81,
          "time": 42.918604651161836,
          "velocity": 0.12598425196850394,
          "duration": 0.034883720930224626
        },
        {
          "name": "A#4",
          "midi": 70,
          "time": 42.93023255813858,
          "velocity": 0.2755905511811024,
          "duration": 0.05813953488370771
        },
        {
          "name": "F#2",
          "midi": 42,
          "time": 42.94186046511532,
          "velocity": 0.4330708661417323,
          "duration": 0.023255813953483084
        },
        {
          "name": "D#3",
          "midi": 51,
          "time": 42.9651162790688,
          "velocity": 0.48031496062992124,
          "duration": 0.023255813953483084
        },
        {
          "name": "E4",
          "midi": 64,
          "time": 42.9651162790688,
          "velocity": 0.31496062992125984,
          "duration": 0.034883720930224626
        },
        {
          "name": "D#6",
          "midi": 87,
          "time": 42.9651162790688,
          "velocity": 0.2440944881889764,
          "duration": 0.0813953488371908
        },
        {
          "name": "F#2",
          "midi": 42,
          "time": 42.97674418604554,
          "velocity": 0.4645669291338583,
          "duration": 0.023255813953483084
        },
        {
          "name": "B5",
          "midi": 83,
          "time": 42.97674418604554,
          "velocity": 0.11811023622047244,
          "duration": 0.06976744186044925
        },
        {
          "name": "A#0",
          "midi": 22,
          "time": 42.988372093022285,
          "velocity": 0.7086614173228346,
          "duration": 0.011627906976741542
        },
        {
          "name": "C#3",
          "midi": 49,
          "time": 42.988372093022285,
          "velocity": 0.47244094488188976,
          "duration": 0.023255813953483084
        },
        {
          "name": "A4",
          "midi": 69,
          "time": 42.988372093022285,
          "velocity": 0.29133858267716534,
          "duration": 0.023255813953483084
        },
        {
          "name": "A0",
          "midi": 21,
          "time": 42.99999999999903,
          "velocity": 0.7165354330708661,
          "duration": 0.011627906976741542
        },
        {
          "name": "A#0",
          "midi": 22,
          "time": 43.01162790697577,
          "velocity": 0.7165354330708661,
          "duration": 0.011627906976741542
        },
        {
          "name": "G#0",
          "midi": 20,
          "time": 43.02325581395251,
          "velocity": 0.7244094488188977,
          "duration": 0.023255813953483084
        },
        {
          "name": "C4",
          "midi": 60,
          "time": 43.02325581395251,
          "velocity": 0.33858267716535434,
          "duration": 0.034883720930224626
        },
        {
          "name": "G4",
          "midi": 67,
          "time": 43.02325581395251,
          "velocity": 0.2755905511811024,
          "duration": 0.023255813953483084
        },
        {
          "name": "A#4",
          "midi": 70,
          "time": 43.03488372092925,
          "velocity": 0.1889763779527559,
          "duration": 0.034883720930224626
        },
        {
          "name": "G0",
          "midi": 19,
          "time": 43.04651162790599,
          "velocity": 0.7165354330708661,
          "duration": 0.011627906976741542
        },
        {
          "name": "F#0",
          "midi": 18,
          "time": 43.058139534882734,
          "velocity": 0.7086614173228346,
          "duration": 0.023255813953483084
        },
        {
          "name": "F4",
          "midi": 65,
          "time": 43.058139534882734,
          "velocity": 0.2677165354330709,
          "duration": 0.034883720930224626
        },
        {
          "name": "D6",
          "midi": 86,
          "time": 43.058139534882734,
          "velocity": 0.23622047244094488,
          "duration": 0.10465116279067388
        },
        {
          "name": "F0",
          "midi": 17,
          "time": 43.08139534883622,
          "velocity": 0.7086614173228346,
          "duration": 0.011627906976741542
        },
        {
          "name": "A2",
          "midi": 45,
          "time": 43.08139534883622,
          "velocity": 0.4881889763779528,
          "duration": 0.023255813953483084
        },
        {
          "name": "A#3",
          "midi": 58,
          "time": 43.08139534883622,
          "velocity": 0.3464566929133858,
          "duration": 0.023255813953483084
        },
        {
          "name": "E0",
          "midi": 16,
          "time": 43.09302325581296,
          "velocity": 0.7086614173228346,
          "duration": 0.023255813953483084
        },
        {
          "name": "D#5",
          "midi": 75,
          "time": 43.09302325581296,
          "velocity": 0.08661417322834646,
          "duration": 0.034883720930224626
        },
        {
          "name": "G3",
          "midi": 55,
          "time": 43.1046511627897,
          "velocity": 0.3543307086614173,
          "duration": 0.023255813953483084
        },
        {
          "name": "D#0",
          "midi": 15,
          "time": 43.11627906976644,
          "velocity": 0.7007874015748031,
          "duration": 0.011627906976741542
        },
        {
          "name": "C#0",
          "midi": 13,
          "time": 43.12790697674318,
          "velocity": 0.7165354330708661,
          "duration": 0.023255813953483084
        },
        {
          "name": "B4",
          "midi": 71,
          "time": 43.139534883719925,
          "velocity": 0.33858267716535434,
          "duration": 0.0813953488371908
        },
        {
          "name": "B-1",
          "midi": 11,
          "time": 43.15116279069667,
          "velocity": 0.7086614173228346,
          "duration": 0.034883720930224626
        },
        {
          "name": "D#3",
          "midi": 51,
          "time": 43.15116279069667,
          "velocity": 0.3937007874015748,
          "duration": 0.023255813953483084
        },
        {
          "name": "F5",
          "midi": 77,
          "time": 43.15116279069667,
          "velocity": 0.07086614173228346,
          "duration": 0.04651162790696617
        },
        {
          "name": "D3",
          "midi": 50,
          "time": 43.17441860465015,
          "velocity": 0.3937007874015748,
          "duration": 0.023255813953483084
        },
        {
          "name": "D#6",
          "midi": 87,
          "time": 43.17441860465015,
          "velocity": 0.2440944881889764,
          "duration": 0.05813953488370771
        },
        {
          "name": "G-1",
          "midi": 7,
          "time": 43.18604651162689,
          "velocity": 0.6141732283464567,
          "duration": 0.011627906976741542
        },
        {
          "name": "F-1",
          "midi": 5,
          "time": 43.19767441860363,
          "velocity": 0.5984251968503937,
          "duration": 0.011627906976741542
        },
        {
          "name": "G-1",
          "midi": 7,
          "time": 43.209302325580374,
          "velocity": 0.6771653543307087,
          "duration": 0.011627906976741542
        },
        {
          "name": "A#3",
          "midi": 58,
          "time": 43.209302325580374,
          "velocity": 0.16535433070866143,
          "duration": 0.034883720930224626
        },
        {
          "name": "F#5",
          "midi": 78,
          "time": 43.209302325580374,
          "velocity": 0.15748031496062992,
          "duration": 0.034883720930224626
        },
        {
          "name": "F#-1",
          "midi": 6,
          "time": 43.220930232557116,
          "velocity": 0.6850393700787402,
          "duration": 0.011627906976741542
        },
        {
          "name": "D6",
          "midi": 86,
          "time": 43.220930232557116,
          "velocity": 0.2283464566929134,
          "duration": 0.04651162790696617
        },
        {
          "name": "A6",
          "midi": 93,
          "time": 43.220930232557116,
          "velocity": 0.33858267716535434,
          "duration": 0.034883720930224626
        },
        {
          "name": "A#6",
          "midi": 94,
          "time": 43.220930232557116,
          "velocity": 0.36220472440944884,
          "duration": 0.06976744186044925
        },
        {
          "name": "B6",
          "midi": 95,
          "time": 43.220930232557116,
          "velocity": 0.3858267716535433,
          "duration": 0.04651162790696617
        },
        {
          "name": "C7",
          "midi": 96,
          "time": 43.220930232557116,
          "velocity": 0.3464566929133858,
          "duration": 0.05813953488370771
        },
        {
          "name": "C#7",
          "midi": 97,
          "time": 43.220930232557116,
          "velocity": 0.13385826771653545,
          "duration": 0.04651162790696617
        },
        {
          "name": "D#5",
          "midi": 75,
          "time": 43.23255813953386,
          "velocity": 0.1732283464566929,
          "duration": 0.034883720930224626
        },
        {
          "name": "F#6",
          "midi": 90,
          "time": 43.23255813953386,
          "velocity": 0.31496062992125984,
          "duration": 0.023255813953483084
        },
        {
          "name": "G#6",
          "midi": 92,
          "time": 43.23255813953386,
          "velocity": 0.30708661417322836,
          "duration": 0.04651162790696617
        },
        {
          "name": "A3",
          "midi": 57,
          "time": 43.2441860465106,
          "velocity": 0.4409448818897638,
          "duration": 0.06976744186044925
        },
        {
          "name": "G#4",
          "midi": 68,
          "time": 43.2441860465106,
          "velocity": 0.4015748031496063,
          "duration": 0.034883720930224626
        },
        {
          "name": "F5",
          "midi": 77,
          "time": 43.2441860465106,
          "velocity": 0.25984251968503935,
          "duration": 0.023255813953483084
        },
        {
          "name": "B5",
          "midi": 83,
          "time": 43.2441860465106,
          "velocity": 0.2047244094488189,
          "duration": 0.034883720930224626
        },
        {
          "name": "F6",
          "midi": 89,
          "time": 43.2441860465106,
          "velocity": 0.3228346456692913,
          "duration": 0.023255813953483084
        },
        {
          "name": "G6",
          "midi": 91,
          "time": 43.2441860465106,
          "velocity": 0.36220472440944884,
          "duration": 0.04651162790696617
        },
        {
          "name": "D0",
          "midi": 14,
          "time": 43.25581395348734,
          "velocity": 0.5433070866141733,
          "duration": 0.011627906976741542
        },
        {
          "name": "C#6",
          "midi": 85,
          "time": 43.25581395348734,
          "velocity": 0.3464566929133858,
          "duration": 0.0813953488371908
        },
        {
          "name": "D#6",
          "midi": 87,
          "time": 43.25581395348734,
          "velocity": 0.2125984251968504,
          "duration": 0.09302325581393234
        },
        {
          "name": "F4",
          "midi": 65,
          "time": 43.26744186046408,
          "velocity": 0.41732283464566927,
          "duration": 0.023255813953483084
        },
        {
          "name": "A#4",
          "midi": 70,
          "time": 43.26744186046408,
          "velocity": 0.3700787401574803,
          "duration": 0.023255813953483084
        },
        {
          "name": "C#5",
          "midi": 73,
          "time": 43.26744186046408,
          "velocity": 0.25984251968503935,
          "duration": 0.034883720930224626
        },
        {
          "name": "F#5",
          "midi": 78,
          "time": 43.26744186046408,
          "velocity": 0.1968503937007874,
          "duration": 0.05813953488370771
        },
        {
          "name": "E6",
          "midi": 88,
          "time": 43.26744186046408,
          "velocity": 0.29133858267716534,
          "duration": 0.034883720930224626
        },
        {
          "name": "G#5",
          "midi": 80,
          "time": 43.279069767440824,
          "velocity": 0.2204724409448819,
          "duration": 0.05813953488370771
        },
        {
          "name": "D6",
          "midi": 86,
          "time": 43.279069767440824,
          "velocity": 0.33070866141732286,
          "duration": 0.15116279069764005
        },
        {
          "name": "C#-1",
          "midi": 1,
          "time": 43.290697674417565,
          "velocity": 0.6614173228346457,
          "duration": 0.011627906976741542
        },
        {
          "name": "F#4",
          "midi": 66,
          "time": 43.290697674417565,
          "velocity": 0.3228346456692913,
          "duration": 0.023255813953483084
        },
        {
          "name": "E5",
          "midi": 76,
          "time": 43.290697674417565,
          "velocity": 0.2283464566929134,
          "duration": 0.034883720930224626
        },
        {
          "name": "C3",
          "midi": 48,
          "time": 43.30232558139431,
          "velocity": 0.4881889763779528,
          "duration": 0.023255813953483084
        },
        {
          "name": "G#-1",
          "midi": 8,
          "time": 43.31395348837105,
          "velocity": 0.5905511811023622,
          "duration": 0.011627906976741542
        },
        {
          "name": "A#3",
          "midi": 58,
          "time": 43.31395348837105,
          "velocity": 0.5433070866141733,
          "duration": 0.12790697674415696
        },
        {
          "name": "C0",
          "midi": 12,
          "time": 43.32558139534779,
          "velocity": 0.6614173228346457,
          "duration": 0.011627906976741542
        },
        {
          "name": "C#2",
          "midi": 37,
          "time": 43.32558139534779,
          "velocity": 0.5196850393700787,
          "duration": 0.011627906976741542
        },
        {
          "name": "F5",
          "midi": 77,
          "time": 43.32558139534779,
          "velocity": 0.25984251968503935,
          "duration": 0.10465116279067388
        },
        {
          "name": "C#1",
          "midi": 25,
          "time": 43.33720930232453,
          "velocity": 0.6535433070866141,
          "duration": 0.023255813953483084
        },
        {
          "name": "D#4",
          "midi": 63,
          "time": 43.33720930232453,
          "velocity": 0.33070866141732286,
          "duration": 0.05813953488370771
        },
        {
          "name": "C#5",
          "midi": 73,
          "time": 43.34883720930127,
          "velocity": 0.16535433070866143,
          "duration": 0.15116279069764715
        },
        {
          "name": "A#0",
          "midi": 22,
          "time": 43.360465116278014,
          "velocity": 0.6771653543307087,
          "duration": 0.011627906976741542
        },
        {
          "name": "F#4",
          "midi": 66,
          "time": 43.360465116278014,
          "velocity": 0.12598425196850394,
          "duration": 0.034883720930224626
        },
        {
          "name": "A0",
          "midi": 21,
          "time": 43.372093023254756,
          "velocity": 0.6614173228346457,
          "duration": 0.011627906976741542
        },
        {
          "name": "C1",
          "midi": 24,
          "time": 43.3837209302315,
          "velocity": 0.6535433070866141,
          "duration": 0.011627906976741542
        },
        {
          "name": "F#2",
          "midi": 42,
          "time": 43.3837209302315,
          "velocity": 0.3779527559055118,
          "duration": 0.023255813953483084
        },
        {
          "name": "B0",
          "midi": 23,
          "time": 43.39534883720824,
          "velocity": 0.6535433070866141,
          "duration": 0.41860465116273105
        },
        {
          "name": "D#4",
          "midi": 63,
          "time": 43.40697674418498,
          "velocity": 0.30708661417322836,
          "duration": 0.3837209302324993
        },
        {
          "name": "F#4",
          "midi": 66,
          "time": 43.40697674418498,
          "velocity": 0.3543307086614173,
          "duration": 0.37209302325575777
        },
        {
          "name": "D#6",
          "midi": 87,
          "time": 43.40697674418498,
          "velocity": 0.13385826771653545,
          "duration": 0.04651162790696617
        },
        {
          "name": "G6",
          "midi": 91,
          "time": 43.41860465116172,
          "velocity": 0.08661417322834646,
          "duration": 0.034883720930224626
        },
        {
          "name": "E7",
          "midi": 100,
          "time": 43.41860465116172,
          "velocity": 0.30708661417322836,
          "duration": 0.0813953488371979
        },
        {
          "name": "A#3",
          "midi": 58,
          "time": 43.47674418604544,
          "velocity": 0.4330708661417323,
          "duration": 0.04651162790696617
        },
        {
          "name": "C7",
          "midi": 96,
          "time": 43.47674418604544,
          "velocity": 0.28346456692913385,
          "duration": 0.09302325581393944
        },
        {
          "name": "E3",
          "midi": 52,
          "time": 43.48837209302218,
          "velocity": 0.3779527559055118,
          "duration": 0.023255813953483084
        },
        {
          "name": "A#4",
          "midi": 70,
          "time": 43.48837209302218,
          "velocity": 0.5354330708661418,
          "duration": 0.0813953488371979
        },
        {
          "name": "F5",
          "midi": 77,
          "time": 43.48837209302218,
          "velocity": 0.10236220472440945,
          "duration": 0.034883720930224626
        },
        {
          "name": "D7",
          "midi": 98,
          "time": 43.49999999999892,
          "velocity": 0.2125984251968504,
          "duration": 0.11627906976742963
        },
        {
          "name": "D#7",
          "midi": 99,
          "time": 43.49999999999892,
          "velocity": 0.1732283464566929,
          "duration": 0.06976744186045636
        },
        {
          "name": "F#7",
          "midi": 102,
          "time": 43.49999999999892,
          "velocity": 0.10236220472440945,
          "duration": 0.06976744186045636
        },
        {
          "name": "D6",
          "midi": 86,
          "time": 43.51162790697566,
          "velocity": 0.16535433070866143,
          "duration": 0.058139534883714816
        },
        {
          "name": "C#5",
          "midi": 73,
          "time": 43.534883720929145,
          "velocity": 0.13385826771653545,
          "duration": 0.2441860465115937
        },
        {
          "name": "C#6",
          "midi": 85,
          "time": 43.534883720929145,
          "velocity": 0.14173228346456693,
          "duration": 0.25581395348833524
        },
        {
          "name": "A4",
          "midi": 69,
          "time": 43.569767441859376,
          "velocity": 0.5118110236220472,
          "duration": 0.0813953488371979
        },
        {
          "name": "C#7",
          "midi": 97,
          "time": 43.569767441859376,
          "velocity": 0.2125984251968504,
          "duration": 0.0813953488371979
        },
        {
          "name": "E7",
          "midi": 100,
          "time": 43.569767441859376,
          "velocity": 0.14173228346456693,
          "duration": 0.058139534883714816
        },
        {
          "name": "D#6",
          "midi": 87,
          "time": 43.60465116278961,
          "velocity": 0.1732283464566929,
          "duration": 0.04651162790696617
        },
        {
          "name": "A#3",
          "midi": 58,
          "time": 43.63953488371983,
          "velocity": 0.25984251968503935,
          "duration": 0.023255813953483084
        },
        {
          "name": "A#4",
          "midi": 70,
          "time": 43.63953488371983,
          "velocity": 0.4251968503937008,
          "duration": 0.22093023255811062
        },
        {
          "name": "D6",
          "midi": 86,
          "time": 43.651162790696574,
          "velocity": 0.11811023622047244,
          "duration": 0.046511627906973274
        },
        {
          "name": "A#6",
          "midi": 94,
          "time": 43.686046511626806,
          "velocity": 0.2992125984251969,
          "duration": 0.19767441860462043
        },
        {
          "name": "A#3",
          "midi": 58,
          "time": 43.69767441860355,
          "velocity": 0.5039370078740157,
          "duration": 0.06976744186044925
        },
        {
          "name": "C7",
          "midi": 96,
          "time": 43.69767441860355,
          "velocity": 0.2204724409448819,
          "duration": 0.04651162790696617
        },
        {
          "name": "F#2",
          "midi": 42,
          "time": 43.70930232558029,
          "velocity": 0.30708661417322836,
          "duration": 0.023255813953483084
        },
        {
          "name": "F5",
          "midi": 77,
          "time": 43.70930232558029,
          "velocity": 0.12598425196850394,
          "duration": 0.04651162790696617
        },
        {
          "name": "D7",
          "midi": 98,
          "time": 43.70930232558029,
          "velocity": 0.3858267716535433,
          "duration": 0.12790697674417117
        },
        {
          "name": "D#7",
          "midi": 99,
          "time": 43.70930232558029,
          "velocity": 0.18110236220472442,
          "duration": 0.034883720930224626
        },
        {
          "name": "D6",
          "midi": 86,
          "time": 43.72093023255703,
          "velocity": 0.23622047244094488,
          "duration": 0.09302325581393944
        },
        {
          "name": "E7",
          "midi": 100,
          "time": 43.744186046510514,
          "velocity": 0.23622047244094488,
          "duration": 0.13953488372091272
        },
        {
          "name": "F#7",
          "midi": 102,
          "time": 43.755813953487255,
          "velocity": 0.2047244094488189,
          "duration": 0.10465116279068809
        },
        {
          "name": "C7",
          "midi": 96,
          "time": 43.767441860464,
          "velocity": 0.31496062992125984,
          "duration": 0.081395348837205
        },
        {
          "name": "A#3",
          "midi": 58,
          "time": 43.77906976744074,
          "velocity": 0.4645669291338583,
          "duration": 0.06976744186046346
        },
        {
          "name": "A6",
          "midi": 93,
          "time": 43.77906976744074,
          "velocity": 0.2992125984251969,
          "duration": 0.06976744186046346
        },
        {
          "name": "B6",
          "midi": 95,
          "time": 43.77906976744074,
          "velocity": 0.2677165354330709,
          "duration": 0.03488372093023173
        },
        {
          "name": "D#7",
          "midi": 99,
          "time": 43.77906976744074,
          "velocity": 0.3858267716535433,
          "duration": 0.09302325581394655
        },
        {
          "name": "F7",
          "midi": 101,
          "time": 43.77906976744074,
          "velocity": 0.30708661417322836,
          "duration": 0.09302325581394655
        },
        {
          "name": "E4",
          "midi": 64,
          "time": 43.79069767441748,
          "velocity": 0.2677165354330709,
          "duration": 0.02325581395349019
        },
        {
          "name": "C#5",
          "midi": 73,
          "time": 43.79069767441748,
          "velocity": 0.18110236220472442,
          "duration": 0.22093023255813193
        },
        {
          "name": "F#6",
          "midi": 90,
          "time": 43.79069767441748,
          "velocity": 0.1968503937007874,
          "duration": 0.04651162790698038
        },
        {
          "name": "C#7",
          "midi": 97,
          "time": 43.79069767441748,
          "velocity": 0.30708661417322836,
          "duration": 0.06976744186046346
        },
        {
          "name": "A#0",
          "midi": 22,
          "time": 43.81395348837097,
          "velocity": 0.5826771653543307,
          "duration": 0.02325581395349019
        },
        {
          "name": "C1",
          "midi": 24,
          "time": 43.83720930232446,
          "velocity": 0.5826771653543307,
          "duration": 0.011627906976741542
        },
        {
          "name": "G#4",
          "midi": 68,
          "time": 43.83720930232446,
          "velocity": 0.4645669291338583,
          "duration": 0.2906976744185883
        },
        {
          "name": "B0",
          "midi": 23,
          "time": 43.8488372093012,
          "velocity": 0.5748031496062992,
          "duration": 0.32558139534882
        },
        {
          "name": "G#3",
          "midi": 56,
          "time": 43.872093023254685,
          "velocity": 0.36220472440944884,
          "duration": 0.03488372093023173
        },
        {
          "name": "D#6",
          "midi": 87,
          "time": 43.883720930231426,
          "velocity": 0.18110236220472442,
          "duration": 0.3139534883720785
        },
        {
          "name": "F#3",
          "midi": 54,
          "time": 43.91860465116166,
          "velocity": 0.29133858267716534,
          "duration": 0.06976744186046346
        },
        {
          "name": "F3",
          "midi": 53,
          "time": 44.01162790697561,
          "velocity": 0.33070866141732286,
          "duration": 0.17441860465115155
        },
        {
          "name": "C5",
          "midi": 72,
          "time": 44.01162790697561,
          "velocity": 0.12598425196850394,
          "duration": 0.11627906976743674
        },
        {
          "name": "A#3",
          "midi": 58,
          "time": 44.04651162790584,
          "velocity": 0.1732283464566929,
          "duration": 0.03488372093023173
        },
        {
          "name": "A#3",
          "midi": 58,
          "time": 44.104651162789565,
          "velocity": 0.15748031496062992,
          "duration": 0.058139534883714816
        },
        {
          "name": "A#4",
          "midi": 70,
          "time": 44.11627906976631,
          "velocity": 0.44881889763779526,
          "duration": 0.15116279069765426
        },
        {
          "name": "C7",
          "midi": 96,
          "time": 44.12790697674305,
          "velocity": 0.09448818897637795,
          "duration": 0.03488372093023173
        },
        {
          "name": "C5",
          "midi": 72,
          "time": 44.16279069767328,
          "velocity": 0.1968503937007874,
          "duration": 0.034883720930224626
        },
        {
          "name": "D6",
          "midi": 86,
          "time": 44.17441860465002,
          "velocity": 0.23622047244094488,
          "duration": 0.0813953488371979
        },
        {
          "name": "F6",
          "midi": 89,
          "time": 44.209302325580246,
          "velocity": 0.2204724409448819,
          "duration": 0.046511627906973274
        },
        {
          "name": "F#6",
          "midi": 90,
          "time": 44.25581395348722,
          "velocity": 0.1889763779527559,
          "duration": 0.03488372093023173
        },
        {
          "name": "A#4",
          "midi": 70,
          "time": 44.29069767441745,
          "velocity": 0.18110236220472442,
          "duration": 0.08139534883721211
        },
        {
          "name": "A#4",
          "midi": 70,
          "time": 44.395348837208154,
          "velocity": 0.11811023622047244,
          "duration": 0.09302325581395365
        },
        {
          "name": "A#4",
          "midi": 70,
          "time": 44.56976744185932,
          "velocity": 0.3858267716535433,
          "duration": 0.12790697674417117
        },
        {
          "name": "D6",
          "midi": 86,
          "time": 44.60465116278955,
          "velocity": 0.2047244094488189,
          "duration": 0.0813953488371979
        },
        {
          "name": "F6",
          "midi": 89,
          "time": 44.60465116278955,
          "velocity": 0.13385826771653545,
          "duration": 0.03488372093023173
        },
        {
          "name": "D3",
          "midi": 50,
          "time": 44.62790697674304,
          "velocity": 0.41732283464566927,
          "duration": 0.034883720930224626
        },
        {
          "name": "G#4",
          "midi": 68,
          "time": 44.62790697674304,
          "velocity": 0.3779527559055118,
          "duration": 0.8720930232557222
        },
        {
          "name": "F5",
          "midi": 77,
          "time": 44.62790697674304,
          "velocity": 0.4094488188976378,
          "duration": 0.6511627906976187
        },
        {
          "name": "F#1",
          "midi": 30,
          "time": 44.63953488371978,
          "velocity": 0.6929133858267716,
          "duration": 0.023255813953483084
        },
        {
          "name": "E4",
          "midi": 64,
          "time": 44.63953488371978,
          "velocity": 0.2283464566929134,
          "duration": 0.023255813953483084
        },
        {
          "name": "G#6",
          "midi": 92,
          "time": 44.63953488371978,
          "velocity": 0.10236220472440945,
          "duration": 0.034883720930224626
        },
        {
          "name": "A#3",
          "midi": 58,
          "time": 44.651162790696524,
          "velocity": 0.44881889763779526,
          "duration": 0.05813953488370771
        },
        {
          "name": "D#6",
          "midi": 87,
          "time": 44.651162790696524,
          "velocity": 0.16535433070866143,
          "duration": 0.46511627906973274
        },
        {
          "name": "F1",
          "midi": 29,
          "time": 44.662790697673266,
          "velocity": 0.7165354330708661,
          "duration": 0.011627906976741542
        },
        {
          "name": "C7",
          "midi": 96,
          "time": 44.662790697673266,
          "velocity": 0.11811023622047244,
          "duration": 0.034883720930224626
        },
        {
          "name": "D#1",
          "midi": 27,
          "time": 44.67441860465001,
          "velocity": 0.7480314960629921,
          "duration": 1.2441860465114871
        },
        {
          "name": "G3",
          "midi": 55,
          "time": 44.67441860465001,
          "velocity": 0.5118110236220472,
          "duration": 0.7558139534883068
        },
        {
          "name": "F#6",
          "midi": 90,
          "time": 44.67441860465001,
          "velocity": 0.16535433070866143,
          "duration": 0.04651162790696617
        },
        {
          "name": "A#2",
          "midi": 46,
          "time": 44.68604651162675,
          "velocity": 0.4015748031496063,
          "duration": 0.023255813953483084
        },
        {
          "name": "D#4",
          "midi": 63,
          "time": 44.69767441860349,
          "velocity": 0.15748031496062992,
          "duration": 0.034883720930224626
        },
        {
          "name": "B4",
          "midi": 71,
          "time": 44.69767441860349,
          "velocity": 0.3543307086614173,
          "duration": 0.034883720930224626
        },
        {
          "name": "A#2",
          "midi": 46,
          "time": 44.720930232556974,
          "velocity": 0.4330708661417323,
          "duration": 0.19767441860464174
        },
        {
          "name": "A#4",
          "midi": 70,
          "time": 44.755813953487205,
          "velocity": 0.25196850393700787,
          "duration": 0.06976744186046346
        },
        {
          "name": "D#4",
          "midi": 63,
          "time": 44.76744186046395,
          "velocity": 0.13385826771653545,
          "duration": 0.24418604651161502
        },
        {
          "name": "A#4",
          "midi": 70,
          "time": 44.83720930232441,
          "velocity": 0.11811023622047244,
          "duration": 0.046511627906973274
        },
        {
          "name": "A#2",
          "midi": 46,
          "time": 44.95348837209185,
          "velocity": 0.4330708661417323,
          "duration": 0.09302325581394655
        },
        {
          "name": "D6",
          "midi": 86,
          "time": 44.99999999999882,
          "velocity": 0.07874015748031496,
          "duration": 0.03488372093023173
        },
        {
          "name": "G5",
          "midi": 79,
          "time": 45.069767441859284,
          "velocity": 0.07874015748031496,
          "duration": 0.15116279069766847
        },
        {
          "name": "A#2",
          "midi": 46,
          "time": 45.081395348836026,
          "velocity": 0.4251968503937008,
          "duration": 0.05813953488372192
        },
        {
          "name": "B4",
          "midi": 71,
          "time": 45.081395348836026,
          "velocity": 0.4015748031496063,
          "duration": 0.2674418604650839
        },
        {
          "name": "D6",
          "midi": 86,
          "time": 45.081395348836026,
          "velocity": 0.16535433070866143,
          "duration": 0.1046511627906952
        },
        {
          "name": "A#2",
          "midi": 46,
          "time": 45.15116279069649,
          "velocity": 0.4015748031496063,
          "duration": 0.02325581395349019
        },
        {
          "name": "D#6",
          "midi": 87,
          "time": 45.15116279069649,
          "velocity": 0.28346456692913385,
          "duration": 0.11627906976742963
        },
        {
          "name": "A#2",
          "midi": 46,
          "time": 45.20930232558021,
          "velocity": 0.4015748031496063,
          "duration": 0.034883720930224626
        },
        {
          "name": "C#5",
          "midi": 73,
          "time": 45.232558139533694,
          "velocity": 0.25196850393700787,
          "duration": 0.04651162790696617
        },
        {
          "name": "G5",
          "midi": 79,
          "time": 45.244186046510436,
          "velocity": 0.29133858267716534,
          "duration": 0.04651162790696617
        },
        {
          "name": "A5",
          "midi": 81,
          "time": 45.244186046510436,
          "velocity": 0.3937007874015748,
          "duration": 0.04651162790696617
        },
        {
          "name": "A#2",
          "midi": 46,
          "time": 45.25581395348718,
          "velocity": 0.3700787401574803,
          "duration": 0.023255813953483084
        },
        {
          "name": "D#5",
          "midi": 75,
          "time": 45.25581395348718,
          "velocity": 0.23622047244094488,
          "duration": 0.023255813953483084
        },
        {
          "name": "D6",
          "midi": 86,
          "time": 45.25581395348718,
          "velocity": 0.3228346456692913,
          "duration": 0.034883720930224626
        },
        {
          "name": "D#6",
          "midi": 87,
          "time": 45.27906976744066,
          "velocity": 0.3779527559055118,
          "duration": 0.25581395348832814
        },
        {
          "name": "A#3",
          "midi": 58,
          "time": 45.2906976744174,
          "velocity": 0.2992125984251969,
          "duration": 0.023255813953483084
        },
        {
          "name": "G5",
          "midi": 79,
          "time": 45.30232558139414,
          "velocity": 0.2992125984251969,
          "duration": 0.023255813953483084
        },
        {
          "name": "E6",
          "midi": 88,
          "time": 45.30232558139414,
          "velocity": 0.2204724409448819,
          "duration": 0.04651162790696617
        },
        {
          "name": "D#5",
          "midi": 75,
          "time": 45.313953488370885,
          "velocity": 0.25196850393700787,
          "duration": 0.034883720930224626
        },
        {
          "name": "F5",
          "midi": 77,
          "time": 45.313953488370885,
          "velocity": 0.3464566929133858,
          "duration": 0.25581395348832814
        },
        {
          "name": "A#2",
          "midi": 46,
          "time": 45.33720930232437,
          "velocity": 0.3700787401574803,
          "duration": 0.03488372093023173
        },
        {
          "name": "A#3",
          "midi": 58,
          "time": 45.39534883720809,
          "velocity": 0.30708661417322836,
          "duration": 0.023255813953483084
        },
        {
          "name": "A#2",
          "midi": 46,
          "time": 45.40697674418483,
          "velocity": 0.3464566929133858,
          "duration": 0.023255813953483084
        },
        {
          "name": "B3",
          "midi": 59,
          "time": 45.441860465115056,
          "velocity": 0.4094488188976378,
          "duration": 0.034883720930224626
        },
        {
          "name": "G3",
          "midi": 55,
          "time": 45.4534883720918,
          "velocity": 0.3228346456692913,
          "duration": 0.034883720930224626
        },
        {
          "name": "A#2",
          "midi": 46,
          "time": 45.46511627906854,
          "velocity": 0.33858267716535434,
          "duration": 0.034883720930224626
        },
        {
          "name": "A#4",
          "midi": 70,
          "time": 45.46511627906854,
          "velocity": 0.5826771653543307,
          "duration": 0.3604651162790091
        },
        {
          "name": "D6",
          "midi": 86,
          "time": 45.46511627906854,
          "velocity": 0.08661417322834646,
          "duration": 0.04651162790696617
        },
        {
          "name": "C#4",
          "midi": 61,
          "time": 45.47674418604528,
          "velocity": 0.5433070866141733,
          "duration": 0.05813953488370771
        },
        {
          "name": "G#6",
          "midi": 92,
          "time": 45.47674418604528,
          "velocity": 0.1968503937007874,
          "duration": 0.034883720930224626
        },
        {
          "name": "B6",
          "midi": 95,
          "time": 45.47674418604528,
          "velocity": 0.36220472440944884,
          "duration": 0.10465116279067388
        },
        {
          "name": "C7",
          "midi": 96,
          "time": 45.47674418604528,
          "velocity": 0.2440944881889764,
          "duration": 0.15116279069764005
        },
        {
          "name": "C#7",
          "midi": 97,
          "time": 45.47674418604528,
          "velocity": 0.33858267716535434,
          "duration": 0.09302325581393234
        },
        {
          "name": "D7",
          "midi": 98,
          "time": 45.47674418604528,
          "velocity": 0.3228346456692913,
          "duration": 0.06976744186044925
        },
        {
          "name": "A6",
          "midi": 93,
          "time": 45.499999999998764,
          "velocity": 0.28346456692913385,
          "duration": 0.06976744186044925
        },
        {
          "name": "A#6",
          "midi": 94,
          "time": 45.499999999998764,
          "velocity": 0.29133858267716534,
          "duration": 0.09302325581393234
        },
        {
          "name": "E7",
          "midi": 100,
          "time": 45.499999999998764,
          "velocity": 0.2204724409448819,
          "duration": 0.0813953488371908
        },
        {
          "name": "F7",
          "midi": 101,
          "time": 45.499999999998764,
          "velocity": 0.2755905511811024,
          "duration": 0.06976744186044925
        },
        {
          "name": "F#7",
          "midi": 102,
          "time": 45.499999999998764,
          "velocity": 0.14960629921259844,
          "duration": 0.0813953488371908
        },
        {
          "name": "G7",
          "midi": 103,
          "time": 45.499999999998764,
          "velocity": 0.18110236220472442,
          "duration": 0.06976744186044925
        },
        {
          "name": "G#4",
          "midi": 68,
          "time": 45.511627906975505,
          "velocity": 0.2992125984251969,
          "duration": 0.09302325581393234
        },
        {
          "name": "F#6",
          "midi": 90,
          "time": 45.511627906975505,
          "velocity": 0.1732283464566929,
          "duration": 0.04651162790696617
        },
        {
          "name": "G3",
          "midi": 55,
          "time": 45.52325581395225,
          "velocity": 0.3228346456692913,
          "duration": 0.034883720930224626
        },
        {
          "name": "C4",
          "midi": 60,
          "time": 45.53488372092899,
          "velocity": 0.41732283464566927,
          "duration": 0.023255813953483084
        },
        {
          "name": "G#6",
          "midi": 92,
          "time": 45.53488372092899,
          "velocity": 0.2440944881889764,
          "duration": 0.023255813953483084
        },
        {
          "name": "D#3",
          "midi": 51,
          "time": 45.54651162790573,
          "velocity": 0.3228346456692913,
          "duration": 0.04651162790696617
        },
        {
          "name": "D#6",
          "midi": 87,
          "time": 45.56976744185921,
          "velocity": 0.11811023622047244,
          "duration": 0.290697674418567
        },
        {
          "name": "F5",
          "midi": 77,
          "time": 45.593023255812696,
          "velocity": 0.3228346456692913,
          "duration": 0.5930232558138684
        },
        {
          "name": "G#3",
          "midi": 56,
          "time": 45.61627906976618,
          "velocity": 0.4645669291338583,
          "duration": 0.034883720930224626
        },
        {
          "name": "C4",
          "midi": 60,
          "time": 45.62790697674292,
          "velocity": 0.33070866141732286,
          "duration": 0.023255813953483084
        },
        {
          "name": "D7",
          "midi": 98,
          "time": 45.63953488371966,
          "velocity": 0.11811023622047244,
          "duration": 0.09302325581393944
        },
        {
          "name": "D#3",
          "midi": 51,
          "time": 45.651162790696404,
          "velocity": 0.3858267716535433,
          "duration": 0.22093023255811772
        },
        {
          "name": "A3",
          "midi": 57,
          "time": 45.662790697673145,
          "velocity": 0.3543307086614173,
          "duration": 0.023255813953483084
        },
        {
          "name": "D6",
          "midi": 86,
          "time": 45.662790697673145,
          "velocity": 0.11811023622047244,
          "duration": 0.0813953488371979
        },
        {
          "name": "G#4",
          "midi": 68,
          "time": 45.67441860464989,
          "velocity": 0.31496062992125984,
          "duration": 0.046511627906973274
        },
        {
          "name": "G#6",
          "midi": 92,
          "time": 45.67441860464989,
          "velocity": 0.3543307086614173,
          "duration": 0.09302325581393944
        },
        {
          "name": "A#3",
          "midi": 58,
          "time": 45.68604651162663,
          "velocity": 0.36220472440944884,
          "duration": 0.16279069767441
        },
        {
          "name": "G#4",
          "midi": 68,
          "time": 45.755813953487085,
          "velocity": 0.4251968503937008,
          "duration": 0.17441860465115155
        },
        {
          "name": "D6",
          "midi": 86,
          "time": 45.86046511627778,
          "velocity": 0.08661417322834646,
          "duration": 0.09302325581393944
        },
        {
          "name": "E6",
          "midi": 88,
          "time": 45.86046511627778,
          "velocity": 0.1732283464566929,
          "duration": 0.034883720930224626
        },
        {
          "name": "G#3",
          "midi": 56,
          "time": 45.87209302325452,
          "velocity": 0.5196850393700787,
          "duration": 0.011627906976741542
        },
        {
          "name": "D#3",
          "midi": 51,
          "time": 45.88372093023126,
          "velocity": 0.4094488188976378,
          "duration": 0.058139534883714816
        },
        {
          "name": "A#3",
          "midi": 58,
          "time": 45.88372093023126,
          "velocity": 0.5354330708661418,
          "duration": 0.0813953488371979
        },
        {
          "name": "D#6",
          "midi": 87,
          "time": 45.895348837208005,
          "velocity": 0.11023622047244094,
          "duration": 0.03488372093023173
        },
        {
          "name": "C1",
          "midi": 24,
          "time": 45.918604651161495,
          "velocity": 0.6220472440944882,
          "duration": 0.023255813953483084
        },
        {
          "name": "G#6",
          "midi": 92,
          "time": 45.918604651161495,
          "velocity": 0.30708661417322836,
          "duration": 0.06976744186044925
        },
        {
          "name": "D1",
          "midi": 26,
          "time": 45.94186046511498,
          "velocity": 0.6850393700787402,
          "duration": 0.011627906976741542
        },
        {
          "name": "C#5",
          "midi": 73,
          "time": 45.94186046511498,
          "velocity": 0.14173228346456693,
          "duration": 0.36046511627901623
        },
        {
          "name": "A#6",
          "midi": 94,
          "time": 45.94186046511498,
          "velocity": 0.1732283464566929,
          "duration": 0.0813953488371908
        },
        {
          "name": "C#1",
          "midi": 25,
          "time": 45.95348837209172,
          "velocity": 0.7007874015748031,
          "duration": 0.011627906976741542
        },
        {
          "name": "B0",
          "midi": 23,
          "time": 45.96511627906846,
          "velocity": 0.7165354330708661,
          "duration": 0.04651162790696617
        },
        {
          "name": "F#3",
          "midi": 54,
          "time": 45.96511627906846,
          "velocity": 0.4566929133858268,
          "duration": 0.023255813953483084
        },
        {
          "name": "G6",
          "midi": 91,
          "time": 45.9767441860452,
          "velocity": 0.2755905511811024,
          "duration": 0.09302325581393234
        },
        {
          "name": "A4",
          "midi": 69,
          "time": 45.988372093021944,
          "velocity": 0.4645669291338583,
          "duration": 0.023255813953483084
        },
        {
          "name": "F#4",
          "midi": 66,
          "time": 45.999999999998685,
          "velocity": 0.14173228346456693,
          "duration": 0.17441860465113734
        },
        {
          "name": "G#6",
          "midi": 92,
          "time": 45.999999999998685,
          "velocity": 0.3228346456692913,
          "duration": 0.18604651162787889
        },
        {
          "name": "A#0",
          "midi": 22,
          "time": 46.01162790697543,
          "velocity": 0.7165354330708661,
          "duration": 0.011627906976741542
        },
        {
          "name": "A#3",
          "midi": 58,
          "time": 46.01162790697543,
          "velocity": 0.3937007874015748,
          "duration": 0.023255813953483084
        },
        {
          "name": "A#4",
          "midi": 70,
          "time": 46.01162790697543,
          "velocity": 0.4881889763779528,
          "duration": 0.1627906976743958
        },
        {
          "name": "B0",
          "midi": 23,
          "time": 46.02325581395217,
          "velocity": 0.7322834645669292,
          "duration": 0.9883720930230879
        },
        {
          "name": "D#3",
          "midi": 51,
          "time": 46.02325581395217,
          "velocity": 0.5275590551181102,
          "duration": 0.10465116279068809
        },
        {
          "name": "A#6",
          "midi": 94,
          "time": 46.04651162790565,
          "velocity": 0.2125984251968504,
          "duration": 0.13953488372091272
        },
        {
          "name": "A#3",
          "midi": 58,
          "time": 46.05813953488239,
          "velocity": 0.3543307086614173,
          "duration": 0.03488372093023173
        },
        {
          "name": "F#2",
          "midi": 42,
          "time": 46.069767441859135,
          "velocity": 0.44881889763779526,
          "duration": 0.02325581395349019
        },
        {
          "name": "E7",
          "midi": 100,
          "time": 46.093023255812625,
          "velocity": 0.16535433070866143,
          "duration": 0.03488372093023173
        },
        {
          "name": "C7",
          "midi": 96,
          "time": 46.12790697674286,
          "velocity": 0.07086614173228346,
          "duration": 0.034883720930224626
        },
        {
          "name": "D#7",
          "midi": 99,
          "time": 46.12790697674286,
          "velocity": 0.14960629921259844,
          "duration": 0.05813953488370771
        },
        {
          "name": "D#3",
          "midi": 51,
          "time": 46.1395348837196,
          "velocity": 0.5275590551181102,
          "duration": 0.023255813953483084
        },
        {
          "name": "A#3",
          "midi": 58,
          "time": 46.15116279069634,
          "velocity": 0.31496062992125984,
          "duration": 0.023255813953483084
        },
        {
          "name": "D3",
          "midi": 50,
          "time": 46.16279069767308,
          "velocity": 0.5039370078740157,
          "duration": 0.023255813953483084
        },
        {
          "name": "A4",
          "midi": 69,
          "time": 46.17441860464982,
          "velocity": 0.4251968503937008,
          "duration": 0.023255813953483084
        },
        {
          "name": "D#3",
          "midi": 51,
          "time": 46.186046511626564,
          "velocity": 0.5196850393700787,
          "duration": 0.011627906976741542
        },
        {
          "name": "A#5",
          "midi": 82,
          "time": 46.186046511626564,
          "velocity": 0.14173228346456693,
          "duration": 0.06976744186045636
        },
        {
          "name": "F#4",
          "midi": 66,
          "time": 46.197674418603306,
          "velocity": 0.16535433070866143,
          "duration": 0.10465116279068809
        },
        {
          "name": "A#4",
          "midi": 70,
          "time": 46.197674418603306,
          "velocity": 0.5433070866141733,
          "duration": 0.5581395348836224
        },
        {
          "name": "D#3",
          "midi": 51,
          "time": 46.220930232556796,
          "velocity": 0.5118110236220472,
          "duration": 0.011627906976741542
        },
        {
          "name": "F6",
          "midi": 89,
          "time": 46.220930232556796,
          "velocity": 0.25196850393700787,
          "duration": 0.37209302325574356
        },
        {
          "name": "F#2",
          "midi": 42,
          "time": 46.23255813953354,
          "velocity": 0.4566929133858268,
          "duration": 0.023255813953483084
        },
        {
          "name": "D#3",
          "midi": 51,
          "time": 46.24418604651028,
          "velocity": 0.5039370078740157,
          "duration": 0.023255813953483084
        },
        {
          "name": "B3",
          "midi": 59,
          "time": 46.29069767441725,
          "velocity": 0.25196850393700787,
          "duration": 0.023255813953483084
        },
        {
          "name": "D#3",
          "midi": 51,
          "time": 46.302325581393994,
          "velocity": 0.49606299212598426,
          "duration": 0.023255813953483084
        },
        {
          "name": "F5",
          "midi": 77,
          "time": 46.302325581393994,
          "velocity": 0.4015748031496063,
          "duration": 0.1395348837209056
        },
        {
          "name": "G6",
          "midi": 91,
          "time": 46.302325581393994,
          "velocity": 0.12598425196850394,
          "duration": 0.04651162790696617
        },
        {
          "name": "A#3",
          "midi": 58,
          "time": 46.313953488370736,
          "velocity": 0.3543307086614173,
          "duration": 0.04651162790696617
        },
        {
          "name": "D6",
          "midi": 86,
          "time": 46.32558139534748,
          "velocity": 0.36220472440944884,
          "duration": 0.09302325581393944
        },
        {
          "name": "D#7",
          "midi": 99,
          "time": 46.32558139534748,
          "velocity": 0.18110236220472442,
          "duration": 0.034883720930224626
        },
        {
          "name": "D#3",
          "midi": 51,
          "time": 46.33720930232422,
          "velocity": 0.48031496062992124,
          "duration": 0.023255813953483084
        },
        {
          "name": "F#4",
          "midi": 66,
          "time": 46.33720930232422,
          "velocity": 0.16535433070866143,
          "duration": 0.04651162790696617
        },
        {
          "name": "F#2",
          "midi": 42,
          "time": 46.34883720930096,
          "velocity": 0.4566929133858268,
          "duration": 0.023255813953483084
        },
        {
          "name": "C#5",
          "midi": 73,
          "time": 46.3604651162777,
          "velocity": 0.15748031496062992,
          "duration": 0.860465116278931
        },
        {
          "name": "E7",
          "midi": 100,
          "time": 46.3604651162777,
          "velocity": 0.18110236220472442,
          "duration": 0.058139534883714816
        },
        {
          "name": "A#3",
          "midi": 58,
          "time": 46.37209302325444,
          "velocity": 0.31496062992125984,
          "duration": 0.03488372093023173
        },
        {
          "name": "F#2",
          "midi": 42,
          "time": 46.383720930231185,
          "velocity": 0.44881889763779526,
          "duration": 0.03488372093023173
        },
        {
          "name": "D#3",
          "midi": 51,
          "time": 46.406976744184675,
          "velocity": 0.48031496062992124,
          "duration": 0.023255813953483084
        },
        {
          "name": "D#7",
          "midi": 99,
          "time": 46.41860465116142,
          "velocity": 0.1732283464566929,
          "duration": 0.04651162790696617
        },
        {
          "name": "A#3",
          "midi": 58,
          "time": 46.43023255813816,
          "velocity": 0.4409448818897638,
          "duration": 0.10465116279067388
        },
        {
          "name": "D#4",
          "midi": 63,
          "time": 46.43023255813816,
          "velocity": 0.3228346456692913,
          "duration": 0.09302325581393234
        },
        {
          "name": "F4",
          "midi": 65,
          "time": 46.43023255813816,
          "velocity": 0.31496062992125984,
          "duration": 0.023255813953483084
        },
        {
          "name": "C6",
          "midi": 84,
          "time": 46.43023255813816,
          "velocity": 0.12598425196850394,
          "duration": 0.34883720930225337
        },
        {
          "name": "F#2",
          "midi": 42,
          "time": 46.4418604651149,
          "velocity": 0.4330708661417323,
          "duration": 0.023255813953483084
        },
        {
          "name": "D#3",
          "midi": 51,
          "time": 46.4418604651149,
          "velocity": 0.4645669291338583,
          "duration": 0.04651162790696617
        },
        {
          "name": "D6",
          "midi": 86,
          "time": 46.4418604651149,
          "velocity": 0.09448818897637795,
          "duration": 0.034883720930224626
        },
        {
          "name": "G#6",
          "midi": 92,
          "time": 46.4418604651149,
          "velocity": 0.2125984251968504,
          "duration": 0.05813953488370771
        },
        {
          "name": "A6",
          "midi": 93,
          "time": 46.45348837209164,
          "velocity": 0.07874015748031496,
          "duration": 0.05813953488370771
        },
        {
          "name": "A#6",
          "midi": 94,
          "time": 46.45348837209164,
          "velocity": 0.25984251968503935,
          "duration": 0.11627906976741542
        },
        {
          "name": "D7",
          "midi": 98,
          "time": 46.45348837209164,
          "velocity": 0.15748031496062992,
          "duration": 0.04651162790696617
        },
        {
          "name": "D#7",
          "midi": 99,
          "time": 46.488372093021866,
          "velocity": 0.1968503937007874,
          "duration": 0.04651162790696617
        },
        {
          "name": "F#2",
          "midi": 42,
          "time": 46.51162790697535,
          "velocity": 0.4409448818897638,
          "duration": 0.034883720930224626
        },
        {
          "name": "C7",
          "midi": 96,
          "time": 46.51162790697535,
          "velocity": 0.3464566929133858,
          "duration": 0.15116279069764005
        },
        {
          "name": "D7",
          "midi": 98,
          "time": 46.52325581395209,
          "velocity": 0.33070866141732286,
          "duration": 0.15116279069764005
        },
        {
          "name": "F7",
          "midi": 101,
          "time": 46.52325581395209,
          "velocity": 0.25984251968503935,
          "duration": 0.12790697674415696
        },
        {
          "name": "F4",
          "midi": 65,
          "time": 46.53488372092883,
          "velocity": 0.30708661417322836,
          "duration": 0.023255813953483084
        },
        {
          "name": "D#4",
          "midi": 63,
          "time": 46.54651162790557,
          "velocity": 0.36220472440944884,
          "duration": 0.18604651162787178
        },
        {
          "name": "E7",
          "midi": 100,
          "time": 46.558139534882315,
          "velocity": 0.2992125984251969,
          "duration": 0.09302325581393234
        },
        {
          "name": "G6",
          "midi": 91,
          "time": 46.56976744185906,
          "velocity": 0.09448818897637795,
          "duration": 0.034883720930224626
        },
        {
          "name": "A6",
          "midi": 93,
          "time": 46.56976744185906,
          "velocity": 0.25196850393700787,
          "duration": 0.04651162790696617
        },
        {
          "name": "B6",
          "midi": 95,
          "time": 46.56976744185906,
          "velocity": 0.2677165354330709,
          "duration": 0.05813953488370771
        },
        {
          "name": "E6",
          "midi": 88,
          "time": 46.5813953488358,
          "velocity": 0.13385826771653545,
          "duration": 0.034883720930224626
        },
        {
          "name": "F#6",
          "midi": 90,
          "time": 46.5813953488358,
          "velocity": 0.1889763779527559,
          "duration": 0.04651162790696617
        },
        {
          "name": "A#6",
          "midi": 94,
          "time": 46.5813953488358,
          "velocity": 0.2992125984251969,
          "duration": 0.05813953488370771
        },
        {
          "name": "C#7",
          "midi": 97,
          "time": 46.5813953488358,
          "velocity": 0.30708661417322836,
          "duration": 0.05813953488370771
        },
        {
          "name": "G7",
          "midi": 103,
          "time": 46.5813953488358,
          "velocity": 0.1732283464566929,
          "duration": 0.06976744186044925
        },
        {
          "name": "G#6",
          "midi": 92,
          "time": 46.59302325581254,
          "velocity": 0.18110236220472442,
          "duration": 0.04651162790696617
        },
        {
          "name": "D#7",
          "midi": 99,
          "time": 46.59302325581254,
          "velocity": 0.2677165354330709,
          "duration": 0.04651162790696617
        },
        {
          "name": "D#3",
          "midi": 51,
          "time": 46.60465116278928,
          "velocity": 0.4251968503937008,
          "duration": 0.04651162790696617
        },
        {
          "name": "F6",
          "midi": 89,
          "time": 46.61627906976602,
          "velocity": 0.1968503937007874,
          "duration": 0.6395348837208346
        },
        {
          "name": "A6",
          "midi": 93,
          "time": 46.627906976742764,
          "velocity": 0.07874015748031496,
          "duration": 0.04651162790696617
        },
        {
          "name": "F#2",
          "midi": 42,
          "time": 46.67441860464973,
          "velocity": 0.41732283464566927,
          "duration": 0.023255813953483084
        },
        {
          "name": "F5",
          "midi": 77,
          "time": 46.68604651162647,
          "velocity": 0.08661417322834646,
          "duration": 0.046511627906973274
        },
        {
          "name": "D#3",
          "midi": 51,
          "time": 46.697674418603214,
          "velocity": 0.4015748031496063,
          "duration": 0.02325581395349019
        },
        {
          "name": "F#2",
          "midi": 42,
          "time": 46.720930232556704,
          "velocity": 0.4015748031496063,
          "duration": 0.023255813953483084
        },
        {
          "name": "F4",
          "midi": 65,
          "time": 46.720930232556704,
          "velocity": 0.4094488188976378,
          "duration": 0.023255813953483084
        },
        {
          "name": "D#5",
          "midi": 75,
          "time": 46.74418604651019,
          "velocity": 0.10236220472440945,
          "duration": 0.11627906976742253
        },
        {
          "name": "G#6",
          "midi": 92,
          "time": 46.74418604651019,
          "velocity": 0.1968503937007874,
          "duration": 0.034883720930224626
        },
        {
          "name": "G3",
          "midi": 55,
          "time": 46.75581395348693,
          "velocity": 0.4094488188976378,
          "duration": 0.023255813953483084
        },
        {
          "name": "D#4",
          "midi": 63,
          "time": 46.75581395348693,
          "velocity": 0.31496062992125984,
          "duration": 0.0813953488371979
        },
        {
          "name": "G#4",
          "midi": 68,
          "time": 46.75581395348693,
          "velocity": 0.5354330708661418,
          "duration": 0.011627906976741542
        },
        {
          "name": "A6",
          "midi": 93,
          "time": 46.75581395348693,
          "velocity": 0.18110236220472442,
          "duration": 0.04651162790696617
        },
        {
          "name": "C7",
          "midi": 96,
          "time": 46.75581395348693,
          "velocity": 0.23622047244094488,
          "duration": 0.11627906976742253
        },
        {
          "name": "D#3",
          "midi": 51,
          "time": 46.76744186046367,
          "velocity": 0.3858267716535433,
          "duration": 0.058139534883714816
        },
        {
          "name": "A4",
          "midi": 69,
          "time": 46.76744186046367,
          "velocity": 0.5433070866141733,
          "duration": 0.034883720930224626
        },
        {
          "name": "C4",
          "midi": 60,
          "time": 46.77906976744041,
          "velocity": 0.25984251968503935,
          "duration": 0.023255813953483084
        },
        {
          "name": "F#4",
          "midi": 66,
          "time": 46.79069767441715,
          "velocity": 0.33070866141732286,
          "duration": 0.058139534883714816
        },
        {
          "name": "A#6",
          "midi": 94,
          "time": 46.79069767441715,
          "velocity": 0.29133858267716534,
          "duration": 0.2441860465115866
        },
        {
          "name": "B3",
          "midi": 59,
          "time": 46.802325581393895,
          "velocity": 0.25984251968503935,
          "duration": 0.02325581395349019
        },
        {
          "name": "A#4",
          "midi": 70,
          "time": 46.802325581393895,
          "velocity": 0.5196850393700787,
          "duration": 0.2209302325581035
        },
        {
          "name": "D7",
          "midi": 98,
          "time": 46.802325581393895,
          "velocity": 0.2125984251968504,
          "duration": 0.09302325581393944
        },
        {
          "name": "D#3",
          "midi": 51,
          "time": 46.837209302324126,
          "velocity": 0.4015748031496063,
          "duration": 0.023255813953483084
        },
        {
          "name": "F#2",
          "midi": 42,
          "time": 46.84883720930087,
          "velocity": 0.3779527559055118,
          "duration": 0.023255813953483084
        },
        {
          "name": "G#4",
          "midi": 68,
          "time": 46.86046511627761,
          "velocity": 0.4094488188976378,
          "duration": 0.023255813953483084
        },
        {
          "name": "G6",
          "midi": 91,
          "time": 46.86046511627761,
          "velocity": 0.10236220472440945,
          "duration": 0.0813953488371908
        },
        {
          "name": "D#3",
          "midi": 51,
          "time": 46.87209302325435,
          "velocity": 0.4015748031496063,
          "duration": 0.04651162790696617
        },
        {
          "name": "F#4",
          "midi": 66,
          "time": 46.88372093023109,
          "velocity": 0.3543307086614173,
          "duration": 0.33720930232554025
        },
        {
          "name": "A3",
          "midi": 57,
          "time": 46.895348837207834,
          "velocity": 0.3858267716535433,
          "duration": 0.023255813953483084
        },
        {
          "name": "G#6",
          "midi": 92,
          "time": 46.906976744184576,
          "velocity": 0.28346456692913385,
          "duration": 0.11627906976742253
        },
        {
          "name": "D7",
          "midi": 98,
          "time": 46.906976744184576,
          "velocity": 0.25984251968503935,
          "duration": 0.1627906976743958
        },
        {
          "name": "A#3",
          "midi": 58,
          "time": 46.91860465116132,
          "velocity": 0.3228346456692913,
          "duration": 0.09302325581393944
        },
        {
          "name": "F5",
          "midi": 77,
          "time": 46.91860465116132,
          "velocity": 0.4251968503937008,
          "duration": 0.11627906976742253
        },
        {
          "name": "C7",
          "midi": 96,
          "time": 46.91860465116132,
          "velocity": 0.25196850393700787,
          "duration": 0.11627906976742253
        },
        {
          "name": "D#3",
          "midi": 51,
          "time": 46.93023255813806,
          "velocity": 0.3700787401574803,
          "duration": 0.058139534883714816
        },
        {
          "name": "D6",
          "midi": 86,
          "time": 46.93023255813806,
          "velocity": 0.08661417322834646,
          "duration": 0.046511627906973274
        },
        {
          "name": "E7",
          "midi": 100,
          "time": 46.9418604651148,
          "velocity": 0.1889763779527559,
          "duration": 0.046511627906973274
        },
        {
          "name": "G2",
          "midi": 43,
          "time": 46.96511627906829,
          "velocity": 0.36220472440944884,
          "duration": 0.023255813953483084
        },
        {
          "name": "D#7",
          "midi": 99,
          "time": 46.98837209302177,
          "velocity": 0.11811023622047244,
          "duration": 0.04651162790696617
        },
        {
          "name": "D#3",
          "midi": 51,
          "time": 46.999999999998515,
          "velocity": 0.36220472440944884,
          "duration": 0.023255813953483084
        },
        {
          "name": "C1",
          "midi": 24,
          "time": 47.01162790697526,
          "velocity": 0.6299212598425197,
          "duration": 0.011627906976741542
        },
        {
          "name": "F#2",
          "midi": 42,
          "time": 47.01162790697526,
          "velocity": 0.3464566929133858,
          "duration": 0.023255813953483084
        },
        {
          "name": "B0",
          "midi": 23,
          "time": 47.023255813952,
          "velocity": 0.6220472440944882,
          "duration": 0.011627906976741542
        },
        {
          "name": "G6",
          "midi": 91,
          "time": 47.023255813952,
          "velocity": 0.09448818897637795,
          "duration": 0.11627906976743674
        },
        {
          "name": "A#0",
          "midi": 22,
          "time": 47.03488372092874,
          "velocity": 0.6220472440944882,
          "duration": 0.011627906976741542
        },
        {
          "name": "A#4",
          "midi": 70,
          "time": 47.03488372092874,
          "velocity": 0.4094488188976378,
          "duration": 0.22093023255811772
        },
        {
          "name": "B0",
          "midi": 23,
          "time": 47.04651162790548,
          "velocity": 0.6299212598425197,
          "duration": 0.17441860465115155
        },
        {
          "name": "F#2",
          "midi": 42,
          "time": 47.04651162790548,
          "velocity": 0.3228346456692913,
          "duration": 0.02325581395349019
        },
        {
          "name": "E7",
          "midi": 100,
          "time": 47.116279069765945,
          "velocity": 0.11811023622047244,
          "duration": 0.03488372093023173
        },
        {
          "name": "F5",
          "midi": 77,
          "time": 47.18604651162641,
          "velocity": 0.14173228346456693,
          "duration": 0.04651162790696617
        },
        {
          "name": "A#3",
          "midi": 58,
          "time": 47.19767441860315,
          "velocity": 0.5433070866141733,
          "duration": 0.0813953488371908
        },
        {
          "name": "B6",
          "midi": 95,
          "time": 47.20930232557989,
          "velocity": 0.29133858267716534,
          "duration": 0.06976744186044925
        },
        {
          "name": "D7",
          "midi": 98,
          "time": 47.20930232557989,
          "velocity": 0.33858267716535434,
          "duration": 0.20930232558136908
        },
        {
          "name": "E7",
          "midi": 100,
          "time": 47.20930232557989,
          "velocity": 0.2283464566929134,
          "duration": 0.0813953488371908
        },
        {
          "name": "C1",
          "midi": 24,
          "time": 47.22093023255663,
          "velocity": 0.5826771653543307,
          "duration": 0.011627906976741542
        },
        {
          "name": "A5",
          "midi": 81,
          "time": 47.22093023255663,
          "velocity": 0.08661417322834646,
          "duration": 0.05813953488370771
        },
        {
          "name": "D6",
          "midi": 86,
          "time": 47.22093023255663,
          "velocity": 0.08661417322834646,
          "duration": 0.034883720930224626
        },
        {
          "name": "E6",
          "midi": 88,
          "time": 47.22093023255663,
          "velocity": 0.14960629921259844,
          "duration": 0.034883720930224626
        },
        {
          "name": "F#6",
          "midi": 90,
          "time": 47.22093023255663,
          "velocity": 0.15748031496062992,
          "duration": 0.04651162790696617
        },
        {
          "name": "A6",
          "midi": 93,
          "time": 47.22093023255663,
          "velocity": 0.29133858267716534,
          "duration": 0.04651162790696617
        },
        {
          "name": "A#6",
          "midi": 94,
          "time": 47.22093023255663,
          "velocity": 0.3228346456692913,
          "duration": 0.06976744186044925
        },
        {
          "name": "C7",
          "midi": 96,
          "time": 47.22093023255663,
          "velocity": 0.28346456692913385,
          "duration": 0.0813953488371908
        },
        {
          "name": "C#7",
          "midi": 97,
          "time": 47.22093023255663,
          "velocity": 0.31496062992125984,
          "duration": 0.0813953488371908
        },
        {
          "name": "D#7",
          "midi": 99,
          "time": 47.22093023255663,
          "velocity": 0.2755905511811024,
          "duration": 0.05813953488370771
        },
        {
          "name": "F7",
          "midi": 101,
          "time": 47.22093023255663,
          "velocity": 0.25984251968503935,
          "duration": 0.05813953488370771
        },
        {
          "name": "B0",
          "midi": 23,
          "time": 47.232558139533374,
          "velocity": 0.5826771653543307,
          "duration": 0.06976744186044925
        },
        {
          "name": "F3",
          "midi": 53,
          "time": 47.232558139533374,
          "velocity": 0.33858267716535434,
          "duration": 0.186046511627886
        },
        {
          "name": "F#7",
          "midi": 102,
          "time": 47.232558139533374,
          "velocity": 0.2047244094488189,
          "duration": 0.034883720930224626
        },
        {
          "name": "F#4",
          "midi": 66,
          "time": 47.244186046510116,
          "velocity": 0.28346456692913385,
          "duration": 0.023255813953483084
        },
        {
          "name": "G7",
          "midi": 103,
          "time": 47.244186046510116,
          "velocity": 0.08661417322834646,
          "duration": 0.04651162790696617
        },
        {
          "name": "G#6",
          "midi": 92,
          "time": 47.25581395348686,
          "velocity": 0.23622047244094488,
          "duration": 0.023255813953483084
        },
        {
          "name": "B3",
          "midi": 59,
          "time": 47.27906976744034,
          "velocity": 0.41732283464566927,
          "duration": 0.023255813953483084
        },
        {
          "name": "G#4",
          "midi": 68,
          "time": 47.27906976744034,
          "velocity": 0.2755905511811024,
          "duration": 0.09302325581394655
        },
        {
          "name": "A#4",
          "midi": 70,
          "time": 47.27906976744034,
          "velocity": 0.3858267716535433,
          "duration": 0.10465116279068809
        },
        {
          "name": "F5",
          "midi": 77,
          "time": 47.27906976744034,
          "velocity": 0.12598425196850394,
          "duration": 0.06976744186045636
        },
        {
          "name": "D#6",
          "midi": 87,
          "time": 47.29069767441708,
          "velocity": 0.13385826771653545,
          "duration": 0.3488372093023102
        },
        {
          "name": "C1",
          "midi": 24,
          "time": 47.30232558139382,
          "velocity": 0.5748031496062992,
          "duration": 0.011627906976741542
        },
        {
          "name": "A#3",
          "midi": 58,
          "time": 47.30232558139382,
          "velocity": 0.41732283464566927,
          "duration": 0.081395348837205
        },
        {
          "name": "B0",
          "midi": 23,
          "time": 47.313953488370565,
          "velocity": 0.5669291338582677,
          "duration": 0.44186046511625676
        },
        {
          "name": "C5",
          "midi": 72,
          "time": 47.313953488370565,
          "velocity": 0.13385826771653545,
          "duration": 0.03488372093023173
        },
        {
          "name": "C7",
          "midi": 96,
          "time": 47.32558139534731,
          "velocity": 0.10236220472440945,
          "duration": 0.05813953488372192
        },
        {
          "name": "A3",
          "midi": 57,
          "time": 47.38372093023103,
          "velocity": 0.36220472440944884,
          "duration": 0.046511627906973274
        },
        {
          "name": "A4",
          "midi": 69,
          "time": 47.38372093023103,
          "velocity": 0.41732283464566927,
          "duration": 0.058139534883714816
        },
        {
          "name": "C5",
          "midi": 72,
          "time": 47.38372093023103,
          "velocity": 0.11023622047244094,
          "duration": 0.046511627906973274
        },
        {
          "name": "C#7",
          "midi": 97,
          "time": 47.38372093023103,
          "velocity": 0.13385826771653545,
          "duration": 0.058139534883714816
        },
        {
          "name": "A#3",
          "midi": 58,
          "time": 47.430232558138,
          "velocity": 0.36220472440944884,
          "duration": 0.046511627906973274
        },
        {
          "name": "G#4",
          "midi": 68,
          "time": 47.430232558138,
          "velocity": 0.2992125984251969,
          "duration": 0.23255813953487348
        },
        {
          "name": "C#5",
          "midi": 73,
          "time": 47.44186046511474,
          "velocity": 0.4251968503937008,
          "duration": 0.30232558139533694
        },
        {
          "name": "F#3",
          "midi": 54,
          "time": 47.453488372091485,
          "velocity": 0.2992125984251969,
          "duration": 0.02325581395349019
        },
        {
          "name": "F#3",
          "midi": 54,
          "time": 47.48837209302172,
          "velocity": 0.30708661417322836,
          "duration": 0.15116279069767558
        },
        {
          "name": "A#3",
          "midi": 58,
          "time": 47.48837209302172,
          "velocity": 0.2125984251968504,
          "duration": 0.03488372093023173
        },
        {
          "name": "D4",
          "midi": 62,
          "time": 47.54651162790544,
          "velocity": 0.2440944881889764,
          "duration": 0.02325581395349019
        },
        {
          "name": "F6",
          "midi": 89,
          "time": 47.58139534883567,
          "velocity": 0.3464566929133858,
          "duration": 0.081395348837205
        },
        {
          "name": "D#5",
          "midi": 75,
          "time": 47.651162790696134,
          "velocity": 0.14173228346456693,
          "duration": 0.058139534883714816
        },
        {
          "name": "C6",
          "midi": 84,
          "time": 47.651162790696134,
          "velocity": 0.13385826771653545,
          "duration": 0.11627906976742963
        },
        {
          "name": "G#3",
          "midi": 56,
          "time": 47.662790697672875,
          "velocity": 0.3464566929133858,
          "duration": 0.046511627906973274
        },
        {
          "name": "F6",
          "midi": 89,
          "time": 47.67441860464962,
          "velocity": 0.25196850393700787,
          "duration": 0.19767441860462753
        },
        {
          "name": "A4",
          "midi": 69,
          "time": 47.69767441860311,
          "velocity": 0.29133858267716534,
          "duration": 0.023255813953483084
        },
        {
          "name": "A#4",
          "midi": 70,
          "time": 47.70930232557985,
          "velocity": 0.2992125984251969,
          "duration": 0.3720930232557791
        },
        {
          "name": "G#3",
          "midi": 56,
          "time": 47.72093023255659,
          "velocity": 0.33858267716535434,
          "duration": 0.12790697674417117
        },
        {
          "name": "D#5",
          "midi": 75,
          "time": 47.74418604651008,
          "velocity": 0.2047244094488189,
          "duration": 0.12790697674416407
        },
        {
          "name": "B0",
          "midi": 23,
          "time": 47.76744186046356,
          "velocity": 0.36220472440944884,
          "duration": 0.06976744186045636
        },
        {
          "name": "E4",
          "midi": 64,
          "time": 47.779069767440305,
          "velocity": 0.1889763779527559,
          "duration": 0.046511627906973274
        },
        {
          "name": "C1",
          "midi": 24,
          "time": 47.83720930232402,
          "velocity": 0.29133858267716534,
          "duration": 0.023255813953483084
        },
        {
          "name": "B0",
          "midi": 23,
          "time": 47.8604651162775,
          "velocity": 0.25196850393700787,
          "duration": 0.023255813953483084
        },
        {
          "name": "F4",
          "midi": 65,
          "time": 47.8604651162775,
          "velocity": 0.13385826771653545,
          "duration": 0.034883720930224626
        },
        {
          "name": "C#5",
          "midi": 73,
          "time": 47.8604651162775,
          "velocity": 0.12598425196850394,
          "duration": 0.09302325581394655
        },
        {
          "name": "A#3",
          "midi": 58,
          "time": 47.872093023254244,
          "velocity": 0.4881889763779528,
          "duration": 0.267441860465091
        },
        {
          "name": "F5",
          "midi": 77,
          "time": 47.872093023254244,
          "velocity": 0.3937007874015748,
          "duration": 0.5116279069766989
        },
        {
          "name": "D4",
          "midi": 62,
          "time": 47.96511627906819,
          "velocity": 0.25984251968503935,
          "duration": 0.02325581395349019
        },
        {
          "name": "D5",
          "midi": 74,
          "time": 47.96511627906819,
          "velocity": 0.4015748031496063,
          "duration": 0.03488372093023173
        },
        {
          "name": "C#5",
          "midi": 73,
          "time": 47.99999999999842,
          "velocity": 0.30708661417322836,
          "duration": 0.06976744186046346
        },
        {
          "name": "C#4",
          "midi": 61,
          "time": 48.034883720928654,
          "velocity": 0.23622047244094488,
          "duration": 0.02325581395349019
        },
        {
          "name": "G1",
          "midi": 31,
          "time": 48.069767441858886,
          "velocity": 0.5196850393700787,
          "duration": 0.011627906976741542
        },
        {
          "name": "F#1",
          "midi": 30,
          "time": 48.08139534883563,
          "velocity": 0.6692913385826772,
          "duration": 0.011627906976741542
        },
        {
          "name": "G#4",
          "midi": 68,
          "time": 48.08139534883563,
          "velocity": 0.3464566929133858,
          "duration": 0.9999999999998792
        },
        {
          "name": "G5",
          "midi": 79,
          "time": 48.08139534883563,
          "velocity": 0.11811023622047244,
          "duration": 0.034883720930224626
        },
        {
          "name": "D#6",
          "midi": 87,
          "time": 48.08139534883563,
          "velocity": 0.33858267716535434,
          "duration": 1.0232558139533623
        },
        {
          "name": "F1",
          "midi": 29,
          "time": 48.09302325581237,
          "velocity": 0.7165354330708661,
          "duration": 0.011627906976741542
        },
        {
          "name": "D#4",
          "midi": 63,
          "time": 48.09302325581237,
          "velocity": 0.2677165354330709,
          "duration": 0.11627906976742963
        },
        {
          "name": "C#5",
          "midi": 73,
          "time": 48.09302325581237,
          "velocity": 0.4330708661417323,
          "duration": 0.1860465116278931
        },
        {
          "name": "E1",
          "midi": 28,
          "time": 48.10465116278911,
          "velocity": 0.7165354330708661,
          "duration": 0.011627906976741542
        },
        {
          "name": "D#1",
          "midi": 27,
          "time": 48.11627906976585,
          "velocity": 0.7480314960629921,
          "duration": 1.2325581395347172
        },
        {
          "name": "G3",
          "midi": 55,
          "time": 48.127906976742594,
          "velocity": 0.5118110236220472,
          "duration": 0.7674418604650484
        },
        {
          "name": "A#2",
          "midi": 46,
          "time": 48.15116279069608,
          "velocity": 0.4409448818897638,
          "duration": 0.22093023255812483
        },
        {
          "name": "D#4",
          "midi": 63,
          "time": 48.22093023255654,
          "velocity": 0.14173228346456693,
          "duration": 0.09302325581394655
        },
        {
          "name": "A#4",
          "midi": 70,
          "time": 48.23255813953328,
          "velocity": 0.2125984251968504,
          "duration": 0.04651162790698038
        },
        {
          "name": "C7",
          "midi": 96,
          "time": 48.25581395348677,
          "velocity": 0.10236220472440945,
          "duration": 0.03488372093023173
        },
        {
          "name": "B5",
          "midi": 83,
          "time": 48.290697674417004,
          "velocity": 0.07086614173228346,
          "duration": 0.034883720930224626
        },
        {
          "name": "A#4",
          "midi": 70,
          "time": 48.302325581393745,
          "velocity": 0.23622047244094488,
          "duration": 0.034883720930224626
        },
        {
          "name": "B4",
          "midi": 71,
          "time": 48.33720930232397,
          "velocity": 0.36220472440944884,
          "duration": 0.12790697674417828
        },
        {
          "name": "A#2",
          "midi": 46,
          "time": 48.38372093023094,
          "velocity": 0.4330708661417323,
          "duration": 0.09302325581394655
        },
        {
          "name": "F#5",
          "midi": 78,
          "time": 48.38372093023094,
          "velocity": 0.2047244094488189,
          "duration": 0.081395348837205
        },
        {
          "name": "F6",
          "midi": 89,
          "time": 48.43023255813792,
          "velocity": 0.09448818897637795,
          "duration": 0.046511627906973274
        },
        {
          "name": "F5",
          "midi": 77,
          "time": 48.44186046511466,
          "velocity": 0.13385826771653545,
          "duration": 0.36046511627904465
        },
        {
          "name": "G5",
          "midi": 79,
          "time": 48.44186046511466,
          "velocity": 0.08661417322834646,
          "duration": 0.03488372093023173
        },
        {
          "name": "C#5",
          "midi": 73,
          "time": 48.46511627906815,
          "velocity": 0.31496062992125984,
          "duration": 0.081395348837205
        },
        {
          "name": "A#2",
          "midi": 46,
          "time": 48.51162790697512,
          "velocity": 0.4094488188976378,
          "duration": 0.03488372093023173
        },
        {
          "name": "B4",
          "midi": 71,
          "time": 48.51162790697512,
          "velocity": 0.3858267716535433,
          "duration": 0.30232558139532273
        },
        {
          "name": "F6",
          "midi": 89,
          "time": 48.51162790697512,
          "velocity": 0.14173228346456693,
          "duration": 0.058139534883714816
        },
        {
          "name": "D6",
          "midi": 86,
          "time": 48.54651162790535,
          "velocity": 0.08661417322834646,
          "duration": 0.11627906976742963
        },
        {
          "name": "C7",
          "midi": 96,
          "time": 48.54651162790535,
          "velocity": 0.07086614173228346,
          "duration": 0.034883720930224626
        },
        {
          "name": "A#2",
          "midi": 46,
          "time": 48.558139534882095,
          "velocity": 0.3779527559055118,
          "duration": 0.023255813953483084
        },
        {
          "name": "C#5",
          "midi": 73,
          "time": 48.569767441858836,
          "velocity": 0.3779527559055118,
          "duration": 0.11627906976742963
        },
        {
          "name": "A#2",
          "midi": 46,
          "time": 48.61627906976581,
          "velocity": 0.4094488188976378,
          "duration": 0.058139534883714816
        },
        {
          "name": "A#2",
          "midi": 46,
          "time": 48.686046511626266,
          "velocity": 0.3779527559055118,
          "duration": 0.046511627906973274
        },
        {
          "name": "A#2",
          "midi": 46,
          "time": 48.74418604650998,
          "velocity": 0.3779527559055118,
          "duration": 0.05813953488372192
        },
        {
          "name": "A#2",
          "midi": 46,
          "time": 48.813953488370444,
          "velocity": 0.3464566929133858,
          "duration": 0.023255813953483084
        },
        {
          "name": "F5",
          "midi": 77,
          "time": 48.825581395347186,
          "velocity": 0.13385826771653545,
          "duration": 0.2674418604650626
        },
        {
          "name": "A#3",
          "midi": 58,
          "time": 48.86046511627742,
          "velocity": 0.2992125984251969,
          "duration": 0.023255813953483084
        },
        {
          "name": "D4",
          "midi": 62,
          "time": 48.86046511627742,
          "velocity": 0.25196850393700787,
          "duration": 0.023255813953483084
        },
        {
          "name": "A#2",
          "midi": 46,
          "time": 48.87209302325416,
          "velocity": 0.3464566929133858,
          "duration": 0.034883720930224626
        },
        {
          "name": "D7",
          "midi": 98,
          "time": 48.87209302325416,
          "velocity": 0.2283464566929134,
          "duration": 0.034883720930224626
        },
        {
          "name": "C#4",
          "midi": 61,
          "time": 48.8837209302309,
          "velocity": 0.3779527559055118,
          "duration": 0.17441860465112313
        },
        {
          "name": "F6",
          "midi": 89,
          "time": 48.8837209302309,
          "velocity": 0.14960629921259844,
          "duration": 0.0813953488371908
        },
        {
          "name": "C#7",
          "midi": 97,
          "time": 48.8837209302309,
          "velocity": 0.4566929133858268,
          "duration": 0.2558139534883139
        },
        {
          "name": "C#5",
          "midi": 73,
          "time": 48.89534883720764,
          "velocity": 0.48031496062992124,
          "duration": 0.1395348837208985
        },
        {
          "name": "B6",
          "midi": 95,
          "time": 48.89534883720764,
          "velocity": 0.2677165354330709,
          "duration": 0.15116279069764005
        },
        {
          "name": "G3",
          "midi": 55,
          "time": 48.906976744184384,
          "velocity": 0.33070866141732286,
          "duration": 0.06976744186044925
        },
        {
          "name": "F7",
          "midi": 101,
          "time": 48.906976744184384,
          "velocity": 0.29133858267716534,
          "duration": 0.11627906976741542
        },
        {
          "name": "G7",
          "midi": 103,
          "time": 48.906976744184384,
          "velocity": 0.2204724409448819,
          "duration": 0.10465116279067388
        },
        {
          "name": "A#4",
          "midi": 70,
          "time": 48.918604651161125,
          "velocity": 0.3858267716535433,
          "duration": 0.29069767441853855
        },
        {
          "name": "A#6",
          "midi": 94,
          "time": 48.93023255813787,
          "velocity": 0.33070866141732286,
          "duration": 0.06976744186044925
        },
        {
          "name": "D7",
          "midi": 98,
          "time": 48.93023255813787,
          "velocity": 0.31496062992125984,
          "duration": 0.05813953488370771
        },
        {
          "name": "E7",
          "midi": 100,
          "time": 48.93023255813787,
          "velocity": 0.2204724409448819,
          "duration": 0.034883720930224626
        },
        {
          "name": "A#2",
          "midi": 46,
          "time": 48.94186046511461,
          "velocity": 0.31496062992125984,
          "duration": 0.023255813953483084
        },
        {
          "name": "D6",
          "midi": 86,
          "time": 48.94186046511461,
          "velocity": 0.12598425196850394,
          "duration": 0.034883720930224626
        },
        {
          "name": "F#6",
          "midi": 90,
          "time": 48.94186046511461,
          "velocity": 0.15748031496062992,
          "duration": 0.04651162790696617
        },
        {
          "name": "A6",
          "midi": 93,
          "time": 48.94186046511461,
          "velocity": 0.29133858267716534,
          "duration": 0.023255813953483084
        },
        {
          "name": "F#7",
          "midi": 102,
          "time": 48.94186046511461,
          "velocity": 0.2125984251968504,
          "duration": 0.034883720930224626
        },
        {
          "name": "G5",
          "midi": 79,
          "time": 48.95348837209135,
          "velocity": 0.07086614173228346,
          "duration": 0.06976744186044925
        },
        {
          "name": "C7",
          "midi": 96,
          "time": 48.95348837209135,
          "velocity": 0.29133858267716534,
          "duration": 0.1395348837208985
        },
        {
          "name": "F6",
          "midi": 89,
          "time": 48.97674418604483,
          "velocity": 0.36220472440944884,
          "duration": 0.11627906976741542
        },
        {
          "name": "E7",
          "midi": 100,
          "time": 48.97674418604483,
          "velocity": 0.2440944881889764,
          "duration": 0.034883720930224626
        },
        {
          "name": "A#3",
          "midi": 58,
          "time": 48.988372093021574,
          "velocity": 0.2677165354330709,
          "duration": 0.034883720930224626
        },
        {
          "name": "A#2",
          "midi": 46,
          "time": 48.999999999998316,
          "velocity": 0.3228346456692913,
          "duration": 0.034883720930224626
        },
        {
          "name": "G3",
          "midi": 55,
          "time": 49.03488372092854,
          "velocity": 0.25984251968503935,
          "duration": 0.023255813953483084
        },
        {
          "name": "D5",
          "midi": 74,
          "time": 49.03488372092854,
          "velocity": 0.4330708661417323,
          "duration": 0.023255813953483084
        },
        {
          "name": "D#3",
          "midi": 51,
          "time": 49.04651162790528,
          "velocity": 0.31496062992125984,
          "duration": 0.05813953488370771
        },
        {
          "name": "A#3",
          "midi": 58,
          "time": 49.04651162790528,
          "velocity": 0.33070866141732286,
          "duration": 0.11627906976741542
        },
        {
          "name": "A#6",
          "midi": 94,
          "time": 49.04651162790528,
          "velocity": 0.09448818897637795,
          "duration": 0.034883720930224626
        },
        {
          "name": "A#2",
          "midi": 46,
          "time": 49.069767441858765,
          "velocity": 0.2755905511811024,
          "duration": 0.023255813953483084
        },
        {
          "name": "E5",
          "midi": 76,
          "time": 49.08139534883551,
          "velocity": 0.2047244094488189,
          "duration": 0.04651162790696617
        },
        {
          "name": "F#6",
          "midi": 90,
          "time": 49.08139534883551,
          "velocity": 0.2125984251968504,
          "duration": 0.12790697674415696
        },
        {
          "name": "G6",
          "midi": 91,
          "time": 49.08139534883551,
          "velocity": 0.2047244094488189,
          "duration": 0.06976744186044925
        },
        {
          "name": "G#4",
          "midi": 68,
          "time": 49.09302325581225,
          "velocity": 0.3228346456692913,
          "duration": 0.1395348837208985
        },
        {
          "name": "G5",
          "midi": 79,
          "time": 49.10465116278899,
          "velocity": 0.4015748031496063,
          "duration": 0.04651162790696617
        },
        {
          "name": "F6",
          "midi": 89,
          "time": 49.10465116278899,
          "velocity": 0.13385826771653545,
          "duration": 0.06976744186044925
        },
        {
          "name": "D#3",
          "midi": 51,
          "time": 49.11627906976573,
          "velocity": 0.41732283464566927,
          "duration": 0.25581395348832103
        },
        {
          "name": "D#6",
          "midi": 87,
          "time": 49.12790697674247,
          "velocity": 0.25196850393700787,
          "duration": 0.1395348837208985
        },
        {
          "name": "D#5",
          "midi": 75,
          "time": 49.139534883719215,
          "velocity": 0.31496062992125984,
          "duration": 0.09302325581393234
        },
        {
          "name": "F#5",
          "midi": 78,
          "time": 49.151162790695956,
          "velocity": 0.36220472440944884,
          "duration": 0.05813953488370771
        },
        {
          "name": "B5",
          "midi": 83,
          "time": 49.151162790695956,
          "velocity": 0.10236220472440945,
          "duration": 0.034883720930224626
        },
        {
          "name": "C7",
          "midi": 96,
          "time": 49.1627906976727,
          "velocity": 0.12598425196850394,
          "duration": 0.05813953488370771
        },
        {
          "name": "A#3",
          "midi": 58,
          "time": 49.17441860464944,
          "velocity": 0.3464566929133858,
          "duration": 0.05813953488370771
        },
        {
          "name": "E6",
          "midi": 88,
          "time": 49.17441860464944,
          "velocity": 0.2677165354330709,
          "duration": 0.034883720930224626
        },
        {
          "name": "F5",
          "midi": 77,
          "time": 49.19767441860292,
          "velocity": 0.12598425196850394,
          "duration": 0.0813953488371908
        },
        {
          "name": "B4",
          "midi": 71,
          "time": 49.209302325579664,
          "velocity": 0.2755905511811024,
          "duration": 0.023255813953483084
        },
        {
          "name": "A#4",
          "midi": 70,
          "time": 49.23255813953315,
          "velocity": 0.36220472440944884,
          "duration": 0.04651162790696617
        },
        {
          "name": "B5",
          "midi": 83,
          "time": 49.23255813953315,
          "velocity": 0.1889763779527559,
          "duration": 0.1627906976743887
        },
        {
          "name": "C#7",
          "midi": 97,
          "time": 49.23255813953315,
          "velocity": 0.07874015748031496,
          "duration": 0.034883720930224626
        },
        {
          "name": "A#3",
          "midi": 58,
          "time": 49.24418604650989,
          "velocity": 0.3858267716535433,
          "duration": 0.034883720930224626
        },
        {
          "name": "F#4",
          "midi": 66,
          "time": 49.24418604650989,
          "velocity": 0.3858267716535433,
          "duration": 0.034883720930224626
        },
        {
          "name": "G5",
          "midi": 79,
          "time": 49.25581395348663,
          "velocity": 0.11023622047244094,
          "duration": 0.034883720930224626
        },
        {
          "name": "G#4",
          "midi": 68,
          "time": 49.26744186046337,
          "velocity": 0.3464566929133858,
          "duration": 0.09302325581393944
        },
        {
          "name": "C#6",
          "midi": 85,
          "time": 49.26744186046337,
          "velocity": 0.14173228346456693,
          "duration": 0.034883720930224626
        },
        {
          "name": "B3",
          "midi": 59,
          "time": 49.27906976744011,
          "velocity": 0.2677165354330709,
          "duration": 0.023255813953483084
        },
        {
          "name": "B4",
          "midi": 71,
          "time": 49.27906976744011,
          "velocity": 0.4881889763779528,
          "duration": 0.09302325581393944
        },
        {
          "name": "F#5",
          "midi": 78,
          "time": 49.27906976744011,
          "velocity": 0.1889763779527559,
          "duration": 0.1395348837209056
        },
        {
          "name": "D#6",
          "midi": 87,
          "time": 49.27906976744011,
          "velocity": 0.16535433070866143,
          "duration": 0.1395348837209056
        },
        {
          "name": "F#6",
          "midi": 90,
          "time": 49.27906976744011,
          "velocity": 0.3464566929133858,
          "duration": 0.12790697674416407
        },
        {
          "name": "A6",
          "midi": 93,
          "time": 49.290697674416855,
          "velocity": 0.33858267716535434,
          "duration": 0.11627906976742253
        },
        {
          "name": "C#7",
          "midi": 97,
          "time": 49.290697674416855,
          "velocity": 0.1732283464566929,
          "duration": 0.11627906976742253
        },
        {
          "name": "A#3",
          "midi": 58,
          "time": 49.31395348837034,
          "velocity": 0.4094488188976378,
          "duration": 0.02325581395349019
        },
        {
          "name": "B3",
          "midi": 59,
          "time": 49.33720930232383,
          "velocity": 0.4094488188976378,
          "duration": 0.034883720930224626
        },
        {
          "name": "C#1",
          "midi": 25,
          "time": 49.34883720930057,
          "velocity": 0.5275590551181102,
          "duration": 0.011627906976741542
        },
        {
          "name": "B0",
          "midi": 23,
          "time": 49.36046511627731,
          "velocity": 0.5984251968503937,
          "duration": 0.011627906976741542
        },
        {
          "name": "F#4",
          "midi": 66,
          "time": 49.36046511627731,
          "velocity": 0.2047244094488189,
          "duration": 0.4534883720929841
        },
        {
          "name": "A#4",
          "midi": 70,
          "time": 49.36046511627731,
          "velocity": 0.4881889763779528,
          "duration": 0.04651162790696617
        },
        {
          "name": "F6",
          "midi": 89,
          "time": 49.36046511627731,
          "velocity": 0.1968503937007874,
          "duration": 0.267441860465091
        },
        {
          "name": "D7",
          "midi": 98,
          "time": 49.36046511627731,
          "velocity": 0.08661417322834646,
          "duration": 0.0813953488371979
        },
        {
          "name": "C#1",
          "midi": 25,
          "time": 49.37209302325405,
          "velocity": 0.6692913385826772,
          "duration": 0.011627906976741542
        },
        {
          "name": "F3",
          "midi": 53,
          "time": 49.37209302325405,
          "velocity": 0.47244094488188976,
          "duration": 0.023255813953483084
        },
        {
          "name": "C#5",
          "midi": 73,
          "time": 49.37209302325405,
          "velocity": 0.2047244094488189,
          "duration": 0.4534883720929841
        },
        {
          "name": "D1",
          "midi": 26,
          "time": 49.383720930230794,
          "velocity": 0.7007874015748031,
          "duration": 0.011627906976741542
        },
        {
          "name": "C1",
          "midi": 24,
          "time": 49.395348837207536,
          "velocity": 0.6929133858267716,
          "duration": 0.011627906976741542
        },
        {
          "name": "B0",
          "midi": 23,
          "time": 49.40697674418428,
          "velocity": 0.7322834645669292,
          "duration": 1.8953488372090774
        },
        {
          "name": "G6",
          "midi": 91,
          "time": 49.40697674418428,
          "velocity": 0.07086614173228346,
          "duration": 0.11627906976743674
        },
        {
          "name": "A#4",
          "midi": 70,
          "time": 49.41860465116102,
          "velocity": 0.5039370078740157,
          "duration": 0.27906976744183964
        },
        {
          "name": "F#2",
          "midi": 42,
          "time": 49.45348837209125,
          "velocity": 0.4330708661417323,
          "duration": 0.02325581395349019
        },
        {
          "name": "D#3",
          "midi": 51,
          "time": 49.45348837209125,
          "velocity": 0.5196850393700787,
          "duration": 0.41860465116275236
        },
        {
          "name": "G2",
          "midi": 43,
          "time": 49.48837209302148,
          "velocity": 0.44881889763779526,
          "duration": 0.02325581395349019
        },
        {
          "name": "A#3",
          "midi": 58,
          "time": 49.48837209302148,
          "velocity": 0.3937007874015748,
          "duration": 0.03488372093023173
        },
        {
          "name": "F5",
          "midi": 77,
          "time": 49.48837209302148,
          "velocity": 0.14960629921259844,
          "duration": 0.046511627906973274
        },
        {
          "name": "D6",
          "midi": 86,
          "time": 49.48837209302148,
          "velocity": 0.3779527559055118,
          "duration": 0.17441860465114445
        },
        {
          "name": "F#2",
          "midi": 42,
          "time": 49.534883720928455,
          "velocity": 0.44881889763779526,
          "duration": 0.02325581395349019
        },
        {
          "name": "A#3",
          "midi": 58,
          "time": 49.534883720928455,
          "velocity": 0.29133858267716534,
          "duration": 0.03488372093023173
        },
        {
          "name": "A#3",
          "midi": 58,
          "time": 49.59302325581218,
          "velocity": 0.4094488188976378,
          "duration": 0.12790697674416407
        },
        {
          "name": "F5",
          "midi": 77,
          "time": 49.60465116278892,
          "velocity": 0.07086614173228346,
          "duration": 0.04651162790696617
        },
        {
          "name": "F#2",
          "midi": 42,
          "time": 49.61627906976566,
          "velocity": 0.4409448818897638,
          "duration": 0.023255813953483084
        },
        {
          "name": "F#2",
          "midi": 42,
          "time": 49.651162790695885,
          "velocity": 0.4566929133858268,
          "duration": 0.023255813953483084
        },
        {
          "name": "F6",
          "midi": 89,
          "time": 49.651162790695885,
          "velocity": 0.13385826771653545,
          "duration": 0.1860465116278931
        },
        {
          "name": "F#2",
          "midi": 42,
          "time": 49.69767441860286,
          "velocity": 0.4566929133858268,
          "duration": 0.023255813953483084
        },
        {
          "name": "B4",
          "midi": 71,
          "time": 49.69767441860286,
          "velocity": 0.30708661417322836,
          "duration": 0.034883720930224626
        },
        {
          "name": "D#6",
          "midi": 87,
          "time": 49.7093023255796,
          "velocity": 0.3464566929133858,
          "duration": 0.11627906976743674
        },
        {
          "name": "B3",
          "midi": 59,
          "time": 49.72093023255634,
          "velocity": 0.4566929133858268,
          "duration": 0.11627906976743674
        },
        {
          "name": "A#5",
          "midi": 82,
          "time": 49.72093023255634,
          "velocity": 0.2047244094488189,
          "duration": 0.20930232558137618
        },
        {
          "name": "B5",
          "midi": 83,
          "time": 49.73255813953308,
          "velocity": 0.1732283464566929,
          "duration": 0.08139534883721211
        },
        {
          "name": "F#6",
          "midi": 90,
          "time": 49.73255813953308,
          "velocity": 0.3464566929133858,
          "duration": 0.11627906976743674
        },
        {
          "name": "C#7",
          "midi": 97,
          "time": 49.75581395348657,
          "velocity": 0.18110236220472442,
          "duration": 0.06976744186046346
        },
        {
          "name": "F#2",
          "midi": 42,
          "time": 49.77906976744006,
          "velocity": 0.4409448818897638,
          "duration": 0.02325581395349019
        },
        {
          "name": "A6",
          "midi": 93,
          "time": 49.77906976744006,
          "velocity": 0.09448818897637795,
          "duration": 0.046511627906973274
        },
        {
          "name": "F#2",
          "midi": 42,
          "time": 49.813953488370295,
          "velocity": 0.44881889763779526,
          "duration": 0.023255813953483084
        },
        {
          "name": "A#4",
          "midi": 70,
          "time": 49.813953488370295,
          "velocity": 0.4409448818897638,
          "duration": 1.1395348837207635
        },
        {
          "name": "G#6",
          "midi": 92,
          "time": 49.82558139534704,
          "velocity": 0.1968503937007874,
          "duration": 0.034883720930224626
        },
        {
          "name": "A#3",
          "midi": 58,
          "time": 49.83720930232378,
          "velocity": 0.3858267716535433,
          "duration": 0.0813953488371979
        },
        {
          "name": "C#5",
          "midi": 73,
          "time": 49.83720930232378,
          "velocity": 0.12598425196850394,
          "duration": 0.29069767441855277
        },
        {
          "name": "A#6",
          "midi": 94,
          "time": 49.83720930232378,
          "velocity": 0.2125984251968504,
          "duration": 0.04651162790696617
        },
        {
          "name": "D7",
          "midi": 98,
          "time": 49.83720930232378,
          "velocity": 0.25196850393700787,
          "duration": 0.11627906976742253
        },
        {
          "name": "C6",
          "midi": 84,
          "time": 49.84883720930052,
          "velocity": 0.10236220472440945,
          "duration": 0.20930232558136197
        },
        {
          "name": "C7",
          "midi": 96,
          "time": 49.84883720930052,
          "velocity": 0.15748031496062992,
          "duration": 0.058139534883714816
        },
        {
          "name": "F6",
          "midi": 89,
          "time": 49.86046511627726,
          "velocity": 0.25196850393700787,
          "duration": 0.29069767441855277
        },
        {
          "name": "F#7",
          "midi": 102,
          "time": 49.86046511627726,
          "velocity": 0.14960629921259844,
          "duration": 0.046511627906973274
        },
        {
          "name": "D#3",
          "midi": 51,
          "time": 49.883720930230744,
          "velocity": 0.4645669291338583,
          "duration": 0.02325581395349019
        },
        {
          "name": "D#3",
          "midi": 51,
          "time": 49.918604651160976,
          "velocity": 0.4566929133858268,
          "duration": 0.023255813953483084
        },
        {
          "name": "A3",
          "midi": 57,
          "time": 49.918604651160976,
          "velocity": 0.3937007874015748,
          "duration": 0.04651162790696617
        },
        {
          "name": "F4",
          "midi": 65,
          "time": 49.918604651160976,
          "velocity": 0.29133858267716534,
          "duration": 0.023255813953483084
        },
        {
          "name": "A6",
          "midi": 93,
          "time": 49.918604651160976,
          "velocity": 0.10236220472440945,
          "duration": 0.034883720930224626
        },
        {
          "name": "F#2",
          "midi": 42,
          "time": 49.94186046511446,
          "velocity": 0.4330708661417323,
          "duration": 0.058139534883714816
        },
        {
          "name": "D#3",
          "midi": 51,
          "time": 49.9534883720912,
          "velocity": 0.4566929133858268,
          "duration": 0.023255813953483084
        },
        {
          "name": "A#3",
          "midi": 58,
          "time": 49.96511627906794,
          "velocity": 0.41732283464566927,
          "duration": 0.06976744186045636
        },
        {
          "name": "E4",
          "midi": 64,
          "time": 49.999999999998174,
          "velocity": 0.4330708661417323,
          "duration": 0.034883720930224626
        },
        {
          "name": "B6",
          "midi": 95,
          "time": 49.999999999998174,
          "velocity": 0.2677165354330709,
          "duration": 0.034883720930224626
        },
        {
          "name": "C7",
          "midi": 96,
          "time": 49.999999999998174,
          "velocity": 0.30708661417322836,
          "duration": 0.09302325581393234
        },
        {
          "name": "D7",
          "midi": 98,
          "time": 49.999999999998174,
          "velocity": 0.3228346456692913,
          "duration": 0.11627906976741542
        },
        {
          "name": "E7",
          "midi": 100,
          "time": 49.999999999998174,
          "velocity": 0.2125984251968504,
          "duration": 0.09302325581393234
        },
        {
          "name": "D6",
          "midi": 86,
          "time": 50.011627906974915,
          "velocity": 0.16535433070866143,
          "duration": 0.034883720930224626
        },
        {
          "name": "A6",
          "midi": 93,
          "time": 50.011627906974915,
          "velocity": 0.29133858267716534,
          "duration": 0.04651162790696617
        },
        {
          "name": "A#6",
          "midi": 94,
          "time": 50.011627906974915,
          "velocity": 0.29133858267716534,
          "duration": 0.05813953488370771
        },
        {
          "name": "C#7",
          "midi": 97,
          "time": 50.011627906974915,
          "velocity": 0.29133858267716534,
          "duration": 0.09302325581393234
        },
        {
          "name": "D#7",
          "midi": 99,
          "time": 50.011627906974915,
          "velocity": 0.2755905511811024,
          "duration": 0.09302325581393234
        },
        {
          "name": "F7",
          "midi": 101,
          "time": 50.011627906974915,
          "velocity": 0.29133858267716534,
          "duration": 0.0813953488371908
        },
        {
          "name": "F#7",
          "midi": 102,
          "time": 50.011627906974915,
          "velocity": 0.2125984251968504,
          "duration": 0.04651162790696617
        },
        {
          "name": "G4",
          "midi": 67,
          "time": 50.02325581395166,
          "velocity": 0.23622047244094488,
          "duration": 0.023255813953483084
        },
        {
          "name": "D#6",
          "midi": 87,
          "time": 50.02325581395166,
          "velocity": 0.11023622047244094,
          "duration": 0.034883720930224626
        },
        {
          "name": "D#4",
          "midi": 63,
          "time": 50.0348837209284,
          "velocity": 0.4409448818897638,
          "duration": 0.034883720930224626
        },
        {
          "name": "G7",
          "midi": 103,
          "time": 50.0348837209284,
          "velocity": 0.08661417322834646,
          "duration": 0.04651162790696617
        },
        {
          "name": "G6",
          "midi": 91,
          "time": 50.04651162790514,
          "velocity": 0.25984251968503935,
          "duration": 0.10465116279067388
        },
        {
          "name": "G#6",
          "midi": 92,
          "time": 50.04651162790514,
          "velocity": 0.2283464566929134,
          "duration": 0.034883720930224626
        },
        {
          "name": "C#4",
          "midi": 61,
          "time": 50.05813953488188,
          "velocity": 0.36220472440944884,
          "duration": 0.023255813953483084
        },
        {
          "name": "F#4",
          "midi": 66,
          "time": 50.05813953488188,
          "velocity": 0.30708661417322836,
          "duration": 0.023255813953483084
        },
        {
          "name": "D#4",
          "midi": 63,
          "time": 50.081395348835365,
          "velocity": 0.33070866141732286,
          "duration": 0.023255813953483084
        },
        {
          "name": "F#2",
          "midi": 42,
          "time": 50.10465116278885,
          "velocity": 0.41732283464566927,
          "duration": 0.05813953488370771
        },
        {
          "name": "D#4",
          "midi": 63,
          "time": 50.11627906976559,
          "velocity": 0.3779527559055118,
          "duration": 0.034883720930224626
        },
        {
          "name": "C6",
          "midi": 84,
          "time": 50.11627906976559,
          "velocity": 0.10236220472440945,
          "duration": 0.10465116279067388
        },
        {
          "name": "A6",
          "midi": 93,
          "time": 50.11627906976559,
          "velocity": 0.29133858267716534,
          "duration": 0.09302325581393234
        },
        {
          "name": "A#3",
          "midi": 58,
          "time": 50.12790697674233,
          "velocity": 0.4094488188976378,
          "duration": 0.11627906976741542
        },
        {
          "name": "G#6",
          "midi": 92,
          "time": 50.12790697674233,
          "velocity": 0.31496062992125984,
          "duration": 0.1395348837208985
        },
        {
          "name": "F4",
          "midi": 65,
          "time": 50.13953488371907,
          "velocity": 0.31496062992125984,
          "duration": 0.034883720930224626
        },
        {
          "name": "F5",
          "midi": 77,
          "time": 50.13953488371907,
          "velocity": 0.3858267716535433,
          "duration": 0.15116279069764005
        },
        {
          "name": "G#5",
          "midi": 80,
          "time": 50.13953488371907,
          "velocity": 0.1889763779527559,
          "duration": 0.04651162790696617
        },
        {
          "name": "F#7",
          "midi": 102,
          "time": 50.13953488371907,
          "velocity": 0.15748031496062992,
          "duration": 0.05813953488370771
        },
        {
          "name": "D6",
          "midi": 86,
          "time": 50.151162790695814,
          "velocity": 0.3464566929133858,
          "duration": 0.2674418604650697
        },
        {
          "name": "F#6",
          "midi": 90,
          "time": 50.151162790695814,
          "velocity": 0.2283464566929134,
          "duration": 0.034883720930224626
        },
        {
          "name": "C#7",
          "midi": 97,
          "time": 50.151162790695814,
          "velocity": 0.11811023622047244,
          "duration": 0.034883720930224626
        },
        {
          "name": "E7",
          "midi": 100,
          "time": 50.151162790695814,
          "velocity": 0.11811023622047244,
          "duration": 0.034883720930224626
        },
        {
          "name": "D#4",
          "midi": 63,
          "time": 50.162790697672555,
          "velocity": 0.33070866141732286,
          "duration": 0.49999999999992895
        },
        {
          "name": "C#5",
          "midi": 73,
          "time": 50.162790697672555,
          "velocity": 0.14960629921259844,
          "duration": 0.4883720930231874
        },
        {
          "name": "E3",
          "midi": 52,
          "time": 50.1744186046493,
          "velocity": 0.3937007874015748,
          "duration": 0.023255813953483084
        },
        {
          "name": "F6",
          "midi": 89,
          "time": 50.1744186046493,
          "velocity": 0.4330708661417323,
          "duration": 0.37209302325575777
        },
        {
          "name": "E3",
          "midi": 52,
          "time": 50.20930232557952,
          "velocity": 0.3937007874015748,
          "duration": 0.023255813953483084
        },
        {
          "name": "F#4",
          "midi": 66,
          "time": 50.20930232557952,
          "velocity": 0.25984251968503935,
          "duration": 0.034883720930224626
        },
        {
          "name": "G#5",
          "midi": 80,
          "time": 50.232558139533005,
          "velocity": 0.2047244094488189,
          "duration": 0.034883720930224626
        },
        {
          "name": "F#6",
          "midi": 90,
          "time": 50.232558139533005,
          "velocity": 0.30708661417322836,
          "duration": 0.04651162790696617
        },
        {
          "name": "D#7",
          "midi": 99,
          "time": 50.232558139533005,
          "velocity": 0.09448818897637795,
          "duration": 0.04651162790696617
        },
        {
          "name": "C6",
          "midi": 84,
          "time": 50.244186046509746,
          "velocity": 0.09448818897637795,
          "duration": 0.034883720930224626
        },
        {
          "name": "F#2",
          "midi": 42,
          "time": 50.25581395348649,
          "velocity": 0.3937007874015748,
          "duration": 0.034883720930224626
        },
        {
          "name": "A#3",
          "midi": 58,
          "time": 50.25581395348649,
          "velocity": 0.33070866141732286,
          "duration": 0.09302325581393234
        },
        {
          "name": "F#4",
          "midi": 66,
          "time": 50.26744186046323,
          "velocity": 0.33070866141732286,
          "duration": 0.3255813953488058
        },
        {
          "name": "A#6",
          "midi": 94,
          "time": 50.302325581393454,
          "velocity": 0.30708661417322836,
          "duration": 0.17441860465113734
        },
        {
          "name": "F5",
          "midi": 77,
          "time": 50.313953488370196,
          "velocity": 0.4094488188976378,
          "duration": 0.1627906976743958
        },
        {
          "name": "G#6",
          "midi": 92,
          "time": 50.32558139534694,
          "velocity": 0.4251968503937008,
          "duration": 0.15116279069765426
        },
        {
          "name": "C7",
          "midi": 96,
          "time": 50.32558139534694,
          "velocity": 0.16535433070866143,
          "duration": 0.13953488372091272
        },
        {
          "name": "E3",
          "midi": 52,
          "time": 50.33720930232368,
          "velocity": 0.3779527559055118,
          "duration": 0.023255813953483084
        },
        {
          "name": "E7",
          "midi": 100,
          "time": 50.33720930232368,
          "velocity": 0.2283464566929134,
          "duration": 0.034883720930224626
        },
        {
          "name": "E3",
          "midi": 52,
          "time": 50.3720930232539,
          "velocity": 0.3700787401574803,
          "duration": 0.02325581395349019
        },
        {
          "name": "D#7",
          "midi": 99,
          "time": 50.3720930232539,
          "velocity": 0.1889763779527559,
          "duration": 0.06976744186046346
        },
        {
          "name": "A#3",
          "midi": 58,
          "time": 50.418604651160884,
          "velocity": 0.16535433070866143,
          "duration": 0.034883720930224626
        },
        {
          "name": "F#2",
          "midi": 42,
          "time": 50.430232558137625,
          "velocity": 0.3228346456692913,
          "duration": 0.023255813953483084
        },
        {
          "name": "G6",
          "midi": 91,
          "time": 50.46511627906785,
          "velocity": 0.07086614173228346,
          "duration": 0.046511627906973274
        },
        {
          "name": "D7",
          "midi": 98,
          "time": 50.53488372092831,
          "velocity": 0.07874015748031496,
          "duration": 0.06976744186046346
        },
        {
          "name": "G2",
          "midi": 43,
          "time": 50.546511627905055,
          "velocity": 0.3543307086614173,
          "duration": 0.02325581395349019
        },
        {
          "name": "F#2",
          "midi": 42,
          "time": 50.593023255812035,
          "velocity": 0.29133858267716534,
          "duration": 0.023255813953483084
        },
        {
          "name": "G#4",
          "midi": 68,
          "time": 50.593023255812035,
          "velocity": 0.4409448818897638,
          "duration": 0.023255813953483084
        },
        {
          "name": "F#4",
          "midi": 66,
          "time": 50.61627906976552,
          "velocity": 0.25196850393700787,
          "duration": 0.034883720930224626
        },
        {
          "name": "F6",
          "midi": 89,
          "time": 50.61627906976552,
          "velocity": 0.1968503937007874,
          "duration": 0.0813953488371908
        },
        {
          "name": "E7",
          "midi": 100,
          "time": 50.61627906976552,
          "velocity": 0.1968503937007874,
          "duration": 0.034883720930224626
        },
        {
          "name": "F7",
          "midi": 101,
          "time": 50.61627906976552,
          "velocity": 0.25196850393700787,
          "duration": 0.33720930232554025
        },
        {
          "name": "A#3",
          "midi": 58,
          "time": 50.62790697674226,
          "velocity": 0.4330708661417323,
          "duration": 0.3255813953487987
        },
        {
          "name": "C7",
          "midi": 96,
          "time": 50.639534883719,
          "velocity": 0.33858267716535434,
          "duration": 0.31395348837205717
        },
        {
          "name": "D7",
          "midi": 98,
          "time": 50.639534883719,
          "velocity": 0.3700787401574803,
          "duration": 0.2906976744185741
        },
        {
          "name": "D#7",
          "midi": 99,
          "time": 50.639534883719,
          "velocity": 0.4251968503937008,
          "duration": 0.06976744186044925
        },
        {
          "name": "D6",
          "midi": 86,
          "time": 50.65116279069574,
          "velocity": 0.11811023622047244,
          "duration": 0.034883720930224626
        },
        {
          "name": "E6",
          "midi": 88,
          "time": 50.65116279069574,
          "velocity": 0.13385826771653545,
          "duration": 0.034883720930224626
        },
        {
          "name": "A6",
          "midi": 93,
          "time": 50.65116279069574,
          "velocity": 0.2992125984251969,
          "duration": 0.04651162790696617
        },
        {
          "name": "B6",
          "midi": 95,
          "time": 50.65116279069574,
          "velocity": 0.2992125984251969,
          "duration": 0.05813953488370771
        },
        {
          "name": "C#7",
          "midi": 97,
          "time": 50.65116279069574,
          "velocity": 0.29133858267716534,
          "duration": 0.0813953488371908
        },
        {
          "name": "F#7",
          "midi": 102,
          "time": 50.65116279069574,
          "velocity": 0.1889763779527559,
          "duration": 0.17441860465113734
        },
        {
          "name": "G7",
          "midi": 103,
          "time": 50.65116279069574,
          "velocity": 0.18110236220472442,
          "duration": 0.06976744186044925
        },
        {
          "name": "C#5",
          "midi": 73,
          "time": 50.662790697672484,
          "velocity": 0.11811023622047244,
          "duration": 0.20930232558136908
        },
        {
          "name": "F5",
          "midi": 77,
          "time": 50.662790697672484,
          "velocity": 0.14173228346456693,
          "duration": 0.05813953488370771
        },
        {
          "name": "F#6",
          "midi": 90,
          "time": 50.662790697672484,
          "velocity": 0.2047244094488189,
          "duration": 0.04651162790696617
        },
        {
          "name": "G#6",
          "midi": 92,
          "time": 50.662790697672484,
          "velocity": 0.2440944881889764,
          "duration": 0.05813953488370771
        },
        {
          "name": "E7",
          "midi": 100,
          "time": 50.662790697672484,
          "velocity": 0.36220472440944884,
          "duration": 0.11627906976742253
        },
        {
          "name": "F#2",
          "midi": 42,
          "time": 50.674418604649226,
          "velocity": 0.2755905511811024,
          "duration": 0.023255813953483084
        },
        {
          "name": "F#4",
          "midi": 66,
          "time": 50.674418604649226,
          "velocity": 0.2755905511811024,
          "duration": 0.023255813953483084
        },
        {
          "name": "F#3",
          "midi": 54,
          "time": 50.69767441860271,
          "velocity": 0.31496062992125984,
          "duration": 0.023255813953483084
        },
        {
          "name": "G#4",
          "midi": 68,
          "time": 50.70930232557945,
          "velocity": 0.33070866141732286,
          "duration": 0.3720930232557933
        },
        {
          "name": "D#6",
          "midi": 87,
          "time": 50.732558139532934,
          "velocity": 0.11811023622047244,
          "duration": 0.33720930232556867
        },
        {
          "name": "F#2",
          "midi": 42,
          "time": 50.744186046509675,
          "velocity": 0.2283464566929134,
          "duration": 0.02325581395349019
        },
        {
          "name": "G2",
          "midi": 43,
          "time": 50.767441860463165,
          "velocity": 0.2283464566929134,
          "duration": 0.023255813953483084
        },
        {
          "name": "D#7",
          "midi": 99,
          "time": 50.77906976743991,
          "velocity": 0.2992125984251969,
          "duration": 0.06976744186046346
        },
        {
          "name": "F5",
          "midi": 77,
          "time": 50.79069767441665,
          "velocity": 0.07086614173228346,
          "duration": 0.06976744186046346
        },
        {
          "name": "E7",
          "midi": 100,
          "time": 50.84883720930037,
          "velocity": 0.2992125984251969,
          "duration": 0.034883720930224626
        },
        {
          "name": "A#6",
          "midi": 94,
          "time": 50.86046511627711,
          "velocity": 0.08661417322834646,
          "duration": 0.081395348837205
        },
        {
          "name": "F3",
          "midi": 53,
          "time": 50.87209302325385,
          "velocity": 0.33070866141732286,
          "duration": 0.19767441860464885
        },
        {
          "name": "D#7",
          "midi": 99,
          "time": 50.883720930230595,
          "velocity": 0.2677165354330709,
          "duration": 0.05813953488372192
        },
        {
          "name": "C5",
          "midi": 72,
          "time": 50.906976744184085,
          "velocity": 0.13385826771653545,
          "duration": 0.17441860465115866
        },
        {
          "name": "D#4",
          "midi": 63,
          "time": 51.02325581395152,
          "velocity": 0.33858267716535434,
          "duration": 0.02325581395349019
        },
        {
          "name": "C#4",
          "midi": 61,
          "time": 51.04651162790501,
          "velocity": 0.33070866141732286,
          "duration": 0.046511627906973274
        },
        {
          "name": "E4",
          "midi": 64,
          "time": 51.04651162790501,
          "velocity": 0.25984251968503935,
          "duration": 0.02325581395349019
        },
        {
          "name": "D3",
          "midi": 50,
          "time": 51.081395348835244,
          "velocity": 0.31496062992125984,
          "duration": 0.023255813953483084
        },
        {
          "name": "A#4",
          "midi": 70,
          "time": 51.081395348835244,
          "velocity": 0.29133858267716534,
          "duration": 0.046511627906973274
        },
        {
          "name": "D#3",
          "midi": 51,
          "time": 51.10465116278873,
          "velocity": 0.31496062992125984,
          "duration": 0.186046511627886
        },
        {
          "name": "A4",
          "midi": 69,
          "time": 51.12790697674222,
          "velocity": 0.25196850393700787,
          "duration": 0.023255813953483084
        },
        {
          "name": "A#3",
          "midi": 58,
          "time": 51.13953488371896,
          "velocity": 0.07874015748031496,
          "duration": 0.09302325581394655
        },
        {
          "name": "D7",
          "midi": 98,
          "time": 51.1511627906957,
          "velocity": 0.07874015748031496,
          "duration": 0.03488372093023173
        },
        {
          "name": "A#4",
          "midi": 70,
          "time": 51.18604651162593,
          "velocity": 0.5354330708661418,
          "duration": 0.37209302325575067
        },
        {
          "name": "E4",
          "midi": 64,
          "time": 51.20930232557942,
          "velocity": 0.13385826771653545,
          "duration": 0.04651162790696617
        },
        {
          "name": "C#5",
          "midi": 73,
          "time": 51.220930232556164,
          "velocity": 0.13385826771653545,
          "duration": 0.04651162790696617
        },
        {
          "name": "E5",
          "midi": 76,
          "time": 51.232558139532905,
          "velocity": 0.25196850393700787,
          "duration": 0.06976744186044925
        },
        {
          "name": "D#5",
          "midi": 75,
          "time": 51.24418604650965,
          "velocity": 0.2204724409448819,
          "duration": 0.034883720930224626
        },
        {
          "name": "F6",
          "midi": 89,
          "time": 51.24418604650965,
          "velocity": 0.11023622047244094,
          "duration": 0.2441860465115866
        },
        {
          "name": "D#5",
          "midi": 75,
          "time": 51.302325581393355,
          "velocity": 0.10236220472440945,
          "duration": 0.058139534883714816
        },
        {
          "name": "C#3",
          "midi": 49,
          "time": 51.313953488370096,
          "velocity": 0.3464566929133858,
          "duration": 0.19767441860462043
        },
        {
          "name": "A#3",
          "midi": 58,
          "time": 51.313953488370096,
          "velocity": 0.09448818897637795,
          "duration": 0.03488372093023173
        },
        {
          "name": "G#4",
          "midi": 68,
          "time": 51.37209302325381,
          "velocity": 0.13385826771653545,
          "duration": 0.046511627906973274
        },
        {
          "name": "F#5",
          "midi": 78,
          "time": 51.430232558137526,
          "velocity": 0.23622047244094488,
          "duration": 0.04651162790696617
        },
        {
          "name": "F#4",
          "midi": 66,
          "time": 51.44186046511427,
          "velocity": 0.29133858267716534,
          "duration": 0.05813953488370771
        },
        {
          "name": "C7",
          "midi": 96,
          "time": 51.44186046511427,
          "velocity": 0.2677165354330709,
          "duration": 0.11627906976741542
        },
        {
          "name": "D7",
          "midi": 98,
          "time": 51.44186046511427,
          "velocity": 0.13385826771653545,
          "duration": 0.09302325581393234
        },
        {
          "name": "A#3",
          "midi": 58,
          "time": 51.45348837209101,
          "velocity": 0.5275590551181102,
          "duration": 0.12790697674415696
        },
        {
          "name": "D5",
          "midi": 74,
          "time": 51.45348837209101,
          "velocity": 0.2204724409448819,
          "duration": 0.04651162790696617
        },
        {
          "name": "B6",
          "midi": 95,
          "time": 51.45348837209101,
          "velocity": 0.10236220472440945,
          "duration": 0.034883720930224626
        },
        {
          "name": "C#5",
          "midi": 73,
          "time": 51.46511627906775,
          "velocity": 0.2283464566929134,
          "duration": 0.034883720930224626
        },
        {
          "name": "F7",
          "midi": 101,
          "time": 51.46511627906775,
          "velocity": 0.14173228346456693,
          "duration": 0.06976744186044925
        },
        {
          "name": "F5",
          "midi": 77,
          "time": 51.47674418604449,
          "velocity": 0.5196850393700787,
          "duration": 0.5465116279069164
        },
        {
          "name": "F#7",
          "midi": 102,
          "time": 51.47674418604449,
          "velocity": 0.13385826771653545,
          "duration": 0.11627906976741542
        },
        {
          "name": "A#6",
          "midi": 94,
          "time": 51.499999999997975,
          "velocity": 0.18110236220472442,
          "duration": 0.10465116279067388
        },
        {
          "name": "F#1",
          "midi": 30,
          "time": 51.51162790697472,
          "velocity": 0.6377952755905512,
          "duration": 0.011627906976741542
        },
        {
          "name": "C3",
          "midi": 48,
          "time": 51.51162790697472,
          "velocity": 0.3543307086614173,
          "duration": 0.023255813953483084
        },
        {
          "name": "D6",
          "midi": 86,
          "time": 51.51162790697472,
          "velocity": 0.11811023622047244,
          "duration": 0.04651162790696617
        },
        {
          "name": "D#6",
          "midi": 87,
          "time": 51.51162790697472,
          "velocity": 0.14960629921259844,
          "duration": 0.5116279069766918
        },
        {
          "name": "F1",
          "midi": 29,
          "time": 51.52325581395146,
          "velocity": 0.7086614173228346,
          "duration": 0.011627906976741542
        },
        {
          "name": "G#4",
          "midi": 68,
          "time": 51.52325581395146,
          "velocity": 0.31496062992125984,
          "duration": 0.023255813953483084
        },
        {
          "name": "E1",
          "midi": 28,
          "time": 51.5348837209282,
          "velocity": 0.7165354330708661,
          "duration": 0.011627906976741542
        },
        {
          "name": "C#7",
          "midi": 97,
          "time": 51.5348837209282,
          "velocity": 0.2047244094488189,
          "duration": 0.05813953488370771
        },
        {
          "name": "E7",
          "midi": 100,
          "time": 51.5348837209282,
          "velocity": 0.10236220472440945,
          "duration": 0.06976744186044925
        },
        {
          "name": "D#1",
          "midi": 27,
          "time": 51.54651162790494,
          "velocity": 0.7480314960629921,
          "duration": 1.232558139534703
        },
        {
          "name": "D#4",
          "midi": 63,
          "time": 51.54651162790494,
          "velocity": 0.2440944881889764,
          "duration": 0.04651162790696617
        },
        {
          "name": "A4",
          "midi": 69,
          "time": 51.55813953488168,
          "velocity": 0.4094488188976378,
          "duration": 0.023255813953483084
        },
        {
          "name": "A2",
          "midi": 45,
          "time": 51.569767441858424,
          "velocity": 0.4094488188976378,
          "duration": 0.023255813953483084
        },
        {
          "name": "G3",
          "midi": 55,
          "time": 51.581395348835166,
          "velocity": 0.5039370078740157,
          "duration": 0.6744186046510947
        },
        {
          "name": "G#4",
          "midi": 68,
          "time": 51.60465116278865,
          "velocity": 0.33858267716535434,
          "duration": 0.7790697674417757
        },
        {
          "name": "C7",
          "midi": 96,
          "time": 51.60465116278865,
          "velocity": 0.1889763779527559,
          "duration": 0.06976744186046346
        },
        {
          "name": "A#2",
          "midi": 46,
          "time": 51.61627906976539,
          "velocity": 0.4094488188976378,
          "duration": 0.02325581395349019
        },
        {
          "name": "A#2",
          "midi": 46,
          "time": 51.65116279069562,
          "velocity": 0.4251968503937008,
          "duration": 0.05813953488372192
        },
        {
          "name": "A#4",
          "midi": 70,
          "time": 51.6976744186026,
          "velocity": 0.11811023622047244,
          "duration": 0.06976744186046346
        },
        {
          "name": "C7",
          "midi": 96,
          "time": 51.732558139532834,
          "velocity": 0.1732283464566929,
          "duration": 0.03488372093023173
        },
        {
          "name": "A#2",
          "midi": 46,
          "time": 51.744186046509576,
          "velocity": 0.4330708661417323,
          "duration": 0.2441860465116079
        },
        {
          "name": "A#4",
          "midi": 70,
          "time": 51.77906976743981,
          "velocity": 0.1732283464566929,
          "duration": 0.081395348837205
        },
        {
          "name": "D#5",
          "midi": 75,
          "time": 51.84883720930027,
          "velocity": 0.13385826771653545,
          "duration": 0.046511627906973274
        },
        {
          "name": "C7",
          "midi": 96,
          "time": 51.872093023253754,
          "velocity": 0.11023622047244094,
          "duration": 0.046511627906973274
        },
        {
          "name": "A6",
          "midi": 93,
          "time": 51.895348837207244,
          "velocity": 0.14173228346456693,
          "duration": 0.11627906976742253
        },
        {
          "name": "B6",
          "midi": 95,
          "time": 51.895348837207244,
          "velocity": 0.3464566929133858,
          "duration": 0.06976744186045636
        },
        {
          "name": "C#7",
          "midi": 97,
          "time": 51.895348837207244,
          "velocity": 0.1968503937007874,
          "duration": 0.12790697674416407
        },
        {
          "name": "D#7",
          "midi": 99,
          "time": 51.895348837207244,
          "velocity": 0.2125984251968504,
          "duration": 0.15116279069764715
        },
        {
          "name": "C#4",
          "midi": 61,
          "time": 51.906976744183986,
          "velocity": 0.47244094488188976,
          "duration": 0.0813953488371979
        },
        {
          "name": "C#5",
          "midi": 73,
          "time": 51.906976744183986,
          "velocity": 0.4881889763779528,
          "duration": 0.1395348837209056
        },
        {
          "name": "G#6",
          "midi": 92,
          "time": 51.91860465116073,
          "velocity": 0.14960629921259844,
          "duration": 0.0813953488371979
        },
        {
          "name": "F7",
          "midi": 101,
          "time": 51.91860465116073,
          "velocity": 0.2047244094488189,
          "duration": 0.10465116279068098
        },
        {
          "name": "C7",
          "midi": 96,
          "time": 51.93023255813747,
          "velocity": 0.18110236220472442,
          "duration": 0.046511627906973274
        },
        {
          "name": "B4",
          "midi": 71,
          "time": 51.94186046511421,
          "velocity": 0.4251968503937008,
          "duration": 0.2674418604650697
        },
        {
          "name": "A#6",
          "midi": 94,
          "time": 51.94186046511421,
          "velocity": 0.2992125984251969,
          "duration": 0.03488372093023173
        },
        {
          "name": "B6",
          "midi": 95,
          "time": 51.97674418604444,
          "velocity": 0.33070866141732286,
          "duration": 0.034883720930224626
        },
        {
          "name": "G7",
          "midi": 103,
          "time": 51.97674418604444,
          "velocity": 0.15748031496062992,
          "duration": 0.034883720930224626
        },
        {
          "name": "A#2",
          "midi": 46,
          "time": 51.999999999997925,
          "velocity": 0.4251968503937008,
          "duration": 0.04651162790696617
        },
        {
          "name": "C#4",
          "midi": 61,
          "time": 51.999999999997925,
          "velocity": 0.33858267716535434,
          "duration": 0.034883720930224626
        },
        {
          "name": "F#5",
          "midi": 78,
          "time": 52.02325581395141,
          "velocity": 0.29133858267716534,
          "duration": 0.034883720930224626
        },
        {
          "name": "C#4",
          "midi": 61,
          "time": 52.04651162790489,
          "velocity": 0.3543307086614173,
          "duration": 0.06976744186045636
        },
        {
          "name": "F5",
          "midi": 77,
          "time": 52.04651162790489,
          "velocity": 0.3937007874015748,
          "duration": 0.0813953488371979
        },
        {
          "name": "A#2",
          "midi": 46,
          "time": 52.05813953488163,
          "velocity": 0.4015748031496063,
          "duration": 0.11627906976742253
        },
        {
          "name": "C#5",
          "midi": 73,
          "time": 52.05813953488163,
          "velocity": 0.3858267716535433,
          "duration": 0.12790697674416407
        },
        {
          "name": "D#6",
          "midi": 87,
          "time": 52.05813953488163,
          "velocity": 0.16535433070866143,
          "duration": 0.06976744186045636
        },
        {
          "name": "D7",
          "midi": 98,
          "time": 52.093023255811865,
          "velocity": 0.1732283464566929,
          "duration": 0.10465116279067388
        },
        {
          "name": "D6",
          "midi": 86,
          "time": 52.104651162788606,
          "velocity": 0.14173228346456693,
          "duration": 0.06976744186044925
        },
        {
          "name": "E6",
          "midi": 88,
          "time": 52.104651162788606,
          "velocity": 0.2755905511811024,
          "duration": 0.10465116279067388
        },
        {
          "name": "F#6",
          "midi": 90,
          "time": 52.104651162788606,
          "velocity": 0.12598425196850394,
          "duration": 0.05813953488370771
        },
        {
          "name": "C7",
          "midi": 96,
          "time": 52.104651162788606,
          "velocity": 0.07874015748031496,
          "duration": 0.034883720930224626
        },
        {
          "name": "D#5",
          "midi": 75,
          "time": 52.11627906976535,
          "velocity": 0.3228346456692913,
          "duration": 0.023255813953483084
        },
        {
          "name": "A#5",
          "midi": 82,
          "time": 52.11627906976535,
          "velocity": 0.07086614173228346,
          "duration": 0.034883720930224626
        },
        {
          "name": "E5",
          "midi": 76,
          "time": 52.13953488371883,
          "velocity": 0.2992125984251969,
          "duration": 0.023255813953483084
        },
        {
          "name": "D#6",
          "midi": 87,
          "time": 52.13953488371883,
          "velocity": 0.2283464566929134,
          "duration": 0.04651162790696617
        },
        {
          "name": "D#5",
          "midi": 75,
          "time": 52.15116279069557,
          "velocity": 0.30708661417322836,
          "duration": 0.034883720930224626
        },
        {
          "name": "F5",
          "midi": 77,
          "time": 52.162790697672314,
          "velocity": 0.28346456692913385,
          "duration": 0.12790697674417117
        },
        {
          "name": "C7",
          "midi": 96,
          "time": 52.174418604649055,
          "velocity": 0.2047244094488189,
          "duration": 0.081395348837205
        },
        {
          "name": "A#2",
          "midi": 46,
          "time": 52.1860465116258,
          "velocity": 0.3779527559055118,
          "duration": 0.09302325581394655
        },
        {
          "name": "D#6",
          "midi": 87,
          "time": 52.19767441860254,
          "velocity": 0.1889763779527559,
          "duration": 0.11627906976742963
        },
        {
          "name": "A#4",
          "midi": 70,
          "time": 52.20930232557928,
          "velocity": 0.30708661417322836,
          "duration": 0.02325581395349019
        },
        {
          "name": "C#5",
          "midi": 73,
          "time": 52.25581395348626,
          "velocity": 0.33070866141732286,
          "duration": 0.23255813953484505
        },
        {
          "name": "G3",
          "midi": 55,
          "time": 52.267441860463,
          "velocity": 0.4015748031496063,
          "duration": 0.023255813953483084
        },
        {
          "name": "F5",
          "midi": 77,
          "time": 52.30232558139323,
          "velocity": 0.23622047244094488,
          "duration": 0.1627906976743958
        },
        {
          "name": "A#2",
          "midi": 46,
          "time": 52.31395348836997,
          "velocity": 0.3464566929133858,
          "duration": 0.03488372093023173
        },
        {
          "name": "G#6",
          "midi": 92,
          "time": 52.31395348836997,
          "velocity": 0.2440944881889764,
          "duration": 0.0813953488371979
        },
        {
          "name": "C7",
          "midi": 96,
          "time": 52.31395348836997,
          "velocity": 0.33070866141732286,
          "duration": 0.23255813953484505
        },
        {
          "name": "D#7",
          "midi": 99,
          "time": 52.31395348836997,
          "velocity": 0.33070866141732286,
          "duration": 0.3488372093022605
        },
        {
          "name": "G3",
          "midi": 55,
          "time": 52.32558139534671,
          "velocity": 0.3543307086614173,
          "duration": 0.06976744186045636
        },
        {
          "name": "C#4",
          "midi": 61,
          "time": 52.32558139534671,
          "velocity": 0.48031496062992124,
          "duration": 0.12790697674417117
        },
        {
          "name": "B6",
          "midi": 95,
          "time": 52.32558139534671,
          "velocity": 0.4094488188976378,
          "duration": 0.15116279069765426
        },
        {
          "name": "C#7",
          "midi": 97,
          "time": 52.32558139534671,
          "velocity": 0.14960629921259844,
          "duration": 0.046511627906973274
        },
        {
          "name": "B4",
          "midi": 71,
          "time": 52.3488372093002,
          "velocity": 0.2677165354330709,
          "duration": 0.023255813953483084
        },
        {
          "name": "A6",
          "midi": 93,
          "time": 52.3488372093002,
          "velocity": 0.29133858267716534,
          "duration": 0.11627906976742253
        },
        {
          "name": "A#2",
          "midi": 46,
          "time": 52.36046511627694,
          "velocity": 0.33070866141732286,
          "duration": 0.04651162790696617
        },
        {
          "name": "D#6",
          "midi": 87,
          "time": 52.36046511627694,
          "velocity": 0.13385826771653545,
          "duration": 0.10465116279068098
        },
        {
          "name": "D7",
          "midi": 98,
          "time": 52.36046511627694,
          "velocity": 0.31496062992125984,
          "duration": 0.05813953488370771
        },
        {
          "name": "E7",
          "midi": 100,
          "time": 52.36046511627694,
          "velocity": 0.23622047244094488,
          "duration": 0.0813953488371979
        },
        {
          "name": "G7",
          "midi": 103,
          "time": 52.36046511627694,
          "velocity": 0.23622047244094488,
          "duration": 0.05813953488370771
        },
        {
          "name": "A#4",
          "midi": 70,
          "time": 52.37209302325368,
          "velocity": 0.4094488188976378,
          "duration": 0.29069767441854566
        },
        {
          "name": "E6",
          "midi": 88,
          "time": 52.37209302325368,
          "velocity": 0.11811023622047244,
          "duration": 0.034883720930224626
        },
        {
          "name": "F#6",
          "midi": 90,
          "time": 52.37209302325368,
          "velocity": 0.1732283464566929,
          "duration": 0.09302325581393944
        },
        {
          "name": "A#6",
          "midi": 94,
          "time": 52.37209302325368,
          "velocity": 0.3228346456692913,
          "duration": 0.023255813953483084
        },
        {
          "name": "F7",
          "midi": 101,
          "time": 52.37209302325368,
          "velocity": 0.31496062992125984,
          "duration": 0.12790697674416407
        },
        {
          "name": "D6",
          "midi": 86,
          "time": 52.383720930230425,
          "velocity": 0.08661417322834646,
          "duration": 0.058139534883714816
        },
        {
          "name": "C#7",
          "midi": 97,
          "time": 52.383720930230425,
          "velocity": 0.2677165354330709,
          "duration": 0.10465116279068098
        },
        {
          "name": "G#4",
          "midi": 68,
          "time": 52.395348837207166,
          "velocity": 0.2992125984251969,
          "duration": 0.18604651162787178
        },
        {
          "name": "G#6",
          "midi": 92,
          "time": 52.40697674418391,
          "velocity": 0.2125984251968504,
          "duration": 0.15116279069764715
        },
        {
          "name": "A#6",
          "midi": 94,
          "time": 52.40697674418391,
          "velocity": 0.15748031496062992,
          "duration": 0.046511627906973274
        },
        {
          "name": "A#2",
          "midi": 46,
          "time": 52.44186046511414,
          "velocity": 0.2992125984251969,
          "duration": 0.034883720930224626
        },
        {
          "name": "F#5",
          "midi": 78,
          "time": 52.45348837209088,
          "velocity": 0.2440944881889764,
          "duration": 0.023255813953483084
        },
        {
          "name": "F5",
          "midi": 77,
          "time": 52.476744186044364,
          "velocity": 0.30708661417322836,
          "duration": 0.26744186046505547
        },
        {
          "name": "D#3",
          "midi": 51,
          "time": 52.488372093021106,
          "velocity": 0.3228346456692913,
          "duration": 0.3023255813952801
        },
        {
          "name": "D#6",
          "midi": 87,
          "time": 52.488372093021106,
          "velocity": 0.2047244094488189,
          "duration": 0.34883720930224626
        },
        {
          "name": "B3",
          "midi": 59,
          "time": 52.49999999999785,
          "velocity": 0.3937007874015748,
          "duration": 0.10465116279067388
        },
        {
          "name": "D6",
          "midi": 86,
          "time": 52.49999999999785,
          "velocity": 0.08661417322834646,
          "duration": 0.034883720930224626
        },
        {
          "name": "B6",
          "midi": 95,
          "time": 52.49999999999785,
          "velocity": 0.31496062992125984,
          "duration": 0.3372093023255047
        },
        {
          "name": "D7",
          "midi": 98,
          "time": 52.49999999999785,
          "velocity": 0.2047244094488189,
          "duration": 0.1395348837208985
        },
        {
          "name": "C#7",
          "midi": 97,
          "time": 52.51162790697459,
          "velocity": 0.2440944881889764,
          "duration": 0.15116279069764005
        },
        {
          "name": "F#7",
          "midi": 102,
          "time": 52.52325581395133,
          "velocity": 0.11023622047244094,
          "duration": 0.034883720930224626
        },
        {
          "name": "E7",
          "midi": 100,
          "time": 52.53488372092807,
          "velocity": 0.2125984251968504,
          "duration": 0.034883720930224626
        },
        {
          "name": "C7",
          "midi": 96,
          "time": 52.569767441858296,
          "velocity": 0.18110236220472442,
          "duration": 0.11627906976741542
        },
        {
          "name": "F7",
          "midi": 101,
          "time": 52.569767441858296,
          "velocity": 0.1968503937007874,
          "duration": 0.10465116279067388
        },
        {
          "name": "G#4",
          "midi": 68,
          "time": 52.59302325581178,
          "velocity": 0.47244094488188976,
          "duration": 0.0813953488371908
        },
        {
          "name": "C4",
          "midi": 60,
          "time": 52.60465116278852,
          "velocity": 0.3464566929133858,
          "duration": 0.023255813953483084
        },
        {
          "name": "E7",
          "midi": 100,
          "time": 52.60465116278852,
          "velocity": 0.1732283464566929,
          "duration": 0.034883720930224626
        },
        {
          "name": "C#5",
          "midi": 73,
          "time": 52.61627906976526,
          "velocity": 0.14173228346456693,
          "duration": 0.034883720930224626
        },
        {
          "name": "A#3",
          "midi": 58,
          "time": 52.627906976742004,
          "velocity": 0.3858267716535433,
          "duration": 0.15116279069764005
        },
        {
          "name": "G#6",
          "midi": 92,
          "time": 52.68604651162571,
          "velocity": 0.4094488188976378,
          "duration": 0.0813953488371908
        },
        {
          "name": "G#4",
          "midi": 68,
          "time": 52.69767441860245,
          "velocity": 0.2992125984251969,
          "duration": 0.0813953488371908
        },
        {
          "name": "E7",
          "midi": 100,
          "time": 52.709302325579195,
          "velocity": 0.1968503937007874,
          "duration": 0.04651162790696617
        },
        {
          "name": "B4",
          "midi": 71,
          "time": 52.720930232555936,
          "velocity": 0.48031496062992124,
          "duration": 0.04651162790696617
        },
        {
          "name": "F#6",
          "midi": 90,
          "time": 52.720930232555936,
          "velocity": 0.3779527559055118,
          "duration": 0.11627906976741542
        },
        {
          "name": "C#7",
          "midi": 97,
          "time": 52.720930232555936,
          "velocity": 0.1732283464566929,
          "duration": 0.10465116279067388
        },
        {
          "name": "D#7",
          "midi": 99,
          "time": 52.720930232555936,
          "velocity": 0.2677165354330709,
          "duration": 0.20930232558135486
        },
        {
          "name": "F#5",
          "midi": 78,
          "time": 52.73255813953268,
          "velocity": 0.29133858267716534,
          "duration": 0.11627906976741542
        },
        {
          "name": "A#4",
          "midi": 70,
          "time": 52.75581395348616,
          "velocity": 0.41732283464566927,
          "duration": 0.034883720930224626
        },
        {
          "name": "A6",
          "midi": 93,
          "time": 52.75581395348616,
          "velocity": 0.2992125984251969,
          "duration": 0.05813953488370771
        },
        {
          "name": "F7",
          "midi": 101,
          "time": 52.75581395348616,
          "velocity": 0.14173228346456693,
          "duration": 0.034883720930224626
        },
        {
          "name": "D1",
          "midi": 26,
          "time": 52.779069767439644,
          "velocity": 0.5196850393700787,
          "duration": 0.011627906976741542
        },
        {
          "name": "F5",
          "midi": 77,
          "time": 52.779069767439644,
          "velocity": 0.1968503937007874,
          "duration": 0.034883720930224626
        },
        {
          "name": "B0",
          "midi": 23,
          "time": 52.790697674416386,
          "velocity": 0.5511811023622047,
          "duration": 0.011627906976741542
        },
        {
          "name": "E4",
          "midi": 64,
          "time": 52.790697674416386,
          "velocity": 0.25984251968503935,
          "duration": 0.023255813953483084
        },
        {
          "name": "B4",
          "midi": 71,
          "time": 52.790697674416386,
          "velocity": 0.3228346456692913,
          "duration": 0.023255813953483084
        },
        {
          "name": "C#1",
          "midi": 25,
          "time": 52.80232558139313,
          "velocity": 0.6535433070866141,
          "duration": 0.011627906976741542
        },
        {
          "name": "F3",
          "midi": 53,
          "time": 52.80232558139313,
          "velocity": 0.4409448818897638,
          "duration": 0.023255813953483084
        },
        {
          "name": "C#5",
          "midi": 73,
          "time": 52.80232558139313,
          "velocity": 0.16535433070866143,
          "duration": 0.19767441860462043
        },
        {
          "name": "D#5",
          "midi": 75,
          "time": 52.80232558139313,
          "velocity": 0.13385826771653545,
          "duration": 0.11627906976742253
        },
        {
          "name": "A#5",
          "midi": 82,
          "time": 52.80232558139313,
          "velocity": 0.25984251968503935,
          "duration": 0.37209302325575067
        },
        {
          "name": "D1",
          "midi": 26,
          "time": 52.81395348836987,
          "velocity": 0.6929133858267716,
          "duration": 0.011627906976741542
        },
        {
          "name": "D#4",
          "midi": 63,
          "time": 52.81395348836987,
          "velocity": 0.33858267716535434,
          "duration": 0.45348837209294857
        },
        {
          "name": "A#4",
          "midi": 70,
          "time": 52.81395348836987,
          "velocity": 0.4015748031496063,
          "duration": 0.0813953488371979
        },
        {
          "name": "C1",
          "midi": 24,
          "time": 52.82558139534661,
          "velocity": 0.6929133858267716,
          "duration": 0.011627906976741542
        },
        {
          "name": "F#3",
          "midi": 54,
          "time": 52.82558139534661,
          "velocity": 0.36220472440944884,
          "duration": 0.023255813953483084
        },
        {
          "name": "D7",
          "midi": 98,
          "time": 52.82558139534661,
          "velocity": 0.07086614173228346,
          "duration": 0.0813953488371979
        },
        {
          "name": "B0",
          "midi": 23,
          "time": 52.83720930232335,
          "velocity": 0.7322834645669292,
          "duration": 1.2325581395346816
        },
        {
          "name": "F6",
          "midi": 89,
          "time": 52.83720930232335,
          "velocity": 0.23622047244094488,
          "duration": 0.12790697674417117
        },
        {
          "name": "D#3",
          "midi": 51,
          "time": 52.860465116276835,
          "velocity": 0.5039370078740157,
          "duration": 0.03488372093023173
        },
        {
          "name": "F#4",
          "midi": 66,
          "time": 52.89534883720707,
          "velocity": 0.16535433070866143,
          "duration": 0.13953488372091272
        },
        {
          "name": "D#3",
          "midi": 51,
          "time": 52.90697674418381,
          "velocity": 0.5118110236220472,
          "duration": 0.023255813953483084
        },
        {
          "name": "A#4",
          "midi": 70,
          "time": 52.90697674418381,
          "velocity": 0.4645669291338583,
          "duration": 0.0813953488371979
        },
        {
          "name": "G2",
          "midi": 43,
          "time": 52.91860465116055,
          "velocity": 0.44881889763779526,
          "duration": 0.023255813953483084
        },
        {
          "name": "B3",
          "midi": 59,
          "time": 52.91860465116055,
          "velocity": 0.30708661417322836,
          "duration": 0.023255813953483084
        },
        {
          "name": "F5",
          "midi": 77,
          "time": 52.93023255813729,
          "velocity": 0.2125984251968504,
          "duration": 0.046511627906973274
        },
        {
          "name": "G#6",
          "midi": 92,
          "time": 52.93023255813729,
          "velocity": 0.25984251968503935,
          "duration": 0.046511627906973274
        },
        {
          "name": "D#3",
          "midi": 51,
          "time": 52.94186046511403,
          "velocity": 0.5196850393700787,
          "duration": 0.02325581395349019
        },
        {
          "name": "A#3",
          "midi": 58,
          "time": 52.94186046511403,
          "velocity": 0.36220472440944884,
          "duration": 0.03488372093023173
        },
        {
          "name": "D#7",
          "midi": 99,
          "time": 52.94186046511403,
          "velocity": 0.14960629921259844,
          "duration": 0.046511627906973274
        },
        {
          "name": "D7",
          "midi": 98,
          "time": 52.96511627906752,
          "velocity": 0.13385826771653545,
          "duration": 0.06976744186045636
        },
        {
          "name": "D#3",
          "midi": 51,
          "time": 52.976744186044264,
          "velocity": 0.5196850393700787,
          "duration": 0.0813953488371979
        },
        {
          "name": "F7",
          "midi": 101,
          "time": 52.976744186044264,
          "velocity": 0.15748031496062992,
          "duration": 0.06976744186045636
        },
        {
          "name": "A#3",
          "midi": 58,
          "time": 52.988372093021006,
          "velocity": 0.3937007874015748,
          "duration": 0.058139534883714816
        },
        {
          "name": "B4",
          "midi": 71,
          "time": 52.988372093021006,
          "velocity": 0.33858267716535434,
          "duration": 0.023255813953483084
        },
        {
          "name": "G#6",
          "midi": 92,
          "time": 52.988372093021006,
          "velocity": 0.2677165354330709,
          "duration": 0.046511627906973274
        },
        {
          "name": "F6",
          "midi": 89,
          "time": 52.99999999999775,
          "velocity": 0.1968503937007874,
          "duration": 0.488372093023159
        },
        {
          "name": "A#4",
          "midi": 70,
          "time": 53.01162790697449,
          "velocity": 0.4330708661417323,
          "duration": 0.03488372093023173
        },
        {
          "name": "F#2",
          "midi": 42,
          "time": 53.03488372092798,
          "velocity": 0.44881889763779526,
          "duration": 0.023255813953483084
        },
        {
          "name": "C#5",
          "midi": 73,
          "time": 53.03488372092798,
          "velocity": 0.07874015748031496,
          "duration": 0.11627906976741542
        },
        {
          "name": "F5",
          "midi": 77,
          "time": 53.03488372092798,
          "velocity": 0.13385826771653545,
          "duration": 0.06976744186044925
        },
        {
          "name": "A4",
          "midi": 69,
          "time": 53.04651162790472,
          "velocity": 0.3543307086614173,
          "duration": 0.023255813953483084
        },
        {
          "name": "D3",
          "midi": 50,
          "time": 53.05813953488146,
          "velocity": 0.5196850393700787,
          "duration": 0.011627906976741542
        },
        {
          "name": "D#3",
          "midi": 51,
          "time": 53.069767441858204,
          "velocity": 0.5039370078740157,
          "duration": 0.023255813953483084
        },
        {
          "name": "A#4",
          "midi": 70,
          "time": 53.069767441858204,
          "velocity": 0.2283464566929134,
          "duration": 0.023255813953483084
        },
        {
          "name": "F#4",
          "midi": 66,
          "time": 53.081395348834945,
          "velocity": 0.15748031496062992,
          "duration": 0.05813953488370771
        },
        {
          "name": "D3",
          "midi": 50,
          "time": 53.09302325581169,
          "velocity": 0.5118110236220472,
          "duration": 0.011627906976741542
        },
        {
          "name": "D#3",
          "midi": 51,
          "time": 53.10465116278843,
          "velocity": 0.5118110236220472,
          "duration": 0.29069767441854566
        },
        {
          "name": "B4",
          "midi": 71,
          "time": 53.11627906976517,
          "velocity": 0.47244094488188976,
          "duration": 0.12790697674416407
        },
        {
          "name": "G#3",
          "midi": 56,
          "time": 53.12790697674191,
          "velocity": 0.33858267716535434,
          "duration": 0.023255813953483084
        },
        {
          "name": "F#6",
          "midi": 90,
          "time": 53.12790697674191,
          "velocity": 0.3858267716535433,
          "duration": 0.1627906976743887
        },
        {
          "name": "F#5",
          "midi": 78,
          "time": 53.162790697672136,
          "velocity": 0.4645669291338583,
          "duration": 0.12790697674416407
        },
        {
          "name": "D#7",
          "midi": 99,
          "time": 53.162790697672136,
          "velocity": 0.23622047244094488,
          "duration": 0.11627906976742253
        },
        {
          "name": "B3",
          "midi": 59,
          "time": 53.17441860464888,
          "velocity": 0.23622047244094488,
          "duration": 0.058139534883714816
        },
        {
          "name": "F#4",
          "midi": 66,
          "time": 53.17441860464888,
          "velocity": 0.14960629921259844,
          "duration": 0.09302325581393944
        },
        {
          "name": "D#6",
          "midi": 87,
          "time": 53.17441860464888,
          "velocity": 0.3858267716535433,
          "duration": 0.10465116279068098
        },
        {
          "name": "A6",
          "midi": 93,
          "time": 53.17441860464888,
          "velocity": 0.2440944881889764,
          "duration": 0.09302325581393944
        },
        {
          "name": "A#5",
          "midi": 82,
          "time": 53.18604651162562,
          "velocity": 0.2047244094488189,
          "duration": 0.06976744186045636
        },
        {
          "name": "F#2",
          "midi": 42,
          "time": 53.19767441860236,
          "velocity": 0.4566929133858268,
          "duration": 0.02325581395349019
        },
        {
          "name": "A#4",
          "midi": 70,
          "time": 53.244186046509334,
          "velocity": 0.3464566929133858,
          "duration": 0.023255813953483084
        },
        {
          "name": "C#5",
          "midi": 73,
          "time": 53.244186046509334,
          "velocity": 0.13385826771653545,
          "duration": 0.20930232558134776
        },
        {
          "name": "E7",
          "midi": 100,
          "time": 53.255813953486076,
          "velocity": 0.11023622047244094,
          "duration": 0.05813953488370771
        },
        {
          "name": "E4",
          "midi": 64,
          "time": 53.26744186046282,
          "velocity": 0.33070866141732286,
          "duration": 0.023255813953483084
        },
        {
          "name": "A#5",
          "midi": 82,
          "time": 53.26744186046282,
          "velocity": 0.1889763779527559,
          "duration": 0.10465116279067388
        },
        {
          "name": "G#6",
          "midi": 92,
          "time": 53.26744186046282,
          "velocity": 0.2440944881889764,
          "duration": 0.05813953488370771
        },
        {
          "name": "B3",
          "midi": 59,
          "time": 53.30232558139304,
          "velocity": 0.4645669291338583,
          "duration": 0.1627906976743816
        },
        {
          "name": "A#4",
          "midi": 70,
          "time": 53.30232558139304,
          "velocity": 0.4645669291338583,
          "duration": 0.7790697674417331
        },
        {
          "name": "F4",
          "midi": 65,
          "time": 53.31395348836978,
          "velocity": 0.2992125984251969,
          "duration": 0.023255813953483084
        },
        {
          "name": "B6",
          "midi": 95,
          "time": 53.31395348836978,
          "velocity": 0.30708661417322836,
          "duration": 0.18604651162786467
        },
        {
          "name": "D#7",
          "midi": 99,
          "time": 53.31395348836978,
          "velocity": 0.31496062992125984,
          "duration": 0.19767441860460622
        },
        {
          "name": "C6",
          "midi": 84,
          "time": 53.325581395346525,
          "velocity": 0.07086614173228346,
          "duration": 0.12790697674415696
        },
        {
          "name": "C#7",
          "midi": 97,
          "time": 53.325581395346525,
          "velocity": 0.31496062992125984,
          "duration": 0.19767441860460622
        },
        {
          "name": "F#2",
          "midi": 42,
          "time": 53.34883720930001,
          "velocity": 0.4409448818897638,
          "duration": 0.034883720930224626
        },
        {
          "name": "F4",
          "midi": 65,
          "time": 53.36046511627675,
          "velocity": 0.29133858267716534,
          "duration": 0.023255813953483084
        },
        {
          "name": "F4",
          "midi": 65,
          "time": 53.395348837206974,
          "velocity": 0.3228346456692913,
          "duration": 0.034883720930224626
        },
        {
          "name": "F#2",
          "midi": 42,
          "time": 53.406976744183716,
          "velocity": 0.4251968503937008,
          "duration": 0.023255813953483084
        },
        {
          "name": "D#3",
          "midi": 51,
          "time": 53.406976744183716,
          "velocity": 0.4566929133858268,
          "duration": 0.023255813953483084
        },
        {
          "name": "A6",
          "midi": 93,
          "time": 53.41860465116046,
          "velocity": 0.28346456692913385,
          "duration": 0.05813953488370771
        },
        {
          "name": "D7",
          "midi": 98,
          "time": 53.4302325581372,
          "velocity": 0.36220472440944884,
          "duration": 0.05813953488370771
        },
        {
          "name": "F#2",
          "midi": 42,
          "time": 53.44186046511394,
          "velocity": 0.4330708661417323,
          "duration": 0.023255813953483084
        },
        {
          "name": "D#3",
          "midi": 51,
          "time": 53.44186046511394,
          "velocity": 0.4251968503937008,
          "duration": 0.023255813953483084
        },
        {
          "name": "F#5",
          "midi": 78,
          "time": 53.44186046511394,
          "velocity": 0.2204724409448819,
          "duration": 0.15116279069764005
        },
        {
          "name": "E6",
          "midi": 88,
          "time": 53.44186046511394,
          "velocity": 0.15748031496062992,
          "duration": 0.04651162790696617
        },
        {
          "name": "F#6",
          "midi": 90,
          "time": 53.44186046511394,
          "velocity": 0.2204724409448819,
          "duration": 0.12790697674415696
        },
        {
          "name": "A#6",
          "midi": 94,
          "time": 53.44186046511394,
          "velocity": 0.2677165354330709,
          "duration": 0.06976744186044925
        },
        {
          "name": "C7",
          "midi": 96,
          "time": 53.44186046511394,
          "velocity": 0.23622047244094488,
          "duration": 0.06976744186044925
        },
        {
          "name": "E7",
          "midi": 100,
          "time": 53.44186046511394,
          "velocity": 0.23622047244094488,
          "duration": 0.0813953488371908
        },
        {
          "name": "F7",
          "midi": 101,
          "time": 53.44186046511394,
          "velocity": 0.2677165354330709,
          "duration": 0.0813953488371908
        },
        {
          "name": "G7",
          "midi": 103,
          "time": 53.44186046511394,
          "velocity": 0.1889763779527559,
          "duration": 0.0813953488371908
        },
        {
          "name": "D6",
          "midi": 86,
          "time": 53.45348837209068,
          "velocity": 0.11811023622047244,
          "duration": 0.034883720930224626
        },
        {
          "name": "G6",
          "midi": 91,
          "time": 53.45348837209068,
          "velocity": 0.12598425196850394,
          "duration": 0.06976744186044925
        },
        {
          "name": "C4",
          "midi": 60,
          "time": 53.46511627906742,
          "velocity": 0.4566929133858268,
          "duration": 0.023255813953483084
        },
        {
          "name": "C#5",
          "midi": 73,
          "time": 53.46511627906742,
          "velocity": 0.16535433070866143,
          "duration": 0.10465116279067388
        },
        {
          "name": "F#2",
          "midi": 42,
          "time": 53.476744186044165,
          "velocity": 0.4330708661417323,
          "duration": 0.034883720930224626
        },
        {
          "name": "D#3",
          "midi": 51,
          "time": 53.476744186044165,
          "velocity": 0.4251968503937008,
          "duration": 0.023255813953483084
        },
        {
          "name": "G#6",
          "midi": 92,
          "time": 53.476744186044165,
          "velocity": 0.25196850393700787,
          "duration": 0.023255813953483084
        },
        {
          "name": "B3",
          "midi": 59,
          "time": 53.48837209302091,
          "velocity": 0.44881889763779526,
          "duration": 0.034883720930224626
        },
        {
          "name": "F4",
          "midi": 65,
          "time": 53.49999999999765,
          "velocity": 0.33858267716535434,
          "duration": 0.023255813953483084
        },
        {
          "name": "F6",
          "midi": 89,
          "time": 53.49999999999765,
          "velocity": 0.2204724409448819,
          "duration": 0.2674418604650697
        },
        {
          "name": "D#3",
          "midi": 51,
          "time": 53.51162790697439,
          "velocity": 0.4330708661417323,
          "duration": 0.04651162790696617
        },
        {
          "name": "F#2",
          "midi": 42,
          "time": 53.52325581395113,
          "velocity": 0.41732283464566927,
          "duration": 0.023255813953483084
        },
        {
          "name": "C6",
          "midi": 84,
          "time": 53.52325581395113,
          "velocity": 0.25196850393700787,
          "duration": 0.12790697674415696
        },
        {
          "name": "C#4",
          "midi": 61,
          "time": 53.53488372092787,
          "velocity": 0.47244094488188976,
          "duration": 0.034883720930224626
        },
        {
          "name": "G#4",
          "midi": 68,
          "time": 53.53488372092787,
          "velocity": 0.28346456692913385,
          "duration": 0.023255813953483084
        },
        {
          "name": "F#4",
          "midi": 66,
          "time": 53.546511627904614,
          "velocity": 0.31496062992125984,
          "duration": 0.023255813953483084
        },
        {
          "name": "D3",
          "midi": 50,
          "time": 53.558139534881356,
          "velocity": 0.4094488188976378,
          "duration": 0.023255813953483084
        },
        {
          "name": "F#2",
          "midi": 42,
          "time": 53.5697674418581,
          "velocity": 0.4015748031496063,
          "duration": 0.023255813953483084
        },
        {
          "name": "C4",
          "midi": 60,
          "time": 53.5697674418581,
          "velocity": 0.4566929133858268,
          "duration": 0.06976744186044925
        },
        {
          "name": "G6",
          "midi": 91,
          "time": 53.5697674418581,
          "velocity": 0.28346456692913385,
          "duration": 0.0813953488371908
        },
        {
          "name": "E7",
          "midi": 100,
          "time": 53.5697674418581,
          "velocity": 0.2125984251968504,
          "duration": 0.11627906976742253
        },
        {
          "name": "F4",
          "midi": 65,
          "time": 53.58139534883484,
          "velocity": 0.3228346456692913,
          "duration": 0.034883720930224626
        },
        {
          "name": "G5",
          "midi": 79,
          "time": 53.58139534883484,
          "velocity": 0.3700787401574803,
          "duration": 0.04651162790696617
        },
        {
          "name": "E6",
          "midi": 88,
          "time": 53.58139534883484,
          "velocity": 0.18110236220472442,
          "duration": 0.04651162790696617
        },
        {
          "name": "A#6",
          "midi": 94,
          "time": 53.58139534883484,
          "velocity": 0.33070866141732286,
          "duration": 0.04651162790696617
        },
        {
          "name": "D7",
          "midi": 98,
          "time": 53.58139534883484,
          "velocity": 0.14173228346456693,
          "duration": 0.034883720930224626
        },
        {
          "name": "D#4",
          "midi": 63,
          "time": 53.60465116278832,
          "velocity": 0.3779527559055118,
          "duration": 0.4883720930231945
        },
        {
          "name": "C#5",
          "midi": 73,
          "time": 53.61627906976506,
          "velocity": 0.09448818897637795,
          "duration": 0.04651162790696617
        },
        {
          "name": "A6",
          "midi": 93,
          "time": 53.61627906976506,
          "velocity": 0.23622047244094488,
          "duration": 0.06976744186045636
        },
        {
          "name": "F#5",
          "midi": 78,
          "time": 53.627906976741805,
          "velocity": 0.4251968503937008,
          "duration": 0.20930232558136197
        },
        {
          "name": "B5",
          "midi": 83,
          "time": 53.627906976741805,
          "velocity": 0.1968503937007874,
          "duration": 0.058139534883714816
        },
        {
          "name": "D#6",
          "midi": 87,
          "time": 53.627906976741805,
          "velocity": 0.1889763779527559,
          "duration": 0.06976744186045636
        },
        {
          "name": "B3",
          "midi": 59,
          "time": 53.63953488371855,
          "velocity": 0.2992125984251969,
          "duration": 0.058139534883714816
        },
        {
          "name": "F#4",
          "midi": 66,
          "time": 53.65116279069529,
          "velocity": 0.3937007874015748,
          "duration": 0.47674418604645297
        },
        {
          "name": "F#2",
          "midi": 42,
          "time": 53.68604651162552,
          "velocity": 0.3779527559055118,
          "duration": 0.023255813953483084
        },
        {
          "name": "C#5",
          "midi": 73,
          "time": 53.68604651162552,
          "velocity": 0.13385826771653545,
          "duration": 0.1395348837209056
        },
        {
          "name": "A#3",
          "midi": 58,
          "time": 53.69767441860226,
          "velocity": 0.4094488188976378,
          "duration": 0.09302325581393944
        },
        {
          "name": "C#6",
          "midi": 85,
          "time": 53.709302325579,
          "velocity": 0.28346456692913385,
          "duration": 0.11627906976742253
        },
        {
          "name": "D6",
          "midi": 86,
          "time": 53.720930232555745,
          "velocity": 0.28346456692913385,
          "duration": 0.058139534883714816
        },
        {
          "name": "F#2",
          "midi": 42,
          "time": 53.732558139532486,
          "velocity": 0.3700787401574803,
          "duration": 0.02325581395349019
        },
        {
          "name": "E6",
          "midi": 88,
          "time": 53.755813953485976,
          "velocity": 0.3228346456692913,
          "duration": 0.04651162790696617
        },
        {
          "name": "B5",
          "midi": 83,
          "time": 53.76744186046272,
          "velocity": 0.1732283464566929,
          "duration": 0.034883720930224626
        },
        {
          "name": "A5",
          "midi": 81,
          "time": 53.77906976743946,
          "velocity": 0.30708661417322836,
          "duration": 0.023255813953483084
        },
        {
          "name": "D#6",
          "midi": 87,
          "time": 53.77906976743946,
          "velocity": 0.3228346456692913,
          "duration": 0.04651162790696617
        },
        {
          "name": "F6",
          "midi": 89,
          "time": 53.77906976743946,
          "velocity": 0.3464566929133858,
          "duration": 0.05813953488370771
        },
        {
          "name": "G6",
          "midi": 91,
          "time": 53.77906976743946,
          "velocity": 0.1968503937007874,
          "duration": 0.186046511627886
        },
        {
          "name": "B3",
          "midi": 59,
          "time": 53.7906976744162,
          "velocity": 0.2204724409448819,
          "duration": 0.0813953488371908
        },
        {
          "name": "G#5",
          "midi": 80,
          "time": 53.80232558139294,
          "velocity": 0.4251968503937008,
          "duration": 0.10465116279068098
        },
        {
          "name": "B5",
          "midi": 83,
          "time": 53.813953488369684,
          "velocity": 0.23622047244094488,
          "duration": 0.023255813953483084
        },
        {
          "name": "D6",
          "midi": 86,
          "time": 53.813953488369684,
          "velocity": 0.2283464566929134,
          "duration": 0.05813953488370771
        },
        {
          "name": "E6",
          "midi": 88,
          "time": 53.813953488369684,
          "velocity": 0.25196850393700787,
          "duration": 0.06976744186044925
        },
        {
          "name": "C#5",
          "midi": 73,
          "time": 53.83720930232317,
          "velocity": 0.11811023622047244,
          "duration": 0.034883720930224626
        },
        {
          "name": "F5",
          "midi": 77,
          "time": 53.83720930232317,
          "velocity": 0.33070866141732286,
          "duration": 0.06976744186045636
        },
        {
          "name": "C#6",
          "midi": 85,
          "time": 53.83720930232317,
          "velocity": 0.16535433070866143,
          "duration": 0.11627906976743674
        },
        {
          "name": "F#6",
          "midi": 90,
          "time": 53.83720930232317,
          "velocity": 0.3543307086614173,
          "duration": 0.034883720930224626
        },
        {
          "name": "F#2",
          "midi": 42,
          "time": 53.84883720929991,
          "velocity": 0.33858267716535434,
          "duration": 0.023255813953483084
        },
        {
          "name": "F#3",
          "midi": 54,
          "time": 53.84883720929991,
          "velocity": 0.3543307086614173,
          "duration": 0.023255813953483084
        },
        {
          "name": "D5",
          "midi": 74,
          "time": 53.86046511627665,
          "velocity": 0.23622047244094488,
          "duration": 0.06976744186046346
        },
        {
          "name": "C6",
          "midi": 84,
          "time": 53.87209302325339,
          "velocity": 0.10236220472440945,
          "duration": 0.03488372093023173
        },
        {
          "name": "G2",
          "midi": 43,
          "time": 53.930232558137114,
          "velocity": 0.3464566929133858,
          "duration": 0.02325581395349019
        },
        {
          "name": "C#5",
          "midi": 73,
          "time": 53.930232558137114,
          "velocity": 0.10236220472440945,
          "duration": 0.12790697674417828
        },
        {
          "name": "A#6",
          "midi": 94,
          "time": 53.99999999999758,
          "velocity": 0.30708661417322836,
          "duration": 0.3023255813953085
        },
        {
          "name": "D7",
          "midi": 98,
          "time": 54.01162790697432,
          "velocity": 0.33070866141732286,
          "duration": 0.1627906976743887
        },
        {
          "name": "D#7",
          "midi": 99,
          "time": 54.01162790697432,
          "velocity": 0.2992125984251969,
          "duration": 0.20930232558136197
        },
        {
          "name": "A#3",
          "midi": 58,
          "time": 54.02325581395106,
          "velocity": 0.4251968503937008,
          "duration": 0.046511627906973274
        },
        {
          "name": "C7",
          "midi": 96,
          "time": 54.02325581395106,
          "velocity": 0.25984251968503935,
          "duration": 0.046511627906973274
        },
        {
          "name": "C#7",
          "midi": 97,
          "time": 54.04651162790455,
          "velocity": 0.3228346456692913,
          "duration": 0.11627906976741542
        },
        {
          "name": "F#3",
          "midi": 54,
          "time": 54.05813953488129,
          "velocity": 0.33070866141732286,
          "duration": 0.023255813953483084
        },
        {
          "name": "C1",
          "midi": 24,
          "time": 54.06976744185803,
          "velocity": 0.5905511811023622,
          "duration": 0.011627906976741542
        },
        {
          "name": "B3",
          "midi": 59,
          "time": 54.06976744185803,
          "velocity": 0.3858267716535433,
          "duration": 0.04651162790696617
        },
        {
          "name": "B6",
          "midi": 95,
          "time": 54.06976744185803,
          "velocity": 0.30708661417322836,
          "duration": 0.04651162790696617
        },
        {
          "name": "F7",
          "midi": 101,
          "time": 54.06976744185803,
          "velocity": 0.29133858267716534,
          "duration": 0.0813953488371908
        },
        {
          "name": "B0",
          "midi": 23,
          "time": 54.081395348834775,
          "velocity": 0.5984251968503937,
          "duration": 0.023255813953483084
        },
        {
          "name": "F#6",
          "midi": 90,
          "time": 54.081395348834775,
          "velocity": 0.13385826771653545,
          "duration": 0.034883720930224626
        },
        {
          "name": "A6",
          "midi": 93,
          "time": 54.081395348834775,
          "velocity": 0.29133858267716534,
          "duration": 0.034883720930224626
        },
        {
          "name": "C7",
          "midi": 96,
          "time": 54.081395348834775,
          "velocity": 0.28346456692913385,
          "duration": 0.1627906976743887
        },
        {
          "name": "E7",
          "midi": 100,
          "time": 54.081395348834775,
          "velocity": 0.30708661417322836,
          "duration": 0.0813953488371908
        },
        {
          "name": "F3",
          "midi": 53,
          "time": 54.09302325581152,
          "velocity": 0.3543307086614173,
          "duration": 0.20930232558136908
        },
        {
          "name": "D6",
          "midi": 86,
          "time": 54.09302325581152,
          "velocity": 0.14173228346456693,
          "duration": 0.04651162790696617
        },
        {
          "name": "G7",
          "midi": 103,
          "time": 54.09302325581152,
          "velocity": 0.1732283464566929,
          "duration": 0.06976744186044925
        },
        {
          "name": "C1",
          "midi": 24,
          "time": 54.10465116278826,
          "velocity": 0.5748031496062992,
          "duration": 0.011627906976741542
        },
        {
          "name": "B0",
          "midi": 23,
          "time": 54.116279069765,
          "velocity": 0.5669291338582677,
          "duration": 0.011627906976741542
        },
        {
          "name": "A#3",
          "midi": 58,
          "time": 54.116279069765,
          "velocity": 0.3543307086614173,
          "duration": 0.19767441860462753
        },
        {
          "name": "A#4",
          "midi": 70,
          "time": 54.116279069765,
          "velocity": 0.49606299212598426,
          "duration": 0.23255813953485927
        },
        {
          "name": "A5",
          "midi": 81,
          "time": 54.116279069765,
          "velocity": 0.14173228346456693,
          "duration": 0.04651162790696617
        },
        {
          "name": "G#6",
          "midi": 92,
          "time": 54.116279069765,
          "velocity": 0.25984251968503935,
          "duration": 0.05813953488370771
        },
        {
          "name": "A#0",
          "midi": 22,
          "time": 54.12790697674174,
          "velocity": 0.5748031496062992,
          "duration": 0.011627906976741542
        },
        {
          "name": "G4",
          "midi": 67,
          "time": 54.12790697674174,
          "velocity": 0.2755905511811024,
          "duration": 0.023255813953483084
        },
        {
          "name": "F#6",
          "midi": 90,
          "time": 54.12790697674174,
          "velocity": 0.14173228346456693,
          "duration": 0.04651162790696617
        },
        {
          "name": "B0",
          "midi": 23,
          "time": 54.13953488371848,
          "velocity": 0.5826771653543307,
          "duration": 0.3720930232557649
        },
        {
          "name": "G#4",
          "midi": 68,
          "time": 54.151162790695224,
          "velocity": 0.2755905511811024,
          "duration": 0.023255813953483084
        },
        {
          "name": "F5",
          "midi": 77,
          "time": 54.151162790695224,
          "velocity": 0.11023622047244094,
          "duration": 0.058139534883714816
        },
        {
          "name": "D#6",
          "midi": 87,
          "time": 54.162790697671966,
          "velocity": 0.10236220472440945,
          "duration": 0.2906976744185741
        },
        {
          "name": "G#4",
          "midi": 68,
          "time": 54.18604651162545,
          "velocity": 0.2755905511811024,
          "duration": 0.046511627906973274
        },
        {
          "name": "G#4",
          "midi": 68,
          "time": 54.244186046509164,
          "velocity": 0.2755905511811024,
          "duration": 0.02325581395349019
        },
        {
          "name": "F#3",
          "midi": 54,
          "time": 54.302325581392886,
          "velocity": 0.3228346456692913,
          "duration": 0.03488372093023173
        },
        {
          "name": "C#5",
          "midi": 73,
          "time": 54.302325581392886,
          "velocity": 0.14173228346456693,
          "duration": 0.19767441860462043
        },
        {
          "name": "G#4",
          "midi": 68,
          "time": 54.33720930232312,
          "velocity": 0.33858267716535434,
          "duration": 0.023255813953483084
        },
        {
          "name": "F#3",
          "midi": 54,
          "time": 54.34883720929986,
          "velocity": 0.3228346456692913,
          "duration": 0.05813953488370771
        },
        {
          "name": "G#4",
          "midi": 68,
          "time": 54.37209302325334,
          "velocity": 0.4566929133858268,
          "duration": 0.09302325581393944
        },
        {
          "name": "C#4",
          "midi": 61,
          "time": 54.38372093023008,
          "velocity": 0.3543307086614173,
          "duration": 0.023255813953483084
        },
        {
          "name": "D#3",
          "midi": 51,
          "time": 54.395348837206825,
          "velocity": 0.30708661417322836,
          "duration": 0.023255813953483084
        },
        {
          "name": "F3",
          "midi": 53,
          "time": 54.41860465116031,
          "velocity": 0.30708661417322836,
          "duration": 0.02325581395349019
        },
        {
          "name": "C7",
          "midi": 96,
          "time": 54.41860465116031,
          "velocity": 0.29133858267716534,
          "duration": 0.11627906976742253
        },
        {
          "name": "G3",
          "midi": 55,
          "time": 54.4418604651138,
          "velocity": 0.36220472440944884,
          "duration": 0.023255813953483084
        },
        {
          "name": "A#6",
          "midi": 94,
          "time": 54.4418604651138,
          "velocity": 0.11811023622047244,
          "duration": 0.034883720930224626
        },
        {
          "name": "F#3",
          "midi": 54,
          "time": 54.46511627906728,
          "velocity": 0.28346456692913385,
          "duration": 0.05813953488370771
        },
        {
          "name": "A#3",
          "midi": 58,
          "time": 54.47674418604402,
          "velocity": 0.33070866141732286,
          "duration": 0.04651162790696617
        },
        {
          "name": "G#4",
          "midi": 68,
          "time": 54.47674418604402,
          "velocity": 0.28346456692913385,
          "duration": 0.034883720930224626
        },
        {
          "name": "D#6",
          "midi": 87,
          "time": 54.47674418604402,
          "velocity": 0.09448818897637795,
          "duration": 0.034883720930224626
        },
        {
          "name": "B6",
          "midi": 95,
          "time": 54.488372093020764,
          "velocity": 0.2440944881889764,
          "duration": 0.04651162790696617
        },
        {
          "name": "A#6",
          "midi": 94,
          "time": 54.499999999997506,
          "velocity": 0.18110236220472442,
          "duration": 0.11627906976741542
        },
        {
          "name": "D#5",
          "midi": 75,
          "time": 54.51162790697425,
          "velocity": 0.2283464566929134,
          "duration": 0.1395348837209056
        },
        {
          "name": "B0",
          "midi": 23,
          "time": 54.52325581395099,
          "velocity": 0.4409448818897638,
          "duration": 0.15116279069764715
        },
        {
          "name": "G#3",
          "midi": 56,
          "time": 54.53488372092773,
          "velocity": 0.3228346456692913,
          "duration": 0.0813953488371908
        },
        {
          "name": "B6",
          "midi": 95,
          "time": 54.54651162790447,
          "velocity": 0.18110236220472442,
          "duration": 0.11627906976742253
        },
        {
          "name": "B3",
          "midi": 59,
          "time": 54.558139534881214,
          "velocity": 0.2283464566929134,
          "duration": 0.023255813953483084
        },
        {
          "name": "A#4",
          "midi": 70,
          "time": 54.569767441857955,
          "velocity": 0.3700787401574803,
          "duration": 0.2441860465116008
        },
        {
          "name": "D7",
          "midi": 98,
          "time": 54.569767441857955,
          "velocity": 0.10236220472440945,
          "duration": 0.05813953488370771
        },
        {
          "name": "F6",
          "midi": 89,
          "time": 54.59302325581144,
          "velocity": 0.11023622047244094,
          "duration": 0.3488372093022818
        },
        {
          "name": "C#5",
          "midi": 73,
          "time": 54.60465116278818,
          "velocity": 0.25196850393700787,
          "duration": 0.046511627906973274
        },
        {
          "name": "G#3",
          "midi": 56,
          "time": 54.62790697674166,
          "velocity": 0.31496062992125984,
          "duration": 0.09302325581394655
        },
        {
          "name": "D5",
          "midi": 74,
          "time": 54.65116279069515,
          "velocity": 0.14960629921259844,
          "duration": 0.034883720930224626
        },
        {
          "name": "E4",
          "midi": 64,
          "time": 54.662790697671895,
          "velocity": 0.16535433070866143,
          "duration": 0.034883720930224626
        },
        {
          "name": "D#5",
          "midi": 75,
          "time": 54.68604651162538,
          "velocity": 0.10236220472440945,
          "duration": 0.046511627906973274
        },
        {
          "name": "A#3",
          "midi": 58,
          "time": 54.73255813953235,
          "velocity": 0.3700787401574803,
          "duration": 0.13953488372091272
        },
        {
          "name": "F5",
          "midi": 77,
          "time": 54.74418604650909,
          "velocity": 0.3779527559055118,
          "duration": 0.6279069767441143
        },
        {
          "name": "D4",
          "midi": 62,
          "time": 54.802325581392815,
          "velocity": 0.4566929133858268,
          "duration": 0.034883720930224626
        },
        {
          "name": "G#4",
          "midi": 68,
          "time": 54.802325581392815,
          "velocity": 0.2755905511811024,
          "duration": 0.023255813953483084
        },
        {
          "name": "D7",
          "midi": 98,
          "time": 54.802325581392815,
          "velocity": 0.13385826771653545,
          "duration": 0.12790697674416407
        },
        {
          "name": "F#4",
          "midi": 66,
          "time": 54.813953488369556,
          "velocity": 0.5354330708661418,
          "duration": 0.034883720930224626
        },
        {
          "name": "C#7",
          "midi": 97,
          "time": 54.813953488369556,
          "velocity": 0.25984251968503935,
          "duration": 0.10465116279068098
        },
        {
          "name": "C7",
          "midi": 96,
          "time": 54.83720930232304,
          "velocity": 0.28346456692913385,
          "duration": 0.1395348837209056
        },
        {
          "name": "G#4",
          "midi": 68,
          "time": 54.84883720929978,
          "velocity": 0.3228346456692913,
          "duration": 0.023255813953483084
        },
        {
          "name": "F#4",
          "midi": 66,
          "time": 54.86046511627652,
          "velocity": 0.25196850393700787,
          "duration": 0.023255813953483084
        },
        {
          "name": "B4",
          "midi": 71,
          "time": 54.86046511627652,
          "velocity": 0.44881889763779526,
          "duration": 0.058139534883714816
        },
        {
          "name": "D#7",
          "midi": 99,
          "time": 54.86046511627652,
          "velocity": 0.2283464566929134,
          "duration": 0.09302325581393944
        },
        {
          "name": "B3",
          "midi": 59,
          "time": 54.872093023253264,
          "velocity": 0.3937007874015748,
          "duration": 0.03488372093023173
        },
        {
          "name": "F7",
          "midi": 101,
          "time": 54.872093023253264,
          "velocity": 0.2125984251968504,
          "duration": 0.046511627906973274
        },
        {
          "name": "F#7",
          "midi": 102,
          "time": 54.872093023253264,
          "velocity": 0.11023622047244094,
          "duration": 0.03488372093023173
        },
        {
          "name": "A#3",
          "midi": 58,
          "time": 54.906976744183495,
          "velocity": 0.3700787401574803,
          "duration": 0.034883720930224626
        },
        {
          "name": "A#4",
          "midi": 70,
          "time": 54.91860465116024,
          "velocity": 0.49606299212598426,
          "duration": 0.034883720930224626
        },
        {
          "name": "A#6",
          "midi": 94,
          "time": 54.91860465116024,
          "velocity": 0.2283464566929134,
          "duration": 0.05813953488370771
        },
        {
          "name": "B6",
          "midi": 95,
          "time": 54.91860465116024,
          "velocity": 0.2283464566929134,
          "duration": 0.11627906976741542
        },
        {
          "name": "G#4",
          "midi": 68,
          "time": 54.93023255813698,
          "velocity": 0.4251968503937008,
          "duration": 0.5116279069766776
        },
        {
          "name": "F#1",
          "midi": 30,
          "time": 54.94186046511372,
          "velocity": 0.6929133858267716,
          "duration": 0.023255813953483084
        },
        {
          "name": "E4",
          "midi": 64,
          "time": 54.94186046511372,
          "velocity": 0.25196850393700787,
          "duration": 0.023255813953483084
        },
        {
          "name": "D3",
          "midi": 50,
          "time": 54.95348837209046,
          "velocity": 0.4881889763779528,
          "duration": 0.023255813953483084
        },
        {
          "name": "A#3",
          "midi": 58,
          "time": 54.95348837209046,
          "velocity": 0.4330708661417323,
          "duration": 0.034883720930224626
        },
        {
          "name": "D#6",
          "midi": 87,
          "time": 54.95348837209046,
          "velocity": 0.11811023622047244,
          "duration": 0.33720930232555446
        },
        {
          "name": "E1",
          "midi": 28,
          "time": 54.9651162790672,
          "velocity": 0.7165354330708661,
          "duration": 0.011627906976741542
        },
        {
          "name": "D#4",
          "midi": 63,
          "time": 54.9651162790672,
          "velocity": 0.2755905511811024,
          "duration": 0.034883720930224626
        },
        {
          "name": "D#1",
          "midi": 27,
          "time": 54.976744186043945,
          "velocity": 0.7401574803149606,
          "duration": 1.2441860465114516
        },
        {
          "name": "G3",
          "midi": 55,
          "time": 54.988372093020686,
          "velocity": 0.5118110236220472,
          "duration": 0.4302325581394868
        },
        {
          "name": "C7",
          "midi": 96,
          "time": 54.988372093020686,
          "velocity": 0.2047244094488189,
          "duration": 0.13953488372091982
        },
        {
          "name": "D5",
          "midi": 74,
          "time": 55.01162790697417,
          "velocity": 0.16535433070866143,
          "duration": 0.058139534883714816
        },
        {
          "name": "A#6",
          "midi": 94,
          "time": 55.01162790697417,
          "velocity": 0.13385826771653545,
          "duration": 0.034883720930224626
        },
        {
          "name": "A#2",
          "midi": 46,
          "time": 55.02325581395091,
          "velocity": 0.4330708661417323,
          "duration": 0.2906976744185883
        },
        {
          "name": "A#4",
          "midi": 70,
          "time": 55.046511627904394,
          "velocity": 0.30708661417322836,
          "duration": 0.15116279069767558
        },
        {
          "name": "D#5",
          "midi": 75,
          "time": 55.046511627904394,
          "velocity": 0.14173228346456693,
          "duration": 0.04651162790698038
        },
        {
          "name": "D#4",
          "midi": 63,
          "time": 55.104651162788116,
          "velocity": 0.11811023622047244,
          "duration": 0.03488372093023173
        },
        {
          "name": "F4",
          "midi": 65,
          "time": 55.16279069767184,
          "velocity": 0.14173228346456693,
          "duration": 0.03488372093023173
        },
        {
          "name": "A#4",
          "midi": 70,
          "time": 55.20930232557881,
          "velocity": 0.2755905511811024,
          "duration": 0.05813953488372192
        },
        {
          "name": "D4",
          "midi": 62,
          "time": 55.2325581395323,
          "velocity": 0.08661417322834646,
          "duration": 0.03488372093023173
        },
        {
          "name": "D#5",
          "midi": 75,
          "time": 55.2325581395323,
          "velocity": 0.08661417322834646,
          "duration": 0.03488372093023173
        },
        {
          "name": "G5",
          "midi": 79,
          "time": 55.24418604650904,
          "velocity": 0.14173228346456693,
          "duration": 0.03488372093023173
        },
        {
          "name": "A#5",
          "midi": 82,
          "time": 55.26744186046253,
          "velocity": 0.13385826771653545,
          "duration": 0.06976744186044925
        },
        {
          "name": "C7",
          "midi": 96,
          "time": 55.30232558139276,
          "velocity": 0.2125984251968504,
          "duration": 0.17441860465112313
        },
        {
          "name": "D6",
          "midi": 86,
          "time": 55.3139534883695,
          "velocity": 0.11811023622047244,
          "duration": 0.0813953488371908
        },
        {
          "name": "G#6",
          "midi": 92,
          "time": 55.3139534883695,
          "velocity": 0.09448818897637795,
          "duration": 0.034883720930224626
        },
        {
          "name": "A#2",
          "midi": 46,
          "time": 55.32558139534624,
          "velocity": 0.4330708661417323,
          "duration": 0.11627906976741542
        },
        {
          "name": "A#3",
          "midi": 58,
          "time": 55.32558139534624,
          "velocity": 0.4409448818897638,
          "duration": 0.023255813953483084
        },
        {
          "name": "C5",
          "midi": 72,
          "time": 55.33720930232298,
          "velocity": 0.36220472440944884,
          "duration": 0.023255813953483084
        },
        {
          "name": "F#6",
          "midi": 90,
          "time": 55.33720930232298,
          "velocity": 0.18110236220472442,
          "duration": 0.04651162790696617
        },
        {
          "name": "B4",
          "midi": 71,
          "time": 55.360465116276465,
          "velocity": 0.4015748031496063,
          "duration": 0.17441860465112313
        },
        {
          "name": "E5",
          "midi": 76,
          "time": 55.360465116276465,
          "velocity": 0.14960629921259844,
          "duration": 0.034883720930224626
        },
        {
          "name": "D#6",
          "midi": 87,
          "time": 55.360465116276465,
          "velocity": 0.15748031496062992,
          "duration": 0.4883720930231661
        },
        {
          "name": "G#6",
          "midi": 92,
          "time": 55.360465116276465,
          "velocity": 0.14173228346456693,
          "duration": 0.0813953488371908
        },
        {
          "name": "B6",
          "midi": 95,
          "time": 55.360465116276465,
          "velocity": 0.14960629921259844,
          "duration": 0.06976744186044925
        },
        {
          "name": "D5",
          "midi": 74,
          "time": 55.37209302325321,
          "velocity": 0.2677165354330709,
          "duration": 0.023255813953483084
        },
        {
          "name": "D#4",
          "midi": 63,
          "time": 55.39534883720669,
          "velocity": 0.13385826771653545,
          "duration": 0.034883720930224626
        },
        {
          "name": "C#5",
          "midi": 73,
          "time": 55.39534883720669,
          "velocity": 0.2677165354330709,
          "duration": 0.023255813953483084
        },
        {
          "name": "F5",
          "midi": 77,
          "time": 55.39534883720669,
          "velocity": 0.23622047244094488,
          "duration": 0.7906976744184817
        },
        {
          "name": "D7",
          "midi": 98,
          "time": 55.40697674418343,
          "velocity": 0.1889763779527559,
          "duration": 0.04651162790696617
        },
        {
          "name": "D#7",
          "midi": 99,
          "time": 55.40697674418343,
          "velocity": 0.2047244094488189,
          "duration": 0.034883720930224626
        },
        {
          "name": "A#6",
          "midi": 94,
          "time": 55.41860465116017,
          "velocity": 0.11811023622047244,
          "duration": 0.034883720930224626
        },
        {
          "name": "E7",
          "midi": 100,
          "time": 55.41860465116017,
          "velocity": 0.15748031496062992,
          "duration": 0.034883720930224626
        },
        {
          "name": "G3",
          "midi": 55,
          "time": 55.430232558136915,
          "velocity": 0.4566929133858268,
          "duration": 0.09302325581393234
        },
        {
          "name": "A#3",
          "midi": 58,
          "time": 55.430232558136915,
          "velocity": 0.4566929133858268,
          "duration": 0.04651162790696617
        },
        {
          "name": "D6",
          "midi": 86,
          "time": 55.430232558136915,
          "velocity": 0.07086614173228346,
          "duration": 0.034883720930224626
        },
        {
          "name": "A4",
          "midi": 69,
          "time": 55.441860465113656,
          "velocity": 0.33858267716535434,
          "duration": 0.023255813953483084
        },
        {
          "name": "A#2",
          "midi": 46,
          "time": 55.4534883720904,
          "velocity": 0.41732283464566927,
          "duration": 0.034883720930224626
        },
        {
          "name": "G#4",
          "midi": 68,
          "time": 55.4534883720904,
          "velocity": 0.2992125984251969,
          "duration": 0.06976744186044925
        },
        {
          "name": "E7",
          "midi": 100,
          "time": 55.48837209302062,
          "velocity": 0.23622047244094488,
          "duration": 0.05813953488370771
        },
        {
          "name": "A#2",
          "midi": 46,
          "time": 55.499999999997364,
          "velocity": 0.3858267716535433,
          "duration": 0.04651162790696617
        },
        {
          "name": "D#7",
          "midi": 99,
          "time": 55.499999999997364,
          "velocity": 0.1889763779527559,
          "duration": 0.0813953488371908
        },
        {
          "name": "F7",
          "midi": 101,
          "time": 55.499999999997364,
          "velocity": 0.3937007874015748,
          "duration": 0.12790697674416407
        },
        {
          "name": "D7",
          "midi": 98,
          "time": 55.511627906974105,
          "velocity": 0.28346456692913385,
          "duration": 0.10465116279068098
        },
        {
          "name": "A#4",
          "midi": 70,
          "time": 55.52325581395085,
          "velocity": 0.44881889763779526,
          "duration": 0.04651162790696617
        },
        {
          "name": "F#7",
          "midi": 102,
          "time": 55.52325581395085,
          "velocity": 0.2204724409448819,
          "duration": 0.09302325581393944
        },
        {
          "name": "G#4",
          "midi": 68,
          "time": 55.53488372092759,
          "velocity": 0.2992125984251969,
          "duration": 0.06976744186045636
        },
        {
          "name": "A#2",
          "midi": 46,
          "time": 55.55813953488107,
          "velocity": 0.3937007874015748,
          "duration": 0.058139534883714816
        },
        {
          "name": "A#3",
          "midi": 58,
          "time": 55.55813953488107,
          "velocity": 0.44881889763779526,
          "duration": 0.06976744186045636
        },
        {
          "name": "B4",
          "midi": 71,
          "time": 55.55813953488107,
          "velocity": 0.3700787401574803,
          "duration": 0.023255813953483084
        },
        {
          "name": "G#6",
          "midi": 92,
          "time": 55.56976744185781,
          "velocity": 0.08661417322834646,
          "duration": 0.046511627906973274
        },
        {
          "name": "G3",
          "midi": 55,
          "time": 55.581395348834555,
          "velocity": 0.3858267716535433,
          "duration": 0.02325581395349019
        },
        {
          "name": "A#4",
          "midi": 70,
          "time": 55.581395348834555,
          "velocity": 0.4566929133858268,
          "duration": 0.046511627906973274
        },
        {
          "name": "E7",
          "midi": 100,
          "time": 55.581395348834555,
          "velocity": 0.1732283464566929,
          "duration": 0.046511627906973274
        },
        {
          "name": "G#4",
          "midi": 68,
          "time": 55.616279069764786,
          "velocity": 0.2992125984251969,
          "duration": 0.10465116279068809
        },
        {
          "name": "A#2",
          "midi": 46,
          "time": 55.62790697674153,
          "velocity": 0.36220472440944884,
          "duration": 0.046511627906973274
        },
        {
          "name": "A#3",
          "midi": 58,
          "time": 55.63953488371827,
          "velocity": 0.4330708661417323,
          "duration": 0.03488372093023173
        },
        {
          "name": "G3",
          "midi": 55,
          "time": 55.6744186046485,
          "velocity": 0.3779527559055118,
          "duration": 0.058139534883714816
        },
        {
          "name": "A#2",
          "midi": 46,
          "time": 55.68604651162524,
          "velocity": 0.36220472440944884,
          "duration": 0.058139534883714816
        },
        {
          "name": "A#4",
          "midi": 70,
          "time": 55.68604651162524,
          "velocity": 0.28346456692913385,
          "duration": 0.03488372093023173
        },
        {
          "name": "C#4",
          "midi": 61,
          "time": 55.697674418601984,
          "velocity": 0.25196850393700787,
          "duration": 0.03488372093023173
        },
        {
          "name": "B4",
          "midi": 71,
          "time": 55.720930232555475,
          "velocity": 0.36220472440944884,
          "duration": 0.023255813953483084
        },
        {
          "name": "A#3",
          "midi": 58,
          "time": 55.732558139532216,
          "velocity": 0.4409448818897638,
          "duration": 0.023255813953483084
        },
        {
          "name": "G#4",
          "midi": 68,
          "time": 55.732558139532216,
          "velocity": 0.2755905511811024,
          "duration": 0.023255813953483084
        },
        {
          "name": "D#7",
          "midi": 99,
          "time": 55.732558139532216,
          "velocity": 0.33070866141732286,
          "duration": 0.1627906976743816
        },
        {
          "name": "A#4",
          "midi": 70,
          "time": 55.74418604650896,
          "velocity": 0.5275590551181102,
          "duration": 0.11627906976741542
        },
        {
          "name": "A#2",
          "midi": 46,
          "time": 55.7558139534857,
          "velocity": 0.31496062992125984,
          "duration": 0.023255813953483084
        },
        {
          "name": "C7",
          "midi": 96,
          "time": 55.7558139534857,
          "velocity": 0.2677165354330709,
          "duration": 0.15116279069764005
        },
        {
          "name": "D7",
          "midi": 98,
          "time": 55.7558139534857,
          "velocity": 0.3858267716535433,
          "duration": 0.10465116279067388
        },
        {
          "name": "F7",
          "midi": 101,
          "time": 55.7558139534857,
          "velocity": 0.23622047244094488,
          "duration": 0.11627906976741542
        },
        {
          "name": "A#3",
          "midi": 58,
          "time": 55.76744186046244,
          "velocity": 0.3937007874015748,
          "duration": 0.11627906976741542
        },
        {
          "name": "B6",
          "midi": 95,
          "time": 55.790697674415924,
          "velocity": 0.3228346456692913,
          "duration": 0.034883720930224626
        },
        {
          "name": "D#3",
          "midi": 51,
          "time": 55.802325581392665,
          "velocity": 0.31496062992125984,
          "duration": 0.023255813953483084
        },
        {
          "name": "E4",
          "midi": 64,
          "time": 55.802325581392665,
          "velocity": 0.2755905511811024,
          "duration": 0.04651162790696617
        },
        {
          "name": "G#4",
          "midi": 68,
          "time": 55.802325581392665,
          "velocity": 0.2992125984251969,
          "duration": 0.023255813953483084
        },
        {
          "name": "E6",
          "midi": 88,
          "time": 55.802325581392665,
          "velocity": 0.13385826771653545,
          "duration": 0.034883720930224626
        },
        {
          "name": "F#6",
          "midi": 90,
          "time": 55.802325581392665,
          "velocity": 0.18110236220472442,
          "duration": 0.05813953488370771
        },
        {
          "name": "A6",
          "midi": 93,
          "time": 55.802325581392665,
          "velocity": 0.29133858267716534,
          "duration": 0.06976744186044925
        },
        {
          "name": "A#6",
          "midi": 94,
          "time": 55.802325581392665,
          "velocity": 0.30708661417322836,
          "duration": 0.06976744186044925
        },
        {
          "name": "G7",
          "midi": 103,
          "time": 55.802325581392665,
          "velocity": 0.14173228346456693,
          "duration": 0.06976744186044925
        },
        {
          "name": "C#7",
          "midi": 97,
          "time": 55.81395348836941,
          "velocity": 0.28346456692913385,
          "duration": 0.05813953488370771
        },
        {
          "name": "E7",
          "midi": 100,
          "time": 55.81395348836941,
          "velocity": 0.2440944881889764,
          "duration": 0.10465116279067388
        },
        {
          "name": "F#7",
          "midi": 102,
          "time": 55.81395348836941,
          "velocity": 0.1968503937007874,
          "duration": 0.04651162790696617
        },
        {
          "name": "G#4",
          "midi": 68,
          "time": 55.83720930232289,
          "velocity": 0.4015748031496063,
          "duration": 0.034883720930224626
        },
        {
          "name": "D#3",
          "midi": 51,
          "time": 55.86046511627637,
          "velocity": 0.33070866141732286,
          "duration": 0.034883720930224626
        },
        {
          "name": "A#4",
          "midi": 70,
          "time": 55.872093023253115,
          "velocity": 0.5275590551181102,
          "duration": 0.5116279069766634
        },
        {
          "name": "A#2",
          "midi": 46,
          "time": 55.883720930229856,
          "velocity": 0.29133858267716534,
          "duration": 0.023255813953483084
        },
        {
          "name": "D7",
          "midi": 98,
          "time": 55.883720930229856,
          "velocity": 0.07874015748031496,
          "duration": 0.034883720930224626
        },
        {
          "name": "G4",
          "midi": 67,
          "time": 55.8953488372066,
          "velocity": 0.4645669291338583,
          "duration": 0.034883720930224626
        },
        {
          "name": "D#6",
          "midi": 87,
          "time": 55.90697674418334,
          "velocity": 0.2283464566929134,
          "duration": 0.3023255813953156
        },
        {
          "name": "A#3",
          "midi": 58,
          "time": 55.91860465116008,
          "velocity": 0.33858267716535434,
          "duration": 0.19767441860464174
        },
        {
          "name": "D#3",
          "midi": 51,
          "time": 55.93023255813682,
          "velocity": 0.3228346456692913,
          "duration": 0.09302325581395365
        },
        {
          "name": "G#4",
          "midi": 68,
          "time": 55.93023255813682,
          "velocity": 0.3464566929133858,
          "duration": 0.16279069767441712
        },
        {
          "name": "A#2",
          "midi": 46,
          "time": 56.011627906974034,
          "velocity": 0.2755905511811024,
          "duration": 0.023255813953483084
        },
        {
          "name": "D#3",
          "midi": 51,
          "time": 56.03488372092752,
          "velocity": 0.3228346456692913,
          "duration": 0.11627906976742963
        },
        {
          "name": "G5",
          "midi": 79,
          "time": 56.09302325581124,
          "velocity": 0.07874015748031496,
          "duration": 0.04651162790696617
        },
        {
          "name": "D#5",
          "midi": 75,
          "time": 56.10465116278798,
          "velocity": 0.1732283464566929,
          "duration": 0.05813953488370771
        },
        {
          "name": "A3",
          "midi": 57,
          "time": 56.11627906976472,
          "velocity": 0.28346456692913385,
          "duration": 0.023255813953483084
        },
        {
          "name": "G#4",
          "midi": 68,
          "time": 56.127906976741464,
          "velocity": 0.30708661417322836,
          "duration": 0.06976744186044925
        },
        {
          "name": "A#3",
          "midi": 58,
          "time": 56.139534883718206,
          "velocity": 0.4409448818897638,
          "duration": 0.0813953488371908
        },
        {
          "name": "D4",
          "midi": 62,
          "time": 56.139534883718206,
          "velocity": 0.15748031496062992,
          "duration": 0.034883720930224626
        },
        {
          "name": "C#5",
          "midi": 73,
          "time": 56.17441860464843,
          "velocity": 0.3779527559055118,
          "duration": 0.023255813953483084
        },
        {
          "name": "F#5",
          "midi": 78,
          "time": 56.18604651162517,
          "velocity": 0.25196850393700787,
          "duration": 0.034883720930224626
        },
        {
          "name": "E6",
          "midi": 88,
          "time": 56.18604651162517,
          "velocity": 0.3543307086614173,
          "duration": 0.04651162790696617
        },
        {
          "name": "F6",
          "midi": 89,
          "time": 56.18604651162517,
          "velocity": 0.29133858267716534,
          "duration": 0.034883720930224626
        },
        {
          "name": "D5",
          "midi": 74,
          "time": 56.19767441860191,
          "velocity": 0.4566929133858268,
          "duration": 0.023255813953483084
        },
        {
          "name": "F#6",
          "midi": 90,
          "time": 56.19767441860191,
          "velocity": 0.29133858267716534,
          "duration": 0.10465116279067388
        },
        {
          "name": "G#6",
          "midi": 92,
          "time": 56.19767441860191,
          "velocity": 0.18110236220472442,
          "duration": 0.06976744186044925
        },
        {
          "name": "D#3",
          "midi": 51,
          "time": 56.209302325578655,
          "velocity": 0.3543307086614173,
          "duration": 0.023255813953483084
        },
        {
          "name": "C1",
          "midi": 24,
          "time": 56.220930232555396,
          "velocity": 0.6062992125984252,
          "duration": 0.023255813953483084
        },
        {
          "name": "A3",
          "midi": 57,
          "time": 56.220930232555396,
          "velocity": 0.3228346456692913,
          "duration": 0.023255813953483084
        },
        {
          "name": "D4",
          "midi": 62,
          "time": 56.220930232555396,
          "velocity": 0.33858267716535434,
          "duration": 0.023255813953483084
        },
        {
          "name": "F7",
          "midi": 101,
          "time": 56.220930232555396,
          "velocity": 0.16535433070866143,
          "duration": 0.06976744186044925
        },
        {
          "name": "A2",
          "midi": 45,
          "time": 56.23255813953214,
          "velocity": 0.4645669291338583,
          "duration": 0.034883720930224626
        },
        {
          "name": "E5",
          "midi": 76,
          "time": 56.23255813953214,
          "velocity": 0.33070866141732286,
          "duration": 0.023255813953483084
        },
        {
          "name": "D1",
          "midi": 26,
          "time": 56.24418604650888,
          "velocity": 0.6771653543307087,
          "duration": 0.011627906976741542
        },
        {
          "name": "D#4",
          "midi": 63,
          "time": 56.24418604650888,
          "velocity": 0.33070866141732286,
          "duration": 0.2209302325580893
        },
        {
          "name": "C#5",
          "midi": 73,
          "time": 56.24418604650888,
          "velocity": 0.08661417322834646,
          "duration": 0.04651162790696617
        },
        {
          "name": "F5",
          "midi": 77,
          "time": 56.24418604650888,
          "velocity": 0.2440944881889764,
          "duration": 0.023255813953483084
        },
        {
          "name": "C#1",
          "midi": 25,
          "time": 56.25581395348562,
          "velocity": 0.7007874015748031,
          "duration": 0.011627906976741542
        },
        {
          "name": "F#5",
          "midi": 78,
          "time": 56.25581395348562,
          "velocity": 0.16535433070866143,
          "duration": 0.04651162790696617
        },
        {
          "name": "B0",
          "midi": 23,
          "time": 56.26744186046236,
          "velocity": 0.7165354330708661,
          "duration": 0.04651162790696617
        },
        {
          "name": "D#3",
          "midi": 51,
          "time": 56.26744186046236,
          "velocity": 0.5433070866141733,
          "duration": 0.43023255813945127
        },
        {
          "name": "B3",
          "midi": 59,
          "time": 56.26744186046236,
          "velocity": 0.30708661417322836,
          "duration": 0.034883720930224626
        },
        {
          "name": "F#4",
          "midi": 66,
          "time": 56.26744186046236,
          "velocity": 0.15748031496062992,
          "duration": 0.05813953488370771
        },
        {
          "name": "G6",
          "midi": 91,
          "time": 56.279069767439104,
          "velocity": 0.13385826771653545,
          "duration": 0.05813953488370771
        },
        {
          "name": "A6",
          "midi": 93,
          "time": 56.279069767439104,
          "velocity": 0.23622047244094488,
          "duration": 0.034883720930224626
        },
        {
          "name": "G#6",
          "midi": 92,
          "time": 56.290697674415846,
          "velocity": 0.1732283464566929,
          "duration": 0.04651162790696617
        },
        {
          "name": "C#5",
          "midi": 73,
          "time": 56.30232558139259,
          "velocity": 0.14960629921259844,
          "duration": 0.11627906976741542
        },
        {
          "name": "F5",
          "midi": 77,
          "time": 56.30232558139259,
          "velocity": 0.11023622047244094,
          "duration": 0.034883720930224626
        },
        {
          "name": "A#0",
          "midi": 22,
          "time": 56.31395348836933,
          "velocity": 0.7165354330708661,
          "duration": 0.011627906976741542
        },
        {
          "name": "D7",
          "midi": 98,
          "time": 56.31395348836933,
          "velocity": 0.08661417322834646,
          "duration": 0.0813953488371908
        },
        {
          "name": "B0",
          "midi": 23,
          "time": 56.32558139534607,
          "velocity": 0.7322834645669292,
          "duration": 0.23255813953483795
        },
        {
          "name": "B3",
          "midi": 59,
          "time": 56.32558139534607,
          "velocity": 0.3464566929133858,
          "duration": 0.023255813953483084
        },
        {
          "name": "F#4",
          "midi": 66,
          "time": 56.33720930232281,
          "velocity": 0.16535433070866143,
          "duration": 0.12790697674415696
        },
        {
          "name": "F6",
          "midi": 89,
          "time": 56.34883720929955,
          "velocity": 0.08661417322834646,
          "duration": 0.04651162790696617
        },
        {
          "name": "B3",
          "midi": 59,
          "time": 56.360465116276295,
          "velocity": 0.4094488188976378,
          "duration": 0.05813953488370771
        },
        {
          "name": "B5",
          "midi": 83,
          "time": 56.360465116276295,
          "velocity": 0.2125984251968504,
          "duration": 0.034883720930224626
        },
        {
          "name": "D#6",
          "midi": 87,
          "time": 56.372093023253036,
          "velocity": 0.25984251968503935,
          "duration": 0.04651162790696617
        },
        {
          "name": "A#4",
          "midi": 70,
          "time": 56.39534883720652,
          "velocity": 0.5511811023622047,
          "duration": 0.034883720930224626
        },
        {
          "name": "F5",
          "midi": 77,
          "time": 56.40697674418326,
          "velocity": 0.16535433070866143,
          "duration": 0.034883720930224626
        },
        {
          "name": "F#2",
          "midi": 42,
          "time": 56.41860465116,
          "velocity": 0.4409448818897638,
          "duration": 0.023255813953483084
        },
        {
          "name": "F6",
          "midi": 89,
          "time": 56.41860465116,
          "velocity": 0.23622047244094488,
          "duration": 0.023255813953483084
        },
        {
          "name": "B3",
          "midi": 59,
          "time": 56.430232558136744,
          "velocity": 0.29133858267716534,
          "duration": 0.023255813953483084
        },
        {
          "name": "B4",
          "midi": 71,
          "time": 56.430232558136744,
          "velocity": 0.5118110236220472,
          "duration": 0.023255813953483084
        },
        {
          "name": "D7",
          "midi": 98,
          "time": 56.430232558136744,
          "velocity": 0.10236220472440945,
          "duration": 0.04651162790696617
        },
        {
          "name": "A#4",
          "midi": 70,
          "time": 56.45348837209023,
          "velocity": 0.5590551181102362,
          "duration": 0.18604651162787889
        },
        {
          "name": "F6",
          "midi": 89,
          "time": 56.45348837209023,
          "velocity": 0.36220472440944884,
          "duration": 0.848837209302161
        },
        {
          "name": "F#4",
          "midi": 66,
          "time": 56.48837209302045,
          "velocity": 0.1889763779527559,
          "duration": 0.2209302325581035
        },
        {
          "name": "B3",
          "midi": 59,
          "time": 56.49999999999719,
          "velocity": 0.18110236220472442,
          "duration": 0.03488372093023173
        },
        {
          "name": "C#5",
          "midi": 73,
          "time": 56.54651162790417,
          "velocity": 0.09448818897637795,
          "duration": 0.034883720930224626
        },
        {
          "name": "A#0",
          "midi": 22,
          "time": 56.55813953488091,
          "velocity": 0.7165354330708661,
          "duration": 0.011627906976741542
        },
        {
          "name": "F2",
          "midi": 41,
          "time": 56.55813953488091,
          "velocity": 0.44881889763779526,
          "duration": 0.023255813953483084
        },
        {
          "name": "B0",
          "midi": 23,
          "time": 56.56976744185765,
          "velocity": 0.7244094488188977,
          "duration": 0.06976744186045636
        },
        {
          "name": "F#2",
          "midi": 42,
          "time": 56.58139534883439,
          "velocity": 0.4881889763779528,
          "duration": 0.02325581395349019
        },
        {
          "name": "F2",
          "midi": 41,
          "time": 56.60465116278788,
          "velocity": 0.5275590551181102,
          "duration": 0.011627906976741542
        },
        {
          "name": "C#7",
          "midi": 97,
          "time": 56.60465116278788,
          "velocity": 0.09448818897637795,
          "duration": 0.04651162790696617
        },
        {
          "name": "F#6",
          "midi": 90,
          "time": 56.627906976741365,
          "velocity": 0.18110236220472442,
          "duration": 0.0813953488371908
        },
        {
          "name": "A#0",
          "midi": 22,
          "time": 56.639534883718106,
          "velocity": 0.7165354330708661,
          "duration": 0.011627906976741542
        },
        {
          "name": "A#3",
          "midi": 58,
          "time": 56.639534883718106,
          "velocity": 0.4330708661417323,
          "duration": 0.023255813953483084
        },
        {
          "name": "B4",
          "midi": 71,
          "time": 56.639534883718106,
          "velocity": 0.5433070866141733,
          "duration": 0.11627906976741542
        },
        {
          "name": "F#5",
          "midi": 78,
          "time": 56.639534883718106,
          "velocity": 0.2755905511811024,
          "duration": 0.06976744186044925
        },
        {
          "name": "B0",
          "midi": 23,
          "time": 56.65116279069485,
          "velocity": 0.7165354330708661,
          "duration": 0.8720930232556796
        },
        {
          "name": "F#2",
          "midi": 42,
          "time": 56.66279069767159,
          "velocity": 0.4566929133858268,
          "duration": 0.023255813953483084
        },
        {
          "name": "B3",
          "midi": 59,
          "time": 56.66279069767159,
          "velocity": 0.33858267716535434,
          "duration": 0.0813953488371908
        },
        {
          "name": "A6",
          "midi": 93,
          "time": 56.66279069767159,
          "velocity": 0.28346456692913385,
          "duration": 0.06976744186044925
        },
        {
          "name": "G6",
          "midi": 91,
          "time": 56.67441860464833,
          "velocity": 0.09448818897637795,
          "duration": 0.04651162790696617
        },
        {
          "name": "F#2",
          "midi": 42,
          "time": 56.697674418601814,
          "velocity": 0.4409448818897638,
          "duration": 0.034883720930224626
        },
        {
          "name": "C#5",
          "midi": 73,
          "time": 56.697674418601814,
          "velocity": 0.14960629921259844,
          "duration": 0.279069767441797
        },
        {
          "name": "D#3",
          "midi": 51,
          "time": 56.709302325578555,
          "velocity": 0.4881889763779528,
          "duration": 0.04651162790696617
        },
        {
          "name": "C6",
          "midi": 84,
          "time": 56.73255813953204,
          "velocity": 0.11023622047244094,
          "duration": 0.34883720930224626
        },
        {
          "name": "F4",
          "midi": 65,
          "time": 56.75581395348552,
          "velocity": 0.3228346456692913,
          "duration": 0.034883720930224626
        },
        {
          "name": "A#4",
          "midi": 70,
          "time": 56.75581395348552,
          "velocity": 0.4881889763779528,
          "duration": 0.3023255813952801
        },
        {
          "name": "D#3",
          "midi": 51,
          "time": 56.76744186046226,
          "velocity": 0.48031496062992124,
          "duration": 0.023255813953483084
        },
        {
          "name": "F#2",
          "midi": 42,
          "time": 56.779069767439005,
          "velocity": 0.44881889763779526,
          "duration": 0.023255813953483084
        },
        {
          "name": "D3",
          "midi": 50,
          "time": 56.790697674415746,
          "velocity": 0.44881889763779526,
          "duration": 0.023255813953483084
        },
        {
          "name": "F4",
          "midi": 65,
          "time": 56.80232558139249,
          "velocity": 0.30708661417322836,
          "duration": 0.034883720930224626
        },
        {
          "name": "F#2",
          "midi": 42,
          "time": 56.82558139534597,
          "velocity": 0.44881889763779526,
          "duration": 0.023255813953483084
        },
        {
          "name": "D#4",
          "midi": 63,
          "time": 56.82558139534597,
          "velocity": 0.31496062992125984,
          "duration": 0.034883720930224626
        },
        {
          "name": "F4",
          "midi": 65,
          "time": 56.848837209299454,
          "velocity": 0.30708661417322836,
          "duration": 0.023255813953483084
        },
        {
          "name": "D7",
          "midi": 98,
          "time": 56.860465116276195,
          "velocity": 0.31496062992125984,
          "duration": 0.06976744186044925
        },
        {
          "name": "E4",
          "midi": 64,
          "time": 56.87209302325294,
          "velocity": 0.3464566929133858,
          "duration": 0.023255813953483084
        },
        {
          "name": "G6",
          "midi": 91,
          "time": 56.87209302325294,
          "velocity": 0.08661417322834646,
          "duration": 0.034883720930224626
        },
        {
          "name": "A6",
          "midi": 93,
          "time": 56.87209302325294,
          "velocity": 0.2677165354330709,
          "duration": 0.04651162790696617
        },
        {
          "name": "A#6",
          "midi": 94,
          "time": 56.87209302325294,
          "velocity": 0.29133858267716534,
          "duration": 0.06976744186044925
        },
        {
          "name": "C7",
          "midi": 96,
          "time": 56.87209302325294,
          "velocity": 0.25984251968503935,
          "duration": 0.05813953488370771
        },
        {
          "name": "D#7",
          "midi": 99,
          "time": 56.87209302325294,
          "velocity": 0.30708661417322836,
          "duration": 0.09302325581393234
        },
        {
          "name": "F#4",
          "midi": 66,
          "time": 56.88372093022968,
          "velocity": 0.2992125984251969,
          "duration": 0.034883720930224626
        },
        {
          "name": "F#6",
          "midi": 90,
          "time": 56.88372093022968,
          "velocity": 0.2047244094488189,
          "duration": 0.04651162790696617
        },
        {
          "name": "B6",
          "midi": 95,
          "time": 56.88372093022968,
          "velocity": 0.2755905511811024,
          "duration": 0.023255813953483084
        },
        {
          "name": "C#7",
          "midi": 97,
          "time": 56.88372093022968,
          "velocity": 0.29133858267716534,
          "duration": 0.06976744186044925
        },
        {
          "name": "E7",
          "midi": 100,
          "time": 56.88372093022968,
          "velocity": 0.2283464566929134,
          "duration": 0.06976744186044925
        },
        {
          "name": "G7",
          "midi": 103,
          "time": 56.88372093022968,
          "velocity": 0.1889763779527559,
          "duration": 0.05813953488370771
        },
        {
          "name": "F4",
          "midi": 65,
          "time": 56.9186046511599,
          "velocity": 0.30708661417322836,
          "duration": 0.023255813953483084
        },
        {
          "name": "D#4",
          "midi": 63,
          "time": 56.95348837209013,
          "velocity": 0.2992125984251969,
          "duration": 0.04651162790696617
        },
        {
          "name": "F4",
          "midi": 65,
          "time": 56.95348837209013,
          "velocity": 0.2992125984251969,
          "duration": 0.023255813953483084
        },
        {
          "name": "F#2",
          "midi": 42,
          "time": 56.98837209302035,
          "velocity": 0.41732283464566927,
          "duration": 0.04651162790696617
        },
        {
          "name": "C#5",
          "midi": 73,
          "time": 56.98837209302035,
          "velocity": 0.09448818897637795,
          "duration": 0.034883720930224626
        },
        {
          "name": "F4",
          "midi": 65,
          "time": 56.999999999997094,
          "velocity": 0.31496062992125984,
          "duration": 0.023255813953483084
        },
        {
          "name": "A6",
          "midi": 93,
          "time": 56.999999999997094,
          "velocity": 0.25984251968503935,
          "duration": 0.0813953488371908
        },
        {
          "name": "D#4",
          "midi": 63,
          "time": 57.011627906973835,
          "velocity": 0.30708661417322836,
          "duration": 0.034883720930224626
        },
        {
          "name": "G2",
          "midi": 43,
          "time": 57.03488372092732,
          "velocity": 0.4015748031496063,
          "duration": 0.023255813953483084
        },
        {
          "name": "F4",
          "midi": 65,
          "time": 57.03488372092732,
          "velocity": 0.3228346456692913,
          "duration": 0.034883720930224626
        },
        {
          "name": "C#5",
          "midi": 73,
          "time": 57.03488372092732,
          "velocity": 0.13385826771653545,
          "duration": 0.17441860465113024
        },
        {
          "name": "B6",
          "midi": 95,
          "time": 57.04651162790406,
          "velocity": 0.2125984251968504,
          "duration": 0.034883720930224626
        },
        {
          "name": "D7",
          "midi": 98,
          "time": 57.04651162790406,
          "velocity": 0.11023622047244094,
          "duration": 0.034883720930224626
        },
        {
          "name": "E7",
          "midi": 100,
          "time": 57.04651162790406,
          "velocity": 0.23622047244094488,
          "duration": 0.05813953488370771
        },
        {
          "name": "A4",
          "midi": 69,
          "time": 57.0581395348808,
          "velocity": 0.5433070866141733,
          "duration": 0.023255813953483084
        },
        {
          "name": "G6",
          "midi": 91,
          "time": 57.0581395348808,
          "velocity": 0.11023622047244094,
          "duration": 0.05813953488370771
        },
        {
          "name": "C#7",
          "midi": 97,
          "time": 57.0581395348808,
          "velocity": 0.14173228346456693,
          "duration": 0.04651162790696617
        },
        {
          "name": "D#4",
          "midi": 63,
          "time": 57.06976744185754,
          "velocity": 0.3700787401574803,
          "duration": 0.4534883720929841
        },
        {
          "name": "F5",
          "midi": 77,
          "time": 57.06976744185754,
          "velocity": 0.2204724409448819,
          "duration": 0.034883720930224626
        },
        {
          "name": "A#3",
          "midi": 58,
          "time": 57.081395348834285,
          "velocity": 0.36220472440944884,
          "duration": 0.023255813953483084
        },
        {
          "name": "A#4",
          "midi": 70,
          "time": 57.081395348834285,
          "velocity": 0.47244094488188976,
          "duration": 0.023255813953483084
        },
        {
          "name": "A#6",
          "midi": 94,
          "time": 57.081395348834285,
          "velocity": 0.2755905511811024,
          "duration": 0.023255813953483084
        },
        {
          "name": "E3",
          "midi": 52,
          "time": 57.093023255811026,
          "velocity": 0.3858267716535433,
          "duration": 0.023255813953483084
        },
        {
          "name": "A3",
          "midi": 57,
          "time": 57.10465116278777,
          "velocity": 0.33070866141732286,
          "duration": 0.023255813953483084
        },
        {
          "name": "A4",
          "midi": 69,
          "time": 57.10465116278777,
          "velocity": 0.3779527559055118,
          "duration": 0.023255813953483084
        },
        {
          "name": "A#4",
          "midi": 70,
          "time": 57.12790697674125,
          "velocity": 0.4015748031496063,
          "duration": 0.3953488372092764
        },
        {
          "name": "G3",
          "midi": 55,
          "time": 57.13953488371799,
          "velocity": 0.3858267716535433,
          "duration": 0.023255813953483084
        },
        {
          "name": "F#4",
          "midi": 66,
          "time": 57.151162790694734,
          "velocity": 0.31496062992125984,
          "duration": 0.36046511627905176
        },
        {
          "name": "D#3",
          "midi": 51,
          "time": 57.162790697671475,
          "velocity": 0.36220472440944884,
          "duration": 0.02325581395349019
        },
        {
          "name": "G#3",
          "midi": 56,
          "time": 57.162790697671475,
          "velocity": 0.48031496062992124,
          "duration": 0.02325581395349019
        },
        {
          "name": "F#2",
          "midi": 42,
          "time": 57.186046511624966,
          "velocity": 0.3543307086614173,
          "duration": 0.023255813953483084
        },
        {
          "name": "A3",
          "midi": 57,
          "time": 57.186046511624966,
          "velocity": 0.5354330708661418,
          "duration": 0.011627906976741542
        },
        {
          "name": "D6",
          "midi": 86,
          "time": 57.186046511624966,
          "velocity": 0.2125984251968504,
          "duration": 0.10465116279068098
        },
        {
          "name": "A#3",
          "midi": 58,
          "time": 57.19767441860171,
          "velocity": 0.5275590551181102,
          "duration": 0.0813953488371979
        },
        {
          "name": "F5",
          "midi": 77,
          "time": 57.20930232557845,
          "velocity": 0.44881889763779526,
          "duration": 0.0813953488371979
        },
        {
          "name": "G#6",
          "midi": 92,
          "time": 57.22093023255519,
          "velocity": 0.28346456692913385,
          "duration": 0.058139534883714816
        },
        {
          "name": "C#5",
          "midi": 73,
          "time": 57.23255813953193,
          "velocity": 0.15748031496062992,
          "duration": 0.511627906976706
        },
        {
          "name": "A3",
          "midi": 57,
          "time": 57.279069767438905,
          "velocity": 0.36220472440944884,
          "duration": 0.023255813953483084
        },
        {
          "name": "A#6",
          "midi": 94,
          "time": 57.279069767438905,
          "velocity": 0.10236220472440945,
          "duration": 0.06976744186045636
        },
        {
          "name": "E3",
          "midi": 52,
          "time": 57.29069767441565,
          "velocity": 0.3937007874015748,
          "duration": 0.023255813953483084
        },
        {
          "name": "E5",
          "midi": 76,
          "time": 57.29069767441565,
          "velocity": 0.25984251968503935,
          "duration": 0.023255813953483084
        },
        {
          "name": "F#2",
          "midi": 42,
          "time": 57.30232558139239,
          "velocity": 0.3543307086614173,
          "duration": 0.023255813953483084
        },
        {
          "name": "G3",
          "midi": 55,
          "time": 57.30232558139239,
          "velocity": 0.4015748031496063,
          "duration": 0.023255813953483084
        },
        {
          "name": "F6",
          "midi": 89,
          "time": 57.32558139534587,
          "velocity": 0.1889763779527559,
          "duration": 0.23255813953488058
        },
        {
          "name": "F#2",
          "midi": 42,
          "time": 57.34883720929936,
          "velocity": 0.3464566929133858,
          "duration": 0.02325581395349019
        },
        {
          "name": "F#3",
          "midi": 54,
          "time": 57.37209302325285,
          "velocity": 0.33858267716535434,
          "duration": 0.02325581395349019
        },
        {
          "name": "F#3",
          "midi": 54,
          "time": 57.430232558136574,
          "velocity": 0.2992125984251969,
          "duration": 0.02325581395349019
        },
        {
          "name": "F#3",
          "midi": 54,
          "time": 57.465116279066805,
          "velocity": 0.28346456692913385,
          "duration": 0.02325581395349019
        },
        {
          "name": "A#3",
          "midi": 58,
          "time": 57.511627906973786,
          "velocity": 0.5511811023622047,
          "duration": 0.023255813953483084
        },
        {
          "name": "B6",
          "midi": 95,
          "time": 57.511627906973786,
          "velocity": 0.2440944881889764,
          "duration": 0.06976744186044925
        },
        {
          "name": "D7",
          "midi": 98,
          "time": 57.511627906973786,
          "velocity": 0.33070866141732286,
          "duration": 0.05813953488370771
        },
        {
          "name": "D#7",
          "midi": 99,
          "time": 57.511627906973786,
          "velocity": 0.29133858267716534,
          "duration": 0.06976744186044925
        },
        {
          "name": "E7",
          "midi": 100,
          "time": 57.511627906973786,
          "velocity": 0.2204724409448819,
          "duration": 0.11627906976742253
        },
        {
          "name": "C1",
          "midi": 24,
          "time": 57.52325581395053,
          "velocity": 0.5905511811023622,
          "duration": 0.011627906976741542
        },
        {
          "name": "B4",
          "midi": 71,
          "time": 57.52325581395053,
          "velocity": 0.2755905511811024,
          "duration": 0.04651162790696617
        },
        {
          "name": "D6",
          "midi": 86,
          "time": 57.52325581395053,
          "velocity": 0.13385826771653545,
          "duration": 0.05813953488370771
        },
        {
          "name": "E6",
          "midi": 88,
          "time": 57.52325581395053,
          "velocity": 0.14960629921259844,
          "duration": 0.034883720930224626
        },
        {
          "name": "F#6",
          "midi": 90,
          "time": 57.52325581395053,
          "velocity": 0.1732283464566929,
          "duration": 0.05813953488370771
        },
        {
          "name": "A6",
          "midi": 93,
          "time": 57.52325581395053,
          "velocity": 0.2755905511811024,
          "duration": 0.04651162790696617
        },
        {
          "name": "A#6",
          "midi": 94,
          "time": 57.52325581395053,
          "velocity": 0.30708661417322836,
          "duration": 0.05813953488370771
        },
        {
          "name": "C7",
          "midi": 96,
          "time": 57.52325581395053,
          "velocity": 0.28346456692913385,
          "duration": 0.0813953488371908
        },
        {
          "name": "C#7",
          "midi": 97,
          "time": 57.52325581395053,
          "velocity": 0.3228346456692913,
          "duration": 0.06976744186044925
        },
        {
          "name": "F7",
          "midi": 101,
          "time": 57.52325581395053,
          "velocity": 0.2755905511811024,
          "duration": 0.23255813953485216
        },
        {
          "name": "G7",
          "midi": 103,
          "time": 57.52325581395053,
          "velocity": 0.14960629921259844,
          "duration": 0.034883720930224626
        },
        {
          "name": "B0",
          "midi": 23,
          "time": 57.53488372092727,
          "velocity": 0.5748031496062992,
          "duration": 0.011627906976741542
        },
        {
          "name": "B3",
          "midi": 59,
          "time": 57.53488372092727,
          "velocity": 0.49606299212598426,
          "duration": 0.034883720930224626
        },
        {
          "name": "F#7",
          "midi": 102,
          "time": 57.53488372092727,
          "velocity": 0.1889763779527559,
          "duration": 0.04651162790696617
        },
        {
          "name": "A#0",
          "midi": 22,
          "time": 57.54651162790401,
          "velocity": 0.5748031496062992,
          "duration": 0.011627906976741542
        },
        {
          "name": "F#4",
          "midi": 66,
          "time": 57.54651162790401,
          "velocity": 0.23622047244094488,
          "duration": 0.023255813953483084
        },
        {
          "name": "B0",
          "midi": 23,
          "time": 57.55813953488075,
          "velocity": 0.5826771653543307,
          "duration": 0.5813953488371197
        },
        {
          "name": "G#6",
          "midi": 92,
          "time": 57.55813953488075,
          "velocity": 0.2125984251968504,
          "duration": 0.034883720930224626
        },
        {
          "name": "G2",
          "midi": 43,
          "time": 57.56976744185749,
          "velocity": 0.25196850393700787,
          "duration": 0.023255813953483084
        },
        {
          "name": "A#3",
          "midi": 58,
          "time": 57.56976744185749,
          "velocity": 0.4645669291338583,
          "duration": 0.25581395348834945
        },
        {
          "name": "G#4",
          "midi": 68,
          "time": 57.581395348834235,
          "velocity": 0.29133858267716534,
          "duration": 0.13953488372091982
        },
        {
          "name": "D7",
          "midi": 98,
          "time": 57.581395348834235,
          "velocity": 0.33070866141732286,
          "duration": 0.186046511627886
        },
        {
          "name": "F5",
          "midi": 77,
          "time": 57.59302325581098,
          "velocity": 0.07874015748031496,
          "duration": 0.081395348837205
        },
        {
          "name": "D#6",
          "midi": 87,
          "time": 57.59302325581098,
          "velocity": 0.18110236220472442,
          "duration": 0.372093023255772
        },
        {
          "name": "F3",
          "midi": 53,
          "time": 57.732558139531896,
          "velocity": 0.33858267716535434,
          "duration": 0.17441860465114445
        },
        {
          "name": "F#7",
          "midi": 102,
          "time": 57.732558139531896,
          "velocity": 0.14173228346456693,
          "duration": 0.034883720930224626
        },
        {
          "name": "C5",
          "midi": 72,
          "time": 57.74418604650864,
          "velocity": 0.25196850393700787,
          "duration": 0.186046511627886
        },
        {
          "name": "G#4",
          "midi": 68,
          "time": 57.75581395348538,
          "velocity": 0.2755905511811024,
          "duration": 0.15116279069766136
        },
        {
          "name": "B3",
          "midi": 59,
          "time": 57.837209302322584,
          "velocity": 0.33070866141732286,
          "duration": 0.046511627906973274
        },
        {
          "name": "F4",
          "midi": 65,
          "time": 57.860465116276075,
          "velocity": 0.3464566929133858,
          "duration": 0.034883720930224626
        },
        {
          "name": "C7",
          "midi": 96,
          "time": 57.872093023252816,
          "velocity": 0.1889763779527559,
          "duration": 0.09302325581393234
        },
        {
          "name": "C#7",
          "midi": 97,
          "time": 57.872093023252816,
          "velocity": 0.30708661417322836,
          "duration": 0.18604651162786467
        },
        {
          "name": "A5",
          "midi": 81,
          "time": 57.88372093022956,
          "velocity": 0.1968503937007874,
          "duration": 0.04651162790696617
        },
        {
          "name": "C#5",
          "midi": 73,
          "time": 57.8953488372063,
          "velocity": 0.2755905511811024,
          "duration": 0.023255813953483084
        },
        {
          "name": "F5",
          "midi": 77,
          "time": 57.8953488372063,
          "velocity": 0.2283464566929134,
          "duration": 0.023255813953483084
        },
        {
          "name": "A3",
          "midi": 57,
          "time": 57.90697674418304,
          "velocity": 0.31496062992125984,
          "duration": 0.034883720930224626
        },
        {
          "name": "D#5",
          "midi": 75,
          "time": 57.90697674418304,
          "velocity": 0.5039370078740157,
          "duration": 0.05813953488370771
        },
        {
          "name": "A#6",
          "midi": 94,
          "time": 57.90697674418304,
          "velocity": 0.1889763779527559,
          "duration": 0.09302325581393234
        },
        {
          "name": "B6",
          "midi": 95,
          "time": 57.90697674418304,
          "velocity": 0.16535433070866143,
          "duration": 0.06976744186044925
        },
        {
          "name": "F3",
          "midi": 53,
          "time": 57.91860465115978,
          "velocity": 0.3228346456692913,
          "duration": 0.034883720930224626
        },
        {
          "name": "D#4",
          "midi": 63,
          "time": 57.91860465115978,
          "velocity": 0.4015748031496063,
          "duration": 0.04651162790696617
        },
        {
          "name": "G#4",
          "midi": 68,
          "time": 57.91860465115978,
          "velocity": 0.28346456692913385,
          "duration": 0.034883720930224626
        },
        {
          "name": "A#4",
          "midi": 70,
          "time": 57.91860465115978,
          "velocity": 0.29133858267716534,
          "duration": 0.05813953488370771
        },
        {
          "name": "G6",
          "midi": 91,
          "time": 57.91860465115978,
          "velocity": 0.11811023622047244,
          "duration": 0.04651162790696617
        },
        {
          "name": "A#3",
          "midi": 58,
          "time": 57.941860465113265,
          "velocity": 0.28346456692913385,
          "duration": 0.06976744186044925
        },
        {
          "name": "G5",
          "midi": 79,
          "time": 57.941860465113265,
          "velocity": 0.2204724409448819,
          "duration": 0.034883720930224626
        },
        {
          "name": "D7",
          "midi": 98,
          "time": 57.941860465113265,
          "velocity": 0.11811023622047244,
          "duration": 0.034883720930224626
        },
        {
          "name": "C#5",
          "midi": 73,
          "time": 57.95348837209001,
          "velocity": 0.3543307086614173,
          "duration": 0.023255813953483084
        },
        {
          "name": "F6",
          "midi": 89,
          "time": 57.95348837209001,
          "velocity": 0.14173228346456693,
          "duration": 0.04651162790696617
        },
        {
          "name": "D#3",
          "midi": 51,
          "time": 57.96511627906675,
          "velocity": 0.31496062992125984,
          "duration": 0.19767441860460622
        },
        {
          "name": "F4",
          "midi": 65,
          "time": 57.96511627906675,
          "velocity": 0.2755905511811024,
          "duration": 0.023255813953483084
        },
        {
          "name": "A4",
          "midi": 69,
          "time": 57.96511627906675,
          "velocity": 0.4330708661417323,
          "duration": 0.04651162790696617
        },
        {
          "name": "E5",
          "midi": 76,
          "time": 57.96511627906675,
          "velocity": 0.49606299212598426,
          "duration": 0.034883720930224626
        },
        {
          "name": "B4",
          "midi": 71,
          "time": 57.97674418604349,
          "velocity": 0.2283464566929134,
          "duration": 0.023255813953483084
        },
        {
          "name": "D5",
          "midi": 74,
          "time": 57.97674418604349,
          "velocity": 0.33070866141732286,
          "duration": 0.023255813953483084
        },
        {
          "name": "G5",
          "midi": 79,
          "time": 57.98837209302023,
          "velocity": 0.29133858267716534,
          "duration": 0.12790697674415696
        },
        {
          "name": "D4",
          "midi": 62,
          "time": 57.99999999999697,
          "velocity": 0.25196850393700787,
          "duration": 0.023255813953483084
        },
        {
          "name": "C#5",
          "midi": 73,
          "time": 57.99999999999697,
          "velocity": 0.4251968503937008,
          "duration": 0.04651162790696617
        },
        {
          "name": "D#7",
          "midi": 99,
          "time": 57.99999999999697,
          "velocity": 0.14173228346456693,
          "duration": 0.05813953488370771
        },
        {
          "name": "G#4",
          "midi": 68,
          "time": 58.011627906973715,
          "velocity": 0.4094488188976378,
          "duration": 0.034883720930224626
        },
        {
          "name": "A#4",
          "midi": 70,
          "time": 58.011627906973715,
          "velocity": 0.44881889763779526,
          "duration": 0.023255813953483084
        },
        {
          "name": "D7",
          "midi": 98,
          "time": 58.011627906973715,
          "velocity": 0.11811023622047244,
          "duration": 0.04651162790696617
        },
        {
          "name": "E5",
          "midi": 76,
          "time": 58.0348837209272,
          "velocity": 0.23622047244094488,
          "duration": 0.023255813953483084
        },
        {
          "name": "F6",
          "midi": 89,
          "time": 58.0348837209272,
          "velocity": 0.28346456692913385,
          "duration": 0.5465116279068738
        },
        {
          "name": "D4",
          "midi": 62,
          "time": 58.04651162790394,
          "velocity": 0.29133858267716534,
          "duration": 0.023255813953483084
        },
        {
          "name": "G#6",
          "midi": 92,
          "time": 58.04651162790394,
          "velocity": 0.12598425196850394,
          "duration": 0.05813953488370771
        },
        {
          "name": "A#4",
          "midi": 70,
          "time": 58.05813953488068,
          "velocity": 0.4015748031496063,
          "duration": 0.1395348837209056
        },
        {
          "name": "D#5",
          "midi": 75,
          "time": 58.05813953488068,
          "velocity": 0.4566929133858268,
          "duration": 0.09302325581393234
        },
        {
          "name": "A#6",
          "midi": 94,
          "time": 58.05813953488068,
          "velocity": 0.10236220472440945,
          "duration": 0.034883720930224626
        },
        {
          "name": "E7",
          "midi": 100,
          "time": 58.081395348834164,
          "velocity": 0.14173228346456693,
          "duration": 0.034883720930224626
        },
        {
          "name": "G6",
          "midi": 91,
          "time": 58.10465116278765,
          "velocity": 0.33070866141732286,
          "duration": 0.0813953488371979
        },
        {
          "name": "G#4",
          "midi": 68,
          "time": 58.11627906976439,
          "velocity": 0.3543307086614173,
          "duration": 0.10465116279068098
        },
        {
          "name": "C#5",
          "midi": 73,
          "time": 58.11627906976439,
          "velocity": 0.4330708661417323,
          "duration": 0.23255813953485216
        },
        {
          "name": "F5",
          "midi": 77,
          "time": 58.11627906976439,
          "velocity": 0.4094488188976378,
          "duration": 0.10465116279068098
        },
        {
          "name": "C#4",
          "midi": 61,
          "time": 58.12790697674113,
          "velocity": 0.2440944881889764,
          "duration": 0.06976744186045636
        },
        {
          "name": "B5",
          "midi": 83,
          "time": 58.12790697674113,
          "velocity": 0.1889763779527559,
          "duration": 0.09302325581393944
        },
        {
          "name": "C3",
          "midi": 48,
          "time": 58.162790697671355,
          "velocity": 0.2677165354330709,
          "duration": 0.02325581395349019
        },
        {
          "name": "C#3",
          "midi": 49,
          "time": 58.186046511624845,
          "velocity": 0.30708661417322836,
          "duration": 0.09302325581393944
        },
        {
          "name": "F#6",
          "midi": 90,
          "time": 58.186046511624845,
          "velocity": 0.23622047244094488,
          "duration": 0.023255813953483084
        },
        {
          "name": "A#4",
          "midi": 70,
          "time": 58.20930232557833,
          "velocity": 0.30708661417322836,
          "duration": 0.1627906976743958
        },
        {
          "name": "G3",
          "midi": 55,
          "time": 58.2558139534853,
          "velocity": 0.36220472440944884,
          "duration": 0.023255813953483084
        },
        {
          "name": "F#4",
          "midi": 66,
          "time": 58.26744186046204,
          "velocity": 0.3228346456692913,
          "duration": 0.058139534883714816
        },
        {
          "name": "D7",
          "midi": 98,
          "time": 58.26744186046204,
          "velocity": 0.23622047244094488,
          "duration": 0.11627906976742253
        },
        {
          "name": "F#3",
          "midi": 54,
          "time": 58.279069767438784,
          "velocity": 0.4409448818897638,
          "duration": 0.046511627906973274
        },
        {
          "name": "E5",
          "midi": 76,
          "time": 58.279069767438784,
          "velocity": 0.13385826771653545,
          "duration": 0.03488372093023173
        },
        {
          "name": "E7",
          "midi": 100,
          "time": 58.279069767438784,
          "velocity": 0.29133858267716534,
          "duration": 0.11627906976742253
        },
        {
          "name": "C#3",
          "midi": 49,
          "time": 58.313953488369016,
          "velocity": 0.31496062992125984,
          "duration": 0.05813953488370771
        },
        {
          "name": "C7",
          "midi": 96,
          "time": 58.313953488369016,
          "velocity": 0.16535433070866143,
          "duration": 0.05813953488370771
        },
        {
          "name": "G3",
          "midi": 55,
          "time": 58.32558139534576,
          "velocity": 0.47244094488188976,
          "duration": 0.023255813953483084
        },
        {
          "name": "D#6",
          "midi": 87,
          "time": 58.3372093023225,
          "velocity": 0.2440944881889764,
          "duration": 0.4883720930231732
        },
        {
          "name": "C#7",
          "midi": 97,
          "time": 58.3372093023225,
          "velocity": 0.2677165354330709,
          "duration": 0.12790697674415696
        },
        {
          "name": "G#3",
          "midi": 56,
          "time": 58.34883720929924,
          "velocity": 0.5275590551181102,
          "duration": 0.023255813953483084
        },
        {
          "name": "A4",
          "midi": 69,
          "time": 58.36046511627598,
          "velocity": 0.3858267716535433,
          "duration": 0.023255813953483084
        },
        {
          "name": "C#6",
          "midi": 85,
          "time": 58.36046511627598,
          "velocity": 0.2204724409448819,
          "duration": 0.034883720930224626
        },
        {
          "name": "G1",
          "midi": 31,
          "time": 58.372093023252724,
          "velocity": 0.5354330708661418,
          "duration": 0.011627906976741542
        },
        {
          "name": "A#3",
          "midi": 58,
          "time": 58.372093023252724,
          "velocity": 0.44881889763779526,
          "duration": 0.04651162790696617
        },
        {
          "name": "G5",
          "midi": 79,
          "time": 58.372093023252724,
          "velocity": 0.13385826771653545,
          "duration": 0.05813953488370771
        },
        {
          "name": "A#5",
          "midi": 82,
          "time": 58.372093023252724,
          "velocity": 0.2125984251968504,
          "duration": 0.05813953488370771
        },
        {
          "name": "G#6",
          "midi": 92,
          "time": 58.372093023252724,
          "velocity": 0.28346456692913385,
          "duration": 0.05813953488370771
        },
        {
          "name": "F#1",
          "midi": 30,
          "time": 58.383720930229465,
          "velocity": 0.6692913385826772,
          "duration": 0.011627906976741542
        },
        {
          "name": "C#5",
          "midi": 73,
          "time": 58.383720930229465,
          "velocity": 0.4094488188976378,
          "duration": 0.11627906976741542
        },
        {
          "name": "F5",
          "midi": 77,
          "time": 58.383720930229465,
          "velocity": 0.4645669291338583,
          "duration": 0.41860465116272394
        },
        {
          "name": "G#5",
          "midi": 80,
          "time": 58.383720930229465,
          "velocity": 0.12598425196850394,
          "duration": 0.034883720930224626
        },
        {
          "name": "D6",
          "midi": 86,
          "time": 58.383720930229465,
          "velocity": 0.1889763779527559,
          "duration": 0.05813953488370771
        },
        {
          "name": "F1",
          "midi": 29,
          "time": 58.39534883720621,
          "velocity": 0.7165354330708661,
          "duration": 0.011627906976741542
        },
        {
          "name": "G#4",
          "midi": 68,
          "time": 58.39534883720621,
          "velocity": 0.3464566929133858,
          "duration": 0.18604651162786467
        },
        {
          "name": "D#1",
          "midi": 27,
          "time": 58.40697674418295,
          "velocity": 0.7480314960629921,
          "duration": 1.2441860465114587
        },
        {
          "name": "G3",
          "midi": 55,
          "time": 58.40697674418295,
          "velocity": 0.5196850393700787,
          "duration": 0.5116279069766563
        },
        {
          "name": "E7",
          "midi": 100,
          "time": 58.40697674418295,
          "velocity": 0.2047244094488189,
          "duration": 0.034883720930224626
        },
        {
          "name": "A6",
          "midi": 93,
          "time": 58.41860465115969,
          "velocity": 0.10236220472440945,
          "duration": 0.04651162790696617
        },
        {
          "name": "A#2",
          "midi": 46,
          "time": 58.43023255813643,
          "velocity": 0.41732283464566927,
          "duration": 0.09302325581393234
        },
        {
          "name": "B4",
          "midi": 71,
          "time": 58.43023255813643,
          "velocity": 0.41732283464566927,
          "duration": 0.034883720930224626
        },
        {
          "name": "B6",
          "midi": 95,
          "time": 58.43023255813643,
          "velocity": 0.2755905511811024,
          "duration": 0.04651162790696617
        },
        {
          "name": "C7",
          "midi": 96,
          "time": 58.453488372089915,
          "velocity": 0.3543307086614173,
          "duration": 0.1627906976743816
        },
        {
          "name": "A#4",
          "midi": 70,
          "time": 58.465116279066656,
          "velocity": 0.2677165354330709,
          "duration": 0.023255813953483084
        },
        {
          "name": "B3",
          "midi": 59,
          "time": 58.4767441860434,
          "velocity": 0.48031496062992124,
          "duration": 0.023255813953483084
        },
        {
          "name": "G5",
          "midi": 79,
          "time": 58.48837209302014,
          "velocity": 0.08661417322834646,
          "duration": 0.09302325581393234
        },
        {
          "name": "D7",
          "midi": 98,
          "time": 58.48837209302014,
          "velocity": 0.23622047244094488,
          "duration": 0.11627906976741542
        },
        {
          "name": "A#3",
          "midi": 58,
          "time": 58.49999999999688,
          "velocity": 0.48031496062992124,
          "duration": 0.023255813953483084
        },
        {
          "name": "A#6",
          "midi": 94,
          "time": 58.49999999999688,
          "velocity": 0.2677165354330709,
          "duration": 0.0813953488371908
        },
        {
          "name": "E7",
          "midi": 100,
          "time": 58.49999999999688,
          "velocity": 0.25196850393700787,
          "duration": 0.04651162790696617
        },
        {
          "name": "G#6",
          "midi": 92,
          "time": 58.51162790697362,
          "velocity": 0.11023622047244094,
          "duration": 0.04651162790696617
        },
        {
          "name": "F#7",
          "midi": 102,
          "time": 58.523255813950364,
          "velocity": 0.14960629921259844,
          "duration": 0.06976744186044925
        },
        {
          "name": "A#2",
          "midi": 46,
          "time": 58.534883720927105,
          "velocity": 0.4330708661417323,
          "duration": 0.19767441860462753
        },
        {
          "name": "E7",
          "midi": 100,
          "time": 58.56976744185733,
          "velocity": 0.23622047244094488,
          "duration": 0.034883720930224626
        },
        {
          "name": "G#4",
          "midi": 68,
          "time": 58.604651162787555,
          "velocity": 0.3700787401574803,
          "duration": 0.1860465116278931
        },
        {
          "name": "D#4",
          "midi": 63,
          "time": 58.62790697674104,
          "velocity": 0.08661417322834646,
          "duration": 0.09302325581395365
        },
        {
          "name": "A#4",
          "midi": 70,
          "time": 58.72093023255499,
          "velocity": 0.13385826771653545,
          "duration": 0.046511627906973274
        },
        {
          "name": "C7",
          "midi": 96,
          "time": 58.72093023255499,
          "velocity": 0.09448818897637795,
          "duration": 0.09302325581393944
        },
        {
          "name": "A#2",
          "midi": 46,
          "time": 58.744186046508474,
          "velocity": 0.4251968503937008,
          "duration": 0.11627906976742253
        },
        {
          "name": "C#6",
          "midi": 85,
          "time": 58.767441860461965,
          "velocity": 0.07086614173228346,
          "duration": 0.04651162790696617
        },
        {
          "name": "B4",
          "midi": 71,
          "time": 58.779069767438706,
          "velocity": 0.5196850393700787,
          "duration": 0.15116279069764005
        },
        {
          "name": "F#6",
          "midi": 90,
          "time": 58.779069767438706,
          "velocity": 0.3228346456692913,
          "duration": 0.10465116279067388
        },
        {
          "name": "B3",
          "midi": 59,
          "time": 58.79069767441545,
          "velocity": 0.47244094488188976,
          "duration": 0.0813953488371908
        },
        {
          "name": "F#5",
          "midi": 78,
          "time": 58.79069767441545,
          "velocity": 0.33858267716535434,
          "duration": 0.0813953488371908
        },
        {
          "name": "A6",
          "midi": 93,
          "time": 58.79069767441545,
          "velocity": 0.33858267716535434,
          "duration": 0.09302325581393234
        },
        {
          "name": "C#7",
          "midi": 97,
          "time": 58.79069767441545,
          "velocity": 0.1732283464566929,
          "duration": 0.09302325581393234
        },
        {
          "name": "G#4",
          "midi": 68,
          "time": 58.80232558139219,
          "velocity": 0.30708661417322836,
          "duration": 0.1627906976743816
        },
        {
          "name": "D#7",
          "midi": 99,
          "time": 58.81395348836893,
          "velocity": 0.25196850393700787,
          "duration": 0.0813953488371908
        },
        {
          "name": "F7",
          "midi": 101,
          "time": 58.81395348836893,
          "velocity": 0.10236220472440945,
          "duration": 0.034883720930224626
        },
        {
          "name": "C#5",
          "midi": 73,
          "time": 58.837209302322414,
          "velocity": 0.2677165354330709,
          "duration": 0.034883720930224626
        },
        {
          "name": "D#6",
          "midi": 87,
          "time": 58.837209302322414,
          "velocity": 0.16535433070866143,
          "duration": 0.8372093023254763
        },
        {
          "name": "A#2",
          "midi": 46,
          "time": 58.87209302325264,
          "velocity": 0.41732283464566927,
          "duration": 0.05813953488370771
        },
        {
          "name": "D6",
          "midi": 86,
          "time": 58.87209302325264,
          "velocity": 0.14960629921259844,
          "duration": 0.04651162790696617
        },
        {
          "name": "A#3",
          "midi": 58,
          "time": 58.90697674418286,
          "velocity": 0.4409448818897638,
          "duration": 0.023255813953483084
        },
        {
          "name": "F5",
          "midi": 77,
          "time": 58.918604651159605,
          "velocity": 0.2283464566929134,
          "duration": 0.44186046511622834
        },
        {
          "name": "G#6",
          "midi": 92,
          "time": 58.918604651159605,
          "velocity": 0.1889763779527559,
          "duration": 0.12790697674416407
        },
        {
          "name": "A#4",
          "midi": 70,
          "time": 58.930232558136346,
          "velocity": 0.49606299212598426,
          "duration": 0.1395348837209056
        },
        {
          "name": "A#6",
          "midi": 94,
          "time": 58.930232558136346,
          "velocity": 0.2047244094488189,
          "duration": 0.11627906976742253
        },
        {
          "name": "C7",
          "midi": 96,
          "time": 58.930232558136346,
          "velocity": 0.3700787401574803,
          "duration": 0.1395348837209056
        },
        {
          "name": "D7",
          "midi": 98,
          "time": 58.930232558136346,
          "velocity": 0.2283464566929134,
          "duration": 0.11627906976742253
        },
        {
          "name": "A#2",
          "midi": 46,
          "time": 58.94186046511309,
          "velocity": 0.4094488188976378,
          "duration": 0.04651162790696617
        },
        {
          "name": "G3",
          "midi": 55,
          "time": 58.94186046511309,
          "velocity": 0.4094488188976378,
          "duration": 0.09302325581393944
        },
        {
          "name": "D6",
          "midi": 86,
          "time": 58.94186046511309,
          "velocity": 0.09448818897637795,
          "duration": 0.05813953488370771
        },
        {
          "name": "E7",
          "midi": 100,
          "time": 58.94186046511309,
          "velocity": 0.23622047244094488,
          "duration": 0.034883720930224626
        },
        {
          "name": "F7",
          "midi": 101,
          "time": 58.95348837208983,
          "velocity": 0.23622047244094488,
          "duration": 0.09302325581393944
        },
        {
          "name": "D#7",
          "midi": 99,
          "time": 58.97674418604331,
          "velocity": 0.2204724409448819,
          "duration": 0.046511627906973274
        },
        {
          "name": "A#2",
          "midi": 46,
          "time": 58.999999999996795,
          "velocity": 0.3937007874015748,
          "duration": 0.058139534883714816
        },
        {
          "name": "G#4",
          "midi": 68,
          "time": 58.999999999996795,
          "velocity": 0.2992125984251969,
          "duration": 0.1860465116278931
        },
        {
          "name": "E7",
          "midi": 100,
          "time": 59.023255813950286,
          "velocity": 0.33858267716535434,
          "duration": 0.13953488372091982
        },
        {
          "name": "A#3",
          "midi": 58,
          "time": 59.04651162790377,
          "velocity": 0.5196850393700787,
          "duration": 0.19767441860463464
        },
        {
          "name": "A#2",
          "midi": 46,
          "time": 59.06976744185725,
          "velocity": 0.3543307086614173,
          "duration": 0.02325581395349019
        },
        {
          "name": "G#6",
          "midi": 92,
          "time": 59.11627906976423,
          "velocity": 0.07086614173228346,
          "duration": 0.06976744186045636
        },
        {
          "name": "A#2",
          "midi": 46,
          "time": 59.127906976740974,
          "velocity": 0.36220472440944884,
          "duration": 0.03488372093023173
        },
        {
          "name": "D#7",
          "midi": 99,
          "time": 59.162790697671205,
          "velocity": 0.3228346456692913,
          "duration": 0.058139534883714816
        },
        {
          "name": "A#6",
          "midi": 94,
          "time": 59.17441860464795,
          "velocity": 0.2992125984251969,
          "duration": 0.1395348837209056
        },
        {
          "name": "C7",
          "midi": 96,
          "time": 59.17441860464795,
          "velocity": 0.33858267716535434,
          "duration": 0.1395348837209056
        },
        {
          "name": "D7",
          "midi": 98,
          "time": 59.17441860464795,
          "velocity": 0.2992125984251969,
          "duration": 0.3023255813953156
        },
        {
          "name": "F7",
          "midi": 101,
          "time": 59.18604651162469,
          "velocity": 0.30708661417322836,
          "duration": 0.11627906976742253
        },
        {
          "name": "A#2",
          "midi": 46,
          "time": 59.19767441860143,
          "velocity": 0.31496062992125984,
          "duration": 0.02325581395349019
        },
        {
          "name": "G#4",
          "midi": 68,
          "time": 59.19767441860143,
          "velocity": 0.3228346456692913,
          "duration": 0.03488372093023173
        },
        {
          "name": "E7",
          "midi": 100,
          "time": 59.22093023255492,
          "velocity": 0.25984251968503935,
          "duration": 0.09302325581393234
        },
        {
          "name": "F#7",
          "midi": 102,
          "time": 59.22093023255492,
          "velocity": 0.2125984251968504,
          "duration": 0.09302325581393234
        },
        {
          "name": "G3",
          "midi": 55,
          "time": 59.23255813953166,
          "velocity": 0.33858267716535434,
          "duration": 0.034883720930224626
        },
        {
          "name": "C#5",
          "midi": 73,
          "time": 59.23255813953166,
          "velocity": 0.11811023622047244,
          "duration": 0.0813953488371908
        },
        {
          "name": "A6",
          "midi": 93,
          "time": 59.23255813953166,
          "velocity": 0.29133858267716534,
          "duration": 0.034883720930224626
        },
        {
          "name": "B6",
          "midi": 95,
          "time": 59.23255813953166,
          "velocity": 0.2677165354330709,
          "duration": 0.034883720930224626
        },
        {
          "name": "D#7",
          "midi": 99,
          "time": 59.23255813953166,
          "velocity": 0.2755905511811024,
          "duration": 0.13953488372091272
        },
        {
          "name": "E4",
          "midi": 64,
          "time": 59.2441860465084,
          "velocity": 0.2992125984251969,
          "duration": 0.023255813953483084
        },
        {
          "name": "G#4",
          "midi": 68,
          "time": 59.2441860465084,
          "velocity": 0.30708661417322836,
          "duration": 0.12790697674417117
        },
        {
          "name": "E6",
          "midi": 88,
          "time": 59.2441860465084,
          "velocity": 0.14173228346456693,
          "duration": 0.034883720930224626
        },
        {
          "name": "F#6",
          "midi": 90,
          "time": 59.2441860465084,
          "velocity": 0.2125984251968504,
          "duration": 0.04651162790696617
        },
        {
          "name": "C#7",
          "midi": 97,
          "time": 59.2441860465084,
          "velocity": 0.2992125984251969,
          "duration": 0.06976744186044925
        },
        {
          "name": "A#2",
          "midi": 46,
          "time": 59.255813953485145,
          "velocity": 0.33070866141732286,
          "duration": 0.034883720930224626
        },
        {
          "name": "G#6",
          "midi": 92,
          "time": 59.26744186046189,
          "velocity": 0.25196850393700787,
          "duration": 0.023255813953483084
        },
        {
          "name": "D#3",
          "midi": 51,
          "time": 59.27906976743863,
          "velocity": 0.31496062992125984,
          "duration": 0.023255813953483084
        },
        {
          "name": "A#3",
          "midi": 58,
          "time": 59.30232558139211,
          "velocity": 0.5118110236220472,
          "duration": 0.17441860465115155
        },
        {
          "name": "D#3",
          "midi": 51,
          "time": 59.33720930232234,
          "velocity": 0.3937007874015748,
          "duration": 0.267441860465091
        },
        {
          "name": "C7",
          "midi": 96,
          "time": 59.33720930232234,
          "velocity": 0.33070866141732286,
          "duration": 0.17441860465114445
        },
        {
          "name": "E7",
          "midi": 100,
          "time": 59.372093023252575,
          "velocity": 0.2677165354330709,
          "duration": 0.06976744186045636
        },
        {
          "name": "F7",
          "midi": 101,
          "time": 59.372093023252575,
          "velocity": 0.1732283464566929,
          "duration": 0.09302325581394655
        },
        {
          "name": "G#4",
          "midi": 68,
          "time": 59.383720930229316,
          "velocity": 0.2992125984251969,
          "duration": 0.09302325581394655
        },
        {
          "name": "G#6",
          "midi": 92,
          "time": 59.39534883720606,
          "velocity": 0.08661417322834646,
          "duration": 0.06976744186046346
        },
        {
          "name": "D#7",
          "midi": 99,
          "time": 59.44186046511303,
          "velocity": 0.2755905511811024,
          "duration": 0.03488372093023173
        },
        {
          "name": "A3",
          "midi": 57,
          "time": 59.47674418604326,
          "velocity": 0.4645669291338583,
          "duration": 0.023255813953483084
        },
        {
          "name": "G#4",
          "midi": 68,
          "time": 59.488372093020004,
          "velocity": 0.30708661417322836,
          "duration": 0.11627906976742963
        },
        {
          "name": "F5",
          "midi": 77,
          "time": 59.488372093020004,
          "velocity": 0.1732283464566929,
          "duration": 0.186046511627886
        },
        {
          "name": "A#3",
          "midi": 58,
          "time": 59.52325581395023,
          "velocity": 0.2992125984251969,
          "duration": 0.06976744186046346
        },
        {
          "name": "C7",
          "midi": 96,
          "time": 59.58139534883395,
          "velocity": 0.2125984251968504,
          "duration": 0.1395348837209056
        },
        {
          "name": "G4",
          "midi": 67,
          "time": 59.604651162787434,
          "velocity": 0.33070866141732286,
          "duration": 0.03488372093023173
        },
        {
          "name": "G#3",
          "midi": 56,
          "time": 59.616279069764175,
          "velocity": 0.49606299212598426,
          "duration": 0.02325581395349019
        },
        {
          "name": "F#4",
          "midi": 66,
          "time": 59.639534883717666,
          "velocity": 0.25196850393700787,
          "duration": 0.2674418604650768
        },
        {
          "name": "C#1",
          "midi": 25,
          "time": 59.65116279069441,
          "velocity": 0.5118110236220472,
          "duration": 0.011627906976741542
        },
        {
          "name": "G#2",
          "midi": 44,
          "time": 59.65116279069441,
          "velocity": 0.3937007874015748,
          "duration": 0.023255813953483084
        },
        {
          "name": "A#3",
          "midi": 58,
          "time": 59.65116279069441,
          "velocity": 0.3937007874015748,
          "duration": 0.023255813953483084
        },
        {
          "name": "B0",
          "midi": 23,
          "time": 59.66279069767115,
          "velocity": 0.5826771653543307,
          "duration": 0.011627906976741542
        },
        {
          "name": "C#5",
          "midi": 73,
          "time": 59.66279069767115,
          "velocity": 0.1732283464566929,
          "duration": 0.8023255813952019
        },
        {
          "name": "C#1",
          "midi": 25,
          "time": 59.67441860464789,
          "velocity": 0.6614173228346457,
          "duration": 0.011627906976741542
        },
        {
          "name": "B3",
          "midi": 59,
          "time": 59.67441860464789,
          "velocity": 0.4409448818897638,
          "duration": 0.0813953488371979
        },
        {
          "name": "D#4",
          "midi": 63,
          "time": 59.67441860464789,
          "velocity": 0.33858267716535434,
          "duration": 0.49999999999991473
        },
        {
          "name": "C#7",
          "midi": 97,
          "time": 59.67441860464789,
          "velocity": 0.09448818897637795,
          "duration": 0.034883720930224626
        },
        {
          "name": "D1",
          "midi": 26,
          "time": 59.68604651162463,
          "velocity": 0.7007874015748031,
          "duration": 0.011627906976741542
        },
        {
          "name": "B0",
          "midi": 23,
          "time": 59.69767441860137,
          "velocity": 0.7244094488188977,
          "duration": 0.1627906976744029
        },
        {
          "name": "A#4",
          "midi": 70,
          "time": 59.69767441860137,
          "velocity": 0.3858267716535433,
          "duration": 0.20930232558136908
        },
        {
          "name": "G6",
          "midi": 91,
          "time": 59.69767441860137,
          "velocity": 0.11811023622047244,
          "duration": 0.034883720930224626
        },
        {
          "name": "D#3",
          "midi": 51,
          "time": 59.709302325578115,
          "velocity": 0.5275590551181102,
          "duration": 0.186046511627886
        },
        {
          "name": "A3",
          "midi": 57,
          "time": 59.79069767441532,
          "velocity": 0.5118110236220472,
          "duration": 0.023255813953483084
        },
        {
          "name": "G6",
          "midi": 91,
          "time": 59.79069767441532,
          "velocity": 0.11811023622047244,
          "duration": 0.058139534883714816
        },
        {
          "name": "G#6",
          "midi": 92,
          "time": 59.80232558139206,
          "velocity": 0.3700787401574803,
          "duration": 0.0813953488371979
        },
        {
          "name": "C7",
          "midi": 96,
          "time": 59.80232558139206,
          "velocity": 0.29133858267716534,
          "duration": 0.058139534883714816
        },
        {
          "name": "A#3",
          "midi": 58,
          "time": 59.8139534883688,
          "velocity": 0.5275590551181102,
          "duration": 0.046511627906973274
        },
        {
          "name": "F5",
          "midi": 77,
          "time": 59.8139534883688,
          "velocity": 0.11023622047244094,
          "duration": 0.0813953488371979
        },
        {
          "name": "F#2",
          "midi": 42,
          "time": 59.83720930232229,
          "velocity": 0.4645669291338583,
          "duration": 0.023255813953483084
        },
        {
          "name": "A#0",
          "midi": 22,
          "time": 59.860465116275776,
          "velocity": 0.7244094488188977,
          "duration": 0.011627906976741542
        },
        {
          "name": "F6",
          "midi": 89,
          "time": 59.860465116275776,
          "velocity": 0.25984251968503935,
          "duration": 0.15116279069764715
        },
        {
          "name": "B0",
          "midi": 23,
          "time": 59.87209302325252,
          "velocity": 0.7244094488188977,
          "duration": 0.06976744186044925
        },
        {
          "name": "A#3",
          "midi": 58,
          "time": 59.88372093022926,
          "velocity": 0.4015748031496063,
          "duration": 0.034883720930224626
        },
        {
          "name": "D#7",
          "midi": 99,
          "time": 59.88372093022926,
          "velocity": 0.09448818897637795,
          "duration": 0.04651162790696617
        },
        {
          "name": "G#2",
          "midi": 44,
          "time": 59.895348837206,
          "velocity": 0.49606299212598426,
          "duration": 0.023255813953483084
        },
        {
          "name": "E5",
          "midi": 76,
          "time": 59.895348837206,
          "velocity": 0.14173228346456693,
          "duration": 0.05813953488370771
        },
        {
          "name": "D#3",
          "midi": 51,
          "time": 59.90697674418274,
          "velocity": 0.5433070866141733,
          "duration": 0.05813953488370771
        },
        {
          "name": "A4",
          "midi": 69,
          "time": 59.90697674418274,
          "velocity": 0.4251968503937008,
          "duration": 0.04651162790696617
        },
        {
          "name": "A3",
          "midi": 57,
          "time": 59.918604651159484,
          "velocity": 0.41732283464566927,
          "duration": 0.023255813953483084
        },
        {
          "name": "F#4",
          "midi": 66,
          "time": 59.918604651159484,
          "velocity": 0.15748031496062992,
          "duration": 0.19767441860461332
        },
        {
          "name": "A#0",
          "midi": 22,
          "time": 59.94186046511297,
          "velocity": 0.7165354330708661,
          "duration": 0.011627906976741542
        },
        {
          "name": "B0",
          "midi": 23,
          "time": 59.95348837208971,
          "velocity": 0.7244094488188977,
          "duration": 0.7441860465114729
        },
        {
          "name": "A#4",
          "midi": 70,
          "time": 59.95348837208971,
          "velocity": 0.49606299212598426,
          "duration": 0.9534883720928491
        },
        {
          "name": "D#3",
          "midi": 51,
          "time": 59.97674418604319,
          "velocity": 0.5118110236220472,
          "duration": 0.02325581395349019
        },
        {
          "name": "F#2",
          "midi": 42,
          "time": 59.99999999999668,
          "velocity": 0.48031496062992124,
          "duration": 0.023255813953483084
        },
        {
          "name": "A#3",
          "midi": 58,
          "time": 59.99999999999668,
          "velocity": 0.4015748031496063,
          "duration": 0.034883720930224626
        },
        {
          "name": "F5",
          "midi": 77,
          "time": 59.99999999999668,
          "velocity": 0.23622047244094488,
          "duration": 0.0813953488371908
        },
        {
          "name": "D#3",
          "midi": 51,
          "time": 60.01162790697342,
          "velocity": 0.5118110236220472,
          "duration": 0.023255813953483084
        },
        {
          "name": "D6",
          "midi": 86,
          "time": 60.01162790697342,
          "velocity": 0.2283464566929134,
          "duration": 0.05813953488370771
        },
        {
          "name": "D#7",
          "midi": 99,
          "time": 60.01162790697342,
          "velocity": 0.2047244094488189,
          "duration": 0.04651162790696617
        },
        {
          "name": "G#6",
          "midi": 92,
          "time": 60.034883720926906,
          "velocity": 0.2125984251968504,
          "duration": 0.05813953488370771
        },
        {
          "name": "D#3",
          "midi": 51,
          "time": 60.04651162790365,
          "velocity": 0.49606299212598426,
          "duration": 0.0813953488371908
        },
        {
          "name": "A#3",
          "midi": 58,
          "time": 60.04651162790365,
          "velocity": 0.28346456692913385,
          "duration": 0.05813953488370771
        },
        {
          "name": "D7",
          "midi": 98,
          "time": 60.04651162790365,
          "velocity": 0.2283464566929134,
          "duration": 0.15116279069764005
        },
        {
          "name": "C7",
          "midi": 96,
          "time": 60.05813953488039,
          "velocity": 0.11023622047244094,
          "duration": 0.04651162790696617
        },
        {
          "name": "F6",
          "midi": 89,
          "time": 60.093023255810614,
          "velocity": 0.3228346456692913,
          "duration": 0.20930232558134776
        },
        {
          "name": "B3",
          "midi": 59,
          "time": 60.104651162787356,
          "velocity": 0.33858267716535434,
          "duration": 0.023255813953483084
        },
        {
          "name": "F#2",
          "midi": 42,
          "time": 60.1162790697641,
          "velocity": 0.4566929133858268,
          "duration": 0.023255813953483084
        },
        {
          "name": "G6",
          "midi": 91,
          "time": 60.1162790697641,
          "velocity": 0.13385826771653545,
          "duration": 0.0813953488371908
        },
        {
          "name": "D#3",
          "midi": 51,
          "time": 60.13953488371758,
          "velocity": 0.48031496062992124,
          "duration": 0.023255813953483084
        },
        {
          "name": "F#2",
          "midi": 42,
          "time": 60.15116279069432,
          "velocity": 0.4409448818897638,
          "duration": 0.034883720930224626
        },
        {
          "name": "F4",
          "midi": 65,
          "time": 60.16279069767106,
          "velocity": 0.30708661417322836,
          "duration": 0.04651162790696617
        },
        {
          "name": "A#3",
          "midi": 58,
          "time": 60.174418604647805,
          "velocity": 0.4251968503937008,
          "duration": 0.12790697674415696
        },
        {
          "name": "D#5",
          "midi": 75,
          "time": 60.174418604647805,
          "velocity": 0.09448818897637795,
          "duration": 0.10465116279067388
        },
        {
          "name": "D#4",
          "midi": 63,
          "time": 60.19767441860129,
          "velocity": 0.30708661417322836,
          "duration": 0.034883720930224626
        },
        {
          "name": "F5",
          "midi": 77,
          "time": 60.19767441860129,
          "velocity": 0.3858267716535433,
          "duration": 0.11627906976741542
        },
        {
          "name": "G#6",
          "midi": 92,
          "time": 60.19767441860129,
          "velocity": 0.4015748031496063,
          "duration": 0.0813953488371908
        },
        {
          "name": "D6",
          "midi": 86,
          "time": 60.20930232557803,
          "velocity": 0.3228346456692913,
          "duration": 0.1395348837208985
        },
        {
          "name": "F#7",
          "midi": 102,
          "time": 60.20930232557803,
          "velocity": 0.25196850393700787,
          "duration": 0.05813953488370771
        },
        {
          "name": "F4",
          "midi": 65,
          "time": 60.22093023255477,
          "velocity": 0.2992125984251969,
          "duration": 0.034883720930224626
        },
        {
          "name": "C6",
          "midi": 84,
          "time": 60.23255813953151,
          "velocity": 0.08661417322834646,
          "duration": 0.11627906976741542
        },
        {
          "name": "F#2",
          "midi": 42,
          "time": 60.244186046508254,
          "velocity": 0.4409448818897638,
          "duration": 0.023255813953483084
        },
        {
          "name": "D#3",
          "midi": 51,
          "time": 60.244186046508254,
          "velocity": 0.44881889763779526,
          "duration": 0.04651162790696617
        },
        {
          "name": "F4",
          "midi": 65,
          "time": 60.26744186046174,
          "velocity": 0.31496062992125984,
          "duration": 0.023255813953483084
        },
        {
          "name": "D7",
          "midi": 98,
          "time": 60.26744186046174,
          "velocity": 0.33858267716535434,
          "duration": 0.20930232558135486
        },
        {
          "name": "F#2",
          "midi": 42,
          "time": 60.27906976743848,
          "velocity": 0.4409448818897638,
          "duration": 0.034883720930224626
        },
        {
          "name": "D#4",
          "midi": 63,
          "time": 60.30232558139196,
          "velocity": 0.3700787401574803,
          "duration": 0.09302325581393234
        },
        {
          "name": "A6",
          "midi": 93,
          "time": 60.30232558139196,
          "velocity": 0.28346456692913385,
          "duration": 0.0813953488371908
        },
        {
          "name": "B6",
          "midi": 95,
          "time": 60.30232558139196,
          "velocity": 0.28346456692913385,
          "duration": 0.034883720930224626
        },
        {
          "name": "D#7",
          "midi": 99,
          "time": 60.30232558139196,
          "velocity": 0.30708661417322836,
          "duration": 0.05813953488370771
        },
        {
          "name": "E7",
          "midi": 100,
          "time": 60.30232558139196,
          "velocity": 0.2283464566929134,
          "duration": 0.0813953488371908
        },
        {
          "name": "F6",
          "midi": 89,
          "time": 60.3139534883687,
          "velocity": 0.2204724409448819,
          "duration": 0.034883720930224626
        },
        {
          "name": "C7",
          "midi": 96,
          "time": 60.3139534883687,
          "velocity": 0.29133858267716534,
          "duration": 0.05813953488370771
        },
        {
          "name": "C#7",
          "midi": 97,
          "time": 60.3139534883687,
          "velocity": 0.28346456692913385,
          "duration": 0.06976744186044925
        },
        {
          "name": "G7",
          "midi": 103,
          "time": 60.3139534883687,
          "velocity": 0.18110236220472442,
          "duration": 0.06976744186044925
        },
        {
          "name": "D#6",
          "midi": 87,
          "time": 60.325581395345445,
          "velocity": 0.07874015748031496,
          "duration": 0.034883720930224626
        },
        {
          "name": "F#7",
          "midi": 102,
          "time": 60.325581395345445,
          "velocity": 0.2047244094488189,
          "duration": 0.034883720930224626
        },
        {
          "name": "G6",
          "midi": 91,
          "time": 60.34883720929893,
          "velocity": 0.10236220472440945,
          "duration": 0.05813953488370771
        },
        {
          "name": "F6",
          "midi": 89,
          "time": 60.36046511627567,
          "velocity": 0.11811023622047244,
          "duration": 0.11627906976742253
        },
        {
          "name": "F#2",
          "midi": 42,
          "time": 60.37209302325241,
          "velocity": 0.41732283464566927,
          "duration": 0.023255813953483084
        },
        {
          "name": "F4",
          "midi": 65,
          "time": 60.37209302325241,
          "velocity": 0.29133858267716534,
          "duration": 0.023255813953483084
        },
        {
          "name": "D#3",
          "midi": 51,
          "time": 60.38372093022915,
          "velocity": 0.41732283464566927,
          "duration": 0.023255813953483084
        },
        {
          "name": "C6",
          "midi": 84,
          "time": 60.38372093022915,
          "velocity": 0.1732283464566929,
          "duration": 0.12790697674416407
        },
        {
          "name": "D#5",
          "midi": 75,
          "time": 60.395348837205894,
          "velocity": 0.30708661417322836,
          "duration": 0.09302325581393944
        },
        {
          "name": "F#2",
          "midi": 42,
          "time": 60.406976744182636,
          "velocity": 0.44881889763779526,
          "duration": 0.02325581395349019
        },
        {
          "name": "F4",
          "midi": 65,
          "time": 60.406976744182636,
          "velocity": 0.30708661417322836,
          "duration": 0.03488372093023173
        },
        {
          "name": "D#4",
          "midi": 63,
          "time": 60.430232558136126,
          "velocity": 0.30708661417322836,
          "duration": 0.034883720930224626
        },
        {
          "name": "F4",
          "midi": 65,
          "time": 60.45348837208961,
          "velocity": 0.33858267716535434,
          "duration": 0.04651162790696617
        },
        {
          "name": "E3",
          "midi": 52,
          "time": 60.46511627906635,
          "velocity": 0.4015748031496063,
          "duration": 0.023255813953483084
        },
        {
          "name": "G#5",
          "midi": 80,
          "time": 60.46511627906635,
          "velocity": 0.3464566929133858,
          "duration": 0.023255813953483084
        },
        {
          "name": "A5",
          "midi": 81,
          "time": 60.47674418604309,
          "velocity": 0.3700787401574803,
          "duration": 0.034883720930224626
        },
        {
          "name": "E6",
          "midi": 88,
          "time": 60.47674418604309,
          "velocity": 0.2204724409448819,
          "duration": 0.034883720930224626
        },
        {
          "name": "F#6",
          "midi": 90,
          "time": 60.47674418604309,
          "velocity": 0.4251968503937008,
          "duration": 0.1395348837208985
        },
        {
          "name": "F#2",
          "midi": 42,
          "time": 60.488372093019834,
          "velocity": 0.4015748031496063,
          "duration": 0.023255813953483084
        },
        {
          "name": "C#5",
          "midi": 73,
          "time": 60.488372093019834,
          "velocity": 0.11811023622047244,
          "duration": 0.4651162790696901
        },
        {
          "name": "D6",
          "midi": 86,
          "time": 60.488372093019834,
          "velocity": 0.2440944881889764,
          "duration": 0.034883720930224626
        },
        {
          "name": "F6",
          "midi": 89,
          "time": 60.488372093019834,
          "velocity": 0.3543307086614173,
          "duration": 0.19767441860460622
        },
        {
          "name": "G#6",
          "midi": 92,
          "time": 60.488372093019834,
          "velocity": 0.15748031496062992,
          "duration": 0.034883720930224626
        },
        {
          "name": "F#5",
          "midi": 78,
          "time": 60.499999999996575,
          "velocity": 0.4330708661417323,
          "duration": 0.15116279069764005
        },
        {
          "name": "D#4",
          "midi": 63,
          "time": 60.51162790697332,
          "velocity": 0.2755905511811024,
          "duration": 0.05813953488370771
        },
        {
          "name": "B5",
          "midi": 83,
          "time": 60.51162790697332,
          "velocity": 0.30708661417322836,
          "duration": 0.05813953488370771
        },
        {
          "name": "D#6",
          "midi": 87,
          "time": 60.51162790697332,
          "velocity": 0.33070866141732286,
          "duration": 0.05813953488370771
        },
        {
          "name": "A6",
          "midi": 93,
          "time": 60.51162790697332,
          "velocity": 0.18110236220472442,
          "duration": 0.06976744186044925
        },
        {
          "name": "B3",
          "midi": 59,
          "time": 60.52325581395006,
          "velocity": 0.2992125984251969,
          "duration": 0.023255813953483084
        },
        {
          "name": "F#2",
          "midi": 42,
          "time": 60.5348837209268,
          "velocity": 0.3779527559055118,
          "duration": 0.023255813953483084
        },
        {
          "name": "D#3",
          "midi": 51,
          "time": 60.569767441857024,
          "velocity": 0.36220472440944884,
          "duration": 0.023255813953483084
        },
        {
          "name": "F#4",
          "midi": 66,
          "time": 60.581395348833766,
          "velocity": 0.30708661417322836,
          "duration": 0.3837209302324993
        },
        {
          "name": "D#3",
          "midi": 51,
          "time": 60.60465116278725,
          "velocity": 0.3700787401574803,
          "duration": 0.023255813953483084
        },
        {
          "name": "D#3",
          "midi": 51,
          "time": 60.639534883717474,
          "velocity": 0.3464566929133858,
          "duration": 0.023255813953483084
        },
        {
          "name": "F#3",
          "midi": 54,
          "time": 60.639534883717474,
          "velocity": 0.33858267716535434,
          "duration": 0.023255813953483084
        },
        {
          "name": "F#2",
          "midi": 42,
          "time": 60.651162790694215,
          "velocity": 0.4015748031496063,
          "duration": 0.023255813953483084
        },
        {
          "name": "G6",
          "midi": 91,
          "time": 60.651162790694215,
          "velocity": 0.09448818897637795,
          "duration": 0.06976744186044925
        },
        {
          "name": "A#3",
          "midi": 58,
          "time": 60.66279069767096,
          "velocity": 0.49606299212598426,
          "duration": 0.05813953488370771
        },
        {
          "name": "D7",
          "midi": 98,
          "time": 60.6744186046477,
          "velocity": 0.2047244094488189,
          "duration": 0.10465116279067388
        },
        {
          "name": "F5",
          "midi": 77,
          "time": 60.68604651162444,
          "velocity": 0.08661417322834646,
          "duration": 0.034883720930224626
        },
        {
          "name": "F7",
          "midi": 101,
          "time": 60.68604651162444,
          "velocity": 0.16535433070866143,
          "duration": 0.05813953488370771
        },
        {
          "name": "C1",
          "midi": 24,
          "time": 60.69767441860118,
          "velocity": 0.6377952755905512,
          "duration": 0.011627906976741542
        },
        {
          "name": "B0",
          "midi": 23,
          "time": 60.70930232557792,
          "velocity": 0.6377952755905512,
          "duration": 0.23255813953485927
        },
        {
          "name": "C#7",
          "midi": 97,
          "time": 60.70930232557792,
          "velocity": 0.18110236220472442,
          "duration": 0.034883720930224626
        },
        {
          "name": "B3",
          "midi": 59,
          "time": 60.720930232554664,
          "velocity": 0.47244094488188976,
          "duration": 0.023255813953483084
        },
        {
          "name": "G2",
          "midi": 43,
          "time": 60.732558139531406,
          "velocity": 0.3543307086614173,
          "duration": 0.023255813953483084
        },
        {
          "name": "D#3",
          "midi": 51,
          "time": 60.732558139531406,
          "velocity": 0.33070866141732286,
          "duration": 0.023255813953483084
        },
        {
          "name": "F6",
          "midi": 89,
          "time": 60.732558139531406,
          "velocity": 0.13385826771653545,
          "duration": 0.22093023255811772
        },
        {
          "name": "A3",
          "midi": 57,
          "time": 60.74418604650815,
          "velocity": 0.3543307086614173,
          "duration": 0.023255813953483084
        },
        {
          "name": "D#3",
          "midi": 51,
          "time": 60.76744186046163,
          "velocity": 0.3464566929133858,
          "duration": 0.023255813953483084
        },
        {
          "name": "A#6",
          "midi": 94,
          "time": 60.790697674415114,
          "velocity": 0.07086614173228346,
          "duration": 0.03488372093023173
        },
        {
          "name": "F#3",
          "midi": 54,
          "time": 60.86046511627558,
          "velocity": 0.29133858267716534,
          "duration": 0.02325581395349019
        },
        {
          "name": "A#3",
          "midi": 58,
          "time": 60.90697674418256,
          "velocity": 0.4409448818897638,
          "duration": 0.023255813953483084
        },
        {
          "name": "B4",
          "midi": 71,
          "time": 60.90697674418256,
          "velocity": 0.4015748031496063,
          "duration": 0.10465116279067388
        },
        {
          "name": "B6",
          "midi": 95,
          "time": 60.90697674418256,
          "velocity": 0.31496062992125984,
          "duration": 0.10465116279067388
        },
        {
          "name": "C#7",
          "midi": 97,
          "time": 60.9186046511593,
          "velocity": 0.2755905511811024,
          "duration": 0.10465116279067388
        },
        {
          "name": "D#7",
          "midi": 99,
          "time": 60.9186046511593,
          "velocity": 0.2283464566929134,
          "duration": 0.034883720930224626
        },
        {
          "name": "E7",
          "midi": 100,
          "time": 60.9186046511593,
          "velocity": 0.31496062992125984,
          "duration": 0.11627906976741542
        },
        {
          "name": "F#7",
          "midi": 102,
          "time": 60.9186046511593,
          "velocity": 0.1968503937007874,
          "duration": 0.09302325581393234
        },
        {
          "name": "F#3",
          "midi": 54,
          "time": 60.93023255813604,
          "velocity": 0.2755905511811024,
          "duration": 0.023255813953483084
        },
        {
          "name": "B3",
          "midi": 59,
          "time": 60.93023255813604,
          "velocity": 0.41732283464566927,
          "duration": 0.1395348837209056
        },
        {
          "name": "C1",
          "midi": 24,
          "time": 60.94186046511278,
          "velocity": 0.5984251968503937,
          "duration": 0.011627906976741542
        },
        {
          "name": "F7",
          "midi": 101,
          "time": 60.94186046511278,
          "velocity": 0.2992125984251969,
          "duration": 0.0813953488371908
        },
        {
          "name": "B0",
          "midi": 23,
          "time": 60.953488372089524,
          "velocity": 0.5826771653543307,
          "duration": 0.36046511627903044
        },
        {
          "name": "E3",
          "midi": 52,
          "time": 60.953488372089524,
          "velocity": 0.3543307086614173,
          "duration": 0.023255813953483084
        },
        {
          "name": "A5",
          "midi": 81,
          "time": 60.953488372089524,
          "velocity": 0.13385826771653545,
          "duration": 0.04651162790696617
        },
        {
          "name": "E6",
          "midi": 88,
          "time": 60.953488372089524,
          "velocity": 0.13385826771653545,
          "duration": 0.034883720930224626
        },
        {
          "name": "F#6",
          "midi": 90,
          "time": 60.953488372089524,
          "velocity": 0.18110236220472442,
          "duration": 0.05813953488370771
        },
        {
          "name": "A6",
          "midi": 93,
          "time": 60.953488372089524,
          "velocity": 0.28346456692913385,
          "duration": 0.04651162790696617
        },
        {
          "name": "A#6",
          "midi": 94,
          "time": 60.953488372089524,
          "velocity": 0.2755905511811024,
          "duration": 0.06976744186044925
        },
        {
          "name": "C7",
          "midi": 96,
          "time": 60.953488372089524,
          "velocity": 0.2992125984251969,
          "duration": 0.0813953488371908
        },
        {
          "name": "D7",
          "midi": 98,
          "time": 60.953488372089524,
          "velocity": 0.31496062992125984,
          "duration": 0.05813953488370771
        },
        {
          "name": "G7",
          "midi": 103,
          "time": 60.953488372089524,
          "velocity": 0.16535433070866143,
          "duration": 0.06976744186044925
        },
        {
          "name": "D6",
          "midi": 86,
          "time": 60.965116279066265,
          "velocity": 0.12598425196850394,
          "duration": 0.04651162790696617
        },
        {
          "name": "D#7",
          "midi": 99,
          "time": 60.965116279066265,
          "velocity": 0.28346456692913385,
          "duration": 0.05813953488370771
        },
        {
          "name": "F3",
          "midi": 53,
          "time": 60.97674418604301,
          "velocity": 0.3543307086614173,
          "duration": 0.1860465116278931
        },
        {
          "name": "F#4",
          "midi": 66,
          "time": 60.97674418604301,
          "velocity": 0.25984251968503935,
          "duration": 0.023255813953483084
        },
        {
          "name": "G#6",
          "midi": 92,
          "time": 60.98837209301975,
          "velocity": 0.25196850393700787,
          "duration": 0.034883720930224626
        },
        {
          "name": "G4",
          "midi": 67,
          "time": 60.99999999999649,
          "velocity": 0.2755905511811024,
          "duration": 0.023255813953483084
        },
        {
          "name": "C5",
          "midi": 72,
          "time": 61.01162790697323,
          "velocity": 0.16535433070866143,
          "duration": 0.16279069767441
        },
        {
          "name": "G#4",
          "midi": 68,
          "time": 61.02325581394997,
          "velocity": 0.33070866141732286,
          "duration": 0.30232558139532273
        },
        {
          "name": "D#6",
          "midi": 87,
          "time": 61.02325581394997,
          "velocity": 0.11023622047244094,
          "duration": 0.22093023255812483
        },
        {
          "name": "G3",
          "midi": 55,
          "time": 61.1627906976709,
          "velocity": 0.31496062992125984,
          "duration": 0.023255813953483084
        },
        {
          "name": "C#5",
          "midi": 73,
          "time": 61.17441860464764,
          "velocity": 0.28346456692913385,
          "duration": 0.15116279069765426
        },
        {
          "name": "F#3",
          "midi": 54,
          "time": 61.18604651162438,
          "velocity": 0.30708661417322836,
          "duration": 0.03488372093023173
        },
        {
          "name": "A#4",
          "midi": 70,
          "time": 61.232558139531356,
          "velocity": 0.28346456692913385,
          "duration": 0.023255813953483084
        },
        {
          "name": "F#3",
          "midi": 54,
          "time": 61.2441860465081,
          "velocity": 0.3779527559055118,
          "duration": 0.06976744186045636
        },
        {
          "name": "E6",
          "midi": 88,
          "time": 61.2441860465081,
          "velocity": 0.09448818897637795,
          "duration": 0.03488372093023173
        },
        {
          "name": "A2",
          "midi": 45,
          "time": 61.25581395348484,
          "velocity": 0.29133858267716534,
          "duration": 0.02325581395349019
        },
        {
          "name": "B4",
          "midi": 71,
          "time": 61.27906976743833,
          "velocity": 0.2440944881889764,
          "duration": 0.034883720930224626
        },
        {
          "name": "D#6",
          "midi": 87,
          "time": 61.29069767441507,
          "velocity": 0.09448818897637795,
          "duration": 0.034883720930224626
        },
        {
          "name": "G#5",
          "midi": 80,
          "time": 61.30232558139181,
          "velocity": 0.4094488188976378,
          "duration": 0.0813953488371908
        },
        {
          "name": "B5",
          "midi": 83,
          "time": 61.313953488368554,
          "velocity": 0.18110236220472442,
          "duration": 0.034883720930224626
        },
        {
          "name": "A#6",
          "midi": 94,
          "time": 61.313953488368554,
          "velocity": 0.33070866141732286,
          "duration": 0.15116279069764005
        },
        {
          "name": "B6",
          "midi": 95,
          "time": 61.313953488368554,
          "velocity": 0.2440944881889764,
          "duration": 0.034883720930224626
        },
        {
          "name": "C7",
          "midi": 96,
          "time": 61.313953488368554,
          "velocity": 0.25196850393700787,
          "duration": 0.11627906976741542
        },
        {
          "name": "D#7",
          "midi": 99,
          "time": 61.313953488368554,
          "velocity": 0.2047244094488189,
          "duration": 0.09302325581393234
        },
        {
          "name": "B0",
          "midi": 23,
          "time": 61.325581395345296,
          "velocity": 0.47244094488188976,
          "duration": 0.023255813953483084
        },
        {
          "name": "G3",
          "midi": 55,
          "time": 61.325581395345296,
          "velocity": 0.41732283464566927,
          "duration": 0.034883720930224626
        },
        {
          "name": "D5",
          "midi": 74,
          "time": 61.325581395345296,
          "velocity": 0.4645669291338583,
          "duration": 0.023255813953483084
        },
        {
          "name": "F7",
          "midi": 101,
          "time": 61.325581395345296,
          "velocity": 0.08661417322834646,
          "duration": 0.034883720930224626
        },
        {
          "name": "C#4",
          "midi": 61,
          "time": 61.33720930232204,
          "velocity": 0.15748031496062992,
          "duration": 0.034883720930224626
        },
        {
          "name": "C#5",
          "midi": 73,
          "time": 61.33720930232204,
          "velocity": 0.29133858267716534,
          "duration": 0.06976744186044925
        },
        {
          "name": "F6",
          "midi": 89,
          "time": 61.33720930232204,
          "velocity": 0.12598425196850394,
          "duration": 0.09302325581393234
        },
        {
          "name": "C#7",
          "midi": 97,
          "time": 61.33720930232204,
          "velocity": 0.1889763779527559,
          "duration": 0.05813953488370771
        },
        {
          "name": "D#5",
          "midi": 75,
          "time": 61.34883720929878,
          "velocity": 0.4409448818897638,
          "duration": 0.034883720930224626
        },
        {
          "name": "B0",
          "midi": 23,
          "time": 61.36046511627552,
          "velocity": 0.4566929133858268,
          "duration": 0.2209302325580964
        },
        {
          "name": "G#4",
          "midi": 68,
          "time": 61.36046511627552,
          "velocity": 0.3779527559055118,
          "duration": 0.023255813953483084
        },
        {
          "name": "A3",
          "midi": 57,
          "time": 61.37209302325226,
          "velocity": 0.3700787401574803,
          "duration": 0.04651162790696617
        },
        {
          "name": "F#4",
          "midi": 66,
          "time": 61.383720930229,
          "velocity": 0.2283464566929134,
          "duration": 0.023255813953483084
        },
        {
          "name": "C6",
          "midi": 84,
          "time": 61.383720930229,
          "velocity": 0.11811023622047244,
          "duration": 0.10465116279067388
        },
        {
          "name": "D7",
          "midi": 98,
          "time": 61.383720930229,
          "velocity": 0.2677165354330709,
          "duration": 0.05813953488370771
        },
        {
          "name": "A#4",
          "midi": 70,
          "time": 61.395348837205745,
          "velocity": 0.41732283464566927,
          "duration": 0.034883720930224626
        },
        {
          "name": "D#5",
          "midi": 75,
          "time": 61.395348837205745,
          "velocity": 0.1732283464566929,
          "duration": 0.10465116279067388
        },
        {
          "name": "F5",
          "midi": 77,
          "time": 61.395348837205745,
          "velocity": 0.33858267716535434,
          "duration": 0.034883720930224626
        },
        {
          "name": "G#3",
          "midi": 56,
          "time": 61.41860465115923,
          "velocity": 0.28346456692913385,
          "duration": 0.04651162790696617
        },
        {
          "name": "G#5",
          "midi": 80,
          "time": 61.41860465115923,
          "velocity": 0.08661417322834646,
          "duration": 0.034883720930224626
        },
        {
          "name": "A4",
          "midi": 69,
          "time": 61.43023255813597,
          "velocity": 0.3700787401574803,
          "duration": 0.023255813953483084
        },
        {
          "name": "A#4",
          "midi": 70,
          "time": 61.44186046511271,
          "velocity": 0.3464566929133858,
          "duration": 0.04651162790696617
        },
        {
          "name": "F6",
          "midi": 89,
          "time": 61.44186046511271,
          "velocity": 0.2125984251968504,
          "duration": 0.37209302325575777
        },
        {
          "name": "G#3",
          "midi": 56,
          "time": 61.476744186042936,
          "velocity": 0.47244094488188976,
          "duration": 0.04651162790696617
        },
        {
          "name": "A4",
          "midi": 69,
          "time": 61.476744186042936,
          "velocity": 0.3858267716535433,
          "duration": 0.034883720930224626
        },
        {
          "name": "A4",
          "midi": 69,
          "time": 61.5232558139499,
          "velocity": 0.4094488188976378,
          "duration": 0.023255813953483084
        },
        {
          "name": "D#5",
          "midi": 75,
          "time": 61.5232558139499,
          "velocity": 0.1732283464566929,
          "duration": 0.06976744186045636
        },
        {
          "name": "G#6",
          "midi": 92,
          "time": 61.5232558139499,
          "velocity": 0.2125984251968504,
          "duration": 0.046511627906973274
        },
        {
          "name": "C7",
          "midi": 96,
          "time": 61.5232558139499,
          "velocity": 0.30708661417322836,
          "duration": 0.10465116279068098
        },
        {
          "name": "A#3",
          "midi": 58,
          "time": 61.53488372092664,
          "velocity": 0.4566929133858268,
          "duration": 0.09302325581393944
        },
        {
          "name": "F5",
          "midi": 77,
          "time": 61.53488372092664,
          "velocity": 0.14960629921259844,
          "duration": 0.2441860465116008
        },
        {
          "name": "A#6",
          "midi": 94,
          "time": 61.53488372092664,
          "velocity": 0.25196850393700787,
          "duration": 0.046511627906973274
        },
        {
          "name": "D7",
          "midi": 98,
          "time": 61.53488372092664,
          "velocity": 0.28346456692913385,
          "duration": 0.0813953488371979
        },
        {
          "name": "A#4",
          "midi": 70,
          "time": 61.546511627903385,
          "velocity": 0.5039370078740157,
          "duration": 0.6162790697673444
        },
        {
          "name": "C1",
          "midi": 24,
          "time": 61.58139534883362,
          "velocity": 0.2677165354330709,
          "duration": 0.023255813953483084
        },
        {
          "name": "A#3",
          "midi": 58,
          "time": 61.639534883717324,
          "velocity": 0.5590551181102362,
          "duration": 0.2674418604650768
        },
        {
          "name": "D#5",
          "midi": 75,
          "time": 61.639534883717324,
          "velocity": 0.11023622047244094,
          "duration": 0.06976744186046346
        },
        {
          "name": "D6",
          "midi": 86,
          "time": 61.6860465116243,
          "velocity": 0.09448818897637795,
          "duration": 0.081395348837205
        },
        {
          "name": "G#4",
          "midi": 68,
          "time": 61.73255813953128,
          "velocity": 0.2283464566929134,
          "duration": 0.023255813953483084
        },
        {
          "name": "A#6",
          "midi": 94,
          "time": 61.73255813953128,
          "velocity": 0.1889763779527559,
          "duration": 0.10465116279067388
        },
        {
          "name": "G#5",
          "midi": 80,
          "time": 61.74418604650802,
          "velocity": 0.4094488188976378,
          "duration": 0.0813953488371908
        },
        {
          "name": "B6",
          "midi": 95,
          "time": 61.75581395348476,
          "velocity": 0.1889763779527559,
          "duration": 0.034883720930224626
        },
        {
          "name": "C7",
          "midi": 96,
          "time": 61.7674418604615,
          "velocity": 0.31496062992125984,
          "duration": 0.10465116279067388
        },
        {
          "name": "D#7",
          "midi": 99,
          "time": 61.779069767438244,
          "velocity": 0.10236220472440945,
          "duration": 0.05813953488370771
        },
        {
          "name": "F5",
          "midi": 77,
          "time": 61.80232558139173,
          "velocity": 0.44881889763779526,
          "duration": 0.18604651162786467
        },
        {
          "name": "F#7",
          "midi": 102,
          "time": 61.80232558139173,
          "velocity": 0.10236220472440945,
          "duration": 0.034883720930224626
        },
        {
          "name": "F#1",
          "midi": 30,
          "time": 61.81395348836847,
          "velocity": 0.6456692913385826,
          "duration": 0.011627906976741542
        },
        {
          "name": "D7",
          "midi": 98,
          "time": 61.81395348836847,
          "velocity": 0.2677165354330709,
          "duration": 0.15116279069764005
        },
        {
          "name": "F7",
          "midi": 101,
          "time": 61.81395348836847,
          "velocity": 0.16535433070866143,
          "duration": 0.10465116279067388
        },
        {
          "name": "F1",
          "midi": 29,
          "time": 61.82558139534521,
          "velocity": 0.7086614173228346,
          "duration": 0.011627906976741542
        },
        {
          "name": "G5",
          "midi": 79,
          "time": 61.82558139534521,
          "velocity": 0.08661417322834646,
          "duration": 0.11627906976741542
        },
        {
          "name": "D6",
          "midi": 86,
          "time": 61.82558139534521,
          "velocity": 0.1889763779527559,
          "duration": 0.20930232558135486
        },
        {
          "name": "D#6",
          "midi": 87,
          "time": 61.82558139534521,
          "velocity": 0.13385826771653545,
          "duration": 0.29069767441855277
        },
        {
          "name": "E1",
          "midi": 28,
          "time": 61.83720930232195,
          "velocity": 0.7165354330708661,
          "duration": 0.011627906976741542
        },
        {
          "name": "D#1",
          "midi": 27,
          "time": 61.84883720929869,
          "velocity": 0.7480314960629921,
          "duration": 0.4883720930231732
        },
        {
          "name": "D#4",
          "midi": 63,
          "time": 61.84883720929869,
          "velocity": 0.25196850393700787,
          "duration": 0.04651162790696617
        },
        {
          "name": "G#4",
          "midi": 68,
          "time": 61.84883720929869,
          "velocity": 0.31496062992125984,
          "duration": 0.04651162790696617
        },
        {
          "name": "A#2",
          "midi": 46,
          "time": 61.860465116275435,
          "velocity": 0.4015748031496063,
          "duration": 0.023255813953483084
        },
        {
          "name": "G3",
          "midi": 55,
          "time": 61.860465116275435,
          "velocity": 0.5039370078740157,
          "duration": 0.2209302325581035
        },
        {
          "name": "D#7",
          "midi": 99,
          "time": 61.87209302325218,
          "velocity": 0.1889763779527559,
          "duration": 0.06976744186044925
        },
        {
          "name": "C7",
          "midi": 96,
          "time": 61.88372093022892,
          "velocity": 0.2283464566929134,
          "duration": 0.0813953488371908
        },
        {
          "name": "A#2",
          "midi": 46,
          "time": 61.89534883720566,
          "velocity": 0.4251968503937008,
          "duration": 0.2441860465115866
        },
        {
          "name": "D#4",
          "midi": 63,
          "time": 61.930232558135884,
          "velocity": 0.18110236220472442,
          "duration": 0.18604651162787889
        },
        {
          "name": "G#4",
          "midi": 68,
          "time": 61.930232558135884,
          "velocity": 0.2992125984251969,
          "duration": 0.023255813953483084
        },
        {
          "name": "G#6",
          "midi": 92,
          "time": 61.941860465112626,
          "velocity": 0.36220472440944884,
          "duration": 0.13953488372091272
        },
        {
          "name": "E7",
          "midi": 100,
          "time": 61.941860465112626,
          "velocity": 0.11023622047244094,
          "duration": 0.04651162790696617
        },
        {
          "name": "E5",
          "midi": 76,
          "time": 61.97674418604285,
          "velocity": 0.2283464566929134,
          "duration": 0.023255813953483084
        },
        {
          "name": "G#4",
          "midi": 68,
          "time": 61.98837209301959,
          "velocity": 0.3858267716535433,
          "duration": 0.31395348837205006
        },
        {
          "name": "C7",
          "midi": 96,
          "time": 61.98837209301959,
          "velocity": 0.14960629921259844,
          "duration": 0.06976744186046346
        },
        {
          "name": "F5",
          "midi": 77,
          "time": 61.999999999996334,
          "velocity": 0.4251968503937008,
          "duration": 0.11627906976742963
        },
        {
          "name": "E7",
          "midi": 100,
          "time": 61.999999999996334,
          "velocity": 0.1889763779527559,
          "duration": 0.06976744186046346
        },
        {
          "name": "D7",
          "midi": 98,
          "time": 62.034883720926565,
          "velocity": 0.11811023622047244,
          "duration": 0.03488372093023173
        },
        {
          "name": "G3",
          "midi": 55,
          "time": 62.09302325581028,
          "velocity": 0.5590551181102362,
          "duration": 0.034883720930224626
        },
        {
          "name": "D#7",
          "midi": 99,
          "time": 62.10465116278702,
          "velocity": 0.14960629921259844,
          "duration": 0.06976744186044925
        },
        {
          "name": "F5",
          "midi": 77,
          "time": 62.127906976740505,
          "velocity": 0.41732283464566927,
          "duration": 0.2674418604650697
        },
        {
          "name": "G3",
          "midi": 55,
          "time": 62.15116279069399,
          "velocity": 0.5984251968503937,
          "duration": 0.04651162790696617
        },
        {
          "name": "D#6",
          "midi": 87,
          "time": 62.15116279069399,
          "velocity": 0.16535433070866143,
          "duration": 0.18604651162787889
        },
        {
          "name": "D#5",
          "midi": 75,
          "time": 62.16279069767073,
          "velocity": 0.2755905511811024,
          "duration": 0.023255813953483084
        },
        {
          "name": "A#2",
          "midi": 46,
          "time": 62.17441860464747,
          "velocity": 0.4330708661417323,
          "duration": 0.09302325581393944
        },
        {
          "name": "A#5",
          "midi": 82,
          "time": 62.17441860464747,
          "velocity": 0.15748031496062992,
          "duration": 0.18604651162787889
        },
        {
          "name": "A#6",
          "midi": 94,
          "time": 62.17441860464747,
          "velocity": 0.25196850393700787,
          "duration": 0.13953488372091272
        },
        {
          "name": "B6",
          "midi": 95,
          "time": 62.17441860464747,
          "velocity": 0.18110236220472442,
          "duration": 0.034883720930224626
        },
        {
          "name": "C7",
          "midi": 96,
          "time": 62.17441860464747,
          "velocity": 0.28346456692913385,
          "duration": 0.17441860465113734
        },
        {
          "name": "D7",
          "midi": 98,
          "time": 62.17441860464747,
          "velocity": 0.1968503937007874,
          "duration": 0.15116279069765426
        },
        {
          "name": "E7",
          "midi": 100,
          "time": 62.17441860464747,
          "velocity": 0.18110236220472442,
          "duration": 0.034883720930224626
        },
        {
          "name": "A#4",
          "midi": 70,
          "time": 62.197674418600954,
          "velocity": 0.4094488188976378,
          "duration": 0.06976744186045636
        },
        {
          "name": "C#5",
          "midi": 73,
          "time": 62.197674418600954,
          "velocity": 0.2125984251968504,
          "duration": 0.06976744186045636
        },
        {
          "name": "F7",
          "midi": 101,
          "time": 62.197674418600954,
          "velocity": 0.15748031496062992,
          "duration": 0.12790697674417117
        },
        {
          "name": "G3",
          "midi": 55,
          "time": 62.209302325577696,
          "velocity": 0.47244094488188976,
          "duration": 0.11627906976742963
        },
        {
          "name": "F#7",
          "midi": 102,
          "time": 62.209302325577696,
          "velocity": 0.09448818897637795,
          "duration": 0.046511627906973274
        },
        {
          "name": "E7",
          "midi": 100,
          "time": 62.22093023255444,
          "velocity": 0.25196850393700787,
          "duration": 0.09302325581394655
        },
        {
          "name": "G5",
          "midi": 79,
          "time": 62.24418604650793,
          "velocity": 0.09448818897637795,
          "duration": 0.0813953488371979
        },
        {
          "name": "B4",
          "midi": 71,
          "time": 62.26744186046141,
          "velocity": 0.36220472440944884,
          "duration": 0.02325581395349019
        },
        {
          "name": "A#4",
          "midi": 70,
          "time": 62.2906976744149,
          "velocity": 0.48031496062992124,
          "duration": 0.06976744186044925
        },
        {
          "name": "D6",
          "midi": 86,
          "time": 62.2906976744149,
          "velocity": 0.11023622047244094,
          "duration": 0.06976744186044925
        },
        {
          "name": "A#2",
          "midi": 46,
          "time": 62.30232558139164,
          "velocity": 0.4251968503937008,
          "duration": 0.034883720930224626
        },
        {
          "name": "F#3",
          "midi": 54,
          "time": 62.325581395345125,
          "velocity": 0.4330708661417323,
          "duration": 0.023255813953483084
        },
        {
          "name": "D1",
          "midi": 26,
          "time": 62.33720930232187,
          "velocity": 0.7007874015748031,
          "duration": 0.023255813953483084
        },
        {
          "name": "A2",
          "midi": 45,
          "time": 62.33720930232187,
          "velocity": 0.4251968503937008,
          "duration": 0.023255813953483084
        },
        {
          "name": "G#4",
          "midi": 68,
          "time": 62.33720930232187,
          "velocity": 0.2992125984251969,
          "duration": 0.023255813953483084
        },
        {
          "name": "F3",
          "midi": 53,
          "time": 62.34883720929861,
          "velocity": 0.4251968503937008,
          "duration": 0.023255813953483084
        },
        {
          "name": "C#1",
          "midi": 25,
          "time": 62.36046511627535,
          "velocity": 0.6929133858267716,
          "duration": 0.023255813953483084
        },
        {
          "name": "G#2",
          "midi": 44,
          "time": 62.36046511627535,
          "velocity": 0.4251968503937008,
          "duration": 0.023255813953483084
        },
        {
          "name": "F4",
          "midi": 65,
          "time": 62.37209302325209,
          "velocity": 0.28346456692913385,
          "duration": 0.023255813953483084
        },
        {
          "name": "G#4",
          "midi": 68,
          "time": 62.37209302325209,
          "velocity": 0.36220472440944884,
          "duration": 0.034883720930224626
        },
        {
          "name": "B0",
          "midi": 23,
          "time": 62.38372093022883,
          "velocity": 0.6850393700787402,
          "duration": 0.034883720930224626
        },
        {
          "name": "F7",
          "midi": 101,
          "time": 62.395348837205574,
          "velocity": 0.2755905511811024,
          "duration": 0.0813953488371908
        },
        {
          "name": "A#3",
          "midi": 58,
          "time": 62.406976744182316,
          "velocity": 0.5433070866141733,
          "duration": 0.12790697674416407
        },
        {
          "name": "A#6",
          "midi": 94,
          "time": 62.406976744182316,
          "velocity": 0.16535433070866143,
          "duration": 0.0813953488371908
        },
        {
          "name": "C7",
          "midi": 96,
          "time": 62.406976744182316,
          "velocity": 0.29133858267716534,
          "duration": 0.0813953488371908
        },
        {
          "name": "A0",
          "midi": 21,
          "time": 62.41860465115906,
          "velocity": 0.6929133858267716,
          "duration": 0.023255813953483084
        },
        {
          "name": "F5",
          "midi": 77,
          "time": 62.41860465115906,
          "velocity": 0.15748031496062992,
          "duration": 0.06976744186044925
        },
        {
          "name": "G#5",
          "midi": 80,
          "time": 62.41860465115906,
          "velocity": 0.10236220472440945,
          "duration": 0.034883720930224626
        },
        {
          "name": "E7",
          "midi": 100,
          "time": 62.41860465115906,
          "velocity": 0.2283464566929134,
          "duration": 0.12790697674416407
        },
        {
          "name": "E4",
          "midi": 64,
          "time": 62.4302325581358,
          "velocity": 0.33070866141732286,
          "duration": 0.023255813953483084
        },
        {
          "name": "D7",
          "midi": 98,
          "time": 62.4302325581358,
          "velocity": 0.13385826771653545,
          "duration": 0.12790697674416407
        },
        {
          "name": "G#0",
          "midi": 20,
          "time": 62.44186046511254,
          "velocity": 0.6850393700787402,
          "duration": 0.011627906976741542
        },
        {
          "name": "G0",
          "midi": 19,
          "time": 62.45348837208928,
          "velocity": 0.6929133858267716,
          "duration": 0.011627906976741542
        },
        {
          "name": "B2",
          "midi": 47,
          "time": 62.45348837208928,
          "velocity": 0.4409448818897638,
          "duration": 0.023255813953483084
        },
        {
          "name": "F#0",
          "midi": 18,
          "time": 62.465116279066024,
          "velocity": 0.6850393700787402,
          "duration": 0.011627906976741542
        },
        {
          "name": "F0",
          "midi": 17,
          "time": 62.476744186042765,
          "velocity": 0.6850393700787402,
          "duration": 0.011627906976741542
        },
        {
          "name": "D#0",
          "midi": 15,
          "time": 62.48837209301951,
          "velocity": 0.6771653543307087,
          "duration": 0.011627906976741542
        },
        {
          "name": "E4",
          "midi": 64,
          "time": 62.48837209301951,
          "velocity": 0.11811023622047244,
          "duration": 0.046511627906973274
        },
        {
          "name": "F#7",
          "midi": 102,
          "time": 62.48837209301951,
          "velocity": 0.33070866141732286,
          "duration": 0.058139534883714816
        },
        {
          "name": "G7",
          "midi": 103,
          "time": 62.48837209301951,
          "velocity": 0.29133858267716534,
          "duration": 0.058139534883714816
        },
        {
          "name": "D0",
          "midi": 14,
          "time": 62.49999999999625,
          "velocity": 0.6850393700787402,
          "duration": 0.02325581395349019
        },
        {
          "name": "D#7",
          "midi": 99,
          "time": 62.49999999999625,
          "velocity": 0.2204724409448819,
          "duration": 0.058139534883714816
        },
        {
          "name": "F7",
          "midi": 101,
          "time": 62.49999999999625,
          "velocity": 0.2283464566929134,
          "duration": 0.058139534883714816
        },
        {
          "name": "B-1",
          "midi": 11,
          "time": 62.52325581394974,
          "velocity": 0.6220472440944882,
          "duration": 0.011627906976741542
        },
        {
          "name": "A-1",
          "midi": 9,
          "time": 62.53488372092648,
          "velocity": 0.6456692913385826,
          "duration": 0.011627906976741542
        },
        {
          "name": "D3",
          "midi": 50,
          "time": 62.53488372092648,
          "velocity": 0.3779527559055118,
          "duration": 0.023255813953483084
        },
        {
          "name": "B6",
          "midi": 95,
          "time": 62.53488372092648,
          "velocity": 0.07874015748031496,
          "duration": 0.034883720930224626
        },
        {
          "name": "B-1",
          "midi": 11,
          "time": 62.54651162790322,
          "velocity": 0.6850393700787402,
          "duration": 0.011627906976741542
        },
        {
          "name": "C7",
          "midi": 96,
          "time": 62.54651162790322,
          "velocity": 0.11023622047244094,
          "duration": 0.034883720930224626
        },
        {
          "name": "F-1",
          "midi": 5,
          "time": 62.55813953487996,
          "velocity": 0.5590551181102362,
          "duration": 0.011627906976741542
        },
        {
          "name": "G3",
          "midi": 55,
          "time": 62.55813953487996,
          "velocity": 0.36220472440944884,
          "duration": 0.05813953488370771
        },
        {
          "name": "F5",
          "midi": 77,
          "time": 62.569767441856705,
          "velocity": 0.10236220472440945,
          "duration": 0.05813953488370771
        },
        {
          "name": "D0",
          "midi": 14,
          "time": 62.581395348833446,
          "velocity": 0.5984251968503937,
          "duration": 0.011627906976741542
        },
        {
          "name": "G#5",
          "midi": 80,
          "time": 62.60465116278693,
          "velocity": 0.2047244094488189,
          "duration": 0.04651162790696617
        },
        {
          "name": "A#6",
          "midi": 94,
          "time": 62.60465116278693,
          "velocity": 0.3228346456692913,
          "duration": 0.1395348837209056
        },
        {
          "name": "A4",
          "midi": 69,
          "time": 62.61627906976367,
          "velocity": 0.28346456692913385,
          "duration": 0.023255813953483084
        },
        {
          "name": "C7",
          "midi": 96,
          "time": 62.61627906976367,
          "velocity": 0.3779527559055118,
          "duration": 0.15116279069764715
        },
        {
          "name": "E7",
          "midi": 100,
          "time": 62.61627906976367,
          "velocity": 0.1968503937007874,
          "duration": 0.034883720930224626
        },
        {
          "name": "G-1",
          "midi": 7,
          "time": 62.62790697674041,
          "velocity": 0.5511811023622047,
          "duration": 0.011627906976741542
        },
        {
          "name": "A#3",
          "midi": 58,
          "time": 62.62790697674041,
          "velocity": 0.44881889763779526,
          "duration": 0.04651162790696617
        },
        {
          "name": "G#4",
          "midi": 68,
          "time": 62.62790697674041,
          "velocity": 0.31496062992125984,
          "duration": 0.0813953488371908
        },
        {
          "name": "D7",
          "midi": 98,
          "time": 62.62790697674041,
          "velocity": 0.3228346456692913,
          "duration": 0.12790697674416407
        },
        {
          "name": "G#-1",
          "midi": 8,
          "time": 62.639534883717154,
          "velocity": 0.6141732283464567,
          "duration": 0.011627906976741542
        },
        {
          "name": "F5",
          "midi": 77,
          "time": 62.639534883717154,
          "velocity": 0.3858267716535433,
          "duration": 0.4069767441859895
        },
        {
          "name": "F7",
          "midi": 101,
          "time": 62.639534883717154,
          "velocity": 0.29133858267716534,
          "duration": 0.17441860465113734
        },
        {
          "name": "B-1",
          "midi": 11,
          "time": 62.651162790693895,
          "velocity": 0.6692913385826772,
          "duration": 0.011627906976741542
        },
        {
          "name": "D#7",
          "midi": 99,
          "time": 62.651162790693895,
          "velocity": 0.3228346456692913,
          "duration": 0.15116279069765426
        },
        {
          "name": "D1",
          "midi": 26,
          "time": 62.66279069767064,
          "velocity": 0.6456692913385826,
          "duration": 0.011627906976741542
        },
        {
          "name": "G3",
          "midi": 55,
          "time": 62.66279069767064,
          "velocity": 0.33858267716535434,
          "duration": 0.04651162790696617
        },
        {
          "name": "D#6",
          "midi": 87,
          "time": 62.66279069767064,
          "velocity": 0.25196850393700787,
          "duration": 0.49999999999992184
        },
        {
          "name": "E7",
          "midi": 100,
          "time": 62.66279069767064,
          "velocity": 0.2755905511811024,
          "duration": 0.0813953488371979
        },
        {
          "name": "F#7",
          "midi": 102,
          "time": 62.66279069767064,
          "velocity": 0.1732283464566929,
          "duration": 0.06976744186045636
        },
        {
          "name": "D#1",
          "midi": 27,
          "time": 62.67441860464738,
          "velocity": 0.6377952755905512,
          "duration": 0.4069767441859895
        },
        {
          "name": "E4",
          "midi": 64,
          "time": 62.67441860464738,
          "velocity": 0.31496062992125984,
          "duration": 0.034883720930224626
        },
        {
          "name": "E6",
          "midi": 88,
          "time": 62.67441860464738,
          "velocity": 0.08661417322834646,
          "duration": 0.034883720930224626
        },
        {
          "name": "F#6",
          "midi": 90,
          "time": 62.67441860464738,
          "velocity": 0.14173228346456693,
          "duration": 0.058139534883714816
        },
        {
          "name": "G#6",
          "midi": 92,
          "time": 62.67441860464738,
          "velocity": 0.2677165354330709,
          "duration": 0.058139534883714816
        },
        {
          "name": "A6",
          "midi": 93,
          "time": 62.67441860464738,
          "velocity": 0.28346456692913385,
          "duration": 0.023255813953483084
        },
        {
          "name": "C#7",
          "midi": 97,
          "time": 62.67441860464738,
          "velocity": 0.33858267716535434,
          "duration": 0.0813953488371979
        },
        {
          "name": "G7",
          "midi": 103,
          "time": 62.67441860464738,
          "velocity": 0.1889763779527559,
          "duration": 0.06976744186045636
        },
        {
          "name": "B4",
          "midi": 71,
          "time": 62.68604651162412,
          "velocity": 0.5196850393700787,
          "duration": 0.011627906976741542
        },
        {
          "name": "A#4",
          "midi": 70,
          "time": 62.69767441860086,
          "velocity": 0.5433070866141733,
          "duration": 0.8488372093021965
        },
        {
          "name": "G6",
          "midi": 91,
          "time": 62.7093023255776,
          "velocity": 0.2677165354330709,
          "duration": 0.03488372093023173
        },
        {
          "name": "D#3",
          "midi": 51,
          "time": 62.744186046507835,
          "velocity": 0.31496062992125984,
          "duration": 0.046511627906973274
        },
        {
          "name": "A#3",
          "midi": 58,
          "time": 62.744186046507835,
          "velocity": 0.5275590551181102,
          "duration": 0.22093023255811772
        },
        {
          "name": "G#4",
          "midi": 68,
          "time": 62.744186046507835,
          "velocity": 0.31496062992125984,
          "duration": 0.1627906976744029
        },
        {
          "name": "D6",
          "midi": 86,
          "time": 62.744186046507835,
          "velocity": 0.23622047244094488,
          "duration": 0.2674418604650839
        },
        {
          "name": "F6",
          "midi": 89,
          "time": 62.81395348836829,
          "velocity": 0.4094488188976378,
          "duration": 0.17441860465114445
        },
        {
          "name": "D#3",
          "midi": 51,
          "time": 62.82558139534503,
          "velocity": 0.4015748031496063,
          "duration": 0.27906976744181833
        },
        {
          "name": "G#6",
          "midi": 92,
          "time": 62.82558139534503,
          "velocity": 0.16535433070866143,
          "duration": 0.11627906976743674
        },
        {
          "name": "F#7",
          "midi": 102,
          "time": 62.837209302321774,
          "velocity": 0.13385826771653545,
          "duration": 0.05813953488372192
        },
        {
          "name": "G#4",
          "midi": 68,
          "time": 62.94186046511247,
          "velocity": 0.30708661417322836,
          "duration": 0.023255813953483084
        },
        {
          "name": "C#6",
          "midi": 85,
          "time": 62.95348837208921,
          "velocity": 0.12598425196850394,
          "duration": 0.034883720930224626
        },
        {
          "name": "A3",
          "midi": 57,
          "time": 62.96511627906595,
          "velocity": 0.4881889763779528,
          "duration": 0.034883720930224626
        },
        {
          "name": "C6",
          "midi": 84,
          "time": 62.96511627906595,
          "velocity": 0.2440944881889764,
          "duration": 0.04651162790696617
        },
        {
          "name": "G#4",
          "midi": 68,
          "time": 62.976744186042694,
          "velocity": 0.3779527559055118,
          "duration": 0.034883720930224626
        },
        {
          "name": "C#7",
          "midi": 97,
          "time": 62.976744186042694,
          "velocity": 0.14173228346456693,
          "duration": 0.034883720930224626
        },
        {
          "name": "G#3",
          "midi": 56,
          "time": 62.988372093019436,
          "velocity": 0.49606299212598426,
          "duration": 0.023255813953483084
        },
        {
          "name": "A3",
          "midi": 57,
          "time": 63.01162790697292,
          "velocity": 0.5275590551181102,
          "duration": 0.011627906976741542
        },
        {
          "name": "C#6",
          "midi": 85,
          "time": 63.01162790697292,
          "velocity": 0.2125984251968504,
          "duration": 0.034883720930224626
        },
        {
          "name": "A#3",
          "midi": 58,
          "time": 63.02325581394966,
          "velocity": 0.5196850393700787,
          "duration": 0.09302325581393234
        },
        {
          "name": "G#4",
          "midi": 68,
          "time": 63.02325581394966,
          "velocity": 0.30708661417322836,
          "duration": 0.06976744186044925
        },
        {
          "name": "C7",
          "midi": 96,
          "time": 63.02325581394966,
          "velocity": 0.09448818897637795,
          "duration": 0.034883720930224626
        },
        {
          "name": "F7",
          "midi": 101,
          "time": 63.02325581394966,
          "velocity": 0.2283464566929134,
          "duration": 0.11627906976741542
        },
        {
          "name": "D6",
          "midi": 86,
          "time": 63.0348837209264,
          "velocity": 0.31496062992125984,
          "duration": 0.06976744186044925
        },
        {
          "name": "F5",
          "midi": 77,
          "time": 63.058139534879885,
          "velocity": 0.3228346456692913,
          "duration": 0.034883720930224626
        },
        {
          "name": "C7",
          "midi": 96,
          "time": 63.06976744185663,
          "velocity": 0.11811023622047244,
          "duration": 0.034883720930224626
        },
        {
          "name": "F#7",
          "midi": 102,
          "time": 63.06976744185663,
          "velocity": 0.2283464566929134,
          "duration": 0.09302325581393234
        },
        {
          "name": "D1",
          "midi": 26,
          "time": 63.08139534883337,
          "velocity": 0.5275590551181102,
          "duration": 0.011627906976741542
        },
        {
          "name": "B0",
          "midi": 23,
          "time": 63.09302325581011,
          "velocity": 0.5669291338582677,
          "duration": 0.011627906976741542
        },
        {
          "name": "G4",
          "midi": 67,
          "time": 63.09302325581011,
          "velocity": 0.2440944881889764,
          "duration": 0.023255813953483084
        },
        {
          "name": "F#5",
          "midi": 78,
          "time": 63.09302325581011,
          "velocity": 0.3543307086614173,
          "duration": 0.10465116279067388
        },
        {
          "name": "B5",
          "midi": 83,
          "time": 63.09302325581011,
          "velocity": 0.2677165354330709,
          "duration": 0.0813953488371908
        },
        {
          "name": "A6",
          "midi": 93,
          "time": 63.09302325581011,
          "velocity": 0.2677165354330709,
          "duration": 0.0813953488371908
        },
        {
          "name": "C#1",
          "midi": 25,
          "time": 63.10465116278685,
          "velocity": 0.6456692913385826,
          "duration": 0.011627906976741542
        },
        {
          "name": "D#4",
          "midi": 63,
          "time": 63.10465116278685,
          "velocity": 0.36220472440944884,
          "duration": 0.37209302325575067
        },
        {
          "name": "C#5",
          "midi": 73,
          "time": 63.10465116278685,
          "velocity": 0.5039370078740157,
          "duration": 0.4069767441859753
        },
        {
          "name": "D1",
          "midi": 26,
          "time": 63.11627906976359,
          "velocity": 0.6929133858267716,
          "duration": 0.011627906976741542
        },
        {
          "name": "A2",
          "midi": 45,
          "time": 63.11627906976359,
          "velocity": 0.48031496062992124,
          "duration": 0.023255813953483084
        },
        {
          "name": "F#3",
          "midi": 54,
          "time": 63.11627906976359,
          "velocity": 0.48031496062992124,
          "duration": 0.034883720930224626
        },
        {
          "name": "C1",
          "midi": 24,
          "time": 63.127906976740334,
          "velocity": 0.6929133858267716,
          "duration": 0.011627906976741542
        },
        {
          "name": "B0",
          "midi": 23,
          "time": 63.139534883717076,
          "velocity": 0.7322834645669292,
          "duration": 1.2674418604649134
        },
        {
          "name": "F3",
          "midi": 53,
          "time": 63.15116279069382,
          "velocity": 0.5275590551181102,
          "duration": 0.011627906976741542
        },
        {
          "name": "F#3",
          "midi": 54,
          "time": 63.16279069767056,
          "velocity": 0.4251968503937008,
          "duration": 0.023255813953483084
        },
        {
          "name": "B3",
          "midi": 59,
          "time": 63.16279069767056,
          "velocity": 0.3937007874015748,
          "duration": 0.023255813953483084
        },
        {
          "name": "E2",
          "midi": 40,
          "time": 63.1744186046473,
          "velocity": 0.4566929133858268,
          "duration": 0.023255813953483084
        },
        {
          "name": "A#3",
          "midi": 58,
          "time": 63.18604651162404,
          "velocity": 0.44881889763779526,
          "duration": 0.05813953488370771
        },
        {
          "name": "D7",
          "midi": 98,
          "time": 63.209302325577525,
          "velocity": 0.2047244094488189,
          "duration": 0.12790697674417117
        },
        {
          "name": "D#3",
          "midi": 51,
          "time": 63.22093023255427,
          "velocity": 0.5196850393700787,
          "duration": 0.11627906976742963
        },
        {
          "name": "G#6",
          "midi": 92,
          "time": 63.22093023255427,
          "velocity": 0.4015748031496063,
          "duration": 0.17441860465113734
        },
        {
          "name": "F5",
          "midi": 77,
          "time": 63.23255813953101,
          "velocity": 0.4251968503937008,
          "duration": 0.09302325581394655
        },
        {
          "name": "D6",
          "midi": 86,
          "time": 63.23255813953101,
          "velocity": 0.2283464566929134,
          "duration": 0.10465116279068809
        },
        {
          "name": "C7",
          "midi": 96,
          "time": 63.24418604650775,
          "velocity": 0.1732283464566929,
          "duration": 0.06976744186046346
        },
        {
          "name": "F#7",
          "midi": 102,
          "time": 63.24418604650775,
          "velocity": 0.18110236220472442,
          "duration": 0.03488372093023173
        },
        {
          "name": "D#7",
          "midi": 99,
          "time": 63.25581395348449,
          "velocity": 0.11023622047244094,
          "duration": 0.04651162790698038
        },
        {
          "name": "F#2",
          "midi": 42,
          "time": 63.30232558139147,
          "velocity": 0.4566929133858268,
          "duration": 0.023255813953483084
        },
        {
          "name": "G6",
          "midi": 91,
          "time": 63.30232558139147,
          "velocity": 0.2440944881889764,
          "duration": 0.09302325581393234
        },
        {
          "name": "E7",
          "midi": 100,
          "time": 63.30232558139147,
          "velocity": 0.14173228346456693,
          "duration": 0.034883720930224626
        },
        {
          "name": "G5",
          "midi": 79,
          "time": 63.31395348836821,
          "velocity": 0.25196850393700787,
          "duration": 0.023255813953483084
        },
        {
          "name": "F#6",
          "midi": 90,
          "time": 63.31395348836821,
          "velocity": 0.16535433070866143,
          "duration": 0.034883720930224626
        },
        {
          "name": "A6",
          "midi": 93,
          "time": 63.31395348836821,
          "velocity": 0.10236220472440945,
          "duration": 0.034883720930224626
        },
        {
          "name": "A5",
          "midi": 81,
          "time": 63.325581395344955,
          "velocity": 0.25984251968503935,
          "duration": 0.05813953488370771
        },
        {
          "name": "D3",
          "midi": 50,
          "time": 63.337209302321696,
          "velocity": 0.5118110236220472,
          "duration": 0.011627906976741542
        },
        {
          "name": "F#5",
          "midi": 78,
          "time": 63.337209302321696,
          "velocity": 0.29133858267716534,
          "duration": 0.023255813953483084
        },
        {
          "name": "D#3",
          "midi": 51,
          "time": 63.34883720929844,
          "velocity": 0.5118110236220472,
          "duration": 0.3255813953487916
        },
        {
          "name": "G5",
          "midi": 79,
          "time": 63.34883720929844,
          "velocity": 0.2755905511811024,
          "duration": 0.023255813953483084
        },
        {
          "name": "F5",
          "midi": 77,
          "time": 63.37209302325192,
          "velocity": 0.18110236220472442,
          "duration": 0.034883720930224626
        },
        {
          "name": "F#4",
          "midi": 66,
          "time": 63.406976744182145,
          "velocity": 0.11023622047244094,
          "duration": 0.058139534883714816
        },
        {
          "name": "F#2",
          "midi": 42,
          "time": 63.41860465115889,
          "velocity": 0.47244094488188976,
          "duration": 0.023255813953483084
        },
        {
          "name": "F6",
          "midi": 89,
          "time": 63.41860465115889,
          "velocity": 0.14960629921259844,
          "duration": 0.19767441860462753
        },
        {
          "name": "A#3",
          "midi": 58,
          "time": 63.43023255813563,
          "velocity": 0.3779527559055118,
          "duration": 0.046511627906973274
        },
        {
          "name": "F#2",
          "midi": 42,
          "time": 63.46511627906586,
          "velocity": 0.4566929133858268,
          "duration": 0.023255813953483084
        },
        {
          "name": "G5",
          "midi": 79,
          "time": 63.46511627906586,
          "velocity": 0.14173228346456693,
          "duration": 0.034883720930224626
        },
        {
          "name": "F7",
          "midi": 101,
          "time": 63.46511627906586,
          "velocity": 0.25984251968503935,
          "duration": 0.034883720930224626
        },
        {
          "name": "E6",
          "midi": 88,
          "time": 63.4767441860426,
          "velocity": 0.09448818897637795,
          "duration": 0.06976744186045636
        },
        {
          "name": "A#6",
          "midi": 94,
          "time": 63.4767441860426,
          "velocity": 0.33858267716535434,
          "duration": 0.0813953488371979
        },
        {
          "name": "C#7",
          "midi": 97,
          "time": 63.4767441860426,
          "velocity": 0.09448818897637795,
          "duration": 0.034883720930224626
        },
        {
          "name": "D7",
          "midi": 98,
          "time": 63.4767441860426,
          "velocity": 0.12598425196850394,
          "duration": 0.11627906976742963
        },
        {
          "name": "F#7",
          "midi": 102,
          "time": 63.4767441860426,
          "velocity": 0.23622047244094488,
          "duration": 0.12790697674417117
        },
        {
          "name": "C#4",
          "midi": 61,
          "time": 63.48837209301934,
          "velocity": 0.28346456692913385,
          "duration": 0.023255813953483084
        },
        {
          "name": "C7",
          "midi": 96,
          "time": 63.48837209301934,
          "velocity": 0.2125984251968504,
          "duration": 0.06976744186045636
        },
        {
          "name": "E7",
          "midi": 100,
          "time": 63.499999999996085,
          "velocity": 0.13385826771653545,
          "duration": 0.081395348837205
        },
        {
          "name": "C4",
          "midi": 60,
          "time": 63.51162790697283,
          "velocity": 0.31496062992125984,
          "duration": 0.02325581395349019
        },
        {
          "name": "C5",
          "midi": 72,
          "time": 63.51162790697283,
          "velocity": 0.4330708661417323,
          "duration": 0.03488372093023173
        },
        {
          "name": "G5",
          "midi": 79,
          "time": 63.51162790697283,
          "velocity": 0.2047244094488189,
          "duration": 0.03488372093023173
        },
        {
          "name": "D#5",
          "midi": 75,
          "time": 63.53488372092632,
          "velocity": 0.10236220472440945,
          "duration": 0.09302325581393944
        },
        {
          "name": "B4",
          "midi": 71,
          "time": 63.54651162790306,
          "velocity": 0.3700787401574803,
          "duration": 0.03488372093023173
        },
        {
          "name": "C#5",
          "midi": 73,
          "time": 63.54651162790306,
          "velocity": 0.18110236220472442,
          "duration": 0.27906976744182543
        },
        {
          "name": "F#5",
          "midi": 78,
          "time": 63.54651162790306,
          "velocity": 0.31496062992125984,
          "duration": 0.03488372093023173
        },
        {
          "name": "G#6",
          "midi": 92,
          "time": 63.54651162790306,
          "velocity": 0.2440944881889764,
          "duration": 0.058139534883714816
        },
        {
          "name": "B6",
          "midi": 95,
          "time": 63.54651162790306,
          "velocity": 0.12598425196850394,
          "duration": 0.03488372093023173
        },
        {
          "name": "C#7",
          "midi": 97,
          "time": 63.54651162790306,
          "velocity": 0.12598425196850394,
          "duration": 0.046511627906973274
        },
        {
          "name": "F#2",
          "midi": 42,
          "time": 63.5581395348798,
          "velocity": 0.44881889763779526,
          "duration": 0.046511627906973274
        },
        {
          "name": "B3",
          "midi": 59,
          "time": 63.5581395348798,
          "velocity": 0.3858267716535433,
          "duration": 0.03488372093023173
        },
        {
          "name": "A#5",
          "midi": 82,
          "time": 63.5581395348798,
          "velocity": 0.2440944881889764,
          "duration": 0.3488372093022747
        },
        {
          "name": "A#4",
          "midi": 70,
          "time": 63.58139534883329,
          "velocity": 0.48031496062992124,
          "duration": 0.8023255813952161
        },
        {
          "name": "F5",
          "midi": 77,
          "time": 63.58139534883329,
          "velocity": 0.2440944881889764,
          "duration": 0.023255813953483084
        },
        {
          "name": "A#3",
          "midi": 58,
          "time": 63.59302325581003,
          "velocity": 0.49606299212598426,
          "duration": 0.12790697674417117
        },
        {
          "name": "F7",
          "midi": 101,
          "time": 63.60465116278677,
          "velocity": 0.29133858267716534,
          "duration": 0.3837209302324922
        },
        {
          "name": "G6",
          "midi": 91,
          "time": 63.627906976740256,
          "velocity": 0.12598425196850394,
          "duration": 0.13953488372091272
        },
        {
          "name": "G#6",
          "midi": 92,
          "time": 63.627906976740256,
          "velocity": 0.2283464566929134,
          "duration": 0.081395348837205
        },
        {
          "name": "F5",
          "midi": 77,
          "time": 63.639534883717,
          "velocity": 0.2755905511811024,
          "duration": 0.06976744186046346
        },
        {
          "name": "F6",
          "midi": 89,
          "time": 63.639534883717,
          "velocity": 0.2755905511811024,
          "duration": 0.3255813953487845
        },
        {
          "name": "A#6",
          "midi": 94,
          "time": 63.639534883717,
          "velocity": 0.30708661417322836,
          "duration": 0.081395348837205
        },
        {
          "name": "D#7",
          "midi": 99,
          "time": 63.639534883717,
          "velocity": 0.18110236220472442,
          "duration": 0.03488372093023173
        },
        {
          "name": "F#7",
          "midi": 102,
          "time": 63.639534883717,
          "velocity": 0.2047244094488189,
          "duration": 0.081395348837205
        },
        {
          "name": "F4",
          "midi": 65,
          "time": 63.65116279069374,
          "velocity": 0.2992125984251969,
          "duration": 0.02325581395349019
        },
        {
          "name": "D6",
          "midi": 86,
          "time": 63.65116279069374,
          "velocity": 0.10236220472440945,
          "duration": 0.05813953488372192
        },
        {
          "name": "D#4",
          "midi": 63,
          "time": 63.67441860464723,
          "velocity": 0.3937007874015748,
          "duration": 0.19767441860462043
        },
        {
          "name": "E7",
          "midi": 100,
          "time": 63.67441860464723,
          "velocity": 0.18110236220472442,
          "duration": 0.046511627906973274
        },
        {
          "name": "D#3",
          "midi": 51,
          "time": 63.68604651162397,
          "velocity": 0.4566929133858268,
          "duration": 0.02325581395349019
        },
        {
          "name": "F#2",
          "midi": 42,
          "time": 63.7209302325542,
          "velocity": 0.4330708661417323,
          "duration": 0.04651162790696617
        },
        {
          "name": "D#3",
          "midi": 51,
          "time": 63.7209302325542,
          "velocity": 0.44881889763779526,
          "duration": 0.023255813953483084
        },
        {
          "name": "D7",
          "midi": 98,
          "time": 63.732558139530944,
          "velocity": 0.3228346456692913,
          "duration": 0.058139534883714816
        },
        {
          "name": "F#6",
          "midi": 90,
          "time": 63.744186046507686,
          "velocity": 0.1968503937007874,
          "duration": 0.058139534883714816
        },
        {
          "name": "A6",
          "midi": 93,
          "time": 63.744186046507686,
          "velocity": 0.28346456692913385,
          "duration": 0.09302325581393944
        },
        {
          "name": "A#6",
          "midi": 94,
          "time": 63.744186046507686,
          "velocity": 0.2992125984251969,
          "duration": 0.10465116279068098
        },
        {
          "name": "B6",
          "midi": 95,
          "time": 63.744186046507686,
          "velocity": 0.2755905511811024,
          "duration": 0.0813953488371979
        },
        {
          "name": "C7",
          "midi": 96,
          "time": 63.744186046507686,
          "velocity": 0.2755905511811024,
          "duration": 0.10465116279068098
        },
        {
          "name": "C#7",
          "midi": 97,
          "time": 63.744186046507686,
          "velocity": 0.2992125984251969,
          "duration": 0.09302325581393944
        },
        {
          "name": "D#7",
          "midi": 99,
          "time": 63.744186046507686,
          "velocity": 0.29133858267716534,
          "duration": 0.0813953488371979
        },
        {
          "name": "E7",
          "midi": 100,
          "time": 63.744186046507686,
          "velocity": 0.1968503937007874,
          "duration": 0.09302325581393944
        },
        {
          "name": "G7",
          "midi": 103,
          "time": 63.744186046507686,
          "velocity": 0.15748031496062992,
          "duration": 0.06976744186045636
        },
        {
          "name": "F#7",
          "midi": 102,
          "time": 63.75581395348443,
          "velocity": 0.1968503937007874,
          "duration": 0.0813953488371979
        },
        {
          "name": "D3",
          "midi": 50,
          "time": 63.8023255813914,
          "velocity": 0.4251968503937008,
          "duration": 0.023255813953483084
        },
        {
          "name": "G#6",
          "midi": 92,
          "time": 63.8023255813914,
          "velocity": 0.10236220472440945,
          "duration": 0.034883720930224626
        },
        {
          "name": "C6",
          "midi": 84,
          "time": 63.81395348836814,
          "velocity": 0.23622047244094488,
          "duration": 0.1395348837208985
        },
        {
          "name": "C5",
          "midi": 72,
          "time": 63.825581395344884,
          "velocity": 0.11811023622047244,
          "duration": 0.034883720930224626
        },
        {
          "name": "C#5",
          "midi": 73,
          "time": 63.87209302325185,
          "velocity": 0.13385826771653545,
          "duration": 0.26744186046505547
        },
        {
          "name": "D#4",
          "midi": 63,
          "time": 63.88372093022859,
          "velocity": 0.31496062992125984,
          "duration": 0.10465116279067388
        },
        {
          "name": "F4",
          "midi": 65,
          "time": 63.88372093022859,
          "velocity": 0.28346456692913385,
          "duration": 0.023255813953483084
        },
        {
          "name": "E5",
          "midi": 76,
          "time": 63.89534883720533,
          "velocity": 0.4409448818897638,
          "duration": 0.034883720930224626
        },
        {
          "name": "A5",
          "midi": 81,
          "time": 63.89534883720533,
          "velocity": 0.31496062992125984,
          "duration": 0.034883720930224626
        },
        {
          "name": "F#6",
          "midi": 90,
          "time": 63.89534883720533,
          "velocity": 0.25984251968503935,
          "duration": 0.023255813953483084
        },
        {
          "name": "F#2",
          "midi": 42,
          "time": 63.906976744182074,
          "velocity": 0.4015748031496063,
          "duration": 0.023255813953483084
        },
        {
          "name": "A3",
          "midi": 57,
          "time": 63.906976744182074,
          "velocity": 0.31496062992125984,
          "duration": 0.023255813953483084
        },
        {
          "name": "C#6",
          "midi": 85,
          "time": 63.906976744182074,
          "velocity": 0.2283464566929134,
          "duration": 0.023255813953483084
        },
        {
          "name": "D7",
          "midi": 98,
          "time": 63.906976744182074,
          "velocity": 0.14173228346456693,
          "duration": 0.05813953488370771
        },
        {
          "name": "D#7",
          "midi": 99,
          "time": 63.906976744182074,
          "velocity": 0.13385826771653545,
          "duration": 0.04651162790696617
        },
        {
          "name": "G6",
          "midi": 91,
          "time": 63.918604651158816,
          "velocity": 0.2125984251968504,
          "duration": 0.04651162790696617
        },
        {
          "name": "F5",
          "midi": 77,
          "time": 63.93023255813556,
          "velocity": 0.4566929133858268,
          "duration": 0.034883720930224626
        },
        {
          "name": "D6",
          "midi": 86,
          "time": 63.93023255813556,
          "velocity": 0.25984251968503935,
          "duration": 0.034883720930224626
        },
        {
          "name": "F#6",
          "midi": 90,
          "time": 63.9418604651123,
          "velocity": 0.30708661417322836,
          "duration": 0.06976744186044925
        },
        {
          "name": "B5",
          "midi": 83,
          "time": 63.95348837208904,
          "velocity": 0.14960629921259844,
          "duration": 0.04651162790696617
        },
        {
          "name": "D#6",
          "midi": 87,
          "time": 63.95348837208904,
          "velocity": 0.12598425196850394,
          "duration": 0.04651162790696617
        },
        {
          "name": "F#5",
          "midi": 78,
          "time": 63.96511627906578,
          "velocity": 0.4015748031496063,
          "duration": 0.034883720930224626
        },
        {
          "name": "E3",
          "midi": 52,
          "time": 63.976744186042524,
          "velocity": 0.3779527559055118,
          "duration": 0.023255813953483084
        },
        {
          "name": "F6",
          "midi": 89,
          "time": 63.988372093019265,
          "velocity": 0.2755905511811024,
          "duration": 0.10465116279067388
        },
        {
          "name": "F5",
          "midi": 77,
          "time": 63.99999999999601,
          "velocity": 0.3779527559055118,
          "duration": 0.04651162790696617
        },
        {
          "name": "D7",
          "midi": 98,
          "time": 63.99999999999601,
          "velocity": 0.10236220472440945,
          "duration": 0.04651162790696617
        },
        {
          "name": "E3",
          "midi": 52,
          "time": 64.01162790697275,
          "velocity": 0.3858267716535433,
          "duration": 0.023255813953483084
        },
        {
          "name": "D#4",
          "midi": 63,
          "time": 64.01162790697275,
          "velocity": 0.30708661417322836,
          "duration": 0.36046511627901623
        },
        {
          "name": "F#4",
          "midi": 66,
          "time": 64.01162790697275,
          "velocity": 0.30708661417322836,
          "duration": 0.37209302325575777
        },
        {
          "name": "F#2",
          "midi": 42,
          "time": 64.03488372092623,
          "velocity": 0.3700787401574803,
          "duration": 0.023255813953483084
        },
        {
          "name": "F#2",
          "midi": 42,
          "time": 64.06976744185646,
          "velocity": 0.36220472440944884,
          "duration": 0.023255813953483084
        },
        {
          "name": "A#3",
          "midi": 58,
          "time": 64.09302325580994,
          "velocity": 0.4251968503937008,
          "duration": 0.04651162790696617
        },
        {
          "name": "F5",
          "midi": 77,
          "time": 64.09302325580994,
          "velocity": 0.15748031496062992,
          "duration": 0.05813953488370771
        },
        {
          "name": "G#6",
          "midi": 92,
          "time": 64.09302325580994,
          "velocity": 0.1732283464566929,
          "duration": 0.034883720930224626
        },
        {
          "name": "E7",
          "midi": 100,
          "time": 64.09302325580994,
          "velocity": 0.2677165354330709,
          "duration": 0.034883720930224626
        },
        {
          "name": "A#6",
          "midi": 94,
          "time": 64.10465116278668,
          "velocity": 0.2440944881889764,
          "duration": 0.06976744186044925
        },
        {
          "name": "D#7",
          "midi": 99,
          "time": 64.11627906976342,
          "velocity": 0.2755905511811024,
          "duration": 0.05813953488370771
        },
        {
          "name": "B3",
          "midi": 59,
          "time": 64.1395348837169,
          "velocity": 0.4015748031496063,
          "duration": 0.034883720930224626
        },
        {
          "name": "F6",
          "midi": 89,
          "time": 64.1395348837169,
          "velocity": 0.16535433070866143,
          "duration": 0.27906976744182543
        },
        {
          "name": "B6",
          "midi": 95,
          "time": 64.1395348837169,
          "velocity": 0.2047244094488189,
          "duration": 0.04651162790696617
        },
        {
          "name": "E7",
          "midi": 100,
          "time": 64.1395348837169,
          "velocity": 0.15748031496062992,
          "duration": 0.034883720930224626
        },
        {
          "name": "C#5",
          "midi": 73,
          "time": 64.16279069767039,
          "velocity": 0.11023622047244094,
          "duration": 0.19767441860463464
        },
        {
          "name": "F#2",
          "midi": 42,
          "time": 64.23255813953085,
          "velocity": 0.33070866141732286,
          "duration": 0.023255813953483084
        },
        {
          "name": "F#3",
          "midi": 54,
          "time": 64.25581395348433,
          "velocity": 0.33858267716535434,
          "duration": 0.023255813953483084
        },
        {
          "name": "F#3",
          "midi": 54,
          "time": 64.31395348836806,
          "velocity": 0.30708661417322836,
          "duration": 0.023255813953483084
        },
        {
          "name": "A#3",
          "midi": 58,
          "time": 64.33720930232154,
          "velocity": 0.47244094488188976,
          "duration": 0.023255813953483084
        },
        {
          "name": "B6",
          "midi": 95,
          "time": 64.33720930232154,
          "velocity": 0.29133858267716534,
          "duration": 0.0813953488371908
        },
        {
          "name": "D7",
          "midi": 98,
          "time": 64.33720930232154,
          "velocity": 0.33858267716535434,
          "duration": 0.10465116279067388
        },
        {
          "name": "E7",
          "midi": 100,
          "time": 64.33720930232154,
          "velocity": 0.28346456692913385,
          "duration": 0.12790697674415696
        },
        {
          "name": "B3",
          "midi": 59,
          "time": 64.36046511627502,
          "velocity": 0.48031496062992124,
          "duration": 0.09302325581393234
        },
        {
          "name": "C#7",
          "midi": 97,
          "time": 64.36046511627502,
          "velocity": 0.36220472440944884,
          "duration": 0.12790697674415696
        },
        {
          "name": "D#7",
          "midi": 99,
          "time": 64.36046511627502,
          "velocity": 0.31496062992125984,
          "duration": 0.09302325581393234
        },
        {
          "name": "F3",
          "midi": 53,
          "time": 64.37209302325176,
          "velocity": 0.25984251968503935,
          "duration": 0.023255813953483084
        },
        {
          "name": "F7",
          "midi": 101,
          "time": 64.37209302325176,
          "velocity": 0.30708661417322836,
          "duration": 0.10465116279067388
        },
        {
          "name": "C#5",
          "midi": 73,
          "time": 64.3837209302285,
          "velocity": 0.31496062992125984,
          "duration": 0.20930232558136197
        },
        {
          "name": "D6",
          "midi": 86,
          "time": 64.3837209302285,
          "velocity": 0.14173228346456693,
          "duration": 0.05813953488370771
        },
        {
          "name": "E6",
          "midi": 88,
          "time": 64.3837209302285,
          "velocity": 0.14960629921259844,
          "duration": 0.05813953488370771
        },
        {
          "name": "G#6",
          "midi": 92,
          "time": 64.3837209302285,
          "velocity": 0.2755905511811024,
          "duration": 0.06976744186044925
        },
        {
          "name": "A#6",
          "midi": 94,
          "time": 64.3837209302285,
          "velocity": 0.29133858267716534,
          "duration": 0.06976744186044925
        },
        {
          "name": "C7",
          "midi": 96,
          "time": 64.3837209302285,
          "velocity": 0.25984251968503935,
          "duration": 0.06976744186044925
        },
        {
          "name": "F#6",
          "midi": 90,
          "time": 64.39534883720525,
          "velocity": 0.16535433070866143,
          "duration": 0.04651162790696617
        },
        {
          "name": "A6",
          "midi": 93,
          "time": 64.39534883720525,
          "velocity": 0.2755905511811024,
          "duration": 0.023255813953483084
        },
        {
          "name": "C1",
          "midi": 24,
          "time": 64.40697674418199,
          "velocity": 0.5748031496062992,
          "duration": 0.011627906976741542
        },
        {
          "name": "F#3",
          "midi": 54,
          "time": 64.40697674418199,
          "velocity": 0.3228346456692913,
          "duration": 0.05813953488370771
        },
        {
          "name": "B0",
          "midi": 23,
          "time": 64.41860465115873,
          "velocity": 0.5748031496062992,
          "duration": 0.011627906976741542
        },
        {
          "name": "A#0",
          "midi": 22,
          "time": 64.43023255813547,
          "velocity": 0.5748031496062992,
          "duration": 0.011627906976741542
        },
        {
          "name": "D#6",
          "midi": 87,
          "time": 64.43023255813547,
          "velocity": 0.12598425196850394,
          "duration": 0.3837209302325135
        },
        {
          "name": "B0",
          "midi": 23,
          "time": 64.44186046511221,
          "velocity": 0.5826771653543307,
          "duration": 0.372093023255772
        },
        {
          "name": "G#4",
          "midi": 68,
          "time": 64.44186046511221,
          "velocity": 0.4251968503937008,
          "duration": 0.31395348837206427
        },
        {
          "name": "F#3",
          "midi": 54,
          "time": 64.47674418604244,
          "velocity": 0.33070866141732286,
          "duration": 0.11627906976742963
        },
        {
          "name": "C#7",
          "midi": 97,
          "time": 64.51162790697266,
          "velocity": 0.2283464566929134,
          "duration": 0.03488372093023884
        },
        {
          "name": "B4",
          "midi": 71,
          "time": 64.5465116279029,
          "velocity": 0.30708661417322836,
          "duration": 0.04651162790696617
        },
        {
          "name": "C#7",
          "midi": 97,
          "time": 64.56976744185638,
          "velocity": 0.07086614173228346,
          "duration": 0.034883720930224626
        },
        {
          "name": "C5",
          "midi": 72,
          "time": 64.60465116278661,
          "velocity": 0.15748031496062992,
          "duration": 0.12790697674418539
        },
        {
          "name": "F3",
          "midi": 53,
          "time": 64.61627906976335,
          "velocity": 0.3228346456692913,
          "duration": 0.11627906976744384
        },
        {
          "name": "B3",
          "midi": 59,
          "time": 64.68604651162381,
          "velocity": 0.10236220472440945,
          "duration": 0.04651162790698038
        },
        {
          "name": "F4",
          "midi": 65,
          "time": 64.7325581395308,
          "velocity": 0.23622047244094488,
          "duration": 0.023255813953483084
        },
        {
          "name": "A3",
          "midi": 57,
          "time": 64.74418604650754,
          "velocity": 0.49606299212598426,
          "duration": 0.04651162790696617
        },
        {
          "name": "A#6",
          "midi": 94,
          "time": 64.74418604650754,
          "velocity": 0.1732283464566929,
          "duration": 0.11627906976741542
        },
        {
          "name": "C#7",
          "midi": 97,
          "time": 64.74418604650754,
          "velocity": 0.12598425196850394,
          "duration": 0.034883720930224626
        },
        {
          "name": "A4",
          "midi": 69,
          "time": 64.75581395348428,
          "velocity": 0.5275590551181102,
          "duration": 0.034883720930224626
        },
        {
          "name": "E5",
          "midi": 76,
          "time": 64.75581395348428,
          "velocity": 0.3700787401574803,
          "duration": 0.06976744186044925
        },
        {
          "name": "F#5",
          "midi": 78,
          "time": 64.75581395348428,
          "velocity": 0.3543307086614173,
          "duration": 0.04651162790696617
        },
        {
          "name": "E7",
          "midi": 100,
          "time": 64.75581395348428,
          "velocity": 0.2125984251968504,
          "duration": 0.06976744186044925
        },
        {
          "name": "A#3",
          "midi": 58,
          "time": 64.7906976744145,
          "velocity": 0.47244094488188976,
          "duration": 0.05813953488370771
        },
        {
          "name": "A#4",
          "midi": 70,
          "time": 64.7906976744145,
          "velocity": 0.49606299212598426,
          "duration": 0.05813953488370771
        },
        {
          "name": "G6",
          "midi": 91,
          "time": 64.7906976744145,
          "velocity": 0.11023622047244094,
          "duration": 0.04651162790696617
        },
        {
          "name": "E4",
          "midi": 64,
          "time": 64.81395348836799,
          "velocity": 0.2440944881889764,
          "duration": 0.034883720930224626
        },
        {
          "name": "G5",
          "midi": 79,
          "time": 64.82558139534473,
          "velocity": 0.07086614173228346,
          "duration": 0.06976744186044925
        },
        {
          "name": "D#3",
          "midi": 51,
          "time": 64.83720930232147,
          "velocity": 0.31496062992125984,
          "duration": 0.023255813953483084
        },
        {
          "name": "F5",
          "midi": 77,
          "time": 64.83720930232147,
          "velocity": 0.4409448818897638,
          "duration": 0.10465116279068809
        },
        {
          "name": "B0",
          "midi": 23,
          "time": 64.84883720929821,
          "velocity": 0.4330708661417323,
          "duration": 0.1860465116278931
        },
        {
          "name": "G4",
          "midi": 67,
          "time": 64.84883720929821,
          "velocity": 0.30708661417322836,
          "duration": 0.023255813953483084
        },
        {
          "name": "D#5",
          "midi": 75,
          "time": 64.84883720929821,
          "velocity": 0.2047244094488189,
          "duration": 0.034883720930224626
        },
        {
          "name": "A6",
          "midi": 93,
          "time": 64.84883720929821,
          "velocity": 0.2204724409448819,
          "duration": 0.09302325581394655
        },
        {
          "name": "G3",
          "midi": 55,
          "time": 64.8720930232517,
          "velocity": 0.33070866141732286,
          "duration": 0.023255813953483084
        },
        {
          "name": "A#4",
          "midi": 70,
          "time": 64.8720930232517,
          "velocity": 0.3464566929133858,
          "duration": 0.372093023255772
        },
        {
          "name": "D#3",
          "midi": 51,
          "time": 64.89534883720518,
          "velocity": 0.33858267716535434,
          "duration": 0.12790697674418539
        },
        {
          "name": "E4",
          "midi": 64,
          "time": 64.9534883720889,
          "velocity": 0.16535433070866143,
          "duration": 0.04651162790698038
        },
        {
          "name": "F5",
          "midi": 77,
          "time": 65.0348837209261,
          "velocity": 0.2125984251968504,
          "duration": 0.081395348837205
        },
        {
          "name": "F6",
          "midi": 89,
          "time": 65.0348837209261,
          "velocity": 0.2440944881889764,
          "duration": 0.12790697674417117
        },
        {
          "name": "C#3",
          "midi": 49,
          "time": 65.04651162790285,
          "velocity": 0.33858267716535434,
          "duration": 0.19767441860462043
        },
        {
          "name": "A3",
          "midi": 57,
          "time": 65.06976744185633,
          "velocity": 0.16535433070866143,
          "duration": 0.04651162790698038
        },
        {
          "name": "G#4",
          "midi": 68,
          "time": 65.10465116278657,
          "velocity": 0.15748031496062992,
          "duration": 0.04651162790696617
        },
        {
          "name": "A#3",
          "midi": 58,
          "time": 65.11627906976331,
          "velocity": 0.4409448818897638,
          "duration": 0.06976744186044925
        },
        {
          "name": "G#6",
          "midi": 92,
          "time": 65.12790697674005,
          "velocity": 0.29133858267716534,
          "duration": 0.1627906976743816
        },
        {
          "name": "A6",
          "midi": 93,
          "time": 65.12790697674005,
          "velocity": 0.1968503937007874,
          "duration": 0.034883720930224626
        },
        {
          "name": "A#6",
          "midi": 94,
          "time": 65.13953488371679,
          "velocity": 0.1968503937007874,
          "duration": 0.034883720930224626
        },
        {
          "name": "E7",
          "midi": 100,
          "time": 65.13953488371679,
          "velocity": 0.16535433070866143,
          "duration": 0.1395348837208985
        },
        {
          "name": "F7",
          "midi": 101,
          "time": 65.13953488371679,
          "velocity": 0.29133858267716534,
          "duration": 0.0813953488371908
        },
        {
          "name": "D#6",
          "midi": 87,
          "time": 65.15116279069353,
          "velocity": 0.23622047244094488,
          "duration": 0.976744186046318
        },
        {
          "name": "G6",
          "midi": 91,
          "time": 65.15116279069353,
          "velocity": 0.3228346456692913,
          "duration": 0.05813953488370771
        },
        {
          "name": "C7",
          "midi": 96,
          "time": 65.15116279069353,
          "velocity": 0.2755905511811024,
          "duration": 0.034883720930224626
        },
        {
          "name": "C#7",
          "midi": 97,
          "time": 65.15116279069353,
          "velocity": 0.14960629921259844,
          "duration": 0.04651162790696617
        },
        {
          "name": "F#7",
          "midi": 102,
          "time": 65.15116279069353,
          "velocity": 0.2125984251968504,
          "duration": 0.05813953488370771
        },
        {
          "name": "F#6",
          "midi": 90,
          "time": 65.16279069767027,
          "velocity": 0.30708661417322836,
          "duration": 0.05813953488370771
        },
        {
          "name": "B6",
          "midi": 95,
          "time": 65.16279069767027,
          "velocity": 0.29133858267716534,
          "duration": 0.06976744186044925
        },
        {
          "name": "F#4",
          "midi": 66,
          "time": 65.17441860464702,
          "velocity": 0.16535433070866143,
          "duration": 0.04651162790696617
        },
        {
          "name": "E5",
          "midi": 76,
          "time": 65.17441860464702,
          "velocity": 0.2047244094488189,
          "duration": 0.034883720930224626
        },
        {
          "name": "F6",
          "midi": 89,
          "time": 65.17441860464702,
          "velocity": 0.13385826771653545,
          "duration": 0.10465116279067388
        },
        {
          "name": "A6",
          "midi": 93,
          "time": 65.17441860464702,
          "velocity": 0.25984251968503935,
          "duration": 0.05813953488370771
        },
        {
          "name": "G#5",
          "midi": 80,
          "time": 65.18604651162376,
          "velocity": 0.2204724409448819,
          "duration": 0.034883720930224626
        },
        {
          "name": "A#6",
          "midi": 94,
          "time": 65.18604651162376,
          "velocity": 0.2125984251968504,
          "duration": 0.17441860465112313
        },
        {
          "name": "F5",
          "midi": 77,
          "time": 65.1976744186005,
          "velocity": 0.25196850393700787,
          "duration": 0.034883720930224626
        },
        {
          "name": "D#5",
          "midi": 75,
          "time": 65.20930232557724,
          "velocity": 0.5196850393700787,
          "duration": 0.11627906976741542
        },
        {
          "name": "A#5",
          "midi": 82,
          "time": 65.20930232557724,
          "velocity": 0.3543307086614173,
          "duration": 0.15116279069764005
        },
        {
          "name": "C#7",
          "midi": 97,
          "time": 65.20930232557724,
          "velocity": 0.07086614173228346,
          "duration": 0.06976744186044925
        },
        {
          "name": "D#4",
          "midi": 63,
          "time": 65.22093023255398,
          "velocity": 0.41732283464566927,
          "duration": 0.1395348837208985
        },
        {
          "name": "G6",
          "midi": 91,
          "time": 65.22093023255398,
          "velocity": 0.3858267716535433,
          "duration": 0.18604651162786467
        },
        {
          "name": "F#1",
          "midi": 30,
          "time": 65.24418604650747,
          "velocity": 0.7007874015748031,
          "duration": 0.023255813953483084
        },
        {
          "name": "C3",
          "midi": 48,
          "time": 65.24418604650747,
          "velocity": 0.3937007874015748,
          "duration": 0.023255813953483084
        },
        {
          "name": "A#3",
          "midi": 58,
          "time": 65.24418604650747,
          "velocity": 0.49606299212598426,
          "duration": 0.06976744186044925
        },
        {
          "name": "G#4",
          "midi": 68,
          "time": 65.24418604650747,
          "velocity": 0.3543307086614173,
          "duration": 0.43023255813945127
        },
        {
          "name": "F5",
          "midi": 77,
          "time": 65.24418604650747,
          "velocity": 0.4409448818897638,
          "duration": 0.2558139534883139
        },
        {
          "name": "E1",
          "midi": 28,
          "time": 65.26744186046095,
          "velocity": 0.7165354330708661,
          "duration": 0.011627906976741542
        },
        {
          "name": "D#1",
          "midi": 27,
          "time": 65.27906976743769,
          "velocity": 0.7401574803149606,
          "duration": 1.2441860465113876
        },
        {
          "name": "G5",
          "midi": 79,
          "time": 65.27906976743769,
          "velocity": 0.10236220472440945,
          "duration": 0.034883720930224626
        },
        {
          "name": "G3",
          "midi": 55,
          "time": 65.29069767441443,
          "velocity": 0.5039370078740157,
          "duration": 0.5465116279068667
        },
        {
          "name": "D6",
          "midi": 86,
          "time": 65.30232558139117,
          "velocity": 0.12598425196850394,
          "duration": 0.12790697674415696
        },
        {
          "name": "F#6",
          "midi": 90,
          "time": 65.30232558139117,
          "velocity": 0.1889763779527559,
          "duration": 0.09302325581393234
        },
        {
          "name": "G#6",
          "midi": 92,
          "time": 65.30232558139117,
          "velocity": 0.2283464566929134,
          "duration": 0.11627906976741542
        },
        {
          "name": "A6",
          "midi": 93,
          "time": 65.30232558139117,
          "velocity": 0.1968503937007874,
          "duration": 0.1627906976743816
        },
        {
          "name": "C7",
          "midi": 96,
          "time": 65.30232558139117,
          "velocity": 0.13385826771653545,
          "duration": 0.034883720930224626
        },
        {
          "name": "G#5",
          "midi": 80,
          "time": 65.31395348836791,
          "velocity": 0.4094488188976378,
          "duration": 0.04651162790696617
        },
        {
          "name": "A#2",
          "midi": 46,
          "time": 65.3372093023214,
          "velocity": 0.4251968503937008,
          "duration": 0.0813953488371908
        },
        {
          "name": "A5",
          "midi": 81,
          "time": 65.36046511627488,
          "velocity": 0.30708661417322836,
          "duration": 0.05813953488370771
        },
        {
          "name": "F#5",
          "midi": 78,
          "time": 65.38372093022836,
          "velocity": 0.41732283464566927,
          "duration": 0.023255813953483084
        },
        {
          "name": "B6",
          "midi": 95,
          "time": 65.38372093022836,
          "velocity": 0.07874015748031496,
          "duration": 0.05813953488370771
        },
        {
          "name": "C7",
          "midi": 96,
          "time": 65.38372093022836,
          "velocity": 0.11023622047244094,
          "duration": 0.034883720930224626
        },
        {
          "name": "E7",
          "midi": 100,
          "time": 65.38372093022836,
          "velocity": 0.14173228346456693,
          "duration": 0.09302325581393234
        },
        {
          "name": "G5",
          "midi": 79,
          "time": 65.40697674418185,
          "velocity": 0.4409448818897638,
          "duration": 0.023255813953483084
        },
        {
          "name": "F#7",
          "midi": 102,
          "time": 65.40697674418185,
          "velocity": 0.12598425196850394,
          "duration": 0.04651162790696617
        },
        {
          "name": "G#5",
          "midi": 80,
          "time": 65.41860465115859,
          "velocity": 0.4330708661417323,
          "duration": 0.034883720930224626
        },
        {
          "name": "F#6",
          "midi": 90,
          "time": 65.41860465115859,
          "velocity": 0.09448818897637795,
          "duration": 0.034883720930224626
        },
        {
          "name": "A#5",
          "midi": 82,
          "time": 65.43023255813533,
          "velocity": 0.2755905511811024,
          "duration": 0.2209302325581035
        },
        {
          "name": "A#2",
          "midi": 46,
          "time": 65.44186046511207,
          "velocity": 0.4330708661417323,
          "duration": 0.0813953488371908
        },
        {
          "name": "G5",
          "midi": 79,
          "time": 65.44186046511207,
          "velocity": 0.3543307086614173,
          "duration": 0.11627906976741542
        },
        {
          "name": "C7",
          "midi": 96,
          "time": 65.44186046511207,
          "velocity": 0.13385826771653545,
          "duration": 0.034883720930224626
        },
        {
          "name": "D#7",
          "midi": 99,
          "time": 65.44186046511207,
          "velocity": 0.25984251968503935,
          "duration": 0.19767441860462043
        },
        {
          "name": "D#5",
          "midi": 75,
          "time": 65.45348837208881,
          "velocity": 0.4566929133858268,
          "duration": 0.19767441860462043
        },
        {
          "name": "F7",
          "midi": 101,
          "time": 65.45348837208881,
          "velocity": 0.2440944881889764,
          "duration": 0.1627906976743958
        },
        {
          "name": "D#4",
          "midi": 63,
          "time": 65.46511627906555,
          "velocity": 0.2047244094488189,
          "duration": 0.17441860465113734
        },
        {
          "name": "C#7",
          "midi": 97,
          "time": 65.46511627906555,
          "velocity": 0.1732283464566929,
          "duration": 0.1627906976743958
        },
        {
          "name": "A#2",
          "midi": 46,
          "time": 65.534883720926,
          "velocity": 0.4330708661417323,
          "duration": 0.11627906976742963
        },
        {
          "name": "F5",
          "midi": 77,
          "time": 65.59302325580973,
          "velocity": 0.2125984251968504,
          "duration": 0.06976744186044925
        },
        {
          "name": "G5",
          "midi": 79,
          "time": 65.60465116278647,
          "velocity": 0.11023622047244094,
          "duration": 0.034883720930224626
        },
        {
          "name": "C#5",
          "midi": 73,
          "time": 65.65116279069343,
          "velocity": 0.31496062992125984,
          "duration": 0.023255813953483084
        },
        {
          "name": "G5",
          "midi": 79,
          "time": 65.65116279069343,
          "velocity": 0.18110236220472442,
          "duration": 0.05813953488370771
        },
        {
          "name": "A#2",
          "midi": 46,
          "time": 65.66279069767018,
          "velocity": 0.4251968503937008,
          "duration": 0.24418604651157239
        },
        {
          "name": "A#4",
          "midi": 70,
          "time": 65.66279069767018,
          "velocity": 0.4409448818897638,
          "duration": 0.034883720930224626
        },
        {
          "name": "B5",
          "midi": 83,
          "time": 65.66279069767018,
          "velocity": 0.18110236220472442,
          "duration": 0.05813953488370771
        },
        {
          "name": "D#5",
          "midi": 75,
          "time": 65.67441860464692,
          "velocity": 0.3228346456692913,
          "duration": 0.023255813953483084
        },
        {
          "name": "B4",
          "midi": 71,
          "time": 65.68604651162366,
          "velocity": 0.41732283464566927,
          "duration": 0.11627906976741542
        },
        {
          "name": "G#4",
          "midi": 68,
          "time": 65.70930232557714,
          "velocity": 0.30708661417322836,
          "duration": 0.12790697674415696
        },
        {
          "name": "F5",
          "midi": 77,
          "time": 65.70930232557714,
          "velocity": 0.29133858267716534,
          "duration": 0.04651162790696617
        },
        {
          "name": "G5",
          "midi": 79,
          "time": 65.72093023255388,
          "velocity": 0.16535433070866143,
          "duration": 0.17441860465112313
        },
        {
          "name": "A6",
          "midi": 93,
          "time": 65.74418604650737,
          "velocity": 0.11023622047244094,
          "duration": 0.04651162790696617
        },
        {
          "name": "F5",
          "midi": 77,
          "time": 65.77906976743759,
          "velocity": 0.36220472440944884,
          "duration": 0.41860465116270973
        },
        {
          "name": "A#4",
          "midi": 70,
          "time": 65.80232558139107,
          "velocity": 0.5118110236220472,
          "duration": 0.04651162790696617
        },
        {
          "name": "D6",
          "midi": 86,
          "time": 65.81395348836782,
          "velocity": 0.2204724409448819,
          "duration": 0.04651162790696617
        },
        {
          "name": "G3",
          "midi": 55,
          "time": 65.84883720929804,
          "velocity": 0.3858267716535433,
          "duration": 0.04651162790696617
        },
        {
          "name": "A#3",
          "midi": 58,
          "time": 65.84883720929804,
          "velocity": 0.4409448818897638,
          "duration": 0.04651162790696617
        },
        {
          "name": "A4",
          "midi": 69,
          "time": 65.84883720929804,
          "velocity": 0.5275590551181102,
          "duration": 0.023255813953483084
        },
        {
          "name": "G#4",
          "midi": 68,
          "time": 65.88372093022826,
          "velocity": 0.31496062992125984,
          "duration": 0.29069767441855277
        },
        {
          "name": "A#3",
          "midi": 58,
          "time": 65.90697674418175,
          "velocity": 0.36220472440944884,
          "duration": 0.034883720930224626
        },
        {
          "name": "A#2",
          "midi": 46,
          "time": 65.91860465115849,
          "velocity": 0.3779527559055118,
          "duration": 0.06976744186044925
        },
        {
          "name": "G3",
          "midi": 55,
          "time": 65.93023255813523,
          "velocity": 0.3700787401574803,
          "duration": 0.13953488372091272
        },
        {
          "name": "A#4",
          "midi": 70,
          "time": 65.95348837208871,
          "velocity": 0.1732283464566929,
          "duration": 0.04651162790696617
        },
        {
          "name": "C7",
          "midi": 96,
          "time": 65.96511627906546,
          "velocity": 0.11023622047244094,
          "duration": 0.034883720930224626
        },
        {
          "name": "A#2",
          "midi": 46,
          "time": 65.99999999999568,
          "velocity": 0.3464566929133858,
          "duration": 0.03488372093023884
        },
        {
          "name": "A#2",
          "midi": 46,
          "time": 66.04651162790266,
          "velocity": 0.3464566929133858,
          "duration": 0.04651162790696617
        },
        {
          "name": "B4",
          "midi": 71,
          "time": 66.06976744185614,
          "velocity": 0.49606299212598426,
          "duration": 0.04651162790696617
        },
        {
          "name": "G5",
          "midi": 79,
          "time": 66.06976744185614,
          "velocity": 0.09448818897637795,
          "duration": 0.04651162790696617
        },
        {
          "name": "A#3",
          "midi": 58,
          "time": 66.08139534883288,
          "velocity": 0.4566929133858268,
          "duration": 0.19767441860460622
        },
        {
          "name": "F#6",
          "midi": 90,
          "time": 66.08139534883288,
          "velocity": 0.30708661417322836,
          "duration": 0.0813953488371908
        },
        {
          "name": "B6",
          "midi": 95,
          "time": 66.09302325580963,
          "velocity": 0.25984251968503935,
          "duration": 0.04651162790696617
        },
        {
          "name": "A#2",
          "midi": 46,
          "time": 66.10465116278637,
          "velocity": 0.33858267716535434,
          "duration": 0.05813953488370771
        },
        {
          "name": "E4",
          "midi": 64,
          "time": 66.10465116278637,
          "velocity": 0.2677165354330709,
          "duration": 0.04651162790696617
        },
        {
          "name": "D6",
          "midi": 86,
          "time": 66.10465116278637,
          "velocity": 0.1889763779527559,
          "duration": 0.05813953488370771
        },
        {
          "name": "A6",
          "midi": 93,
          "time": 66.10465116278637,
          "velocity": 0.31496062992125984,
          "duration": 0.04651162790696617
        },
        {
          "name": "A#6",
          "midi": 94,
          "time": 66.10465116278637,
          "velocity": 0.28346456692913385,
          "duration": 0.05813953488370771
        },
        {
          "name": "C7",
          "midi": 96,
          "time": 66.10465116278637,
          "velocity": 0.2992125984251969,
          "duration": 0.11627906976741542
        },
        {
          "name": "C#7",
          "midi": 97,
          "time": 66.10465116278637,
          "velocity": 0.2992125984251969,
          "duration": 0.06976744186044925
        },
        {
          "name": "D7",
          "midi": 98,
          "time": 66.10465116278637,
          "velocity": 0.31496062992125984,
          "duration": 0.05813953488370771
        },
        {
          "name": "D#7",
          "midi": 99,
          "time": 66.10465116278637,
          "velocity": 0.31496062992125984,
          "duration": 0.05813953488370771
        },
        {
          "name": "E7",
          "midi": 100,
          "time": 66.10465116278637,
          "velocity": 0.2204724409448819,
          "duration": 0.0813953488371908
        },
        {
          "name": "F7",
          "midi": 101,
          "time": 66.10465116278637,
          "velocity": 0.28346456692913385,
          "duration": 0.0813953488371908
        },
        {
          "name": "G7",
          "midi": 103,
          "time": 66.10465116278637,
          "velocity": 0.15748031496062992,
          "duration": 0.06976744186044925
        },
        {
          "name": "G6",
          "midi": 91,
          "time": 66.11627906976311,
          "velocity": 0.1968503937007874,
          "duration": 0.04651162790696617
        },
        {
          "name": "G#6",
          "midi": 92,
          "time": 66.12790697673985,
          "velocity": 0.3700787401574803,
          "duration": 0.06976744186044925
        },
        {
          "name": "A#5",
          "midi": 82,
          "time": 66.13953488371659,
          "velocity": 0.14173228346456693,
          "duration": 0.31395348837203585
        },
        {
          "name": "D#6",
          "midi": 87,
          "time": 66.15116279069333,
          "velocity": 0.14173228346456693,
          "duration": 0.3837209302324851
        },
        {
          "name": "A#2",
          "midi": 46,
          "time": 66.17441860464682,
          "velocity": 0.2992125984251969,
          "duration": 0.023255813953483084
        },
        {
          "name": "G#4",
          "midi": 68,
          "time": 66.20930232557704,
          "velocity": 0.29133858267716534,
          "duration": 0.05813953488370771
        },
        {
          "name": "D#3",
          "midi": 51,
          "time": 66.24418604650727,
          "velocity": 0.30708661417322836,
          "duration": 0.09302325581393234
        },
        {
          "name": "D6",
          "midi": 86,
          "time": 66.25581395348401,
          "velocity": 0.07874015748031496,
          "duration": 0.10465116279067388
        },
        {
          "name": "F6",
          "midi": 89,
          "time": 66.25581395348401,
          "velocity": 0.11811023622047244,
          "duration": 0.04651162790696617
        },
        {
          "name": "G#4",
          "midi": 68,
          "time": 66.27906976743749,
          "velocity": 0.2992125984251969,
          "duration": 0.20930232558136197
        },
        {
          "name": "F5",
          "midi": 77,
          "time": 66.27906976743749,
          "velocity": 0.12598425196850394,
          "duration": 0.15116279069765426
        },
        {
          "name": "A#3",
          "midi": 58,
          "time": 66.29069767441423,
          "velocity": 0.49606299212598426,
          "duration": 0.04651162790696617
        },
        {
          "name": "C7",
          "midi": 96,
          "time": 66.29069767441423,
          "velocity": 0.10236220472440945,
          "duration": 0.034883720930224626
        },
        {
          "name": "A#2",
          "midi": 46,
          "time": 66.30232558139097,
          "velocity": 0.23622047244094488,
          "duration": 0.023255813953483084
        },
        {
          "name": "A#4",
          "midi": 70,
          "time": 66.3372093023212,
          "velocity": 0.29133858267716534,
          "duration": 0.06976744186046346
        },
        {
          "name": "D#3",
          "midi": 51,
          "time": 66.34883720929794,
          "velocity": 0.31496062992125984,
          "duration": 0.17441860465113734
        },
        {
          "name": "A#3",
          "midi": 58,
          "time": 66.34883720929794,
          "velocity": 0.3858267716535433,
          "duration": 0.1627906976743958
        },
        {
          "name": "F5",
          "midi": 77,
          "time": 66.46511627906537,
          "velocity": 0.07086614173228346,
          "duration": 0.05813953488370771
        },
        {
          "name": "G#6",
          "midi": 92,
          "time": 66.46511627906537,
          "velocity": 0.09448818897637795,
          "duration": 0.04651162790696617
        },
        {
          "name": "D6",
          "midi": 86,
          "time": 66.48837209301885,
          "velocity": 0.07086614173228346,
          "duration": 0.034883720930224626
        },
        {
          "name": "C7",
          "midi": 96,
          "time": 66.51162790697234,
          "velocity": 0.23622047244094488,
          "duration": 0.04651162790696617
        },
        {
          "name": "D7",
          "midi": 98,
          "time": 66.51162790697234,
          "velocity": 0.1968503937007874,
          "duration": 0.04651162790696617
        },
        {
          "name": "E7",
          "midi": 100,
          "time": 66.51162790697234,
          "velocity": 0.1889763779527559,
          "duration": 0.04651162790696617
        },
        {
          "name": "C1",
          "midi": 24,
          "time": 66.52325581394908,
          "velocity": 0.6220472440944882,
          "duration": 0.023255813953483084
        },
        {
          "name": "C4",
          "midi": 60,
          "time": 66.52325581394908,
          "velocity": 0.5118110236220472,
          "duration": 0.034883720930224626
        },
        {
          "name": "G6",
          "midi": 91,
          "time": 66.52325581394908,
          "velocity": 0.07874015748031496,
          "duration": 0.09302325581393234
        },
        {
          "name": "A#6",
          "midi": 94,
          "time": 66.52325581394908,
          "velocity": 0.10236220472440945,
          "duration": 0.034883720930224626
        },
        {
          "name": "A2",
          "midi": 45,
          "time": 66.53488372092582,
          "velocity": 0.4409448818897638,
          "duration": 0.023255813953483084
        },
        {
          "name": "F3",
          "midi": 53,
          "time": 66.53488372092582,
          "velocity": 0.44881889763779526,
          "duration": 0.034883720930224626
        },
        {
          "name": "D#4",
          "midi": 63,
          "time": 66.53488372092582,
          "velocity": 0.3858267716535433,
          "duration": 0.5232558139533836
        },
        {
          "name": "A#5",
          "midi": 82,
          "time": 66.53488372092582,
          "velocity": 0.23622047244094488,
          "duration": 0.06976744186044925
        },
        {
          "name": "F6",
          "midi": 89,
          "time": 66.53488372092582,
          "velocity": 0.14960629921259844,
          "duration": 0.39534883720922664
        },
        {
          "name": "D1",
          "midi": 26,
          "time": 66.54651162790256,
          "velocity": 0.6771653543307087,
          "duration": 0.011627906976741542
        },
        {
          "name": "F#4",
          "midi": 66,
          "time": 66.54651162790256,
          "velocity": 0.23622047244094488,
          "duration": 0.15116279069764005
        },
        {
          "name": "A#4",
          "midi": 70,
          "time": 66.54651162790256,
          "velocity": 0.2047244094488189,
          "duration": 0.0813953488371908
        },
        {
          "name": "C#1",
          "midi": 25,
          "time": 66.5581395348793,
          "velocity": 0.7007874015748031,
          "duration": 0.011627906976741542
        },
        {
          "name": "B0",
          "midi": 23,
          "time": 66.56976744185604,
          "velocity": 0.7165354330708661,
          "duration": 0.04651162790696617
        },
        {
          "name": "F3",
          "midi": 53,
          "time": 66.58139534883279,
          "velocity": 0.5118110236220472,
          "duration": 0.011627906976741542
        },
        {
          "name": "C#5",
          "midi": 73,
          "time": 66.58139534883279,
          "velocity": 0.13385826771653545,
          "duration": 0.17441860465112313
        },
        {
          "name": "A#0",
          "midi": 22,
          "time": 66.61627906976301,
          "velocity": 0.7165354330708661,
          "duration": 0.011627906976741542
        },
        {
          "name": "D7",
          "midi": 98,
          "time": 66.61627906976301,
          "velocity": 0.25196850393700787,
          "duration": 0.12790697674415696
        },
        {
          "name": "B0",
          "midi": 23,
          "time": 66.62790697673975,
          "velocity": 0.7244094488188977,
          "duration": 0.23255813953483084
        },
        {
          "name": "D#3",
          "midi": 51,
          "time": 66.62790697673975,
          "velocity": 0.5118110236220472,
          "duration": 0.034883720930224626
        },
        {
          "name": "B3",
          "midi": 59,
          "time": 66.62790697673975,
          "velocity": 0.3858267716535433,
          "duration": 0.023255813953483084
        },
        {
          "name": "F5",
          "midi": 77,
          "time": 66.6395348837165,
          "velocity": 0.11811023622047244,
          "duration": 0.04651162790696617
        },
        {
          "name": "A#5",
          "midi": 82,
          "time": 66.6395348837165,
          "velocity": 0.14960629921259844,
          "duration": 0.06976744186044925
        },
        {
          "name": "E7",
          "midi": 100,
          "time": 66.6395348837165,
          "velocity": 0.2047244094488189,
          "duration": 0.05813953488370771
        },
        {
          "name": "A#3",
          "midi": 58,
          "time": 66.65116279069323,
          "velocity": 0.4566929133858268,
          "duration": 0.034883720930224626
        },
        {
          "name": "C7",
          "midi": 96,
          "time": 66.65116279069323,
          "velocity": 0.14960629921259844,
          "duration": 0.034883720930224626
        },
        {
          "name": "C#7",
          "midi": 97,
          "time": 66.65116279069323,
          "velocity": 0.13385826771653545,
          "duration": 0.05813953488370771
        },
        {
          "name": "F#2",
          "midi": 42,
          "time": 66.67441860464672,
          "velocity": 0.4251968503937008,
          "duration": 0.023255813953483084
        },
        {
          "name": "D#3",
          "midi": 51,
          "time": 66.67441860464672,
          "velocity": 0.5118110236220472,
          "duration": 0.023255813953483084
        },
        {
          "name": "A4",
          "midi": 69,
          "time": 66.68604651162346,
          "velocity": 0.4330708661417323,
          "duration": 0.023255813953483084
        },
        {
          "name": "D#3",
          "midi": 51,
          "time": 66.70930232557694,
          "velocity": 0.5196850393700787,
          "duration": 0.023255813953483084
        },
        {
          "name": "G#4",
          "midi": 68,
          "time": 66.70930232557694,
          "velocity": 0.3464566929133858,
          "duration": 0.04651162790696617
        },
        {
          "name": "A#4",
          "midi": 70,
          "time": 66.70930232557694,
          "velocity": 0.18110236220472442,
          "duration": 0.06976744186044925
        },
        {
          "name": "D3",
          "midi": 50,
          "time": 66.73255813953043,
          "velocity": 0.5118110236220472,
          "duration": 0.011627906976741542
        },
        {
          "name": "D#3",
          "midi": 51,
          "time": 66.75581395348391,
          "velocity": 0.5196850393700787,
          "duration": 0.011627906976741542
        },
        {
          "name": "G4",
          "midi": 67,
          "time": 66.75581395348391,
          "velocity": 0.2677165354330709,
          "duration": 0.023255813953483084
        },
        {
          "name": "F#4",
          "midi": 66,
          "time": 66.76744186046065,
          "velocity": 0.1968503937007874,
          "duration": 0.13953488372091272
        },
        {
          "name": "D#3",
          "midi": 51,
          "time": 66.77906976743739,
          "velocity": 0.5196850393700787,
          "duration": 0.011627906976741542
        },
        {
          "name": "D3",
          "midi": 50,
          "time": 66.79069767441413,
          "velocity": 0.5511811023622047,
          "duration": 0.023255813953483084
        },
        {
          "name": "A#4",
          "midi": 70,
          "time": 66.79069767441413,
          "velocity": 0.5511811023622047,
          "duration": 0.5813953488370913
        },
        {
          "name": "C#5",
          "midi": 73,
          "time": 66.80232558139087,
          "velocity": 0.10236220472440945,
          "duration": 0.11627906976742963
        },
        {
          "name": "D#3",
          "midi": 51,
          "time": 66.8372093023211,
          "velocity": 0.48031496062992124,
          "duration": 0.023255813953483084
        },
        {
          "name": "A#0",
          "midi": 22,
          "time": 66.86046511627458,
          "velocity": 0.7165354330708661,
          "duration": 0.011627906976741542
        },
        {
          "name": "B0",
          "midi": 23,
          "time": 66.87209302325132,
          "velocity": 0.7244094488188977,
          "duration": 0.9767441860463606
        },
        {
          "name": "D#3",
          "midi": 51,
          "time": 66.87209302325132,
          "velocity": 0.5118110236220472,
          "duration": 0.360465116279002
        },
        {
          "name": "A3",
          "midi": 57,
          "time": 66.90697674418156,
          "velocity": 0.4015748031496063,
          "duration": 0.023255813953483084
        },
        {
          "name": "F#4",
          "midi": 66,
          "time": 66.9186046511583,
          "velocity": 0.14960629921259844,
          "duration": 0.06976744186044925
        },
        {
          "name": "F5",
          "midi": 77,
          "time": 66.9186046511583,
          "velocity": 0.15748031496062992,
          "duration": 0.09302325581393234
        },
        {
          "name": "A#3",
          "midi": 58,
          "time": 66.93023255813505,
          "velocity": 0.4094488188976378,
          "duration": 0.0813953488371908
        },
        {
          "name": "D6",
          "midi": 86,
          "time": 66.93023255813505,
          "velocity": 0.16535433070866143,
          "duration": 0.0813953488371908
        },
        {
          "name": "G#6",
          "midi": 92,
          "time": 66.93023255813505,
          "velocity": 0.2992125984251969,
          "duration": 0.10465116279067388
        },
        {
          "name": "C#5",
          "midi": 73,
          "time": 66.94186046511179,
          "velocity": 0.4015748031496063,
          "duration": 0.5348837209301109
        },
        {
          "name": "F#2",
          "midi": 42,
          "time": 66.95348837208853,
          "velocity": 0.44881889763779526,
          "duration": 0.034883720930224626
        },
        {
          "name": "F6",
          "midi": 89,
          "time": 66.96511627906527,
          "velocity": 0.18110236220472442,
          "duration": 0.5116279069766279
        },
        {
          "name": "A3",
          "midi": 57,
          "time": 67.01162790697224,
          "velocity": 0.33070866141732286,
          "duration": 0.04651162790696617
        },
        {
          "name": "C6",
          "midi": 84,
          "time": 67.02325581394898,
          "velocity": 0.11811023622047244,
          "duration": 0.3255813953487632
        },
        {
          "name": "F4",
          "midi": 65,
          "time": 67.04651162790246,
          "velocity": 0.31496062992125984,
          "duration": 0.034883720930224626
        },
        {
          "name": "F#2",
          "midi": 42,
          "time": 67.08139534883269,
          "velocity": 0.44881889763779526,
          "duration": 0.023255813953483084
        },
        {
          "name": "F4",
          "midi": 65,
          "time": 67.09302325580943,
          "velocity": 0.2992125984251969,
          "duration": 0.023255813953483084
        },
        {
          "name": "F#2",
          "midi": 42,
          "time": 67.12790697673965,
          "velocity": 0.4409448818897638,
          "duration": 0.023255813953483084
        },
        {
          "name": "E6",
          "midi": 88,
          "time": 67.17441860464662,
          "velocity": 0.13385826771653545,
          "duration": 0.034883720930224626
        },
        {
          "name": "G6",
          "midi": 91,
          "time": 67.17441860464662,
          "velocity": 0.10236220472440945,
          "duration": 0.04651162790696617
        },
        {
          "name": "G#6",
          "midi": 92,
          "time": 67.17441860464662,
          "velocity": 0.2677165354330709,
          "duration": 0.06976744186044925
        },
        {
          "name": "A#6",
          "midi": 94,
          "time": 67.17441860464662,
          "velocity": 0.29133858267716534,
          "duration": 0.06976744186044925
        },
        {
          "name": "B6",
          "midi": 95,
          "time": 67.17441860464662,
          "velocity": 0.2677165354330709,
          "duration": 0.034883720930224626
        },
        {
          "name": "C7",
          "midi": 96,
          "time": 67.17441860464662,
          "velocity": 0.29133858267716534,
          "duration": 0.09302325581393234
        },
        {
          "name": "C#7",
          "midi": 97,
          "time": 67.17441860464662,
          "velocity": 0.2992125984251969,
          "duration": 0.0813953488371908
        },
        {
          "name": "D7",
          "midi": 98,
          "time": 67.17441860464662,
          "velocity": 0.30708661417322836,
          "duration": 0.04651162790696617
        },
        {
          "name": "E7",
          "midi": 100,
          "time": 67.17441860464662,
          "velocity": 0.2204724409448819,
          "duration": 0.0813953488371908
        },
        {
          "name": "F#7",
          "midi": 102,
          "time": 67.17441860464662,
          "velocity": 0.2047244094488189,
          "duration": 0.05813953488370771
        },
        {
          "name": "F#6",
          "midi": 90,
          "time": 67.18604651162336,
          "velocity": 0.1968503937007874,
          "duration": 0.04651162790696617
        },
        {
          "name": "A6",
          "midi": 93,
          "time": 67.18604651162336,
          "velocity": 0.2755905511811024,
          "duration": 0.023255813953483084
        },
        {
          "name": "D#7",
          "midi": 99,
          "time": 67.18604651162336,
          "velocity": 0.28346456692913385,
          "duration": 0.09302325581393234
        },
        {
          "name": "F7",
          "midi": 101,
          "time": 67.18604651162336,
          "velocity": 0.2755905511811024,
          "duration": 0.0813953488371908
        },
        {
          "name": "G7",
          "midi": 103,
          "time": 67.18604651162336,
          "velocity": 0.1889763779527559,
          "duration": 0.05813953488370771
        },
        {
          "name": "F4",
          "midi": 65,
          "time": 67.1976744186001,
          "velocity": 0.30708661417322836,
          "duration": 0.023255813953483084
        },
        {
          "name": "D#6",
          "midi": 87,
          "time": 67.1976744186001,
          "velocity": 0.12598425196850394,
          "duration": 0.034883720930224626
        },
        {
          "name": "F#2",
          "midi": 42,
          "time": 67.20930232557684,
          "velocity": 0.4330708661417323,
          "duration": 0.023255813953483084
        },
        {
          "name": "D#4",
          "midi": 63,
          "time": 67.23255813953033,
          "velocity": 0.31496062992125984,
          "duration": 0.05813953488370771
        },
        {
          "name": "F#2",
          "midi": 42,
          "time": 67.24418604650707,
          "velocity": 0.4251968503937008,
          "duration": 0.023255813953483084
        },
        {
          "name": "D#3",
          "midi": 51,
          "time": 67.24418604650707,
          "velocity": 0.4251968503937008,
          "duration": 0.023255813953483084
        },
        {
          "name": "D#3",
          "midi": 51,
          "time": 67.27906976743729,
          "velocity": 0.41732283464566927,
          "duration": 0.0813953488371908
        },
        {
          "name": "F4",
          "midi": 65,
          "time": 67.27906976743729,
          "velocity": 0.2992125984251969,
          "duration": 0.034883720930224626
        },
        {
          "name": "F#2",
          "midi": 42,
          "time": 67.29069767441403,
          "velocity": 0.41732283464566927,
          "duration": 0.023255813953483084
        },
        {
          "name": "F#2",
          "midi": 42,
          "time": 67.337209302321,
          "velocity": 0.4015748031496063,
          "duration": 0.023255813953483084
        },
        {
          "name": "D#6",
          "midi": 87,
          "time": 67.34883720929774,
          "velocity": 0.09448818897637795,
          "duration": 0.034883720930224626
        },
        {
          "name": "A3",
          "midi": 57,
          "time": 67.36046511627448,
          "velocity": 0.44881889763779526,
          "duration": 0.04651162790696617
        },
        {
          "name": "F4",
          "midi": 65,
          "time": 67.36046511627448,
          "velocity": 0.2992125984251969,
          "duration": 0.04651162790696617
        },
        {
          "name": "A4",
          "midi": 69,
          "time": 67.36046511627448,
          "velocity": 0.5275590551181102,
          "duration": 0.034883720930224626
        },
        {
          "name": "E5",
          "midi": 76,
          "time": 67.36046511627448,
          "velocity": 0.1732283464566929,
          "duration": 0.034883720930224626
        },
        {
          "name": "D6",
          "midi": 86,
          "time": 67.36046511627448,
          "velocity": 0.1732283464566929,
          "duration": 0.04651162790696617
        },
        {
          "name": "C#7",
          "midi": 97,
          "time": 67.36046511627448,
          "velocity": 0.25984251968503935,
          "duration": 0.04651162790696617
        },
        {
          "name": "D7",
          "midi": 98,
          "time": 67.36046511627448,
          "velocity": 0.18110236220472442,
          "duration": 0.06976744186044925
        },
        {
          "name": "E7",
          "midi": 100,
          "time": 67.36046511627448,
          "velocity": 0.2677165354330709,
          "duration": 0.0813953488371908
        },
        {
          "name": "D#3",
          "midi": 51,
          "time": 67.37209302325122,
          "velocity": 0.3779527559055118,
          "duration": 0.023255813953483084
        },
        {
          "name": "C7",
          "midi": 96,
          "time": 67.37209302325122,
          "velocity": 0.28346456692913385,
          "duration": 0.05813953488370771
        },
        {
          "name": "D#7",
          "midi": 99,
          "time": 67.37209302325122,
          "velocity": 0.15748031496062992,
          "duration": 0.034883720930224626
        },
        {
          "name": "F7",
          "midi": 101,
          "time": 67.37209302325122,
          "velocity": 0.2440944881889764,
          "duration": 0.034883720930224626
        },
        {
          "name": "A#4",
          "midi": 70,
          "time": 67.39534883720471,
          "velocity": 0.5433070866141733,
          "duration": 0.453488372092977
        },
        {
          "name": "G#6",
          "midi": 92,
          "time": 67.39534883720471,
          "velocity": 0.14173228346456693,
          "duration": 0.034883720930224626
        },
        {
          "name": "G2",
          "midi": 43,
          "time": 67.40697674418145,
          "velocity": 0.3858267716535433,
          "duration": 0.023255813953483084
        },
        {
          "name": "A#3",
          "midi": 58,
          "time": 67.40697674418145,
          "velocity": 0.5118110236220472,
          "duration": 0.1627906976743958
        },
        {
          "name": "F#2",
          "midi": 42,
          "time": 67.45348837208842,
          "velocity": 0.3700787401574803,
          "duration": 0.023255813953483084
        },
        {
          "name": "F#4",
          "midi": 66,
          "time": 67.45348837208842,
          "velocity": 0.3937007874015748,
          "duration": 0.3720930232557862
        },
        {
          "name": "G6",
          "midi": 91,
          "time": 67.45348837208842,
          "velocity": 0.25984251968503935,
          "duration": 0.06976744186044925
        },
        {
          "name": "G#6",
          "midi": 92,
          "time": 67.45348837208842,
          "velocity": 0.14960629921259844,
          "duration": 0.05813953488370771
        },
        {
          "name": "D6",
          "midi": 86,
          "time": 67.4767441860419,
          "velocity": 0.33070866141732286,
          "duration": 0.17441860465115155
        },
        {
          "name": "C#5",
          "midi": 73,
          "time": 67.48837209301864,
          "velocity": 0.3700787401574803,
          "duration": 0.023255813953483084
        },
        {
          "name": "F5",
          "midi": 77,
          "time": 67.48837209301864,
          "velocity": 0.25196850393700787,
          "duration": 0.15116279069766847
        },
        {
          "name": "F6",
          "midi": 89,
          "time": 67.49999999999538,
          "velocity": 0.4094488188976378,
          "duration": 0.36046511627904465
        },
        {
          "name": "C#5",
          "midi": 73,
          "time": 67.52325581394886,
          "velocity": 0.36220472440944884,
          "duration": 0.2325581395348877
        },
        {
          "name": "G#6",
          "midi": 92,
          "time": 67.52325581394886,
          "velocity": 0.1968503937007874,
          "duration": 0.04651162790698038
        },
        {
          "name": "A#3",
          "midi": 58,
          "time": 67.58139534883259,
          "velocity": 0.28346456692913385,
          "duration": 0.04651162790698038
        },
        {
          "name": "F#2",
          "midi": 42,
          "time": 67.61627906976283,
          "velocity": 0.33070866141732286,
          "duration": 0.023255813953483084
        },
        {
          "name": "A#3",
          "midi": 58,
          "time": 67.69767441860003,
          "velocity": 0.3779527559055118,
          "duration": 0.04651162790698038
        },
        {
          "name": "A#3",
          "midi": 58,
          "time": 67.7674418604605,
          "velocity": 0.47244094488188976,
          "duration": 0.023255813953483084
        },
        {
          "name": "G6",
          "midi": 91,
          "time": 67.7674418604605,
          "velocity": 0.11811023622047244,
          "duration": 0.06976744186044925
        },
        {
          "name": "G#6",
          "midi": 92,
          "time": 67.7674418604605,
          "velocity": 0.2677165354330709,
          "duration": 0.12790697674415696
        },
        {
          "name": "C#7",
          "midi": 97,
          "time": 67.7674418604605,
          "velocity": 0.29133858267716534,
          "duration": 0.15116279069764005
        },
        {
          "name": "D7",
          "midi": 98,
          "time": 67.7674418604605,
          "velocity": 0.31496062992125984,
          "duration": 0.10465116279067388
        },
        {
          "name": "C#5",
          "midi": 73,
          "time": 67.77906976743724,
          "velocity": 0.5275590551181102,
          "duration": 0.0813953488371908
        },
        {
          "name": "D6",
          "midi": 86,
          "time": 67.77906976743724,
          "velocity": 0.15748031496062992,
          "duration": 0.06976744186044925
        },
        {
          "name": "A6",
          "midi": 93,
          "time": 67.77906976743724,
          "velocity": 0.2283464566929134,
          "duration": 0.023255813953483084
        },
        {
          "name": "B6",
          "midi": 95,
          "time": 67.77906976743724,
          "velocity": 0.2677165354330709,
          "duration": 0.23255813953484505
        },
        {
          "name": "D#7",
          "midi": 99,
          "time": 67.77906976743724,
          "velocity": 0.33070866141732286,
          "duration": 0.09302325581393234
        },
        {
          "name": "G#5",
          "midi": 80,
          "time": 67.79069767441398,
          "velocity": 0.11023622047244094,
          "duration": 0.04651162790696617
        },
        {
          "name": "C#4",
          "midi": 61,
          "time": 67.80232558139072,
          "velocity": 0.3700787401574803,
          "duration": 0.06976744186044925
        },
        {
          "name": "F#3",
          "midi": 54,
          "time": 67.81395348836746,
          "velocity": 0.29133858267716534,
          "duration": 0.023255813953483084
        },
        {
          "name": "E6",
          "midi": 88,
          "time": 67.81395348836746,
          "velocity": 0.14960629921259844,
          "duration": 0.04651162790696617
        },
        {
          "name": "A#6",
          "midi": 94,
          "time": 67.81395348836746,
          "velocity": 0.30708661417322836,
          "duration": 0.05813953488370771
        },
        {
          "name": "C7",
          "midi": 96,
          "time": 67.81395348836746,
          "velocity": 0.2677165354330709,
          "duration": 0.034883720930224626
        },
        {
          "name": "E7",
          "midi": 100,
          "time": 67.81395348836746,
          "velocity": 0.25196850393700787,
          "duration": 0.11627906976741542
        },
        {
          "name": "C6",
          "midi": 84,
          "time": 67.8255813953442,
          "velocity": 0.13385826771653545,
          "duration": 0.04651162790696617
        },
        {
          "name": "F#6",
          "midi": 90,
          "time": 67.8255813953442,
          "velocity": 0.1968503937007874,
          "duration": 0.05813953488370771
        },
        {
          "name": "A6",
          "midi": 93,
          "time": 67.8255813953442,
          "velocity": 0.2992125984251969,
          "duration": 0.034883720930224626
        },
        {
          "name": "F#7",
          "midi": 102,
          "time": 67.8255813953442,
          "velocity": 0.2125984251968504,
          "duration": 0.0813953488371908
        },
        {
          "name": "G7",
          "midi": 103,
          "time": 67.8255813953442,
          "velocity": 0.1732283464566929,
          "duration": 0.06976744186044925
        },
        {
          "name": "F3",
          "midi": 53,
          "time": 67.83720930232094,
          "velocity": 0.36220472440944884,
          "duration": 0.034883720930224626
        },
        {
          "name": "A#0",
          "midi": 22,
          "time": 67.84883720929768,
          "velocity": 0.5748031496062992,
          "duration": 0.011627906976741542
        },
        {
          "name": "B0",
          "midi": 23,
          "time": 67.86046511627443,
          "velocity": 0.5826771653543307,
          "duration": 0.33720930232553314
        },
        {
          "name": "G4",
          "midi": 67,
          "time": 67.86046511627443,
          "velocity": 0.2677165354330709,
          "duration": 0.023255813953483084
        },
        {
          "name": "C5",
          "midi": 72,
          "time": 67.86046511627443,
          "velocity": 0.3937007874015748,
          "duration": 0.023255813953483084
        },
        {
          "name": "C7",
          "midi": 96,
          "time": 67.86046511627443,
          "velocity": 0.2204724409448819,
          "duration": 0.05813953488370771
        },
        {
          "name": "B4",
          "midi": 71,
          "time": 67.87209302325117,
          "velocity": 0.5275590551181102,
          "duration": 0.39534883720924086
        },
        {
          "name": "D6",
          "midi": 86,
          "time": 67.87209302325117,
          "velocity": 0.15748031496062992,
          "duration": 0.05813953488370771
        },
        {
          "name": "A6",
          "midi": 93,
          "time": 67.87209302325117,
          "velocity": 0.2047244094488189,
          "duration": 0.2209302325581035
        },
        {
          "name": "F3",
          "midi": 53,
          "time": 67.88372093022791,
          "velocity": 0.33070866141732286,
          "duration": 0.15116279069765426
        },
        {
          "name": "B3",
          "midi": 59,
          "time": 67.88372093022791,
          "velocity": 0.2283464566929134,
          "duration": 0.36046511627901623
        },
        {
          "name": "G#4",
          "midi": 68,
          "time": 67.88372093022791,
          "velocity": 0.2992125984251969,
          "duration": 0.3837209302324993
        },
        {
          "name": "C#5",
          "midi": 73,
          "time": 67.88372093022791,
          "velocity": 0.33858267716535434,
          "duration": 0.023255813953483084
        },
        {
          "name": "D#6",
          "midi": 87,
          "time": 67.88372093022791,
          "velocity": 0.1732283464566929,
          "duration": 0.04651162790696617
        },
        {
          "name": "D#7",
          "midi": 99,
          "time": 67.89534883720465,
          "velocity": 0.23622047244094488,
          "duration": 0.20930232558136197
        },
        {
          "name": "F#6",
          "midi": 90,
          "time": 67.93023255813488,
          "velocity": 0.3543307086614173,
          "duration": 0.2674418604650839
        },
        {
          "name": "F#5",
          "midi": 78,
          "time": 67.94186046511162,
          "velocity": 0.2125984251968504,
          "duration": 0.3255813953487916
        },
        {
          "name": "D#6",
          "midi": 87,
          "time": 67.95348837208836,
          "velocity": 0.4566929133858268,
          "duration": 0.31395348837205006
        },
        {
          "name": "E7",
          "midi": 100,
          "time": 67.9651162790651,
          "velocity": 0.16535433070866143,
          "duration": 0.04651162790698038
        },
        {
          "name": "F#3",
          "midi": 54,
          "time": 68.03488372092556,
          "velocity": 0.30708661417322836,
          "duration": 0.2209302325581035
        },
        {
          "name": "E7",
          "midi": 100,
          "time": 68.03488372092556,
          "velocity": 0.2992125984251969,
          "duration": 0.04651162790696617
        },
        {
          "name": "C#5",
          "midi": 73,
          "time": 68.05813953487905,
          "velocity": 0.12598425196850394,
          "duration": 0.034883720930224626
        },
        {
          "name": "F7",
          "midi": 101,
          "time": 68.08139534883253,
          "velocity": 0.2992125984251969,
          "duration": 0.11627906976742963
        },
        {
          "name": "C#5",
          "midi": 73,
          "time": 68.11627906976275,
          "velocity": 0.11023622047244094,
          "duration": 0.05813953488372192
        },
        {
          "name": "B0",
          "midi": 23,
          "time": 68.2093023255767,
          "velocity": 0.4566929133858268,
          "duration": 0.26744186046505547
        },
        {
          "name": "G#6",
          "midi": 92,
          "time": 68.22093023255344,
          "velocity": 0.25984251968503935,
          "duration": 0.04651162790696617
        },
        {
          "name": "C#5",
          "midi": 73,
          "time": 68.24418604650693,
          "velocity": 0.2283464566929134,
          "duration": 0.05813953488370771
        },
        {
          "name": "D#5",
          "midi": 75,
          "time": 68.25581395348367,
          "velocity": 0.13385826771653545,
          "duration": 0.10465116279067388
        },
        {
          "name": "G#3",
          "midi": 56,
          "time": 68.26744186046041,
          "velocity": 0.33070866141732286,
          "duration": 0.1627906976743816
        },
        {
          "name": "A#4",
          "midi": 70,
          "time": 68.26744186046041,
          "velocity": 0.47244094488188976,
          "duration": 0.023255813953483084
        },
        {
          "name": "D6",
          "midi": 86,
          "time": 68.26744186046041,
          "velocity": 0.18110236220472442,
          "duration": 0.034883720930224626
        },
        {
          "name": "B4",
          "midi": 71,
          "time": 68.29069767441389,
          "velocity": 0.5039370078740157,
          "duration": 0.034883720930224626
        },
        {
          "name": "F#5",
          "midi": 78,
          "time": 68.29069767441389,
          "velocity": 0.14960629921259844,
          "duration": 0.034883720930224626
        },
        {
          "name": "F6",
          "midi": 89,
          "time": 68.31395348836737,
          "velocity": 0.12598425196850394,
          "duration": 0.3488372093022747
        },
        {
          "name": "G#6",
          "midi": 92,
          "time": 68.31395348836737,
          "velocity": 0.14960629921259844,
          "duration": 0.034883720930224626
        },
        {
          "name": "A#4",
          "midi": 70,
          "time": 68.32558139534412,
          "velocity": 0.44881889763779526,
          "duration": 0.06976744186044925
        },
        {
          "name": "F5",
          "midi": 77,
          "time": 68.32558139534412,
          "velocity": 0.11023622047244094,
          "duration": 0.06976744186044925
        },
        {
          "name": "C6",
          "midi": 84,
          "time": 68.32558139534412,
          "velocity": 0.07086614173228346,
          "duration": 0.034883720930224626
        },
        {
          "name": "D6",
          "midi": 86,
          "time": 68.3488372092976,
          "velocity": 0.11811023622047244,
          "duration": 0.034883720930224626
        },
        {
          "name": "D5",
          "midi": 74,
          "time": 68.36046511627434,
          "velocity": 0.2283464566929134,
          "duration": 0.023255813953483084
        },
        {
          "name": "D#5",
          "midi": 75,
          "time": 68.38372093022782,
          "velocity": 0.1968503937007874,
          "duration": 0.0813953488371908
        },
        {
          "name": "G#6",
          "midi": 92,
          "time": 68.38372093022782,
          "velocity": 0.18110236220472442,
          "duration": 0.034883720930224626
        },
        {
          "name": "A4",
          "midi": 69,
          "time": 68.39534883720457,
          "velocity": 0.33858267716535434,
          "duration": 0.023255813953483084
        },
        {
          "name": "E4",
          "midi": 64,
          "time": 68.4069767441813,
          "velocity": 0.1732283464566929,
          "duration": 0.034883720930224626
        },
        {
          "name": "A#4",
          "midi": 70,
          "time": 68.41860465115805,
          "velocity": 0.3858267716535433,
          "duration": 0.36046511627901623
        },
        {
          "name": "C#5",
          "midi": 73,
          "time": 68.44186046511153,
          "velocity": 0.10236220472440945,
          "duration": 0.05813953488370771
        },
        {
          "name": "A#3",
          "midi": 58,
          "time": 68.46511627906501,
          "velocity": 0.5511811023622047,
          "duration": 0.31395348837205006
        },
        {
          "name": "F5",
          "midi": 77,
          "time": 68.46511627906501,
          "velocity": 0.3779527559055118,
          "duration": 0.581395348837134
        },
        {
          "name": "G#6",
          "midi": 92,
          "time": 68.63953488371617,
          "velocity": 0.08661417322834646,
          "duration": 0.04651162790696617
        },
        {
          "name": "D7",
          "midi": 98,
          "time": 68.66279069766965,
          "velocity": 0.2283464566929134,
          "duration": 0.11627906976741542
        },
        {
          "name": "D#7",
          "midi": 99,
          "time": 68.66279069766965,
          "velocity": 0.11811023622047244,
          "duration": 0.05813953488370771
        },
        {
          "name": "F#1",
          "midi": 30,
          "time": 68.67441860464639,
          "velocity": 0.6771653543307087,
          "duration": 0.023255813953483084
        },
        {
          "name": "F#4",
          "midi": 66,
          "time": 68.67441860464639,
          "velocity": 0.3858267716535433,
          "duration": 0.023255813953483084
        },
        {
          "name": "D#6",
          "midi": 87,
          "time": 68.67441860464639,
          "velocity": 0.14173228346456693,
          "duration": 0.12790697674415696
        },
        {
          "name": "C7",
          "midi": 96,
          "time": 68.67441860464639,
          "velocity": 0.25196850393700787,
          "duration": 0.12790697674415696
        },
        {
          "name": "G#4",
          "midi": 68,
          "time": 68.68604651162313,
          "velocity": 0.4330708661417323,
          "duration": 0.4883720930232016
        },
        {
          "name": "F1",
          "midi": 29,
          "time": 68.69767441859987,
          "velocity": 0.7165354330708661,
          "duration": 0.011627906976741542
        },
        {
          "name": "D#4",
          "midi": 63,
          "time": 68.69767441859987,
          "velocity": 0.2677165354330709,
          "duration": 0.023255813953483084
        },
        {
          "name": "G#6",
          "midi": 92,
          "time": 68.69767441859987,
          "velocity": 0.18110236220472442,
          "duration": 0.06976744186044925
        },
        {
          "name": "D#1",
          "midi": 27,
          "time": 68.70930232557662,
          "velocity": 0.7480314960629921,
          "duration": 1.244186046511416
        },
        {
          "name": "F7",
          "midi": 101,
          "time": 68.70930232557662,
          "velocity": 0.07086614173228346,
          "duration": 0.04651162790696617
        },
        {
          "name": "E7",
          "midi": 100,
          "time": 68.72093023255336,
          "velocity": 0.08661417322834646,
          "duration": 0.034883720930224626
        },
        {
          "name": "A#2",
          "midi": 46,
          "time": 68.7325581395301,
          "velocity": 0.4330708661417323,
          "duration": 0.1627906976743958
        },
        {
          "name": "D5",
          "midi": 74,
          "time": 68.7325581395301,
          "velocity": 0.16535433070866143,
          "duration": 0.0813953488371908
        },
        {
          "name": "G3",
          "midi": 55,
          "time": 68.76744186046032,
          "velocity": 0.5196850393700787,
          "duration": 0.290697674418567
        },
        {
          "name": "G5",
          "midi": 79,
          "time": 68.7906976744138,
          "velocity": 0.07874015748031496,
          "duration": 0.081395348837205
        },
        {
          "name": "D#6",
          "midi": 87,
          "time": 68.82558139534403,
          "velocity": 0.13385826771653545,
          "duration": 0.05813953488372192
        },
        {
          "name": "A#4",
          "midi": 70,
          "time": 68.86046511627427,
          "velocity": 0.2125984251968504,
          "duration": 0.04651162790696617
        },
        {
          "name": "A#2",
          "midi": 46,
          "time": 68.90697674418124,
          "velocity": 0.4330708661417323,
          "duration": 0.03488372093023884
        },
        {
          "name": "D#6",
          "midi": 87,
          "time": 68.90697674418124,
          "velocity": 0.1968503937007874,
          "duration": 0.4302325581394797
        },
        {
          "name": "A#2",
          "midi": 46,
          "time": 68.95348837208822,
          "velocity": 0.4251968503937008,
          "duration": 0.06976744186044925
        },
        {
          "name": "D#5",
          "midi": 75,
          "time": 68.96511627906496,
          "velocity": 0.08661417322834646,
          "duration": 0.034883720930224626
        },
        {
          "name": "G5",
          "midi": 79,
          "time": 68.9767441860417,
          "velocity": 0.16535433070866143,
          "duration": 0.06976744186044925
        },
        {
          "name": "B6",
          "midi": 95,
          "time": 69.02325581394867,
          "velocity": 0.2677165354330709,
          "duration": 0.16279069767441
        },
        {
          "name": "A#2",
          "midi": 46,
          "time": 69.03488372092541,
          "velocity": 0.4330708661417323,
          "duration": 0.09302325581394655
        },
        {
          "name": "F#6",
          "midi": 90,
          "time": 69.03488372092541,
          "velocity": 0.15748031496062992,
          "duration": 0.034883720930224626
        },
        {
          "name": "A6",
          "midi": 93,
          "time": 69.03488372092541,
          "velocity": 0.3228346456692913,
          "duration": 0.15116279069766847
        },
        {
          "name": "D7",
          "midi": 98,
          "time": 69.03488372092541,
          "velocity": 0.11023622047244094,
          "duration": 0.034883720930224626
        },
        {
          "name": "E5",
          "midi": 76,
          "time": 69.04651162790215,
          "velocity": 0.29133858267716534,
          "duration": 0.023255813953483084
        },
        {
          "name": "A3",
          "midi": 57,
          "time": 69.05813953487889,
          "velocity": 0.5590551181102362,
          "duration": 0.011627906976741542
        },
        {
          "name": "G6",
          "midi": 91,
          "time": 69.05813953487889,
          "velocity": 0.1732283464566929,
          "duration": 0.034883720930224626
        },
        {
          "name": "A#3",
          "midi": 58,
          "time": 69.06976744185563,
          "velocity": 0.5196850393700787,
          "duration": 0.05813953488372192
        },
        {
          "name": "F#5",
          "midi": 78,
          "time": 69.08139534883237,
          "velocity": 0.5275590551181102,
          "duration": 0.12790697674418539
        },
        {
          "name": "B5",
          "midi": 83,
          "time": 69.08139534883237,
          "velocity": 0.15748031496062992,
          "duration": 0.05813953488372192
        },
        {
          "name": "C#7",
          "midi": 97,
          "time": 69.08139534883237,
          "velocity": 0.11023622047244094,
          "duration": 0.05813953488372192
        },
        {
          "name": "G3",
          "midi": 55,
          "time": 69.09302325580911,
          "velocity": 0.4566929133858268,
          "duration": 0.3837209302325135
        },
        {
          "name": "B4",
          "midi": 71,
          "time": 69.09302325580911,
          "velocity": 0.4566929133858268,
          "duration": 0.08139534883721922
        },
        {
          "name": "A#2",
          "midi": 46,
          "time": 69.1395348837161,
          "velocity": 0.41732283464566927,
          "duration": 0.05813953488372192
        },
        {
          "name": "A#4",
          "midi": 70,
          "time": 69.17441860464633,
          "velocity": 0.5196850393700787,
          "duration": 0.034883720930224626
        },
        {
          "name": "C7",
          "midi": 96,
          "time": 69.17441860464633,
          "velocity": 0.2204724409448819,
          "duration": 0.10465116279067388
        },
        {
          "name": "A#2",
          "midi": 46,
          "time": 69.20930232557656,
          "velocity": 0.4094488188976378,
          "duration": 0.04651162790696617
        },
        {
          "name": "B4",
          "midi": 71,
          "time": 69.20930232557656,
          "velocity": 0.5196850393700787,
          "duration": 0.1395348837208985
        },
        {
          "name": "F5",
          "midi": 77,
          "time": 69.20930232557656,
          "velocity": 0.16535433070866143,
          "duration": 0.11627906976741542
        },
        {
          "name": "G#4",
          "midi": 68,
          "time": 69.2209302325533,
          "velocity": 0.30708661417322836,
          "duration": 0.12790697674415696
        },
        {
          "name": "B6",
          "midi": 95,
          "time": 69.23255813953004,
          "velocity": 0.2204724409448819,
          "duration": 0.06976744186044925
        },
        {
          "name": "C#7",
          "midi": 97,
          "time": 69.24418604650678,
          "velocity": 0.14960629921259844,
          "duration": 0.05813953488370771
        },
        {
          "name": "B3",
          "midi": 59,
          "time": 69.25581395348352,
          "velocity": 0.4094488188976378,
          "duration": 0.023255813953483084
        },
        {
          "name": "A#2",
          "midi": 46,
          "time": 69.26744186046027,
          "velocity": 0.4015748031496063,
          "duration": 0.11627906976741542
        },
        {
          "name": "D#7",
          "midi": 99,
          "time": 69.26744186046027,
          "velocity": 0.25984251968503935,
          "duration": 0.0813953488371908
        },
        {
          "name": "G#6",
          "midi": 92,
          "time": 69.29069767441375,
          "velocity": 0.16535433070866143,
          "duration": 0.034883720930224626
        },
        {
          "name": "F#6",
          "midi": 90,
          "time": 69.30232558139049,
          "velocity": 0.18110236220472442,
          "duration": 0.034883720930224626
        },
        {
          "name": "F#5",
          "midi": 78,
          "time": 69.31395348836723,
          "velocity": 0.2283464566929134,
          "duration": 0.04651162790696617
        },
        {
          "name": "D6",
          "midi": 86,
          "time": 69.33720930232072,
          "velocity": 0.31496062992125984,
          "duration": 0.1627906976743958
        },
        {
          "name": "A#4",
          "midi": 70,
          "time": 69.34883720929746,
          "velocity": 0.5354330708661418,
          "duration": 0.11627906976742963
        },
        {
          "name": "D#6",
          "midi": 87,
          "time": 69.34883720929746,
          "velocity": 0.3228346456692913,
          "duration": 0.23255813953484505
        },
        {
          "name": "F5",
          "midi": 77,
          "time": 69.3604651162742,
          "velocity": 0.30708661417322836,
          "duration": 0.09302325581394655
        },
        {
          "name": "A#2",
          "midi": 46,
          "time": 69.39534883720442,
          "velocity": 0.3700787401574803,
          "duration": 0.05813953488372192
        },
        {
          "name": "G#4",
          "midi": 68,
          "time": 69.4186046511579,
          "velocity": 0.30708661417322836,
          "duration": 0.15116279069765426
        },
        {
          "name": "F#5",
          "midi": 78,
          "time": 69.45348837208815,
          "velocity": 0.33858267716535434,
          "duration": 0.1395348837208985
        },
        {
          "name": "A#2",
          "midi": 46,
          "time": 69.46511627906489,
          "velocity": 0.33858267716535434,
          "duration": 0.04651162790696617
        },
        {
          "name": "B4",
          "midi": 71,
          "time": 69.46511627906489,
          "velocity": 0.5039370078740157,
          "duration": 0.09302325581393234
        },
        {
          "name": "A#3",
          "midi": 58,
          "time": 69.47674418604163,
          "velocity": 0.4015748031496063,
          "duration": 0.05813953488370771
        },
        {
          "name": "A#2",
          "midi": 46,
          "time": 69.5232558139486,
          "velocity": 0.33858267716535434,
          "duration": 0.05813953488370771
        },
        {
          "name": "G3",
          "midi": 55,
          "time": 69.5232558139486,
          "velocity": 0.33070866141732286,
          "duration": 0.04651162790696617
        },
        {
          "name": "G#6",
          "midi": 92,
          "time": 69.5232558139486,
          "velocity": 0.1732283464566929,
          "duration": 0.034883720930224626
        },
        {
          "name": "E7",
          "midi": 100,
          "time": 69.5232558139486,
          "velocity": 0.23622047244094488,
          "duration": 0.09302325581393234
        },
        {
          "name": "E4",
          "midi": 64,
          "time": 69.53488372092534,
          "velocity": 0.2677165354330709,
          "duration": 0.04651162790696617
        },
        {
          "name": "E6",
          "midi": 88,
          "time": 69.53488372092534,
          "velocity": 0.15748031496062992,
          "duration": 0.034883720930224626
        },
        {
          "name": "A6",
          "midi": 93,
          "time": 69.53488372092534,
          "velocity": 0.36220472440944884,
          "duration": 0.06976744186044925
        },
        {
          "name": "A#6",
          "midi": 94,
          "time": 69.53488372092534,
          "velocity": 0.2992125984251969,
          "duration": 0.06976744186044925
        },
        {
          "name": "C7",
          "midi": 96,
          "time": 69.53488372092534,
          "velocity": 0.2755905511811024,
          "duration": 0.10465116279067388
        },
        {
          "name": "D7",
          "midi": 98,
          "time": 69.53488372092534,
          "velocity": 0.33070866141732286,
          "duration": 0.05813953488370771
        },
        {
          "name": "C#7",
          "midi": 97,
          "time": 69.54651162790208,
          "velocity": 0.29133858267716534,
          "duration": 0.06976744186044925
        },
        {
          "name": "F7",
          "midi": 101,
          "time": 69.54651162790208,
          "velocity": 0.25984251968503935,
          "duration": 0.05813953488370771
        },
        {
          "name": "F#7",
          "midi": 102,
          "time": 69.54651162790208,
          "velocity": 0.2204724409448819,
          "duration": 0.04651162790696617
        },
        {
          "name": "G7",
          "midi": 103,
          "time": 69.54651162790208,
          "velocity": 0.15748031496062992,
          "duration": 0.05813953488370771
        },
        {
          "name": "A#3",
          "midi": 58,
          "time": 69.55813953487882,
          "velocity": 0.3937007874015748,
          "duration": 0.0813953488371908
        },
        {
          "name": "D#3",
          "midi": 51,
          "time": 69.56976744185556,
          "velocity": 0.3228346456692913,
          "duration": 0.034883720930224626
        },
        {
          "name": "B4",
          "midi": 71,
          "time": 69.56976744185556,
          "velocity": 0.41732283464566927,
          "duration": 0.023255813953483084
        },
        {
          "name": "G#4",
          "midi": 68,
          "time": 69.5813953488323,
          "velocity": 0.4015748031496063,
          "duration": 0.034883720930224626
        },
        {
          "name": "A#4",
          "midi": 70,
          "time": 69.5813953488323,
          "velocity": 0.5275590551181102,
          "duration": 0.31395348837202164
        },
        {
          "name": "A#2",
          "midi": 46,
          "time": 69.59302325580904,
          "velocity": 0.2992125984251969,
          "duration": 0.023255813953483084
        },
        {
          "name": "F5",
          "midi": 77,
          "time": 69.59302325580904,
          "velocity": 0.14173228346456693,
          "duration": 0.09302325581393234
        },
        {
          "name": "G5",
          "midi": 79,
          "time": 69.59302325580904,
          "velocity": 0.09448818897637795,
          "duration": 0.05813953488370771
        },
        {
          "name": "G4",
          "midi": 67,
          "time": 69.60465116278579,
          "velocity": 0.30708661417322836,
          "duration": 0.023255813953483084
        },
        {
          "name": "D5",
          "midi": 74,
          "time": 69.60465116278579,
          "velocity": 0.09448818897637795,
          "duration": 0.034883720930224626
        },
        {
          "name": "D#3",
          "midi": 51,
          "time": 69.61627906976253,
          "velocity": 0.33858267716535434,
          "duration": 0.34883720930224626
        },
        {
          "name": "G#4",
          "midi": 68,
          "time": 69.62790697673927,
          "velocity": 0.36220472440944884,
          "duration": 0.023255813953483084
        },
        {
          "name": "D#6",
          "midi": 87,
          "time": 69.63953488371601,
          "velocity": 0.18110236220472442,
          "duration": 0.3255813953487632
        },
        {
          "name": "A#6",
          "midi": 94,
          "time": 69.6627906976695,
          "velocity": 0.3937007874015748,
          "duration": 0.11627906976741542
        },
        {
          "name": "D#7",
          "midi": 99,
          "time": 69.6627906976695,
          "velocity": 0.18110236220472442,
          "duration": 0.06976744186044925
        },
        {
          "name": "F7",
          "midi": 101,
          "time": 69.68604651162298,
          "velocity": 0.13385826771653545,
          "duration": 0.09302325581393234
        },
        {
          "name": "D6",
          "midi": 86,
          "time": 69.69767441859972,
          "velocity": 0.07086614173228346,
          "duration": 0.05813953488370771
        },
        {
          "name": "G#4",
          "midi": 68,
          "time": 69.70930232557646,
          "velocity": 0.29133858267716534,
          "duration": 0.023255813953483084
        },
        {
          "name": "G#6",
          "midi": 92,
          "time": 69.70930232557646,
          "velocity": 0.12598425196850394,
          "duration": 0.05813953488370771
        },
        {
          "name": "C7",
          "midi": 96,
          "time": 69.70930232557646,
          "velocity": 0.1889763779527559,
          "duration": 0.04651162790696617
        },
        {
          "name": "A#2",
          "midi": 46,
          "time": 69.7209302325532,
          "velocity": 0.2440944881889764,
          "duration": 0.023255813953483084
        },
        {
          "name": "A#3",
          "midi": 58,
          "time": 69.73255813952994,
          "velocity": 0.33070866141732286,
          "duration": 0.10465116279067388
        },
        {
          "name": "G#4",
          "midi": 68,
          "time": 69.76744186046017,
          "velocity": 0.2992125984251969,
          "duration": 0.023255813953483084
        },
        {
          "name": "F5",
          "midi": 77,
          "time": 69.79069767441365,
          "velocity": 0.11811023622047244,
          "duration": 0.09302325581393234
        },
        {
          "name": "G#4",
          "midi": 68,
          "time": 69.80232558139039,
          "velocity": 0.28346456692913385,
          "duration": 0.04651162790696617
        },
        {
          "name": "G5",
          "midi": 79,
          "time": 69.82558139534387,
          "velocity": 0.10236220472440945,
          "duration": 0.034883720930224626
        },
        {
          "name": "A3",
          "midi": 57,
          "time": 69.83720930232062,
          "velocity": 0.33070866141732286,
          "duration": 0.023255813953483084
        },
        {
          "name": "D#5",
          "midi": 75,
          "time": 69.83720930232062,
          "velocity": 0.15748031496062992,
          "duration": 0.04651162790696617
        },
        {
          "name": "A#3",
          "midi": 58,
          "time": 69.8604651162741,
          "velocity": 0.4330708661417323,
          "duration": 0.06976744186044925
        },
        {
          "name": "G#4",
          "midi": 68,
          "time": 69.8604651162741,
          "velocity": 0.29133858267716534,
          "duration": 0.023255813953483084
        },
        {
          "name": "F#5",
          "midi": 78,
          "time": 69.8604651162741,
          "velocity": 0.2440944881889764,
          "duration": 0.05813953488370771
        },
        {
          "name": "G#6",
          "midi": 92,
          "time": 69.88372093022758,
          "velocity": 0.29133858267716534,
          "duration": 0.06976744186044925
        },
        {
          "name": "G#4",
          "midi": 68,
          "time": 69.89534883720432,
          "velocity": 0.30708661417322836,
          "duration": 0.05813953488370771
        },
        {
          "name": "B4",
          "midi": 71,
          "time": 69.89534883720432,
          "velocity": 0.5039370078740157,
          "duration": 0.034883720930224626
        },
        {
          "name": "E7",
          "midi": 100,
          "time": 69.89534883720432,
          "velocity": 0.16535433070866143,
          "duration": 0.06976744186044925
        },
        {
          "name": "F#6",
          "midi": 90,
          "time": 69.9186046511578,
          "velocity": 0.3228346456692913,
          "duration": 0.0813953488371908
        },
        {
          "name": "D7",
          "midi": 98,
          "time": 69.9186046511578,
          "velocity": 0.09448818897637795,
          "duration": 0.034883720930224626
        },
        {
          "name": "F#5",
          "midi": 78,
          "time": 69.93023255813455,
          "velocity": 0.3937007874015748,
          "duration": 0.09302325581393234
        },
        {
          "name": "A#3",
          "midi": 58,
          "time": 69.94186046511129,
          "velocity": 0.3228346456692913,
          "duration": 0.034883720930224626
        },
        {
          "name": "B4",
          "midi": 71,
          "time": 69.94186046511129,
          "velocity": 0.3937007874015748,
          "duration": 0.023255813953483084
        },
        {
          "name": "C#1",
          "midi": 25,
          "time": 69.95348837208803,
          "velocity": 0.5196850393700787,
          "duration": 0.011627906976741542
        },
        {
          "name": "A#4",
          "midi": 70,
          "time": 69.95348837208803,
          "velocity": 0.5039370078740157,
          "duration": 0.10465116279068809
        },
        {
          "name": "A6",
          "midi": 93,
          "time": 69.95348837208803,
          "velocity": 0.2440944881889764,
          "duration": 0.034883720930224626
        },
        {
          "name": "B0",
          "midi": 23,
          "time": 69.96511627906477,
          "velocity": 0.5826771653543307,
          "duration": 0.011627906976741542
        },
        {
          "name": "D#4",
          "midi": 63,
          "time": 69.96511627906477,
          "velocity": 0.3464566929133858,
          "duration": 0.441860465116207
        },
        {
          "name": "C#1",
          "midi": 25,
          "time": 69.97674418604151,
          "velocity": 0.6692913385826772,
          "duration": 0.011627906976741542
        },
        {
          "name": "A2",
          "midi": 45,
          "time": 69.97674418604151,
          "velocity": 0.4645669291338583,
          "duration": 0.023255813953483084
        },
        {
          "name": "C#5",
          "midi": 73,
          "time": 69.97674418604151,
          "velocity": 0.14960629921259844,
          "duration": 0.10465116279068809
        },
        {
          "name": "D1",
          "midi": 26,
          "time": 69.98837209301826,
          "velocity": 0.7007874015748031,
          "duration": 0.011627906976741542
        },
        {
          "name": "B0",
          "midi": 23,
          "time": 69.999999999995,
          "velocity": 0.7244094488188977,
          "duration": 0.2441860465116008
        },
        {
          "name": "D#3",
          "midi": 51,
          "time": 69.999999999995,
          "velocity": 0.48031496062992124,
          "duration": 0.05813953488372192
        },
        {
          "name": "F6",
          "midi": 89,
          "time": 69.999999999995,
          "velocity": 0.36220472440944884,
          "duration": 0.779069767441726
        },
        {
          "name": "G6",
          "midi": 91,
          "time": 70.01162790697174,
          "velocity": 0.07086614173228346,
          "duration": 0.06976744186046346
        },
        {
          "name": "F#4",
          "midi": 66,
          "time": 70.02325581394848,
          "velocity": 0.1732283464566929,
          "duration": 0.1860465116278931
        },
        {
          "name": "B4",
          "midi": 71,
          "time": 70.05813953487872,
          "velocity": 0.5275590551181102,
          "duration": 0.081395348837205
        },
        {
          "name": "D#3",
          "midi": 51,
          "time": 70.06976744185546,
          "velocity": 0.5275590551181102,
          "duration": 0.12790697674417117
        },
        {
          "name": "B3",
          "midi": 59,
          "time": 70.06976744185546,
          "velocity": 0.3700787401574803,
          "duration": 0.081395348837205
        },
        {
          "name": "F#5",
          "midi": 78,
          "time": 70.06976744185546,
          "velocity": 0.2047244094488189,
          "duration": 0.12790697674417117
        },
        {
          "name": "D#6",
          "midi": 87,
          "time": 70.0813953488322,
          "velocity": 0.2047244094488189,
          "duration": 0.05813953488372192
        },
        {
          "name": "C#5",
          "midi": 73,
          "time": 70.09302325580894,
          "velocity": 0.11023622047244094,
          "duration": 0.04651162790698038
        },
        {
          "name": "F#2",
          "midi": 42,
          "time": 70.13953488371592,
          "velocity": 0.4566929133858268,
          "duration": 0.023255813953483084
        },
        {
          "name": "D7",
          "midi": 98,
          "time": 70.13953488371592,
          "velocity": 0.18110236220472442,
          "duration": 0.034883720930224626
        },
        {
          "name": "B4",
          "midi": 71,
          "time": 70.15116279069267,
          "velocity": 0.33858267716535434,
          "duration": 0.023255813953483084
        },
        {
          "name": "C#5",
          "midi": 73,
          "time": 70.15116279069267,
          "velocity": 0.08661417322834646,
          "duration": 0.04651162790696617
        },
        {
          "name": "A#4",
          "midi": 70,
          "time": 70.17441860464615,
          "velocity": 0.3937007874015748,
          "duration": 0.2209302325580893
        },
        {
          "name": "A3",
          "midi": 57,
          "time": 70.18604651162289,
          "velocity": 0.3543307086614173,
          "duration": 0.023255813953483084
        },
        {
          "name": "D#3",
          "midi": 51,
          "time": 70.20930232557637,
          "velocity": 0.5511811023622047,
          "duration": 0.15116279069764005
        },
        {
          "name": "F#4",
          "midi": 66,
          "time": 70.22093023255312,
          "velocity": 0.18110236220472442,
          "duration": 0.2209302325580893
        },
        {
          "name": "A#0",
          "midi": 22,
          "time": 70.2441860465066,
          "velocity": 0.7165354330708661,
          "duration": 0.011627906976741542
        },
        {
          "name": "C#5",
          "midi": 73,
          "time": 70.2441860465066,
          "velocity": 0.08661417322834646,
          "duration": 0.15116279069764005
        },
        {
          "name": "B0",
          "midi": 23,
          "time": 70.25581395348334,
          "velocity": 0.7322834645669292,
          "duration": 1.3604651162788315
        },
        {
          "name": "F#2",
          "midi": 42,
          "time": 70.26744186046008,
          "velocity": 0.4645669291338583,
          "duration": 0.023255813953483084
        },
        {
          "name": "F#2",
          "midi": 42,
          "time": 70.3023255813903,
          "velocity": 0.48031496062992124,
          "duration": 0.023255813953483084
        },
        {
          "name": "B3",
          "midi": 59,
          "time": 70.33720930232053,
          "velocity": 0.4409448818897638,
          "duration": 0.1395348837208985
        },
        {
          "name": "G#6",
          "midi": 92,
          "time": 70.33720930232053,
          "velocity": 0.11811023622047244,
          "duration": 0.034883720930224626
        },
        {
          "name": "F#2",
          "midi": 42,
          "time": 70.34883720929727,
          "velocity": 0.4409448818897638,
          "duration": 0.023255813953483084
        },
        {
          "name": "A6",
          "midi": 93,
          "time": 70.36046511627401,
          "velocity": 0.2125984251968504,
          "duration": 0.05813953488370771
        },
        {
          "name": "D#7",
          "midi": 99,
          "time": 70.36046511627401,
          "velocity": 0.25196850393700787,
          "duration": 0.10465116279067388
        },
        {
          "name": "D#3",
          "midi": 51,
          "time": 70.37209302325076,
          "velocity": 0.5118110236220472,
          "duration": 0.05813953488370771
        },
        {
          "name": "B6",
          "midi": 95,
          "time": 70.37209302325076,
          "velocity": 0.28346456692913385,
          "duration": 0.10465116279067388
        },
        {
          "name": "C#7",
          "midi": 97,
          "time": 70.37209302325076,
          "velocity": 0.2677165354330709,
          "duration": 0.10465116279067388
        },
        {
          "name": "A#4",
          "midi": 70,
          "time": 70.40697674418098,
          "velocity": 0.3858267716535433,
          "duration": 0.023255813953483084
        },
        {
          "name": "C#5",
          "midi": 73,
          "time": 70.40697674418098,
          "velocity": 0.11023622047244094,
          "duration": 0.05813953488370771
        },
        {
          "name": "G6",
          "midi": 91,
          "time": 70.41860465115772,
          "velocity": 0.07086614173228346,
          "duration": 0.05813953488370771
        },
        {
          "name": "D#3",
          "midi": 51,
          "time": 70.4418604651112,
          "velocity": 0.49606299212598426,
          "duration": 0.023255813953483084
        },
        {
          "name": "F#5",
          "midi": 78,
          "time": 70.4418604651112,
          "velocity": 0.12598425196850394,
          "duration": 0.034883720930224626
        },
        {
          "name": "F4",
          "midi": 65,
          "time": 70.45348837208795,
          "velocity": 0.28346456692913385,
          "duration": 0.023255813953483084
        },
        {
          "name": "F#2",
          "midi": 42,
          "time": 70.46511627906469,
          "velocity": 0.44881889763779526,
          "duration": 0.034883720930224626
        },
        {
          "name": "D#3",
          "midi": 51,
          "time": 70.47674418604143,
          "velocity": 0.47244094488188976,
          "duration": 0.04651162790696617
        },
        {
          "name": "C#5",
          "midi": 73,
          "time": 70.47674418604143,
          "velocity": 0.2283464566929134,
          "duration": 0.2790697674418112
        },
        {
          "name": "C6",
          "midi": 84,
          "time": 70.47674418604143,
          "velocity": 0.12598425196850394,
          "duration": 0.31395348837203585
        },
        {
          "name": "F4",
          "midi": 65,
          "time": 70.48837209301817,
          "velocity": 0.3858267716535433,
          "duration": 0.034883720930224626
        },
        {
          "name": "A#4",
          "midi": 70,
          "time": 70.48837209301817,
          "velocity": 0.29133858267716534,
          "duration": 0.023255813953483084
        },
        {
          "name": "F#2",
          "midi": 42,
          "time": 70.51162790697165,
          "velocity": 0.4330708661417323,
          "duration": 0.023255813953483084
        },
        {
          "name": "A3",
          "midi": 57,
          "time": 70.51162790697165,
          "velocity": 0.3937007874015748,
          "duration": 0.023255813953483084
        },
        {
          "name": "D6",
          "midi": 86,
          "time": 70.51162790697165,
          "velocity": 0.2440944881889764,
          "duration": 0.09302325581393234
        },
        {
          "name": "F#4",
          "midi": 66,
          "time": 70.5232558139484,
          "velocity": 0.3700787401574803,
          "duration": 0.023255813953483084
        },
        {
          "name": "A#4",
          "midi": 70,
          "time": 70.5232558139484,
          "velocity": 0.47244094488188976,
          "duration": 0.29069767441855277
        },
        {
          "name": "D#3",
          "midi": 51,
          "time": 70.53488372092514,
          "velocity": 0.47244094488188976,
          "duration": 0.023255813953483084
        },
        {
          "name": "F5",
          "midi": 77,
          "time": 70.53488372092514,
          "velocity": 0.36220472440944884,
          "duration": 0.1395348837208985
        },
        {
          "name": "G#6",
          "midi": 92,
          "time": 70.53488372092514,
          "velocity": 0.33858267716535434,
          "duration": 0.15116279069764005
        },
        {
          "name": "D#7",
          "midi": 99,
          "time": 70.53488372092514,
          "velocity": 0.29133858267716534,
          "duration": 0.17441860465112313
        },
        {
          "name": "D3",
          "midi": 50,
          "time": 70.55813953487862,
          "velocity": 0.4409448818897638,
          "duration": 0.023255813953483084
        },
        {
          "name": "A#3",
          "midi": 58,
          "time": 70.55813953487862,
          "velocity": 0.25984251968503935,
          "duration": 0.034883720930224626
        },
        {
          "name": "F4",
          "midi": 65,
          "time": 70.5813953488321,
          "velocity": 0.3228346456692913,
          "duration": 0.023255813953483084
        },
        {
          "name": "A#6",
          "midi": 94,
          "time": 70.5813953488321,
          "velocity": 0.4094488188976378,
          "duration": 0.17441860465113734
        },
        {
          "name": "D#4",
          "midi": 63,
          "time": 70.59302325580884,
          "velocity": 0.33858267716535434,
          "duration": 0.023255813953483084
        },
        {
          "name": "A#3",
          "midi": 58,
          "time": 70.60465116278559,
          "velocity": 0.25196850393700787,
          "duration": 0.023255813953483084
        },
        {
          "name": "G6",
          "midi": 91,
          "time": 70.60465116278559,
          "velocity": 0.11023622047244094,
          "duration": 0.04651162790696617
        },
        {
          "name": "A6",
          "midi": 93,
          "time": 70.60465116278559,
          "velocity": 0.2755905511811024,
          "duration": 0.06976744186044925
        },
        {
          "name": "B6",
          "midi": 95,
          "time": 70.60465116278559,
          "velocity": 0.28346456692913385,
          "duration": 0.05813953488370771
        },
        {
          "name": "C7",
          "midi": 96,
          "time": 70.60465116278559,
          "velocity": 0.30708661417322836,
          "duration": 0.034883720930224626
        },
        {
          "name": "D7",
          "midi": 98,
          "time": 70.60465116278559,
          "velocity": 0.31496062992125984,
          "duration": 0.05813953488370771
        },
        {
          "name": "E7",
          "midi": 100,
          "time": 70.60465116278559,
          "velocity": 0.25984251968503935,
          "duration": 0.0813953488371908
        },
        {
          "name": "F#4",
          "midi": 66,
          "time": 70.61627906976233,
          "velocity": 0.29133858267716534,
          "duration": 0.034883720930224626
        },
        {
          "name": "E6",
          "midi": 88,
          "time": 70.61627906976233,
          "velocity": 0.11023622047244094,
          "duration": 0.034883720930224626
        },
        {
          "name": "F#6",
          "midi": 90,
          "time": 70.61627906976233,
          "velocity": 0.1732283464566929,
          "duration": 0.04651162790696617
        },
        {
          "name": "C#7",
          "midi": 97,
          "time": 70.61627906976233,
          "velocity": 0.2992125984251969,
          "duration": 0.06976744186044925
        },
        {
          "name": "F#7",
          "midi": 102,
          "time": 70.62790697673907,
          "velocity": 0.1889763779527559,
          "duration": 0.05813953488370771
        },
        {
          "name": "D#6",
          "midi": 87,
          "time": 70.63953488371581,
          "velocity": 0.11811023622047244,
          "duration": 0.034883720930224626
        },
        {
          "name": "F4",
          "midi": 65,
          "time": 70.65116279069255,
          "velocity": 0.3228346456692913,
          "duration": 0.05813953488370771
        },
        {
          "name": "F#2",
          "midi": 42,
          "time": 70.6627906976693,
          "velocity": 0.41732283464566927,
          "duration": 0.023255813953483084
        },
        {
          "name": "A#3",
          "midi": 58,
          "time": 70.68604651162278,
          "velocity": 0.4409448818897638,
          "duration": 0.09302325581394655
        },
        {
          "name": "D#4",
          "midi": 63,
          "time": 70.69767441859952,
          "velocity": 0.3228346456692913,
          "duration": 0.05813953488372192
        },
        {
          "name": "E7",
          "midi": 100,
          "time": 70.70930232557626,
          "velocity": 0.08661417322834646,
          "duration": 0.03488372093023884
        },
        {
          "name": "F#4",
          "midi": 66,
          "time": 70.7441860465065,
          "velocity": 0.28346456692913385,
          "duration": 0.023255813953483084
        },
        {
          "name": "F5",
          "midi": 77,
          "time": 70.75581395348324,
          "velocity": 0.3228346456692913,
          "duration": 0.023255813953483084
        },
        {
          "name": "G#6",
          "midi": 92,
          "time": 70.75581395348324,
          "velocity": 0.33070866141732286,
          "duration": 0.034883720930224626
        },
        {
          "name": "C#5",
          "midi": 73,
          "time": 70.76744186045998,
          "velocity": 0.13385826771653545,
          "duration": 0.45348837209294857
        },
        {
          "name": "C#7",
          "midi": 97,
          "time": 70.76744186045998,
          "velocity": 0.11023622047244094,
          "duration": 0.04651162790696617
        },
        {
          "name": "B3",
          "midi": 59,
          "time": 70.77906976743672,
          "velocity": 0.2992125984251969,
          "duration": 0.04651162790696617
        },
        {
          "name": "F4",
          "midi": 65,
          "time": 70.77906976743672,
          "velocity": 0.30708661417322836,
          "duration": 0.034883720930224626
        },
        {
          "name": "F#5",
          "midi": 78,
          "time": 70.77906976743672,
          "velocity": 0.3779527559055118,
          "duration": 0.09302325581393234
        },
        {
          "name": "F#6",
          "midi": 90,
          "time": 70.77906976743672,
          "velocity": 0.41732283464566927,
          "duration": 0.09302325581393234
        },
        {
          "name": "A6",
          "midi": 93,
          "time": 70.77906976743672,
          "velocity": 0.2047244094488189,
          "duration": 0.09302325581393234
        },
        {
          "name": "F#2",
          "midi": 42,
          "time": 70.79069767441347,
          "velocity": 0.3937007874015748,
          "duration": 0.023255813953483084
        },
        {
          "name": "B5",
          "midi": 83,
          "time": 70.79069767441347,
          "velocity": 0.2047244094488189,
          "duration": 0.0813953488371908
        },
        {
          "name": "D#6",
          "midi": 87,
          "time": 70.79069767441347,
          "velocity": 0.1968503937007874,
          "duration": 0.0813953488371908
        },
        {
          "name": "F6",
          "midi": 89,
          "time": 70.79069767441347,
          "velocity": 0.2204724409448819,
          "duration": 0.49999999999991473
        },
        {
          "name": "D#4",
          "midi": 63,
          "time": 70.8023255813902,
          "velocity": 0.3700787401574803,
          "duration": 0.45348837209294857
        },
        {
          "name": "B4",
          "midi": 71,
          "time": 70.81395348836695,
          "velocity": 0.4566929133858268,
          "duration": 0.0813953488371908
        },
        {
          "name": "F#4",
          "midi": 66,
          "time": 70.83720930232043,
          "velocity": 0.2283464566929134,
          "duration": 0.023255813953483084
        },
        {
          "name": "E3",
          "midi": 52,
          "time": 70.86046511627391,
          "velocity": 0.3858267716535433,
          "duration": 0.023255813953483084
        },
        {
          "name": "B3",
          "midi": 59,
          "time": 70.86046511627391,
          "velocity": 0.2755905511811024,
          "duration": 0.034883720930224626
        },
        {
          "name": "A#5",
          "midi": 82,
          "time": 70.87209302325066,
          "velocity": 0.15748031496062992,
          "duration": 0.081395348837205
        },
        {
          "name": "F#4",
          "midi": 66,
          "time": 70.8837209302274,
          "velocity": 0.31496062992125984,
          "duration": 0.3837209302324993
        },
        {
          "name": "A#4",
          "midi": 70,
          "time": 70.89534883720414,
          "velocity": 0.5275590551181102,
          "duration": 0.33720930232553314
        },
        {
          "name": "B3",
          "midi": 59,
          "time": 70.94186046511112,
          "velocity": 0.33070866141732286,
          "duration": 0.023255813953483084
        },
        {
          "name": "F#2",
          "midi": 42,
          "time": 70.95348837208786,
          "velocity": 0.3464566929133858,
          "duration": 0.023255813953483084
        },
        {
          "name": "G#6",
          "midi": 92,
          "time": 70.95348837208786,
          "velocity": 0.33070866141732286,
          "duration": 0.1627906976743958
        },
        {
          "name": "A#3",
          "midi": 58,
          "time": 70.9651162790646,
          "velocity": 0.36220472440944884,
          "duration": 0.09302325581394655
        },
        {
          "name": "D6",
          "midi": 86,
          "time": 70.9651162790646,
          "velocity": 0.11811023622047244,
          "duration": 0.09302325581394655
        },
        {
          "name": "A#6",
          "midi": 94,
          "time": 70.9651162790646,
          "velocity": 0.36220472440944884,
          "duration": 0.2674418604650697
        },
        {
          "name": "F5",
          "midi": 77,
          "time": 70.97674418604134,
          "velocity": 0.2204724409448819,
          "duration": 0.13953488372091272
        },
        {
          "name": "D7",
          "midi": 98,
          "time": 70.98837209301809,
          "velocity": 0.2047244094488189,
          "duration": 0.12790697674417117
        },
        {
          "name": "C7",
          "midi": 96,
          "time": 71.02325581394832,
          "velocity": 0.16535433070866143,
          "duration": 0.0813953488371908
        },
        {
          "name": "E7",
          "midi": 100,
          "time": 71.04651162790181,
          "velocity": 0.1889763779527559,
          "duration": 0.06976744186044925
        },
        {
          "name": "F#2",
          "midi": 42,
          "time": 71.06976744185529,
          "velocity": 0.3543307086614173,
          "duration": 0.023255813953483084
        },
        {
          "name": "A#3",
          "midi": 58,
          "time": 71.06976744185529,
          "velocity": 0.4566929133858268,
          "duration": 0.1627906976743816
        },
        {
          "name": "F#2",
          "midi": 42,
          "time": 71.11627906976226,
          "velocity": 0.30708661417322836,
          "duration": 0.023255813953483084
        },
        {
          "name": "F#6",
          "midi": 90,
          "time": 71.13953488371574,
          "velocity": 0.08661417322834646,
          "duration": 0.034883720930224626
        },
        {
          "name": "G#6",
          "midi": 92,
          "time": 71.15116279069248,
          "velocity": 0.16535433070866143,
          "duration": 0.0813953488371908
        },
        {
          "name": "F5",
          "midi": 77,
          "time": 71.16279069766922,
          "velocity": 0.2204724409448819,
          "duration": 0.05813953488370771
        },
        {
          "name": "C7",
          "midi": 96,
          "time": 71.16279069766922,
          "velocity": 0.3228346456692913,
          "duration": 0.06976744186044925
        },
        {
          "name": "D7",
          "midi": 98,
          "time": 71.16279069766922,
          "velocity": 0.25196850393700787,
          "duration": 0.06976744186044925
        },
        {
          "name": "E7",
          "midi": 100,
          "time": 71.16279069766922,
          "velocity": 0.2047244094488189,
          "duration": 0.034883720930224626
        },
        {
          "name": "F#3",
          "midi": 54,
          "time": 71.17441860464596,
          "velocity": 0.33858267716535434,
          "duration": 0.04651162790696617
        },
        {
          "name": "E7",
          "midi": 100,
          "time": 71.20930232557619,
          "velocity": 0.2440944881889764,
          "duration": 0.12790697674415696
        },
        {
          "name": "F#5",
          "midi": 78,
          "time": 71.22093023255293,
          "velocity": 0.4094488188976378,
          "duration": 0.37209302325575777
        },
        {
          "name": "B6",
          "midi": 95,
          "time": 71.22093023255293,
          "velocity": 0.41732283464566927,
          "duration": 0.29069767441855277
        },
        {
          "name": "C#7",
          "midi": 97,
          "time": 71.22093023255293,
          "velocity": 0.2992125984251969,
          "duration": 0.2674418604650697
        },
        {
          "name": "D#7",
          "midi": 99,
          "time": 71.22093023255293,
          "velocity": 0.3228346456692913,
          "duration": 0.3488372093022747
        },
        {
          "name": "F#3",
          "midi": 54,
          "time": 71.23255813952967,
          "velocity": 0.30708661417322836,
          "duration": 0.023255813953483084
        },
        {
          "name": "B3",
          "midi": 59,
          "time": 71.23255813952967,
          "velocity": 0.2440944881889764,
          "duration": 0.023255813953483084
        },
        {
          "name": "B4",
          "midi": 71,
          "time": 71.23255813952967,
          "velocity": 0.4409448818897638,
          "duration": 0.36046511627901623
        },
        {
          "name": "A6",
          "midi": 93,
          "time": 71.23255813952967,
          "velocity": 0.2992125984251969,
          "duration": 0.06976744186044925
        },
        {
          "name": "D#6",
          "midi": 87,
          "time": 71.24418604650641,
          "velocity": 0.13385826771653545,
          "duration": 0.1395348837208985
        },
        {
          "name": "F7",
          "midi": 101,
          "time": 71.24418604650641,
          "velocity": 0.25984251968503935,
          "duration": 0.12790697674415696
        },
        {
          "name": "F#7",
          "midi": 102,
          "time": 71.24418604650641,
          "velocity": 0.2125984251968504,
          "duration": 0.11627906976741542
        },
        {
          "name": "E4",
          "midi": 64,
          "time": 71.25581395348316,
          "velocity": 0.2283464566929134,
          "duration": 0.023255813953483084
        },
        {
          "name": "A#6",
          "midi": 94,
          "time": 71.25581395348316,
          "velocity": 0.29133858267716534,
          "duration": 0.06976744186044925
        },
        {
          "name": "C7",
          "midi": 96,
          "time": 71.25581395348316,
          "velocity": 0.2755905511811024,
          "duration": 0.09302325581393234
        },
        {
          "name": "D7",
          "midi": 98,
          "time": 71.25581395348316,
          "velocity": 0.33070866141732286,
          "duration": 0.04651162790696617
        },
        {
          "name": "C#5",
          "midi": 73,
          "time": 71.2674418604599,
          "velocity": 0.14960629921259844,
          "duration": 0.19767441860462043
        },
        {
          "name": "D6",
          "midi": 86,
          "time": 71.2674418604599,
          "velocity": 0.12598425196850394,
          "duration": 0.034883720930224626
        },
        {
          "name": "G7",
          "midi": 103,
          "time": 71.2674418604599,
          "velocity": 0.1889763779527559,
          "duration": 0.05813953488370771
        },
        {
          "name": "F#2",
          "midi": 42,
          "time": 71.27906976743664,
          "velocity": 0.2677165354330709,
          "duration": 0.023255813953483084
        },
        {
          "name": "F#3",
          "midi": 54,
          "time": 71.29069767441338,
          "velocity": 0.2992125984251969,
          "duration": 0.17441860465113734
        },
        {
          "name": "B3",
          "midi": 59,
          "time": 71.29069767441338,
          "velocity": 0.23622047244094488,
          "duration": 0.31395348837205006
        },
        {
          "name": "G#4",
          "midi": 68,
          "time": 71.31395348836686,
          "velocity": 0.33858267716535434,
          "duration": 0.37209302325575777
        },
        {
          "name": "A6",
          "midi": 93,
          "time": 71.31395348836686,
          "velocity": 0.29133858267716534,
          "duration": 0.25581395348834235
        },
        {
          "name": "E7",
          "midi": 100,
          "time": 71.37209302325057,
          "velocity": 0.11811023622047244,
          "duration": 0.04651162790696617
        },
        {
          "name": "D#6",
          "midi": 87,
          "time": 71.39534883720405,
          "velocity": 0.15748031496062992,
          "duration": 0.081395348837205
        },
        {
          "name": "F3",
          "midi": 53,
          "time": 71.46511627906452,
          "velocity": 0.33858267716535434,
          "duration": 0.23255813953484505
        },
        {
          "name": "D#6",
          "midi": 87,
          "time": 71.488372093018,
          "velocity": 0.16535433070866143,
          "duration": 0.19767441860462043
        },
        {
          "name": "F7",
          "midi": 101,
          "time": 71.488372093018,
          "velocity": 0.2204724409448819,
          "duration": 0.06976744186046346
        },
        {
          "name": "E7",
          "midi": 100,
          "time": 71.55813953487846,
          "velocity": 0.25196850393700787,
          "duration": 0.12790697674415696
        },
        {
          "name": "D6",
          "midi": 86,
          "time": 71.58139534883195,
          "velocity": 0.4015748031496063,
          "duration": 0.17441860465113734
        },
        {
          "name": "A#4",
          "midi": 70,
          "time": 71.59302325580869,
          "velocity": 0.4251968503937008,
          "duration": 0.5232558139534405
        },
        {
          "name": "F5",
          "midi": 77,
          "time": 71.59302325580869,
          "velocity": 0.3858267716535433,
          "duration": 0.23255813953484505
        },
        {
          "name": "F6",
          "midi": 89,
          "time": 71.59302325580869,
          "velocity": 0.4094488188976378,
          "duration": 0.8023255813952517
        },
        {
          "name": "A#3",
          "midi": 58,
          "time": 71.60465116278543,
          "velocity": 0.2755905511811024,
          "duration": 0.2441860465115866
        },
        {
          "name": "B6",
          "midi": 95,
          "time": 71.61627906976217,
          "velocity": 0.15748031496062992,
          "duration": 0.034883720930224626
        },
        {
          "name": "B0",
          "midi": 23,
          "time": 71.62790697673891,
          "velocity": 0.4645669291338583,
          "duration": 0.19767441860462043
        },
        {
          "name": "G6",
          "midi": 91,
          "time": 71.63953488371565,
          "velocity": 0.14173228346456693,
          "duration": 0.034883720930224626
        },
        {
          "name": "A6",
          "midi": 93,
          "time": 71.63953488371565,
          "velocity": 0.1732283464566929,
          "duration": 0.034883720930224626
        },
        {
          "name": "C7",
          "midi": 96,
          "time": 71.6511627906924,
          "velocity": 0.1889763779527559,
          "duration": 0.034883720930224626
        },
        {
          "name": "D#4",
          "midi": 63,
          "time": 71.68604651162262,
          "velocity": 0.23622047244094488,
          "duration": 0.023255813953483084
        },
        {
          "name": "C6",
          "midi": 84,
          "time": 71.68604651162262,
          "velocity": 0.33858267716535434,
          "duration": 0.09302325581394655
        },
        {
          "name": "D#3",
          "midi": 51,
          "time": 71.69767441859936,
          "velocity": 0.31496062992125984,
          "duration": 0.18604651162787889
        },
        {
          "name": "G5",
          "midi": 79,
          "time": 71.69767441859936,
          "velocity": 0.08661417322834646,
          "duration": 0.04651162790698038
        },
        {
          "name": "F4",
          "midi": 65,
          "time": 71.75581395348308,
          "velocity": 0.2440944881889764,
          "duration": 0.05813953488370771
        },
        {
          "name": "D5",
          "midi": 74,
          "time": 71.79069767441331,
          "velocity": 0.15748031496062992,
          "duration": 0.034883720930224626
        },
        {
          "name": "E4",
          "midi": 64,
          "time": 71.81395348836679,
          "velocity": 0.31496062992125984,
          "duration": 0.023255813953483084
        },
        {
          "name": "F#5",
          "midi": 78,
          "time": 71.81395348836679,
          "velocity": 0.13385826771653545,
          "duration": 0.034883720930224626
        },
        {
          "name": "A6",
          "midi": 93,
          "time": 71.82558139534353,
          "velocity": 0.1968503937007874,
          "duration": 0.04651162790696617
        },
        {
          "name": "B0",
          "midi": 23,
          "time": 71.83720930232028,
          "velocity": 0.33070866141732286,
          "duration": 0.04651162790696617
        },
        {
          "name": "F4",
          "midi": 65,
          "time": 71.83720930232028,
          "velocity": 0.31496062992125984,
          "duration": 0.081395348837205
        },
        {
          "name": "C6",
          "midi": 84,
          "time": 71.83720930232028,
          "velocity": 0.16535433070866143,
          "duration": 0.04651162790696617
        },
        {
          "name": "C7",
          "midi": 96,
          "time": 71.83720930232028,
          "velocity": 0.2440944881889764,
          "duration": 0.034883720930224626
        },
        {
          "name": "F#5",
          "midi": 78,
          "time": 71.8720930232505,
          "velocity": 0.2047244094488189,
          "duration": 0.04651162790698038
        },
        {
          "name": "C#3",
          "midi": 49,
          "time": 71.91860465115748,
          "velocity": 0.30708661417322836,
          "duration": 0.1860465116279073
        },
        {
          "name": "G#4",
          "midi": 68,
          "time": 71.91860465115748,
          "velocity": 0.12598425196850394,
          "duration": 0.03488372093023884
        },
        {
          "name": "F5",
          "midi": 77,
          "time": 71.96511627906446,
          "velocity": 0.1732283464566929,
          "duration": 0.09302325581394655
        },
        {
          "name": "D6",
          "midi": 86,
          "time": 71.9767441860412,
          "velocity": 0.14173228346456693,
          "duration": 0.05813953488372192
        },
        {
          "name": "F#4",
          "midi": 66,
          "time": 72.01162790697144,
          "velocity": 0.2755905511811024,
          "duration": 0.09302325581394655
        },
        {
          "name": "C#6",
          "midi": 85,
          "time": 72.02325581394818,
          "velocity": 0.33858267716535434,
          "duration": 0.1627906976743958
        },
        {
          "name": "F#5",
          "midi": 78,
          "time": 72.0581395348784,
          "velocity": 0.29133858267716534,
          "duration": 0.04651162790698038
        },
        {
          "name": "D#7",
          "midi": 99,
          "time": 72.09302325580865,
          "velocity": 0.11811023622047244,
          "duration": 0.034883720930224626
        },
        {
          "name": "D3",
          "midi": 50,
          "time": 72.10465116278539,
          "velocity": 0.31496062992125984,
          "duration": 0.023255813953483084
        },
        {
          "name": "A3",
          "midi": 57,
          "time": 72.10465116278539,
          "velocity": 0.3464566929133858,
          "duration": 0.034883720930224626
        },
        {
          "name": "F5",
          "midi": 77,
          "time": 72.10465116278539,
          "velocity": 0.4645669291338583,
          "duration": 0.3488372093022605
        },
        {
          "name": "F#1",
          "midi": 30,
          "time": 72.11627906976213,
          "velocity": 0.6456692913385826,
          "duration": 0.011627906976741542
        },
        {
          "name": "G#4",
          "midi": 68,
          "time": 72.11627906976213,
          "velocity": 0.31496062992125984,
          "duration": 0.33720930232551893
        },
        {
          "name": "D#6",
          "midi": 87,
          "time": 72.11627906976213,
          "velocity": 0.14960629921259844,
          "duration": 0.45348837209293436
        },
        {
          "name": "F1",
          "midi": 29,
          "time": 72.12790697673887,
          "velocity": 0.7086614173228346,
          "duration": 0.011627906976741542
        },
        {
          "name": "F#4",
          "midi": 66,
          "time": 72.12790697673887,
          "velocity": 0.33858267716535434,
          "duration": 0.034883720930224626
        },
        {
          "name": "E1",
          "midi": 28,
          "time": 72.13953488371561,
          "velocity": 0.7165354330708661,
          "duration": 0.011627906976741542
        },
        {
          "name": "G3",
          "midi": 55,
          "time": 72.13953488371561,
          "velocity": 0.5118110236220472,
          "duration": 0.43023255813945127
        },
        {
          "name": "D#1",
          "midi": 27,
          "time": 72.15116279069235,
          "velocity": 0.7480314960629921,
          "duration": 0.779069767441726
        },
        {
          "name": "C#4",
          "midi": 61,
          "time": 72.18604651162258,
          "velocity": 0.16535433070866143,
          "duration": 0.034883720930224626
        },
        {
          "name": "C7",
          "midi": 96,
          "time": 72.18604651162258,
          "velocity": 0.10236220472440945,
          "duration": 0.05813953488370771
        },
        {
          "name": "A#2",
          "midi": 46,
          "time": 72.19767441859932,
          "velocity": 0.41732283464566927,
          "duration": 0.034883720930224626
        },
        {
          "name": "C#6",
          "midi": 85,
          "time": 72.19767441859932,
          "velocity": 0.2125984251968504,
          "duration": 0.05813953488370771
        },
        {
          "name": "F#6",
          "midi": 90,
          "time": 72.19767441859932,
          "velocity": 0.11811023622047244,
          "duration": 0.04651162790696617
        },
        {
          "name": "A#2",
          "midi": 46,
          "time": 72.24418604650629,
          "velocity": 0.4409448818897638,
          "duration": 0.3255813953487774
        },
        {
          "name": "C6",
          "midi": 84,
          "time": 72.25581395348303,
          "velocity": 0.1889763779527559,
          "duration": 0.034883720930224626
        },
        {
          "name": "C7",
          "midi": 96,
          "time": 72.26744186045977,
          "velocity": 0.1889763779527559,
          "duration": 0.11627906976742963
        },
        {
          "name": "B4",
          "midi": 71,
          "time": 72.31395348836674,
          "velocity": 0.14960629921259844,
          "duration": 0.09302325581394655
        },
        {
          "name": "G5",
          "midi": 79,
          "time": 72.34883720929697,
          "velocity": 0.2047244094488189,
          "duration": 0.06976744186044925
        },
        {
          "name": "F#6",
          "midi": 90,
          "time": 72.34883720929697,
          "velocity": 0.25984251968503935,
          "duration": 0.023255813953483084
        },
        {
          "name": "G6",
          "midi": 91,
          "time": 72.34883720929697,
          "velocity": 0.2204724409448819,
          "duration": 0.04651162790696617
        },
        {
          "name": "E7",
          "midi": 100,
          "time": 72.34883720929697,
          "velocity": 0.09448818897637795,
          "duration": 0.04651162790696617
        },
        {
          "name": "D6",
          "midi": 86,
          "time": 72.36046511627372,
          "velocity": 0.07086614173228346,
          "duration": 0.09302325581393234
        },
        {
          "name": "E6",
          "midi": 88,
          "time": 72.36046511627372,
          "velocity": 0.16535433070866143,
          "duration": 0.05813953488370771
        },
        {
          "name": "F#4",
          "midi": 66,
          "time": 72.4418604651109,
          "velocity": 0.3464566929133858,
          "duration": 0.05813953488370771
        },
        {
          "name": "F#5",
          "midi": 78,
          "time": 72.4418604651109,
          "velocity": 0.3858267716535433,
          "duration": 0.09302325581393234
        },
        {
          "name": "D5",
          "midi": 74,
          "time": 72.45348837208765,
          "velocity": 0.3464566929133858,
          "duration": 0.06976744186044925
        },
        {
          "name": "C#6",
          "midi": 85,
          "time": 72.45348837208765,
          "velocity": 0.4409448818897638,
          "duration": 0.20930232558134776
        },
        {
          "name": "A#5",
          "midi": 82,
          "time": 72.46511627906439,
          "velocity": 0.25984251968503935,
          "duration": 0.05813953488370771
        },
        {
          "name": "B5",
          "midi": 83,
          "time": 72.46511627906439,
          "velocity": 0.2125984251968504,
          "duration": 0.034883720930224626
        },
        {
          "name": "G#4",
          "midi": 68,
          "time": 72.48837209301787,
          "velocity": 0.33858267716535434,
          "duration": 0.19767441860460622
        },
        {
          "name": "E5",
          "midi": 76,
          "time": 72.51162790697136,
          "velocity": 0.3700787401574803,
          "duration": 0.04651162790696617
        },
        {
          "name": "B5",
          "midi": 83,
          "time": 72.51162790697136,
          "velocity": 0.33858267716535434,
          "duration": 0.034883720930224626
        },
        {
          "name": "C#5",
          "midi": 73,
          "time": 72.5232558139481,
          "velocity": 0.2755905511811024,
          "duration": 0.034883720930224626
        },
        {
          "name": "D4",
          "midi": 62,
          "time": 72.54651162790158,
          "velocity": 0.30708661417322836,
          "duration": 0.034883720930224626
        },
        {
          "name": "B4",
          "midi": 71,
          "time": 72.54651162790158,
          "velocity": 0.4566929133858268,
          "duration": 0.1395348837208985
        },
        {
          "name": "D5",
          "midi": 74,
          "time": 72.54651162790158,
          "velocity": 0.4094488188976378,
          "duration": 0.05813953488370771
        },
        {
          "name": "A#5",
          "midi": 82,
          "time": 72.54651162790158,
          "velocity": 0.2125984251968504,
          "duration": 0.04651162790696617
        },
        {
          "name": "F5",
          "midi": 77,
          "time": 72.55813953487832,
          "velocity": 0.3779527559055118,
          "duration": 0.04651162790696617
        },
        {
          "name": "F#6",
          "midi": 90,
          "time": 72.55813953487832,
          "velocity": 0.16535433070866143,
          "duration": 0.06976744186044925
        },
        {
          "name": "C6",
          "midi": 84,
          "time": 72.56976744185506,
          "velocity": 0.2440944881889764,
          "duration": 0.034883720930224626
        },
        {
          "name": "A#3",
          "midi": 58,
          "time": 72.5813953488318,
          "velocity": 0.4881889763779528,
          "duration": 0.034883720930224626
        },
        {
          "name": "D#6",
          "midi": 87,
          "time": 72.5813953488318,
          "velocity": 0.30708661417322836,
          "duration": 0.37209302325575777
        },
        {
          "name": "A#2",
          "midi": 46,
          "time": 72.59302325580855,
          "velocity": 0.4251968503937008,
          "duration": 0.0813953488371908
        },
        {
          "name": "G3",
          "midi": 55,
          "time": 72.60465116278529,
          "velocity": 0.44881889763779526,
          "duration": 0.04651162790696617
        },
        {
          "name": "F#5",
          "midi": 78,
          "time": 72.60465116278529,
          "velocity": 0.36220472440944884,
          "duration": 0.06976744186044925
        },
        {
          "name": "F7",
          "midi": 101,
          "time": 72.60465116278529,
          "velocity": 0.1889763779527559,
          "duration": 0.034883720930224626
        },
        {
          "name": "B3",
          "midi": 59,
          "time": 72.61627906976203,
          "velocity": 0.48031496062992124,
          "duration": 0.04651162790696617
        },
        {
          "name": "F6",
          "midi": 89,
          "time": 72.63953488371551,
          "velocity": 0.23622047244094488,
          "duration": 0.17441860465113734
        },
        {
          "name": "A#3",
          "midi": 58,
          "time": 72.662790697669,
          "velocity": 0.49606299212598426,
          "duration": 0.034883720930224626
        },
        {
          "name": "G#6",
          "midi": 92,
          "time": 72.662790697669,
          "velocity": 0.2047244094488189,
          "duration": 0.06976744186044925
        },
        {
          "name": "D7",
          "midi": 98,
          "time": 72.662790697669,
          "velocity": 0.18110236220472442,
          "duration": 0.05813953488370771
        },
        {
          "name": "E7",
          "midi": 100,
          "time": 72.662790697669,
          "velocity": 0.2125984251968504,
          "duration": 0.04651162790696617
        },
        {
          "name": "A#4",
          "midi": 70,
          "time": 72.67441860464574,
          "velocity": 0.5039370078740157,
          "duration": 0.04651162790696617
        },
        {
          "name": "F5",
          "midi": 77,
          "time": 72.67441860464574,
          "velocity": 0.30708661417322836,
          "duration": 0.06976744186044925
        },
        {
          "name": "A#6",
          "midi": 94,
          "time": 72.67441860464574,
          "velocity": 0.1889763779527559,
          "duration": 0.05813953488370771
        },
        {
          "name": "C6",
          "midi": 84,
          "time": 72.68604651162248,
          "velocity": 0.1889763779527559,
          "duration": 0.0813953488371908
        },
        {
          "name": "A#2",
          "midi": 46,
          "time": 72.70930232557596,
          "velocity": 0.4015748031496063,
          "duration": 0.09302325581394655
        },
        {
          "name": "G3",
          "midi": 55,
          "time": 72.70930232557596,
          "velocity": 0.4015748031496063,
          "duration": 0.04651162790696617
        },
        {
          "name": "A#3",
          "midi": 58,
          "time": 72.70930232557596,
          "velocity": 0.4251968503937008,
          "duration": 0.023255813953483084
        },
        {
          "name": "G#4",
          "midi": 68,
          "time": 72.7209302325527,
          "velocity": 0.31496062992125984,
          "duration": 0.31395348837205006
        },
        {
          "name": "B4",
          "midi": 71,
          "time": 72.73255813952944,
          "velocity": 0.3858267716535433,
          "duration": 0.06976744186046346
        },
        {
          "name": "G3",
          "midi": 55,
          "time": 72.76744186045967,
          "velocity": 0.3858267716535433,
          "duration": 0.13953488372092693
        },
        {
          "name": "F5",
          "midi": 77,
          "time": 72.76744186045967,
          "velocity": 0.2440944881889764,
          "duration": 0.05813953488372192
        },
        {
          "name": "A#2",
          "midi": 46,
          "time": 72.83720930232013,
          "velocity": 0.3700787401574803,
          "duration": 0.05813953488372192
        },
        {
          "name": "F#5",
          "midi": 78,
          "time": 72.87209302325037,
          "velocity": 0.15748031496062992,
          "duration": 0.04651162790696617
        },
        {
          "name": "F5",
          "midi": 77,
          "time": 72.89534883720385,
          "velocity": 0.10236220472440945,
          "duration": 0.034883720930224626
        },
        {
          "name": "C#6",
          "midi": 85,
          "time": 72.89534883720385,
          "velocity": 0.3228346456692913,
          "duration": 0.17441860465112313
        },
        {
          "name": "F#4",
          "midi": 66,
          "time": 72.9069767441806,
          "velocity": 0.1732283464566929,
          "duration": 0.034883720930224626
        },
        {
          "name": "C5",
          "midi": 72,
          "time": 72.9069767441806,
          "velocity": 0.33858267716535434,
          "duration": 0.04651162790696617
        },
        {
          "name": "G3",
          "midi": 55,
          "time": 72.91860465115734,
          "velocity": 0.3700787401574803,
          "duration": 0.034883720930224626
        },
        {
          "name": "C4",
          "midi": 60,
          "time": 72.91860465115734,
          "velocity": 0.49606299212598426,
          "duration": 0.023255813953483084
        },
        {
          "name": "G5",
          "midi": 79,
          "time": 72.91860465115734,
          "velocity": 0.31496062992125984,
          "duration": 0.023255813953483084
        },
        {
          "name": "B5",
          "midi": 83,
          "time": 72.91860465115734,
          "velocity": 0.15748031496062992,
          "duration": 0.05813953488370771
        },
        {
          "name": "E1",
          "midi": 28,
          "time": 72.93023255813408,
          "velocity": 0.6456692913385826,
          "duration": 0.011627906976741542
        },
        {
          "name": "F2",
          "midi": 41,
          "time": 72.93023255813408,
          "velocity": 0.5196850393700787,
          "duration": 0.011627906976741542
        },
        {
          "name": "G6",
          "midi": 91,
          "time": 72.93023255813408,
          "velocity": 0.3937007874015748,
          "duration": 0.09302325581393234
        },
        {
          "name": "C7",
          "midi": 96,
          "time": 72.93023255813408,
          "velocity": 0.33858267716535434,
          "duration": 0.17441860465112313
        },
        {
          "name": "D1",
          "midi": 26,
          "time": 72.94186046511082,
          "velocity": 0.6299212598425197,
          "duration": 0.011627906976741542
        },
        {
          "name": "B3",
          "midi": 59,
          "time": 72.94186046511082,
          "velocity": 0.47244094488188976,
          "duration": 0.034883720930224626
        },
        {
          "name": "F#5",
          "midi": 78,
          "time": 72.94186046511082,
          "velocity": 0.33070866141732286,
          "duration": 0.023255813953483084
        },
        {
          "name": "D6",
          "midi": 86,
          "time": 72.94186046511082,
          "velocity": 0.15748031496062992,
          "duration": 0.05813953488370771
        },
        {
          "name": "F6",
          "midi": 89,
          "time": 72.94186046511082,
          "velocity": 0.12598425196850394,
          "duration": 0.04651162790696617
        },
        {
          "name": "B6",
          "midi": 95,
          "time": 72.94186046511082,
          "velocity": 0.2283464566929134,
          "duration": 0.09302325581393234
        },
        {
          "name": "D#1",
          "midi": 27,
          "time": 72.95348837208756,
          "velocity": 0.6535433070866141,
          "duration": 0.43023255813945127
        },
        {
          "name": "A#2",
          "midi": 46,
          "time": 72.9651162790643,
          "velocity": 0.3464566929133858,
          "duration": 0.034883720930224626
        },
        {
          "name": "G3",
          "midi": 55,
          "time": 72.9651162790643,
          "velocity": 0.3228346456692913,
          "duration": 0.04651162790696617
        },
        {
          "name": "G5",
          "midi": 79,
          "time": 72.9651162790643,
          "velocity": 0.33858267716535434,
          "duration": 0.034883720930224626
        },
        {
          "name": "C6",
          "midi": 84,
          "time": 72.9651162790643,
          "velocity": 0.1732283464566929,
          "duration": 0.04651162790696617
        },
        {
          "name": "E6",
          "midi": 88,
          "time": 72.9651162790643,
          "velocity": 0.2283464566929134,
          "duration": 0.04651162790696617
        },
        {
          "name": "G#6",
          "midi": 92,
          "time": 72.9651162790643,
          "velocity": 0.16535433070866143,
          "duration": 0.034883720930224626
        },
        {
          "name": "A#6",
          "midi": 94,
          "time": 72.9651162790643,
          "velocity": 0.33858267716535434,
          "duration": 0.06976744186044925
        },
        {
          "name": "D7",
          "midi": 98,
          "time": 72.9651162790643,
          "velocity": 0.2992125984251969,
          "duration": 0.09302325581393234
        },
        {
          "name": "E7",
          "midi": 100,
          "time": 72.9651162790643,
          "velocity": 0.2283464566929134,
          "duration": 0.0813953488371908
        },
        {
          "name": "A#4",
          "midi": 70,
          "time": 72.97674418604105,
          "velocity": 0.3700787401574803,
          "duration": 0.023255813953483084
        },
        {
          "name": "C5",
          "midi": 72,
          "time": 72.97674418604105,
          "velocity": 0.4645669291338583,
          "duration": 0.023255813953483084
        },
        {
          "name": "D#6",
          "midi": 87,
          "time": 72.97674418604105,
          "velocity": 0.18110236220472442,
          "duration": 0.41860465116270973
        },
        {
          "name": "D#7",
          "midi": 99,
          "time": 72.97674418604105,
          "velocity": 0.28346456692913385,
          "duration": 0.05813953488370771
        },
        {
          "name": "F7",
          "midi": 101,
          "time": 72.97674418604105,
          "velocity": 0.25984251968503935,
          "duration": 0.05813953488370771
        },
        {
          "name": "B3",
          "midi": 59,
          "time": 72.98837209301779,
          "velocity": 0.3937007874015748,
          "duration": 0.023255813953483084
        },
        {
          "name": "E4",
          "midi": 64,
          "time": 72.98837209301779,
          "velocity": 0.29133858267716534,
          "duration": 0.023255813953483084
        },
        {
          "name": "F#5",
          "midi": 78,
          "time": 72.98837209301779,
          "velocity": 0.2047244094488189,
          "duration": 0.04651162790696617
        },
        {
          "name": "A6",
          "midi": 93,
          "time": 72.98837209301779,
          "velocity": 0.36220472440944884,
          "duration": 0.05813953488370771
        },
        {
          "name": "A#2",
          "midi": 46,
          "time": 73.01162790697127,
          "velocity": 0.31496062992125984,
          "duration": 0.04651162790696617
        },
        {
          "name": "A#4",
          "midi": 70,
          "time": 73.01162790697127,
          "velocity": 0.5433070866141733,
          "duration": 0.37209302325574356
        },
        {
          "name": "G#6",
          "midi": 92,
          "time": 73.01162790697127,
          "velocity": 0.09448818897637795,
          "duration": 0.034883720930224626
        },
        {
          "name": "F5",
          "midi": 77,
          "time": 73.02325581394801,
          "velocity": 0.1732283464566929,
          "duration": 0.05813953488370771
        },
        {
          "name": "A#3",
          "midi": 58,
          "time": 73.03488372092475,
          "velocity": 0.3779527559055118,
          "duration": 0.04651162790696617
        },
        {
          "name": "G#4",
          "midi": 68,
          "time": 73.0465116279015,
          "velocity": 0.31496062992125984,
          "duration": 0.09302325581393234
        },
        {
          "name": "F#5",
          "midi": 78,
          "time": 73.06976744185498,
          "velocity": 0.2283464566929134,
          "duration": 0.04651162790696617
        },
        {
          "name": "A#2",
          "midi": 46,
          "time": 73.09302325580846,
          "velocity": 0.31496062992125984,
          "duration": 0.034883720930224626
        },
        {
          "name": "A#3",
          "midi": 58,
          "time": 73.09302325580846,
          "velocity": 0.3700787401574803,
          "duration": 0.06976744186044925
        },
        {
          "name": "G5",
          "midi": 79,
          "time": 73.1046511627852,
          "velocity": 0.08661417322834646,
          "duration": 0.11627906976741542
        },
        {
          "name": "F5",
          "midi": 77,
          "time": 73.11627906976194,
          "velocity": 0.3543307086614173,
          "duration": 0.3488372093022605
        },
        {
          "name": "C6",
          "midi": 84,
          "time": 73.11627906976194,
          "velocity": 0.11811023622047244,
          "duration": 0.034883720930224626
        },
        {
          "name": "C#7",
          "midi": 97,
          "time": 73.11627906976194,
          "velocity": 0.2992125984251969,
          "duration": 0.09302325581393234
        },
        {
          "name": "D7",
          "midi": 98,
          "time": 73.11627906976194,
          "velocity": 0.2440944881889764,
          "duration": 0.09302325581393234
        },
        {
          "name": "C7",
          "midi": 96,
          "time": 73.12790697673869,
          "velocity": 0.2440944881889764,
          "duration": 0.06976744186044925
        },
        {
          "name": "G4",
          "midi": 67,
          "time": 73.13953488371543,
          "velocity": 0.44881889763779526,
          "duration": 0.04651162790696617
        },
        {
          "name": "D#7",
          "midi": 99,
          "time": 73.13953488371543,
          "velocity": 0.1889763779527559,
          "duration": 0.06976744186044925
        },
        {
          "name": "B6",
          "midi": 95,
          "time": 73.15116279069217,
          "velocity": 0.07874015748031496,
          "duration": 0.034883720930224626
        },
        {
          "name": "D#3",
          "midi": 51,
          "time": 73.16279069766891,
          "velocity": 0.3228346456692913,
          "duration": 0.23255813953484505
        },
        {
          "name": "A#3",
          "midi": 58,
          "time": 73.17441860464565,
          "velocity": 0.36220472440944884,
          "duration": 0.09302325581394655
        },
        {
          "name": "G#4",
          "midi": 68,
          "time": 73.22093023255262,
          "velocity": 0.30708661417322836,
          "duration": 0.04651162790698038
        },
        {
          "name": "G#4",
          "midi": 68,
          "time": 73.27906976743634,
          "velocity": 0.3464566929133858,
          "duration": 0.11627906976741542
        },
        {
          "name": "G5",
          "midi": 79,
          "time": 73.29069767441308,
          "velocity": 0.14960629921259844,
          "duration": 0.034883720930224626
        },
        {
          "name": "A#3",
          "midi": 58,
          "time": 73.30232558138982,
          "velocity": 0.4330708661417323,
          "duration": 0.10465116279067388
        },
        {
          "name": "C7",
          "midi": 96,
          "time": 73.30232558138982,
          "velocity": 0.2283464566929134,
          "duration": 0.1395348837208985
        },
        {
          "name": "A6",
          "midi": 93,
          "time": 73.3255813953433,
          "velocity": 0.12598425196850394,
          "duration": 0.05813953488370771
        },
        {
          "name": "B6",
          "midi": 95,
          "time": 73.3255813953433,
          "velocity": 0.16535433070866143,
          "duration": 0.04651162790696617
        },
        {
          "name": "C#6",
          "midi": 85,
          "time": 73.33720930232005,
          "velocity": 0.18110236220472442,
          "duration": 0.0813953488371908
        },
        {
          "name": "A#6",
          "midi": 94,
          "time": 73.33720930232005,
          "velocity": 0.25196850393700787,
          "duration": 0.10465116279067388
        },
        {
          "name": "D7",
          "midi": 98,
          "time": 73.33720930232005,
          "velocity": 0.3228346456692913,
          "duration": 0.11627906976741542
        },
        {
          "name": "G#6",
          "midi": 92,
          "time": 73.34883720929679,
          "velocity": 0.25984251968503935,
          "duration": 0.11627906976741542
        },
        {
          "name": "C#7",
          "midi": 97,
          "time": 73.34883720929679,
          "velocity": 0.18110236220472442,
          "duration": 0.034883720930224626
        },
        {
          "name": "D1",
          "midi": 26,
          "time": 73.38372093022701,
          "velocity": 0.5511811023622047,
          "duration": 0.023255813953483084
        },
        {
          "name": "E3",
          "midi": 52,
          "time": 73.39534883720376,
          "velocity": 0.3464566929133858,
          "duration": 0.023255813953483084
        },
        {
          "name": "F#4",
          "midi": 66,
          "time": 73.39534883720376,
          "velocity": 0.23622047244094488,
          "duration": 0.23255813953484505
        },
        {
          "name": "C#1",
          "midi": 25,
          "time": 73.4069767441805,
          "velocity": 0.6456692913385826,
          "duration": 0.011627906976741542
        },
        {
          "name": "A2",
          "midi": 45,
          "time": 73.4069767441805,
          "velocity": 0.4330708661417323,
          "duration": 0.023255813953483084
        },
        {
          "name": "D#4",
          "midi": 63,
          "time": 73.4069767441805,
          "velocity": 0.3464566929133858,
          "duration": 0.05813953488370771
        },
        {
          "name": "C#5",
          "midi": 73,
          "time": 73.4069767441805,
          "velocity": 0.2047244094488189,
          "duration": 0.3837209302324851
        },
        {
          "name": "D1",
          "midi": 26,
          "time": 73.41860465115724,
          "velocity": 0.6929133858267716,
          "duration": 0.011627906976741542
        },
        {
          "name": "F3",
          "midi": 53,
          "time": 73.41860465115724,
          "velocity": 0.41732283464566927,
          "duration": 0.023255813953483084
        },
        {
          "name": "C1",
          "midi": 24,
          "time": 73.43023255813398,
          "velocity": 0.7007874015748031,
          "duration": 0.011627906976741542
        },
        {
          "name": "B0",
          "midi": 23,
          "time": 73.44186046511072,
          "velocity": 0.7322834645669292,
          "duration": 1.1046511627905033
        },
        {
          "name": "A#3",
          "midi": 58,
          "time": 73.44186046511072,
          "velocity": 0.5511811023622047,
          "duration": 0.09302325581394655
        },
        {
          "name": "G6",
          "midi": 91,
          "time": 73.44186046511072,
          "velocity": 0.11811023622047244,
          "duration": 0.06976744186046346
        },
        {
          "name": "D#3",
          "midi": 51,
          "time": 73.4651162790642,
          "velocity": 0.5275590551181102,
          "duration": 0.19767441860462043
        },
        {
          "name": "D7",
          "midi": 98,
          "time": 73.49999999999444,
          "velocity": 0.2125984251968504,
          "duration": 0.09302325581393234
        },
        {
          "name": "C#7",
          "midi": 97,
          "time": 73.52325581394793,
          "velocity": 0.28346456692913385,
          "duration": 0.05813953488370771
        },
        {
          "name": "B3",
          "midi": 59,
          "time": 73.53488372092467,
          "velocity": 0.5039370078740157,
          "duration": 0.05813953488370771
        },
        {
          "name": "B6",
          "midi": 95,
          "time": 73.53488372092467,
          "velocity": 0.14960629921259844,
          "duration": 0.034883720930224626
        },
        {
          "name": "D#7",
          "midi": 99,
          "time": 73.53488372092467,
          "velocity": 0.2440944881889764,
          "duration": 0.04651162790696617
        },
        {
          "name": "A#4",
          "midi": 70,
          "time": 73.55813953487815,
          "velocity": 0.4251968503937008,
          "duration": 0.2558139534883139
        },
        {
          "name": "F#2",
          "midi": 42,
          "time": 73.60465116278512,
          "velocity": 0.4645669291338583,
          "duration": 0.023255813953483084
        },
        {
          "name": "F#4",
          "midi": 66,
          "time": 73.63953488371534,
          "velocity": 0.16535433070866143,
          "duration": 0.20930232558136197
        },
        {
          "name": "D3",
          "midi": 50,
          "time": 73.66279069766883,
          "velocity": 0.5275590551181102,
          "duration": 0.011627906976741542
        },
        {
          "name": "D#3",
          "midi": 51,
          "time": 73.67441860464557,
          "velocity": 0.5196850393700787,
          "duration": 0.023255813953483084
        },
        {
          "name": "D#3",
          "midi": 51,
          "time": 73.70930232557579,
          "velocity": 0.5118110236220472,
          "duration": 0.023255813953483084
        },
        {
          "name": "F#2",
          "midi": 42,
          "time": 73.72093023255253,
          "velocity": 0.48031496062992124,
          "duration": 0.023255813953483084
        },
        {
          "name": "D#3",
          "midi": 51,
          "time": 73.74418604650602,
          "velocity": 0.5118110236220472,
          "duration": 0.023255813953483084
        },
        {
          "name": "F#2",
          "midi": 42,
          "time": 73.7674418604595,
          "velocity": 0.4566929133858268,
          "duration": 0.023255813953483084
        },
        {
          "name": "D#3",
          "midi": 51,
          "time": 73.77906976743624,
          "velocity": 0.5039370078740157,
          "duration": 0.023255813953483084
        },
        {
          "name": "D#6",
          "midi": 87,
          "time": 73.79069767441298,
          "velocity": 0.33070866141732286,
          "duration": 0.081395348837205
        },
        {
          "name": "C#5",
          "midi": 73,
          "time": 73.80232558138972,
          "velocity": 0.12598425196850394,
          "duration": 0.25581395348832814
        },
        {
          "name": "F#5",
          "midi": 78,
          "time": 73.80232558138972,
          "velocity": 0.16535433070866143,
          "duration": 0.09302325581394655
        },
        {
          "name": "F7",
          "midi": 101,
          "time": 73.80232558138972,
          "velocity": 0.2283464566929134,
          "duration": 0.04651162790698038
        },
        {
          "name": "D#3",
          "midi": 51,
          "time": 73.81395348836647,
          "velocity": 0.4881889763779528,
          "duration": 0.081395348837205
        },
        {
          "name": "B3",
          "midi": 59,
          "time": 73.81395348836647,
          "velocity": 0.47244094488188976,
          "duration": 0.081395348837205
        },
        {
          "name": "F#2",
          "midi": 42,
          "time": 73.8488372092967,
          "velocity": 0.44881889763779526,
          "duration": 0.023255813953483084
        },
        {
          "name": "A#4",
          "midi": 70,
          "time": 73.86046511627345,
          "velocity": 0.44881889763779526,
          "duration": 0.488372093023159
        },
        {
          "name": "D#3",
          "midi": 51,
          "time": 73.90697674418041,
          "velocity": 0.47244094488188976,
          "duration": 0.023255813953483084
        },
        {
          "name": "F4",
          "midi": 65,
          "time": 73.90697674418041,
          "velocity": 0.31496062992125984,
          "duration": 0.034883720930224626
        },
        {
          "name": "F#2",
          "midi": 42,
          "time": 73.91860465115715,
          "velocity": 0.44881889763779526,
          "duration": 0.034883720930224626
        },
        {
          "name": "D#5",
          "midi": 75,
          "time": 73.91860465115715,
          "velocity": 0.12598425196850394,
          "duration": 0.10465116279067388
        },
        {
          "name": "D#4",
          "midi": 63,
          "time": 73.9302325581339,
          "velocity": 0.31496062992125984,
          "duration": 0.034883720930224626
        },
        {
          "name": "F4",
          "midi": 65,
          "time": 73.95348837208738,
          "velocity": 0.31496062992125984,
          "duration": 0.023255813953483084
        },
        {
          "name": "C6",
          "midi": 84,
          "time": 73.95348837208738,
          "velocity": 0.12598425196850394,
          "duration": 0.1395348837208985
        },
        {
          "name": "D7",
          "midi": 98,
          "time": 73.9883720930176,
          "velocity": 0.3464566929133858,
          "duration": 0.18604651162787889
        },
        {
          "name": "A#3",
          "midi": 58,
          "time": 73.99999999999434,
          "velocity": 0.3937007874015748,
          "duration": 0.05813953488370771
        },
        {
          "name": "G#6",
          "midi": 92,
          "time": 73.99999999999434,
          "velocity": 0.2047244094488189,
          "duration": 0.034883720930224626
        },
        {
          "name": "A#6",
          "midi": 94,
          "time": 73.99999999999434,
          "velocity": 0.31496062992125984,
          "duration": 0.11627906976741542
        },
        {
          "name": "F#2",
          "midi": 42,
          "time": 74.01162790697109,
          "velocity": 0.4330708661417323,
          "duration": 0.023255813953483084
        },
        {
          "name": "D#3",
          "midi": 51,
          "time": 74.01162790697109,
          "velocity": 0.4409448818897638,
          "duration": 0.023255813953483084
        },
        {
          "name": "F5",
          "midi": 77,
          "time": 74.01162790697109,
          "velocity": 0.07874015748031496,
          "duration": 0.034883720930224626
        },
        {
          "name": "C7",
          "midi": 96,
          "time": 74.01162790697109,
          "velocity": 0.2755905511811024,
          "duration": 0.11627906976741542
        },
        {
          "name": "E7",
          "midi": 100,
          "time": 74.01162790697109,
          "velocity": 0.28346456692913385,
          "duration": 0.023255813953483084
        },
        {
          "name": "F7",
          "midi": 101,
          "time": 74.01162790697109,
          "velocity": 0.25196850393700787,
          "duration": 0.11627906976741542
        },
        {
          "name": "D#7",
          "midi": 99,
          "time": 74.02325581394783,
          "velocity": 0.3543307086614173,
          "duration": 0.0813953488371908
        },
        {
          "name": "B6",
          "midi": 95,
          "time": 74.03488372092457,
          "velocity": 0.2125984251968504,
          "duration": 0.06976744186044925
        },
        {
          "name": "D6",
          "midi": 86,
          "time": 74.04651162790131,
          "velocity": 0.11023622047244094,
          "duration": 0.034883720930224626
        },
        {
          "name": "E6",
          "midi": 88,
          "time": 74.04651162790131,
          "velocity": 0.11811023622047244,
          "duration": 0.034883720930224626
        },
        {
          "name": "F#6",
          "midi": 90,
          "time": 74.04651162790131,
          "velocity": 0.1889763779527559,
          "duration": 0.05813953488370771
        },
        {
          "name": "A6",
          "midi": 93,
          "time": 74.04651162790131,
          "velocity": 0.29133858267716534,
          "duration": 0.06976744186044925
        },
        {
          "name": "C#7",
          "midi": 97,
          "time": 74.04651162790131,
          "velocity": 0.29133858267716534,
          "duration": 0.06976744186044925
        },
        {
          "name": "E7",
          "midi": 100,
          "time": 74.04651162790131,
          "velocity": 0.2283464566929134,
          "duration": 0.06976744186044925
        },
        {
          "name": "F#7",
          "midi": 102,
          "time": 74.04651162790131,
          "velocity": 0.1968503937007874,
          "duration": 0.06976744186044925
        },
        {
          "name": "G7",
          "midi": 103,
          "time": 74.04651162790131,
          "velocity": 0.16535433070866143,
          "duration": 0.06976744186044925
        },
        {
          "name": "D#6",
          "midi": 87,
          "time": 74.05813953487805,
          "velocity": 0.08661417322834646,
          "duration": 0.034883720930224626
        },
        {
          "name": "F6",
          "midi": 89,
          "time": 74.05813953487805,
          "velocity": 0.2283464566929134,
          "duration": 0.1627906976743958
        },
        {
          "name": "F#2",
          "midi": 42,
          "time": 74.08139534883153,
          "velocity": 0.4330708661417323,
          "duration": 0.034883720930224626
        },
        {
          "name": "G6",
          "midi": 91,
          "time": 74.08139534883153,
          "velocity": 0.10236220472440945,
          "duration": 0.034883720930224626
        },
        {
          "name": "G#6",
          "midi": 92,
          "time": 74.08139534883153,
          "velocity": 0.2440944881889764,
          "duration": 0.034883720930224626
        },
        {
          "name": "F4",
          "midi": 65,
          "time": 74.09302325580828,
          "velocity": 0.31496062992125984,
          "duration": 0.034883720930224626
        },
        {
          "name": "D#5",
          "midi": 75,
          "time": 74.10465116278502,
          "velocity": 0.25196850393700787,
          "duration": 0.15116279069765426
        },
        {
          "name": "D#4",
          "midi": 63,
          "time": 74.11627906976176,
          "velocity": 0.33070866141732286,
          "duration": 0.09302325581394655
        },
        {
          "name": "C6",
          "midi": 84,
          "time": 74.11627906976176,
          "velocity": 0.18110236220472442,
          "duration": 0.12790697674417117
        },
        {
          "name": "C#5",
          "midi": 73,
          "time": 74.1279069767385,
          "velocity": 0.18110236220472442,
          "duration": 0.2209302325581035
        },
        {
          "name": "D#3",
          "midi": 51,
          "time": 74.17441860464548,
          "velocity": 0.3937007874015748,
          "duration": 0.023255813953483084
        },
        {
          "name": "G6",
          "midi": 91,
          "time": 74.18604651162222,
          "velocity": 0.12598425196850394,
          "duration": 0.06976744186044925
        },
        {
          "name": "G#5",
          "midi": 80,
          "time": 74.19767441859896,
          "velocity": 0.33858267716535434,
          "duration": 0.05813953488370771
        },
        {
          "name": "F#2",
          "midi": 42,
          "time": 74.2093023255757,
          "velocity": 0.4094488188976378,
          "duration": 0.023255813953483084
        },
        {
          "name": "D#3",
          "midi": 51,
          "time": 74.2093023255757,
          "velocity": 0.3937007874015748,
          "duration": 0.023255813953483084
        },
        {
          "name": "C#6",
          "midi": 85,
          "time": 74.2093023255757,
          "velocity": 0.18110236220472442,
          "duration": 0.05813953488370771
        },
        {
          "name": "F#6",
          "midi": 90,
          "time": 74.2093023255757,
          "velocity": 0.23622047244094488,
          "duration": 0.023255813953483084
        },
        {
          "name": "E7",
          "midi": 100,
          "time": 74.2093023255757,
          "velocity": 0.16535433070866143,
          "duration": 0.04651162790696617
        },
        {
          "name": "F#5",
          "midi": 78,
          "time": 74.22093023255245,
          "velocity": 0.2755905511811024,
          "duration": 0.023255813953483084
        },
        {
          "name": "E6",
          "midi": 88,
          "time": 74.22093023255245,
          "velocity": 0.30708661417322836,
          "duration": 0.04651162790696617
        },
        {
          "name": "F5",
          "midi": 77,
          "time": 74.23255813952919,
          "velocity": 0.2992125984251969,
          "duration": 0.034883720930224626
        },
        {
          "name": "G5",
          "midi": 79,
          "time": 74.23255813952919,
          "velocity": 0.29133858267716534,
          "duration": 0.023255813953483084
        },
        {
          "name": "F#2",
          "midi": 42,
          "time": 74.25581395348267,
          "velocity": 0.3858267716535433,
          "duration": 0.023255813953483084
        },
        {
          "name": "F#4",
          "midi": 66,
          "time": 74.25581395348267,
          "velocity": 0.14960629921259844,
          "duration": 0.034883720930224626
        },
        {
          "name": "F#5",
          "midi": 78,
          "time": 74.25581395348267,
          "velocity": 0.3228346456692913,
          "duration": 0.06976744186044925
        },
        {
          "name": "B5",
          "midi": 83,
          "time": 74.25581395348267,
          "velocity": 0.1968503937007874,
          "duration": 0.05813953488370771
        },
        {
          "name": "D#6",
          "midi": 87,
          "time": 74.25581395348267,
          "velocity": 0.25196850393700787,
          "duration": 0.04651162790696617
        },
        {
          "name": "B3",
          "midi": 59,
          "time": 74.26744186045941,
          "velocity": 0.3464566929133858,
          "duration": 0.023255813953483084
        },
        {
          "name": "D#4",
          "midi": 63,
          "time": 74.26744186045941,
          "velocity": 0.2755905511811024,
          "duration": 0.034883720930224626
        },
        {
          "name": "D7",
          "midi": 98,
          "time": 74.2906976744129,
          "velocity": 0.2047244094488189,
          "duration": 0.0813953488371908
        },
        {
          "name": "B3",
          "midi": 59,
          "time": 74.30232558138964,
          "velocity": 0.5039370078740157,
          "duration": 0.11627906976741542
        },
        {
          "name": "D6",
          "midi": 86,
          "time": 74.30232558138964,
          "velocity": 0.16535433070866143,
          "duration": 0.05813953488370771
        },
        {
          "name": "E7",
          "midi": 100,
          "time": 74.30232558138964,
          "velocity": 0.14960629921259844,
          "duration": 0.04651162790696617
        },
        {
          "name": "D#4",
          "midi": 63,
          "time": 74.31395348836638,
          "velocity": 0.31496062992125984,
          "duration": 0.29069767441855277
        },
        {
          "name": "F#4",
          "midi": 66,
          "time": 74.31395348836638,
          "velocity": 0.30708661417322836,
          "duration": 0.31395348837203585
        },
        {
          "name": "D#3",
          "midi": 51,
          "time": 74.33720930231986,
          "velocity": 0.3543307086614173,
          "duration": 0.023255813953483084
        },
        {
          "name": "A#5",
          "midi": 82,
          "time": 74.3488372092966,
          "velocity": 0.2755905511811024,
          "duration": 0.05813953488370771
        },
        {
          "name": "C#5",
          "midi": 73,
          "time": 74.36046511627335,
          "velocity": 0.12598425196850394,
          "duration": 0.29069767441855277
        },
        {
          "name": "D#6",
          "midi": 87,
          "time": 74.36046511627335,
          "velocity": 0.1968503937007874,
          "duration": 0.034883720930224626
        },
        {
          "name": "F#6",
          "midi": 90,
          "time": 74.36046511627335,
          "velocity": 0.2677165354330709,
          "duration": 0.05813953488370771
        },
        {
          "name": "G2",
          "midi": 43,
          "time": 74.37209302325009,
          "velocity": 0.3779527559055118,
          "duration": 0.023255813953483084
        },
        {
          "name": "D#3",
          "midi": 51,
          "time": 74.37209302325009,
          "velocity": 0.3700787401574803,
          "duration": 0.023255813953483084
        },
        {
          "name": "A#4",
          "midi": 70,
          "time": 74.38372093022683,
          "velocity": 0.4645669291338583,
          "duration": 0.2674418604650697
        },
        {
          "name": "F#2",
          "midi": 42,
          "time": 74.41860465115705,
          "velocity": 0.3464566929133858,
          "duration": 0.023255813953483084
        },
        {
          "name": "F3",
          "midi": 53,
          "time": 74.4302325581338,
          "velocity": 0.36220472440944884,
          "duration": 0.023255813953483084
        },
        {
          "name": "G2",
          "midi": 43,
          "time": 74.49999999999426,
          "velocity": 0.3543307086614173,
          "duration": 0.023255813953483084
        },
        {
          "name": "F#3",
          "midi": 54,
          "time": 74.49999999999426,
          "velocity": 0.2755905511811024,
          "duration": 0.023255813953483084
        },
        {
          "name": "C1",
          "midi": 24,
          "time": 74.54651162790122,
          "velocity": 0.6141732283464567,
          "duration": 0.011627906976741542
        },
        {
          "name": "B0",
          "midi": 23,
          "time": 74.55813953487797,
          "velocity": 0.6141732283464567,
          "duration": 0.11627906976741542
        },
        {
          "name": "D3",
          "midi": 50,
          "time": 74.58139534883145,
          "velocity": 0.33858267716535434,
          "duration": 0.023255813953483084
        },
        {
          "name": "C4",
          "midi": 60,
          "time": 74.61627906976167,
          "velocity": 0.3700787401574803,
          "duration": 0.023255813953483084
        },
        {
          "name": "D#4",
          "midi": 63,
          "time": 74.61627906976167,
          "velocity": 0.41732283464566927,
          "duration": 0.023255813953483084
        },
        {
          "name": "F#4",
          "midi": 66,
          "time": 74.63953488371516,
          "velocity": 0.25196850393700787,
          "duration": 0.09302325581393234
        },
        {
          "name": "F5",
          "midi": 77,
          "time": 74.63953488371516,
          "velocity": 0.3228346456692913,
          "duration": 0.0813953488371908
        },
        {
          "name": "D7",
          "midi": 98,
          "time": 74.63953488371516,
          "velocity": 0.33070866141732286,
          "duration": 0.10465116279067388
        },
        {
          "name": "E7",
          "midi": 100,
          "time": 74.63953488371516,
          "velocity": 0.33070866141732286,
          "duration": 0.1395348837208985
        },
        {
          "name": "D#4",
          "midi": 63,
          "time": 74.6511627906919,
          "velocity": 0.29133858267716534,
          "duration": 0.034883720930224626
        },
        {
          "name": "B4",
          "midi": 71,
          "time": 74.6511627906919,
          "velocity": 0.2755905511811024,
          "duration": 0.023255813953483084
        },
        {
          "name": "G#6",
          "midi": 92,
          "time": 74.6511627906919,
          "velocity": 0.29133858267716534,
          "duration": 0.06976744186044925
        },
        {
          "name": "B6",
          "midi": 95,
          "time": 74.6511627906919,
          "velocity": 0.36220472440944884,
          "duration": 0.19767441860460622
        },
        {
          "name": "C#7",
          "midi": 97,
          "time": 74.6511627906919,
          "velocity": 0.2283464566929134,
          "duration": 0.023255813953483084
        },
        {
          "name": "B3",
          "midi": 59,
          "time": 74.66279069766864,
          "velocity": 0.4251968503937008,
          "duration": 0.023255813953483084
        },
        {
          "name": "C#5",
          "midi": 73,
          "time": 74.66279069766864,
          "velocity": 0.08661417322834646,
          "duration": 0.034883720930224626
        },
        {
          "name": "F7",
          "midi": 101,
          "time": 74.66279069766864,
          "velocity": 0.31496062992125984,
          "duration": 0.10465116279067388
        },
        {
          "name": "C1",
          "midi": 24,
          "time": 74.67441860464538,
          "velocity": 0.5905511811023622,
          "duration": 0.011627906976741542
        },
        {
          "name": "A#4",
          "midi": 70,
          "time": 74.67441860464538,
          "velocity": 0.25984251968503935,
          "duration": 0.034883720930224626
        },
        {
          "name": "C7",
          "midi": 96,
          "time": 74.67441860464538,
          "velocity": 0.2755905511811024,
          "duration": 0.10465116279067388
        },
        {
          "name": "G7",
          "midi": 103,
          "time": 74.67441860464538,
          "velocity": 0.2283464566929134,
          "duration": 0.09302325581393234
        },
        {
          "name": "B0",
          "midi": 23,
          "time": 74.68604651162212,
          "velocity": 0.5826771653543307,
          "duration": 0.26744186046505547
        },
        {
          "name": "A#3",
          "midi": 58,
          "time": 74.68604651162212,
          "velocity": 0.3464566929133858,
          "duration": 0.034883720930224626
        },
        {
          "name": "D6",
          "midi": 86,
          "time": 74.68604651162212,
          "velocity": 0.18110236220472442,
          "duration": 0.034883720930224626
        },
        {
          "name": "F#6",
          "midi": 90,
          "time": 74.68604651162212,
          "velocity": 0.2992125984251969,
          "duration": 0.19767441860460622
        },
        {
          "name": "A#6",
          "midi": 94,
          "time": 74.68604651162212,
          "velocity": 0.30708661417322836,
          "duration": 0.06976744186044925
        },
        {
          "name": "C#7",
          "midi": 97,
          "time": 74.68604651162212,
          "velocity": 0.3464566929133858,
          "duration": 0.15116279069764005
        },
        {
          "name": "D#7",
          "midi": 99,
          "time": 74.68604651162212,
          "velocity": 0.31496062992125984,
          "duration": 0.18604651162786467
        },
        {
          "name": "A5",
          "midi": 81,
          "time": 74.69767441859887,
          "velocity": 0.13385826771653545,
          "duration": 0.034883720930224626
        },
        {
          "name": "B5",
          "midi": 83,
          "time": 74.69767441859887,
          "velocity": 0.28346456692913385,
          "duration": 0.2209302325580893
        },
        {
          "name": "A6",
          "midi": 93,
          "time": 74.69767441859887,
          "velocity": 0.30708661417322836,
          "duration": 0.1627906976743816
        },
        {
          "name": "F3",
          "midi": 53,
          "time": 74.7093023255756,
          "velocity": 0.33858267716535434,
          "duration": 0.18604651162786467
        },
        {
          "name": "B4",
          "midi": 71,
          "time": 74.7093023255756,
          "velocity": 0.4566929133858268,
          "duration": 0.2209302325580893
        },
        {
          "name": "B3",
          "midi": 59,
          "time": 74.72093023255235,
          "velocity": 0.33070866141732286,
          "duration": 0.20930232558134776
        },
        {
          "name": "F#5",
          "midi": 78,
          "time": 74.72093023255235,
          "velocity": 0.28346456692913385,
          "duration": 0.19767441860460622
        },
        {
          "name": "G4",
          "midi": 67,
          "time": 74.73255813952909,
          "velocity": 0.2677165354330709,
          "duration": 0.023255813953483084
        },
        {
          "name": "G#4",
          "midi": 68,
          "time": 74.75581395348257,
          "velocity": 0.2755905511811024,
          "duration": 0.17441860465112313
        },
        {
          "name": "D#6",
          "midi": 87,
          "time": 74.75581395348257,
          "velocity": 0.10236220472440945,
          "duration": 0.034883720930224626
        },
        {
          "name": "F7",
          "midi": 101,
          "time": 74.77906976743606,
          "velocity": 0.2755905511811024,
          "duration": 0.11627906976741542
        },
        {
          "name": "D#6",
          "midi": 87,
          "time": 74.81395348836628,
          "velocity": 0.36220472440944884,
          "duration": 0.3023255813953085
        },
        {
          "name": "F#3",
          "midi": 54,
          "time": 74.91860465115695,
          "velocity": 0.31496062992125984,
          "duration": 0.10465116279068809
        },
        {
          "name": "C#5",
          "midi": 73,
          "time": 74.91860465115695,
          "velocity": 0.13385826771653545,
          "duration": 0.20930232558137618
        },
        {
          "name": "F5",
          "midi": 77,
          "time": 74.91860465115695,
          "velocity": 0.23622047244094488,
          "duration": 0.16279069767441
        },
        {
          "name": "A#5",
          "midi": 82,
          "time": 74.91860465115695,
          "velocity": 0.2992125984251969,
          "duration": 0.1860465116278931
        },
        {
          "name": "A#4",
          "midi": 70,
          "time": 74.9302325581337,
          "velocity": 0.4330708661417323,
          "duration": 0.13953488372092693
        },
        {
          "name": "C1",
          "midi": 24,
          "time": 74.95348837208718,
          "velocity": 0.5275590551181102,
          "duration": 0.011627906976741542
        },
        {
          "name": "A#3",
          "midi": 58,
          "time": 74.95348837208718,
          "velocity": 0.3858267716535433,
          "duration": 0.11627906976744384
        },
        {
          "name": "B0",
          "midi": 23,
          "time": 74.96511627906392,
          "velocity": 0.5196850393700787,
          "duration": 0.36046511627903044
        },
        {
          "name": "G#4",
          "midi": 68,
          "time": 75.0116279069709,
          "velocity": 0.2992125984251969,
          "duration": 0.05813953488372192
        },
        {
          "name": "F#3",
          "midi": 54,
          "time": 75.05813953487788,
          "velocity": 0.30708661417322836,
          "duration": 0.04651162790696617
        },
        {
          "name": "B3",
          "midi": 59,
          "time": 75.06976744185462,
          "velocity": 0.2992125984251969,
          "duration": 0.04651162790696617
        },
        {
          "name": "F#4",
          "midi": 66,
          "time": 75.06976744185462,
          "velocity": 0.33858267716535434,
          "duration": 0.023255813953483084
        },
        {
          "name": "G#4",
          "midi": 68,
          "time": 75.08139534883136,
          "velocity": 0.3543307086614173,
          "duration": 0.023255813953483084
        },
        {
          "name": "F4",
          "midi": 65,
          "time": 75.0930232558081,
          "velocity": 0.41732283464566927,
          "duration": 0.05813953488370771
        },
        {
          "name": "C7",
          "midi": 96,
          "time": 75.0930232558081,
          "velocity": 0.2283464566929134,
          "duration": 0.05813953488370771
        },
        {
          "name": "A6",
          "midi": 93,
          "time": 75.10465116278485,
          "velocity": 0.1889763779527559,
          "duration": 0.034883720930224626
        },
        {
          "name": "D#5",
          "midi": 75,
          "time": 75.11627906976159,
          "velocity": 0.14173228346456693,
          "duration": 0.11627906976741542
        },
        {
          "name": "C6",
          "midi": 84,
          "time": 75.11627906976159,
          "velocity": 0.10236220472440945,
          "duration": 0.12790697674415696
        },
        {
          "name": "G#3",
          "midi": 56,
          "time": 75.13953488371507,
          "velocity": 0.3228346456692913,
          "duration": 0.18604651162787889
        },
        {
          "name": "E4",
          "midi": 64,
          "time": 75.13953488371507,
          "velocity": 0.25196850393700787,
          "duration": 0.023255813953483084
        },
        {
          "name": "A#4",
          "midi": 70,
          "time": 75.1744186046453,
          "velocity": 0.41732283464566927,
          "duration": 0.3720930232557862
        },
        {
          "name": "F6",
          "midi": 89,
          "time": 75.19767441859878,
          "velocity": 0.30708661417322836,
          "duration": 0.10465116279068809
        },
        {
          "name": "F4",
          "midi": 65,
          "time": 75.22093023255226,
          "velocity": 0.09448818897637795,
          "duration": 0.034883720930224626
        },
        {
          "name": "F5",
          "midi": 77,
          "time": 75.22093023255226,
          "velocity": 0.2677165354330709,
          "duration": 0.034883720930224626
        },
        {
          "name": "E4",
          "midi": 64,
          "time": 75.25581395348249,
          "velocity": 0.16535433070866143,
          "duration": 0.03488372093023884
        },
        {
          "name": "D#5",
          "midi": 75,
          "time": 75.25581395348249,
          "velocity": 0.2440944881889764,
          "duration": 0.06976744186046346
        },
        {
          "name": "F#5",
          "midi": 78,
          "time": 75.25581395348249,
          "velocity": 0.29133858267716534,
          "duration": 0.081395348837205
        },
        {
          "name": "C1",
          "midi": 24,
          "time": 75.32558139534295,
          "velocity": 0.25984251968503935,
          "duration": 0.023255813953483084
        },
        {
          "name": "F6",
          "midi": 89,
          "time": 75.32558139534295,
          "velocity": 0.2204724409448819,
          "duration": 0.4302325581394939
        },
        {
          "name": "F4",
          "midi": 65,
          "time": 75.33720930231969,
          "velocity": 0.13385826771653545,
          "duration": 0.034883720930224626
        },
        {
          "name": "F5",
          "midi": 77,
          "time": 75.33720930231969,
          "velocity": 0.18110236220472442,
          "duration": 0.13953488372092693
        },
        {
          "name": "A#3",
          "midi": 58,
          "time": 75.34883720929643,
          "velocity": 0.4409448818897638,
          "duration": 0.23255813953487348
        },
        {
          "name": "F#5",
          "midi": 78,
          "time": 75.47674418604062,
          "velocity": 0.4015748031496063,
          "duration": 0.09302325581394655
        },
        {
          "name": "C#6",
          "midi": 85,
          "time": 75.47674418604062,
          "velocity": 0.2283464566929134,
          "duration": 0.081395348837205
        },
        {
          "name": "F#4",
          "midi": 66,
          "time": 75.48837209301736,
          "velocity": 0.3543307086614173,
          "duration": 0.05813953488372192
        },
        {
          "name": "D6",
          "midi": 86,
          "time": 75.48837209301736,
          "velocity": 0.07874015748031496,
          "duration": 0.04651162790698038
        },
        {
          "name": "F4",
          "midi": 65,
          "time": 75.53488372092434,
          "velocity": 0.2677165354330709,
          "duration": 0.023255813953483084
        },
        {
          "name": "F#1",
          "midi": 30,
          "time": 75.54651162790108,
          "velocity": 0.6141732283464567,
          "duration": 0.011627906976741542
        },
        {
          "name": "G#4",
          "midi": 68,
          "time": 75.54651162790108,
          "velocity": 0.3543307086614173,
          "duration": 0.39534883720925507
        },
        {
          "name": "B4",
          "midi": 71,
          "time": 75.54651162790108,
          "velocity": 0.2440944881889764,
          "duration": 0.023255813953483084
        },
        {
          "name": "F1",
          "midi": 29,
          "time": 75.55813953487782,
          "velocity": 0.7007874015748031,
          "duration": 0.011627906976741542
        },
        {
          "name": "D3",
          "midi": 50,
          "time": 75.55813953487782,
          "velocity": 0.41732283464566927,
          "duration": 0.023255813953483084
        },
        {
          "name": "F5",
          "midi": 77,
          "time": 75.55813953487782,
          "velocity": 0.3700787401574803,
          "duration": 0.05813953488372192
        },
        {
          "name": "D#6",
          "midi": 87,
          "time": 75.55813953487782,
          "velocity": 0.12598425196850394,
          "duration": 0.523255813953412
        },
        {
          "name": "E1",
          "midi": 28,
          "time": 75.56976744185457,
          "velocity": 0.7165354330708661,
          "duration": 0.011627906976741542
        },
        {
          "name": "G3",
          "midi": 55,
          "time": 75.56976744185457,
          "velocity": 0.5118110236220472,
          "duration": 0.49999999999992895
        },
        {
          "name": "C#6",
          "midi": 85,
          "time": 75.56976744185457,
          "velocity": 0.2677165354330709,
          "duration": 0.081395348837205
        },
        {
          "name": "D#1",
          "midi": 27,
          "time": 75.58139534883131,
          "velocity": 0.7480314960629921,
          "duration": 0.49999999999992895
        },
        {
          "name": "D#4",
          "midi": 63,
          "time": 75.58139534883131,
          "velocity": 0.1968503937007874,
          "duration": 0.03488372093023884
        },
        {
          "name": "A#2",
          "midi": 46,
          "time": 75.61627906976155,
          "velocity": 0.44881889763779526,
          "duration": 0.25581395348834235
        },
        {
          "name": "F#5",
          "midi": 78,
          "time": 75.61627906976155,
          "velocity": 0.3700787401574803,
          "duration": 0.023255813953483084
        },
        {
          "name": "A#4",
          "midi": 70,
          "time": 75.62790697673829,
          "velocity": 0.15748031496062992,
          "duration": 0.04651162790696617
        },
        {
          "name": "F5",
          "midi": 77,
          "time": 75.62790697673829,
          "velocity": 0.5196850393700787,
          "duration": 0.25581395348834235
        },
        {
          "name": "C7",
          "midi": 96,
          "time": 75.63953488371503,
          "velocity": 0.07874015748031496,
          "duration": 0.034883720930224626
        },
        {
          "name": "D#4",
          "midi": 63,
          "time": 75.67441860464525,
          "velocity": 0.15748031496062992,
          "duration": 0.0813953488371908
        },
        {
          "name": "A#4",
          "midi": 70,
          "time": 75.686046511622,
          "velocity": 0.12598425196850394,
          "duration": 0.04651162790696617
        },
        {
          "name": "C6",
          "midi": 84,
          "time": 75.70930232557548,
          "velocity": 0.15748031496062992,
          "duration": 0.05813953488370771
        },
        {
          "name": "F4",
          "midi": 65,
          "time": 75.7441860465057,
          "velocity": 0.1732283464566929,
          "duration": 0.09302325581394655
        },
        {
          "name": "A#4",
          "midi": 70,
          "time": 75.7441860465057,
          "velocity": 0.12598425196850394,
          "duration": 0.081395348837205
        },
        {
          "name": "D#4",
          "midi": 63,
          "time": 75.83720930231965,
          "velocity": 0.07874015748031496,
          "duration": 0.03488372093023884
        },
        {
          "name": "A#2",
          "midi": 46,
          "time": 75.88372093022663,
          "velocity": 0.4409448818897638,
          "duration": 0.0813953488371908
        },
        {
          "name": "F#6",
          "midi": 90,
          "time": 75.90697674418011,
          "velocity": 0.25196850393700787,
          "duration": 0.05813953488370771
        },
        {
          "name": "C#6",
          "midi": 85,
          "time": 75.91860465115685,
          "velocity": 0.2440944881889764,
          "duration": 0.15116279069764005
        },
        {
          "name": "A#4",
          "midi": 70,
          "time": 75.94186046511034,
          "velocity": 0.2992125984251969,
          "duration": 0.023255813953483084
        },
        {
          "name": "F#5",
          "midi": 78,
          "time": 75.94186046511034,
          "velocity": 0.33858267716535434,
          "duration": 0.12790697674415696
        },
        {
          "name": "D7",
          "midi": 98,
          "time": 75.94186046511034,
          "velocity": 0.2677165354330709,
          "duration": 0.09302325581393234
        },
        {
          "name": "D#7",
          "midi": 99,
          "time": 75.94186046511034,
          "velocity": 0.2283464566929134,
          "duration": 0.05813953488370771
        },
        {
          "name": "E7",
          "midi": 100,
          "time": 75.94186046511034,
          "velocity": 0.3543307086614173,
          "duration": 0.10465116279067388
        },
        {
          "name": "G#4",
          "midi": 68,
          "time": 75.95348837208708,
          "velocity": 0.49606299212598426,
          "duration": 0.06976744186044925
        },
        {
          "name": "C7",
          "midi": 96,
          "time": 75.95348837208708,
          "velocity": 0.2440944881889764,
          "duration": 0.04651162790696617
        },
        {
          "name": "C#7",
          "midi": 97,
          "time": 75.95348837208708,
          "velocity": 0.33070866141732286,
          "duration": 0.06976744186044925
        },
        {
          "name": "F7",
          "midi": 101,
          "time": 75.95348837208708,
          "velocity": 0.12598425196850394,
          "duration": 0.04651162790696617
        },
        {
          "name": "B6",
          "midi": 95,
          "time": 75.96511627906382,
          "velocity": 0.10236220472440945,
          "duration": 0.05813953488370771
        },
        {
          "name": "A#2",
          "midi": 46,
          "time": 75.97674418604056,
          "velocity": 0.4330708661417323,
          "duration": 0.10465116279067388
        },
        {
          "name": "C4",
          "midi": 60,
          "time": 75.97674418604056,
          "velocity": 0.33070866141732286,
          "duration": 0.023255813953483084
        },
        {
          "name": "F#7",
          "midi": 102,
          "time": 75.97674418604056,
          "velocity": 0.18110236220472442,
          "duration": 0.04651162790696617
        },
        {
          "name": "A#4",
          "midi": 70,
          "time": 75.99999999999405,
          "velocity": 0.4881889763779528,
          "duration": 0.023255813953483084
        },
        {
          "name": "C7",
          "midi": 96,
          "time": 76.01162790697079,
          "velocity": 0.28346456692913385,
          "duration": 0.023255813953483084
        },
        {
          "name": "B4",
          "midi": 71,
          "time": 76.02325581394753,
          "velocity": 0.4409448818897638,
          "duration": 0.05813953488370771
        },
        {
          "name": "G#4",
          "midi": 68,
          "time": 76.03488372092427,
          "velocity": 0.30708661417322836,
          "duration": 0.05813953488370771
        },
        {
          "name": "F5",
          "midi": 77,
          "time": 76.03488372092427,
          "velocity": 0.44881889763779526,
          "duration": 0.17441860465112313
        },
        {
          "name": "A#3",
          "midi": 58,
          "time": 76.05813953487775,
          "velocity": 0.5039370078740157,
          "duration": 0.09302325581393234
        },
        {
          "name": "D1",
          "midi": 26,
          "time": 76.08139534883124,
          "velocity": 0.7086614173228346,
          "duration": 0.011627906976741542
        },
        {
          "name": "F3",
          "midi": 53,
          "time": 76.08139534883124,
          "velocity": 0.4409448818897638,
          "duration": 0.023255813953483084
        },
        {
          "name": "C#1",
          "midi": 25,
          "time": 76.09302325580798,
          "velocity": 0.6929133858267716,
          "duration": 0.023255813953483084
        },
        {
          "name": "G#2",
          "midi": 44,
          "time": 76.09302325580798,
          "velocity": 0.4409448818897638,
          "duration": 0.023255813953483084
        },
        {
          "name": "F#4",
          "midi": 66,
          "time": 76.09302325580798,
          "velocity": 0.28346456692913385,
          "duration": 0.023255813953483084
        },
        {
          "name": "A4",
          "midi": 69,
          "time": 76.09302325580798,
          "velocity": 0.3543307086614173,
          "duration": 0.023255813953483084
        },
        {
          "name": "C6",
          "midi": 84,
          "time": 76.09302325580798,
          "velocity": 0.2204724409448819,
          "duration": 0.0813953488371908
        },
        {
          "name": "D#7",
          "midi": 99,
          "time": 76.09302325580798,
          "velocity": 0.14960629921259844,
          "duration": 0.034883720930224626
        },
        {
          "name": "G#4",
          "midi": 68,
          "time": 76.10465116278472,
          "velocity": 0.36220472440944884,
          "duration": 0.023255813953483084
        },
        {
          "name": "C1",
          "midi": 24,
          "time": 76.11627906976146,
          "velocity": 0.6850393700787402,
          "duration": 0.023255813953483084
        },
        {
          "name": "A#6",
          "midi": 94,
          "time": 76.11627906976146,
          "velocity": 0.16535433070866143,
          "duration": 0.034883720930224626
        },
        {
          "name": "E7",
          "midi": 100,
          "time": 76.1279069767382,
          "velocity": 0.25196850393700787,
          "duration": 0.034883720930224626
        },
        {
          "name": "A#0",
          "midi": 22,
          "time": 76.13953488371494,
          "velocity": 0.6850393700787402,
          "duration": 0.011627906976741542
        },
        {
          "name": "F#4",
          "midi": 66,
          "time": 76.13953488371494,
          "velocity": 0.3779527559055118,
          "duration": 0.023255813953483084
        },
        {
          "name": "A0",
          "midi": 21,
          "time": 76.15116279069169,
          "velocity": 0.6929133858267716,
          "duration": 0.023255813953483084
        },
        {
          "name": "G#0",
          "midi": 20,
          "time": 76.17441860464517,
          "velocity": 0.6850393700787402,
          "duration": 0.011627906976741542
        },
        {
          "name": "G0",
          "midi": 19,
          "time": 76.18604651162191,
          "velocity": 0.6929133858267716,
          "duration": 0.011627906976741542
        },
        {
          "name": "A4",
          "midi": 69,
          "time": 76.18604651162191,
          "velocity": 0.09448818897637795,
          "duration": 0.034883720930224626
        },
        {
          "name": "F#0",
          "midi": 18,
          "time": 76.19767441859865,
          "velocity": 0.6850393700787402,
          "duration": 0.011627906976741542
        },
        {
          "name": "C#4",
          "midi": 61,
          "time": 76.19767441859865,
          "velocity": 0.3858267716535433,
          "duration": 0.023255813953483084
        },
        {
          "name": "F0",
          "midi": 17,
          "time": 76.2093023255754,
          "velocity": 0.6850393700787402,
          "duration": 0.011627906976741542
        },
        {
          "name": "F7",
          "midi": 101,
          "time": 76.2093023255754,
          "velocity": 0.23622047244094488,
          "duration": 0.10465116279067388
        },
        {
          "name": "E0",
          "midi": 16,
          "time": 76.22093023255213,
          "velocity": 0.6850393700787402,
          "duration": 0.011627906976741542
        },
        {
          "name": "G7",
          "midi": 103,
          "time": 76.22093023255213,
          "velocity": 0.2755905511811024,
          "duration": 0.034883720930224626
        },
        {
          "name": "D#0",
          "midi": 15,
          "time": 76.23255813952888,
          "velocity": 0.6692913385826772,
          "duration": 0.011627906976741542
        },
        {
          "name": "G3",
          "midi": 55,
          "time": 76.23255813952888,
          "velocity": 0.3700787401574803,
          "duration": 0.034883720930224626
        },
        {
          "name": "D#7",
          "midi": 99,
          "time": 76.23255813952888,
          "velocity": 0.23622047244094488,
          "duration": 0.0813953488371908
        },
        {
          "name": "F#7",
          "midi": 102,
          "time": 76.23255813952888,
          "velocity": 0.3464566929133858,
          "duration": 0.06976744186044925
        },
        {
          "name": "D0",
          "midi": 14,
          "time": 76.24418604650562,
          "velocity": 0.6850393700787402,
          "duration": 0.011627906976741542
        },
        {
          "name": "E4",
          "midi": 64,
          "time": 76.24418604650562,
          "velocity": 0.11811023622047244,
          "duration": 0.05813953488370771
        },
        {
          "name": "E7",
          "midi": 100,
          "time": 76.24418604650562,
          "velocity": 0.2047244094488189,
          "duration": 0.05813953488370771
        },
        {
          "name": "B-1",
          "midi": 11,
          "time": 76.25581395348236,
          "velocity": 0.6377952755905512,
          "duration": 0.011627906976741542
        },
        {
          "name": "A#-1",
          "midi": 10,
          "time": 76.2674418604591,
          "velocity": 0.6850393700787402,
          "duration": 0.023255813953483084
        },
        {
          "name": "D3",
          "midi": 50,
          "time": 76.2674418604591,
          "velocity": 0.4094488188976378,
          "duration": 0.034883720930224626
        },
        {
          "name": "C5",
          "midi": 72,
          "time": 76.2674418604591,
          "velocity": 0.1889763779527559,
          "duration": 0.04651162790696617
        },
        {
          "name": "C#7",
          "midi": 97,
          "time": 76.2674418604591,
          "velocity": 0.10236220472440945,
          "duration": 0.034883720930224626
        },
        {
          "name": "D7",
          "midi": 98,
          "time": 76.2674418604591,
          "velocity": 0.1732283464566929,
          "duration": 0.034883720930224626
        },
        {
          "name": "F5",
          "midi": 77,
          "time": 76.27906976743584,
          "velocity": 0.1889763779527559,
          "duration": 0.05813953488370771
        },
        {
          "name": "F#6",
          "midi": 90,
          "time": 76.27906976743584,
          "velocity": 0.14173228346456693,
          "duration": 0.04651162790696617
        },
        {
          "name": "G#6",
          "midi": 92,
          "time": 76.27906976743584,
          "velocity": 0.2283464566929134,
          "duration": 0.034883720930224626
        },
        {
          "name": "A#6",
          "midi": 94,
          "time": 76.27906976743584,
          "velocity": 0.18110236220472442,
          "duration": 0.034883720930224626
        },
        {
          "name": "C7",
          "midi": 96,
          "time": 76.27906976743584,
          "velocity": 0.1968503937007874,
          "duration": 0.034883720930224626
        },
        {
          "name": "G#-1",
          "midi": 8,
          "time": 76.29069767441258,
          "velocity": 0.5984251968503937,
          "duration": 0.011627906976741542
        },
        {
          "name": "G#4",
          "midi": 68,
          "time": 76.29069767441258,
          "velocity": 0.1732283464566929,
          "duration": 0.034883720930224626
        },
        {
          "name": "C#3",
          "midi": 49,
          "time": 76.30232558138933,
          "velocity": 0.2283464566929134,
          "duration": 0.023255813953483084
        },
        {
          "name": "D#0",
          "midi": 15,
          "time": 76.31395348836607,
          "velocity": 0.6062992125984252,
          "duration": 0.011627906976741542
        },
        {
          "name": "C#4",
          "midi": 61,
          "time": 76.31395348836607,
          "velocity": 0.5511811023622047,
          "duration": 0.04651162790696617
        },
        {
          "name": "G7",
          "midi": 103,
          "time": 76.32558139534281,
          "velocity": 0.2125984251968504,
          "duration": 0.15116279069764005
        },
        {
          "name": "B4",
          "midi": 71,
          "time": 76.33720930231955,
          "velocity": 0.4330708661417323,
          "duration": 0.034883720930224626
        },
        {
          "name": "F#7",
          "midi": 102,
          "time": 76.33720930231955,
          "velocity": 0.1889763779527559,
          "duration": 0.05813953488370771
        },
        {
          "name": "C#-1",
          "midi": 1,
          "time": 76.34883720929629,
          "velocity": 0.5826771653543307,
          "duration": 0.011627906976741542
        },
        {
          "name": "D-1",
          "midi": 2,
          "time": 76.36046511627303,
          "velocity": 0.5433070866141733,
          "duration": 0.011627906976741542
        },
        {
          "name": "D6",
          "midi": 86,
          "time": 76.36046511627303,
          "velocity": 0.2047244094488189,
          "duration": 0.034883720930224626
        },
        {
          "name": "A#-1",
          "midi": 10,
          "time": 76.37209302324978,
          "velocity": 0.5984251968503937,
          "duration": 0.011627906976741542
        },
        {
          "name": "A#4",
          "midi": 70,
          "time": 76.37209302324978,
          "velocity": 0.4015748031496063,
          "duration": 0.023255813953483084
        },
        {
          "name": "F5",
          "midi": 77,
          "time": 76.37209302324978,
          "velocity": 0.09448818897637795,
          "duration": 0.06976744186044925
        },
        {
          "name": "A-1",
          "midi": 9,
          "time": 76.38372093022652,
          "velocity": 0.6692913385826772,
          "duration": 0.011627906976741542
        },
        {
          "name": "C4",
          "midi": 60,
          "time": 76.38372093022652,
          "velocity": 0.33858267716535434,
          "duration": 0.023255813953483084
        },
        {
          "name": "D#6",
          "midi": 87,
          "time": 76.38372093022652,
          "velocity": 0.1732283464566929,
          "duration": 0.4534883720929628
        },
        {
          "name": "D1",
          "midi": 26,
          "time": 76.39534883720326,
          "velocity": 0.6456692913385826,
          "duration": 0.011627906976741542
        },
        {
          "name": "G3",
          "midi": 55,
          "time": 76.39534883720326,
          "velocity": 0.3464566929133858,
          "duration": 0.023255813953483084
        },
        {
          "name": "G#4",
          "midi": 68,
          "time": 76.39534883720326,
          "velocity": 0.30708661417322836,
          "duration": 0.20930232558136197
        },
        {
          "name": "C#5",
          "midi": 73,
          "time": 76.39534883720326,
          "velocity": 0.44881889763779526,
          "duration": 0.034883720930224626
        },
        {
          "name": "B6",
          "midi": 95,
          "time": 76.39534883720326,
          "velocity": 0.2992125984251969,
          "duration": 0.06976744186044925
        },
        {
          "name": "E7",
          "midi": 100,
          "time": 76.39534883720326,
          "velocity": 0.2440944881889764,
          "duration": 0.09302325581393234
        },
        {
          "name": "F7",
          "midi": 101,
          "time": 76.39534883720326,
          "velocity": 0.29133858267716534,
          "duration": 0.0813953488371908
        },
        {
          "name": "D#1",
          "midi": 27,
          "time": 76.40697674418,
          "velocity": 0.6377952755905512,
          "duration": 0.41860465116273815
        },
        {
          "name": "F6",
          "midi": 89,
          "time": 76.40697674418,
          "velocity": 0.1968503937007874,
          "duration": 0.05813953488370771
        },
        {
          "name": "F#6",
          "midi": 90,
          "time": 76.40697674418,
          "velocity": 0.2440944881889764,
          "duration": 0.034883720930224626
        },
        {
          "name": "A#6",
          "midi": 94,
          "time": 76.40697674418,
          "velocity": 0.2992125984251969,
          "duration": 0.06976744186044925
        },
        {
          "name": "C7",
          "midi": 96,
          "time": 76.40697674418,
          "velocity": 0.2992125984251969,
          "duration": 0.09302325581393234
        },
        {
          "name": "C#7",
          "midi": 97,
          "time": 76.40697674418,
          "velocity": 0.2992125984251969,
          "duration": 0.06976744186044925
        },
        {
          "name": "D7",
          "midi": 98,
          "time": 76.40697674418,
          "velocity": 0.33858267716535434,
          "duration": 0.0813953488371908
        },
        {
          "name": "D#7",
          "midi": 99,
          "time": 76.40697674418,
          "velocity": 0.2755905511811024,
          "duration": 0.06976744186044925
        },
        {
          "name": "A6",
          "midi": 93,
          "time": 76.41860465115674,
          "velocity": 0.28346456692913385,
          "duration": 0.034883720930224626
        },
        {
          "name": "A#3",
          "midi": 58,
          "time": 76.43023255813348,
          "velocity": 0.3858267716535433,
          "duration": 0.034883720930224626
        },
        {
          "name": "G#6",
          "midi": 92,
          "time": 76.43023255813348,
          "velocity": 0.2755905511811024,
          "duration": 0.05813953488370771
        },
        {
          "name": "B4",
          "midi": 71,
          "time": 76.44186046511022,
          "velocity": 0.5039370078740157,
          "duration": 0.04651162790696617
        },
        {
          "name": "F#5",
          "midi": 78,
          "time": 76.44186046511022,
          "velocity": 0.31496062992125984,
          "duration": 0.05813953488370771
        },
        {
          "name": "D#3",
          "midi": 51,
          "time": 76.45348837208697,
          "velocity": 0.31496062992125984,
          "duration": 0.04651162790696617
        },
        {
          "name": "G3",
          "midi": 55,
          "time": 76.45348837208697,
          "velocity": 0.29133858267716534,
          "duration": 0.04651162790696617
        },
        {
          "name": "A#4",
          "midi": 70,
          "time": 76.48837209301719,
          "velocity": 0.4251968503937008,
          "duration": 0.4883720930231874
        },
        {
          "name": "F5",
          "midi": 77,
          "time": 76.49999999999393,
          "velocity": 0.25984251968503935,
          "duration": 0.33720930232554736
        },
        {
          "name": "D#3",
          "midi": 51,
          "time": 76.53488372092417,
          "velocity": 0.4015748031496063,
          "duration": 0.3023255813953085
        },
        {
          "name": "A#3",
          "midi": 58,
          "time": 76.55813953487765,
          "velocity": 0.4881889763779528,
          "duration": 0.023255813953483084
        },
        {
          "name": "B6",
          "midi": 95,
          "time": 76.55813953487765,
          "velocity": 0.2047244094488189,
          "duration": 0.04651162790696617
        },
        {
          "name": "A6",
          "midi": 93,
          "time": 76.5697674418544,
          "velocity": 0.1968503937007874,
          "duration": 0.04651162790696617
        },
        {
          "name": "B3",
          "midi": 59,
          "time": 76.58139534883114,
          "velocity": 0.48031496062992124,
          "duration": 0.023255813953483084
        },
        {
          "name": "E7",
          "midi": 100,
          "time": 76.59302325580788,
          "velocity": 0.12598425196850394,
          "duration": 0.034883720930224626
        },
        {
          "name": "A#3",
          "midi": 58,
          "time": 76.60465116278462,
          "velocity": 0.3464566929133858,
          "duration": 0.023255813953483084
        },
        {
          "name": "G#4",
          "midi": 68,
          "time": 76.61627906976136,
          "velocity": 0.33858267716535434,
          "duration": 0.20930232558137618
        },
        {
          "name": "A#3",
          "midi": 58,
          "time": 76.63953488371484,
          "velocity": 0.3937007874015748,
          "duration": 0.03488372093023884
        },
        {
          "name": "A#3",
          "midi": 58,
          "time": 76.68604651162183,
          "velocity": 0.2992125984251969,
          "duration": 0.023255813953483084
        },
        {
          "name": "A3",
          "midi": 57,
          "time": 76.70930232557531,
          "velocity": 0.3543307086614173,
          "duration": 0.023255813953483084
        },
        {
          "name": "C4",
          "midi": 60,
          "time": 76.77906976743577,
          "velocity": 0.4645669291338583,
          "duration": 0.023255813953483084
        },
        {
          "name": "A6",
          "midi": 93,
          "time": 76.77906976743577,
          "velocity": 0.1968503937007874,
          "duration": 0.04651162790696617
        },
        {
          "name": "B6",
          "midi": 95,
          "time": 76.77906976743577,
          "velocity": 0.3543307086614173,
          "duration": 0.05813953488370771
        },
        {
          "name": "C#7",
          "midi": 97,
          "time": 76.77906976743577,
          "velocity": 0.18110236220472442,
          "duration": 0.05813953488370771
        },
        {
          "name": "D#7",
          "midi": 99,
          "time": 76.77906976743577,
          "velocity": 0.28346456692913385,
          "duration": 0.05813953488370771
        },
        {
          "name": "B3",
          "midi": 59,
          "time": 76.80232558138925,
          "velocity": 0.4645669291338583,
          "duration": 0.034883720930224626
        },
        {
          "name": "E7",
          "midi": 100,
          "time": 76.80232558138925,
          "velocity": 0.11811023622047244,
          "duration": 0.06976744186044925
        },
        {
          "name": "C1",
          "midi": 24,
          "time": 76.82558139534274,
          "velocity": 0.6299212598425197,
          "duration": 0.023255813953483084
        },
        {
          "name": "G4",
          "midi": 67,
          "time": 76.82558139534274,
          "velocity": 0.2204724409448819,
          "duration": 0.04651162790696617
        },
        {
          "name": "F#5",
          "midi": 78,
          "time": 76.82558139534274,
          "velocity": 0.15748031496062992,
          "duration": 0.0813953488371908
        },
        {
          "name": "G#6",
          "midi": 92,
          "time": 76.82558139534274,
          "velocity": 0.11023622047244094,
          "duration": 0.034883720930224626
        },
        {
          "name": "D#4",
          "midi": 63,
          "time": 76.83720930231948,
          "velocity": 0.31496062992125984,
          "duration": 0.3604651162789878
        },
        {
          "name": "F6",
          "midi": 89,
          "time": 76.83720930231948,
          "velocity": 0.3228346456692913,
          "duration": 0.3255813953487632
        },
        {
          "name": "D1",
          "midi": 26,
          "time": 76.84883720929622,
          "velocity": 0.6771653543307087,
          "duration": 0.011627906976741542
        },
        {
          "name": "A2",
          "midi": 45,
          "time": 76.84883720929622,
          "velocity": 0.47244094488188976,
          "duration": 0.023255813953483084
        },
        {
          "name": "C#5",
          "midi": 73,
          "time": 76.84883720929622,
          "velocity": 0.14960629921259844,
          "duration": 0.12790697674415696
        },
        {
          "name": "C#1",
          "midi": 25,
          "time": 76.86046511627296,
          "velocity": 0.7007874015748031,
          "duration": 0.011627906976741542
        },
        {
          "name": "B0",
          "midi": 23,
          "time": 76.8720930232497,
          "velocity": 0.7165354330708661,
          "duration": 0.04651162790696617
        },
        {
          "name": "F#3",
          "midi": 54,
          "time": 76.8720930232497,
          "velocity": 0.5196850393700787,
          "duration": 0.023255813953483084
        },
        {
          "name": "F3",
          "midi": 53,
          "time": 76.90697674417993,
          "velocity": 0.5039370078740157,
          "duration": 0.023255813953483084
        },
        {
          "name": "A#0",
          "midi": 22,
          "time": 76.91860465115667,
          "velocity": 0.7086614173228346,
          "duration": 0.011627906976741542
        },
        {
          "name": "B0",
          "midi": 23,
          "time": 76.93023255813341,
          "velocity": 0.7322834645669292,
          "duration": 0.11627906976741542
        },
        {
          "name": "F2",
          "midi": 41,
          "time": 76.94186046511015,
          "velocity": 0.4566929133858268,
          "duration": 0.023255813953483084
        },
        {
          "name": "D#3",
          "midi": 51,
          "time": 76.9534883720869,
          "velocity": 0.4881889763779528,
          "duration": 0.023255813953483084
        },
        {
          "name": "A#3",
          "midi": 58,
          "time": 76.96511627906364,
          "velocity": 0.4251968503937008,
          "duration": 0.04651162790696617
        },
        {
          "name": "D6",
          "midi": 86,
          "time": 76.96511627906364,
          "velocity": 0.29133858267716534,
          "duration": 0.11627906976741542
        },
        {
          "name": "D3",
          "midi": 50,
          "time": 76.97674418604038,
          "velocity": 0.5118110236220472,
          "duration": 0.011627906976741542
        },
        {
          "name": "B4",
          "midi": 71,
          "time": 76.97674418604038,
          "velocity": 0.4881889763779528,
          "duration": 0.034883720930224626
        },
        {
          "name": "F5",
          "midi": 77,
          "time": 76.97674418604038,
          "velocity": 0.4015748031496063,
          "duration": 0.15116279069764005
        },
        {
          "name": "D#3",
          "midi": 51,
          "time": 76.98837209301712,
          "velocity": 0.5118110236220472,
          "duration": 0.05813953488370771
        },
        {
          "name": "G#6",
          "midi": 92,
          "time": 76.98837209301712,
          "velocity": 0.29133858267716534,
          "duration": 0.19767441860460622
        },
        {
          "name": "C7",
          "midi": 96,
          "time": 76.98837209301712,
          "velocity": 0.13385826771653545,
          "duration": 0.1395348837208985
        },
        {
          "name": "A#4",
          "midi": 70,
          "time": 77.0116279069706,
          "velocity": 0.4645669291338583,
          "duration": 0.360465116279002
        },
        {
          "name": "C#5",
          "midi": 73,
          "time": 77.0116279069706,
          "velocity": 0.16535433070866143,
          "duration": 0.2209302325580893
        },
        {
          "name": "F#2",
          "midi": 42,
          "time": 77.02325581394734,
          "velocity": 0.4409448818897638,
          "duration": 0.023255813953483084
        },
        {
          "name": "A#3",
          "midi": 58,
          "time": 77.02325581394734,
          "velocity": 0.3228346456692913,
          "duration": 0.034883720930224626
        },
        {
          "name": "A#0",
          "midi": 22,
          "time": 77.04651162790083,
          "velocity": 0.7244094488188977,
          "duration": 0.011627906976741542
        },
        {
          "name": "E3",
          "midi": 52,
          "time": 77.04651162790083,
          "velocity": 0.5118110236220472,
          "duration": 0.011627906976741542
        },
        {
          "name": "B0",
          "midi": 23,
          "time": 77.05813953487757,
          "velocity": 0.7244094488188977,
          "duration": 1.081395348837006
        },
        {
          "name": "E7",
          "midi": 100,
          "time": 77.06976744185431,
          "velocity": 0.10236220472440945,
          "duration": 0.06976744186044925
        },
        {
          "name": "D#3",
          "midi": 51,
          "time": 77.08139534883105,
          "velocity": 0.5196850393700787,
          "duration": 0.3023255813952943
        },
        {
          "name": "G6",
          "midi": 91,
          "time": 77.0930232558078,
          "velocity": 0.2755905511811024,
          "duration": 0.17441860465112313
        },
        {
          "name": "A6",
          "midi": 93,
          "time": 77.0930232558078,
          "velocity": 0.16535433070866143,
          "duration": 0.0813953488371908
        },
        {
          "name": "F#6",
          "midi": 90,
          "time": 77.10465116278453,
          "velocity": 0.2283464566929134,
          "duration": 0.12790697674415696
        },
        {
          "name": "B6",
          "midi": 95,
          "time": 77.10465116278453,
          "velocity": 0.08661417322834646,
          "duration": 0.04651162790696617
        },
        {
          "name": "C#7",
          "midi": 97,
          "time": 77.10465116278453,
          "velocity": 0.11811023622047244,
          "duration": 0.0813953488371908
        },
        {
          "name": "G#5",
          "midi": 80,
          "time": 77.11627906976128,
          "velocity": 0.2677165354330709,
          "duration": 0.12790697674415696
        },
        {
          "name": "F#5",
          "midi": 78,
          "time": 77.12790697673802,
          "velocity": 0.30708661417322836,
          "duration": 0.10465116279067388
        },
        {
          "name": "D7",
          "midi": 98,
          "time": 77.13953488371476,
          "velocity": 0.14173228346456693,
          "duration": 0.11627906976741542
        },
        {
          "name": "C6",
          "midi": 84,
          "time": 77.1511627906915,
          "velocity": 0.3543307086614173,
          "duration": 0.15116279069764005
        },
        {
          "name": "D#6",
          "midi": 87,
          "time": 77.1511627906915,
          "velocity": 0.2755905511811024,
          "duration": 0.10465116279067388
        },
        {
          "name": "E6",
          "midi": 88,
          "time": 77.1511627906915,
          "velocity": 0.2283464566929134,
          "duration": 0.034883720930224626
        },
        {
          "name": "F#4",
          "midi": 66,
          "time": 77.16279069766824,
          "velocity": 0.07086614173228346,
          "duration": 0.0813953488371908
        },
        {
          "name": "F6",
          "midi": 89,
          "time": 77.17441860464498,
          "velocity": 0.2992125984251969,
          "duration": 0.034883720930224626
        },
        {
          "name": "E7",
          "midi": 100,
          "time": 77.18604651162173,
          "velocity": 0.12598425196850394,
          "duration": 0.034883720930224626
        },
        {
          "name": "E6",
          "midi": 88,
          "time": 77.19767441859847,
          "velocity": 0.33858267716535434,
          "duration": 0.05813953488370771
        },
        {
          "name": "C#6",
          "midi": 85,
          "time": 77.20930232557521,
          "velocity": 0.18110236220472442,
          "duration": 0.034883720930224626
        },
        {
          "name": "F6",
          "midi": 89,
          "time": 77.22093023255195,
          "velocity": 0.11023622047244094,
          "duration": 0.05813953488370771
        },
        {
          "name": "D6",
          "midi": 86,
          "time": 77.23255813952869,
          "velocity": 0.25984251968503935,
          "duration": 0.06976744186044925
        },
        {
          "name": "E5",
          "midi": 76,
          "time": 77.24418604650543,
          "velocity": 0.2992125984251969,
          "duration": 0.023255813953483084
        },
        {
          "name": "G5",
          "midi": 79,
          "time": 77.24418604650543,
          "velocity": 0.29133858267716534,
          "duration": 0.023255813953483084
        },
        {
          "name": "A#3",
          "midi": 58,
          "time": 77.25581395348217,
          "velocity": 0.3228346456692913,
          "duration": 0.05813953488370771
        },
        {
          "name": "C#4",
          "midi": 61,
          "time": 77.25581395348217,
          "velocity": 0.25984251968503935,
          "duration": 0.023255813953483084
        },
        {
          "name": "F5",
          "midi": 77,
          "time": 77.26744186045892,
          "velocity": 0.36220472440944884,
          "duration": 0.034883720930224626
        },
        {
          "name": "B5",
          "midi": 83,
          "time": 77.2906976744124,
          "velocity": 0.4015748031496063,
          "duration": 0.10465116279068809
        },
        {
          "name": "F#5",
          "midi": 78,
          "time": 77.30232558138914,
          "velocity": 0.4251968503937008,
          "duration": 0.11627906976742963
        },
        {
          "name": "F6",
          "midi": 89,
          "time": 77.30232558138914,
          "velocity": 0.30708661417322836,
          "duration": 0.8488372093021752
        },
        {
          "name": "B3",
          "midi": 59,
          "time": 77.31395348836588,
          "velocity": 0.3937007874015748,
          "duration": 0.081395348837205
        },
        {
          "name": "F#2",
          "midi": 42,
          "time": 77.34883720929612,
          "velocity": 0.4330708661417323,
          "duration": 0.023255813953483084
        },
        {
          "name": "A#5",
          "midi": 82,
          "time": 77.3720930232496,
          "velocity": 0.16535433070866143,
          "duration": 0.09302325581393234
        },
        {
          "name": "A#4",
          "midi": 70,
          "time": 77.38372093022635,
          "velocity": 0.44881889763779526,
          "duration": 0.4418604651161786
        },
        {
          "name": "D#3",
          "midi": 51,
          "time": 77.39534883720309,
          "velocity": 0.4645669291338583,
          "duration": 0.0813953488371908
        },
        {
          "name": "A#3",
          "midi": 58,
          "time": 77.39534883720309,
          "velocity": 0.4881889763779528,
          "duration": 0.1395348837208985
        },
        {
          "name": "F5",
          "midi": 77,
          "time": 77.40697674417983,
          "velocity": 0.2125984251968504,
          "duration": 0.12790697674415696
        },
        {
          "name": "C6",
          "midi": 84,
          "time": 77.43023255813331,
          "velocity": 0.08661417322834646,
          "duration": 0.04651162790696617
        },
        {
          "name": "D#7",
          "midi": 99,
          "time": 77.43023255813331,
          "velocity": 0.13385826771653545,
          "duration": 0.034883720930224626
        },
        {
          "name": "F4",
          "midi": 65,
          "time": 77.44186046511005,
          "velocity": 0.30708661417322836,
          "duration": 0.034883720930224626
        },
        {
          "name": "E7",
          "midi": 100,
          "time": 77.46511627906354,
          "velocity": 0.29133858267716534,
          "duration": 0.04651162790696617
        },
        {
          "name": "A6",
          "midi": 93,
          "time": 77.47674418604028,
          "velocity": 0.2677165354330709,
          "duration": 0.04651162790696617
        },
        {
          "name": "A#6",
          "midi": 94,
          "time": 77.47674418604028,
          "velocity": 0.29133858267716534,
          "duration": 0.11627906976741542
        },
        {
          "name": "B6",
          "midi": 95,
          "time": 77.47674418604028,
          "velocity": 0.25196850393700787,
          "duration": 0.034883720930224626
        },
        {
          "name": "C7",
          "midi": 96,
          "time": 77.47674418604028,
          "velocity": 0.2755905511811024,
          "duration": 0.0813953488371908
        },
        {
          "name": "D7",
          "midi": 98,
          "time": 77.47674418604028,
          "velocity": 0.2992125984251969,
          "duration": 0.17441860465112313
        },
        {
          "name": "F#7",
          "midi": 102,
          "time": 77.47674418604028,
          "velocity": 0.18110236220472442,
          "duration": 0.0813953488371908
        },
        {
          "name": "G7",
          "midi": 103,
          "time": 77.47674418604028,
          "velocity": 0.14173228346456693,
          "duration": 0.0813953488371908
        },
        {
          "name": "D#3",
          "midi": 51,
          "time": 77.48837209301702,
          "velocity": 0.4251968503937008,
          "duration": 0.023255813953483084
        },
        {
          "name": "D6",
          "midi": 86,
          "time": 77.48837209301702,
          "velocity": 0.07874015748031496,
          "duration": 0.034883720930224626
        },
        {
          "name": "F#6",
          "midi": 90,
          "time": 77.48837209301702,
          "velocity": 0.2047244094488189,
          "duration": 0.04651162790696617
        },
        {
          "name": "C#7",
          "midi": 97,
          "time": 77.48837209301702,
          "velocity": 0.28346456692913385,
          "duration": 0.0813953488371908
        },
        {
          "name": "D#7",
          "midi": 99,
          "time": 77.48837209301702,
          "velocity": 0.33070866141732286,
          "duration": 0.0813953488371908
        },
        {
          "name": "F#2",
          "midi": 42,
          "time": 77.5116279069705,
          "velocity": 0.41732283464566927,
          "duration": 0.023255813953483084
        },
        {
          "name": "G#6",
          "midi": 92,
          "time": 77.5116279069705,
          "velocity": 0.23622047244094488,
          "duration": 0.023255813953483084
        },
        {
          "name": "F4",
          "midi": 65,
          "time": 77.52325581394724,
          "velocity": 0.31496062992125984,
          "duration": 0.034883720930224626
        },
        {
          "name": "G6",
          "midi": 91,
          "time": 77.52325581394724,
          "velocity": 0.07874015748031496,
          "duration": 0.0813953488371908
        },
        {
          "name": "E7",
          "midi": 100,
          "time": 77.52325581394724,
          "velocity": 0.2677165354330709,
          "duration": 0.18604651162786467
        },
        {
          "name": "A6",
          "midi": 93,
          "time": 77.53488372092399,
          "velocity": 0.13385826771653545,
          "duration": 0.034883720930224626
        },
        {
          "name": "C4",
          "midi": 60,
          "time": 77.54651162790073,
          "velocity": 0.2440944881889764,
          "duration": 0.023255813953483084
        },
        {
          "name": "D#4",
          "midi": 63,
          "time": 77.54651162790073,
          "velocity": 0.3779527559055118,
          "duration": 0.034883720930224626
        },
        {
          "name": "F#5",
          "midi": 78,
          "time": 77.54651162790073,
          "velocity": 0.2125984251968504,
          "duration": 0.05813953488370771
        },
        {
          "name": "D#3",
          "midi": 51,
          "time": 77.56976744185421,
          "velocity": 0.4094488188976378,
          "duration": 0.034883720930224626
        },
        {
          "name": "F4",
          "midi": 65,
          "time": 77.56976744185421,
          "velocity": 0.30708661417322836,
          "duration": 0.04651162790696617
        },
        {
          "name": "E5",
          "midi": 76,
          "time": 77.58139534883095,
          "velocity": 0.1732283464566929,
          "duration": 0.034883720930224626
        },
        {
          "name": "D#4",
          "midi": 63,
          "time": 77.60465116278444,
          "velocity": 0.33858267716535434,
          "duration": 0.05813953488370771
        },
        {
          "name": "F#6",
          "midi": 90,
          "time": 77.60465116278444,
          "velocity": 0.2047244094488189,
          "duration": 0.034883720930224626
        },
        {
          "name": "D#3",
          "midi": 51,
          "time": 77.61627906976118,
          "velocity": 0.4094488188976378,
          "duration": 0.023255813953483084
        },
        {
          "name": "F#5",
          "midi": 78,
          "time": 77.61627906976118,
          "velocity": 0.31496062992125984,
          "duration": 0.023255813953483084
        },
        {
          "name": "G#5",
          "midi": 80,
          "time": 77.61627906976118,
          "velocity": 0.23622047244094488,
          "duration": 0.04651162790696617
        },
        {
          "name": "B5",
          "midi": 83,
          "time": 77.61627906976118,
          "velocity": 0.12598425196850394,
          "duration": 0.034883720930224626
        },
        {
          "name": "C#6",
          "midi": 85,
          "time": 77.62790697673792,
          "velocity": 0.2755905511811024,
          "duration": 0.11627906976741542
        },
        {
          "name": "D#6",
          "midi": 87,
          "time": 77.62790697673792,
          "velocity": 0.16535433070866143,
          "duration": 0.034883720930224626
        },
        {
          "name": "G6",
          "midi": 91,
          "time": 77.62790697673792,
          "velocity": 0.11811023622047244,
          "duration": 0.04651162790696617
        },
        {
          "name": "C#5",
          "midi": 73,
          "time": 77.63953488371466,
          "velocity": 0.1732283464566929,
          "duration": 0.04651162790696617
        },
        {
          "name": "F5",
          "midi": 77,
          "time": 77.63953488371466,
          "velocity": 0.31496062992125984,
          "duration": 0.034883720930224626
        },
        {
          "name": "G5",
          "midi": 79,
          "time": 77.63953488371466,
          "velocity": 0.2992125984251969,
          "duration": 0.06976744186044925
        },
        {
          "name": "E6",
          "midi": 88,
          "time": 77.63953488371466,
          "velocity": 0.3543307086614173,
          "duration": 0.0813953488371908
        },
        {
          "name": "F4",
          "midi": 65,
          "time": 77.6511627906914,
          "velocity": 0.25984251968503935,
          "duration": 0.04651162790696617
        },
        {
          "name": "C6",
          "midi": 84,
          "time": 77.6511627906914,
          "velocity": 0.1889763779527559,
          "duration": 0.034883720930224626
        },
        {
          "name": "A#3",
          "midi": 58,
          "time": 77.66279069766814,
          "velocity": 0.29133858267716534,
          "duration": 0.04651162790696617
        },
        {
          "name": "D6",
          "midi": 86,
          "time": 77.66279069766814,
          "velocity": 0.2283464566929134,
          "duration": 0.04651162790696617
        },
        {
          "name": "F#5",
          "midi": 78,
          "time": 77.67441860464488,
          "velocity": 0.33858267716535434,
          "duration": 0.05813953488370771
        },
        {
          "name": "B5",
          "midi": 83,
          "time": 77.67441860464488,
          "velocity": 0.18110236220472442,
          "duration": 0.05813953488370771
        },
        {
          "name": "G2",
          "midi": 43,
          "time": 77.68604651162163,
          "velocity": 0.36220472440944884,
          "duration": 0.023255813953483084
        },
        {
          "name": "D#5",
          "midi": 75,
          "time": 77.68604651162163,
          "velocity": 0.25196850393700787,
          "duration": 0.04651162790696617
        },
        {
          "name": "A5",
          "midi": 81,
          "time": 77.68604651162163,
          "velocity": 0.2283464566929134,
          "duration": 0.06976744186044925
        },
        {
          "name": "D#4",
          "midi": 63,
          "time": 77.69767441859837,
          "velocity": 0.28346456692913385,
          "duration": 0.023255813953483084
        },
        {
          "name": "F#4",
          "midi": 66,
          "time": 77.69767441859837,
          "velocity": 0.1968503937007874,
          "duration": 0.034883720930224626
        },
        {
          "name": "D#6",
          "midi": 87,
          "time": 77.69767441859837,
          "velocity": 0.3543307086614173,
          "duration": 0.034883720930224626
        },
        {
          "name": "B3",
          "midi": 59,
          "time": 77.70930232557511,
          "velocity": 0.30708661417322836,
          "duration": 0.034883720930224626
        },
        {
          "name": "C6",
          "midi": 84,
          "time": 77.73255813952859,
          "velocity": 0.2283464566929134,
          "duration": 0.023255813953483084
        },
        {
          "name": "E3",
          "midi": 52,
          "time": 77.74418604650533,
          "velocity": 0.3779527559055118,
          "duration": 0.023255813953483084
        },
        {
          "name": "A#3",
          "midi": 58,
          "time": 77.74418604650533,
          "velocity": 0.4015748031496063,
          "duration": 0.023255813953483084
        },
        {
          "name": "D#4",
          "midi": 63,
          "time": 77.74418604650533,
          "velocity": 0.3700787401574803,
          "duration": 0.290697674418567
        },
        {
          "name": "F#4",
          "midi": 66,
          "time": 77.74418604650533,
          "velocity": 0.3779527559055118,
          "duration": 0.25581395348834235
        },
        {
          "name": "C#5",
          "midi": 73,
          "time": 77.74418604650533,
          "velocity": 0.14960629921259844,
          "duration": 0.31395348837205006
        },
        {
          "name": "B5",
          "midi": 83,
          "time": 77.74418604650533,
          "velocity": 0.18110236220472442,
          "duration": 0.05813953488370771
        },
        {
          "name": "C#7",
          "midi": 97,
          "time": 77.74418604650533,
          "velocity": 0.11811023622047244,
          "duration": 0.05813953488370771
        },
        {
          "name": "D#6",
          "midi": 87,
          "time": 77.75581395348208,
          "velocity": 0.14960629921259844,
          "duration": 0.05813953488370771
        },
        {
          "name": "B3",
          "midi": 59,
          "time": 77.76744186045882,
          "velocity": 0.4409448818897638,
          "duration": 0.04651162790696617
        },
        {
          "name": "E3",
          "midi": 52,
          "time": 77.77906976743556,
          "velocity": 0.3779527559055118,
          "duration": 0.023255813953483084
        },
        {
          "name": "F5",
          "midi": 77,
          "time": 77.80232558138904,
          "velocity": 0.1889763779527559,
          "duration": 0.034883720930224626
        },
        {
          "name": "A#3",
          "midi": 58,
          "time": 77.81395348836578,
          "velocity": 0.4251968503937008,
          "duration": 0.023255813953483084
        },
        {
          "name": "B4",
          "midi": 71,
          "time": 77.82558139534252,
          "velocity": 0.4330708661417323,
          "duration": 0.11627906976742963
        },
        {
          "name": "F#2",
          "midi": 42,
          "time": 77.83720930231927,
          "velocity": 0.3543307086614173,
          "duration": 0.023255813953483084
        },
        {
          "name": "B3",
          "midi": 59,
          "time": 77.83720930231927,
          "velocity": 0.3779527559055118,
          "duration": 0.09302325581394655
        },
        {
          "name": "A#5",
          "midi": 82,
          "time": 77.87209302324949,
          "velocity": 0.14173228346456693,
          "duration": 0.081395348837205
        },
        {
          "name": "C4",
          "midi": 60,
          "time": 77.93023255813321,
          "velocity": 0.31496062992125984,
          "duration": 0.023255813953483084
        },
        {
          "name": "A#4",
          "midi": 70,
          "time": 77.94186046510995,
          "velocity": 0.4015748031496063,
          "duration": 0.17441860465113734
        },
        {
          "name": "F#2",
          "midi": 42,
          "time": 77.99999999999368,
          "velocity": 0.30708661417322836,
          "duration": 0.023255813953483084
        },
        {
          "name": "E6",
          "midi": 88,
          "time": 78.01162790697042,
          "velocity": 0.08661417322834646,
          "duration": 0.034883720930224626
        },
        {
          "name": "F#3",
          "midi": 54,
          "time": 78.02325581394716,
          "velocity": 0.3543307086614173,
          "duration": 0.023255813953483084
        },
        {
          "name": "C#4",
          "midi": 61,
          "time": 78.0348837209239,
          "velocity": 0.3779527559055118,
          "duration": 0.04651162790696617
        },
        {
          "name": "F#4",
          "midi": 66,
          "time": 78.04651162790064,
          "velocity": 0.4251968503937008,
          "duration": 0.04651162790696617
        },
        {
          "name": "B5",
          "midi": 83,
          "time": 78.04651162790064,
          "velocity": 0.25196850393700787,
          "duration": 0.023255813953483084
        },
        {
          "name": "C#6",
          "midi": 85,
          "time": 78.04651162790064,
          "velocity": 0.23622047244094488,
          "duration": 0.04651162790696617
        },
        {
          "name": "F#3",
          "midi": 54,
          "time": 78.05813953487738,
          "velocity": 0.33858267716535434,
          "duration": 0.04651162790696617
        },
        {
          "name": "A6",
          "midi": 93,
          "time": 78.05813953487738,
          "velocity": 0.07874015748031496,
          "duration": 0.04651162790696617
        },
        {
          "name": "D6",
          "midi": 86,
          "time": 78.06976744185413,
          "velocity": 0.15748031496062992,
          "duration": 0.034883720930224626
        },
        {
          "name": "E6",
          "midi": 88,
          "time": 78.06976744185413,
          "velocity": 0.3228346456692913,
          "duration": 0.09302325581393234
        },
        {
          "name": "C5",
          "midi": 72,
          "time": 78.08139534883087,
          "velocity": 0.3228346456692913,
          "duration": 0.023255813953483084
        },
        {
          "name": "G#6",
          "midi": 92,
          "time": 78.08139534883087,
          "velocity": 0.10236220472440945,
          "duration": 0.04651162790696617
        },
        {
          "name": "A#6",
          "midi": 94,
          "time": 78.08139534883087,
          "velocity": 0.2992125984251969,
          "duration": 0.10465116279067388
        },
        {
          "name": "C#5",
          "midi": 73,
          "time": 78.09302325580761,
          "velocity": 0.2440944881889764,
          "duration": 0.023255813953483084
        },
        {
          "name": "D#5",
          "midi": 75,
          "time": 78.09302325580761,
          "velocity": 0.2125984251968504,
          "duration": 0.05813953488370771
        },
        {
          "name": "F#6",
          "midi": 90,
          "time": 78.09302325580761,
          "velocity": 0.2283464566929134,
          "duration": 0.30232558139532273
        },
        {
          "name": "C4",
          "midi": 60,
          "time": 78.10465116278435,
          "velocity": 0.2992125984251969,
          "duration": 0.023255813953483084
        },
        {
          "name": "F#4",
          "midi": 66,
          "time": 78.10465116278435,
          "velocity": 0.30708661417322836,
          "duration": 0.023255813953483084
        },
        {
          "name": "B4",
          "midi": 71,
          "time": 78.10465116278435,
          "velocity": 0.44881889763779526,
          "duration": 0.31395348837206427
        },
        {
          "name": "G6",
          "midi": 91,
          "time": 78.10465116278435,
          "velocity": 0.3779527559055118,
          "duration": 0.034883720930224626
        },
        {
          "name": "B6",
          "midi": 95,
          "time": 78.10465116278435,
          "velocity": 0.3464566929133858,
          "duration": 0.23255813953485927
        },
        {
          "name": "G3",
          "midi": 55,
          "time": 78.11627906976109,
          "velocity": 0.30708661417322836,
          "duration": 0.023255813953483084
        },
        {
          "name": "D6",
          "midi": 86,
          "time": 78.11627906976109,
          "velocity": 0.13385826771653545,
          "duration": 0.05813953488370771
        },
        {
          "name": "A6",
          "midi": 93,
          "time": 78.11627906976109,
          "velocity": 0.2992125984251969,
          "duration": 0.23255813953485927
        },
        {
          "name": "D7",
          "midi": 98,
          "time": 78.11627906976109,
          "velocity": 0.33858267716535434,
          "duration": 0.05813953488370771
        },
        {
          "name": "B3",
          "midi": 59,
          "time": 78.12790697673783,
          "velocity": 0.25196850393700787,
          "duration": 0.19767441860463464
        },
        {
          "name": "C#5",
          "midi": 73,
          "time": 78.12790697673783,
          "velocity": 0.2047244094488189,
          "duration": 0.19767441860463464
        },
        {
          "name": "A#5",
          "midi": 82,
          "time": 78.12790697673783,
          "velocity": 0.11023622047244094,
          "duration": 0.034883720930224626
        },
        {
          "name": "C7",
          "midi": 96,
          "time": 78.12790697673783,
          "velocity": 0.2992125984251969,
          "duration": 0.05813953488370771
        },
        {
          "name": "C#7",
          "midi": 97,
          "time": 78.12790697673783,
          "velocity": 0.31496062992125984,
          "duration": 0.1860465116278931
        },
        {
          "name": "D#7",
          "midi": 99,
          "time": 78.12790697673783,
          "velocity": 0.2992125984251969,
          "duration": 0.23255813953485927
        },
        {
          "name": "C1",
          "midi": 24,
          "time": 78.13953488371457,
          "velocity": 0.5669291338582677,
          "duration": 0.011627906976741542
        },
        {
          "name": "F#3",
          "midi": 54,
          "time": 78.13953488371457,
          "velocity": 0.33070866141732286,
          "duration": 0.1860465116278931
        },
        {
          "name": "G#6",
          "midi": 92,
          "time": 78.13953488371457,
          "velocity": 0.33858267716535434,
          "duration": 0.034883720930224626
        },
        {
          "name": "A#0",
          "midi": 22,
          "time": 78.15116279069132,
          "velocity": 0.5748031496062992,
          "duration": 0.011627906976741542
        },
        {
          "name": "G6",
          "midi": 91,
          "time": 78.15116279069132,
          "velocity": 0.14960629921259844,
          "duration": 0.034883720930224626
        },
        {
          "name": "B0",
          "midi": 23,
          "time": 78.16279069766806,
          "velocity": 0.5826771653543307,
          "duration": 0.04651162790696617
        },
        {
          "name": "G4",
          "midi": 67,
          "time": 78.16279069766806,
          "velocity": 0.25196850393700787,
          "duration": 0.023255813953483084
        },
        {
          "name": "G#4",
          "midi": 68,
          "time": 78.18604651162154,
          "velocity": 0.2755905511811024,
          "duration": 0.24418604651161502
        },
        {
          "name": "C1",
          "midi": 24,
          "time": 78.20930232557502,
          "velocity": 0.5748031496062992,
          "duration": 0.011627906976741542
        },
        {
          "name": "D#6",
          "midi": 87,
          "time": 78.20930232557502,
          "velocity": 0.15748031496062992,
          "duration": 0.04651162790698038
        },
        {
          "name": "B0",
          "midi": 23,
          "time": 78.22093023255177,
          "velocity": 0.5669291338582677,
          "duration": 0.27906976744183964
        },
        {
          "name": "E7",
          "midi": 100,
          "time": 78.22093023255177,
          "velocity": 0.1889763779527559,
          "duration": 0.1046511627907023
        },
        {
          "name": "D#6",
          "midi": 87,
          "time": 78.27906976743549,
          "velocity": 0.31496062992125984,
          "duration": 0.25581395348834235
        },
        {
          "name": "F7",
          "midi": 101,
          "time": 78.32558139534247,
          "velocity": 0.16535433070866143,
          "duration": 0.081395348837205
        },
        {
          "name": "B3",
          "midi": 59,
          "time": 78.33720930231921,
          "velocity": 0.2204724409448819,
          "duration": 0.081395348837205
        },
        {
          "name": "F3",
          "midi": 53,
          "time": 78.34883720929595,
          "velocity": 0.33070866141732286,
          "duration": 0.1627906976743958
        },
        {
          "name": "D6",
          "midi": 86,
          "time": 78.40697674417967,
          "velocity": 0.3228346456692913,
          "duration": 0.05813953488370771
        },
        {
          "name": "A#3",
          "midi": 58,
          "time": 78.41860465115641,
          "velocity": 0.2440944881889764,
          "duration": 0.0813953488371908
        },
        {
          "name": "A#4",
          "midi": 70,
          "time": 78.41860465115641,
          "velocity": 0.48031496062992124,
          "duration": 0.09302325581393234
        },
        {
          "name": "F5",
          "midi": 77,
          "time": 78.41860465115641,
          "velocity": 0.5118110236220472,
          "duration": 0.3837209302324851
        },
        {
          "name": "G#4",
          "midi": 68,
          "time": 78.4418604651099,
          "velocity": 0.2755905511811024,
          "duration": 0.023255813953483084
        },
        {
          "name": "G#4",
          "midi": 68,
          "time": 78.48837209301686,
          "velocity": 0.5748031496062992,
          "duration": 0.05813953488370771
        },
        {
          "name": "A6",
          "midi": 93,
          "time": 78.48837209301686,
          "velocity": 0.15748031496062992,
          "duration": 0.034883720930224626
        },
        {
          "name": "C#7",
          "midi": 97,
          "time": 78.48837209301686,
          "velocity": 0.2755905511811024,
          "duration": 0.06976744186044925
        },
        {
          "name": "D7",
          "midi": 98,
          "time": 78.48837209301686,
          "velocity": 0.25196850393700787,
          "duration": 0.10465116279067388
        },
        {
          "name": "F7",
          "midi": 101,
          "time": 78.48837209301686,
          "velocity": 0.16535433070866143,
          "duration": 0.05813953488370771
        },
        {
          "name": "B3",
          "midi": 59,
          "time": 78.4999999999936,
          "velocity": 0.23622047244094488,
          "duration": 0.023255813953483084
        },
        {
          "name": "C6",
          "midi": 84,
          "time": 78.4999999999936,
          "velocity": 0.14173228346456693,
          "duration": 0.034883720930224626
        },
        {
          "name": "C7",
          "midi": 96,
          "time": 78.4999999999936,
          "velocity": 0.3464566929133858,
          "duration": 0.15116279069764005
        },
        {
          "name": "G7",
          "midi": 103,
          "time": 78.4999999999936,
          "velocity": 0.11811023622047244,
          "duration": 0.05813953488370771
        },
        {
          "name": "B0",
          "midi": 23,
          "time": 78.51162790697035,
          "velocity": 0.4566929133858268,
          "duration": 0.034883720930224626
        },
        {
          "name": "B6",
          "midi": 95,
          "time": 78.51162790697035,
          "velocity": 0.2755905511811024,
          "duration": 0.034883720930224626
        },
        {
          "name": "F3",
          "midi": 53,
          "time": 78.52325581394709,
          "velocity": 0.2755905511811024,
          "duration": 0.023255813953483084
        },
        {
          "name": "A#3",
          "midi": 58,
          "time": 78.52325581394709,
          "velocity": 0.25196850393700787,
          "duration": 0.023255813953483084
        },
        {
          "name": "G5",
          "midi": 79,
          "time": 78.52325581394709,
          "velocity": 0.2283464566929134,
          "duration": 0.04651162790696617
        },
        {
          "name": "D4",
          "midi": 62,
          "time": 78.53488372092383,
          "velocity": 0.25984251968503935,
          "duration": 0.023255813953483084
        },
        {
          "name": "D3",
          "midi": 50,
          "time": 78.54651162790057,
          "velocity": 0.3228346456692913,
          "duration": 0.023255813953483084
        },
        {
          "name": "G4",
          "midi": 67,
          "time": 78.54651162790057,
          "velocity": 0.3937007874015748,
          "duration": 0.023255813953483084
        },
        {
          "name": "A#4",
          "midi": 70,
          "time": 78.54651162790057,
          "velocity": 0.5433070866141733,
          "duration": 0.05813953488370771
        },
        {
          "name": "G#5",
          "midi": 80,
          "time": 78.54651162790057,
          "velocity": 0.2755905511811024,
          "duration": 0.034883720930224626
        },
        {
          "name": "B0",
          "midi": 23,
          "time": 78.55813953487731,
          "velocity": 0.4330708661417323,
          "duration": 0.06976744186044925
        },
        {
          "name": "A#3",
          "midi": 58,
          "time": 78.55813953487731,
          "velocity": 0.23622047244094488,
          "duration": 0.034883720930224626
        },
        {
          "name": "D#3",
          "midi": 51,
          "time": 78.56976744185405,
          "velocity": 0.33858267716535434,
          "duration": 0.18604651162787889
        },
        {
          "name": "D4",
          "midi": 62,
          "time": 78.56976744185405,
          "velocity": 0.25196850393700787,
          "duration": 0.05813953488370771
        },
        {
          "name": "A3",
          "midi": 57,
          "time": 78.59302325580754,
          "velocity": 0.33070866141732286,
          "duration": 0.023255813953483084
        },
        {
          "name": "C5",
          "midi": 72,
          "time": 78.59302325580754,
          "velocity": 0.1889763779527559,
          "duration": 0.034883720930224626
        },
        {
          "name": "G#5",
          "midi": 80,
          "time": 78.59302325580754,
          "velocity": 0.29133858267716534,
          "duration": 0.09302325581393234
        },
        {
          "name": "D#7",
          "midi": 99,
          "time": 78.59302325580754,
          "velocity": 0.07086614173228346,
          "duration": 0.034883720930224626
        },
        {
          "name": "A#3",
          "midi": 58,
          "time": 78.61627906976102,
          "velocity": 0.4645669291338583,
          "duration": 0.04651162790696617
        },
        {
          "name": "G#4",
          "midi": 68,
          "time": 78.61627906976102,
          "velocity": 0.28346456692913385,
          "duration": 0.034883720930224626
        },
        {
          "name": "D#5",
          "midi": 75,
          "time": 78.62790697673776,
          "velocity": 0.13385826771653545,
          "duration": 0.04651162790696617
        },
        {
          "name": "B0",
          "midi": 23,
          "time": 78.6395348837145,
          "velocity": 0.3858267716535433,
          "duration": 0.15116279069765426
        },
        {
          "name": "C#5",
          "midi": 73,
          "time": 78.65116279069125,
          "velocity": 0.14960629921259844,
          "duration": 0.034883720930224626
        },
        {
          "name": "D#7",
          "midi": 99,
          "time": 78.65116279069125,
          "velocity": 0.13385826771653545,
          "duration": 0.10465116279068809
        },
        {
          "name": "A3",
          "midi": 57,
          "time": 78.66279069766799,
          "velocity": 0.4881889763779528,
          "duration": 0.023255813953483084
        },
        {
          "name": "C#6",
          "midi": 85,
          "time": 78.66279069766799,
          "velocity": 0.2283464566929134,
          "duration": 0.023255813953483084
        },
        {
          "name": "A#3",
          "midi": 58,
          "time": 78.68604651162147,
          "velocity": 0.44881889763779526,
          "duration": 0.09302325581394655
        },
        {
          "name": "E4",
          "midi": 64,
          "time": 78.68604651162147,
          "velocity": 0.2204724409448819,
          "duration": 0.04651162790698038
        },
        {
          "name": "D6",
          "midi": 86,
          "time": 78.68604651162147,
          "velocity": 0.3700787401574803,
          "duration": 0.11627906976742963
        },
        {
          "name": "G#6",
          "midi": 92,
          "time": 78.72093023255171,
          "velocity": 0.13385826771653545,
          "duration": 0.04651162790696617
        },
        {
          "name": "F4",
          "midi": 65,
          "time": 78.76744186045867,
          "velocity": 0.13385826771653545,
          "duration": 0.034883720930224626
        },
        {
          "name": "C#3",
          "midi": 49,
          "time": 78.79069767441216,
          "velocity": 0.33858267716535434,
          "duration": 0.0813953488371908
        },
        {
          "name": "F5",
          "midi": 77,
          "time": 78.81395348836564,
          "velocity": 0.4409448818897638,
          "duration": 0.523255813953412
        },
        {
          "name": "F4",
          "midi": 65,
          "time": 78.82558139534238,
          "velocity": 0.11811023622047244,
          "duration": 0.034883720930224626
        },
        {
          "name": "G#4",
          "midi": 68,
          "time": 78.84883720929587,
          "velocity": 0.5590551181102362,
          "duration": 0.15116279069765426
        },
        {
          "name": "C#3",
          "midi": 49,
          "time": 78.88372093022609,
          "velocity": 0.3779527559055118,
          "duration": 0.09302325581394655
        },
        {
          "name": "G3",
          "midi": 55,
          "time": 78.91860465115633,
          "velocity": 0.3700787401574803,
          "duration": 0.023255813953483084
        },
        {
          "name": "B5",
          "midi": 83,
          "time": 78.91860465115633,
          "velocity": 0.18110236220472442,
          "duration": 0.034883720930224626
        },
        {
          "name": "D6",
          "midi": 86,
          "time": 78.91860465115633,
          "velocity": 0.2992125984251969,
          "duration": 0.023255813953483084
        },
        {
          "name": "C7",
          "midi": 96,
          "time": 78.91860465115633,
          "velocity": 0.2755905511811024,
          "duration": 0.11627906976741542
        },
        {
          "name": "G#6",
          "midi": 92,
          "time": 78.93023255813307,
          "velocity": 0.2440944881889764,
          "duration": 0.12790697674415696
        },
        {
          "name": "A6",
          "midi": 93,
          "time": 78.93023255813307,
          "velocity": 0.10236220472440945,
          "duration": 0.034883720930224626
        },
        {
          "name": "G#3",
          "midi": 56,
          "time": 78.94186046510981,
          "velocity": 0.2992125984251969,
          "duration": 0.023255813953483084
        },
        {
          "name": "A#4",
          "midi": 70,
          "time": 78.94186046510981,
          "velocity": 0.2440944881889764,
          "duration": 0.023255813953483084
        },
        {
          "name": "D#5",
          "midi": 75,
          "time": 78.94186046510981,
          "velocity": 0.4015748031496063,
          "duration": 0.11627906976741542
        },
        {
          "name": "F#6",
          "midi": 90,
          "time": 78.94186046510981,
          "velocity": 0.3700787401574803,
          "duration": 0.06976744186044925
        },
        {
          "name": "D7",
          "midi": 98,
          "time": 78.9651162790633,
          "velocity": 0.13385826771653545,
          "duration": 0.10465116279067388
        },
        {
          "name": "G1",
          "midi": 31,
          "time": 78.97674418604004,
          "velocity": 0.5511811023622047,
          "duration": 0.011627906976741542
        },
        {
          "name": "C3",
          "midi": 48,
          "time": 78.97674418604004,
          "velocity": 0.3937007874015748,
          "duration": 0.023255813953483084
        },
        {
          "name": "A#3",
          "midi": 58,
          "time": 78.97674418604004,
          "velocity": 0.4881889763779528,
          "duration": 0.06976744186044925
        },
        {
          "name": "D4",
          "midi": 62,
          "time": 78.97674418604004,
          "velocity": 0.2755905511811024,
          "duration": 0.023255813953483084
        },
        {
          "name": "F#1",
          "midi": 30,
          "time": 78.98837209301678,
          "velocity": 0.6850393700787402,
          "duration": 0.011627906976741542
        },
        {
          "name": "F1",
          "midi": 29,
          "time": 78.99999999999352,
          "velocity": 0.7165354330708661,
          "duration": 0.011627906976741542
        },
        {
          "name": "D#4",
          "midi": 63,
          "time": 78.99999999999352,
          "velocity": 0.2677165354330709,
          "duration": 0.11627906976741542
        },
        {
          "name": "A#5",
          "midi": 82,
          "time": 78.99999999999352,
          "velocity": 0.11811023622047244,
          "duration": 0.05813953488370771
        },
        {
          "name": "E7",
          "midi": 100,
          "time": 78.99999999999352,
          "velocity": 0.13385826771653545,
          "duration": 0.034883720930224626
        },
        {
          "name": "D#1",
          "midi": 27,
          "time": 79.01162790697026,
          "velocity": 0.7480314960629921,
          "duration": 1.2441860465114445
        },
        {
          "name": "G#4",
          "midi": 68,
          "time": 79.01162790697026,
          "velocity": 0.31496062992125984,
          "duration": 0.023255813953483084
        },
        {
          "name": "A#6",
          "midi": 94,
          "time": 79.01162790697026,
          "velocity": 0.30708661417322836,
          "duration": 0.05813953488370771
        },
        {
          "name": "A#2",
          "midi": 46,
          "time": 79.023255813947,
          "velocity": 0.41732283464566927,
          "duration": 0.11627906976741542
        },
        {
          "name": "F7",
          "midi": 101,
          "time": 79.023255813947,
          "velocity": 0.2283464566929134,
          "duration": 0.1395348837208985
        },
        {
          "name": "F#7",
          "midi": 102,
          "time": 79.023255813947,
          "velocity": 0.14173228346456693,
          "duration": 0.034883720930224626
        },
        {
          "name": "G3",
          "midi": 55,
          "time": 79.03488372092374,
          "velocity": 0.4881889763779528,
          "duration": 0.034883720930224626
        },
        {
          "name": "G5",
          "midi": 79,
          "time": 79.03488372092374,
          "velocity": 0.10236220472440945,
          "duration": 0.1627906976743816
        },
        {
          "name": "C7",
          "midi": 96,
          "time": 79.04651162790049,
          "velocity": 0.3464566929133858,
          "duration": 0.19767441860462043
        },
        {
          "name": "G#4",
          "midi": 68,
          "time": 79.05813953487723,
          "velocity": 0.2677165354330709,
          "duration": 0.023255813953483084
        },
        {
          "name": "A3",
          "midi": 57,
          "time": 79.06976744185397,
          "velocity": 0.5118110236220472,
          "duration": 0.011627906976741542
        },
        {
          "name": "G3",
          "midi": 55,
          "time": 79.08139534883071,
          "velocity": 0.5196850393700787,
          "duration": 0.2674418604650839
        },
        {
          "name": "G#4",
          "midi": 68,
          "time": 79.09302325580745,
          "velocity": 0.31496062992125984,
          "duration": 0.034883720930224626
        },
        {
          "name": "G#6",
          "midi": 92,
          "time": 79.09302325580745,
          "velocity": 0.11811023622047244,
          "duration": 0.09302325581393234
        },
        {
          "name": "A#6",
          "midi": 94,
          "time": 79.09302325580745,
          "velocity": 0.36220472440944884,
          "duration": 0.06976744186044925
        },
        {
          "name": "E7",
          "midi": 100,
          "time": 79.09302325580745,
          "velocity": 0.2125984251968504,
          "duration": 0.034883720930224626
        },
        {
          "name": "G#4",
          "midi": 68,
          "time": 79.13953488371442,
          "velocity": 0.5196850393700787,
          "duration": 0.744186046511544
        },
        {
          "name": "D7",
          "midi": 98,
          "time": 79.13953488371442,
          "velocity": 0.2204724409448819,
          "duration": 0.04651162790696617
        },
        {
          "name": "A#2",
          "midi": 46,
          "time": 79.17441860464464,
          "velocity": 0.4409448818897638,
          "duration": 0.05813953488372192
        },
        {
          "name": "A#2",
          "midi": 46,
          "time": 79.2441860465051,
          "velocity": 0.4251968503937008,
          "duration": 0.06976744186046346
        },
        {
          "name": "F4",
          "midi": 65,
          "time": 79.2441860465051,
          "velocity": 0.07086614173228346,
          "duration": 0.034883720930224626
        },
        {
          "name": "F#6",
          "midi": 90,
          "time": 79.26744186045859,
          "velocity": 0.13385826771653545,
          "duration": 0.05813953488372192
        },
        {
          "name": "A#2",
          "midi": 46,
          "time": 79.32558139534231,
          "velocity": 0.4251968503937008,
          "duration": 0.06976744186044925
        },
        {
          "name": "D6",
          "midi": 86,
          "time": 79.32558139534231,
          "velocity": 0.07874015748031496,
          "duration": 0.06976744186044925
        },
        {
          "name": "F7",
          "midi": 101,
          "time": 79.32558139534231,
          "velocity": 0.13385826771653545,
          "duration": 0.034883720930224626
        },
        {
          "name": "F5",
          "midi": 77,
          "time": 79.3488372092958,
          "velocity": 0.3228346456692913,
          "duration": 0.44186046511623545
        },
        {
          "name": "A3",
          "midi": 57,
          "time": 79.36046511627254,
          "velocity": 0.5511811023622047,
          "duration": 0.023255813953483084
        },
        {
          "name": "C7",
          "midi": 96,
          "time": 79.36046511627254,
          "velocity": 0.2283464566929134,
          "duration": 0.12790697674415696
        },
        {
          "name": "G3",
          "midi": 55,
          "time": 79.38372093022602,
          "velocity": 0.47244094488188976,
          "duration": 0.04651162790696617
        },
        {
          "name": "A#3",
          "midi": 58,
          "time": 79.38372093022602,
          "velocity": 0.5275590551181102,
          "duration": 0.04651162790696617
        },
        {
          "name": "D7",
          "midi": 98,
          "time": 79.38372093022602,
          "velocity": 0.18110236220472442,
          "duration": 0.05813953488370771
        },
        {
          "name": "A#2",
          "midi": 46,
          "time": 79.4069767441795,
          "velocity": 0.41732283464566927,
          "duration": 0.0813953488371908
        },
        {
          "name": "B4",
          "midi": 71,
          "time": 79.41860465115624,
          "velocity": 0.3779527559055118,
          "duration": 0.22093023255813193
        },
        {
          "name": "C#7",
          "midi": 97,
          "time": 79.44186046510973,
          "velocity": 0.11811023622047244,
          "duration": 0.04651162790696617
        },
        {
          "name": "G3",
          "midi": 55,
          "time": 79.46511627906321,
          "velocity": 0.44881889763779526,
          "duration": 0.2325581395348877
        },
        {
          "name": "A#2",
          "midi": 46,
          "time": 79.49999999999343,
          "velocity": 0.4015748031496063,
          "duration": 0.24418604651162923
        },
        {
          "name": "F#6",
          "midi": 90,
          "time": 79.60465116278414,
          "velocity": 0.10236220472440945,
          "duration": 0.03488372093023884
        },
        {
          "name": "A#4",
          "midi": 70,
          "time": 79.63953488371438,
          "velocity": 0.3543307086614173,
          "duration": 0.023255813953483084
        },
        {
          "name": "G3",
          "midi": 55,
          "time": 79.70930232557484,
          "velocity": 0.3700787401574803,
          "duration": 0.04651162790696617
        },
        {
          "name": "D4",
          "midi": 62,
          "time": 79.73255813952832,
          "velocity": 0.2755905511811024,
          "duration": 0.023255813953483084
        },
        {
          "name": "A#2",
          "midi": 46,
          "time": 79.7558139534818,
          "velocity": 0.31496062992125984,
          "duration": 0.04651162790696617
        },
        {
          "name": "A3",
          "midi": 57,
          "time": 79.7558139534818,
          "velocity": 0.4330708661417323,
          "duration": 0.023255813953483084
        },
        {
          "name": "E6",
          "midi": 88,
          "time": 79.7558139534818,
          "velocity": 0.25984251968503935,
          "duration": 0.04651162790696617
        },
        {
          "name": "F#7",
          "midi": 102,
          "time": 79.7558139534818,
          "velocity": 0.10236220472440945,
          "duration": 0.05813953488370771
        },
        {
          "name": "E4",
          "midi": 64,
          "time": 79.76744186045855,
          "velocity": 0.3700787401574803,
          "duration": 0.023255813953483084
        },
        {
          "name": "F7",
          "midi": 101,
          "time": 79.76744186045855,
          "velocity": 0.1968503937007874,
          "duration": 0.05813953488370771
        },
        {
          "name": "A#3",
          "midi": 58,
          "time": 79.77906976743529,
          "velocity": 0.3779527559055118,
          "duration": 0.023255813953483084
        },
        {
          "name": "C#5",
          "midi": 73,
          "time": 79.77906976743529,
          "velocity": 0.3464566929133858,
          "duration": 0.034883720930224626
        },
        {
          "name": "G3",
          "midi": 55,
          "time": 79.79069767441203,
          "velocity": 0.3464566929133858,
          "duration": 0.06976744186044925
        },
        {
          "name": "E5",
          "midi": 76,
          "time": 79.79069767441203,
          "velocity": 0.3858267716535433,
          "duration": 0.034883720930224626
        },
        {
          "name": "D6",
          "midi": 86,
          "time": 79.79069767441203,
          "velocity": 0.2440944881889764,
          "duration": 0.034883720930224626
        },
        {
          "name": "F6",
          "midi": 89,
          "time": 79.79069767441203,
          "velocity": 0.33858267716535434,
          "duration": 0.034883720930224626
        },
        {
          "name": "C7",
          "midi": 96,
          "time": 79.79069767441203,
          "velocity": 0.3228346456692913,
          "duration": 0.17441860465112313
        },
        {
          "name": "F#6",
          "midi": 90,
          "time": 79.80232558138877,
          "velocity": 0.31496062992125984,
          "duration": 0.10465116279067388
        },
        {
          "name": "A#2",
          "midi": 46,
          "time": 79.81395348836551,
          "velocity": 0.33070866141732286,
          "duration": 0.034883720930224626
        },
        {
          "name": "F5",
          "midi": 77,
          "time": 79.81395348836551,
          "velocity": 0.33070866141732286,
          "duration": 0.023255813953483084
        },
        {
          "name": "G5",
          "midi": 79,
          "time": 79.81395348836551,
          "velocity": 0.2125984251968504,
          "duration": 0.034883720930224626
        },
        {
          "name": "D#6",
          "midi": 87,
          "time": 79.82558139534225,
          "velocity": 0.1968503937007874,
          "duration": 0.034883720930224626
        },
        {
          "name": "G6",
          "midi": 91,
          "time": 79.82558139534225,
          "velocity": 0.2440944881889764,
          "duration": 0.06976744186044925
        },
        {
          "name": "E4",
          "midi": 64,
          "time": 79.837209302319,
          "velocity": 0.2755905511811024,
          "duration": 0.05813953488370771
        },
        {
          "name": "D5",
          "midi": 74,
          "time": 79.837209302319,
          "velocity": 0.1732283464566929,
          "duration": 0.034883720930224626
        },
        {
          "name": "F#5",
          "midi": 78,
          "time": 79.837209302319,
          "velocity": 0.23622047244094488,
          "duration": 0.04651162790696617
        },
        {
          "name": "F6",
          "midi": 89,
          "time": 79.837209302319,
          "velocity": 0.23622047244094488,
          "duration": 0.023255813953483084
        },
        {
          "name": "A6",
          "midi": 93,
          "time": 79.837209302319,
          "velocity": 0.30708661417322836,
          "duration": 0.06976744186044925
        },
        {
          "name": "A#6",
          "midi": 94,
          "time": 79.837209302319,
          "velocity": 0.31496062992125984,
          "duration": 0.06976744186044925
        },
        {
          "name": "B6",
          "midi": 95,
          "time": 79.837209302319,
          "velocity": 0.2677165354330709,
          "duration": 0.034883720930224626
        },
        {
          "name": "D7",
          "midi": 98,
          "time": 79.837209302319,
          "velocity": 0.3464566929133858,
          "duration": 0.0813953488371908
        },
        {
          "name": "D#7",
          "midi": 99,
          "time": 79.837209302319,
          "velocity": 0.31496062992125984,
          "duration": 0.06976744186044925
        },
        {
          "name": "F7",
          "midi": 101,
          "time": 79.837209302319,
          "velocity": 0.23622047244094488,
          "duration": 0.06976744186044925
        },
        {
          "name": "A#4",
          "midi": 70,
          "time": 79.84883720929574,
          "velocity": 0.3700787401574803,
          "duration": 0.1627906976743816
        },
        {
          "name": "E6",
          "midi": 88,
          "time": 79.84883720929574,
          "velocity": 0.13385826771653545,
          "duration": 0.04651162790696617
        },
        {
          "name": "C#7",
          "midi": 97,
          "time": 79.84883720929574,
          "velocity": 0.30708661417322836,
          "duration": 0.06976744186044925
        },
        {
          "name": "A#2",
          "midi": 46,
          "time": 79.86046511627248,
          "velocity": 0.29133858267716534,
          "duration": 0.04651162790696617
        },
        {
          "name": "F5",
          "midi": 77,
          "time": 79.87209302324922,
          "velocity": 0.25984251968503935,
          "duration": 0.0813953488371908
        },
        {
          "name": "D5",
          "midi": 74,
          "time": 79.88372093022596,
          "velocity": 0.2677165354330709,
          "duration": 0.034883720930224626
        },
        {
          "name": "D#6",
          "midi": 87,
          "time": 79.88372093022596,
          "velocity": 0.16535433070866143,
          "duration": 0.39534883720922664
        },
        {
          "name": "G#4",
          "midi": 68,
          "time": 79.8953488372027,
          "velocity": 0.3228346456692913,
          "duration": 0.3488372093022605
        },
        {
          "name": "A#2",
          "midi": 46,
          "time": 79.94186046510967,
          "velocity": 0.2992125984251969,
          "duration": 0.034883720930224626
        },
        {
          "name": "G3",
          "midi": 55,
          "time": 79.94186046510967,
          "velocity": 0.29133858267716534,
          "duration": 0.023255813953483084
        },
        {
          "name": "A#3",
          "midi": 58,
          "time": 79.94186046510967,
          "velocity": 0.36220472440944884,
          "duration": 0.05813953488370771
        },
        {
          "name": "D#3",
          "midi": 51,
          "time": 79.96511627906315,
          "velocity": 0.30708661417322836,
          "duration": 0.29069767441855277
        },
        {
          "name": "E7",
          "midi": 100,
          "time": 79.96511627906315,
          "velocity": 0.2204724409448819,
          "duration": 0.04651162790696617
        },
        {
          "name": "F5",
          "midi": 77,
          "time": 79.9767441860399,
          "velocity": 0.1968503937007874,
          "duration": 0.2441860465115866
        },
        {
          "name": "B6",
          "midi": 95,
          "time": 79.9767441860399,
          "velocity": 0.2755905511811024,
          "duration": 0.0813953488371908
        },
        {
          "name": "C7",
          "midi": 96,
          "time": 79.9767441860399,
          "velocity": 0.2125984251968504,
          "duration": 0.0813953488371908
        },
        {
          "name": "F7",
          "midi": 101,
          "time": 79.9767441860399,
          "velocity": 0.25984251968503935,
          "duration": 0.0813953488371908
        },
        {
          "name": "C#5",
          "midi": 73,
          "time": 79.98837209301664,
          "velocity": 0.2440944881889764,
          "duration": 0.023255813953483084
        },
        {
          "name": "C#7",
          "midi": 97,
          "time": 79.98837209301664,
          "velocity": 0.25984251968503935,
          "duration": 0.05813953488370771
        },
        {
          "name": "D#7",
          "midi": 99,
          "time": 79.98837209301664,
          "velocity": 0.2047244094488189,
          "duration": 0.05813953488370771
        },
        {
          "name": "F#7",
          "midi": 102,
          "time": 79.99999999999338,
          "velocity": 0.18110236220472442,
          "duration": 0.034883720930224626
        },
        {
          "name": "A#2",
          "midi": 46,
          "time": 80.01162790697012,
          "velocity": 0.2440944881889764,
          "duration": 0.023255813953483084
        },
        {
          "name": "B3",
          "midi": 59,
          "time": 80.02325581394686,
          "velocity": 0.48031496062992124,
          "duration": 0.034883720930224626
        },
        {
          "name": "E7",
          "midi": 100,
          "time": 80.02325581394686,
          "velocity": 0.23622047244094488,
          "duration": 0.023255813953483084
        },
        {
          "name": "G5",
          "midi": 79,
          "time": 80.0348837209236,
          "velocity": 0.12598425196850394,
          "duration": 0.06976744186044925
        },
        {
          "name": "A#3",
          "midi": 58,
          "time": 80.05813953487709,
          "velocity": 0.44881889763779526,
          "duration": 0.023255813953483084
        },
        {
          "name": "A#3",
          "midi": 58,
          "time": 80.09302325580731,
          "velocity": 0.33070866141732286,
          "duration": 0.11627906976742963
        },
        {
          "name": "C#4",
          "midi": 61,
          "time": 80.197674418598,
          "velocity": 0.3464566929133858,
          "duration": 0.023255813953483084
        },
        {
          "name": "C#5",
          "midi": 73,
          "time": 80.197674418598,
          "velocity": 0.4015748031496063,
          "duration": 0.04651162790696617
        },
        {
          "name": "G#6",
          "midi": 92,
          "time": 80.20930232557474,
          "velocity": 0.31496062992125984,
          "duration": 0.05813953488370771
        },
        {
          "name": "A#6",
          "midi": 94,
          "time": 80.20930232557474,
          "velocity": 0.31496062992125984,
          "duration": 0.1395348837208985
        },
        {
          "name": "A#3",
          "midi": 58,
          "time": 80.23255813952822,
          "velocity": 0.25196850393700787,
          "duration": 0.034883720930224626
        },
        {
          "name": "A#4",
          "midi": 70,
          "time": 80.23255813952822,
          "velocity": 0.31496062992125984,
          "duration": 0.41860465116270973
        },
        {
          "name": "F#5",
          "midi": 78,
          "time": 80.23255813952822,
          "velocity": 0.4251968503937008,
          "duration": 0.023255813953483084
        },
        {
          "name": "F6",
          "midi": 89,
          "time": 80.23255813952822,
          "velocity": 0.1732283464566929,
          "duration": 0.6162790697673302
        },
        {
          "name": "C7",
          "midi": 96,
          "time": 80.24418604650496,
          "velocity": 0.13385826771653545,
          "duration": 0.10465116279067388
        },
        {
          "name": "C#1",
          "midi": 25,
          "time": 80.2558139534817,
          "velocity": 0.5196850393700787,
          "duration": 0.011627906976741542
        },
        {
          "name": "D#4",
          "midi": 63,
          "time": 80.2558139534817,
          "velocity": 0.41732283464566927,
          "duration": 0.18604651162787889
        },
        {
          "name": "F5",
          "midi": 77,
          "time": 80.2558139534817,
          "velocity": 0.29133858267716534,
          "duration": 0.034883720930224626
        },
        {
          "name": "A6",
          "midi": 93,
          "time": 80.2558139534817,
          "velocity": 0.2047244094488189,
          "duration": 0.09302325581393234
        },
        {
          "name": "B0",
          "midi": 23,
          "time": 80.26744186045845,
          "velocity": 0.5905511811023622,
          "duration": 0.011627906976741542
        },
        {
          "name": "A2",
          "midi": 45,
          "time": 80.26744186045845,
          "velocity": 0.4251968503937008,
          "duration": 0.023255813953483084
        },
        {
          "name": "F3",
          "midi": 53,
          "time": 80.26744186045845,
          "velocity": 0.4566929133858268,
          "duration": 0.023255813953483084
        },
        {
          "name": "F#5",
          "midi": 78,
          "time": 80.26744186045845,
          "velocity": 0.2204724409448819,
          "duration": 0.04651162790696617
        },
        {
          "name": "D7",
          "midi": 98,
          "time": 80.26744186045845,
          "velocity": 0.11811023622047244,
          "duration": 0.04651162790696617
        },
        {
          "name": "C#1",
          "midi": 25,
          "time": 80.27906976743519,
          "velocity": 0.6692913385826772,
          "duration": 0.011627906976741542
        },
        {
          "name": "D1",
          "midi": 26,
          "time": 80.29069767441193,
          "velocity": 0.7007874015748031,
          "duration": 0.011627906976741542
        },
        {
          "name": "F#3",
          "midi": 54,
          "time": 80.29069767441193,
          "velocity": 0.5039370078740157,
          "duration": 0.034883720930224626
        },
        {
          "name": "C#7",
          "midi": 97,
          "time": 80.29069767441193,
          "velocity": 0.11811023622047244,
          "duration": 0.034883720930224626
        },
        {
          "name": "D#7",
          "midi": 99,
          "time": 80.29069767441193,
          "velocity": 0.07874015748031496,
          "duration": 0.034883720930224626
        },
        {
          "name": "B0",
          "midi": 23,
          "time": 80.30232558138867,
          "velocity": 0.7165354330708661,
          "duration": 0.04651162790696617
        },
        {
          "name": "B6",
          "midi": 95,
          "time": 80.30232558138867,
          "velocity": 0.2440944881889764,
          "duration": 0.04651162790696617
        },
        {
          "name": "C#5",
          "midi": 73,
          "time": 80.31395348836541,
          "velocity": 0.28346456692913385,
          "duration": 0.034883720930224626
        },
        {
          "name": "A#0",
          "midi": 22,
          "time": 80.34883720929564,
          "velocity": 0.7165354330708661,
          "duration": 0.011627906976741542
        },
        {
          "name": "B0",
          "midi": 23,
          "time": 80.36046511627238,
          "velocity": 0.7322834645669292,
          "duration": 0.18604651162787889
        },
        {
          "name": "C#5",
          "midi": 73,
          "time": 80.36046511627238,
          "velocity": 0.11023622047244094,
          "duration": 0.09302325581394655
        },
        {
          "name": "D#3",
          "midi": 51,
          "time": 80.39534883720262,
          "velocity": 0.5196850393700787,
          "duration": 0.034883720930224626
        },
        {
          "name": "D7",
          "midi": 98,
          "time": 80.39534883720262,
          "velocity": 0.07086614173228346,
          "duration": 0.034883720930224626
        },
        {
          "name": "E7",
          "midi": 100,
          "time": 80.39534883720262,
          "velocity": 0.1732283464566929,
          "duration": 0.05813953488370771
        },
        {
          "name": "G4",
          "midi": 67,
          "time": 80.40697674417936,
          "velocity": 0.30708661417322836,
          "duration": 0.034883720930224626
        },
        {
          "name": "A#6",
          "midi": 94,
          "time": 80.40697674417936,
          "velocity": 0.2440944881889764,
          "duration": 0.05813953488370771
        },
        {
          "name": "B3",
          "midi": 59,
          "time": 80.4186046511561,
          "velocity": 0.2992125984251969,
          "duration": 0.023255813953483084
        },
        {
          "name": "D3",
          "midi": 50,
          "time": 80.43023255813284,
          "velocity": 0.5275590551181102,
          "duration": 0.011627906976741542
        },
        {
          "name": "D#3",
          "midi": 51,
          "time": 80.44186046510958,
          "velocity": 0.5118110236220472,
          "duration": 0.023255813953483084
        },
        {
          "name": "C#4",
          "midi": 61,
          "time": 80.44186046510958,
          "velocity": 0.3858267716535433,
          "duration": 0.034883720930224626
        },
        {
          "name": "F#4",
          "midi": 66,
          "time": 80.44186046510958,
          "velocity": 0.2677165354330709,
          "duration": 0.2790697674418112
        },
        {
          "name": "D3",
          "midi": 50,
          "time": 80.46511627906307,
          "velocity": 0.5118110236220472,
          "duration": 0.011627906976741542
        },
        {
          "name": "A#3",
          "midi": 58,
          "time": 80.46511627906307,
          "velocity": 0.3228346456692913,
          "duration": 0.023255813953483084
        },
        {
          "name": "D#3",
          "midi": 51,
          "time": 80.47674418603981,
          "velocity": 0.5196850393700787,
          "duration": 0.023255813953483084
        },
        {
          "name": "G#2",
          "midi": 44,
          "time": 80.49999999999329,
          "velocity": 0.49606299212598426,
          "duration": 0.023255813953483084
        },
        {
          "name": "D#4",
          "midi": 63,
          "time": 80.49999999999329,
          "velocity": 0.3858267716535433,
          "duration": 0.29069767441855277
        },
        {
          "name": "D#3",
          "midi": 51,
          "time": 80.51162790697003,
          "velocity": 0.5433070866141733,
          "duration": 0.04651162790696617
        },
        {
          "name": "G#3",
          "midi": 56,
          "time": 80.52325581394678,
          "velocity": 0.3858267716535433,
          "duration": 0.034883720930224626
        },
        {
          "name": "F#2",
          "midi": 42,
          "time": 80.53488372092352,
          "velocity": 0.4330708661417323,
          "duration": 0.023255813953483084
        },
        {
          "name": "C#5",
          "midi": 73,
          "time": 80.53488372092352,
          "velocity": 0.13385826771653545,
          "duration": 0.1395348837208985
        },
        {
          "name": "A#0",
          "midi": 22,
          "time": 80.54651162790026,
          "velocity": 0.7165354330708661,
          "duration": 0.011627906976741542
        },
        {
          "name": "B0",
          "midi": 23,
          "time": 80.558139534877,
          "velocity": 0.7244094488188977,
          "duration": 1.6279069767438727
        },
        {
          "name": "D3",
          "midi": 50,
          "time": 80.558139534877,
          "velocity": 0.49606299212598426,
          "duration": 0.023255813953483084
        },
        {
          "name": "F#2",
          "midi": 42,
          "time": 80.56976744185374,
          "velocity": 0.47244094488188976,
          "duration": 0.05813953488370771
        },
        {
          "name": "D#3",
          "midi": 51,
          "time": 80.58139534883048,
          "velocity": 0.49606299212598426,
          "duration": 0.023255813953483084
        },
        {
          "name": "D#3",
          "midi": 51,
          "time": 80.61627906976071,
          "velocity": 0.5039370078740157,
          "duration": 0.04651162790696617
        },
        {
          "name": "B6",
          "midi": 95,
          "time": 80.63953488371419,
          "velocity": 0.28346456692913385,
          "duration": 0.10465116279068809
        },
        {
          "name": "F#2",
          "midi": 42,
          "time": 80.65116279069093,
          "velocity": 0.4409448818897638,
          "duration": 0.023255813953483084
        },
        {
          "name": "B3",
          "midi": 59,
          "time": 80.65116279069093,
          "velocity": 0.3937007874015748,
          "duration": 0.11627906976742963
        },
        {
          "name": "B4",
          "midi": 71,
          "time": 80.65116279069093,
          "velocity": 0.48031496062992124,
          "duration": 0.081395348837205
        },
        {
          "name": "F#5",
          "midi": 78,
          "time": 80.65116279069093,
          "velocity": 0.3228346456692913,
          "duration": 0.12790697674417117
        },
        {
          "name": "C#7",
          "midi": 97,
          "time": 80.66279069766767,
          "velocity": 0.25196850393700787,
          "duration": 0.09302325581394655
        },
        {
          "name": "D#3",
          "midi": 51,
          "time": 80.67441860464442,
          "velocity": 0.49606299212598426,
          "duration": 0.3255813953487774
        },
        {
          "name": "D#7",
          "midi": 99,
          "time": 80.67441860464442,
          "velocity": 0.2047244094488189,
          "duration": 0.11627906976742963
        },
        {
          "name": "E7",
          "midi": 100,
          "time": 80.67441860464442,
          "velocity": 0.14173228346456693,
          "duration": 0.04651162790698038
        },
        {
          "name": "A6",
          "midi": 93,
          "time": 80.70930232557465,
          "velocity": 0.2755905511811024,
          "duration": 0.05813953488370771
        },
        {
          "name": "F#2",
          "midi": 42,
          "time": 80.7209302325514,
          "velocity": 0.4566929133858268,
          "duration": 0.034883720930224626
        },
        {
          "name": "A#5",
          "midi": 82,
          "time": 80.7209302325514,
          "velocity": 0.1968503937007874,
          "duration": 0.06976744186044925
        },
        {
          "name": "D#6",
          "midi": 87,
          "time": 80.7209302325514,
          "velocity": 0.33858267716535434,
          "duration": 0.05813953488370771
        },
        {
          "name": "D7",
          "midi": 98,
          "time": 80.73255813952814,
          "velocity": 0.07086614173228346,
          "duration": 0.034883720930224626
        },
        {
          "name": "A#4",
          "midi": 70,
          "time": 80.74418604650488,
          "velocity": 0.3228346456692913,
          "duration": 0.17441860465112313
        },
        {
          "name": "C#5",
          "midi": 73,
          "time": 80.74418604650488,
          "velocity": 0.14960629921259844,
          "duration": 0.29069767441853855
        },
        {
          "name": "C6",
          "midi": 84,
          "time": 80.75581395348162,
          "velocity": 0.18110236220472442,
          "duration": 0.11627906976741542
        },
        {
          "name": "F#2",
          "midi": 42,
          "time": 80.76744186045836,
          "velocity": 0.4409448818897638,
          "duration": 0.023255813953483084
        },
        {
          "name": "B3",
          "midi": 59,
          "time": 80.7790697674351,
          "velocity": 0.4251968503937008,
          "duration": 0.023255813953483084
        },
        {
          "name": "F4",
          "midi": 65,
          "time": 80.7790697674351,
          "velocity": 0.30708661417322836,
          "duration": 0.034883720930224626
        },
        {
          "name": "E7",
          "midi": 100,
          "time": 80.7790697674351,
          "velocity": 0.11811023622047244,
          "duration": 0.034883720930224626
        },
        {
          "name": "D7",
          "midi": 98,
          "time": 80.79069767441185,
          "velocity": 0.11023622047244094,
          "duration": 0.034883720930224626
        },
        {
          "name": "B3",
          "midi": 59,
          "time": 80.81395348836533,
          "velocity": 0.3937007874015748,
          "duration": 0.10465116279067388
        },
        {
          "name": "F#5",
          "midi": 78,
          "time": 80.81395348836533,
          "velocity": 0.4409448818897638,
          "duration": 0.10465116279067388
        },
        {
          "name": "F4",
          "midi": 65,
          "time": 80.82558139534207,
          "velocity": 0.28346456692913385,
          "duration": 0.023255813953483084
        },
        {
          "name": "B5",
          "midi": 83,
          "time": 80.82558139534207,
          "velocity": 0.14173228346456693,
          "duration": 0.034883720930224626
        },
        {
          "name": "D#6",
          "midi": 87,
          "time": 80.82558139534207,
          "velocity": 0.28346456692913385,
          "duration": 0.11627906976741542
        },
        {
          "name": "A5",
          "midi": 81,
          "time": 80.8604651162723,
          "velocity": 0.1889763779527559,
          "duration": 0.05813953488370771
        },
        {
          "name": "F6",
          "midi": 89,
          "time": 80.8604651162723,
          "velocity": 0.2755905511811024,
          "duration": 0.05813953488370771
        },
        {
          "name": "B5",
          "midi": 83,
          "time": 80.87209302324904,
          "velocity": 0.09448818897637795,
          "duration": 0.05813953488370771
        },
        {
          "name": "F#2",
          "midi": 42,
          "time": 80.88372093022578,
          "velocity": 0.4330708661417323,
          "duration": 0.034883720930224626
        },
        {
          "name": "E6",
          "midi": 88,
          "time": 80.89534883720252,
          "velocity": 0.14960629921259844,
          "duration": 0.05813953488370771
        },
        {
          "name": "G6",
          "midi": 91,
          "time": 80.89534883720252,
          "velocity": 0.2047244094488189,
          "duration": 0.05813953488370771
        },
        {
          "name": "E4",
          "midi": 64,
          "time": 80.90697674417926,
          "velocity": 0.30708661417322836,
          "duration": 0.023255813953483084
        },
        {
          "name": "C6",
          "midi": 84,
          "time": 80.90697674417926,
          "velocity": 0.08661417322834646,
          "duration": 0.034883720930224626
        },
        {
          "name": "G#6",
          "midi": 92,
          "time": 80.90697674417926,
          "velocity": 0.11811023622047244,
          "duration": 0.034883720930224626
        },
        {
          "name": "B6",
          "midi": 95,
          "time": 80.90697674417926,
          "velocity": 0.28346456692913385,
          "duration": 0.034883720930224626
        },
        {
          "name": "C7",
          "midi": 96,
          "time": 80.90697674417926,
          "velocity": 0.29133858267716534,
          "duration": 0.09302325581393234
        },
        {
          "name": "D7",
          "midi": 98,
          "time": 80.90697674417926,
          "velocity": 0.2992125984251969,
          "duration": 0.05813953488370771
        },
        {
          "name": "E7",
          "midi": 100,
          "time": 80.90697674417926,
          "velocity": 0.23622047244094488,
          "duration": 0.0813953488371908
        },
        {
          "name": "A4",
          "midi": 69,
          "time": 80.918604651156,
          "velocity": 0.2283464566929134,
          "duration": 0.023255813953483084
        },
        {
          "name": "A6",
          "midi": 93,
          "time": 80.918604651156,
          "velocity": 0.2755905511811024,
          "duration": 0.034883720930224626
        },
        {
          "name": "A#6",
          "midi": 94,
          "time": 80.918604651156,
          "velocity": 0.28346456692913385,
          "duration": 0.05813953488370771
        },
        {
          "name": "C#7",
          "midi": 97,
          "time": 80.918604651156,
          "velocity": 0.2992125984251969,
          "duration": 0.06976744186044925
        },
        {
          "name": "F7",
          "midi": 101,
          "time": 80.918604651156,
          "velocity": 0.29133858267716534,
          "duration": 0.10465116279067388
        },
        {
          "name": "F4",
          "midi": 65,
          "time": 80.93023255813274,
          "velocity": 0.3228346456692913,
          "duration": 0.023255813953483084
        },
        {
          "name": "A#3",
          "midi": 58,
          "time": 80.94186046510949,
          "velocity": 0.2440944881889764,
          "duration": 0.034883720930224626
        },
        {
          "name": "A#4",
          "midi": 70,
          "time": 80.94186046510949,
          "velocity": 0.4094488188976378,
          "duration": 0.10465116279067388
        },
        {
          "name": "F6",
          "midi": 89,
          "time": 80.94186046510949,
          "velocity": 0.1968503937007874,
          "duration": 0.15116279069764005
        },
        {
          "name": "D#5",
          "midi": 75,
          "time": 80.95348837208623,
          "velocity": 0.11023622047244094,
          "duration": 0.09302325581393234
        },
        {
          "name": "C6",
          "midi": 84,
          "time": 80.95348837208623,
          "velocity": 0.12598425196850394,
          "duration": 0.17441860465112313
        },
        {
          "name": "F4",
          "midi": 65,
          "time": 80.96511627906297,
          "velocity": 0.3228346456692913,
          "duration": 0.034883720930224626
        },
        {
          "name": "A#3",
          "midi": 58,
          "time": 80.98837209301645,
          "velocity": 0.31496062992125984,
          "duration": 0.04651162790696617
        },
        {
          "name": "F#2",
          "midi": 42,
          "time": 81.01162790696993,
          "velocity": 0.41732283464566927,
          "duration": 0.023255813953483084
        },
        {
          "name": "D#3",
          "midi": 51,
          "time": 81.01162790696993,
          "velocity": 0.41732283464566927,
          "duration": 0.023255813953483084
        },
        {
          "name": "F4",
          "midi": 65,
          "time": 81.02325581394668,
          "velocity": 0.31496062992125984,
          "duration": 0.034883720930224626
        },
        {
          "name": "D7",
          "midi": 98,
          "time": 81.02325581394668,
          "velocity": 0.25984251968503935,
          "duration": 0.09302325581393234
        },
        {
          "name": "B3",
          "midi": 59,
          "time": 81.03488372092342,
          "velocity": 0.30708661417322836,
          "duration": 0.0813953488371908
        },
        {
          "name": "F#5",
          "midi": 78,
          "time": 81.03488372092342,
          "velocity": 0.4409448818897638,
          "duration": 0.06976744186044925
        },
        {
          "name": "G#6",
          "midi": 92,
          "time": 81.03488372092342,
          "velocity": 0.30708661417322836,
          "duration": 0.034883720930224626
        },
        {
          "name": "B6",
          "midi": 95,
          "time": 81.03488372092342,
          "velocity": 0.2283464566929134,
          "duration": 0.09302325581393234
        },
        {
          "name": "C#7",
          "midi": 97,
          "time": 81.03488372092342,
          "velocity": 0.2992125984251969,
          "duration": 0.06976744186044925
        },
        {
          "name": "D#3",
          "midi": 51,
          "time": 81.04651162790016,
          "velocity": 0.4094488188976378,
          "duration": 0.023255813953483084
        },
        {
          "name": "D#4",
          "midi": 63,
          "time": 81.04651162790016,
          "velocity": 0.44881889763779526,
          "duration": 0.49999999999991473
        },
        {
          "name": "B4",
          "midi": 71,
          "time": 81.04651162790016,
          "velocity": 0.4251968503937008,
          "duration": 0.023255813953483084
        },
        {
          "name": "D#6",
          "midi": 87,
          "time": 81.04651162790016,
          "velocity": 0.12598425196850394,
          "duration": 0.05813953488370771
        },
        {
          "name": "D#7",
          "midi": 99,
          "time": 81.04651162790016,
          "velocity": 0.2283464566929134,
          "duration": 0.0813953488371908
        },
        {
          "name": "F#2",
          "midi": 42,
          "time": 81.0581395348769,
          "velocity": 0.4094488188976378,
          "duration": 0.023255813953483084
        },
        {
          "name": "A#4",
          "midi": 70,
          "time": 81.0581395348769,
          "velocity": 0.3700787401574803,
          "duration": 0.17441860465112313
        },
        {
          "name": "A6",
          "midi": 93,
          "time": 81.06976744185364,
          "velocity": 0.2677165354330709,
          "duration": 0.06976744186044925
        },
        {
          "name": "D#3",
          "midi": 51,
          "time": 81.08139534883038,
          "velocity": 0.4015748031496063,
          "duration": 0.034883720930224626
        },
        {
          "name": "G#6",
          "midi": 92,
          "time": 81.09302325580713,
          "velocity": 0.1968503937007874,
          "duration": 0.034883720930224626
        },
        {
          "name": "C#5",
          "midi": 73,
          "time": 81.10465116278387,
          "velocity": 0.2125984251968504,
          "duration": 0.39534883720924086
        },
        {
          "name": "F5",
          "midi": 77,
          "time": 81.10465116278387,
          "velocity": 0.4094488188976378,
          "duration": 0.034883720930224626
        },
        {
          "name": "G5",
          "midi": 79,
          "time": 81.10465116278387,
          "velocity": 0.31496062992125984,
          "duration": 0.023255813953483084
        },
        {
          "name": "C4",
          "midi": 60,
          "time": 81.11627906976061,
          "velocity": 0.25984251968503935,
          "duration": 0.023255813953483084
        },
        {
          "name": "F#5",
          "midi": 78,
          "time": 81.12790697673735,
          "velocity": 0.2204724409448819,
          "duration": 0.034883720930224626
        },
        {
          "name": "A#3",
          "midi": 58,
          "time": 81.13953488371409,
          "velocity": 0.47244094488188976,
          "duration": 0.0813953488371908
        },
        {
          "name": "D3",
          "midi": 50,
          "time": 81.16279069766757,
          "velocity": 0.3779527559055118,
          "duration": 0.023255813953483084
        },
        {
          "name": "G2",
          "midi": 43,
          "time": 81.17441860464432,
          "velocity": 0.3779527559055118,
          "duration": 0.023255813953483084
        },
        {
          "name": "F#4",
          "midi": 66,
          "time": 81.18604651162106,
          "velocity": 0.33858267716535434,
          "duration": 0.31395348837205006
        },
        {
          "name": "F#2",
          "midi": 42,
          "time": 81.22093023255128,
          "velocity": 0.3700787401574803,
          "duration": 0.023255813953483084
        },
        {
          "name": "B3",
          "midi": 59,
          "time": 81.22093023255128,
          "velocity": 0.4566929133858268,
          "duration": 0.034883720930224626
        },
        {
          "name": "C#7",
          "midi": 97,
          "time": 81.22093023255128,
          "velocity": 0.14960629921259844,
          "duration": 0.034883720930224626
        },
        {
          "name": "A#4",
          "midi": 70,
          "time": 81.24418604650477,
          "velocity": 0.4330708661417323,
          "duration": 0.2674418604650839
        },
        {
          "name": "C7",
          "midi": 96,
          "time": 81.24418604650477,
          "velocity": 0.1889763779527559,
          "duration": 0.034883720930224626
        },
        {
          "name": "D7",
          "midi": 98,
          "time": 81.24418604650477,
          "velocity": 0.18110236220472442,
          "duration": 0.04651162790696617
        },
        {
          "name": "A#3",
          "midi": 58,
          "time": 81.2558139534815,
          "velocity": 0.3543307086614173,
          "duration": 0.04651162790696617
        },
        {
          "name": "E7",
          "midi": 100,
          "time": 81.26744186045825,
          "velocity": 0.25196850393700787,
          "duration": 0.034883720930224626
        },
        {
          "name": "A3",
          "midi": 57,
          "time": 81.30232558138847,
          "velocity": 0.3779527559055118,
          "duration": 0.03488372093023884
        },
        {
          "name": "G3",
          "midi": 55,
          "time": 81.34883720929545,
          "velocity": 0.3858267716535433,
          "duration": 0.023255813953483084
        },
        {
          "name": "G3",
          "midi": 55,
          "time": 81.4418604651094,
          "velocity": 0.3937007874015748,
          "duration": 0.023255813953483084
        },
        {
          "name": "D#3",
          "midi": 51,
          "time": 81.45348837208614,
          "velocity": 0.3228346456692913,
          "duration": 0.023255813953483084
        },
        {
          "name": "G#3",
          "midi": 56,
          "time": 81.46511627906288,
          "velocity": 0.4645669291338583,
          "duration": 0.034883720930224626
        },
        {
          "name": "D3",
          "midi": 50,
          "time": 81.47674418603962,
          "velocity": 0.44881889763779526,
          "duration": 0.023255813953483084
        },
        {
          "name": "D#6",
          "midi": 87,
          "time": 81.48837209301637,
          "velocity": 0.2440944881889764,
          "duration": 0.034883720930224626
        },
        {
          "name": "E3",
          "midi": 52,
          "time": 81.49999999999311,
          "velocity": 0.4094488188976378,
          "duration": 0.023255813953483084
        },
        {
          "name": "A3",
          "midi": 57,
          "time": 81.49999999999311,
          "velocity": 0.4566929133858268,
          "duration": 0.023255813953483084
        },
        {
          "name": "E5",
          "midi": 76,
          "time": 81.49999999999311,
          "velocity": 0.2677165354330709,
          "duration": 0.034883720930224626
        },
        {
          "name": "G6",
          "midi": 91,
          "time": 81.49999999999311,
          "velocity": 0.1889763779527559,
          "duration": 0.034883720930224626
        },
        {
          "name": "A6",
          "midi": 93,
          "time": 81.49999999999311,
          "velocity": 0.29133858267716534,
          "duration": 0.09302325581393234
        },
        {
          "name": "C#7",
          "midi": 97,
          "time": 81.49999999999311,
          "velocity": 0.2992125984251969,
          "duration": 0.17441860465112313
        },
        {
          "name": "D#7",
          "midi": 99,
          "time": 81.49999999999311,
          "velocity": 0.2992125984251969,
          "duration": 0.15116279069764005
        },
        {
          "name": "E7",
          "midi": 100,
          "time": 81.49999999999311,
          "velocity": 0.3464566929133858,
          "duration": 0.1395348837208985
        },
        {
          "name": "F#4",
          "midi": 66,
          "time": 81.51162790696985,
          "velocity": 0.36220472440944884,
          "duration": 0.04651162790696617
        },
        {
          "name": "A4",
          "midi": 69,
          "time": 81.51162790696985,
          "velocity": 0.5196850393700787,
          "duration": 0.023255813953483084
        },
        {
          "name": "B4",
          "midi": 71,
          "time": 81.51162790696985,
          "velocity": 0.5433070866141733,
          "duration": 0.2209302325580893
        },
        {
          "name": "F#6",
          "midi": 90,
          "time": 81.51162790696985,
          "velocity": 0.15748031496062992,
          "duration": 0.06976744186044925
        },
        {
          "name": "B6",
          "midi": 95,
          "time": 81.51162790696985,
          "velocity": 0.36220472440944884,
          "duration": 0.17441860465112313
        },
        {
          "name": "F#7",
          "midi": 102,
          "time": 81.51162790696985,
          "velocity": 0.2204724409448819,
          "duration": 0.10465116279067388
        },
        {
          "name": "D7",
          "midi": 98,
          "time": 81.54651162790007,
          "velocity": 0.33070866141732286,
          "duration": 0.06976744186044925
        },
        {
          "name": "F7",
          "midi": 101,
          "time": 81.54651162790007,
          "velocity": 0.33858267716535434,
          "duration": 0.10465116279067388
        },
        {
          "name": "E6",
          "midi": 88,
          "time": 81.55813953487682,
          "velocity": 0.14960629921259844,
          "duration": 0.034883720930224626
        },
        {
          "name": "A#6",
          "midi": 94,
          "time": 81.55813953487682,
          "velocity": 0.2992125984251969,
          "duration": 0.06976744186044925
        },
        {
          "name": "C7",
          "midi": 96,
          "time": 81.55813953487682,
          "velocity": 0.25984251968503935,
          "duration": 0.05813953488370771
        },
        {
          "name": "G7",
          "midi": 103,
          "time": 81.55813953487682,
          "velocity": 0.16535433070866143,
          "duration": 0.06976744186044925
        },
        {
          "name": "F3",
          "midi": 53,
          "time": 81.56976744185356,
          "velocity": 0.33858267716535434,
          "duration": 0.19767441860460622
        },
        {
          "name": "B3",
          "midi": 59,
          "time": 81.56976744185356,
          "velocity": 0.2992125984251969,
          "duration": 0.1627906976743816
        },
        {
          "name": "F#4",
          "midi": 66,
          "time": 81.5813953488303,
          "velocity": 0.2440944881889764,
          "duration": 0.023255813953483084
        },
        {
          "name": "D#6",
          "midi": 87,
          "time": 81.5813953488303,
          "velocity": 0.16535433070866143,
          "duration": 0.06976744186044925
        },
        {
          "name": "F#6",
          "midi": 90,
          "time": 81.59302325580704,
          "velocity": 0.1732283464566929,
          "duration": 0.034883720930224626
        },
        {
          "name": "F#2",
          "midi": 42,
          "time": 81.61627906976052,
          "velocity": 0.2440944881889764,
          "duration": 0.023255813953483084
        },
        {
          "name": "G#4",
          "midi": 68,
          "time": 81.61627906976052,
          "velocity": 0.2677165354330709,
          "duration": 0.12790697674415696
        },
        {
          "name": "A6",
          "midi": 93,
          "time": 81.65116279069075,
          "velocity": 0.14173228346456693,
          "duration": 0.04651162790696617
        },
        {
          "name": "D#6",
          "midi": 87,
          "time": 81.66279069766749,
          "velocity": 0.1889763779527559,
          "duration": 0.05813953488370771
        },
        {
          "name": "F#6",
          "midi": 90,
          "time": 81.66279069766749,
          "velocity": 0.2125984251968504,
          "duration": 0.05813953488370771
        },
        {
          "name": "F7",
          "midi": 101,
          "time": 81.67441860464423,
          "velocity": 0.1889763779527559,
          "duration": 0.034883720930224626
        },
        {
          "name": "F5",
          "midi": 77,
          "time": 81.68604651162097,
          "velocity": 0.2440944881889764,
          "duration": 0.06976744186044925
        },
        {
          "name": "D6",
          "midi": 86,
          "time": 81.70930232557446,
          "velocity": 0.30708661417322836,
          "duration": 0.1627906976743816
        },
        {
          "name": "A#4",
          "midi": 70,
          "time": 81.73255813952794,
          "velocity": 0.5748031496062992,
          "duration": 0.23255813953483084
        },
        {
          "name": "F#3",
          "midi": 54,
          "time": 81.76744186045816,
          "velocity": 0.31496062992125984,
          "duration": 0.1395348837208985
        },
        {
          "name": "D#6",
          "midi": 87,
          "time": 81.76744186045816,
          "velocity": 0.14173228346456693,
          "duration": 0.2209302325580893
        },
        {
          "name": "C#5",
          "midi": 73,
          "time": 81.7790697674349,
          "velocity": 0.1732283464566929,
          "duration": 0.17441860465112313
        },
        {
          "name": "F5",
          "midi": 77,
          "time": 81.7790697674349,
          "velocity": 0.3464566929133858,
          "duration": 0.1627906976743816
        },
        {
          "name": "A#3",
          "midi": 58,
          "time": 81.79069767441165,
          "velocity": 0.3937007874015748,
          "duration": 0.15116279069764005
        },
        {
          "name": "G#4",
          "midi": 68,
          "time": 81.80232558138839,
          "velocity": 0.28346456692913385,
          "duration": 0.023255813953483084
        },
        {
          "name": "F#7",
          "midi": 102,
          "time": 81.83720930231861,
          "velocity": 0.09448818897637795,
          "duration": 0.034883720930224626
        },
        {
          "name": "G#4",
          "midi": 68,
          "time": 81.8604651162721,
          "velocity": 0.2755905511811024,
          "duration": 0.023255813953483084
        },
        {
          "name": "G#4",
          "midi": 68,
          "time": 81.89534883720232,
          "velocity": 0.2677165354330709,
          "duration": 0.034883720930224626
        },
        {
          "name": "F#3",
          "midi": 54,
          "time": 81.9186046511558,
          "velocity": 0.3700787401574803,
          "duration": 0.023255813953483084
        },
        {
          "name": "G4",
          "midi": 67,
          "time": 81.93023255813254,
          "velocity": 0.3543307086614173,
          "duration": 0.06976744186044925
        },
        {
          "name": "D5",
          "midi": 74,
          "time": 81.93023255813254,
          "velocity": 0.16535433070866143,
          "duration": 0.05813953488370771
        },
        {
          "name": "F#5",
          "midi": 78,
          "time": 81.94186046510929,
          "velocity": 0.11811023622047244,
          "duration": 0.04651162790696617
        },
        {
          "name": "C7",
          "midi": 96,
          "time": 81.94186046510929,
          "velocity": 0.1889763779527559,
          "duration": 0.0813953488371908
        },
        {
          "name": "C#7",
          "midi": 97,
          "time": 81.94186046510929,
          "velocity": 0.2047244094488189,
          "duration": 0.10465116279067388
        },
        {
          "name": "D#7",
          "midi": 99,
          "time": 81.94186046510929,
          "velocity": 0.2204724409448819,
          "duration": 0.04651162790696617
        },
        {
          "name": "B4",
          "midi": 71,
          "time": 81.95348837208603,
          "velocity": 0.48031496062992124,
          "duration": 0.10465116279067388
        },
        {
          "name": "B6",
          "midi": 95,
          "time": 81.95348837208603,
          "velocity": 0.2204724409448819,
          "duration": 0.11627906976741542
        },
        {
          "name": "A#3",
          "midi": 58,
          "time": 81.96511627906277,
          "velocity": 0.4881889763779528,
          "duration": 0.034883720930224626
        },
        {
          "name": "G#6",
          "midi": 92,
          "time": 81.97674418603951,
          "velocity": 0.11023622047244094,
          "duration": 0.034883720930224626
        },
        {
          "name": "A#6",
          "midi": 94,
          "time": 81.97674418603951,
          "velocity": 0.13385826771653545,
          "duration": 0.04651162790696617
        },
        {
          "name": "F7",
          "midi": 101,
          "time": 81.98837209301625,
          "velocity": 0.25196850393700787,
          "duration": 0.04651162790696617
        },
        {
          "name": "F#4",
          "midi": 66,
          "time": 81.999999999993,
          "velocity": 0.2440944881889764,
          "duration": 0.023255813953483084
        },
        {
          "name": "D#5",
          "midi": 75,
          "time": 81.999999999993,
          "velocity": 0.14173228346456693,
          "duration": 0.10465116279067388
        },
        {
          "name": "A3",
          "midi": 57,
          "time": 82.01162790696974,
          "velocity": 0.2992125984251969,
          "duration": 0.034883720930224626
        },
        {
          "name": "G4",
          "midi": 67,
          "time": 82.02325581394648,
          "velocity": 0.15748031496062992,
          "duration": 0.034883720930224626
        },
        {
          "name": "G#3",
          "midi": 56,
          "time": 82.04651162789996,
          "velocity": 0.4409448818897638,
          "duration": 0.04651162790696617
        },
        {
          "name": "F6",
          "midi": 89,
          "time": 82.04651162789996,
          "velocity": 0.11023622047244094,
          "duration": 0.034883720930224626
        },
        {
          "name": "A#4",
          "midi": 70,
          "time": 82.0581395348767,
          "velocity": 0.4566929133858268,
          "duration": 0.33720930232556157
        },
        {
          "name": "F#6",
          "midi": 90,
          "time": 82.06976744185344,
          "velocity": 0.1889763779527559,
          "duration": 0.034883720930224626
        },
        {
          "name": "E7",
          "midi": 100,
          "time": 82.06976744185344,
          "velocity": 0.08661417322834646,
          "duration": 0.034883720930224626
        },
        {
          "name": "F6",
          "midi": 89,
          "time": 82.09302325580693,
          "velocity": 0.2125984251968504,
          "duration": 0.30232558139533694
        },
        {
          "name": "A#3",
          "midi": 58,
          "time": 82.10465116278367,
          "velocity": 0.5354330708661418,
          "duration": 0.06976744186046346
        },
        {
          "name": "D#5",
          "midi": 75,
          "time": 82.11627906976041,
          "velocity": 0.1889763779527559,
          "duration": 0.081395348837205
        },
        {
          "name": "G#6",
          "midi": 92,
          "time": 82.11627906976041,
          "velocity": 0.1732283464566929,
          "duration": 0.04651162790698038
        },
        {
          "name": "E4",
          "midi": 64,
          "time": 82.12790697673715,
          "velocity": 0.18110236220472442,
          "duration": 0.03488372093023884
        },
        {
          "name": "F5",
          "midi": 77,
          "time": 82.12790697673715,
          "velocity": 0.18110236220472442,
          "duration": 0.17441860465116577
        },
        {
          "name": "D#7",
          "midi": 99,
          "time": 82.12790697673715,
          "velocity": 0.1889763779527559,
          "duration": 0.05813953488372192
        },
        {
          "name": "B3",
          "midi": 59,
          "time": 82.17441860464413,
          "velocity": 0.44881889763779526,
          "duration": 0.04651162790696617
        },
        {
          "name": "D6",
          "midi": 86,
          "time": 82.17441860464413,
          "velocity": 0.2125984251968504,
          "duration": 0.09302325581394655
        },
        {
          "name": "A#3",
          "midi": 58,
          "time": 82.2209302325511,
          "velocity": 0.4881889763779528,
          "duration": 0.15116279069768268
        },
        {
          "name": "E4",
          "midi": 64,
          "time": 82.23255813952784,
          "velocity": 0.11811023622047244,
          "duration": 0.03488372093023884
        },
        {
          "name": "F5",
          "midi": 77,
          "time": 82.3255813953418,
          "velocity": 0.09448818897637795,
          "duration": 0.04651162790698038
        },
        {
          "name": "B3",
          "midi": 59,
          "time": 82.37209302324878,
          "velocity": 0.5433070866141733,
          "duration": 0.04651162790696617
        },
        {
          "name": "F#5",
          "midi": 78,
          "time": 82.37209302324878,
          "velocity": 0.28346456692913385,
          "duration": 0.05813953488370771
        },
        {
          "name": "F5",
          "midi": 77,
          "time": 82.38372093022552,
          "velocity": 0.4015748031496063,
          "duration": 0.3372093023255047
        },
        {
          "name": "D#6",
          "midi": 87,
          "time": 82.38372093022552,
          "velocity": 0.14960629921259844,
          "duration": 0.034883720930224626
        },
        {
          "name": "G#4",
          "midi": 68,
          "time": 82.406976744179,
          "velocity": 0.4251968503937008,
          "duration": 0.1627906976743816
        },
        {
          "name": "F#1",
          "midi": 30,
          "time": 82.41860465115575,
          "velocity": 0.6535433070866141,
          "duration": 0.011627906976741542
        },
        {
          "name": "D3",
          "midi": 50,
          "time": 82.41860465115575,
          "velocity": 0.48031496062992124,
          "duration": 0.023255813953483084
        },
        {
          "name": "F1",
          "midi": 29,
          "time": 82.43023255813249,
          "velocity": 0.7165354330708661,
          "duration": 0.011627906976741542
        },
        {
          "name": "D#6",
          "midi": 87,
          "time": 82.43023255813249,
          "velocity": 0.2125984251968504,
          "duration": 1.2674418604648707
        },
        {
          "name": "E1",
          "midi": 28,
          "time": 82.44186046510923,
          "velocity": 0.7244094488188977,
          "duration": 0.011627906976741542
        },
        {
          "name": "G3",
          "midi": 55,
          "time": 82.44186046510923,
          "velocity": 0.4409448818897638,
          "duration": 0.023255813953483084
        },
        {
          "name": "E7",
          "midi": 100,
          "time": 82.44186046510923,
          "velocity": 0.14173228346456693,
          "duration": 0.04651162790696617
        },
        {
          "name": "D#1",
          "midi": 27,
          "time": 82.45348837208597,
          "velocity": 0.7480314960629921,
          "duration": 1.232558139534646
        },
        {
          "name": "A#3",
          "midi": 58,
          "time": 82.45348837208597,
          "velocity": 0.5354330708661418,
          "duration": 0.034883720930224626
        },
        {
          "name": "D#4",
          "midi": 63,
          "time": 82.45348837208597,
          "velocity": 0.25196850393700787,
          "duration": 0.023255813953483084
        },
        {
          "name": "C7",
          "midi": 96,
          "time": 82.45348837208597,
          "velocity": 0.11811023622047244,
          "duration": 0.1395348837208985
        },
        {
          "name": "D7",
          "midi": 98,
          "time": 82.46511627906271,
          "velocity": 0.12598425196850394,
          "duration": 0.034883720930224626
        },
        {
          "name": "F7",
          "midi": 101,
          "time": 82.46511627906271,
          "velocity": 0.09448818897637795,
          "duration": 0.04651162790696617
        },
        {
          "name": "D5",
          "midi": 74,
          "time": 82.47674418603945,
          "velocity": 0.15748031496062992,
          "duration": 0.06976744186044925
        },
        {
          "name": "A#2",
          "midi": 46,
          "time": 82.4883720930162,
          "velocity": 0.4330708661417323,
          "duration": 0.29069767441853855
        },
        {
          "name": "A3",
          "midi": 57,
          "time": 82.4883720930162,
          "velocity": 0.5433070866141733,
          "duration": 0.011627906976741542
        },
        {
          "name": "D#7",
          "midi": 99,
          "time": 82.4883720930162,
          "velocity": 0.2992125984251969,
          "duration": 0.11627906976741542
        },
        {
          "name": "A#3",
          "midi": 58,
          "time": 82.49999999999294,
          "velocity": 0.5275590551181102,
          "duration": 0.034883720930224626
        },
        {
          "name": "G5",
          "midi": 79,
          "time": 82.51162790696968,
          "velocity": 0.07874015748031496,
          "duration": 0.09302325581393234
        },
        {
          "name": "G3",
          "midi": 55,
          "time": 82.52325581394642,
          "velocity": 0.5118110236220472,
          "duration": 0.09302325581393234
        },
        {
          "name": "A#4",
          "midi": 70,
          "time": 82.53488372092316,
          "velocity": 0.3779527559055118,
          "duration": 0.10465116279067388
        },
        {
          "name": "A#3",
          "midi": 58,
          "time": 82.5465116278999,
          "velocity": 0.5196850393700787,
          "duration": 0.04651162790696617
        },
        {
          "name": "G#6",
          "midi": 92,
          "time": 82.5465116278999,
          "velocity": 0.25196850393700787,
          "duration": 0.0813953488371908
        },
        {
          "name": "D6",
          "midi": 86,
          "time": 82.55813953487664,
          "velocity": 0.2125984251968504,
          "duration": 0.11627906976741542
        },
        {
          "name": "A#6",
          "midi": 94,
          "time": 82.58139534883013,
          "velocity": 0.16535433070866143,
          "duration": 0.05813953488370771
        },
        {
          "name": "G#4",
          "midi": 68,
          "time": 82.60465116278361,
          "velocity": 0.33070866141732286,
          "duration": 0.279069767441797
        },
        {
          "name": "E7",
          "midi": 100,
          "time": 82.60465116278361,
          "velocity": 0.2440944881889764,
          "duration": 0.034883720930224626
        },
        {
          "name": "A3",
          "midi": 57,
          "time": 82.61627906976035,
          "velocity": 0.5196850393700787,
          "duration": 0.011627906976741542
        },
        {
          "name": "G3",
          "midi": 55,
          "time": 82.65116279069058,
          "velocity": 0.5433070866141733,
          "duration": 0.1627906976743816
        },
        {
          "name": "A#4",
          "midi": 70,
          "time": 82.65116279069058,
          "velocity": 0.33070866141732286,
          "duration": 0.0813953488371908
        },
        {
          "name": "D#5",
          "midi": 75,
          "time": 82.69767441859754,
          "velocity": 0.11023622047244094,
          "duration": 0.034883720930224626
        },
        {
          "name": "D5",
          "midi": 74,
          "time": 82.73255813952777,
          "velocity": 0.10236220472440945,
          "duration": 0.034883720930224626
        },
        {
          "name": "A#4",
          "midi": 70,
          "time": 82.74418604650451,
          "velocity": 0.25196850393700787,
          "duration": 0.06976744186044925
        },
        {
          "name": "A#2",
          "midi": 46,
          "time": 82.79069767441148,
          "velocity": 0.4330708661417323,
          "duration": 0.04651162790696617
        },
        {
          "name": "C7",
          "midi": 96,
          "time": 82.79069767441148,
          "velocity": 0.2440944881889764,
          "duration": 0.12790697674415696
        },
        {
          "name": "F5",
          "midi": 77,
          "time": 82.81395348836496,
          "velocity": 0.1968503937007874,
          "duration": 0.1395348837208985
        },
        {
          "name": "A#4",
          "midi": 70,
          "time": 82.8255813953417,
          "velocity": 0.29133858267716534,
          "duration": 0.023255813953483084
        },
        {
          "name": "G3",
          "midi": 55,
          "time": 82.83720930231844,
          "velocity": 0.4645669291338583,
          "duration": 0.3023255813953085
        },
        {
          "name": "B4",
          "midi": 71,
          "time": 82.83720930231844,
          "velocity": 0.33070866141732286,
          "duration": 0.023255813953483084
        },
        {
          "name": "A#6",
          "midi": 94,
          "time": 82.83720930231844,
          "velocity": 0.07874015748031496,
          "duration": 0.04651162790696617
        },
        {
          "name": "A#2",
          "midi": 46,
          "time": 82.84883720929518,
          "velocity": 0.41732283464566927,
          "duration": 0.05813953488370771
        },
        {
          "name": "E7",
          "midi": 100,
          "time": 82.86046511627193,
          "velocity": 0.2283464566929134,
          "duration": 0.034883720930224626
        },
        {
          "name": "B4",
          "midi": 71,
          "time": 82.87209302324867,
          "velocity": 0.3779527559055118,
          "duration": 0.12790697674415696
        },
        {
          "name": "G#4",
          "midi": 68,
          "time": 82.89534883720215,
          "velocity": 0.3700787401574803,
          "duration": 0.4069767441859824
        },
        {
          "name": "F7",
          "midi": 101,
          "time": 82.89534883720215,
          "velocity": 0.1732283464566929,
          "duration": 0.034883720930224626
        },
        {
          "name": "A#2",
          "midi": 46,
          "time": 82.91860465115563,
          "velocity": 0.41732283464566927,
          "duration": 0.04651162790696617
        },
        {
          "name": "D5",
          "midi": 74,
          "time": 82.94186046510912,
          "velocity": 0.2677165354330709,
          "duration": 0.05813953488370771
        },
        {
          "name": "A#2",
          "midi": 46,
          "time": 82.97674418603934,
          "velocity": 0.4094488188976378,
          "duration": 0.11627906976744384
        },
        {
          "name": "A#3",
          "midi": 58,
          "time": 82.97674418603934,
          "velocity": 0.4094488188976378,
          "duration": 0.034883720930224626
        },
        {
          "name": "F5",
          "midi": 77,
          "time": 82.98837209301608,
          "velocity": 0.14960629921259844,
          "duration": 0.2674418604650839
        },
        {
          "name": "B4",
          "midi": 71,
          "time": 83.01162790696957,
          "velocity": 0.3700787401574803,
          "duration": 0.1046511627907023
        },
        {
          "name": "D6",
          "midi": 86,
          "time": 83.05813953487655,
          "velocity": 0.11811023622047244,
          "duration": 0.06976744186046346
        },
        {
          "name": "A#2",
          "midi": 46,
          "time": 83.10465116278353,
          "velocity": 0.3858267716535433,
          "duration": 0.09302325581393234
        },
        {
          "name": "C7",
          "midi": 96,
          "time": 83.11627906976027,
          "velocity": 0.11811023622047244,
          "duration": 0.034883720930224626
        },
        {
          "name": "G3",
          "midi": 55,
          "time": 83.16279069766723,
          "velocity": 0.3543307086614173,
          "duration": 0.023255813953483084
        },
        {
          "name": "A#4",
          "midi": 70,
          "time": 83.17441860464398,
          "velocity": 0.29133858267716534,
          "duration": 0.034883720930224626
        },
        {
          "name": "G3",
          "midi": 55,
          "time": 83.2093023255742,
          "velocity": 0.3464566929133858,
          "duration": 0.05813953488370771
        },
        {
          "name": "A#3",
          "midi": 58,
          "time": 83.2093023255742,
          "velocity": 0.3464566929133858,
          "duration": 0.06976744186044925
        },
        {
          "name": "D#4",
          "midi": 63,
          "time": 83.2093023255742,
          "velocity": 0.1968503937007874,
          "duration": 0.05813953488370771
        },
        {
          "name": "C7",
          "midi": 96,
          "time": 83.2093023255742,
          "velocity": 0.2992125984251969,
          "duration": 0.12790697674415696
        },
        {
          "name": "C#5",
          "midi": 73,
          "time": 83.22093023255094,
          "velocity": 0.4566929133858268,
          "duration": 0.034883720930224626
        },
        {
          "name": "F6",
          "midi": 89,
          "time": 83.22093023255094,
          "velocity": 0.25984251968503935,
          "duration": 0.05813953488370771
        },
        {
          "name": "G#6",
          "midi": 92,
          "time": 83.22093023255094,
          "velocity": 0.2755905511811024,
          "duration": 0.1395348837208985
        },
        {
          "name": "E5",
          "midi": 76,
          "time": 83.23255813952768,
          "velocity": 0.2283464566929134,
          "duration": 0.04651162790696617
        },
        {
          "name": "G5",
          "midi": 79,
          "time": 83.23255813952768,
          "velocity": 0.08661417322834646,
          "duration": 0.034883720930224626
        },
        {
          "name": "A#6",
          "midi": 94,
          "time": 83.23255813952768,
          "velocity": 0.3464566929133858,
          "duration": 0.11627906976741542
        },
        {
          "name": "B6",
          "midi": 95,
          "time": 83.23255813952768,
          "velocity": 0.2992125984251969,
          "duration": 0.06976744186044925
        },
        {
          "name": "C#7",
          "midi": 97,
          "time": 83.23255813952768,
          "velocity": 0.3228346456692913,
          "duration": 0.12790697674415696
        },
        {
          "name": "D7",
          "midi": 98,
          "time": 83.23255813952768,
          "velocity": 0.33858267716535434,
          "duration": 0.10465116279067388
        },
        {
          "name": "C5",
          "midi": 72,
          "time": 83.24418604650442,
          "velocity": 0.4409448818897638,
          "duration": 0.05813953488370771
        },
        {
          "name": "A6",
          "midi": 93,
          "time": 83.24418604650442,
          "velocity": 0.15748031496062992,
          "duration": 0.034883720930224626
        },
        {
          "name": "D6",
          "midi": 86,
          "time": 83.25581395348117,
          "velocity": 0.11811023622047244,
          "duration": 0.11627906976741542
        },
        {
          "name": "A#4",
          "midi": 70,
          "time": 83.26744186045791,
          "velocity": 0.4094488188976378,
          "duration": 0.05813953488370771
        },
        {
          "name": "E7",
          "midi": 100,
          "time": 83.26744186045791,
          "velocity": 0.1968503937007874,
          "duration": 0.034883720930224626
        },
        {
          "name": "A#2",
          "midi": 46,
          "time": 83.27906976743465,
          "velocity": 0.31496062992125984,
          "duration": 0.023255813953483084
        },
        {
          "name": "G3",
          "midi": 55,
          "time": 83.27906976743465,
          "velocity": 0.3858267716535433,
          "duration": 0.034883720930224626
        },
        {
          "name": "E4",
          "midi": 64,
          "time": 83.27906976743465,
          "velocity": 0.2677165354330709,
          "duration": 0.034883720930224626
        },
        {
          "name": "F5",
          "midi": 77,
          "time": 83.27906976743465,
          "velocity": 0.25984251968503935,
          "duration": 0.1627906976743816
        },
        {
          "name": "G5",
          "midi": 79,
          "time": 83.27906976743465,
          "velocity": 0.16535433070866143,
          "duration": 0.1395348837208985
        },
        {
          "name": "D#7",
          "midi": 99,
          "time": 83.27906976743465,
          "velocity": 0.31496062992125984,
          "duration": 0.05813953488370771
        },
        {
          "name": "F7",
          "midi": 101,
          "time": 83.27906976743465,
          "velocity": 0.2677165354330709,
          "duration": 0.05813953488370771
        },
        {
          "name": "G7",
          "midi": 103,
          "time": 83.27906976743465,
          "velocity": 0.10236220472440945,
          "duration": 0.06976744186044925
        },
        {
          "name": "D#5",
          "midi": 75,
          "time": 83.29069767441139,
          "velocity": 0.33070866141732286,
          "duration": 0.034883720930224626
        },
        {
          "name": "A6",
          "midi": 93,
          "time": 83.29069767441139,
          "velocity": 0.3228346456692913,
          "duration": 0.05813953488370771
        },
        {
          "name": "F#7",
          "midi": 102,
          "time": 83.29069767441139,
          "velocity": 0.2047244094488189,
          "duration": 0.034883720930224626
        },
        {
          "name": "A#3",
          "midi": 58,
          "time": 83.31395348836487,
          "velocity": 0.30708661417322836,
          "duration": 0.034883720930224626
        },
        {
          "name": "G#4",
          "midi": 68,
          "time": 83.31395348836487,
          "velocity": 0.4015748031496063,
          "duration": 0.034883720930224626
        },
        {
          "name": "C5",
          "midi": 72,
          "time": 83.31395348836487,
          "velocity": 0.28346456692913385,
          "duration": 0.023255813953483084
        },
        {
          "name": "D5",
          "midi": 74,
          "time": 83.31395348836487,
          "velocity": 0.3543307086614173,
          "duration": 0.05813953488370771
        },
        {
          "name": "F#6",
          "midi": 90,
          "time": 83.31395348836487,
          "velocity": 0.15748031496062992,
          "duration": 0.034883720930224626
        },
        {
          "name": "B6",
          "midi": 95,
          "time": 83.31395348836487,
          "velocity": 0.1968503937007874,
          "duration": 0.04651162790696617
        },
        {
          "name": "E7",
          "midi": 100,
          "time": 83.31395348836487,
          "velocity": 0.2677165354330709,
          "duration": 0.034883720930224626
        },
        {
          "name": "D4",
          "midi": 62,
          "time": 83.32558139534162,
          "velocity": 0.28346456692913385,
          "duration": 0.023255813953483084
        },
        {
          "name": "G3",
          "midi": 55,
          "time": 83.33720930231836,
          "velocity": 0.29133858267716534,
          "duration": 0.034883720930224626
        },
        {
          "name": "A#4",
          "midi": 70,
          "time": 83.33720930231836,
          "velocity": 0.4251968503937008,
          "duration": 0.37209302325574356
        },
        {
          "name": "G#5",
          "midi": 80,
          "time": 83.3488372092951,
          "velocity": 0.11811023622047244,
          "duration": 0.06976744186044925
        },
        {
          "name": "A#2",
          "midi": 46,
          "time": 83.36046511627184,
          "velocity": 0.31496062992125984,
          "duration": 0.034883720930224626
        },
        {
          "name": "A#3",
          "midi": 58,
          "time": 83.36046511627184,
          "velocity": 0.4015748031496063,
          "duration": 0.04651162790696617
        },
        {
          "name": "G#4",
          "midi": 68,
          "time": 83.36046511627184,
          "velocity": 0.3779527559055118,
          "duration": 0.023255813953483084
        },
        {
          "name": "C#5",
          "midi": 73,
          "time": 83.36046511627184,
          "velocity": 0.11023622047244094,
          "duration": 0.034883720930224626
        },
        {
          "name": "G#4",
          "midi": 68,
          "time": 83.39534883720206,
          "velocity": 0.3543307086614173,
          "duration": 0.20930232558136197
        },
        {
          "name": "D6",
          "midi": 86,
          "time": 83.39534883720206,
          "velocity": 0.18110236220472442,
          "duration": 0.06976744186044925
        },
        {
          "name": "D#3",
          "midi": 51,
          "time": 83.4069767441788,
          "velocity": 0.31496062992125984,
          "duration": 0.29069767441855277
        },
        {
          "name": "B3",
          "midi": 59,
          "time": 83.4069767441788,
          "velocity": 0.4566929133858268,
          "duration": 0.11627906976742963
        },
        {
          "name": "B5",
          "midi": 83,
          "time": 83.41860465115555,
          "velocity": 0.12598425196850394,
          "duration": 0.034883720930224626
        },
        {
          "name": "B6",
          "midi": 95,
          "time": 83.41860465115555,
          "velocity": 0.3779527559055118,
          "duration": 0.10465116279068809
        },
        {
          "name": "F#5",
          "midi": 78,
          "time": 83.43023255813229,
          "velocity": 0.09448818897637795,
          "duration": 0.034883720930224626
        },
        {
          "name": "F#6",
          "midi": 90,
          "time": 83.43023255813229,
          "velocity": 0.2755905511811024,
          "duration": 0.034883720930224626
        },
        {
          "name": "A6",
          "midi": 93,
          "time": 83.43023255813229,
          "velocity": 0.2992125984251969,
          "duration": 0.04651162790696617
        },
        {
          "name": "C#7",
          "midi": 97,
          "time": 83.44186046510903,
          "velocity": 0.3700787401574803,
          "duration": 0.09302325581394655
        },
        {
          "name": "F5",
          "midi": 77,
          "time": 83.46511627906251,
          "velocity": 0.12598425196850394,
          "duration": 0.20930232558136197
        },
        {
          "name": "A#3",
          "midi": 58,
          "time": 83.54651162789972,
          "velocity": 0.3464566929133858,
          "duration": 0.12790697674415696
        },
        {
          "name": "G5",
          "midi": 79,
          "time": 83.5697674418532,
          "velocity": 0.07086614173228346,
          "duration": 0.034883720930224626
        },
        {
          "name": "D#5",
          "midi": 75,
          "time": 83.59302325580668,
          "velocity": 0.1732283464566929,
          "duration": 0.034883720930224626
        },
        {
          "name": "G#4",
          "midi": 68,
          "time": 83.61627906976017,
          "velocity": 0.31496062992125984,
          "duration": 0.05813953488370771
        },
        {
          "name": "C#5",
          "midi": 73,
          "time": 83.65116279069039,
          "velocity": 0.23622047244094488,
          "duration": 0.04651162790696617
        },
        {
          "name": "A6",
          "midi": 93,
          "time": 83.66279069766713,
          "velocity": 0.4094488188976378,
          "duration": 0.279069767441797
        },
        {
          "name": "D#7",
          "midi": 99,
          "time": 83.66279069766713,
          "velocity": 0.33070866141732286,
          "duration": 0.2558139534883139
        },
        {
          "name": "F#5",
          "midi": 78,
          "time": 83.67441860464388,
          "velocity": 0.47244094488188976,
          "duration": 0.279069767441797
        },
        {
          "name": "F6",
          "midi": 89,
          "time": 83.67441860464388,
          "velocity": 0.2440944881889764,
          "duration": 0.8139534883719364
        },
        {
          "name": "B6",
          "midi": 95,
          "time": 83.67441860464388,
          "velocity": 0.3779527559055118,
          "duration": 0.2558139534883139
        },
        {
          "name": "C#7",
          "midi": 97,
          "time": 83.67441860464388,
          "velocity": 0.33858267716535434,
          "duration": 0.24418604651157239
        },
        {
          "name": "D1",
          "midi": 26,
          "time": 83.68604651162062,
          "velocity": 0.5590551181102362,
          "duration": 0.023255813953483084
        },
        {
          "name": "G#4",
          "midi": 68,
          "time": 83.68604651162062,
          "velocity": 0.2440944881889764,
          "duration": 0.023255813953483084
        },
        {
          "name": "B4",
          "midi": 71,
          "time": 83.69767441859736,
          "velocity": 0.4645669291338583,
          "duration": 0.023255813953483084
        },
        {
          "name": "E7",
          "midi": 100,
          "time": 83.69767441859736,
          "velocity": 0.15748031496062992,
          "duration": 0.05813953488370771
        },
        {
          "name": "C#1",
          "midi": 25,
          "time": 83.7093023255741,
          "velocity": 0.6535433070866141,
          "duration": 0.011627906976741542
        },
        {
          "name": "A2",
          "midi": 45,
          "time": 83.7093023255741,
          "velocity": 0.47244094488188976,
          "duration": 0.023255813953483084
        },
        {
          "name": "D#4",
          "midi": 63,
          "time": 83.7093023255741,
          "velocity": 0.33858267716535434,
          "duration": 0.20930232558134776
        },
        {
          "name": "G6",
          "midi": 91,
          "time": 83.7093023255741,
          "velocity": 0.08661417322834646,
          "duration": 0.10465116279067388
        },
        {
          "name": "D7",
          "midi": 98,
          "time": 83.7093023255741,
          "velocity": 0.07086614173228346,
          "duration": 0.04651162790696617
        },
        {
          "name": "D1",
          "midi": 26,
          "time": 83.72093023255084,
          "velocity": 0.6929133858267716,
          "duration": 0.011627906976741542
        },
        {
          "name": "A#4",
          "midi": 70,
          "time": 83.72093023255084,
          "velocity": 0.49606299212598426,
          "duration": 0.023255813953483084
        },
        {
          "name": "F#7",
          "midi": 102,
          "time": 83.72093023255084,
          "velocity": 0.08661417322834646,
          "duration": 0.04651162790696617
        },
        {
          "name": "C1",
          "midi": 24,
          "time": 83.73255813952758,
          "velocity": 0.7007874015748031,
          "duration": 0.011627906976741542
        },
        {
          "name": "F#4",
          "midi": 66,
          "time": 83.73255813952758,
          "velocity": 0.18110236220472442,
          "duration": 0.04651162790696617
        },
        {
          "name": "C#5",
          "midi": 73,
          "time": 83.73255813952758,
          "velocity": 0.13385826771653545,
          "duration": 0.06976744186044925
        },
        {
          "name": "B0",
          "midi": 23,
          "time": 83.74418604650432,
          "velocity": 0.7322834645669292,
          "duration": 1.232558139534646
        },
        {
          "name": "D#3",
          "midi": 51,
          "time": 83.74418604650432,
          "velocity": 0.47244094488188976,
          "duration": 0.04651162790696617
        },
        {
          "name": "B3",
          "midi": 59,
          "time": 83.75581395348107,
          "velocity": 0.2755905511811024,
          "duration": 0.034883720930224626
        },
        {
          "name": "A#4",
          "midi": 70,
          "time": 83.75581395348107,
          "velocity": 0.47244094488188976,
          "duration": 0.15116279069764005
        },
        {
          "name": "F#4",
          "midi": 66,
          "time": 83.79069767441129,
          "velocity": 0.13385826771653545,
          "duration": 0.10465116279067388
        },
        {
          "name": "D#3",
          "midi": 51,
          "time": 83.80232558138803,
          "velocity": 0.5196850393700787,
          "duration": 0.12790697674415696
        },
        {
          "name": "B3",
          "midi": 59,
          "time": 83.80232558138803,
          "velocity": 0.2992125984251969,
          "duration": 0.023255813953483084
        },
        {
          "name": "E7",
          "midi": 100,
          "time": 83.80232558138803,
          "velocity": 0.14173228346456693,
          "duration": 0.06976744186044925
        },
        {
          "name": "C#5",
          "midi": 73,
          "time": 83.81395348836477,
          "velocity": 0.14960629921259844,
          "duration": 0.0813953488371908
        },
        {
          "name": "F#2",
          "midi": 42,
          "time": 83.82558139534152,
          "velocity": 0.4330708661417323,
          "duration": 0.023255813953483084
        },
        {
          "name": "B5",
          "midi": 83,
          "time": 83.82558139534152,
          "velocity": 0.11023622047244094,
          "duration": 0.034883720930224626
        },
        {
          "name": "B3",
          "midi": 59,
          "time": 83.87209302324848,
          "velocity": 0.2755905511811024,
          "duration": 0.04651162790696617
        },
        {
          "name": "F#2",
          "midi": 42,
          "time": 83.9069767441787,
          "velocity": 0.4566929133858268,
          "duration": 0.023255813953483084
        },
        {
          "name": "B4",
          "midi": 71,
          "time": 83.9069767441787,
          "velocity": 0.4645669291338583,
          "duration": 0.034883720930224626
        },
        {
          "name": "A#3",
          "midi": 58,
          "time": 83.93023255813219,
          "velocity": 0.3700787401574803,
          "duration": 0.023255813953483084
        },
        {
          "name": "D#4",
          "midi": 63,
          "time": 83.93023255813219,
          "velocity": 0.2992125984251969,
          "duration": 0.19767441860463464
        },
        {
          "name": "C#5",
          "midi": 73,
          "time": 83.93023255813219,
          "velocity": 0.2047244094488189,
          "duration": 0.19767441860463464
        },
        {
          "name": "D#3",
          "midi": 51,
          "time": 83.94186046510893,
          "velocity": 0.5433070866141733,
          "duration": 0.22093023255811772
        },
        {
          "name": "A#4",
          "midi": 70,
          "time": 83.94186046510893,
          "velocity": 0.3700787401574803,
          "duration": 0.2441860465116008
        },
        {
          "name": "F#4",
          "midi": 66,
          "time": 83.95348837208567,
          "velocity": 0.2047244094488189,
          "duration": 0.23255813953485927
        },
        {
          "name": "F#2",
          "midi": 42,
          "time": 83.98837209301591,
          "velocity": 0.4566929133858268,
          "duration": 0.023255813953483084
        },
        {
          "name": "F#2",
          "midi": 42,
          "time": 84.06976744185312,
          "velocity": 0.44881889763779526,
          "duration": 0.023255813953483084
        },
        {
          "name": "G6",
          "midi": 91,
          "time": 84.06976744185312,
          "velocity": 0.12598425196850394,
          "duration": 0.04651162790696617
        },
        {
          "name": "B3",
          "midi": 59,
          "time": 84.0930232558066,
          "velocity": 0.2677165354330709,
          "duration": 0.023255813953483084
        },
        {
          "name": "A6",
          "midi": 93,
          "time": 84.0930232558066,
          "velocity": 0.2283464566929134,
          "duration": 0.05813953488370771
        },
        {
          "name": "F#2",
          "midi": 42,
          "time": 84.11627906976008,
          "velocity": 0.4409448818897638,
          "duration": 0.023255813953483084
        },
        {
          "name": "C5",
          "midi": 72,
          "time": 84.11627906976008,
          "velocity": 0.28346456692913385,
          "duration": 0.023255813953483084
        },
        {
          "name": "E7",
          "midi": 100,
          "time": 84.11627906976008,
          "velocity": 0.10236220472440945,
          "duration": 0.04651162790696617
        },
        {
          "name": "C#4",
          "midi": 61,
          "time": 84.12790697673682,
          "velocity": 0.3700787401574803,
          "duration": 0.023255813953483084
        },
        {
          "name": "B6",
          "midi": 95,
          "time": 84.12790697673682,
          "velocity": 0.18110236220472442,
          "duration": 0.034883720930224626
        },
        {
          "name": "D5",
          "midi": 74,
          "time": 84.13953488371357,
          "velocity": 0.2677165354330709,
          "duration": 0.023255813953483084
        },
        {
          "name": "C7",
          "midi": 96,
          "time": 84.13953488371357,
          "velocity": 0.10236220472440945,
          "duration": 0.034883720930224626
        },
        {
          "name": "C#7",
          "midi": 97,
          "time": 84.15116279069031,
          "velocity": 0.15748031496062992,
          "duration": 0.05813953488370771
        },
        {
          "name": "D#5",
          "midi": 75,
          "time": 84.16279069766705,
          "velocity": 0.2992125984251969,
          "duration": 0.023255813953483084
        },
        {
          "name": "D#7",
          "midi": 99,
          "time": 84.16279069766705,
          "velocity": 0.1889763779527559,
          "duration": 0.04651162790696617
        },
        {
          "name": "D#3",
          "midi": 51,
          "time": 84.17441860464379,
          "velocity": 0.49606299212598426,
          "duration": 0.023255813953483084
        },
        {
          "name": "C5",
          "midi": 72,
          "time": 84.17441860464379,
          "velocity": 0.44881889763779526,
          "duration": 0.05813953488370771
        },
        {
          "name": "D7",
          "midi": 98,
          "time": 84.17441860464379,
          "velocity": 0.1732283464566929,
          "duration": 0.05813953488370771
        },
        {
          "name": "E7",
          "midi": 100,
          "time": 84.17441860464379,
          "velocity": 0.25196850393700787,
          "duration": 0.05813953488370771
        },
        {
          "name": "F#2",
          "midi": 42,
          "time": 84.18604651162053,
          "velocity": 0.4566929133858268,
          "duration": 0.023255813953483084
        },
        {
          "name": "F4",
          "midi": 65,
          "time": 84.18604651162053,
          "velocity": 0.28346456692913385,
          "duration": 0.023255813953483084
        },
        {
          "name": "C7",
          "midi": 96,
          "time": 84.18604651162053,
          "velocity": 0.25984251968503935,
          "duration": 0.04651162790696617
        },
        {
          "name": "G5",
          "midi": 79,
          "time": 84.19767441859727,
          "velocity": 0.08661417322834646,
          "duration": 0.034883720930224626
        },
        {
          "name": "D#3",
          "midi": 51,
          "time": 84.20930232557401,
          "velocity": 0.48031496062992124,
          "duration": 0.023255813953483084
        },
        {
          "name": "C4",
          "midi": 60,
          "time": 84.20930232557401,
          "velocity": 0.2755905511811024,
          "duration": 0.023255813953483084
        },
        {
          "name": "G6",
          "midi": 91,
          "time": 84.20930232557401,
          "velocity": 0.11023622047244094,
          "duration": 0.04651162790696617
        },
        {
          "name": "F4",
          "midi": 65,
          "time": 84.22093023255076,
          "velocity": 0.3228346456692913,
          "duration": 0.034883720930224626
        },
        {
          "name": "A#4",
          "midi": 70,
          "time": 84.22093023255076,
          "velocity": 0.4330708661417323,
          "duration": 0.3255813953487632
        },
        {
          "name": "D#7",
          "midi": 99,
          "time": 84.22093023255076,
          "velocity": 0.33070866141732286,
          "duration": 0.19767441860460622
        },
        {
          "name": "F#2",
          "midi": 42,
          "time": 84.2325581395275,
          "velocity": 0.44881889763779526,
          "duration": 0.05813953488370771
        },
        {
          "name": "B3",
          "midi": 59,
          "time": 84.2325581395275,
          "velocity": 0.4015748031496063,
          "duration": 0.10465116279067388
        },
        {
          "name": "C#5",
          "midi": 73,
          "time": 84.2325581395275,
          "velocity": 0.09448818897637795,
          "duration": 0.11627906976741542
        },
        {
          "name": "D#4",
          "midi": 63,
          "time": 84.24418604650424,
          "velocity": 0.2992125984251969,
          "duration": 0.034883720930224626
        },
        {
          "name": "A6",
          "midi": 93,
          "time": 84.24418604650424,
          "velocity": 0.4094488188976378,
          "duration": 0.1395348837208985
        },
        {
          "name": "B6",
          "midi": 95,
          "time": 84.26744186045772,
          "velocity": 0.16535433070866143,
          "duration": 0.04651162790696617
        },
        {
          "name": "D#3",
          "midi": 51,
          "time": 84.27906976743446,
          "velocity": 0.4645669291338583,
          "duration": 0.04651162790696617
        },
        {
          "name": "F4",
          "midi": 65,
          "time": 84.27906976743446,
          "velocity": 0.2992125984251969,
          "duration": 0.034883720930224626
        },
        {
          "name": "F#6",
          "midi": 90,
          "time": 84.27906976743446,
          "velocity": 0.10236220472440945,
          "duration": 0.05813953488370771
        },
        {
          "name": "C6",
          "midi": 84,
          "time": 84.2906976744112,
          "velocity": 0.13385826771653545,
          "duration": 0.26744186046505547
        },
        {
          "name": "D3",
          "midi": 50,
          "time": 84.32558139534143,
          "velocity": 0.4409448818897638,
          "duration": 0.023255813953483084
        },
        {
          "name": "A#3",
          "midi": 58,
          "time": 84.33720930231817,
          "velocity": 0.4015748031496063,
          "duration": 0.10465116279067388
        },
        {
          "name": "G6",
          "midi": 91,
          "time": 84.33720930231817,
          "velocity": 0.11811023622047244,
          "duration": 0.04651162790696617
        },
        {
          "name": "B6",
          "midi": 95,
          "time": 84.33720930231817,
          "velocity": 0.2755905511811024,
          "duration": 0.034883720930224626
        },
        {
          "name": "D7",
          "midi": 98,
          "time": 84.33720930231817,
          "velocity": 0.33070866141732286,
          "duration": 0.06976744186044925
        },
        {
          "name": "E7",
          "midi": 100,
          "time": 84.33720930231817,
          "velocity": 0.23622047244094488,
          "duration": 0.0813953488371908
        },
        {
          "name": "E6",
          "midi": 88,
          "time": 84.34883720929491,
          "velocity": 0.13385826771653545,
          "duration": 0.034883720930224626
        },
        {
          "name": "F#6",
          "midi": 90,
          "time": 84.34883720929491,
          "velocity": 0.1968503937007874,
          "duration": 0.04651162790696617
        },
        {
          "name": "A#6",
          "midi": 94,
          "time": 84.34883720929491,
          "velocity": 0.30708661417322836,
          "duration": 0.06976744186044925
        },
        {
          "name": "C7",
          "midi": 96,
          "time": 84.34883720929491,
          "velocity": 0.2440944881889764,
          "duration": 0.05813953488370771
        },
        {
          "name": "C#7",
          "midi": 97,
          "time": 84.34883720929491,
          "velocity": 0.2992125984251969,
          "duration": 0.06976744186044925
        },
        {
          "name": "F7",
          "midi": 101,
          "time": 84.34883720929491,
          "velocity": 0.29133858267716534,
          "duration": 0.0813953488371908
        },
        {
          "name": "F#7",
          "midi": 102,
          "time": 84.34883720929491,
          "velocity": 0.2204724409448819,
          "duration": 0.05813953488370771
        },
        {
          "name": "G7",
          "midi": 103,
          "time": 84.34883720929491,
          "velocity": 0.1732283464566929,
          "duration": 0.06976744186044925
        },
        {
          "name": "F#2",
          "midi": 42,
          "time": 84.36046511627166,
          "velocity": 0.4409448818897638,
          "duration": 0.023255813953483084
        },
        {
          "name": "C#5",
          "midi": 73,
          "time": 84.36046511627166,
          "velocity": 0.1732283464566929,
          "duration": 0.2209302325580893
        },
        {
          "name": "G#6",
          "midi": 92,
          "time": 84.38372093022514,
          "velocity": 0.2283464566929134,
          "duration": 0.05813953488370771
        },
        {
          "name": "F#2",
          "midi": 42,
          "time": 84.39534883720188,
          "velocity": 0.4251968503937008,
          "duration": 0.034883720930224626
        },
        {
          "name": "F4",
          "midi": 65,
          "time": 84.40697674417862,
          "velocity": 0.31496062992125984,
          "duration": 0.034883720930224626
        },
        {
          "name": "D#4",
          "midi": 63,
          "time": 84.4302325581321,
          "velocity": 0.30708661417322836,
          "duration": 0.034883720930224626
        },
        {
          "name": "D3",
          "midi": 50,
          "time": 84.45348837208559,
          "velocity": 0.4015748031496063,
          "duration": 0.023255813953483084
        },
        {
          "name": "F4",
          "midi": 65,
          "time": 84.45348837208559,
          "velocity": 0.2992125984251969,
          "duration": 0.04651162790696617
        },
        {
          "name": "D#5",
          "midi": 75,
          "time": 84.46511627906233,
          "velocity": 0.16535433070866143,
          "duration": 0.09302325581393234
        },
        {
          "name": "D#4",
          "midi": 63,
          "time": 84.47674418603907,
          "velocity": 0.25984251968503935,
          "duration": 0.023255813953483084
        },
        {
          "name": "A#3",
          "midi": 58,
          "time": 84.48837209301581,
          "velocity": 0.3858267716535433,
          "duration": 0.05813953488370771
        },
        {
          "name": "A#6",
          "midi": 94,
          "time": 84.48837209301581,
          "velocity": 0.25984251968503935,
          "duration": 0.05813953488370771
        },
        {
          "name": "D6",
          "midi": 86,
          "time": 84.49999999999255,
          "velocity": 0.29133858267716534,
          "duration": 0.034883720930224626
        },
        {
          "name": "F6",
          "midi": 89,
          "time": 84.49999999999255,
          "velocity": 0.3228346456692913,
          "duration": 0.19767441860460622
        },
        {
          "name": "F4",
          "midi": 65,
          "time": 84.5116279069693,
          "velocity": 0.31496062992125984,
          "duration": 0.034883720930224626
        },
        {
          "name": "G6",
          "midi": 91,
          "time": 84.5116279069693,
          "velocity": 0.08661417322834646,
          "duration": 0.05813953488370771
        },
        {
          "name": "G#6",
          "midi": 92,
          "time": 84.5116279069693,
          "velocity": 0.15748031496062992,
          "duration": 0.034883720930224626
        },
        {
          "name": "D#4",
          "midi": 63,
          "time": 84.53488372092278,
          "velocity": 0.3700787401574803,
          "duration": 0.45348837209293436
        },
        {
          "name": "F#5",
          "midi": 78,
          "time": 84.53488372092278,
          "velocity": 0.2204724409448819,
          "duration": 0.17441860465112313
        },
        {
          "name": "F#6",
          "midi": 90,
          "time": 84.53488372092278,
          "velocity": 0.2992125984251969,
          "duration": 0.17441860465112313
        },
        {
          "name": "A6",
          "midi": 93,
          "time": 84.53488372092278,
          "velocity": 0.4094488188976378,
          "duration": 0.10465116279067388
        },
        {
          "name": "B6",
          "midi": 95,
          "time": 84.53488372092278,
          "velocity": 0.2204724409448819,
          "duration": 0.0813953488371908
        },
        {
          "name": "B3",
          "midi": 59,
          "time": 84.54651162789952,
          "velocity": 0.3700787401574803,
          "duration": 0.1627906976743816
        },
        {
          "name": "B4",
          "midi": 71,
          "time": 84.54651162789952,
          "velocity": 0.49606299212598426,
          "duration": 0.0813953488371908
        },
        {
          "name": "F#2",
          "midi": 42,
          "time": 84.55813953487626,
          "velocity": 0.3858267716535433,
          "duration": 0.023255813953483084
        },
        {
          "name": "D#7",
          "midi": 99,
          "time": 84.58139534882974,
          "velocity": 0.1968503937007874,
          "duration": 0.04651162790696617
        },
        {
          "name": "C#5",
          "midi": 73,
          "time": 84.59302325580649,
          "velocity": 0.11811023622047244,
          "duration": 0.034883720930224626
        },
        {
          "name": "A#5",
          "midi": 82,
          "time": 84.60465116278323,
          "velocity": 0.14960629921259844,
          "duration": 0.0813953488371908
        },
        {
          "name": "F#4",
          "midi": 66,
          "time": 84.62790697673671,
          "velocity": 0.30708661417322836,
          "duration": 0.37209302325574356
        },
        {
          "name": "A#4",
          "midi": 70,
          "time": 84.62790697673671,
          "velocity": 0.41732283464566927,
          "duration": 0.023255813953483084
        },
        {
          "name": "C#5",
          "midi": 73,
          "time": 84.63953488371345,
          "velocity": 0.11811023622047244,
          "duration": 0.24418604651157239
        },
        {
          "name": "A#4",
          "midi": 70,
          "time": 84.66279069766694,
          "velocity": 0.3700787401574803,
          "duration": 0.023255813953483084
        },
        {
          "name": "B4",
          "midi": 71,
          "time": 84.67441860464368,
          "velocity": 0.3937007874015748,
          "duration": 0.023255813953483084
        },
        {
          "name": "A#4",
          "midi": 70,
          "time": 84.69767441859716,
          "velocity": 0.5354330708661418,
          "duration": 0.19767441860460622
        },
        {
          "name": "G#6",
          "midi": 92,
          "time": 84.69767441859716,
          "velocity": 0.31496062992125984,
          "duration": 0.06976744186044925
        },
        {
          "name": "A#3",
          "midi": 58,
          "time": 84.7093023255739,
          "velocity": 0.2992125984251969,
          "duration": 0.023255813953483084
        },
        {
          "name": "F5",
          "midi": 77,
          "time": 84.7093023255739,
          "velocity": 0.15748031496062992,
          "duration": 0.0813953488371908
        },
        {
          "name": "F#2",
          "midi": 42,
          "time": 84.72093023255064,
          "velocity": 0.3464566929133858,
          "duration": 0.023255813953483084
        },
        {
          "name": "A#3",
          "midi": 58,
          "time": 84.74418604650413,
          "velocity": 0.3779527559055118,
          "duration": 0.05813953488370771
        },
        {
          "name": "F6",
          "midi": 89,
          "time": 84.75581395348087,
          "velocity": 0.1889763779527559,
          "duration": 0.2790697674418112
        },
        {
          "name": "G6",
          "midi": 91,
          "time": 84.76744186045761,
          "velocity": 0.11811023622047244,
          "duration": 0.05813953488370771
        },
        {
          "name": "A3",
          "midi": 57,
          "time": 84.80232558138783,
          "velocity": 0.36220472440944884,
          "duration": 0.023255813953483084
        },
        {
          "name": "E3",
          "midi": 52,
          "time": 84.82558139534132,
          "velocity": 0.3543307086614173,
          "duration": 0.023255813953483084
        },
        {
          "name": "A#3",
          "midi": 58,
          "time": 84.87209302324828,
          "velocity": 0.4251968503937008,
          "duration": 0.023255813953483084
        },
        {
          "name": "F#2",
          "midi": 42,
          "time": 84.88372093022502,
          "velocity": 0.29133858267716534,
          "duration": 0.023255813953483084
        },
        {
          "name": "B3",
          "midi": 59,
          "time": 84.89534883720177,
          "velocity": 0.4409448818897638,
          "duration": 0.10465116279068809
        },
        {
          "name": "B4",
          "midi": 71,
          "time": 84.89534883720177,
          "velocity": 0.5275590551181102,
          "duration": 0.10465116279068809
        },
        {
          "name": "C#5",
          "midi": 73,
          "time": 84.90697674417851,
          "velocity": 0.14960629921259844,
          "duration": 0.06976744186046346
        },
        {
          "name": "F#3",
          "midi": 54,
          "time": 84.94186046510875,
          "velocity": 0.33858267716535434,
          "duration": 0.04651162790696617
        },
        {
          "name": "B6",
          "midi": 95,
          "time": 84.95348837208549,
          "velocity": 0.28346456692913385,
          "duration": 0.10465116279067388
        },
        {
          "name": "C1",
          "midi": 24,
          "time": 84.97674418603897,
          "velocity": 0.5905511811023622,
          "duration": 0.011627906976741542
        },
        {
          "name": "C#7",
          "midi": 97,
          "time": 84.97674418603897,
          "velocity": 0.2992125984251969,
          "duration": 0.09302325581393234
        },
        {
          "name": "E7",
          "midi": 100,
          "time": 84.97674418603897,
          "velocity": 0.2440944881889764,
          "duration": 0.05813953488370771
        },
        {
          "name": "B0",
          "midi": 23,
          "time": 84.98837209301571,
          "velocity": 0.5826771653543307,
          "duration": 0.47674418604641744
        },
        {
          "name": "E4",
          "midi": 64,
          "time": 84.98837209301571,
          "velocity": 0.25196850393700787,
          "duration": 0.023255813953483084
        },
        {
          "name": "D6",
          "midi": 86,
          "time": 84.98837209301571,
          "velocity": 0.15748031496062992,
          "duration": 0.05813953488370771
        },
        {
          "name": "A6",
          "midi": 93,
          "time": 84.98837209301571,
          "velocity": 0.28346456692913385,
          "duration": 0.034883720930224626
        },
        {
          "name": "A#6",
          "midi": 94,
          "time": 84.98837209301571,
          "velocity": 0.28346456692913385,
          "duration": 0.1627906976743816
        },
        {
          "name": "D7",
          "midi": 98,
          "time": 84.98837209301571,
          "velocity": 0.3543307086614173,
          "duration": 0.05813953488370771
        },
        {
          "name": "D#7",
          "midi": 99,
          "time": 84.98837209301571,
          "velocity": 0.3543307086614173,
          "duration": 0.10465116279067388
        },
        {
          "name": "F7",
          "midi": 101,
          "time": 84.98837209301571,
          "velocity": 0.2283464566929134,
          "duration": 0.279069767441797
        },
        {
          "name": "G7",
          "midi": 103,
          "time": 84.98837209301571,
          "velocity": 0.12598425196850394,
          "duration": 0.06976744186044925
        },
        {
          "name": "F#3",
          "midi": 54,
          "time": 84.99999999999245,
          "velocity": 0.3228346456692913,
          "duration": 0.19767441860460622
        },
        {
          "name": "A#4",
          "midi": 70,
          "time": 84.99999999999245,
          "velocity": 0.5118110236220472,
          "duration": 0.4069767441859682
        },
        {
          "name": "C#5",
          "midi": 73,
          "time": 84.99999999999245,
          "velocity": 0.14960629921259844,
          "duration": 0.2209302325580893
        },
        {
          "name": "F5",
          "midi": 77,
          "time": 84.99999999999245,
          "velocity": 0.2440944881889764,
          "duration": 0.3837209302324851
        },
        {
          "name": "F#6",
          "midi": 90,
          "time": 84.99999999999245,
          "velocity": 0.2047244094488189,
          "duration": 0.04651162790696617
        },
        {
          "name": "G#6",
          "midi": 92,
          "time": 84.99999999999245,
          "velocity": 0.25984251968503935,
          "duration": 0.04651162790696617
        },
        {
          "name": "F#7",
          "midi": 102,
          "time": 84.99999999999245,
          "velocity": 0.2047244094488189,
          "duration": 0.15116279069764005
        },
        {
          "name": "C7",
          "midi": 96,
          "time": 85.0116279069692,
          "velocity": 0.25196850393700787,
          "duration": 0.11627906976741542
        },
        {
          "name": "G4",
          "midi": 67,
          "time": 85.03488372092268,
          "velocity": 0.25196850393700787,
          "duration": 0.023255813953483084
        },
        {
          "name": "A#3",
          "midi": 58,
          "time": 85.04651162789942,
          "velocity": 0.1968503937007874,
          "duration": 0.04651162790696617
        },
        {
          "name": "G#4",
          "midi": 68,
          "time": 85.05813953487616,
          "velocity": 0.29133858267716534,
          "duration": 0.023255813953483084
        },
        {
          "name": "D7",
          "midi": 98,
          "time": 85.05813953487616,
          "velocity": 0.14173228346456693,
          "duration": 0.0813953488371908
        },
        {
          "name": "G#4",
          "midi": 68,
          "time": 85.09302325580639,
          "velocity": 0.2755905511811024,
          "duration": 0.04651162790696617
        },
        {
          "name": "G#6",
          "midi": 92,
          "time": 85.09302325580639,
          "velocity": 0.25984251968503935,
          "duration": 0.0813953488371908
        },
        {
          "name": "E7",
          "midi": 100,
          "time": 85.09302325580639,
          "velocity": 0.31496062992125984,
          "duration": 0.09302325581393234
        },
        {
          "name": "D6",
          "midi": 86,
          "time": 85.11627906975987,
          "velocity": 0.3543307086614173,
          "duration": 0.1395348837208985
        },
        {
          "name": "D#6",
          "midi": 87,
          "time": 85.12790697673661,
          "velocity": 0.11811023622047244,
          "duration": 0.29069767441855277
        },
        {
          "name": "F6",
          "midi": 89,
          "time": 85.12790697673661,
          "velocity": 0.28346456692913385,
          "duration": 0.06976744186044925
        },
        {
          "name": "G#4",
          "midi": 68,
          "time": 85.1511627906901,
          "velocity": 0.2677165354330709,
          "duration": 0.04651162790696617
        },
        {
          "name": "A#3",
          "midi": 58,
          "time": 85.18604651162032,
          "velocity": 0.3700787401574803,
          "duration": 0.2790697674418112
        },
        {
          "name": "F3",
          "midi": 53,
          "time": 85.19767441859706,
          "velocity": 0.33070866141732286,
          "duration": 0.23255813953484505
        },
        {
          "name": "G#4",
          "midi": 68,
          "time": 85.2093023255738,
          "velocity": 0.2755905511811024,
          "duration": 0.023255813953483084
        },
        {
          "name": "G#4",
          "midi": 68,
          "time": 85.29069767441099,
          "velocity": 0.3464566929133858,
          "duration": 0.06976744186046346
        },
        {
          "name": "G4",
          "midi": 67,
          "time": 85.36046511627146,
          "velocity": 0.3464566929133858,
          "duration": 0.023255813953483084
        },
        {
          "name": "D#5",
          "midi": 75,
          "time": 85.36046511627146,
          "velocity": 0.08661417322834646,
          "duration": 0.034883720930224626
        },
        {
          "name": "A5",
          "midi": 81,
          "time": 85.36046511627146,
          "velocity": 0.09448818897637795,
          "duration": 0.04651162790696617
        },
        {
          "name": "A#6",
          "midi": 94,
          "time": 85.36046511627146,
          "velocity": 0.2125984251968504,
          "duration": 0.034883720930224626
        },
        {
          "name": "B6",
          "midi": 95,
          "time": 85.36046511627146,
          "velocity": 0.2125984251968504,
          "duration": 0.05813953488370771
        },
        {
          "name": "C7",
          "midi": 96,
          "time": 85.36046511627146,
          "velocity": 0.15748031496062992,
          "duration": 0.034883720930224626
        },
        {
          "name": "C#7",
          "midi": 97,
          "time": 85.36046511627146,
          "velocity": 0.14960629921259844,
          "duration": 0.04651162790696617
        },
        {
          "name": "D7",
          "midi": 98,
          "time": 85.36046511627146,
          "velocity": 0.1889763779527559,
          "duration": 0.034883720930224626
        },
        {
          "name": "D#7",
          "midi": 99,
          "time": 85.3720930232482,
          "velocity": 0.13385826771653545,
          "duration": 0.05813953488370771
        },
        {
          "name": "A2",
          "midi": 45,
          "time": 85.38372093022494,
          "velocity": 0.25984251968503935,
          "duration": 0.034883720930224626
        },
        {
          "name": "G#4",
          "midi": 68,
          "time": 85.38372093022494,
          "velocity": 0.3543307086614173,
          "duration": 0.034883720930224626
        },
        {
          "name": "B5",
          "midi": 83,
          "time": 85.38372093022494,
          "velocity": 0.08661417322834646,
          "duration": 0.034883720930224626
        },
        {
          "name": "B4",
          "midi": 71,
          "time": 85.40697674417842,
          "velocity": 0.1968503937007874,
          "duration": 0.034883720930224626
        },
        {
          "name": "F6",
          "midi": 89,
          "time": 85.40697674417842,
          "velocity": 0.11023622047244094,
          "duration": 0.04651162790696617
        },
        {
          "name": "A6",
          "midi": 93,
          "time": 85.40697674417842,
          "velocity": 0.25196850393700787,
          "duration": 0.1395348837208985
        },
        {
          "name": "F7",
          "midi": 101,
          "time": 85.41860465115516,
          "velocity": 0.2204724409448819,
          "duration": 0.1395348837208985
        },
        {
          "name": "D#3",
          "midi": 51,
          "time": 85.4302325581319,
          "velocity": 0.3464566929133858,
          "duration": 0.19767441860460622
        },
        {
          "name": "F5",
          "midi": 77,
          "time": 85.4302325581319,
          "velocity": 0.48031496062992124,
          "duration": 0.17441860465112313
        },
        {
          "name": "G5",
          "midi": 79,
          "time": 85.4302325581319,
          "velocity": 0.07874015748031496,
          "duration": 0.05813953488370771
        },
        {
          "name": "C7",
          "midi": 96,
          "time": 85.4302325581319,
          "velocity": 0.3464566929133858,
          "duration": 0.17441860465112313
        },
        {
          "name": "G#4",
          "midi": 68,
          "time": 85.44186046510865,
          "velocity": 0.30708661417322836,
          "duration": 0.023255813953483084
        },
        {
          "name": "A4",
          "midi": 69,
          "time": 85.46511627906213,
          "velocity": 0.2992125984251969,
          "duration": 0.023255813953483084
        },
        {
          "name": "B0",
          "midi": 23,
          "time": 85.47674418603887,
          "velocity": 0.4094488188976378,
          "duration": 0.06976744186044925
        },
        {
          "name": "A#4",
          "midi": 70,
          "time": 85.47674418603887,
          "velocity": 0.5275590551181102,
          "duration": 0.279069767441797
        },
        {
          "name": "G#6",
          "midi": 92,
          "time": 85.47674418603887,
          "velocity": 0.1732283464566929,
          "duration": 0.11627906976741542
        },
        {
          "name": "D7",
          "midi": 98,
          "time": 85.47674418603887,
          "velocity": 0.2204724409448819,
          "duration": 0.1627906976743816
        },
        {
          "name": "E7",
          "midi": 100,
          "time": 85.47674418603887,
          "velocity": 0.2125984251968504,
          "duration": 0.15116279069764005
        },
        {
          "name": "A#3",
          "midi": 58,
          "time": 85.48837209301561,
          "velocity": 0.4094488188976378,
          "duration": 0.05813953488370771
        },
        {
          "name": "A#6",
          "midi": 94,
          "time": 85.48837209301561,
          "velocity": 0.2992125984251969,
          "duration": 0.10465116279067388
        },
        {
          "name": "D#7",
          "midi": 99,
          "time": 85.48837209301561,
          "velocity": 0.13385826771653545,
          "duration": 0.034883720930224626
        },
        {
          "name": "C6",
          "midi": 84,
          "time": 85.49999999999235,
          "velocity": 0.07086614173228346,
          "duration": 0.04651162790696617
        },
        {
          "name": "B6",
          "midi": 95,
          "time": 85.49999999999235,
          "velocity": 0.2204724409448819,
          "duration": 0.04651162790696617
        },
        {
          "name": "D5",
          "midi": 74,
          "time": 85.52325581394584,
          "velocity": 0.14173228346456693,
          "duration": 0.034883720930224626
        },
        {
          "name": "F#7",
          "midi": 102,
          "time": 85.52325581394584,
          "velocity": 0.11023622047244094,
          "duration": 0.04651162790696617
        },
        {
          "name": "B0",
          "midi": 23,
          "time": 85.55813953487606,
          "velocity": 0.3464566929133858,
          "duration": 0.09302325581393234
        },
        {
          "name": "A#3",
          "midi": 58,
          "time": 85.55813953487606,
          "velocity": 0.2204724409448819,
          "duration": 0.06976744186044925
        },
        {
          "name": "F5",
          "midi": 77,
          "time": 85.61627906975977,
          "velocity": 0.2047244094488189,
          "duration": 0.0813953488371908
        },
        {
          "name": "C#3",
          "midi": 49,
          "time": 85.62790697673651,
          "velocity": 0.2992125984251969,
          "duration": 0.2209302325580893
        },
        {
          "name": "G#4",
          "midi": 68,
          "time": 85.63953488371325,
          "velocity": 0.1889763779527559,
          "duration": 0.06976744186044925
        },
        {
          "name": "D#5",
          "midi": 75,
          "time": 85.66279069766674,
          "velocity": 0.13385826771653545,
          "duration": 0.034883720930224626
        },
        {
          "name": "C#5",
          "midi": 73,
          "time": 85.67441860464348,
          "velocity": 0.14173228346456693,
          "duration": 0.04651162790696617
        },
        {
          "name": "F5",
          "midi": 77,
          "time": 85.72093023255044,
          "velocity": 0.11811023622047244,
          "duration": 0.04651162790696617
        },
        {
          "name": "F#7",
          "midi": 102,
          "time": 85.73255813952719,
          "velocity": 0.18110236220472442,
          "duration": 0.1395348837208985
        },
        {
          "name": "G#4",
          "midi": 68,
          "time": 85.74418604650393,
          "velocity": 0.18110236220472442,
          "duration": 0.09302325581393234
        },
        {
          "name": "E7",
          "midi": 100,
          "time": 85.75581395348067,
          "velocity": 0.08661417322834646,
          "duration": 0.034883720930224626
        },
        {
          "name": "C4",
          "midi": 60,
          "time": 85.76744186045741,
          "velocity": 0.2992125984251969,
          "duration": 0.023255813953483084
        },
        {
          "name": "A#4",
          "midi": 70,
          "time": 85.76744186045741,
          "velocity": 0.31496062992125984,
          "duration": 0.034883720930224626
        },
        {
          "name": "C#7",
          "midi": 97,
          "time": 85.76744186045741,
          "velocity": 0.28346456692913385,
          "duration": 0.06976744186044925
        },
        {
          "name": "G7",
          "midi": 103,
          "time": 85.76744186045741,
          "velocity": 0.15748031496062992,
          "duration": 0.04651162790696617
        },
        {
          "name": "D#6",
          "midi": 87,
          "time": 85.77906976743415,
          "velocity": 0.3858267716535433,
          "duration": 1.4069767441858545
        },
        {
          "name": "C7",
          "midi": 96,
          "time": 85.77906976743415,
          "velocity": 0.09448818897637795,
          "duration": 0.034883720930224626
        },
        {
          "name": "D7",
          "midi": 98,
          "time": 85.77906976743415,
          "velocity": 0.2047244094488189,
          "duration": 0.034883720930224626
        },
        {
          "name": "A#3",
          "midi": 58,
          "time": 85.7906976744109,
          "velocity": 0.5354330708661418,
          "duration": 0.023255813953483084
        },
        {
          "name": "B3",
          "midi": 59,
          "time": 85.81395348836438,
          "velocity": 0.49606299212598426,
          "duration": 0.034883720930224626
        },
        {
          "name": "B6",
          "midi": 95,
          "time": 85.81395348836438,
          "velocity": 0.14960629921259844,
          "duration": 0.034883720930224626
        },
        {
          "name": "E5",
          "midi": 76,
          "time": 85.82558139534112,
          "velocity": 0.2755905511811024,
          "duration": 0.023255813953483084
        },
        {
          "name": "F#5",
          "midi": 78,
          "time": 85.82558139534112,
          "velocity": 0.28346456692913385,
          "duration": 0.023255813953483084
        },
        {
          "name": "G#6",
          "midi": 92,
          "time": 85.82558139534112,
          "velocity": 0.13385826771653545,
          "duration": 0.09302325581393234
        },
        {
          "name": "D6",
          "midi": 86,
          "time": 85.83720930231786,
          "velocity": 0.18110236220472442,
          "duration": 0.1627906976743816
        },
        {
          "name": "C7",
          "midi": 96,
          "time": 85.83720930231786,
          "velocity": 0.2440944881889764,
          "duration": 0.11627906976741542
        },
        {
          "name": "F#1",
          "midi": 30,
          "time": 85.8488372092946,
          "velocity": 0.6220472440944882,
          "duration": 0.011627906976741542
        },
        {
          "name": "F5",
          "midi": 77,
          "time": 85.8488372092946,
          "velocity": 0.44881889763779526,
          "duration": 0.30232558139532273
        },
        {
          "name": "A#5",
          "midi": 82,
          "time": 85.8488372092946,
          "velocity": 0.15748031496062992,
          "duration": 0.1395348837208985
        },
        {
          "name": "F1",
          "midi": 29,
          "time": 85.86046511627134,
          "velocity": 0.7086614173228346,
          "duration": 0.011627906976741542
        },
        {
          "name": "C#4",
          "midi": 61,
          "time": 85.86046511627134,
          "velocity": 0.2440944881889764,
          "duration": 0.034883720930224626
        },
        {
          "name": "G#4",
          "midi": 68,
          "time": 85.86046511627134,
          "velocity": 0.33070866141732286,
          "duration": 0.04651162790696617
        },
        {
          "name": "A#4",
          "midi": 70,
          "time": 85.86046511627134,
          "velocity": 0.3937007874015748,
          "duration": 0.09302325581393234
        },
        {
          "name": "G5",
          "midi": 79,
          "time": 85.86046511627134,
          "velocity": 0.12598425196850394,
          "duration": 0.05813953488370771
        },
        {
          "name": "A6",
          "midi": 93,
          "time": 85.86046511627134,
          "velocity": 0.2204724409448819,
          "duration": 0.05813953488370771
        },
        {
          "name": "E1",
          "midi": 28,
          "time": 85.87209302324808,
          "velocity": 0.7244094488188977,
          "duration": 0.011627906976741542
        },
        {
          "name": "G3",
          "midi": 55,
          "time": 85.87209302324808,
          "velocity": 0.4881889763779528,
          "duration": 0.05813953488370771
        },
        {
          "name": "C6",
          "midi": 84,
          "time": 85.87209302324808,
          "velocity": 0.07874015748031496,
          "duration": 0.034883720930224626
        },
        {
          "name": "D#1",
          "midi": 27,
          "time": 85.88372093022483,
          "velocity": 0.7480314960629921,
          "duration": 1.244186046511473
        },
        {
          "name": "F#7",
          "midi": 102,
          "time": 85.88372093022483,
          "velocity": 0.14960629921259844,
          "duration": 0.034883720930224626
        },
        {
          "name": "C4",
          "midi": 60,
          "time": 85.89534883720157,
          "velocity": 0.2992125984251969,
          "duration": 0.023255813953483084
        },
        {
          "name": "A2",
          "midi": 45,
          "time": 85.90697674417831,
          "velocity": 0.4094488188976378,
          "duration": 0.023255813953483084
        },
        {
          "name": "G#4",
          "midi": 68,
          "time": 85.91860465115505,
          "velocity": 0.3228346456692913,
          "duration": 0.3953488372092693
        },
        {
          "name": "F7",
          "midi": 101,
          "time": 85.91860465115505,
          "velocity": 0.14960629921259844,
          "duration": 0.034883720930224626
        },
        {
          "name": "A6",
          "midi": 93,
          "time": 85.93023255813179,
          "velocity": 0.1732283464566929,
          "duration": 0.05813953488370771
        },
        {
          "name": "G3",
          "midi": 55,
          "time": 85.94186046510853,
          "velocity": 0.5433070866141733,
          "duration": 0.46511627906973274
        },
        {
          "name": "A#3",
          "midi": 58,
          "time": 85.94186046510853,
          "velocity": 0.5275590551181102,
          "duration": 0.023255813953483084
        },
        {
          "name": "A#2",
          "midi": 46,
          "time": 85.95348837208527,
          "velocity": 0.4330708661417323,
          "duration": 0.32558139534882
        },
        {
          "name": "B4",
          "midi": 71,
          "time": 85.95348837208527,
          "velocity": 0.28346456692913385,
          "duration": 0.023255813953483084
        },
        {
          "name": "B3",
          "midi": 59,
          "time": 85.96511627906202,
          "velocity": 0.5275590551181102,
          "duration": 0.09302325581394655
        },
        {
          "name": "C#7",
          "midi": 97,
          "time": 85.97674418603876,
          "velocity": 0.28346456692913385,
          "duration": 0.081395348837205
        },
        {
          "name": "C7",
          "midi": 96,
          "time": 85.9883720930155,
          "velocity": 0.09448818897637795,
          "duration": 0.04651162790698038
        },
        {
          "name": "D#5",
          "midi": 75,
          "time": 86.03488372092248,
          "velocity": 0.1889763779527559,
          "duration": 0.034883720930224626
        },
        {
          "name": "A#3",
          "midi": 58,
          "time": 86.05813953487596,
          "velocity": 0.5196850393700787,
          "duration": 0.011627906976741542
        },
        {
          "name": "D5",
          "midi": 74,
          "time": 86.0697674418527,
          "velocity": 0.12598425196850394,
          "duration": 0.03488372093023884
        },
        {
          "name": "A#4",
          "midi": 70,
          "time": 86.10465116278294,
          "velocity": 0.12598425196850394,
          "duration": 0.03488372093023884
        },
        {
          "name": "A#4",
          "midi": 70,
          "time": 86.15116279068992,
          "velocity": 0.1968503937007874,
          "duration": 0.034883720930224626
        },
        {
          "name": "F5",
          "midi": 77,
          "time": 86.1744186046434,
          "velocity": 0.18110236220472442,
          "duration": 0.09302325581394655
        },
        {
          "name": "D6",
          "midi": 86,
          "time": 86.1744186046434,
          "velocity": 0.07086614173228346,
          "duration": 0.06976744186046346
        },
        {
          "name": "B4",
          "midi": 71,
          "time": 86.18604651162015,
          "velocity": 0.5433070866141733,
          "duration": 0.12790697674417117
        },
        {
          "name": "E7",
          "midi": 100,
          "time": 86.22093023255039,
          "velocity": 0.08661417322834646,
          "duration": 0.04651162790696617
        },
        {
          "name": "A#6",
          "midi": 94,
          "time": 86.23255813952713,
          "velocity": 0.14960629921259844,
          "duration": 0.034883720930224626
        },
        {
          "name": "E5",
          "midi": 76,
          "time": 86.24418604650387,
          "velocity": 0.11811023622047244,
          "duration": 0.034883720930224626
        },
        {
          "name": "B6",
          "midi": 95,
          "time": 86.24418604650387,
          "velocity": 0.2204724409448819,
          "duration": 0.04651162790696617
        },
        {
          "name": "D6",
          "midi": 86,
          "time": 86.25581395348061,
          "velocity": 0.2204724409448819,
          "duration": 0.1627906976743958
        },
        {
          "name": "A6",
          "midi": 93,
          "time": 86.25581395348061,
          "velocity": 0.2204724409448819,
          "duration": 0.05813953488370771
        },
        {
          "name": "C#7",
          "midi": 97,
          "time": 86.26744186045735,
          "velocity": 0.11023622047244094,
          "duration": 0.034883720930224626
        },
        {
          "name": "F5",
          "midi": 77,
          "time": 86.2790697674341,
          "velocity": 0.2755905511811024,
          "duration": 0.12790697674417117
        },
        {
          "name": "C7",
          "midi": 96,
          "time": 86.2790697674341,
          "velocity": 0.2125984251968504,
          "duration": 0.081395348837205
        },
        {
          "name": "E7",
          "midi": 100,
          "time": 86.2790697674341,
          "velocity": 0.16535433070866143,
          "duration": 0.09302325581394655
        },
        {
          "name": "A#2",
          "midi": 46,
          "time": 86.29069767441084,
          "velocity": 0.4330708661417323,
          "duration": 0.09302325581394655
        },
        {
          "name": "G#6",
          "midi": 92,
          "time": 86.29069767441084,
          "velocity": 0.2283464566929134,
          "duration": 0.12790697674417117
        },
        {
          "name": "A#6",
          "midi": 94,
          "time": 86.29069767441084,
          "velocity": 0.28346456692913385,
          "duration": 0.10465116279068809
        },
        {
          "name": "A#4",
          "midi": 70,
          "time": 86.31395348836432,
          "velocity": 0.5275590551181102,
          "duration": 0.03488372093023884
        },
        {
          "name": "B4",
          "midi": 71,
          "time": 86.34883720929456,
          "velocity": 0.5196850393700787,
          "duration": 0.034883720930224626
        },
        {
          "name": "F7",
          "midi": 101,
          "time": 86.3604651162713,
          "velocity": 0.11811023622047244,
          "duration": 0.034883720930224626
        },
        {
          "name": "A#4",
          "midi": 70,
          "time": 86.37209302324804,
          "velocity": 0.5039370078740157,
          "duration": 0.04651162790696617
        },
        {
          "name": "E7",
          "midi": 100,
          "time": 86.38372093022478,
          "velocity": 0.11023622047244094,
          "duration": 0.04651162790696617
        },
        {
          "name": "A#2",
          "midi": 46,
          "time": 86.39534883720152,
          "velocity": 0.4015748031496063,
          "duration": 0.11627906976741542
        },
        {
          "name": "B4",
          "midi": 71,
          "time": 86.40697674417827,
          "velocity": 0.4330708661417323,
          "duration": 0.034883720930224626
        },
        {
          "name": "G3",
          "midi": 55,
          "time": 86.41860465115501,
          "velocity": 0.4015748031496063,
          "duration": 0.06976744186044925
        },
        {
          "name": "A#3",
          "midi": 58,
          "time": 86.41860465115501,
          "velocity": 0.4566929133858268,
          "duration": 0.17441860465113734
        },
        {
          "name": "F5",
          "midi": 77,
          "time": 86.41860465115501,
          "velocity": 0.2677165354330709,
          "duration": 0.17441860465113734
        },
        {
          "name": "G#6",
          "midi": 92,
          "time": 86.43023255813175,
          "velocity": 0.31496062992125984,
          "duration": 0.11627906976741542
        },
        {
          "name": "A#4",
          "midi": 70,
          "time": 86.44186046510849,
          "velocity": 0.5354330708661418,
          "duration": 0.15116279069765426
        },
        {
          "name": "F6",
          "midi": 89,
          "time": 86.44186046510849,
          "velocity": 0.2677165354330709,
          "duration": 0.06976744186044925
        },
        {
          "name": "C7",
          "midi": 96,
          "time": 86.44186046510849,
          "velocity": 0.14960629921259844,
          "duration": 0.10465116279067388
        },
        {
          "name": "G#4",
          "midi": 68,
          "time": 86.46511627906197,
          "velocity": 0.2992125984251969,
          "duration": 0.1627906976743958
        },
        {
          "name": "D6",
          "midi": 86,
          "time": 86.48837209301546,
          "velocity": 0.2047244094488189,
          "duration": 0.04651162790696617
        },
        {
          "name": "A#2",
          "midi": 46,
          "time": 86.54651162789916,
          "velocity": 0.3700787401574803,
          "duration": 0.03488372093023884
        },
        {
          "name": "A3",
          "midi": 57,
          "time": 86.59302325580614,
          "velocity": 0.44881889763779526,
          "duration": 0.023255813953483084
        },
        {
          "name": "B4",
          "midi": 71,
          "time": 86.59302325580614,
          "velocity": 0.2755905511811024,
          "duration": 0.034883720930224626
        },
        {
          "name": "F5",
          "midi": 77,
          "time": 86.60465116278289,
          "velocity": 0.3228346456692913,
          "duration": 0.04651162790696617
        },
        {
          "name": "A#3",
          "midi": 58,
          "time": 86.61627906975963,
          "velocity": 0.4094488188976378,
          "duration": 0.034883720930224626
        },
        {
          "name": "A#5",
          "midi": 82,
          "time": 86.61627906975963,
          "velocity": 0.2677165354330709,
          "duration": 0.023255813953483084
        },
        {
          "name": "A#4",
          "midi": 70,
          "time": 86.62790697673637,
          "velocity": 0.4094488188976378,
          "duration": 0.023255813953483084
        },
        {
          "name": "D6",
          "midi": 86,
          "time": 86.62790697673637,
          "velocity": 0.09448818897637795,
          "duration": 0.04651162790696617
        },
        {
          "name": "G#4",
          "midi": 68,
          "time": 86.63953488371311,
          "velocity": 0.3228346456692913,
          "duration": 0.19767441860460622
        },
        {
          "name": "B5",
          "midi": 83,
          "time": 86.63953488371311,
          "velocity": 0.33858267716535434,
          "duration": 0.1627906976743816
        },
        {
          "name": "B3",
          "midi": 59,
          "time": 86.65116279068985,
          "velocity": 0.48031496062992124,
          "duration": 0.1627906976743816
        },
        {
          "name": "F#5",
          "midi": 78,
          "time": 86.65116279068985,
          "velocity": 0.28346456692913385,
          "duration": 0.18604651162786467
        },
        {
          "name": "F#6",
          "midi": 90,
          "time": 86.65116279068985,
          "velocity": 0.3464566929133858,
          "duration": 0.1627906976743816
        },
        {
          "name": "A#2",
          "midi": 46,
          "time": 86.67441860464334,
          "velocity": 0.33858267716535434,
          "duration": 0.034883720930224626
        },
        {
          "name": "A6",
          "midi": 93,
          "time": 86.67441860464334,
          "velocity": 0.31496062992125984,
          "duration": 0.12790697674415696
        },
        {
          "name": "G3",
          "midi": 55,
          "time": 86.69767441859682,
          "velocity": 0.3228346456692913,
          "duration": 0.04651162790696617
        },
        {
          "name": "D7",
          "midi": 98,
          "time": 86.69767441859682,
          "velocity": 0.3543307086614173,
          "duration": 0.06976744186044925
        },
        {
          "name": "E7",
          "midi": 100,
          "time": 86.69767441859682,
          "velocity": 0.2125984251968504,
          "duration": 0.09302325581393234
        },
        {
          "name": "D6",
          "midi": 86,
          "time": 86.70930232557356,
          "velocity": 0.08661417322834646,
          "duration": 0.05813953488370771
        },
        {
          "name": "A#6",
          "midi": 94,
          "time": 86.70930232557356,
          "velocity": 0.29133858267716534,
          "duration": 0.06976744186044925
        },
        {
          "name": "C7",
          "midi": 96,
          "time": 86.70930232557356,
          "velocity": 0.23622047244094488,
          "duration": 0.0813953488371908
        },
        {
          "name": "C#7",
          "midi": 97,
          "time": 86.70930232557356,
          "velocity": 0.29133858267716534,
          "duration": 0.10465116279067388
        },
        {
          "name": "F7",
          "midi": 101,
          "time": 86.70930232557356,
          "velocity": 0.29133858267716534,
          "duration": 0.09302325581393234
        },
        {
          "name": "E4",
          "midi": 64,
          "time": 86.7209302325503,
          "velocity": 0.31496062992125984,
          "duration": 0.034883720930224626
        },
        {
          "name": "A#4",
          "midi": 70,
          "time": 86.7209302325503,
          "velocity": 0.4881889763779528,
          "duration": 0.04651162790696617
        },
        {
          "name": "G7",
          "midi": 103,
          "time": 86.73255813952704,
          "velocity": 0.11811023622047244,
          "duration": 0.04651162790696617
        },
        {
          "name": "B4",
          "midi": 71,
          "time": 86.76744186045727,
          "velocity": 0.5275590551181102,
          "duration": 0.04651162790696617
        },
        {
          "name": "D#3",
          "midi": 51,
          "time": 86.77906976743401,
          "velocity": 0.3228346456692913,
          "duration": 0.04651162790696617
        },
        {
          "name": "G3",
          "midi": 55,
          "time": 86.77906976743401,
          "velocity": 0.30708661417322836,
          "duration": 0.023255813953483084
        },
        {
          "name": "A#3",
          "midi": 58,
          "time": 86.81395348836423,
          "velocity": 0.3858267716535433,
          "duration": 0.27906976744183964
        },
        {
          "name": "A#4",
          "midi": 70,
          "time": 86.81395348836423,
          "velocity": 0.49606299212598426,
          "duration": 0.2906976744185812
        },
        {
          "name": "D6",
          "midi": 86,
          "time": 86.81395348836423,
          "velocity": 0.2283464566929134,
          "duration": 0.10465116279067388
        },
        {
          "name": "F6",
          "midi": 89,
          "time": 86.81395348836423,
          "velocity": 0.11811023622047244,
          "duration": 0.0813953488371908
        },
        {
          "name": "F5",
          "midi": 77,
          "time": 86.83720930231772,
          "velocity": 0.1732283464566929,
          "duration": 0.25581395348835656
        },
        {
          "name": "C7",
          "midi": 96,
          "time": 86.84883720929446,
          "velocity": 0.13385826771653545,
          "duration": 0.0813953488371908
        },
        {
          "name": "D#3",
          "midi": 51,
          "time": 86.8604651162712,
          "velocity": 0.31496062992125984,
          "duration": 0.2674418604650981
        },
        {
          "name": "G#4",
          "midi": 68,
          "time": 86.87209302324794,
          "velocity": 0.28346456692913385,
          "duration": 0.023255813953483084
        },
        {
          "name": "G#4",
          "midi": 68,
          "time": 86.93023255813165,
          "velocity": 0.30708661417322836,
          "duration": 0.17441860465116577
        },
        {
          "name": "D6",
          "midi": 86,
          "time": 87.0465116278991,
          "velocity": 0.11023622047244094,
          "duration": 0.04651162790698038
        },
        {
          "name": "F#5",
          "midi": 78,
          "time": 87.09302325580607,
          "velocity": 0.2755905511811024,
          "duration": 0.11627906976741542
        },
        {
          "name": "B5",
          "midi": 83,
          "time": 87.09302325580607,
          "velocity": 0.2125984251968504,
          "duration": 0.10465116279067388
        },
        {
          "name": "B6",
          "midi": 95,
          "time": 87.09302325580607,
          "velocity": 0.2283464566929134,
          "duration": 0.04651162790696617
        },
        {
          "name": "C4",
          "midi": 60,
          "time": 87.10465116278282,
          "velocity": 0.3228346456692913,
          "duration": 0.023255813953483084
        },
        {
          "name": "B4",
          "midi": 71,
          "time": 87.10465116278282,
          "velocity": 0.5433070866141733,
          "duration": 0.09302325581393234
        },
        {
          "name": "F#6",
          "midi": 90,
          "time": 87.10465116278282,
          "velocity": 0.3700787401574803,
          "duration": 0.10465116279067388
        },
        {
          "name": "C1",
          "midi": 24,
          "time": 87.1279069767363,
          "velocity": 0.6299212598425197,
          "duration": 0.023255813953483084
        },
        {
          "name": "E3",
          "midi": 52,
          "time": 87.1279069767363,
          "velocity": 0.33070866141732286,
          "duration": 0.023255813953483084
        },
        {
          "name": "A#5",
          "midi": 82,
          "time": 87.1279069767363,
          "velocity": 0.1968503937007874,
          "duration": 0.04651162790696617
        },
        {
          "name": "D#4",
          "midi": 63,
          "time": 87.13953488371304,
          "velocity": 0.3464566929133858,
          "duration": 0.47674418604641744
        },
        {
          "name": "C#5",
          "midi": 73,
          "time": 87.13953488371304,
          "velocity": 0.2047244094488189,
          "duration": 0.1627906976743816
        },
        {
          "name": "A5",
          "midi": 81,
          "time": 87.13953488371304,
          "velocity": 0.10236220472440945,
          "duration": 0.034883720930224626
        },
        {
          "name": "F6",
          "midi": 89,
          "time": 87.13953488371304,
          "velocity": 0.12598425196850394,
          "duration": 0.04651162790696617
        },
        {
          "name": "D1",
          "midi": 26,
          "time": 87.15116279068978,
          "velocity": 0.6850393700787402,
          "duration": 0.011627906976741542
        },
        {
          "name": "F#4",
          "midi": 66,
          "time": 87.15116279068978,
          "velocity": 0.1968503937007874,
          "duration": 0.20930232558134776
        },
        {
          "name": "C#1",
          "midi": 25,
          "time": 87.16279069766652,
          "velocity": 0.7007874015748031,
          "duration": 0.011627906976741542
        },
        {
          "name": "B0",
          "midi": 23,
          "time": 87.17441860464326,
          "velocity": 0.7244094488188977,
          "duration": 0.09302325581393234
        },
        {
          "name": "F#3",
          "midi": 54,
          "time": 87.17441860464326,
          "velocity": 0.4566929133858268,
          "duration": 0.023255813953483084
        },
        {
          "name": "A#3",
          "midi": 58,
          "time": 87.18604651162,
          "velocity": 0.41732283464566927,
          "duration": 0.034883720930224626
        },
        {
          "name": "D#3",
          "midi": 51,
          "time": 87.19767441859675,
          "velocity": 0.5275590551181102,
          "duration": 0.17441860465112313
        },
        {
          "name": "F6",
          "midi": 89,
          "time": 87.19767441859675,
          "velocity": 0.36220472440944884,
          "duration": 0.33720930232551893
        },
        {
          "name": "A#4",
          "midi": 70,
          "time": 87.20930232557349,
          "velocity": 0.5354330708661418,
          "duration": 0.3255813953487774
        },
        {
          "name": "A3",
          "midi": 57,
          "time": 87.22093023255023,
          "velocity": 0.4330708661417323,
          "duration": 0.023255813953483084
        },
        {
          "name": "A#3",
          "midi": 58,
          "time": 87.24418604650371,
          "velocity": 0.4409448818897638,
          "duration": 0.05813953488370771
        },
        {
          "name": "G6",
          "midi": 91,
          "time": 87.24418604650371,
          "velocity": 0.1968503937007874,
          "duration": 0.034883720930224626
        },
        {
          "name": "F5",
          "midi": 77,
          "time": 87.25581395348046,
          "velocity": 0.23622047244094488,
          "duration": 0.0813953488371908
        },
        {
          "name": "A#0",
          "midi": 22,
          "time": 87.2674418604572,
          "velocity": 0.7165354330708661,
          "duration": 0.011627906976741542
        },
        {
          "name": "D6",
          "midi": 86,
          "time": 87.2674418604572,
          "velocity": 0.15748031496062992,
          "duration": 0.0813953488371908
        },
        {
          "name": "G#6",
          "midi": 92,
          "time": 87.2674418604572,
          "velocity": 0.15748031496062992,
          "duration": 0.04651162790696617
        },
        {
          "name": "B0",
          "midi": 23,
          "time": 87.27906976743394,
          "velocity": 0.7322834645669292,
          "duration": 0.06976744186044925
        },
        {
          "name": "C#5",
          "midi": 73,
          "time": 87.31395348836416,
          "velocity": 0.14173228346456693,
          "duration": 0.19767441860462043
        },
        {
          "name": "A#3",
          "midi": 58,
          "time": 87.3255813953409,
          "velocity": 0.23622047244094488,
          "duration": 0.023255813953483084
        },
        {
          "name": "A#0",
          "midi": 22,
          "time": 87.34883720929439,
          "velocity": 0.7244094488188977,
          "duration": 0.011627906976741542
        },
        {
          "name": "B0",
          "midi": 23,
          "time": 87.36046511627113,
          "velocity": 0.7244094488188977,
          "duration": 0.011627906976741542
        },
        {
          "name": "C1",
          "midi": 24,
          "time": 87.37209302324787,
          "velocity": 0.7244094488188977,
          "duration": 0.011627906976741542
        },
        {
          "name": "F#4",
          "midi": 66,
          "time": 87.37209302324787,
          "velocity": 0.14173228346456693,
          "duration": 0.1627906976743958
        },
        {
          "name": "B0",
          "midi": 23,
          "time": 87.38372093022461,
          "velocity": 0.7244094488188977,
          "duration": 1.0697674418602787
        },
        {
          "name": "D#3",
          "midi": 51,
          "time": 87.38372093022461,
          "velocity": 0.5354330708661418,
          "duration": 0.04651162790698038
        },
        {
          "name": "D3",
          "midi": 50,
          "time": 87.43023255813159,
          "velocity": 0.5196850393700787,
          "duration": 0.023255813953483084
        },
        {
          "name": "F#2",
          "midi": 42,
          "time": 87.45348837208508,
          "velocity": 0.4566929133858268,
          "duration": 0.023255813953483084
        },
        {
          "name": "D#3",
          "midi": 51,
          "time": 87.45348837208508,
          "velocity": 0.5118110236220472,
          "duration": 0.04651162790696617
        },
        {
          "name": "F#6",
          "midi": 90,
          "time": 87.4883720930153,
          "velocity": 0.36220472440944884,
          "duration": 0.09302325581393234
        },
        {
          "name": "D#3",
          "midi": 51,
          "time": 87.51162790696878,
          "velocity": 0.5039370078740157,
          "duration": 0.023255813953483084
        },
        {
          "name": "C4",
          "midi": 60,
          "time": 87.52325581394553,
          "velocity": 0.3779527559055118,
          "duration": 0.023255813953483084
        },
        {
          "name": "C#7",
          "midi": 97,
          "time": 87.52325581394553,
          "velocity": 0.16535433070866143,
          "duration": 0.034883720930224626
        },
        {
          "name": "F#2",
          "midi": 42,
          "time": 87.53488372092227,
          "velocity": 0.4645669291338583,
          "duration": 0.023255813953483084
        },
        {
          "name": "B4",
          "midi": 71,
          "time": 87.53488372092227,
          "velocity": 0.5196850393700787,
          "duration": 0.034883720930224626
        },
        {
          "name": "F#5",
          "midi": 78,
          "time": 87.53488372092227,
          "velocity": 0.2677165354330709,
          "duration": 0.04651162790696617
        },
        {
          "name": "A6",
          "midi": 93,
          "time": 87.53488372092227,
          "velocity": 0.3543307086614173,
          "duration": 0.034883720930224626
        },
        {
          "name": "B3",
          "midi": 59,
          "time": 87.54651162789901,
          "velocity": 0.2677165354330709,
          "duration": 0.034883720930224626
        },
        {
          "name": "F#4",
          "midi": 66,
          "time": 87.54651162789901,
          "velocity": 0.1732283464566929,
          "duration": 0.04651162790696617
        },
        {
          "name": "B6",
          "midi": 95,
          "time": 87.54651162789901,
          "velocity": 0.2047244094488189,
          "duration": 0.04651162790696617
        },
        {
          "name": "D#7",
          "midi": 99,
          "time": 87.54651162789901,
          "velocity": 0.14960629921259844,
          "duration": 0.04651162790696617
        },
        {
          "name": "F6",
          "midi": 89,
          "time": 87.55813953487575,
          "velocity": 0.3779527559055118,
          "duration": 0.2558139534883139
        },
        {
          "name": "F#2",
          "midi": 42,
          "time": 87.56976744185249,
          "velocity": 0.4409448818897638,
          "duration": 0.023255813953483084
        },
        {
          "name": "A#4",
          "midi": 70,
          "time": 87.56976744185249,
          "velocity": 0.49606299212598426,
          "duration": 0.5930232558138329
        },
        {
          "name": "G#6",
          "midi": 92,
          "time": 87.56976744185249,
          "velocity": 0.25984251968503935,
          "duration": 0.06976744186044925
        },
        {
          "name": "D7",
          "midi": 98,
          "time": 87.56976744185249,
          "velocity": 0.29133858267716534,
          "duration": 0.0813953488371908
        },
        {
          "name": "F5",
          "midi": 77,
          "time": 87.58139534882923,
          "velocity": 0.2283464566929134,
          "duration": 0.06976744186044925
        },
        {
          "name": "A#6",
          "midi": 94,
          "time": 87.58139534882923,
          "velocity": 0.36220472440944884,
          "duration": 0.06976744186044925
        },
        {
          "name": "C#5",
          "midi": 73,
          "time": 87.59302325580597,
          "velocity": 0.14960629921259844,
          "duration": 0.12790697674415696
        },
        {
          "name": "G6",
          "midi": 91,
          "time": 87.59302325580597,
          "velocity": 0.07086614173228346,
          "duration": 0.12790697674415696
        },
        {
          "name": "C7",
          "midi": 96,
          "time": 87.59302325580597,
          "velocity": 0.2047244094488189,
          "duration": 0.05813953488370771
        },
        {
          "name": "D#7",
          "midi": 99,
          "time": 87.60465116278272,
          "velocity": 0.2047244094488189,
          "duration": 0.034883720930224626
        },
        {
          "name": "F#2",
          "midi": 42,
          "time": 87.61627906975946,
          "velocity": 0.4330708661417323,
          "duration": 0.023255813953483084
        },
        {
          "name": "D#3",
          "midi": 51,
          "time": 87.61627906975946,
          "velocity": 0.47244094488188976,
          "duration": 0.0813953488371908
        },
        {
          "name": "C6",
          "midi": 84,
          "time": 87.61627906975946,
          "velocity": 0.07086614173228346,
          "duration": 0.1627906976743816
        },
        {
          "name": "E4",
          "midi": 64,
          "time": 87.6279069767362,
          "velocity": 0.30708661417322836,
          "duration": 0.023255813953483084
        },
        {
          "name": "D#5",
          "midi": 75,
          "time": 87.63953488371294,
          "velocity": 0.11811023622047244,
          "duration": 0.12790697674415696
        },
        {
          "name": "F4",
          "midi": 65,
          "time": 87.65116279068968,
          "velocity": 0.3228346456692913,
          "duration": 0.023255813953483084
        },
        {
          "name": "F#2",
          "midi": 42,
          "time": 87.6860465116199,
          "velocity": 0.4409448818897638,
          "duration": 0.034883720930224626
        },
        {
          "name": "F4",
          "midi": 65,
          "time": 87.6860465116199,
          "velocity": 0.29133858267716534,
          "duration": 0.023255813953483084
        },
        {
          "name": "D#4",
          "midi": 63,
          "time": 87.70930232557339,
          "velocity": 0.3228346456692913,
          "duration": 0.06976744186044925
        },
        {
          "name": "F5",
          "midi": 77,
          "time": 87.70930232557339,
          "velocity": 0.47244094488188976,
          "duration": 0.12790697674415696
        },
        {
          "name": "G#6",
          "midi": 92,
          "time": 87.70930232557339,
          "velocity": 0.3228346456692913,
          "duration": 0.1395348837208985
        },
        {
          "name": "C7",
          "midi": 96,
          "time": 87.70930232557339,
          "velocity": 0.30708661417322836,
          "duration": 0.15116279069764005
        },
        {
          "name": "D7",
          "midi": 98,
          "time": 87.70930232557339,
          "velocity": 0.3543307086614173,
          "duration": 0.17441860465112313
        },
        {
          "name": "E7",
          "midi": 100,
          "time": 87.70930232557339,
          "velocity": 0.30708661417322836,
          "duration": 0.04651162790696617
        },
        {
          "name": "C#5",
          "midi": 73,
          "time": 87.73255813952687,
          "velocity": 0.15748031496062992,
          "duration": 0.05813953488370771
        },
        {
          "name": "D6",
          "midi": 86,
          "time": 87.73255813952687,
          "velocity": 0.2755905511811024,
          "duration": 0.11627906976741542
        },
        {
          "name": "G2",
          "midi": 43,
          "time": 87.74418604650361,
          "velocity": 0.41732283464566927,
          "duration": 0.023255813953483084
        },
        {
          "name": "F#7",
          "midi": 102,
          "time": 87.74418604650361,
          "velocity": 0.1968503937007874,
          "duration": 0.09302325581393234
        },
        {
          "name": "E7",
          "midi": 100,
          "time": 87.7674418604571,
          "velocity": 0.31496062992125984,
          "duration": 0.09302325581393234
        },
        {
          "name": "F#2",
          "midi": 42,
          "time": 87.77906976743384,
          "velocity": 0.4330708661417323,
          "duration": 0.023255813953483084
        },
        {
          "name": "F#6",
          "midi": 90,
          "time": 87.77906976743384,
          "velocity": 0.1968503937007874,
          "duration": 0.05813953488370771
        },
        {
          "name": "A6",
          "midi": 93,
          "time": 87.77906976743384,
          "velocity": 0.29133858267716534,
          "duration": 0.034883720930224626
        },
        {
          "name": "B6",
          "midi": 95,
          "time": 87.77906976743384,
          "velocity": 0.29133858267716534,
          "duration": 0.034883720930224626
        },
        {
          "name": "C#7",
          "midi": 97,
          "time": 87.77906976743384,
          "velocity": 0.2755905511811024,
          "duration": 0.0813953488371908
        },
        {
          "name": "D#4",
          "midi": 63,
          "time": 87.79069767441058,
          "velocity": 0.3700787401574803,
          "duration": 0.04651162790696617
        },
        {
          "name": "D#6",
          "midi": 87,
          "time": 87.79069767441058,
          "velocity": 0.14173228346456693,
          "duration": 0.06976744186044925
        },
        {
          "name": "G7",
          "midi": 103,
          "time": 87.79069767441058,
          "velocity": 0.2283464566929134,
          "duration": 0.023255813953483084
        },
        {
          "name": "D#7",
          "midi": 99,
          "time": 87.80232558138732,
          "velocity": 0.31496062992125984,
          "duration": 0.034883720930224626
        },
        {
          "name": "F#2",
          "midi": 42,
          "time": 87.81395348836406,
          "velocity": 0.4330708661417323,
          "duration": 0.023255813953483084
        },
        {
          "name": "D#3",
          "midi": 51,
          "time": 87.81395348836406,
          "velocity": 0.41732283464566927,
          "duration": 0.023255813953483084
        },
        {
          "name": "F4",
          "midi": 65,
          "time": 87.8255813953408,
          "velocity": 0.3228346456692913,
          "duration": 0.034883720930224626
        },
        {
          "name": "C#5",
          "midi": 73,
          "time": 87.8255813953408,
          "velocity": 0.12598425196850394,
          "duration": 0.3255813953487774
        },
        {
          "name": "F#5",
          "midi": 78,
          "time": 87.83720930231755,
          "velocity": 0.33070866141732286,
          "duration": 0.023255813953483084
        },
        {
          "name": "A#3",
          "midi": 58,
          "time": 87.84883720929429,
          "velocity": 0.1968503937007874,
          "duration": 0.04651162790696617
        },
        {
          "name": "D#4",
          "midi": 63,
          "time": 87.84883720929429,
          "velocity": 0.30708661417322836,
          "duration": 0.034883720930224626
        },
        {
          "name": "C6",
          "midi": 84,
          "time": 87.84883720929429,
          "velocity": 0.2283464566929134,
          "duration": 0.1395348837208985
        },
        {
          "name": "F#2",
          "midi": 42,
          "time": 87.86046511627103,
          "velocity": 0.4251968503937008,
          "duration": 0.023255813953483084
        },
        {
          "name": "F5",
          "midi": 77,
          "time": 87.86046511627103,
          "velocity": 0.2125984251968504,
          "duration": 0.05813953488370771
        },
        {
          "name": "F4",
          "midi": 65,
          "time": 87.87209302324777,
          "velocity": 0.29133858267716534,
          "duration": 0.034883720930224626
        },
        {
          "name": "F#2",
          "midi": 42,
          "time": 87.89534883720125,
          "velocity": 0.4015748031496063,
          "duration": 0.023255813953483084
        },
        {
          "name": "D#4",
          "midi": 63,
          "time": 87.89534883720125,
          "velocity": 0.3228346456692913,
          "duration": 0.12790697674415696
        },
        {
          "name": "A#3",
          "midi": 58,
          "time": 87.93023255813148,
          "velocity": 0.3858267716535433,
          "duration": 0.10465116279067388
        },
        {
          "name": "F5",
          "midi": 77,
          "time": 87.93023255813148,
          "velocity": 0.33070866141732286,
          "duration": 0.11627906976741542
        },
        {
          "name": "D7",
          "midi": 98,
          "time": 87.93023255813148,
          "velocity": 0.08661417322834646,
          "duration": 0.034883720930224626
        },
        {
          "name": "B5",
          "midi": 83,
          "time": 87.94186046510822,
          "velocity": 0.28346456692913385,
          "duration": 0.023255813953483084
        },
        {
          "name": "D6",
          "midi": 86,
          "time": 87.95348837208496,
          "velocity": 0.18110236220472442,
          "duration": 0.04651162790696617
        },
        {
          "name": "D#3",
          "midi": 51,
          "time": 87.97674418603845,
          "velocity": 0.3858267716535433,
          "duration": 0.023255813953483084
        },
        {
          "name": "F#4",
          "midi": 66,
          "time": 87.98837209301519,
          "velocity": 0.2047244094488189,
          "duration": 0.04651162790696617
        },
        {
          "name": "F#2",
          "midi": 42,
          "time": 88.02325581394541,
          "velocity": 0.3858267716535433,
          "duration": 0.023255813953483084
        },
        {
          "name": "A3",
          "midi": 57,
          "time": 88.03488372092215,
          "velocity": 0.4094488188976378,
          "duration": 0.023255813953483084
        },
        {
          "name": "D#4",
          "midi": 63,
          "time": 88.0465116278989,
          "velocity": 0.30708661417322836,
          "duration": 0.10465116279068809
        },
        {
          "name": "F#4",
          "midi": 66,
          "time": 88.0465116278989,
          "velocity": 0.30708661417322836,
          "duration": 0.39534883720925507
        },
        {
          "name": "F5",
          "midi": 77,
          "time": 88.06976744185238,
          "velocity": 0.07874015748031496,
          "duration": 0.03488372093023884
        },
        {
          "name": "B3",
          "midi": 59,
          "time": 88.1279069767361,
          "velocity": 0.48031496062992124,
          "duration": 0.0813953488371908
        },
        {
          "name": "G2",
          "midi": 43,
          "time": 88.13953488371284,
          "velocity": 0.3700787401574803,
          "duration": 0.023255813953483084
        },
        {
          "name": "D#3",
          "midi": 51,
          "time": 88.13953488371284,
          "velocity": 0.3543307086614173,
          "duration": 0.023255813953483084
        },
        {
          "name": "D#4",
          "midi": 63,
          "time": 88.16279069766632,
          "velocity": 0.2992125984251969,
          "duration": 0.25581395348834235
        },
        {
          "name": "A#5",
          "midi": 82,
          "time": 88.16279069766632,
          "velocity": 0.23622047244094488,
          "duration": 0.1860465116278931
        },
        {
          "name": "D#6",
          "midi": 87,
          "time": 88.16279069766632,
          "velocity": 0.1889763779527559,
          "duration": 0.034883720930224626
        },
        {
          "name": "F#2",
          "midi": 42,
          "time": 88.18604651161981,
          "velocity": 0.33858267716535434,
          "duration": 0.023255813953483084
        },
        {
          "name": "C#5",
          "midi": 73,
          "time": 88.18604651161981,
          "velocity": 0.11811023622047244,
          "duration": 0.1860465116278931
        },
        {
          "name": "A#4",
          "midi": 70,
          "time": 88.19767441859655,
          "velocity": 0.4881889763779528,
          "duration": 0.16279069767441
        },
        {
          "name": "A#3",
          "midi": 58,
          "time": 88.20930232557329,
          "velocity": 0.4251968503937008,
          "duration": 0.13953488372092693
        },
        {
          "name": "F5",
          "midi": 77,
          "time": 88.20930232557329,
          "velocity": 0.30708661417322836,
          "duration": 0.11627906976744384
        },
        {
          "name": "G2",
          "midi": 43,
          "time": 88.26744186045701,
          "velocity": 0.3464566929133858,
          "duration": 0.023255813953483084
        },
        {
          "name": "F#5",
          "midi": 78,
          "time": 88.32558139534073,
          "velocity": 0.3858267716535433,
          "duration": 0.04651162790696617
        },
        {
          "name": "B5",
          "midi": 83,
          "time": 88.33720930231748,
          "velocity": 0.31496062992125984,
          "duration": 0.04651162790696617
        },
        {
          "name": "B3",
          "midi": 59,
          "time": 88.34883720929422,
          "velocity": 0.36220472440944884,
          "duration": 0.0813953488371908
        },
        {
          "name": "B4",
          "midi": 71,
          "time": 88.36046511627096,
          "velocity": 0.5275590551181102,
          "duration": 0.29069767441855277
        },
        {
          "name": "F#3",
          "midi": 54,
          "time": 88.3720930232477,
          "velocity": 0.3228346456692913,
          "duration": 0.023255813953483084
        },
        {
          "name": "D#6",
          "midi": 87,
          "time": 88.3720930232477,
          "velocity": 0.2677165354330709,
          "duration": 0.11627906976741542
        },
        {
          "name": "A#5",
          "midi": 82,
          "time": 88.38372093022444,
          "velocity": 0.11811023622047244,
          "duration": 0.04651162790696617
        },
        {
          "name": "C#6",
          "midi": 85,
          "time": 88.38372093022444,
          "velocity": 0.11023622047244094,
          "duration": 0.034883720930224626
        },
        {
          "name": "F#6",
          "midi": 90,
          "time": 88.38372093022444,
          "velocity": 0.25984251968503935,
          "duration": 0.05813953488370771
        },
        {
          "name": "D#7",
          "midi": 99,
          "time": 88.39534883720118,
          "velocity": 0.2992125984251969,
          "duration": 0.20930232558136197
        },
        {
          "name": "A6",
          "midi": 93,
          "time": 88.40697674417792,
          "velocity": 0.36220472440944884,
          "duration": 0.20930232558136197
        },
        {
          "name": "B6",
          "midi": 95,
          "time": 88.40697674417792,
          "velocity": 0.33858267716535434,
          "duration": 0.18604651162787889
        },
        {
          "name": "C#7",
          "midi": 97,
          "time": 88.40697674417792,
          "velocity": 0.30708661417322836,
          "duration": 0.17441860465113734
        },
        {
          "name": "A#6",
          "midi": 94,
          "time": 88.41860465115467,
          "velocity": 0.29133858267716534,
          "duration": 0.06976744186044925
        },
        {
          "name": "C7",
          "midi": 96,
          "time": 88.41860465115467,
          "velocity": 0.25984251968503935,
          "duration": 0.09302325581393234
        },
        {
          "name": "D7",
          "midi": 98,
          "time": 88.41860465115467,
          "velocity": 0.3228346456692913,
          "duration": 0.05813953488370771
        },
        {
          "name": "E7",
          "midi": 100,
          "time": 88.41860465115467,
          "velocity": 0.1732283464566929,
          "duration": 0.034883720930224626
        },
        {
          "name": "F7",
          "midi": 101,
          "time": 88.41860465115467,
          "velocity": 0.2755905511811024,
          "duration": 0.0813953488371908
        },
        {
          "name": "A5",
          "midi": 81,
          "time": 88.43023255813141,
          "velocity": 0.11023622047244094,
          "duration": 0.034883720930224626
        },
        {
          "name": "D6",
          "midi": 86,
          "time": 88.43023255813141,
          "velocity": 0.11023622047244094,
          "duration": 0.034883720930224626
        },
        {
          "name": "F6",
          "midi": 89,
          "time": 88.43023255813141,
          "velocity": 0.1968503937007874,
          "duration": 0.034883720930224626
        },
        {
          "name": "G7",
          "midi": 103,
          "time": 88.43023255813141,
          "velocity": 0.16535433070866143,
          "duration": 0.06976744186044925
        },
        {
          "name": "F3",
          "midi": 53,
          "time": 88.44186046510815,
          "velocity": 0.33858267716535434,
          "duration": 0.18604651162787889
        },
        {
          "name": "B3",
          "midi": 59,
          "time": 88.44186046510815,
          "velocity": 0.25196850393700787,
          "duration": 0.20930232558136197
        },
        {
          "name": "F#7",
          "midi": 102,
          "time": 88.44186046510815,
          "velocity": 0.2204724409448819,
          "duration": 0.06976744186044925
        },
        {
          "name": "A#0",
          "midi": 22,
          "time": 88.45348837208489,
          "velocity": 0.5748031496062992,
          "duration": 0.011627906976741542
        },
        {
          "name": "B0",
          "midi": 23,
          "time": 88.46511627906163,
          "velocity": 0.5826771653543307,
          "duration": 0.44186046511623545
        },
        {
          "name": "G4",
          "midi": 67,
          "time": 88.46511627906163,
          "velocity": 0.2677165354330709,
          "duration": 0.023255813953483084
        },
        {
          "name": "F#6",
          "midi": 90,
          "time": 88.46511627906163,
          "velocity": 0.33070866141732286,
          "duration": 0.18604651162787889
        },
        {
          "name": "E7",
          "midi": 100,
          "time": 88.46511627906163,
          "velocity": 0.2283464566929134,
          "duration": 0.04651162790696617
        },
        {
          "name": "G#4",
          "midi": 68,
          "time": 88.48837209301512,
          "velocity": 0.2755905511811024,
          "duration": 0.19767441860463464
        },
        {
          "name": "D#6",
          "midi": 87,
          "time": 88.53488372092208,
          "velocity": 0.16535433070866143,
          "duration": 0.05813953488372192
        },
        {
          "name": "D#6",
          "midi": 87,
          "time": 88.60465116278255,
          "velocity": 0.2440944881889764,
          "duration": 0.22093023255811772
        },
        {
          "name": "F5",
          "midi": 77,
          "time": 88.63953488371277,
          "velocity": 0.25196850393700787,
          "duration": 0.15116279069766847
        },
        {
          "name": "A#5",
          "midi": 82,
          "time": 88.63953488371277,
          "velocity": 0.3464566929133858,
          "duration": 0.20930232558137618
        },
        {
          "name": "D6",
          "midi": 86,
          "time": 88.63953488371277,
          "velocity": 0.3937007874015748,
          "duration": 0.11627906976744384
        },
        {
          "name": "F#3",
          "midi": 54,
          "time": 88.65116279068951,
          "velocity": 0.3228346456692913,
          "duration": 0.19767441860463464
        },
        {
          "name": "A#4",
          "midi": 70,
          "time": 88.65116279068951,
          "velocity": 0.5039370078740157,
          "duration": 0.16279069767441
        },
        {
          "name": "C#5",
          "midi": 73,
          "time": 88.65116279068951,
          "velocity": 0.18110236220472442,
          "duration": 0.12790697674418539
        },
        {
          "name": "G#4",
          "midi": 68,
          "time": 88.69767441859649,
          "velocity": 0.2677165354330709,
          "duration": 0.023255813953483084
        },
        {
          "name": "G#4",
          "midi": 68,
          "time": 88.75581395348021,
          "velocity": 0.30708661417322836,
          "duration": 0.04651162790696617
        },
        {
          "name": "F#6",
          "midi": 90,
          "time": 88.7790697674337,
          "velocity": 0.16535433070866143,
          "duration": 0.034883720930224626
        },
        {
          "name": "G5",
          "midi": 79,
          "time": 88.79069767441044,
          "velocity": 0.2677165354330709,
          "duration": 0.034883720930224626
        },
        {
          "name": "B3",
          "midi": 59,
          "time": 88.80232558138718,
          "velocity": 0.2440944881889764,
          "duration": 0.05813953488370771
        },
        {
          "name": "G#6",
          "midi": 92,
          "time": 88.80232558138718,
          "velocity": 0.2125984251968504,
          "duration": 0.05813953488370771
        },
        {
          "name": "G#4",
          "midi": 68,
          "time": 88.81395348836392,
          "velocity": 0.28346456692913385,
          "duration": 0.034883720930224626
        },
        {
          "name": "G#5",
          "midi": 80,
          "time": 88.82558139534066,
          "velocity": 0.3858267716535433,
          "duration": 0.04651162790696617
        },
        {
          "name": "D#5",
          "midi": 75,
          "time": 88.84883720929415,
          "velocity": 0.16535433070866143,
          "duration": 0.05813953488372192
        },
        {
          "name": "F5",
          "midi": 77,
          "time": 88.84883720929415,
          "velocity": 0.4330708661417323,
          "duration": 0.11627906976742963
        },
        {
          "name": "C6",
          "midi": 84,
          "time": 88.84883720929415,
          "velocity": 0.25196850393700787,
          "duration": 0.05813953488372192
        },
        {
          "name": "A6",
          "midi": 93,
          "time": 88.86046511627089,
          "velocity": 0.15748031496062992,
          "duration": 0.05813953488372192
        },
        {
          "name": "C7",
          "midi": 96,
          "time": 88.86046511627089,
          "velocity": 0.28346456692913385,
          "duration": 0.05813953488372192
        },
        {
          "name": "G#3",
          "midi": 56,
          "time": 88.87209302324763,
          "velocity": 0.33070866141732286,
          "duration": 0.1860465116278931
        },
        {
          "name": "A#4",
          "midi": 70,
          "time": 88.90697674417787,
          "velocity": 0.29133858267716534,
          "duration": 0.33720930232551893
        },
        {
          "name": "B0",
          "midi": 23,
          "time": 88.91860465115461,
          "velocity": 0.4094488188976378,
          "duration": 0.04651162790696617
        },
        {
          "name": "D#5",
          "midi": 75,
          "time": 88.93023255813135,
          "velocity": 0.16535433070866143,
          "duration": 0.034883720930224626
        },
        {
          "name": "F#6",
          "midi": 90,
          "time": 88.93023255813135,
          "velocity": 0.11023622047244094,
          "duration": 0.04651162790696617
        },
        {
          "name": "C7",
          "midi": 96,
          "time": 88.93023255813135,
          "velocity": 0.1889763779527559,
          "duration": 0.04651162790696617
        },
        {
          "name": "F4",
          "midi": 65,
          "time": 88.94186046510809,
          "velocity": 0.29133858267716534,
          "duration": 0.10465116279068809
        },
        {
          "name": "F7",
          "midi": 101,
          "time": 88.96511627906158,
          "velocity": 0.2047244094488189,
          "duration": 0.081395348837205
        },
        {
          "name": "B0",
          "midi": 23,
          "time": 88.97674418603832,
          "velocity": 0.36220472440944884,
          "duration": 0.081395348837205
        },
        {
          "name": "D#5",
          "midi": 75,
          "time": 88.98837209301506,
          "velocity": 0.2440944881889764,
          "duration": 0.06976744186046346
        },
        {
          "name": "D6",
          "midi": 86,
          "time": 88.98837209301506,
          "velocity": 0.12598425196850394,
          "duration": 0.03488372093023884
        },
        {
          "name": "F6",
          "midi": 89,
          "time": 88.98837209301506,
          "velocity": 0.16535433070866143,
          "duration": 0.3255813953487774
        },
        {
          "name": "D#7",
          "midi": 99,
          "time": 88.98837209301506,
          "velocity": 0.25196850393700787,
          "duration": 0.05813953488372192
        },
        {
          "name": "D7",
          "midi": 98,
          "time": 89.03488372092204,
          "velocity": 0.1732283464566929,
          "duration": 0.034883720930224626
        },
        {
          "name": "E4",
          "midi": 64,
          "time": 89.04651162789878,
          "velocity": 0.3779527559055118,
          "duration": 0.034883720930224626
        },
        {
          "name": "B0",
          "midi": 23,
          "time": 89.06976744185226,
          "velocity": 0.2440944881889764,
          "duration": 0.023255813953483084
        },
        {
          "name": "F5",
          "midi": 77,
          "time": 89.06976744185226,
          "velocity": 0.13385826771653545,
          "duration": 0.15116279069764005
        },
        {
          "name": "A#3",
          "midi": 58,
          "time": 89.081395348829,
          "velocity": 0.36220472440944884,
          "duration": 0.11627906976741542
        },
        {
          "name": "D#4",
          "midi": 63,
          "time": 89.081395348829,
          "velocity": 0.3858267716535433,
          "duration": 0.034883720930224626
        },
        {
          "name": "F7",
          "midi": 101,
          "time": 89.081395348829,
          "velocity": 0.18110236220472442,
          "duration": 0.04651162790696617
        },
        {
          "name": "D#7",
          "midi": 99,
          "time": 89.09302325580575,
          "velocity": 0.11023622047244094,
          "duration": 0.09302325581393234
        },
        {
          "name": "D4",
          "midi": 62,
          "time": 89.11627906975923,
          "velocity": 0.33858267716535434,
          "duration": 0.023255813953483084
        },
        {
          "name": "E7",
          "midi": 100,
          "time": 89.1627906976662,
          "velocity": 0.2204724409448819,
          "duration": 0.034883720930224626
        },
        {
          "name": "C4",
          "midi": 60,
          "time": 89.18604651161968,
          "velocity": 0.5433070866141733,
          "duration": 0.034883720930224626
        },
        {
          "name": "F4",
          "midi": 65,
          "time": 89.19767441859642,
          "velocity": 0.4015748031496063,
          "duration": 0.023255813953483084
        },
        {
          "name": "D7",
          "midi": 98,
          "time": 89.20930232557316,
          "velocity": 0.2204724409448819,
          "duration": 0.18604651162786467
        },
        {
          "name": "F#4",
          "midi": 66,
          "time": 89.2209302325499,
          "velocity": 0.48031496062992124,
          "duration": 0.023255813953483084
        },
        {
          "name": "G5",
          "midi": 79,
          "time": 89.23255813952665,
          "velocity": 0.16535433070866143,
          "duration": 0.034883720930224626
        },
        {
          "name": "A#3",
          "midi": 58,
          "time": 89.24418604650339,
          "velocity": 0.48031496062992124,
          "duration": 0.0813953488371908
        },
        {
          "name": "E4",
          "midi": 64,
          "time": 89.24418604650339,
          "velocity": 0.4094488188976378,
          "duration": 0.023255813953483084
        },
        {
          "name": "A4",
          "midi": 69,
          "time": 89.24418604650339,
          "velocity": 0.36220472440944884,
          "duration": 0.023255813953483084
        },
        {
          "name": "B4",
          "midi": 71,
          "time": 89.24418604650339,
          "velocity": 0.48031496062992124,
          "duration": 0.06976744186044925
        },
        {
          "name": "F#6",
          "midi": 90,
          "time": 89.25581395348013,
          "velocity": 0.14173228346456693,
          "duration": 0.034883720930224626
        },
        {
          "name": "C#7",
          "midi": 97,
          "time": 89.25581395348013,
          "velocity": 0.1968503937007874,
          "duration": 0.09302325581393234
        },
        {
          "name": "G#4",
          "midi": 68,
          "time": 89.26744186045687,
          "velocity": 0.3700787401574803,
          "duration": 0.04651162790696617
        },
        {
          "name": "D#5",
          "midi": 75,
          "time": 89.26744186045687,
          "velocity": 0.2283464566929134,
          "duration": 0.034883720930224626
        },
        {
          "name": "F#1",
          "midi": 30,
          "time": 89.27906976743361,
          "velocity": 0.6929133858267716,
          "duration": 0.023255813953483084
        },
        {
          "name": "F5",
          "midi": 77,
          "time": 89.27906976743361,
          "velocity": 0.4566929133858268,
          "duration": 0.5813953488370913
        },
        {
          "name": "A6",
          "midi": 93,
          "time": 89.27906976743361,
          "velocity": 0.2125984251968504,
          "duration": 0.04651162790696617
        },
        {
          "name": "C7",
          "midi": 96,
          "time": 89.27906976743361,
          "velocity": 0.2992125984251969,
          "duration": 0.15116279069764005
        },
        {
          "name": "D#7",
          "midi": 99,
          "time": 89.29069767441035,
          "velocity": 0.1889763779527559,
          "duration": 0.0813953488371908
        },
        {
          "name": "F1",
          "midi": 29,
          "time": 89.3023255813871,
          "velocity": 0.7165354330708661,
          "duration": 0.011627906976741542
        },
        {
          "name": "D#4",
          "midi": 63,
          "time": 89.3023255813871,
          "velocity": 0.2283464566929134,
          "duration": 0.12790697674415696
        },
        {
          "name": "D6",
          "midi": 86,
          "time": 89.3023255813871,
          "velocity": 0.14960629921259844,
          "duration": 0.0813953488371908
        },
        {
          "name": "D#6",
          "midi": 87,
          "time": 89.3023255813871,
          "velocity": 0.13385826771653545,
          "duration": 0.5116279069766421
        },
        {
          "name": "D#1",
          "midi": 27,
          "time": 89.31395348836384,
          "velocity": 0.7480314960629921,
          "duration": 0.4999999999999005
        },
        {
          "name": "D5",
          "midi": 74,
          "time": 89.31395348836384,
          "velocity": 0.2283464566929134,
          "duration": 0.023255813953483084
        },
        {
          "name": "G3",
          "midi": 55,
          "time": 89.32558139534058,
          "velocity": 0.5118110236220472,
          "duration": 0.488372093023159
        },
        {
          "name": "A#4",
          "midi": 70,
          "time": 89.32558139534058,
          "velocity": 0.5590551181102362,
          "duration": 0.1395348837208985
        },
        {
          "name": "A2",
          "midi": 45,
          "time": 89.33720930231732,
          "velocity": 0.4015748031496063,
          "duration": 0.023255813953483084
        },
        {
          "name": "G#4",
          "midi": 68,
          "time": 89.33720930231732,
          "velocity": 0.28346456692913385,
          "duration": 0.023255813953483084
        },
        {
          "name": "A#6",
          "midi": 94,
          "time": 89.33720930231732,
          "velocity": 0.09448818897637795,
          "duration": 0.034883720930224626
        },
        {
          "name": "A#2",
          "midi": 46,
          "time": 89.3604651162708,
          "velocity": 0.4330708661417323,
          "duration": 0.19767441860462043
        },
        {
          "name": "F7",
          "midi": 101,
          "time": 89.38372093022429,
          "velocity": 0.13385826771653545,
          "duration": 0.06976744186044925
        },
        {
          "name": "D#7",
          "midi": 99,
          "time": 89.39534883720103,
          "velocity": 0.16535433070866143,
          "duration": 0.0813953488371908
        },
        {
          "name": "F4",
          "midi": 65,
          "time": 89.41860465115451,
          "velocity": 0.29133858267716534,
          "duration": 0.05813953488370771
        },
        {
          "name": "G#4",
          "midi": 68,
          "time": 89.41860465115451,
          "velocity": 0.2992125984251969,
          "duration": 0.39534883720922664
        },
        {
          "name": "C7",
          "midi": 96,
          "time": 89.45348837208473,
          "velocity": 0.2047244094488189,
          "duration": 0.081395348837205
        },
        {
          "name": "F#7",
          "midi": 102,
          "time": 89.46511627906148,
          "velocity": 0.08661417322834646,
          "duration": 0.04651162790698038
        },
        {
          "name": "E4",
          "midi": 64,
          "time": 89.47674418603822,
          "velocity": 0.33070866141732286,
          "duration": 0.03488372093023884
        },
        {
          "name": "D#4",
          "midi": 63,
          "time": 89.51162790696846,
          "velocity": 0.33070866141732286,
          "duration": 0.034883720930224626
        },
        {
          "name": "A#4",
          "midi": 70,
          "time": 89.51162790696846,
          "velocity": 0.2440944881889764,
          "duration": 0.06976744186044925
        },
        {
          "name": "E7",
          "midi": 100,
          "time": 89.55813953487542,
          "velocity": 0.15748031496062992,
          "duration": 0.0813953488371908
        },
        {
          "name": "A#2",
          "midi": 46,
          "time": 89.56976744185216,
          "velocity": 0.4330708661417323,
          "duration": 0.11627906976741542
        },
        {
          "name": "C4",
          "midi": 60,
          "time": 89.56976744185216,
          "velocity": 0.28346456692913385,
          "duration": 0.023255813953483084
        },
        {
          "name": "A#4",
          "midi": 70,
          "time": 89.59302325580565,
          "velocity": 0.28346456692913385,
          "duration": 0.034883720930224626
        },
        {
          "name": "D#4",
          "midi": 63,
          "time": 89.60465116278239,
          "velocity": 0.11811023622047244,
          "duration": 0.04651162790696617
        },
        {
          "name": "A#4",
          "midi": 70,
          "time": 89.6627906976661,
          "velocity": 0.25196850393700787,
          "duration": 0.034883720930224626
        },
        {
          "name": "G#6",
          "midi": 92,
          "time": 89.6627906976661,
          "velocity": 0.11811023622047244,
          "duration": 0.04651162790696617
        },
        {
          "name": "G5",
          "midi": 79,
          "time": 89.69767441859632,
          "velocity": 0.10236220472440945,
          "duration": 0.10465116279067388
        },
        {
          "name": "A#4",
          "midi": 70,
          "time": 89.70930232557306,
          "velocity": 0.3543307086614173,
          "duration": 0.023255813953483084
        },
        {
          "name": "A#2",
          "midi": 46,
          "time": 89.7209302325498,
          "velocity": 0.4251968503937008,
          "duration": 0.05813953488370771
        },
        {
          "name": "B4",
          "midi": 71,
          "time": 89.73255813952655,
          "velocity": 0.3700787401574803,
          "duration": 0.06976744186044925
        },
        {
          "name": "C7",
          "midi": 96,
          "time": 89.74418604650329,
          "velocity": 0.12598425196850394,
          "duration": 0.0813953488371908
        },
        {
          "name": "C#4",
          "midi": 61,
          "time": 89.75581395348003,
          "velocity": 0.3543307086614173,
          "duration": 0.023255813953483084
        },
        {
          "name": "C#7",
          "midi": 97,
          "time": 89.75581395348003,
          "velocity": 0.1732283464566929,
          "duration": 0.06976744186044925
        },
        {
          "name": "F7",
          "midi": 101,
          "time": 89.76744186045677,
          "velocity": 0.07874015748031496,
          "duration": 0.04651162790696617
        },
        {
          "name": "D4",
          "midi": 62,
          "time": 89.77906976743351,
          "velocity": 0.4251968503937008,
          "duration": 0.023255813953483084
        },
        {
          "name": "A#2",
          "midi": 46,
          "time": 89.79069767441025,
          "velocity": 0.41732283464566927,
          "duration": 0.023255813953483084
        },
        {
          "name": "A#4",
          "midi": 70,
          "time": 89.802325581387,
          "velocity": 0.3779527559055118,
          "duration": 0.034883720930224626
        },
        {
          "name": "D1",
          "midi": 26,
          "time": 89.81395348836374,
          "velocity": 0.7007874015748031,
          "duration": 0.023255813953483084
        },
        {
          "name": "F#3",
          "midi": 54,
          "time": 89.81395348836374,
          "velocity": 0.4251968503937008,
          "duration": 0.023255813953483084
        },
        {
          "name": "G4",
          "midi": 67,
          "time": 89.81395348836374,
          "velocity": 0.29133858267716534,
          "duration": 0.023255813953483084
        },
        {
          "name": "G#2",
          "midi": 44,
          "time": 89.82558139534048,
          "velocity": 0.4330708661417323,
          "duration": 0.023255813953483084
        },
        {
          "name": "C#1",
          "midi": 25,
          "time": 89.83720930231722,
          "velocity": 0.6850393700787402,
          "duration": 0.011627906976741542
        },
        {
          "name": "F4",
          "midi": 65,
          "time": 89.83720930231722,
          "velocity": 0.33858267716535434,
          "duration": 0.034883720930224626
        },
        {
          "name": "C1",
          "midi": 24,
          "time": 89.84883720929396,
          "velocity": 0.6771653543307087,
          "duration": 0.023255813953483084
        },
        {
          "name": "D#3",
          "midi": 51,
          "time": 89.84883720929396,
          "velocity": 0.4330708661417323,
          "duration": 0.023255813953483084
        },
        {
          "name": "A#0",
          "midi": 22,
          "time": 89.87209302324744,
          "velocity": 0.6929133858267716,
          "duration": 0.023255813953483084
        },
        {
          "name": "A#4",
          "midi": 70,
          "time": 89.87209302324744,
          "velocity": 0.2125984251968504,
          "duration": 0.034883720930224626
        },
        {
          "name": "D3",
          "midi": 50,
          "time": 89.88372093022419,
          "velocity": 0.4409448818897638,
          "duration": 0.023255813953483084
        },
        {
          "name": "F4",
          "midi": 65,
          "time": 89.88372093022419,
          "velocity": 0.4645669291338583,
          "duration": 0.023255813953483084
        },
        {
          "name": "A0",
          "midi": 21,
          "time": 89.89534883720093,
          "velocity": 0.6850393700787402,
          "duration": 0.011627906976741542
        },
        {
          "name": "G#0",
          "midi": 20,
          "time": 89.90697674417767,
          "velocity": 0.6850393700787402,
          "duration": 0.023255813953483084
        },
        {
          "name": "D#5",
          "midi": 75,
          "time": 89.90697674417767,
          "velocity": 0.1732283464566929,
          "duration": 0.034883720930224626
        },
        {
          "name": "B6",
          "midi": 95,
          "time": 89.90697674417767,
          "velocity": 0.25984251968503935,
          "duration": 0.12790697674415696
        },
        {
          "name": "D#7",
          "midi": 99,
          "time": 89.90697674417767,
          "velocity": 0.2440944881889764,
          "duration": 0.11627906976741542
        },
        {
          "name": "E7",
          "midi": 100,
          "time": 89.90697674417767,
          "velocity": 0.1889763779527559,
          "duration": 0.04651162790696617
        },
        {
          "name": "B3",
          "midi": 59,
          "time": 89.91860465115441,
          "velocity": 0.36220472440944884,
          "duration": 0.023255813953483084
        },
        {
          "name": "A#6",
          "midi": 94,
          "time": 89.91860465115441,
          "velocity": 0.2283464566929134,
          "duration": 0.06976744186044925
        },
        {
          "name": "F#0",
          "midi": 18,
          "time": 89.93023255813115,
          "velocity": 0.6771653543307087,
          "duration": 0.011627906976741542
        },
        {
          "name": "B2",
          "midi": 47,
          "time": 89.93023255813115,
          "velocity": 0.41732283464566927,
          "duration": 0.023255813953483084
        },
        {
          "name": "D5",
          "midi": 74,
          "time": 89.93023255813115,
          "velocity": 0.16535433070866143,
          "duration": 0.04651162790696617
        },
        {
          "name": "F5",
          "midi": 77,
          "time": 89.93023255813115,
          "velocity": 0.11023622047244094,
          "duration": 0.04651162790696617
        },
        {
          "name": "F7",
          "midi": 101,
          "time": 89.93023255813115,
          "velocity": 0.2283464566929134,
          "duration": 0.10465116279067388
        },
        {
          "name": "F0",
          "midi": 17,
          "time": 89.9418604651079,
          "velocity": 0.6850393700787402,
          "duration": 0.011627906976741542
        },
        {
          "name": "A#3",
          "midi": 58,
          "time": 89.9418604651079,
          "velocity": 0.4251968503937008,
          "duration": 0.04651162790696617
        },
        {
          "name": "G#4",
          "midi": 68,
          "time": 89.9418604651079,
          "velocity": 0.3858267716535433,
          "duration": 0.023255813953483084
        },
        {
          "name": "E0",
          "midi": 16,
          "time": 89.95348837208464,
          "velocity": 0.6850393700787402,
          "duration": 0.011627906976741542
        },
        {
          "name": "C7",
          "midi": 96,
          "time": 89.95348837208464,
          "velocity": 0.14173228346456693,
          "duration": 0.09302325581393234
        },
        {
          "name": "D#0",
          "midi": 15,
          "time": 89.96511627906138,
          "velocity": 0.6692913385826772,
          "duration": 0.011627906976741542
        },
        {
          "name": "E7",
          "midi": 100,
          "time": 89.96511627906138,
          "velocity": 0.2125984251968504,
          "duration": 0.05813953488370771
        },
        {
          "name": "F#7",
          "midi": 102,
          "time": 89.96511627906138,
          "velocity": 0.3464566929133858,
          "duration": 0.04651162790696617
        },
        {
          "name": "G7",
          "midi": 103,
          "time": 89.96511627906138,
          "velocity": 0.33070866141732286,
          "duration": 0.034883720930224626
        },
        {
          "name": "D0",
          "midi": 14,
          "time": 89.97674418603812,
          "velocity": 0.6850393700787402,
          "duration": 0.011627906976741542
        },
        {
          "name": "B4",
          "midi": 71,
          "time": 89.97674418603812,
          "velocity": 0.2283464566929134,
          "duration": 0.034883720930224626
        },
        {
          "name": "C0",
          "midi": 12,
          "time": 89.98837209301486,
          "velocity": 0.6535433070866141,
          "duration": 0.011627906976741542
        },
        {
          "name": "D7",
          "midi": 98,
          "time": 89.98837209301486,
          "velocity": 0.11811023622047244,
          "duration": 0.04651162790696617
        },
        {
          "name": "A-1",
          "midi": 9,
          "time": 89.9999999999916,
          "velocity": 0.6062992125984252,
          "duration": 0.011627906976741542
        },
        {
          "name": "E4",
          "midi": 64,
          "time": 89.9999999999916,
          "velocity": 0.12598425196850394,
          "duration": 0.04651162790696617
        },
        {
          "name": "A#-1",
          "midi": 10,
          "time": 90.01162790696834,
          "velocity": 0.6771653543307087,
          "duration": 0.023255813953483084
        },
        {
          "name": "C#3",
          "midi": 49,
          "time": 90.02325581394508,
          "velocity": 0.33858267716535434,
          "duration": 0.034883720930224626
        },
        {
          "name": "A#4",
          "midi": 70,
          "time": 90.02325581394508,
          "velocity": 0.09448818897637795,
          "duration": 0.034883720930224626
        },
        {
          "name": "C#0",
          "midi": 13,
          "time": 90.04651162789857,
          "velocity": 0.5984251968503937,
          "duration": 0.011627906976741542
        },
        {
          "name": "A#3",
          "midi": 58,
          "time": 90.04651162789857,
          "velocity": 0.1968503937007874,
          "duration": 0.034883720930224626
        },
        {
          "name": "F#-1",
          "midi": 6,
          "time": 90.05813953487531,
          "velocity": 0.5669291338582677,
          "duration": 0.011627906976741542
        },
        {
          "name": "C#-1",
          "midi": 1,
          "time": 90.08139534882879,
          "velocity": 0.6141732283464567,
          "duration": 0.011627906976741542
        },
        {
          "name": "B-1",
          "midi": 11,
          "time": 90.10465116278228,
          "velocity": 0.5748031496062992,
          "duration": 0.011627906976741542
        },
        {
          "name": "G-1",
          "midi": 7,
          "time": 90.11627906975902,
          "velocity": 0.6535433070866141,
          "duration": 0.011627906976741542
        },
        {
          "name": "E6",
          "midi": 88,
          "time": 90.11627906975902,
          "velocity": 0.2755905511811024,
          "duration": 0.06976744186044925
        },
        {
          "name": "F6",
          "midi": 89,
          "time": 90.11627906975902,
          "velocity": 0.28346456692913385,
          "duration": 0.09302325581393234
        },
        {
          "name": "C#1",
          "midi": 25,
          "time": 90.12790697673576,
          "velocity": 0.6377952755905512,
          "duration": 0.011627906976741542
        },
        {
          "name": "A2",
          "midi": 45,
          "time": 90.12790697673576,
          "velocity": 0.3228346456692913,
          "duration": 0.023255813953483084
        },
        {
          "name": "A#3",
          "midi": 58,
          "time": 90.12790697673576,
          "velocity": 0.41732283464566927,
          "duration": 0.023255813953483084
        },
        {
          "name": "G#4",
          "midi": 68,
          "time": 90.12790697673576,
          "velocity": 0.3543307086614173,
          "duration": 0.15116279069764005
        },
        {
          "name": "B4",
          "midi": 71,
          "time": 90.12790697673576,
          "velocity": 0.44881889763779526,
          "duration": 0.023255813953483084
        },
        {
          "name": "F#5",
          "midi": 78,
          "time": 90.12790697673576,
          "velocity": 0.33070866141732286,
          "duration": 0.023255813953483084
        },
        {
          "name": "D6",
          "midi": 86,
          "time": 90.12790697673576,
          "velocity": 0.4409448818897638,
          "duration": 0.18604651162786467
        },
        {
          "name": "D#6",
          "midi": 87,
          "time": 90.12790697673576,
          "velocity": 0.3543307086614173,
          "duration": 0.19767441860460622
        },
        {
          "name": "F7",
          "midi": 101,
          "time": 90.12790697673576,
          "velocity": 0.30708661417322836,
          "duration": 0.10465116279067388
        },
        {
          "name": "D1",
          "midi": 26,
          "time": 90.1395348837125,
          "velocity": 0.6377952755905512,
          "duration": 0.011627906976741542
        },
        {
          "name": "A6",
          "midi": 93,
          "time": 90.1395348837125,
          "velocity": 0.29133858267716534,
          "duration": 0.034883720930224626
        },
        {
          "name": "A#6",
          "midi": 94,
          "time": 90.1395348837125,
          "velocity": 0.28346456692913385,
          "duration": 0.06976744186044925
        },
        {
          "name": "B6",
          "midi": 95,
          "time": 90.1395348837125,
          "velocity": 0.28346456692913385,
          "duration": 0.034883720930224626
        },
        {
          "name": "C7",
          "midi": 96,
          "time": 90.1395348837125,
          "velocity": 0.33070866141732286,
          "duration": 0.10465116279067388
        },
        {
          "name": "F#7",
          "midi": 102,
          "time": 90.1395348837125,
          "velocity": 0.2440944881889764,
          "duration": 0.0813953488371908
        },
        {
          "name": "D#1",
          "midi": 27,
          "time": 90.15116279068924,
          "velocity": 0.6299212598425197,
          "duration": 0.406976744185954
        },
        {
          "name": "A#2",
          "midi": 46,
          "time": 90.15116279068924,
          "velocity": 0.29133858267716534,
          "duration": 0.023255813953483084
        },
        {
          "name": "E4",
          "midi": 64,
          "time": 90.15116279068924,
          "velocity": 0.2992125984251969,
          "duration": 0.023255813953483084
        },
        {
          "name": "F5",
          "midi": 77,
          "time": 90.15116279068924,
          "velocity": 0.4251968503937008,
          "duration": 0.12790697674415696
        },
        {
          "name": "A#5",
          "midi": 82,
          "time": 90.15116279068924,
          "velocity": 0.2440944881889764,
          "duration": 0.12790697674415696
        },
        {
          "name": "G#6",
          "midi": 92,
          "time": 90.15116279068924,
          "velocity": 0.23622047244094488,
          "duration": 0.10465116279067388
        },
        {
          "name": "C#7",
          "midi": 97,
          "time": 90.15116279068924,
          "velocity": 0.30708661417322836,
          "duration": 0.06976744186044925
        },
        {
          "name": "G7",
          "midi": 103,
          "time": 90.15116279068924,
          "velocity": 0.13385826771653545,
          "duration": 0.034883720930224626
        },
        {
          "name": "D#3",
          "midi": 51,
          "time": 90.16279069766598,
          "velocity": 0.30708661417322836,
          "duration": 0.034883720930224626
        },
        {
          "name": "A#3",
          "midi": 58,
          "time": 90.16279069766598,
          "velocity": 0.3858267716535433,
          "duration": 0.11627906976741542
        },
        {
          "name": "A#4",
          "midi": 70,
          "time": 90.16279069766598,
          "velocity": 0.44881889763779526,
          "duration": 0.26744186046505547
        },
        {
          "name": "G3",
          "midi": 55,
          "time": 90.18604651161947,
          "velocity": 0.30708661417322836,
          "duration": 0.023255813953483084
        },
        {
          "name": "G7",
          "midi": 103,
          "time": 90.19767441859621,
          "velocity": 0.09448818897637795,
          "duration": 0.034883720930224626
        },
        {
          "name": "D#3",
          "midi": 51,
          "time": 90.24418604650317,
          "velocity": 0.3858267716535433,
          "duration": 0.3255813953487632
        },
        {
          "name": "F#5",
          "midi": 78,
          "time": 90.26744186045666,
          "velocity": 0.36220472440944884,
          "duration": 0.06976744186044925
        },
        {
          "name": "B5",
          "midi": 83,
          "time": 90.26744186045666,
          "velocity": 0.25984251968503935,
          "duration": 0.06976744186044925
        },
        {
          "name": "C7",
          "midi": 96,
          "time": 90.26744186045666,
          "velocity": 0.07086614173228346,
          "duration": 0.06976744186044925
        },
        {
          "name": "A#2",
          "midi": 46,
          "time": 90.2790697674334,
          "velocity": 0.25196850393700787,
          "duration": 0.023255813953483084
        },
        {
          "name": "B3",
          "midi": 59,
          "time": 90.2790697674334,
          "velocity": 0.4251968503937008,
          "duration": 0.04651162790696617
        },
        {
          "name": "G#4",
          "midi": 68,
          "time": 90.29069767441014,
          "velocity": 0.29133858267716534,
          "duration": 0.04651162790696617
        },
        {
          "name": "D7",
          "midi": 98,
          "time": 90.31395348836362,
          "velocity": 0.15748031496062992,
          "duration": 0.034883720930224626
        },
        {
          "name": "A#3",
          "midi": 58,
          "time": 90.32558139534036,
          "velocity": 0.3464566929133858,
          "duration": 0.034883720930224626
        },
        {
          "name": "D6",
          "midi": 86,
          "time": 90.32558139534036,
          "velocity": 0.33858267716535434,
          "duration": 0.12790697674415696
        },
        {
          "name": "F5",
          "midi": 77,
          "time": 90.3372093023171,
          "velocity": 0.3779527559055118,
          "duration": 0.05813953488370771
        },
        {
          "name": "D#6",
          "midi": 87,
          "time": 90.34883720929385,
          "velocity": 0.11811023622047244,
          "duration": 0.04651162790696617
        },
        {
          "name": "D5",
          "midi": 74,
          "time": 90.36046511627059,
          "velocity": 0.3779527559055118,
          "duration": 0.04651162790696617
        },
        {
          "name": "G#5",
          "midi": 80,
          "time": 90.36046511627059,
          "velocity": 0.18110236220472442,
          "duration": 0.06976744186044925
        },
        {
          "name": "C6",
          "midi": 84,
          "time": 90.36046511627059,
          "velocity": 0.14960629921259844,
          "duration": 0.034883720930224626
        },
        {
          "name": "A#3",
          "midi": 58,
          "time": 90.37209302324733,
          "velocity": 0.3779527559055118,
          "duration": 0.1395348837208985
        },
        {
          "name": "G#4",
          "midi": 68,
          "time": 90.37209302324733,
          "velocity": 0.29133858267716534,
          "duration": 0.023255813953483084
        },
        {
          "name": "B5",
          "midi": 83,
          "time": 90.37209302324733,
          "velocity": 0.2283464566929134,
          "duration": 0.09302325581393234
        },
        {
          "name": "C#6",
          "midi": 85,
          "time": 90.38372093022407,
          "velocity": 0.33070866141732286,
          "duration": 0.04651162790696617
        },
        {
          "name": "F4",
          "midi": 65,
          "time": 90.39534883720081,
          "velocity": 0.14173228346456693,
          "duration": 0.04651162790696617
        },
        {
          "name": "E5",
          "midi": 76,
          "time": 90.39534883720081,
          "velocity": 0.31496062992125984,
          "duration": 0.05813953488370771
        },
        {
          "name": "F#5",
          "midi": 78,
          "time": 90.39534883720081,
          "velocity": 0.1889763779527559,
          "duration": 0.04651162790696617
        },
        {
          "name": "G#4",
          "midi": 68,
          "time": 90.40697674417756,
          "velocity": 0.3228346456692913,
          "duration": 0.1627906976743816
        },
        {
          "name": "F6",
          "midi": 89,
          "time": 90.40697674417756,
          "velocity": 0.10236220472440945,
          "duration": 0.05813953488370771
        },
        {
          "name": "C7",
          "midi": 96,
          "time": 90.40697674417756,
          "velocity": 0.12598425196850394,
          "duration": 0.034883720930224626
        },
        {
          "name": "B4",
          "midi": 71,
          "time": 90.43023255813104,
          "velocity": 0.4645669291338583,
          "duration": 0.04651162790696617
        },
        {
          "name": "D#6",
          "midi": 87,
          "time": 90.43023255813104,
          "velocity": 0.14960629921259844,
          "duration": 0.1395348837208985
        },
        {
          "name": "A#5",
          "midi": 82,
          "time": 90.44186046510778,
          "velocity": 0.07086614173228346,
          "duration": 0.06976744186044925
        },
        {
          "name": "F4",
          "midi": 65,
          "time": 90.45348837208452,
          "velocity": 0.23622047244094488,
          "duration": 0.023255813953483084
        },
        {
          "name": "C6",
          "midi": 84,
          "time": 90.46511627906126,
          "velocity": 0.13385826771653545,
          "duration": 0.034883720930224626
        },
        {
          "name": "A#4",
          "midi": 70,
          "time": 90.476744186038,
          "velocity": 0.5748031496062992,
          "duration": 0.918604651162596
        },
        {
          "name": "C#4",
          "midi": 61,
          "time": 90.49999999999149,
          "velocity": 0.3937007874015748,
          "duration": 0.04651162790696617
        },
        {
          "name": "C#5",
          "midi": 73,
          "time": 90.49999999999149,
          "velocity": 0.47244094488188976,
          "duration": 0.04651162790696617
        },
        {
          "name": "F6",
          "midi": 89,
          "time": 90.51162790696823,
          "velocity": 0.31496062992125984,
          "duration": 0.034883720930224626
        },
        {
          "name": "G#6",
          "midi": 92,
          "time": 90.51162790696823,
          "velocity": 0.3464566929133858,
          "duration": 0.04651162790696617
        },
        {
          "name": "C#7",
          "midi": 97,
          "time": 90.51162790696823,
          "velocity": 0.25196850393700787,
          "duration": 0.0813953488371908
        },
        {
          "name": "A#3",
          "midi": 58,
          "time": 90.53488372092171,
          "velocity": 0.33070866141732286,
          "duration": 0.023255813953483084
        },
        {
          "name": "F#6",
          "midi": 90,
          "time": 90.53488372092171,
          "velocity": 0.13385826771653545,
          "duration": 0.05813953488370771
        },
        {
          "name": "G6",
          "midi": 91,
          "time": 90.53488372092171,
          "velocity": 0.2125984251968504,
          "duration": 0.034883720930224626
        },
        {
          "name": "A6",
          "midi": 93,
          "time": 90.53488372092171,
          "velocity": 0.3543307086614173,
          "duration": 0.05813953488370771
        },
        {
          "name": "A#6",
          "midi": 94,
          "time": 90.53488372092171,
          "velocity": 0.15748031496062992,
          "duration": 0.034883720930224626
        },
        {
          "name": "C7",
          "midi": 96,
          "time": 90.53488372092171,
          "velocity": 0.16535433070866143,
          "duration": 0.04651162790696617
        },
        {
          "name": "B6",
          "midi": 95,
          "time": 90.54651162789845,
          "velocity": 0.1968503937007874,
          "duration": 0.04651162790696617
        },
        {
          "name": "C#1",
          "midi": 25,
          "time": 90.5581395348752,
          "velocity": 0.5275590551181102,
          "duration": 0.011627906976741542
        },
        {
          "name": "B3",
          "midi": 59,
          "time": 90.5581395348752,
          "velocity": 0.3228346456692913,
          "duration": 0.023255813953483084
        },
        {
          "name": "C1",
          "midi": 24,
          "time": 90.56976744185194,
          "velocity": 0.6062992125984252,
          "duration": 0.011627906976741542
        },
        {
          "name": "D#4",
          "midi": 63,
          "time": 90.56976744185194,
          "velocity": 0.33070866141732286,
          "duration": 0.3837209302324709
        },
        {
          "name": "C#1",
          "midi": 25,
          "time": 90.58139534882868,
          "velocity": 0.7007874015748031,
          "duration": 0.023255813953483084
        },
        {
          "name": "A2",
          "midi": 45,
          "time": 90.58139534882868,
          "velocity": 0.4645669291338583,
          "duration": 0.023255813953483084
        },
        {
          "name": "F#4",
          "midi": 66,
          "time": 90.58139534882868,
          "velocity": 0.1732283464566929,
          "duration": 0.2209302325580893
        },
        {
          "name": "C#5",
          "midi": 73,
          "time": 90.58139534882868,
          "velocity": 0.13385826771653545,
          "duration": 0.034883720930224626
        },
        {
          "name": "F6",
          "midi": 89,
          "time": 90.58139534882868,
          "velocity": 0.3228346456692913,
          "duration": 0.4999999999999005
        },
        {
          "name": "F#3",
          "midi": 54,
          "time": 90.59302325580542,
          "velocity": 0.5039370078740157,
          "duration": 0.034883720930224626
        },
        {
          "name": "B0",
          "midi": 23,
          "time": 90.60465116278216,
          "velocity": 0.7165354330708661,
          "duration": 0.04651162790696617
        },
        {
          "name": "G6",
          "midi": 91,
          "time": 90.60465116278216,
          "velocity": 0.12598425196850394,
          "duration": 0.09302325581393234
        },
        {
          "name": "B6",
          "midi": 95,
          "time": 90.60465116278216,
          "velocity": 0.4094488188976378,
          "duration": 0.05813953488370771
        },
        {
          "name": "D#7",
          "midi": 99,
          "time": 90.60465116278216,
          "velocity": 0.2283464566929134,
          "duration": 0.05813953488370771
        },
        {
          "name": "D#6",
          "midi": 87,
          "time": 90.6162790697589,
          "velocity": 0.08661417322834646,
          "duration": 0.034883720930224626
        },
        {
          "name": "A6",
          "midi": 93,
          "time": 90.6162790697589,
          "velocity": 0.12598425196850394,
          "duration": 0.034883720930224626
        },
        {
          "name": "C#7",
          "midi": 97,
          "time": 90.6162790697589,
          "velocity": 0.2440944881889764,
          "duration": 0.04651162790696617
        },
        {
          "name": "D7",
          "midi": 98,
          "time": 90.6162790697589,
          "velocity": 0.09448818897637795,
          "duration": 0.06976744186044925
        },
        {
          "name": "E7",
          "midi": 100,
          "time": 90.6162790697589,
          "velocity": 0.11811023622047244,
          "duration": 0.034883720930224626
        },
        {
          "name": "C#5",
          "midi": 73,
          "time": 90.62790697673564,
          "velocity": 0.16535433070866143,
          "duration": 0.09302325581393234
        },
        {
          "name": "A#0",
          "midi": 22,
          "time": 90.65116279068913,
          "velocity": 0.7165354330708661,
          "duration": 0.011627906976741542
        },
        {
          "name": "B0",
          "midi": 23,
          "time": 90.66279069766587,
          "velocity": 0.7244094488188977,
          "duration": 0.18604651162786467
        },
        {
          "name": "A#3",
          "midi": 58,
          "time": 90.66279069766587,
          "velocity": 0.2992125984251969,
          "duration": 0.023255813953483084
        },
        {
          "name": "F5",
          "midi": 77,
          "time": 90.66279069766587,
          "velocity": 0.12598425196850394,
          "duration": 0.034883720930224626
        },
        {
          "name": "E3",
          "midi": 52,
          "time": 90.68604651161935,
          "velocity": 0.5118110236220472,
          "duration": 0.011627906976741542
        },
        {
          "name": "F#2",
          "midi": 42,
          "time": 90.70930232557284,
          "velocity": 0.4409448818897638,
          "duration": 0.023255813953483084
        },
        {
          "name": "D3",
          "midi": 50,
          "time": 90.70930232557284,
          "velocity": 0.5118110236220472,
          "duration": 0.011627906976741542
        },
        {
          "name": "F5",
          "midi": 77,
          "time": 90.70930232557284,
          "velocity": 0.2755905511811024,
          "duration": 0.0813953488371908
        },
        {
          "name": "D#3",
          "midi": 51,
          "time": 90.72093023254958,
          "velocity": 0.4881889763779528,
          "duration": 0.023255813953483084
        },
        {
          "name": "A#3",
          "midi": 58,
          "time": 90.72093023254958,
          "velocity": 0.3937007874015748,
          "duration": 0.06976744186044925
        },
        {
          "name": "D6",
          "midi": 86,
          "time": 90.73255813952632,
          "velocity": 0.1889763779527559,
          "duration": 0.04651162790696617
        },
        {
          "name": "D#3",
          "midi": 51,
          "time": 90.7558139534798,
          "velocity": 0.5196850393700787,
          "duration": 0.360465116279002
        },
        {
          "name": "F#2",
          "midi": 42,
          "time": 90.79069767441003,
          "velocity": 0.44881889763779526,
          "duration": 0.034883720930224626
        },
        {
          "name": "C#5",
          "midi": 73,
          "time": 90.80232558138677,
          "velocity": 0.14960629921259844,
          "duration": 0.04651162790696617
        },
        {
          "name": "F#2",
          "midi": 42,
          "time": 90.83720930231699,
          "velocity": 0.41732283464566927,
          "duration": 0.023255813953483084
        },
        {
          "name": "F#4",
          "midi": 66,
          "time": 90.83720930231699,
          "velocity": 0.11023622047244094,
          "duration": 0.04651162790696617
        },
        {
          "name": "A#0",
          "midi": 22,
          "time": 90.84883720929373,
          "velocity": 0.7165354330708661,
          "duration": 0.011627906976741542
        },
        {
          "name": "B0",
          "midi": 23,
          "time": 90.86046511627048,
          "velocity": 0.7244094488188977,
          "duration": 1.0813953488369776
        },
        {
          "name": "C#5",
          "midi": 73,
          "time": 90.8953488372007,
          "velocity": 0.3937007874015748,
          "duration": 0.29069767441855277
        },
        {
          "name": "F#4",
          "midi": 66,
          "time": 90.90697674417744,
          "velocity": 0.08661417322834646,
          "duration": 0.04651162790696617
        },
        {
          "name": "F#2",
          "midi": 42,
          "time": 90.91860465115418,
          "velocity": 0.4409448818897638,
          "duration": 0.023255813953483084
        },
        {
          "name": "C#4",
          "midi": 61,
          "time": 90.95348837208441,
          "velocity": 0.5433070866141733,
          "duration": 0.081395348837205
        },
        {
          "name": "G#5",
          "midi": 80,
          "time": 90.95348837208441,
          "velocity": 0.28346456692913385,
          "duration": 0.09302325581394655
        },
        {
          "name": "G6",
          "midi": 91,
          "time": 90.95348837208441,
          "velocity": 0.09448818897637795,
          "duration": 0.081395348837205
        },
        {
          "name": "C#7",
          "midi": 97,
          "time": 90.95348837208441,
          "velocity": 0.10236220472440945,
          "duration": 0.04651162790698038
        },
        {
          "name": "F#2",
          "midi": 42,
          "time": 90.98837209301465,
          "velocity": 0.44881889763779526,
          "duration": 0.023255813953483084
        },
        {
          "name": "B6",
          "midi": 95,
          "time": 91.01162790696813,
          "velocity": 0.2992125984251969,
          "duration": 0.0813953488371908
        },
        {
          "name": "C4",
          "midi": 60,
          "time": 91.03488372092161,
          "velocity": 0.3464566929133858,
          "duration": 0.023255813953483084
        },
        {
          "name": "D#5",
          "midi": 75,
          "time": 91.03488372092161,
          "velocity": 0.11811023622047244,
          "duration": 0.06976744186044925
        },
        {
          "name": "D#6",
          "midi": 87,
          "time": 91.03488372092161,
          "velocity": 0.2440944881889764,
          "duration": 0.05813953488370771
        },
        {
          "name": "F#6",
          "midi": 90,
          "time": 91.03488372092161,
          "velocity": 0.41732283464566927,
          "duration": 0.06976744186044925
        },
        {
          "name": "A6",
          "midi": 93,
          "time": 91.03488372092161,
          "velocity": 0.2047244094488189,
          "duration": 0.034883720930224626
        },
        {
          "name": "F#5",
          "midi": 78,
          "time": 91.04651162789835,
          "velocity": 0.25984251968503935,
          "duration": 0.04651162790696617
        },
        {
          "name": "B5",
          "midi": 83,
          "time": 91.04651162789835,
          "velocity": 0.14173228346456693,
          "duration": 0.034883720930224626
        },
        {
          "name": "B3",
          "midi": 59,
          "time": 91.0581395348751,
          "velocity": 0.2992125984251969,
          "duration": 0.06976744186044925
        },
        {
          "name": "C6",
          "midi": 84,
          "time": 91.09302325580532,
          "velocity": 0.07086614173228346,
          "duration": 0.09302325581393234
        },
        {
          "name": "F6",
          "midi": 89,
          "time": 91.09302325580532,
          "velocity": 0.25984251968503935,
          "duration": 0.12790697674415696
        },
        {
          "name": "F#2",
          "midi": 42,
          "time": 91.1162790697588,
          "velocity": 0.4409448818897638,
          "duration": 0.05813953488370771
        },
        {
          "name": "D#3",
          "midi": 51,
          "time": 91.12790697673555,
          "velocity": 0.47244094488188976,
          "duration": 0.023255813953483084
        },
        {
          "name": "A#3",
          "midi": 58,
          "time": 91.13953488371229,
          "velocity": 0.36220472440944884,
          "duration": 0.04651162790696617
        },
        {
          "name": "D#3",
          "midi": 51,
          "time": 91.16279069766577,
          "velocity": 0.4566929133858268,
          "duration": 0.04651162790696617
        },
        {
          "name": "F4",
          "midi": 65,
          "time": 91.17441860464251,
          "velocity": 0.33070866141732286,
          "duration": 0.023255813953483084
        },
        {
          "name": "E5",
          "midi": 76,
          "time": 91.18604651161925,
          "velocity": 0.2283464566929134,
          "duration": 0.034883720930224626
        },
        {
          "name": "C#6",
          "midi": 85,
          "time": 91.18604651161925,
          "velocity": 0.09448818897637795,
          "duration": 0.034883720930224626
        },
        {
          "name": "D7",
          "midi": 98,
          "time": 91.18604651161925,
          "velocity": 0.3228346456692913,
          "duration": 0.12790697674415696
        },
        {
          "name": "D#4",
          "midi": 63,
          "time": 91.20930232557274,
          "velocity": 0.3779527559055118,
          "duration": 0.0813953488371908
        },
        {
          "name": "F#6",
          "midi": 90,
          "time": 91.20930232557274,
          "velocity": 0.2283464566929134,
          "duration": 0.05813953488370771
        },
        {
          "name": "A#6",
          "midi": 94,
          "time": 91.20930232557274,
          "velocity": 0.25196850393700787,
          "duration": 0.0813953488371908
        },
        {
          "name": "B6",
          "midi": 95,
          "time": 91.20930232557274,
          "velocity": 0.2755905511811024,
          "duration": 0.034883720930224626
        },
        {
          "name": "C7",
          "midi": 96,
          "time": 91.20930232557274,
          "velocity": 0.2677165354330709,
          "duration": 0.0813953488371908
        },
        {
          "name": "D#7",
          "midi": 99,
          "time": 91.20930232557274,
          "velocity": 0.2755905511811024,
          "duration": 0.1395348837208985
        },
        {
          "name": "D#3",
          "midi": 51,
          "time": 91.22093023254948,
          "velocity": 0.4094488188976378,
          "duration": 0.023255813953483084
        },
        {
          "name": "A#3",
          "midi": 58,
          "time": 91.22093023254948,
          "velocity": 0.30708661417322836,
          "duration": 0.05813953488370771
        },
        {
          "name": "C#5",
          "midi": 73,
          "time": 91.22093023254948,
          "velocity": 0.15748031496062992,
          "duration": 0.18604651162786467
        },
        {
          "name": "F5",
          "midi": 77,
          "time": 91.22093023254948,
          "velocity": 0.18110236220472442,
          "duration": 0.06976744186044925
        },
        {
          "name": "D6",
          "midi": 86,
          "time": 91.22093023254948,
          "velocity": 0.12598425196850394,
          "duration": 0.034883720930224626
        },
        {
          "name": "A6",
          "midi": 93,
          "time": 91.22093023254948,
          "velocity": 0.2755905511811024,
          "duration": 0.06976744186044925
        },
        {
          "name": "C#7",
          "midi": 97,
          "time": 91.22093023254948,
          "velocity": 0.28346456692913385,
          "duration": 0.10465116279067388
        },
        {
          "name": "E7",
          "midi": 100,
          "time": 91.22093023254948,
          "velocity": 0.2047244094488189,
          "duration": 0.12790697674415696
        },
        {
          "name": "F7",
          "midi": 101,
          "time": 91.22093023254948,
          "velocity": 0.29133858267716534,
          "duration": 0.11627906976741542
        },
        {
          "name": "G7",
          "midi": 103,
          "time": 91.24418604650296,
          "velocity": 0.08661417322834646,
          "duration": 0.04651162790696617
        },
        {
          "name": "F#2",
          "midi": 42,
          "time": 91.27906976743319,
          "velocity": 0.4094488188976378,
          "duration": 0.023255813953483084
        },
        {
          "name": "B3",
          "midi": 59,
          "time": 91.27906976743319,
          "velocity": 0.4015748031496063,
          "duration": 0.034883720930224626
        },
        {
          "name": "C6",
          "midi": 84,
          "time": 91.27906976743319,
          "velocity": 0.08661417322834646,
          "duration": 0.15116279069764005
        },
        {
          "name": "F6",
          "midi": 89,
          "time": 91.29069767440993,
          "velocity": 0.23622047244094488,
          "duration": 0.5465116279068525
        },
        {
          "name": "D#4",
          "midi": 63,
          "time": 91.30232558138667,
          "velocity": 0.30708661417322836,
          "duration": 0.05813953488370771
        },
        {
          "name": "F#2",
          "midi": 42,
          "time": 91.31395348836341,
          "velocity": 0.4094488188976378,
          "duration": 0.023255813953483084
        },
        {
          "name": "A#3",
          "midi": 58,
          "time": 91.31395348836341,
          "velocity": 0.4330708661417323,
          "duration": 0.023255813953483084
        },
        {
          "name": "B3",
          "midi": 59,
          "time": 91.3372093023169,
          "velocity": 0.5196850393700787,
          "duration": 0.034883720930224626
        },
        {
          "name": "D7",
          "midi": 98,
          "time": 91.3372093023169,
          "velocity": 0.18110236220472442,
          "duration": 0.12790697674415696
        },
        {
          "name": "F4",
          "midi": 65,
          "time": 91.36046511627038,
          "velocity": 0.2992125984251969,
          "duration": 0.034883720930224626
        },
        {
          "name": "C4",
          "midi": 60,
          "time": 91.37209302324712,
          "velocity": 0.5196850393700787,
          "duration": 0.023255813953483084
        },
        {
          "name": "B4",
          "midi": 71,
          "time": 91.38372093022386,
          "velocity": 0.33858267716535434,
          "duration": 0.04651162790696617
        },
        {
          "name": "B3",
          "midi": 59,
          "time": 91.3953488372006,
          "velocity": 0.41732283464566927,
          "duration": 0.034883720930224626
        },
        {
          "name": "C#7",
          "midi": 97,
          "time": 91.3953488372006,
          "velocity": 0.11811023622047244,
          "duration": 0.034883720930224626
        },
        {
          "name": "A#6",
          "midi": 94,
          "time": 91.40697674417734,
          "velocity": 0.25984251968503935,
          "duration": 0.05813953488370771
        },
        {
          "name": "D#4",
          "midi": 63,
          "time": 91.41860465115408,
          "velocity": 0.29133858267716534,
          "duration": 0.05813953488370771
        },
        {
          "name": "C#5",
          "midi": 73,
          "time": 91.41860465115408,
          "velocity": 0.13385826771653545,
          "duration": 0.06976744186044925
        },
        {
          "name": "C7",
          "midi": 96,
          "time": 91.41860465115408,
          "velocity": 0.15748031496062992,
          "duration": 0.034883720930224626
        },
        {
          "name": "F#2",
          "midi": 42,
          "time": 91.43023255813083,
          "velocity": 0.4015748031496063,
          "duration": 0.034883720930224626
        },
        {
          "name": "A#3",
          "midi": 58,
          "time": 91.43023255813083,
          "velocity": 0.25196850393700787,
          "duration": 0.04651162790696617
        },
        {
          "name": "A#4",
          "midi": 70,
          "time": 91.43023255813083,
          "velocity": 0.5039370078740157,
          "duration": 0.04651162790696617
        },
        {
          "name": "F5",
          "midi": 77,
          "time": 91.43023255813083,
          "velocity": 0.13385826771653545,
          "duration": 0.034883720930224626
        },
        {
          "name": "G6",
          "midi": 91,
          "time": 91.43023255813083,
          "velocity": 0.2047244094488189,
          "duration": 0.05813953488370771
        },
        {
          "name": "F#5",
          "midi": 78,
          "time": 91.46511627906105,
          "velocity": 0.23622047244094488,
          "duration": 0.17441860465112313
        },
        {
          "name": "B3",
          "midi": 59,
          "time": 91.47674418603779,
          "velocity": 0.33858267716535434,
          "duration": 0.05813953488370771
        },
        {
          "name": "F#4",
          "midi": 66,
          "time": 91.47674418603779,
          "velocity": 0.2992125984251969,
          "duration": 0.18604651162786467
        },
        {
          "name": "B4",
          "midi": 71,
          "time": 91.47674418603779,
          "velocity": 0.5039370078740157,
          "duration": 0.034883720930224626
        },
        {
          "name": "D#4",
          "midi": 63,
          "time": 91.48837209301453,
          "velocity": 0.3228346456692913,
          "duration": 0.37209302325572935
        },
        {
          "name": "A#4",
          "midi": 70,
          "time": 91.49999999999127,
          "velocity": 0.3937007874015748,
          "duration": 0.09302325581393234
        },
        {
          "name": "C#5",
          "midi": 73,
          "time": 91.49999999999127,
          "velocity": 0.10236220472440945,
          "duration": 0.09302325581393234
        },
        {
          "name": "E3",
          "midi": 52,
          "time": 91.51162790696802,
          "velocity": 0.3700787401574803,
          "duration": 0.023255813953483084
        },
        {
          "name": "E3",
          "midi": 52,
          "time": 91.54651162789824,
          "velocity": 0.3700787401574803,
          "duration": 0.023255813953483084
        },
        {
          "name": "A#6",
          "midi": 94,
          "time": 91.56976744185172,
          "velocity": 0.08661417322834646,
          "duration": 0.09302325581393234
        },
        {
          "name": "E3",
          "midi": 52,
          "time": 91.58139534882847,
          "velocity": 0.3779527559055118,
          "duration": 0.023255813953483084
        },
        {
          "name": "B4",
          "midi": 71,
          "time": 91.5930232558052,
          "velocity": 0.47244094488188976,
          "duration": 0.023255813953483084
        },
        {
          "name": "F#2",
          "midi": 42,
          "time": 91.60465116278195,
          "velocity": 0.33858267716535434,
          "duration": 0.023255813953483084
        },
        {
          "name": "A#5",
          "midi": 82,
          "time": 91.60465116278195,
          "velocity": 0.15748031496062992,
          "duration": 0.0813953488371908
        },
        {
          "name": "A#4",
          "midi": 70,
          "time": 91.61627906975869,
          "velocity": 0.5590551181102362,
          "duration": 0.04651162790696617
        },
        {
          "name": "C#5",
          "midi": 73,
          "time": 91.62790697673543,
          "velocity": 0.10236220472440945,
          "duration": 0.19767441860460622
        },
        {
          "name": "F5",
          "midi": 77,
          "time": 91.62790697673543,
          "velocity": 0.1889763779527559,
          "duration": 0.05813953488370771
        },
        {
          "name": "D6",
          "midi": 86,
          "time": 91.62790697673543,
          "velocity": 0.14173228346456693,
          "duration": 0.034883720930224626
        },
        {
          "name": "A#3",
          "midi": 58,
          "time": 91.65116279068891,
          "velocity": 0.23622047244094488,
          "duration": 0.023255813953483084
        },
        {
          "name": "A4",
          "midi": 69,
          "time": 91.66279069766566,
          "velocity": 0.3858267716535433,
          "duration": 0.023255813953483084
        },
        {
          "name": "C#6",
          "midi": 85,
          "time": 91.66279069766566,
          "velocity": 0.15748031496062992,
          "duration": 0.1627906976743816
        },
        {
          "name": "F#4",
          "midi": 66,
          "time": 91.6744186046424,
          "velocity": 0.29133858267716534,
          "duration": 0.18604651162786467
        },
        {
          "name": "A#4",
          "midi": 70,
          "time": 91.68604651161914,
          "velocity": 0.5826771653543307,
          "duration": 0.19767441860460622
        },
        {
          "name": "B3",
          "midi": 59,
          "time": 91.70930232557262,
          "velocity": 0.13385826771653545,
          "duration": 0.04651162790696617
        },
        {
          "name": "G2",
          "midi": 43,
          "time": 91.72093023254936,
          "velocity": 0.3543307086614173,
          "duration": 0.023255813953483084
        },
        {
          "name": "E3",
          "midi": 52,
          "time": 91.74418604650285,
          "velocity": 0.29133858267716534,
          "duration": 0.023255813953483084
        },
        {
          "name": "F#2",
          "midi": 42,
          "time": 91.76744186045633,
          "velocity": 0.2992125984251969,
          "duration": 0.023255813953483084
        },
        {
          "name": "F#3",
          "midi": 54,
          "time": 91.76744186045633,
          "velocity": 0.3464566929133858,
          "duration": 0.023255813953483084
        },
        {
          "name": "G3",
          "midi": 55,
          "time": 91.79069767440981,
          "velocity": 0.36220472440944884,
          "duration": 0.023255813953483084
        },
        {
          "name": "A#3",
          "midi": 58,
          "time": 91.82558139534004,
          "velocity": 0.36220472440944884,
          "duration": 0.023255813953483084
        },
        {
          "name": "F5",
          "midi": 77,
          "time": 91.82558139534004,
          "velocity": 0.2440944881889764,
          "duration": 0.06976744186044925
        },
        {
          "name": "D6",
          "midi": 86,
          "time": 91.82558139534004,
          "velocity": 0.16535433070866143,
          "duration": 0.06976744186044925
        },
        {
          "name": "E6",
          "midi": 88,
          "time": 91.82558139534004,
          "velocity": 0.09448818897637795,
          "duration": 0.09302325581393234
        },
        {
          "name": "F#6",
          "midi": 90,
          "time": 91.82558139534004,
          "velocity": 0.33858267716535434,
          "duration": 0.25581395348832814
        },
        {
          "name": "G#6",
          "midi": 92,
          "time": 91.82558139534004,
          "velocity": 0.2440944881889764,
          "duration": 0.05813953488370771
        },
        {
          "name": "A#6",
          "midi": 94,
          "time": 91.82558139534004,
          "velocity": 0.3543307086614173,
          "duration": 0.10465116279067388
        },
        {
          "name": "D7",
          "midi": 98,
          "time": 91.82558139534004,
          "velocity": 0.36220472440944884,
          "duration": 0.0813953488371908
        },
        {
          "name": "C#5",
          "midi": 73,
          "time": 91.83720930231678,
          "velocity": 0.1732283464566929,
          "duration": 0.2209302325581035
        },
        {
          "name": "B6",
          "midi": 95,
          "time": 91.84883720929352,
          "velocity": 0.36220472440944884,
          "duration": 0.19767441860462043
        },
        {
          "name": "C7",
          "midi": 96,
          "time": 91.84883720929352,
          "velocity": 0.30708661417322836,
          "duration": 0.06976744186044925
        },
        {
          "name": "D#7",
          "midi": 99,
          "time": 91.84883720929352,
          "velocity": 0.30708661417322836,
          "duration": 0.20930232558136197
        },
        {
          "name": "E7",
          "midi": 100,
          "time": 91.84883720929352,
          "velocity": 0.23622047244094488,
          "duration": 0.10465116279067388
        },
        {
          "name": "C#4",
          "midi": 61,
          "time": 91.86046511627026,
          "velocity": 0.25984251968503935,
          "duration": 0.023255813953483084
        },
        {
          "name": "A6",
          "midi": 93,
          "time": 91.86046511627026,
          "velocity": 0.30708661417322836,
          "duration": 0.20930232558136197
        },
        {
          "name": "C#7",
          "midi": 97,
          "time": 91.86046511627026,
          "velocity": 0.25984251968503935,
          "duration": 0.10465116279067388
        },
        {
          "name": "F7",
          "midi": 101,
          "time": 91.86046511627026,
          "velocity": 0.28346456692913385,
          "duration": 0.06976744186044925
        },
        {
          "name": "G7",
          "midi": 103,
          "time": 91.86046511627026,
          "velocity": 0.1968503937007874,
          "duration": 0.06976744186044925
        },
        {
          "name": "F#3",
          "midi": 54,
          "time": 91.872093023247,
          "velocity": 0.30708661417322836,
          "duration": 0.18604651162787889
        },
        {
          "name": "B3",
          "midi": 59,
          "time": 91.88372093022375,
          "velocity": 0.23622047244094488,
          "duration": 0.18604651162787889
        },
        {
          "name": "B4",
          "midi": 71,
          "time": 91.88372093022375,
          "velocity": 0.4881889763779528,
          "duration": 0.19767441860462043
        },
        {
          "name": "F#5",
          "midi": 78,
          "time": 91.89534883720049,
          "velocity": 0.29133858267716534,
          "duration": 0.18604651162787889
        },
        {
          "name": "G#6",
          "midi": 92,
          "time": 91.89534883720049,
          "velocity": 0.25984251968503935,
          "duration": 0.034883720930224626
        },
        {
          "name": "G#4",
          "midi": 68,
          "time": 91.91860465115397,
          "velocity": 0.2755905511811024,
          "duration": 0.23255813953484505
        },
        {
          "name": "C1",
          "midi": 24,
          "time": 91.94186046510745,
          "velocity": 0.5669291338582677,
          "duration": 0.011627906976741542
        },
        {
          "name": "B0",
          "midi": 23,
          "time": 91.9534883720842,
          "velocity": 0.5669291338582677,
          "duration": 0.5697674418604208
        },
        {
          "name": "D#6",
          "midi": 87,
          "time": 91.97674418603768,
          "velocity": 0.28346456692913385,
          "duration": 0.09302325581394655
        },
        {
          "name": "E7",
          "midi": 100,
          "time": 92.0348837209214,
          "velocity": 0.13385826771653545,
          "duration": 0.09302325581393234
        },
        {
          "name": "E3",
          "midi": 52,
          "time": 92.06976744185162,
          "velocity": 0.2992125984251969,
          "duration": 0.023255813953483084
        },
        {
          "name": "A#3",
          "midi": 58,
          "time": 92.06976744185162,
          "velocity": 0.2283464566929134,
          "duration": 0.17441860465113734
        },
        {
          "name": "A#5",
          "midi": 82,
          "time": 92.06976744185162,
          "velocity": 0.3937007874015748,
          "duration": 0.17441860465113734
        },
        {
          "name": "D6",
          "midi": 86,
          "time": 92.06976744185162,
          "velocity": 0.4251968503937008,
          "duration": 0.10465116279067388
        },
        {
          "name": "A#4",
          "midi": 70,
          "time": 92.08139534882837,
          "velocity": 0.4881889763779528,
          "duration": 0.1627906976743958
        },
        {
          "name": "F5",
          "midi": 77,
          "time": 92.08139534882837,
          "velocity": 0.2755905511811024,
          "duration": 0.1627906976743958
        },
        {
          "name": "D#6",
          "midi": 87,
          "time": 92.08139534882837,
          "velocity": 0.11023622047244094,
          "duration": 0.20930232558137618
        },
        {
          "name": "F3",
          "midi": 53,
          "time": 92.09302325580511,
          "velocity": 0.33070866141732286,
          "duration": 0.1860465116278931
        },
        {
          "name": "F#2",
          "midi": 42,
          "time": 92.10465116278185,
          "velocity": 0.15748031496062992,
          "duration": 0.034883720930224626
        },
        {
          "name": "G#4",
          "midi": 68,
          "time": 92.18604651161904,
          "velocity": 0.2677165354330709,
          "duration": 0.04651162790698038
        },
        {
          "name": "B3",
          "midi": 59,
          "time": 92.24418604650276,
          "velocity": 0.29133858267716534,
          "duration": 0.06976744186046346
        },
        {
          "name": "G#4",
          "midi": 68,
          "time": 92.24418604650276,
          "velocity": 0.2755905511811024,
          "duration": 0.05813953488372192
        },
        {
          "name": "B4",
          "midi": 71,
          "time": 92.24418604650276,
          "velocity": 0.3779527559055118,
          "duration": 0.04651162790698038
        },
        {
          "name": "F#5",
          "midi": 78,
          "time": 92.24418604650276,
          "velocity": 0.2204724409448819,
          "duration": 0.05813953488372192
        },
        {
          "name": "F#4",
          "midi": 66,
          "time": 92.29069767440974,
          "velocity": 0.2440944881889764,
          "duration": 0.023255813953483084
        },
        {
          "name": "D#3",
          "midi": 51,
          "time": 92.30232558138648,
          "velocity": 0.33070866141732286,
          "duration": 0.1860465116279073
        },
        {
          "name": "C#4",
          "midi": 61,
          "time": 92.31395348836323,
          "velocity": 0.23622047244094488,
          "duration": 0.034883720930224626
        },
        {
          "name": "A#4",
          "midi": 70,
          "time": 92.32558139533997,
          "velocity": 0.3779527559055118,
          "duration": 0.38372093023254195
        },
        {
          "name": "F6",
          "midi": 89,
          "time": 92.34883720929345,
          "velocity": 0.11811023622047244,
          "duration": 0.3372093023255758
        },
        {
          "name": "D5",
          "midi": 74,
          "time": 92.39534883720043,
          "velocity": 0.14960629921259844,
          "duration": 0.03488372093023884
        },
        {
          "name": "E4",
          "midi": 64,
          "time": 92.43023255813067,
          "velocity": 0.18110236220472442,
          "duration": 0.03488372093023884
        },
        {
          "name": "E3",
          "midi": 52,
          "time": 92.48837209301439,
          "velocity": 0.23622047244094488,
          "duration": 0.023255813953483084
        },
        {
          "name": "C#3",
          "midi": 49,
          "time": 92.52325581394462,
          "velocity": 0.4015748031496063,
          "duration": 0.13953488372092693
        },
        {
          "name": "F5",
          "midi": 77,
          "time": 92.5697674418516,
          "velocity": 0.07086614173228346,
          "duration": 0.09302325581394655
        },
        {
          "name": "G#4",
          "midi": 68,
          "time": 92.58139534882834,
          "velocity": 0.13385826771653545,
          "duration": 0.081395348837205
        },
        {
          "name": "D4",
          "midi": 62,
          "time": 92.66279069766554,
          "velocity": 0.14960629921259844,
          "duration": 0.04651162790696617
        },
        {
          "name": "G#4",
          "midi": 68,
          "time": 92.69767441859577,
          "velocity": 0.3700787401574803,
          "duration": 0.11627906976741542
        },
        {
          "name": "F5",
          "midi": 77,
          "time": 92.69767441859577,
          "velocity": 0.44881889763779526,
          "duration": 0.290697674418567
        },
        {
          "name": "D#6",
          "midi": 87,
          "time": 92.69767441859577,
          "velocity": 0.3937007874015748,
          "duration": 0.4534883720929628
        },
        {
          "name": "G6",
          "midi": 91,
          "time": 92.69767441859577,
          "velocity": 0.2283464566929134,
          "duration": 0.25581395348832814
        },
        {
          "name": "C3",
          "midi": 48,
          "time": 92.70930232557251,
          "velocity": 0.3937007874015748,
          "duration": 0.034883720930224626
        },
        {
          "name": "C7",
          "midi": 96,
          "time": 92.70930232557251,
          "velocity": 0.16535433070866143,
          "duration": 0.10465116279067388
        },
        {
          "name": "F#1",
          "midi": 30,
          "time": 92.72093023254925,
          "velocity": 0.6614173228346457,
          "duration": 0.011627906976741542
        },
        {
          "name": "A#3",
          "midi": 58,
          "time": 92.72093023254925,
          "velocity": 0.47244094488188976,
          "duration": 0.034883720930224626
        },
        {
          "name": "D6",
          "midi": 86,
          "time": 92.72093023254925,
          "velocity": 0.15748031496062992,
          "duration": 0.12790697674415696
        },
        {
          "name": "F1",
          "midi": 29,
          "time": 92.73255813952599,
          "velocity": 0.7165354330708661,
          "duration": 0.011627906976741542
        },
        {
          "name": "D#4",
          "midi": 63,
          "time": 92.73255813952599,
          "velocity": 0.2677165354330709,
          "duration": 0.06976744186044925
        },
        {
          "name": "E1",
          "midi": 28,
          "time": 92.74418604650273,
          "velocity": 0.7165354330708661,
          "duration": 0.011627906976741542
        },
        {
          "name": "D#1",
          "midi": 27,
          "time": 92.75581395347947,
          "velocity": 0.7480314960629921,
          "duration": 1.2325581395346887
        },
        {
          "name": "G3",
          "midi": 55,
          "time": 92.76744186045622,
          "velocity": 0.5196850393700787,
          "duration": 0.767441860465027
        },
        {
          "name": "A#2",
          "midi": 46,
          "time": 92.7906976744097,
          "velocity": 0.4251968503937008,
          "duration": 0.023255813953483084
        },
        {
          "name": "F#4",
          "midi": 66,
          "time": 92.7906976744097,
          "velocity": 0.2204724409448819,
          "duration": 0.034883720930224626
        },
        {
          "name": "A#4",
          "midi": 70,
          "time": 92.80232558138644,
          "velocity": 0.3700787401574803,
          "duration": 0.05813953488370771
        },
        {
          "name": "A#2",
          "midi": 46,
          "time": 92.82558139533992,
          "velocity": 0.4094488188976378,
          "duration": 0.023255813953483084
        },
        {
          "name": "G#4",
          "midi": 68,
          "time": 92.82558139533992,
          "velocity": 0.36220472440944884,
          "duration": 0.41860465116273815
        },
        {
          "name": "A#2",
          "midi": 46,
          "time": 92.86046511627015,
          "velocity": 0.4409448818897638,
          "duration": 0.081395348837205
        },
        {
          "name": "G5",
          "midi": 79,
          "time": 92.86046511627015,
          "velocity": 0.07874015748031496,
          "duration": 0.05813953488372192
        },
        {
          "name": "C7",
          "midi": 96,
          "time": 92.91860465115387,
          "velocity": 0.13385826771653545,
          "duration": 0.034883720930224626
        },
        {
          "name": "A#4",
          "midi": 70,
          "time": 92.93023255813061,
          "velocity": 0.15748031496062992,
          "duration": 0.05813953488372192
        },
        {
          "name": "A#2",
          "midi": 46,
          "time": 92.9534883720841,
          "velocity": 0.4409448818897638,
          "duration": 0.11627906976744384
        },
        {
          "name": "A#4",
          "midi": 70,
          "time": 92.99999999999108,
          "velocity": 0.12598425196850394,
          "duration": 0.04651162790698038
        },
        {
          "name": "F5",
          "midi": 77,
          "time": 92.99999999999108,
          "velocity": 0.2204724409448819,
          "duration": 0.05813953488372192
        },
        {
          "name": "A#4",
          "midi": 70,
          "time": 93.0581395348748,
          "velocity": 0.25984251968503935,
          "duration": 0.09302325581393234
        },
        {
          "name": "A#2",
          "midi": 46,
          "time": 93.08139534882828,
          "velocity": 0.4409448818897638,
          "duration": 0.11627906976741542
        },
        {
          "name": "F5",
          "midi": 77,
          "time": 93.08139534882828,
          "velocity": 0.14173228346456693,
          "duration": 0.05813953488370771
        },
        {
          "name": "D4",
          "midi": 62,
          "time": 93.09302325580502,
          "velocity": 0.28346456692913385,
          "duration": 0.034883720930224626
        },
        {
          "name": "G6",
          "midi": 91,
          "time": 93.10465116278176,
          "velocity": 0.13385826771653545,
          "duration": 0.11627906976741542
        },
        {
          "name": "D#4",
          "midi": 63,
          "time": 93.12790697673525,
          "velocity": 0.28346456692913385,
          "duration": 0.034883720930224626
        },
        {
          "name": "B4",
          "midi": 71,
          "time": 93.15116279068873,
          "velocity": 0.3937007874015748,
          "duration": 0.2209302325581035
        },
        {
          "name": "D#6",
          "midi": 87,
          "time": 93.16279069766547,
          "velocity": 0.2440944881889764,
          "duration": 0.41860465116273815
        },
        {
          "name": "F5",
          "midi": 77,
          "time": 93.17441860464221,
          "velocity": 0.14960629921259844,
          "duration": 0.05813953488370771
        },
        {
          "name": "A#5",
          "midi": 82,
          "time": 93.1976744185957,
          "velocity": 0.09448818897637795,
          "duration": 0.04651162790696617
        },
        {
          "name": "A#2",
          "midi": 46,
          "time": 93.20930232557244,
          "velocity": 0.4094488188976378,
          "duration": 0.11627906976742963
        },
        {
          "name": "G#4",
          "midi": 68,
          "time": 93.2558139534794,
          "velocity": 0.3464566929133858,
          "duration": 0.3255813953488058
        },
        {
          "name": "F5",
          "midi": 77,
          "time": 93.2558139534794,
          "velocity": 0.4094488188976378,
          "duration": 0.9069767441858829
        },
        {
          "name": "C7",
          "midi": 96,
          "time": 93.26744186045615,
          "velocity": 0.08661417322834646,
          "duration": 0.04651162790698038
        },
        {
          "name": "A#2",
          "midi": 46,
          "time": 93.33720930231661,
          "velocity": 0.3779527559055118,
          "duration": 0.023255813953483084
        },
        {
          "name": "A#2",
          "midi": 46,
          "time": 93.37209302324683,
          "velocity": 0.3779527559055118,
          "duration": 0.05813953488370771
        },
        {
          "name": "A#4",
          "midi": 70,
          "time": 93.37209302324683,
          "velocity": 0.3464566929133858,
          "duration": 0.023255813953483084
        },
        {
          "name": "A#4",
          "midi": 70,
          "time": 93.4186046511538,
          "velocity": 0.18110236220472442,
          "duration": 0.11627906976744384
        },
        {
          "name": "A#2",
          "midi": 46,
          "time": 93.46511627906078,
          "velocity": 0.33858267716535434,
          "duration": 0.023255813953483084
        },
        {
          "name": "A#2",
          "midi": 46,
          "time": 93.5232558139445,
          "velocity": 0.33858267716535434,
          "duration": 0.034883720930224626
        },
        {
          "name": "G3",
          "midi": 55,
          "time": 93.54651162789798,
          "velocity": 0.3779527559055118,
          "duration": 0.05813953488370771
        },
        {
          "name": "A#2",
          "midi": 46,
          "time": 93.56976744185147,
          "velocity": 0.30708661417322836,
          "duration": 0.04651162790696617
        },
        {
          "name": "F4",
          "midi": 65,
          "time": 93.56976744185147,
          "velocity": 0.3543307086614173,
          "duration": 0.023255813953483084
        },
        {
          "name": "A#5",
          "midi": 82,
          "time": 93.56976744185147,
          "velocity": 0.18110236220472442,
          "duration": 0.034883720930224626
        },
        {
          "name": "E6",
          "midi": 88,
          "time": 93.56976744185147,
          "velocity": 0.15748031496062992,
          "duration": 0.04651162790696617
        },
        {
          "name": "A6",
          "midi": 93,
          "time": 93.56976744185147,
          "velocity": 0.23622047244094488,
          "duration": 0.034883720930224626
        },
        {
          "name": "B6",
          "midi": 95,
          "time": 93.56976744185147,
          "velocity": 0.3228346456692913,
          "duration": 0.034883720930224626
        },
        {
          "name": "C7",
          "midi": 96,
          "time": 93.56976744185147,
          "velocity": 0.25196850393700787,
          "duration": 0.10465116279067388
        },
        {
          "name": "D7",
          "midi": 98,
          "time": 93.56976744185147,
          "velocity": 0.3228346456692913,
          "duration": 0.09302325581393234
        },
        {
          "name": "D#7",
          "midi": 99,
          "time": 93.56976744185147,
          "velocity": 0.29133858267716534,
          "duration": 0.05813953488370771
        },
        {
          "name": "E7",
          "midi": 100,
          "time": 93.56976744185147,
          "velocity": 0.2283464566929134,
          "duration": 0.0813953488371908
        },
        {
          "name": "D#4",
          "midi": 63,
          "time": 93.58139534882821,
          "velocity": 0.5039370078740157,
          "duration": 0.09302325581393234
        },
        {
          "name": "A#4",
          "midi": 70,
          "time": 93.58139534882821,
          "velocity": 0.3464566929133858,
          "duration": 0.17441860465112313
        },
        {
          "name": "D#5",
          "midi": 75,
          "time": 93.58139534882821,
          "velocity": 0.5433070866141733,
          "duration": 0.1395348837208985
        },
        {
          "name": "F#6",
          "midi": 90,
          "time": 93.58139534882821,
          "velocity": 0.16535433070866143,
          "duration": 0.04651162790696617
        },
        {
          "name": "G6",
          "midi": 91,
          "time": 93.58139534882821,
          "velocity": 0.3937007874015748,
          "duration": 0.10465116279067388
        },
        {
          "name": "G#6",
          "midi": 92,
          "time": 93.58139534882821,
          "velocity": 0.23622047244094488,
          "duration": 0.06976744186044925
        },
        {
          "name": "A#6",
          "midi": 94,
          "time": 93.58139534882821,
          "velocity": 0.4251968503937008,
          "duration": 0.11627906976741542
        },
        {
          "name": "C#7",
          "midi": 97,
          "time": 93.58139534882821,
          "velocity": 0.3700787401574803,
          "duration": 0.09302325581393234
        },
        {
          "name": "F7",
          "midi": 101,
          "time": 93.58139534882821,
          "velocity": 0.25196850393700787,
          "duration": 0.05813953488370771
        },
        {
          "name": "F#7",
          "midi": 102,
          "time": 93.58139534882821,
          "velocity": 0.1968503937007874,
          "duration": 0.04651162790696617
        },
        {
          "name": "G#4",
          "midi": 68,
          "time": 93.59302325580495,
          "velocity": 0.3779527559055118,
          "duration": 0.1627906976743816
        },
        {
          "name": "C#6",
          "midi": 85,
          "time": 93.59302325580495,
          "velocity": 0.09448818897637795,
          "duration": 0.034883720930224626
        },
        {
          "name": "A#3",
          "midi": 58,
          "time": 93.62790697673518,
          "velocity": 0.3228346456692913,
          "duration": 0.06976744186044925
        },
        {
          "name": "A#2",
          "midi": 46,
          "time": 93.65116279068866,
          "velocity": 0.30708661417322836,
          "duration": 0.034883720930224626
        },
        {
          "name": "B6",
          "midi": 95,
          "time": 93.6627906976654,
          "velocity": 0.07874015748031496,
          "duration": 0.034883720930224626
        },
        {
          "name": "E4",
          "midi": 64,
          "time": 93.67441860464214,
          "velocity": 0.30708661417322836,
          "duration": 0.04651162790696617
        },
        {
          "name": "A#2",
          "midi": 46,
          "time": 93.69767441859562,
          "velocity": 0.2677165354330709,
          "duration": 0.04651162790696617
        },
        {
          "name": "D#3",
          "midi": 51,
          "time": 93.72093023254911,
          "velocity": 0.30708661417322836,
          "duration": 0.26744186046505547
        },
        {
          "name": "F4",
          "midi": 65,
          "time": 93.72093023254911,
          "velocity": 0.4094488188976378,
          "duration": 0.034883720930224626
        },
        {
          "name": "A#3",
          "midi": 58,
          "time": 93.73255813952585,
          "velocity": 0.4015748031496063,
          "duration": 0.26744186046505547
        },
        {
          "name": "C6",
          "midi": 84,
          "time": 93.73255813952585,
          "velocity": 0.2992125984251969,
          "duration": 0.10465116279067388
        },
        {
          "name": "C7",
          "midi": 96,
          "time": 93.73255813952585,
          "velocity": 0.33858267716535434,
          "duration": 0.19767441860460622
        },
        {
          "name": "D6",
          "midi": 86,
          "time": 93.74418604650259,
          "velocity": 0.16535433070866143,
          "duration": 0.05813953488370771
        },
        {
          "name": "A6",
          "midi": 93,
          "time": 93.74418604650259,
          "velocity": 0.3937007874015748,
          "duration": 0.10465116279067388
        },
        {
          "name": "F#4",
          "midi": 66,
          "time": 93.75581395347933,
          "velocity": 0.4409448818897638,
          "duration": 0.023255813953483084
        },
        {
          "name": "G#4",
          "midi": 68,
          "time": 93.76744186045607,
          "velocity": 0.33858267716535434,
          "duration": 0.2209302325580893
        },
        {
          "name": "A#4",
          "midi": 70,
          "time": 93.76744186045607,
          "velocity": 0.4094488188976378,
          "duration": 0.3023255813952801
        },
        {
          "name": "D#7",
          "midi": 99,
          "time": 93.76744186045607,
          "velocity": 0.3779527559055118,
          "duration": 0.12790697674415696
        },
        {
          "name": "F4",
          "midi": 65,
          "time": 93.77906976743282,
          "velocity": 0.25984251968503935,
          "duration": 0.05813953488370771
        },
        {
          "name": "B6",
          "midi": 95,
          "time": 93.82558139533978,
          "velocity": 0.2283464566929134,
          "duration": 0.06976744186044925
        },
        {
          "name": "E4",
          "midi": 64,
          "time": 93.83720930231652,
          "velocity": 0.29133858267716534,
          "duration": 0.023255813953483084
        },
        {
          "name": "D7",
          "midi": 98,
          "time": 93.83720930231652,
          "velocity": 0.07874015748031496,
          "duration": 0.04651162790696617
        },
        {
          "name": "E7",
          "midi": 100,
          "time": 93.86046511627,
          "velocity": 0.10236220472440945,
          "duration": 0.04651162790696617
        },
        {
          "name": "D#6",
          "midi": 87,
          "time": 93.89534883720023,
          "velocity": 0.3700787401574803,
          "duration": 0.45348837209292014
        },
        {
          "name": "A#6",
          "midi": 94,
          "time": 93.95348837208394,
          "velocity": 0.29133858267716534,
          "duration": 0.31395348837202164
        },
        {
          "name": "G6",
          "midi": 91,
          "time": 93.96511627906068,
          "velocity": 0.2755905511811024,
          "duration": 0.17441860465112313
        },
        {
          "name": "F7",
          "midi": 101,
          "time": 93.97674418603742,
          "velocity": 0.29133858267716534,
          "duration": 0.11627906976741542
        },
        {
          "name": "D1",
          "midi": 26,
          "time": 93.98837209301416,
          "velocity": 0.5196850393700787,
          "duration": 0.011627906976741542
        },
        {
          "name": "E4",
          "midi": 64,
          "time": 93.98837209301416,
          "velocity": 0.2755905511811024,
          "duration": 0.023255813953483084
        },
        {
          "name": "C7",
          "midi": 96,
          "time": 93.98837209301416,
          "velocity": 0.3700787401574803,
          "duration": 0.29069767441853855
        },
        {
          "name": "F#7",
          "midi": 102,
          "time": 93.98837209301416,
          "velocity": 0.18110236220472442,
          "duration": 0.11627906976741542
        },
        {
          "name": "B0",
          "midi": 23,
          "time": 93.9999999999909,
          "velocity": 0.5748031496062992,
          "duration": 0.011627906976741542
        },
        {
          "name": "F3",
          "midi": 53,
          "time": 93.9999999999909,
          "velocity": 0.44881889763779526,
          "duration": 0.023255813953483084
        },
        {
          "name": "D7",
          "midi": 98,
          "time": 93.9999999999909,
          "velocity": 0.25196850393700787,
          "duration": 0.0813953488371908
        },
        {
          "name": "E7",
          "midi": 100,
          "time": 93.9999999999909,
          "velocity": 0.25984251968503935,
          "duration": 0.04651162790696617
        },
        {
          "name": "C#1",
          "midi": 25,
          "time": 94.01162790696765,
          "velocity": 0.6614173228346457,
          "duration": 0.011627906976741542
        },
        {
          "name": "A2",
          "midi": 45,
          "time": 94.01162790696765,
          "velocity": 0.4330708661417323,
          "duration": 0.023255813953483084
        },
        {
          "name": "D#4",
          "midi": 63,
          "time": 94.01162790696765,
          "velocity": 0.3858267716535433,
          "duration": 0.5116279069766279
        },
        {
          "name": "C#5",
          "midi": 73,
          "time": 94.01162790696765,
          "velocity": 0.14173228346456693,
          "duration": 0.1395348837208985
        },
        {
          "name": "F6",
          "midi": 89,
          "time": 94.01162790696765,
          "velocity": 0.41732283464566927,
          "duration": 0.7209302325579756
        },
        {
          "name": "G#6",
          "midi": 92,
          "time": 94.01162790696765,
          "velocity": 0.3700787401574803,
          "duration": 0.2558139534883139
        },
        {
          "name": "D1",
          "midi": 26,
          "time": 94.02325581394439,
          "velocity": 0.7007874015748031,
          "duration": 0.011627906976741542
        },
        {
          "name": "F#3",
          "midi": 54,
          "time": 94.02325581394439,
          "velocity": 0.4645669291338583,
          "duration": 0.023255813953483084
        },
        {
          "name": "C1",
          "midi": 24,
          "time": 94.03488372092113,
          "velocity": 0.7007874015748031,
          "duration": 0.011627906976741542
        },
        {
          "name": "B0",
          "midi": 23,
          "time": 94.04651162789787,
          "velocity": 0.7322834645669292,
          "duration": 1.1046511627904607
        },
        {
          "name": "F#4",
          "midi": 66,
          "time": 94.04651162789787,
          "velocity": 0.2125984251968504,
          "duration": 0.034883720930224626
        },
        {
          "name": "A#3",
          "midi": 58,
          "time": 94.05813953487461,
          "velocity": 0.33070866141732286,
          "duration": 0.023255813953483084
        },
        {
          "name": "G#4",
          "midi": 68,
          "time": 94.0813953488281,
          "velocity": 0.2755905511811024,
          "duration": 0.023255813953483084
        },
        {
          "name": "E7",
          "midi": 100,
          "time": 94.0813953488281,
          "velocity": 0.1968503937007874,
          "duration": 0.11627906976741542
        },
        {
          "name": "F#2",
          "midi": 42,
          "time": 94.09302325580484,
          "velocity": 0.4566929133858268,
          "duration": 0.023255813953483084
        },
        {
          "name": "B3",
          "midi": 59,
          "time": 94.09302325580484,
          "velocity": 0.25196850393700787,
          "duration": 0.023255813953483084
        },
        {
          "name": "D#3",
          "midi": 51,
          "time": 94.11627906975832,
          "velocity": 0.5196850393700787,
          "duration": 0.023255813953483084
        },
        {
          "name": "F#4",
          "midi": 66,
          "time": 94.11627906975832,
          "velocity": 0.2755905511811024,
          "duration": 0.023255813953483084
        },
        {
          "name": "A4",
          "midi": 69,
          "time": 94.12790697673506,
          "velocity": 0.3937007874015748,
          "duration": 0.023255813953483084
        },
        {
          "name": "D#5",
          "midi": 75,
          "time": 94.12790697673506,
          "velocity": 0.5275590551181102,
          "duration": 0.06976744186044925
        },
        {
          "name": "G#5",
          "midi": 80,
          "time": 94.1395348837118,
          "velocity": 0.15748031496062992,
          "duration": 0.05813953488370771
        },
        {
          "name": "D#3",
          "midi": 51,
          "time": 94.15116279068855,
          "velocity": 0.5118110236220472,
          "duration": 0.023255813953483084
        },
        {
          "name": "F#4",
          "midi": 66,
          "time": 94.15116279068855,
          "velocity": 0.2283464566929134,
          "duration": 0.31395348837202164
        },
        {
          "name": "G#4",
          "midi": 68,
          "time": 94.15116279068855,
          "velocity": 0.25984251968503935,
          "duration": 0.04651162790696617
        },
        {
          "name": "C#7",
          "midi": 97,
          "time": 94.15116279068855,
          "velocity": 0.18110236220472442,
          "duration": 0.0813953488371908
        },
        {
          "name": "C#5",
          "midi": 73,
          "time": 94.16279069766529,
          "velocity": 0.11811023622047244,
          "duration": 0.034883720930224626
        },
        {
          "name": "G6",
          "midi": 91,
          "time": 94.16279069766529,
          "velocity": 0.2047244094488189,
          "duration": 0.05813953488370771
        },
        {
          "name": "A#4",
          "midi": 70,
          "time": 94.17441860464203,
          "velocity": 0.2283464566929134,
          "duration": 0.23255813953483084
        },
        {
          "name": "F5",
          "midi": 77,
          "time": 94.17441860464203,
          "velocity": 0.28346456692913385,
          "duration": 0.023255813953483084
        },
        {
          "name": "F#6",
          "midi": 90,
          "time": 94.17441860464203,
          "velocity": 0.11023622047244094,
          "duration": 0.034883720930224626
        },
        {
          "name": "D3",
          "midi": 50,
          "time": 94.19767441859551,
          "velocity": 0.5196850393700787,
          "duration": 0.011627906976741542
        },
        {
          "name": "B6",
          "midi": 95,
          "time": 94.19767441859551,
          "velocity": 0.14173228346456693,
          "duration": 0.034883720930224626
        },
        {
          "name": "F#2",
          "midi": 42,
          "time": 94.20930232557225,
          "velocity": 0.44881889763779526,
          "duration": 0.023255813953483084
        },
        {
          "name": "D#3",
          "midi": 51,
          "time": 94.20930232557225,
          "velocity": 0.5118110236220472,
          "duration": 0.023255813953483084
        },
        {
          "name": "F5",
          "midi": 77,
          "time": 94.20930232557225,
          "velocity": 0.48031496062992124,
          "duration": 0.1627906976743816
        },
        {
          "name": "D7",
          "midi": 98,
          "time": 94.220930232549,
          "velocity": 0.18110236220472442,
          "duration": 0.04651162790696617
        },
        {
          "name": "D#3",
          "midi": 51,
          "time": 94.24418604650248,
          "velocity": 0.5275590551181102,
          "duration": 0.023255813953483084
        },
        {
          "name": "F#2",
          "midi": 42,
          "time": 94.25581395347922,
          "velocity": 0.41732283464566927,
          "duration": 0.023255813953483084
        },
        {
          "name": "A3",
          "midi": 57,
          "time": 94.25581395347922,
          "velocity": 0.2677165354330709,
          "duration": 0.023255813953483084
        },
        {
          "name": "D3",
          "midi": 50,
          "time": 94.26744186045596,
          "velocity": 0.5196850393700787,
          "duration": 0.011627906976741542
        },
        {
          "name": "D#3",
          "midi": 51,
          "time": 94.2790697674327,
          "velocity": 0.5039370078740157,
          "duration": 0.023255813953483084
        },
        {
          "name": "C#5",
          "midi": 73,
          "time": 94.2790697674327,
          "velocity": 0.12598425196850394,
          "duration": 0.12790697674415696
        },
        {
          "name": "D#3",
          "midi": 51,
          "time": 94.31395348836293,
          "velocity": 0.5039370078740157,
          "duration": 0.023255813953483084
        },
        {
          "name": "G6",
          "midi": 91,
          "time": 94.32558139533967,
          "velocity": 0.14173228346456693,
          "duration": 0.04651162790696617
        },
        {
          "name": "D7",
          "midi": 98,
          "time": 94.32558139533967,
          "velocity": 0.09448818897637795,
          "duration": 0.05813953488370771
        },
        {
          "name": "D#3",
          "midi": 51,
          "time": 94.34883720929315,
          "velocity": 0.5118110236220472,
          "duration": 0.3837209302324709
        },
        {
          "name": "G6",
          "midi": 91,
          "time": 94.39534883720012,
          "velocity": 0.28346456692913385,
          "duration": 0.023255813953483084
        },
        {
          "name": "A#3",
          "midi": 58,
          "time": 94.40697674417686,
          "velocity": 0.3937007874015748,
          "duration": 0.0813953488371908
        },
        {
          "name": "F5",
          "midi": 77,
          "time": 94.40697674417686,
          "velocity": 0.4330708661417323,
          "duration": 0.45348837209292014
        },
        {
          "name": "F#6",
          "midi": 90,
          "time": 94.40697674417686,
          "velocity": 0.15748031496062992,
          "duration": 0.04651162790696617
        },
        {
          "name": "A#6",
          "midi": 94,
          "time": 94.40697674417686,
          "velocity": 0.2047244094488189,
          "duration": 0.04651162790696617
        },
        {
          "name": "C7",
          "midi": 96,
          "time": 94.40697674417686,
          "velocity": 0.16535433070866143,
          "duration": 0.04651162790696617
        },
        {
          "name": "A#4",
          "midi": 70,
          "time": 94.4186046511536,
          "velocity": 0.5354330708661418,
          "duration": 0.8255813953486779
        },
        {
          "name": "D6",
          "midi": 86,
          "time": 94.4186046511536,
          "velocity": 0.47244094488188976,
          "duration": 0.1627906976743816
        },
        {
          "name": "G#6",
          "midi": 92,
          "time": 94.4186046511536,
          "velocity": 0.4409448818897638,
          "duration": 0.05813953488370771
        },
        {
          "name": "C#5",
          "midi": 73,
          "time": 94.43023255813034,
          "velocity": 0.23622047244094488,
          "duration": 0.8604651162789025
        },
        {
          "name": "D#6",
          "midi": 87,
          "time": 94.43023255813034,
          "velocity": 0.09448818897637795,
          "duration": 0.034883720930224626
        },
        {
          "name": "E7",
          "midi": 100,
          "time": 94.44186046510708,
          "velocity": 0.1732283464566929,
          "duration": 0.09302325581393234
        },
        {
          "name": "G6",
          "midi": 91,
          "time": 94.46511627906057,
          "velocity": 0.14173228346456693,
          "duration": 0.04651162790696617
        },
        {
          "name": "D#6",
          "midi": 87,
          "time": 94.47674418603731,
          "velocity": 0.2755905511811024,
          "duration": 0.37209302325572935
        },
        {
          "name": "F#2",
          "midi": 42,
          "time": 94.48837209301405,
          "velocity": 0.44881889763779526,
          "duration": 0.034883720930224626
        },
        {
          "name": "A#3",
          "midi": 58,
          "time": 94.49999999999079,
          "velocity": 0.16535433070866143,
          "duration": 0.06976744186044925
        },
        {
          "name": "C6",
          "midi": 84,
          "time": 94.49999999999079,
          "velocity": 0.11811023622047244,
          "duration": 0.3604651162789878
        },
        {
          "name": "F4",
          "midi": 65,
          "time": 94.51162790696753,
          "velocity": 0.2992125984251969,
          "duration": 0.04651162790696617
        },
        {
          "name": "F#2",
          "midi": 42,
          "time": 94.53488372092102,
          "velocity": 0.4409448818897638,
          "duration": 0.023255813953483084
        },
        {
          "name": "G6",
          "midi": 91,
          "time": 94.54651162789776,
          "velocity": 0.10236220472440945,
          "duration": 0.034883720930224626
        },
        {
          "name": "F#2",
          "midi": 42,
          "time": 94.58139534882798,
          "velocity": 0.4330708661417323,
          "duration": 0.023255813953483084
        },
        {
          "name": "A#3",
          "midi": 58,
          "time": 94.58139534882798,
          "velocity": 0.33858267716535434,
          "duration": 0.0813953488371908
        },
        {
          "name": "F4",
          "midi": 65,
          "time": 94.6162790697582,
          "velocity": 0.29133858267716534,
          "duration": 0.023255813953483084
        },
        {
          "name": "G6",
          "midi": 91,
          "time": 94.6162790697582,
          "velocity": 0.14960629921259844,
          "duration": 0.0813953488371908
        },
        {
          "name": "E4",
          "midi": 64,
          "time": 94.63953488371169,
          "velocity": 0.31496062992125984,
          "duration": 0.023255813953483084
        },
        {
          "name": "D6",
          "midi": 86,
          "time": 94.63953488371169,
          "velocity": 0.11023622047244094,
          "duration": 0.034883720930224626
        },
        {
          "name": "A#6",
          "midi": 94,
          "time": 94.63953488371169,
          "velocity": 0.2992125984251969,
          "duration": 0.06976744186044925
        },
        {
          "name": "B6",
          "midi": 95,
          "time": 94.63953488371169,
          "velocity": 0.2440944881889764,
          "duration": 0.05813953488370771
        },
        {
          "name": "D7",
          "midi": 98,
          "time": 94.63953488371169,
          "velocity": 0.2992125984251969,
          "duration": 0.05813953488370771
        },
        {
          "name": "E7",
          "midi": 100,
          "time": 94.63953488371169,
          "velocity": 0.1968503937007874,
          "duration": 0.034883720930224626
        },
        {
          "name": "F#2",
          "midi": 42,
          "time": 94.65116279068843,
          "velocity": 0.4409448818897638,
          "duration": 0.034883720930224626
        },
        {
          "name": "E6",
          "midi": 88,
          "time": 94.65116279068843,
          "velocity": 0.11023622047244094,
          "duration": 0.04651162790696617
        },
        {
          "name": "F#6",
          "midi": 90,
          "time": 94.65116279068843,
          "velocity": 0.1968503937007874,
          "duration": 0.04651162790696617
        },
        {
          "name": "A6",
          "midi": 93,
          "time": 94.65116279068843,
          "velocity": 0.29133858267716534,
          "duration": 0.034883720930224626
        },
        {
          "name": "C7",
          "midi": 96,
          "time": 94.65116279068843,
          "velocity": 0.29133858267716534,
          "duration": 0.05813953488370771
        },
        {
          "name": "C#7",
          "midi": 97,
          "time": 94.65116279068843,
          "velocity": 0.2992125984251969,
          "duration": 0.06976744186044925
        },
        {
          "name": "D#7",
          "midi": 99,
          "time": 94.65116279068843,
          "velocity": 0.28346456692913385,
          "duration": 0.0813953488371908
        },
        {
          "name": "G7",
          "midi": 103,
          "time": 94.65116279068843,
          "velocity": 0.1732283464566929,
          "duration": 0.06976744186044925
        },
        {
          "name": "A3",
          "midi": 57,
          "time": 94.66279069766517,
          "velocity": 0.3543307086614173,
          "duration": 0.023255813953483084
        },
        {
          "name": "F#7",
          "midi": 102,
          "time": 94.66279069766517,
          "velocity": 0.23622047244094488,
          "duration": 0.05813953488370771
        },
        {
          "name": "G#6",
          "midi": 92,
          "time": 94.68604651161866,
          "velocity": 0.2440944881889764,
          "duration": 0.023255813953483084
        },
        {
          "name": "E7",
          "midi": 100,
          "time": 94.68604651161866,
          "velocity": 0.2204724409448819,
          "duration": 0.034883720930224626
        },
        {
          "name": "F#2",
          "midi": 42,
          "time": 94.6976744185954,
          "velocity": 0.41732283464566927,
          "duration": 0.023255813953483084
        },
        {
          "name": "F4",
          "midi": 65,
          "time": 94.6976744185954,
          "velocity": 0.2992125984251969,
          "duration": 0.034883720930224626
        },
        {
          "name": "D#3",
          "midi": 51,
          "time": 94.74418604650236,
          "velocity": 0.4330708661417323,
          "duration": 0.023255813953483084
        },
        {
          "name": "G6",
          "midi": 91,
          "time": 94.74418604650236,
          "velocity": 0.12598425196850394,
          "duration": 0.04651162790696617
        },
        {
          "name": "D#3",
          "midi": 51,
          "time": 94.77906976743259,
          "velocity": 0.4330708661417323,
          "duration": 0.05813953488370771
        },
        {
          "name": "F4",
          "midi": 65,
          "time": 94.80232558138607,
          "velocity": 0.3464566929133858,
          "duration": 0.023255813953483084
        },
        {
          "name": "G#3",
          "midi": 56,
          "time": 94.81395348836281,
          "velocity": 0.4094488188976378,
          "duration": 0.023255813953483084
        },
        {
          "name": "A6",
          "midi": 93,
          "time": 94.81395348836281,
          "velocity": 0.28346456692913385,
          "duration": 0.0813953488371908
        },
        {
          "name": "F#2",
          "midi": 42,
          "time": 94.82558139533955,
          "velocity": 0.4094488188976378,
          "duration": 0.023255813953483084
        },
        {
          "name": "D#4",
          "midi": 63,
          "time": 94.82558139533955,
          "velocity": 0.4409448818897638,
          "duration": 0.41860465116272394
        },
        {
          "name": "D6",
          "midi": 86,
          "time": 94.82558139533955,
          "velocity": 0.14173228346456693,
          "duration": 0.06976744186044925
        },
        {
          "name": "G#6",
          "midi": 92,
          "time": 94.82558139533955,
          "velocity": 0.14960629921259844,
          "duration": 0.034883720930224626
        },
        {
          "name": "D#3",
          "midi": 51,
          "time": 94.84883720929304,
          "velocity": 0.3858267716535433,
          "duration": 0.023255813953483084
        },
        {
          "name": "A#3",
          "midi": 58,
          "time": 94.84883720929304,
          "velocity": 0.4330708661417323,
          "duration": 0.023255813953483084
        },
        {
          "name": "F#2",
          "midi": 42,
          "time": 94.86046511626978,
          "velocity": 0.3700787401574803,
          "duration": 0.023255813953483084
        },
        {
          "name": "F#5",
          "midi": 78,
          "time": 94.86046511626978,
          "velocity": 0.11023622047244094,
          "duration": 0.034883720930224626
        },
        {
          "name": "B3",
          "midi": 59,
          "time": 94.87209302324652,
          "velocity": 0.4251968503937008,
          "duration": 0.023255813953483084
        },
        {
          "name": "C7",
          "midi": 96,
          "time": 94.88372093022326,
          "velocity": 0.25196850393700787,
          "duration": 0.034883720930224626
        },
        {
          "name": "D#3",
          "midi": 51,
          "time": 94.8953488372,
          "velocity": 0.3779527559055118,
          "duration": 0.034883720930224626
        },
        {
          "name": "A3",
          "midi": 57,
          "time": 94.8953488372,
          "velocity": 0.3858267716535433,
          "duration": 0.023255813953483084
        },
        {
          "name": "F#4",
          "midi": 66,
          "time": 94.8953488372,
          "velocity": 0.3700787401574803,
          "duration": 0.33720930232553314
        },
        {
          "name": "F5",
          "midi": 77,
          "time": 94.8953488372,
          "velocity": 0.16535433070866143,
          "duration": 0.04651162790696617
        },
        {
          "name": "F#2",
          "midi": 42,
          "time": 94.90697674417675,
          "velocity": 0.3779527559055118,
          "duration": 0.023255813953483084
        },
        {
          "name": "D3",
          "midi": 50,
          "time": 94.93023255813023,
          "velocity": 0.3779527559055118,
          "duration": 0.023255813953483084
        },
        {
          "name": "G2",
          "midi": 43,
          "time": 94.94186046510697,
          "velocity": 0.3700787401574803,
          "duration": 0.023255813953483084
        },
        {
          "name": "F#2",
          "midi": 42,
          "time": 94.98837209301394,
          "velocity": 0.36220472440944884,
          "duration": 0.023255813953483084
        },
        {
          "name": "G3",
          "midi": 55,
          "time": 94.99999999999068,
          "velocity": 0.41732283464566927,
          "duration": 0.023255813953483084
        },
        {
          "name": "G#6",
          "midi": 92,
          "time": 95.01162790696742,
          "velocity": 0.18110236220472442,
          "duration": 0.06976744186044925
        },
        {
          "name": "G#3",
          "midi": 56,
          "time": 95.02325581394416,
          "velocity": 0.4251968503937008,
          "duration": 0.023255813953483084
        },
        {
          "name": "G6",
          "midi": 91,
          "time": 95.02325581394416,
          "velocity": 0.07086614173228346,
          "duration": 0.034883720930224626
        },
        {
          "name": "G3",
          "midi": 55,
          "time": 95.04651162789764,
          "velocity": 0.4645669291338583,
          "duration": 0.023255813953483084
        },
        {
          "name": "C1",
          "midi": 24,
          "time": 95.15116279068833,
          "velocity": 0.6220472440944882,
          "duration": 0.011627906976741542
        },
        {
          "name": "F#3",
          "midi": 54,
          "time": 95.15116279068833,
          "velocity": 0.2755905511811024,
          "duration": 0.023255813953483084
        },
        {
          "name": "B0",
          "midi": 23,
          "time": 95.16279069766507,
          "velocity": 0.6141732283464567,
          "duration": 0.11627906976742963
        },
        {
          "name": "G3",
          "midi": 55,
          "time": 95.23255813952554,
          "velocity": 0.4409448818897638,
          "duration": 0.023255813953483084
        },
        {
          "name": "A4",
          "midi": 69,
          "time": 95.23255813952554,
          "velocity": 0.5433070866141733,
          "duration": 0.023255813953483084
        },
        {
          "name": "F4",
          "midi": 65,
          "time": 95.24418604650228,
          "velocity": 0.4094488188976378,
          "duration": 0.023255813953483084
        },
        {
          "name": "C7",
          "midi": 96,
          "time": 95.24418604650228,
          "velocity": 0.3937007874015748,
          "duration": 0.19767441860460622
        },
        {
          "name": "D7",
          "midi": 98,
          "time": 95.24418604650228,
          "velocity": 0.3858267716535433,
          "duration": 0.09302325581393234
        },
        {
          "name": "F7",
          "midi": 101,
          "time": 95.24418604650228,
          "velocity": 0.28346456692913385,
          "duration": 0.12790697674415696
        },
        {
          "name": "D#4",
          "midi": 63,
          "time": 95.25581395347902,
          "velocity": 0.2992125984251969,
          "duration": 0.023255813953483084
        },
        {
          "name": "A#4",
          "midi": 70,
          "time": 95.25581395347902,
          "velocity": 0.5905511811023622,
          "duration": 0.11627906976741542
        },
        {
          "name": "G6",
          "midi": 91,
          "time": 95.25581395347902,
          "velocity": 0.08661417322834646,
          "duration": 0.05813953488370771
        },
        {
          "name": "A#6",
          "midi": 94,
          "time": 95.25581395347902,
          "velocity": 0.29133858267716534,
          "duration": 0.18604651162786467
        },
        {
          "name": "D6",
          "midi": 86,
          "time": 95.26744186045576,
          "velocity": 0.14960629921259844,
          "duration": 0.06976744186044925
        },
        {
          "name": "F#7",
          "midi": 102,
          "time": 95.26744186045576,
          "velocity": 0.2440944881889764,
          "duration": 0.10465116279067388
        },
        {
          "name": "C1",
          "midi": 24,
          "time": 95.2790697674325,
          "velocity": 0.5905511811023622,
          "duration": 0.023255813953483084
        },
        {
          "name": "F#4",
          "midi": 66,
          "time": 95.2790697674325,
          "velocity": 0.31496062992125984,
          "duration": 0.05813953488370771
        },
        {
          "name": "D#6",
          "midi": 87,
          "time": 95.2790697674325,
          "velocity": 0.1732283464566929,
          "duration": 0.11627906976741542
        },
        {
          "name": "C#7",
          "midi": 97,
          "time": 95.2790697674325,
          "velocity": 0.28346456692913385,
          "duration": 0.2209302325580893
        },
        {
          "name": "E7",
          "midi": 100,
          "time": 95.2790697674325,
          "velocity": 0.25984251968503935,
          "duration": 0.12790697674415696
        },
        {
          "name": "E6",
          "midi": 88,
          "time": 95.29069767440924,
          "velocity": 0.11811023622047244,
          "duration": 0.034883720930224626
        },
        {
          "name": "F#6",
          "midi": 90,
          "time": 95.29069767440924,
          "velocity": 0.1968503937007874,
          "duration": 0.0813953488371908
        },
        {
          "name": "A6",
          "midi": 93,
          "time": 95.29069767440924,
          "velocity": 0.2992125984251969,
          "duration": 0.034883720930224626
        },
        {
          "name": "B6",
          "midi": 95,
          "time": 95.29069767440924,
          "velocity": 0.29133858267716534,
          "duration": 0.06976744186044925
        },
        {
          "name": "D#7",
          "midi": 99,
          "time": 95.29069767440924,
          "velocity": 0.3228346456692913,
          "duration": 0.15116279069764005
        },
        {
          "name": "B0",
          "midi": 23,
          "time": 95.30232558138599,
          "velocity": 0.5826771653543307,
          "duration": 0.5116279069766705
        },
        {
          "name": "F3",
          "midi": 53,
          "time": 95.30232558138599,
          "velocity": 0.3700787401574803,
          "duration": 0.2209302325580893
        },
        {
          "name": "G7",
          "midi": 103,
          "time": 95.30232558138599,
          "velocity": 0.16535433070866143,
          "duration": 0.05813953488370771
        },
        {
          "name": "F#2",
          "midi": 42,
          "time": 95.31395348836273,
          "velocity": 0.28346456692913385,
          "duration": 0.023255813953483084
        },
        {
          "name": "A#3",
          "midi": 58,
          "time": 95.31395348836273,
          "velocity": 0.1968503937007874,
          "duration": 0.04651162790696617
        },
        {
          "name": "G#6",
          "midi": 92,
          "time": 95.32558139533947,
          "velocity": 0.25196850393700787,
          "duration": 0.023255813953483084
        },
        {
          "name": "D7",
          "midi": 98,
          "time": 95.34883720929295,
          "velocity": 0.1889763779527559,
          "duration": 0.034883720930224626
        },
        {
          "name": "G#4",
          "midi": 68,
          "time": 95.38372093022318,
          "velocity": 0.49606299212598426,
          "duration": 0.09302325581393234
        },
        {
          "name": "D#5",
          "midi": 75,
          "time": 95.38372093022318,
          "velocity": 0.2992125984251969,
          "duration": 0.05813953488370771
        },
        {
          "name": "C5",
          "midi": 72,
          "time": 95.39534883719992,
          "velocity": 0.11811023622047244,
          "duration": 0.04651162790696617
        },
        {
          "name": "F#7",
          "midi": 102,
          "time": 95.43023255813014,
          "velocity": 0.1889763779527559,
          "duration": 0.12790697674415696
        },
        {
          "name": "F#4",
          "midi": 66,
          "time": 95.45348837208363,
          "velocity": 0.4251968503937008,
          "duration": 0.034883720930224626
        },
        {
          "name": "C#5",
          "midi": 73,
          "time": 95.45348837208363,
          "velocity": 0.2992125984251969,
          "duration": 0.034883720930224626
        },
        {
          "name": "F#6",
          "midi": 90,
          "time": 95.45348837208363,
          "velocity": 0.14173228346456693,
          "duration": 0.034883720930224626
        },
        {
          "name": "A#6",
          "midi": 94,
          "time": 95.46511627906037,
          "velocity": 0.3464566929133858,
          "duration": 0.2906976744185812
        },
        {
          "name": "C6",
          "midi": 84,
          "time": 95.47674418603711,
          "velocity": 0.29133858267716534,
          "duration": 0.2674418604650981
        },
        {
          "name": "F6",
          "midi": 89,
          "time": 95.47674418603711,
          "velocity": 0.3543307086614173,
          "duration": 0.25581395348835656
        },
        {
          "name": "G#4",
          "midi": 68,
          "time": 95.48837209301385,
          "velocity": 0.2755905511811024,
          "duration": 0.023255813953483084
        },
        {
          "name": "F#5",
          "midi": 78,
          "time": 95.48837209301385,
          "velocity": 0.2440944881889764,
          "duration": 0.05813953488370771
        },
        {
          "name": "D7",
          "midi": 98,
          "time": 95.48837209301385,
          "velocity": 0.25196850393700787,
          "duration": 0.15116279069766847
        },
        {
          "name": "F#4",
          "midi": 66,
          "time": 95.49999999999059,
          "velocity": 0.33858267716535434,
          "duration": 0.05813953488370771
        },
        {
          "name": "A4",
          "midi": 69,
          "time": 95.51162790696733,
          "velocity": 0.31496062992125984,
          "duration": 0.034883720930224626
        },
        {
          "name": "C#5",
          "midi": 73,
          "time": 95.51162790696733,
          "velocity": 0.15748031496062992,
          "duration": 0.2093023255813904
        },
        {
          "name": "F5",
          "midi": 77,
          "time": 95.53488372092082,
          "velocity": 0.2440944881889764,
          "duration": 0.27906976744183964
        },
        {
          "name": "F#3",
          "midi": 54,
          "time": 95.54651162789756,
          "velocity": 0.30708661417322836,
          "duration": 0.1860465116279073
        },
        {
          "name": "G#4",
          "midi": 68,
          "time": 95.54651162789756,
          "velocity": 0.29133858267716534,
          "duration": 0.16279069767442422
        },
        {
          "name": "F4",
          "midi": 65,
          "time": 95.5581395348743,
          "velocity": 0.28346456692913385,
          "duration": 0.06976744186047767
        },
        {
          "name": "G7",
          "midi": 103,
          "time": 95.5581395348743,
          "velocity": 0.11023622047244094,
          "duration": 0.03488372093023884
        },
        {
          "name": "A#4",
          "midi": 70,
          "time": 95.59302325580454,
          "velocity": 0.2047244094488189,
          "duration": 0.04651162790698038
        },
        {
          "name": "D#4",
          "midi": 63,
          "time": 95.63953488371152,
          "velocity": 0.23622047244094488,
          "duration": 0.023255813953483084
        },
        {
          "name": "A#4",
          "midi": 70,
          "time": 95.67441860464174,
          "velocity": 0.2204724409448819,
          "duration": 0.05813953488372192
        },
        {
          "name": "D#5",
          "midi": 75,
          "time": 95.72093023254872,
          "velocity": 0.2125984251968504,
          "duration": 0.17441860465112313
        },
        {
          "name": "D7",
          "midi": 98,
          "time": 95.72093023254872,
          "velocity": 0.12598425196850394,
          "duration": 0.09302325581393234
        },
        {
          "name": "G#3",
          "midi": 56,
          "time": 95.73255813952547,
          "velocity": 0.31496062992125984,
          "duration": 0.19767441860460622
        },
        {
          "name": "E4",
          "midi": 64,
          "time": 95.73255813952547,
          "velocity": 0.2440944881889764,
          "duration": 0.023255813953483084
        },
        {
          "name": "A6",
          "midi": 93,
          "time": 95.73255813952547,
          "velocity": 0.11811023622047244,
          "duration": 0.04651162790696617
        },
        {
          "name": "D#7",
          "midi": 99,
          "time": 95.73255813952547,
          "velocity": 0.11811023622047244,
          "duration": 0.034883720930224626
        },
        {
          "name": "G4",
          "midi": 67,
          "time": 95.74418604650221,
          "velocity": 0.25984251968503935,
          "duration": 0.034883720930224626
        },
        {
          "name": "C7",
          "midi": 96,
          "time": 95.75581395347895,
          "velocity": 0.2283464566929134,
          "duration": 0.04651162790696617
        },
        {
          "name": "F4",
          "midi": 65,
          "time": 95.76744186045569,
          "velocity": 0.2283464566929134,
          "duration": 0.04651162790696617
        },
        {
          "name": "C#5",
          "midi": 73,
          "time": 95.76744186045569,
          "velocity": 0.07086614173228346,
          "duration": 0.034883720930224626
        },
        {
          "name": "A#4",
          "midi": 70,
          "time": 95.77906976743243,
          "velocity": 0.3228346456692913,
          "duration": 0.37209302325574356
        },
        {
          "name": "F#4",
          "midi": 66,
          "time": 95.81395348836266,
          "velocity": 0.2992125984251969,
          "duration": 0.17441860465112313
        },
        {
          "name": "F6",
          "midi": 89,
          "time": 95.81395348836266,
          "velocity": 0.16535433070866143,
          "duration": 0.04651162790696617
        },
        {
          "name": "A#6",
          "midi": 94,
          "time": 95.81395348836266,
          "velocity": 0.2125984251968504,
          "duration": 0.2674418604650697
        },
        {
          "name": "B0",
          "midi": 23,
          "time": 95.8255813953394,
          "velocity": 0.3700787401574803,
          "duration": 0.12790697674415696
        },
        {
          "name": "C6",
          "midi": 84,
          "time": 95.8255813953394,
          "velocity": 0.14173228346456693,
          "duration": 0.06976744186044925
        },
        {
          "name": "C#7",
          "midi": 97,
          "time": 95.8255813953394,
          "velocity": 0.1968503937007874,
          "duration": 0.15116279069764005
        },
        {
          "name": "D#7",
          "midi": 99,
          "time": 95.83720930231614,
          "velocity": 0.11811023622047244,
          "duration": 0.034883720930224626
        },
        {
          "name": "F#7",
          "midi": 102,
          "time": 95.87209302324636,
          "velocity": 0.11023622047244094,
          "duration": 0.10465116279067388
        },
        {
          "name": "F6",
          "midi": 89,
          "time": 95.8837209302231,
          "velocity": 0.15748031496062992,
          "duration": 0.05813953488370771
        },
        {
          "name": "D7",
          "midi": 98,
          "time": 95.91860465115333,
          "velocity": 0.16535433070866143,
          "duration": 0.034883720930224626
        },
        {
          "name": "E7",
          "midi": 100,
          "time": 95.91860465115333,
          "velocity": 0.14960629921259844,
          "duration": 0.034883720930224626
        },
        {
          "name": "A#3",
          "midi": 58,
          "time": 95.93023255813007,
          "velocity": 0.33858267716535434,
          "duration": 0.20930232558136197
        },
        {
          "name": "F5",
          "midi": 77,
          "time": 95.93023255813007,
          "velocity": 0.14960629921259844,
          "duration": 0.15116279069765426
        },
        {
          "name": "D#7",
          "midi": 99,
          "time": 95.93023255813007,
          "velocity": 0.15748031496062992,
          "duration": 0.034883720930224626
        },
        {
          "name": "C#5",
          "midi": 73,
          "time": 95.94186046510681,
          "velocity": 0.13385826771653545,
          "duration": 0.15116279069765426
        },
        {
          "name": "F7",
          "midi": 101,
          "time": 95.94186046510681,
          "velocity": 0.25984251968503935,
          "duration": 0.19767441860462043
        },
        {
          "name": "F6",
          "midi": 89,
          "time": 95.95348837208356,
          "velocity": 0.1968503937007874,
          "duration": 0.05813953488370771
        },
        {
          "name": "D7",
          "midi": 98,
          "time": 95.97674418603704,
          "velocity": 0.07874015748031496,
          "duration": 0.034883720930224626
        },
        {
          "name": "F4",
          "midi": 65,
          "time": 95.98837209301378,
          "velocity": 0.2125984251968504,
          "duration": 0.10465116279068809
        },
        {
          "name": "C#7",
          "midi": 97,
          "time": 95.99999999999052,
          "velocity": 0.14173228346456693,
          "duration": 0.081395348837205
        },
        {
          "name": "F#7",
          "midi": 102,
          "time": 95.99999999999052,
          "velocity": 0.10236220472440945,
          "duration": 0.04651162790696617
        },
        {
          "name": "F6",
          "midi": 89,
          "time": 96.023255813944,
          "velocity": 0.1732283464566929,
          "duration": 0.05813953488372192
        },
        {
          "name": "E7",
          "midi": 100,
          "time": 96.08139534882773,
          "velocity": 0.1968503937007874,
          "duration": 0.034883720930224626
        },
        {
          "name": "C7",
          "midi": 96,
          "time": 96.09302325580447,
          "velocity": 0.2047244094488189,
          "duration": 0.034883720930224626
        },
        {
          "name": "D#4",
          "midi": 63,
          "time": 96.10465116278121,
          "velocity": 0.16535433070866143,
          "duration": 0.034883720930224626
        },
        {
          "name": "F6",
          "midi": 89,
          "time": 96.10465116278121,
          "velocity": 0.16535433070866143,
          "duration": 0.034883720930224626
        },
        {
          "name": "D#5",
          "midi": 75,
          "time": 96.11627906975795,
          "velocity": 0.2125984251968504,
          "duration": 0.034883720930224626
        },
        {
          "name": "A#5",
          "midi": 82,
          "time": 96.11627906975795,
          "velocity": 0.36220472440944884,
          "duration": 0.39534883720924086
        },
        {
          "name": "D#7",
          "midi": 99,
          "time": 96.11627906975795,
          "velocity": 0.1889763779527559,
          "duration": 0.05813953488370771
        },
        {
          "name": "D#6",
          "midi": 87,
          "time": 96.12790697673469,
          "velocity": 0.3937007874015748,
          "duration": 0.36046511627901623
        },
        {
          "name": "G6",
          "midi": 91,
          "time": 96.12790697673469,
          "velocity": 0.2440944881889764,
          "duration": 0.2441860465116008
        },
        {
          "name": "C6",
          "midi": 84,
          "time": 96.13953488371143,
          "velocity": 0.07874015748031496,
          "duration": 0.034883720930224626
        },
        {
          "name": "D7",
          "midi": 98,
          "time": 96.13953488371143,
          "velocity": 0.13385826771653545,
          "duration": 0.04651162790696617
        },
        {
          "name": "E7",
          "midi": 100,
          "time": 96.13953488371143,
          "velocity": 0.13385826771653545,
          "duration": 0.034883720930224626
        },
        {
          "name": "F#1",
          "midi": 30,
          "time": 96.15116279068818,
          "velocity": 0.6299212598425197,
          "duration": 0.011627906976741542
        },
        {
          "name": "G#4",
          "midi": 68,
          "time": 96.15116279068818,
          "velocity": 0.4330708661417323,
          "duration": 0.651162790697569
        },
        {
          "name": "F5",
          "midi": 77,
          "time": 96.15116279068818,
          "velocity": 0.41732283464566927,
          "duration": 0.2674418604650839
        },
        {
          "name": "F1",
          "midi": 29,
          "time": 96.16279069766492,
          "velocity": 0.7086614173228346,
          "duration": 0.011627906976741542
        },
        {
          "name": "D3",
          "midi": 50,
          "time": 96.16279069766492,
          "velocity": 0.47244094488188976,
          "duration": 0.023255813953483084
        },
        {
          "name": "A#3",
          "midi": 58,
          "time": 96.16279069766492,
          "velocity": 0.4409448818897638,
          "duration": 0.034883720930224626
        },
        {
          "name": "D#4",
          "midi": 63,
          "time": 96.16279069766492,
          "velocity": 0.25196850393700787,
          "duration": 0.034883720930224626
        },
        {
          "name": "C7",
          "midi": 96,
          "time": 96.16279069766492,
          "velocity": 0.25984251968503935,
          "duration": 0.19767441860463464
        },
        {
          "name": "E1",
          "midi": 28,
          "time": 96.17441860464166,
          "velocity": 0.7244094488188977,
          "duration": 0.011627906976741542
        },
        {
          "name": "F4",
          "midi": 65,
          "time": 96.17441860464166,
          "velocity": 0.2283464566929134,
          "duration": 0.023255813953483084
        },
        {
          "name": "D#1",
          "midi": 27,
          "time": 96.1860465116184,
          "velocity": 0.7401574803149606,
          "duration": 1.2441860465113876
        },
        {
          "name": "G3",
          "midi": 55,
          "time": 96.1860465116184,
          "velocity": 0.5039370078740157,
          "duration": 0.6976744186045352
        },
        {
          "name": "F7",
          "midi": 101,
          "time": 96.19767441859514,
          "velocity": 0.18110236220472442,
          "duration": 0.06976744186044925
        },
        {
          "name": "A#4",
          "midi": 70,
          "time": 96.20930232557188,
          "velocity": 0.2283464566929134,
          "duration": 0.04651162790696617
        },
        {
          "name": "D5",
          "midi": 74,
          "time": 96.20930232557188,
          "velocity": 0.18110236220472442,
          "duration": 0.034883720930224626
        },
        {
          "name": "A#2",
          "midi": 46,
          "time": 96.22093023254862,
          "velocity": 0.4330708661417323,
          "duration": 0.13953488372092693
        },
        {
          "name": "D#5",
          "midi": 75,
          "time": 96.23255813952537,
          "velocity": 0.3464566929133858,
          "duration": 0.04651162790696617
        },
        {
          "name": "A#4",
          "midi": 70,
          "time": 96.26744186045559,
          "velocity": 0.2047244094488189,
          "duration": 0.04651162790698038
        },
        {
          "name": "C#5",
          "midi": 73,
          "time": 96.27906976743233,
          "velocity": 0.3779527559055118,
          "duration": 0.12790697674418539
        },
        {
          "name": "A#4",
          "midi": 70,
          "time": 96.32558139533931,
          "velocity": 0.18110236220472442,
          "duration": 0.09302325581394655
        },
        {
          "name": "A#2",
          "midi": 46,
          "time": 96.3720930232463,
          "velocity": 0.4330708661417323,
          "duration": 0.06976744186044925
        },
        {
          "name": "B6",
          "midi": 95,
          "time": 96.38372093022303,
          "velocity": 0.1732283464566929,
          "duration": 0.04651162790696617
        },
        {
          "name": "C#7",
          "midi": 97,
          "time": 96.39534883719978,
          "velocity": 0.10236220472440945,
          "duration": 0.034883720930224626
        },
        {
          "name": "C#5",
          "midi": 73,
          "time": 96.43023255813,
          "velocity": 0.2283464566929134,
          "duration": 0.09302325581393234
        },
        {
          "name": "F5",
          "midi": 77,
          "time": 96.44186046510674,
          "velocity": 0.1968503937007874,
          "duration": 0.0813953488371908
        },
        {
          "name": "A#2",
          "midi": 46,
          "time": 96.45348837208348,
          "velocity": 0.4251968503937008,
          "duration": 0.034883720930224626
        },
        {
          "name": "B4",
          "midi": 71,
          "time": 96.47674418603697,
          "velocity": 0.3464566929133858,
          "duration": 0.09302325581393234
        },
        {
          "name": "F7",
          "midi": 101,
          "time": 96.47674418603697,
          "velocity": 0.13385826771653545,
          "duration": 0.034883720930224626
        },
        {
          "name": "F#5",
          "midi": 78,
          "time": 96.48837209301371,
          "velocity": 0.16535433070866143,
          "duration": 0.06976744186044925
        },
        {
          "name": "A#2",
          "midi": 46,
          "time": 96.49999999999045,
          "velocity": 0.4251968503937008,
          "duration": 0.04651162790696617
        },
        {
          "name": "D#6",
          "midi": 87,
          "time": 96.51162790696719,
          "velocity": 0.14960629921259844,
          "duration": 0.05813953488370771
        },
        {
          "name": "D#7",
          "midi": 99,
          "time": 96.52325581394393,
          "velocity": 0.18110236220472442,
          "duration": 0.04651162790696617
        },
        {
          "name": "F7",
          "midi": 101,
          "time": 96.52325581394393,
          "velocity": 0.2047244094488189,
          "duration": 0.034883720930224626
        },
        {
          "name": "G6",
          "midi": 91,
          "time": 96.53488372092067,
          "velocity": 0.11023622047244094,
          "duration": 0.12790697674415696
        },
        {
          "name": "F#7",
          "midi": 102,
          "time": 96.53488372092067,
          "velocity": 0.10236220472440945,
          "duration": 0.05813953488370771
        },
        {
          "name": "D#5",
          "midi": 75,
          "time": 96.54651162789742,
          "velocity": 0.07086614173228346,
          "duration": 0.034883720930224626
        },
        {
          "name": "F5",
          "midi": 77,
          "time": 96.54651162789742,
          "velocity": 0.13385826771653545,
          "duration": 0.12790697674415696
        },
        {
          "name": "A#2",
          "midi": 46,
          "time": 96.55813953487416,
          "velocity": 0.4251968503937008,
          "duration": 0.034883720930224626
        },
        {
          "name": "A#4",
          "midi": 70,
          "time": 96.5697674418509,
          "velocity": 0.4094488188976378,
          "duration": 0.04651162790696617
        },
        {
          "name": "B4",
          "midi": 71,
          "time": 96.58139534882764,
          "velocity": 0.36220472440944884,
          "duration": 0.023255813953483084
        },
        {
          "name": "D#6",
          "midi": 87,
          "time": 96.58139534882764,
          "velocity": 0.2992125984251969,
          "duration": 0.47674418604641744
        },
        {
          "name": "D7",
          "midi": 98,
          "time": 96.58139534882764,
          "velocity": 0.13385826771653545,
          "duration": 0.034883720930224626
        },
        {
          "name": "C7",
          "midi": 96,
          "time": 96.59302325580438,
          "velocity": 0.12598425196850394,
          "duration": 0.04651162790696617
        },
        {
          "name": "A#2",
          "midi": 46,
          "time": 96.60465116278112,
          "velocity": 0.41732283464566927,
          "duration": 0.06976744186044925
        },
        {
          "name": "B4",
          "midi": 71,
          "time": 96.61627906975787,
          "velocity": 0.3858267716535433,
          "duration": 0.23255813953484505
        },
        {
          "name": "D6",
          "midi": 86,
          "time": 96.62790697673461,
          "velocity": 0.07874015748031496,
          "duration": 0.05813953488370771
        },
        {
          "name": "E7",
          "midi": 100,
          "time": 96.62790697673461,
          "velocity": 0.09448818897637795,
          "duration": 0.034883720930224626
        },
        {
          "name": "D#5",
          "midi": 75,
          "time": 96.66279069766483,
          "velocity": 0.2992125984251969,
          "duration": 0.10465116279067388
        },
        {
          "name": "A#2",
          "midi": 46,
          "time": 96.68604651161831,
          "velocity": 0.41732283464566927,
          "duration": 0.034883720930224626
        },
        {
          "name": "F5",
          "midi": 77,
          "time": 96.69767441859506,
          "velocity": 0.14173228346456693,
          "duration": 0.1627906976743958
        },
        {
          "name": "C#5",
          "midi": 73,
          "time": 96.72093023254854,
          "velocity": 0.2677165354330709,
          "duration": 0.023255813953483084
        },
        {
          "name": "A#2",
          "midi": 46,
          "time": 96.73255813952528,
          "velocity": 0.3858267716535433,
          "duration": 0.06976744186046346
        },
        {
          "name": "C#5",
          "midi": 73,
          "time": 96.75581395347876,
          "velocity": 0.1968503937007874,
          "duration": 0.11627906976742963
        },
        {
          "name": "C7",
          "midi": 96,
          "time": 96.75581395347876,
          "velocity": 0.09448818897637795,
          "duration": 0.081395348837205
        },
        {
          "name": "A#2",
          "midi": 46,
          "time": 96.81395348836249,
          "velocity": 0.3779527559055118,
          "duration": 0.034883720930224626
        },
        {
          "name": "F#4",
          "midi": 66,
          "time": 96.83720930231597,
          "velocity": 0.33858267716535434,
          "duration": 0.04651162790696617
        },
        {
          "name": "G#4",
          "midi": 68,
          "time": 96.83720930231597,
          "velocity": 0.31496062992125984,
          "duration": 0.1627906976743816
        },
        {
          "name": "A#5",
          "midi": 82,
          "time": 96.84883720929271,
          "velocity": 0.18110236220472442,
          "duration": 0.06976744186044925
        },
        {
          "name": "A#2",
          "midi": 46,
          "time": 96.86046511626945,
          "velocity": 0.36220472440944884,
          "duration": 0.04651162790696617
        },
        {
          "name": "F5",
          "midi": 77,
          "time": 96.88372093022294,
          "velocity": 0.4566929133858268,
          "duration": 0.06976744186044925
        },
        {
          "name": "C#6",
          "midi": 85,
          "time": 96.88372093022294,
          "velocity": 0.16535433070866143,
          "duration": 0.04651162790696617
        },
        {
          "name": "G6",
          "midi": 91,
          "time": 96.88372093022294,
          "velocity": 0.2755905511811024,
          "duration": 0.05813953488370771
        },
        {
          "name": "G#6",
          "midi": 92,
          "time": 96.88372093022294,
          "velocity": 0.33070866141732286,
          "duration": 0.18604651162786467
        },
        {
          "name": "A6",
          "midi": 93,
          "time": 96.88372093022294,
          "velocity": 0.1968503937007874,
          "duration": 0.09302325581393234
        },
        {
          "name": "E7",
          "midi": 100,
          "time": 96.88372093022294,
          "velocity": 0.2047244094488189,
          "duration": 0.05813953488370771
        },
        {
          "name": "G3",
          "midi": 55,
          "time": 96.89534883719968,
          "velocity": 0.36220472440944884,
          "duration": 0.0813953488371908
        },
        {
          "name": "C5",
          "midi": 72,
          "time": 96.89534883719968,
          "velocity": 0.15748031496062992,
          "duration": 0.05813953488370771
        },
        {
          "name": "D#5",
          "midi": 75,
          "time": 96.89534883719968,
          "velocity": 0.28346456692913385,
          "duration": 0.023255813953483084
        },
        {
          "name": "F#5",
          "midi": 78,
          "time": 96.89534883719968,
          "velocity": 0.33858267716535434,
          "duration": 0.023255813953483084
        },
        {
          "name": "D6",
          "midi": 86,
          "time": 96.89534883719968,
          "velocity": 0.11811023622047244,
          "duration": 0.04651162790696617
        },
        {
          "name": "F#6",
          "midi": 90,
          "time": 96.89534883719968,
          "velocity": 0.33858267716535434,
          "duration": 0.05813953488370771
        },
        {
          "name": "B6",
          "midi": 95,
          "time": 96.89534883719968,
          "velocity": 0.14960629921259844,
          "duration": 0.04651162790696617
        },
        {
          "name": "C7",
          "midi": 96,
          "time": 96.89534883719968,
          "velocity": 0.1968503937007874,
          "duration": 0.0813953488371908
        },
        {
          "name": "D#7",
          "midi": 99,
          "time": 96.89534883719968,
          "velocity": 0.2992125984251969,
          "duration": 0.18604651162786467
        },
        {
          "name": "B5",
          "midi": 83,
          "time": 96.90697674417642,
          "velocity": 0.1889763779527559,
          "duration": 0.034883720930224626
        },
        {
          "name": "A#2",
          "midi": 46,
          "time": 96.91860465115316,
          "velocity": 0.3543307086614173,
          "duration": 0.05813953488370771
        },
        {
          "name": "G5",
          "midi": 79,
          "time": 96.91860465115316,
          "velocity": 0.4251968503937008,
          "duration": 0.05813953488370771
        },
        {
          "name": "D#5",
          "midi": 75,
          "time": 96.9302325581299,
          "velocity": 0.4094488188976378,
          "duration": 0.04651162790696617
        },
        {
          "name": "A#5",
          "midi": 82,
          "time": 96.9302325581299,
          "velocity": 0.3464566929133858,
          "duration": 0.04651162790696617
        },
        {
          "name": "F4",
          "midi": 65,
          "time": 96.95348837208338,
          "velocity": 0.2283464566929134,
          "duration": 0.023255813953483084
        },
        {
          "name": "F7",
          "midi": 101,
          "time": 96.95348837208338,
          "velocity": 0.2677165354330709,
          "duration": 0.1395348837208985
        },
        {
          "name": "B4",
          "midi": 71,
          "time": 96.96511627906013,
          "velocity": 0.1968503937007874,
          "duration": 0.034883720930224626
        },
        {
          "name": "B6",
          "midi": 95,
          "time": 96.96511627906013,
          "velocity": 0.33070866141732286,
          "duration": 0.09302325581393234
        },
        {
          "name": "E7",
          "midi": 100,
          "time": 96.96511627906013,
          "velocity": 0.31496062992125984,
          "duration": 0.11627906976741542
        },
        {
          "name": "F#7",
          "midi": 102,
          "time": 96.97674418603687,
          "velocity": 0.2283464566929134,
          "duration": 0.09302325581393234
        },
        {
          "name": "A#2",
          "midi": 46,
          "time": 96.98837209301361,
          "velocity": 0.30708661417322836,
          "duration": 0.04651162790696617
        },
        {
          "name": "D#3",
          "midi": 51,
          "time": 96.98837209301361,
          "velocity": 0.3464566929133858,
          "duration": 0.034883720930224626
        },
        {
          "name": "D#5",
          "midi": 75,
          "time": 96.98837209301361,
          "velocity": 0.5039370078740157,
          "duration": 0.04651162790696617
        },
        {
          "name": "A#5",
          "midi": 82,
          "time": 96.98837209301361,
          "velocity": 0.2125984251968504,
          "duration": 0.05813953488370771
        },
        {
          "name": "A#3",
          "midi": 58,
          "time": 96.99999999999035,
          "velocity": 0.3464566929133858,
          "duration": 0.034883720930224626
        },
        {
          "name": "A#4",
          "midi": 70,
          "time": 96.99999999999035,
          "velocity": 0.4251968503937008,
          "duration": 0.1395348837208985
        },
        {
          "name": "D7",
          "midi": 98,
          "time": 96.99999999999035,
          "velocity": 0.31496062992125984,
          "duration": 0.05813953488370771
        },
        {
          "name": "A6",
          "midi": 93,
          "time": 97.01162790696709,
          "velocity": 0.5039370078740157,
          "duration": 0.2209302325580893
        },
        {
          "name": "C7",
          "midi": 96,
          "time": 97.01162790696709,
          "velocity": 0.31496062992125984,
          "duration": 0.10465116279067388
        },
        {
          "name": "C#7",
          "midi": 97,
          "time": 97.01162790696709,
          "velocity": 0.2992125984251969,
          "duration": 0.06976744186044925
        },
        {
          "name": "G3",
          "midi": 55,
          "time": 97.02325581394383,
          "velocity": 0.3228346456692913,
          "duration": 0.034883720930224626
        },
        {
          "name": "F#6",
          "midi": 90,
          "time": 97.02325581394383,
          "velocity": 0.1732283464566929,
          "duration": 0.04651162790696617
        },
        {
          "name": "F4",
          "midi": 65,
          "time": 97.03488372092058,
          "velocity": 0.3543307086614173,
          "duration": 0.05813953488370771
        },
        {
          "name": "G#4",
          "midi": 68,
          "time": 97.03488372092058,
          "velocity": 0.3937007874015748,
          "duration": 0.04651162790696617
        },
        {
          "name": "A#3",
          "midi": 58,
          "time": 97.04651162789732,
          "velocity": 0.31496062992125984,
          "duration": 0.04651162790696617
        },
        {
          "name": "A#6",
          "midi": 94,
          "time": 97.04651162789732,
          "velocity": 0.2677165354330709,
          "duration": 0.023255813953483084
        },
        {
          "name": "D#3",
          "midi": 51,
          "time": 97.05813953487406,
          "velocity": 0.33858267716535434,
          "duration": 0.023255813953483084
        },
        {
          "name": "D#5",
          "midi": 75,
          "time": 97.05813953487406,
          "velocity": 0.29133858267716534,
          "duration": 0.10465116279067388
        },
        {
          "name": "D6",
          "midi": 86,
          "time": 97.05813953487406,
          "velocity": 0.07874015748031496,
          "duration": 0.06976744186044925
        },
        {
          "name": "E4",
          "midi": 64,
          "time": 97.09302325580428,
          "velocity": 0.31496062992125984,
          "duration": 0.023255813953483084
        },
        {
          "name": "G#4",
          "midi": 68,
          "time": 97.09302325580428,
          "velocity": 0.3700787401574803,
          "duration": 0.023255813953483084
        },
        {
          "name": "G6",
          "midi": 91,
          "time": 97.09302325580428,
          "velocity": 0.30708661417322836,
          "duration": 0.04651162790696617
        },
        {
          "name": "G#6",
          "midi": 92,
          "time": 97.10465116278102,
          "velocity": 0.2440944881889764,
          "duration": 0.023255813953483084
        },
        {
          "name": "D#3",
          "midi": 51,
          "time": 97.11627906975777,
          "velocity": 0.29133858267716534,
          "duration": 0.023255813953483084
        },
        {
          "name": "A#3",
          "midi": 58,
          "time": 97.12790697673451,
          "velocity": 0.30708661417322836,
          "duration": 0.10465116279067388
        },
        {
          "name": "G#4",
          "midi": 68,
          "time": 97.12790697673451,
          "velocity": 0.41732283464566927,
          "duration": 0.10465116279067388
        },
        {
          "name": "C7",
          "midi": 96,
          "time": 97.12790697673451,
          "velocity": 0.14960629921259844,
          "duration": 0.09302325581393234
        },
        {
          "name": "D#3",
          "midi": 51,
          "time": 97.15116279068799,
          "velocity": 0.30708661417322836,
          "duration": 0.17441860465112313
        },
        {
          "name": "A#4",
          "midi": 70,
          "time": 97.15116279068799,
          "velocity": 0.33858267716535434,
          "duration": 0.2558139534883139
        },
        {
          "name": "G#6",
          "midi": 92,
          "time": 97.16279069766473,
          "velocity": 0.3464566929133858,
          "duration": 0.10465116279067388
        },
        {
          "name": "F#6",
          "midi": 90,
          "time": 97.17441860464147,
          "velocity": 0.31496062992125984,
          "duration": 0.05813953488370771
        },
        {
          "name": "D#4",
          "midi": 63,
          "time": 97.18604651161822,
          "velocity": 0.30708661417322836,
          "duration": 0.023255813953483084
        },
        {
          "name": "D#6",
          "midi": 87,
          "time": 97.18604651161822,
          "velocity": 0.16535433070866143,
          "duration": 0.034883720930224626
        },
        {
          "name": "D5",
          "midi": 74,
          "time": 97.19767441859496,
          "velocity": 0.33858267716535434,
          "duration": 0.034883720930224626
        },
        {
          "name": "D4",
          "midi": 62,
          "time": 97.2093023255717,
          "velocity": 0.31496062992125984,
          "duration": 0.023255813953483084
        },
        {
          "name": "F5",
          "midi": 77,
          "time": 97.22093023254844,
          "velocity": 0.16535433070866143,
          "duration": 0.06976744186044925
        },
        {
          "name": "G5",
          "midi": 79,
          "time": 97.22093023254844,
          "velocity": 0.11023622047244094,
          "duration": 0.04651162790696617
        },
        {
          "name": "G4",
          "midi": 67,
          "time": 97.23255813952518,
          "velocity": 0.3543307086614173,
          "duration": 0.023255813953483084
        },
        {
          "name": "A#3",
          "midi": 58,
          "time": 97.24418604650192,
          "velocity": 0.3858267716535433,
          "duration": 0.0813953488371908
        },
        {
          "name": "D#6",
          "midi": 87,
          "time": 97.24418604650192,
          "velocity": 0.3700787401574803,
          "duration": 0.5348837209301252
        },
        {
          "name": "G#4",
          "midi": 68,
          "time": 97.25581395347866,
          "velocity": 0.33070866141732286,
          "duration": 0.0813953488371908
        },
        {
          "name": "F#4",
          "midi": 66,
          "time": 97.2674418604554,
          "velocity": 0.2755905511811024,
          "duration": 0.023255813953483084
        },
        {
          "name": "C#5",
          "midi": 73,
          "time": 97.2674418604554,
          "velocity": 0.16535433070866143,
          "duration": 0.05813953488370771
        },
        {
          "name": "G#6",
          "midi": 92,
          "time": 97.27906976743215,
          "velocity": 0.14173228346456693,
          "duration": 0.034883720930224626
        },
        {
          "name": "G5",
          "midi": 79,
          "time": 97.30232558138563,
          "velocity": 0.09448818897637795,
          "duration": 0.06976744186044925
        },
        {
          "name": "F5",
          "midi": 77,
          "time": 97.31395348836237,
          "velocity": 0.2992125984251969,
          "duration": 0.11627906976741542
        },
        {
          "name": "A#5",
          "midi": 82,
          "time": 97.32558139533911,
          "velocity": 0.3779527559055118,
          "duration": 0.37209302325572935
        },
        {
          "name": "D#3",
          "midi": 51,
          "time": 97.33720930231586,
          "velocity": 0.3779527559055118,
          "duration": 0.09302325581393234
        },
        {
          "name": "A#3",
          "midi": 58,
          "time": 97.33720930231586,
          "velocity": 0.3937007874015748,
          "duration": 0.06976744186044925
        },
        {
          "name": "G#4",
          "midi": 68,
          "time": 97.3488372092926,
          "velocity": 0.33070866141732286,
          "duration": 0.06976744186044925
        },
        {
          "name": "D6",
          "midi": 86,
          "time": 97.37209302324608,
          "velocity": 0.11811023622047244,
          "duration": 0.05813953488370771
        },
        {
          "name": "A6",
          "midi": 93,
          "time": 97.38372093022282,
          "velocity": 0.15748031496062992,
          "duration": 0.034883720930224626
        },
        {
          "name": "C5",
          "midi": 72,
          "time": 97.39534883719956,
          "velocity": 0.47244094488188976,
          "duration": 0.034883720930224626
        },
        {
          "name": "F#5",
          "midi": 78,
          "time": 97.39534883719956,
          "velocity": 0.4015748031496063,
          "duration": 0.05813953488370771
        },
        {
          "name": "A#4",
          "midi": 70,
          "time": 97.41860465115305,
          "velocity": 0.5275590551181102,
          "duration": 0.1395348837208985
        },
        {
          "name": "G6",
          "midi": 91,
          "time": 97.41860465115305,
          "velocity": 0.29133858267716534,
          "duration": 0.23255813953483084
        },
        {
          "name": "B0",
          "midi": 23,
          "time": 97.43023255812979,
          "velocity": 0.5433070866141733,
          "duration": 0.011627906976741542
        },
        {
          "name": "G#4",
          "midi": 68,
          "time": 97.43023255812979,
          "velocity": 0.25196850393700787,
          "duration": 0.023255813953483084
        },
        {
          "name": "C#5",
          "midi": 73,
          "time": 97.43023255812979,
          "velocity": 0.28346456692913385,
          "duration": 0.1395348837208985
        },
        {
          "name": "C1",
          "midi": 24,
          "time": 97.44186046510653,
          "velocity": 0.6377952755905512,
          "duration": 0.011627906976741542
        },
        {
          "name": "A2",
          "midi": 45,
          "time": 97.44186046510653,
          "velocity": 0.47244094488188976,
          "duration": 0.023255813953483084
        },
        {
          "name": "D#4",
          "midi": 63,
          "time": 97.44186046510653,
          "velocity": 0.33858267716535434,
          "duration": 0.43023255813945127
        },
        {
          "name": "D6",
          "midi": 86,
          "time": 97.44186046510653,
          "velocity": 0.2125984251968504,
          "duration": 0.034883720930224626
        },
        {
          "name": "F6",
          "midi": 89,
          "time": 97.44186046510653,
          "velocity": 0.1732283464566929,
          "duration": 0.2209302325580893
        },
        {
          "name": "D1",
          "midi": 26,
          "time": 97.45348837208327,
          "velocity": 0.6929133858267716,
          "duration": 0.011627906976741542
        },
        {
          "name": "F5",
          "midi": 77,
          "time": 97.45348837208327,
          "velocity": 0.4330708661417323,
          "duration": 0.023255813953483084
        },
        {
          "name": "C#1",
          "midi": 25,
          "time": 97.46511627906001,
          "velocity": 0.7007874015748031,
          "duration": 0.011627906976741542
        },
        {
          "name": "B0",
          "midi": 23,
          "time": 97.47674418603675,
          "velocity": 0.7244094488188977,
          "duration": 1.2790697674416123
        },
        {
          "name": "E5",
          "midi": 76,
          "time": 97.47674418603675,
          "velocity": 0.49606299212598426,
          "duration": 0.023255813953483084
        },
        {
          "name": "D7",
          "midi": 98,
          "time": 97.47674418603675,
          "velocity": 0.18110236220472442,
          "duration": 0.06976744186044925
        },
        {
          "name": "D#3",
          "midi": 51,
          "time": 97.49999999999024,
          "velocity": 0.4566929133858268,
          "duration": 0.023255813953483084
        },
        {
          "name": "F5",
          "midi": 77,
          "time": 97.49999999999024,
          "velocity": 0.4566929133858268,
          "duration": 0.25581395348832814
        },
        {
          "name": "G#6",
          "midi": 92,
          "time": 97.49999999999024,
          "velocity": 0.3543307086614173,
          "duration": 0.06976744186044925
        },
        {
          "name": "E7",
          "midi": 100,
          "time": 97.49999999999024,
          "velocity": 0.18110236220472442,
          "duration": 0.06976744186044925
        },
        {
          "name": "D#3",
          "midi": 51,
          "time": 97.53488372092046,
          "velocity": 0.5354330708661418,
          "duration": 0.19767441860462043
        },
        {
          "name": "F#4",
          "midi": 66,
          "time": 97.55813953487394,
          "velocity": 0.11023622047244094,
          "duration": 0.034883720930224626
        },
        {
          "name": "A#4",
          "midi": 70,
          "time": 97.56976744185069,
          "velocity": 0.4409448818897638,
          "duration": 0.023255813953483084
        },
        {
          "name": "F#2",
          "midi": 42,
          "time": 97.59302325580417,
          "velocity": 0.4409448818897638,
          "duration": 0.023255813953483084
        },
        {
          "name": "B4",
          "midi": 71,
          "time": 97.59302325580417,
          "velocity": 0.4566929133858268,
          "duration": 0.023255813953483084
        },
        {
          "name": "B6",
          "midi": 95,
          "time": 97.59302325580417,
          "velocity": 0.3937007874015748,
          "duration": 0.04651162790696617
        },
        {
          "name": "A#4",
          "midi": 70,
          "time": 97.61627906975765,
          "velocity": 0.44881889763779526,
          "duration": 0.2790697674418112
        },
        {
          "name": "C7",
          "midi": 96,
          "time": 97.61627906975765,
          "velocity": 0.23622047244094488,
          "duration": 0.0813953488371908
        },
        {
          "name": "D7",
          "midi": 98,
          "time": 97.61627906975765,
          "velocity": 0.1889763779527559,
          "duration": 0.05813953488370771
        },
        {
          "name": "E7",
          "midi": 100,
          "time": 97.61627906975765,
          "velocity": 0.12598425196850394,
          "duration": 0.034883720930224626
        },
        {
          "name": "C#5",
          "midi": 73,
          "time": 97.6279069767344,
          "velocity": 0.10236220472440945,
          "duration": 0.04651162790696617
        },
        {
          "name": "G#6",
          "midi": 92,
          "time": 97.6279069767344,
          "velocity": 0.08661417322834646,
          "duration": 0.034883720930224626
        },
        {
          "name": "F#4",
          "midi": 66,
          "time": 97.63953488371114,
          "velocity": 0.2204724409448819,
          "duration": 0.25581395348832814
        },
        {
          "name": "B6",
          "midi": 95,
          "time": 97.65116279068788,
          "velocity": 0.2125984251968504,
          "duration": 0.04651162790696617
        },
        {
          "name": "C#7",
          "midi": 97,
          "time": 97.65116279068788,
          "velocity": 0.10236220472440945,
          "duration": 0.04651162790696617
        },
        {
          "name": "D#3",
          "midi": 51,
          "time": 97.74418604650182,
          "velocity": 0.5196850393700787,
          "duration": 0.18604651162786467
        },
        {
          "name": "A#6",
          "midi": 94,
          "time": 97.74418604650182,
          "velocity": 0.33858267716535434,
          "duration": 0.1395348837208985
        },
        {
          "name": "F#2",
          "midi": 42,
          "time": 97.75581395347857,
          "velocity": 0.47244094488188976,
          "duration": 0.023255813953483084
        },
        {
          "name": "G6",
          "midi": 91,
          "time": 97.75581395347857,
          "velocity": 0.2204724409448819,
          "duration": 0.10465116279067388
        },
        {
          "name": "A6",
          "midi": 93,
          "time": 97.79069767440879,
          "velocity": 0.44881889763779526,
          "duration": 0.18604651162786467
        },
        {
          "name": "D7",
          "midi": 98,
          "time": 97.79069767440879,
          "velocity": 0.1968503937007874,
          "duration": 0.0813953488371908
        },
        {
          "name": "F#5",
          "midi": 78,
          "time": 97.80232558138553,
          "velocity": 0.30708661417322836,
          "duration": 0.034883720930224626
        },
        {
          "name": "A5",
          "midi": 81,
          "time": 97.80232558138553,
          "velocity": 0.1732283464566929,
          "duration": 0.034883720930224626
        },
        {
          "name": "B6",
          "midi": 95,
          "time": 97.80232558138553,
          "velocity": 0.3700787401574803,
          "duration": 0.18604651162786467
        },
        {
          "name": "C#7",
          "midi": 97,
          "time": 97.80232558138553,
          "velocity": 0.2047244094488189,
          "duration": 0.034883720930224626
        },
        {
          "name": "G#6",
          "midi": 92,
          "time": 97.81395348836227,
          "velocity": 0.2283464566929134,
          "duration": 0.04651162790696617
        },
        {
          "name": "F5",
          "midi": 77,
          "time": 97.82558139533901,
          "velocity": 0.4409448818897638,
          "duration": 0.034883720930224626
        },
        {
          "name": "D#6",
          "midi": 87,
          "time": 97.82558139533901,
          "velocity": 0.2440944881889764,
          "duration": 0.4418604651161786
        },
        {
          "name": "F#2",
          "midi": 42,
          "time": 97.83720930231576,
          "velocity": 0.44881889763779526,
          "duration": 0.023255813953483084
        },
        {
          "name": "C7",
          "midi": 96,
          "time": 97.83720930231576,
          "velocity": 0.2047244094488189,
          "duration": 0.034883720930224626
        },
        {
          "name": "C#7",
          "midi": 97,
          "time": 97.8488372092925,
          "velocity": 0.3228346456692913,
          "duration": 0.0813953488371908
        },
        {
          "name": "F#5",
          "midi": 78,
          "time": 97.86046511626924,
          "velocity": 0.4251968503937008,
          "duration": 0.12790697674415696
        },
        {
          "name": "D#7",
          "midi": 99,
          "time": 97.86046511626924,
          "velocity": 0.28346456692913385,
          "duration": 0.0813953488371908
        },
        {
          "name": "D4",
          "midi": 62,
          "time": 97.87209302324598,
          "velocity": 0.29133858267716534,
          "duration": 0.023255813953483084
        },
        {
          "name": "F#7",
          "midi": 102,
          "time": 97.87209302324598,
          "velocity": 0.08661417322834646,
          "duration": 0.05813953488370771
        },
        {
          "name": "C#5",
          "midi": 73,
          "time": 97.88372093022272,
          "velocity": 0.13385826771653545,
          "duration": 0.06976744186044925
        },
        {
          "name": "G6",
          "midi": 91,
          "time": 97.88372093022272,
          "velocity": 0.16535433070866143,
          "duration": 0.04651162790696617
        },
        {
          "name": "B3",
          "midi": 59,
          "time": 97.89534883719946,
          "velocity": 0.1889763779527559,
          "duration": 0.04651162790696617
        },
        {
          "name": "B4",
          "midi": 71,
          "time": 97.89534883719946,
          "velocity": 0.4330708661417323,
          "duration": 0.034883720930224626
        },
        {
          "name": "F#2",
          "midi": 42,
          "time": 97.91860465115295,
          "velocity": 0.44881889763779526,
          "duration": 0.023255813953483084
        },
        {
          "name": "C6",
          "midi": 84,
          "time": 97.91860465115295,
          "velocity": 0.13385826771653545,
          "duration": 0.37209302325572935
        },
        {
          "name": "D#4",
          "midi": 63,
          "time": 97.93023255812969,
          "velocity": 0.3228346456692913,
          "duration": 0.034883720930224626
        },
        {
          "name": "A#4",
          "midi": 70,
          "time": 97.93023255812969,
          "velocity": 0.4409448818897638,
          "duration": 0.034883720930224626
        },
        {
          "name": "E7",
          "midi": 100,
          "time": 97.93023255812969,
          "velocity": 0.2047244094488189,
          "duration": 0.04651162790696617
        },
        {
          "name": "D#3",
          "midi": 51,
          "time": 97.94186046510643,
          "velocity": 0.4881889763779528,
          "duration": 0.023255813953483084
        },
        {
          "name": "F4",
          "midi": 65,
          "time": 97.95348837208317,
          "velocity": 0.31496062992125984,
          "duration": 0.034883720930224626
        },
        {
          "name": "G6",
          "midi": 91,
          "time": 97.95348837208317,
          "velocity": 0.18110236220472442,
          "duration": 0.04651162790696617
        },
        {
          "name": "B5",
          "midi": 83,
          "time": 97.96511627905991,
          "velocity": 0.08661417322834646,
          "duration": 0.034883720930224626
        },
        {
          "name": "D#3",
          "midi": 51,
          "time": 97.97674418603665,
          "velocity": 0.48031496062992124,
          "duration": 0.023255813953483084
        },
        {
          "name": "A#4",
          "midi": 70,
          "time": 97.97674418603665,
          "velocity": 0.49606299212598426,
          "duration": 0.3023255813952801
        },
        {
          "name": "C#5",
          "midi": 73,
          "time": 97.97674418603665,
          "velocity": 0.11023622047244094,
          "duration": 0.10465116279067388
        },
        {
          "name": "G#6",
          "midi": 92,
          "time": 97.97674418603665,
          "velocity": 0.36220472440944884,
          "duration": 0.0813953488371908
        },
        {
          "name": "F5",
          "midi": 77,
          "time": 97.9883720930134,
          "velocity": 0.4881889763779528,
          "duration": 0.1395348837208985
        },
        {
          "name": "F#2",
          "midi": 42,
          "time": 97.99999999999014,
          "velocity": 0.44881889763779526,
          "duration": 0.023255813953483084
        },
        {
          "name": "F#4",
          "midi": 66,
          "time": 97.99999999999014,
          "velocity": 0.29133858267716534,
          "duration": 0.023255813953483084
        },
        {
          "name": "D6",
          "midi": 86,
          "time": 97.99999999999014,
          "velocity": 0.18110236220472442,
          "duration": 0.04651162790696617
        },
        {
          "name": "F4",
          "midi": 65,
          "time": 98.02325581394362,
          "velocity": 0.30708661417322836,
          "duration": 0.023255813953483084
        },
        {
          "name": "D#4",
          "midi": 63,
          "time": 98.03488372092036,
          "velocity": 0.33070866141732286,
          "duration": 0.034883720930224626
        },
        {
          "name": "G6",
          "midi": 91,
          "time": 98.03488372092036,
          "velocity": 0.10236220472440945,
          "duration": 0.04651162790696617
        },
        {
          "name": "G2",
          "midi": 43,
          "time": 98.0465116278971,
          "velocity": 0.4251968503937008,
          "duration": 0.023255813953483084
        },
        {
          "name": "F#6",
          "midi": 90,
          "time": 98.0465116278971,
          "velocity": 0.4409448818897638,
          "duration": 0.023255813953483084
        },
        {
          "name": "E7",
          "midi": 100,
          "time": 98.0465116278971,
          "velocity": 0.2677165354330709,
          "duration": 0.11627906976741542
        },
        {
          "name": "D3",
          "midi": 50,
          "time": 98.05813953487385,
          "velocity": 0.4409448818897638,
          "duration": 0.023255813953483084
        },
        {
          "name": "F4",
          "midi": 65,
          "time": 98.05813953487385,
          "velocity": 0.3228346456692913,
          "duration": 0.023255813953483084
        },
        {
          "name": "D7",
          "midi": 98,
          "time": 98.05813953487385,
          "velocity": 0.3464566929133858,
          "duration": 0.1627906976743816
        },
        {
          "name": "F#2",
          "midi": 42,
          "time": 98.08139534882733,
          "velocity": 0.4330708661417323,
          "duration": 0.023255813953483084
        },
        {
          "name": "F#6",
          "midi": 90,
          "time": 98.08139534882733,
          "velocity": 0.16535433070866143,
          "duration": 0.04651162790696617
        },
        {
          "name": "A6",
          "midi": 93,
          "time": 98.08139534882733,
          "velocity": 0.29133858267716534,
          "duration": 0.034883720930224626
        },
        {
          "name": "A#6",
          "midi": 94,
          "time": 98.08139534882733,
          "velocity": 0.28346456692913385,
          "duration": 0.10465116279067388
        },
        {
          "name": "B6",
          "midi": 95,
          "time": 98.08139534882733,
          "velocity": 0.2755905511811024,
          "duration": 0.05813953488370771
        },
        {
          "name": "C7",
          "midi": 96,
          "time": 98.08139534882733,
          "velocity": 0.2440944881889764,
          "duration": 0.05813953488370771
        },
        {
          "name": "C#7",
          "midi": 97,
          "time": 98.08139534882733,
          "velocity": 0.2992125984251969,
          "duration": 0.0813953488371908
        },
        {
          "name": "G7",
          "midi": 103,
          "time": 98.08139534882733,
          "velocity": 0.1889763779527559,
          "duration": 0.06976744186044925
        },
        {
          "name": "D3",
          "midi": 50,
          "time": 98.09302325580407,
          "velocity": 0.41732283464566927,
          "duration": 0.023255813953483084
        },
        {
          "name": "D#4",
          "midi": 63,
          "time": 98.09302325580407,
          "velocity": 0.2204724409448819,
          "duration": 0.034883720930224626
        },
        {
          "name": "D#7",
          "midi": 99,
          "time": 98.09302325580407,
          "velocity": 0.29133858267716534,
          "duration": 0.05813953488370771
        },
        {
          "name": "F#7",
          "midi": 102,
          "time": 98.09302325580407,
          "velocity": 0.2204724409448819,
          "duration": 0.034883720930224626
        },
        {
          "name": "F#4",
          "midi": 66,
          "time": 98.10465116278081,
          "velocity": 0.3228346456692913,
          "duration": 0.023255813953483084
        },
        {
          "name": "F#2",
          "midi": 42,
          "time": 98.11627906975755,
          "velocity": 0.4330708661417323,
          "duration": 0.023255813953483084
        },
        {
          "name": "C#5",
          "midi": 73,
          "time": 98.11627906975755,
          "velocity": 0.10236220472440945,
          "duration": 0.1395348837208985
        },
        {
          "name": "A5",
          "midi": 81,
          "time": 98.11627906975755,
          "velocity": 0.08661417322834646,
          "duration": 0.034883720930224626
        },
        {
          "name": "G#6",
          "midi": 92,
          "time": 98.11627906975755,
          "velocity": 0.2440944881889764,
          "duration": 0.034883720930224626
        },
        {
          "name": "D#4",
          "midi": 63,
          "time": 98.13953488371104,
          "velocity": 0.30708661417322836,
          "duration": 0.034883720930224626
        },
        {
          "name": "A6",
          "midi": 93,
          "time": 98.13953488371104,
          "velocity": 0.11023622047244094,
          "duration": 0.034883720930224626
        },
        {
          "name": "F#2",
          "midi": 42,
          "time": 98.16279069766452,
          "velocity": 0.4251968503937008,
          "duration": 0.034883720930224626
        },
        {
          "name": "F4",
          "midi": 65,
          "time": 98.16279069766452,
          "velocity": 0.30708661417322836,
          "duration": 0.023255813953483084
        },
        {
          "name": "F#5",
          "midi": 78,
          "time": 98.17441860464126,
          "velocity": 0.14960629921259844,
          "duration": 0.034883720930224626
        },
        {
          "name": "F6",
          "midi": 89,
          "time": 98.186046511618,
          "velocity": 0.33858267716535434,
          "duration": 0.3255813953487774
        },
        {
          "name": "F4",
          "midi": 65,
          "time": 98.19767441859474,
          "velocity": 0.31496062992125984,
          "duration": 0.034883720930224626
        },
        {
          "name": "D#5",
          "midi": 75,
          "time": 98.19767441859474,
          "velocity": 0.14173228346456693,
          "duration": 0.09302325581393234
        },
        {
          "name": "A6",
          "midi": 93,
          "time": 98.19767441859474,
          "velocity": 0.13385826771653545,
          "duration": 0.034883720930224626
        },
        {
          "name": "D#4",
          "midi": 63,
          "time": 98.22093023254823,
          "velocity": 0.3700787401574803,
          "duration": 0.5232558139533978
        },
        {
          "name": "F5",
          "midi": 77,
          "time": 98.25581395347845,
          "velocity": 0.2283464566929134,
          "duration": 0.023255813953483084
        },
        {
          "name": "G#6",
          "midi": 92,
          "time": 98.25581395347845,
          "velocity": 0.3858267716535433,
          "duration": 0.2674418604650697
        },
        {
          "name": "E3",
          "midi": 52,
          "time": 98.2674418604552,
          "velocity": 0.4015748031496063,
          "duration": 0.023255813953483084
        },
        {
          "name": "B3",
          "midi": 59,
          "time": 98.2674418604552,
          "velocity": 0.3464566929133858,
          "duration": 0.04651162790696617
        },
        {
          "name": "F#6",
          "midi": 90,
          "time": 98.2674418604552,
          "velocity": 0.2125984251968504,
          "duration": 0.0813953488371908
        },
        {
          "name": "D#7",
          "midi": 99,
          "time": 98.2674418604552,
          "velocity": 0.16535433070866143,
          "duration": 0.05813953488370771
        },
        {
          "name": "B4",
          "midi": 71,
          "time": 98.27906976743193,
          "velocity": 0.5196850393700787,
          "duration": 0.034883720930224626
        },
        {
          "name": "F#5",
          "midi": 78,
          "time": 98.27906976743193,
          "velocity": 0.2440944881889764,
          "duration": 0.023255813953483084
        },
        {
          "name": "D#6",
          "midi": 87,
          "time": 98.29069767440868,
          "velocity": 0.11023622047244094,
          "duration": 0.04651162790696617
        },
        {
          "name": "F5",
          "midi": 77,
          "time": 98.30232558138542,
          "velocity": 0.4881889763779528,
          "duration": 0.23255813953484505
        },
        {
          "name": "A#6",
          "midi": 94,
          "time": 98.30232558138542,
          "velocity": 0.30708661417322836,
          "duration": 0.3023255813953085
        },
        {
          "name": "D7",
          "midi": 98,
          "time": 98.30232558138542,
          "velocity": 0.10236220472440945,
          "duration": 0.034883720930224626
        },
        {
          "name": "A#4",
          "midi": 70,
          "time": 98.31395348836216,
          "velocity": 0.47244094488188976,
          "duration": 0.37209302325575777
        },
        {
          "name": "D5",
          "midi": 74,
          "time": 98.31395348836216,
          "velocity": 0.14173228346456693,
          "duration": 0.034883720930224626
        },
        {
          "name": "F#2",
          "midi": 42,
          "time": 98.3255813953389,
          "velocity": 0.3858267716535433,
          "duration": 0.023255813953483084
        },
        {
          "name": "C#5",
          "midi": 73,
          "time": 98.34883720929238,
          "velocity": 0.11023622047244094,
          "duration": 0.1627906976743958
        },
        {
          "name": "C#6",
          "midi": 85,
          "time": 98.34883720929238,
          "velocity": 0.11811023622047244,
          "duration": 0.06976744186046346
        },
        {
          "name": "F#4",
          "midi": 66,
          "time": 98.36046511626913,
          "velocity": 0.31496062992125984,
          "duration": 0.3255813953487916
        },
        {
          "name": "D6",
          "midi": 86,
          "time": 98.36046511626913,
          "velocity": 0.16535433070866143,
          "duration": 0.12790697674417117
        },
        {
          "name": "A#3",
          "midi": 58,
          "time": 98.39534883719936,
          "velocity": 0.14173228346456693,
          "duration": 0.034883720930224626
        },
        {
          "name": "F#6",
          "midi": 90,
          "time": 98.39534883719936,
          "velocity": 0.11811023622047244,
          "duration": 0.04651162790696617
        },
        {
          "name": "G6",
          "midi": 91,
          "time": 98.44186046510633,
          "velocity": 0.07086614173228346,
          "duration": 0.034883720930224626
        },
        {
          "name": "C7",
          "midi": 96,
          "time": 98.45348837208307,
          "velocity": 0.28346456692913385,
          "duration": 0.09302325581393234
        },
        {
          "name": "E7",
          "midi": 100,
          "time": 98.46511627905981,
          "velocity": 0.11023622047244094,
          "duration": 0.04651162790696617
        },
        {
          "name": "F#2",
          "midi": 42,
          "time": 98.4883720930133,
          "velocity": 0.3543307086614173,
          "duration": 0.023255813953483084
        },
        {
          "name": "C#5",
          "midi": 73,
          "time": 98.53488372092026,
          "velocity": 0.14960629921259844,
          "duration": 0.31395348837203585
        },
        {
          "name": "F#3",
          "midi": 54,
          "time": 98.546511627897,
          "velocity": 0.3543307086614173,
          "duration": 0.023255813953483084
        },
        {
          "name": "F#3",
          "midi": 54,
          "time": 98.60465116278073,
          "velocity": 0.2677165354330709,
          "duration": 0.023255813953483084
        },
        {
          "name": "F#2",
          "midi": 42,
          "time": 98.65116279068769,
          "velocity": 0.2992125984251969,
          "duration": 0.023255813953483084
        },
        {
          "name": "C7",
          "midi": 96,
          "time": 98.67441860464118,
          "velocity": 0.33070866141732286,
          "duration": 0.1627906976743816
        },
        {
          "name": "G3",
          "midi": 55,
          "time": 98.68604651161792,
          "velocity": 0.3937007874015748,
          "duration": 0.023255813953483084
        },
        {
          "name": "C#7",
          "midi": 97,
          "time": 98.68604651161792,
          "velocity": 0.33858267716535434,
          "duration": 0.11627906976741542
        },
        {
          "name": "F#7",
          "midi": 102,
          "time": 98.68604651161792,
          "velocity": 0.2125984251968504,
          "duration": 0.11627906976741542
        },
        {
          "name": "G7",
          "midi": 103,
          "time": 98.68604651161792,
          "velocity": 0.18110236220472442,
          "duration": 0.05813953488370771
        },
        {
          "name": "F#4",
          "midi": 66,
          "time": 98.69767441859466,
          "velocity": 0.29133858267716534,
          "duration": 0.034883720930224626
        },
        {
          "name": "A4",
          "midi": 69,
          "time": 98.69767441859466,
          "velocity": 0.5196850393700787,
          "duration": 0.034883720930224626
        },
        {
          "name": "F5",
          "midi": 77,
          "time": 98.69767441859466,
          "velocity": 0.13385826771653545,
          "duration": 0.034883720930224626
        },
        {
          "name": "F7",
          "midi": 101,
          "time": 98.69767441859466,
          "velocity": 0.30708661417322836,
          "duration": 0.1395348837208985
        },
        {
          "name": "F#3",
          "midi": 54,
          "time": 98.7093023255714,
          "velocity": 0.31496062992125984,
          "duration": 0.023255813953483084
        },
        {
          "name": "B6",
          "midi": 95,
          "time": 98.7093023255714,
          "velocity": 0.2755905511811024,
          "duration": 0.04651162790696617
        },
        {
          "name": "D7",
          "midi": 98,
          "time": 98.7093023255714,
          "velocity": 0.3543307086614173,
          "duration": 0.12790697674415696
        },
        {
          "name": "D#7",
          "midi": 99,
          "time": 98.72093023254814,
          "velocity": 0.2992125984251969,
          "duration": 0.1395348837208985
        },
        {
          "name": "E7",
          "midi": 100,
          "time": 98.72093023254814,
          "velocity": 0.28346456692913385,
          "duration": 0.0813953488371908
        },
        {
          "name": "G3",
          "midi": 55,
          "time": 98.73255813952488,
          "velocity": 0.3228346456692913,
          "duration": 0.023255813953483084
        },
        {
          "name": "A#4",
          "midi": 70,
          "time": 98.73255813952488,
          "velocity": 0.4645669291338583,
          "duration": 0.10465116279067388
        },
        {
          "name": "D6",
          "midi": 86,
          "time": 98.73255813952488,
          "velocity": 0.09448818897637795,
          "duration": 0.05813953488370771
        },
        {
          "name": "E6",
          "midi": 88,
          "time": 98.73255813952488,
          "velocity": 0.15748031496062992,
          "duration": 0.034883720930224626
        },
        {
          "name": "F#6",
          "midi": 90,
          "time": 98.73255813952488,
          "velocity": 0.2047244094488189,
          "duration": 0.05813953488370771
        },
        {
          "name": "A6",
          "midi": 93,
          "time": 98.73255813952488,
          "velocity": 0.25984251968503935,
          "duration": 0.034883720930224626
        },
        {
          "name": "F#4",
          "midi": 66,
          "time": 98.74418604650162,
          "velocity": 0.2283464566929134,
          "duration": 0.023255813953483084
        },
        {
          "name": "G#6",
          "midi": 92,
          "time": 98.74418604650162,
          "velocity": 0.1968503937007874,
          "duration": 0.0813953488371908
        },
        {
          "name": "A#0",
          "midi": 22,
          "time": 98.75581395347837,
          "velocity": 0.5748031496062992,
          "duration": 0.011627906976741542
        },
        {
          "name": "F#3",
          "midi": 54,
          "time": 98.75581395347837,
          "velocity": 0.3543307086614173,
          "duration": 0.10465116279067388
        },
        {
          "name": "F5",
          "midi": 77,
          "time": 98.75581395347837,
          "velocity": 0.29133858267716534,
          "duration": 0.0813953488371908
        },
        {
          "name": "B0",
          "midi": 23,
          "time": 98.76744186045511,
          "velocity": 0.5826771653543307,
          "duration": 0.33720930232553314
        },
        {
          "name": "G4",
          "midi": 67,
          "time": 98.76744186045511,
          "velocity": 0.2440944881889764,
          "duration": 0.023255813953483084
        },
        {
          "name": "A#3",
          "midi": 58,
          "time": 98.79069767440859,
          "velocity": 0.2755905511811024,
          "duration": 0.04651162790696617
        },
        {
          "name": "G#4",
          "midi": 68,
          "time": 98.79069767440859,
          "velocity": 0.4015748031496063,
          "duration": 0.3255813953487916
        },
        {
          "name": "D#6",
          "midi": 87,
          "time": 98.81395348836207,
          "velocity": 0.2440944881889764,
          "duration": 0.10465116279067388
        },
        {
          "name": "D#5",
          "midi": 75,
          "time": 98.8488372092923,
          "velocity": 0.4015748031496063,
          "duration": 0.034883720930224626
        },
        {
          "name": "F#3",
          "midi": 54,
          "time": 98.89534883719926,
          "velocity": 0.31496062992125984,
          "duration": 0.04651162790696617
        },
        {
          "name": "C#5",
          "midi": 73,
          "time": 98.89534883719926,
          "velocity": 0.3543307086614173,
          "duration": 0.034883720930224626
        },
        {
          "name": "F4",
          "midi": 65,
          "time": 98.906976744176,
          "velocity": 0.2755905511811024,
          "duration": 0.034883720930224626
        },
        {
          "name": "C5",
          "midi": 72,
          "time": 98.91860465115275,
          "velocity": 0.2677165354330709,
          "duration": 0.19767441860463464
        },
        {
          "name": "C6",
          "midi": 84,
          "time": 98.91860465115275,
          "velocity": 0.2755905511811024,
          "duration": 0.20930232558137618
        },
        {
          "name": "F6",
          "midi": 89,
          "time": 98.91860465115275,
          "velocity": 0.3543307086614173,
          "duration": 0.290697674418567
        },
        {
          "name": "A#6",
          "midi": 94,
          "time": 98.91860465115275,
          "velocity": 0.33858267716535434,
          "duration": 0.2441860465116008
        },
        {
          "name": "D7",
          "midi": 98,
          "time": 98.91860465115275,
          "velocity": 0.2440944881889764,
          "duration": 0.16279069767441
        },
        {
          "name": "F3",
          "midi": 53,
          "time": 98.94186046510623,
          "velocity": 0.36220472440944884,
          "duration": 0.1860465116278931
        },
        {
          "name": "A5",
          "midi": 81,
          "time": 98.94186046510623,
          "velocity": 0.07874015748031496,
          "duration": 0.04651162790696617
        },
        {
          "name": "D#6",
          "midi": 87,
          "time": 98.94186046510623,
          "velocity": 0.14960629921259844,
          "duration": 0.23255813953485927
        },
        {
          "name": "D#4",
          "midi": 63,
          "time": 98.95348837208297,
          "velocity": 0.33070866141732286,
          "duration": 0.023255813953483084
        },
        {
          "name": "C4",
          "midi": 60,
          "time": 98.99999999998994,
          "velocity": 0.2283464566929134,
          "duration": 0.03488372093023884
        },
        {
          "name": "A#4",
          "midi": 70,
          "time": 99.10465116278064,
          "velocity": 0.41732283464566927,
          "duration": 0.0813953488371908
        },
        {
          "name": "F5",
          "midi": 77,
          "time": 99.10465116278064,
          "velocity": 0.28346456692913385,
          "duration": 0.023255813953483084
        },
        {
          "name": "A5",
          "midi": 81,
          "time": 99.11627906975738,
          "velocity": 0.2283464566929134,
          "duration": 0.05813953488370771
        },
        {
          "name": "F#3",
          "midi": 54,
          "time": 99.12790697673412,
          "velocity": 0.30708661417322836,
          "duration": 0.023255813953483084
        },
        {
          "name": "G4",
          "midi": 67,
          "time": 99.12790697673412,
          "velocity": 0.4015748031496063,
          "duration": 0.023255813953483084
        },
        {
          "name": "F#5",
          "midi": 78,
          "time": 99.12790697673412,
          "velocity": 0.2755905511811024,
          "duration": 0.05813953488370771
        },
        {
          "name": "B5",
          "midi": 83,
          "time": 99.12790697673412,
          "velocity": 0.2755905511811024,
          "duration": 0.034883720930224626
        },
        {
          "name": "C1",
          "midi": 24,
          "time": 99.13953488371087,
          "velocity": 0.4566929133858268,
          "duration": 0.023255813953483084
        },
        {
          "name": "C#5",
          "midi": 73,
          "time": 99.13953488371087,
          "velocity": 0.2755905511811024,
          "duration": 0.034883720930224626
        },
        {
          "name": "C6",
          "midi": 84,
          "time": 99.13953488371087,
          "velocity": 0.2125984251968504,
          "duration": 0.034883720930224626
        },
        {
          "name": "F#4",
          "midi": 66,
          "time": 99.15116279068761,
          "velocity": 0.3543307086614173,
          "duration": 0.023255813953483084
        },
        {
          "name": "D#3",
          "midi": 51,
          "time": 99.16279069766435,
          "velocity": 0.3464566929133858,
          "duration": 0.19767441860460622
        },
        {
          "name": "E5",
          "midi": 76,
          "time": 99.16279069766435,
          "velocity": 0.1732283464566929,
          "duration": 0.04651162790696617
        },
        {
          "name": "D7",
          "midi": 98,
          "time": 99.16279069766435,
          "velocity": 0.23622047244094488,
          "duration": 0.11627906976741542
        },
        {
          "name": "F4",
          "midi": 65,
          "time": 99.19767441859457,
          "velocity": 0.44881889763779526,
          "duration": 0.06976744186044925
        },
        {
          "name": "A4",
          "midi": 69,
          "time": 99.19767441859457,
          "velocity": 0.2755905511811024,
          "duration": 0.023255813953483084
        },
        {
          "name": "D#7",
          "midi": 99,
          "time": 99.19767441859457,
          "velocity": 0.2992125984251969,
          "duration": 0.05813953488370771
        },
        {
          "name": "B0",
          "midi": 23,
          "time": 99.20930232557131,
          "velocity": 0.41732283464566927,
          "duration": 0.0813953488371908
        },
        {
          "name": "C6",
          "midi": 84,
          "time": 99.20930232557131,
          "velocity": 0.14173228346456693,
          "duration": 0.034883720930224626
        },
        {
          "name": "C7",
          "midi": 96,
          "time": 99.20930232557131,
          "velocity": 0.3464566929133858,
          "duration": 0.10465116279067388
        },
        {
          "name": "A#4",
          "midi": 70,
          "time": 99.22093023254806,
          "velocity": 0.33858267716535434,
          "duration": 0.360465116279002
        },
        {
          "name": "A6",
          "midi": 93,
          "time": 99.2325581395248,
          "velocity": 0.4409448818897638,
          "duration": 0.09302325581393234
        },
        {
          "name": "A#6",
          "midi": 94,
          "time": 99.24418604650154,
          "velocity": 0.30708661417322836,
          "duration": 0.2674418604650697
        },
        {
          "name": "C6",
          "midi": 84,
          "time": 99.25581395347828,
          "velocity": 0.25196850393700787,
          "duration": 0.05813953488370771
        },
        {
          "name": "F#4",
          "midi": 66,
          "time": 99.26744186045502,
          "velocity": 0.29133858267716534,
          "duration": 0.023255813953483084
        },
        {
          "name": "D#7",
          "midi": 99,
          "time": 99.26744186045502,
          "velocity": 0.2755905511811024,
          "duration": 0.1627906976743816
        },
        {
          "name": "E4",
          "midi": 64,
          "time": 99.2906976744085,
          "velocity": 0.2204724409448819,
          "duration": 0.04651162790696617
        },
        {
          "name": "G#6",
          "midi": 92,
          "time": 99.30232558138525,
          "velocity": 0.2992125984251969,
          "duration": 0.034883720930224626
        },
        {
          "name": "D7",
          "midi": 98,
          "time": 99.30232558138525,
          "velocity": 0.12598425196850394,
          "duration": 0.034883720930224626
        },
        {
          "name": "E7",
          "midi": 100,
          "time": 99.30232558138525,
          "velocity": 0.2125984251968504,
          "duration": 0.034883720930224626
        },
        {
          "name": "E5",
          "midi": 76,
          "time": 99.31395348836199,
          "velocity": 0.2755905511811024,
          "duration": 0.023255813953483084
        },
        {
          "name": "G6",
          "midi": 91,
          "time": 99.31395348836199,
          "velocity": 0.2992125984251969,
          "duration": 0.11627906976741542
        },
        {
          "name": "B0",
          "midi": 23,
          "time": 99.32558139533873,
          "velocity": 0.3228346456692913,
          "duration": 0.023255813953483084
        },
        {
          "name": "D#6",
          "midi": 87,
          "time": 99.32558139533873,
          "velocity": 0.25196850393700787,
          "duration": 0.10465116279067388
        },
        {
          "name": "D#5",
          "midi": 75,
          "time": 99.33720930231547,
          "velocity": 0.4015748031496063,
          "duration": 0.09302325581393234
        },
        {
          "name": "C7",
          "midi": 96,
          "time": 99.33720930231547,
          "velocity": 0.13385826771653545,
          "duration": 0.034883720930224626
        },
        {
          "name": "F5",
          "midi": 77,
          "time": 99.36046511626895,
          "velocity": 0.11811023622047244,
          "duration": 0.0813953488371908
        },
        {
          "name": "D#4",
          "midi": 63,
          "time": 99.3720930232457,
          "velocity": 0.18110236220472442,
          "duration": 0.034883720930224626
        },
        {
          "name": "G#4",
          "midi": 68,
          "time": 99.3720930232457,
          "velocity": 0.15748031496062992,
          "duration": 0.034883720930224626
        },
        {
          "name": "C#3",
          "midi": 49,
          "time": 99.38372093022244,
          "velocity": 0.31496062992125984,
          "duration": 0.19767441860462043
        },
        {
          "name": "D7",
          "midi": 98,
          "time": 99.40697674417592,
          "velocity": 0.10236220472440945,
          "duration": 0.034883720930224626
        },
        {
          "name": "G#4",
          "midi": 68,
          "time": 99.41860465115266,
          "velocity": 0.2283464566929134,
          "duration": 0.04651162790696617
        },
        {
          "name": "D5",
          "midi": 74,
          "time": 99.4302325581294,
          "velocity": 0.31496062992125984,
          "duration": 0.023255813953483084
        },
        {
          "name": "F6",
          "midi": 89,
          "time": 99.4302325581294,
          "velocity": 0.16535433070866143,
          "duration": 0.11627906976742963
        },
        {
          "name": "G#4",
          "midi": 68,
          "time": 99.49999999998987,
          "velocity": 0.14960629921259844,
          "duration": 0.034883720930224626
        },
        {
          "name": "F#4",
          "midi": 66,
          "time": 99.52325581394335,
          "velocity": 0.33070866141732286,
          "duration": 0.034883720930224626
        },
        {
          "name": "F5",
          "midi": 77,
          "time": 99.53488372092009,
          "velocity": 0.4566929133858268,
          "duration": 0.3023255813952943
        },
        {
          "name": "C6",
          "midi": 84,
          "time": 99.53488372092009,
          "velocity": 0.3543307086614173,
          "duration": 0.12790697674415696
        },
        {
          "name": "C#6",
          "midi": 85,
          "time": 99.53488372092009,
          "velocity": 0.28346456692913385,
          "duration": 0.034883720930224626
        },
        {
          "name": "D6",
          "midi": 86,
          "time": 99.54651162789683,
          "velocity": 0.2992125984251969,
          "duration": 0.023255813953483084
        },
        {
          "name": "F7",
          "midi": 101,
          "time": 99.54651162789683,
          "velocity": 0.1968503937007874,
          "duration": 0.11627906976741542
        },
        {
          "name": "F4",
          "midi": 65,
          "time": 99.55813953487358,
          "velocity": 0.31496062992125984,
          "duration": 0.034883720930224626
        },
        {
          "name": "A#5",
          "midi": 82,
          "time": 99.55813953487358,
          "velocity": 0.3779527559055118,
          "duration": 0.29069767441855277
        },
        {
          "name": "D#6",
          "midi": 87,
          "time": 99.55813953487358,
          "velocity": 0.3937007874015748,
          "duration": 0.8372093023254337
        },
        {
          "name": "G6",
          "midi": 91,
          "time": 99.56976744185032,
          "velocity": 0.2440944881889764,
          "duration": 0.12790697674415696
        },
        {
          "name": "F#1",
          "midi": 30,
          "time": 99.58139534882706,
          "velocity": 0.6929133858267716,
          "duration": 0.023255813953483084
        },
        {
          "name": "A3",
          "midi": 57,
          "time": 99.58139534882706,
          "velocity": 0.3543307086614173,
          "duration": 0.023255813953483084
        },
        {
          "name": "C3",
          "midi": 48,
          "time": 99.5930232558038,
          "velocity": 0.3937007874015748,
          "duration": 0.023255813953483084
        },
        {
          "name": "G#4",
          "midi": 68,
          "time": 99.5930232558038,
          "velocity": 0.30708661417322836,
          "duration": 0.3255813953487774
        },
        {
          "name": "G5",
          "midi": 79,
          "time": 99.5930232558038,
          "velocity": 0.07086614173228346,
          "duration": 0.0813953488371908
        },
        {
          "name": "F1",
          "midi": 29,
          "time": 99.60465116278054,
          "velocity": 0.7165354330708661,
          "duration": 0.011627906976741542
        },
        {
          "name": "G3",
          "midi": 55,
          "time": 99.60465116278054,
          "velocity": 0.5039370078740157,
          "duration": 0.4651162790696901
        },
        {
          "name": "F4",
          "midi": 65,
          "time": 99.60465116278054,
          "velocity": 0.25196850393700787,
          "duration": 0.05813953488370771
        },
        {
          "name": "A6",
          "midi": 93,
          "time": 99.60465116278054,
          "velocity": 0.11811023622047244,
          "duration": 0.05813953488370771
        },
        {
          "name": "D#1",
          "midi": 27,
          "time": 99.61627906975728,
          "velocity": 0.7480314960629921,
          "duration": 1.2441860465114019
        },
        {
          "name": "A2",
          "midi": 45,
          "time": 99.61627906975728,
          "velocity": 0.3937007874015748,
          "duration": 0.023255813953483084
        },
        {
          "name": "C#4",
          "midi": 61,
          "time": 99.62790697673402,
          "velocity": 0.23622047244094488,
          "duration": 0.04651162790696617
        },
        {
          "name": "A#2",
          "midi": 46,
          "time": 99.66279069766425,
          "velocity": 0.4330708661417323,
          "duration": 0.3023255813953085
        },
        {
          "name": "E4",
          "midi": 64,
          "time": 99.66279069766425,
          "velocity": 0.25196850393700787,
          "duration": 0.023255813953483084
        },
        {
          "name": "A#4",
          "midi": 70,
          "time": 99.70930232557122,
          "velocity": 0.11811023622047244,
          "duration": 0.034883720930224626
        },
        {
          "name": "G6",
          "midi": 91,
          "time": 99.7325581395247,
          "velocity": 0.09448818897637795,
          "duration": 0.081395348837205
        },
        {
          "name": "G5",
          "midi": 79,
          "time": 99.74418604650144,
          "velocity": 0.08661417322834646,
          "duration": 0.03488372093023884
        },
        {
          "name": "C#4",
          "midi": 61,
          "time": 99.79069767440842,
          "velocity": 0.5354330708661418,
          "duration": 0.05813953488370771
        },
        {
          "name": "A#4",
          "midi": 70,
          "time": 99.82558139533865,
          "velocity": 0.2677165354330709,
          "duration": 0.023255813953483084
        },
        {
          "name": "B4",
          "midi": 71,
          "time": 99.84883720929213,
          "velocity": 0.44881889763779526,
          "duration": 0.034883720930224626
        },
        {
          "name": "F5",
          "midi": 77,
          "time": 99.84883720929213,
          "velocity": 0.33070866141732286,
          "duration": 0.23255813953484505
        },
        {
          "name": "F#5",
          "midi": 78,
          "time": 99.84883720929213,
          "velocity": 0.25196850393700787,
          "duration": 0.023255813953483084
        },
        {
          "name": "A6",
          "midi": 93,
          "time": 99.84883720929213,
          "velocity": 0.12598425196850394,
          "duration": 0.034883720930224626
        },
        {
          "name": "F4",
          "midi": 65,
          "time": 99.86046511626887,
          "velocity": 0.10236220472440945,
          "duration": 0.034883720930224626
        },
        {
          "name": "A#5",
          "midi": 82,
          "time": 99.87209302324561,
          "velocity": 0.2047244094488189,
          "duration": 0.09302325581394655
        },
        {
          "name": "D6",
          "midi": 86,
          "time": 99.87209302324561,
          "velocity": 0.30708661417322836,
          "duration": 0.10465116279068809
        },
        {
          "name": "A#6",
          "midi": 94,
          "time": 99.87209302324561,
          "velocity": 0.3543307086614173,
          "duration": 0.09302325581394655
        },
        {
          "name": "A#4",
          "midi": 70,
          "time": 99.88372093022235,
          "velocity": 0.47244094488188976,
          "duration": 0.081395348837205
        },
        {
          "name": "G#6",
          "midi": 92,
          "time": 99.88372093022235,
          "velocity": 0.14960629921259844,
          "duration": 0.081395348837205
        },
        {
          "name": "G#4",
          "midi": 68,
          "time": 99.95348837208282,
          "velocity": 0.4094488188976378,
          "duration": 0.47674418604641744
        },
        {
          "name": "B6",
          "midi": 95,
          "time": 99.95348837208282,
          "velocity": 0.3700787401574803,
          "duration": 0.04651162790696617
        },
        {
          "name": "B4",
          "midi": 71,
          "time": 99.96511627905956,
          "velocity": 0.3228346456692913,
          "duration": 0.04651162790696617
        },
        {
          "name": "G6",
          "midi": 91,
          "time": 99.96511627905956,
          "velocity": 0.10236220472440945,
          "duration": 0.11627906976741542
        },
        {
          "name": "A6",
          "midi": 93,
          "time": 99.96511627905956,
          "velocity": 0.33858267716535434,
          "duration": 0.034883720930224626
        },
        {
          "name": "A#2",
          "midi": 46,
          "time": 99.9767441860363,
          "velocity": 0.4251968503937008,
          "duration": 0.05813953488370771
        },
        {
          "name": "C#7",
          "midi": 97,
          "time": 99.9767441860363,
          "velocity": 0.18110236220472442,
          "duration": 0.034883720930224626
        },
        {
          "name": "A#4",
          "midi": 70,
          "time": 99.99999999998978,
          "velocity": 0.29133858267716534,
          "duration": 0.023255813953483084
        },
        {
          "name": "G#6",
          "midi": 92,
          "time": 99.99999999998978,
          "velocity": 0.14173228346456693,
          "duration": 0.04651162790696617
        },
        {
          "name": "A#6",
          "midi": 94,
          "time": 99.99999999998978,
          "velocity": 0.29133858267716534,
          "duration": 0.034883720930224626
        },
        {
          "name": "C7",
          "midi": 96,
          "time": 99.99999999998978,
          "velocity": 0.29133858267716534,
          "duration": 0.04651162790696617
        },
        {
          "name": "D7",
          "midi": 98,
          "time": 99.99999999998978,
          "velocity": 0.33070866141732286,
          "duration": 0.1395348837208985
        },
        {
          "name": "B4",
          "midi": 71,
          "time": 100.02325581394327,
          "velocity": 0.4015748031496063,
          "duration": 0.23255813953483084
        },
        {
          "name": "C#7",
          "midi": 97,
          "time": 100.03488372092,
          "velocity": 0.3858267716535433,
          "duration": 0.034883720930224626
        },
        {
          "name": "A#2",
          "midi": 46,
          "time": 100.04651162789675,
          "velocity": 0.41732283464566927,
          "duration": 0.04651162790696617
        },
        {
          "name": "F7",
          "midi": 101,
          "time": 100.06976744185023,
          "velocity": 0.08661417322834646,
          "duration": 0.034883720930224626
        },
        {
          "name": "A#3",
          "midi": 58,
          "time": 100.08139534882697,
          "velocity": 0.4645669291338583,
          "duration": 0.034883720930224626
        },
        {
          "name": "A#2",
          "midi": 46,
          "time": 100.10465116278046,
          "velocity": 0.4094488188976378,
          "duration": 0.05813953488370771
        },
        {
          "name": "F5",
          "midi": 77,
          "time": 100.1162790697572,
          "velocity": 0.12598425196850394,
          "duration": 0.04651162790696617
        },
        {
          "name": "G3",
          "midi": 55,
          "time": 100.12790697673394,
          "velocity": 0.4881889763779528,
          "duration": 0.034883720930224626
        },
        {
          "name": "C#7",
          "midi": 97,
          "time": 100.13953488371068,
          "velocity": 0.2677165354330709,
          "duration": 0.05813953488370771
        },
        {
          "name": "A#5",
          "midi": 82,
          "time": 100.15116279068742,
          "velocity": 0.07874015748031496,
          "duration": 0.034883720930224626
        },
        {
          "name": "A#2",
          "midi": 46,
          "time": 100.1744186046409,
          "velocity": 0.3937007874015748,
          "duration": 0.04651162790696617
        },
        {
          "name": "G3",
          "midi": 55,
          "time": 100.18604651161765,
          "velocity": 0.3858267716535433,
          "duration": 0.23255813953484505
        },
        {
          "name": "F5",
          "midi": 77,
          "time": 100.18604651161765,
          "velocity": 0.14960629921259844,
          "duration": 0.15116279069765426
        },
        {
          "name": "A#2",
          "midi": 46,
          "time": 100.23255813952461,
          "velocity": 0.4015748031496063,
          "duration": 0.05813953488372192
        },
        {
          "name": "A#4",
          "midi": 70,
          "time": 100.2558139534781,
          "velocity": 0.25984251968503935,
          "duration": 0.04651162790698038
        },
        {
          "name": "D6",
          "midi": 86,
          "time": 100.2558139534781,
          "velocity": 0.10236220472440945,
          "duration": 0.04651162790698038
        },
        {
          "name": "A#6",
          "midi": 94,
          "time": 100.2558139534781,
          "velocity": 0.08661417322834646,
          "duration": 0.03488372093023884
        },
        {
          "name": "A#2",
          "midi": 46,
          "time": 100.30232558138508,
          "velocity": 0.33858267716535434,
          "duration": 0.023255813953483084
        },
        {
          "name": "A#2",
          "midi": 46,
          "time": 100.36046511626878,
          "velocity": 0.3543307086614173,
          "duration": 0.0813953488371908
        },
        {
          "name": "F5",
          "midi": 77,
          "time": 100.37209302324553,
          "velocity": 0.2125984251968504,
          "duration": 0.05813953488370771
        },
        {
          "name": "E4",
          "midi": 64,
          "time": 100.40697674417575,
          "velocity": 0.47244094488188976,
          "duration": 0.034883720930224626
        },
        {
          "name": "A#4",
          "midi": 70,
          "time": 100.40697674417575,
          "velocity": 0.4881889763779528,
          "duration": 0.41860465116270973
        },
        {
          "name": "D#6",
          "midi": 87,
          "time": 100.40697674417575,
          "velocity": 0.1968503937007874,
          "duration": 0.41860465116270973
        },
        {
          "name": "C7",
          "midi": 96,
          "time": 100.40697674417575,
          "velocity": 0.2440944881889764,
          "duration": 0.1627906976743816
        },
        {
          "name": "D7",
          "midi": 98,
          "time": 100.40697674417575,
          "velocity": 0.33070866141732286,
          "duration": 0.12790697674415696
        },
        {
          "name": "C4",
          "midi": 60,
          "time": 100.41860465115249,
          "velocity": 0.5196850393700787,
          "duration": 0.04651162790696617
        },
        {
          "name": "C#5",
          "midi": 73,
          "time": 100.41860465115249,
          "velocity": 0.25984251968503935,
          "duration": 0.10465116279067388
        },
        {
          "name": "F#5",
          "midi": 78,
          "time": 100.41860465115249,
          "velocity": 0.23622047244094488,
          "duration": 0.034883720930224626
        },
        {
          "name": "G3",
          "midi": 55,
          "time": 100.43023255812923,
          "velocity": 0.3700787401574803,
          "duration": 0.023255813953483084
        },
        {
          "name": "C#6",
          "midi": 85,
          "time": 100.43023255812923,
          "velocity": 0.2992125984251969,
          "duration": 0.05813953488370771
        },
        {
          "name": "E6",
          "midi": 88,
          "time": 100.44186046510598,
          "velocity": 0.2047244094488189,
          "duration": 0.034883720930224626
        },
        {
          "name": "F6",
          "midi": 89,
          "time": 100.44186046510598,
          "velocity": 0.2677165354330709,
          "duration": 0.034883720930224626
        },
        {
          "name": "A6",
          "midi": 93,
          "time": 100.44186046510598,
          "velocity": 0.29133858267716534,
          "duration": 0.034883720930224626
        },
        {
          "name": "A#6",
          "midi": 94,
          "time": 100.44186046510598,
          "velocity": 0.2992125984251969,
          "duration": 0.06976744186044925
        },
        {
          "name": "B6",
          "midi": 95,
          "time": 100.44186046510598,
          "velocity": 0.2677165354330709,
          "duration": 0.06976744186044925
        },
        {
          "name": "E7",
          "midi": 100,
          "time": 100.44186046510598,
          "velocity": 0.25196850393700787,
          "duration": 0.0813953488371908
        },
        {
          "name": "F#7",
          "midi": 102,
          "time": 100.44186046510598,
          "velocity": 0.18110236220472442,
          "duration": 0.0813953488371908
        },
        {
          "name": "G7",
          "midi": 103,
          "time": 100.44186046510598,
          "velocity": 0.1889763779527559,
          "duration": 0.06976744186044925
        },
        {
          "name": "G#4",
          "midi": 68,
          "time": 100.45348837208272,
          "velocity": 0.2992125984251969,
          "duration": 0.18604651162786467
        },
        {
          "name": "F5",
          "midi": 77,
          "time": 100.45348837208272,
          "velocity": 0.12598425196850394,
          "duration": 0.05813953488370771
        },
        {
          "name": "F#6",
          "midi": 90,
          "time": 100.45348837208272,
          "velocity": 0.1968503937007874,
          "duration": 0.04651162790696617
        },
        {
          "name": "D#7",
          "midi": 99,
          "time": 100.45348837208272,
          "velocity": 0.3937007874015748,
          "duration": 0.24418604651157239
        },
        {
          "name": "C#4",
          "midi": 61,
          "time": 100.46511627905946,
          "velocity": 0.5196850393700787,
          "duration": 0.04651162790696617
        },
        {
          "name": "G#6",
          "midi": 92,
          "time": 100.4767441860362,
          "velocity": 0.30708661417322836,
          "duration": 0.034883720930224626
        },
        {
          "name": "A#2",
          "midi": 46,
          "time": 100.48837209301294,
          "velocity": 0.33070866141732286,
          "duration": 0.034883720930224626
        },
        {
          "name": "G3",
          "midi": 55,
          "time": 100.48837209301294,
          "velocity": 0.31496062992125984,
          "duration": 0.04651162790696617
        },
        {
          "name": "B3",
          "midi": 59,
          "time": 100.52325581394317,
          "velocity": 0.49606299212598426,
          "duration": 0.05813953488370771
        },
        {
          "name": "A6",
          "midi": 93,
          "time": 100.54651162789665,
          "velocity": 0.33858267716535434,
          "duration": 0.11627906976741542
        },
        {
          "name": "F#5",
          "midi": 78,
          "time": 100.55813953487339,
          "velocity": 0.48031496062992124,
          "duration": 0.15116279069764005
        },
        {
          "name": "B5",
          "midi": 83,
          "time": 100.55813953487339,
          "velocity": 0.1889763779527559,
          "duration": 0.04651162790696617
        },
        {
          "name": "E7",
          "midi": 100,
          "time": 100.55813953487339,
          "velocity": 0.1968503937007874,
          "duration": 0.05813953488370771
        },
        {
          "name": "D#3",
          "midi": 51,
          "time": 100.56976744185013,
          "velocity": 0.31496062992125984,
          "duration": 0.3023255813952943
        },
        {
          "name": "B6",
          "midi": 95,
          "time": 100.56976744185013,
          "velocity": 0.2440944881889764,
          "duration": 0.12790697674415696
        },
        {
          "name": "C#7",
          "midi": 97,
          "time": 100.56976744185013,
          "velocity": 0.2047244094488189,
          "duration": 0.12790697674415696
        },
        {
          "name": "F#7",
          "midi": 102,
          "time": 100.56976744185013,
          "velocity": 0.14960629921259844,
          "duration": 0.05813953488370771
        },
        {
          "name": "A#3",
          "midi": 58,
          "time": 100.60465116278036,
          "velocity": 0.3543307086614173,
          "duration": 0.20930232558136197
        },
        {
          "name": "G#4",
          "midi": 68,
          "time": 100.65116279068732,
          "velocity": 0.29133858267716534,
          "duration": 0.023255813953483084
        },
        {
          "name": "C7",
          "midi": 96,
          "time": 100.65116279068732,
          "velocity": 0.23622047244094488,
          "duration": 0.05813953488370771
        },
        {
          "name": "G#4",
          "midi": 68,
          "time": 100.70930232557103,
          "velocity": 0.30708661417322836,
          "duration": 0.15116279069765426
        },
        {
          "name": "F5",
          "midi": 77,
          "time": 100.70930232557103,
          "velocity": 0.18110236220472442,
          "duration": 0.13953488372091272
        },
        {
          "name": "C7",
          "midi": 96,
          "time": 100.79069767440824,
          "velocity": 0.28346456692913385,
          "duration": 0.06976744186044925
        },
        {
          "name": "G7",
          "midi": 103,
          "time": 100.79069767440824,
          "velocity": 0.12598425196850394,
          "duration": 0.04651162790696617
        },
        {
          "name": "C#7",
          "midi": 97,
          "time": 100.81395348836172,
          "velocity": 0.2204724409448819,
          "duration": 0.06976744186044925
        },
        {
          "name": "A#3",
          "midi": 58,
          "time": 100.82558139533846,
          "velocity": 0.4645669291338583,
          "duration": 0.023255813953483084
        },
        {
          "name": "B6",
          "midi": 95,
          "time": 100.82558139533846,
          "velocity": 0.15748031496062992,
          "duration": 0.10465116279067388
        },
        {
          "name": "D#6",
          "midi": 87,
          "time": 100.8372093023152,
          "velocity": 0.4015748031496063,
          "duration": 0.3837209302324709
        },
        {
          "name": "A#6",
          "midi": 94,
          "time": 100.8372093023152,
          "velocity": 0.33858267716535434,
          "duration": 0.1395348837208985
        },
        {
          "name": "B3",
          "midi": 59,
          "time": 100.84883720929194,
          "velocity": 0.4094488188976378,
          "duration": 0.034883720930224626
        },
        {
          "name": "F#5",
          "midi": 78,
          "time": 100.84883720929194,
          "velocity": 0.25196850393700787,
          "duration": 0.05813953488370771
        },
        {
          "name": "A#5",
          "midi": 82,
          "time": 100.84883720929194,
          "velocity": 0.4015748031496063,
          "duration": 0.20930232558134776
        },
        {
          "name": "G6",
          "midi": 91,
          "time": 100.84883720929194,
          "velocity": 0.2677165354330709,
          "duration": 0.12790697674415696
        },
        {
          "name": "C#1",
          "midi": 25,
          "time": 100.86046511626868,
          "velocity": 0.5196850393700787,
          "duration": 0.011627906976741542
        },
        {
          "name": "G#2",
          "midi": 44,
          "time": 100.86046511626868,
          "velocity": 0.4251968503937008,
          "duration": 0.023255813953483084
        },
        {
          "name": "F#4",
          "midi": 66,
          "time": 100.86046511626868,
          "velocity": 0.13385826771653545,
          "duration": 0.034883720930224626
        },
        {
          "name": "B4",
          "midi": 71,
          "time": 100.86046511626868,
          "velocity": 0.4566929133858268,
          "duration": 0.05813953488370771
        },
        {
          "name": "F5",
          "midi": 77,
          "time": 100.86046511626868,
          "velocity": 0.29133858267716534,
          "duration": 0.18604651162786467
        },
        {
          "name": "B0",
          "midi": 23,
          "time": 100.87209302324543,
          "velocity": 0.6062992125984252,
          "duration": 0.011627906976741542
        },
        {
          "name": "F6",
          "midi": 89,
          "time": 100.87209302324543,
          "velocity": 0.4251968503937008,
          "duration": 1.395348837208985
        },
        {
          "name": "A6",
          "midi": 93,
          "time": 100.87209302324543,
          "velocity": 0.07086614173228346,
          "duration": 0.06976744186044925
        },
        {
          "name": "D1",
          "midi": 26,
          "time": 100.88372093022217,
          "velocity": 0.6771653543307087,
          "duration": 0.011627906976741542
        },
        {
          "name": "D#4",
          "midi": 63,
          "time": 100.88372093022217,
          "velocity": 0.33858267716535434,
          "duration": 0.47674418604640323
        },
        {
          "name": "C#1",
          "midi": 25,
          "time": 100.89534883719891,
          "velocity": 0.7007874015748031,
          "duration": 0.011627906976741542
        },
        {
          "name": "B3",
          "midi": 59,
          "time": 100.89534883719891,
          "velocity": 0.3228346456692913,
          "duration": 0.023255813953483084
        },
        {
          "name": "B0",
          "midi": 23,
          "time": 100.90697674417565,
          "velocity": 0.7165354330708661,
          "duration": 0.04651162790696617
        },
        {
          "name": "F#4",
          "midi": 66,
          "time": 100.90697674417565,
          "velocity": 0.2125984251968504,
          "duration": 0.20930232558134776
        },
        {
          "name": "C#5",
          "midi": 73,
          "time": 100.90697674417565,
          "velocity": 0.18110236220472442,
          "duration": 0.12790697674415696
        },
        {
          "name": "A#3",
          "midi": 58,
          "time": 100.91860465115239,
          "velocity": 0.3700787401574803,
          "duration": 0.023255813953483084
        },
        {
          "name": "A#4",
          "midi": 70,
          "time": 100.91860465115239,
          "velocity": 0.4881889763779528,
          "duration": 0.12790697674415696
        },
        {
          "name": "G#6",
          "midi": 92,
          "time": 100.91860465115239,
          "velocity": 0.13385826771653545,
          "duration": 0.04651162790696617
        },
        {
          "name": "C7",
          "midi": 96,
          "time": 100.91860465115239,
          "velocity": 0.1968503937007874,
          "duration": 0.04651162790696617
        },
        {
          "name": "D#3",
          "midi": 51,
          "time": 100.93023255812913,
          "velocity": 0.5511811023622047,
          "duration": 0.1395348837208985
        },
        {
          "name": "D7",
          "midi": 98,
          "time": 100.93023255812913,
          "velocity": 0.14960629921259844,
          "duration": 0.05813953488370771
        },
        {
          "name": "A#0",
          "midi": 22,
          "time": 100.95348837208262,
          "velocity": 0.7165354330708661,
          "duration": 0.011627906976741542
        },
        {
          "name": "B0",
          "midi": 23,
          "time": 100.96511627905936,
          "velocity": 0.7322834645669292,
          "duration": 0.09302325581393234
        },
        {
          "name": "A#3",
          "midi": 58,
          "time": 100.9767441860361,
          "velocity": 0.4566929133858268,
          "duration": 0.06976744186044925
        },
        {
          "name": "G6",
          "midi": 91,
          "time": 100.99999999998958,
          "velocity": 0.16535433070866143,
          "duration": 0.12790697674415696
        },
        {
          "name": "F#2",
          "midi": 42,
          "time": 101.01162790696632,
          "velocity": 0.4409448818897638,
          "duration": 0.023255813953483084
        },
        {
          "name": "B4",
          "midi": 71,
          "time": 101.03488372091981,
          "velocity": 0.3700787401574803,
          "duration": 0.023255813953483084
        },
        {
          "name": "F#5",
          "midi": 78,
          "time": 101.03488372091981,
          "velocity": 0.4094488188976378,
          "duration": 0.06976744186044925
        },
        {
          "name": "A6",
          "midi": 93,
          "time": 101.03488372091981,
          "velocity": 0.28346456692913385,
          "duration": 0.04651162790696617
        },
        {
          "name": "B3",
          "midi": 59,
          "time": 101.04651162789655,
          "velocity": 0.3937007874015748,
          "duration": 0.04651162790696617
        },
        {
          "name": "B6",
          "midi": 95,
          "time": 101.04651162789655,
          "velocity": 0.2755905511811024,
          "duration": 0.24418604651157239
        },
        {
          "name": "E7",
          "midi": 100,
          "time": 101.04651162789655,
          "velocity": 0.10236220472440945,
          "duration": 0.034883720930224626
        },
        {
          "name": "C1",
          "midi": 24,
          "time": 101.05813953487329,
          "velocity": 0.7244094488188977,
          "duration": 0.011627906976741542
        },
        {
          "name": "A#4",
          "midi": 70,
          "time": 101.05813953487329,
          "velocity": 0.3937007874015748,
          "duration": 0.1627906976743816
        },
        {
          "name": "C#7",
          "midi": 97,
          "time": 101.05813953487329,
          "velocity": 0.09448818897637795,
          "duration": 0.034883720930224626
        },
        {
          "name": "A#0",
          "midi": 22,
          "time": 101.06976744185003,
          "velocity": 0.7244094488188977,
          "duration": 0.023255813953483084
        },
        {
          "name": "D3",
          "midi": 50,
          "time": 101.06976744185003,
          "velocity": 0.5275590551181102,
          "duration": 0.011627906976741542
        },
        {
          "name": "D#3",
          "midi": 51,
          "time": 101.08139534882677,
          "velocity": 0.5354330708661418,
          "duration": 0.023255813953483084
        },
        {
          "name": "C1",
          "midi": 24,
          "time": 101.09302325580352,
          "velocity": 0.7244094488188977,
          "duration": 0.011627906976741542
        },
        {
          "name": "F5",
          "midi": 77,
          "time": 101.09302325580352,
          "velocity": 0.2755905511811024,
          "duration": 0.10465116279067388
        },
        {
          "name": "A5",
          "midi": 81,
          "time": 101.09302325580352,
          "velocity": 0.07086614173228346,
          "duration": 0.04651162790696617
        },
        {
          "name": "B0",
          "midi": 23,
          "time": 101.10465116278026,
          "velocity": 0.7244094488188977,
          "duration": 0.4999999999998863
        },
        {
          "name": "C#5",
          "midi": 73,
          "time": 101.10465116278026,
          "velocity": 0.12598425196850394,
          "duration": 0.09302325581393234
        },
        {
          "name": "C7",
          "midi": 96,
          "time": 101.10465116278026,
          "velocity": 0.28346456692913385,
          "duration": 0.11627906976741542
        },
        {
          "name": "E7",
          "midi": 100,
          "time": 101.10465116278026,
          "velocity": 0.12598425196850394,
          "duration": 0.10465116279067388
        },
        {
          "name": "D#3",
          "midi": 51,
          "time": 101.116279069757,
          "velocity": 0.5511811023622047,
          "duration": 0.023255813953483084
        },
        {
          "name": "A#3",
          "midi": 58,
          "time": 101.116279069757,
          "velocity": 0.47244094488188976,
          "duration": 0.09302325581393234
        },
        {
          "name": "G#6",
          "midi": 92,
          "time": 101.116279069757,
          "velocity": 0.13385826771653545,
          "duration": 0.034883720930224626
        },
        {
          "name": "F#4",
          "midi": 66,
          "time": 101.12790697673374,
          "velocity": 0.15748031496062992,
          "duration": 0.18604651162786467
        },
        {
          "name": "C#7",
          "midi": 97,
          "time": 101.12790697673374,
          "velocity": 0.16535433070866143,
          "duration": 0.15116279069764005
        },
        {
          "name": "D#3",
          "midi": 51,
          "time": 101.15116279068722,
          "velocity": 0.5118110236220472,
          "duration": 0.023255813953483084
        },
        {
          "name": "D7",
          "midi": 98,
          "time": 101.15116279068722,
          "velocity": 0.12598425196850394,
          "duration": 0.0813953488371908
        },
        {
          "name": "F#5",
          "midi": 78,
          "time": 101.19767441859419,
          "velocity": 0.3779527559055118,
          "duration": 0.09302325581393234
        },
        {
          "name": "B3",
          "midi": 59,
          "time": 101.20930232557093,
          "velocity": 0.4330708661417323,
          "duration": 0.0813953488371908
        },
        {
          "name": "B5",
          "midi": 83,
          "time": 101.20930232557093,
          "velocity": 0.1889763779527559,
          "duration": 0.06976744186044925
        },
        {
          "name": "D#3",
          "midi": 51,
          "time": 101.22093023254767,
          "velocity": 0.5039370078740157,
          "duration": 0.04651162790696617
        },
        {
          "name": "C#5",
          "midi": 73,
          "time": 101.22093023254767,
          "velocity": 0.13385826771653545,
          "duration": 0.04651162790696617
        },
        {
          "name": "G6",
          "midi": 91,
          "time": 101.23255813952441,
          "velocity": 0.15748031496062992,
          "duration": 0.05813953488370771
        },
        {
          "name": "A6",
          "midi": 93,
          "time": 101.23255813952441,
          "velocity": 0.1732283464566929,
          "duration": 0.05813953488370771
        },
        {
          "name": "D#6",
          "midi": 87,
          "time": 101.24418604650116,
          "velocity": 0.2283464566929134,
          "duration": 0.4651162790696617
        },
        {
          "name": "A#4",
          "midi": 70,
          "time": 101.26744186045464,
          "velocity": 0.4330708661417323,
          "duration": 0.1395348837208985
        },
        {
          "name": "D#3",
          "midi": 51,
          "time": 101.27906976743138,
          "velocity": 0.4881889763779528,
          "duration": 0.023255813953483084
        },
        {
          "name": "C#5",
          "midi": 73,
          "time": 101.27906976743138,
          "velocity": 0.13385826771653545,
          "duration": 0.12790697674415696
        },
        {
          "name": "G#6",
          "midi": 92,
          "time": 101.27906976743138,
          "velocity": 0.11811023622047244,
          "duration": 0.04651162790696617
        },
        {
          "name": "A#6",
          "midi": 94,
          "time": 101.27906976743138,
          "velocity": 0.33070866141732286,
          "duration": 0.05813953488370771
        },
        {
          "name": "F5",
          "midi": 77,
          "time": 101.29069767440812,
          "velocity": 0.3779527559055118,
          "duration": 0.023255813953483084
        },
        {
          "name": "C7",
          "midi": 96,
          "time": 101.29069767440812,
          "velocity": 0.11023622047244094,
          "duration": 0.034883720930224626
        },
        {
          "name": "G6",
          "midi": 91,
          "time": 101.30232558138486,
          "velocity": 0.1889763779527559,
          "duration": 0.04651162790696617
        },
        {
          "name": "D#3",
          "midi": 51,
          "time": 101.3139534883616,
          "velocity": 0.4881889763779528,
          "duration": 0.023255813953483084
        },
        {
          "name": "E5",
          "midi": 76,
          "time": 101.3139534883616,
          "velocity": 0.28346456692913385,
          "duration": 0.034883720930224626
        },
        {
          "name": "F#2",
          "midi": 42,
          "time": 101.33720930231509,
          "velocity": 0.44881889763779526,
          "duration": 0.023255813953483084
        },
        {
          "name": "C6",
          "midi": 84,
          "time": 101.36046511626857,
          "velocity": 0.11023622047244094,
          "duration": 0.15116279069764005
        },
        {
          "name": "F4",
          "midi": 65,
          "time": 101.37209302324531,
          "velocity": 0.31496062992125984,
          "duration": 0.034883720930224626
        },
        {
          "name": "D#5",
          "midi": 75,
          "time": 101.37209302324531,
          "velocity": 0.16535433070866143,
          "duration": 0.11627906976741542
        },
        {
          "name": "G6",
          "midi": 91,
          "time": 101.37209302324531,
          "velocity": 0.12598425196850394,
          "duration": 0.04651162790696617
        },
        {
          "name": "F#2",
          "midi": 42,
          "time": 101.38372093022205,
          "velocity": 0.4330708661417323,
          "duration": 0.023255813953483084
        },
        {
          "name": "F#5",
          "midi": 78,
          "time": 101.38372093022205,
          "velocity": 0.14173228346456693,
          "duration": 0.034883720930224626
        },
        {
          "name": "D#3",
          "midi": 51,
          "time": 101.3953488371988,
          "velocity": 0.47244094488188976,
          "duration": 0.034883720930224626
        },
        {
          "name": "A#3",
          "midi": 58,
          "time": 101.3953488371988,
          "velocity": 0.4330708661417323,
          "duration": 0.11627906976741542
        },
        {
          "name": "F5",
          "midi": 77,
          "time": 101.3953488371988,
          "velocity": 0.4566929133858268,
          "duration": 0.10465116279067388
        },
        {
          "name": "B4",
          "midi": 71,
          "time": 101.40697674417554,
          "velocity": 0.2992125984251969,
          "duration": 0.023255813953483084
        },
        {
          "name": "D6",
          "midi": 86,
          "time": 101.40697674417554,
          "velocity": 0.29133858267716534,
          "duration": 0.09302325581393234
        },
        {
          "name": "E6",
          "midi": 88,
          "time": 101.40697674417554,
          "velocity": 0.2440944881889764,
          "duration": 0.05813953488370771
        },
        {
          "name": "F#2",
          "midi": 42,
          "time": 101.41860465115228,
          "velocity": 0.44881889763779526,
          "duration": 0.023255813953483084
        },
        {
          "name": "C#5",
          "midi": 73,
          "time": 101.41860465115228,
          "velocity": 0.2125984251968504,
          "duration": 0.10465116279067388
        },
        {
          "name": "D#4",
          "midi": 63,
          "time": 101.43023255812902,
          "velocity": 0.3779527559055118,
          "duration": 0.24418604651157239
        },
        {
          "name": "D#3",
          "midi": 51,
          "time": 101.44186046510576,
          "velocity": 0.44881889763779526,
          "duration": 0.023255813953483084
        },
        {
          "name": "F#2",
          "midi": 42,
          "time": 101.4534883720825,
          "velocity": 0.44881889763779526,
          "duration": 0.034883720930224626
        },
        {
          "name": "G6",
          "midi": 91,
          "time": 101.4534883720825,
          "velocity": 0.08661417322834646,
          "duration": 0.034883720930224626
        },
        {
          "name": "A4",
          "midi": 69,
          "time": 101.49999999998947,
          "velocity": 0.25984251968503935,
          "duration": 0.023255813953483084
        },
        {
          "name": "G2",
          "midi": 43,
          "time": 101.51162790696621,
          "velocity": 0.4251968503937008,
          "duration": 0.023255813953483084
        },
        {
          "name": "A6",
          "midi": 93,
          "time": 101.51162790696621,
          "velocity": 0.28346456692913385,
          "duration": 0.0813953488371908
        },
        {
          "name": "B6",
          "midi": 95,
          "time": 101.51162790696621,
          "velocity": 0.2677165354330709,
          "duration": 0.034883720930224626
        },
        {
          "name": "C7",
          "midi": 96,
          "time": 101.51162790696621,
          "velocity": 0.28346456692913385,
          "duration": 0.09302325581393234
        },
        {
          "name": "D7",
          "midi": 98,
          "time": 101.51162790696621,
          "velocity": 0.33070866141732286,
          "duration": 0.10465116279067388
        },
        {
          "name": "E7",
          "midi": 100,
          "time": 101.51162790696621,
          "velocity": 0.1968503937007874,
          "duration": 0.0813953488371908
        },
        {
          "name": "A#4",
          "midi": 70,
          "time": 101.52325581394295,
          "velocity": 0.29133858267716534,
          "duration": 0.1627906976743816
        },
        {
          "name": "C6",
          "midi": 84,
          "time": 101.52325581394295,
          "velocity": 0.11023622047244094,
          "duration": 0.04651162790696617
        },
        {
          "name": "D6",
          "midi": 86,
          "time": 101.52325581394295,
          "velocity": 0.16535433070866143,
          "duration": 0.034883720930224626
        },
        {
          "name": "F#6",
          "midi": 90,
          "time": 101.52325581394295,
          "velocity": 0.18110236220472442,
          "duration": 0.04651162790696617
        },
        {
          "name": "C#7",
          "midi": 97,
          "time": 101.52325581394295,
          "velocity": 0.28346456692913385,
          "duration": 0.05813953488370771
        },
        {
          "name": "D#7",
          "midi": 99,
          "time": 101.52325581394295,
          "velocity": 0.2992125984251969,
          "duration": 0.0813953488371908
        },
        {
          "name": "G7",
          "midi": 103,
          "time": 101.52325581394295,
          "velocity": 0.2047244094488189,
          "duration": 0.034883720930224626
        },
        {
          "name": "F#2",
          "midi": 42,
          "time": 101.54651162789644,
          "velocity": 0.4409448818897638,
          "duration": 0.023255813953483084
        },
        {
          "name": "C#5",
          "midi": 73,
          "time": 101.54651162789644,
          "velocity": 0.11023622047244094,
          "duration": 0.12790697674415696
        },
        {
          "name": "G#6",
          "midi": 92,
          "time": 101.55813953487318,
          "velocity": 0.1732283464566929,
          "duration": 0.04651162790696617
        },
        {
          "name": "C6",
          "midi": 84,
          "time": 101.58139534882666,
          "velocity": 0.11023622047244094,
          "duration": 0.1395348837208985
        },
        {
          "name": "A#0",
          "midi": 22,
          "time": 101.60465116278014,
          "velocity": 0.6771653543307087,
          "duration": 0.011627906976741542
        },
        {
          "name": "G6",
          "midi": 91,
          "time": 101.60465116278014,
          "velocity": 0.07874015748031496,
          "duration": 0.05813953488370771
        },
        {
          "name": "B0",
          "midi": 23,
          "time": 101.61627906975689,
          "velocity": 0.6850393700787402,
          "duration": 0.5697674418603356
        },
        {
          "name": "F#2",
          "midi": 42,
          "time": 101.61627906975689,
          "velocity": 0.41732283464566927,
          "duration": 0.023255813953483084
        },
        {
          "name": "F5",
          "midi": 77,
          "time": 101.62790697673363,
          "velocity": 0.10236220472440945,
          "duration": 0.05813953488370771
        },
        {
          "name": "F#2",
          "midi": 42,
          "time": 101.66279069766385,
          "velocity": 0.4015748031496063,
          "duration": 0.023255813953483084
        },
        {
          "name": "B3",
          "midi": 59,
          "time": 101.66279069766385,
          "velocity": 0.3464566929133858,
          "duration": 0.023255813953483084
        },
        {
          "name": "F4",
          "midi": 65,
          "time": 101.66279069766385,
          "velocity": 0.29133858267716534,
          "duration": 0.034883720930224626
        },
        {
          "name": "B4",
          "midi": 71,
          "time": 101.67441860464059,
          "velocity": 0.5354330708661418,
          "duration": 0.06976744186044925
        },
        {
          "name": "A6",
          "midi": 93,
          "time": 101.67441860464059,
          "velocity": 0.16535433070866143,
          "duration": 0.04651162790696617
        },
        {
          "name": "F#5",
          "midi": 78,
          "time": 101.68604651161733,
          "velocity": 0.23622047244094488,
          "duration": 0.04651162790696617
        },
        {
          "name": "A#5",
          "midi": 82,
          "time": 101.68604651161733,
          "velocity": 0.1732283464566929,
          "duration": 0.034883720930224626
        },
        {
          "name": "B3",
          "midi": 59,
          "time": 101.69767441859408,
          "velocity": 0.33070866141732286,
          "duration": 0.04651162790696617
        },
        {
          "name": "B6",
          "midi": 95,
          "time": 101.69767441859408,
          "velocity": 0.13385826771653545,
          "duration": 0.034883720930224626
        },
        {
          "name": "C#7",
          "midi": 97,
          "time": 101.69767441859408,
          "velocity": 0.12598425196850394,
          "duration": 0.034883720930224626
        },
        {
          "name": "F#2",
          "midi": 42,
          "time": 101.70930232557082,
          "velocity": 0.3937007874015748,
          "duration": 0.023255813953483084
        },
        {
          "name": "D#4",
          "midi": 63,
          "time": 101.70930232557082,
          "velocity": 0.2755905511811024,
          "duration": 0.04651162790696617
        },
        {
          "name": "F4",
          "midi": 65,
          "time": 101.70930232557082,
          "velocity": 0.2755905511811024,
          "duration": 0.023255813953483084
        },
        {
          "name": "G#6",
          "midi": 92,
          "time": 101.72093023254756,
          "velocity": 0.3464566929133858,
          "duration": 0.06976744186044925
        },
        {
          "name": "F5",
          "midi": 77,
          "time": 101.7325581395243,
          "velocity": 0.33070866141732286,
          "duration": 0.0813953488371908
        },
        {
          "name": "D#3",
          "midi": 51,
          "time": 101.74418604650104,
          "velocity": 0.3779527559055118,
          "duration": 0.023255813953483084
        },
        {
          "name": "A#4",
          "midi": 70,
          "time": 101.74418604650104,
          "velocity": 0.41732283464566927,
          "duration": 0.26744186046505547
        },
        {
          "name": "D7",
          "midi": 98,
          "time": 101.74418604650104,
          "velocity": 0.15748031496062992,
          "duration": 0.05813953488370771
        },
        {
          "name": "A#3",
          "midi": 58,
          "time": 101.75581395347778,
          "velocity": 0.4251968503937008,
          "duration": 0.11627906976741542
        },
        {
          "name": "C#5",
          "midi": 73,
          "time": 101.75581395347778,
          "velocity": 0.11811023622047244,
          "duration": 0.2558139534883139
        },
        {
          "name": "D#4",
          "midi": 63,
          "time": 101.76744186045453,
          "velocity": 0.2992125984251969,
          "duration": 0.39534883720921243
        },
        {
          "name": "D6",
          "midi": 86,
          "time": 101.76744186045453,
          "velocity": 0.4330708661417323,
          "duration": 0.18604651162786467
        },
        {
          "name": "D#3",
          "midi": 51,
          "time": 101.77906976743127,
          "velocity": 0.3858267716535433,
          "duration": 0.023255813953483084
        },
        {
          "name": "F#4",
          "midi": 66,
          "time": 101.77906976743127,
          "velocity": 0.3228346456692913,
          "duration": 0.39534883720921243
        },
        {
          "name": "F#2",
          "midi": 42,
          "time": 101.82558139533823,
          "velocity": 0.3543307086614173,
          "duration": 0.023255813953483084
        },
        {
          "name": "F5",
          "midi": 77,
          "time": 101.83720930231497,
          "velocity": 0.44881889763779526,
          "duration": 0.17441860465112313
        },
        {
          "name": "G6",
          "midi": 91,
          "time": 101.86046511626846,
          "velocity": 0.07874015748031496,
          "duration": 0.034883720930224626
        },
        {
          "name": "G2",
          "midi": 43,
          "time": 101.8720930232452,
          "velocity": 0.3543307086614173,
          "duration": 0.023255813953483084
        },
        {
          "name": "G#6",
          "midi": 92,
          "time": 101.8720930232452,
          "velocity": 0.33070866141732286,
          "duration": 0.10465116279067388
        },
        {
          "name": "G2",
          "midi": 43,
          "time": 101.90697674417542,
          "velocity": 0.3700787401574803,
          "duration": 0.023255813953483084
        },
        {
          "name": "D#3",
          "midi": 51,
          "time": 101.90697674417542,
          "velocity": 0.33858267716535434,
          "duration": 0.023255813953483084
        },
        {
          "name": "F#3",
          "midi": 54,
          "time": 101.90697674417542,
          "velocity": 0.28346456692913385,
          "duration": 0.023255813953483084
        },
        {
          "name": "A#3",
          "midi": 58,
          "time": 101.90697674417542,
          "velocity": 0.1968503937007874,
          "duration": 0.04651162790696617
        },
        {
          "name": "C7",
          "midi": 96,
          "time": 101.91860465115217,
          "velocity": 0.11811023622047244,
          "duration": 0.04651162790696617
        },
        {
          "name": "D#3",
          "midi": 51,
          "time": 101.94186046510565,
          "velocity": 0.3543307086614173,
          "duration": 0.023255813953483084
        },
        {
          "name": "C#7",
          "midi": 97,
          "time": 101.95348837208239,
          "velocity": 0.33858267716535434,
          "duration": 0.1627906976743816
        },
        {
          "name": "B3",
          "midi": 59,
          "time": 101.97674418603587,
          "velocity": 0.29133858267716534,
          "duration": 0.11627906976741542
        },
        {
          "name": "B6",
          "midi": 95,
          "time": 101.98837209301261,
          "velocity": 0.1889763779527559,
          "duration": 0.10465116279067388
        },
        {
          "name": "D#7",
          "midi": 99,
          "time": 101.98837209301261,
          "velocity": 0.2125984251968504,
          "duration": 0.10465116279067388
        },
        {
          "name": "B4",
          "midi": 71,
          "time": 102.0116279069661,
          "velocity": 0.4015748031496063,
          "duration": 0.06976744186044925
        },
        {
          "name": "A#5",
          "midi": 82,
          "time": 102.0116279069661,
          "velocity": 0.2283464566929134,
          "duration": 0.10465116279067388
        },
        {
          "name": "C#5",
          "midi": 73,
          "time": 102.02325581394284,
          "velocity": 0.11811023622047244,
          "duration": 0.15116279069764005
        },
        {
          "name": "F#3",
          "midi": 54,
          "time": 102.03488372091958,
          "velocity": 0.2755905511811024,
          "duration": 0.023255813953483084
        },
        {
          "name": "F#3",
          "midi": 54,
          "time": 102.0697674418498,
          "velocity": 0.28346456692913385,
          "duration": 0.023255813953483084
        },
        {
          "name": "A#4",
          "midi": 70,
          "time": 102.08139534882655,
          "velocity": 0.4645669291338583,
          "duration": 0.25581395348832814
        },
        {
          "name": "A#6",
          "midi": 94,
          "time": 102.08139534882655,
          "velocity": 0.3464566929133858,
          "duration": 0.15116279069764005
        },
        {
          "name": "C7",
          "midi": 96,
          "time": 102.08139534882655,
          "velocity": 0.3937007874015748,
          "duration": 0.1627906976743816
        },
        {
          "name": "D7",
          "midi": 98,
          "time": 102.08139534882655,
          "velocity": 0.4015748031496063,
          "duration": 0.20930232558134776
        },
        {
          "name": "F5",
          "midi": 77,
          "time": 102.09302325580329,
          "velocity": 0.3228346456692913,
          "duration": 0.2674418604650697
        },
        {
          "name": "A#3",
          "midi": 58,
          "time": 102.11627906975677,
          "velocity": 0.25984251968503935,
          "duration": 0.034883720930224626
        },
        {
          "name": "G#6",
          "midi": 92,
          "time": 102.12790697673351,
          "velocity": 0.30708661417322836,
          "duration": 0.09302325581393234
        },
        {
          "name": "E7",
          "midi": 100,
          "time": 102.12790697673351,
          "velocity": 0.2677165354330709,
          "duration": 0.10465116279067388
        },
        {
          "name": "F#7",
          "midi": 102,
          "time": 102.13953488371025,
          "velocity": 0.2204724409448819,
          "duration": 0.11627906976741542
        },
        {
          "name": "A5",
          "midi": 81,
          "time": 102.151162790687,
          "velocity": 0.11811023622047244,
          "duration": 0.05813953488370771
        },
        {
          "name": "B6",
          "midi": 95,
          "time": 102.151162790687,
          "velocity": 0.2755905511811024,
          "duration": 0.05813953488370771
        },
        {
          "name": "E3",
          "midi": 52,
          "time": 102.16279069766374,
          "velocity": 0.36220472440944884,
          "duration": 0.023255813953483084
        },
        {
          "name": "D#6",
          "midi": 87,
          "time": 102.16279069766374,
          "velocity": 0.15748031496062992,
          "duration": 0.18604651162787889
        },
        {
          "name": "E6",
          "midi": 88,
          "time": 102.16279069766374,
          "velocity": 0.13385826771653545,
          "duration": 0.034883720930224626
        },
        {
          "name": "F#6",
          "midi": 90,
          "time": 102.16279069766374,
          "velocity": 0.18110236220472442,
          "duration": 0.034883720930224626
        },
        {
          "name": "A6",
          "midi": 93,
          "time": 102.16279069766374,
          "velocity": 0.30708661417322836,
          "duration": 0.04651162790696617
        },
        {
          "name": "C#7",
          "midi": 97,
          "time": 102.16279069766374,
          "velocity": 0.28346456692913385,
          "duration": 0.06976744186044925
        },
        {
          "name": "D#7",
          "midi": 99,
          "time": 102.16279069766374,
          "velocity": 0.36220472440944884,
          "duration": 0.05813953488370771
        },
        {
          "name": "A#3",
          "midi": 58,
          "time": 102.17441860464048,
          "velocity": 0.3464566929133858,
          "duration": 0.2209302325581035
        },
        {
          "name": "A#0",
          "midi": 22,
          "time": 102.18604651161722,
          "velocity": 0.5748031496062992,
          "duration": 0.011627906976741542
        },
        {
          "name": "F3",
          "midi": 53,
          "time": 102.18604651161722,
          "velocity": 0.33858267716535434,
          "duration": 0.17441860465113734
        },
        {
          "name": "F#4",
          "midi": 66,
          "time": 102.18604651161722,
          "velocity": 0.2677165354330709,
          "duration": 0.023255813953483084
        },
        {
          "name": "B0",
          "midi": 23,
          "time": 102.19767441859396,
          "velocity": 0.5826771653543307,
          "duration": 0.37209302325574356
        },
        {
          "name": "C5",
          "midi": 72,
          "time": 102.19767441859396,
          "velocity": 0.13385826771653545,
          "duration": 0.05813953488370771
        },
        {
          "name": "D6",
          "midi": 86,
          "time": 102.19767441859396,
          "velocity": 0.4251968503937008,
          "duration": 0.12790697674417117
        },
        {
          "name": "G#4",
          "midi": 68,
          "time": 102.22093023254745,
          "velocity": 0.3464566929133858,
          "duration": 0.360465116279002
        },
        {
          "name": "C5",
          "midi": 72,
          "time": 102.27906976743115,
          "velocity": 0.12598425196850394,
          "duration": 0.05813953488372192
        },
        {
          "name": "D#6",
          "midi": 87,
          "time": 102.36046511626836,
          "velocity": 0.3464566929133858,
          "duration": 0.34883720930224626
        },
        {
          "name": "G3",
          "midi": 55,
          "time": 102.3720930232451,
          "velocity": 0.33070866141732286,
          "duration": 0.023255813953483084
        },
        {
          "name": "C#5",
          "midi": 73,
          "time": 102.3720930232451,
          "velocity": 0.12598425196850394,
          "duration": 0.23255813953483084
        },
        {
          "name": "F#3",
          "midi": 54,
          "time": 102.39534883719858,
          "velocity": 0.3543307086614173,
          "duration": 0.1395348837208985
        },
        {
          "name": "B3",
          "midi": 59,
          "time": 102.39534883719858,
          "velocity": 0.3464566929133858,
          "duration": 0.034883720930224626
        },
        {
          "name": "A#5",
          "midi": 82,
          "time": 102.40697674417532,
          "velocity": 0.08661417322834646,
          "duration": 0.034883720930224626
        },
        {
          "name": "C7",
          "midi": 96,
          "time": 102.40697674417532,
          "velocity": 0.10236220472440945,
          "duration": 0.034883720930224626
        },
        {
          "name": "A#3",
          "midi": 58,
          "time": 102.43023255812881,
          "velocity": 0.30708661417322836,
          "duration": 0.023255813953483084
        },
        {
          "name": "D#4",
          "midi": 63,
          "time": 102.43023255812881,
          "velocity": 0.11811023622047244,
          "duration": 0.034883720930224626
        },
        {
          "name": "D7",
          "midi": 98,
          "time": 102.44186046510555,
          "velocity": 0.08661417322834646,
          "duration": 0.034883720930224626
        },
        {
          "name": "A#5",
          "midi": 82,
          "time": 102.46511627905903,
          "velocity": 0.07874015748031496,
          "duration": 0.034883720930224626
        },
        {
          "name": "C7",
          "midi": 96,
          "time": 102.46511627905903,
          "velocity": 0.07874015748031496,
          "duration": 0.034883720930224626
        },
        {
          "name": "F5",
          "midi": 77,
          "time": 102.511627906966,
          "velocity": 0.47244094488188976,
          "duration": 0.04651162790696617
        },
        {
          "name": "A#4",
          "midi": 70,
          "time": 102.53488372091948,
          "velocity": 0.3937007874015748,
          "duration": 0.023255813953483084
        },
        {
          "name": "F#3",
          "midi": 54,
          "time": 102.54651162789622,
          "velocity": 0.30708661417322836,
          "duration": 0.034883720930224626
        },
        {
          "name": "B5",
          "midi": 83,
          "time": 102.54651162789622,
          "velocity": 0.1889763779527559,
          "duration": 0.05813953488370771
        },
        {
          "name": "B3",
          "midi": 59,
          "time": 102.55813953487296,
          "velocity": 0.2992125984251969,
          "duration": 0.034883720930224626
        },
        {
          "name": "B4",
          "midi": 71,
          "time": 102.55813953487296,
          "velocity": 0.3464566929133858,
          "duration": 0.0813953488371908
        },
        {
          "name": "D#5",
          "midi": 75,
          "time": 102.55813953487296,
          "velocity": 0.18110236220472442,
          "duration": 0.1395348837208985
        },
        {
          "name": "F#5",
          "midi": 78,
          "time": 102.55813953487296,
          "velocity": 0.3228346456692913,
          "duration": 0.04651162790696617
        },
        {
          "name": "D6",
          "midi": 86,
          "time": 102.5697674418497,
          "velocity": 0.1732283464566929,
          "duration": 0.05813953488370771
        },
        {
          "name": "B0",
          "midi": 23,
          "time": 102.58139534882645,
          "velocity": 0.4409448818897638,
          "duration": 0.034883720930224626
        },
        {
          "name": "C6",
          "midi": 84,
          "time": 102.59302325580319,
          "velocity": 0.09448818897637795,
          "duration": 0.0813953488371908
        },
        {
          "name": "G#3",
          "midi": 56,
          "time": 102.60465116277993,
          "velocity": 0.33070866141732286,
          "duration": 0.10465116279067388
        },
        {
          "name": "A4",
          "midi": 69,
          "time": 102.62790697673341,
          "velocity": 0.30708661417322836,
          "duration": 0.034883720930224626
        },
        {
          "name": "F#6",
          "midi": 90,
          "time": 102.62790697673341,
          "velocity": 0.14173228346456693,
          "duration": 0.04651162790696617
        },
        {
          "name": "A#4",
          "midi": 70,
          "time": 102.6511627906869,
          "velocity": 0.33070866141732286,
          "duration": 0.37209302325575777
        },
        {
          "name": "B0",
          "midi": 23,
          "time": 102.66279069766364,
          "velocity": 0.4015748031496063,
          "duration": 0.11627906976741542
        },
        {
          "name": "E4",
          "midi": 64,
          "time": 102.72093023254735,
          "velocity": 0.18110236220472442,
          "duration": 0.04651162790696617
        },
        {
          "name": "D#5",
          "midi": 75,
          "time": 102.72093023254735,
          "velocity": 0.2283464566929134,
          "duration": 0.06976744186044925
        },
        {
          "name": "G#3",
          "midi": 56,
          "time": 102.74418604650083,
          "velocity": 0.3937007874015748,
          "duration": 0.05813953488370771
        },
        {
          "name": "D7",
          "midi": 98,
          "time": 102.74418604650083,
          "velocity": 0.09448818897637795,
          "duration": 0.0813953488371908
        },
        {
          "name": "F6",
          "midi": 89,
          "time": 102.76744186045431,
          "velocity": 0.08661417322834646,
          "duration": 0.09302325581394655
        },
        {
          "name": "C1",
          "midi": 24,
          "time": 102.77906976743105,
          "velocity": 0.2992125984251969,
          "duration": 0.023255813953483084
        },
        {
          "name": "F5",
          "midi": 77,
          "time": 102.77906976743105,
          "velocity": 0.3464566929133858,
          "duration": 0.20930232558137618
        },
        {
          "name": "A#5",
          "midi": 82,
          "time": 102.77906976743105,
          "velocity": 0.3464566929133858,
          "duration": 0.10465116279068809
        },
        {
          "name": "D#6",
          "midi": 87,
          "time": 102.77906976743105,
          "velocity": 0.3858267716535433,
          "duration": 0.10465116279068809
        },
        {
          "name": "G6",
          "midi": 91,
          "time": 102.77906976743105,
          "velocity": 0.23622047244094488,
          "duration": 0.09302325581394655
        },
        {
          "name": "A#3",
          "midi": 58,
          "time": 102.81395348836128,
          "velocity": 0.4409448818897638,
          "duration": 0.2441860465116008
        },
        {
          "name": "D#6",
          "midi": 87,
          "time": 102.96511627905895,
          "velocity": 0.4015748031496063,
          "duration": 0.3837209302324993
        },
        {
          "name": "E5",
          "midi": 76,
          "time": 102.97674418603569,
          "velocity": 0.23622047244094488,
          "duration": 0.023255813953483084
        },
        {
          "name": "D5",
          "midi": 74,
          "time": 102.99999999998917,
          "velocity": 0.09448818897637795,
          "duration": 0.034883720930224626
        },
        {
          "name": "F5",
          "midi": 77,
          "time": 102.99999999998917,
          "velocity": 0.44881889763779526,
          "duration": 0.31395348837205006
        },
        {
          "name": "A#5",
          "midi": 82,
          "time": 102.99999999998917,
          "velocity": 0.36220472440944884,
          "duration": 0.3837209302324993
        },
        {
          "name": "G6",
          "midi": 91,
          "time": 102.99999999998917,
          "velocity": 0.25196850393700787,
          "duration": 0.2441860465115866
        },
        {
          "name": "G1",
          "midi": 31,
          "time": 103.01162790696591,
          "velocity": 0.5196850393700787,
          "duration": 0.011627906976741542
        },
        {
          "name": "B4",
          "midi": 71,
          "time": 103.01162790696591,
          "velocity": 0.3543307086614173,
          "duration": 0.023255813953483084
        },
        {
          "name": "F#1",
          "midi": 30,
          "time": 103.02325581394265,
          "velocity": 0.6692913385826772,
          "duration": 0.011627906976741542
        },
        {
          "name": "F1",
          "midi": 29,
          "time": 103.0348837209194,
          "velocity": 0.7165354330708661,
          "duration": 0.011627906976741542
        },
        {
          "name": "D#4",
          "midi": 63,
          "time": 103.0348837209194,
          "velocity": 0.2204724409448819,
          "duration": 0.04651162790696617
        },
        {
          "name": "G#4",
          "midi": 68,
          "time": 103.0348837209194,
          "velocity": 0.33858267716535434,
          "duration": 0.5116279069766563
        },
        {
          "name": "D#1",
          "midi": 27,
          "time": 103.04651162789614,
          "velocity": 0.7480314960629921,
          "duration": 0.49999999999991473
        },
        {
          "name": "G3",
          "midi": 55,
          "time": 103.05813953487288,
          "velocity": 0.5118110236220472,
          "duration": 0.3255813953487916
        },
        {
          "name": "A#4",
          "midi": 70,
          "time": 103.06976744184962,
          "velocity": 0.3937007874015748,
          "duration": 0.15116279069765426
        },
        {
          "name": "A#2",
          "midi": 46,
          "time": 103.0930232558031,
          "velocity": 0.4409448818897638,
          "duration": 0.3023255813953085
        },
        {
          "name": "D#5",
          "midi": 75,
          "time": 103.10465116277985,
          "velocity": 0.2047244094488189,
          "duration": 0.034883720930224626
        },
        {
          "name": "D#4",
          "midi": 63,
          "time": 103.12790697673333,
          "velocity": 0.16535433070866143,
          "duration": 0.034883720930224626
        },
        {
          "name": "D#4",
          "midi": 63,
          "time": 103.1744186046403,
          "velocity": 0.16535433070866143,
          "duration": 0.05813953488372192
        },
        {
          "name": "D6",
          "midi": 86,
          "time": 103.22093023254727,
          "velocity": 0.10236220472440945,
          "duration": 0.081395348837205
        },
        {
          "name": "A#4",
          "midi": 70,
          "time": 103.23255813952402,
          "velocity": 0.18110236220472442,
          "duration": 0.10465116279068809
        },
        {
          "name": "D#4",
          "midi": 63,
          "time": 103.26744186045424,
          "velocity": 0.11023622047244094,
          "duration": 0.06976744186046346
        },
        {
          "name": "F5",
          "midi": 77,
          "time": 103.32558139533796,
          "velocity": 0.2440944881889764,
          "duration": 0.1627906976743816
        },
        {
          "name": "D#6",
          "midi": 87,
          "time": 103.36046511626819,
          "velocity": 0.28346456692913385,
          "duration": 0.4418604651161786
        },
        {
          "name": "G6",
          "midi": 91,
          "time": 103.37209302324493,
          "velocity": 0.13385826771653545,
          "duration": 0.18604651162786467
        },
        {
          "name": "A#4",
          "midi": 70,
          "time": 103.38372093022167,
          "velocity": 0.28346456692913385,
          "duration": 0.034883720930224626
        },
        {
          "name": "D6",
          "midi": 86,
          "time": 103.38372093022167,
          "velocity": 0.18110236220472442,
          "duration": 0.05813953488370771
        },
        {
          "name": "G3",
          "midi": 55,
          "time": 103.39534883719841,
          "velocity": 0.48031496062992124,
          "duration": 0.1627906976743816
        },
        {
          "name": "A#2",
          "midi": 46,
          "time": 103.40697674417515,
          "velocity": 0.44881889763779526,
          "duration": 0.05813953488370771
        },
        {
          "name": "B4",
          "midi": 71,
          "time": 103.44186046510538,
          "velocity": 0.4015748031496063,
          "duration": 0.10465116279067388
        },
        {
          "name": "F5",
          "midi": 77,
          "time": 103.49999999998909,
          "velocity": 0.14960629921259844,
          "duration": 0.05813953488370771
        },
        {
          "name": "E4",
          "midi": 64,
          "time": 103.52325581394257,
          "velocity": 0.15748031496062992,
          "duration": 0.034883720930224626
        },
        {
          "name": "D1",
          "midi": 26,
          "time": 103.54651162789605,
          "velocity": 0.7007874015748031,
          "duration": 0.023255813953483084
        },
        {
          "name": "A2",
          "midi": 45,
          "time": 103.54651162789605,
          "velocity": 0.4330708661417323,
          "duration": 0.023255813953483084
        },
        {
          "name": "A#4",
          "midi": 70,
          "time": 103.54651162789605,
          "velocity": 0.3700787401574803,
          "duration": 0.023255813953483084
        },
        {
          "name": "F3",
          "midi": 53,
          "time": 103.5581395348728,
          "velocity": 0.41732283464566927,
          "duration": 0.023255813953483084
        },
        {
          "name": "C#1",
          "midi": 25,
          "time": 103.56976744184954,
          "velocity": 0.6850393700787402,
          "duration": 0.023255813953483084
        },
        {
          "name": "A#5",
          "midi": 82,
          "time": 103.58139534882628,
          "velocity": 0.13385826771653545,
          "duration": 0.034883720930224626
        },
        {
          "name": "B5",
          "midi": 83,
          "time": 103.58139534882628,
          "velocity": 0.13385826771653545,
          "duration": 0.05813953488370771
        },
        {
          "name": "B0",
          "midi": 23,
          "time": 103.59302325580302,
          "velocity": 0.6929133858267716,
          "duration": 0.034883720930224626
        },
        {
          "name": "G2",
          "midi": 43,
          "time": 103.59302325580302,
          "velocity": 0.4409448818897638,
          "duration": 0.023255813953483084
        },
        {
          "name": "G4",
          "midi": 67,
          "time": 103.59302325580302,
          "velocity": 0.36220472440944884,
          "duration": 0.023255813953483084
        },
        {
          "name": "A#4",
          "midi": 70,
          "time": 103.6162790697565,
          "velocity": 0.15748031496062992,
          "duration": 0.04651162790696617
        },
        {
          "name": "D5",
          "midi": 74,
          "time": 103.6162790697565,
          "velocity": 0.14960629921259844,
          "duration": 0.04651162790696617
        },
        {
          "name": "A5",
          "midi": 81,
          "time": 103.6162790697565,
          "velocity": 0.4881889763779528,
          "duration": 0.023255813953483084
        },
        {
          "name": "C6",
          "midi": 84,
          "time": 103.6162790697565,
          "velocity": 0.18110236220472442,
          "duration": 0.05813953488370771
        },
        {
          "name": "E6",
          "midi": 88,
          "time": 103.6162790697565,
          "velocity": 0.25196850393700787,
          "duration": 0.05813953488370771
        },
        {
          "name": "F#6",
          "midi": 90,
          "time": 103.6162790697565,
          "velocity": 0.33858267716535434,
          "duration": 0.04651162790696617
        },
        {
          "name": "G#6",
          "midi": 92,
          "time": 103.6162790697565,
          "velocity": 0.29133858267716534,
          "duration": 0.023255813953483084
        },
        {
          "name": "C7",
          "midi": 96,
          "time": 103.6162790697565,
          "velocity": 0.18110236220472442,
          "duration": 0.05813953488370771
        },
        {
          "name": "D7",
          "midi": 98,
          "time": 103.6162790697565,
          "velocity": 0.1968503937007874,
          "duration": 0.05813953488370771
        },
        {
          "name": "A0",
          "midi": 21,
          "time": 103.62790697673324,
          "velocity": 0.6850393700787402,
          "duration": 0.011627906976741542
        },
        {
          "name": "F5",
          "midi": 77,
          "time": 103.62790697673324,
          "velocity": 0.2992125984251969,
          "duration": 0.05813953488370771
        },
        {
          "name": "G#5",
          "midi": 80,
          "time": 103.62790697673324,
          "velocity": 0.3228346456692913,
          "duration": 0.023255813953483084
        },
        {
          "name": "A#6",
          "midi": 94,
          "time": 103.62790697673324,
          "velocity": 0.14960629921259844,
          "duration": 0.04651162790696617
        },
        {
          "name": "G#0",
          "midi": 20,
          "time": 103.63953488370998,
          "velocity": 0.6929133858267716,
          "duration": 0.023255813953483084
        },
        {
          "name": "A#5",
          "midi": 82,
          "time": 103.63953488370998,
          "velocity": 0.44881889763779526,
          "duration": 0.023255813953483084
        },
        {
          "name": "C5",
          "midi": 72,
          "time": 103.65116279068673,
          "velocity": 0.1968503937007874,
          "duration": 0.04651162790696617
        },
        {
          "name": "B5",
          "midi": 83,
          "time": 103.65116279068673,
          "velocity": 0.2283464566929134,
          "duration": 0.023255813953483084
        },
        {
          "name": "F#0",
          "midi": 18,
          "time": 103.66279069766347,
          "velocity": 0.6929133858267716,
          "duration": 0.011627906976741542
        },
        {
          "name": "C#4",
          "midi": 61,
          "time": 103.66279069766347,
          "velocity": 0.3858267716535433,
          "duration": 0.023255813953483084
        },
        {
          "name": "G5",
          "midi": 79,
          "time": 103.66279069766347,
          "velocity": 0.33070866141732286,
          "duration": 0.023255813953483084
        },
        {
          "name": "F0",
          "midi": 17,
          "time": 103.67441860464021,
          "velocity": 0.6850393700787402,
          "duration": 0.011627906976741542
        },
        {
          "name": "A#5",
          "midi": 82,
          "time": 103.67441860464021,
          "velocity": 0.13385826771653545,
          "duration": 0.12790697674415696
        },
        {
          "name": "E0",
          "midi": 16,
          "time": 103.68604651161695,
          "velocity": 0.6850393700787402,
          "duration": 0.011627906976741542
        },
        {
          "name": "D#0",
          "midi": 15,
          "time": 103.69767441859369,
          "velocity": 0.6692913385826772,
          "duration": 0.011627906976741542
        },
        {
          "name": "G3",
          "midi": 55,
          "time": 103.69767441859369,
          "velocity": 0.3700787401574803,
          "duration": 0.04651162790696617
        },
        {
          "name": "E4",
          "midi": 64,
          "time": 103.69767441859369,
          "velocity": 0.13385826771653545,
          "duration": 0.06976744186044925
        },
        {
          "name": "F#7",
          "midi": 102,
          "time": 103.69767441859369,
          "velocity": 0.3228346456692913,
          "duration": 0.05813953488370771
        },
        {
          "name": "D0",
          "midi": 14,
          "time": 103.70930232557043,
          "velocity": 0.6771653543307087,
          "duration": 0.011627906976741542
        },
        {
          "name": "F2",
          "midi": 41,
          "time": 103.70930232557043,
          "velocity": 0.44881889763779526,
          "duration": 0.023255813953483084
        },
        {
          "name": "E7",
          "midi": 100,
          "time": 103.70930232557043,
          "velocity": 0.15748031496062992,
          "duration": 0.04651162790696617
        },
        {
          "name": "F7",
          "midi": 101,
          "time": 103.70930232557043,
          "velocity": 0.2204724409448819,
          "duration": 0.05813953488370771
        },
        {
          "name": "C#0",
          "midi": 13,
          "time": 103.72093023254718,
          "velocity": 0.6692913385826772,
          "duration": 0.011627906976741542
        },
        {
          "name": "A#-1",
          "midi": 10,
          "time": 103.73255813952392,
          "velocity": 0.6062992125984252,
          "duration": 0.011627906976741542
        },
        {
          "name": "C#7",
          "midi": 97,
          "time": 103.73255813952392,
          "velocity": 0.1968503937007874,
          "duration": 0.09302325581393234
        },
        {
          "name": "D7",
          "midi": 98,
          "time": 103.73255813952392,
          "velocity": 0.15748031496062992,
          "duration": 0.034883720930224626
        },
        {
          "name": "A-1",
          "midi": 9,
          "time": 103.74418604650066,
          "velocity": 0.6614173228346457,
          "duration": 0.011627906976741542
        },
        {
          "name": "A#-1",
          "midi": 10,
          "time": 103.7558139534774,
          "velocity": 0.6692913385826772,
          "duration": 0.011627906976741542
        },
        {
          "name": "C#3",
          "midi": 49,
          "time": 103.7558139534774,
          "velocity": 0.3464566929133858,
          "duration": 0.023255813953483084
        },
        {
          "name": "C7",
          "midi": 96,
          "time": 103.7558139534774,
          "velocity": 0.25196850393700787,
          "duration": 0.05813953488370771
        },
        {
          "name": "B6",
          "midi": 95,
          "time": 103.76744186045414,
          "velocity": 0.23622047244094488,
          "duration": 0.06976744186044925
        },
        {
          "name": "G#-1",
          "midi": 8,
          "time": 103.77906976743088,
          "velocity": 0.5748031496062992,
          "duration": 0.011627906976741542
        },
        {
          "name": "C#6",
          "midi": 85,
          "time": 103.77906976743088,
          "velocity": 0.10236220472440945,
          "duration": 0.034883720930224626
        },
        {
          "name": "B-1",
          "midi": 11,
          "time": 103.79069767440762,
          "velocity": 0.5826771653543307,
          "duration": 0.011627906976741542
        },
        {
          "name": "F5",
          "midi": 77,
          "time": 103.79069767440762,
          "velocity": 0.12598425196850394,
          "duration": 0.04651162790696617
        },
        {
          "name": "A5",
          "midi": 81,
          "time": 103.79069767440762,
          "velocity": 0.11023622047244094,
          "duration": 0.034883720930224626
        },
        {
          "name": "A#4",
          "midi": 70,
          "time": 103.81395348836111,
          "velocity": 0.4409448818897638,
          "duration": 0.05813953488370771
        },
        {
          "name": "D#6",
          "midi": 87,
          "time": 103.82558139533785,
          "velocity": 0.3858267716535433,
          "duration": 0.8372093023254052
        },
        {
          "name": "A#-1",
          "midi": 10,
          "time": 103.83720930231459,
          "velocity": 0.5669291338582677,
          "duration": 0.011627906976741542
        },
        {
          "name": "G-1",
          "midi": 7,
          "time": 103.84883720929133,
          "velocity": 0.6377952755905512,
          "duration": 0.011627906976741542
        },
        {
          "name": "D#5",
          "midi": 75,
          "time": 103.84883720929133,
          "velocity": 0.44881889763779526,
          "duration": 0.05813953488370771
        },
        {
          "name": "D0",
          "midi": 14,
          "time": 103.86046511626807,
          "velocity": 0.6614173228346457,
          "duration": 0.011627906976741542
        },
        {
          "name": "G#4",
          "midi": 68,
          "time": 103.86046511626807,
          "velocity": 0.4015748031496063,
          "duration": 0.23255813953483084
        },
        {
          "name": "D1",
          "midi": 26,
          "time": 103.87209302324482,
          "velocity": 0.6456692913385826,
          "duration": 0.011627906976741542
        },
        {
          "name": "G3",
          "midi": 55,
          "time": 103.87209302324482,
          "velocity": 0.3228346456692913,
          "duration": 0.04651162790696617
        },
        {
          "name": "D#4",
          "midi": 63,
          "time": 103.87209302324482,
          "velocity": 0.49606299212598426,
          "duration": 0.04651162790696617
        },
        {
          "name": "G6",
          "midi": 91,
          "time": 103.87209302324482,
          "velocity": 0.16535433070866143,
          "duration": 0.05813953488370771
        },
        {
          "name": "A6",
          "midi": 93,
          "time": 103.87209302324482,
          "velocity": 0.28346456692913385,
          "duration": 0.034883720930224626
        },
        {
          "name": "A#6",
          "midi": 94,
          "time": 103.87209302324482,
          "velocity": 0.2992125984251969,
          "duration": 0.06976744186044925
        },
        {
          "name": "B6",
          "midi": 95,
          "time": 103.87209302324482,
          "velocity": 0.2992125984251969,
          "duration": 0.034883720930224626
        },
        {
          "name": "D7",
          "midi": 98,
          "time": 103.87209302324482,
          "velocity": 0.33070866141732286,
          "duration": 0.09302325581393234
        },
        {
          "name": "E7",
          "midi": 100,
          "time": 103.87209302324482,
          "velocity": 0.2677165354330709,
          "duration": 0.0813953488371908
        },
        {
          "name": "F7",
          "midi": 101,
          "time": 103.87209302324482,
          "velocity": 0.25984251968503935,
          "duration": 0.0813953488371908
        },
        {
          "name": "D#1",
          "midi": 27,
          "time": 103.88372093022156,
          "velocity": 0.6299212598425197,
          "duration": 0.4069767441859682
        },
        {
          "name": "F#6",
          "midi": 90,
          "time": 103.88372093022156,
          "velocity": 0.2125984251968504,
          "duration": 0.04651162790696617
        },
        {
          "name": "G#6",
          "midi": 92,
          "time": 103.88372093022156,
          "velocity": 0.25196850393700787,
          "duration": 0.0813953488371908
        },
        {
          "name": "C#7",
          "midi": 97,
          "time": 103.88372093022156,
          "velocity": 0.2992125984251969,
          "duration": 0.06976744186044925
        },
        {
          "name": "F#7",
          "midi": 102,
          "time": 103.88372093022156,
          "velocity": 0.2204724409448819,
          "duration": 0.05813953488370771
        },
        {
          "name": "F5",
          "midi": 77,
          "time": 103.8953488371983,
          "velocity": 0.2047244094488189,
          "duration": 0.1627906976743816
        },
        {
          "name": "A#5",
          "midi": 82,
          "time": 103.8953488371983,
          "velocity": 0.18110236220472442,
          "duration": 0.1395348837208985
        },
        {
          "name": "C6",
          "midi": 84,
          "time": 103.8953488371983,
          "velocity": 0.2283464566929134,
          "duration": 0.04651162790696617
        },
        {
          "name": "C7",
          "midi": 96,
          "time": 103.8953488371983,
          "velocity": 0.2992125984251969,
          "duration": 0.0813953488371908
        },
        {
          "name": "A#4",
          "midi": 70,
          "time": 103.90697674417504,
          "velocity": 0.3779527559055118,
          "duration": 0.12790697674415696
        },
        {
          "name": "D#5",
          "midi": 75,
          "time": 103.94186046510526,
          "velocity": 0.07874015748031496,
          "duration": 0.05813953488370771
        },
        {
          "name": "A#3",
          "midi": 58,
          "time": 103.953488372082,
          "velocity": 0.31496062992125984,
          "duration": 0.034883720930224626
        },
        {
          "name": "G5",
          "midi": 79,
          "time": 103.96511627905875,
          "velocity": 0.15748031496062992,
          "duration": 0.04651162790696617
        },
        {
          "name": "D#3",
          "midi": 51,
          "time": 103.97674418603549,
          "velocity": 0.3228346456692913,
          "duration": 0.04651162790696617
        },
        {
          "name": "A3",
          "midi": 57,
          "time": 103.98837209301223,
          "velocity": 0.3858267716535433,
          "duration": 0.023255813953483084
        },
        {
          "name": "B4",
          "midi": 71,
          "time": 104.0348837209192,
          "velocity": 0.5196850393700787,
          "duration": 0.05813953488370771
        },
        {
          "name": "G#6",
          "midi": 92,
          "time": 104.0348837209192,
          "velocity": 0.2677165354330709,
          "duration": 0.034883720930224626
        },
        {
          "name": "B6",
          "midi": 95,
          "time": 104.0348837209192,
          "velocity": 0.4251968503937008,
          "duration": 0.11627906976741542
        },
        {
          "name": "C#7",
          "midi": 97,
          "time": 104.0348837209192,
          "velocity": 0.2125984251968504,
          "duration": 0.11627906976741542
        },
        {
          "name": "F#5",
          "midi": 78,
          "time": 104.04651162789594,
          "velocity": 0.1889763779527559,
          "duration": 0.06976744186044925
        },
        {
          "name": "E7",
          "midi": 100,
          "time": 104.04651162789594,
          "velocity": 0.15748031496062992,
          "duration": 0.034883720930224626
        },
        {
          "name": "D#3",
          "midi": 51,
          "time": 104.05813953487268,
          "velocity": 0.4015748031496063,
          "duration": 0.25581395348832814
        },
        {
          "name": "A#3",
          "midi": 58,
          "time": 104.05813953487268,
          "velocity": 0.3779527559055118,
          "duration": 0.1627906976743958
        },
        {
          "name": "A6",
          "midi": 93,
          "time": 104.06976744184942,
          "velocity": 0.14960629921259844,
          "duration": 0.06976744186044925
        },
        {
          "name": "F#7",
          "midi": 102,
          "time": 104.08139534882616,
          "velocity": 0.07086614173228346,
          "duration": 0.05813953488370771
        },
        {
          "name": "A#4",
          "midi": 70,
          "time": 104.0930232558029,
          "velocity": 0.5196850393700787,
          "duration": 0.19767441860462043
        },
        {
          "name": "E7",
          "midi": 100,
          "time": 104.0930232558029,
          "velocity": 0.2125984251968504,
          "duration": 0.05813953488370771
        },
        {
          "name": "G#4",
          "midi": 68,
          "time": 104.10465116277965,
          "velocity": 0.28346456692913385,
          "duration": 0.04651162790696617
        },
        {
          "name": "F5",
          "midi": 77,
          "time": 104.10465116277965,
          "velocity": 0.1732283464566929,
          "duration": 0.13953488372091272
        },
        {
          "name": "G#4",
          "midi": 68,
          "time": 104.16279069766335,
          "velocity": 0.33070866141732286,
          "duration": 0.03488372093023884
        },
        {
          "name": "F#7",
          "midi": 102,
          "time": 104.19767441859359,
          "velocity": 0.1968503937007874,
          "duration": 0.0813953488371908
        },
        {
          "name": "G#4",
          "midi": 68,
          "time": 104.20930232557033,
          "velocity": 0.30708661417322836,
          "duration": 0.023255813953483084
        },
        {
          "name": "F7",
          "midi": 101,
          "time": 104.20930232557033,
          "velocity": 0.13385826771653545,
          "duration": 0.04651162790696617
        },
        {
          "name": "B3",
          "midi": 59,
          "time": 104.23255813952382,
          "velocity": 0.47244094488188976,
          "duration": 0.09302325581393234
        },
        {
          "name": "F#5",
          "midi": 78,
          "time": 104.24418604650056,
          "velocity": 0.16535433070866143,
          "duration": 0.034883720930224626
        },
        {
          "name": "F#6",
          "midi": 90,
          "time": 104.2558139534773,
          "velocity": 0.25984251968503935,
          "duration": 0.05813953488370771
        },
        {
          "name": "G#6",
          "midi": 92,
          "time": 104.2558139534773,
          "velocity": 0.10236220472440945,
          "duration": 0.034883720930224626
        },
        {
          "name": "E7",
          "midi": 100,
          "time": 104.2558139534773,
          "velocity": 0.11811023622047244,
          "duration": 0.06976744186044925
        },
        {
          "name": "G#4",
          "midi": 68,
          "time": 104.26744186045404,
          "velocity": 0.3228346456692913,
          "duration": 0.023255813953483084
        },
        {
          "name": "G6",
          "midi": 91,
          "time": 104.26744186045404,
          "velocity": 0.2677165354330709,
          "duration": 0.26744186046505547
        },
        {
          "name": "A6",
          "midi": 93,
          "time": 104.26744186045404,
          "velocity": 0.3858267716535433,
          "duration": 0.05813953488370771
        },
        {
          "name": "F5",
          "midi": 77,
          "time": 104.27906976743078,
          "velocity": 0.2992125984251969,
          "duration": 0.3604651162789878
        },
        {
          "name": "C#1",
          "midi": 25,
          "time": 104.29069767440753,
          "velocity": 0.5275590551181102,
          "duration": 0.011627906976741542
        },
        {
          "name": "B0",
          "midi": 23,
          "time": 104.30232558138427,
          "velocity": 0.5826771653543307,
          "duration": 0.011627906976741542
        },
        {
          "name": "G4",
          "midi": 67,
          "time": 104.30232558138427,
          "velocity": 0.2204724409448819,
          "duration": 0.034883720930224626
        },
        {
          "name": "A#4",
          "midi": 70,
          "time": 104.30232558138427,
          "velocity": 0.49606299212598426,
          "duration": 0.19767441860460622
        },
        {
          "name": "C#1",
          "midi": 25,
          "time": 104.31395348836101,
          "velocity": 0.6614173228346457,
          "duration": 0.011627906976741542
        },
        {
          "name": "A2",
          "midi": 45,
          "time": 104.31395348836101,
          "velocity": 0.47244094488188976,
          "duration": 0.034883720930224626
        },
        {
          "name": "D#4",
          "midi": 63,
          "time": 104.31395348836101,
          "velocity": 0.4015748031496063,
          "duration": 0.15116279069764005
        },
        {
          "name": "C#5",
          "midi": 73,
          "time": 104.31395348836101,
          "velocity": 0.2125984251968504,
          "duration": 0.1395348837208985
        },
        {
          "name": "F6",
          "midi": 89,
          "time": 104.31395348836101,
          "velocity": 0.30708661417322836,
          "duration": 0.6395348837207848
        },
        {
          "name": "D1",
          "midi": 26,
          "time": 104.32558139533775,
          "velocity": 0.7007874015748031,
          "duration": 0.011627906976741542
        },
        {
          "name": "F#3",
          "midi": 54,
          "time": 104.32558139533775,
          "velocity": 0.49606299212598426,
          "duration": 0.034883720930224626
        },
        {
          "name": "C1",
          "midi": 24,
          "time": 104.33720930231449,
          "velocity": 0.7007874015748031,
          "duration": 0.011627906976741542
        },
        {
          "name": "B0",
          "midi": 23,
          "time": 104.34883720929123,
          "velocity": 0.7322834645669292,
          "duration": 0.406976744185954
        },
        {
          "name": "F3",
          "midi": 53,
          "time": 104.36046511626797,
          "velocity": 0.5118110236220472,
          "duration": 0.011627906976741542
        },
        {
          "name": "F#4",
          "midi": 66,
          "time": 104.36046511626797,
          "velocity": 0.16535433070866143,
          "duration": 0.1627906976743816
        },
        {
          "name": "D#3",
          "midi": 51,
          "time": 104.3953488371982,
          "velocity": 0.4881889763779528,
          "duration": 0.023255813953483084
        },
        {
          "name": "G2",
          "midi": 43,
          "time": 104.43023255812842,
          "velocity": 0.4409448818897638,
          "duration": 0.023255813953483084
        },
        {
          "name": "D#3",
          "midi": 51,
          "time": 104.43023255812842,
          "velocity": 0.5039370078740157,
          "duration": 0.023255813953483084
        },
        {
          "name": "C#4",
          "midi": 61,
          "time": 104.46511627905865,
          "velocity": 0.4881889763779528,
          "duration": 0.034883720930224626
        },
        {
          "name": "D3",
          "midi": 50,
          "time": 104.47674418603539,
          "velocity": 0.5118110236220472,
          "duration": 0.011627906976741542
        },
        {
          "name": "B6",
          "midi": 95,
          "time": 104.47674418603539,
          "velocity": 0.2204724409448819,
          "duration": 0.09302325581393234
        },
        {
          "name": "D#3",
          "midi": 51,
          "time": 104.48837209301213,
          "velocity": 0.5196850393700787,
          "duration": 0.39534883720921243
        },
        {
          "name": "B3",
          "midi": 59,
          "time": 104.49999999998887,
          "velocity": 0.3700787401574803,
          "duration": 0.06976744186044925
        },
        {
          "name": "B4",
          "midi": 71,
          "time": 104.49999999998887,
          "velocity": 0.5039370078740157,
          "duration": 0.09302325581393234
        },
        {
          "name": "C#7",
          "midi": 97,
          "time": 104.49999999998887,
          "velocity": 0.09448818897637795,
          "duration": 0.05813953488370771
        },
        {
          "name": "G4",
          "midi": 67,
          "time": 104.51162790696561,
          "velocity": 0.1889763779527559,
          "duration": 0.05813953488370771
        },
        {
          "name": "C#5",
          "midi": 73,
          "time": 104.51162790696561,
          "velocity": 0.14173228346456693,
          "duration": 0.09302325581393234
        },
        {
          "name": "G6",
          "midi": 91,
          "time": 104.55813953487258,
          "velocity": 0.10236220472440945,
          "duration": 0.05813953488370771
        },
        {
          "name": "A#4",
          "midi": 70,
          "time": 104.58139534882606,
          "velocity": 0.4566929133858268,
          "duration": 0.034883720930224626
        },
        {
          "name": "A#3",
          "midi": 58,
          "time": 104.5930232558028,
          "velocity": 0.3464566929133858,
          "duration": 0.023255813953483084
        },
        {
          "name": "A6",
          "midi": 93,
          "time": 104.60465116277955,
          "velocity": 0.33070866141732286,
          "duration": 0.05813953488370771
        },
        {
          "name": "B3",
          "midi": 59,
          "time": 104.61627906975629,
          "velocity": 0.3700787401574803,
          "duration": 0.04651162790696617
        },
        {
          "name": "B4",
          "midi": 71,
          "time": 104.61627906975629,
          "velocity": 0.5354330708661418,
          "duration": 0.06976744186044925
        },
        {
          "name": "F#5",
          "midi": 78,
          "time": 104.61627906975629,
          "velocity": 0.2992125984251969,
          "duration": 0.0813953488371908
        },
        {
          "name": "B6",
          "midi": 95,
          "time": 104.62790697673303,
          "velocity": 0.14173228346456693,
          "duration": 0.05813953488370771
        },
        {
          "name": "C#7",
          "midi": 97,
          "time": 104.62790697673303,
          "velocity": 0.10236220472440945,
          "duration": 0.034883720930224626
        },
        {
          "name": "E7",
          "midi": 100,
          "time": 104.62790697673303,
          "velocity": 0.15748031496062992,
          "duration": 0.04651162790696617
        },
        {
          "name": "G6",
          "midi": 91,
          "time": 104.63953488370977,
          "velocity": 0.14173228346456693,
          "duration": 0.11627906976741542
        },
        {
          "name": "G#6",
          "midi": 92,
          "time": 104.66279069766325,
          "velocity": 0.2755905511811024,
          "duration": 0.06976744186044925
        },
        {
          "name": "F#4",
          "midi": 66,
          "time": 104.68604651161674,
          "velocity": 0.11811023622047244,
          "duration": 0.034883720930224626
        },
        {
          "name": "A#4",
          "midi": 70,
          "time": 104.68604651161674,
          "velocity": 0.49606299212598426,
          "duration": 0.20930232558134776
        },
        {
          "name": "F5",
          "midi": 77,
          "time": 104.69767441859348,
          "velocity": 0.23622047244094488,
          "duration": 0.04651162790696617
        },
        {
          "name": "C#5",
          "midi": 73,
          "time": 104.70930232557022,
          "velocity": 0.13385826771653545,
          "duration": 0.17441860465112313
        },
        {
          "name": "F#2",
          "midi": 42,
          "time": 104.72093023254696,
          "velocity": 0.4566929133858268,
          "duration": 0.06976744186044925
        },
        {
          "name": "D#6",
          "midi": 87,
          "time": 104.7325581395237,
          "velocity": 0.2204724409448819,
          "duration": 0.47674418604640323
        },
        {
          "name": "C1",
          "midi": 24,
          "time": 104.75581395347719,
          "velocity": 0.7165354330708661,
          "duration": 0.011627906976741542
        },
        {
          "name": "B0",
          "midi": 23,
          "time": 104.76744186045393,
          "velocity": 0.7165354330708661,
          "duration": 0.5697674418603498
        },
        {
          "name": "G6",
          "midi": 91,
          "time": 104.77906976743067,
          "velocity": 0.12598425196850394,
          "duration": 0.04651162790696617
        },
        {
          "name": "F5",
          "midi": 77,
          "time": 104.79069767440741,
          "velocity": 0.07874015748031496,
          "duration": 0.04651162790696617
        },
        {
          "name": "C6",
          "midi": 84,
          "time": 104.8139534883609,
          "velocity": 0.09448818897637795,
          "duration": 0.15116279069764005
        },
        {
          "name": "F#6",
          "midi": 90,
          "time": 104.86046511626786,
          "velocity": 0.11811023622047244,
          "duration": 0.05813953488370771
        },
        {
          "name": "G6",
          "midi": 91,
          "time": 104.86046511626786,
          "velocity": 0.14960629921259844,
          "duration": 0.034883720930224626
        },
        {
          "name": "G#6",
          "midi": 92,
          "time": 104.86046511626786,
          "velocity": 0.2283464566929134,
          "duration": 0.023255813953483084
        },
        {
          "name": "A6",
          "midi": 93,
          "time": 104.86046511626786,
          "velocity": 0.33070866141732286,
          "duration": 0.06976744186044925
        },
        {
          "name": "A#3",
          "midi": 58,
          "time": 104.8720930232446,
          "velocity": 0.4566929133858268,
          "duration": 0.023255813953483084
        },
        {
          "name": "B6",
          "midi": 95,
          "time": 104.8720930232446,
          "velocity": 0.2677165354330709,
          "duration": 0.06976744186044925
        },
        {
          "name": "F#5",
          "midi": 78,
          "time": 104.88372093022134,
          "velocity": 0.2047244094488189,
          "duration": 0.06976744186044925
        },
        {
          "name": "C#7",
          "midi": 97,
          "time": 104.88372093022134,
          "velocity": 0.33858267716535434,
          "duration": 0.1627906976743816
        },
        {
          "name": "F#2",
          "midi": 42,
          "time": 104.89534883719809,
          "velocity": 0.4330708661417323,
          "duration": 0.04651162790696617
        },
        {
          "name": "D#3",
          "midi": 51,
          "time": 104.89534883719809,
          "velocity": 0.4645669291338583,
          "duration": 0.023255813953483084
        },
        {
          "name": "B3",
          "midi": 59,
          "time": 104.89534883719809,
          "velocity": 0.4330708661417323,
          "duration": 0.05813953488370771
        },
        {
          "name": "B4",
          "midi": 71,
          "time": 104.89534883719809,
          "velocity": 0.4330708661417323,
          "duration": 0.04651162790696617
        },
        {
          "name": "C#5",
          "midi": 73,
          "time": 104.89534883719809,
          "velocity": 0.14960629921259844,
          "duration": 0.41860465116270973
        },
        {
          "name": "F4",
          "midi": 65,
          "time": 104.90697674417483,
          "velocity": 0.28346456692913385,
          "duration": 0.023255813953483084
        },
        {
          "name": "D#7",
          "midi": 99,
          "time": 104.90697674417483,
          "velocity": 0.29133858267716534,
          "duration": 0.10465116279067388
        },
        {
          "name": "D#3",
          "midi": 51,
          "time": 104.93023255812831,
          "velocity": 0.4409448818897638,
          "duration": 0.023255813953483084
        },
        {
          "name": "A#4",
          "midi": 70,
          "time": 104.94186046510505,
          "velocity": 0.5354330708661418,
          "duration": 0.39534883720922664
        },
        {
          "name": "A#6",
          "midi": 94,
          "time": 104.94186046510505,
          "velocity": 0.28346456692913385,
          "duration": 0.09302325581393234
        },
        {
          "name": "C7",
          "midi": 96,
          "time": 104.94186046510505,
          "velocity": 0.2755905511811024,
          "duration": 0.06976744186044925
        },
        {
          "name": "D7",
          "midi": 98,
          "time": 104.94186046510505,
          "velocity": 0.3858267716535433,
          "duration": 0.04651162790696617
        },
        {
          "name": "E7",
          "midi": 100,
          "time": 104.94186046510505,
          "velocity": 0.2440944881889764,
          "duration": 0.0813953488371908
        },
        {
          "name": "A#3",
          "midi": 58,
          "time": 104.9534883720818,
          "velocity": 0.5039370078740157,
          "duration": 0.20930232558134776
        },
        {
          "name": "F5",
          "midi": 77,
          "time": 104.9534883720818,
          "velocity": 0.16535433070866143,
          "duration": 0.04651162790696617
        },
        {
          "name": "E6",
          "midi": 88,
          "time": 104.9534883720818,
          "velocity": 0.12598425196850394,
          "duration": 0.034883720930224626
        },
        {
          "name": "F#6",
          "midi": 90,
          "time": 104.9534883720818,
          "velocity": 0.1732283464566929,
          "duration": 0.04651162790696617
        },
        {
          "name": "A6",
          "midi": 93,
          "time": 104.9534883720818,
          "velocity": 0.2755905511811024,
          "duration": 0.06976744186044925
        },
        {
          "name": "B6",
          "midi": 95,
          "time": 104.9534883720818,
          "velocity": 0.25196850393700787,
          "duration": 0.023255813953483084
        },
        {
          "name": "F7",
          "midi": 101,
          "time": 104.9534883720818,
          "velocity": 0.28346456692913385,
          "duration": 0.0813953488371908
        },
        {
          "name": "G7",
          "midi": 103,
          "time": 104.9534883720818,
          "velocity": 0.13385826771653545,
          "duration": 0.06976744186044925
        },
        {
          "name": "F6",
          "midi": 89,
          "time": 104.96511627905853,
          "velocity": 0.2204724409448819,
          "duration": 0.20930232558134776
        },
        {
          "name": "F#7",
          "midi": 102,
          "time": 104.96511627905853,
          "velocity": 0.2047244094488189,
          "duration": 0.034883720930224626
        },
        {
          "name": "D#3",
          "midi": 51,
          "time": 104.98837209301202,
          "velocity": 0.41732283464566927,
          "duration": 0.023255813953483084
        },
        {
          "name": "F4",
          "midi": 65,
          "time": 105.0116279069655,
          "velocity": 0.2992125984251969,
          "duration": 0.023255813953483084
        },
        {
          "name": "D#3",
          "midi": 51,
          "time": 105.02325581394224,
          "velocity": 0.41732283464566927,
          "duration": 0.023255813953483084
        },
        {
          "name": "C6",
          "midi": 84,
          "time": 105.02325581394224,
          "velocity": 0.08661417322834646,
          "duration": 0.1395348837208985
        },
        {
          "name": "D7",
          "midi": 98,
          "time": 105.02325581394224,
          "velocity": 0.2047244094488189,
          "duration": 0.12790697674415696
        },
        {
          "name": "F#2",
          "midi": 42,
          "time": 105.04651162789573,
          "velocity": 0.4094488188976378,
          "duration": 0.023255813953483084
        },
        {
          "name": "F5",
          "midi": 77,
          "time": 105.05813953487247,
          "velocity": 0.23622047244094488,
          "duration": 0.10465116279067388
        },
        {
          "name": "G6",
          "midi": 91,
          "time": 105.05813953487247,
          "velocity": 0.08661417322834646,
          "duration": 0.05813953488370771
        },
        {
          "name": "G#6",
          "midi": 92,
          "time": 105.05813953487247,
          "velocity": 0.12598425196850394,
          "duration": 0.09302325581393234
        },
        {
          "name": "C7",
          "midi": 96,
          "time": 105.05813953487247,
          "velocity": 0.33858267716535434,
          "duration": 0.15116279069764005
        },
        {
          "name": "F#2",
          "midi": 42,
          "time": 105.08139534882595,
          "velocity": 0.4094488188976378,
          "duration": 0.023255813953483084
        },
        {
          "name": "F4",
          "midi": 65,
          "time": 105.09302325580269,
          "velocity": 0.29133858267716534,
          "duration": 0.023255813953483084
        },
        {
          "name": "D#4",
          "midi": 63,
          "time": 105.12790697673292,
          "velocity": 0.31496062992125984,
          "duration": 0.0813953488371908
        },
        {
          "name": "E3",
          "midi": 52,
          "time": 105.1511627906864,
          "velocity": 0.3937007874015748,
          "duration": 0.023255813953483084
        },
        {
          "name": "D7",
          "midi": 98,
          "time": 105.17441860463988,
          "velocity": 0.1968503937007874,
          "duration": 0.0813953488371908
        },
        {
          "name": "F#2",
          "midi": 42,
          "time": 105.19767441859337,
          "velocity": 0.4015748031496063,
          "duration": 0.034883720930224626
        },
        {
          "name": "F6",
          "midi": 89,
          "time": 105.19767441859337,
          "velocity": 0.14960629921259844,
          "duration": 0.43023255813945127
        },
        {
          "name": "A3",
          "midi": 57,
          "time": 105.2093023255701,
          "velocity": 0.3543307086614173,
          "duration": 0.034883720930224626
        },
        {
          "name": "D#4",
          "midi": 63,
          "time": 105.22093023254685,
          "velocity": 0.28346456692913385,
          "duration": 0.10465116279068809
        },
        {
          "name": "F#4",
          "midi": 66,
          "time": 105.22093023254685,
          "velocity": 0.2992125984251969,
          "duration": 0.37209302325574356
        },
        {
          "name": "A#3",
          "midi": 58,
          "time": 105.29069767440731,
          "velocity": 0.4251968503937008,
          "duration": 0.034883720930224626
        },
        {
          "name": "B3",
          "midi": 59,
          "time": 105.32558139533754,
          "velocity": 0.44881889763779526,
          "duration": 0.04651162790696617
        },
        {
          "name": "B4",
          "midi": 71,
          "time": 105.32558139533754,
          "velocity": 0.47244094488188976,
          "duration": 0.05813953488370771
        },
        {
          "name": "A6",
          "midi": 93,
          "time": 105.32558139533754,
          "velocity": 0.13385826771653545,
          "duration": 0.034883720930224626
        },
        {
          "name": "B6",
          "midi": 95,
          "time": 105.32558139533754,
          "velocity": 0.2440944881889764,
          "duration": 0.04651162790696617
        },
        {
          "name": "D#7",
          "midi": 99,
          "time": 105.32558139533754,
          "velocity": 0.18110236220472442,
          "duration": 0.04651162790696617
        },
        {
          "name": "C1",
          "midi": 24,
          "time": 105.33720930231428,
          "velocity": 0.6377952755905512,
          "duration": 0.011627906976741542
        },
        {
          "name": "D#4",
          "midi": 63,
          "time": 105.33720930231428,
          "velocity": 0.2992125984251969,
          "duration": 0.2558139534883139
        },
        {
          "name": "G6",
          "midi": 91,
          "time": 105.33720930231428,
          "velocity": 0.11023622047244094,
          "duration": 0.04651162790696617
        },
        {
          "name": "B0",
          "midi": 23,
          "time": 105.34883720929102,
          "velocity": 0.6377952755905512,
          "duration": 0.7906976744184391
        },
        {
          "name": "A#5",
          "midi": 82,
          "time": 105.34883720929102,
          "velocity": 0.2283464566929134,
          "duration": 0.0813953488371908
        },
        {
          "name": "E7",
          "midi": 100,
          "time": 105.34883720929102,
          "velocity": 0.14173228346456693,
          "duration": 0.06976744186044925
        },
        {
          "name": "C#5",
          "midi": 73,
          "time": 105.36046511626776,
          "velocity": 0.1889763779527559,
          "duration": 0.4418604651161786
        },
        {
          "name": "C7",
          "midi": 96,
          "time": 105.36046511626776,
          "velocity": 0.2677165354330709,
          "duration": 0.05813953488370771
        },
        {
          "name": "D7",
          "midi": 98,
          "time": 105.36046511626776,
          "velocity": 0.2125984251968504,
          "duration": 0.10465116279067388
        },
        {
          "name": "F#2",
          "midi": 42,
          "time": 105.3720930232445,
          "velocity": 0.3228346456692913,
          "duration": 0.023255813953483084
        },
        {
          "name": "A#3",
          "midi": 58,
          "time": 105.3720930232445,
          "velocity": 0.48031496062992124,
          "duration": 0.0813953488371908
        },
        {
          "name": "F5",
          "midi": 77,
          "time": 105.3720930232445,
          "velocity": 0.14960629921259844,
          "duration": 0.0813953488371908
        },
        {
          "name": "G6",
          "midi": 91,
          "time": 105.41860465115147,
          "velocity": 0.07086614173228346,
          "duration": 0.034883720930224626
        },
        {
          "name": "F#3",
          "midi": 54,
          "time": 105.48837209301192,
          "velocity": 0.25984251968503935,
          "duration": 0.023255813953483084
        },
        {
          "name": "D7",
          "midi": 98,
          "time": 105.48837209301192,
          "velocity": 0.09448818897637795,
          "duration": 0.034883720930224626
        },
        {
          "name": "D#6",
          "midi": 87,
          "time": 105.49999999998866,
          "velocity": 0.07086614173228346,
          "duration": 0.0813953488371908
        },
        {
          "name": "F3",
          "midi": 53,
          "time": 105.5116279069654,
          "velocity": 0.33858267716535434,
          "duration": 0.023255813953483084
        },
        {
          "name": "F#2",
          "midi": 42,
          "time": 105.53488372091888,
          "velocity": 0.29133858267716534,
          "duration": 0.023255813953483084
        },
        {
          "name": "B2",
          "midi": 47,
          "time": 105.53488372091888,
          "velocity": 0.3228346456692913,
          "duration": 0.023255813953483084
        },
        {
          "name": "A#3",
          "midi": 58,
          "time": 105.55813953487237,
          "velocity": 0.5039370078740157,
          "duration": 0.023255813953483084
        },
        {
          "name": "B3",
          "midi": 59,
          "time": 105.58139534882585,
          "velocity": 0.49606299212598426,
          "duration": 0.09302325581393234
        },
        {
          "name": "D6",
          "midi": 86,
          "time": 105.59302325580259,
          "velocity": 0.33070866141732286,
          "duration": 0.31395348837202164
        },
        {
          "name": "E6",
          "midi": 88,
          "time": 105.59302325580259,
          "velocity": 0.11811023622047244,
          "duration": 0.04651162790696617
        },
        {
          "name": "A#6",
          "midi": 94,
          "time": 105.59302325580259,
          "velocity": 0.30708661417322836,
          "duration": 0.10465116279067388
        },
        {
          "name": "B6",
          "midi": 95,
          "time": 105.59302325580259,
          "velocity": 0.3228346456692913,
          "duration": 0.0813953488371908
        },
        {
          "name": "C7",
          "midi": 96,
          "time": 105.59302325580259,
          "velocity": 0.2755905511811024,
          "duration": 0.06976744186044925
        },
        {
          "name": "C#7",
          "midi": 97,
          "time": 105.59302325580259,
          "velocity": 0.29133858267716534,
          "duration": 0.06976744186044925
        },
        {
          "name": "D7",
          "midi": 98,
          "time": 105.59302325580259,
          "velocity": 0.33858267716535434,
          "duration": 0.1627906976743816
        },
        {
          "name": "E7",
          "midi": 100,
          "time": 105.59302325580259,
          "velocity": 0.25984251968503935,
          "duration": 0.11627906976741542
        },
        {
          "name": "F7",
          "midi": 101,
          "time": 105.59302325580259,
          "velocity": 0.25984251968503935,
          "duration": 0.12790697674415696
        },
        {
          "name": "F#7",
          "midi": 102,
          "time": 105.59302325580259,
          "velocity": 0.2125984251968504,
          "duration": 0.05813953488370771
        },
        {
          "name": "G7",
          "midi": 103,
          "time": 105.59302325580259,
          "velocity": 0.1889763779527559,
          "duration": 0.06976744186044925
        },
        {
          "name": "G2",
          "midi": 43,
          "time": 105.60465116277933,
          "velocity": 0.2677165354330709,
          "duration": 0.023255813953483084
        },
        {
          "name": "A#5",
          "midi": 82,
          "time": 105.60465116277933,
          "velocity": 0.13385826771653545,
          "duration": 0.034883720930224626
        },
        {
          "name": "A6",
          "midi": 93,
          "time": 105.60465116277933,
          "velocity": 0.2992125984251969,
          "duration": 0.05813953488370771
        },
        {
          "name": "D#7",
          "midi": 99,
          "time": 105.60465116277933,
          "velocity": 0.3228346456692913,
          "duration": 0.06976744186044925
        },
        {
          "name": "F#4",
          "midi": 66,
          "time": 105.61627906975608,
          "velocity": 0.25984251968503935,
          "duration": 0.023255813953483084
        },
        {
          "name": "D#6",
          "midi": 87,
          "time": 105.62790697673282,
          "velocity": 0.2283464566929134,
          "duration": 0.1395348837208985
        },
        {
          "name": "F#3",
          "midi": 54,
          "time": 105.63953488370956,
          "velocity": 0.30708661417322836,
          "duration": 0.034883720930224626
        },
        {
          "name": "G#4",
          "midi": 68,
          "time": 105.6511627906863,
          "velocity": 0.29133858267716534,
          "duration": 0.37209302325574356
        },
        {
          "name": "A#5",
          "midi": 82,
          "time": 105.6511627906863,
          "velocity": 0.2283464566929134,
          "duration": 0.23255813953483084
        },
        {
          "name": "G#6",
          "midi": 92,
          "time": 105.6511627906863,
          "velocity": 0.25984251968503935,
          "duration": 0.0813953488371908
        },
        {
          "name": "A#4",
          "midi": 70,
          "time": 105.66279069766304,
          "velocity": 0.3937007874015748,
          "duration": 0.20930232558134776
        },
        {
          "name": "F5",
          "midi": 77,
          "time": 105.66279069766304,
          "velocity": 0.3228346456692913,
          "duration": 0.20930232558134776
        },
        {
          "name": "A#3",
          "midi": 58,
          "time": 105.67441860463978,
          "velocity": 0.5196850393700787,
          "duration": 0.31395348837203585
        },
        {
          "name": "F#7",
          "midi": 102,
          "time": 105.67441860463978,
          "velocity": 0.11023622047244094,
          "duration": 0.09302325581393234
        },
        {
          "name": "F#3",
          "midi": 54,
          "time": 105.73255813952349,
          "velocity": 0.28346456692913385,
          "duration": 0.023255813953483084
        },
        {
          "name": "D#6",
          "midi": 87,
          "time": 105.7906976744072,
          "velocity": 0.4645669291338583,
          "duration": 0.3023255813952943
        },
        {
          "name": "E3",
          "midi": 52,
          "time": 105.80232558138394,
          "velocity": 0.2992125984251969,
          "duration": 0.023255813953483084
        },
        {
          "name": "F3",
          "midi": 53,
          "time": 105.82558139533742,
          "velocity": 0.33070866141732286,
          "duration": 0.13953488372091272
        },
        {
          "name": "C5",
          "midi": 72,
          "time": 105.8488372092909,
          "velocity": 0.14960629921259844,
          "duration": 0.10465116279068809
        },
        {
          "name": "B4",
          "midi": 71,
          "time": 105.9534883720816,
          "velocity": 0.3543307086614173,
          "duration": 0.05813953488370771
        },
        {
          "name": "A#5",
          "midi": 82,
          "time": 105.9534883720816,
          "velocity": 0.36220472440944884,
          "duration": 0.37209302325574356
        },
        {
          "name": "C#4",
          "midi": 61,
          "time": 105.96511627905834,
          "velocity": 0.3779527559055118,
          "duration": 0.034883720930224626
        },
        {
          "name": "C#6",
          "midi": 85,
          "time": 105.96511627905834,
          "velocity": 0.3228346456692913,
          "duration": 0.023255813953483084
        },
        {
          "name": "D5",
          "midi": 74,
          "time": 105.97674418603508,
          "velocity": 0.48031496062992124,
          "duration": 0.04651162790696617
        },
        {
          "name": "F5",
          "midi": 77,
          "time": 105.97674418603508,
          "velocity": 0.36220472440944884,
          "duration": 0.04651162790696617
        },
        {
          "name": "F#7",
          "midi": 102,
          "time": 105.97674418603508,
          "velocity": 0.2047244094488189,
          "duration": 0.04651162790696617
        },
        {
          "name": "D#4",
          "midi": 63,
          "time": 106.0116279069653,
          "velocity": 0.33070866141732286,
          "duration": 0.05813953488370771
        },
        {
          "name": "D#5",
          "midi": 75,
          "time": 106.02325581394204,
          "velocity": 0.4015748031496063,
          "duration": 0.06976744186044925
        },
        {
          "name": "C#6",
          "midi": 85,
          "time": 106.02325581394204,
          "velocity": 0.2204724409448819,
          "duration": 0.04651162790696617
        },
        {
          "name": "A#4",
          "midi": 70,
          "time": 106.03488372091878,
          "velocity": 0.3779527559055118,
          "duration": 0.4069767441859682
        },
        {
          "name": "F5",
          "midi": 77,
          "time": 106.03488372091878,
          "velocity": 0.11023622047244094,
          "duration": 0.034883720930224626
        },
        {
          "name": "G6",
          "midi": 91,
          "time": 106.03488372091878,
          "velocity": 0.07086614173228346,
          "duration": 0.034883720930224626
        },
        {
          "name": "D#3",
          "midi": 51,
          "time": 106.04651162789553,
          "velocity": 0.33070866141732286,
          "duration": 0.18604651162787889
        },
        {
          "name": "D4",
          "midi": 62,
          "time": 106.06976744184901,
          "velocity": 0.33858267716535434,
          "duration": 0.034883720930224626
        },
        {
          "name": "D6",
          "midi": 86,
          "time": 106.06976744184901,
          "velocity": 0.14960629921259844,
          "duration": 0.05813953488370771
        },
        {
          "name": "F6",
          "midi": 89,
          "time": 106.09302325580249,
          "velocity": 0.12598425196850394,
          "duration": 0.13953488372091272
        },
        {
          "name": "D#4",
          "midi": 63,
          "time": 106.10465116277923,
          "velocity": 0.44881889763779526,
          "duration": 0.15116279069765426
        },
        {
          "name": "D#6",
          "midi": 87,
          "time": 106.11627906975598,
          "velocity": 0.36220472440944884,
          "duration": 0.2790697674418112
        },
        {
          "name": "G6",
          "midi": 91,
          "time": 106.13953488370946,
          "velocity": 0.47244094488188976,
          "duration": 0.10465116279068809
        },
        {
          "name": "B0",
          "midi": 23,
          "time": 106.1511627906862,
          "velocity": 0.36220472440944884,
          "duration": 0.09302325581394655
        },
        {
          "name": "A3",
          "midi": 57,
          "time": 106.1511627906862,
          "velocity": 0.11023622047244094,
          "duration": 0.04651162790698038
        },
        {
          "name": "G#4",
          "midi": 68,
          "time": 106.1511627906862,
          "velocity": 0.30708661417322836,
          "duration": 0.03488372093023884
        },
        {
          "name": "F7",
          "midi": 101,
          "time": 106.1511627906862,
          "velocity": 0.14960629921259844,
          "duration": 0.081395348837205
        },
        {
          "name": "A#3",
          "midi": 58,
          "time": 106.19767441859318,
          "velocity": 0.2440944881889764,
          "duration": 0.04651162790696617
        },
        {
          "name": "F#4",
          "midi": 66,
          "time": 106.19767441859318,
          "velocity": 0.2125984251968504,
          "duration": 0.034883720930224626
        },
        {
          "name": "C#7",
          "midi": 97,
          "time": 106.19767441859318,
          "velocity": 0.11023622047244094,
          "duration": 0.034883720930224626
        },
        {
          "name": "G#6",
          "midi": 92,
          "time": 106.20930232556992,
          "velocity": 0.3700787401574803,
          "duration": 0.11627906976741542
        },
        {
          "name": "C7",
          "midi": 96,
          "time": 106.22093023254666,
          "velocity": 0.2440944881889764,
          "duration": 0.09302325581393234
        },
        {
          "name": "A#0",
          "midi": 22,
          "time": 106.24418604650015,
          "velocity": 0.23622047244094488,
          "duration": 0.023255813953483084
        },
        {
          "name": "C#3",
          "midi": 49,
          "time": 106.25581395347689,
          "velocity": 0.30708661417322836,
          "duration": 0.10465116279067388
        },
        {
          "name": "G#4",
          "midi": 68,
          "time": 106.25581395347689,
          "velocity": 0.12598425196850394,
          "duration": 0.04651162790696617
        },
        {
          "name": "F5",
          "midi": 77,
          "time": 106.25581395347689,
          "velocity": 0.07086614173228346,
          "duration": 0.06976744186044925
        },
        {
          "name": "F6",
          "midi": 89,
          "time": 106.25581395347689,
          "velocity": 0.25196850393700787,
          "duration": 0.3023255813952801
        },
        {
          "name": "C#4",
          "midi": 61,
          "time": 106.27906976743037,
          "velocity": 0.3937007874015748,
          "duration": 0.04651162790696617
        },
        {
          "name": "G#4",
          "midi": 68,
          "time": 106.33720930231408,
          "velocity": 0.25196850393700787,
          "duration": 0.04651162790696617
        },
        {
          "name": "G3",
          "midi": 55,
          "time": 106.34883720929082,
          "velocity": 0.2992125984251969,
          "duration": 0.034883720930224626
        },
        {
          "name": "D5",
          "midi": 74,
          "time": 106.34883720929082,
          "velocity": 0.13385826771653545,
          "duration": 0.04651162790696617
        },
        {
          "name": "C#3",
          "midi": 49,
          "time": 106.3720930232443,
          "velocity": 0.28346456692913385,
          "duration": 0.06976744186044925
        },
        {
          "name": "F5",
          "midi": 77,
          "time": 106.3720930232443,
          "velocity": 0.2440944881889764,
          "duration": 0.04651162790696617
        },
        {
          "name": "A#3",
          "midi": 58,
          "time": 106.39534883719779,
          "velocity": 0.28346456692913385,
          "duration": 0.034883720930224626
        },
        {
          "name": "F4",
          "midi": 65,
          "time": 106.39534883719779,
          "velocity": 0.3543307086614173,
          "duration": 0.06976744186044925
        },
        {
          "name": "F#5",
          "midi": 78,
          "time": 106.40697674417453,
          "velocity": 0.15748031496062992,
          "duration": 0.034883720930224626
        },
        {
          "name": "B5",
          "midi": 83,
          "time": 106.40697674417453,
          "velocity": 0.4015748031496063,
          "duration": 0.04651162790696617
        },
        {
          "name": "E7",
          "midi": 100,
          "time": 106.40697674417453,
          "velocity": 0.1732283464566929,
          "duration": 0.0813953488371908
        },
        {
          "name": "C5",
          "midi": 72,
          "time": 106.41860465115127,
          "velocity": 0.31496062992125984,
          "duration": 0.04651162790696617
        },
        {
          "name": "D#6",
          "midi": 87,
          "time": 106.41860465115127,
          "velocity": 0.3937007874015748,
          "duration": 0.4651162790696617
        },
        {
          "name": "F5",
          "midi": 77,
          "time": 106.43023255812801,
          "velocity": 0.5433070866141733,
          "duration": 0.45348837209292014
        },
        {
          "name": "A5",
          "midi": 81,
          "time": 106.43023255812801,
          "velocity": 0.2125984251968504,
          "duration": 0.04651162790696617
        },
        {
          "name": "G6",
          "midi": 91,
          "time": 106.43023255812801,
          "velocity": 0.28346456692913385,
          "duration": 0.24418604651157239
        },
        {
          "name": "A#6",
          "midi": 94,
          "time": 106.43023255812801,
          "velocity": 0.16535433070866143,
          "duration": 0.10465116279067388
        },
        {
          "name": "C3",
          "midi": 48,
          "time": 106.44186046510475,
          "velocity": 0.3937007874015748,
          "duration": 0.034883720930224626
        },
        {
          "name": "A#3",
          "midi": 58,
          "time": 106.44186046510475,
          "velocity": 0.5196850393700787,
          "duration": 0.10465116279067388
        },
        {
          "name": "G#4",
          "midi": 68,
          "time": 106.44186046510475,
          "velocity": 0.31496062992125984,
          "duration": 0.09302325581393234
        },
        {
          "name": "C6",
          "midi": 84,
          "time": 106.44186046510475,
          "velocity": 0.3858267716535433,
          "duration": 0.09302325581393234
        },
        {
          "name": "F#1",
          "midi": 30,
          "time": 106.4534883720815,
          "velocity": 0.6377952755905512,
          "duration": 0.011627906976741542
        },
        {
          "name": "A#5",
          "midi": 82,
          "time": 106.4534883720815,
          "velocity": 0.3937007874015748,
          "duration": 0.3837209302324709
        },
        {
          "name": "F1",
          "midi": 29,
          "time": 106.46511627905824,
          "velocity": 0.7165354330708661,
          "duration": 0.011627906976741542
        },
        {
          "name": "D#4",
          "midi": 63,
          "time": 106.46511627905824,
          "velocity": 0.2204724409448819,
          "duration": 0.04651162790696617
        },
        {
          "name": "E1",
          "midi": 28,
          "time": 106.47674418603498,
          "velocity": 0.7244094488188977,
          "duration": 0.011627906976741542
        },
        {
          "name": "D#1",
          "midi": 27,
          "time": 106.48837209301172,
          "velocity": 0.7480314960629921,
          "duration": 1.2441860465114019
        },
        {
          "name": "G3",
          "midi": 55,
          "time": 106.49999999998846,
          "velocity": 0.5354330708661418,
          "duration": 0.3255813953487632
        },
        {
          "name": "G5",
          "midi": 79,
          "time": 106.49999999998846,
          "velocity": 0.16535433070866143,
          "duration": 0.1627906976743816
        },
        {
          "name": "A2",
          "midi": 45,
          "time": 106.5116279069652,
          "velocity": 0.41732283464566927,
          "duration": 0.023255813953483084
        },
        {
          "name": "A6",
          "midi": 93,
          "time": 106.52325581394194,
          "velocity": 0.18110236220472442,
          "duration": 0.04651162790696617
        },
        {
          "name": "A#2",
          "midi": 46,
          "time": 106.53488372091869,
          "velocity": 0.4251968503937008,
          "duration": 0.023255813953483084
        },
        {
          "name": "A5",
          "midi": 81,
          "time": 106.53488372091869,
          "velocity": 0.2125984251968504,
          "duration": 0.04651162790696617
        },
        {
          "name": "G#4",
          "midi": 68,
          "time": 106.54651162789543,
          "velocity": 0.4409448818897638,
          "duration": 0.3023255813952801
        },
        {
          "name": "D5",
          "midi": 74,
          "time": 106.54651162789543,
          "velocity": 0.13385826771653545,
          "duration": 0.034883720930224626
        },
        {
          "name": "D6",
          "midi": 86,
          "time": 106.54651162789543,
          "velocity": 0.1889763779527559,
          "duration": 0.034883720930224626
        },
        {
          "name": "B6",
          "midi": 95,
          "time": 106.55813953487217,
          "velocity": 0.2992125984251969,
          "duration": 0.04651162790696617
        },
        {
          "name": "A#2",
          "midi": 46,
          "time": 106.56976744184891,
          "velocity": 0.4251968503937008,
          "duration": 0.034883720930224626
        },
        {
          "name": "D#5",
          "midi": 75,
          "time": 106.58139534882565,
          "velocity": 0.4015748031496063,
          "duration": 0.04651162790696617
        },
        {
          "name": "C#7",
          "midi": 97,
          "time": 106.58139534882565,
          "velocity": 0.28346456692913385,
          "duration": 0.04651162790696617
        },
        {
          "name": "F7",
          "midi": 101,
          "time": 106.58139534882565,
          "velocity": 0.2125984251968504,
          "duration": 0.05813953488370771
        },
        {
          "name": "D4",
          "midi": 62,
          "time": 106.62790697673262,
          "velocity": 0.29133858267716534,
          "duration": 0.034883720930224626
        },
        {
          "name": "F#7",
          "midi": 102,
          "time": 106.62790697673262,
          "velocity": 0.2047244094488189,
          "duration": 0.06976744186044925
        },
        {
          "name": "A#2",
          "midi": 46,
          "time": 106.63953488370936,
          "velocity": 0.41732283464566927,
          "duration": 0.023255813953483084
        },
        {
          "name": "C#5",
          "midi": 73,
          "time": 106.63953488370936,
          "velocity": 0.33070866141732286,
          "duration": 0.023255813953483084
        },
        {
          "name": "A#2",
          "midi": 46,
          "time": 106.67441860463958,
          "velocity": 0.4251968503937008,
          "duration": 0.0813953488371908
        },
        {
          "name": "B4",
          "midi": 71,
          "time": 106.67441860463958,
          "velocity": 0.2440944881889764,
          "duration": 0.023255813953483084
        },
        {
          "name": "D6",
          "midi": 86,
          "time": 106.67441860463958,
          "velocity": 0.07086614173228346,
          "duration": 0.04651162790696617
        },
        {
          "name": "D#4",
          "midi": 63,
          "time": 106.68604651161633,
          "velocity": 0.10236220472440945,
          "duration": 0.034883720930224626
        },
        {
          "name": "F#7",
          "midi": 102,
          "time": 106.72093023254655,
          "velocity": 0.2440944881889764,
          "duration": 0.06976744186044925
        },
        {
          "name": "D#5",
          "midi": 75,
          "time": 106.73255813952329,
          "velocity": 0.13385826771653545,
          "duration": 0.034883720930224626
        },
        {
          "name": "E7",
          "midi": 100,
          "time": 106.73255813952329,
          "velocity": 0.1968503937007874,
          "duration": 0.034883720930224626
        },
        {
          "name": "G7",
          "midi": 103,
          "time": 106.73255813952329,
          "velocity": 0.1732283464566929,
          "duration": 0.06976744186044925
        },
        {
          "name": "F4",
          "midi": 65,
          "time": 106.74418604650003,
          "velocity": 0.10236220472440945,
          "duration": 0.04651162790696617
        },
        {
          "name": "A#2",
          "midi": 46,
          "time": 106.76744186045352,
          "velocity": 0.4251968503937008,
          "duration": 0.1395348837208985
        },
        {
          "name": "A#3",
          "midi": 58,
          "time": 106.80232558138374,
          "velocity": 0.48031496062992124,
          "duration": 0.023255813953483084
        },
        {
          "name": "G#6",
          "midi": 92,
          "time": 106.82558139533722,
          "velocity": 0.25984251968503935,
          "duration": 0.05813953488370771
        },
        {
          "name": "A#4",
          "midi": 70,
          "time": 106.83720930231397,
          "velocity": 0.4015748031496063,
          "duration": 0.034883720930224626
        },
        {
          "name": "B5",
          "midi": 83,
          "time": 106.83720930231397,
          "velocity": 0.3464566929133858,
          "duration": 0.11627906976742963
        },
        {
          "name": "G6",
          "midi": 91,
          "time": 106.83720930231397,
          "velocity": 0.11811023622047244,
          "duration": 0.12790697674417117
        },
        {
          "name": "A#6",
          "midi": 94,
          "time": 106.83720930231397,
          "velocity": 0.30708661417322836,
          "duration": 0.04651162790696617
        },
        {
          "name": "C7",
          "midi": 96,
          "time": 106.8488372092907,
          "velocity": 0.25196850393700787,
          "duration": 0.05813953488370771
        },
        {
          "name": "D7",
          "midi": 98,
          "time": 106.8488372092907,
          "velocity": 0.18110236220472442,
          "duration": 0.034883720930224626
        },
        {
          "name": "G3",
          "midi": 55,
          "time": 106.86046511626745,
          "velocity": 0.4566929133858268,
          "duration": 0.11627906976742963
        },
        {
          "name": "A#3",
          "midi": 58,
          "time": 106.86046511626745,
          "velocity": 0.4645669291338583,
          "duration": 0.034883720930224626
        },
        {
          "name": "G#4",
          "midi": 68,
          "time": 106.86046511626745,
          "velocity": 0.3858267716535433,
          "duration": 0.5232558139533978
        },
        {
          "name": "B4",
          "midi": 71,
          "time": 106.86046511626745,
          "velocity": 0.3779527559055118,
          "duration": 0.18604651162787889
        },
        {
          "name": "C#7",
          "midi": 97,
          "time": 106.86046511626745,
          "velocity": 0.3700787401574803,
          "duration": 0.09302325581394655
        },
        {
          "name": "F#5",
          "midi": 78,
          "time": 106.87209302324419,
          "velocity": 0.1889763779527559,
          "duration": 0.081395348837205
        },
        {
          "name": "D6",
          "midi": 86,
          "time": 106.88372093022093,
          "velocity": 0.11023622047244094,
          "duration": 0.034883720930224626
        },
        {
          "name": "B3",
          "midi": 59,
          "time": 106.89534883719767,
          "velocity": 0.44881889763779526,
          "duration": 0.05813953488372192
        },
        {
          "name": "D#6",
          "midi": 87,
          "time": 106.90697674417441,
          "velocity": 0.23622047244094488,
          "duration": 0.13953488372091272
        },
        {
          "name": "A#2",
          "midi": 46,
          "time": 106.91860465115116,
          "velocity": 0.41732283464566927,
          "duration": 0.22093023255811772
        },
        {
          "name": "A#5",
          "midi": 82,
          "time": 106.9534883720814,
          "velocity": 0.2755905511811024,
          "duration": 0.1627906976743958
        },
        {
          "name": "A#3",
          "midi": 58,
          "time": 106.96511627905814,
          "velocity": 0.49606299212598426,
          "duration": 0.10465116279067388
        },
        {
          "name": "D7",
          "midi": 98,
          "time": 106.97674418603488,
          "velocity": 0.1889763779527559,
          "duration": 0.05813953488370771
        },
        {
          "name": "F5",
          "midi": 77,
          "time": 106.99999999998836,
          "velocity": 0.44881889763779526,
          "duration": 0.12790697674417117
        },
        {
          "name": "E4",
          "midi": 64,
          "time": 107.02325581394184,
          "velocity": 0.08661417322834646,
          "duration": 0.034883720930224626
        },
        {
          "name": "G3",
          "midi": 55,
          "time": 107.03488372091859,
          "velocity": 0.4094488188976378,
          "duration": 0.11627906976742963
        },
        {
          "name": "D6",
          "midi": 86,
          "time": 107.03488372091859,
          "velocity": 0.2992125984251969,
          "duration": 0.18604651162787889
        },
        {
          "name": "G#6",
          "midi": 92,
          "time": 107.03488372091859,
          "velocity": 0.2047244094488189,
          "duration": 0.10465116279068809
        },
        {
          "name": "C7",
          "midi": 96,
          "time": 107.03488372091859,
          "velocity": 0.18110236220472442,
          "duration": 0.11627906976742963
        },
        {
          "name": "C#7",
          "midi": 97,
          "time": 107.03488372091859,
          "velocity": 0.2283464566929134,
          "duration": 0.023255813953483084
        },
        {
          "name": "D#6",
          "midi": 87,
          "time": 107.05813953487207,
          "velocity": 0.29133858267716534,
          "duration": 0.3837209302324851
        },
        {
          "name": "B4",
          "midi": 71,
          "time": 107.06976744184881,
          "velocity": 0.3779527559055118,
          "duration": 0.03488372093023884
        },
        {
          "name": "A#4",
          "midi": 70,
          "time": 107.10465116277905,
          "velocity": 0.3937007874015748,
          "duration": 0.023255813953483084
        },
        {
          "name": "F#6",
          "midi": 90,
          "time": 107.11627906975579,
          "velocity": 0.14960629921259844,
          "duration": 0.034883720930224626
        },
        {
          "name": "B4",
          "midi": 71,
          "time": 107.12790697673253,
          "velocity": 0.2125984251968504,
          "duration": 0.034883720930224626
        },
        {
          "name": "F#5",
          "midi": 78,
          "time": 107.12790697673253,
          "velocity": 0.31496062992125984,
          "duration": 0.023255813953483084
        },
        {
          "name": "A#2",
          "midi": 46,
          "time": 107.15116279068602,
          "velocity": 0.36220472440944884,
          "duration": 0.04651162790696617
        },
        {
          "name": "G3",
          "midi": 55,
          "time": 107.16279069766276,
          "velocity": 0.3779527559055118,
          "duration": 0.034883720930224626
        },
        {
          "name": "A#4",
          "midi": 70,
          "time": 107.18604651161624,
          "velocity": 0.16535433070866143,
          "duration": 0.034883720930224626
        },
        {
          "name": "F5",
          "midi": 77,
          "time": 107.18604651161624,
          "velocity": 0.09448818897637795,
          "duration": 0.04651162790696617
        },
        {
          "name": "F#3",
          "midi": 54,
          "time": 107.19767441859298,
          "velocity": 0.3543307086614173,
          "duration": 0.034883720930224626
        },
        {
          "name": "A#2",
          "midi": 46,
          "time": 107.20930232556972,
          "velocity": 0.3464566929133858,
          "duration": 0.05813953488370771
        },
        {
          "name": "G3",
          "midi": 55,
          "time": 107.2325581395232,
          "velocity": 0.3779527559055118,
          "duration": 0.06976744186044925
        },
        {
          "name": "B4",
          "midi": 71,
          "time": 107.24418604649995,
          "velocity": 0.5275590551181102,
          "duration": 0.09302325581393234
        },
        {
          "name": "D6",
          "midi": 86,
          "time": 107.24418604649995,
          "velocity": 0.11811023622047244,
          "duration": 0.05813953488370771
        },
        {
          "name": "F5",
          "midi": 77,
          "time": 107.25581395347669,
          "velocity": 0.2440944881889764,
          "duration": 0.20930232558134776
        },
        {
          "name": "F#6",
          "midi": 90,
          "time": 107.26744186045343,
          "velocity": 0.3858267716535433,
          "duration": 0.10465116279067388
        },
        {
          "name": "A#2",
          "midi": 46,
          "time": 107.27906976743017,
          "velocity": 0.3228346456692913,
          "duration": 0.04651162790696617
        },
        {
          "name": "A6",
          "midi": 93,
          "time": 107.27906976743017,
          "velocity": 0.30708661417322836,
          "duration": 0.10465116279067388
        },
        {
          "name": "A#3",
          "midi": 58,
          "time": 107.30232558138366,
          "velocity": 0.3543307086614173,
          "duration": 0.0813953488371908
        },
        {
          "name": "G#6",
          "midi": 92,
          "time": 107.30232558138366,
          "velocity": 0.29133858267716534,
          "duration": 0.0813953488371908
        },
        {
          "name": "C7",
          "midi": 96,
          "time": 107.30232558138366,
          "velocity": 0.31496062992125984,
          "duration": 0.12790697674415696
        },
        {
          "name": "D7",
          "midi": 98,
          "time": 107.30232558138366,
          "velocity": 0.3228346456692913,
          "duration": 0.0813953488371908
        },
        {
          "name": "E4",
          "midi": 64,
          "time": 107.3139534883604,
          "velocity": 0.25196850393700787,
          "duration": 0.04651162790696617
        },
        {
          "name": "A#5",
          "midi": 82,
          "time": 107.3139534883604,
          "velocity": 0.25984251968503935,
          "duration": 0.3488372093022747
        },
        {
          "name": "E6",
          "midi": 88,
          "time": 107.3139534883604,
          "velocity": 0.14173228346456693,
          "duration": 0.034883720930224626
        },
        {
          "name": "A#6",
          "midi": 94,
          "time": 107.3139534883604,
          "velocity": 0.30708661417322836,
          "duration": 0.05813953488370771
        },
        {
          "name": "C#7",
          "midi": 97,
          "time": 107.3139534883604,
          "velocity": 0.31496062992125984,
          "duration": 0.06976744186044925
        },
        {
          "name": "E7",
          "midi": 100,
          "time": 107.3139534883604,
          "velocity": 0.2125984251968504,
          "duration": 0.06976744186044925
        },
        {
          "name": "F7",
          "midi": 101,
          "time": 107.3139534883604,
          "velocity": 0.2992125984251969,
          "duration": 0.06976744186044925
        },
        {
          "name": "G7",
          "midi": 103,
          "time": 107.3139534883604,
          "velocity": 0.2047244094488189,
          "duration": 0.06976744186044925
        },
        {
          "name": "A#2",
          "midi": 46,
          "time": 107.33720930231388,
          "velocity": 0.33070866141732286,
          "duration": 0.05813953488370771
        },
        {
          "name": "D6",
          "midi": 86,
          "time": 107.33720930231388,
          "velocity": 0.11023622047244094,
          "duration": 0.05813953488370771
        },
        {
          "name": "B4",
          "midi": 71,
          "time": 107.34883720929062,
          "velocity": 0.3779527559055118,
          "duration": 0.023255813953483084
        },
        {
          "name": "G3",
          "midi": 55,
          "time": 107.36046511626736,
          "velocity": 0.31496062992125984,
          "duration": 0.023255813953483084
        },
        {
          "name": "A#4",
          "midi": 70,
          "time": 107.3720930232441,
          "velocity": 0.3937007874015748,
          "duration": 0.09302325581393234
        },
        {
          "name": "A#3",
          "midi": 58,
          "time": 107.39534883719759,
          "velocity": 0.31496062992125984,
          "duration": 0.034883720930224626
        },
        {
          "name": "G#4",
          "midi": 68,
          "time": 107.39534883719759,
          "velocity": 0.31496062992125984,
          "duration": 0.15116279069764005
        },
        {
          "name": "A#2",
          "midi": 46,
          "time": 107.40697674417433,
          "velocity": 0.30708661417322836,
          "duration": 0.04651162790696617
        },
        {
          "name": "A3",
          "midi": 57,
          "time": 107.43023255812781,
          "velocity": 0.31496062992125984,
          "duration": 0.023255813953483084
        },
        {
          "name": "F#5",
          "midi": 78,
          "time": 107.4534883720813,
          "velocity": 0.2755905511811024,
          "duration": 0.0813953488371908
        },
        {
          "name": "A#2",
          "midi": 46,
          "time": 107.46511627905804,
          "velocity": 0.2992125984251969,
          "duration": 0.034883720930224626
        },
        {
          "name": "B3",
          "midi": 59,
          "time": 107.46511627905804,
          "velocity": 0.48031496062992124,
          "duration": 0.034883720930224626
        },
        {
          "name": "B4",
          "midi": 71,
          "time": 107.46511627905804,
          "velocity": 0.4881889763779528,
          "duration": 0.06976744186044925
        },
        {
          "name": "D#6",
          "midi": 87,
          "time": 107.46511627905804,
          "velocity": 0.2125984251968504,
          "duration": 0.20930232558137618
        },
        {
          "name": "D#3",
          "midi": 51,
          "time": 107.48837209301152,
          "velocity": 0.30708661417322836,
          "duration": 0.2441860465116008
        },
        {
          "name": "F#6",
          "midi": 90,
          "time": 107.48837209301152,
          "velocity": 0.30708661417322836,
          "duration": 0.05813953488370771
        },
        {
          "name": "A#3",
          "midi": 58,
          "time": 107.49999999998826,
          "velocity": 0.41732283464566927,
          "duration": 0.16279069767441
        },
        {
          "name": "G#6",
          "midi": 92,
          "time": 107.511627906965,
          "velocity": 0.25984251968503935,
          "duration": 0.081395348837205
        },
        {
          "name": "F6",
          "midi": 89,
          "time": 107.52325581394174,
          "velocity": 0.33858267716535434,
          "duration": 0.7558139534882287
        },
        {
          "name": "A#4",
          "midi": 70,
          "time": 107.53488372091849,
          "velocity": 0.4251968503937008,
          "duration": 0.15116279069766847
        },
        {
          "name": "F5",
          "midi": 77,
          "time": 107.53488372091849,
          "velocity": 0.33070866141732286,
          "duration": 0.15116279069766847
        },
        {
          "name": "D6",
          "midi": 86,
          "time": 107.54651162789523,
          "velocity": 0.14960629921259844,
          "duration": 0.1046511627907023
        },
        {
          "name": "C7",
          "midi": 96,
          "time": 107.54651162789523,
          "velocity": 0.12598425196850394,
          "duration": 0.03488372093023884
        },
        {
          "name": "E7",
          "midi": 100,
          "time": 107.59302325580221,
          "velocity": 0.15748031496062992,
          "duration": 0.10465116279068809
        },
        {
          "name": "G#4",
          "midi": 68,
          "time": 107.60465116277895,
          "velocity": 0.30708661417322836,
          "duration": 0.04651162790698038
        },
        {
          "name": "G#4",
          "midi": 68,
          "time": 107.66279069766267,
          "velocity": 0.2755905511811024,
          "duration": 0.034883720930224626
        },
        {
          "name": "D6",
          "midi": 86,
          "time": 107.67441860463941,
          "velocity": 0.2204724409448819,
          "duration": 0.10465116279067388
        },
        {
          "name": "B4",
          "midi": 71,
          "time": 107.68604651161615,
          "velocity": 0.4251968503937008,
          "duration": 0.023255813953483084
        },
        {
          "name": "G#6",
          "midi": 92,
          "time": 107.68604651161615,
          "velocity": 0.28346456692913385,
          "duration": 0.09302325581393234
        },
        {
          "name": "F5",
          "midi": 77,
          "time": 107.6976744185929,
          "velocity": 0.2755905511811024,
          "duration": 0.10465116279067388
        },
        {
          "name": "D#6",
          "midi": 87,
          "time": 107.6976744185929,
          "velocity": 0.14960629921259844,
          "duration": 0.05813953488370771
        },
        {
          "name": "A#6",
          "midi": 94,
          "time": 107.6976744185929,
          "velocity": 0.13385826771653545,
          "duration": 0.04651162790696617
        },
        {
          "name": "C7",
          "midi": 96,
          "time": 107.6976744185929,
          "velocity": 0.12598425196850394,
          "duration": 0.034883720930224626
        },
        {
          "name": "D#7",
          "midi": 99,
          "time": 107.6976744185929,
          "velocity": 0.2440944881889764,
          "duration": 0.034883720930224626
        },
        {
          "name": "A#4",
          "midi": 70,
          "time": 107.70930232556964,
          "velocity": 0.4330708661417323,
          "duration": 0.0813953488371908
        },
        {
          "name": "B0",
          "midi": 23,
          "time": 107.73255813952312,
          "velocity": 0.5511811023622047,
          "duration": 0.011627906976741542
        },
        {
          "name": "F3",
          "midi": 53,
          "time": 107.73255813952312,
          "velocity": 0.4645669291338583,
          "duration": 0.034883720930224626
        },
        {
          "name": "C#1",
          "midi": 25,
          "time": 107.74418604649986,
          "velocity": 0.6456692913385826,
          "duration": 0.011627906976741542
        },
        {
          "name": "A2",
          "midi": 45,
          "time": 107.74418604649986,
          "velocity": 0.4330708661417323,
          "duration": 0.023255813953483084
        },
        {
          "name": "D#4",
          "midi": 63,
          "time": 107.74418604649986,
          "velocity": 0.3937007874015748,
          "duration": 0.5232558139533694
        },
        {
          "name": "D#7",
          "midi": 99,
          "time": 107.74418604649986,
          "velocity": 0.2283464566929134,
          "duration": 0.023255813953483084
        },
        {
          "name": "D1",
          "midi": 26,
          "time": 107.7558139534766,
          "velocity": 0.6929133858267716,
          "duration": 0.011627906976741542
        },
        {
          "name": "C1",
          "midi": 24,
          "time": 107.76744186045335,
          "velocity": 0.6929133858267716,
          "duration": 0.011627906976741542
        },
        {
          "name": "F#3",
          "midi": 54,
          "time": 107.76744186045335,
          "velocity": 0.44881889763779526,
          "duration": 0.023255813953483084
        },
        {
          "name": "G6",
          "midi": 91,
          "time": 107.76744186045335,
          "velocity": 0.07874015748031496,
          "duration": 0.0813953488371908
        },
        {
          "name": "B0",
          "midi": 23,
          "time": 107.77906976743009,
          "velocity": 0.7322834645669292,
          "duration": 0.3604651162789878
        },
        {
          "name": "F3",
          "midi": 53,
          "time": 107.79069767440683,
          "velocity": 0.5118110236220472,
          "duration": 0.011627906976741542
        },
        {
          "name": "A4",
          "midi": 69,
          "time": 107.79069767440683,
          "velocity": 0.3464566929133858,
          "duration": 0.023255813953483084
        },
        {
          "name": "C#5",
          "midi": 73,
          "time": 107.79069767440683,
          "velocity": 0.14173228346456693,
          "duration": 0.18604651162786467
        },
        {
          "name": "B3",
          "midi": 59,
          "time": 107.80232558138357,
          "velocity": 0.30708661417322836,
          "duration": 0.023255813953483084
        },
        {
          "name": "F2",
          "midi": 41,
          "time": 107.8372093023138,
          "velocity": 0.4409448818897638,
          "duration": 0.023255813953483084
        },
        {
          "name": "D3",
          "midi": 50,
          "time": 107.8372093023138,
          "velocity": 0.48031496062992124,
          "duration": 0.023255813953483084
        },
        {
          "name": "A4",
          "midi": 69,
          "time": 107.8372093023138,
          "velocity": 0.33858267716535434,
          "duration": 0.023255813953483084
        },
        {
          "name": "A#5",
          "midi": 82,
          "time": 107.8372093023138,
          "velocity": 0.25984251968503935,
          "duration": 0.18604651162786467
        },
        {
          "name": "F5",
          "midi": 77,
          "time": 107.84883720929054,
          "velocity": 0.28346456692913385,
          "duration": 0.11627906976741542
        },
        {
          "name": "D#3",
          "midi": 51,
          "time": 107.86046511626728,
          "velocity": 0.5118110236220472,
          "duration": 0.011627906976741542
        },
        {
          "name": "A#4",
          "midi": 70,
          "time": 107.86046511626728,
          "velocity": 0.5354330708661418,
          "duration": 0.10465116279067388
        },
        {
          "name": "D#6",
          "midi": 87,
          "time": 107.87209302324402,
          "velocity": 0.11023622047244094,
          "duration": 0.034883720930224626
        },
        {
          "name": "D#3",
          "midi": 51,
          "time": 107.88372093022076,
          "velocity": 0.5196850393700787,
          "duration": 0.023255813953483084
        },
        {
          "name": "D6",
          "midi": 86,
          "time": 107.88372093022076,
          "velocity": 0.16535433070866143,
          "duration": 0.04651162790696617
        },
        {
          "name": "D#7",
          "midi": 99,
          "time": 107.8953488371975,
          "velocity": 0.18110236220472442,
          "duration": 0.0813953488371908
        },
        {
          "name": "G#6",
          "midi": 92,
          "time": 107.90697674417424,
          "velocity": 0.2204724409448819,
          "duration": 0.034883720930224626
        },
        {
          "name": "A#6",
          "midi": 94,
          "time": 107.90697674417424,
          "velocity": 0.2755905511811024,
          "duration": 0.06976744186044925
        },
        {
          "name": "D#3",
          "midi": 51,
          "time": 107.91860465115099,
          "velocity": 0.5118110236220472,
          "duration": 0.023255813953483084
        },
        {
          "name": "C7",
          "midi": 96,
          "time": 107.93023255812773,
          "velocity": 0.2283464566929134,
          "duration": 0.04651162790696617
        },
        {
          "name": "D#3",
          "midi": 51,
          "time": 107.95348837208121,
          "velocity": 0.5118110236220472,
          "duration": 0.023255813953483084
        },
        {
          "name": "C#7",
          "midi": 97,
          "time": 107.95348837208121,
          "velocity": 0.11023622047244094,
          "duration": 0.034883720930224626
        },
        {
          "name": "B6",
          "midi": 95,
          "time": 107.96511627905795,
          "velocity": 0.1889763779527559,
          "duration": 0.034883720930224626
        },
        {
          "name": "D#3",
          "midi": 51,
          "time": 107.98837209301144,
          "velocity": 0.5196850393700787,
          "duration": 0.011627906976741542
        },
        {
          "name": "D3",
          "midi": 50,
          "time": 107.99999999998818,
          "velocity": 0.5354330708661418,
          "duration": 0.011627906976741542
        },
        {
          "name": "F#4",
          "midi": 66,
          "time": 107.99999999998818,
          "velocity": 0.1889763779527559,
          "duration": 0.0813953488371908
        },
        {
          "name": "D#3",
          "midi": 51,
          "time": 108.01162790696492,
          "velocity": 0.5039370078740157,
          "duration": 0.023255813953483084
        },
        {
          "name": "C#5",
          "midi": 73,
          "time": 108.01162790696492,
          "velocity": 0.16535433070866143,
          "duration": 0.0813953488371908
        },
        {
          "name": "A#4",
          "midi": 70,
          "time": 108.02325581394166,
          "velocity": 0.3779527559055118,
          "duration": 0.4999999999998863
        },
        {
          "name": "D3",
          "midi": 50,
          "time": 108.0348837209184,
          "velocity": 0.5118110236220472,
          "duration": 0.011627906976741542
        },
        {
          "name": "D#3",
          "midi": 51,
          "time": 108.04651162789514,
          "velocity": 0.49606299212598426,
          "duration": 0.023255813953483084
        },
        {
          "name": "F#2",
          "midi": 42,
          "time": 108.05813953487188,
          "velocity": 0.47244094488188976,
          "duration": 0.023255813953483084
        },
        {
          "name": "D#3",
          "midi": 51,
          "time": 108.08139534882537,
          "velocity": 0.5748031496062992,
          "duration": 0.023255813953483084
        },
        {
          "name": "D#6",
          "midi": 87,
          "time": 108.08139534882537,
          "velocity": 0.2204724409448819,
          "duration": 0.034883720930224626
        },
        {
          "name": "F2",
          "midi": 41,
          "time": 108.09302325580211,
          "velocity": 0.5196850393700787,
          "duration": 0.011627906976741542
        },
        {
          "name": "G6",
          "midi": 91,
          "time": 108.09302325580211,
          "velocity": 0.2677165354330709,
          "duration": 0.2558139534883139
        },
        {
          "name": "F#2",
          "midi": 42,
          "time": 108.10465116277885,
          "velocity": 0.5196850393700787,
          "duration": 0.011627906976741542
        },
        {
          "name": "D3",
          "midi": 50,
          "time": 108.10465116277885,
          "velocity": 0.5433070866141733,
          "duration": 0.011627906976741542
        },
        {
          "name": "C#5",
          "midi": 73,
          "time": 108.10465116277885,
          "velocity": 0.2047244094488189,
          "duration": 0.06976744186044925
        },
        {
          "name": "A6",
          "midi": 93,
          "time": 108.10465116277885,
          "velocity": 0.14173228346456693,
          "duration": 0.06976744186044925
        },
        {
          "name": "D#3",
          "midi": 51,
          "time": 108.11627906975559,
          "velocity": 0.5118110236220472,
          "duration": 0.29069767441853855
        },
        {
          "name": "C7",
          "midi": 96,
          "time": 108.11627906975559,
          "velocity": 0.10236220472440945,
          "duration": 0.04651162790696617
        },
        {
          "name": "C1",
          "midi": 24,
          "time": 108.13953488370908,
          "velocity": 0.7244094488188977,
          "duration": 0.011627906976741542
        },
        {
          "name": "F#2",
          "midi": 42,
          "time": 108.13953488370908,
          "velocity": 0.4330708661417323,
          "duration": 0.023255813953483084
        },
        {
          "name": "F#4",
          "midi": 66,
          "time": 108.13953488370908,
          "velocity": 0.11811023622047244,
          "duration": 0.05813953488370771
        },
        {
          "name": "G#6",
          "midi": 92,
          "time": 108.13953488370908,
          "velocity": 0.28346456692913385,
          "duration": 0.3023255813952801
        },
        {
          "name": "B0",
          "midi": 23,
          "time": 108.15116279068582,
          "velocity": 0.7165354330708661,
          "duration": 0.011627906976741542
        },
        {
          "name": "A#6",
          "midi": 94,
          "time": 108.15116279068582,
          "velocity": 0.2440944881889764,
          "duration": 0.05813953488370771
        },
        {
          "name": "A#0",
          "midi": 22,
          "time": 108.16279069766256,
          "velocity": 0.7086614173228346,
          "duration": 0.011627906976741542
        },
        {
          "name": "D#6",
          "midi": 87,
          "time": 108.16279069766256,
          "velocity": 0.11023622047244094,
          "duration": 0.034883720930224626
        },
        {
          "name": "F#6",
          "midi": 90,
          "time": 108.16279069766256,
          "velocity": 0.1732283464566929,
          "duration": 0.034883720930224626
        },
        {
          "name": "B6",
          "midi": 95,
          "time": 108.16279069766256,
          "velocity": 0.14173228346456693,
          "duration": 0.05813953488370771
        },
        {
          "name": "B0",
          "midi": 23,
          "time": 108.1744186046393,
          "velocity": 0.7165354330708661,
          "duration": 0.011627906976741542
        },
        {
          "name": "D5",
          "midi": 74,
          "time": 108.1744186046393,
          "velocity": 0.18110236220472442,
          "duration": 0.034883720930224626
        },
        {
          "name": "C1",
          "midi": 24,
          "time": 108.18604651161604,
          "velocity": 0.7165354330708661,
          "duration": 0.011627906976741542
        },
        {
          "name": "B0",
          "midi": 23,
          "time": 108.19767441859278,
          "velocity": 0.7165354330708661,
          "duration": 0.8604651162789025
        },
        {
          "name": "F#2",
          "midi": 42,
          "time": 108.22093023254627,
          "velocity": 0.48031496062992124,
          "duration": 0.023255813953483084
        },
        {
          "name": "A6",
          "midi": 93,
          "time": 108.24418604649975,
          "velocity": 0.2755905511811024,
          "duration": 0.11627906976741542
        },
        {
          "name": "F4",
          "midi": 65,
          "time": 108.25581395347649,
          "velocity": 0.3228346456692913,
          "duration": 0.034883720930224626
        },
        {
          "name": "C#5",
          "midi": 73,
          "time": 108.25581395347649,
          "velocity": 0.15748031496062992,
          "duration": 0.48837209302314477
        },
        {
          "name": "B6",
          "midi": 95,
          "time": 108.26744186045323,
          "velocity": 0.12598425196850394,
          "duration": 0.06976744186044925
        },
        {
          "name": "C7",
          "midi": 96,
          "time": 108.26744186045323,
          "velocity": 0.12598425196850394,
          "duration": 0.034883720930224626
        },
        {
          "name": "C6",
          "midi": 84,
          "time": 108.29069767440672,
          "velocity": 0.11023622047244094,
          "duration": 0.0813953488371908
        },
        {
          "name": "A#6",
          "midi": 94,
          "time": 108.30232558138346,
          "velocity": 0.25984251968503935,
          "duration": 0.15116279069764005
        },
        {
          "name": "G2",
          "midi": 43,
          "time": 108.3139534883602,
          "velocity": 0.4094488188976378,
          "duration": 0.023255813953483084
        },
        {
          "name": "F6",
          "midi": 89,
          "time": 108.3139534883602,
          "velocity": 0.2047244094488189,
          "duration": 0.04651162790696617
        },
        {
          "name": "E6",
          "midi": 88,
          "time": 108.33720930231368,
          "velocity": 0.1732283464566929,
          "duration": 0.0813953488371908
        },
        {
          "name": "F#2",
          "midi": 42,
          "time": 108.34883720929042,
          "velocity": 0.4330708661417323,
          "duration": 0.023255813953483084
        },
        {
          "name": "F4",
          "midi": 65,
          "time": 108.34883720929042,
          "velocity": 0.3228346456692913,
          "duration": 0.023255813953483084
        },
        {
          "name": "F#6",
          "midi": 90,
          "time": 108.34883720929042,
          "velocity": 0.2204724409448819,
          "duration": 0.09302325581393234
        },
        {
          "name": "G6",
          "midi": 91,
          "time": 108.36046511626716,
          "velocity": 0.2125984251968504,
          "duration": 0.06976744186044925
        },
        {
          "name": "B6",
          "midi": 95,
          "time": 108.3720930232439,
          "velocity": 0.25196850393700787,
          "duration": 0.09302325581393234
        },
        {
          "name": "D7",
          "midi": 98,
          "time": 108.3720930232439,
          "velocity": 0.2992125984251969,
          "duration": 0.05813953488370771
        },
        {
          "name": "F#2",
          "midi": 42,
          "time": 108.38372093022065,
          "velocity": 0.4566929133858268,
          "duration": 0.023255813953483084
        },
        {
          "name": "A6",
          "midi": 93,
          "time": 108.38372093022065,
          "velocity": 0.2755905511811024,
          "duration": 0.04651162790696617
        },
        {
          "name": "C7",
          "midi": 96,
          "time": 108.38372093022065,
          "velocity": 0.29133858267716534,
          "duration": 0.06976744186044925
        },
        {
          "name": "C#7",
          "midi": 97,
          "time": 108.38372093022065,
          "velocity": 0.25984251968503935,
          "duration": 0.10465116279067388
        },
        {
          "name": "D#7",
          "midi": 99,
          "time": 108.38372093022065,
          "velocity": 0.28346456692913385,
          "duration": 0.0813953488371908
        },
        {
          "name": "F7",
          "midi": 101,
          "time": 108.38372093022065,
          "velocity": 0.25984251968503935,
          "duration": 0.12790697674415696
        },
        {
          "name": "D#6",
          "midi": 87,
          "time": 108.40697674417413,
          "velocity": 0.15748031496062992,
          "duration": 0.034883720930224626
        },
        {
          "name": "F#2",
          "midi": 42,
          "time": 108.41860465115087,
          "velocity": 0.4566929133858268,
          "duration": 0.023255813953483084
        },
        {
          "name": "D#3",
          "midi": 51,
          "time": 108.41860465115087,
          "velocity": 0.41732283464566927,
          "duration": 0.0813953488371908
        },
        {
          "name": "E7",
          "midi": 100,
          "time": 108.41860465115087,
          "velocity": 0.2440944881889764,
          "duration": 0.04651162790696617
        },
        {
          "name": "G#4",
          "midi": 68,
          "time": 108.43023255812761,
          "velocity": 0.14173228346456693,
          "duration": 0.034883720930224626
        },
        {
          "name": "C6",
          "midi": 84,
          "time": 108.43023255812761,
          "velocity": 0.10236220472440945,
          "duration": 0.1627906976743816
        },
        {
          "name": "F6",
          "midi": 89,
          "time": 108.44186046510436,
          "velocity": 0.2125984251968504,
          "duration": 0.5930232558138471
        },
        {
          "name": "F#2",
          "midi": 42,
          "time": 108.46511627905784,
          "velocity": 0.4094488188976378,
          "duration": 0.023255813953483084
        },
        {
          "name": "F4",
          "midi": 65,
          "time": 108.48837209301132,
          "velocity": 0.30708661417322836,
          "duration": 0.034883720930224626
        },
        {
          "name": "F#2",
          "midi": 42,
          "time": 108.5116279069648,
          "velocity": 0.4015748031496063,
          "duration": 0.023255813953483084
        },
        {
          "name": "F#4",
          "midi": 66,
          "time": 108.5116279069648,
          "velocity": 0.3700787401574803,
          "duration": 0.04651162790696617
        },
        {
          "name": "A#3",
          "midi": 58,
          "time": 108.52325581394155,
          "velocity": 0.48031496062992124,
          "duration": 0.05813953488370771
        },
        {
          "name": "F#7",
          "midi": 102,
          "time": 108.52325581394155,
          "velocity": 0.12598425196850394,
          "duration": 0.04651162790696617
        },
        {
          "name": "D#4",
          "midi": 63,
          "time": 108.53488372091829,
          "velocity": 0.33858267716535434,
          "duration": 0.23255813953483084
        },
        {
          "name": "A#4",
          "midi": 70,
          "time": 108.53488372091829,
          "velocity": 0.5275590551181102,
          "duration": 0.10465116279067388
        },
        {
          "name": "F5",
          "midi": 77,
          "time": 108.53488372091829,
          "velocity": 0.1889763779527559,
          "duration": 0.09302325581393234
        },
        {
          "name": "D7",
          "midi": 98,
          "time": 108.53488372091829,
          "velocity": 0.2283464566929134,
          "duration": 0.2558139534883139
        },
        {
          "name": "D#7",
          "midi": 99,
          "time": 108.53488372091829,
          "velocity": 0.11023622047244094,
          "duration": 0.04651162790696617
        },
        {
          "name": "D#3",
          "midi": 51,
          "time": 108.54651162789503,
          "velocity": 0.4015748031496063,
          "duration": 0.023255813953483084
        },
        {
          "name": "C7",
          "midi": 96,
          "time": 108.54651162789503,
          "velocity": 0.2677165354330709,
          "duration": 0.19767441860460622
        },
        {
          "name": "D#3",
          "midi": 51,
          "time": 108.58139534882525,
          "velocity": 0.4015748031496063,
          "duration": 0.023255813953483084
        },
        {
          "name": "A#3",
          "midi": 58,
          "time": 108.593023255802,
          "velocity": 0.28346456692913385,
          "duration": 0.034883720930224626
        },
        {
          "name": "F#7",
          "midi": 102,
          "time": 108.60465116277874,
          "velocity": 0.13385826771653545,
          "duration": 0.10465116279067388
        },
        {
          "name": "F#2",
          "midi": 42,
          "time": 108.62790697673222,
          "velocity": 0.3779527559055118,
          "duration": 0.023255813953483084
        },
        {
          "name": "A3",
          "midi": 57,
          "time": 108.62790697673222,
          "velocity": 0.30708661417322836,
          "duration": 0.023255813953483084
        },
        {
          "name": "G7",
          "midi": 103,
          "time": 108.62790697673222,
          "velocity": 0.1889763779527559,
          "duration": 0.10465116279067388
        },
        {
          "name": "D#7",
          "midi": 99,
          "time": 108.63953488370896,
          "velocity": 0.15748031496062992,
          "duration": 0.1627906976743816
        },
        {
          "name": "G#4",
          "midi": 68,
          "time": 108.6511627906857,
          "velocity": 0.47244094488188976,
          "duration": 0.10465116279067388
        },
        {
          "name": "A#5",
          "midi": 82,
          "time": 108.6511627906857,
          "velocity": 0.18110236220472442,
          "duration": 0.10465116279067388
        },
        {
          "name": "A#6",
          "midi": 94,
          "time": 108.6511627906857,
          "velocity": 0.18110236220472442,
          "duration": 0.12790697674415696
        },
        {
          "name": "E7",
          "midi": 100,
          "time": 108.6511627906857,
          "velocity": 0.18110236220472442,
          "duration": 0.12790697674415696
        },
        {
          "name": "A3",
          "midi": 57,
          "time": 108.67441860463919,
          "velocity": 0.33858267716535434,
          "duration": 0.023255813953483084
        },
        {
          "name": "A#4",
          "midi": 70,
          "time": 108.67441860463919,
          "velocity": 0.29133858267716534,
          "duration": 0.023255813953483084
        },
        {
          "name": "A#4",
          "midi": 70,
          "time": 108.70930232556941,
          "velocity": 0.3700787401574803,
          "duration": 0.290697674418567
        },
        {
          "name": "C#7",
          "midi": 97,
          "time": 108.72093023254615,
          "velocity": 0.16535433070866143,
          "duration": 0.09302325581393234
        },
        {
          "name": "B6",
          "midi": 95,
          "time": 108.74418604649964,
          "velocity": 0.18110236220472442,
          "duration": 0.04651162790696617
        },
        {
          "name": "F#4",
          "midi": 66,
          "time": 108.75581395347638,
          "velocity": 0.4015748031496063,
          "duration": 0.25581395348834235
        },
        {
          "name": "C#5",
          "midi": 73,
          "time": 108.76744186045312,
          "velocity": 0.2755905511811024,
          "duration": 0.023255813953483084
        },
        {
          "name": "C7",
          "midi": 96,
          "time": 108.76744186045312,
          "velocity": 0.09448818897637795,
          "duration": 0.034883720930224626
        },
        {
          "name": "D#4",
          "midi": 63,
          "time": 108.77906976742986,
          "velocity": 0.3937007874015748,
          "duration": 0.23255813953485927
        },
        {
          "name": "F#3",
          "midi": 54,
          "time": 108.7906976744066,
          "velocity": 0.2992125984251969,
          "duration": 0.023255813953483084
        },
        {
          "name": "C#5",
          "midi": 73,
          "time": 108.81395348836008,
          "velocity": 0.2047244094488189,
          "duration": 0.20930232558137618
        },
        {
          "name": "F#3",
          "midi": 54,
          "time": 108.82558139533683,
          "velocity": 0.2992125984251969,
          "duration": 0.023255813953483084
        },
        {
          "name": "F#3",
          "midi": 54,
          "time": 108.86046511626705,
          "velocity": 0.3543307086614173,
          "duration": 0.023255813953483084
        },
        {
          "name": "A3",
          "midi": 57,
          "time": 108.953488372081,
          "velocity": 0.4094488188976378,
          "duration": 0.03488372093023884
        },
        {
          "name": "A#3",
          "midi": 58,
          "time": 108.98837209301124,
          "velocity": 0.4330708661417323,
          "duration": 0.023255813953483084
        },
        {
          "name": "A4",
          "midi": 69,
          "time": 108.99999999998798,
          "velocity": 0.4645669291338583,
          "duration": 0.034883720930224626
        },
        {
          "name": "E5",
          "midi": 76,
          "time": 108.99999999998798,
          "velocity": 0.3779527559055118,
          "duration": 0.023255813953483084
        },
        {
          "name": "D#6",
          "midi": 87,
          "time": 108.99999999998798,
          "velocity": 0.18110236220472442,
          "duration": 0.17441860465112313
        },
        {
          "name": "G6",
          "midi": 91,
          "time": 108.99999999998798,
          "velocity": 0.2204724409448819,
          "duration": 0.04651162790696617
        },
        {
          "name": "G#6",
          "midi": 92,
          "time": 108.99999999998798,
          "velocity": 0.1968503937007874,
          "duration": 0.05813953488370771
        },
        {
          "name": "E7",
          "midi": 100,
          "time": 108.99999999998798,
          "velocity": 0.23622047244094488,
          "duration": 0.15116279069764005
        },
        {
          "name": "A6",
          "midi": 93,
          "time": 109.01162790696472,
          "velocity": 0.3543307086614173,
          "duration": 0.11627906976741542
        },
        {
          "name": "D#7",
          "midi": 99,
          "time": 109.01162790696472,
          "velocity": 0.31496062992125984,
          "duration": 0.17441860465112313
        },
        {
          "name": "F7",
          "midi": 101,
          "time": 109.01162790696472,
          "velocity": 0.28346456692913385,
          "duration": 0.09302325581393234
        },
        {
          "name": "F#7",
          "midi": 102,
          "time": 109.01162790696472,
          "velocity": 0.28346456692913385,
          "duration": 0.20930232558134776
        },
        {
          "name": "F#3",
          "midi": 54,
          "time": 109.02325581394146,
          "velocity": 0.2992125984251969,
          "duration": 0.023255813953483084
        },
        {
          "name": "F5",
          "midi": 77,
          "time": 109.02325581394146,
          "velocity": 0.4251968503937008,
          "duration": 0.023255813953483084
        },
        {
          "name": "B5",
          "midi": 83,
          "time": 109.02325581394146,
          "velocity": 0.2047244094488189,
          "duration": 0.10465116279067388
        },
        {
          "name": "D6",
          "midi": 86,
          "time": 109.02325581394146,
          "velocity": 0.2047244094488189,
          "duration": 0.034883720930224626
        },
        {
          "name": "A#6",
          "midi": 94,
          "time": 109.02325581394146,
          "velocity": 0.31496062992125984,
          "duration": 0.06976744186044925
        },
        {
          "name": "B6",
          "midi": 95,
          "time": 109.02325581394146,
          "velocity": 0.3700787401574803,
          "duration": 0.11627906976741542
        },
        {
          "name": "C7",
          "midi": 96,
          "time": 109.02325581394146,
          "velocity": 0.2677165354330709,
          "duration": 0.06976744186044925
        },
        {
          "name": "D7",
          "midi": 98,
          "time": 109.02325581394146,
          "velocity": 0.33070866141732286,
          "duration": 0.05813953488370771
        },
        {
          "name": "B3",
          "midi": 59,
          "time": 109.0348837209182,
          "velocity": 0.4566929133858268,
          "duration": 0.10465116279067388
        },
        {
          "name": "C#7",
          "midi": 97,
          "time": 109.0348837209182,
          "velocity": 0.2992125984251969,
          "duration": 0.11627906976741542
        },
        {
          "name": "F3",
          "midi": 53,
          "time": 109.04651162789494,
          "velocity": 0.3464566929133858,
          "duration": 0.1627906976743816
        },
        {
          "name": "F#4",
          "midi": 66,
          "time": 109.04651162789494,
          "velocity": 0.23622047244094488,
          "duration": 0.023255813953483084
        },
        {
          "name": "F#5",
          "midi": 78,
          "time": 109.04651162789494,
          "velocity": 0.4881889763779528,
          "duration": 0.0813953488371908
        },
        {
          "name": "C#6",
          "midi": 85,
          "time": 109.04651162789494,
          "velocity": 0.14173228346456693,
          "duration": 0.034883720930224626
        },
        {
          "name": "A#0",
          "midi": 22,
          "time": 109.05813953487169,
          "velocity": 0.5748031496062992,
          "duration": 0.023255813953483084
        },
        {
          "name": "G4",
          "midi": 67,
          "time": 109.06976744184843,
          "velocity": 0.2677165354330709,
          "duration": 0.023255813953483084
        },
        {
          "name": "C1",
          "midi": 24,
          "time": 109.08139534882517,
          "velocity": 0.5748031496062992,
          "duration": 0.011627906976741542
        },
        {
          "name": "B0",
          "midi": 23,
          "time": 109.09302325580191,
          "velocity": 0.5748031496062992,
          "duration": 0.360465116279002
        },
        {
          "name": "G#4",
          "midi": 68,
          "time": 109.09302325580191,
          "velocity": 0.4094488188976378,
          "duration": 0.19767441860460622
        },
        {
          "name": "F5",
          "midi": 77,
          "time": 109.12790697673213,
          "velocity": 0.3779527559055118,
          "duration": 0.11627906976741542
        },
        {
          "name": "A#5",
          "midi": 82,
          "time": 109.12790697673213,
          "velocity": 0.25984251968503935,
          "duration": 0.17441860465112313
        },
        {
          "name": "A#3",
          "midi": 58,
          "time": 109.13953488370888,
          "velocity": 0.3779527559055118,
          "duration": 0.05813953488370771
        },
        {
          "name": "C5",
          "midi": 72,
          "time": 109.13953488370888,
          "velocity": 0.12598425196850394,
          "duration": 0.05813953488370771
        },
        {
          "name": "G6",
          "midi": 91,
          "time": 109.13953488370888,
          "velocity": 0.2204724409448819,
          "duration": 0.034883720930224626
        },
        {
          "name": "D6",
          "midi": 86,
          "time": 109.15116279068562,
          "velocity": 0.2204724409448819,
          "duration": 0.05813953488370771
        },
        {
          "name": "C6",
          "midi": 84,
          "time": 109.18604651161584,
          "velocity": 0.31496062992125984,
          "duration": 0.09302325581393234
        },
        {
          "name": "D#5",
          "midi": 75,
          "time": 109.19767441859258,
          "velocity": 0.4409448818897638,
          "duration": 0.0813953488371908
        },
        {
          "name": "C5",
          "midi": 72,
          "time": 109.20930232556933,
          "velocity": 0.09448818897637795,
          "duration": 0.034883720930224626
        },
        {
          "name": "A#4",
          "midi": 70,
          "time": 109.23255813952281,
          "velocity": 0.25196850393700787,
          "duration": 0.034883720930224626
        },
        {
          "name": "F#3",
          "midi": 54,
          "time": 109.27906976742977,
          "velocity": 0.31496062992125984,
          "duration": 0.034883720930224626
        },
        {
          "name": "F#4",
          "midi": 66,
          "time": 109.27906976742977,
          "velocity": 0.3858267716535433,
          "duration": 0.04651162790696617
        },
        {
          "name": "A#4",
          "midi": 70,
          "time": 109.27906976742977,
          "velocity": 0.1889763779527559,
          "duration": 0.04651162790696617
        },
        {
          "name": "C#5",
          "midi": 73,
          "time": 109.27906976742977,
          "velocity": 0.3858267716535433,
          "duration": 0.17441860465113734
        },
        {
          "name": "F5",
          "midi": 77,
          "time": 109.27906976742977,
          "velocity": 0.2755905511811024,
          "duration": 0.09302325581393234
        },
        {
          "name": "A#3",
          "midi": 58,
          "time": 109.30232558138326,
          "velocity": 0.28346456692913385,
          "duration": 0.06976744186044925
        },
        {
          "name": "G#4",
          "midi": 68,
          "time": 109.30232558138326,
          "velocity": 0.2677165354330709,
          "duration": 0.1627906976743958
        },
        {
          "name": "F3",
          "midi": 53,
          "time": 109.31395348836,
          "velocity": 0.28346456692913385,
          "duration": 0.023255813953483084
        },
        {
          "name": "E4",
          "midi": 64,
          "time": 109.33720930231348,
          "velocity": 0.2283464566929134,
          "duration": 0.023255813953483084
        },
        {
          "name": "A#5",
          "midi": 82,
          "time": 109.33720930231348,
          "velocity": 0.1968503937007874,
          "duration": 0.05813953488370771
        },
        {
          "name": "E3",
          "midi": 52,
          "time": 109.34883720929022,
          "velocity": 0.4015748031496063,
          "duration": 0.023255813953483084
        },
        {
          "name": "F#5",
          "midi": 78,
          "time": 109.3720930232437,
          "velocity": 0.28346456692913385,
          "duration": 0.18604651162787889
        },
        {
          "name": "B4",
          "midi": 71,
          "time": 109.43023255812743,
          "velocity": 0.1732283464566929,
          "duration": 0.06976744186044925
        },
        {
          "name": "D#5",
          "midi": 75,
          "time": 109.43023255812743,
          "velocity": 0.28346456692913385,
          "duration": 0.2441860465115866
        },
        {
          "name": "B3",
          "midi": 59,
          "time": 109.44186046510417,
          "velocity": 0.3858267716535433,
          "duration": 0.11627906976741542
        },
        {
          "name": "G#3",
          "midi": 56,
          "time": 109.4767441860344,
          "velocity": 0.3228346456692913,
          "duration": 0.023255813953483084
        },
        {
          "name": "G4",
          "midi": 67,
          "time": 109.4767441860344,
          "velocity": 0.2204724409448819,
          "duration": 0.04651162790696617
        },
        {
          "name": "B0",
          "midi": 23,
          "time": 109.48837209301114,
          "velocity": 0.4330708661417323,
          "duration": 0.18604651162787889
        },
        {
          "name": "B5",
          "midi": 83,
          "time": 109.51162790696462,
          "velocity": 0.14960629921259844,
          "duration": 0.05813953488370771
        },
        {
          "name": "A#4",
          "midi": 70,
          "time": 109.5348837209181,
          "velocity": 0.3700787401574803,
          "duration": 0.3953488372092835
        },
        {
          "name": "F6",
          "midi": 89,
          "time": 109.5348837209181,
          "velocity": 0.10236220472440945,
          "duration": 0.06976744186046346
        },
        {
          "name": "G#3",
          "midi": 56,
          "time": 109.54651162789484,
          "velocity": 0.3700787401574803,
          "duration": 0.023255813953483084
        },
        {
          "name": "F5",
          "midi": 77,
          "time": 109.55813953487159,
          "velocity": 0.23622047244094488,
          "duration": 0.05813953488372192
        },
        {
          "name": "E4",
          "midi": 64,
          "time": 109.60465116277857,
          "velocity": 0.1732283464566929,
          "duration": 0.034883720930224626
        },
        {
          "name": "A3",
          "midi": 57,
          "time": 109.63953488370879,
          "velocity": 0.3858267716535433,
          "duration": 0.034883720930224626
        },
        {
          "name": "F5",
          "midi": 77,
          "time": 109.65116279068553,
          "velocity": 0.33070866141732286,
          "duration": 0.2093023255814046
        },
        {
          "name": "D6",
          "midi": 86,
          "time": 109.65116279068553,
          "velocity": 0.13385826771653545,
          "duration": 0.05813953488372192
        },
        {
          "name": "A#3",
          "midi": 58,
          "time": 109.67441860463902,
          "velocity": 0.3543307086614173,
          "duration": 0.19767441860466306
        },
        {
          "name": "A5",
          "midi": 81,
          "time": 109.8255813953367,
          "velocity": 0.14173228346456693,
          "duration": 0.03488372093023884
        },
        {
          "name": "F#5",
          "midi": 78,
          "time": 109.86046511626694,
          "velocity": 0.2047244094488189,
          "duration": 0.034883720930224626
        },
        {
          "name": "F5",
          "midi": 77,
          "time": 109.87209302324368,
          "velocity": 0.3779527559055118,
          "duration": 0.2906976744186096
        },
        {
          "name": "F#1",
          "midi": 30,
          "time": 109.88372093022042,
          "velocity": 0.6929133858267716,
          "duration": 0.023255813953483084
        },
        {
          "name": "E4",
          "midi": 64,
          "time": 109.88372093022042,
          "velocity": 0.23622047244094488,
          "duration": 0.023255813953483084
        },
        {
          "name": "G#4",
          "midi": 68,
          "time": 109.88372093022042,
          "velocity": 0.4015748031496063,
          "duration": 0.3720930232558004
        },
        {
          "name": "D3",
          "midi": 50,
          "time": 109.89534883719716,
          "velocity": 0.48031496062992124,
          "duration": 0.023255813953483084
        },
        {
          "name": "A3",
          "midi": 57,
          "time": 109.89534883719716,
          "velocity": 0.41732283464566927,
          "duration": 0.023255813953483084
        },
        {
          "name": "D#6",
          "midi": 87,
          "time": 109.89534883719716,
          "velocity": 0.13385826771653545,
          "duration": 0.40697674418602503
        },
        {
          "name": "F1",
          "midi": 29,
          "time": 109.9069767441739,
          "velocity": 0.7165354330708661,
          "duration": 0.011627906976741542
        },
        {
          "name": "D#4",
          "midi": 63,
          "time": 109.9069767441739,
          "velocity": 0.25984251968503935,
          "duration": 0.034883720930224626
        },
        {
          "name": "D#1",
          "midi": 27,
          "time": 109.91860465115064,
          "velocity": 0.7401574803149606,
          "duration": 1.2441860465114303
        },
        {
          "name": "G3",
          "midi": 55,
          "time": 109.94186046510413,
          "velocity": 0.5196850393700787,
          "duration": 0.7093023255813193
        },
        {
          "name": "D5",
          "midi": 74,
          "time": 109.94186046510413,
          "velocity": 0.15748031496062992,
          "duration": 0.05813953488372192
        },
        {
          "name": "A#4",
          "midi": 70,
          "time": 109.95348837208087,
          "velocity": 0.2204724409448819,
          "duration": 0.08139534883721922
        },
        {
          "name": "A#2",
          "midi": 46,
          "time": 109.96511627905761,
          "velocity": 0.4251968503937008,
          "duration": 0.10465116279071651
        },
        {
          "name": "A#4",
          "midi": 70,
          "time": 110.06976744184833,
          "velocity": 0.14960629921259844,
          "duration": 0.05813953488372192
        },
        {
          "name": "A#2",
          "midi": 46,
          "time": 110.08139534882507,
          "velocity": 0.44881889763779526,
          "duration": 0.17441860465115155
        },
        {
          "name": "A#5",
          "midi": 82,
          "time": 110.08139534882507,
          "velocity": 0.14960629921259844,
          "duration": 0.11627906976744384
        },
        {
          "name": "A#4",
          "midi": 70,
          "time": 110.16279069766229,
          "velocity": 0.2125984251968504,
          "duration": 0.034883720930224626
        },
        {
          "name": "D#5",
          "midi": 75,
          "time": 110.16279069766229,
          "velocity": 0.11811023622047244,
          "duration": 0.04651162790696617
        },
        {
          "name": "F4",
          "midi": 65,
          "time": 110.18604651161577,
          "velocity": 0.5275590551181102,
          "duration": 0.034883720930224626
        },
        {
          "name": "G5",
          "midi": 79,
          "time": 110.18604651161577,
          "velocity": 0.14960629921259844,
          "duration": 0.034883720930224626
        },
        {
          "name": "A#5",
          "midi": 82,
          "time": 110.20930232556925,
          "velocity": 0.12598425196850394,
          "duration": 0.05813953488370771
        },
        {
          "name": "E4",
          "midi": 64,
          "time": 110.220930232546,
          "velocity": 0.5511811023622047,
          "duration": 0.023255813953483084
        },
        {
          "name": "F5",
          "midi": 77,
          "time": 110.23255813952274,
          "velocity": 0.29133858267716534,
          "duration": 0.4651162790696759
        },
        {
          "name": "C#7",
          "midi": 97,
          "time": 110.23255813952274,
          "velocity": 0.16535433070866143,
          "duration": 0.09302325581393234
        },
        {
          "name": "A#3",
          "midi": 58,
          "time": 110.24418604649948,
          "velocity": 0.49606299212598426,
          "duration": 0.023255813953483084
        },
        {
          "name": "G5",
          "midi": 79,
          "time": 110.24418604649948,
          "velocity": 0.10236220472440945,
          "duration": 0.04651162790696617
        },
        {
          "name": "F7",
          "midi": 101,
          "time": 110.24418604649948,
          "velocity": 0.10236220472440945,
          "duration": 0.034883720930224626
        },
        {
          "name": "A#2",
          "midi": 46,
          "time": 110.26744186045296,
          "velocity": 0.4330708661417323,
          "duration": 0.11627906976741542
        },
        {
          "name": "G4",
          "midi": 67,
          "time": 110.26744186045296,
          "velocity": 0.5196850393700787,
          "duration": 0.011627906976741542
        },
        {
          "name": "A#4",
          "midi": 70,
          "time": 110.26744186045296,
          "velocity": 0.3937007874015748,
          "duration": 0.04651162790696617
        },
        {
          "name": "C7",
          "midi": 96,
          "time": 110.26744186045296,
          "velocity": 0.2283464566929134,
          "duration": 0.05813953488370771
        },
        {
          "name": "E4",
          "midi": 64,
          "time": 110.2790697674297,
          "velocity": 0.09448818897637795,
          "duration": 0.034883720930224626
        },
        {
          "name": "G#4",
          "midi": 68,
          "time": 110.2790697674297,
          "velocity": 0.5669291338582677,
          "duration": 0.06976744186044925
        },
        {
          "name": "D#5",
          "midi": 75,
          "time": 110.2790697674297,
          "velocity": 0.13385826771653545,
          "duration": 0.06976744186044925
        },
        {
          "name": "B4",
          "midi": 71,
          "time": 110.31395348835993,
          "velocity": 0.41732283464566927,
          "duration": 0.034883720930224626
        },
        {
          "name": "E7",
          "midi": 100,
          "time": 110.32558139533667,
          "velocity": 0.13385826771653545,
          "duration": 0.12790697674415696
        },
        {
          "name": "D#6",
          "midi": 87,
          "time": 110.33720930231341,
          "velocity": 0.15748031496062992,
          "duration": 0.3488372093022605
        },
        {
          "name": "C7",
          "midi": 96,
          "time": 110.34883720929015,
          "velocity": 0.25984251968503935,
          "duration": 0.11627906976741542
        },
        {
          "name": "A#4",
          "midi": 70,
          "time": 110.3604651162669,
          "velocity": 0.5275590551181102,
          "duration": 0.11627906976741542
        },
        {
          "name": "F7",
          "midi": 101,
          "time": 110.3604651162669,
          "velocity": 0.13385826771653545,
          "duration": 0.034883720930224626
        },
        {
          "name": "D7",
          "midi": 98,
          "time": 110.38372093022038,
          "velocity": 0.07874015748031496,
          "duration": 0.05813953488370771
        },
        {
          "name": "A#2",
          "midi": 46,
          "time": 110.39534883719712,
          "velocity": 0.41732283464566927,
          "duration": 0.034883720930224626
        },
        {
          "name": "G#4",
          "midi": 68,
          "time": 110.39534883719712,
          "velocity": 0.30708661417322836,
          "duration": 0.05813953488370771
        },
        {
          "name": "B5",
          "midi": 83,
          "time": 110.4186046511506,
          "velocity": 0.09448818897637795,
          "duration": 0.11627906976742963
        },
        {
          "name": "D6",
          "midi": 86,
          "time": 110.4186046511506,
          "velocity": 0.16535433070866143,
          "duration": 0.05813953488370771
        },
        {
          "name": "A#2",
          "midi": 46,
          "time": 110.44186046510409,
          "velocity": 0.3937007874015748,
          "duration": 0.04651162790696617
        },
        {
          "name": "G#4",
          "midi": 68,
          "time": 110.46511627905757,
          "velocity": 0.31496062992125984,
          "duration": 0.15116279069765426
        },
        {
          "name": "B4",
          "midi": 71,
          "time": 110.47674418603431,
          "velocity": 0.3779527559055118,
          "duration": 0.06976744186046346
        },
        {
          "name": "A#2",
          "midi": 46,
          "time": 110.49999999998779,
          "velocity": 0.3937007874015748,
          "duration": 0.05813953488372192
        },
        {
          "name": "A#2",
          "midi": 46,
          "time": 110.56976744184826,
          "velocity": 0.3700787401574803,
          "duration": 0.04651162790696617
        },
        {
          "name": "A#4",
          "midi": 70,
          "time": 110.56976744184826,
          "velocity": 0.2283464566929134,
          "duration": 0.0813953488371908
        },
        {
          "name": "C7",
          "midi": 96,
          "time": 110.59302325580174,
          "velocity": 0.14173228346456693,
          "duration": 0.06976744186044925
        },
        {
          "name": "A#2",
          "midi": 46,
          "time": 110.62790697673196,
          "velocity": 0.33070866141732286,
          "duration": 0.034883720930224626
        },
        {
          "name": "G#4",
          "midi": 68,
          "time": 110.62790697673196,
          "velocity": 0.30708661417322836,
          "duration": 0.034883720930224626
        },
        {
          "name": "A#3",
          "midi": 58,
          "time": 110.65116279068545,
          "velocity": 0.5354330708661418,
          "duration": 0.04651162790696617
        },
        {
          "name": "D#3",
          "midi": 51,
          "time": 110.66279069766219,
          "velocity": 0.3464566929133858,
          "duration": 0.023255813953483084
        },
        {
          "name": "A#5",
          "midi": 82,
          "time": 110.66279069766219,
          "velocity": 0.16535433070866143,
          "duration": 0.034883720930224626
        },
        {
          "name": "G#4",
          "midi": 68,
          "time": 110.67441860463893,
          "velocity": 0.33070866141732286,
          "duration": 0.09302325581393234
        },
        {
          "name": "B4",
          "midi": 71,
          "time": 110.68604651161567,
          "velocity": 0.48031496062992124,
          "duration": 0.0813953488371908
        },
        {
          "name": "F#5",
          "midi": 78,
          "time": 110.68604651161567,
          "velocity": 0.33858267716535434,
          "duration": 0.10465116279067388
        },
        {
          "name": "C#5",
          "midi": 73,
          "time": 110.70930232556915,
          "velocity": 0.3228346456692913,
          "duration": 0.034883720930224626
        },
        {
          "name": "F#6",
          "midi": 90,
          "time": 110.70930232556915,
          "velocity": 0.33858267716535434,
          "duration": 0.10465116279067388
        },
        {
          "name": "F7",
          "midi": 101,
          "time": 110.70930232556915,
          "velocity": 0.2677165354330709,
          "duration": 0.279069767441797
        },
        {
          "name": "D#6",
          "midi": 87,
          "time": 110.7209302325459,
          "velocity": 0.1889763779527559,
          "duration": 0.06976744186044925
        },
        {
          "name": "A#3",
          "midi": 58,
          "time": 110.73255813952264,
          "velocity": 0.4015748031496063,
          "duration": 0.279069767441797
        },
        {
          "name": "A6",
          "midi": 93,
          "time": 110.73255813952264,
          "velocity": 0.3858267716535433,
          "duration": 0.04651162790696617
        },
        {
          "name": "B6",
          "midi": 95,
          "time": 110.73255813952264,
          "velocity": 0.2992125984251969,
          "duration": 0.06976744186044925
        },
        {
          "name": "D7",
          "midi": 98,
          "time": 110.73255813952264,
          "velocity": 0.33858267716535434,
          "duration": 0.05813953488370771
        },
        {
          "name": "D#7",
          "midi": 99,
          "time": 110.73255813952264,
          "velocity": 0.30708661417322836,
          "duration": 0.12790697674415696
        },
        {
          "name": "E4",
          "midi": 64,
          "time": 110.74418604649938,
          "velocity": 0.2677165354330709,
          "duration": 0.04651162790696617
        },
        {
          "name": "E6",
          "midi": 88,
          "time": 110.74418604649938,
          "velocity": 0.13385826771653545,
          "duration": 0.034883720930224626
        },
        {
          "name": "A#6",
          "midi": 94,
          "time": 110.74418604649938,
          "velocity": 0.30708661417322836,
          "duration": 0.06976744186044925
        },
        {
          "name": "C7",
          "midi": 96,
          "time": 110.74418604649938,
          "velocity": 0.31496062992125984,
          "duration": 0.1395348837208985
        },
        {
          "name": "G7",
          "midi": 103,
          "time": 110.74418604649938,
          "velocity": 0.15748031496062992,
          "duration": 0.034883720930224626
        },
        {
          "name": "F6",
          "midi": 89,
          "time": 110.75581395347612,
          "velocity": 0.1889763779527559,
          "duration": 0.034883720930224626
        },
        {
          "name": "C#7",
          "midi": 97,
          "time": 110.75581395347612,
          "velocity": 0.2755905511811024,
          "duration": 0.05813953488370771
        },
        {
          "name": "E7",
          "midi": 100,
          "time": 110.75581395347612,
          "velocity": 0.2440944881889764,
          "duration": 0.06976744186044925
        },
        {
          "name": "A#4",
          "midi": 70,
          "time": 110.76744186045286,
          "velocity": 0.5669291338582677,
          "duration": 0.9534883720928349
        },
        {
          "name": "G#5",
          "midi": 80,
          "time": 110.7790697674296,
          "velocity": 0.08661417322834646,
          "duration": 0.034883720930224626
        },
        {
          "name": "G#6",
          "midi": 92,
          "time": 110.7790697674296,
          "velocity": 0.33858267716535434,
          "duration": 0.18604651162786467
        },
        {
          "name": "D6",
          "midi": 86,
          "time": 110.79069767440635,
          "velocity": 0.11023622047244094,
          "duration": 0.04651162790696617
        },
        {
          "name": "G5",
          "midi": 79,
          "time": 110.80232558138309,
          "velocity": 0.11811023622047244,
          "duration": 0.05813953488370771
        },
        {
          "name": "D3",
          "midi": 50,
          "time": 110.81395348835983,
          "velocity": 0.30708661417322836,
          "duration": 0.023255813953483084
        },
        {
          "name": "F5",
          "midi": 77,
          "time": 110.81395348835983,
          "velocity": 0.5039370078740157,
          "duration": 0.7674418604649702
        },
        {
          "name": "D#6",
          "midi": 87,
          "time": 110.81395348835983,
          "velocity": 0.14960629921259844,
          "duration": 0.37209302325572935
        },
        {
          "name": "A#2",
          "midi": 46,
          "time": 110.82558139533657,
          "velocity": 0.29133858267716534,
          "duration": 0.04651162790696617
        },
        {
          "name": "G#4",
          "midi": 68,
          "time": 110.82558139533657,
          "velocity": 0.3700787401574803,
          "duration": 0.034883720930224626
        },
        {
          "name": "D#3",
          "midi": 51,
          "time": 110.84883720929005,
          "velocity": 0.3464566929133858,
          "duration": 0.3255813953487632
        },
        {
          "name": "D6",
          "midi": 86,
          "time": 110.8604651162668,
          "velocity": 0.1889763779527559,
          "duration": 0.26744186046505547
        },
        {
          "name": "E7",
          "midi": 100,
          "time": 110.8604651162668,
          "velocity": 0.31496062992125984,
          "duration": 0.06976744186044925
        },
        {
          "name": "G#4",
          "midi": 68,
          "time": 110.87209302324354,
          "velocity": 0.3543307086614173,
          "duration": 0.023255813953483084
        },
        {
          "name": "G#4",
          "midi": 68,
          "time": 110.90697674417376,
          "velocity": 0.3228346456692913,
          "duration": 0.04651162790696617
        },
        {
          "name": "F#7",
          "midi": 102,
          "time": 110.9186046511505,
          "velocity": 0.11811023622047244,
          "duration": 0.05813953488370771
        },
        {
          "name": "D#7",
          "midi": 99,
          "time": 110.93023255812724,
          "velocity": 0.2440944881889764,
          "duration": 0.04651162790696617
        },
        {
          "name": "G#4",
          "midi": 68,
          "time": 111.02325581394118,
          "velocity": 0.3228346456692913,
          "duration": 0.1395348837208985
        },
        {
          "name": "A#3",
          "midi": 58,
          "time": 111.03488372091792,
          "velocity": 0.4094488188976378,
          "duration": 0.023255813953483084
        },
        {
          "name": "D#5",
          "midi": 75,
          "time": 111.0581395348714,
          "velocity": 0.1889763779527559,
          "duration": 0.034883720930224626
        },
        {
          "name": "F4",
          "midi": 65,
          "time": 111.08139534882488,
          "velocity": 0.30708661417322836,
          "duration": 0.0813953488371908
        },
        {
          "name": "G#6",
          "midi": 92,
          "time": 111.08139534882488,
          "velocity": 0.23622047244094488,
          "duration": 0.023255813953483084
        },
        {
          "name": "C7",
          "midi": 96,
          "time": 111.08139534882488,
          "velocity": 0.3228346456692913,
          "duration": 0.47674418604643165
        },
        {
          "name": "A#3",
          "midi": 58,
          "time": 111.09302325580163,
          "velocity": 0.2992125984251969,
          "duration": 0.06976744186044925
        },
        {
          "name": "G5",
          "midi": 79,
          "time": 111.09302325580163,
          "velocity": 0.07086614173228346,
          "duration": 0.04651162790696617
        },
        {
          "name": "F7",
          "midi": 101,
          "time": 111.09302325580163,
          "velocity": 0.33858267716535434,
          "duration": 0.5116279069766563
        },
        {
          "name": "G7",
          "midi": 103,
          "time": 111.09302325580163,
          "velocity": 0.1732283464566929,
          "duration": 0.034883720930224626
        },
        {
          "name": "A6",
          "midi": 93,
          "time": 111.10465116277837,
          "velocity": 0.3779527559055118,
          "duration": 0.4883720930231732
        },
        {
          "name": "D#7",
          "midi": 99,
          "time": 111.10465116277837,
          "velocity": 0.2440944881889764,
          "duration": 0.47674418604643165
        },
        {
          "name": "C6",
          "midi": 84,
          "time": 111.12790697673185,
          "velocity": 0.1968503937007874,
          "duration": 0.47674418604643165
        },
        {
          "name": "C1",
          "midi": 24,
          "time": 111.16279069766207,
          "velocity": 0.6141732283464567,
          "duration": 0.023255813953483084
        },
        {
          "name": "A3",
          "midi": 57,
          "time": 111.16279069766207,
          "velocity": 0.2992125984251969,
          "duration": 0.023255813953483084
        },
        {
          "name": "D4",
          "midi": 62,
          "time": 111.16279069766207,
          "velocity": 0.33070866141732286,
          "duration": 0.023255813953483084
        },
        {
          "name": "A2",
          "midi": 45,
          "time": 111.17441860463882,
          "velocity": 0.47244094488188976,
          "duration": 0.034883720930224626
        },
        {
          "name": "D1",
          "midi": 26,
          "time": 111.18604651161556,
          "velocity": 0.6771653543307087,
          "duration": 0.011627906976741542
        },
        {
          "name": "D#4",
          "midi": 63,
          "time": 111.18604651161556,
          "velocity": 0.3464566929133858,
          "duration": 0.4302325581394655
        },
        {
          "name": "C#5",
          "midi": 73,
          "time": 111.18604651161556,
          "velocity": 0.13385826771653545,
          "duration": 0.22093023255811772
        },
        {
          "name": "C#1",
          "midi": 25,
          "time": 111.1976744185923,
          "velocity": 0.7007874015748031,
          "duration": 0.011627906976741542
        },
        {
          "name": "F#4",
          "midi": 66,
          "time": 111.1976744185923,
          "velocity": 0.23622047244094488,
          "duration": 0.04651162790698038
        },
        {
          "name": "G6",
          "midi": 91,
          "time": 111.1976744185923,
          "velocity": 0.13385826771653545,
          "duration": 0.05813953488372192
        },
        {
          "name": "B0",
          "midi": 23,
          "time": 111.20930232556904,
          "velocity": 0.7165354330708661,
          "duration": 0.04651162790698038
        },
        {
          "name": "D#3",
          "midi": 51,
          "time": 111.20930232556904,
          "velocity": 0.5354330708661418,
          "duration": 0.4302325581394655
        },
        {
          "name": "A#0",
          "midi": 22,
          "time": 111.25581395347602,
          "velocity": 0.7165354330708661,
          "duration": 0.011627906976741542
        },
        {
          "name": "B0",
          "midi": 23,
          "time": 111.26744186045276,
          "velocity": 0.7322834645669292,
          "duration": 0.23255813953484505
        },
        {
          "name": "F#4",
          "midi": 66,
          "time": 111.29069767440625,
          "velocity": 0.14960629921259844,
          "duration": 0.05813953488372192
        },
        {
          "name": "F#2",
          "midi": 42,
          "time": 111.36046511626671,
          "velocity": 0.4409448818897638,
          "duration": 0.023255813953483084
        },
        {
          "name": "F#4",
          "midi": 66,
          "time": 111.43023255812716,
          "velocity": 0.18110236220472442,
          "duration": 0.2209302325580893
        },
        {
          "name": "C#5",
          "midi": 73,
          "time": 111.45348837208064,
          "velocity": 0.11811023622047244,
          "duration": 0.15116279069764005
        },
        {
          "name": "G7",
          "midi": 103,
          "time": 111.47674418603413,
          "velocity": 0.11023622047244094,
          "duration": 0.04651162790696617
        },
        {
          "name": "A#0",
          "midi": 22,
          "time": 111.49999999998761,
          "velocity": 0.7165354330708661,
          "duration": 0.011627906976741542
        },
        {
          "name": "F2",
          "midi": 41,
          "time": 111.49999999998761,
          "velocity": 0.44881889763779526,
          "duration": 0.023255813953483084
        },
        {
          "name": "B0",
          "midi": 23,
          "time": 111.51162790696435,
          "velocity": 0.7244094488188977,
          "duration": 0.9767441860462895
        },
        {
          "name": "F#2",
          "midi": 42,
          "time": 111.52325581394109,
          "velocity": 0.4409448818897638,
          "duration": 0.023255813953483084
        },
        {
          "name": "G7",
          "midi": 103,
          "time": 111.54651162789457,
          "velocity": 0.07874015748031496,
          "duration": 0.034883720930224626
        },
        {
          "name": "G6",
          "midi": 91,
          "time": 111.56976744184806,
          "velocity": 0.1889763779527559,
          "duration": 0.11627906976741542
        },
        {
          "name": "G#5",
          "midi": 80,
          "time": 111.5813953488248,
          "velocity": 0.33858267716535434,
          "duration": 0.04651162790696617
        },
        {
          "name": "E5",
          "midi": 76,
          "time": 111.59302325580154,
          "velocity": 0.3937007874015748,
          "duration": 0.023255813953483084
        },
        {
          "name": "F#6",
          "midi": 90,
          "time": 111.59302325580154,
          "velocity": 0.2283464566929134,
          "duration": 0.09302325581393234
        },
        {
          "name": "C#5",
          "midi": 73,
          "time": 111.61627906975502,
          "velocity": 0.09448818897637795,
          "duration": 0.04651162790696617
        },
        {
          "name": "F5",
          "midi": 77,
          "time": 111.61627906975502,
          "velocity": 0.36220472440944884,
          "duration": 0.05813953488370771
        },
        {
          "name": "G5",
          "midi": 79,
          "time": 111.62790697673177,
          "velocity": 0.2677165354330709,
          "duration": 0.05813953488370771
        },
        {
          "name": "F#2",
          "midi": 42,
          "time": 111.6395348837085,
          "velocity": 0.44881889763779526,
          "duration": 0.034883720930224626
        },
        {
          "name": "E5",
          "midi": 76,
          "time": 111.6395348837085,
          "velocity": 0.33858267716535434,
          "duration": 0.034883720930224626
        },
        {
          "name": "C#6",
          "midi": 85,
          "time": 111.6395348837085,
          "velocity": 0.18110236220472442,
          "duration": 0.09302325581393234
        },
        {
          "name": "A6",
          "midi": 93,
          "time": 111.6395348837085,
          "velocity": 0.09448818897637795,
          "duration": 0.034883720930224626
        },
        {
          "name": "D#3",
          "midi": 51,
          "time": 111.65116279068525,
          "velocity": 0.4881889763779528,
          "duration": 0.0813953488371908
        },
        {
          "name": "C6",
          "midi": 84,
          "time": 111.66279069766199,
          "velocity": 0.07086614173228346,
          "duration": 0.04651162790696617
        },
        {
          "name": "G#5",
          "midi": 80,
          "time": 111.67441860463873,
          "velocity": 0.16535433070866143,
          "duration": 0.04651162790696617
        },
        {
          "name": "D#7",
          "midi": 99,
          "time": 111.67441860463873,
          "velocity": 0.1968503937007874,
          "duration": 0.06976744186044925
        },
        {
          "name": "F#2",
          "midi": 42,
          "time": 111.68604651161547,
          "velocity": 0.4330708661417323,
          "duration": 0.023255813953483084
        },
        {
          "name": "C#5",
          "midi": 73,
          "time": 111.68604651161547,
          "velocity": 0.4015748031496063,
          "duration": 0.034883720930224626
        },
        {
          "name": "F5",
          "midi": 77,
          "time": 111.70930232556896,
          "velocity": 0.33858267716535434,
          "duration": 0.19767441860460622
        },
        {
          "name": "F#2",
          "midi": 42,
          "time": 111.7209302325457,
          "velocity": 0.44881889763779526,
          "duration": 0.023255813953483084
        },
        {
          "name": "B4",
          "midi": 71,
          "time": 111.7209302325457,
          "velocity": 0.5039370078740157,
          "duration": 0.06976744186044925
        },
        {
          "name": "B3",
          "midi": 59,
          "time": 111.73255813952244,
          "velocity": 0.4251968503937008,
          "duration": 0.12790697674415696
        },
        {
          "name": "F#4",
          "midi": 66,
          "time": 111.73255813952244,
          "velocity": 0.2677165354330709,
          "duration": 0.023255813953483084
        },
        {
          "name": "A#5",
          "midi": 82,
          "time": 111.73255813952244,
          "velocity": 0.16535433070866143,
          "duration": 0.10465116279067388
        },
        {
          "name": "C6",
          "midi": 84,
          "time": 111.73255813952244,
          "velocity": 0.07086614173228346,
          "duration": 0.034883720930224626
        },
        {
          "name": "D#3",
          "midi": 51,
          "time": 111.74418604649918,
          "velocity": 0.4645669291338583,
          "duration": 0.023255813953483084
        },
        {
          "name": "C#5",
          "midi": 73,
          "time": 111.75581395347592,
          "velocity": 0.12598425196850394,
          "duration": 0.279069767441797
        },
        {
          "name": "F#2",
          "midi": 42,
          "time": 111.76744186045266,
          "velocity": 0.44881889763779526,
          "duration": 0.023255813953483084
        },
        {
          "name": "D#4",
          "midi": 63,
          "time": 111.76744186045266,
          "velocity": 0.28346456692913385,
          "duration": 0.034883720930224626
        },
        {
          "name": "F#4",
          "midi": 66,
          "time": 111.76744186045266,
          "velocity": 0.23622047244094488,
          "duration": 0.023255813953483084
        },
        {
          "name": "A6",
          "midi": 93,
          "time": 111.76744186045266,
          "velocity": 0.28346456692913385,
          "duration": 0.09302325581393234
        },
        {
          "name": "A#4",
          "midi": 70,
          "time": 111.79069767440615,
          "velocity": 0.4094488188976378,
          "duration": 0.6162790697673017
        },
        {
          "name": "C6",
          "midi": 84,
          "time": 111.79069767440615,
          "velocity": 0.1732283464566929,
          "duration": 0.24418604651157239
        },
        {
          "name": "D7",
          "midi": 98,
          "time": 111.80232558138289,
          "velocity": 0.33070866141732286,
          "duration": 0.06976744186044925
        },
        {
          "name": "E4",
          "midi": 64,
          "time": 111.81395348835963,
          "velocity": 0.3228346456692913,
          "duration": 0.023255813953483084
        },
        {
          "name": "G6",
          "midi": 91,
          "time": 111.81395348835963,
          "velocity": 0.09448818897637795,
          "duration": 0.034883720930224626
        },
        {
          "name": "A#6",
          "midi": 94,
          "time": 111.81395348835963,
          "velocity": 0.2992125984251969,
          "duration": 0.06976744186044925
        },
        {
          "name": "C7",
          "midi": 96,
          "time": 111.81395348835963,
          "velocity": 0.2440944881889764,
          "duration": 0.09302325581393234
        },
        {
          "name": "D#7",
          "midi": 99,
          "time": 111.81395348835963,
          "velocity": 0.30708661417322836,
          "duration": 0.05813953488370771
        },
        {
          "name": "F#7",
          "midi": 102,
          "time": 111.81395348835963,
          "velocity": 0.2047244094488189,
          "duration": 0.0813953488371908
        },
        {
          "name": "G7",
          "midi": 103,
          "time": 111.81395348835963,
          "velocity": 0.1968503937007874,
          "duration": 0.0813953488371908
        },
        {
          "name": "F#4",
          "midi": 66,
          "time": 111.82558139533637,
          "velocity": 0.30708661417322836,
          "duration": 0.034883720930224626
        },
        {
          "name": "F#6",
          "midi": 90,
          "time": 111.82558139533637,
          "velocity": 0.2283464566929134,
          "duration": 0.04651162790696617
        },
        {
          "name": "C#7",
          "midi": 97,
          "time": 111.82558139533637,
          "velocity": 0.31496062992125984,
          "duration": 0.05813953488370771
        },
        {
          "name": "E7",
          "midi": 100,
          "time": 111.82558139533637,
          "velocity": 0.2125984251968504,
          "duration": 0.06976744186044925
        },
        {
          "name": "D#4",
          "midi": 63,
          "time": 111.83720930231311,
          "velocity": 0.2283464566929134,
          "duration": 0.023255813953483084
        },
        {
          "name": "A5",
          "midi": 81,
          "time": 111.84883720928985,
          "velocity": 0.10236220472440945,
          "duration": 0.034883720930224626
        },
        {
          "name": "G#6",
          "midi": 92,
          "time": 111.8604651162666,
          "velocity": 0.2047244094488189,
          "duration": 0.034883720930224626
        },
        {
          "name": "D#4",
          "midi": 63,
          "time": 111.89534883719682,
          "velocity": 0.30708661417322836,
          "duration": 0.04651162790696617
        },
        {
          "name": "F4",
          "midi": 65,
          "time": 111.89534883719682,
          "velocity": 0.30708661417322836,
          "duration": 0.023255813953483084
        },
        {
          "name": "F5",
          "midi": 77,
          "time": 111.9186046511503,
          "velocity": 0.2440944881889764,
          "duration": 0.18604651162786467
        },
        {
          "name": "G6",
          "midi": 91,
          "time": 111.9186046511503,
          "velocity": 0.07086614173228346,
          "duration": 0.06976744186044925
        },
        {
          "name": "F#2",
          "midi": 42,
          "time": 111.93023255812705,
          "velocity": 0.4251968503937008,
          "duration": 0.05813953488370771
        },
        {
          "name": "F4",
          "midi": 65,
          "time": 111.94186046510379,
          "velocity": 0.31496062992125984,
          "duration": 0.023255813953483084
        },
        {
          "name": "A6",
          "midi": 93,
          "time": 111.94186046510379,
          "velocity": 0.11023622047244094,
          "duration": 0.06976744186044925
        },
        {
          "name": "D#4",
          "midi": 63,
          "time": 111.95348837208053,
          "velocity": 0.31496062992125984,
          "duration": 0.034883720930224626
        },
        {
          "name": "F4",
          "midi": 65,
          "time": 111.97674418603401,
          "velocity": 0.30708661417322836,
          "duration": 0.034883720930224626
        },
        {
          "name": "D7",
          "midi": 98,
          "time": 111.9999999999875,
          "velocity": 0.25196850393700787,
          "duration": 0.034883720930224626
        },
        {
          "name": "F#2",
          "midi": 42,
          "time": 112.01162790696424,
          "velocity": 0.4094488188976378,
          "duration": 0.023255813953483084
        },
        {
          "name": "B6",
          "midi": 95,
          "time": 112.01162790696424,
          "velocity": 0.3464566929133858,
          "duration": 0.05813953488370771
        },
        {
          "name": "C#7",
          "midi": 97,
          "time": 112.01162790696424,
          "velocity": 0.23622047244094488,
          "duration": 0.05813953488370771
        },
        {
          "name": "D#7",
          "midi": 99,
          "time": 112.01162790696424,
          "velocity": 0.3937007874015748,
          "duration": 0.10465116279067388
        },
        {
          "name": "D#4",
          "midi": 63,
          "time": 112.02325581394098,
          "velocity": 0.3700787401574803,
          "duration": 0.43023255813943706
        },
        {
          "name": "E7",
          "midi": 100,
          "time": 112.02325581394098,
          "velocity": 0.15748031496062992,
          "duration": 0.05813953488370771
        },
        {
          "name": "B3",
          "midi": 59,
          "time": 112.03488372091772,
          "velocity": 0.4015748031496063,
          "duration": 0.04651162790696617
        },
        {
          "name": "C#5",
          "midi": 73,
          "time": 112.0581395348712,
          "velocity": 0.12598425196850394,
          "duration": 0.616279069767316
        },
        {
          "name": "E3",
          "midi": 52,
          "time": 112.06976744184794,
          "velocity": 0.4015748031496063,
          "duration": 0.023255813953483084
        },
        {
          "name": "C7",
          "midi": 96,
          "time": 112.06976744184794,
          "velocity": 0.12598425196850394,
          "duration": 0.034883720930224626
        },
        {
          "name": "A#3",
          "midi": 58,
          "time": 112.08139534882469,
          "velocity": 0.33858267716535434,
          "duration": 0.023255813953483084
        },
        {
          "name": "F#2",
          "midi": 42,
          "time": 112.09302325580143,
          "velocity": 0.3858267716535433,
          "duration": 0.023255813953483084
        },
        {
          "name": "F#4",
          "midi": 66,
          "time": 112.09302325580143,
          "velocity": 0.3858267716535433,
          "duration": 0.4186046511626955
        },
        {
          "name": "G#3",
          "midi": 56,
          "time": 112.11627906975491,
          "velocity": 0.30708661417322836,
          "duration": 0.023255813953483084
        },
        {
          "name": "F#2",
          "midi": 42,
          "time": 112.12790697673165,
          "velocity": 0.36220472440944884,
          "duration": 0.023255813953483084
        },
        {
          "name": "D7",
          "midi": 98,
          "time": 112.12790697673165,
          "velocity": 0.3700787401574803,
          "duration": 0.2209302325580893
        },
        {
          "name": "G3",
          "midi": 55,
          "time": 112.15116279068513,
          "velocity": 0.4094488188976378,
          "duration": 0.023255813953483084
        },
        {
          "name": "D#7",
          "midi": 99,
          "time": 112.15116279068513,
          "velocity": 0.29133858267716534,
          "duration": 0.05813953488370771
        },
        {
          "name": "A#3",
          "midi": 58,
          "time": 112.17441860463862,
          "velocity": 0.3700787401574803,
          "duration": 0.09302325581393234
        },
        {
          "name": "F5",
          "midi": 77,
          "time": 112.18604651161536,
          "velocity": 0.07874015748031496,
          "duration": 0.06976744186044925
        },
        {
          "name": "C7",
          "midi": 96,
          "time": 112.18604651161536,
          "velocity": 0.3228346456692913,
          "duration": 0.09302325581393234
        },
        {
          "name": "F#7",
          "midi": 102,
          "time": 112.20930232556884,
          "velocity": 0.12598425196850394,
          "duration": 0.04651162790696617
        },
        {
          "name": "E7",
          "midi": 100,
          "time": 112.22093023254558,
          "velocity": 0.14960629921259844,
          "duration": 0.04651162790696617
        },
        {
          "name": "F#2",
          "midi": 42,
          "time": 112.24418604649907,
          "velocity": 0.3543307086614173,
          "duration": 0.023255813953483084
        },
        {
          "name": "F#2",
          "midi": 42,
          "time": 112.29069767440603,
          "velocity": 0.31496062992125984,
          "duration": 0.023255813953483084
        },
        {
          "name": "F#3",
          "midi": 54,
          "time": 112.337209302313,
          "velocity": 0.2755905511811024,
          "duration": 0.023255813953483084
        },
        {
          "name": "F3",
          "midi": 53,
          "time": 112.36046511626648,
          "velocity": 0.3937007874015748,
          "duration": 0.023255813953483084
        },
        {
          "name": "F3",
          "midi": 53,
          "time": 112.3953488371967,
          "velocity": 0.47244094488188976,
          "duration": 0.023255813953483084
        },
        {
          "name": "D7",
          "midi": 98,
          "time": 112.3953488371967,
          "velocity": 0.33858267716535434,
          "duration": 0.11627906976741542
        },
        {
          "name": "D#7",
          "midi": 99,
          "time": 112.3953488371967,
          "velocity": 0.2992125984251969,
          "duration": 0.06976744186044925
        },
        {
          "name": "A4",
          "midi": 69,
          "time": 112.40697674417345,
          "velocity": 0.25984251968503935,
          "duration": 0.023255813953483084
        },
        {
          "name": "F5",
          "midi": 77,
          "time": 112.40697674417345,
          "velocity": 0.14173228346456693,
          "duration": 0.1395348837208985
        },
        {
          "name": "C7",
          "midi": 96,
          "time": 112.40697674417345,
          "velocity": 0.33858267716535434,
          "duration": 0.1627906976743816
        },
        {
          "name": "F7",
          "midi": 101,
          "time": 112.40697674417345,
          "velocity": 0.30708661417322836,
          "duration": 0.1395348837208985
        },
        {
          "name": "A#3",
          "midi": 58,
          "time": 112.41860465115019,
          "velocity": 0.4330708661417323,
          "duration": 0.11627906976741542
        },
        {
          "name": "F#7",
          "midi": 102,
          "time": 112.43023255812693,
          "velocity": 0.18110236220472442,
          "duration": 0.10465116279067388
        },
        {
          "name": "A#6",
          "midi": 94,
          "time": 112.45348837208041,
          "velocity": 0.30708661417322836,
          "duration": 0.06976744186044925
        },
        {
          "name": "B6",
          "midi": 95,
          "time": 112.45348837208041,
          "velocity": 0.25196850393700787,
          "duration": 0.034883720930224626
        },
        {
          "name": "E7",
          "midi": 100,
          "time": 112.45348837208041,
          "velocity": 0.30708661417322836,
          "duration": 0.034883720930224626
        },
        {
          "name": "D6",
          "midi": 86,
          "time": 112.46511627905716,
          "velocity": 0.14960629921259844,
          "duration": 0.05813953488370771
        },
        {
          "name": "E6",
          "midi": 88,
          "time": 112.46511627905716,
          "velocity": 0.14960629921259844,
          "duration": 0.034883720930224626
        },
        {
          "name": "A6",
          "midi": 93,
          "time": 112.46511627905716,
          "velocity": 0.2755905511811024,
          "duration": 0.04651162790696617
        },
        {
          "name": "C#7",
          "midi": 97,
          "time": 112.46511627905716,
          "velocity": 0.2992125984251969,
          "duration": 0.06976744186044925
        },
        {
          "name": "G7",
          "midi": 103,
          "time": 112.46511627905716,
          "velocity": 0.08661417322834646,
          "duration": 0.034883720930224626
        },
        {
          "name": "G#6",
          "midi": 92,
          "time": 112.4767441860339,
          "velocity": 0.2283464566929134,
          "duration": 0.04651162790696617
        },
        {
          "name": "D#7",
          "midi": 99,
          "time": 112.4767441860339,
          "velocity": 0.30708661417322836,
          "duration": 0.034883720930224626
        },
        {
          "name": "A#0",
          "midi": 22,
          "time": 112.48837209301064,
          "velocity": 0.5748031496062992,
          "duration": 0.011627906976741542
        },
        {
          "name": "B0",
          "midi": 23,
          "time": 112.49999999998738,
          "velocity": 0.5826771653543307,
          "duration": 0.5813953488370913
        },
        {
          "name": "F#3",
          "midi": 54,
          "time": 112.49999999998738,
          "velocity": 0.3228346456692913,
          "duration": 0.023255813953483084
        },
        {
          "name": "E7",
          "midi": 100,
          "time": 112.49999999998738,
          "velocity": 0.2992125984251969,
          "duration": 0.05813953488370771
        },
        {
          "name": "G#4",
          "midi": 68,
          "time": 112.52325581394086,
          "velocity": 0.4094488188976378,
          "duration": 0.31395348837203585
        },
        {
          "name": "D#6",
          "midi": 87,
          "time": 112.5348837209176,
          "velocity": 0.11811023622047244,
          "duration": 0.360465116279002
        },
        {
          "name": "G3",
          "midi": 55,
          "time": 112.58139534882457,
          "velocity": 0.29133858267716534,
          "duration": 0.023255813953483084
        },
        {
          "name": "F#3",
          "midi": 54,
          "time": 112.60465116277805,
          "velocity": 0.3464566929133858,
          "duration": 0.06976744186046346
        },
        {
          "name": "C#4",
          "midi": 61,
          "time": 112.66279069766178,
          "velocity": 0.30708661417322836,
          "duration": 0.05813953488370771
        },
        {
          "name": "F3",
          "midi": 53,
          "time": 112.67441860463852,
          "velocity": 0.33858267716535434,
          "duration": 0.11627906976741542
        },
        {
          "name": "C5",
          "midi": 72,
          "time": 112.68604651161526,
          "velocity": 0.4015748031496063,
          "duration": 0.1627906976743816
        },
        {
          "name": "A#4",
          "midi": 70,
          "time": 112.70930232556874,
          "velocity": 0.07086614173228346,
          "duration": 0.034883720930224626
        },
        {
          "name": "D4",
          "midi": 62,
          "time": 112.75581395347571,
          "velocity": 0.2677165354330709,
          "duration": 0.023255813953483084
        },
        {
          "name": "F4",
          "midi": 65,
          "time": 112.77906976742919,
          "velocity": 0.36220472440944884,
          "duration": 0.034883720930224626
        },
        {
          "name": "C7",
          "midi": 96,
          "time": 112.77906976742919,
          "velocity": 0.2755905511811024,
          "duration": 0.12790697674415696
        },
        {
          "name": "F3",
          "midi": 53,
          "time": 112.80232558138268,
          "velocity": 0.3228346456692913,
          "duration": 0.09302325581393234
        },
        {
          "name": "B6",
          "midi": 95,
          "time": 112.80232558138268,
          "velocity": 0.2125984251968504,
          "duration": 0.06976744186044925
        },
        {
          "name": "A#4",
          "midi": 70,
          "time": 112.81395348835942,
          "velocity": 0.5275590551181102,
          "duration": 0.10465116279067388
        },
        {
          "name": "A5",
          "midi": 81,
          "time": 112.81395348835942,
          "velocity": 0.09448818897637795,
          "duration": 0.034883720930224626
        },
        {
          "name": "A#6",
          "midi": 94,
          "time": 112.81395348835942,
          "velocity": 0.25984251968503935,
          "duration": 0.18604651162786467
        },
        {
          "name": "D7",
          "midi": 98,
          "time": 112.82558139533616,
          "velocity": 0.16535433070866143,
          "duration": 0.10465116279067388
        },
        {
          "name": "D#7",
          "midi": 99,
          "time": 112.82558139533616,
          "velocity": 0.18110236220472442,
          "duration": 0.04651162790696617
        },
        {
          "name": "A3",
          "midi": 57,
          "time": 112.8372093023129,
          "velocity": 0.29133858267716534,
          "duration": 0.023255813953483084
        },
        {
          "name": "F5",
          "midi": 77,
          "time": 112.8372093023129,
          "velocity": 0.15748031496062992,
          "duration": 0.0813953488371908
        },
        {
          "name": "F#4",
          "midi": 66,
          "time": 112.84883720928964,
          "velocity": 0.4566929133858268,
          "duration": 0.10465116279067388
        },
        {
          "name": "C#5",
          "midi": 73,
          "time": 112.84883720928964,
          "velocity": 0.25196850393700787,
          "duration": 0.05813953488370771
        },
        {
          "name": "F#7",
          "midi": 102,
          "time": 112.84883720928964,
          "velocity": 0.11023622047244094,
          "duration": 0.05813953488370771
        },
        {
          "name": "A#3",
          "midi": 58,
          "time": 112.86046511626638,
          "velocity": 0.2992125984251969,
          "duration": 0.12790697674415696
        },
        {
          "name": "G#4",
          "midi": 68,
          "time": 112.86046511626638,
          "velocity": 0.41732283464566927,
          "duration": 0.023255813953483084
        },
        {
          "name": "D#4",
          "midi": 63,
          "time": 112.88372093021987,
          "velocity": 0.25984251968503935,
          "duration": 0.023255813953483084
        },
        {
          "name": "D#7",
          "midi": 99,
          "time": 112.88372093021987,
          "velocity": 0.16535433070866143,
          "duration": 0.20930232558134776
        },
        {
          "name": "F7",
          "midi": 101,
          "time": 112.88372093021987,
          "velocity": 0.11811023622047244,
          "duration": 0.06976744186044925
        },
        {
          "name": "D#3",
          "midi": 51,
          "time": 112.90697674417335,
          "velocity": 0.31496062992125984,
          "duration": 0.18604651162786467
        },
        {
          "name": "E7",
          "midi": 100,
          "time": 112.90697674417335,
          "velocity": 0.10236220472440945,
          "duration": 0.0813953488371908
        },
        {
          "name": "A4",
          "midi": 69,
          "time": 112.91860465115009,
          "velocity": 0.41732283464566927,
          "duration": 0.023255813953483084
        },
        {
          "name": "B6",
          "midi": 95,
          "time": 112.91860465115009,
          "velocity": 0.1889763779527559,
          "duration": 0.12790697674415696
        },
        {
          "name": "C#5",
          "midi": 73,
          "time": 112.93023255812683,
          "velocity": 0.07086614173228346,
          "duration": 0.04651162790696617
        },
        {
          "name": "F5",
          "midi": 77,
          "time": 112.93023255812683,
          "velocity": 0.12598425196850394,
          "duration": 0.04651162790696617
        },
        {
          "name": "A#4",
          "midi": 70,
          "time": 112.94186046510357,
          "velocity": 0.3700787401574803,
          "duration": 0.034883720930224626
        },
        {
          "name": "C7",
          "midi": 96,
          "time": 112.94186046510357,
          "velocity": 0.08661417322834646,
          "duration": 0.04651162790696617
        },
        {
          "name": "F4",
          "midi": 65,
          "time": 112.95348837208032,
          "velocity": 0.3543307086614173,
          "duration": 0.05813953488370771
        },
        {
          "name": "B4",
          "midi": 71,
          "time": 112.9767441860338,
          "velocity": 0.5275590551181102,
          "duration": 0.05813953488370771
        },
        {
          "name": "F#5",
          "midi": 78,
          "time": 112.9767441860338,
          "velocity": 0.07874015748031496,
          "duration": 0.05813953488370771
        },
        {
          "name": "B3",
          "midi": 59,
          "time": 112.98837209301054,
          "velocity": 0.25984251968503935,
          "duration": 0.05813953488370771
        },
        {
          "name": "A6",
          "midi": 93,
          "time": 112.98837209301054,
          "velocity": 0.18110236220472442,
          "duration": 0.04651162790696617
        },
        {
          "name": "C#7",
          "midi": 97,
          "time": 112.98837209301054,
          "velocity": 0.09448818897637795,
          "duration": 0.04651162790696617
        },
        {
          "name": "D5",
          "midi": 74,
          "time": 112.99999999998728,
          "velocity": 0.15748031496062992,
          "duration": 0.034883720930224626
        },
        {
          "name": "F6",
          "midi": 89,
          "time": 112.99999999998728,
          "velocity": 0.14960629921259844,
          "duration": 0.29069767441855277
        },
        {
          "name": "D#5",
          "midi": 75,
          "time": 113.02325581394076,
          "velocity": 0.33858267716535434,
          "duration": 0.11627906976741542
        },
        {
          "name": "E4",
          "midi": 64,
          "time": 113.0348837209175,
          "velocity": 0.23622047244094488,
          "duration": 0.034883720930224626
        },
        {
          "name": "A#4",
          "midi": 70,
          "time": 113.0348837209175,
          "velocity": 0.5118110236220472,
          "duration": 0.20930232558136197
        },
        {
          "name": "B0",
          "midi": 23,
          "time": 113.09302325580121,
          "velocity": 0.2755905511811024,
          "duration": 0.023255813953483084
        },
        {
          "name": "C#3",
          "midi": 49,
          "time": 113.10465116277796,
          "velocity": 0.30708661417322836,
          "duration": 0.19767441860462043
        },
        {
          "name": "G#4",
          "midi": 68,
          "time": 113.1162790697547,
          "velocity": 0.2283464566929134,
          "duration": 0.04651162790696617
        },
        {
          "name": "F5",
          "midi": 77,
          "time": 113.1162790697547,
          "velocity": 0.07874015748031496,
          "duration": 0.04651162790696617
        },
        {
          "name": "G#4",
          "midi": 68,
          "time": 113.1744186046384,
          "velocity": 0.2440944881889764,
          "duration": 0.04651162790698038
        },
        {
          "name": "F5",
          "midi": 77,
          "time": 113.20930232556864,
          "velocity": 0.14173228346456693,
          "duration": 0.04651162790696617
        },
        {
          "name": "F4",
          "midi": 65,
          "time": 113.23255813952213,
          "velocity": 0.2755905511811024,
          "duration": 0.023255813953483084
        },
        {
          "name": "D#5",
          "midi": 75,
          "time": 113.23255813952213,
          "velocity": 0.2677165354330709,
          "duration": 0.034883720930224626
        },
        {
          "name": "B6",
          "midi": 95,
          "time": 113.23255813952213,
          "velocity": 0.30708661417322836,
          "duration": 0.034883720930224626
        },
        {
          "name": "D#7",
          "midi": 99,
          "time": 113.23255813952213,
          "velocity": 0.15748031496062992,
          "duration": 0.04651162790696617
        },
        {
          "name": "A#6",
          "midi": 94,
          "time": 113.24418604649887,
          "velocity": 0.25196850393700787,
          "duration": 0.19767441860462043
        },
        {
          "name": "C7",
          "midi": 96,
          "time": 113.24418604649887,
          "velocity": 0.2440944881889764,
          "duration": 0.19767441860462043
        },
        {
          "name": "C#7",
          "midi": 97,
          "time": 113.24418604649887,
          "velocity": 0.08661417322834646,
          "duration": 0.04651162790696617
        },
        {
          "name": "D7",
          "midi": 98,
          "time": 113.24418604649887,
          "velocity": 0.1968503937007874,
          "duration": 0.18604651162787889
        },
        {
          "name": "A5",
          "midi": 81,
          "time": 113.25581395347561,
          "velocity": 0.16535433070866143,
          "duration": 0.034883720930224626
        },
        {
          "name": "G6",
          "midi": 91,
          "time": 113.25581395347561,
          "velocity": 0.18110236220472442,
          "duration": 0.034883720930224626
        },
        {
          "name": "F#4",
          "midi": 66,
          "time": 113.26744186045235,
          "velocity": 0.3543307086614173,
          "duration": 0.0813953488371908
        },
        {
          "name": "A4",
          "midi": 69,
          "time": 113.26744186045235,
          "velocity": 0.5118110236220472,
          "duration": 0.023255813953483084
        },
        {
          "name": "G#6",
          "midi": 92,
          "time": 113.26744186045235,
          "velocity": 0.14960629921259844,
          "duration": 0.12790697674417117
        },
        {
          "name": "A#3",
          "midi": 58,
          "time": 113.27906976742909,
          "velocity": 0.25984251968503935,
          "duration": 0.034883720930224626
        },
        {
          "name": "C#5",
          "midi": 73,
          "time": 113.27906976742909,
          "velocity": 0.2283464566929134,
          "duration": 0.0813953488371908
        },
        {
          "name": "F5",
          "midi": 77,
          "time": 113.27906976742909,
          "velocity": 0.41732283464566927,
          "duration": 0.46511627906971853
        },
        {
          "name": "A#4",
          "midi": 70,
          "time": 113.29069767440583,
          "velocity": 0.5433070866141733,
          "duration": 0.15116279069765426
        },
        {
          "name": "B5",
          "midi": 83,
          "time": 113.30232558138258,
          "velocity": 0.1968503937007874,
          "duration": 0.11627906976742963
        },
        {
          "name": "G1",
          "midi": 31,
          "time": 113.31395348835932,
          "velocity": 0.5354330708661418,
          "duration": 0.011627906976741542
        },
        {
          "name": "G5",
          "midi": 79,
          "time": 113.31395348835932,
          "velocity": 0.16535433070866143,
          "duration": 0.034883720930224626
        },
        {
          "name": "D#6",
          "midi": 87,
          "time": 113.31395348835932,
          "velocity": 0.1889763779527559,
          "duration": 0.44186046511623545
        },
        {
          "name": "F#1",
          "midi": 30,
          "time": 113.32558139533606,
          "velocity": 0.6692913385826772,
          "duration": 0.011627906976741542
        },
        {
          "name": "C3",
          "midi": 48,
          "time": 113.32558139533606,
          "velocity": 0.4015748031496063,
          "duration": 0.023255813953483084
        },
        {
          "name": "E4",
          "midi": 64,
          "time": 113.32558139533606,
          "velocity": 0.2283464566929134,
          "duration": 0.023255813953483084
        },
        {
          "name": "D6",
          "midi": 86,
          "time": 113.32558139533606,
          "velocity": 0.11811023622047244,
          "duration": 0.081395348837205
        },
        {
          "name": "F1",
          "midi": 29,
          "time": 113.3372093023128,
          "velocity": 0.7165354330708661,
          "duration": 0.011627906976741542
        },
        {
          "name": "G#4",
          "midi": 68,
          "time": 113.3372093023128,
          "velocity": 0.33070866141732286,
          "duration": 0.023255813953483084
        },
        {
          "name": "D#1",
          "midi": 27,
          "time": 113.34883720928954,
          "velocity": 0.7480314960629921,
          "duration": 1.2441860465114587
        },
        {
          "name": "G3",
          "midi": 55,
          "time": 113.34883720928954,
          "velocity": 0.5433070866141733,
          "duration": 0.32558139534882
        },
        {
          "name": "A#2",
          "midi": 46,
          "time": 113.39534883719652,
          "velocity": 0.4330708661417323,
          "duration": 0.372093023255772
        },
        {
          "name": "G5",
          "midi": 79,
          "time": 113.40697674417326,
          "velocity": 0.07086614173228346,
          "duration": 0.09302325581394655
        },
        {
          "name": "G#4",
          "midi": 68,
          "time": 113.44186046510349,
          "velocity": 0.47244094488188976,
          "duration": 0.25581395348835656
        },
        {
          "name": "B4",
          "midi": 71,
          "time": 113.44186046510349,
          "velocity": 0.3464566929133858,
          "duration": 0.22093023255813193
        },
        {
          "name": "C7",
          "midi": 96,
          "time": 113.46511627905697,
          "velocity": 0.13385826771653545,
          "duration": 0.03488372093023884
        },
        {
          "name": "F4",
          "midi": 65,
          "time": 113.5232558139407,
          "velocity": 0.08661417322834646,
          "duration": 0.05813953488372192
        },
        {
          "name": "F4",
          "midi": 65,
          "time": 113.63953488370814,
          "velocity": 0.33858267716535434,
          "duration": 0.09302325581393234
        },
        {
          "name": "A#5",
          "midi": 82,
          "time": 113.63953488370814,
          "velocity": 0.18110236220472442,
          "duration": 0.18604651162786467
        },
        {
          "name": "A6",
          "midi": 93,
          "time": 113.63953488370814,
          "velocity": 0.14173228346456693,
          "duration": 0.1395348837208985
        },
        {
          "name": "A#4",
          "midi": 70,
          "time": 113.66279069766162,
          "velocity": 0.2283464566929134,
          "duration": 0.023255813953483084
        },
        {
          "name": "G3",
          "midi": 55,
          "time": 113.6860465116151,
          "velocity": 0.5275590551181102,
          "duration": 0.11627906976741542
        },
        {
          "name": "G#6",
          "midi": 92,
          "time": 113.6860465116151,
          "velocity": 0.18110236220472442,
          "duration": 0.12790697674415696
        },
        {
          "name": "A#6",
          "midi": 94,
          "time": 113.6860465116151,
          "velocity": 0.2283464566929134,
          "duration": 0.11627906976741542
        },
        {
          "name": "A4",
          "midi": 69,
          "time": 113.69767441859184,
          "velocity": 0.5354330708661418,
          "duration": 0.011627906976741542
        },
        {
          "name": "A#4",
          "midi": 70,
          "time": 113.70930232556859,
          "velocity": 0.5433070866141733,
          "duration": 0.023255813953483084
        },
        {
          "name": "D7",
          "midi": 98,
          "time": 113.70930232556859,
          "velocity": 0.11811023622047244,
          "duration": 0.034883720930224626
        },
        {
          "name": "A#3",
          "midi": 58,
          "time": 113.73255813952207,
          "velocity": 0.4330708661417323,
          "duration": 0.023255813953483084
        },
        {
          "name": "B4",
          "midi": 71,
          "time": 113.73255813952207,
          "velocity": 0.5748031496062992,
          "duration": 0.2674418604650839
        },
        {
          "name": "F#5",
          "midi": 78,
          "time": 113.73255813952207,
          "velocity": 0.15748031496062992,
          "duration": 0.05813953488370771
        },
        {
          "name": "C#7",
          "midi": 97,
          "time": 113.73255813952207,
          "velocity": 0.11023622047244094,
          "duration": 0.034883720930224626
        },
        {
          "name": "G#4",
          "midi": 68,
          "time": 113.74418604649881,
          "velocity": 0.4015748031496063,
          "duration": 0.4302325581394655
        },
        {
          "name": "C7",
          "midi": 96,
          "time": 113.74418604649881,
          "velocity": 0.11023622047244094,
          "duration": 0.0813953488371908
        },
        {
          "name": "F#6",
          "midi": 90,
          "time": 113.75581395347555,
          "velocity": 0.1732283464566929,
          "duration": 0.034883720930224626
        },
        {
          "name": "A#2",
          "midi": 46,
          "time": 113.77906976742904,
          "velocity": 0.41732283464566927,
          "duration": 0.023255813953483084
        },
        {
          "name": "C#5",
          "midi": 73,
          "time": 113.77906976742904,
          "velocity": 0.28346456692913385,
          "duration": 0.034883720930224626
        },
        {
          "name": "F5",
          "midi": 77,
          "time": 113.77906976742904,
          "velocity": 0.5118110236220472,
          "duration": 0.9302325581393802
        },
        {
          "name": "F#3",
          "midi": 54,
          "time": 113.80232558138252,
          "velocity": 0.4094488188976378,
          "duration": 0.023255813953483084
        },
        {
          "name": "A#2",
          "midi": 46,
          "time": 113.81395348835926,
          "velocity": 0.4015748031496063,
          "duration": 0.05813953488370771
        },
        {
          "name": "F4",
          "midi": 65,
          "time": 113.81395348835926,
          "velocity": 0.2755905511811024,
          "duration": 0.034883720930224626
        },
        {
          "name": "G3",
          "midi": 55,
          "time": 113.825581395336,
          "velocity": 0.4409448818897638,
          "duration": 0.31395348837205006
        },
        {
          "name": "D#6",
          "midi": 87,
          "time": 113.825581395336,
          "velocity": 0.2992125984251969,
          "duration": 0.8255813953487063
        },
        {
          "name": "E4",
          "midi": 64,
          "time": 113.84883720928948,
          "velocity": 0.08661417322834646,
          "duration": 0.034883720930224626
        },
        {
          "name": "A#2",
          "midi": 46,
          "time": 113.88372093021971,
          "velocity": 0.3937007874015748,
          "duration": 0.023255813953483084
        },
        {
          "name": "A#5",
          "midi": 82,
          "time": 113.90697674417319,
          "velocity": 0.11023622047244094,
          "duration": 0.03488372093023884
        },
        {
          "name": "A#2",
          "midi": 46,
          "time": 113.94186046510343,
          "velocity": 0.3937007874015748,
          "duration": 0.05813953488372192
        },
        {
          "name": "A#2",
          "midi": 46,
          "time": 114.0116279069639,
          "velocity": 0.3543307086614173,
          "duration": 0.023255813953483084
        },
        {
          "name": "A#4",
          "midi": 70,
          "time": 114.03488372091738,
          "velocity": 0.31496062992125984,
          "duration": 0.023255813953483084
        },
        {
          "name": "F4",
          "midi": 65,
          "time": 114.05813953487086,
          "velocity": 0.3937007874015748,
          "duration": 0.09302325581393234
        },
        {
          "name": "B4",
          "midi": 71,
          "time": 114.05813953487086,
          "velocity": 0.5669291338582677,
          "duration": 0.11627906976741542
        },
        {
          "name": "B2",
          "midi": 47,
          "time": 114.08139534882434,
          "velocity": 0.3779527559055118,
          "duration": 0.023255813953483084
        },
        {
          "name": "A#3",
          "midi": 58,
          "time": 114.11627906975457,
          "velocity": 0.4330708661417323,
          "duration": 0.04651162790696617
        },
        {
          "name": "A6",
          "midi": 93,
          "time": 114.11627906975457,
          "velocity": 0.09448818897637795,
          "duration": 0.034883720930224626
        },
        {
          "name": "D#5",
          "midi": 75,
          "time": 114.12790697673131,
          "velocity": 0.11811023622047244,
          "duration": 0.034883720930224626
        },
        {
          "name": "D6",
          "midi": 86,
          "time": 114.12790697673131,
          "velocity": 0.18110236220472442,
          "duration": 0.06976744186044925
        },
        {
          "name": "D3",
          "midi": 50,
          "time": 114.13953488370805,
          "velocity": 0.3543307086614173,
          "duration": 0.023255813953483084
        },
        {
          "name": "G3",
          "midi": 55,
          "time": 114.1511627906848,
          "velocity": 0.3700787401574803,
          "duration": 0.05813953488370771
        },
        {
          "name": "F#4",
          "midi": 66,
          "time": 114.1511627906848,
          "velocity": 0.3937007874015748,
          "duration": 0.04651162790696617
        },
        {
          "name": "F#6",
          "midi": 90,
          "time": 114.1511627906848,
          "velocity": 0.2283464566929134,
          "duration": 0.023255813953483084
        },
        {
          "name": "C7",
          "midi": 96,
          "time": 114.1511627906848,
          "velocity": 0.1889763779527559,
          "duration": 0.09302325581393234
        },
        {
          "name": "C#5",
          "midi": 73,
          "time": 114.16279069766153,
          "velocity": 0.2125984251968504,
          "duration": 0.034883720930224626
        },
        {
          "name": "G#6",
          "midi": 92,
          "time": 114.16279069766153,
          "velocity": 0.2440944881889764,
          "duration": 0.0813953488371908
        },
        {
          "name": "A#6",
          "midi": 94,
          "time": 114.16279069766153,
          "velocity": 0.28346456692913385,
          "duration": 0.0813953488371908
        },
        {
          "name": "E7",
          "midi": 100,
          "time": 114.16279069766153,
          "velocity": 0.2283464566929134,
          "duration": 0.10465116279067388
        },
        {
          "name": "A#4",
          "midi": 70,
          "time": 114.17441860463828,
          "velocity": 0.5433070866141733,
          "duration": 0.4302325581394655
        },
        {
          "name": "B6",
          "midi": 95,
          "time": 114.17441860463828,
          "velocity": 0.2283464566929134,
          "duration": 0.034883720930224626
        },
        {
          "name": "D7",
          "midi": 98,
          "time": 114.17441860463828,
          "velocity": 0.3543307086614173,
          "duration": 0.09302325581393234
        },
        {
          "name": "F#7",
          "midi": 102,
          "time": 114.17441860463828,
          "velocity": 0.1889763779527559,
          "duration": 0.10465116279067388
        },
        {
          "name": "E6",
          "midi": 88,
          "time": 114.18604651161502,
          "velocity": 0.14960629921259844,
          "duration": 0.034883720930224626
        },
        {
          "name": "F#6",
          "midi": 90,
          "time": 114.18604651161502,
          "velocity": 0.31496062992125984,
          "duration": 0.04651162790696617
        },
        {
          "name": "A6",
          "midi": 93,
          "time": 114.18604651161502,
          "velocity": 0.2992125984251969,
          "duration": 0.023255813953483084
        },
        {
          "name": "C#7",
          "midi": 97,
          "time": 114.18604651161502,
          "velocity": 0.28346456692913385,
          "duration": 0.06976744186044925
        },
        {
          "name": "D#3",
          "midi": 51,
          "time": 114.19767441859176,
          "velocity": 0.3228346456692913,
          "duration": 0.04651162790696617
        },
        {
          "name": "A#3",
          "midi": 58,
          "time": 114.19767441859176,
          "velocity": 0.4094488188976378,
          "duration": 0.06976744186044925
        },
        {
          "name": "G6",
          "midi": 91,
          "time": 114.19767441859176,
          "velocity": 0.07874015748031496,
          "duration": 0.04651162790696617
        },
        {
          "name": "F#4",
          "midi": 66,
          "time": 114.2093023255685,
          "velocity": 0.30708661417322836,
          "duration": 0.034883720930224626
        },
        {
          "name": "G#4",
          "midi": 68,
          "time": 114.2093023255685,
          "velocity": 0.3937007874015748,
          "duration": 0.04651162790696617
        },
        {
          "name": "G7",
          "midi": 103,
          "time": 114.2093023255685,
          "velocity": 0.07874015748031496,
          "duration": 0.04651162790696617
        },
        {
          "name": "G3",
          "midi": 55,
          "time": 114.24418604649873,
          "velocity": 0.33070866141732286,
          "duration": 0.023255813953483084
        },
        {
          "name": "F4",
          "midi": 65,
          "time": 114.24418604649873,
          "velocity": 0.31496062992125984,
          "duration": 0.034883720930224626
        },
        {
          "name": "F#6",
          "midi": 90,
          "time": 114.24418604649873,
          "velocity": 0.33070866141732286,
          "duration": 0.034883720930224626
        },
        {
          "name": "G#6",
          "midi": 92,
          "time": 114.25581395347547,
          "velocity": 0.2125984251968504,
          "duration": 0.17441860465113734
        },
        {
          "name": "G#4",
          "midi": 68,
          "time": 114.26744186045221,
          "velocity": 0.2992125984251969,
          "duration": 0.04651162790696617
        },
        {
          "name": "D6",
          "midi": 86,
          "time": 114.29069767440569,
          "velocity": 0.18110236220472442,
          "duration": 0.18604651162787889
        },
        {
          "name": "D#3",
          "midi": 51,
          "time": 114.30232558138243,
          "velocity": 0.3228346456692913,
          "duration": 0.25581395348834235
        },
        {
          "name": "C7",
          "midi": 96,
          "time": 114.32558139533592,
          "velocity": 0.11811023622047244,
          "duration": 0.034883720930224626
        },
        {
          "name": "G#4",
          "midi": 68,
          "time": 114.3488372092894,
          "velocity": 0.30708661417322836,
          "duration": 0.023255813953483084
        },
        {
          "name": "A#3",
          "midi": 58,
          "time": 114.37209302324288,
          "velocity": 0.3700787401574803,
          "duration": 0.2441860465116008
        },
        {
          "name": "G#4",
          "midi": 68,
          "time": 114.40697674417312,
          "velocity": 0.4330708661417323,
          "duration": 0.04651162790696617
        },
        {
          "name": "G#4",
          "midi": 68,
          "time": 114.46511627905683,
          "velocity": 0.28346456692913385,
          "duration": 0.06976744186046346
        },
        {
          "name": "F4",
          "midi": 65,
          "time": 114.51162790696381,
          "velocity": 0.25196850393700787,
          "duration": 0.034883720930224626
        },
        {
          "name": "G6",
          "midi": 91,
          "time": 114.52325581394055,
          "velocity": 0.2755905511811024,
          "duration": 0.023255813953483084
        },
        {
          "name": "A6",
          "midi": 93,
          "time": 114.53488372091729,
          "velocity": 0.36220472440944884,
          "duration": 0.17441860465112313
        },
        {
          "name": "G#4",
          "midi": 68,
          "time": 114.54651162789403,
          "velocity": 0.28346456692913385,
          "duration": 0.04651162790696617
        },
        {
          "name": "D#5",
          "midi": 75,
          "time": 114.54651162789403,
          "velocity": 0.30708661417322836,
          "duration": 0.10465116279067388
        },
        {
          "name": "D#4",
          "midi": 63,
          "time": 114.55813953487078,
          "velocity": 0.14173228346456693,
          "duration": 0.034883720930224626
        },
        {
          "name": "C6",
          "midi": 84,
          "time": 114.55813953487078,
          "velocity": 0.16535433070866143,
          "duration": 0.11627906976741542
        },
        {
          "name": "C7",
          "midi": 96,
          "time": 114.55813953487078,
          "velocity": 0.16535433070866143,
          "duration": 0.034883720930224626
        },
        {
          "name": "D#3",
          "midi": 51,
          "time": 114.56976744184752,
          "velocity": 0.2992125984251969,
          "duration": 0.023255813953483084
        },
        {
          "name": "D1",
          "midi": 26,
          "time": 114.593023255801,
          "velocity": 0.5118110236220472,
          "duration": 0.011627906976741542
        },
        {
          "name": "E3",
          "midi": 52,
          "time": 114.593023255801,
          "velocity": 0.30708661417322836,
          "duration": 0.023255813953483084
        },
        {
          "name": "F#4",
          "midi": 66,
          "time": 114.593023255801,
          "velocity": 0.3543307086614173,
          "duration": 0.10465116279067388
        },
        {
          "name": "G6",
          "midi": 91,
          "time": 114.593023255801,
          "velocity": 0.11023622047244094,
          "duration": 0.034883720930224626
        },
        {
          "name": "B0",
          "midi": 23,
          "time": 114.60465116277774,
          "velocity": 0.5826771653543307,
          "duration": 0.011627906976741542
        },
        {
          "name": "C#1",
          "midi": 25,
          "time": 114.61627906975448,
          "velocity": 0.6614173228346457,
          "duration": 0.011627906976741542
        },
        {
          "name": "D#4",
          "midi": 63,
          "time": 114.61627906975448,
          "velocity": 0.3464566929133858,
          "duration": 0.4302325581394655
        },
        {
          "name": "D1",
          "midi": 26,
          "time": 114.62790697673123,
          "velocity": 0.7007874015748031,
          "duration": 0.011627906976741542
        },
        {
          "name": "A#4",
          "midi": 70,
          "time": 114.62790697673123,
          "velocity": 0.3464566929133858,
          "duration": 0.5232558139533978
        },
        {
          "name": "C#5",
          "midi": 73,
          "time": 114.62790697673123,
          "velocity": 0.12598425196850394,
          "duration": 0.39534883720924086
        },
        {
          "name": "C1",
          "midi": 24,
          "time": 114.63953488370797,
          "velocity": 0.7007874015748031,
          "duration": 0.011627906976741542
        },
        {
          "name": "B0",
          "midi": 23,
          "time": 114.65116279068471,
          "velocity": 0.7322834645669292,
          "duration": 0.7441860465114871
        },
        {
          "name": "D#3",
          "midi": 51,
          "time": 114.65116279068471,
          "velocity": 0.5196850393700787,
          "duration": 0.1860465116278931
        },
        {
          "name": "F#4",
          "midi": 66,
          "time": 114.70930232556842,
          "velocity": 0.2992125984251969,
          "duration": 0.17441860465115155
        },
        {
          "name": "F#5",
          "midi": 78,
          "time": 114.70930232556842,
          "velocity": 0.49606299212598426,
          "duration": 0.04651162790698038
        },
        {
          "name": "E7",
          "midi": 100,
          "time": 114.72093023254516,
          "velocity": 0.12598425196850394,
          "duration": 0.03488372093023884
        },
        {
          "name": "F5",
          "midi": 77,
          "time": 114.7558139534754,
          "velocity": 0.5118110236220472,
          "duration": 0.2674418604650697
        },
        {
          "name": "C6",
          "midi": 84,
          "time": 114.7558139534754,
          "velocity": 0.25984251968503935,
          "duration": 0.29069767441855277
        },
        {
          "name": "A6",
          "midi": 93,
          "time": 114.7558139534754,
          "velocity": 0.2283464566929134,
          "duration": 0.2674418604650697
        },
        {
          "name": "F#2",
          "midi": 42,
          "time": 114.77906976742888,
          "velocity": 0.44881889763779526,
          "duration": 0.023255813953483084
        },
        {
          "name": "G#2",
          "midi": 44,
          "time": 114.8372093023126,
          "velocity": 0.47244094488188976,
          "duration": 0.023255813953483084
        },
        {
          "name": "D#7",
          "midi": 99,
          "time": 114.8372093023126,
          "velocity": 0.08661417322834646,
          "duration": 0.05813953488370771
        },
        {
          "name": "D#3",
          "midi": 51,
          "time": 114.84883720928934,
          "velocity": 0.5354330708661418,
          "duration": 0.05813953488370771
        },
        {
          "name": "D#3",
          "midi": 51,
          "time": 114.91860465114979,
          "velocity": 0.5118110236220472,
          "duration": 0.023255813953483084
        },
        {
          "name": "F#4",
          "midi": 66,
          "time": 114.93023255812653,
          "velocity": 0.16535433070866143,
          "duration": 0.04651162790696617
        },
        {
          "name": "F#2",
          "midi": 42,
          "time": 114.94186046510328,
          "velocity": 0.48031496062992124,
          "duration": 0.023255813953483084
        },
        {
          "name": "D#3",
          "midi": 51,
          "time": 114.95348837208002,
          "velocity": 0.5118110236220472,
          "duration": 0.023255813953483084
        },
        {
          "name": "F#2",
          "midi": 42,
          "time": 114.9767441860335,
          "velocity": 0.4330708661417323,
          "duration": 0.023255813953483084
        },
        {
          "name": "D#3",
          "midi": 51,
          "time": 114.98837209301024,
          "velocity": 0.49606299212598426,
          "duration": 0.023255813953483084
        },
        {
          "name": "F#4",
          "midi": 66,
          "time": 114.99999999998698,
          "velocity": 0.2204724409448819,
          "duration": 0.05813953488370771
        },
        {
          "name": "D#3",
          "midi": 51,
          "time": 115.02325581394047,
          "velocity": 0.49606299212598426,
          "duration": 0.023255813953483084
        },
        {
          "name": "D#5",
          "midi": 75,
          "time": 115.03488372091721,
          "velocity": 0.5354330708661418,
          "duration": 0.05813953488370771
        },
        {
          "name": "F5",
          "midi": 77,
          "time": 115.03488372091721,
          "velocity": 0.3700787401574803,
          "duration": 0.15116279069764005
        },
        {
          "name": "D#7",
          "midi": 99,
          "time": 115.03488372091721,
          "velocity": 0.14173228346456693,
          "duration": 0.034883720930224626
        },
        {
          "name": "E4",
          "midi": 64,
          "time": 115.06976744184743,
          "velocity": 0.31496062992125984,
          "duration": 0.034883720930224626
        },
        {
          "name": "A6",
          "midi": 93,
          "time": 115.06976744184743,
          "velocity": 0.16535433070866143,
          "duration": 0.10465116279067388
        },
        {
          "name": "F#2",
          "midi": 42,
          "time": 115.09302325580092,
          "velocity": 0.44881889763779526,
          "duration": 0.034883720930224626
        },
        {
          "name": "D5",
          "midi": 74,
          "time": 115.09302325580092,
          "velocity": 0.4015748031496063,
          "duration": 0.023255813953483084
        },
        {
          "name": "D#4",
          "midi": 63,
          "time": 115.10465116277766,
          "velocity": 0.3700787401574803,
          "duration": 0.19767441860460622
        },
        {
          "name": "C#5",
          "midi": 73,
          "time": 115.10465116277766,
          "velocity": 0.3937007874015748,
          "duration": 0.034883720930224626
        },
        {
          "name": "G#5",
          "midi": 80,
          "time": 115.10465116277766,
          "velocity": 0.16535433070866143,
          "duration": 0.034883720930224626
        },
        {
          "name": "D#7",
          "midi": 99,
          "time": 115.1162790697544,
          "velocity": 0.08661417322834646,
          "duration": 0.05813953488370771
        },
        {
          "name": "F4",
          "midi": 65,
          "time": 115.12790697673114,
          "velocity": 0.28346456692913385,
          "duration": 0.023255813953483084
        },
        {
          "name": "B5",
          "midi": 83,
          "time": 115.13953488370788,
          "velocity": 0.3543307086614173,
          "duration": 0.15116279069764005
        },
        {
          "name": "B3",
          "midi": 59,
          "time": 115.15116279068462,
          "velocity": 0.48031496062992124,
          "duration": 0.12790697674415696
        },
        {
          "name": "C6",
          "midi": 84,
          "time": 115.15116279068462,
          "velocity": 0.12598425196850394,
          "duration": 0.09302325581393234
        },
        {
          "name": "A#4",
          "midi": 70,
          "time": 115.1744186046381,
          "velocity": 0.3937007874015748,
          "duration": 0.26744186046505547
        },
        {
          "name": "F#5",
          "midi": 78,
          "time": 115.1744186046381,
          "velocity": 0.25984251968503935,
          "duration": 0.09302325581393234
        },
        {
          "name": "D#3",
          "midi": 51,
          "time": 115.18604651161485,
          "velocity": 0.44881889763779526,
          "duration": 0.04651162790696617
        },
        {
          "name": "A6",
          "midi": 93,
          "time": 115.19767441859159,
          "velocity": 0.2755905511811024,
          "duration": 0.10465116279067388
        },
        {
          "name": "C#5",
          "midi": 73,
          "time": 115.20930232556833,
          "velocity": 0.10236220472440945,
          "duration": 0.034883720930224626
        },
        {
          "name": "F#2",
          "midi": 42,
          "time": 115.22093023254507,
          "velocity": 0.4330708661417323,
          "duration": 0.023255813953483084
        },
        {
          "name": "F5",
          "midi": 77,
          "time": 115.23255813952181,
          "velocity": 0.2204724409448819,
          "duration": 0.20930232558134776
        },
        {
          "name": "E6",
          "midi": 88,
          "time": 115.24418604649856,
          "velocity": 0.13385826771653545,
          "duration": 0.04651162790696617
        },
        {
          "name": "A#6",
          "midi": 94,
          "time": 115.24418604649856,
          "velocity": 0.30708661417322836,
          "duration": 0.0813953488371908
        },
        {
          "name": "D7",
          "midi": 98,
          "time": 115.24418604649856,
          "velocity": 0.33858267716535434,
          "duration": 0.09302325581393234
        },
        {
          "name": "D#7",
          "midi": 99,
          "time": 115.24418604649856,
          "velocity": 0.28346456692913385,
          "duration": 0.05813953488370771
        },
        {
          "name": "E7",
          "midi": 100,
          "time": 115.24418604649856,
          "velocity": 0.2047244094488189,
          "duration": 0.034883720930224626
        },
        {
          "name": "F7",
          "midi": 101,
          "time": 115.24418604649856,
          "velocity": 0.29133858267716534,
          "duration": 0.09302325581393234
        },
        {
          "name": "D6",
          "midi": 86,
          "time": 115.2558139534753,
          "velocity": 0.08661417322834646,
          "duration": 0.034883720930224626
        },
        {
          "name": "D#6",
          "midi": 87,
          "time": 115.2558139534753,
          "velocity": 0.10236220472440945,
          "duration": 0.04651162790696617
        },
        {
          "name": "C7",
          "midi": 96,
          "time": 115.2558139534753,
          "velocity": 0.29133858267716534,
          "duration": 0.09302325581393234
        },
        {
          "name": "C#7",
          "midi": 97,
          "time": 115.2558139534753,
          "velocity": 0.28346456692913385,
          "duration": 0.06976744186044925
        },
        {
          "name": "F#7",
          "midi": 102,
          "time": 115.2558139534753,
          "velocity": 0.1732283464566929,
          "duration": 0.04651162790696617
        },
        {
          "name": "F#2",
          "midi": 42,
          "time": 115.26744186045204,
          "velocity": 0.4251968503937008,
          "duration": 0.023255813953483084
        },
        {
          "name": "A#3",
          "midi": 58,
          "time": 115.27906976742878,
          "velocity": 0.4409448818897638,
          "duration": 0.023255813953483084
        },
        {
          "name": "G#6",
          "midi": 92,
          "time": 115.29069767440552,
          "velocity": 0.23622047244094488,
          "duration": 0.023255813953483084
        },
        {
          "name": "E7",
          "midi": 100,
          "time": 115.29069767440552,
          "velocity": 0.2125984251968504,
          "duration": 0.034883720930224626
        },
        {
          "name": "C#5",
          "midi": 73,
          "time": 115.30232558138226,
          "velocity": 0.15748031496062992,
          "duration": 0.10465116279067388
        },
        {
          "name": "D#5",
          "midi": 75,
          "time": 115.30232558138226,
          "velocity": 0.29133858267716534,
          "duration": 0.12790697674415696
        },
        {
          "name": "F#2",
          "midi": 42,
          "time": 115.313953488359,
          "velocity": 0.41732283464566927,
          "duration": 0.023255813953483084
        },
        {
          "name": "D#4",
          "midi": 63,
          "time": 115.313953488359,
          "velocity": 0.30708661417322836,
          "duration": 0.0813953488371908
        },
        {
          "name": "C6",
          "midi": 84,
          "time": 115.32558139533575,
          "velocity": 0.1732283464566929,
          "duration": 0.12790697674415696
        },
        {
          "name": "F#2",
          "midi": 42,
          "time": 115.34883720928923,
          "velocity": 0.41732283464566927,
          "duration": 0.023255813953483084
        },
        {
          "name": "D#3",
          "midi": 51,
          "time": 115.34883720928923,
          "velocity": 0.3937007874015748,
          "duration": 0.023255813953483084
        },
        {
          "name": "G2",
          "midi": 43,
          "time": 115.38372093021945,
          "velocity": 0.3937007874015748,
          "duration": 0.023255813953483084
        },
        {
          "name": "F#3",
          "midi": 54,
          "time": 115.38372093021945,
          "velocity": 0.2992125984251969,
          "duration": 0.023255813953483084
        },
        {
          "name": "C1",
          "midi": 24,
          "time": 115.3953488371962,
          "velocity": 0.6692913385826772,
          "duration": 0.011627906976741542
        },
        {
          "name": "F4",
          "midi": 65,
          "time": 115.3953488371962,
          "velocity": 0.47244094488188976,
          "duration": 0.1627906976743816
        },
        {
          "name": "G6",
          "midi": 91,
          "time": 115.3953488371962,
          "velocity": 0.08661417322834646,
          "duration": 0.04651162790696617
        },
        {
          "name": "B0",
          "midi": 23,
          "time": 115.40697674417294,
          "velocity": 0.6771653543307087,
          "duration": 0.47674418604641744
        },
        {
          "name": "B3",
          "midi": 59,
          "time": 115.41860465114968,
          "velocity": 0.3464566929133858,
          "duration": 0.023255813953483084
        },
        {
          "name": "C#5",
          "midi": 73,
          "time": 115.41860465114968,
          "velocity": 0.1968503937007874,
          "duration": 0.04651162790696617
        },
        {
          "name": "G#5",
          "midi": 80,
          "time": 115.43023255812642,
          "velocity": 0.13385826771653545,
          "duration": 0.034883720930224626
        },
        {
          "name": "D#6",
          "midi": 87,
          "time": 115.43023255812642,
          "velocity": 0.1889763779527559,
          "duration": 0.04651162790696617
        },
        {
          "name": "C4",
          "midi": 60,
          "time": 115.44186046510316,
          "velocity": 0.5354330708661418,
          "duration": 0.034883720930224626
        },
        {
          "name": "F#5",
          "midi": 78,
          "time": 115.44186046510316,
          "velocity": 0.12598425196850394,
          "duration": 0.04651162790696617
        },
        {
          "name": "D6",
          "midi": 86,
          "time": 115.44186046510316,
          "velocity": 0.14173228346456693,
          "duration": 0.05813953488370771
        },
        {
          "name": "F6",
          "midi": 89,
          "time": 115.44186046510316,
          "velocity": 0.2440944881889764,
          "duration": 0.17441860465112313
        },
        {
          "name": "F#6",
          "midi": 90,
          "time": 115.44186046510316,
          "velocity": 0.2440944881889764,
          "duration": 0.06976744186044925
        },
        {
          "name": "A6",
          "midi": 93,
          "time": 115.44186046510316,
          "velocity": 0.23622047244094488,
          "duration": 0.04651162790696617
        },
        {
          "name": "B6",
          "midi": 95,
          "time": 115.44186046510316,
          "velocity": 0.2755905511811024,
          "duration": 0.0813953488371908
        },
        {
          "name": "C#7",
          "midi": 97,
          "time": 115.44186046510316,
          "velocity": 0.2204724409448819,
          "duration": 0.09302325581393234
        },
        {
          "name": "B4",
          "midi": 71,
          "time": 115.4534883720799,
          "velocity": 0.30708661417322836,
          "duration": 0.023255813953483084
        },
        {
          "name": "D#7",
          "midi": 99,
          "time": 115.4534883720799,
          "velocity": 0.1968503937007874,
          "duration": 0.06976744186044925
        },
        {
          "name": "B3",
          "midi": 59,
          "time": 115.47674418603339,
          "velocity": 0.49606299212598426,
          "duration": 0.04651162790696617
        },
        {
          "name": "A#4",
          "midi": 70,
          "time": 115.47674418603339,
          "velocity": 0.28346456692913385,
          "duration": 0.023255813953483084
        },
        {
          "name": "D5",
          "midi": 74,
          "time": 115.47674418603339,
          "velocity": 0.31496062992125984,
          "duration": 0.05813953488370771
        },
        {
          "name": "E6",
          "midi": 88,
          "time": 115.47674418603339,
          "velocity": 0.15748031496062992,
          "duration": 0.034883720930224626
        },
        {
          "name": "F#2",
          "midi": 42,
          "time": 115.51162790696361,
          "velocity": 0.3700787401574803,
          "duration": 0.023255813953483084
        },
        {
          "name": "D#3",
          "midi": 51,
          "time": 115.51162790696361,
          "velocity": 0.3543307086614173,
          "duration": 0.023255813953483084
        },
        {
          "name": "A#4",
          "midi": 70,
          "time": 115.51162790696361,
          "velocity": 0.36220472440944884,
          "duration": 0.3488372093022605
        },
        {
          "name": "D7",
          "midi": 98,
          "time": 115.51162790696361,
          "velocity": 0.29133858267716534,
          "duration": 0.18604651162786467
        },
        {
          "name": "A#3",
          "midi": 58,
          "time": 115.52325581394035,
          "velocity": 0.4566929133858268,
          "duration": 0.034883720930224626
        },
        {
          "name": "C5",
          "midi": 72,
          "time": 115.52325581394035,
          "velocity": 0.2755905511811024,
          "duration": 0.04651162790696617
        },
        {
          "name": "A5",
          "midi": 81,
          "time": 115.52325581394035,
          "velocity": 0.11811023622047244,
          "duration": 0.10465116279067388
        },
        {
          "name": "C#6",
          "midi": 85,
          "time": 115.52325581394035,
          "velocity": 0.10236220472440945,
          "duration": 0.0813953488371908
        },
        {
          "name": "D#6",
          "midi": 87,
          "time": 115.52325581394035,
          "velocity": 0.2047244094488189,
          "duration": 0.0813953488371908
        },
        {
          "name": "D#5",
          "midi": 75,
          "time": 115.5348837209171,
          "velocity": 0.3779527559055118,
          "duration": 0.1395348837208985
        },
        {
          "name": "F#6",
          "midi": 90,
          "time": 115.54651162789384,
          "velocity": 0.1968503937007874,
          "duration": 0.06976744186044925
        },
        {
          "name": "F#4",
          "midi": 66,
          "time": 115.55813953487058,
          "velocity": 0.4409448818897638,
          "duration": 0.023255813953483084
        },
        {
          "name": "G#3",
          "midi": 56,
          "time": 115.58139534882406,
          "velocity": 0.4566929133858268,
          "duration": 0.034883720930224626
        },
        {
          "name": "F#4",
          "midi": 66,
          "time": 115.5930232558008,
          "velocity": 0.3858267716535433,
          "duration": 0.2441860465115866
        },
        {
          "name": "D#4",
          "midi": 63,
          "time": 115.60465116277754,
          "velocity": 0.3464566929133858,
          "duration": 0.04651162790696617
        },
        {
          "name": "G6",
          "midi": 91,
          "time": 115.60465116277754,
          "velocity": 0.10236220472440945,
          "duration": 0.05813953488370771
        },
        {
          "name": "C#7",
          "midi": 97,
          "time": 115.60465116277754,
          "velocity": 0.25196850393700787,
          "duration": 0.09302325581393234
        },
        {
          "name": "D#3",
          "midi": 51,
          "time": 115.61627906975428,
          "velocity": 0.33858267716535434,
          "duration": 0.023255813953483084
        },
        {
          "name": "C#5",
          "midi": 73,
          "time": 115.61627906975428,
          "velocity": 0.1732283464566929,
          "duration": 0.2209302325581035
        },
        {
          "name": "C7",
          "midi": 96,
          "time": 115.61627906975428,
          "velocity": 0.25984251968503935,
          "duration": 0.023255813953483084
        },
        {
          "name": "A#3",
          "midi": 58,
          "time": 115.62790697673103,
          "velocity": 0.5118110236220472,
          "duration": 0.023255813953483084
        },
        {
          "name": "F#6",
          "midi": 90,
          "time": 115.63953488370777,
          "velocity": 0.14960629921259844,
          "duration": 0.05813953488370771
        },
        {
          "name": "D#7",
          "midi": 99,
          "time": 115.63953488370777,
          "velocity": 0.2283464566929134,
          "duration": 0.05813953488370771
        },
        {
          "name": "B3",
          "midi": 59,
          "time": 115.65116279068451,
          "velocity": 0.48031496062992124,
          "duration": 0.04651162790696617
        },
        {
          "name": "B6",
          "midi": 95,
          "time": 115.65116279068451,
          "velocity": 0.15748031496062992,
          "duration": 0.04651162790696617
        },
        {
          "name": "D#3",
          "midi": 51,
          "time": 115.67441860463799,
          "velocity": 0.3779527559055118,
          "duration": 0.09302325581393234
        },
        {
          "name": "B5",
          "midi": 83,
          "time": 115.67441860463799,
          "velocity": 0.07874015748031496,
          "duration": 0.05813953488370771
        },
        {
          "name": "A5",
          "midi": 81,
          "time": 115.69767441859148,
          "velocity": 0.13385826771653545,
          "duration": 0.09302325581393234
        },
        {
          "name": "B3",
          "midi": 59,
          "time": 115.70930232556822,
          "velocity": 0.15748031496062992,
          "duration": 0.034883720930224626
        },
        {
          "name": "F#6",
          "midi": 90,
          "time": 115.72093023254496,
          "velocity": 0.15748031496062992,
          "duration": 0.06976744186044925
        },
        {
          "name": "F6",
          "midi": 89,
          "time": 115.7325581395217,
          "velocity": 0.2283464566929134,
          "duration": 0.29069767441855277
        },
        {
          "name": "B3",
          "midi": 59,
          "time": 115.79069767440541,
          "velocity": 0.15748031496062992,
          "duration": 0.04651162790698038
        },
        {
          "name": "E6",
          "midi": 88,
          "time": 115.82558139533565,
          "velocity": 0.15748031496062992,
          "duration": 0.04651162790696617
        },
        {
          "name": "G#4",
          "midi": 68,
          "time": 115.83720930231239,
          "velocity": 0.33858267716535434,
          "duration": 0.023255813953483084
        },
        {
          "name": "A5",
          "midi": 81,
          "time": 115.83720930231239,
          "velocity": 0.12598425196850394,
          "duration": 0.05813953488370771
        },
        {
          "name": "A6",
          "midi": 93,
          "time": 115.83720930231239,
          "velocity": 0.15748031496062992,
          "duration": 0.034883720930224626
        },
        {
          "name": "A#6",
          "midi": 94,
          "time": 115.83720930231239,
          "velocity": 0.31496062992125984,
          "duration": 0.11627906976741542
        },
        {
          "name": "C#7",
          "midi": 97,
          "time": 115.83720930231239,
          "velocity": 0.2755905511811024,
          "duration": 0.1395348837208985
        },
        {
          "name": "D4",
          "midi": 62,
          "time": 115.84883720928913,
          "velocity": 0.2755905511811024,
          "duration": 0.023255813953483084
        },
        {
          "name": "C#5",
          "midi": 73,
          "time": 115.84883720928913,
          "velocity": 0.13385826771653545,
          "duration": 0.034883720930224626
        },
        {
          "name": "C#6",
          "midi": 85,
          "time": 115.84883720928913,
          "velocity": 0.13385826771653545,
          "duration": 0.05813953488370771
        },
        {
          "name": "C7",
          "midi": 96,
          "time": 115.84883720928913,
          "velocity": 0.2755905511811024,
          "duration": 0.1627906976743816
        },
        {
          "name": "D7",
          "midi": 98,
          "time": 115.84883720928913,
          "velocity": 0.33070866141732286,
          "duration": 0.10465116279067388
        },
        {
          "name": "A#3",
          "midi": 58,
          "time": 115.86046511626587,
          "velocity": 0.49606299212598426,
          "duration": 0.023255813953483084
        },
        {
          "name": "B4",
          "midi": 71,
          "time": 115.86046511626587,
          "velocity": 0.3700787401574803,
          "duration": 0.10465116279067388
        },
        {
          "name": "F#5",
          "midi": 78,
          "time": 115.86046511626587,
          "velocity": 0.14173228346456693,
          "duration": 0.034883720930224626
        },
        {
          "name": "D#6",
          "midi": 87,
          "time": 115.86046511626587,
          "velocity": 0.15748031496062992,
          "duration": 0.034883720930224626
        },
        {
          "name": "A2",
          "midi": 45,
          "time": 115.87209302324261,
          "velocity": 0.3543307086614173,
          "duration": 0.023255813953483084
        },
        {
          "name": "F#4",
          "midi": 66,
          "time": 115.87209302324261,
          "velocity": 0.3779527559055118,
          "duration": 0.034883720930224626
        },
        {
          "name": "E7",
          "midi": 100,
          "time": 115.87209302324261,
          "velocity": 0.2677165354330709,
          "duration": 0.10465116279067388
        },
        {
          "name": "C1",
          "midi": 24,
          "time": 115.88372093021935,
          "velocity": 0.5905511811023622,
          "duration": 0.023255813953483084
        },
        {
          "name": "B3",
          "midi": 59,
          "time": 115.88372093021935,
          "velocity": 0.4645669291338583,
          "duration": 0.09302325581393234
        },
        {
          "name": "G#5",
          "midi": 80,
          "time": 115.88372093021935,
          "velocity": 0.11811023622047244,
          "duration": 0.0813953488371908
        },
        {
          "name": "F#6",
          "midi": 90,
          "time": 115.88372093021935,
          "velocity": 0.25196850393700787,
          "duration": 0.04651162790696617
        },
        {
          "name": "B6",
          "midi": 95,
          "time": 115.88372093021935,
          "velocity": 0.3779527559055118,
          "duration": 0.10465116279067388
        },
        {
          "name": "D#7",
          "midi": 99,
          "time": 115.88372093021935,
          "velocity": 0.31496062992125984,
          "duration": 0.11627906976741542
        },
        {
          "name": "E3",
          "midi": 52,
          "time": 115.8953488371961,
          "velocity": 0.3464566929133858,
          "duration": 0.023255813953483084
        },
        {
          "name": "F5",
          "midi": 77,
          "time": 115.8953488371961,
          "velocity": 0.15748031496062992,
          "duration": 0.10465116279067388
        },
        {
          "name": "D6",
          "midi": 86,
          "time": 115.8953488371961,
          "velocity": 0.1889763779527559,
          "duration": 0.04651162790696617
        },
        {
          "name": "F7",
          "midi": 101,
          "time": 115.8953488371961,
          "velocity": 0.25984251968503935,
          "duration": 0.06976744186044925
        },
        {
          "name": "B0",
          "midi": 23,
          "time": 115.90697674417284,
          "velocity": 0.5826771653543307,
          "duration": 0.5116279069766421
        },
        {
          "name": "A5",
          "midi": 81,
          "time": 115.90697674417284,
          "velocity": 0.12598425196850394,
          "duration": 0.0813953488371908
        },
        {
          "name": "E6",
          "midi": 88,
          "time": 115.90697674417284,
          "velocity": 0.11811023622047244,
          "duration": 0.034883720930224626
        },
        {
          "name": "A6",
          "midi": 93,
          "time": 115.90697674417284,
          "velocity": 0.2677165354330709,
          "duration": 0.023255813953483084
        },
        {
          "name": "G7",
          "midi": 103,
          "time": 115.90697674417284,
          "velocity": 0.18110236220472442,
          "duration": 0.05813953488370771
        },
        {
          "name": "F3",
          "midi": 53,
          "time": 115.91860465114958,
          "velocity": 0.3228346456692913,
          "duration": 0.06976744186044925
        },
        {
          "name": "F4",
          "midi": 65,
          "time": 115.93023255812632,
          "velocity": 0.3464566929133858,
          "duration": 0.12790697674415696
        },
        {
          "name": "D5",
          "midi": 74,
          "time": 115.93023255812632,
          "velocity": 0.1968503937007874,
          "duration": 0.034883720930224626
        },
        {
          "name": "D#6",
          "midi": 87,
          "time": 115.93023255812632,
          "velocity": 0.2440944881889764,
          "duration": 0.15116279069764005
        },
        {
          "name": "G6",
          "midi": 91,
          "time": 115.93023255812632,
          "velocity": 0.09448818897637795,
          "duration": 0.034883720930224626
        },
        {
          "name": "G#6",
          "midi": 92,
          "time": 115.93023255812632,
          "velocity": 0.2283464566929134,
          "duration": 0.023255813953483084
        },
        {
          "name": "G#4",
          "midi": 68,
          "time": 115.9534883720798,
          "velocity": 0.29133858267716534,
          "duration": 0.3255813953487774
        },
        {
          "name": "C5",
          "midi": 72,
          "time": 115.9534883720798,
          "velocity": 0.2755905511811024,
          "duration": 0.11627906976741542
        },
        {
          "name": "D#5",
          "midi": 75,
          "time": 115.96511627905655,
          "velocity": 0.2755905511811024,
          "duration": 0.2674418604650697
        },
        {
          "name": "F#6",
          "midi": 90,
          "time": 115.97674418603329,
          "velocity": 0.14960629921259844,
          "duration": 0.05813953488370771
        },
        {
          "name": "F3",
          "midi": 53,
          "time": 115.99999999998677,
          "velocity": 0.3700787401574803,
          "duration": 0.0813953488371908
        },
        {
          "name": "B3",
          "midi": 59,
          "time": 116.02325581394025,
          "velocity": 0.2992125984251969,
          "duration": 0.06976744186044925
        },
        {
          "name": "B4",
          "midi": 71,
          "time": 116.05813953487048,
          "velocity": 0.41732283464566927,
          "duration": 0.2441860465115866
        },
        {
          "name": "F#5",
          "midi": 78,
          "time": 116.05813953487048,
          "velocity": 0.09448818897637795,
          "duration": 0.05813953488370771
        },
        {
          "name": "A5",
          "midi": 81,
          "time": 116.05813953487048,
          "velocity": 0.14173228346456693,
          "duration": 0.11627906976742963
        },
        {
          "name": "F#4",
          "midi": 66,
          "time": 116.08139534882396,
          "velocity": 0.31496062992125984,
          "duration": 0.023255813953483084
        },
        {
          "name": "E3",
          "midi": 52,
          "time": 116.10465116277744,
          "velocity": 0.3779527559055118,
          "duration": 0.023255813953483084
        },
        {
          "name": "C#5",
          "midi": 73,
          "time": 116.11627906975419,
          "velocity": 0.14173228346456693,
          "duration": 0.12790697674417117
        },
        {
          "name": "F#6",
          "midi": 90,
          "time": 116.11627906975419,
          "velocity": 0.13385826771653545,
          "duration": 0.05813953488372192
        },
        {
          "name": "F#3",
          "midi": 54,
          "time": 116.13953488370767,
          "velocity": 0.3228346456692913,
          "duration": 0.13953488372091272
        },
        {
          "name": "F#5",
          "midi": 78,
          "time": 116.19767441859139,
          "velocity": 0.09448818897637795,
          "duration": 0.04651162790696617
        },
        {
          "name": "B3",
          "midi": 59,
          "time": 116.20930232556813,
          "velocity": 0.23622047244094488,
          "duration": 0.0813953488371908
        },
        {
          "name": "E4",
          "midi": 64,
          "time": 116.23255813952161,
          "velocity": 0.25984251968503935,
          "duration": 0.023255813953483084
        },
        {
          "name": "F6",
          "midi": 89,
          "time": 116.24418604649836,
          "velocity": 0.1732283464566929,
          "duration": 0.04651162790696617
        },
        {
          "name": "F4",
          "midi": 65,
          "time": 116.2558139534751,
          "velocity": 0.3937007874015748,
          "duration": 0.034883720930224626
        },
        {
          "name": "A5",
          "midi": 81,
          "time": 116.2558139534751,
          "velocity": 0.12598425196850394,
          "duration": 0.05813953488370771
        },
        {
          "name": "F#6",
          "midi": 90,
          "time": 116.2558139534751,
          "velocity": 0.2440944881889764,
          "duration": 0.17441860465112313
        },
        {
          "name": "A#5",
          "midi": 82,
          "time": 116.26744186045184,
          "velocity": 0.16535433070866143,
          "duration": 0.04651162790696617
        },
        {
          "name": "D#6",
          "midi": 87,
          "time": 116.26744186045184,
          "velocity": 0.10236220472440945,
          "duration": 0.05813953488370771
        },
        {
          "name": "B2",
          "midi": 47,
          "time": 116.27906976742858,
          "velocity": 0.2283464566929134,
          "duration": 0.023255813953483084
        },
        {
          "name": "C#5",
          "midi": 73,
          "time": 116.27906976742858,
          "velocity": 0.29133858267716534,
          "duration": 0.05813953488370771
        },
        {
          "name": "E6",
          "midi": 88,
          "time": 116.27906976742858,
          "velocity": 0.12598425196850394,
          "duration": 0.034883720930224626
        },
        {
          "name": "A6",
          "midi": 93,
          "time": 116.27906976742858,
          "velocity": 0.14173228346456693,
          "duration": 0.034883720930224626
        },
        {
          "name": "G4",
          "midi": 67,
          "time": 116.29069767440532,
          "velocity": 0.48031496062992124,
          "duration": 0.023255813953483084
        },
        {
          "name": "D5",
          "midi": 74,
          "time": 116.29069767440532,
          "velocity": 0.23622047244094488,
          "duration": 0.023255813953483084
        },
        {
          "name": "C7",
          "midi": 96,
          "time": 116.29069767440532,
          "velocity": 0.14173228346456693,
          "duration": 0.12790697674415696
        },
        {
          "name": "C#7",
          "midi": 97,
          "time": 116.29069767440532,
          "velocity": 0.11023622047244094,
          "duration": 0.034883720930224626
        },
        {
          "name": "F3",
          "midi": 53,
          "time": 116.30232558138206,
          "velocity": 0.30708661417322836,
          "duration": 0.023255813953483084
        },
        {
          "name": "A3",
          "midi": 57,
          "time": 116.30232558138206,
          "velocity": 0.3464566929133858,
          "duration": 0.034883720930224626
        },
        {
          "name": "A4",
          "midi": 69,
          "time": 116.30232558138206,
          "velocity": 0.5354330708661418,
          "duration": 0.011627906976741542
        },
        {
          "name": "F#4",
          "midi": 66,
          "time": 116.3139534883588,
          "velocity": 0.25196850393700787,
          "duration": 0.034883720930224626
        },
        {
          "name": "A#4",
          "midi": 70,
          "time": 116.3139534883588,
          "velocity": 0.5354330708661418,
          "duration": 0.4418604651161928
        },
        {
          "name": "F5",
          "midi": 77,
          "time": 116.3139534883588,
          "velocity": 0.2992125984251969,
          "duration": 0.12790697674415696
        },
        {
          "name": "E6",
          "midi": 88,
          "time": 116.32558139533555,
          "velocity": 0.1968503937007874,
          "duration": 0.05813953488370771
        },
        {
          "name": "G3",
          "midi": 55,
          "time": 116.33720930231229,
          "velocity": 0.33858267716535434,
          "duration": 0.023255813953483084
        },
        {
          "name": "D5",
          "midi": 74,
          "time": 116.33720930231229,
          "velocity": 0.33070866141732286,
          "duration": 0.04651162790696617
        },
        {
          "name": "C6",
          "midi": 84,
          "time": 116.33720930231229,
          "velocity": 0.12598425196850394,
          "duration": 0.15116279069764005
        },
        {
          "name": "A#6",
          "midi": 94,
          "time": 116.36046511626577,
          "velocity": 0.12598425196850394,
          "duration": 0.06976744186044925
        },
        {
          "name": "D#5",
          "midi": 75,
          "time": 116.37209302324251,
          "velocity": 0.2440944881889764,
          "duration": 0.1627906976743816
        },
        {
          "name": "F4",
          "midi": 65,
          "time": 116.40697674417274,
          "velocity": 0.14960629921259844,
          "duration": 0.034883720930224626
        },
        {
          "name": "G#3",
          "midi": 56,
          "time": 116.41860465114948,
          "velocity": 0.30708661417322836,
          "duration": 0.034883720930224626
        },
        {
          "name": "B0",
          "midi": 23,
          "time": 116.43023255812622,
          "velocity": 0.3779527559055118,
          "duration": 0.12790697674415696
        },
        {
          "name": "A2",
          "midi": 45,
          "time": 116.44186046510296,
          "velocity": 0.23622047244094488,
          "duration": 0.034883720930224626
        },
        {
          "name": "G#3",
          "midi": 56,
          "time": 116.46511627905645,
          "velocity": 0.29133858267716534,
          "duration": 0.06976744186044925
        },
        {
          "name": "B5",
          "midi": 83,
          "time": 116.47674418603319,
          "velocity": 0.07874015748031496,
          "duration": 0.034883720930224626
        },
        {
          "name": "C#4",
          "midi": 61,
          "time": 116.49999999998667,
          "velocity": 0.3228346456692913,
          "duration": 0.06976744186044925
        },
        {
          "name": "F#4",
          "midi": 66,
          "time": 116.51162790696341,
          "velocity": 0.15748031496062992,
          "duration": 0.034883720930224626
        },
        {
          "name": "F5",
          "midi": 77,
          "time": 116.51162790696341,
          "velocity": 0.15748031496062992,
          "duration": 0.13953488372091272
        },
        {
          "name": "D3",
          "midi": 50,
          "time": 116.52325581394015,
          "velocity": 0.2992125984251969,
          "duration": 0.023255813953483084
        },
        {
          "name": "C#3",
          "midi": 49,
          "time": 116.54651162789364,
          "velocity": 0.30708661417322836,
          "duration": 0.034883720930224626
        },
        {
          "name": "G#4",
          "midi": 68,
          "time": 116.54651162789364,
          "velocity": 0.1968503937007874,
          "duration": 0.04651162790696617
        },
        {
          "name": "A#3",
          "midi": 58,
          "time": 116.55813953487038,
          "velocity": 0.3543307086614173,
          "duration": 0.12790697674417117
        },
        {
          "name": "B2",
          "midi": 47,
          "time": 116.5930232558006,
          "velocity": 0.25984251968503935,
          "duration": 0.023255813953483084
        },
        {
          "name": "A#2",
          "midi": 46,
          "time": 116.61627906975409,
          "velocity": 0.2125984251968504,
          "duration": 0.04651162790698038
        },
        {
          "name": "C#5",
          "midi": 73,
          "time": 116.68604651161455,
          "velocity": 0.3543307086614173,
          "duration": 0.0813953488371908
        },
        {
          "name": "G#6",
          "midi": 92,
          "time": 116.68604651161455,
          "velocity": 0.2047244094488189,
          "duration": 0.09302325581393234
        },
        {
          "name": "A2",
          "midi": 45,
          "time": 116.69767441859129,
          "velocity": 0.30708661417322836,
          "duration": 0.04651162790696617
        },
        {
          "name": "A#3",
          "midi": 58,
          "time": 116.69767441859129,
          "velocity": 0.47244094488188976,
          "duration": 0.09302325581393234
        },
        {
          "name": "F#5",
          "midi": 78,
          "time": 116.69767441859129,
          "velocity": 0.1732283464566929,
          "duration": 0.04651162790696617
        },
        {
          "name": "E5",
          "midi": 76,
          "time": 116.70930232556803,
          "velocity": 0.2125984251968504,
          "duration": 0.034883720930224626
        },
        {
          "name": "C#7",
          "midi": 97,
          "time": 116.70930232556803,
          "velocity": 0.14173228346456693,
          "duration": 0.09302325581393234
        },
        {
          "name": "F#4",
          "midi": 66,
          "time": 116.73255813952152,
          "velocity": 0.25196850393700787,
          "duration": 0.034883720930224626
        },
        {
          "name": "F5",
          "midi": 77,
          "time": 116.74418604649826,
          "velocity": 0.4094488188976378,
          "duration": 0.4069767441859824
        },
        {
          "name": "G5",
          "midi": 79,
          "time": 116.74418604649826,
          "velocity": 0.1732283464566929,
          "duration": 0.034883720930224626
        },
        {
          "name": "E6",
          "midi": 88,
          "time": 116.74418604649826,
          "velocity": 0.11811023622047244,
          "duration": 0.034883720930224626
        },
        {
          "name": "F#1",
          "midi": 30,
          "time": 116.755813953475,
          "velocity": 0.6377952755905512,
          "duration": 0.011627906976741542
        },
        {
          "name": "D5",
          "midi": 74,
          "time": 116.755813953475,
          "velocity": 0.33070866141732286,
          "duration": 0.023255813953483084
        },
        {
          "name": "C7",
          "midi": 96,
          "time": 116.755813953475,
          "velocity": 0.12598425196850394,
          "duration": 0.06976744186044925
        },
        {
          "name": "F1",
          "midi": 29,
          "time": 116.76744186045174,
          "velocity": 0.7007874015748031,
          "duration": 0.011627906976741542
        },
        {
          "name": "G#4",
          "midi": 68,
          "time": 116.76744186045174,
          "velocity": 0.3228346456692913,
          "duration": 0.3837209302324993
        },
        {
          "name": "D#6",
          "midi": 87,
          "time": 116.76744186045174,
          "velocity": 0.12598425196850394,
          "duration": 0.5116279069766563
        },
        {
          "name": "E1",
          "midi": 28,
          "time": 116.77906976742848,
          "velocity": 0.7086614173228346,
          "duration": 0.011627906976741542
        },
        {
          "name": "A#2",
          "midi": 46,
          "time": 116.77906976742848,
          "velocity": 0.4330708661417323,
          "duration": 0.05813953488370771
        },
        {
          "name": "G3",
          "midi": 55,
          "time": 116.77906976742848,
          "velocity": 0.5118110236220472,
          "duration": 0.3488372093022747
        },
        {
          "name": "F#4",
          "midi": 66,
          "time": 116.77906976742848,
          "velocity": 0.31496062992125984,
          "duration": 0.034883720930224626
        },
        {
          "name": "A6",
          "midi": 93,
          "time": 116.77906976742848,
          "velocity": 0.16535433070866143,
          "duration": 0.034883720930224626
        },
        {
          "name": "D#1",
          "midi": 27,
          "time": 116.79069767440522,
          "velocity": 0.7480314960629921,
          "duration": 0.49999999999991473
        },
        {
          "name": "D5",
          "midi": 74,
          "time": 116.79069767440522,
          "velocity": 0.30708661417322836,
          "duration": 0.023255813953483084
        },
        {
          "name": "C#5",
          "midi": 73,
          "time": 116.80232558138196,
          "velocity": 0.23622047244094488,
          "duration": 0.034883720930224626
        },
        {
          "name": "F#4",
          "midi": 66,
          "time": 116.82558139533545,
          "velocity": 0.3228346456692913,
          "duration": 0.023255813953483084
        },
        {
          "name": "A#2",
          "midi": 46,
          "time": 116.84883720928893,
          "velocity": 0.44881889763779526,
          "duration": 0.12790697674417117
        },
        {
          "name": "F4",
          "midi": 65,
          "time": 116.84883720928893,
          "velocity": 0.3228346456692913,
          "duration": 0.05813953488370771
        },
        {
          "name": "B4",
          "midi": 71,
          "time": 116.84883720928893,
          "velocity": 0.2283464566929134,
          "duration": 0.023255813953483084
        },
        {
          "name": "C7",
          "midi": 96,
          "time": 116.84883720928893,
          "velocity": 0.11811023622047244,
          "duration": 0.034883720930224626
        },
        {
          "name": "G6",
          "midi": 91,
          "time": 116.87209302324241,
          "velocity": 0.11023622047244094,
          "duration": 0.034883720930224626
        },
        {
          "name": "A#4",
          "midi": 70,
          "time": 116.8953488371959,
          "velocity": 0.2047244094488189,
          "duration": 0.09302325581394655
        },
        {
          "name": "C#4",
          "midi": 61,
          "time": 116.95348837207962,
          "velocity": 0.25984251968503935,
          "duration": 0.05813953488370771
        },
        {
          "name": "A#2",
          "midi": 46,
          "time": 116.98837209300984,
          "velocity": 0.44881889763779526,
          "duration": 0.13953488372091272
        },
        {
          "name": "D#4",
          "midi": 63,
          "time": 117.01162790696333,
          "velocity": 0.10236220472440945,
          "duration": 0.06976744186046346
        },
        {
          "name": "A#4",
          "midi": 70,
          "time": 117.03488372091681,
          "velocity": 0.09448818897637795,
          "duration": 0.03488372093023884
        },
        {
          "name": "F#4",
          "midi": 66,
          "time": 117.10465116277727,
          "velocity": 0.3543307086614173,
          "duration": 0.034883720930224626
        },
        {
          "name": "C5",
          "midi": 72,
          "time": 117.10465116277727,
          "velocity": 0.25196850393700787,
          "duration": 0.023255813953483084
        },
        {
          "name": "G6",
          "midi": 91,
          "time": 117.11627906975401,
          "velocity": 0.1732283464566929,
          "duration": 0.10465116279067388
        },
        {
          "name": "C7",
          "midi": 96,
          "time": 117.11627906975401,
          "velocity": 0.25196850393700787,
          "duration": 0.1395348837208985
        },
        {
          "name": "B2",
          "midi": 47,
          "time": 117.12790697673076,
          "velocity": 0.48031496062992124,
          "duration": 0.023255813953483084
        },
        {
          "name": "A#4",
          "midi": 70,
          "time": 117.12790697673076,
          "velocity": 0.1889763779527559,
          "duration": 0.034883720930224626
        },
        {
          "name": "C#5",
          "midi": 73,
          "time": 117.12790697673076,
          "velocity": 0.2204724409448819,
          "duration": 0.05813953488370771
        },
        {
          "name": "G3",
          "midi": 55,
          "time": 117.1395348837075,
          "velocity": 0.5118110236220472,
          "duration": 0.04651162790696617
        },
        {
          "name": "A#2",
          "midi": 46,
          "time": 117.15116279068424,
          "velocity": 0.4251968503937008,
          "duration": 0.05813953488370771
        },
        {
          "name": "G5",
          "midi": 79,
          "time": 117.15116279068424,
          "velocity": 0.08661417322834646,
          "duration": 0.034883720930224626
        },
        {
          "name": "B6",
          "midi": 95,
          "time": 117.15116279068424,
          "velocity": 0.09448818897637795,
          "duration": 0.06976744186044925
        },
        {
          "name": "F#4",
          "midi": 66,
          "time": 117.16279069766098,
          "velocity": 0.5433070866141733,
          "duration": 0.023255813953483084
        },
        {
          "name": "F5",
          "midi": 77,
          "time": 117.16279069766098,
          "velocity": 0.25984251968503935,
          "duration": 0.11627906976741542
        },
        {
          "name": "C#7",
          "midi": 97,
          "time": 117.16279069766098,
          "velocity": 0.11023622047244094,
          "duration": 0.06976744186044925
        },
        {
          "name": "A#4",
          "midi": 70,
          "time": 117.17441860463772,
          "velocity": 0.4094488188976378,
          "duration": 0.06976744186044925
        },
        {
          "name": "A6",
          "midi": 93,
          "time": 117.17441860463772,
          "velocity": 0.1732283464566929,
          "duration": 0.06976744186044925
        },
        {
          "name": "F4",
          "midi": 65,
          "time": 117.18604651161446,
          "velocity": 0.48031496062992124,
          "duration": 0.10465116279067388
        },
        {
          "name": "D5",
          "midi": 74,
          "time": 117.18604651161446,
          "velocity": 0.2755905511811024,
          "duration": 0.05813953488370771
        },
        {
          "name": "G#6",
          "midi": 92,
          "time": 117.18604651161446,
          "velocity": 0.1732283464566929,
          "duration": 0.0813953488371908
        },
        {
          "name": "A#6",
          "midi": 94,
          "time": 117.18604651161446,
          "velocity": 0.14960629921259844,
          "duration": 0.04651162790696617
        },
        {
          "name": "G3",
          "midi": 55,
          "time": 117.1976744185912,
          "velocity": 0.4645669291338583,
          "duration": 0.023255813953483084
        },
        {
          "name": "A#3",
          "midi": 58,
          "time": 117.1976744185912,
          "velocity": 0.4566929133858268,
          "duration": 0.023255813953483084
        },
        {
          "name": "G#4",
          "midi": 68,
          "time": 117.1976744185912,
          "velocity": 0.25984251968503935,
          "duration": 0.023255813953483084
        },
        {
          "name": "A#2",
          "midi": 46,
          "time": 117.22093023254469,
          "velocity": 0.47244094488188976,
          "duration": 0.034883720930224626
        },
        {
          "name": "G#5",
          "midi": 80,
          "time": 117.22093023254469,
          "velocity": 0.07874015748031496,
          "duration": 0.034883720930224626
        },
        {
          "name": "D7",
          "midi": 98,
          "time": 117.22093023254469,
          "velocity": 0.08661417322834646,
          "duration": 0.034883720930224626
        },
        {
          "name": "G3",
          "midi": 55,
          "time": 117.24418604649817,
          "velocity": 0.4881889763779528,
          "duration": 0.04651162790696617
        },
        {
          "name": "B4",
          "midi": 71,
          "time": 117.24418604649817,
          "velocity": 0.4015748031496063,
          "duration": 0.04651162790696617
        },
        {
          "name": "A2",
          "midi": 45,
          "time": 117.25581395347491,
          "velocity": 0.49606299212598426,
          "duration": 0.04651162790696617
        },
        {
          "name": "D4",
          "midi": 62,
          "time": 117.25581395347491,
          "velocity": 0.1732283464566929,
          "duration": 0.04651162790696617
        },
        {
          "name": "C5",
          "midi": 72,
          "time": 117.2790697674284,
          "velocity": 0.2755905511811024,
          "duration": 0.05813953488370771
        },
        {
          "name": "D1",
          "midi": 26,
          "time": 117.29069767440514,
          "velocity": 0.7007874015748031,
          "duration": 0.011627906976741542
        },
        {
          "name": "F3",
          "midi": 53,
          "time": 117.29069767440514,
          "velocity": 0.4566929133858268,
          "duration": 0.023255813953483084
        },
        {
          "name": "F#4",
          "midi": 66,
          "time": 117.29069767440514,
          "velocity": 0.29133858267716534,
          "duration": 0.034883720930224626
        },
        {
          "name": "A4",
          "midi": 69,
          "time": 117.29069767440514,
          "velocity": 0.36220472440944884,
          "duration": 0.023255813953483084
        },
        {
          "name": "C#1",
          "midi": 25,
          "time": 117.30232558138188,
          "velocity": 0.6929133858267716,
          "duration": 0.023255813953483084
        },
        {
          "name": "G#2",
          "midi": 44,
          "time": 117.30232558138188,
          "velocity": 0.36220472440944884,
          "duration": 0.023255813953483084
        },
        {
          "name": "E3",
          "midi": 52,
          "time": 117.31395348835862,
          "velocity": 0.4409448818897638,
          "duration": 0.023255813953483084
        },
        {
          "name": "G#4",
          "midi": 68,
          "time": 117.31395348835862,
          "velocity": 0.36220472440944884,
          "duration": 0.023255813953483084
        },
        {
          "name": "C1",
          "midi": 24,
          "time": 117.32558139533536,
          "velocity": 0.6771653543307087,
          "duration": 0.011627906976741542
        },
        {
          "name": "B0",
          "midi": 23,
          "time": 117.3372093023121,
          "velocity": 0.6850393700787402,
          "duration": 0.023255813953483084
        },
        {
          "name": "A0",
          "midi": 21,
          "time": 117.36046511626559,
          "velocity": 0.6929133858267716,
          "duration": 0.023255813953483084
        },
        {
          "name": "D4",
          "midi": 62,
          "time": 117.36046511626559,
          "velocity": 0.2677165354330709,
          "duration": 0.023255813953483084
        },
        {
          "name": "F4",
          "midi": 65,
          "time": 117.36046511626559,
          "velocity": 0.3700787401574803,
          "duration": 0.023255813953483084
        },
        {
          "name": "G#0",
          "midi": 20,
          "time": 117.38372093021907,
          "velocity": 0.6850393700787402,
          "duration": 0.011627906976741542
        },
        {
          "name": "G0",
          "midi": 19,
          "time": 117.39534883719581,
          "velocity": 0.6929133858267716,
          "duration": 0.011627906976741542
        },
        {
          "name": "C#4",
          "midi": 61,
          "time": 117.39534883719581,
          "velocity": 0.3464566929133858,
          "duration": 0.023255813953483084
        },
        {
          "name": "F#0",
          "midi": 18,
          "time": 117.40697674417255,
          "velocity": 0.6850393700787402,
          "duration": 0.011627906976741542
        },
        {
          "name": "F0",
          "midi": 17,
          "time": 117.4186046511493,
          "velocity": 0.6850393700787402,
          "duration": 0.011627906976741542
        },
        {
          "name": "D#0",
          "midi": 15,
          "time": 117.43023255812604,
          "velocity": 0.6771653543307087,
          "duration": 0.023255813953483084
        },
        {
          "name": "F4",
          "midi": 65,
          "time": 117.43023255812604,
          "velocity": 0.2047244094488189,
          "duration": 0.034883720930224626
        },
        {
          "name": "F#7",
          "midi": 102,
          "time": 117.43023255812604,
          "velocity": 0.3464566929133858,
          "duration": 0.06976744186044925
        },
        {
          "name": "G7",
          "midi": 103,
          "time": 117.43023255812604,
          "velocity": 0.2677165354330709,
          "duration": 0.034883720930224626
        },
        {
          "name": "F2",
          "midi": 41,
          "time": 117.44186046510278,
          "velocity": 0.4645669291338583,
          "duration": 0.023255813953483084
        },
        {
          "name": "G3",
          "midi": 55,
          "time": 117.44186046510278,
          "velocity": 0.3543307086614173,
          "duration": 0.034883720930224626
        },
        {
          "name": "D#7",
          "midi": 99,
          "time": 117.44186046510278,
          "velocity": 0.1889763779527559,
          "duration": 0.05813953488370771
        },
        {
          "name": "E7",
          "midi": 100,
          "time": 117.44186046510278,
          "velocity": 0.1889763779527559,
          "duration": 0.04651162790696617
        },
        {
          "name": "F7",
          "midi": 101,
          "time": 117.44186046510278,
          "velocity": 0.2283464566929134,
          "duration": 0.05813953488370771
        },
        {
          "name": "D0",
          "midi": 14,
          "time": 117.45348837207952,
          "velocity": 0.6850393700787402,
          "duration": 0.011627906976741542
        },
        {
          "name": "D7",
          "midi": 98,
          "time": 117.45348837207952,
          "velocity": 0.13385826771653545,
          "duration": 0.05813953488370771
        },
        {
          "name": "B-1",
          "midi": 11,
          "time": 117.46511627905626,
          "velocity": 0.6220472440944882,
          "duration": 0.011627906976741542
        },
        {
          "name": "A-1",
          "midi": 9,
          "time": 117.476744186033,
          "velocity": 0.6456692913385826,
          "duration": 0.011627906976741542
        },
        {
          "name": "D3",
          "midi": 50,
          "time": 117.476744186033,
          "velocity": 0.3700787401574803,
          "duration": 0.023255813953483084
        },
        {
          "name": "B-1",
          "midi": 11,
          "time": 117.48837209300974,
          "velocity": 0.6850393700787402,
          "duration": 0.011627906976741542
        },
        {
          "name": "F-1",
          "midi": 5,
          "time": 117.49999999998649,
          "velocity": 0.5590551181102362,
          "duration": 0.011627906976741542
        },
        {
          "name": "C#3",
          "midi": 49,
          "time": 117.49999999998649,
          "velocity": 0.25984251968503935,
          "duration": 0.023255813953483084
        },
        {
          "name": "A#3",
          "midi": 58,
          "time": 117.51162790696323,
          "velocity": 0.16535433070866143,
          "duration": 0.04651162790696617
        },
        {
          "name": "D#4",
          "midi": 63,
          "time": 117.51162790696323,
          "velocity": 0.16535433070866143,
          "duration": 0.034883720930224626
        },
        {
          "name": "D0",
          "midi": 14,
          "time": 117.52325581393997,
          "velocity": 0.5984251968503937,
          "duration": 0.011627906976741542
        },
        {
          "name": "A4",
          "midi": 69,
          "time": 117.53488372091671,
          "velocity": 0.1732283464566929,
          "duration": 0.034883720930224626
        },
        {
          "name": "F6",
          "midi": 89,
          "time": 117.53488372091671,
          "velocity": 0.09448818897637795,
          "duration": 0.034883720930224626
        },
        {
          "name": "G6",
          "midi": 91,
          "time": 117.53488372091671,
          "velocity": 0.11811023622047244,
          "duration": 0.04651162790696617
        },
        {
          "name": "F#4",
          "midi": 66,
          "time": 117.54651162789345,
          "velocity": 0.3464566929133858,
          "duration": 0.023255813953483084
        },
        {
          "name": "C5",
          "midi": 72,
          "time": 117.54651162789345,
          "velocity": 0.29133858267716534,
          "duration": 0.04651162790696617
        },
        {
          "name": "C#6",
          "midi": 85,
          "time": 117.54651162789345,
          "velocity": 0.11811023622047244,
          "duration": 0.034883720930224626
        },
        {
          "name": "C3",
          "midi": 48,
          "time": 117.5581395348702,
          "velocity": 0.4645669291338583,
          "duration": 0.04651162790696617
        },
        {
          "name": "G-1",
          "midi": 7,
          "time": 117.56976744184693,
          "velocity": 0.5511811023622047,
          "duration": 0.011627906976741542
        },
        {
          "name": "G#-1",
          "midi": 8,
          "time": 117.58139534882368,
          "velocity": 0.6141732283464567,
          "duration": 0.011627906976741542
        },
        {
          "name": "F#4",
          "midi": 66,
          "time": 117.58139534882368,
          "velocity": 0.4015748031496063,
          "duration": 0.023255813953483084
        },
        {
          "name": "B4",
          "midi": 71,
          "time": 117.58139534882368,
          "velocity": 0.5039370078740157,
          "duration": 0.06976744186044925
        },
        {
          "name": "D#5",
          "midi": 75,
          "time": 117.58139534882368,
          "velocity": 0.1968503937007874,
          "duration": 0.034883720930224626
        },
        {
          "name": "F5",
          "midi": 77,
          "time": 117.58139534882368,
          "velocity": 0.2992125984251969,
          "duration": 0.39534883720921243
        },
        {
          "name": "D#6",
          "midi": 87,
          "time": 117.58139534882368,
          "velocity": 0.2204724409448819,
          "duration": 0.19767441860460622
        },
        {
          "name": "B-1",
          "midi": 11,
          "time": 117.59302325580042,
          "velocity": 0.6692913385826772,
          "duration": 0.011627906976741542
        },
        {
          "name": "D1",
          "midi": 26,
          "time": 117.60465116277716,
          "velocity": 0.6456692913385826,
          "duration": 0.011627906976741542
        },
        {
          "name": "B2",
          "midi": 47,
          "time": 117.60465116277716,
          "velocity": 0.41732283464566927,
          "duration": 0.023255813953483084
        },
        {
          "name": "G#4",
          "midi": 68,
          "time": 117.60465116277716,
          "velocity": 0.31496062992125984,
          "duration": 0.09302325581393234
        },
        {
          "name": "F#6",
          "midi": 90,
          "time": 117.60465116277716,
          "velocity": 0.28346456692913385,
          "duration": 0.06976744186044925
        },
        {
          "name": "G6",
          "midi": 91,
          "time": 117.60465116277716,
          "velocity": 0.16535433070866143,
          "duration": 0.034883720930224626
        },
        {
          "name": "A#6",
          "midi": 94,
          "time": 117.60465116277716,
          "velocity": 0.2992125984251969,
          "duration": 0.0813953488371908
        },
        {
          "name": "B6",
          "midi": 95,
          "time": 117.60465116277716,
          "velocity": 0.2755905511811024,
          "duration": 0.034883720930224626
        },
        {
          "name": "C7",
          "midi": 96,
          "time": 117.60465116277716,
          "velocity": 0.31496062992125984,
          "duration": 0.10465116279067388
        },
        {
          "name": "D7",
          "midi": 98,
          "time": 117.60465116277716,
          "velocity": 0.3464566929133858,
          "duration": 0.10465116279067388
        },
        {
          "name": "E7",
          "midi": 100,
          "time": 117.60465116277716,
          "velocity": 0.1732283464566929,
          "duration": 0.034883720930224626
        },
        {
          "name": "D#1",
          "midi": 27,
          "time": 117.6162790697539,
          "velocity": 0.6377952755905512,
          "duration": 0.406976744185954
        },
        {
          "name": "F#4",
          "midi": 66,
          "time": 117.6162790697539,
          "velocity": 0.3464566929133858,
          "duration": 0.023255813953483084
        },
        {
          "name": "D5",
          "midi": 74,
          "time": 117.6162790697539,
          "velocity": 0.23622047244094488,
          "duration": 0.04651162790696617
        },
        {
          "name": "A5",
          "midi": 81,
          "time": 117.6162790697539,
          "velocity": 0.11811023622047244,
          "duration": 0.04651162790696617
        },
        {
          "name": "A6",
          "midi": 93,
          "time": 117.6162790697539,
          "velocity": 0.30708661417322836,
          "duration": 0.034883720930224626
        },
        {
          "name": "C#7",
          "midi": 97,
          "time": 117.6162790697539,
          "velocity": 0.31496062992125984,
          "duration": 0.06976744186044925
        },
        {
          "name": "D#7",
          "midi": 99,
          "time": 117.6162790697539,
          "velocity": 0.29133858267716534,
          "duration": 0.06976744186044925
        },
        {
          "name": "F7",
          "midi": 101,
          "time": 117.6162790697539,
          "velocity": 0.28346456692913385,
          "duration": 0.06976744186044925
        },
        {
          "name": "G7",
          "midi": 103,
          "time": 117.6162790697539,
          "velocity": 0.18110236220472442,
          "duration": 0.06976744186044925
        },
        {
          "name": "A#2",
          "midi": 46,
          "time": 117.62790697673064,
          "velocity": 0.3700787401574803,
          "duration": 0.04651162790696617
        },
        {
          "name": "A#3",
          "midi": 58,
          "time": 117.62790697673064,
          "velocity": 0.5118110236220472,
          "duration": 0.05813953488370771
        },
        {
          "name": "C#6",
          "midi": 85,
          "time": 117.62790697673064,
          "velocity": 0.07086614173228346,
          "duration": 0.034883720930224626
        },
        {
          "name": "F#3",
          "midi": 54,
          "time": 117.63953488370738,
          "velocity": 0.3779527559055118,
          "duration": 0.023255813953483084
        },
        {
          "name": "F4",
          "midi": 65,
          "time": 117.63953488370738,
          "velocity": 0.4330708661417323,
          "duration": 0.034883720930224626
        },
        {
          "name": "G#6",
          "midi": 92,
          "time": 117.65116279068413,
          "velocity": 0.2204724409448819,
          "duration": 0.05813953488370771
        },
        {
          "name": "E7",
          "midi": 100,
          "time": 117.65116279068413,
          "velocity": 0.2283464566929134,
          "duration": 0.04651162790696617
        },
        {
          "name": "E6",
          "midi": 88,
          "time": 117.66279069766087,
          "velocity": 0.12598425196850394,
          "duration": 0.06976744186044925
        },
        {
          "name": "D#3",
          "midi": 51,
          "time": 117.67441860463761,
          "velocity": 0.33070866141732286,
          "duration": 0.023255813953483084
        },
        {
          "name": "F#4",
          "midi": 66,
          "time": 117.67441860463761,
          "velocity": 0.4094488188976378,
          "duration": 0.05813953488370771
        },
        {
          "name": "B3",
          "midi": 59,
          "time": 117.68604651161435,
          "velocity": 0.4645669291338583,
          "duration": 0.04651162790696617
        },
        {
          "name": "D5",
          "midi": 74,
          "time": 117.69767441859109,
          "velocity": 0.3228346456692913,
          "duration": 0.17441860465112313
        },
        {
          "name": "D#3",
          "midi": 51,
          "time": 117.70930232556783,
          "velocity": 0.33858267716535434,
          "duration": 0.023255813953483084
        },
        {
          "name": "F#6",
          "midi": 90,
          "time": 117.70930232556783,
          "velocity": 0.25196850393700787,
          "duration": 0.11627906976741542
        },
        {
          "name": "G6",
          "midi": 91,
          "time": 117.70930232556783,
          "velocity": 0.11023622047244094,
          "duration": 0.034883720930224626
        },
        {
          "name": "A#3",
          "midi": 58,
          "time": 117.73255813952132,
          "velocity": 0.4566929133858268,
          "duration": 0.1395348837208985
        },
        {
          "name": "F6",
          "midi": 89,
          "time": 117.73255813952132,
          "velocity": 0.3464566929133858,
          "duration": 0.11627906976741542
        },
        {
          "name": "F4",
          "midi": 65,
          "time": 117.74418604649806,
          "velocity": 0.28346456692913385,
          "duration": 0.12790697674415696
        },
        {
          "name": "G#4",
          "midi": 68,
          "time": 117.74418604649806,
          "velocity": 0.30708661417322836,
          "duration": 0.11627906976741542
        },
        {
          "name": "E7",
          "midi": 100,
          "time": 117.7558139534748,
          "velocity": 0.2204724409448819,
          "duration": 0.09302325581393234
        },
        {
          "name": "D#3",
          "midi": 51,
          "time": 117.76744186045154,
          "velocity": 0.33070866141732286,
          "duration": 0.1395348837208985
        },
        {
          "name": "C6",
          "midi": 84,
          "time": 117.76744186045154,
          "velocity": 0.07086614173228346,
          "duration": 0.06976744186044925
        },
        {
          "name": "C7",
          "midi": 96,
          "time": 117.79069767440502,
          "velocity": 0.08661417322834646,
          "duration": 0.05813953488370771
        },
        {
          "name": "D#6",
          "midi": 87,
          "time": 117.80232558138177,
          "velocity": 0.30708661417322836,
          "duration": 0.5348837209301394
        },
        {
          "name": "G#6",
          "midi": 92,
          "time": 117.82558139533525,
          "velocity": 0.2125984251968504,
          "duration": 0.04651162790696617
        },
        {
          "name": "B3",
          "midi": 59,
          "time": 117.87209302324221,
          "velocity": 0.3700787401574803,
          "duration": 0.023255813953483084
        },
        {
          "name": "G#4",
          "midi": 68,
          "time": 117.88372093021896,
          "velocity": 0.29133858267716534,
          "duration": 0.04651162790696617
        },
        {
          "name": "A#3",
          "midi": 58,
          "time": 117.8953488371957,
          "velocity": 0.47244094488188976,
          "duration": 0.023255813953483084
        },
        {
          "name": "B3",
          "midi": 59,
          "time": 117.91860465114918,
          "velocity": 0.5196850393700787,
          "duration": 0.034883720930224626
        },
        {
          "name": "B2",
          "midi": 47,
          "time": 117.93023255812592,
          "velocity": 0.4094488188976378,
          "duration": 0.023255813953483084
        },
        {
          "name": "G#4",
          "midi": 68,
          "time": 117.94186046510266,
          "velocity": 0.4094488188976378,
          "duration": 0.06976744186044925
        },
        {
          "name": "C3",
          "midi": 48,
          "time": 117.9534883720794,
          "velocity": 0.3858267716535433,
          "duration": 0.034883720930224626
        },
        {
          "name": "C#4",
          "midi": 61,
          "time": 117.9534883720794,
          "velocity": 0.48031496062992124,
          "duration": 0.05813953488370771
        },
        {
          "name": "G#6",
          "midi": 92,
          "time": 117.9534883720794,
          "velocity": 0.1968503937007874,
          "duration": 0.11627906976741542
        },
        {
          "name": "F#6",
          "midi": 90,
          "time": 117.96511627905615,
          "velocity": 0.2440944881889764,
          "duration": 0.05813953488370771
        },
        {
          "name": "A6",
          "midi": 93,
          "time": 117.97674418603289,
          "velocity": 0.1889763779527559,
          "duration": 0.034883720930224626
        },
        {
          "name": "D3",
          "midi": 50,
          "time": 117.98837209300963,
          "velocity": 0.3858267716535433,
          "duration": 0.034883720930224626
        },
        {
          "name": "A#4",
          "midi": 70,
          "time": 117.98837209300963,
          "velocity": 0.47244094488188976,
          "duration": 1.3953488372090277
        },
        {
          "name": "F5",
          "midi": 77,
          "time": 117.98837209300963,
          "velocity": 0.4566929133858268,
          "duration": 0.0813953488371908
        },
        {
          "name": "A#3",
          "midi": 58,
          "time": 118.01162790696311,
          "velocity": 0.29133858267716534,
          "duration": 0.023255813953483084
        },
        {
          "name": "D1",
          "midi": 26,
          "time": 118.02325581393985,
          "velocity": 0.5275590551181102,
          "duration": 0.011627906976741542
        },
        {
          "name": "E3",
          "midi": 52,
          "time": 118.02325581393985,
          "velocity": 0.3700787401574803,
          "duration": 0.023255813953483084
        },
        {
          "name": "F4",
          "midi": 65,
          "time": 118.02325581393985,
          "velocity": 0.28346456692913385,
          "duration": 0.023255813953483084
        },
        {
          "name": "D#5",
          "midi": 75,
          "time": 118.02325581393985,
          "velocity": 0.3464566929133858,
          "duration": 0.05813953488370771
        },
        {
          "name": "G5",
          "midi": 79,
          "time": 118.02325581393985,
          "velocity": 0.48031496062992124,
          "duration": 0.06976744186044925
        },
        {
          "name": "C1",
          "midi": 24,
          "time": 118.0348837209166,
          "velocity": 0.5669291338582677,
          "duration": 0.011627906976741542
        },
        {
          "name": "D#4",
          "midi": 63,
          "time": 118.0348837209166,
          "velocity": 0.29133858267716534,
          "duration": 0.023255813953483084
        },
        {
          "name": "C#1",
          "midi": 25,
          "time": 118.04651162789334,
          "velocity": 0.6456692913385826,
          "duration": 0.011627906976741542
        },
        {
          "name": "D1",
          "midi": 26,
          "time": 118.05813953487008,
          "velocity": 0.6929133858267716,
          "duration": 0.011627906976741542
        },
        {
          "name": "A2",
          "midi": 45,
          "time": 118.05813953487008,
          "velocity": 0.4881889763779528,
          "duration": 0.023255813953483084
        },
        {
          "name": "F#3",
          "midi": 54,
          "time": 118.05813953487008,
          "velocity": 0.5118110236220472,
          "duration": 0.011627906976741542
        },
        {
          "name": "F4",
          "midi": 65,
          "time": 118.05813953487008,
          "velocity": 0.3464566929133858,
          "duration": 0.04651162790696617
        },
        {
          "name": "C1",
          "midi": 24,
          "time": 118.06976744184682,
          "velocity": 0.6929133858267716,
          "duration": 0.011627906976741542
        },
        {
          "name": "A5",
          "midi": 81,
          "time": 118.06976744184682,
          "velocity": 0.3858267716535433,
          "duration": 0.31395348837205006
        },
        {
          "name": "B0",
          "midi": 23,
          "time": 118.08139534882356,
          "velocity": 0.7322834645669292,
          "duration": 1.2441860465113876
        },
        {
          "name": "F5",
          "midi": 77,
          "time": 118.08139534882356,
          "velocity": 0.47244094488188976,
          "duration": 0.3023255813953085
        },
        {
          "name": "C6",
          "midi": 84,
          "time": 118.08139534882356,
          "velocity": 0.28346456692913385,
          "duration": 0.3023255813953085
        },
        {
          "name": "D#4",
          "midi": 63,
          "time": 118.0930232558003,
          "velocity": 0.3228346456692913,
          "duration": 0.3255813953487916
        },
        {
          "name": "E7",
          "midi": 100,
          "time": 118.0930232558003,
          "velocity": 0.08661417322834646,
          "duration": 0.05813953488372192
        },
        {
          "name": "C#5",
          "midi": 73,
          "time": 118.15116279068403,
          "velocity": 0.1732283464566929,
          "duration": 0.05813953488370771
        },
        {
          "name": "F#4",
          "midi": 66,
          "time": 118.16279069766077,
          "velocity": 0.25196850393700787,
          "duration": 0.023255813953483084
        },
        {
          "name": "D#3",
          "midi": 51,
          "time": 118.19767441859099,
          "velocity": 0.5275590551181102,
          "duration": 0.05813953488370771
        },
        {
          "name": "C5",
          "midi": 72,
          "time": 118.19767441859099,
          "velocity": 0.14960629921259844,
          "duration": 0.05813953488370771
        },
        {
          "name": "G6",
          "midi": 91,
          "time": 118.22093023254448,
          "velocity": 0.12598425196850394,
          "duration": 0.04651162790696617
        },
        {
          "name": "F#2",
          "midi": 42,
          "time": 118.24418604649796,
          "velocity": 0.44881889763779526,
          "duration": 0.023255813953483084
        },
        {
          "name": "E3",
          "midi": 52,
          "time": 118.2558139534747,
          "velocity": 0.5354330708661418,
          "duration": 0.011627906976741542
        },
        {
          "name": "G6",
          "midi": 91,
          "time": 118.27906976742818,
          "velocity": 0.13385826771653545,
          "duration": 0.081395348837205
        },
        {
          "name": "D#3",
          "midi": 51,
          "time": 118.29069767440492,
          "velocity": 0.5196850393700787,
          "duration": 0.09302325581394655
        },
        {
          "name": "C5",
          "midi": 72,
          "time": 118.29069767440492,
          "velocity": 0.18110236220472442,
          "duration": 0.04651162790698038
        },
        {
          "name": "E7",
          "midi": 100,
          "time": 118.29069767440492,
          "velocity": 0.13385826771653545,
          "duration": 0.081395348837205
        },
        {
          "name": "D#6",
          "midi": 87,
          "time": 118.34883720928865,
          "velocity": 0.33070866141732286,
          "duration": 0.279069767441797
        },
        {
          "name": "F#2",
          "midi": 42,
          "time": 118.36046511626539,
          "velocity": 0.4645669291338583,
          "duration": 0.023255813953483084
        },
        {
          "name": "E5",
          "midi": 76,
          "time": 118.38372093021887,
          "velocity": 0.4015748031496063,
          "duration": 0.034883720930224626
        },
        {
          "name": "G#5",
          "midi": 80,
          "time": 118.38372093021887,
          "velocity": 0.3228346456692913,
          "duration": 0.023255813953483084
        },
        {
          "name": "B5",
          "midi": 83,
          "time": 118.38372093021887,
          "velocity": 0.1968503937007874,
          "duration": 0.04651162790696617
        },
        {
          "name": "D#3",
          "midi": 51,
          "time": 118.39534883719561,
          "velocity": 0.5433070866141733,
          "duration": 0.2209302325580893
        },
        {
          "name": "C#5",
          "midi": 73,
          "time": 118.39534883719561,
          "velocity": 0.18110236220472442,
          "duration": 0.06976744186044925
        },
        {
          "name": "G5",
          "midi": 79,
          "time": 118.40697674417235,
          "velocity": 0.36220472440944884,
          "duration": 0.0813953488371908
        },
        {
          "name": "D#5",
          "midi": 75,
          "time": 118.4186046511491,
          "velocity": 0.4645669291338583,
          "duration": 0.0813953488371908
        },
        {
          "name": "C#6",
          "midi": 85,
          "time": 118.4186046511491,
          "velocity": 0.1889763779527559,
          "duration": 0.04651162790696617
        },
        {
          "name": "F5",
          "midi": 77,
          "time": 118.44186046510258,
          "velocity": 0.3228346456692913,
          "duration": 0.11627906976741542
        },
        {
          "name": "D4",
          "midi": 62,
          "time": 118.4767441860328,
          "velocity": 0.4015748031496063,
          "duration": 0.023255813953483084
        },
        {
          "name": "C#5",
          "midi": 73,
          "time": 118.4767441860328,
          "velocity": 0.25984251968503935,
          "duration": 0.034883720930224626
        },
        {
          "name": "A5",
          "midi": 81,
          "time": 118.48837209300954,
          "velocity": 0.2204724409448819,
          "duration": 0.04651162790696617
        },
        {
          "name": "G5",
          "midi": 79,
          "time": 118.49999999998629,
          "velocity": 0.28346456692913385,
          "duration": 0.05813953488370771
        },
        {
          "name": "C6",
          "midi": 84,
          "time": 118.51162790696303,
          "velocity": 0.16535433070866143,
          "duration": 0.1627906976743816
        },
        {
          "name": "D6",
          "midi": 86,
          "time": 118.51162790696303,
          "velocity": 0.23622047244094488,
          "duration": 0.05813953488370771
        },
        {
          "name": "D5",
          "midi": 74,
          "time": 118.52325581393977,
          "velocity": 0.2992125984251969,
          "duration": 0.023255813953483084
        },
        {
          "name": "G2",
          "midi": 43,
          "time": 118.53488372091651,
          "velocity": 0.4566929133858268,
          "duration": 0.023255813953483084
        },
        {
          "name": "F4",
          "midi": 65,
          "time": 118.54651162789325,
          "velocity": 0.3228346456692913,
          "duration": 0.034883720930224626
        },
        {
          "name": "G6",
          "midi": 91,
          "time": 118.55813953487,
          "velocity": 0.09448818897637795,
          "duration": 0.12790697674415696
        },
        {
          "name": "C#5",
          "midi": 73,
          "time": 118.56976744184674,
          "velocity": 0.15748031496062992,
          "duration": 0.279069767441797
        },
        {
          "name": "F4",
          "midi": 65,
          "time": 118.59302325580022,
          "velocity": 0.2992125984251969,
          "duration": 0.023255813953483084
        },
        {
          "name": "A5",
          "midi": 81,
          "time": 118.59302325580022,
          "velocity": 0.14960629921259844,
          "duration": 0.09302325581393234
        },
        {
          "name": "D#4",
          "midi": 63,
          "time": 118.6162790697537,
          "velocity": 0.28346456692913385,
          "duration": 0.023255813953483084
        },
        {
          "name": "G5",
          "midi": 79,
          "time": 118.6162790697537,
          "velocity": 0.13385826771653545,
          "duration": 0.034883720930224626
        },
        {
          "name": "D#3",
          "midi": 51,
          "time": 118.62790697673044,
          "velocity": 0.4566929133858268,
          "duration": 0.023255813953483084
        },
        {
          "name": "B3",
          "midi": 59,
          "time": 118.63953488370719,
          "velocity": 0.18110236220472442,
          "duration": 0.1395348837208985
        },
        {
          "name": "F4",
          "midi": 65,
          "time": 118.63953488370719,
          "velocity": 0.31496062992125984,
          "duration": 0.04651162790696617
        },
        {
          "name": "F#5",
          "midi": 78,
          "time": 118.65116279068393,
          "velocity": 0.1889763779527559,
          "duration": 0.04651162790696617
        },
        {
          "name": "F#2",
          "midi": 42,
          "time": 118.66279069766067,
          "velocity": 0.4409448818897638,
          "duration": 0.04651162790696617
        },
        {
          "name": "D#3",
          "midi": 51,
          "time": 118.66279069766067,
          "velocity": 0.44881889763779526,
          "duration": 0.023255813953483084
        },
        {
          "name": "F6",
          "midi": 89,
          "time": 118.66279069766067,
          "velocity": 0.18110236220472442,
          "duration": 0.04651162790696617
        },
        {
          "name": "D7",
          "midi": 98,
          "time": 118.67441860463741,
          "velocity": 0.31496062992125984,
          "duration": 0.05813953488370771
        },
        {
          "name": "D#7",
          "midi": 99,
          "time": 118.67441860463741,
          "velocity": 0.29133858267716534,
          "duration": 0.06976744186044925
        },
        {
          "name": "F5",
          "midi": 77,
          "time": 118.68604651161415,
          "velocity": 0.2204724409448819,
          "duration": 0.10465116279067388
        },
        {
          "name": "D6",
          "midi": 86,
          "time": 118.68604651161415,
          "velocity": 0.11811023622047244,
          "duration": 0.034883720930224626
        },
        {
          "name": "A6",
          "midi": 93,
          "time": 118.68604651161415,
          "velocity": 0.29133858267716534,
          "duration": 0.04651162790696617
        },
        {
          "name": "A#6",
          "midi": 94,
          "time": 118.68604651161415,
          "velocity": 0.2992125984251969,
          "duration": 0.06976744186044925
        },
        {
          "name": "B6",
          "midi": 95,
          "time": 118.68604651161415,
          "velocity": 0.2755905511811024,
          "duration": 0.06976744186044925
        },
        {
          "name": "C7",
          "midi": 96,
          "time": 118.68604651161415,
          "velocity": 0.2677165354330709,
          "duration": 0.05813953488370771
        },
        {
          "name": "C#7",
          "midi": 97,
          "time": 118.68604651161415,
          "velocity": 0.29133858267716534,
          "duration": 0.0813953488371908
        },
        {
          "name": "E7",
          "midi": 100,
          "time": 118.68604651161415,
          "velocity": 0.1889763779527559,
          "duration": 0.06976744186044925
        },
        {
          "name": "F7",
          "midi": 101,
          "time": 118.68604651161415,
          "velocity": 0.2677165354330709,
          "duration": 0.0813953488371908
        },
        {
          "name": "F#7",
          "midi": 102,
          "time": 118.68604651161415,
          "velocity": 0.1968503937007874,
          "duration": 0.04651162790696617
        },
        {
          "name": "G7",
          "midi": 103,
          "time": 118.68604651161415,
          "velocity": 0.11811023622047244,
          "duration": 0.06976744186044925
        },
        {
          "name": "E6",
          "midi": 88,
          "time": 118.69767441859089,
          "velocity": 0.15748031496062992,
          "duration": 0.04651162790696617
        },
        {
          "name": "F#6",
          "midi": 90,
          "time": 118.69767441859089,
          "velocity": 0.2047244094488189,
          "duration": 0.04651162790696617
        },
        {
          "name": "F4",
          "midi": 65,
          "time": 118.72093023254438,
          "velocity": 0.33070866141732286,
          "duration": 0.09302325581393234
        },
        {
          "name": "C6",
          "midi": 84,
          "time": 118.72093023254438,
          "velocity": 0.13385826771653545,
          "duration": 0.17441860465112313
        },
        {
          "name": "G#6",
          "midi": 92,
          "time": 118.72093023254438,
          "velocity": 0.2440944881889764,
          "duration": 0.04651162790696617
        },
        {
          "name": "G5",
          "midi": 79,
          "time": 118.73255813952112,
          "velocity": 0.13385826771653545,
          "duration": 0.04651162790696617
        },
        {
          "name": "D#3",
          "midi": 51,
          "time": 118.7558139534746,
          "velocity": 0.3858267716535433,
          "duration": 0.023255813953483084
        },
        {
          "name": "E3",
          "midi": 52,
          "time": 118.79069767440483,
          "velocity": 0.3858267716535433,
          "duration": 0.023255813953483084
        },
        {
          "name": "F#5",
          "midi": 78,
          "time": 118.79069767440483,
          "velocity": 0.1968503937007874,
          "duration": 0.034883720930224626
        },
        {
          "name": "F5",
          "midi": 77,
          "time": 118.81395348835831,
          "velocity": 0.15748031496062992,
          "duration": 0.0813953488371908
        },
        {
          "name": "F#2",
          "midi": 42,
          "time": 118.82558139533505,
          "velocity": 0.41732283464566927,
          "duration": 0.023255813953483084
        },
        {
          "name": "D#4",
          "midi": 63,
          "time": 118.82558139533505,
          "velocity": 0.31496062992125984,
          "duration": 0.05813953488370771
        },
        {
          "name": "F4",
          "midi": 65,
          "time": 118.82558139533505,
          "velocity": 0.28346456692913385,
          "duration": 0.023255813953483084
        },
        {
          "name": "A5",
          "midi": 81,
          "time": 118.82558139533505,
          "velocity": 0.15748031496062992,
          "duration": 0.04651162790696617
        },
        {
          "name": "B5",
          "midi": 83,
          "time": 118.84883720928853,
          "velocity": 0.16535433070866143,
          "duration": 0.05813953488370771
        },
        {
          "name": "G3",
          "midi": 55,
          "time": 118.86046511626527,
          "velocity": 0.31496062992125984,
          "duration": 0.023255813953483084
        },
        {
          "name": "C#5",
          "midi": 73,
          "time": 118.86046511626527,
          "velocity": 0.12598425196850394,
          "duration": 0.09302325581393234
        },
        {
          "name": "C#7",
          "midi": 97,
          "time": 118.87209302324202,
          "velocity": 0.2047244094488189,
          "duration": 0.06976744186044925
        },
        {
          "name": "D7",
          "midi": 98,
          "time": 118.87209302324202,
          "velocity": 0.25984251968503935,
          "duration": 0.12790697674415696
        },
        {
          "name": "A3",
          "midi": 57,
          "time": 118.88372093021876,
          "velocity": 0.49606299212598426,
          "duration": 0.04651162790696617
        },
        {
          "name": "B6",
          "midi": 95,
          "time": 118.88372093021876,
          "velocity": 0.16535433070866143,
          "duration": 0.034883720930224626
        },
        {
          "name": "D4",
          "midi": 62,
          "time": 118.8953488371955,
          "velocity": 0.3543307086614173,
          "duration": 0.023255813953483084
        },
        {
          "name": "F#5",
          "midi": 78,
          "time": 118.8953488371955,
          "velocity": 0.1968503937007874,
          "duration": 0.10465116279067388
        },
        {
          "name": "D#7",
          "midi": 99,
          "time": 118.8953488371955,
          "velocity": 0.14960629921259844,
          "duration": 0.10465116279067388
        },
        {
          "name": "A2",
          "midi": 45,
          "time": 118.90697674417224,
          "velocity": 0.5196850393700787,
          "duration": 0.023255813953483084
        },
        {
          "name": "A5",
          "midi": 81,
          "time": 118.90697674417224,
          "velocity": 0.11023622047244094,
          "duration": 0.034883720930224626
        },
        {
          "name": "E7",
          "midi": 100,
          "time": 118.90697674417224,
          "velocity": 0.15748031496062992,
          "duration": 0.034883720930224626
        },
        {
          "name": "F4",
          "midi": 65,
          "time": 118.91860465114898,
          "velocity": 0.3543307086614173,
          "duration": 0.034883720930224626
        },
        {
          "name": "F6",
          "midi": 89,
          "time": 118.91860465114898,
          "velocity": 0.18110236220472442,
          "duration": 0.17441860465112313
        },
        {
          "name": "A#3",
          "midi": 58,
          "time": 118.93023255812572,
          "velocity": 0.5275590551181102,
          "duration": 0.06976744186044925
        },
        {
          "name": "C7",
          "midi": 96,
          "time": 118.94186046510247,
          "velocity": 0.13385826771653545,
          "duration": 0.034883720930224626
        },
        {
          "name": "G2",
          "midi": 43,
          "time": 118.9534883720792,
          "velocity": 0.3937007874015748,
          "duration": 0.023255813953483084
        },
        {
          "name": "E3",
          "midi": 52,
          "time": 118.9534883720792,
          "velocity": 0.3779527559055118,
          "duration": 0.023255813953483084
        },
        {
          "name": "D#4",
          "midi": 63,
          "time": 118.9534883720792,
          "velocity": 0.33070866141732286,
          "duration": 0.17441860465112313
        },
        {
          "name": "F#4",
          "midi": 66,
          "time": 118.9534883720792,
          "velocity": 0.33070866141732286,
          "duration": 0.1627906976743816
        },
        {
          "name": "C#6",
          "midi": 85,
          "time": 118.9534883720792,
          "velocity": 0.1732283464566929,
          "duration": 0.09302325581393234
        },
        {
          "name": "G6",
          "midi": 91,
          "time": 118.9534883720792,
          "velocity": 0.09448818897637795,
          "duration": 0.05813953488370771
        },
        {
          "name": "D3",
          "midi": 50,
          "time": 118.97674418603269,
          "velocity": 0.3858267716535433,
          "duration": 0.023255813953483084
        },
        {
          "name": "C#5",
          "midi": 73,
          "time": 118.97674418603269,
          "velocity": 0.1732283464566929,
          "duration": 0.10465116279067388
        },
        {
          "name": "A2",
          "midi": 45,
          "time": 118.99999999998617,
          "velocity": 0.4881889763779528,
          "duration": 0.023255813953483084
        },
        {
          "name": "F5",
          "midi": 77,
          "time": 118.99999999998617,
          "velocity": 0.09448818897637795,
          "duration": 0.034883720930224626
        },
        {
          "name": "A#2",
          "midi": 46,
          "time": 119.02325581393966,
          "velocity": 0.4015748031496063,
          "duration": 0.023255813953483084
        },
        {
          "name": "A#3",
          "midi": 58,
          "time": 119.0348837209164,
          "velocity": 0.5590551181102362,
          "duration": 0.11627906976741542
        },
        {
          "name": "D#3",
          "midi": 51,
          "time": 119.04651162789314,
          "velocity": 0.3858267716535433,
          "duration": 0.034883720930224626
        },
        {
          "name": "C#7",
          "midi": 97,
          "time": 119.05813953486988,
          "velocity": 0.2204724409448819,
          "duration": 0.0813953488371908
        },
        {
          "name": "F#7",
          "midi": 102,
          "time": 119.05813953486988,
          "velocity": 0.11811023622047244,
          "duration": 0.05813953488370771
        },
        {
          "name": "C6",
          "midi": 84,
          "time": 119.06976744184662,
          "velocity": 0.13385826771653545,
          "duration": 0.06976744186044925
        },
        {
          "name": "G6",
          "midi": 91,
          "time": 119.08139534882336,
          "velocity": 0.07086614173228346,
          "duration": 0.034883720930224626
        },
        {
          "name": "C7",
          "midi": 96,
          "time": 119.08139534882336,
          "velocity": 0.1732283464566929,
          "duration": 0.0813953488371908
        },
        {
          "name": "C#6",
          "midi": 85,
          "time": 119.0930232558001,
          "velocity": 0.07086614173228346,
          "duration": 0.034883720930224626
        },
        {
          "name": "D#7",
          "midi": 99,
          "time": 119.0930232558001,
          "velocity": 0.11023622047244094,
          "duration": 0.05813953488370771
        },
        {
          "name": "C#5",
          "midi": 73,
          "time": 119.10465116277685,
          "velocity": 0.18110236220472442,
          "duration": 0.43023255813945127
        },
        {
          "name": "F6",
          "midi": 89,
          "time": 119.11627906975359,
          "velocity": 0.15748031496062992,
          "duration": 0.2441860465115866
        },
        {
          "name": "F#4",
          "midi": 66,
          "time": 119.12790697673033,
          "velocity": 0.4094488188976378,
          "duration": 0.17441860465113734
        },
        {
          "name": "B2",
          "midi": 47,
          "time": 119.13953488370707,
          "velocity": 0.41732283464566927,
          "duration": 0.023255813953483084
        },
        {
          "name": "D#4",
          "midi": 63,
          "time": 119.13953488370707,
          "velocity": 0.3464566929133858,
          "duration": 0.12790697674417117
        },
        {
          "name": "G3",
          "midi": 55,
          "time": 119.15116279068381,
          "velocity": 0.3700787401574803,
          "duration": 0.023255813953483084
        },
        {
          "name": "A5",
          "midi": 81,
          "time": 119.16279069766055,
          "velocity": 0.10236220472440945,
          "duration": 0.06976744186046346
        },
        {
          "name": "C3",
          "midi": 48,
          "time": 119.1744186046373,
          "velocity": 0.4015748031496063,
          "duration": 0.023255813953483084
        },
        {
          "name": "G3",
          "midi": 55,
          "time": 119.23255813952102,
          "velocity": 0.3700787401574803,
          "duration": 0.034883720930224626
        },
        {
          "name": "C#6",
          "midi": 85,
          "time": 119.23255813952102,
          "velocity": 0.18110236220472442,
          "duration": 0.09302325581393234
        },
        {
          "name": "B2",
          "midi": 47,
          "time": 119.24418604649776,
          "velocity": 0.3543307086614173,
          "duration": 0.023255813953483084
        },
        {
          "name": "C3",
          "midi": 48,
          "time": 119.26744186045124,
          "velocity": 0.44881889763779526,
          "duration": 0.023255813953483084
        },
        {
          "name": "C#7",
          "midi": 97,
          "time": 119.27906976742798,
          "velocity": 0.30708661417322836,
          "duration": 0.1627906976743816
        },
        {
          "name": "D7",
          "midi": 98,
          "time": 119.27906976742798,
          "velocity": 0.3464566929133858,
          "duration": 0.1395348837208985
        },
        {
          "name": "B3",
          "midi": 59,
          "time": 119.29069767440473,
          "velocity": 0.5196850393700787,
          "duration": 0.011627906976741542
        },
        {
          "name": "B2",
          "midi": 47,
          "time": 119.30232558138147,
          "velocity": 0.47244094488188976,
          "duration": 0.023255813953483084
        },
        {
          "name": "A#3",
          "midi": 58,
          "time": 119.30232558138147,
          "velocity": 0.49606299212598426,
          "duration": 0.09302325581393234
        },
        {
          "name": "F4",
          "midi": 65,
          "time": 119.30232558138147,
          "velocity": 0.4330708661417323,
          "duration": 0.09302325581393234
        },
        {
          "name": "B6",
          "midi": 95,
          "time": 119.30232558138147,
          "velocity": 0.28346456692913385,
          "duration": 0.05813953488370771
        },
        {
          "name": "D#7",
          "midi": 99,
          "time": 119.30232558138147,
          "velocity": 0.30708661417322836,
          "duration": 0.0813953488371908
        },
        {
          "name": "E7",
          "midi": 100,
          "time": 119.31395348835821,
          "velocity": 0.29133858267716534,
          "duration": 0.09302325581393234
        },
        {
          "name": "C1",
          "midi": 24,
          "time": 119.32558139533495,
          "velocity": 0.5905511811023622,
          "duration": 0.011627906976741542
        },
        {
          "name": "F#5",
          "midi": 78,
          "time": 119.32558139533495,
          "velocity": 0.11023622047244094,
          "duration": 0.034883720930224626
        },
        {
          "name": "D6",
          "midi": 86,
          "time": 119.32558139533495,
          "velocity": 0.14173228346456693,
          "duration": 0.05813953488370771
        },
        {
          "name": "E6",
          "midi": 88,
          "time": 119.32558139533495,
          "velocity": 0.13385826771653545,
          "duration": 0.05813953488370771
        },
        {
          "name": "F#6",
          "midi": 90,
          "time": 119.32558139533495,
          "velocity": 0.1968503937007874,
          "duration": 0.05813953488370771
        },
        {
          "name": "A6",
          "midi": 93,
          "time": 119.32558139533495,
          "velocity": 0.28346456692913385,
          "duration": 0.04651162790696617
        },
        {
          "name": "A#6",
          "midi": 94,
          "time": 119.32558139533495,
          "velocity": 0.29133858267716534,
          "duration": 0.06976744186044925
        },
        {
          "name": "C7",
          "midi": 96,
          "time": 119.32558139533495,
          "velocity": 0.31496062992125984,
          "duration": 0.0813953488371908
        },
        {
          "name": "G7",
          "midi": 103,
          "time": 119.32558139533495,
          "velocity": 0.1889763779527559,
          "duration": 0.06976744186044925
        },
        {
          "name": "B0",
          "midi": 23,
          "time": 119.33720930231169,
          "velocity": 0.5826771653543307,
          "duration": 0.011627906976741542
        },
        {
          "name": "A5",
          "midi": 81,
          "time": 119.33720930231169,
          "velocity": 0.07874015748031496,
          "duration": 0.034883720930224626
        },
        {
          "name": "G#6",
          "midi": 92,
          "time": 119.33720930231169,
          "velocity": 0.25196850393700787,
          "duration": 0.06976744186044925
        },
        {
          "name": "F7",
          "midi": 101,
          "time": 119.33720930231169,
          "velocity": 0.28346456692913385,
          "duration": 0.05813953488370771
        },
        {
          "name": "C1",
          "midi": 24,
          "time": 119.34883720928843,
          "velocity": 0.5748031496062992,
          "duration": 0.011627906976741542
        },
        {
          "name": "A#0",
          "midi": 22,
          "time": 119.36046511626517,
          "velocity": 0.5748031496062992,
          "duration": 0.023255813953483084
        },
        {
          "name": "A2",
          "midi": 45,
          "time": 119.37209302324192,
          "velocity": 0.4094488188976378,
          "duration": 0.023255813953483084
        },
        {
          "name": "G4",
          "midi": 67,
          "time": 119.37209302324192,
          "velocity": 0.25984251968503935,
          "duration": 0.023255813953483084
        },
        {
          "name": "B0",
          "midi": 23,
          "time": 119.38372093021866,
          "velocity": 0.5748031496062992,
          "duration": 0.37209302325574356
        },
        {
          "name": "D#6",
          "midi": 87,
          "time": 119.38372093021866,
          "velocity": 0.12598425196850394,
          "duration": 0.360465116279002
        },
        {
          "name": "G#4",
          "midi": 68,
          "time": 119.3953488371954,
          "velocity": 0.3464566929133858,
          "duration": 0.360465116279002
        },
        {
          "name": "G#3",
          "midi": 56,
          "time": 119.40697674417214,
          "velocity": 0.28346456692913385,
          "duration": 0.023255813953483084
        },
        {
          "name": "G3",
          "midi": 55,
          "time": 119.43023255812562,
          "velocity": 0.29133858267716534,
          "duration": 0.023255813953483084
        },
        {
          "name": "G2",
          "midi": 43,
          "time": 119.45348837207911,
          "velocity": 0.2992125984251969,
          "duration": 0.034883720930224626
        },
        {
          "name": "F#3",
          "midi": 54,
          "time": 119.45348837207911,
          "velocity": 0.2755905511811024,
          "duration": 0.023255813953483084
        },
        {
          "name": "A#3",
          "midi": 58,
          "time": 119.47674418603259,
          "velocity": 0.2440944881889764,
          "duration": 0.034883720930224626
        },
        {
          "name": "F#3",
          "midi": 54,
          "time": 119.48837209300933,
          "velocity": 0.2283464566929134,
          "duration": 0.04651162790696617
        },
        {
          "name": "G2",
          "midi": 43,
          "time": 119.51162790696281,
          "velocity": 0.30708661417322836,
          "duration": 0.023255813953483084
        },
        {
          "name": "F4",
          "midi": 65,
          "time": 119.51162790696281,
          "velocity": 0.25196850393700787,
          "duration": 0.09302325581393234
        },
        {
          "name": "C7",
          "midi": 96,
          "time": 119.52325581393956,
          "velocity": 0.10236220472440945,
          "duration": 0.05813953488370771
        },
        {
          "name": "E3",
          "midi": 52,
          "time": 119.5348837209163,
          "velocity": 0.2992125984251969,
          "duration": 0.023255813953483084
        },
        {
          "name": "C5",
          "midi": 72,
          "time": 119.54651162789304,
          "velocity": 0.1732283464566929,
          "duration": 0.17441860465113734
        },
        {
          "name": "F3",
          "midi": 53,
          "time": 119.55813953486978,
          "velocity": 0.3779527559055118,
          "duration": 0.19767441860462043
        },
        {
          "name": "A#3",
          "midi": 58,
          "time": 119.55813953486978,
          "velocity": 0.28346456692913385,
          "duration": 0.04651162790696617
        },
        {
          "name": "A#3",
          "midi": 58,
          "time": 119.62790697673023,
          "velocity": 0.2125984251968504,
          "duration": 0.081395348837205
        },
        {
          "name": "D#4",
          "midi": 63,
          "time": 119.68604651161395,
          "velocity": 0.2283464566929134,
          "duration": 0.023255813953483084
        },
        {
          "name": "D4",
          "midi": 62,
          "time": 119.70930232556744,
          "velocity": 0.25196850393700787,
          "duration": 0.023255813953483084
        },
        {
          "name": "A#6",
          "midi": 94,
          "time": 119.70930232556744,
          "velocity": 0.16535433070866143,
          "duration": 0.05813953488370771
        },
        {
          "name": "C7",
          "midi": 96,
          "time": 119.70930232556744,
          "velocity": 0.12598425196850394,
          "duration": 0.05813953488370771
        },
        {
          "name": "F#2",
          "midi": 42,
          "time": 119.72093023254418,
          "velocity": 0.25196850393700787,
          "duration": 0.023255813953483084
        },
        {
          "name": "A#4",
          "midi": 70,
          "time": 119.72093023254418,
          "velocity": 0.3228346456692913,
          "duration": 0.023255813953483084
        },
        {
          "name": "C5",
          "midi": 72,
          "time": 119.73255813952092,
          "velocity": 0.28346456692913385,
          "duration": 0.023255813953483084
        },
        {
          "name": "D#5",
          "midi": 75,
          "time": 119.73255813952092,
          "velocity": 0.25196850393700787,
          "duration": 0.023255813953483084
        },
        {
          "name": "B6",
          "midi": 95,
          "time": 119.73255813952092,
          "velocity": 0.1732283464566929,
          "duration": 0.05813953488370771
        },
        {
          "name": "D#7",
          "midi": 99,
          "time": 119.73255813952092,
          "velocity": 0.12598425196850394,
          "duration": 0.034883720930224626
        },
        {
          "name": "A#4",
          "midi": 70,
          "time": 119.7558139534744,
          "velocity": 0.25984251968503935,
          "duration": 0.034883720930224626
        },
        {
          "name": "B0",
          "midi": 23,
          "time": 119.76744186045114,
          "velocity": 0.4330708661417323,
          "duration": 0.17441860465113734
        },
        {
          "name": "F#4",
          "midi": 66,
          "time": 119.76744186045114,
          "velocity": 0.2677165354330709,
          "duration": 0.023255813953483084
        },
        {
          "name": "C#5",
          "midi": 73,
          "time": 119.76744186045114,
          "velocity": 0.2283464566929134,
          "duration": 0.05813953488370771
        },
        {
          "name": "D#3",
          "midi": 51,
          "time": 119.77906976742788,
          "velocity": 0.3700787401574803,
          "duration": 0.18604651162787889
        },
        {
          "name": "G4",
          "midi": 67,
          "time": 119.79069767440463,
          "velocity": 0.23622047244094488,
          "duration": 0.023255813953483084
        },
        {
          "name": "A#4",
          "midi": 70,
          "time": 119.81395348835811,
          "velocity": 0.33858267716535434,
          "duration": 0.3720930232557862
        },
        {
          "name": "F6",
          "midi": 89,
          "time": 119.81395348835811,
          "velocity": 0.13385826771653545,
          "duration": 0.4767441860464601
        },
        {
          "name": "D5",
          "midi": 74,
          "time": 119.86046511626509,
          "velocity": 0.2440944881889764,
          "duration": 0.034883720930224626
        },
        {
          "name": "E4",
          "midi": 64,
          "time": 119.88372093021857,
          "velocity": 0.16535433070866143,
          "duration": 0.034883720930224626
        },
        {
          "name": "G#6",
          "midi": 92,
          "time": 119.88372093021857,
          "velocity": 0.16535433070866143,
          "duration": 0.034883720930224626
        },
        {
          "name": "D#5",
          "midi": 75,
          "time": 119.89534883719531,
          "velocity": 0.2125984251968504,
          "duration": 0.05813953488370771
        },
        {
          "name": "B3",
          "midi": 59,
          "time": 119.90697674417206,
          "velocity": 0.10236220472440945,
          "duration": 0.034883720930224626
        },
        {
          "name": "A#6",
          "midi": 94,
          "time": 119.9186046511488,
          "velocity": 0.07874015748031496,
          "duration": 0.034883720930224626
        },
        {
          "name": "C1",
          "midi": 24,
          "time": 119.96511627905576,
          "velocity": 0.25984251968503935,
          "duration": 0.023255813953483084
        },
        {
          "name": "C#5",
          "midi": 73,
          "time": 119.96511627905576,
          "velocity": 0.1968503937007874,
          "duration": 0.034883720930224626
        },
        {
          "name": "C#3",
          "midi": 49,
          "time": 119.98837209300925,
          "velocity": 0.31496062992125984,
          "duration": 0.19767441860464885
        },
        {
          "name": "D#5",
          "midi": 75,
          "time": 119.99999999998599,
          "velocity": 0.12598425196850394,
          "duration": 0.034883720930224626
        },
        {
          "name": "G#4",
          "midi": 68,
          "time": 120.01162790696273,
          "velocity": 0.14960629921259844,
          "duration": 0.10465116279068809
        },
        {
          "name": "D#4",
          "midi": 63,
          "time": 120.11627906975342,
          "velocity": 0.1968503937007874,
          "duration": 0.03488372093023884
        },
        {
          "name": "F4",
          "midi": 65,
          "time": 120.15116279068366,
          "velocity": 0.1732283464566929,
          "duration": 0.03488372093023884
        },
        {
          "name": "D5",
          "midi": 74,
          "time": 120.15116279068366,
          "velocity": 0.33858267716535434,
          "duration": 0.081395348837205
        },
        {
          "name": "F5",
          "midi": 77,
          "time": 120.15116279068366,
          "velocity": 0.3858267716535433,
          "duration": 0.4069767441859966
        },
        {
          "name": "F#1",
          "midi": 30,
          "time": 120.1860465116139,
          "velocity": 0.6929133858267716,
          "duration": 0.023255813953483084
        },
        {
          "name": "C3",
          "midi": 48,
          "time": 120.1860465116139,
          "velocity": 0.3858267716535433,
          "duration": 0.023255813953483084
        },
        {
          "name": "G#4",
          "midi": 68,
          "time": 120.1860465116139,
          "velocity": 0.33858267716535434,
          "duration": 0.3488372093022747
        },
        {
          "name": "A#3",
          "midi": 58,
          "time": 120.19767441859064,
          "velocity": 0.48031496062992124,
          "duration": 0.05813953488370771
        },
        {
          "name": "D#6",
          "midi": 87,
          "time": 120.19767441859064,
          "velocity": 0.14173228346456693,
          "duration": 0.4069767441859824
        },
        {
          "name": "C7",
          "midi": 96,
          "time": 120.19767441859064,
          "velocity": 0.16535433070866143,
          "duration": 0.034883720930224626
        },
        {
          "name": "E1",
          "midi": 28,
          "time": 120.20930232556738,
          "velocity": 0.7165354330708661,
          "duration": 0.011627906976741542
        },
        {
          "name": "D#4",
          "midi": 63,
          "time": 120.20930232556738,
          "velocity": 0.2677165354330709,
          "duration": 0.05813953488370771
        },
        {
          "name": "D#1",
          "midi": 27,
          "time": 120.22093023254412,
          "velocity": 0.7480314960629921,
          "duration": 1.244186046511416
        },
        {
          "name": "G3",
          "midi": 55,
          "time": 120.23255813952086,
          "velocity": 0.5118110236220472,
          "duration": 0.3023255813953085
        },
        {
          "name": "A#2",
          "midi": 46,
          "time": 120.27906976742783,
          "velocity": 0.4330708661417323,
          "duration": 0.05813953488370771
        },
        {
          "name": "D#4",
          "midi": 63,
          "time": 120.27906976742783,
          "velocity": 0.1732283464566929,
          "duration": 0.04651162790696617
        },
        {
          "name": "D5",
          "midi": 74,
          "time": 120.30232558138131,
          "velocity": 0.23622047244094488,
          "duration": 0.034883720930224626
        },
        {
          "name": "B4",
          "midi": 71,
          "time": 120.31395348835805,
          "velocity": 0.1889763779527559,
          "duration": 0.06976744186044925
        },
        {
          "name": "D#5",
          "midi": 75,
          "time": 120.33720930231154,
          "velocity": 0.2755905511811024,
          "duration": 0.04651162790696617
        },
        {
          "name": "G5",
          "midi": 79,
          "time": 120.33720930231154,
          "velocity": 0.08661417322834646,
          "duration": 0.05813953488370771
        },
        {
          "name": "G#6",
          "midi": 92,
          "time": 120.33720930231154,
          "velocity": 0.14173228346456693,
          "duration": 0.034883720930224626
        },
        {
          "name": "A6",
          "midi": 93,
          "time": 120.33720930231154,
          "velocity": 0.1732283464566929,
          "duration": 0.04651162790696617
        },
        {
          "name": "A#2",
          "midi": 46,
          "time": 120.34883720928828,
          "velocity": 0.4330708661417323,
          "duration": 0.023255813953483084
        },
        {
          "name": "A#2",
          "midi": 46,
          "time": 120.3837209302185,
          "velocity": 0.4330708661417323,
          "duration": 0.081395348837205
        },
        {
          "name": "D#4",
          "midi": 63,
          "time": 120.3837209302185,
          "velocity": 0.10236220472440945,
          "duration": 0.034883720930224626
        },
        {
          "name": "C7",
          "midi": 96,
          "time": 120.3837209302185,
          "velocity": 0.11023622047244094,
          "duration": 0.034883720930224626
        },
        {
          "name": "C#5",
          "midi": 73,
          "time": 120.39534883719524,
          "velocity": 0.2283464566929134,
          "duration": 0.034883720930224626
        },
        {
          "name": "A#2",
          "midi": 46,
          "time": 120.47674418603245,
          "velocity": 0.4251968503937008,
          "duration": 0.04651162790698038
        },
        {
          "name": "A#2",
          "midi": 46,
          "time": 120.53488372091617,
          "velocity": 0.5196850393700787,
          "duration": 0.06976744186044925
        },
        {
          "name": "C#5",
          "midi": 73,
          "time": 120.53488372091617,
          "velocity": 0.2755905511811024,
          "duration": 0.023255813953483084
        },
        {
          "name": "G5",
          "midi": 79,
          "time": 120.53488372091617,
          "velocity": 0.18110236220472442,
          "duration": 0.04651162790696617
        },
        {
          "name": "G#6",
          "midi": 92,
          "time": 120.53488372091617,
          "velocity": 0.2047244094488189,
          "duration": 0.05813953488370771
        },
        {
          "name": "A6",
          "midi": 93,
          "time": 120.53488372091617,
          "velocity": 0.2125984251968504,
          "duration": 0.034883720930224626
        },
        {
          "name": "A#6",
          "midi": 94,
          "time": 120.53488372091617,
          "velocity": 0.14173228346456693,
          "duration": 0.034883720930224626
        },
        {
          "name": "C7",
          "midi": 96,
          "time": 120.53488372091617,
          "velocity": 0.18110236220472442,
          "duration": 0.06976744186044925
        },
        {
          "name": "C#7",
          "midi": 97,
          "time": 120.53488372091617,
          "velocity": 0.1889763779527559,
          "duration": 0.034883720930224626
        },
        {
          "name": "F#7",
          "midi": 102,
          "time": 120.53488372091617,
          "velocity": 0.12598425196850394,
          "duration": 0.034883720930224626
        },
        {
          "name": "G#4",
          "midi": 68,
          "time": 120.54651162789291,
          "velocity": 0.5039370078740157,
          "duration": 0.023255813953483084
        },
        {
          "name": "A#4",
          "midi": 70,
          "time": 120.54651162789291,
          "velocity": 0.48031496062992124,
          "duration": 0.034883720930224626
        },
        {
          "name": "G6",
          "midi": 91,
          "time": 120.54651162789291,
          "velocity": 0.2677165354330709,
          "duration": 0.0813953488371908
        },
        {
          "name": "D5",
          "midi": 74,
          "time": 120.55813953486965,
          "velocity": 0.4566929133858268,
          "duration": 0.04651162790696617
        },
        {
          "name": "F#6",
          "midi": 90,
          "time": 120.55813953486965,
          "velocity": 0.25196850393700787,
          "duration": 0.09302325581393234
        },
        {
          "name": "G3",
          "midi": 55,
          "time": 120.5697674418464,
          "velocity": 0.4881889763779528,
          "duration": 0.20930232558136197
        },
        {
          "name": "F5",
          "midi": 77,
          "time": 120.5697674418464,
          "velocity": 0.2992125984251969,
          "duration": 0.023255813953483084
        },
        {
          "name": "C#6",
          "midi": 85,
          "time": 120.5697674418464,
          "velocity": 0.08661417322834646,
          "duration": 0.034883720930224626
        },
        {
          "name": "F4",
          "midi": 65,
          "time": 120.58139534882314,
          "velocity": 0.47244094488188976,
          "duration": 0.023255813953483084
        },
        {
          "name": "G#4",
          "midi": 68,
          "time": 120.58139534882314,
          "velocity": 0.33858267716535434,
          "duration": 0.3255813953487916
        },
        {
          "name": "B3",
          "midi": 59,
          "time": 120.59302325579988,
          "velocity": 0.3937007874015748,
          "duration": 0.05813953488370771
        },
        {
          "name": "B4",
          "midi": 71,
          "time": 120.59302325579988,
          "velocity": 0.3937007874015748,
          "duration": 0.25581395348834235
        },
        {
          "name": "F#5",
          "midi": 78,
          "time": 120.59302325579988,
          "velocity": 0.33070866141732286,
          "duration": 0.06976744186044925
        },
        {
          "name": "A5",
          "midi": 81,
          "time": 120.59302325579988,
          "velocity": 0.2204724409448819,
          "duration": 0.04651162790696617
        },
        {
          "name": "D#5",
          "midi": 75,
          "time": 120.60465116277662,
          "velocity": 0.4330708661417323,
          "duration": 0.04651162790696617
        },
        {
          "name": "B2",
          "midi": 47,
          "time": 120.6279069767301,
          "velocity": 0.4645669291338583,
          "duration": 0.023255813953483084
        },
        {
          "name": "F5",
          "midi": 77,
          "time": 120.6279069767301,
          "velocity": 0.44881889763779526,
          "duration": 0.8720930232556583
        },
        {
          "name": "C7",
          "midi": 96,
          "time": 120.6279069767301,
          "velocity": 0.07874015748031496,
          "duration": 0.05813953488370771
        },
        {
          "name": "D#4",
          "midi": 63,
          "time": 120.63953488370684,
          "velocity": 0.23622047244094488,
          "duration": 0.05813953488370771
        },
        {
          "name": "A#2",
          "midi": 46,
          "time": 120.65116279068359,
          "velocity": 0.3937007874015748,
          "duration": 0.034883720930224626
        },
        {
          "name": "D#6",
          "midi": 87,
          "time": 120.66279069766033,
          "velocity": 0.09448818897637795,
          "duration": 0.09302325581394655
        },
        {
          "name": "A#2",
          "midi": 46,
          "time": 120.69767441859055,
          "velocity": 0.41732283464566927,
          "duration": 0.023255813953483084
        },
        {
          "name": "A#2",
          "midi": 46,
          "time": 120.76744186045102,
          "velocity": 0.4409448818897638,
          "duration": 0.11627906976742963
        },
        {
          "name": "A#3",
          "midi": 58,
          "time": 120.76744186045102,
          "velocity": 0.4409448818897638,
          "duration": 0.09302325581394655
        },
        {
          "name": "D5",
          "midi": 74,
          "time": 120.76744186045102,
          "velocity": 0.44881889763779526,
          "duration": 0.18604651162787889
        },
        {
          "name": "A#5",
          "midi": 82,
          "time": 120.76744186045102,
          "velocity": 0.2755905511811024,
          "duration": 0.5465116279068667
        },
        {
          "name": "G#6",
          "midi": 92,
          "time": 120.76744186045102,
          "velocity": 0.1732283464566929,
          "duration": 0.06976744186046346
        },
        {
          "name": "C7",
          "midi": 96,
          "time": 120.76744186045102,
          "velocity": 0.14960629921259844,
          "duration": 0.09302325581394655
        },
        {
          "name": "F4",
          "midi": 65,
          "time": 120.77906976742776,
          "velocity": 0.29133858267716534,
          "duration": 0.19767441860462043
        },
        {
          "name": "C6",
          "midi": 84,
          "time": 120.77906976742776,
          "velocity": 0.2440944881889764,
          "duration": 0.15116279069765426
        },
        {
          "name": "D#6",
          "midi": 87,
          "time": 120.77906976742776,
          "velocity": 0.36220472440944884,
          "duration": 0.10465116279068809
        },
        {
          "name": "F#6",
          "midi": 90,
          "time": 120.77906976742776,
          "velocity": 0.28346456692913385,
          "duration": 0.05813953488372192
        },
        {
          "name": "G3",
          "midi": 55,
          "time": 120.813953488358,
          "velocity": 0.3858267716535433,
          "duration": 0.023255813953483084
        },
        {
          "name": "E6",
          "midi": 88,
          "time": 120.84883720928822,
          "velocity": 0.23622047244094488,
          "duration": 0.05813953488370771
        },
        {
          "name": "A#2",
          "midi": 46,
          "time": 120.89534883719519,
          "velocity": 0.3700787401574803,
          "duration": 0.05813953488370771
        },
        {
          "name": "A#3",
          "midi": 58,
          "time": 120.89534883719519,
          "velocity": 0.44881889763779526,
          "duration": 0.11627906976741542
        },
        {
          "name": "D#6",
          "midi": 87,
          "time": 120.89534883719519,
          "velocity": 0.3543307086614173,
          "duration": 0.1395348837208985
        },
        {
          "name": "G#4",
          "midi": 68,
          "time": 120.94186046510215,
          "velocity": 0.28346456692913385,
          "duration": 0.034883720930224626
        },
        {
          "name": "F#4",
          "midi": 66,
          "time": 120.97674418603238,
          "velocity": 0.4881889763779528,
          "duration": 0.04651162790696617
        },
        {
          "name": "D5",
          "midi": 74,
          "time": 120.97674418603238,
          "velocity": 0.3858267716535433,
          "duration": 0.29069767441853855
        },
        {
          "name": "C6",
          "midi": 84,
          "time": 120.98837209300912,
          "velocity": 0.3228346456692913,
          "duration": 0.279069767441797
        },
        {
          "name": "A#2",
          "midi": 46,
          "time": 120.99999999998586,
          "velocity": 0.3700787401574803,
          "duration": 0.0813953488371908
        },
        {
          "name": "A#6",
          "midi": 94,
          "time": 120.99999999998586,
          "velocity": 0.3228346456692913,
          "duration": 0.11627906976741542
        },
        {
          "name": "B6",
          "midi": 95,
          "time": 120.99999999998586,
          "velocity": 0.2677165354330709,
          "duration": 0.15116279069764005
        },
        {
          "name": "G#4",
          "midi": 68,
          "time": 121.0116279069626,
          "velocity": 0.2992125984251969,
          "duration": 0.034883720930224626
        },
        {
          "name": "G#5",
          "midi": 80,
          "time": 121.0116279069626,
          "velocity": 0.3228346456692913,
          "duration": 0.24418604651157239
        },
        {
          "name": "A#3",
          "midi": 58,
          "time": 121.02325581393934,
          "velocity": 0.4251968503937008,
          "duration": 0.39534883720922664
        },
        {
          "name": "F4",
          "midi": 65,
          "time": 121.02325581393934,
          "velocity": 0.25984251968503935,
          "duration": 0.023255813953483084
        },
        {
          "name": "E6",
          "midi": 88,
          "time": 121.03488372091608,
          "velocity": 0.3937007874015748,
          "duration": 0.05813953488370771
        },
        {
          "name": "F#6",
          "midi": 90,
          "time": 121.03488372091608,
          "velocity": 0.30708661417322836,
          "duration": 0.2558139534883139
        },
        {
          "name": "A6",
          "midi": 93,
          "time": 121.03488372091608,
          "velocity": 0.2992125984251969,
          "duration": 0.04651162790696617
        },
        {
          "name": "E4",
          "midi": 64,
          "time": 121.04651162789283,
          "velocity": 0.2992125984251969,
          "duration": 0.04651162790696617
        },
        {
          "name": "C#7",
          "midi": 97,
          "time": 121.04651162789283,
          "velocity": 0.31496062992125984,
          "duration": 0.0813953488371908
        },
        {
          "name": "D#7",
          "midi": 99,
          "time": 121.04651162789283,
          "velocity": 0.2992125984251969,
          "duration": 0.10465116279067388
        },
        {
          "name": "G7",
          "midi": 103,
          "time": 121.04651162789283,
          "velocity": 0.15748031496062992,
          "duration": 0.06976744186044925
        },
        {
          "name": "G#4",
          "midi": 68,
          "time": 121.05813953486957,
          "velocity": 0.3937007874015748,
          "duration": 0.4418604651161928
        },
        {
          "name": "A#2",
          "midi": 46,
          "time": 121.09302325579979,
          "velocity": 0.33858267716535434,
          "duration": 0.04651162790696617
        },
        {
          "name": "E6",
          "midi": 88,
          "time": 121.10465116277653,
          "velocity": 0.29133858267716534,
          "duration": 0.034883720930224626
        },
        {
          "name": "D#6",
          "midi": 87,
          "time": 121.13953488370676,
          "velocity": 0.3228346456692913,
          "duration": 0.034883720930224626
        },
        {
          "name": "A#2",
          "midi": 46,
          "time": 121.1511627906835,
          "velocity": 0.3543307086614173,
          "duration": 0.05813953488370771
        },
        {
          "name": "F4",
          "midi": 65,
          "time": 121.16279069766024,
          "velocity": 0.14960629921259844,
          "duration": 0.09302325581393234
        },
        {
          "name": "E6",
          "midi": 88,
          "time": 121.17441860463698,
          "velocity": 0.29133858267716534,
          "duration": 0.023255813953483084
        },
        {
          "name": "D#6",
          "midi": 87,
          "time": 121.19767441859047,
          "velocity": 0.25984251968503935,
          "duration": 0.023255813953483084
        },
        {
          "name": "D7",
          "midi": 98,
          "time": 121.20930232556721,
          "velocity": 0.10236220472440945,
          "duration": 0.06976744186044925
        },
        {
          "name": "A#2",
          "midi": 46,
          "time": 121.22093023254395,
          "velocity": 0.3228346456692913,
          "duration": 0.023255813953483084
        },
        {
          "name": "E6",
          "midi": 88,
          "time": 121.22093023254395,
          "velocity": 0.1968503937007874,
          "duration": 0.034883720930224626
        },
        {
          "name": "D#6",
          "midi": 87,
          "time": 121.24418604649743,
          "velocity": 0.18110236220472442,
          "duration": 0.034883720930224626
        },
        {
          "name": "C#5",
          "midi": 73,
          "time": 121.26744186045092,
          "velocity": 0.25196850393700787,
          "duration": 0.023255813953483084
        },
        {
          "name": "A#2",
          "midi": 46,
          "time": 121.27906976742766,
          "velocity": 0.30708661417322836,
          "duration": 0.023255813953483084
        },
        {
          "name": "D#6",
          "midi": 87,
          "time": 121.2906976744044,
          "velocity": 0.14173228346456693,
          "duration": 0.15116279069765426
        },
        {
          "name": "D#3",
          "midi": 51,
          "time": 121.30232558138114,
          "velocity": 0.30708661417322836,
          "duration": 0.05813953488372192
        },
        {
          "name": "D6",
          "midi": 86,
          "time": 121.34883720928812,
          "velocity": 0.07874015748031496,
          "duration": 0.09302325581393234
        },
        {
          "name": "D#3",
          "midi": 51,
          "time": 121.3720930232416,
          "velocity": 0.3543307086614173,
          "duration": 0.023255813953483084
        },
        {
          "name": "C#5",
          "midi": 73,
          "time": 121.3720930232416,
          "velocity": 0.2283464566929134,
          "duration": 0.04651162790696617
        },
        {
          "name": "D3",
          "midi": 50,
          "time": 121.39534883719509,
          "velocity": 0.4330708661417323,
          "duration": 0.023255813953483084
        },
        {
          "name": "C#4",
          "midi": 61,
          "time": 121.39534883719509,
          "velocity": 0.3858267716535433,
          "duration": 0.06976744186044925
        },
        {
          "name": "D5",
          "midi": 74,
          "time": 121.40697674417183,
          "velocity": 0.28346456692913385,
          "duration": 0.023255813953483084
        },
        {
          "name": "A#4",
          "midi": 70,
          "time": 121.41860465114857,
          "velocity": 0.3228346456692913,
          "duration": 0.05813953488370771
        },
        {
          "name": "B5",
          "midi": 83,
          "time": 121.41860465114857,
          "velocity": 0.1968503937007874,
          "duration": 0.04651162790696617
        },
        {
          "name": "F#6",
          "midi": 90,
          "time": 121.41860465114857,
          "velocity": 0.2992125984251969,
          "duration": 0.0813953488371908
        },
        {
          "name": "C3",
          "midi": 48,
          "time": 121.43023255812531,
          "velocity": 0.3858267716535433,
          "duration": 0.023255813953483084
        },
        {
          "name": "G5",
          "midi": 79,
          "time": 121.43023255812531,
          "velocity": 0.4251968503937008,
          "duration": 0.10465116279067388
        },
        {
          "name": "C#6",
          "midi": 85,
          "time": 121.43023255812531,
          "velocity": 0.2992125984251969,
          "duration": 0.11627906976741542
        },
        {
          "name": "C7",
          "midi": 96,
          "time": 121.43023255812531,
          "velocity": 0.11811023622047244,
          "duration": 0.034883720930224626
        },
        {
          "name": "D#5",
          "midi": 75,
          "time": 121.4534883720788,
          "velocity": 0.29133858267716534,
          "duration": 0.2209302325580893
        },
        {
          "name": "C1",
          "midi": 24,
          "time": 121.46511627905554,
          "velocity": 0.6220472440944882,
          "duration": 0.023255813953483084
        },
        {
          "name": "A#5",
          "midi": 82,
          "time": 121.46511627905554,
          "velocity": 0.33070866141732286,
          "duration": 0.06976744186044925
        },
        {
          "name": "D#6",
          "midi": 87,
          "time": 121.46511627905554,
          "velocity": 0.3779527559055118,
          "duration": 0.3604651162789878
        },
        {
          "name": "A2",
          "midi": 45,
          "time": 121.47674418603228,
          "velocity": 0.44881889763779526,
          "duration": 0.023255813953483084
        },
        {
          "name": "F3",
          "midi": 53,
          "time": 121.47674418603228,
          "velocity": 0.47244094488188976,
          "duration": 0.023255813953483084
        },
        {
          "name": "C#4",
          "midi": 61,
          "time": 121.47674418603228,
          "velocity": 0.25196850393700787,
          "duration": 0.023255813953483084
        },
        {
          "name": "D#4",
          "midi": 63,
          "time": 121.47674418603228,
          "velocity": 0.4015748031496063,
          "duration": 0.26744186046505547
        },
        {
          "name": "D7",
          "midi": 98,
          "time": 121.47674418603228,
          "velocity": 0.08661417322834646,
          "duration": 0.05813953488370771
        },
        {
          "name": "D1",
          "midi": 26,
          "time": 121.48837209300902,
          "velocity": 0.6850393700787402,
          "duration": 0.011627906976741542
        },
        {
          "name": "F#4",
          "midi": 66,
          "time": 121.48837209300902,
          "velocity": 0.1732283464566929,
          "duration": 0.04651162790696617
        },
        {
          "name": "C#1",
          "midi": 25,
          "time": 121.49999999998576,
          "velocity": 0.7007874015748031,
          "duration": 0.011627906976741542
        },
        {
          "name": "F#3",
          "midi": 54,
          "time": 121.49999999998576,
          "velocity": 0.4409448818897638,
          "duration": 0.023255813953483084
        },
        {
          "name": "B0",
          "midi": 23,
          "time": 121.5116279069625,
          "velocity": 0.7165354330708661,
          "duration": 0.04651162790696617
        },
        {
          "name": "F3",
          "midi": 53,
          "time": 121.52325581393924,
          "velocity": 0.5196850393700787,
          "duration": 0.011627906976741542
        },
        {
          "name": "B4",
          "midi": 71,
          "time": 121.52325581393924,
          "velocity": 0.14173228346456693,
          "duration": 0.034883720930224626
        },
        {
          "name": "F5",
          "midi": 77,
          "time": 121.52325581393924,
          "velocity": 0.4094488188976378,
          "duration": 0.2209302325580893
        },
        {
          "name": "D#3",
          "midi": 51,
          "time": 121.53488372091599,
          "velocity": 0.4645669291338583,
          "duration": 0.034883720930224626
        },
        {
          "name": "A5",
          "midi": 81,
          "time": 121.53488372091599,
          "velocity": 0.3858267716535433,
          "duration": 0.3023255813952801
        },
        {
          "name": "C6",
          "midi": 84,
          "time": 121.53488372091599,
          "velocity": 0.3543307086614173,
          "duration": 0.3604651162789878
        },
        {
          "name": "A#0",
          "midi": 22,
          "time": 121.55813953486947,
          "velocity": 0.7165354330708661,
          "duration": 0.011627906976741542
        },
        {
          "name": "C5",
          "midi": 72,
          "time": 121.55813953486947,
          "velocity": 0.16535433070866143,
          "duration": 0.05813953488370771
        },
        {
          "name": "G5",
          "midi": 79,
          "time": 121.55813953486947,
          "velocity": 0.10236220472440945,
          "duration": 0.05813953488370771
        },
        {
          "name": "G6",
          "midi": 91,
          "time": 121.55813953486947,
          "velocity": 0.14173228346456693,
          "duration": 0.034883720930224626
        },
        {
          "name": "F#7",
          "midi": 102,
          "time": 121.55813953486947,
          "velocity": 0.1889763779527559,
          "duration": 0.24418604651157239
        },
        {
          "name": "B0",
          "midi": 23,
          "time": 121.56976744184621,
          "velocity": 0.7322834645669292,
          "duration": 1.2209302325578761
        },
        {
          "name": "D#3",
          "midi": 51,
          "time": 121.5930232557997,
          "velocity": 0.5118110236220472,
          "duration": 0.011627906976741542
        },
        {
          "name": "C#5",
          "midi": 73,
          "time": 121.5930232557997,
          "velocity": 0.12598425196850394,
          "duration": 0.04651162790696617
        },
        {
          "name": "D#3",
          "midi": 51,
          "time": 121.61627906975318,
          "velocity": 0.5433070866141733,
          "duration": 0.05813953488370771
        },
        {
          "name": "A#4",
          "midi": 70,
          "time": 121.61627906975318,
          "velocity": 0.16535433070866143,
          "duration": 0.17441860465112313
        },
        {
          "name": "F#4",
          "midi": 66,
          "time": 121.63953488370666,
          "velocity": 0.2440944881889764,
          "duration": 0.023255813953483084
        },
        {
          "name": "C5",
          "midi": 72,
          "time": 121.6511627906834,
          "velocity": 0.2047244094488189,
          "duration": 0.06976744186044925
        },
        {
          "name": "F#4",
          "midi": 66,
          "time": 121.67441860463688,
          "velocity": 0.2440944881889764,
          "duration": 0.034883720930224626
        },
        {
          "name": "E3",
          "midi": 52,
          "time": 121.68604651161363,
          "velocity": 0.5433070866141733,
          "duration": 0.011627906976741542
        },
        {
          "name": "D#3",
          "midi": 51,
          "time": 121.69767441859037,
          "velocity": 0.5196850393700787,
          "duration": 0.011627906976741542
        },
        {
          "name": "D#3",
          "midi": 51,
          "time": 121.72093023254385,
          "velocity": 0.5275590551181102,
          "duration": 0.15116279069764005
        },
        {
          "name": "F#4",
          "midi": 66,
          "time": 121.72093023254385,
          "velocity": 0.33858267716535434,
          "duration": 0.023255813953483084
        },
        {
          "name": "F4",
          "midi": 65,
          "time": 121.74418604649733,
          "velocity": 0.36220472440944884,
          "duration": 0.023255813953483084
        },
        {
          "name": "C5",
          "midi": 72,
          "time": 121.74418604649733,
          "velocity": 0.25984251968503935,
          "duration": 0.12790697674415696
        },
        {
          "name": "F4",
          "midi": 65,
          "time": 121.77906976742756,
          "velocity": 0.3228346456692913,
          "duration": 0.023255813953483084
        },
        {
          "name": "D#5",
          "midi": 75,
          "time": 121.7906976744043,
          "velocity": 0.36220472440944884,
          "duration": 0.279069767441797
        },
        {
          "name": "A#4",
          "midi": 70,
          "time": 121.80232558138104,
          "velocity": 0.33858267716535434,
          "duration": 0.9999999999997868
        },
        {
          "name": "D#4",
          "midi": 63,
          "time": 121.81395348835778,
          "velocity": 0.5275590551181102,
          "duration": 0.17441860465112313
        },
        {
          "name": "G5",
          "midi": 79,
          "time": 121.82558139533452,
          "velocity": 0.33858267716535434,
          "duration": 0.1395348837208985
        },
        {
          "name": "F6",
          "midi": 89,
          "time": 121.82558139533452,
          "velocity": 0.2283464566929134,
          "duration": 0.31395348837202164
        },
        {
          "name": "A5",
          "midi": 81,
          "time": 121.86046511626475,
          "velocity": 0.08661417322834646,
          "duration": 0.034883720930224626
        },
        {
          "name": "F5",
          "midi": 77,
          "time": 121.87209302324149,
          "velocity": 0.2047244094488189,
          "duration": 0.05813953488370771
        },
        {
          "name": "D#3",
          "midi": 51,
          "time": 121.88372093021823,
          "velocity": 0.3937007874015748,
          "duration": 0.023255813953483084
        },
        {
          "name": "F#2",
          "midi": 42,
          "time": 121.89534883719497,
          "velocity": 0.4251968503937008,
          "duration": 0.034883720930224626
        },
        {
          "name": "F#4",
          "midi": 66,
          "time": 121.89534883719497,
          "velocity": 0.16535433070866143,
          "duration": 0.034883720930224626
        },
        {
          "name": "D6",
          "midi": 86,
          "time": 121.89534883719497,
          "velocity": 0.14960629921259844,
          "duration": 0.034883720930224626
        },
        {
          "name": "C#5",
          "midi": 73,
          "time": 121.90697674417171,
          "velocity": 0.11023622047244094,
          "duration": 0.05813953488370771
        },
        {
          "name": "A#5",
          "midi": 82,
          "time": 121.90697674417171,
          "velocity": 0.33858267716535434,
          "duration": 0.47674418604640323
        },
        {
          "name": "C#6",
          "midi": 85,
          "time": 121.90697674417171,
          "velocity": 0.1889763779527559,
          "duration": 0.05813953488370771
        },
        {
          "name": "D3",
          "midi": 50,
          "time": 121.9302325581252,
          "velocity": 0.3858267716535433,
          "duration": 0.023255813953483084
        },
        {
          "name": "D#3",
          "midi": 51,
          "time": 121.95348837207868,
          "velocity": 0.49606299212598426,
          "duration": 0.04651162790696617
        },
        {
          "name": "F5",
          "midi": 77,
          "time": 121.95348837207868,
          "velocity": 0.2204724409448819,
          "duration": 0.0813953488371908
        },
        {
          "name": "C6",
          "midi": 84,
          "time": 121.96511627905542,
          "velocity": 0.12598425196850394,
          "duration": 0.0813953488371908
        },
        {
          "name": "C#4",
          "midi": 61,
          "time": 121.97674418603216,
          "velocity": 0.44881889763779526,
          "duration": 0.04651162790696617
        },
        {
          "name": "G#4",
          "midi": 68,
          "time": 121.97674418603216,
          "velocity": 0.2755905511811024,
          "duration": 0.04651162790696617
        },
        {
          "name": "F4",
          "midi": 65,
          "time": 121.9883720930089,
          "velocity": 0.3228346456692913,
          "duration": 0.023255813953483084
        },
        {
          "name": "D3",
          "midi": 50,
          "time": 121.99999999998565,
          "velocity": 0.5275590551181102,
          "duration": 0.023255813953483084
        },
        {
          "name": "A5",
          "midi": 81,
          "time": 121.99999999998565,
          "velocity": 0.12598425196850394,
          "duration": 0.034883720930224626
        },
        {
          "name": "G2",
          "midi": 43,
          "time": 122.02325581393913,
          "velocity": 0.4645669291338583,
          "duration": 0.023255813953483084
        },
        {
          "name": "D#4",
          "midi": 63,
          "time": 122.02325581393913,
          "velocity": 0.36220472440944884,
          "duration": 0.023255813953483084
        },
        {
          "name": "G#5",
          "midi": 80,
          "time": 122.02325581393913,
          "velocity": 0.1732283464566929,
          "duration": 0.10465116279067388
        },
        {
          "name": "B3",
          "midi": 59,
          "time": 122.03488372091587,
          "velocity": 0.41732283464566927,
          "duration": 0.04651162790696617
        },
        {
          "name": "F#4",
          "midi": 66,
          "time": 122.03488372091587,
          "velocity": 0.3779527559055118,
          "duration": 0.034883720930224626
        },
        {
          "name": "D#3",
          "midi": 51,
          "time": 122.05813953486935,
          "velocity": 0.47244094488188976,
          "duration": 0.15116279069764005
        },
        {
          "name": "F#2",
          "midi": 42,
          "time": 122.0697674418461,
          "velocity": 0.4251968503937008,
          "duration": 0.023255813953483084
        },
        {
          "name": "A#3",
          "midi": 58,
          "time": 122.08139534882284,
          "velocity": 0.3464566929133858,
          "duration": 0.034883720930224626
        },
        {
          "name": "F#2",
          "midi": 42,
          "time": 122.10465116277632,
          "velocity": 0.41732283464566927,
          "duration": 0.023255813953483084
        },
        {
          "name": "F#6",
          "midi": 90,
          "time": 122.10465116277632,
          "velocity": 0.1968503937007874,
          "duration": 0.06976744186044925
        },
        {
          "name": "A3",
          "midi": 57,
          "time": 122.11627906975306,
          "velocity": 0.28346456692913385,
          "duration": 0.023255813953483084
        },
        {
          "name": "C6",
          "midi": 84,
          "time": 122.11627906975306,
          "velocity": 0.15748031496062992,
          "duration": 0.1395348837208985
        },
        {
          "name": "E6",
          "midi": 88,
          "time": 122.11627906975306,
          "velocity": 0.1732283464566929,
          "duration": 0.034883720930224626
        },
        {
          "name": "G6",
          "midi": 91,
          "time": 122.11627906975306,
          "velocity": 0.11023622047244094,
          "duration": 0.034883720930224626
        },
        {
          "name": "A6",
          "midi": 93,
          "time": 122.11627906975306,
          "velocity": 0.28346456692913385,
          "duration": 0.2558139534883139
        },
        {
          "name": "B6",
          "midi": 95,
          "time": 122.11627906975306,
          "velocity": 0.2677165354330709,
          "duration": 0.034883720930224626
        },
        {
          "name": "C7",
          "midi": 96,
          "time": 122.11627906975306,
          "velocity": 0.2677165354330709,
          "duration": 0.09302325581393234
        },
        {
          "name": "C#7",
          "midi": 97,
          "time": 122.11627906975306,
          "velocity": 0.29133858267716534,
          "duration": 0.06976744186044925
        },
        {
          "name": "D7",
          "midi": 98,
          "time": 122.11627906975306,
          "velocity": 0.30708661417322836,
          "duration": 0.04651162790696617
        },
        {
          "name": "D#7",
          "midi": 99,
          "time": 122.11627906975306,
          "velocity": 0.30708661417322836,
          "duration": 0.10465116279067388
        },
        {
          "name": "E7",
          "midi": 100,
          "time": 122.11627906975306,
          "velocity": 0.2047244094488189,
          "duration": 0.0813953488371908
        },
        {
          "name": "F5",
          "midi": 77,
          "time": 122.1279069767298,
          "velocity": 0.4409448818897638,
          "duration": 0.3023255813952801
        },
        {
          "name": "D6",
          "midi": 86,
          "time": 122.1279069767298,
          "velocity": 0.13385826771653545,
          "duration": 0.034883720930224626
        },
        {
          "name": "F7",
          "midi": 101,
          "time": 122.1279069767298,
          "velocity": 0.2677165354330709,
          "duration": 0.1627906976743816
        },
        {
          "name": "G7",
          "midi": 103,
          "time": 122.1279069767298,
          "velocity": 0.13385826771653545,
          "duration": 0.034883720930224626
        },
        {
          "name": "B3",
          "midi": 59,
          "time": 122.13953488370655,
          "velocity": 0.3464566929133858,
          "duration": 0.12790697674415696
        },
        {
          "name": "G#6",
          "midi": 92,
          "time": 122.13953488370655,
          "velocity": 0.25984251968503935,
          "duration": 0.04651162790696617
        },
        {
          "name": "A5",
          "midi": 81,
          "time": 122.15116279068329,
          "velocity": 0.12598425196850394,
          "duration": 0.05813953488370771
        },
        {
          "name": "D#6",
          "midi": 87,
          "time": 122.15116279068329,
          "velocity": 0.1889763779527559,
          "duration": 0.05813953488370771
        },
        {
          "name": "D#3",
          "midi": 51,
          "time": 122.22093023254374,
          "velocity": 0.4409448818897638,
          "duration": 0.023255813953483084
        },
        {
          "name": "F#4",
          "midi": 66,
          "time": 122.22093023254374,
          "velocity": 0.29133858267716534,
          "duration": 0.06976744186044925
        },
        {
          "name": "F#2",
          "midi": 42,
          "time": 122.23255813952048,
          "velocity": 0.41732283464566927,
          "duration": 0.023255813953483084
        },
        {
          "name": "D#6",
          "midi": 87,
          "time": 122.24418604649722,
          "velocity": 0.14960629921259844,
          "duration": 0.0813953488371908
        },
        {
          "name": "D#5",
          "midi": 75,
          "time": 122.25581395347396,
          "velocity": 0.4330708661417323,
          "duration": 0.034883720930224626
        },
        {
          "name": "G#6",
          "midi": 92,
          "time": 122.25581395347396,
          "velocity": 0.33070866141732286,
          "duration": 0.11627906976741542
        },
        {
          "name": "F#2",
          "midi": 42,
          "time": 122.2674418604507,
          "velocity": 0.4094488188976378,
          "duration": 0.023255813953483084
        },
        {
          "name": "D#3",
          "midi": 51,
          "time": 122.2674418604507,
          "velocity": 0.3779527559055118,
          "duration": 0.023255813953483084
        },
        {
          "name": "C5",
          "midi": 72,
          "time": 122.2674418604507,
          "velocity": 0.25984251968503935,
          "duration": 0.023255813953483084
        },
        {
          "name": "C6",
          "midi": 84,
          "time": 122.2674418604507,
          "velocity": 0.28346456692913385,
          "duration": 0.09302325581393234
        },
        {
          "name": "G#5",
          "midi": 80,
          "time": 122.27906976742744,
          "velocity": 0.11023622047244094,
          "duration": 0.034883720930224626
        },
        {
          "name": "F#6",
          "midi": 90,
          "time": 122.27906976742744,
          "velocity": 0.2047244094488189,
          "duration": 0.05813953488370771
        },
        {
          "name": "A#3",
          "midi": 58,
          "time": 122.29069767440419,
          "velocity": 0.2992125984251969,
          "duration": 0.023255813953483084
        },
        {
          "name": "D5",
          "midi": 74,
          "time": 122.29069767440419,
          "velocity": 0.3779527559055118,
          "duration": 0.04651162790696617
        },
        {
          "name": "D#3",
          "midi": 51,
          "time": 122.30232558138093,
          "velocity": 0.4015748031496063,
          "duration": 0.023255813953483084
        },
        {
          "name": "F#2",
          "midi": 42,
          "time": 122.31395348835767,
          "velocity": 0.3858267716535433,
          "duration": 0.023255813953483084
        },
        {
          "name": "F#3",
          "midi": 54,
          "time": 122.33720930231115,
          "velocity": 0.3700787401574803,
          "duration": 0.023255813953483084
        },
        {
          "name": "C#5",
          "midi": 73,
          "time": 122.33720930231115,
          "velocity": 0.33070866141732286,
          "duration": 0.43023255813945127
        },
        {
          "name": "B6",
          "midi": 95,
          "time": 122.33720930231115,
          "velocity": 0.28346456692913385,
          "duration": 0.04651162790696617
        },
        {
          "name": "E7",
          "midi": 100,
          "time": 122.3488372092879,
          "velocity": 0.09448818897637795,
          "duration": 0.034883720930224626
        },
        {
          "name": "A#3",
          "midi": 58,
          "time": 122.36046511626463,
          "velocity": 0.30708661417322836,
          "duration": 0.023255813953483084
        },
        {
          "name": "F4",
          "midi": 65,
          "time": 122.37209302324138,
          "velocity": 0.2755905511811024,
          "duration": 0.023255813953483084
        },
        {
          "name": "F#2",
          "midi": 42,
          "time": 122.39534883719486,
          "velocity": 0.3700787401574803,
          "duration": 0.023255813953483084
        },
        {
          "name": "F#4",
          "midi": 66,
          "time": 122.39534883719486,
          "velocity": 0.3779527559055118,
          "duration": 0.360465116279002
        },
        {
          "name": "D3",
          "midi": 50,
          "time": 122.43023255812508,
          "velocity": 0.3937007874015748,
          "duration": 0.023255813953483084
        },
        {
          "name": "A#3",
          "midi": 58,
          "time": 122.45348837207857,
          "velocity": 0.5196850393700787,
          "duration": 0.023255813953483084
        },
        {
          "name": "C7",
          "midi": 96,
          "time": 122.46511627905531,
          "velocity": 0.1968503937007874,
          "duration": 0.0813953488371908
        },
        {
          "name": "C#7",
          "midi": 97,
          "time": 122.46511627905531,
          "velocity": 0.2440944881889764,
          "duration": 0.06976744186044925
        },
        {
          "name": "D7",
          "midi": 98,
          "time": 122.46511627905531,
          "velocity": 0.11023622047244094,
          "duration": 0.034883720930224626
        },
        {
          "name": "E7",
          "midi": 100,
          "time": 122.46511627905531,
          "velocity": 0.11811023622047244,
          "duration": 0.09302325581393234
        },
        {
          "name": "B3",
          "midi": 59,
          "time": 122.47674418603205,
          "velocity": 0.5118110236220472,
          "duration": 0.0813953488371908
        },
        {
          "name": "D#7",
          "midi": 99,
          "time": 122.49999999998553,
          "velocity": 0.11023622047244094,
          "duration": 0.04651162790696617
        },
        {
          "name": "D7",
          "midi": 98,
          "time": 122.51162790696227,
          "velocity": 0.11811023622047244,
          "duration": 0.04651162790696617
        },
        {
          "name": "F#3",
          "midi": 54,
          "time": 122.52325581393902,
          "velocity": 0.2755905511811024,
          "duration": 0.023255813953483084
        },
        {
          "name": "F5",
          "midi": 77,
          "time": 122.53488372091576,
          "velocity": 0.2125984251968504,
          "duration": 0.12790697674417117
        },
        {
          "name": "D#5",
          "midi": 75,
          "time": 122.5465116278925,
          "velocity": 0.2125984251968504,
          "duration": 0.1627906976743958
        },
        {
          "name": "B2",
          "midi": 47,
          "time": 122.55813953486924,
          "velocity": 0.3937007874015748,
          "duration": 0.023255813953483084
        },
        {
          "name": "D#4",
          "midi": 63,
          "time": 122.55813953486924,
          "velocity": 0.3700787401574803,
          "duration": 0.1627906976743958
        },
        {
          "name": "F#3",
          "midi": 54,
          "time": 122.6279069767297,
          "velocity": 0.3464566929133858,
          "duration": 0.023255813953483084
        },
        {
          "name": "A#2",
          "midi": 46,
          "time": 122.63953488370645,
          "velocity": 0.3779527559055118,
          "duration": 0.023255813953483084
        },
        {
          "name": "F#3",
          "midi": 54,
          "time": 122.66279069765993,
          "velocity": 0.3464566929133858,
          "duration": 0.04651162790696617
        },
        {
          "name": "E7",
          "midi": 100,
          "time": 122.68604651161341,
          "velocity": 0.2283464566929134,
          "duration": 0.1627906976743816
        },
        {
          "name": "F5",
          "midi": 77,
          "time": 122.7093023255669,
          "velocity": 0.2755905511811024,
          "duration": 0.11627906976741542
        },
        {
          "name": "C6",
          "midi": 84,
          "time": 122.7093023255669,
          "velocity": 0.11811023622047244,
          "duration": 0.10465116279067388
        },
        {
          "name": "C3",
          "midi": 48,
          "time": 122.72093023254364,
          "velocity": 0.4881889763779528,
          "duration": 0.04651162790696617
        },
        {
          "name": "C#4",
          "midi": 61,
          "time": 122.73255813952038,
          "velocity": 0.5039370078740157,
          "duration": 0.023255813953483084
        },
        {
          "name": "C#7",
          "midi": 97,
          "time": 122.73255813952038,
          "velocity": 0.25984251968503935,
          "duration": 0.11627906976741542
        },
        {
          "name": "F#3",
          "midi": 54,
          "time": 122.74418604649712,
          "velocity": 0.3228346456692913,
          "duration": 0.034883720930224626
        },
        {
          "name": "C7",
          "midi": 96,
          "time": 122.74418604649712,
          "velocity": 0.33070866141732286,
          "duration": 0.0813953488371908
        },
        {
          "name": "D7",
          "midi": 98,
          "time": 122.74418604649712,
          "velocity": 0.30708661417322836,
          "duration": 0.06976744186044925
        },
        {
          "name": "D#4",
          "midi": 63,
          "time": 122.75581395347386,
          "velocity": 0.2677165354330709,
          "duration": 0.023255813953483084
        },
        {
          "name": "E6",
          "midi": 88,
          "time": 122.75581395347386,
          "velocity": 0.1968503937007874,
          "duration": 0.04651162790696617
        },
        {
          "name": "A6",
          "midi": 93,
          "time": 122.75581395347386,
          "velocity": 0.30708661417322836,
          "duration": 0.0813953488371908
        },
        {
          "name": "A#6",
          "midi": 94,
          "time": 122.75581395347386,
          "velocity": 0.3228346456692913,
          "duration": 0.06976744186044925
        },
        {
          "name": "B6",
          "midi": 95,
          "time": 122.75581395347386,
          "velocity": 0.2755905511811024,
          "duration": 0.034883720930224626
        },
        {
          "name": "D#7",
          "midi": 99,
          "time": 122.75581395347386,
          "velocity": 0.30708661417322836,
          "duration": 0.05813953488370771
        },
        {
          "name": "B3",
          "midi": 59,
          "time": 122.7674418604506,
          "velocity": 0.4409448818897638,
          "duration": 0.034883720930224626
        },
        {
          "name": "F#4",
          "midi": 66,
          "time": 122.7674418604506,
          "velocity": 0.3543307086614173,
          "duration": 0.04651162790696617
        },
        {
          "name": "C5",
          "midi": 72,
          "time": 122.7674418604506,
          "velocity": 0.12598425196850394,
          "duration": 0.20930232558136197
        },
        {
          "name": "D#6",
          "midi": 87,
          "time": 122.7674418604506,
          "velocity": 0.11811023622047244,
          "duration": 0.4302325581394939
        },
        {
          "name": "F#6",
          "midi": 90,
          "time": 122.7674418604506,
          "velocity": 0.1889763779527559,
          "duration": 0.05813953488370771
        },
        {
          "name": "F7",
          "midi": 101,
          "time": 122.7674418604506,
          "velocity": 0.25196850393700787,
          "duration": 0.06976744186044925
        },
        {
          "name": "F#7",
          "midi": 102,
          "time": 122.7674418604506,
          "velocity": 0.1968503937007874,
          "duration": 0.04651162790696617
        },
        {
          "name": "B2",
          "midi": 47,
          "time": 122.77906976742734,
          "velocity": 0.3700787401574803,
          "duration": 0.023255813953483084
        },
        {
          "name": "F3",
          "midi": 53,
          "time": 122.77906976742734,
          "velocity": 0.36220472440944884,
          "duration": 0.19767441860462043
        },
        {
          "name": "D#5",
          "midi": 75,
          "time": 122.77906976742734,
          "velocity": 0.12598425196850394,
          "duration": 0.09302325581393234
        },
        {
          "name": "A#0",
          "midi": 22,
          "time": 122.79069767440409,
          "velocity": 0.5748031496062992,
          "duration": 0.011627906976741542
        },
        {
          "name": "G7",
          "midi": 103,
          "time": 122.79069767440409,
          "velocity": 0.07874015748031496,
          "duration": 0.04651162790696617
        },
        {
          "name": "B0",
          "midi": 23,
          "time": 122.80232558138083,
          "velocity": 0.5748031496062992,
          "duration": 0.33720930232554736
        },
        {
          "name": "A#3",
          "midi": 58,
          "time": 122.80232558138083,
          "velocity": 0.4015748031496063,
          "duration": 0.023255813953483084
        },
        {
          "name": "G#4",
          "midi": 68,
          "time": 122.82558139533431,
          "velocity": 0.2755905511811024,
          "duration": 0.38372093023252773
        },
        {
          "name": "G#2",
          "midi": 44,
          "time": 122.8488372092878,
          "velocity": 0.33858267716535434,
          "duration": 0.023255813953483084
        },
        {
          "name": "G#2",
          "midi": 44,
          "time": 122.930232558125,
          "velocity": 0.2283464566929134,
          "duration": 0.023255813953483084
        },
        {
          "name": "F5",
          "midi": 77,
          "time": 122.94186046510174,
          "velocity": 0.13385826771653545,
          "duration": 0.04651162790696617
        },
        {
          "name": "F#3",
          "midi": 54,
          "time": 122.97674418603197,
          "velocity": 0.30708661417322836,
          "duration": 0.2093023255813904
        },
        {
          "name": "C#5",
          "midi": 73,
          "time": 122.97674418603197,
          "velocity": 0.1732283464566929,
          "duration": 0.2093023255813904
        },
        {
          "name": "A#6",
          "midi": 94,
          "time": 123.13953488370638,
          "velocity": 0.2204724409448819,
          "duration": 0.05813953488372192
        },
        {
          "name": "B0",
          "midi": 23,
          "time": 123.15116279068312,
          "velocity": 0.4566929133858268,
          "duration": 0.15116279069766847
        },
        {
          "name": "G#3",
          "midi": 56,
          "time": 123.20930232556684,
          "velocity": 0.30708661417322836,
          "duration": 0.1860465116278931
        },
        {
          "name": "D#5",
          "midi": 75,
          "time": 123.20930232556684,
          "velocity": 0.2204724409448819,
          "duration": 0.19767441860463464
        },
        {
          "name": "A6",
          "midi": 93,
          "time": 123.20930232556684,
          "velocity": 0.1732283464566929,
          "duration": 0.04651162790696617
        },
        {
          "name": "G4",
          "midi": 67,
          "time": 123.22093023254358,
          "velocity": 0.2125984251968504,
          "duration": 0.034883720930224626
        },
        {
          "name": "A4",
          "midi": 69,
          "time": 123.23255813952032,
          "velocity": 0.2677165354330709,
          "duration": 0.023255813953483084
        },
        {
          "name": "A#4",
          "midi": 70,
          "time": 123.2558139534738,
          "velocity": 0.2992125984251969,
          "duration": 0.3488372093022889
        },
        {
          "name": "F6",
          "midi": 89,
          "time": 123.26744186045055,
          "velocity": 0.30708661417322836,
          "duration": 0.2906976744185812
        },
        {
          "name": "G#6",
          "midi": 92,
          "time": 123.26744186045055,
          "velocity": 0.08661417322834646,
          "duration": 0.03488372093023884
        },
        {
          "name": "B0",
          "midi": 23,
          "time": 123.31395348835753,
          "velocity": 0.36220472440944884,
          "duration": 0.11627906976742963
        },
        {
          "name": "E4",
          "midi": 64,
          "time": 123.32558139533427,
          "velocity": 0.15748031496062992,
          "duration": 0.04651162790698038
        },
        {
          "name": "G#6",
          "midi": 92,
          "time": 123.32558139533427,
          "velocity": 0.1732283464566929,
          "duration": 0.04651162790698038
        },
        {
          "name": "A#3",
          "midi": 58,
          "time": 123.40697674417147,
          "velocity": 0.3779527559055118,
          "duration": 0.19767441860462043
        },
        {
          "name": "F5",
          "midi": 77,
          "time": 123.40697674417147,
          "velocity": 0.11811023622047244,
          "duration": 0.11627906976742963
        },
        {
          "name": "A#5",
          "midi": 82,
          "time": 123.53488372091564,
          "velocity": 0.33070866141732286,
          "duration": 0.06976744186044925
        },
        {
          "name": "C#6",
          "midi": 85,
          "time": 123.53488372091564,
          "velocity": 0.2047244094488189,
          "duration": 0.034883720930224626
        },
        {
          "name": "C5",
          "midi": 72,
          "time": 123.54651162789239,
          "velocity": 0.11811023622047244,
          "duration": 0.034883720930224626
        },
        {
          "name": "F5",
          "midi": 77,
          "time": 123.54651162789239,
          "velocity": 0.2992125984251969,
          "duration": 0.023255813953483084
        },
        {
          "name": "G#5",
          "midi": 80,
          "time": 123.54651162789239,
          "velocity": 0.48031496062992124,
          "duration": 0.05813953488370771
        },
        {
          "name": "D6",
          "midi": 86,
          "time": 123.54651162789239,
          "velocity": 0.25984251968503935,
          "duration": 0.034883720930224626
        },
        {
          "name": "D#6",
          "midi": 87,
          "time": 123.54651162789239,
          "velocity": 0.41732283464566927,
          "duration": 0.4883720930231732
        },
        {
          "name": "G6",
          "midi": 91,
          "time": 123.54651162789239,
          "velocity": 0.30708661417322836,
          "duration": 0.12790697674415696
        },
        {
          "name": "E6",
          "midi": 88,
          "time": 123.55813953486913,
          "velocity": 0.4330708661417323,
          "duration": 0.05813953488370771
        },
        {
          "name": "F#6",
          "midi": 90,
          "time": 123.55813953486913,
          "velocity": 0.30708661417322836,
          "duration": 0.05813953488370771
        },
        {
          "name": "F#5",
          "midi": 78,
          "time": 123.56976744184587,
          "velocity": 0.4094488188976378,
          "duration": 0.04651162790696617
        },
        {
          "name": "C6",
          "midi": 84,
          "time": 123.56976744184587,
          "velocity": 0.2283464566929134,
          "duration": 0.034883720930224626
        },
        {
          "name": "C5",
          "midi": 72,
          "time": 123.59302325579935,
          "velocity": 0.09448818897637795,
          "duration": 0.034883720930224626
        },
        {
          "name": "D6",
          "midi": 86,
          "time": 123.59302325579935,
          "velocity": 0.1889763779527559,
          "duration": 0.04651162790696617
        },
        {
          "name": "E5",
          "midi": 76,
          "time": 123.6046511627761,
          "velocity": 0.2283464566929134,
          "duration": 0.023255813953483084
        },
        {
          "name": "G5",
          "midi": 79,
          "time": 123.6046511627761,
          "velocity": 0.4330708661417323,
          "duration": 0.023255813953483084
        },
        {
          "name": "A5",
          "midi": 81,
          "time": 123.6046511627761,
          "velocity": 0.3937007874015748,
          "duration": 0.023255813953483084
        },
        {
          "name": "G1",
          "midi": 31,
          "time": 123.61627906975284,
          "velocity": 0.5433070866141733,
          "duration": 0.011627906976741542
        },
        {
          "name": "B3",
          "midi": 59,
          "time": 123.61627906975284,
          "velocity": 0.41732283464566927,
          "duration": 0.023255813953483084
        },
        {
          "name": "G#4",
          "midi": 68,
          "time": 123.61627906975284,
          "velocity": 0.4251968503937008,
          "duration": 0.45348837209294857
        },
        {
          "name": "F5",
          "midi": 77,
          "time": 123.61627906975284,
          "velocity": 0.47244094488188976,
          "duration": 0.290697674418567
        },
        {
          "name": "A#5",
          "midi": 82,
          "time": 123.61627906975284,
          "velocity": 0.3858267716535433,
          "duration": 0.3255813953487916
        },
        {
          "name": "C6",
          "midi": 84,
          "time": 123.61627906975284,
          "velocity": 0.29133858267716534,
          "duration": 0.09302325581393234
        },
        {
          "name": "G#6",
          "midi": 92,
          "time": 123.61627906975284,
          "velocity": 0.2125984251968504,
          "duration": 0.17441860465112313
        },
        {
          "name": "F#1",
          "midi": 30,
          "time": 123.62790697672958,
          "velocity": 0.6771653543307087,
          "duration": 0.011627906976741542
        },
        {
          "name": "D3",
          "midi": 50,
          "time": 123.62790697672958,
          "velocity": 0.4881889763779528,
          "duration": 0.023255813953483084
        },
        {
          "name": "G#5",
          "midi": 80,
          "time": 123.62790697672958,
          "velocity": 0.4645669291338583,
          "duration": 0.05813953488370771
        },
        {
          "name": "E6",
          "midi": 88,
          "time": 123.62790697672958,
          "velocity": 0.36220472440944884,
          "duration": 0.04651162790696617
        },
        {
          "name": "F1",
          "midi": 29,
          "time": 123.63953488370632,
          "velocity": 0.7165354330708661,
          "duration": 0.011627906976741542
        },
        {
          "name": "A#3",
          "midi": 58,
          "time": 123.63953488370632,
          "velocity": 0.47244094488188976,
          "duration": 0.04651162790696617
        },
        {
          "name": "D#4",
          "midi": 63,
          "time": 123.63953488370632,
          "velocity": 0.2440944881889764,
          "duration": 0.04651162790696617
        },
        {
          "name": "D5",
          "midi": 74,
          "time": 123.63953488370632,
          "velocity": 0.07086614173228346,
          "duration": 0.034883720930224626
        },
        {
          "name": "D#1",
          "midi": 27,
          "time": 123.65116279068306,
          "velocity": 0.7480314960629921,
          "duration": 1.2441860465114019
        },
        {
          "name": "A6",
          "midi": 93,
          "time": 123.65116279068306,
          "velocity": 0.09448818897637795,
          "duration": 0.04651162790696617
        },
        {
          "name": "A#2",
          "midi": 46,
          "time": 123.67441860463654,
          "velocity": 0.4566929133858268,
          "duration": 0.20930232558137618
        },
        {
          "name": "G3",
          "midi": 55,
          "time": 123.67441860463654,
          "velocity": 0.5118110236220472,
          "duration": 0.45348837209294857
        },
        {
          "name": "F#6",
          "midi": 90,
          "time": 123.67441860463654,
          "velocity": 0.1968503937007874,
          "duration": 0.034883720930224626
        },
        {
          "name": "A#4",
          "midi": 70,
          "time": 123.68604651161328,
          "velocity": 0.1889763779527559,
          "duration": 0.10465116279067388
        },
        {
          "name": "G5",
          "midi": 79,
          "time": 123.68604651161328,
          "velocity": 0.3700787401574803,
          "duration": 0.034883720930224626
        },
        {
          "name": "D#4",
          "midi": 63,
          "time": 123.69767441859003,
          "velocity": 0.2047244094488189,
          "duration": 0.034883720930224626
        },
        {
          "name": "D5",
          "midi": 74,
          "time": 123.69767441859003,
          "velocity": 0.1968503937007874,
          "duration": 0.05813953488370771
        },
        {
          "name": "G6",
          "midi": 91,
          "time": 123.76744186045048,
          "velocity": 0.13385826771653545,
          "duration": 0.05813953488372192
        },
        {
          "name": "G5",
          "midi": 79,
          "time": 123.86046511626444,
          "velocity": 0.08661417322834646,
          "duration": 0.04651162790696617
        },
        {
          "name": "A#2",
          "midi": 46,
          "time": 123.89534883719466,
          "velocity": 0.41732283464566927,
          "duration": 0.04651162790696617
        },
        {
          "name": "E6",
          "midi": 88,
          "time": 123.89534883719466,
          "velocity": 0.18110236220472442,
          "duration": 0.06976744186044925
        },
        {
          "name": "D#5",
          "midi": 75,
          "time": 123.9069767441714,
          "velocity": 0.11811023622047244,
          "duration": 0.034883720930224626
        },
        {
          "name": "F#5",
          "midi": 78,
          "time": 123.9069767441714,
          "velocity": 0.2047244094488189,
          "duration": 0.034883720930224626
        },
        {
          "name": "F5",
          "midi": 77,
          "time": 123.91860465114814,
          "velocity": 0.1732283464566929,
          "duration": 0.034883720930224626
        },
        {
          "name": "D4",
          "midi": 62,
          "time": 123.94186046510163,
          "velocity": 0.14173228346456693,
          "duration": 0.034883720930224626
        },
        {
          "name": "G#5",
          "midi": 80,
          "time": 123.94186046510163,
          "velocity": 0.4566929133858268,
          "duration": 0.06976744186044925
        },
        {
          "name": "D6",
          "midi": 86,
          "time": 123.94186046510163,
          "velocity": 0.18110236220472442,
          "duration": 0.04651162790696617
        },
        {
          "name": "F6",
          "midi": 89,
          "time": 123.94186046510163,
          "velocity": 0.23622047244094488,
          "duration": 0.04651162790696617
        },
        {
          "name": "G6",
          "midi": 91,
          "time": 123.94186046510163,
          "velocity": 0.15748031496062992,
          "duration": 0.04651162790696617
        },
        {
          "name": "G5",
          "midi": 79,
          "time": 123.95348837207837,
          "velocity": 0.31496062992125984,
          "duration": 0.023255813953483084
        },
        {
          "name": "C6",
          "midi": 84,
          "time": 123.95348837207837,
          "velocity": 0.13385826771653545,
          "duration": 0.034883720930224626
        },
        {
          "name": "C7",
          "midi": 96,
          "time": 123.95348837207837,
          "velocity": 0.14960629921259844,
          "duration": 0.18604651162786467
        },
        {
          "name": "B2",
          "midi": 47,
          "time": 123.96511627905511,
          "velocity": 0.4015748031496063,
          "duration": 0.023255813953483084
        },
        {
          "name": "F#6",
          "midi": 90,
          "time": 123.96511627905511,
          "velocity": 0.2992125984251969,
          "duration": 0.06976744186044925
        },
        {
          "name": "A#4",
          "midi": 70,
          "time": 123.97674418603185,
          "velocity": 0.2047244094488189,
          "duration": 0.04651162790696617
        },
        {
          "name": "F#5",
          "midi": 78,
          "time": 123.97674418603185,
          "velocity": 0.2992125984251969,
          "duration": 0.023255813953483084
        },
        {
          "name": "A5",
          "midi": 81,
          "time": 123.97674418603185,
          "velocity": 0.41732283464566927,
          "duration": 0.023255813953483084
        },
        {
          "name": "B5",
          "midi": 83,
          "time": 123.97674418603185,
          "velocity": 0.2204724409448819,
          "duration": 0.05813953488370771
        },
        {
          "name": "C#6",
          "midi": 85,
          "time": 123.97674418603185,
          "velocity": 0.1889763779527559,
          "duration": 0.034883720930224626
        },
        {
          "name": "E6",
          "midi": 88,
          "time": 123.97674418603185,
          "velocity": 0.3543307086614173,
          "duration": 0.09302325581393234
        },
        {
          "name": "A#2",
          "midi": 46,
          "time": 123.98837209300859,
          "velocity": 0.4645669291338583,
          "duration": 0.0813953488371908
        },
        {
          "name": "E4",
          "midi": 64,
          "time": 123.98837209300859,
          "velocity": 0.15748031496062992,
          "duration": 0.034883720930224626
        },
        {
          "name": "G5",
          "midi": 79,
          "time": 123.99999999998533,
          "velocity": 0.4409448818897638,
          "duration": 0.05813953488370771
        },
        {
          "name": "A5",
          "midi": 81,
          "time": 124.01162790696208,
          "velocity": 0.3858267716535433,
          "duration": 0.034883720930224626
        },
        {
          "name": "D5",
          "midi": 74,
          "time": 124.02325581393882,
          "velocity": 0.30708661417322836,
          "duration": 0.034883720930224626
        },
        {
          "name": "F5",
          "midi": 77,
          "time": 124.02325581393882,
          "velocity": 0.4645669291338583,
          "duration": 0.24418604651157239
        },
        {
          "name": "A#5",
          "midi": 82,
          "time": 124.03488372091556,
          "velocity": 0.16535433070866143,
          "duration": 0.04651162790696617
        },
        {
          "name": "F4",
          "midi": 65,
          "time": 124.0465116278923,
          "velocity": 0.28346456692913385,
          "duration": 0.19767441860460622
        },
        {
          "name": "B4",
          "midi": 71,
          "time": 124.0465116278923,
          "velocity": 0.3543307086614173,
          "duration": 0.023255813953483084
        },
        {
          "name": "C#7",
          "midi": 97,
          "time": 124.0465116278923,
          "velocity": 0.2204724409448819,
          "duration": 0.12790697674415696
        },
        {
          "name": "C#5",
          "midi": 73,
          "time": 124.05813953486904,
          "velocity": 0.3228346456692913,
          "duration": 0.023255813953483084
        },
        {
          "name": "D#6",
          "midi": 87,
          "time": 124.05813953486904,
          "velocity": 0.25196850393700787,
          "duration": 0.3488372093022605
        },
        {
          "name": "A#4",
          "midi": 70,
          "time": 124.06976744184578,
          "velocity": 0.3937007874015748,
          "duration": 0.023255813953483084
        },
        {
          "name": "D7",
          "midi": 98,
          "time": 124.06976744184578,
          "velocity": 0.28346456692913385,
          "duration": 0.11627906976741542
        },
        {
          "name": "A#2",
          "midi": 46,
          "time": 124.08139534882253,
          "velocity": 0.47244094488188976,
          "duration": 0.11627906976741542
        },
        {
          "name": "B4",
          "midi": 71,
          "time": 124.08139534882253,
          "velocity": 0.4645669291338583,
          "duration": 0.24418604651157239
        },
        {
          "name": "D5",
          "midi": 74,
          "time": 124.08139534882253,
          "velocity": 0.4094488188976378,
          "duration": 0.15116279069764005
        },
        {
          "name": "G#4",
          "midi": 68,
          "time": 124.10465116277601,
          "velocity": 0.33070866141732286,
          "duration": 0.360465116279002
        },
        {
          "name": "G5",
          "midi": 79,
          "time": 124.11627906975275,
          "velocity": 0.11023622047244094,
          "duration": 0.034883720930224626
        },
        {
          "name": "A#5",
          "midi": 82,
          "time": 124.11627906975275,
          "velocity": 0.1889763779527559,
          "duration": 0.31395348837203585
        },
        {
          "name": "A6",
          "midi": 93,
          "time": 124.12790697672949,
          "velocity": 0.2755905511811024,
          "duration": 0.12790697674415696
        },
        {
          "name": "B6",
          "midi": 95,
          "time": 124.12790697672949,
          "velocity": 0.12598425196850394,
          "duration": 0.04651162790696617
        },
        {
          "name": "F#6",
          "midi": 90,
          "time": 124.16279069765972,
          "velocity": 0.18110236220472442,
          "duration": 0.0813953488371908
        },
        {
          "name": "C7",
          "midi": 96,
          "time": 124.16279069765972,
          "velocity": 0.11811023622047244,
          "duration": 0.04651162790696617
        },
        {
          "name": "E7",
          "midi": 100,
          "time": 124.16279069765972,
          "velocity": 0.1968503937007874,
          "duration": 0.09302325581393234
        },
        {
          "name": "C6",
          "midi": 84,
          "time": 124.1860465116132,
          "velocity": 0.12598425196850394,
          "duration": 0.05813953488370771
        },
        {
          "name": "A#2",
          "midi": 46,
          "time": 124.20930232556668,
          "velocity": 0.44881889763779526,
          "duration": 0.11627906976741542
        },
        {
          "name": "G3",
          "midi": 55,
          "time": 124.20930232556668,
          "velocity": 0.4015748031496063,
          "duration": 0.04651162790696617
        },
        {
          "name": "E6",
          "midi": 88,
          "time": 124.20930232556668,
          "velocity": 0.10236220472440945,
          "duration": 0.034883720930224626
        },
        {
          "name": "C#5",
          "midi": 73,
          "time": 124.23255813952017,
          "velocity": 0.3543307086614173,
          "duration": 0.034883720930224626
        },
        {
          "name": "G3",
          "midi": 55,
          "time": 124.26744186045039,
          "velocity": 0.3779527559055118,
          "duration": 0.13953488372091272
        },
        {
          "name": "G5",
          "midi": 79,
          "time": 124.27906976742713,
          "velocity": 0.08661417322834646,
          "duration": 0.034883720930224626
        },
        {
          "name": "F5",
          "midi": 77,
          "time": 124.30232558138061,
          "velocity": 0.16535433070866143,
          "duration": 0.034883720930224626
        },
        {
          "name": "G5",
          "midi": 79,
          "time": 124.3255813953341,
          "velocity": 0.11811023622047244,
          "duration": 0.06976744186046346
        },
        {
          "name": "A#2",
          "midi": 46,
          "time": 124.33720930231084,
          "velocity": 0.4330708661417323,
          "duration": 0.09302325581394655
        },
        {
          "name": "F5",
          "midi": 77,
          "time": 124.36046511626432,
          "velocity": 0.1732283464566929,
          "duration": 0.04651162790698038
        },
        {
          "name": "D6",
          "midi": 86,
          "time": 124.4069767441713,
          "velocity": 0.33858267716535434,
          "duration": 0.11627906976741542
        },
        {
          "name": "A#3",
          "midi": 58,
          "time": 124.41860465114804,
          "velocity": 0.4566929133858268,
          "duration": 0.11627906976741542
        },
        {
          "name": "B4",
          "midi": 71,
          "time": 124.41860465114804,
          "velocity": 0.4251968503937008,
          "duration": 0.034883720930224626
        },
        {
          "name": "C#6",
          "midi": 85,
          "time": 124.41860465114804,
          "velocity": 0.1889763779527559,
          "duration": 0.034883720930224626
        },
        {
          "name": "F#4",
          "midi": 66,
          "time": 124.43023255812479,
          "velocity": 0.25984251968503935,
          "duration": 0.023255813953483084
        },
        {
          "name": "D5",
          "midi": 74,
          "time": 124.43023255812479,
          "velocity": 0.29133858267716534,
          "duration": 0.17441860465112313
        },
        {
          "name": "G5",
          "midi": 79,
          "time": 124.43023255812479,
          "velocity": 0.08661417322834646,
          "duration": 0.19767441860460622
        },
        {
          "name": "F5",
          "midi": 77,
          "time": 124.44186046510153,
          "velocity": 0.1968503937007874,
          "duration": 0.1395348837208985
        },
        {
          "name": "F4",
          "midi": 65,
          "time": 124.45348837207827,
          "velocity": 0.3700787401574803,
          "duration": 0.06976744186044925
        },
        {
          "name": "C6",
          "midi": 84,
          "time": 124.45348837207827,
          "velocity": 0.31496062992125984,
          "duration": 0.05813953488370771
        },
        {
          "name": "A#2",
          "midi": 46,
          "time": 124.46511627905501,
          "velocity": 0.4015748031496063,
          "duration": 0.11627906976741542
        },
        {
          "name": "E6",
          "midi": 88,
          "time": 124.47674418603175,
          "velocity": 0.2204724409448819,
          "duration": 0.04651162790696617
        },
        {
          "name": "A#6",
          "midi": 94,
          "time": 124.47674418603175,
          "velocity": 0.2992125984251969,
          "duration": 0.06976744186044925
        },
        {
          "name": "B6",
          "midi": 95,
          "time": 124.47674418603175,
          "velocity": 0.29133858267716534,
          "duration": 0.034883720930224626
        },
        {
          "name": "E7",
          "midi": 100,
          "time": 124.47674418603175,
          "velocity": 0.2677165354330709,
          "duration": 0.0813953488371908
        },
        {
          "name": "F#6",
          "midi": 90,
          "time": 124.4883720930085,
          "velocity": 0.1889763779527559,
          "duration": 0.04651162790696617
        },
        {
          "name": "A6",
          "midi": 93,
          "time": 124.4883720930085,
          "velocity": 0.2755905511811024,
          "duration": 0.023255813953483084
        },
        {
          "name": "C#7",
          "midi": 97,
          "time": 124.4883720930085,
          "velocity": 0.2992125984251969,
          "duration": 0.05813953488370771
        },
        {
          "name": "D#7",
          "midi": 99,
          "time": 124.4883720930085,
          "velocity": 0.3228346456692913,
          "duration": 0.05813953488370771
        },
        {
          "name": "F7",
          "midi": 101,
          "time": 124.4883720930085,
          "velocity": 0.2755905511811024,
          "duration": 0.05813953488370771
        },
        {
          "name": "F#7",
          "midi": 102,
          "time": 124.4883720930085,
          "velocity": 0.2047244094488189,
          "duration": 0.04651162790696617
        },
        {
          "name": "G7",
          "midi": 103,
          "time": 124.4883720930085,
          "velocity": 0.1732283464566929,
          "duration": 0.05813953488370771
        },
        {
          "name": "G#6",
          "midi": 92,
          "time": 124.51162790696198,
          "velocity": 0.25984251968503935,
          "duration": 0.023255813953483084
        },
        {
          "name": "G#4",
          "midi": 68,
          "time": 124.52325581393872,
          "velocity": 0.3858267716535433,
          "duration": 0.023255813953483084
        },
        {
          "name": "G4",
          "midi": 67,
          "time": 124.5465116278922,
          "velocity": 0.3228346456692913,
          "duration": 0.023255813953483084
        },
        {
          "name": "D#6",
          "midi": 87,
          "time": 124.55813953486894,
          "velocity": 0.41732283464566927,
          "duration": 0.6860465116277652
        },
        {
          "name": "G#4",
          "midi": 68,
          "time": 124.56976744184568,
          "velocity": 0.3700787401574803,
          "duration": 0.023255813953483084
        },
        {
          "name": "D#3",
          "midi": 51,
          "time": 124.59302325579917,
          "velocity": 0.33858267716535434,
          "duration": 0.06976744186046346
        },
        {
          "name": "A#3",
          "midi": 58,
          "time": 124.59302325579917,
          "velocity": 0.3464566929133858,
          "duration": 0.081395348837205
        },
        {
          "name": "G#4",
          "midi": 68,
          "time": 124.60465116277591,
          "velocity": 0.33858267716535434,
          "duration": 0.18604651162787889
        },
        {
          "name": "F5",
          "midi": 77,
          "time": 124.60465116277591,
          "velocity": 0.13385826771653545,
          "duration": 0.05813953488372192
        },
        {
          "name": "G5",
          "midi": 79,
          "time": 124.66279069765963,
          "velocity": 0.07086614173228346,
          "duration": 0.034883720930224626
        },
        {
          "name": "C7",
          "midi": 96,
          "time": 124.66279069765963,
          "velocity": 0.14960629921259844,
          "duration": 0.0813953488371908
        },
        {
          "name": "B3",
          "midi": 59,
          "time": 124.67441860463637,
          "velocity": 0.5039370078740157,
          "duration": 0.12790697674415696
        },
        {
          "name": "F#4",
          "midi": 66,
          "time": 124.68604651161311,
          "velocity": 0.28346456692913385,
          "duration": 0.04651162790696617
        },
        {
          "name": "F5",
          "midi": 77,
          "time": 124.69767441858986,
          "velocity": 0.11811023622047244,
          "duration": 0.05813953488370771
        },
        {
          "name": "D7",
          "midi": 98,
          "time": 124.69767441858986,
          "velocity": 0.14960629921259844,
          "duration": 0.11627906976741542
        },
        {
          "name": "C#7",
          "midi": 97,
          "time": 124.72093023254334,
          "velocity": 0.2125984251968504,
          "duration": 0.1395348837208985
        },
        {
          "name": "E7",
          "midi": 100,
          "time": 124.72093023254334,
          "velocity": 0.14960629921259844,
          "duration": 0.06976744186044925
        },
        {
          "name": "D#3",
          "midi": 51,
          "time": 124.73255813952008,
          "velocity": 0.3228346456692913,
          "duration": 0.023255813953483084
        },
        {
          "name": "F7",
          "midi": 101,
          "time": 124.74418604649682,
          "velocity": 0.08661417322834646,
          "duration": 0.034883720930224626
        },
        {
          "name": "F#4",
          "midi": 66,
          "time": 124.7674418604503,
          "velocity": 0.44881889763779526,
          "duration": 0.0813953488371908
        },
        {
          "name": "F5",
          "midi": 77,
          "time": 124.7674418604503,
          "velocity": 0.30708661417322836,
          "duration": 0.47674418604640323
        },
        {
          "name": "A#3",
          "midi": 58,
          "time": 124.80232558138053,
          "velocity": 0.4881889763779528,
          "duration": 0.11627906976741542
        },
        {
          "name": "D6",
          "midi": 86,
          "time": 124.82558139533401,
          "velocity": 0.2755905511811024,
          "duration": 0.06976744186044925
        },
        {
          "name": "F#6",
          "midi": 90,
          "time": 124.82558139533401,
          "velocity": 0.13385826771653545,
          "duration": 0.04651162790696617
        },
        {
          "name": "D5",
          "midi": 74,
          "time": 124.83720930231075,
          "velocity": 0.2755905511811024,
          "duration": 0.06976744186044925
        },
        {
          "name": "C7",
          "midi": 96,
          "time": 124.83720930231075,
          "velocity": 0.11811023622047244,
          "duration": 0.06976744186044925
        },
        {
          "name": "A#2",
          "midi": 46,
          "time": 124.8488372092875,
          "velocity": 0.3228346456692913,
          "duration": 0.034883720930224626
        },
        {
          "name": "F4",
          "midi": 65,
          "time": 124.8488372092875,
          "velocity": 0.33858267716535434,
          "duration": 0.05813953488370771
        },
        {
          "name": "G#4",
          "midi": 68,
          "time": 124.8488372092875,
          "velocity": 0.33070866141732286,
          "duration": 0.04651162790696617
        },
        {
          "name": "D#3",
          "midi": 51,
          "time": 124.87209302324098,
          "velocity": 0.30708661417322836,
          "duration": 0.023255813953483084
        },
        {
          "name": "B4",
          "midi": 71,
          "time": 124.87209302324098,
          "velocity": 0.4094488188976378,
          "duration": 0.023255813953483084
        },
        {
          "name": "C6",
          "midi": 84,
          "time": 124.87209302324098,
          "velocity": 0.2204724409448819,
          "duration": 0.034883720930224626
        },
        {
          "name": "G6",
          "midi": 91,
          "time": 124.88372093021772,
          "velocity": 0.28346456692913385,
          "duration": 0.15116279069764005
        },
        {
          "name": "C#1",
          "midi": 25,
          "time": 124.89534883719446,
          "velocity": 0.5196850393700787,
          "duration": 0.011627906976741542
        },
        {
          "name": "A#4",
          "midi": 70,
          "time": 124.89534883719446,
          "velocity": 0.5039370078740157,
          "duration": 0.0813953488371908
        },
        {
          "name": "B0",
          "midi": 23,
          "time": 124.9069767441712,
          "velocity": 0.5826771653543307,
          "duration": 0.011627906976741542
        },
        {
          "name": "D#4",
          "midi": 63,
          "time": 124.9069767441712,
          "velocity": 0.33858267716535434,
          "duration": 0.24418604651157239
        },
        {
          "name": "F#4",
          "midi": 66,
          "time": 124.9069767441712,
          "velocity": 0.33070866141732286,
          "duration": 0.1627906976743816
        },
        {
          "name": "C#6",
          "midi": 85,
          "time": 124.9069767441712,
          "velocity": 0.33858267716535434,
          "duration": 0.05813953488370771
        },
        {
          "name": "C#1",
          "midi": 25,
          "time": 124.91860465114794,
          "velocity": 0.6692913385826772,
          "duration": 0.011627906976741542
        },
        {
          "name": "A2",
          "midi": 45,
          "time": 124.91860465114794,
          "velocity": 0.4645669291338583,
          "duration": 0.023255813953483084
        },
        {
          "name": "B3",
          "midi": 59,
          "time": 124.91860465114794,
          "velocity": 0.4566929133858268,
          "duration": 0.15116279069764005
        },
        {
          "name": "A5",
          "midi": 81,
          "time": 124.91860465114794,
          "velocity": 0.12598425196850394,
          "duration": 0.10465116279067388
        },
        {
          "name": "D7",
          "midi": 98,
          "time": 124.91860465114794,
          "velocity": 0.2047244094488189,
          "duration": 0.04651162790696617
        },
        {
          "name": "D1",
          "midi": 26,
          "time": 124.93023255812469,
          "velocity": 0.7007874015748031,
          "duration": 0.011627906976741542
        },
        {
          "name": "C#5",
          "midi": 73,
          "time": 124.93023255812469,
          "velocity": 0.12598425196850394,
          "duration": 0.1395348837208985
        },
        {
          "name": "B0",
          "midi": 23,
          "time": 124.94186046510143,
          "velocity": 0.7244094488188977,
          "duration": 0.24418604651157239
        },
        {
          "name": "D#3",
          "midi": 51,
          "time": 124.95348837207817,
          "velocity": 0.49606299212598426,
          "duration": 0.04651162790696617
        },
        {
          "name": "A#4",
          "midi": 70,
          "time": 124.9883720930084,
          "velocity": 0.5118110236220472,
          "duration": 0.2558139534883139
        },
        {
          "name": "D7",
          "midi": 98,
          "time": 124.9883720930084,
          "velocity": 0.14173228346456693,
          "duration": 0.10465116279067388
        },
        {
          "name": "D3",
          "midi": 50,
          "time": 124.99999999998514,
          "velocity": 0.5118110236220472,
          "duration": 0.011627906976741542
        },
        {
          "name": "D#3",
          "midi": 51,
          "time": 125.01162790696188,
          "velocity": 0.48031496062992124,
          "duration": 0.023255813953483084
        },
        {
          "name": "D3",
          "midi": 50,
          "time": 125.03488372091536,
          "velocity": 0.5275590551181102,
          "duration": 0.011627906976741542
        },
        {
          "name": "F#6",
          "midi": 90,
          "time": 125.03488372091536,
          "velocity": 0.23622047244094488,
          "duration": 0.023255813953483084
        },
        {
          "name": "D#3",
          "midi": 51,
          "time": 125.0465116278921,
          "velocity": 0.5039370078740157,
          "duration": 0.023255813953483084
        },
        {
          "name": "G6",
          "midi": 91,
          "time": 125.05813953486884,
          "velocity": 0.1889763779527559,
          "duration": 0.11627906976741542
        },
        {
          "name": "D3",
          "midi": 50,
          "time": 125.06976744184558,
          "velocity": 0.5196850393700787,
          "duration": 0.011627906976741542
        },
        {
          "name": "A#3",
          "midi": 58,
          "time": 125.06976744184558,
          "velocity": 0.4330708661417323,
          "duration": 0.1395348837208985
        },
        {
          "name": "D5",
          "midi": 74,
          "time": 125.06976744184558,
          "velocity": 0.2125984251968504,
          "duration": 0.15116279069764005
        },
        {
          "name": "D6",
          "midi": 86,
          "time": 125.06976744184558,
          "velocity": 0.2125984251968504,
          "duration": 0.04651162790696617
        },
        {
          "name": "C#7",
          "midi": 97,
          "time": 125.06976744184558,
          "velocity": 0.10236220472440945,
          "duration": 0.034883720930224626
        },
        {
          "name": "D#3",
          "midi": 51,
          "time": 125.08139534882233,
          "velocity": 0.5275590551181102,
          "duration": 0.023255813953483084
        },
        {
          "name": "C6",
          "midi": 84,
          "time": 125.08139534882233,
          "velocity": 0.25984251968503935,
          "duration": 0.05813953488370771
        },
        {
          "name": "D#3",
          "midi": 51,
          "time": 125.11627906975255,
          "velocity": 0.5433070866141733,
          "duration": 0.09302325581393234
        },
        {
          "name": "F4",
          "midi": 65,
          "time": 125.12790697672929,
          "velocity": 0.3700787401574803,
          "duration": 0.0813953488371908
        },
        {
          "name": "G#5",
          "midi": 80,
          "time": 125.13953488370603,
          "velocity": 0.1968503937007874,
          "duration": 0.06976744186044925
        },
        {
          "name": "F#2",
          "midi": 42,
          "time": 125.16279069765952,
          "velocity": 0.41732283464566927,
          "duration": 0.023255813953483084
        },
        {
          "name": "A#0",
          "midi": 22,
          "time": 125.186046511613,
          "velocity": 0.7165354330708661,
          "duration": 0.011627906976741542
        },
        {
          "name": "B0",
          "midi": 23,
          "time": 125.19767441858974,
          "velocity": 0.7322834645669292,
          "duration": 0.20930232558134776
        },
        {
          "name": "B3",
          "midi": 59,
          "time": 125.20930232556648,
          "velocity": 0.3858267716535433,
          "duration": 0.15116279069764005
        },
        {
          "name": "D#4",
          "midi": 63,
          "time": 125.20930232556648,
          "velocity": 0.3543307086614173,
          "duration": 0.1395348837208985
        },
        {
          "name": "F#4",
          "midi": 66,
          "time": 125.20930232556648,
          "velocity": 0.3779527559055118,
          "duration": 0.17441860465112313
        },
        {
          "name": "C#5",
          "midi": 73,
          "time": 125.20930232556648,
          "velocity": 0.10236220472440945,
          "duration": 0.034883720930224626
        },
        {
          "name": "A5",
          "midi": 81,
          "time": 125.20930232556648,
          "velocity": 0.23622047244094488,
          "duration": 0.05813953488370771
        },
        {
          "name": "B5",
          "midi": 83,
          "time": 125.20930232556648,
          "velocity": 0.3543307086614173,
          "duration": 0.05813953488370771
        },
        {
          "name": "D#3",
          "midi": 51,
          "time": 125.22093023254322,
          "velocity": 0.5196850393700787,
          "duration": 0.023255813953483084
        },
        {
          "name": "D#5",
          "midi": 75,
          "time": 125.22093023254322,
          "velocity": 0.47244094488188976,
          "duration": 0.12790697674415696
        },
        {
          "name": "G6",
          "midi": 91,
          "time": 125.22093023254322,
          "velocity": 0.1889763779527559,
          "duration": 0.17441860465112313
        },
        {
          "name": "C#6",
          "midi": 85,
          "time": 125.23255813951997,
          "velocity": 0.2755905511811024,
          "duration": 0.06976744186044925
        },
        {
          "name": "F#2",
          "midi": 42,
          "time": 125.24418604649671,
          "velocity": 0.47244094488188976,
          "duration": 0.023255813953483084
        },
        {
          "name": "B4",
          "midi": 71,
          "time": 125.24418604649671,
          "velocity": 0.4881889763779528,
          "duration": 0.05813953488370771
        },
        {
          "name": "A#5",
          "midi": 82,
          "time": 125.24418604649671,
          "velocity": 0.25196850393700787,
          "duration": 0.06976744186044925
        },
        {
          "name": "D7",
          "midi": 98,
          "time": 125.24418604649671,
          "velocity": 0.2125984251968504,
          "duration": 0.11627906976741542
        },
        {
          "name": "D#3",
          "midi": 51,
          "time": 125.25581395347345,
          "velocity": 0.5039370078740157,
          "duration": 0.04651162790696617
        },
        {
          "name": "E6",
          "midi": 88,
          "time": 125.25581395347345,
          "velocity": 0.25984251968503935,
          "duration": 0.023255813953483084
        },
        {
          "name": "F#6",
          "midi": 90,
          "time": 125.25581395347345,
          "velocity": 0.36220472440944884,
          "duration": 0.11627906976741542
        },
        {
          "name": "F6",
          "midi": 89,
          "time": 125.27906976742693,
          "velocity": 0.33070866141732286,
          "duration": 0.406976744185954
        },
        {
          "name": "A#4",
          "midi": 70,
          "time": 125.29069767440367,
          "velocity": 0.4330708661417323,
          "duration": 0.5348837209301109
        },
        {
          "name": "D#3",
          "midi": 51,
          "time": 125.31395348835716,
          "velocity": 0.49606299212598426,
          "duration": 0.023255813953483084
        },
        {
          "name": "G#6",
          "midi": 92,
          "time": 125.31395348835716,
          "velocity": 0.2283464566929134,
          "duration": 0.023255813953483084
        },
        {
          "name": "A6",
          "midi": 93,
          "time": 125.31395348835716,
          "velocity": 0.1968503937007874,
          "duration": 0.04651162790696617
        },
        {
          "name": "D#3",
          "midi": 51,
          "time": 125.34883720928738,
          "velocity": 0.5039370078740157,
          "duration": 0.023255813953483084
        },
        {
          "name": "D5",
          "midi": 74,
          "time": 125.34883720928738,
          "velocity": 0.33858267716535434,
          "duration": 0.023255813953483084
        },
        {
          "name": "B6",
          "midi": 95,
          "time": 125.34883720928738,
          "velocity": 0.1732283464566929,
          "duration": 0.05813953488370771
        },
        {
          "name": "A#3",
          "midi": 58,
          "time": 125.36046511626412,
          "velocity": 0.2992125984251969,
          "duration": 0.023255813953483084
        },
        {
          "name": "C#5",
          "midi": 73,
          "time": 125.37209302324086,
          "velocity": 0.2440944881889764,
          "duration": 0.39534883720921243
        },
        {
          "name": "C7",
          "midi": 96,
          "time": 125.37209302324086,
          "velocity": 0.16535433070866143,
          "duration": 0.04651162790696617
        },
        {
          "name": "D#3",
          "midi": 51,
          "time": 125.3837209302176,
          "velocity": 0.48031496062992124,
          "duration": 0.023255813953483084
        },
        {
          "name": "C1",
          "midi": 24,
          "time": 125.40697674417109,
          "velocity": 0.7086614173228346,
          "duration": 0.011627906976741542
        },
        {
          "name": "C6",
          "midi": 84,
          "time": 125.40697674417109,
          "velocity": 0.07874015748031496,
          "duration": 0.09302325581393234
        },
        {
          "name": "B0",
          "midi": 23,
          "time": 125.41860465114783,
          "velocity": 0.7086614173228346,
          "duration": 0.17441860465112313
        },
        {
          "name": "G2",
          "midi": 43,
          "time": 125.41860465114783,
          "velocity": 0.4566929133858268,
          "duration": 0.023255813953483084
        },
        {
          "name": "D#3",
          "midi": 51,
          "time": 125.41860465114783,
          "velocity": 0.48031496062992124,
          "duration": 0.04651162790696617
        },
        {
          "name": "F4",
          "midi": 65,
          "time": 125.43023255812457,
          "velocity": 0.3228346456692913,
          "duration": 0.034883720930224626
        },
        {
          "name": "G6",
          "midi": 91,
          "time": 125.43023255812457,
          "velocity": 0.09448818897637795,
          "duration": 0.034883720930224626
        },
        {
          "name": "F#2",
          "midi": 42,
          "time": 125.44186046510131,
          "velocity": 0.4566929133858268,
          "duration": 0.023255813953483084
        },
        {
          "name": "D#5",
          "midi": 75,
          "time": 125.44186046510131,
          "velocity": 0.16535433070866143,
          "duration": 0.11627906976741542
        },
        {
          "name": "D#3",
          "midi": 51,
          "time": 125.47674418603154,
          "velocity": 0.47244094488188976,
          "duration": 0.023255813953483084
        },
        {
          "name": "F4",
          "midi": 65,
          "time": 125.47674418603154,
          "velocity": 0.33858267716535434,
          "duration": 0.06976744186044925
        },
        {
          "name": "F#2",
          "midi": 42,
          "time": 125.48837209300828,
          "velocity": 0.4409448818897638,
          "duration": 0.023255813953483084
        },
        {
          "name": "D3",
          "midi": 50,
          "time": 125.49999999998502,
          "velocity": 0.44881889763779526,
          "duration": 0.023255813953483084
        },
        {
          "name": "D#4",
          "midi": 63,
          "time": 125.49999999998502,
          "velocity": 0.2677165354330709,
          "duration": 0.023255813953483084
        },
        {
          "name": "G6",
          "midi": 91,
          "time": 125.49999999998502,
          "velocity": 0.10236220472440945,
          "duration": 0.034883720930224626
        },
        {
          "name": "G#4",
          "midi": 68,
          "time": 125.51162790696176,
          "velocity": 0.14960629921259844,
          "duration": 0.034883720930224626
        },
        {
          "name": "D#4",
          "midi": 63,
          "time": 125.53488372091525,
          "velocity": 0.33070866141732286,
          "duration": 0.023255813953483084
        },
        {
          "name": "D#3",
          "midi": 51,
          "time": 125.54651162789199,
          "velocity": 0.4330708661417323,
          "duration": 0.023255813953483084
        },
        {
          "name": "B6",
          "midi": 95,
          "time": 125.54651162789199,
          "velocity": 0.29133858267716534,
          "duration": 0.034883720930224626
        },
        {
          "name": "D7",
          "midi": 98,
          "time": 125.54651162789199,
          "velocity": 0.33070866141732286,
          "duration": 0.06976744186044925
        },
        {
          "name": "A#3",
          "midi": 58,
          "time": 125.55813953486873,
          "velocity": 0.23622047244094488,
          "duration": 0.023255813953483084
        },
        {
          "name": "F#4",
          "midi": 66,
          "time": 125.55813953486873,
          "velocity": 0.30708661417322836,
          "duration": 0.034883720930224626
        },
        {
          "name": "F#6",
          "midi": 90,
          "time": 125.55813953486873,
          "velocity": 0.16535433070866143,
          "duration": 0.04651162790696617
        },
        {
          "name": "A6",
          "midi": 93,
          "time": 125.55813953486873,
          "velocity": 0.25196850393700787,
          "duration": 0.05813953488370771
        },
        {
          "name": "A#6",
          "midi": 94,
          "time": 125.55813953486873,
          "velocity": 0.2992125984251969,
          "duration": 0.05813953488370771
        },
        {
          "name": "C7",
          "midi": 96,
          "time": 125.55813953486873,
          "velocity": 0.25196850393700787,
          "duration": 0.05813953488370771
        },
        {
          "name": "C#7",
          "midi": 97,
          "time": 125.55813953486873,
          "velocity": 0.31496062992125984,
          "duration": 0.06976744186044925
        },
        {
          "name": "E7",
          "midi": 100,
          "time": 125.55813953486873,
          "velocity": 0.25196850393700787,
          "duration": 0.06976744186044925
        },
        {
          "name": "G7",
          "midi": 103,
          "time": 125.55813953486873,
          "velocity": 0.16535433070866143,
          "duration": 0.06976744186044925
        },
        {
          "name": "C6",
          "midi": 84,
          "time": 125.56976744184547,
          "velocity": 0.14960629921259844,
          "duration": 0.19767441860460622
        },
        {
          "name": "G#6",
          "midi": 92,
          "time": 125.56976744184547,
          "velocity": 0.2047244094488189,
          "duration": 0.04651162790696617
        },
        {
          "name": "F#7",
          "midi": 102,
          "time": 125.56976744184547,
          "velocity": 0.2125984251968504,
          "duration": 0.05813953488370771
        },
        {
          "name": "D#5",
          "midi": 75,
          "time": 125.58139534882221,
          "velocity": 0.16535433070866143,
          "duration": 0.0813953488371908
        },
        {
          "name": "A#0",
          "midi": 22,
          "time": 125.59302325579895,
          "velocity": 0.6850393700787402,
          "duration": 0.011627906976741542
        },
        {
          "name": "B0",
          "midi": 23,
          "time": 125.6046511627757,
          "velocity": 0.6850393700787402,
          "duration": 0.7674418604649418
        },
        {
          "name": "D#4",
          "midi": 63,
          "time": 125.6046511627757,
          "velocity": 0.28346456692913385,
          "duration": 0.023255813953483084
        },
        {
          "name": "F#2",
          "midi": 42,
          "time": 125.61627906975244,
          "velocity": 0.41732283464566927,
          "duration": 0.023255813953483084
        },
        {
          "name": "F4",
          "midi": 65,
          "time": 125.62790697672918,
          "velocity": 0.30708661417322836,
          "duration": 0.023255813953483084
        },
        {
          "name": "D#4",
          "midi": 63,
          "time": 125.63953488370592,
          "velocity": 0.30708661417322836,
          "duration": 0.034883720930224626
        },
        {
          "name": "G6",
          "midi": 91,
          "time": 125.6627906976594,
          "velocity": 0.07874015748031496,
          "duration": 0.034883720930224626
        },
        {
          "name": "F4",
          "midi": 65,
          "time": 125.67441860463614,
          "velocity": 0.44881889763779526,
          "duration": 0.10465116279067388
        },
        {
          "name": "D#5",
          "midi": 75,
          "time": 125.67441860463614,
          "velocity": 0.2283464566929134,
          "duration": 0.0813953488371908
        },
        {
          "name": "D#3",
          "midi": 51,
          "time": 125.68604651161289,
          "velocity": 0.4330708661417323,
          "duration": 0.04651162790696617
        },
        {
          "name": "B3",
          "midi": 59,
          "time": 125.68604651161289,
          "velocity": 0.4330708661417323,
          "duration": 0.034883720930224626
        },
        {
          "name": "F#6",
          "midi": 90,
          "time": 125.68604651161289,
          "velocity": 0.3464566929133858,
          "duration": 0.11627906976741542
        },
        {
          "name": "E7",
          "midi": 100,
          "time": 125.68604651161289,
          "velocity": 0.2204724409448819,
          "duration": 0.15116279069764005
        },
        {
          "name": "F6",
          "midi": 89,
          "time": 125.70930232556637,
          "velocity": 0.14173228346456693,
          "duration": 0.4999999999998863
        },
        {
          "name": "D7",
          "midi": 98,
          "time": 125.70930232556637,
          "velocity": 0.2047244094488189,
          "duration": 0.1395348837208985
        },
        {
          "name": "A#3",
          "midi": 58,
          "time": 125.72093023254311,
          "velocity": 0.4645669291338583,
          "duration": 0.15116279069764005
        },
        {
          "name": "B6",
          "midi": 95,
          "time": 125.72093023254311,
          "velocity": 0.13385826771653545,
          "duration": 0.034883720930224626
        },
        {
          "name": "C7",
          "midi": 96,
          "time": 125.72093023254311,
          "velocity": 0.2283464566929134,
          "duration": 0.06976744186044925
        },
        {
          "name": "C#7",
          "midi": 97,
          "time": 125.72093023254311,
          "velocity": 0.1889763779527559,
          "duration": 0.10465116279067388
        },
        {
          "name": "F7",
          "midi": 101,
          "time": 125.72093023254311,
          "velocity": 0.1889763779527559,
          "duration": 0.11627906976741542
        },
        {
          "name": "F#5",
          "midi": 78,
          "time": 125.73255813951985,
          "velocity": 0.2125984251968504,
          "duration": 0.06976744186044925
        },
        {
          "name": "D#4",
          "midi": 63,
          "time": 125.76744186045008,
          "velocity": 0.3779527559055118,
          "duration": 0.1395348837208985
        },
        {
          "name": "D#6",
          "midi": 87,
          "time": 125.76744186045008,
          "velocity": 0.18110236220472442,
          "duration": 0.04651162790696617
        },
        {
          "name": "F5",
          "midi": 77,
          "time": 125.77906976742682,
          "velocity": 0.11023622047244094,
          "duration": 0.04651162790696617
        },
        {
          "name": "C#5",
          "midi": 73,
          "time": 125.79069767440356,
          "velocity": 0.15748031496062992,
          "duration": 0.6046511627905602
        },
        {
          "name": "A2",
          "midi": 45,
          "time": 125.82558139533378,
          "velocity": 0.4645669291338583,
          "duration": 0.023255813953483084
        },
        {
          "name": "F#4",
          "midi": 66,
          "time": 125.82558139533378,
          "velocity": 0.3779527559055118,
          "duration": 0.10465116279067388
        },
        {
          "name": "G2",
          "midi": 43,
          "time": 125.87209302324075,
          "velocity": 0.3937007874015748,
          "duration": 0.023255813953483084
        },
        {
          "name": "A3",
          "midi": 57,
          "time": 125.87209302324075,
          "velocity": 0.4566929133858268,
          "duration": 0.034883720930224626
        },
        {
          "name": "D7",
          "midi": 98,
          "time": 125.87209302324075,
          "velocity": 0.2125984251968504,
          "duration": 0.1627906976743816
        },
        {
          "name": "C#7",
          "midi": 97,
          "time": 125.88372093021749,
          "velocity": 0.23622047244094488,
          "duration": 0.1627906976743816
        },
        {
          "name": "C3",
          "midi": 48,
          "time": 125.89534883719423,
          "velocity": 0.4015748031496063,
          "duration": 0.023255813953483084
        },
        {
          "name": "D#7",
          "midi": 99,
          "time": 125.89534883719423,
          "velocity": 0.15748031496062992,
          "duration": 0.11627906976741542
        },
        {
          "name": "A#3",
          "midi": 58,
          "time": 125.90697674417098,
          "velocity": 0.4566929133858268,
          "duration": 0.12790697674415696
        },
        {
          "name": "G6",
          "midi": 91,
          "time": 125.90697674417098,
          "velocity": 0.08661417322834646,
          "duration": 0.034883720930224626
        },
        {
          "name": "A2",
          "midi": 45,
          "time": 125.91860465114772,
          "velocity": 0.47244094488188976,
          "duration": 0.034883720930224626
        },
        {
          "name": "D#4",
          "midi": 63,
          "time": 125.91860465114772,
          "velocity": 0.28346456692913385,
          "duration": 0.023255813953483084
        },
        {
          "name": "E7",
          "midi": 100,
          "time": 125.91860465114772,
          "velocity": 0.1732283464566929,
          "duration": 0.11627906976741542
        },
        {
          "name": "F#7",
          "midi": 102,
          "time": 125.91860465114772,
          "velocity": 0.08661417322834646,
          "duration": 0.09302325581393234
        },
        {
          "name": "F4",
          "midi": 65,
          "time": 125.93023255812446,
          "velocity": 0.3937007874015748,
          "duration": 0.034883720930224626
        },
        {
          "name": "C7",
          "midi": 96,
          "time": 125.9418604651012,
          "velocity": 0.10236220472440945,
          "duration": 0.05813953488370771
        },
        {
          "name": "F#2",
          "midi": 42,
          "time": 125.97674418603142,
          "velocity": 0.31496062992125984,
          "duration": 0.023255813953483084
        },
        {
          "name": "G6",
          "midi": 91,
          "time": 125.98837209300817,
          "velocity": 0.08661417322834646,
          "duration": 0.034883720930224626
        },
        {
          "name": "F7",
          "midi": 101,
          "time": 125.98837209300817,
          "velocity": 0.14173228346456693,
          "duration": 0.04651162790696617
        },
        {
          "name": "F#4",
          "midi": 66,
          "time": 126.01162790696165,
          "velocity": 0.3779527559055118,
          "duration": 0.17441860465112313
        },
        {
          "name": "B2",
          "midi": 47,
          "time": 126.02325581393839,
          "velocity": 0.3700787401574803,
          "duration": 0.023255813953483084
        },
        {
          "name": "D#4",
          "midi": 63,
          "time": 126.03488372091513,
          "velocity": 0.4645669291338583,
          "duration": 0.15116279069764005
        },
        {
          "name": "F#2",
          "midi": 42,
          "time": 126.05813953486862,
          "velocity": 0.33070866141732286,
          "duration": 0.023255813953483084
        },
        {
          "name": "F#2",
          "midi": 42,
          "time": 126.10465116277558,
          "velocity": 0.3228346456692913,
          "duration": 0.023255813953483084
        },
        {
          "name": "D#6",
          "midi": 87,
          "time": 126.10465116277558,
          "velocity": 0.1889763779527559,
          "duration": 0.11627906976741542
        },
        {
          "name": "A3",
          "midi": 57,
          "time": 126.11627906975232,
          "velocity": 0.3779527559055118,
          "duration": 0.023255813953483084
        },
        {
          "name": "F#6",
          "midi": 90,
          "time": 126.11627906975232,
          "velocity": 0.2440944881889764,
          "duration": 0.1395348837208985
        },
        {
          "name": "B6",
          "midi": 95,
          "time": 126.12790697672907,
          "velocity": 0.16535433070866143,
          "duration": 0.04651162790696617
        },
        {
          "name": "C7",
          "midi": 96,
          "time": 126.12790697672907,
          "velocity": 0.33858267716535434,
          "duration": 0.17441860465112313
        },
        {
          "name": "C#7",
          "midi": 97,
          "time": 126.12790697672907,
          "velocity": 0.3228346456692913,
          "duration": 0.15116279069764005
        },
        {
          "name": "D#7",
          "midi": 99,
          "time": 126.12790697672907,
          "velocity": 0.33070866141732286,
          "duration": 0.1395348837208985
        },
        {
          "name": "E7",
          "midi": 100,
          "time": 126.12790697672907,
          "velocity": 0.31496062992125984,
          "duration": 0.15116279069764005
        },
        {
          "name": "G#2",
          "midi": 44,
          "time": 126.1395348837058,
          "velocity": 0.4251968503937008,
          "duration": 0.023255813953483084
        },
        {
          "name": "G3",
          "midi": 55,
          "time": 126.1395348837058,
          "velocity": 0.41732283464566927,
          "duration": 0.023255813953483084
        },
        {
          "name": "D7",
          "midi": 98,
          "time": 126.1395348837058,
          "velocity": 0.3228346456692913,
          "duration": 0.12790697674415696
        },
        {
          "name": "F7",
          "midi": 101,
          "time": 126.15116279068255,
          "velocity": 0.2283464566929134,
          "duration": 0.12790697674415696
        },
        {
          "name": "F3",
          "midi": 53,
          "time": 126.16279069765929,
          "velocity": 0.3228346456692913,
          "duration": 0.023255813953483084
        },
        {
          "name": "F2",
          "midi": 41,
          "time": 126.17441860463603,
          "velocity": 0.29133858267716534,
          "duration": 0.023255813953483084
        },
        {
          "name": "A3",
          "midi": 57,
          "time": 126.17441860463603,
          "velocity": 0.3858267716535433,
          "duration": 0.023255813953483084
        },
        {
          "name": "C3",
          "midi": 48,
          "time": 126.18604651161277,
          "velocity": 0.29133858267716534,
          "duration": 0.023255813953483084
        },
        {
          "name": "F4",
          "midi": 65,
          "time": 126.18604651161277,
          "velocity": 0.47244094488188976,
          "duration": 0.09302325581393234
        },
        {
          "name": "F#5",
          "midi": 78,
          "time": 126.18604651161277,
          "velocity": 0.11811023622047244,
          "duration": 0.04651162790696617
        },
        {
          "name": "B6",
          "midi": 95,
          "time": 126.18604651161277,
          "velocity": 0.2677165354330709,
          "duration": 0.09302325581393234
        },
        {
          "name": "A#3",
          "midi": 58,
          "time": 126.19767441858951,
          "velocity": 0.3937007874015748,
          "duration": 0.0813953488371908
        },
        {
          "name": "C6",
          "midi": 84,
          "time": 126.19767441858951,
          "velocity": 0.16535433070866143,
          "duration": 0.04651162790696617
        },
        {
          "name": "E6",
          "midi": 88,
          "time": 126.19767441858951,
          "velocity": 0.14960629921259844,
          "duration": 0.034883720930224626
        },
        {
          "name": "A6",
          "midi": 93,
          "time": 126.19767441858951,
          "velocity": 0.29133858267716534,
          "duration": 0.034883720930224626
        },
        {
          "name": "A#6",
          "midi": 94,
          "time": 126.19767441858951,
          "velocity": 0.28346456692913385,
          "duration": 0.05813953488370771
        },
        {
          "name": "G7",
          "midi": 103,
          "time": 126.19767441858951,
          "velocity": 0.16535433070866143,
          "duration": 0.06976744186044925
        },
        {
          "name": "D6",
          "midi": 86,
          "time": 126.20930232556626,
          "velocity": 0.16535433070866143,
          "duration": 0.05813953488370771
        },
        {
          "name": "G#6",
          "midi": 92,
          "time": 126.23255813951974,
          "velocity": 0.25196850393700787,
          "duration": 0.023255813953483084
        },
        {
          "name": "A2",
          "midi": 45,
          "time": 126.24418604649648,
          "velocity": 0.3464566929133858,
          "duration": 0.034883720930224626
        },
        {
          "name": "F#3",
          "midi": 54,
          "time": 126.24418604649648,
          "velocity": 0.30708661417322836,
          "duration": 0.023255813953483084
        },
        {
          "name": "G#4",
          "midi": 68,
          "time": 126.25581395347322,
          "velocity": 0.28346456692913385,
          "duration": 0.1395348837208985
        },
        {
          "name": "A#5",
          "midi": 82,
          "time": 126.25581395347322,
          "velocity": 0.08661417322834646,
          "duration": 0.0813953488371908
        },
        {
          "name": "A3",
          "midi": 57,
          "time": 126.2790697674267,
          "velocity": 0.3779527559055118,
          "duration": 0.023255813953483084
        },
        {
          "name": "D#6",
          "midi": 87,
          "time": 126.2790697674267,
          "velocity": 0.14173228346456693,
          "duration": 0.11627906976741542
        },
        {
          "name": "G#2",
          "midi": 44,
          "time": 126.29069767440345,
          "velocity": 0.3464566929133858,
          "duration": 0.023255813953483084
        },
        {
          "name": "G3",
          "midi": 55,
          "time": 126.30232558138019,
          "velocity": 0.3779527559055118,
          "duration": 0.034883720930224626
        },
        {
          "name": "G2",
          "midi": 43,
          "time": 126.31395348835693,
          "velocity": 0.30708661417322836,
          "duration": 0.023255813953483084
        },
        {
          "name": "F#3",
          "midi": 54,
          "time": 126.33720930231041,
          "velocity": 0.33070866141732286,
          "duration": 0.023255813953483084
        },
        {
          "name": "G#2",
          "midi": 44,
          "time": 126.3604651162639,
          "velocity": 0.3228346456692913,
          "duration": 0.023255813953483084
        },
        {
          "name": "A#0",
          "midi": 22,
          "time": 126.37209302324064,
          "velocity": 0.5433070866141733,
          "duration": 0.011627906976741542
        },
        {
          "name": "A3",
          "midi": 57,
          "time": 126.37209302324064,
          "velocity": 0.16535433070866143,
          "duration": 0.034883720930224626
        },
        {
          "name": "A2",
          "midi": 45,
          "time": 126.38372093021738,
          "velocity": 0.33858267716535434,
          "duration": 0.023255813953483084
        },
        {
          "name": "C6",
          "midi": 84,
          "time": 126.38372093021738,
          "velocity": 0.2755905511811024,
          "duration": 0.27906976744185386
        },
        {
          "name": "F6",
          "midi": 89,
          "time": 126.38372093021738,
          "velocity": 0.3464566929133858,
          "duration": 0.2674418604651123
        },
        {
          "name": "A#6",
          "midi": 94,
          "time": 126.38372093021738,
          "velocity": 0.3464566929133858,
          "duration": 0.25581395348837077
        },
        {
          "name": "D#4",
          "midi": 63,
          "time": 126.39534883719412,
          "velocity": 0.1968503937007874,
          "duration": 0.11627906976744384
        },
        {
          "name": "F5",
          "midi": 77,
          "time": 126.39534883719412,
          "velocity": 0.13385826771653545,
          "duration": 0.16279069767442422
        },
        {
          "name": "D7",
          "midi": 98,
          "time": 126.39534883719412,
          "velocity": 0.2440944881889764,
          "duration": 0.16279069767442422
        },
        {
          "name": "A#2",
          "midi": 46,
          "time": 126.40697674417086,
          "velocity": 0.2677165354330709,
          "duration": 0.023255813953483084
        },
        {
          "name": "G2",
          "midi": 43,
          "time": 126.44186046510109,
          "velocity": 0.13385826771653545,
          "duration": 0.03488372093023884
        },
        {
          "name": "A#3",
          "midi": 58,
          "time": 126.51162790696156,
          "velocity": 0.14960629921259844,
          "duration": 0.04651162790698038
        },
        {
          "name": "F4",
          "midi": 65,
          "time": 126.5465116278918,
          "velocity": 0.2440944881889764,
          "duration": 0.023255813953483084
        },
        {
          "name": "D#4",
          "midi": 63,
          "time": 126.56976744184529,
          "velocity": 0.47244094488188976,
          "duration": 0.04651162790698038
        },
        {
          "name": "A#3",
          "midi": 58,
          "time": 126.58139534882203,
          "velocity": 0.15748031496062992,
          "duration": 0.03488372093023884
        },
        {
          "name": "C#7",
          "midi": 97,
          "time": 126.58139534882203,
          "velocity": 0.18110236220472442,
          "duration": 0.03488372093023884
        },
        {
          "name": "F4",
          "midi": 65,
          "time": 126.62790697672901,
          "velocity": 0.4015748031496063,
          "duration": 0.10465116279067388
        },
        {
          "name": "C7",
          "midi": 96,
          "time": 126.63953488370575,
          "velocity": 0.28346456692913385,
          "duration": 0.04651162790696617
        },
        {
          "name": "D7",
          "midi": 98,
          "time": 126.63953488370575,
          "velocity": 0.12598425196850394,
          "duration": 0.1395348837208985
        },
        {
          "name": "A6",
          "midi": 93,
          "time": 126.66279069765923,
          "velocity": 0.09448818897637795,
          "duration": 0.034883720930224626
        },
        {
          "name": "F7",
          "midi": 101,
          "time": 126.67441860463597,
          "velocity": 0.11811023622047244,
          "duration": 0.04651162790696617
        },
        {
          "name": "C6",
          "midi": 84,
          "time": 126.68604651161272,
          "velocity": 0.18110236220472442,
          "duration": 0.06976744186044925
        },
        {
          "name": "F6",
          "midi": 89,
          "time": 126.69767441858946,
          "velocity": 0.09448818897637795,
          "duration": 0.05813953488370771
        },
        {
          "name": "A#6",
          "midi": 94,
          "time": 126.7093023255662,
          "velocity": 0.1968503937007874,
          "duration": 0.2906976744185954
        },
        {
          "name": "F4",
          "midi": 65,
          "time": 126.95348837207781,
          "velocity": 0.11811023622047244,
          "duration": 0.03488372093023884
        },
        {
          "name": "D#4",
          "midi": 63,
          "time": 126.9999999999848,
          "velocity": 0.3858267716535433,
          "duration": 0.04651162790696617
        },
        {
          "name": "G4",
          "midi": 67,
          "time": 126.9999999999848,
          "velocity": 0.29133858267716534,
          "duration": 0.034883720930224626
        },
        {
          "name": "A#5",
          "midi": 82,
          "time": 127.02325581393828,
          "velocity": 0.3700787401574803,
          "duration": 0.39534883720925507
        },
        {
          "name": "D#6",
          "midi": 87,
          "time": 127.02325581393828,
          "velocity": 0.4015748031496063,
          "duration": 0.4069767441859966
        },
        {
          "name": "F6",
          "midi": 89,
          "time": 127.03488372091502,
          "velocity": 0.14173228346456693,
          "duration": 0.04651162790696617
        },
        {
          "name": "G6",
          "midi": 91,
          "time": 127.03488372091502,
          "velocity": 0.25196850393700787,
          "duration": 0.2674418604650839
        },
        {
          "name": "D3",
          "midi": 50,
          "time": 127.04651162789176,
          "velocity": 0.3464566929133858,
          "duration": 0.023255813953483084
        },
        {
          "name": "F5",
          "midi": 77,
          "time": 127.04651162789176,
          "velocity": 0.4566929133858268,
          "duration": 0.2674418604650839
        },
        {
          "name": "F7",
          "midi": 101,
          "time": 127.04651162789176,
          "velocity": 0.16535433070866143,
          "duration": 0.034883720930224626
        },
        {
          "name": "F#1",
          "midi": 30,
          "time": 127.0581395348685,
          "velocity": 0.6456692913385826,
          "duration": 0.011627906976741542
        },
        {
          "name": "A3",
          "midi": 57,
          "time": 127.0581395348685,
          "velocity": 0.3937007874015748,
          "duration": 0.023255813953483084
        },
        {
          "name": "F4",
          "midi": 65,
          "time": 127.0581395348685,
          "velocity": 0.25984251968503935,
          "duration": 0.10465116279068809
        },
        {
          "name": "A#4",
          "midi": 70,
          "time": 127.0581395348685,
          "velocity": 0.3228346456692913,
          "duration": 0.09302325581394655
        },
        {
          "name": "G5",
          "midi": 79,
          "time": 127.0581395348685,
          "velocity": 0.12598425196850394,
          "duration": 0.18604651162787889
        },
        {
          "name": "F1",
          "midi": 29,
          "time": 127.06976744184524,
          "velocity": 0.7165354330708661,
          "duration": 0.011627906976741542
        },
        {
          "name": "G#4",
          "midi": 68,
          "time": 127.06976744184524,
          "velocity": 0.33070866141732286,
          "duration": 0.7674418604649986
        },
        {
          "name": "C7",
          "midi": 96,
          "time": 127.06976744184524,
          "velocity": 0.28346456692913385,
          "duration": 0.081395348837205
        },
        {
          "name": "E1",
          "midi": 28,
          "time": 127.08139534882199,
          "velocity": 0.7165354330708661,
          "duration": 0.011627906976741542
        },
        {
          "name": "G3",
          "midi": 55,
          "time": 127.08139534882199,
          "velocity": 0.5118110236220472,
          "duration": 0.3255813953488058
        },
        {
          "name": "D#1",
          "midi": 27,
          "time": 127.09302325579873,
          "velocity": 0.7480314960629921,
          "duration": 1.2325581395346887
        },
        {
          "name": "A#2",
          "midi": 46,
          "time": 127.12790697672897,
          "velocity": 0.4566929133858268,
          "duration": 0.2674418604650839
        },
        {
          "name": "C#4",
          "midi": 61,
          "time": 127.12790697672897,
          "velocity": 0.2677165354330709,
          "duration": 0.04651162790696617
        },
        {
          "name": "C#4",
          "midi": 61,
          "time": 127.18604651161267,
          "velocity": 0.2440944881889764,
          "duration": 0.023255813953483084
        },
        {
          "name": "C7",
          "midi": 96,
          "time": 127.20930232556616,
          "velocity": 0.11811023622047244,
          "duration": 0.034883720930224626
        },
        {
          "name": "D#4",
          "midi": 63,
          "time": 127.23255813951964,
          "velocity": 0.13385826771653545,
          "duration": 0.04651162790698038
        },
        {
          "name": "F5",
          "midi": 77,
          "time": 127.32558139533359,
          "velocity": 0.2283464566929134,
          "duration": 0.05813953488372192
        },
        {
          "name": "A#4",
          "midi": 70,
          "time": 127.38372093021731,
          "velocity": 0.11811023622047244,
          "duration": 0.034883720930224626
        },
        {
          "name": "G#3",
          "midi": 56,
          "time": 127.40697674417079,
          "velocity": 0.5275590551181102,
          "duration": 0.011627906976741542
        },
        {
          "name": "F5",
          "midi": 77,
          "time": 127.40697674417079,
          "velocity": 0.16535433070866143,
          "duration": 0.06976744186044925
        },
        {
          "name": "C7",
          "midi": 96,
          "time": 127.40697674417079,
          "velocity": 0.08661417322834646,
          "duration": 0.06976744186044925
        },
        {
          "name": "A#3",
          "midi": 58,
          "time": 127.41860465114753,
          "velocity": 0.5748031496062992,
          "duration": 0.06976744186044925
        },
        {
          "name": "G6",
          "midi": 91,
          "time": 127.41860465114753,
          "velocity": 0.13385826771653545,
          "duration": 0.06976744186044925
        },
        {
          "name": "F4",
          "midi": 65,
          "time": 127.43023255812427,
          "velocity": 0.4645669291338583,
          "duration": 0.05813953488370771
        },
        {
          "name": "A6",
          "midi": 93,
          "time": 127.43023255812427,
          "velocity": 0.18110236220472442,
          "duration": 0.05813953488370771
        },
        {
          "name": "D7",
          "midi": 98,
          "time": 127.43023255812427,
          "velocity": 0.14960629921259844,
          "duration": 0.034883720930224626
        },
        {
          "name": "B6",
          "midi": 95,
          "time": 127.44186046510102,
          "velocity": 0.09448818897637795,
          "duration": 0.04651162790696617
        },
        {
          "name": "D#6",
          "midi": 87,
          "time": 127.45348837207776,
          "velocity": 0.18110236220472442,
          "duration": 0.04651162790696617
        },
        {
          "name": "A#2",
          "midi": 46,
          "time": 127.4651162790545,
          "velocity": 0.3228346456692913,
          "duration": 0.04651162790696617
        },
        {
          "name": "G3",
          "midi": 55,
          "time": 127.4651162790545,
          "velocity": 0.4566929133858268,
          "duration": 0.023255813953483084
        },
        {
          "name": "D5",
          "midi": 74,
          "time": 127.4651162790545,
          "velocity": 0.09448818897637795,
          "duration": 0.034883720930224626
        },
        {
          "name": "E4",
          "midi": 64,
          "time": 127.48837209300798,
          "velocity": 0.2440944881889764,
          "duration": 0.023255813953483084
        },
        {
          "name": "F5",
          "midi": 77,
          "time": 127.48837209300798,
          "velocity": 0.14173228346456693,
          "duration": 0.09302325581393234
        },
        {
          "name": "A#3",
          "midi": 58,
          "time": 127.49999999998472,
          "velocity": 0.47244094488188976,
          "duration": 0.034883720930224626
        },
        {
          "name": "B4",
          "midi": 71,
          "time": 127.51162790696146,
          "velocity": 0.3543307086614173,
          "duration": 0.023255813953483084
        },
        {
          "name": "D#6",
          "midi": 87,
          "time": 127.51162790696146,
          "velocity": 0.2283464566929134,
          "duration": 0.3488372093022605
        },
        {
          "name": "G6",
          "midi": 91,
          "time": 127.51162790696146,
          "velocity": 0.11023622047244094,
          "duration": 0.06976744186044925
        },
        {
          "name": "G3",
          "midi": 55,
          "time": 127.5232558139382,
          "velocity": 0.4645669291338583,
          "duration": 0.09302325581393234
        },
        {
          "name": "C7",
          "midi": 96,
          "time": 127.5232558139382,
          "velocity": 0.14960629921259844,
          "duration": 0.034883720930224626
        },
        {
          "name": "A#2",
          "midi": 46,
          "time": 127.53488372091495,
          "velocity": 0.4566929133858268,
          "duration": 0.04651162790696617
        },
        {
          "name": "B4",
          "midi": 71,
          "time": 127.54651162789169,
          "velocity": 0.4015748031496063,
          "duration": 0.06976744186044925
        },
        {
          "name": "F4",
          "midi": 65,
          "time": 127.56976744184517,
          "velocity": 0.2677165354330709,
          "duration": 0.17441860465113734
        },
        {
          "name": "A#5",
          "midi": 82,
          "time": 127.58139534882191,
          "velocity": 0.4015748031496063,
          "duration": 0.5116279069766421
        },
        {
          "name": "D#4",
          "midi": 63,
          "time": 127.59302325579866,
          "velocity": 0.14173228346456693,
          "duration": 0.034883720930224626
        },
        {
          "name": "D5",
          "midi": 74,
          "time": 127.6046511627754,
          "velocity": 0.3464566929133858,
          "duration": 0.13953488372091272
        },
        {
          "name": "G#5",
          "midi": 80,
          "time": 127.61627906975214,
          "velocity": 0.3779527559055118,
          "duration": 0.04651162790696617
        },
        {
          "name": "G3",
          "midi": 55,
          "time": 127.62790697672888,
          "velocity": 0.4094488188976378,
          "duration": 0.11627906976742963
        },
        {
          "name": "A#3",
          "midi": 58,
          "time": 127.62790697672888,
          "velocity": 0.41732283464566927,
          "duration": 0.023255813953483084
        },
        {
          "name": "B4",
          "midi": 71,
          "time": 127.62790697672888,
          "velocity": 0.3700787401574803,
          "duration": 0.10465116279068809
        },
        {
          "name": "G5",
          "midi": 79,
          "time": 127.6627906976591,
          "velocity": 0.25196850393700787,
          "duration": 0.023255813953483084
        },
        {
          "name": "A#2",
          "midi": 46,
          "time": 127.67441860463585,
          "velocity": 0.3700787401574803,
          "duration": 0.05813953488372192
        },
        {
          "name": "C6",
          "midi": 84,
          "time": 127.67441860463585,
          "velocity": 0.2204724409448819,
          "duration": 0.05813953488372192
        },
        {
          "name": "G5",
          "midi": 79,
          "time": 127.73255813951957,
          "velocity": 0.23622047244094488,
          "duration": 0.023255813953483084
        },
        {
          "name": "E4",
          "midi": 64,
          "time": 127.74418604649631,
          "velocity": 0.2125984251968504,
          "duration": 0.034883720930224626
        },
        {
          "name": "C#5",
          "midi": 73,
          "time": 127.74418604649631,
          "velocity": 0.2992125984251969,
          "duration": 0.034883720930224626
        },
        {
          "name": "F5",
          "midi": 77,
          "time": 127.7674418604498,
          "velocity": 0.31496062992125984,
          "duration": 0.279069767441797
        },
        {
          "name": "G5",
          "midi": 79,
          "time": 127.7674418604498,
          "velocity": 0.25196850393700787,
          "duration": 0.06976744186044925
        },
        {
          "name": "D#4",
          "midi": 63,
          "time": 127.77906976742653,
          "velocity": 0.2283464566929134,
          "duration": 0.023255813953483084
        },
        {
          "name": "A#2",
          "midi": 46,
          "time": 127.79069767440328,
          "velocity": 0.4330708661417323,
          "duration": 0.0813953488371908
        },
        {
          "name": "F4",
          "midi": 65,
          "time": 127.80232558138002,
          "velocity": 0.25196850393700787,
          "duration": 0.10465116279067388
        },
        {
          "name": "A#3",
          "midi": 58,
          "time": 127.8255813953335,
          "velocity": 0.4409448818897638,
          "duration": 0.04651162790696617
        },
        {
          "name": "G#5",
          "midi": 80,
          "time": 127.83720930231024,
          "velocity": 0.3543307086614173,
          "duration": 0.023255813953483084
        },
        {
          "name": "G#4",
          "midi": 68,
          "time": 127.84883720928698,
          "velocity": 0.3464566929133858,
          "duration": 0.2209302325580893
        },
        {
          "name": "D5",
          "midi": 74,
          "time": 127.84883720928698,
          "velocity": 0.3779527559055118,
          "duration": 0.18604651162786467
        },
        {
          "name": "C#6",
          "midi": 85,
          "time": 127.84883720928698,
          "velocity": 0.23622047244094488,
          "duration": 0.034883720930224626
        },
        {
          "name": "D7",
          "midi": 98,
          "time": 127.86046511626373,
          "velocity": 0.33070866141732286,
          "duration": 0.15116279069764005
        },
        {
          "name": "C6",
          "midi": 84,
          "time": 127.87209302324047,
          "velocity": 0.1732283464566929,
          "duration": 0.04651162790696617
        },
        {
          "name": "D#6",
          "midi": 87,
          "time": 127.87209302324047,
          "velocity": 0.29133858267716534,
          "duration": 0.023255813953483084
        },
        {
          "name": "C7",
          "midi": 96,
          "time": 127.87209302324047,
          "velocity": 0.28346456692913385,
          "duration": 0.12790697674415696
        },
        {
          "name": "D#7",
          "midi": 99,
          "time": 127.87209302324047,
          "velocity": 0.30708661417322836,
          "duration": 0.11627906976741542
        },
        {
          "name": "A#3",
          "midi": 58,
          "time": 127.88372093021721,
          "velocity": 0.4330708661417323,
          "duration": 0.2558139534883139
        },
        {
          "name": "E6",
          "midi": 88,
          "time": 127.89534883719395,
          "velocity": 0.3228346456692913,
          "duration": 0.04651162790696617
        },
        {
          "name": "F#6",
          "midi": 90,
          "time": 127.89534883719395,
          "velocity": 0.23622047244094488,
          "duration": 0.034883720930224626
        },
        {
          "name": "A#2",
          "midi": 46,
          "time": 127.90697674417069,
          "velocity": 0.4094488188976378,
          "duration": 0.05813953488370771
        },
        {
          "name": "A#4",
          "midi": 70,
          "time": 127.90697674417069,
          "velocity": 0.48031496062992124,
          "duration": 0.4302325581394655
        },
        {
          "name": "A6",
          "midi": 93,
          "time": 127.90697674417069,
          "velocity": 0.29133858267716534,
          "duration": 0.10465116279067388
        },
        {
          "name": "B6",
          "midi": 95,
          "time": 127.90697674417069,
          "velocity": 0.2755905511811024,
          "duration": 0.034883720930224626
        },
        {
          "name": "G7",
          "midi": 103,
          "time": 127.90697674417069,
          "velocity": 0.1968503937007874,
          "duration": 0.0813953488371908
        },
        {
          "name": "D#4",
          "midi": 63,
          "time": 127.91860465114743,
          "velocity": 0.30708661417322836,
          "duration": 0.023255813953483084
        },
        {
          "name": "G#6",
          "midi": 92,
          "time": 127.91860465114743,
          "velocity": 0.25196850393700787,
          "duration": 0.06976744186044925
        },
        {
          "name": "C#7",
          "midi": 97,
          "time": 127.91860465114743,
          "velocity": 0.25984251968503935,
          "duration": 0.09302325581393234
        },
        {
          "name": "F#7",
          "midi": 102,
          "time": 127.93023255812417,
          "velocity": 0.1968503937007874,
          "duration": 0.06976744186044925
        },
        {
          "name": "D#6",
          "midi": 87,
          "time": 127.94186046510092,
          "velocity": 0.1732283464566929,
          "duration": 0.290697674418567
        },
        {
          "name": "F#6",
          "midi": 90,
          "time": 127.94186046510092,
          "velocity": 0.16535433070866143,
          "duration": 0.04651162790696617
        },
        {
          "name": "F4",
          "midi": 65,
          "time": 127.95348837207766,
          "velocity": 0.1968503937007874,
          "duration": 0.04651162790696617
        },
        {
          "name": "B6",
          "midi": 95,
          "time": 127.95348837207766,
          "velocity": 0.2047244094488189,
          "duration": 0.05813953488370771
        },
        {
          "name": "A#2",
          "midi": 46,
          "time": 127.97674418603114,
          "velocity": 0.3779527559055118,
          "duration": 0.023255813953483084
        },
        {
          "name": "A#2",
          "midi": 46,
          "time": 128.03488372091485,
          "velocity": 0.3937007874015748,
          "duration": 0.05813953488370771
        },
        {
          "name": "E7",
          "midi": 100,
          "time": 128.0465116278916,
          "velocity": 0.11811023622047244,
          "duration": 0.04651162790696617
        },
        {
          "name": "F4",
          "midi": 65,
          "time": 128.05813953486833,
          "velocity": 0.1968503937007874,
          "duration": 0.06976744186044925
        },
        {
          "name": "G#6",
          "midi": 92,
          "time": 128.05813953486833,
          "velocity": 0.11023622047244094,
          "duration": 0.06976744186044925
        },
        {
          "name": "G#4",
          "midi": 68,
          "time": 128.1046511627753,
          "velocity": 0.30708661417322836,
          "duration": 0.16279069767441
        },
        {
          "name": "A#2",
          "midi": 46,
          "time": 128.12790697672878,
          "velocity": 0.3543307086614173,
          "duration": 0.023255813953483084
        },
        {
          "name": "D#3",
          "midi": 51,
          "time": 128.15116279068226,
          "velocity": 0.33070866141732286,
          "duration": 0.13953488372092693
        },
        {
          "name": "A#3",
          "midi": 58,
          "time": 128.162790697659,
          "velocity": 0.4094488188976378,
          "duration": 0.13953488372092693
        },
        {
          "name": "D#6",
          "midi": 87,
          "time": 128.24418604649622,
          "velocity": 0.2047244094488189,
          "duration": 0.0813953488371908
        },
        {
          "name": "G#4",
          "midi": 68,
          "time": 128.27906976742645,
          "velocity": 0.33858267716535434,
          "duration": 0.04651162790696617
        },
        {
          "name": "G6",
          "midi": 91,
          "time": 128.27906976742645,
          "velocity": 0.3779527559055118,
          "duration": 0.12790697674415696
        },
        {
          "name": "D#5",
          "midi": 75,
          "time": 128.2906976744032,
          "velocity": 0.3543307086614173,
          "duration": 0.04651162790696617
        },
        {
          "name": "A5",
          "midi": 81,
          "time": 128.2906976744032,
          "velocity": 0.2204724409448819,
          "duration": 0.034883720930224626
        },
        {
          "name": "F#6",
          "midi": 90,
          "time": 128.2906976744032,
          "velocity": 0.28346456692913385,
          "duration": 0.034883720930224626
        },
        {
          "name": "F#5",
          "midi": 78,
          "time": 128.30232558137993,
          "velocity": 0.33070866141732286,
          "duration": 0.034883720930224626
        },
        {
          "name": "B2",
          "midi": 47,
          "time": 128.31395348835667,
          "velocity": 0.30708661417322836,
          "duration": 0.023255813953483084
        },
        {
          "name": "A#3",
          "midi": 58,
          "time": 128.31395348835667,
          "velocity": 0.3858267716535433,
          "duration": 0.034883720930224626
        },
        {
          "name": "E6",
          "midi": 88,
          "time": 128.31395348835667,
          "velocity": 0.2283464566929134,
          "duration": 0.034883720930224626
        },
        {
          "name": "A#6",
          "midi": 94,
          "time": 128.31395348835667,
          "velocity": 0.18110236220472442,
          "duration": 0.12790697674415696
        },
        {
          "name": "D1",
          "midi": 26,
          "time": 128.32558139533342,
          "velocity": 0.5196850393700787,
          "duration": 0.011627906976741542
        },
        {
          "name": "G#5",
          "midi": 80,
          "time": 128.32558139533342,
          "velocity": 0.28346456692913385,
          "duration": 0.10465116279067388
        },
        {
          "name": "C6",
          "midi": 84,
          "time": 128.32558139533342,
          "velocity": 0.08661417322834646,
          "duration": 0.04651162790696617
        },
        {
          "name": "D6",
          "midi": 86,
          "time": 128.32558139533342,
          "velocity": 0.31496062992125984,
          "duration": 0.09302325581393234
        },
        {
          "name": "F6",
          "midi": 89,
          "time": 128.32558139533342,
          "velocity": 0.33858267716535434,
          "duration": 0.17441860465112313
        },
        {
          "name": "B0",
          "midi": 23,
          "time": 128.33720930231016,
          "velocity": 0.5511811023622047,
          "duration": 0.011627906976741542
        },
        {
          "name": "E3",
          "midi": 52,
          "time": 128.33720930231016,
          "velocity": 0.33858267716535434,
          "duration": 0.023255813953483084
        },
        {
          "name": "D5",
          "midi": 74,
          "time": 128.33720930231016,
          "velocity": 0.3543307086614173,
          "duration": 0.09302325581393234
        },
        {
          "name": "F5",
          "midi": 77,
          "time": 128.33720930231016,
          "velocity": 0.33070866141732286,
          "duration": 0.5232558139533694
        },
        {
          "name": "D#6",
          "midi": 87,
          "time": 128.33720930231016,
          "velocity": 0.4015748031496063,
          "duration": 0.37209302325572935
        },
        {
          "name": "C#1",
          "midi": 25,
          "time": 128.3488372092869,
          "velocity": 0.6535433070866141,
          "duration": 0.011627906976741542
        },
        {
          "name": "A#4",
          "midi": 70,
          "time": 128.3488372092869,
          "velocity": 0.3858267716535433,
          "duration": 1.3255813953485358
        },
        {
          "name": "A6",
          "midi": 93,
          "time": 128.3488372092869,
          "velocity": 0.31496062992125984,
          "duration": 0.19767441860460622
        },
        {
          "name": "D1",
          "midi": 26,
          "time": 128.36046511626364,
          "velocity": 0.6929133858267716,
          "duration": 0.011627906976741542
        },
        {
          "name": "D#4",
          "midi": 63,
          "time": 128.36046511626364,
          "velocity": 0.3228346456692913,
          "duration": 0.15116279069764005
        },
        {
          "name": "E6",
          "midi": 88,
          "time": 128.36046511626364,
          "velocity": 0.2283464566929134,
          "duration": 0.034883720930224626
        },
        {
          "name": "C7",
          "midi": 96,
          "time": 128.36046511626364,
          "velocity": 0.08661417322834646,
          "duration": 0.06976744186044925
        },
        {
          "name": "C1",
          "midi": 24,
          "time": 128.37209302324038,
          "velocity": 0.6929133858267716,
          "duration": 0.011627906976741542
        },
        {
          "name": "B0",
          "midi": 23,
          "time": 128.38372093021712,
          "velocity": 0.7322834645669292,
          "duration": 1.2325581395346035
        },
        {
          "name": "C#7",
          "midi": 97,
          "time": 128.38372093021712,
          "velocity": 0.07874015748031496,
          "duration": 0.034883720930224626
        },
        {
          "name": "A#3",
          "midi": 58,
          "time": 128.39534883719386,
          "velocity": 0.3858267716535433,
          "duration": 0.023255813953483084
        },
        {
          "name": "F#6",
          "midi": 90,
          "time": 128.39534883719386,
          "velocity": 0.29133858267716534,
          "duration": 0.023255813953483084
        },
        {
          "name": "D#3",
          "midi": 51,
          "time": 128.4069767441706,
          "velocity": 0.5275590551181102,
          "duration": 0.06976744186044925
        },
        {
          "name": "F#4",
          "midi": 66,
          "time": 128.4302325581241,
          "velocity": 0.30708661417322836,
          "duration": 0.05813953488370771
        },
        {
          "name": "C#5",
          "midi": 73,
          "time": 128.4302325581241,
          "velocity": 0.30708661417322836,
          "duration": 0.23255813953483084
        },
        {
          "name": "G6",
          "midi": 91,
          "time": 128.45348837207757,
          "velocity": 0.2204724409448819,
          "duration": 0.1395348837208985
        },
        {
          "name": "A#3",
          "midi": 58,
          "time": 128.4651162790543,
          "velocity": 0.3858267716535433,
          "duration": 0.04651162790696617
        },
        {
          "name": "E7",
          "midi": 100,
          "time": 128.4651162790543,
          "velocity": 0.14960629921259844,
          "duration": 0.06976744186044925
        },
        {
          "name": "C7",
          "midi": 96,
          "time": 128.47674418603106,
          "velocity": 0.10236220472440945,
          "duration": 0.04651162790696617
        },
        {
          "name": "D#3",
          "midi": 51,
          "time": 128.4883720930078,
          "velocity": 0.5354330708661418,
          "duration": 0.09302325581393234
        },
        {
          "name": "A3",
          "midi": 57,
          "time": 128.51162790696128,
          "velocity": 0.36220472440944884,
          "duration": 0.023255813953483084
        },
        {
          "name": "A#3",
          "midi": 58,
          "time": 128.53488372091476,
          "velocity": 0.5039370078740157,
          "duration": 0.37209302325572935
        },
        {
          "name": "F#4",
          "midi": 66,
          "time": 128.53488372091476,
          "velocity": 0.1968503937007874,
          "duration": 0.034883720930224626
        },
        {
          "name": "D7",
          "midi": 98,
          "time": 128.5465116278915,
          "velocity": 0.11811023622047244,
          "duration": 0.0813953488371908
        },
        {
          "name": "D#3",
          "midi": 51,
          "time": 128.59302325579847,
          "velocity": 0.5354330708661418,
          "duration": 0.04651162790696617
        },
        {
          "name": "F#4",
          "midi": 66,
          "time": 128.59302325579847,
          "velocity": 0.25984251968503935,
          "duration": 0.0813953488371908
        },
        {
          "name": "A2",
          "midi": 45,
          "time": 128.63953488370544,
          "velocity": 0.5118110236220472,
          "duration": 0.011627906976741542
        },
        {
          "name": "D#3",
          "midi": 51,
          "time": 128.65116279068218,
          "velocity": 0.5196850393700787,
          "duration": 0.023255813953483084
        },
        {
          "name": "D5",
          "midi": 74,
          "time": 128.66279069765892,
          "velocity": 0.3937007874015748,
          "duration": 0.15116279069764005
        },
        {
          "name": "G#5",
          "midi": 80,
          "time": 128.66279069765892,
          "velocity": 0.31496062992125984,
          "duration": 0.2209302325580893
        },
        {
          "name": "D6",
          "midi": 86,
          "time": 128.66279069765892,
          "velocity": 0.4251968503937008,
          "duration": 0.1395348837208985
        },
        {
          "name": "F#6",
          "midi": 90,
          "time": 128.66279069765892,
          "velocity": 0.18110236220472442,
          "duration": 0.034883720930224626
        },
        {
          "name": "C6",
          "midi": 84,
          "time": 128.67441860463566,
          "velocity": 0.3228346456692913,
          "duration": 0.48837209302314477
        },
        {
          "name": "D#3",
          "midi": 51,
          "time": 128.6860465116124,
          "velocity": 0.5118110236220472,
          "duration": 0.05813953488370771
        },
        {
          "name": "F#4",
          "midi": 66,
          "time": 128.69767441858914,
          "velocity": 0.2440944881889764,
          "duration": 0.034883720930224626
        },
        {
          "name": "G6",
          "midi": 91,
          "time": 128.69767441858914,
          "velocity": 0.18110236220472442,
          "duration": 0.12790697674415696
        },
        {
          "name": "F#2",
          "midi": 42,
          "time": 128.7093023255659,
          "velocity": 0.44881889763779526,
          "duration": 0.023255813953483084
        },
        {
          "name": "E6",
          "midi": 88,
          "time": 128.7093023255659,
          "velocity": 0.11023622047244094,
          "duration": 0.034883720930224626
        },
        {
          "name": "F#4",
          "midi": 66,
          "time": 128.7674418604496,
          "velocity": 0.2204724409448819,
          "duration": 0.04651162790696617
        },
        {
          "name": "D#6",
          "midi": 87,
          "time": 128.7674418604496,
          "velocity": 0.2204724409448819,
          "duration": 0.4418604651161786
        },
        {
          "name": "D#4",
          "midi": 63,
          "time": 128.77906976742634,
          "velocity": 0.3464566929133858,
          "duration": 0.04651162790696617
        },
        {
          "name": "D#3",
          "midi": 51,
          "time": 128.81395348835656,
          "velocity": 0.4881889763779528,
          "duration": 0.023255813953483084
        },
        {
          "name": "F4",
          "midi": 65,
          "time": 128.81395348835656,
          "velocity": 0.3858267716535433,
          "duration": 0.06976744186044925
        },
        {
          "name": "C#5",
          "midi": 73,
          "time": 128.81395348835656,
          "velocity": 0.1968503937007874,
          "duration": 0.18604651162786467
        },
        {
          "name": "D#3",
          "midi": 51,
          "time": 128.84883720928678,
          "velocity": 0.47244094488188976,
          "duration": 0.034883720930224626
        },
        {
          "name": "D#5",
          "midi": 75,
          "time": 128.84883720928678,
          "velocity": 0.11811023622047244,
          "duration": 0.10465116279067388
        },
        {
          "name": "G6",
          "midi": 91,
          "time": 128.84883720928678,
          "velocity": 0.14173228346456693,
          "duration": 0.034883720930224626
        },
        {
          "name": "F4",
          "midi": 65,
          "time": 128.89534883719375,
          "velocity": 0.28346456692913385,
          "duration": 0.023255813953483084
        },
        {
          "name": "F#5",
          "midi": 78,
          "time": 128.89534883719375,
          "velocity": 0.29133858267716534,
          "duration": 0.034883720930224626
        },
        {
          "name": "G#5",
          "midi": 80,
          "time": 128.91860465114723,
          "velocity": 0.12598425196850394,
          "duration": 0.04651162790696617
        },
        {
          "name": "G#4",
          "midi": 68,
          "time": 128.93023255812398,
          "velocity": 0.29133858267716534,
          "duration": 0.0813953488371908
        },
        {
          "name": "G6",
          "midi": 91,
          "time": 128.93023255812398,
          "velocity": 0.07874015748031496,
          "duration": 0.034883720930224626
        },
        {
          "name": "G2",
          "midi": 43,
          "time": 128.95348837207746,
          "velocity": 0.47244094488188976,
          "duration": 0.023255813953483084
        },
        {
          "name": "D#3",
          "midi": 51,
          "time": 128.95348837207746,
          "velocity": 0.44881889763779526,
          "duration": 0.04651162790696617
        },
        {
          "name": "F#2",
          "midi": 42,
          "time": 128.97674418603094,
          "velocity": 0.44881889763779526,
          "duration": 0.0813953488371908
        },
        {
          "name": "E6",
          "midi": 88,
          "time": 128.97674418603094,
          "velocity": 0.11811023622047244,
          "duration": 0.06976744186044925
        },
        {
          "name": "D7",
          "midi": 98,
          "time": 128.97674418603094,
          "velocity": 0.3464566929133858,
          "duration": 0.10465116279067388
        },
        {
          "name": "D6",
          "midi": 86,
          "time": 128.98837209300768,
          "velocity": 0.18110236220472442,
          "duration": 0.0813953488371908
        },
        {
          "name": "F#6",
          "midi": 90,
          "time": 128.98837209300768,
          "velocity": 0.1889763779527559,
          "duration": 0.05813953488370771
        },
        {
          "name": "A6",
          "midi": 93,
          "time": 128.98837209300768,
          "velocity": 0.2755905511811024,
          "duration": 0.04651162790696617
        },
        {
          "name": "A#6",
          "midi": 94,
          "time": 128.98837209300768,
          "velocity": 0.28346456692913385,
          "duration": 0.06976744186044925
        },
        {
          "name": "B6",
          "midi": 95,
          "time": 128.98837209300768,
          "velocity": 0.28346456692913385,
          "duration": 0.05813953488370771
        },
        {
          "name": "C#7",
          "midi": 97,
          "time": 128.98837209300768,
          "velocity": 0.2755905511811024,
          "duration": 0.09302325581393234
        },
        {
          "name": "D#7",
          "midi": 99,
          "time": 128.98837209300768,
          "velocity": 0.28346456692913385,
          "duration": 0.04651162790696617
        },
        {
          "name": "E7",
          "midi": 100,
          "time": 128.98837209300768,
          "velocity": 0.23622047244094488,
          "duration": 0.06976744186044925
        },
        {
          "name": "F#7",
          "midi": 102,
          "time": 128.98837209300768,
          "velocity": 0.2125984251968504,
          "duration": 0.06976744186044925
        },
        {
          "name": "G7",
          "midi": 103,
          "time": 128.99999999998442,
          "velocity": 0.15748031496062992,
          "duration": 0.05813953488370771
        },
        {
          "name": "G#6",
          "midi": 92,
          "time": 129.0232558139379,
          "velocity": 0.23622047244094488,
          "duration": 0.023255813953483084
        },
        {
          "name": "C#5",
          "midi": 73,
          "time": 129.05813953486813,
          "velocity": 0.16535433070866143,
          "duration": 0.15116279069764005
        },
        {
          "name": "D#3",
          "midi": 51,
          "time": 129.11627906975184,
          "velocity": 0.3937007874015748,
          "duration": 0.023255813953483084
        },
        {
          "name": "F5",
          "midi": 77,
          "time": 129.12790697672858,
          "velocity": 0.10236220472440945,
          "duration": 0.034883720930224626
        },
        {
          "name": "F#2",
          "midi": 42,
          "time": 129.15116279068206,
          "velocity": 0.4015748031496063,
          "duration": 0.023255813953483084
        },
        {
          "name": "D#3",
          "midi": 51,
          "time": 129.15116279068206,
          "velocity": 0.4015748031496063,
          "duration": 0.023255813953483084
        },
        {
          "name": "A#3",
          "midi": 58,
          "time": 129.1627906976588,
          "velocity": 0.36220472440944884,
          "duration": 0.034883720930224626
        },
        {
          "name": "G4",
          "midi": 67,
          "time": 129.1860465116123,
          "velocity": 0.2755905511811024,
          "duration": 0.023255813953483084
        },
        {
          "name": "C#7",
          "midi": 97,
          "time": 129.1860465116123,
          "velocity": 0.18110236220472442,
          "duration": 0.09302325581393234
        },
        {
          "name": "D7",
          "midi": 98,
          "time": 129.1860465116123,
          "velocity": 0.28346456692913385,
          "duration": 0.10465116279067388
        },
        {
          "name": "D#7",
          "midi": 99,
          "time": 129.1860465116123,
          "velocity": 0.23622047244094488,
          "duration": 0.10465116279067388
        },
        {
          "name": "F5",
          "midi": 77,
          "time": 129.19767441858903,
          "velocity": 0.09448818897637795,
          "duration": 0.034883720930224626
        },
        {
          "name": "F6",
          "midi": 89,
          "time": 129.19767441858903,
          "velocity": 0.16535433070866143,
          "duration": 0.43023255813943706
        },
        {
          "name": "A#6",
          "midi": 94,
          "time": 129.19767441858903,
          "velocity": 0.2125984251968504,
          "duration": 0.05813953488370771
        },
        {
          "name": "A#3",
          "midi": 58,
          "time": 129.20930232556577,
          "velocity": 0.5039370078740157,
          "duration": 0.09302325581393234
        },
        {
          "name": "F4",
          "midi": 65,
          "time": 129.20930232556577,
          "velocity": 0.3779527559055118,
          "duration": 0.034883720930224626
        },
        {
          "name": "B6",
          "midi": 95,
          "time": 129.20930232556577,
          "velocity": 0.2440944881889764,
          "duration": 0.04651162790696617
        },
        {
          "name": "C7",
          "midi": 96,
          "time": 129.20930232556577,
          "velocity": 0.1732283464566929,
          "duration": 0.04651162790696617
        },
        {
          "name": "E7",
          "midi": 100,
          "time": 129.2209302325425,
          "velocity": 0.2047244094488189,
          "duration": 0.04651162790696617
        },
        {
          "name": "B2",
          "midi": 47,
          "time": 129.23255813951926,
          "velocity": 0.4409448818897638,
          "duration": 0.023255813953483084
        },
        {
          "name": "C#5",
          "midi": 73,
          "time": 129.23255813951926,
          "velocity": 0.15748031496062992,
          "duration": 0.39534883720921243
        },
        {
          "name": "D#4",
          "midi": 63,
          "time": 129.25581395347274,
          "velocity": 0.33858267716535434,
          "duration": 0.09302325581393234
        },
        {
          "name": "F#4",
          "midi": 66,
          "time": 129.26744186044948,
          "velocity": 0.3700787401574803,
          "duration": 0.10465116279067388
        },
        {
          "name": "A3",
          "midi": 57,
          "time": 129.3023255813797,
          "velocity": 0.4094488188976378,
          "duration": 0.023255813953483084
        },
        {
          "name": "D#3",
          "midi": 51,
          "time": 129.31395348835645,
          "velocity": 0.3700787401574803,
          "duration": 0.023255813953483084
        },
        {
          "name": "A#3",
          "midi": 58,
          "time": 129.33720930230993,
          "velocity": 0.4409448818897638,
          "duration": 0.15116279069764005
        },
        {
          "name": "D7",
          "midi": 98,
          "time": 129.33720930230993,
          "velocity": 0.25984251968503935,
          "duration": 0.0813953488371908
        },
        {
          "name": "D#7",
          "midi": 99,
          "time": 129.33720930230993,
          "velocity": 0.2283464566929134,
          "duration": 0.1627906976743816
        },
        {
          "name": "C#7",
          "midi": 97,
          "time": 129.34883720928667,
          "velocity": 0.2992125984251969,
          "duration": 0.11627906976741542
        },
        {
          "name": "E7",
          "midi": 100,
          "time": 129.34883720928667,
          "velocity": 0.25984251968503935,
          "duration": 0.20930232558134776
        },
        {
          "name": "F#7",
          "midi": 102,
          "time": 129.34883720928667,
          "velocity": 0.1732283464566929,
          "duration": 0.26744186046505547
        },
        {
          "name": "F7",
          "midi": 101,
          "time": 129.3604651162634,
          "velocity": 0.25196850393700787,
          "duration": 0.34883720930224626
        },
        {
          "name": "F4",
          "midi": 65,
          "time": 129.37209302324015,
          "velocity": 0.3464566929133858,
          "duration": 0.034883720930224626
        },
        {
          "name": "C7",
          "midi": 96,
          "time": 129.39534883719364,
          "velocity": 0.1889763779527559,
          "duration": 0.06976744186044925
        },
        {
          "name": "F#4",
          "midi": 66,
          "time": 129.40697674417038,
          "velocity": 0.3858267716535433,
          "duration": 0.034883720930224626
        },
        {
          "name": "G6",
          "midi": 91,
          "time": 129.40697674417038,
          "velocity": 0.08661417322834646,
          "duration": 0.034883720930224626
        },
        {
          "name": "D#3",
          "midi": 51,
          "time": 129.41860465114712,
          "velocity": 0.36220472440944884,
          "duration": 0.023255813953483084
        },
        {
          "name": "B6",
          "midi": 95,
          "time": 129.43023255812386,
          "velocity": 0.15748031496062992,
          "duration": 0.04651162790696617
        },
        {
          "name": "F#4",
          "midi": 66,
          "time": 129.45348837207735,
          "velocity": 0.36220472440944884,
          "duration": 0.15116279069764005
        },
        {
          "name": "D#4",
          "midi": 63,
          "time": 129.4651162790541,
          "velocity": 0.4251968503937008,
          "duration": 0.12790697674415696
        },
        {
          "name": "G6",
          "midi": 91,
          "time": 129.47674418603083,
          "velocity": 0.10236220472440945,
          "duration": 0.034883720930224626
        },
        {
          "name": "A3",
          "midi": 57,
          "time": 129.48837209300757,
          "velocity": 0.30708661417322836,
          "duration": 0.023255813953483084
        },
        {
          "name": "D7",
          "midi": 98,
          "time": 129.48837209300757,
          "velocity": 0.07874015748031496,
          "duration": 0.09302325581393234
        },
        {
          "name": "G7",
          "midi": 103,
          "time": 129.48837209300757,
          "velocity": 0.1732283464566929,
          "duration": 0.11627906976741542
        },
        {
          "name": "G3",
          "midi": 55,
          "time": 129.51162790696105,
          "velocity": 0.3937007874015748,
          "duration": 0.023255813953483084
        },
        {
          "name": "A3",
          "midi": 57,
          "time": 129.56976744184476,
          "velocity": 0.3858267716535433,
          "duration": 0.023255813953483084
        },
        {
          "name": "A#3",
          "midi": 58,
          "time": 129.59302325579824,
          "velocity": 0.41732283464566927,
          "duration": 0.10465116279067388
        },
        {
          "name": "A#6",
          "midi": 94,
          "time": 129.59302325579824,
          "velocity": 0.33070866141732286,
          "duration": 0.10465116279067388
        },
        {
          "name": "B6",
          "midi": 95,
          "time": 129.59302325579824,
          "velocity": 0.3228346456692913,
          "duration": 0.10465116279067388
        },
        {
          "name": "D#7",
          "midi": 99,
          "time": 129.59302325579824,
          "velocity": 0.1732283464566929,
          "duration": 0.034883720930224626
        },
        {
          "name": "F4",
          "midi": 65,
          "time": 129.60465116277499,
          "velocity": 0.4015748031496063,
          "duration": 0.0813953488371908
        },
        {
          "name": "E7",
          "midi": 100,
          "time": 129.60465116277499,
          "velocity": 0.3228346456692913,
          "duration": 0.05813953488370771
        },
        {
          "name": "C1",
          "midi": 24,
          "time": 129.61627906975173,
          "velocity": 0.5905511811023622,
          "duration": 0.011627906976741542
        },
        {
          "name": "C7",
          "midi": 96,
          "time": 129.61627906975173,
          "velocity": 0.2755905511811024,
          "duration": 0.09302325581393234
        },
        {
          "name": "C#7",
          "midi": 97,
          "time": 129.61627906975173,
          "velocity": 0.2992125984251969,
          "duration": 0.09302325581393234
        },
        {
          "name": "D7",
          "midi": 98,
          "time": 129.61627906975173,
          "velocity": 0.33858267716535434,
          "duration": 0.06976744186044925
        },
        {
          "name": "B0",
          "midi": 23,
          "time": 129.62790697672847,
          "velocity": 0.5826771653543307,
          "duration": 0.3953488372092693
        },
        {
          "name": "D5",
          "midi": 74,
          "time": 129.62790697672847,
          "velocity": 0.14173228346456693,
          "duration": 0.034883720930224626
        },
        {
          "name": "E6",
          "midi": 88,
          "time": 129.62790697672847,
          "velocity": 0.13385826771653545,
          "duration": 0.034883720930224626
        },
        {
          "name": "G7",
          "midi": 103,
          "time": 129.62790697672847,
          "velocity": 0.18110236220472442,
          "duration": 0.06976744186044925
        },
        {
          "name": "A5",
          "midi": 81,
          "time": 129.6395348837052,
          "velocity": 0.11023622047244094,
          "duration": 0.034883720930224626
        },
        {
          "name": "D#6",
          "midi": 87,
          "time": 129.6395348837052,
          "velocity": 0.14960629921259844,
          "duration": 0.17441860465115155
        },
        {
          "name": "F#6",
          "midi": 90,
          "time": 129.6395348837052,
          "velocity": 0.18110236220472442,
          "duration": 0.04651162790696617
        },
        {
          "name": "A6",
          "midi": 93,
          "time": 129.6395348837052,
          "velocity": 0.29133858267716534,
          "duration": 0.05813953488370771
        },
        {
          "name": "D#7",
          "midi": 99,
          "time": 129.6395348837052,
          "velocity": 0.2440944881889764,
          "duration": 0.05813953488370771
        },
        {
          "name": "A2",
          "midi": 45,
          "time": 129.65116279068195,
          "velocity": 0.3700787401574803,
          "duration": 0.023255813953483084
        },
        {
          "name": "F3",
          "midi": 53,
          "time": 129.65116279068195,
          "velocity": 0.3464566929133858,
          "duration": 0.1860465116278931
        },
        {
          "name": "C5",
          "midi": 72,
          "time": 129.65116279068195,
          "velocity": 0.13385826771653545,
          "duration": 0.17441860465115155
        },
        {
          "name": "F#7",
          "midi": 102,
          "time": 129.65116279068195,
          "velocity": 0.1968503937007874,
          "duration": 0.034883720930224626
        },
        {
          "name": "G#6",
          "midi": 92,
          "time": 129.67441860463543,
          "velocity": 0.07874015748031496,
          "duration": 0.04651162790696617
        },
        {
          "name": "E7",
          "midi": 100,
          "time": 129.67441860463543,
          "velocity": 0.25196850393700787,
          "duration": 0.034883720930224626
        },
        {
          "name": "E4",
          "midi": 64,
          "time": 129.68604651161218,
          "velocity": 0.31496062992125984,
          "duration": 0.023255813953483084
        },
        {
          "name": "G#4",
          "midi": 68,
          "time": 129.68604651161218,
          "velocity": 0.3937007874015748,
          "duration": 0.16279069767441
        },
        {
          "name": "G#2",
          "midi": 44,
          "time": 129.69767441858892,
          "velocity": 0.3464566929133858,
          "duration": 0.023255813953483084
        },
        {
          "name": "A3",
          "midi": 57,
          "time": 129.69767441858892,
          "velocity": 0.33070866141732286,
          "duration": 0.023255813953483084
        },
        {
          "name": "A#4",
          "midi": 70,
          "time": 129.81395348835636,
          "velocity": 0.31496062992125984,
          "duration": 0.023255813953483084
        },
        {
          "name": "F6",
          "midi": 89,
          "time": 129.81395348835636,
          "velocity": 0.3543307086614173,
          "duration": 0.2674418604650839
        },
        {
          "name": "A#6",
          "midi": 94,
          "time": 129.81395348835636,
          "velocity": 0.3464566929133858,
          "duration": 0.25581395348834235
        },
        {
          "name": "C#4",
          "midi": 61,
          "time": 129.8255813953331,
          "velocity": 0.1968503937007874,
          "duration": 0.034883720930224626
        },
        {
          "name": "C6",
          "midi": 84,
          "time": 129.8255813953331,
          "velocity": 0.25984251968503935,
          "duration": 0.25581395348834235
        },
        {
          "name": "D#6",
          "midi": 87,
          "time": 129.8255813953331,
          "velocity": 0.09448818897637795,
          "duration": 0.05813953488370771
        },
        {
          "name": "D7",
          "midi": 98,
          "time": 129.8255813953331,
          "velocity": 0.2204724409448819,
          "duration": 0.1860465116278931
        },
        {
          "name": "G3",
          "midi": 55,
          "time": 129.83720930230984,
          "velocity": 0.2992125984251969,
          "duration": 0.023255813953483084
        },
        {
          "name": "F5",
          "midi": 77,
          "time": 129.83720930230984,
          "velocity": 0.1732283464566929,
          "duration": 0.16279069767441
        },
        {
          "name": "B6",
          "midi": 95,
          "time": 129.83720930230984,
          "velocity": 0.14173228346456693,
          "duration": 0.034883720930224626
        },
        {
          "name": "A4",
          "midi": 69,
          "time": 129.8488372092866,
          "velocity": 0.4330708661417323,
          "duration": 0.023255813953483084
        },
        {
          "name": "F#2",
          "midi": 42,
          "time": 129.86046511626333,
          "velocity": 0.25196850393700787,
          "duration": 0.023255813953483084
        },
        {
          "name": "F#3",
          "midi": 54,
          "time": 129.86046511626333,
          "velocity": 0.2992125984251969,
          "duration": 0.1860465116278931
        },
        {
          "name": "G#4",
          "midi": 68,
          "time": 129.87209302324007,
          "velocity": 0.4015748031496063,
          "duration": 0.1860465116278931
        },
        {
          "name": "A#5",
          "midi": 82,
          "time": 129.8837209302168,
          "velocity": 0.07086614173228346,
          "duration": 0.034883720930224626
        },
        {
          "name": "D#6",
          "midi": 87,
          "time": 129.9069767441703,
          "velocity": 0.10236220472440945,
          "duration": 0.15116279069766847
        },
        {
          "name": "F4",
          "midi": 65,
          "time": 129.93023255812378,
          "velocity": 0.12598425196850394,
          "duration": 0.09302325581396076
        },
        {
          "name": "B0",
          "midi": 23,
          "time": 130.03488372091448,
          "velocity": 0.44881889763779526,
          "duration": 0.23255813953483084
        },
        {
          "name": "A#4",
          "midi": 70,
          "time": 130.03488372091448,
          "velocity": 0.3700787401574803,
          "duration": 0.45348837209292014
        },
        {
          "name": "D7",
          "midi": 98,
          "time": 130.04651162789122,
          "velocity": 0.14173228346456693,
          "duration": 0.05813953488370771
        },
        {
          "name": "D#7",
          "midi": 99,
          "time": 130.04651162789122,
          "velocity": 0.2125984251968504,
          "duration": 0.04651162790696617
        },
        {
          "name": "D#5",
          "midi": 75,
          "time": 130.05813953486796,
          "velocity": 0.14960629921259844,
          "duration": 0.11627906976741542
        },
        {
          "name": "G#3",
          "midi": 56,
          "time": 130.0697674418447,
          "velocity": 0.3464566929133858,
          "duration": 0.034883720930224626
        },
        {
          "name": "A#6",
          "midi": 94,
          "time": 130.08139534882145,
          "velocity": 0.1968503937007874,
          "duration": 0.3372093023255047
        },
        {
          "name": "G#3",
          "midi": 56,
          "time": 130.11627906975167,
          "velocity": 0.3543307086614173,
          "duration": 0.10465116279067388
        },
        {
          "name": "C6",
          "midi": 84,
          "time": 130.1279069767284,
          "velocity": 0.10236220472440945,
          "duration": 0.0813953488371908
        },
        {
          "name": "F6",
          "midi": 89,
          "time": 130.1279069767284,
          "velocity": 0.1732283464566929,
          "duration": 0.034883720930224626
        },
        {
          "name": "D#5",
          "midi": 75,
          "time": 130.19767441858886,
          "velocity": 0.25196850393700787,
          "duration": 0.0813953488371908
        },
        {
          "name": "F6",
          "midi": 89,
          "time": 130.19767441858886,
          "velocity": 0.14173228346456693,
          "duration": 0.05813953488370771
        },
        {
          "name": "F#5",
          "midi": 78,
          "time": 130.2093023255656,
          "velocity": 0.3858267716535433,
          "duration": 0.06976744186044925
        },
        {
          "name": "B5",
          "midi": 83,
          "time": 130.22093023254234,
          "velocity": 0.12598425196850394,
          "duration": 0.04651162790696617
        },
        {
          "name": "G#3",
          "midi": 56,
          "time": 130.23255813951909,
          "velocity": 0.30708661417322836,
          "duration": 0.034883720930224626
        },
        {
          "name": "F#4",
          "midi": 66,
          "time": 130.24418604649583,
          "velocity": 0.1732283464566929,
          "duration": 0.04651162790696617
        },
        {
          "name": "F6",
          "midi": 89,
          "time": 130.2674418604493,
          "velocity": 0.25196850393700787,
          "duration": 0.12790697674415696
        },
        {
          "name": "A#3",
          "midi": 58,
          "time": 130.27906976742605,
          "velocity": 0.47244094488188976,
          "duration": 0.26744186046505547
        },
        {
          "name": "F5",
          "midi": 77,
          "time": 130.27906976742605,
          "velocity": 0.4566929133858268,
          "duration": 0.4999999999998863
        },
        {
          "name": "G#4",
          "midi": 68,
          "time": 130.30232558137953,
          "velocity": 0.28346456692913385,
          "duration": 0.09302325581393234
        },
        {
          "name": "D#5",
          "midi": 75,
          "time": 130.32558139533302,
          "velocity": 0.18110236220472442,
          "duration": 0.034883720930224626
        },
        {
          "name": "A#5",
          "midi": 82,
          "time": 130.46511627905392,
          "velocity": 0.3700787401574803,
          "duration": 0.17441860465112313
        },
        {
          "name": "D#6",
          "midi": 87,
          "time": 130.46511627905392,
          "velocity": 0.4409448818897638,
          "duration": 1.6511627906973274
        },
        {
          "name": "G6",
          "midi": 91,
          "time": 130.46511627905392,
          "velocity": 0.2440944881889764,
          "duration": 0.24418604651157239
        },
        {
          "name": "C7",
          "midi": 96,
          "time": 130.46511627905392,
          "velocity": 0.2204724409448819,
          "duration": 0.09302325581393234
        },
        {
          "name": "F#1",
          "midi": 30,
          "time": 130.47674418603066,
          "velocity": 0.6141732283464567,
          "duration": 0.023255813953483084
        },
        {
          "name": "G#4",
          "midi": 68,
          "time": 130.47674418603066,
          "velocity": 0.33858267716535434,
          "duration": 0.29069767441853855
        },
        {
          "name": "G5",
          "midi": 79,
          "time": 130.47674418603066,
          "velocity": 0.11023622047244094,
          "duration": 0.1395348837208985
        },
        {
          "name": "E4",
          "midi": 64,
          "time": 130.4883720930074,
          "velocity": 0.23622047244094488,
          "duration": 0.023255813953483084
        },
        {
          "name": "E7",
          "midi": 100,
          "time": 130.4883720930074,
          "velocity": 0.2125984251968504,
          "duration": 0.06976744186044925
        },
        {
          "name": "F1",
          "midi": 29,
          "time": 130.49999999998414,
          "velocity": 0.7007874015748031,
          "duration": 0.011627906976741542
        },
        {
          "name": "D3",
          "midi": 50,
          "time": 130.49999999998414,
          "velocity": 0.41732283464566927,
          "duration": 0.023255813953483084
        },
        {
          "name": "E1",
          "midi": 28,
          "time": 130.51162790696088,
          "velocity": 0.7244094488188977,
          "duration": 0.011627906976741542
        },
        {
          "name": "D#4",
          "midi": 63,
          "time": 130.51162790696088,
          "velocity": 0.2283464566929134,
          "duration": 0.04651162790696617
        },
        {
          "name": "D#1",
          "midi": 27,
          "time": 130.52325581393762,
          "velocity": 0.7480314960629921,
          "duration": 1.1395348837206996
        },
        {
          "name": "G3",
          "midi": 55,
          "time": 130.53488372091437,
          "velocity": 0.5196850393700787,
          "duration": 0.5465116279068525
        },
        {
          "name": "A#2",
          "midi": 46,
          "time": 130.5465116278911,
          "velocity": 0.4330708661417323,
          "duration": 0.11627906976741542
        },
        {
          "name": "C7",
          "midi": 96,
          "time": 130.58139534882133,
          "velocity": 0.15748031496062992,
          "duration": 0.11627906976741542
        },
        {
          "name": "D#4",
          "midi": 63,
          "time": 130.59302325579807,
          "velocity": 0.2283464566929134,
          "duration": 0.10465116279067388
        },
        {
          "name": "A5",
          "midi": 81,
          "time": 130.6279069767283,
          "velocity": 0.4330708661417323,
          "duration": 0.034883720930224626
        },
        {
          "name": "C6",
          "midi": 84,
          "time": 130.6279069767283,
          "velocity": 0.2283464566929134,
          "duration": 0.023255813953483084
        },
        {
          "name": "C#6",
          "midi": 85,
          "time": 130.6279069767283,
          "velocity": 0.2440944881889764,
          "duration": 0.034883720930224626
        },
        {
          "name": "E6",
          "midi": 88,
          "time": 130.6279069767283,
          "velocity": 0.2677165354330709,
          "duration": 0.034883720930224626
        },
        {
          "name": "D6",
          "midi": 86,
          "time": 130.63953488370504,
          "velocity": 0.36220472440944884,
          "duration": 0.1395348837208985
        },
        {
          "name": "B6",
          "midi": 95,
          "time": 130.63953488370504,
          "velocity": 0.07874015748031496,
          "duration": 0.04651162790696617
        },
        {
          "name": "B4",
          "midi": 71,
          "time": 130.65116279068178,
          "velocity": 0.30708661417322836,
          "duration": 0.023255813953483084
        },
        {
          "name": "G5",
          "midi": 79,
          "time": 130.65116279068178,
          "velocity": 0.36220472440944884,
          "duration": 0.023255813953483084
        },
        {
          "name": "A#5",
          "midi": 82,
          "time": 130.65116279068178,
          "velocity": 0.2440944881889764,
          "duration": 0.11627906976741542
        },
        {
          "name": "D5",
          "midi": 74,
          "time": 130.66279069765852,
          "velocity": 0.36220472440944884,
          "duration": 0.10465116279067388
        },
        {
          "name": "G#5",
          "midi": 80,
          "time": 130.66279069765852,
          "velocity": 0.44881889763779526,
          "duration": 0.023255813953483084
        },
        {
          "name": "C6",
          "midi": 84,
          "time": 130.66279069765852,
          "velocity": 0.2677165354330709,
          "duration": 0.12790697674415696
        },
        {
          "name": "A#2",
          "midi": 46,
          "time": 130.67441860463526,
          "velocity": 0.4645669291338583,
          "duration": 0.11627906976741542
        },
        {
          "name": "A#4",
          "midi": 70,
          "time": 130.67441860463526,
          "velocity": 0.3543307086614173,
          "duration": 0.1395348837208985
        },
        {
          "name": "G5",
          "midi": 79,
          "time": 130.686046511612,
          "velocity": 0.3858267716535433,
          "duration": 0.034883720930224626
        },
        {
          "name": "E6",
          "midi": 88,
          "time": 130.69767441858875,
          "velocity": 0.36220472440944884,
          "duration": 0.05813953488370771
        },
        {
          "name": "A6",
          "midi": 93,
          "time": 130.72093023254223,
          "velocity": 0.07874015748031496,
          "duration": 0.034883720930224626
        },
        {
          "name": "F4",
          "midi": 65,
          "time": 130.7441860464957,
          "velocity": 0.2677165354330709,
          "duration": 0.034883720930224626
        },
        {
          "name": "E4",
          "midi": 64,
          "time": 130.77906976742594,
          "velocity": 0.23622047244094488,
          "duration": 0.023255813953483084
        },
        {
          "name": "G#4",
          "midi": 68,
          "time": 130.77906976742594,
          "velocity": 0.3700787401574803,
          "duration": 0.09302325581393234
        },
        {
          "name": "A#2",
          "midi": 46,
          "time": 130.80232558137942,
          "velocity": 0.49606299212598426,
          "duration": 0.09302325581393234
        },
        {
          "name": "F5",
          "midi": 77,
          "time": 130.80232558137942,
          "velocity": 0.2047244094488189,
          "duration": 0.05813953488370771
        },
        {
          "name": "G6",
          "midi": 91,
          "time": 130.8488372092864,
          "velocity": 0.11023622047244094,
          "duration": 0.05813953488370771
        },
        {
          "name": "B3",
          "midi": 59,
          "time": 130.86046511626313,
          "velocity": 0.4881889763779528,
          "duration": 0.05813953488370771
        },
        {
          "name": "A4",
          "midi": 69,
          "time": 130.86046511626313,
          "velocity": 0.3228346456692913,
          "duration": 0.034883720930224626
        },
        {
          "name": "C#6",
          "midi": 85,
          "time": 130.86046511626313,
          "velocity": 0.2283464566929134,
          "duration": 0.04651162790696617
        },
        {
          "name": "F#4",
          "midi": 66,
          "time": 130.87209302323987,
          "velocity": 0.4881889763779528,
          "duration": 0.05813953488370771
        },
        {
          "name": "D#5",
          "midi": 75,
          "time": 130.89534883719335,
          "velocity": 0.13385826771653545,
          "duration": 0.034883720930224626
        },
        {
          "name": "F5",
          "midi": 77,
          "time": 130.89534883719335,
          "velocity": 0.1732283464566929,
          "duration": 0.2209302325580893
        },
        {
          "name": "F6",
          "midi": 89,
          "time": 130.89534883719335,
          "velocity": 0.2283464566929134,
          "duration": 0.04651162790696617
        },
        {
          "name": "F#6",
          "midi": 90,
          "time": 130.89534883719335,
          "velocity": 0.1968503937007874,
          "duration": 0.04651162790696617
        },
        {
          "name": "C7",
          "midi": 96,
          "time": 130.89534883719335,
          "velocity": 0.2125984251968504,
          "duration": 0.11627906976741542
        },
        {
          "name": "G7",
          "midi": 103,
          "time": 130.89534883719335,
          "velocity": 0.14173228346456693,
          "duration": 0.04651162790696617
        },
        {
          "name": "G#4",
          "midi": 68,
          "time": 130.91860465114684,
          "velocity": 0.2992125984251969,
          "duration": 0.05813953488370771
        },
        {
          "name": "A#5",
          "midi": 82,
          "time": 130.91860465114684,
          "velocity": 0.08661417322834646,
          "duration": 0.05813953488370771
        },
        {
          "name": "G6",
          "midi": 91,
          "time": 130.91860465114684,
          "velocity": 0.10236220472440945,
          "duration": 0.0813953488371908
        },
        {
          "name": "B3",
          "midi": 59,
          "time": 130.93023255812358,
          "velocity": 0.4566929133858268,
          "duration": 0.0813953488371908
        },
        {
          "name": "E7",
          "midi": 100,
          "time": 130.93023255812358,
          "velocity": 0.2047244094488189,
          "duration": 0.09302325581393234
        },
        {
          "name": "F#4",
          "midi": 66,
          "time": 130.94186046510032,
          "velocity": 0.3700787401574803,
          "duration": 0.0813953488371908
        },
        {
          "name": "D6",
          "midi": 86,
          "time": 130.9651162790538,
          "velocity": 0.13385826771653545,
          "duration": 0.0813953488371908
        },
        {
          "name": "A#2",
          "midi": 46,
          "time": 130.97674418603054,
          "velocity": 0.47244094488188976,
          "duration": 0.17441860465112313
        },
        {
          "name": "G#5",
          "midi": 80,
          "time": 130.97674418603054,
          "velocity": 0.11811023622047244,
          "duration": 0.034883720930224626
        },
        {
          "name": "A6",
          "midi": 93,
          "time": 130.97674418603054,
          "velocity": 0.14960629921259844,
          "duration": 0.034883720930224626
        },
        {
          "name": "G#4",
          "midi": 68,
          "time": 130.98837209300729,
          "velocity": 0.3228346456692913,
          "duration": 0.12790697674415696
        },
        {
          "name": "B3",
          "midi": 59,
          "time": 131.0232558139375,
          "velocity": 0.30708661417322836,
          "duration": 0.023255813953483084
        },
        {
          "name": "A#5",
          "midi": 82,
          "time": 131.046511627891,
          "velocity": 0.09448818897637795,
          "duration": 0.09302325581393234
        },
        {
          "name": "F4",
          "midi": 65,
          "time": 131.08139534882122,
          "velocity": 0.3543307086614173,
          "duration": 0.034883720930224626
        },
        {
          "name": "E7",
          "midi": 100,
          "time": 131.08139534882122,
          "velocity": 0.2047244094488189,
          "duration": 0.06976744186044925
        },
        {
          "name": "A#3",
          "midi": 58,
          "time": 131.09302325579796,
          "velocity": 0.49606299212598426,
          "duration": 0.04651162790696617
        },
        {
          "name": "F#5",
          "midi": 78,
          "time": 131.09302325579796,
          "velocity": 0.2204724409448819,
          "duration": 0.05813953488370771
        },
        {
          "name": "G#6",
          "midi": 92,
          "time": 131.09302325579796,
          "velocity": 0.14173228346456693,
          "duration": 0.05813953488370771
        },
        {
          "name": "F#7",
          "midi": 102,
          "time": 131.09302325579796,
          "velocity": 0.10236220472440945,
          "duration": 0.04651162790696617
        },
        {
          "name": "G6",
          "midi": 91,
          "time": 131.1046511627747,
          "velocity": 0.1732283464566929,
          "duration": 0.04651162790696617
        },
        {
          "name": "F#4",
          "midi": 66,
          "time": 131.11627906975144,
          "velocity": 0.4330708661417323,
          "duration": 0.06976744186044925
        },
        {
          "name": "D#5",
          "midi": 75,
          "time": 131.11627906975144,
          "velocity": 0.14960629921259844,
          "duration": 0.06976744186044925
        },
        {
          "name": "F7",
          "midi": 101,
          "time": 131.11627906975144,
          "velocity": 0.15748031496062992,
          "duration": 0.034883720930224626
        },
        {
          "name": "D6",
          "midi": 86,
          "time": 131.12790697672818,
          "velocity": 0.1968503937007874,
          "duration": 0.09302325581393234
        },
        {
          "name": "F6",
          "midi": 89,
          "time": 131.12790697672818,
          "velocity": 0.25984251968503935,
          "duration": 0.05813953488370771
        },
        {
          "name": "G3",
          "midi": 55,
          "time": 131.13953488370493,
          "velocity": 0.3858267716535433,
          "duration": 0.04651162790696617
        },
        {
          "name": "B3",
          "midi": 59,
          "time": 131.13953488370493,
          "velocity": 0.3543307086614173,
          "duration": 0.023255813953483084
        },
        {
          "name": "F5",
          "midi": 77,
          "time": 131.13953488370493,
          "velocity": 0.2677165354330709,
          "duration": 0.06976744186044925
        },
        {
          "name": "A#5",
          "midi": 82,
          "time": 131.15116279068167,
          "velocity": 0.12598425196850394,
          "duration": 0.04651162790696617
        },
        {
          "name": "G5",
          "midi": 79,
          "time": 131.1627906976584,
          "velocity": 0.11811023622047244,
          "duration": 0.05813953488370771
        },
        {
          "name": "G#4",
          "midi": 68,
          "time": 131.17441860463515,
          "velocity": 0.33858267716535434,
          "duration": 0.09302325581393234
        },
        {
          "name": "A#2",
          "midi": 46,
          "time": 131.1860465116119,
          "velocity": 0.4015748031496063,
          "duration": 0.034883720930224626
        },
        {
          "name": "A#3",
          "midi": 58,
          "time": 131.1860465116119,
          "velocity": 0.49606299212598426,
          "duration": 0.06976744186044925
        },
        {
          "name": "F4",
          "midi": 65,
          "time": 131.1860465116119,
          "velocity": 0.3779527559055118,
          "duration": 0.05813953488370771
        },
        {
          "name": "D5",
          "midi": 74,
          "time": 131.1860465116119,
          "velocity": 0.2047244094488189,
          "duration": 0.06976744186044925
        },
        {
          "name": "B3",
          "midi": 59,
          "time": 131.25581395347234,
          "velocity": 0.48031496062992124,
          "duration": 0.1395348837208985
        },
        {
          "name": "D#5",
          "midi": 75,
          "time": 131.25581395347234,
          "velocity": 0.3543307086614173,
          "duration": 0.24418604651157239
        },
        {
          "name": "G3",
          "midi": 55,
          "time": 131.26744186044908,
          "velocity": 0.3543307086614173,
          "duration": 0.04651162790696617
        },
        {
          "name": "F#4",
          "midi": 66,
          "time": 131.27906976742582,
          "velocity": 0.3464566929133858,
          "duration": 0.0813953488371908
        },
        {
          "name": "G#4",
          "midi": 68,
          "time": 131.3023255813793,
          "velocity": 0.3228346456692913,
          "duration": 0.2209302325580893
        },
        {
          "name": "B5",
          "midi": 83,
          "time": 131.31395348835605,
          "velocity": 0.3543307086614173,
          "duration": 0.06976744186044925
        },
        {
          "name": "C#6",
          "midi": 85,
          "time": 131.3255813953328,
          "velocity": 0.2755905511811024,
          "duration": 0.04651162790696617
        },
        {
          "name": "A#4",
          "midi": 70,
          "time": 131.33720930230953,
          "velocity": 0.5196850393700787,
          "duration": 0.49999999999991473
        },
        {
          "name": "C7",
          "midi": 96,
          "time": 131.33720930230953,
          "velocity": 0.2992125984251969,
          "duration": 0.10465116279067388
        },
        {
          "name": "D7",
          "midi": 98,
          "time": 131.33720930230953,
          "velocity": 0.33070866141732286,
          "duration": 0.10465116279067388
        },
        {
          "name": "E7",
          "midi": 100,
          "time": 131.33720930230953,
          "velocity": 0.2125984251968504,
          "duration": 0.09302325581393234
        },
        {
          "name": "A5",
          "midi": 81,
          "time": 131.34883720928627,
          "velocity": 0.11811023622047244,
          "duration": 0.04651162790696617
        },
        {
          "name": "E6",
          "midi": 88,
          "time": 131.34883720928627,
          "velocity": 0.2440944881889764,
          "duration": 0.023255813953483084
        },
        {
          "name": "A6",
          "midi": 93,
          "time": 131.34883720928627,
          "velocity": 0.28346456692913385,
          "duration": 0.04651162790696617
        },
        {
          "name": "A#6",
          "midi": 94,
          "time": 131.34883720928627,
          "velocity": 0.2992125984251969,
          "duration": 0.05813953488370771
        },
        {
          "name": "C#7",
          "midi": 97,
          "time": 131.34883720928627,
          "velocity": 0.28346456692913385,
          "duration": 0.06976744186044925
        },
        {
          "name": "F7",
          "midi": 101,
          "time": 131.34883720928627,
          "velocity": 0.2755905511811024,
          "duration": 0.06976744186044925
        },
        {
          "name": "F#7",
          "midi": 102,
          "time": 131.34883720928627,
          "velocity": 0.2204724409448819,
          "duration": 0.05813953488370771
        },
        {
          "name": "G7",
          "midi": 103,
          "time": 131.34883720928627,
          "velocity": 0.2283464566929134,
          "duration": 0.06976744186044925
        },
        {
          "name": "A#2",
          "midi": 46,
          "time": 131.36046511626301,
          "velocity": 0.41732283464566927,
          "duration": 0.023255813953483084
        },
        {
          "name": "E4",
          "midi": 64,
          "time": 131.36046511626301,
          "velocity": 0.2992125984251969,
          "duration": 0.023255813953483084
        },
        {
          "name": "D6",
          "midi": 86,
          "time": 131.36046511626301,
          "velocity": 0.14173228346456693,
          "duration": 0.05813953488370771
        },
        {
          "name": "F6",
          "midi": 89,
          "time": 131.36046511626301,
          "velocity": 0.2992125984251969,
          "duration": 0.04651162790696617
        },
        {
          "name": "G3",
          "midi": 55,
          "time": 131.37209302323976,
          "velocity": 0.33070866141732286,
          "duration": 0.023255813953483084
        },
        {
          "name": "G#6",
          "midi": 92,
          "time": 131.3837209302165,
          "velocity": 0.25984251968503935,
          "duration": 0.04651162790696617
        },
        {
          "name": "A#3",
          "midi": 58,
          "time": 131.39534883719324,
          "velocity": 0.5039370078740157,
          "duration": 0.034883720930224626
        },
        {
          "name": "F5",
          "midi": 77,
          "time": 131.40697674416998,
          "velocity": 0.14960629921259844,
          "duration": 0.06976744186044925
        },
        {
          "name": "B3",
          "midi": 59,
          "time": 131.43023255812346,
          "velocity": 0.5039370078740157,
          "duration": 0.034883720930224626
        },
        {
          "name": "D#3",
          "midi": 51,
          "time": 131.45348837207695,
          "velocity": 0.3228346456692913,
          "duration": 0.023255813953483084
        },
        {
          "name": "G#6",
          "midi": 92,
          "time": 131.45348837207695,
          "velocity": 0.2204724409448819,
          "duration": 0.034883720930224626
        },
        {
          "name": "F7",
          "midi": 101,
          "time": 131.45348837207695,
          "velocity": 0.12598425196850394,
          "duration": 0.034883720930224626
        },
        {
          "name": "A6",
          "midi": 93,
          "time": 131.4651162790537,
          "velocity": 0.2677165354330709,
          "duration": 0.034883720930224626
        },
        {
          "name": "B3",
          "midi": 59,
          "time": 131.47674418603043,
          "velocity": 0.44881889763779526,
          "duration": 0.023255813953483084
        },
        {
          "name": "G6",
          "midi": 91,
          "time": 131.47674418603043,
          "velocity": 0.2440944881889764,
          "duration": 0.034883720930224626
        },
        {
          "name": "A#2",
          "midi": 46,
          "time": 131.48837209300717,
          "velocity": 0.3937007874015748,
          "duration": 0.034883720930224626
        },
        {
          "name": "F5",
          "midi": 77,
          "time": 131.48837209300717,
          "velocity": 0.1889763779527559,
          "duration": 0.06976744186044925
        },
        {
          "name": "F#6",
          "midi": 90,
          "time": 131.48837209300717,
          "velocity": 0.25196850393700787,
          "duration": 0.04651162790696617
        },
        {
          "name": "A#3",
          "midi": 58,
          "time": 131.4999999999839,
          "velocity": 0.4330708661417323,
          "duration": 0.04651162790696617
        },
        {
          "name": "F4",
          "midi": 65,
          "time": 131.4999999999839,
          "velocity": 0.2125984251968504,
          "duration": 0.034883720930224626
        },
        {
          "name": "D5",
          "midi": 74,
          "time": 131.4999999999839,
          "velocity": 0.3464566929133858,
          "duration": 0.04651162790696617
        },
        {
          "name": "G#6",
          "midi": 92,
          "time": 131.4999999999839,
          "velocity": 0.11811023622047244,
          "duration": 0.034883720930224626
        },
        {
          "name": "A#2",
          "midi": 46,
          "time": 131.53488372091414,
          "velocity": 0.3543307086614173,
          "duration": 0.023255813953483084
        },
        {
          "name": "G#4",
          "midi": 68,
          "time": 131.53488372091414,
          "velocity": 0.30708661417322836,
          "duration": 0.15116279069766847
        },
        {
          "name": "D#3",
          "midi": 51,
          "time": 131.54651162789088,
          "velocity": 0.3858267716535433,
          "duration": 0.11627906976744384
        },
        {
          "name": "F#5",
          "midi": 78,
          "time": 131.54651162789088,
          "velocity": 0.14173228346456693,
          "duration": 0.034883720930224626
        },
        {
          "name": "A#3",
          "midi": 58,
          "time": 131.55813953486762,
          "velocity": 0.3858267716535433,
          "duration": 0.1046511627907023
        },
        {
          "name": "F6",
          "midi": 89,
          "time": 131.5813953488211,
          "velocity": 0.09448818897637795,
          "duration": 0.09302325581396076
        },
        {
          "name": "F5",
          "midi": 77,
          "time": 131.59302325579785,
          "velocity": 0.29133858267716534,
          "duration": 0.5465116279068809
        },
        {
          "name": "D1",
          "midi": 26,
          "time": 131.66279069765832,
          "velocity": 0.5669291338582677,
          "duration": 0.011627906976741542
        },
        {
          "name": "F2",
          "midi": 41,
          "time": 131.66279069765832,
          "velocity": 0.5196850393700787,
          "duration": 0.011627906976741542
        },
        {
          "name": "E1",
          "midi": 28,
          "time": 131.67441860463506,
          "velocity": 0.6062992125984252,
          "duration": 0.011627906976741542
        },
        {
          "name": "A#3",
          "midi": 58,
          "time": 131.67441860463506,
          "velocity": 0.41732283464566927,
          "duration": 0.0813953488371908
        },
        {
          "name": "F1",
          "midi": 29,
          "time": 131.6860465116118,
          "velocity": 0.5669291338582677,
          "duration": 0.011627906976741542
        },
        {
          "name": "D#3",
          "midi": 51,
          "time": 131.6860465116118,
          "velocity": 0.31496062992125984,
          "duration": 0.04651162790696617
        },
        {
          "name": "C#1",
          "midi": 25,
          "time": 131.69767441858855,
          "velocity": 0.5118110236220472,
          "duration": 0.011627906976741542
        },
        {
          "name": "G#4",
          "midi": 68,
          "time": 131.69767441858855,
          "velocity": 0.29133858267716534,
          "duration": 0.06976744186044925
        },
        {
          "name": "D#1",
          "midi": 27,
          "time": 131.7093023255653,
          "velocity": 0.5354330708661418,
          "duration": 0.04651162790696617
        },
        {
          "name": "D1",
          "midi": 26,
          "time": 131.75581395347226,
          "velocity": 0.5196850393700787,
          "duration": 0.011627906976741542
        },
        {
          "name": "B3",
          "midi": 59,
          "time": 131.75581395347226,
          "velocity": 0.4251968503937008,
          "duration": 0.0813953488371908
        },
        {
          "name": "G4",
          "midi": 67,
          "time": 131.75581395347226,
          "velocity": 0.3543307086614173,
          "duration": 0.023255813953483084
        },
        {
          "name": "F#6",
          "midi": 90,
          "time": 131.75581395347226,
          "velocity": 0.1889763779527559,
          "duration": 0.04651162790696617
        },
        {
          "name": "G6",
          "midi": 91,
          "time": 131.75581395347226,
          "velocity": 0.25984251968503935,
          "duration": 0.24418604651157239
        },
        {
          "name": "C7",
          "midi": 96,
          "time": 131.75581395347226,
          "velocity": 0.07086614173228346,
          "duration": 0.04651162790696617
        },
        {
          "name": "C1",
          "midi": 24,
          "time": 131.767441860449,
          "velocity": 0.6299212598425197,
          "duration": 0.023255813953483084
        },
        {
          "name": "D#5",
          "midi": 75,
          "time": 131.767441860449,
          "velocity": 0.2992125984251969,
          "duration": 0.11627906976741542
        },
        {
          "name": "A5",
          "midi": 81,
          "time": 131.767441860449,
          "velocity": 0.16535433070866143,
          "duration": 0.0813953488371908
        },
        {
          "name": "C#6",
          "midi": 85,
          "time": 131.767441860449,
          "velocity": 0.10236220472440945,
          "duration": 0.04651162790696617
        },
        {
          "name": "F#4",
          "midi": 66,
          "time": 131.77906976742574,
          "velocity": 0.33858267716535434,
          "duration": 0.17441860465112313
        },
        {
          "name": "D1",
          "midi": 26,
          "time": 131.79069767440248,
          "velocity": 0.6850393700787402,
          "duration": 0.011627906976741542
        },
        {
          "name": "F#3",
          "midi": 54,
          "time": 131.79069767440248,
          "velocity": 0.5275590551181102,
          "duration": 0.04651162790696617
        },
        {
          "name": "C#5",
          "midi": 73,
          "time": 131.79069767440248,
          "velocity": 0.16535433070866143,
          "duration": 0.5232558139533694
        },
        {
          "name": "C#1",
          "midi": 25,
          "time": 131.80232558137922,
          "velocity": 0.7007874015748031,
          "duration": 0.011627906976741542
        },
        {
          "name": "D#4",
          "midi": 63,
          "time": 131.80232558137922,
          "velocity": 0.33858267716535434,
          "duration": 0.15116279069764005
        },
        {
          "name": "B0",
          "midi": 23,
          "time": 131.81395348835596,
          "velocity": 0.7165354330708661,
          "duration": 0.04651162790696617
        },
        {
          "name": "B3",
          "midi": 59,
          "time": 131.8488372092862,
          "velocity": 0.2755905511811024,
          "duration": 0.034883720930224626
        },
        {
          "name": "A#4",
          "midi": 70,
          "time": 131.8488372092862,
          "velocity": 0.4330708661417323,
          "duration": 0.4651162790696617
        },
        {
          "name": "A#0",
          "midi": 22,
          "time": 131.86046511626293,
          "velocity": 0.7165354330708661,
          "duration": 0.011627906976741542
        },
        {
          "name": "B0",
          "midi": 23,
          "time": 131.87209302323967,
          "velocity": 0.7165354330708661,
          "duration": 0.011627906976741542
        },
        {
          "name": "C1",
          "midi": 24,
          "time": 131.8837209302164,
          "velocity": 0.7244094488188977,
          "duration": 0.011627906976741542
        },
        {
          "name": "B0",
          "midi": 23,
          "time": 131.89534883719315,
          "velocity": 0.7322834645669292,
          "duration": 0.09302325581393234
        },
        {
          "name": "D#3",
          "midi": 51,
          "time": 131.93023255812338,
          "velocity": 0.5354330708661418,
          "duration": 0.023255813953483084
        },
        {
          "name": "C4",
          "midi": 60,
          "time": 131.94186046510012,
          "velocity": 0.4409448818897638,
          "duration": 0.023255813953483084
        },
        {
          "name": "D3",
          "midi": 50,
          "time": 131.95348837207686,
          "velocity": 0.5275590551181102,
          "duration": 0.011627906976741542
        },
        {
          "name": "D#3",
          "midi": 51,
          "time": 131.9651162790536,
          "velocity": 0.5196850393700787,
          "duration": 0.023255813953483084
        },
        {
          "name": "F4",
          "midi": 65,
          "time": 131.97674418603034,
          "velocity": 0.29133858267716534,
          "duration": 0.023255813953483084
        },
        {
          "name": "A#0",
          "midi": 22,
          "time": 131.9883720930071,
          "velocity": 0.7244094488188977,
          "duration": 0.011627906976741542
        },
        {
          "name": "E3",
          "midi": 52,
          "time": 131.9883720930071,
          "velocity": 0.5118110236220472,
          "duration": 0.011627906976741542
        },
        {
          "name": "D#4",
          "midi": 63,
          "time": 131.9883720930071,
          "velocity": 0.31496062992125984,
          "duration": 0.2209302325580893
        },
        {
          "name": "B0",
          "midi": 23,
          "time": 131.99999999998383,
          "velocity": 0.7322834645669292,
          "duration": 0.4186046511626955
        },
        {
          "name": "G2",
          "midi": 43,
          "time": 132.01162790696057,
          "velocity": 0.4566929133858268,
          "duration": 0.023255813953483084
        },
        {
          "name": "D3",
          "midi": 50,
          "time": 132.01162790696057,
          "velocity": 0.5118110236220472,
          "duration": 0.011627906976741542
        },
        {
          "name": "D#3",
          "midi": 51,
          "time": 132.0232558139373,
          "velocity": 0.5275590551181102,
          "duration": 0.26744186046505547
        },
        {
          "name": "G6",
          "midi": 91,
          "time": 132.03488372091405,
          "velocity": 0.09448818897637795,
          "duration": 0.04651162790696617
        },
        {
          "name": "F#4",
          "midi": 66,
          "time": 132.06976744184428,
          "velocity": 0.16535433070866143,
          "duration": 0.10465116279067388
        },
        {
          "name": "G6",
          "midi": 91,
          "time": 132.11627906975124,
          "velocity": 0.14960629921259844,
          "duration": 0.04651162790696617
        },
        {
          "name": "B3",
          "midi": 59,
          "time": 132.12790697672799,
          "velocity": 0.4015748031496063,
          "duration": 0.09302325581393234
        },
        {
          "name": "G4",
          "midi": 67,
          "time": 132.17441860463495,
          "velocity": 0.36220472440944884,
          "duration": 0.023255813953483084
        },
        {
          "name": "G6",
          "midi": 91,
          "time": 132.17441860463495,
          "velocity": 0.15748031496062992,
          "duration": 0.05813953488370771
        },
        {
          "name": "F#4",
          "midi": 66,
          "time": 132.19767441858843,
          "velocity": 0.3779527559055118,
          "duration": 0.023255813953483084
        },
        {
          "name": "F#2",
          "midi": 42,
          "time": 132.20930232556518,
          "velocity": 0.4409448818897638,
          "duration": 0.023255813953483084
        },
        {
          "name": "E7",
          "midi": 100,
          "time": 132.20930232556518,
          "velocity": 0.08661417322834646,
          "duration": 0.0813953488371908
        },
        {
          "name": "A#3",
          "midi": 58,
          "time": 132.22093023254192,
          "velocity": 0.3858267716535433,
          "duration": 0.023255813953483084
        },
        {
          "name": "D#6",
          "midi": 87,
          "time": 132.22093023254192,
          "velocity": 0.25196850393700787,
          "duration": 0.1627906976743816
        },
        {
          "name": "C#7",
          "midi": 97,
          "time": 132.22093023254192,
          "velocity": 0.14173228346456693,
          "duration": 0.05813953488370771
        },
        {
          "name": "D7",
          "midi": 98,
          "time": 132.22093023254192,
          "velocity": 0.08661417322834646,
          "duration": 0.034883720930224626
        },
        {
          "name": "A#3",
          "midi": 58,
          "time": 132.25581395347214,
          "velocity": 0.36220472440944884,
          "duration": 0.034883720930224626
        },
        {
          "name": "F5",
          "midi": 77,
          "time": 132.25581395347214,
          "velocity": 0.11811023622047244,
          "duration": 0.05813953488370771
        },
        {
          "name": "G6",
          "midi": 91,
          "time": 132.25581395347214,
          "velocity": 0.13385826771653545,
          "duration": 0.04651162790696617
        },
        {
          "name": "G2",
          "midi": 43,
          "time": 132.27906976742563,
          "velocity": 0.47244094488188976,
          "duration": 0.023255813953483084
        },
        {
          "name": "F#4",
          "midi": 66,
          "time": 132.27906976742563,
          "velocity": 0.30708661417322836,
          "duration": 0.023255813953483084
        },
        {
          "name": "F#2",
          "midi": 42,
          "time": 132.3023255813791,
          "velocity": 0.4566929133858268,
          "duration": 0.05813953488370771
        },
        {
          "name": "D#3",
          "midi": 51,
          "time": 132.3023255813791,
          "velocity": 0.47244094488188976,
          "duration": 0.023255813953483084
        },
        {
          "name": "F4",
          "midi": 65,
          "time": 132.3023255813791,
          "velocity": 0.30708661417322836,
          "duration": 0.023255813953483084
        },
        {
          "name": "D#4",
          "midi": 63,
          "time": 132.3255813953326,
          "velocity": 0.3858267716535433,
          "duration": 0.19767441860460622
        },
        {
          "name": "A#4",
          "midi": 70,
          "time": 132.3255813953326,
          "velocity": 0.3464566929133858,
          "duration": 0.06976744186044925
        },
        {
          "name": "D#3",
          "midi": 51,
          "time": 132.33720930230933,
          "velocity": 0.44881889763779526,
          "duration": 0.04651162790696617
        },
        {
          "name": "E5",
          "midi": 76,
          "time": 132.33720930230933,
          "velocity": 0.25196850393700787,
          "duration": 0.034883720930224626
        },
        {
          "name": "C6",
          "midi": 84,
          "time": 132.33720930230933,
          "velocity": 0.11811023622047244,
          "duration": 0.05813953488370771
        },
        {
          "name": "F#6",
          "midi": 90,
          "time": 132.33720930230933,
          "velocity": 0.13385826771653545,
          "duration": 0.04651162790696617
        },
        {
          "name": "D5",
          "midi": 74,
          "time": 132.34883720928607,
          "velocity": 0.2440944881889764,
          "duration": 0.0813953488371908
        },
        {
          "name": "G5",
          "midi": 79,
          "time": 132.34883720928607,
          "velocity": 0.28346456692913385,
          "duration": 0.023255813953483084
        },
        {
          "name": "G#5",
          "midi": 80,
          "time": 132.37209302323956,
          "velocity": 0.2283464566929134,
          "duration": 0.05813953488370771
        },
        {
          "name": "C#6",
          "midi": 85,
          "time": 132.37209302323956,
          "velocity": 0.2125984251968504,
          "duration": 0.04651162790696617
        },
        {
          "name": "E6",
          "midi": 88,
          "time": 132.37209302323956,
          "velocity": 0.25984251968503935,
          "duration": 0.04651162790696617
        },
        {
          "name": "D3",
          "midi": 50,
          "time": 132.3837209302163,
          "velocity": 0.4645669291338583,
          "duration": 0.023255813953483084
        },
        {
          "name": "B3",
          "midi": 59,
          "time": 132.3837209302163,
          "velocity": 0.33858267716535434,
          "duration": 0.023255813953483084
        },
        {
          "name": "F#5",
          "midi": 78,
          "time": 132.3837209302163,
          "velocity": 0.33070866141732286,
          "duration": 0.023255813953483084
        },
        {
          "name": "D6",
          "midi": 86,
          "time": 132.3837209302163,
          "velocity": 0.2440944881889764,
          "duration": 0.0813953488371908
        },
        {
          "name": "G#4",
          "midi": 68,
          "time": 132.39534883719304,
          "velocity": 0.3464566929133858,
          "duration": 0.04651162790696617
        },
        {
          "name": "A#3",
          "midi": 58,
          "time": 132.40697674416978,
          "velocity": 0.31496062992125984,
          "duration": 0.023255813953483084
        },
        {
          "name": "D7",
          "midi": 98,
          "time": 132.40697674416978,
          "velocity": 0.33858267716535434,
          "duration": 0.06976744186044925
        },
        {
          "name": "C1",
          "midi": 24,
          "time": 132.41860465114652,
          "velocity": 0.6929133858267716,
          "duration": 0.011627906976741542
        },
        {
          "name": "C#5",
          "midi": 73,
          "time": 132.41860465114652,
          "velocity": 0.15748031496062992,
          "duration": 0.15116279069764005
        },
        {
          "name": "C6",
          "midi": 84,
          "time": 132.41860465114652,
          "velocity": 0.11023622047244094,
          "duration": 0.20930232558134776
        },
        {
          "name": "D#6",
          "midi": 87,
          "time": 132.41860465114652,
          "velocity": 0.2204724409448819,
          "duration": 0.2558139534883139
        },
        {
          "name": "A6",
          "midi": 93,
          "time": 132.41860465114652,
          "velocity": 0.2755905511811024,
          "duration": 0.09302325581393234
        },
        {
          "name": "B6",
          "midi": 95,
          "time": 132.41860465114652,
          "velocity": 0.25196850393700787,
          "duration": 0.034883720930224626
        },
        {
          "name": "C7",
          "midi": 96,
          "time": 132.41860465114652,
          "velocity": 0.2440944881889764,
          "duration": 0.09302325581393234
        },
        {
          "name": "C#7",
          "midi": 97,
          "time": 132.41860465114652,
          "velocity": 0.30708661417322836,
          "duration": 0.10465116279067388
        },
        {
          "name": "E7",
          "midi": 100,
          "time": 132.41860465114652,
          "velocity": 0.23622047244094488,
          "duration": 0.0813953488371908
        },
        {
          "name": "F7",
          "midi": 101,
          "time": 132.41860465114652,
          "velocity": 0.25984251968503935,
          "duration": 0.0813953488371908
        },
        {
          "name": "B0",
          "midi": 23,
          "time": 132.43023255812327,
          "velocity": 0.6929133858267716,
          "duration": 0.6627906976742679
        },
        {
          "name": "D#3",
          "midi": 51,
          "time": 132.43023255812327,
          "velocity": 0.41732283464566927,
          "duration": 0.023255813953483084
        },
        {
          "name": "F#6",
          "midi": 90,
          "time": 132.43023255812327,
          "velocity": 0.18110236220472442,
          "duration": 0.04651162790696617
        },
        {
          "name": "D#7",
          "midi": 99,
          "time": 132.43023255812327,
          "velocity": 0.30708661417322836,
          "duration": 0.05813953488370771
        },
        {
          "name": "F#7",
          "midi": 102,
          "time": 132.43023255812327,
          "velocity": 0.1968503937007874,
          "duration": 0.04651162790696617
        },
        {
          "name": "G7",
          "midi": 103,
          "time": 132.43023255812327,
          "velocity": 0.18110236220472442,
          "duration": 0.06976744186044925
        },
        {
          "name": "F6",
          "midi": 89,
          "time": 132.45348837207675,
          "velocity": 0.18110236220472442,
          "duration": 0.6511627906975264
        },
        {
          "name": "G#6",
          "midi": 92,
          "time": 132.45348837207675,
          "velocity": 0.25196850393700787,
          "duration": 0.05813953488370771
        },
        {
          "name": "D3",
          "midi": 50,
          "time": 132.51162790696046,
          "velocity": 0.4094488188976378,
          "duration": 0.023255813953483084
        },
        {
          "name": "F4",
          "midi": 65,
          "time": 132.51162790696046,
          "velocity": 0.31496062992125984,
          "duration": 0.04651162790696617
        },
        {
          "name": "D#4",
          "midi": 63,
          "time": 132.53488372091394,
          "velocity": 0.2755905511811024,
          "duration": 0.023255813953483084
        },
        {
          "name": "D#3",
          "midi": 51,
          "time": 132.55813953486742,
          "velocity": 0.4015748031496063,
          "duration": 0.023255813953483084
        },
        {
          "name": "D#4",
          "midi": 63,
          "time": 132.56976744184416,
          "velocity": 0.4566929133858268,
          "duration": 0.023255813953483084
        },
        {
          "name": "A4",
          "midi": 69,
          "time": 132.56976744184416,
          "velocity": 0.28346456692913385,
          "duration": 0.023255813953483084
        },
        {
          "name": "B4",
          "midi": 71,
          "time": 132.56976744184416,
          "velocity": 0.47244094488188976,
          "duration": 0.034883720930224626
        },
        {
          "name": "G6",
          "midi": 91,
          "time": 132.56976744184416,
          "velocity": 0.1889763779527559,
          "duration": 0.034883720930224626
        },
        {
          "name": "A#3",
          "midi": 58,
          "time": 132.5813953488209,
          "velocity": 0.4409448818897638,
          "duration": 0.023255813953483084
        },
        {
          "name": "F#5",
          "midi": 78,
          "time": 132.5813953488209,
          "velocity": 0.12598425196850394,
          "duration": 0.034883720930224626
        },
        {
          "name": "D7",
          "midi": 98,
          "time": 132.5813953488209,
          "velocity": 0.2283464566929134,
          "duration": 0.1395348837208985
        },
        {
          "name": "B3",
          "midi": 59,
          "time": 132.6046511627744,
          "velocity": 0.4566929133858268,
          "duration": 0.023255813953483084
        },
        {
          "name": "D#4",
          "midi": 63,
          "time": 132.6046511627744,
          "velocity": 0.33858267716535434,
          "duration": 0.034883720930224626
        },
        {
          "name": "A#4",
          "midi": 70,
          "time": 132.6046511627744,
          "velocity": 0.47244094488188976,
          "duration": 0.5232558139533694
        },
        {
          "name": "C7",
          "midi": 96,
          "time": 132.6046511627744,
          "velocity": 0.18110236220472442,
          "duration": 0.034883720930224626
        },
        {
          "name": "C#7",
          "midi": 97,
          "time": 132.6046511627744,
          "velocity": 0.1968503937007874,
          "duration": 0.06976744186044925
        },
        {
          "name": "E7",
          "midi": 100,
          "time": 132.6046511627744,
          "velocity": 0.13385826771653545,
          "duration": 0.0813953488371908
        },
        {
          "name": "C#5",
          "midi": 73,
          "time": 132.61627906975113,
          "velocity": 0.14173228346456693,
          "duration": 0.39534883720921243
        },
        {
          "name": "A#3",
          "midi": 58,
          "time": 132.62790697672787,
          "velocity": 0.4645669291338583,
          "duration": 0.10465116279067388
        },
        {
          "name": "F4",
          "midi": 65,
          "time": 132.62790697672787,
          "velocity": 0.3464566929133858,
          "duration": 0.034883720930224626
        },
        {
          "name": "D#3",
          "midi": 51,
          "time": 132.6627906976581,
          "velocity": 0.3700787401574803,
          "duration": 0.023255813953483084
        },
        {
          "name": "A#6",
          "midi": 94,
          "time": 132.6627906976581,
          "velocity": 0.11023622047244094,
          "duration": 0.034883720930224626
        },
        {
          "name": "D#4",
          "midi": 63,
          "time": 132.68604651161158,
          "velocity": 0.31496062992125984,
          "duration": 0.09302325581393234
        },
        {
          "name": "F#4",
          "midi": 66,
          "time": 132.70930232556506,
          "velocity": 0.47244094488188976,
          "duration": 0.12790697674415696
        },
        {
          "name": "G3",
          "midi": 55,
          "time": 132.73255813951855,
          "velocity": 0.3700787401574803,
          "duration": 0.023255813953483084
        },
        {
          "name": "G2",
          "midi": 43,
          "time": 132.75581395347203,
          "velocity": 0.3543307086614173,
          "duration": 0.023255813953483084
        },
        {
          "name": "A#3",
          "midi": 58,
          "time": 132.75581395347203,
          "velocity": 0.47244094488188976,
          "duration": 0.034883720930224626
        },
        {
          "name": "C#7",
          "midi": 97,
          "time": 132.76744186044877,
          "velocity": 0.11811023622047244,
          "duration": 0.04651162790696617
        },
        {
          "name": "D7",
          "midi": 98,
          "time": 132.76744186044877,
          "velocity": 0.15748031496062992,
          "duration": 0.09302325581393234
        },
        {
          "name": "C3",
          "midi": 48,
          "time": 132.7790697674255,
          "velocity": 0.4094488188976378,
          "duration": 0.023255813953483084
        },
        {
          "name": "B3",
          "midi": 59,
          "time": 132.79069767440225,
          "velocity": 0.4330708661417323,
          "duration": 0.023255813953483084
        },
        {
          "name": "D#4",
          "midi": 63,
          "time": 132.79069767440225,
          "velocity": 0.29133858267716534,
          "duration": 0.023255813953483084
        },
        {
          "name": "C3",
          "midi": 48,
          "time": 132.81395348835574,
          "velocity": 0.4330708661417323,
          "duration": 0.023255813953483084
        },
        {
          "name": "A#3",
          "midi": 58,
          "time": 132.81395348835574,
          "velocity": 0.3858267716535433,
          "duration": 0.034883720930224626
        },
        {
          "name": "G6",
          "midi": 91,
          "time": 132.81395348835574,
          "velocity": 0.10236220472440945,
          "duration": 0.04651162790696617
        },
        {
          "name": "D#4",
          "midi": 63,
          "time": 132.83720930230922,
          "velocity": 0.2992125984251969,
          "duration": 0.17441860465112313
        },
        {
          "name": "F#4",
          "midi": 66,
          "time": 132.8604651162627,
          "velocity": 0.48031496062992124,
          "duration": 0.2209302325580893
        },
        {
          "name": "C3",
          "midi": 48,
          "time": 132.90697674416967,
          "velocity": 0.3700787401574803,
          "duration": 0.023255813953483084
        },
        {
          "name": "B3",
          "midi": 59,
          "time": 132.9186046511464,
          "velocity": 0.15748031496062992,
          "duration": 0.034883720930224626
        },
        {
          "name": "F3",
          "midi": 53,
          "time": 132.98837209300686,
          "velocity": 0.28346456692913385,
          "duration": 0.023255813953483084
        },
        {
          "name": "D#6",
          "midi": 87,
          "time": 132.9999999999836,
          "velocity": 0.1732283464566929,
          "duration": 0.09302325581393234
        },
        {
          "name": "F#3",
          "midi": 54,
          "time": 133.01162790696034,
          "velocity": 0.33858267716535434,
          "duration": 0.034883720930224626
        },
        {
          "name": "G6",
          "midi": 91,
          "time": 133.01162790696034,
          "velocity": 0.09448818897637795,
          "duration": 0.04651162790696617
        },
        {
          "name": "C#7",
          "midi": 97,
          "time": 133.01162790696034,
          "velocity": 0.3228346456692913,
          "duration": 0.12790697674415696
        },
        {
          "name": "B2",
          "midi": 47,
          "time": 133.02325581393708,
          "velocity": 0.47244094488188976,
          "duration": 0.034883720930224626
        },
        {
          "name": "C#5",
          "midi": 73,
          "time": 133.02325581393708,
          "velocity": 0.09448818897637795,
          "duration": 0.034883720930224626
        },
        {
          "name": "A#6",
          "midi": 94,
          "time": 133.03488372091383,
          "velocity": 0.3464566929133858,
          "duration": 0.09302325581393234
        },
        {
          "name": "C7",
          "midi": 96,
          "time": 133.03488372091383,
          "velocity": 0.33070866141732286,
          "duration": 0.09302325581393234
        },
        {
          "name": "E7",
          "midi": 100,
          "time": 133.03488372091383,
          "velocity": 0.25196850393700787,
          "duration": 0.10465116279067388
        },
        {
          "name": "D#7",
          "midi": 99,
          "time": 133.04651162789057,
          "velocity": 0.2677165354330709,
          "duration": 0.06976744186044925
        },
        {
          "name": "G3",
          "midi": 55,
          "time": 133.0581395348673,
          "velocity": 0.31496062992125984,
          "duration": 0.023255813953483084
        },
        {
          "name": "A#3",
          "midi": 58,
          "time": 133.0581395348673,
          "velocity": 0.33070866141732286,
          "duration": 0.023255813953483084
        },
        {
          "name": "B6",
          "midi": 95,
          "time": 133.0581395348673,
          "velocity": 0.2440944881889764,
          "duration": 0.034883720930224626
        },
        {
          "name": "D7",
          "midi": 98,
          "time": 133.0581395348673,
          "velocity": 0.33070866141732286,
          "duration": 0.05813953488370771
        },
        {
          "name": "F7",
          "midi": 101,
          "time": 133.0581395348673,
          "velocity": 0.2992125984251969,
          "duration": 0.0813953488371908
        },
        {
          "name": "C#5",
          "midi": 73,
          "time": 133.06976744184405,
          "velocity": 0.1889763779527559,
          "duration": 0.20930232558134776
        },
        {
          "name": "D6",
          "midi": 86,
          "time": 133.06976744184405,
          "velocity": 0.11023622047244094,
          "duration": 0.034883720930224626
        },
        {
          "name": "E6",
          "midi": 88,
          "time": 133.06976744184405,
          "velocity": 0.11811023622047244,
          "duration": 0.04651162790696617
        },
        {
          "name": "F#6",
          "midi": 90,
          "time": 133.06976744184405,
          "velocity": 0.2047244094488189,
          "duration": 0.05813953488370771
        },
        {
          "name": "A6",
          "midi": 93,
          "time": 133.06976744184405,
          "velocity": 0.3228346456692913,
          "duration": 0.034883720930224626
        },
        {
          "name": "G7",
          "midi": 103,
          "time": 133.06976744184405,
          "velocity": 0.1968503937007874,
          "duration": 0.06976744186044925
        },
        {
          "name": "A#0",
          "midi": 22,
          "time": 133.09302325579753,
          "velocity": 0.5748031496062992,
          "duration": 0.011627906976741542
        },
        {
          "name": "E4",
          "midi": 64,
          "time": 133.09302325579753,
          "velocity": 0.2992125984251969,
          "duration": 0.034883720930224626
        },
        {
          "name": "B0",
          "midi": 23,
          "time": 133.10465116277427,
          "velocity": 0.5826771653543307,
          "duration": 0.33720930232553314
        },
        {
          "name": "D#6",
          "midi": 87,
          "time": 133.10465116277427,
          "velocity": 0.14960629921259844,
          "duration": 0.06976744186044925
        },
        {
          "name": "G#6",
          "midi": 92,
          "time": 133.10465116277427,
          "velocity": 0.2204724409448819,
          "duration": 0.034883720930224626
        },
        {
          "name": "F#3",
          "midi": 54,
          "time": 133.11627906975102,
          "velocity": 0.31496062992125984,
          "duration": 0.034883720930224626
        },
        {
          "name": "G#4",
          "midi": 68,
          "time": 133.12790697672776,
          "velocity": 0.33858267716535434,
          "duration": 0.36046511627901623
        },
        {
          "name": "F#3",
          "midi": 54,
          "time": 133.16279069765798,
          "velocity": 0.33070866141732286,
          "duration": 0.10465116279067388
        },
        {
          "name": "D#6",
          "midi": 87,
          "time": 133.1976744185882,
          "velocity": 0.13385826771653545,
          "duration": 0.10465116279067388
        },
        {
          "name": "G2",
          "midi": 43,
          "time": 133.25581395347191,
          "velocity": 0.28346456692913385,
          "duration": 0.023255813953483084
        },
        {
          "name": "C5",
          "midi": 72,
          "time": 133.2790697674254,
          "velocity": 0.1889763779527559,
          "duration": 0.22093023255811772
        },
        {
          "name": "F3",
          "midi": 53,
          "time": 133.29069767440214,
          "velocity": 0.33070866141732286,
          "duration": 0.19767441860463464
        },
        {
          "name": "D#6",
          "midi": 87,
          "time": 133.31395348835562,
          "velocity": 0.11811023622047244,
          "duration": 0.17441860465115155
        },
        {
          "name": "A5",
          "midi": 81,
          "time": 133.43023255812307,
          "velocity": 0.2125984251968504,
          "duration": 0.05813953488370771
        },
        {
          "name": "A#5",
          "midi": 82,
          "time": 133.4418604650998,
          "velocity": 0.1732283464566929,
          "duration": 0.06976744186044925
        },
        {
          "name": "B0",
          "midi": 23,
          "time": 133.45348837207655,
          "velocity": 0.4566929133858268,
          "duration": 0.15116279069764005
        },
        {
          "name": "A#3",
          "midi": 58,
          "time": 133.4651162790533,
          "velocity": 0.36220472440944884,
          "duration": 0.1395348837208985
        },
        {
          "name": "F5",
          "midi": 77,
          "time": 133.47674418603003,
          "velocity": 0.07874015748031496,
          "duration": 0.034883720930224626
        },
        {
          "name": "D3",
          "midi": 50,
          "time": 133.48837209300677,
          "velocity": 0.33070866141732286,
          "duration": 0.023255813953483084
        },
        {
          "name": "F#4",
          "midi": 66,
          "time": 133.49999999998352,
          "velocity": 0.23622047244094488,
          "duration": 0.023255813953483084
        },
        {
          "name": "D#3",
          "midi": 51,
          "time": 133.51162790696026,
          "velocity": 0.33858267716535434,
          "duration": 0.18604651162786467
        },
        {
          "name": "A4",
          "midi": 69,
          "time": 133.53488372091374,
          "velocity": 0.2755905511811024,
          "duration": 0.023255813953483084
        },
        {
          "name": "F6",
          "midi": 89,
          "time": 133.55813953486722,
          "velocity": 0.3543307086614173,
          "duration": 0.406976744185954
        },
        {
          "name": "D7",
          "midi": 98,
          "time": 133.55813953486722,
          "velocity": 0.11023622047244094,
          "duration": 0.05813953488370771
        },
        {
          "name": "A3",
          "midi": 57,
          "time": 133.6046511627742,
          "velocity": 0.2992125984251969,
          "duration": 0.023255813953483084
        },
        {
          "name": "D5",
          "midi": 74,
          "time": 133.6046511627742,
          "velocity": 0.15748031496062992,
          "duration": 0.034883720930224626
        },
        {
          "name": "G#4",
          "midi": 68,
          "time": 133.61627906975093,
          "velocity": 0.44881889763779526,
          "duration": 0.04651162790696617
        },
        {
          "name": "G#3",
          "midi": 56,
          "time": 133.62790697672767,
          "velocity": 0.25196850393700787,
          "duration": 0.034883720930224626
        },
        {
          "name": "A#4",
          "midi": 70,
          "time": 133.62790697672767,
          "velocity": 0.4330708661417323,
          "duration": 0.26744186046505547
        },
        {
          "name": "B0",
          "midi": 23,
          "time": 133.6395348837044,
          "velocity": 0.3543307086614173,
          "duration": 0.04651162790696617
        },
        {
          "name": "E4",
          "midi": 64,
          "time": 133.6395348837044,
          "velocity": 0.1732283464566929,
          "duration": 0.034883720930224626
        },
        {
          "name": "A#3",
          "midi": 58,
          "time": 133.67441860463464,
          "velocity": 0.28346456692913385,
          "duration": 0.05813953488370771
        },
        {
          "name": "F#4",
          "midi": 66,
          "time": 133.67441860463464,
          "velocity": 0.13385826771653545,
          "duration": 0.04651162790696617
        },
        {
          "name": "C6",
          "midi": 84,
          "time": 133.68604651161138,
          "velocity": 0.2755905511811024,
          "duration": 0.09302325581393234
        },
        {
          "name": "A#6",
          "midi": 94,
          "time": 133.68604651161138,
          "velocity": 0.3464566929133858,
          "duration": 0.10465116279067388
        },
        {
          "name": "D7",
          "midi": 98,
          "time": 133.68604651161138,
          "velocity": 0.1968503937007874,
          "duration": 0.09302325581393234
        },
        {
          "name": "F5",
          "midi": 77,
          "time": 133.69767441858812,
          "velocity": 0.1732283464566929,
          "duration": 0.12790697674415696
        },
        {
          "name": "A#0",
          "midi": 22,
          "time": 133.70930232556486,
          "velocity": 0.25196850393700787,
          "duration": 0.023255813953483084
        },
        {
          "name": "C#3",
          "midi": 49,
          "time": 133.73255813951835,
          "velocity": 0.2992125984251969,
          "duration": 0.09302325581393234
        },
        {
          "name": "G#4",
          "midi": 68,
          "time": 133.7790697674253,
          "velocity": 0.14960629921259844,
          "duration": 0.05813953488370771
        },
        {
          "name": "C3",
          "midi": 48,
          "time": 133.83720930230902,
          "velocity": 0.3228346456692913,
          "duration": 0.023255813953483084
        },
        {
          "name": "F#4",
          "midi": 66,
          "time": 133.83720930230902,
          "velocity": 0.2992125984251969,
          "duration": 0.023255813953483084
        },
        {
          "name": "C4",
          "midi": 60,
          "time": 133.8604651162625,
          "velocity": 0.33070866141732286,
          "duration": 0.023255813953483084
        },
        {
          "name": "F4",
          "midi": 65,
          "time": 133.8604651162625,
          "velocity": 0.3858267716535433,
          "duration": 0.04651162790696617
        },
        {
          "name": "C#7",
          "midi": 97,
          "time": 133.883720930216,
          "velocity": 0.2440944881889764,
          "duration": 0.15116279069764005
        },
        {
          "name": "D7",
          "midi": 98,
          "time": 133.883720930216,
          "velocity": 0.2755905511811024,
          "duration": 0.15116279069764005
        },
        {
          "name": "C3",
          "midi": 48,
          "time": 133.89534883719273,
          "velocity": 0.4409448818897638,
          "duration": 0.04651162790696617
        },
        {
          "name": "A#3",
          "midi": 58,
          "time": 133.89534883719273,
          "velocity": 0.47244094488188976,
          "duration": 0.023255813953483084
        },
        {
          "name": "F5",
          "midi": 77,
          "time": 133.89534883719273,
          "velocity": 0.44881889763779526,
          "duration": 0.37209302325572935
        },
        {
          "name": "A#5",
          "midi": 82,
          "time": 133.89534883719273,
          "velocity": 0.3543307086614173,
          "duration": 0.406976744185954
        },
        {
          "name": "D#6",
          "midi": 87,
          "time": 133.89534883719273,
          "velocity": 0.3937007874015748,
          "duration": 0.4651162790696617
        },
        {
          "name": "G6",
          "midi": 91,
          "time": 133.89534883719273,
          "velocity": 0.25196850393700787,
          "duration": 0.24418604651157239
        },
        {
          "name": "F#7",
          "midi": 102,
          "time": 133.89534883719273,
          "velocity": 0.2204724409448819,
          "duration": 0.10465116279067388
        },
        {
          "name": "B3",
          "midi": 59,
          "time": 133.90697674416947,
          "velocity": 0.5590551181102362,
          "duration": 0.023255813953483084
        },
        {
          "name": "F#4",
          "midi": 66,
          "time": 133.90697674416947,
          "velocity": 0.44881889763779526,
          "duration": 0.0813953488371908
        },
        {
          "name": "C7",
          "midi": 96,
          "time": 133.90697674416947,
          "velocity": 0.23622047244094488,
          "duration": 0.12790697674415696
        },
        {
          "name": "E7",
          "midi": 100,
          "time": 133.90697674416947,
          "velocity": 0.1968503937007874,
          "duration": 0.11627906976741542
        },
        {
          "name": "G1",
          "midi": 31,
          "time": 133.9186046511462,
          "velocity": 0.5511811023622047,
          "duration": 0.011627906976741542
        },
        {
          "name": "F#1",
          "midi": 30,
          "time": 133.93023255812295,
          "velocity": 0.6771653543307087,
          "duration": 0.011627906976741542
        },
        {
          "name": "A#3",
          "midi": 58,
          "time": 133.93023255812295,
          "velocity": 0.5590551181102362,
          "duration": 0.011627906976741542
        },
        {
          "name": "F1",
          "midi": 29,
          "time": 133.9418604650997,
          "velocity": 0.7165354330708661,
          "duration": 0.011627906976741542
        },
        {
          "name": "A3",
          "midi": 57,
          "time": 133.9418604650997,
          "velocity": 0.41732283464566927,
          "duration": 0.023255813953483084
        },
        {
          "name": "D#1",
          "midi": 27,
          "time": 133.95348837207644,
          "velocity": 0.7480314960629921,
          "duration": 1.244186046511345
        },
        {
          "name": "A#2",
          "midi": 46,
          "time": 133.95348837207644,
          "velocity": 0.4566929133858268,
          "duration": 0.09302325581393234
        },
        {
          "name": "A#3",
          "midi": 58,
          "time": 133.96511627905318,
          "velocity": 0.4881889763779528,
          "duration": 0.04651162790696617
        },
        {
          "name": "D#4",
          "midi": 63,
          "time": 133.96511627905318,
          "velocity": 0.28346456692913385,
          "duration": 0.023255813953483084
        },
        {
          "name": "F4",
          "midi": 65,
          "time": 133.98837209300666,
          "velocity": 0.3858267716535433,
          "duration": 0.034883720930224626
        },
        {
          "name": "B6",
          "midi": 95,
          "time": 133.98837209300666,
          "velocity": 0.14173228346456693,
          "duration": 0.04651162790696617
        },
        {
          "name": "G3",
          "midi": 55,
          "time": 133.9999999999834,
          "velocity": 0.5196850393700787,
          "duration": 0.5930232558138187
        },
        {
          "name": "A#4",
          "midi": 70,
          "time": 134.01162790696014,
          "velocity": 0.31496062992125984,
          "duration": 0.023255813953483084
        },
        {
          "name": "B4",
          "midi": 71,
          "time": 134.03488372091363,
          "velocity": 0.29133858267716534,
          "duration": 0.034883720930224626
        },
        {
          "name": "A#2",
          "midi": 46,
          "time": 134.0581395348671,
          "velocity": 0.41732283464566927,
          "duration": 0.023255813953483084
        },
        {
          "name": "G#4",
          "midi": 68,
          "time": 134.0581395348671,
          "velocity": 0.3228346456692913,
          "duration": 0.24418604651157239
        },
        {
          "name": "G5",
          "midi": 79,
          "time": 134.06976744184385,
          "velocity": 0.07086614173228346,
          "duration": 0.09302325581393234
        },
        {
          "name": "A#2",
          "midi": 46,
          "time": 134.09302325579733,
          "velocity": 0.4330708661417323,
          "duration": 0.0813953488371908
        },
        {
          "name": "A#4",
          "midi": 70,
          "time": 134.09302325579733,
          "velocity": 0.2755905511811024,
          "duration": 0.10465116279067388
        },
        {
          "name": "A#2",
          "midi": 46,
          "time": 134.18604651161127,
          "velocity": 0.4251968503937008,
          "duration": 0.06976744186044925
        },
        {
          "name": "A#4",
          "midi": 70,
          "time": 134.20930232556475,
          "velocity": 0.15748031496062992,
          "duration": 0.0813953488371908
        },
        {
          "name": "A2",
          "midi": 45,
          "time": 134.26744186044846,
          "velocity": 0.4015748031496063,
          "duration": 0.023255813953483084
        },
        {
          "name": "B4",
          "midi": 71,
          "time": 134.29069767440194,
          "velocity": 0.33858267716535434,
          "duration": 0.023255813953483084
        },
        {
          "name": "C6",
          "midi": 84,
          "time": 134.29069767440194,
          "velocity": 0.1889763779527559,
          "duration": 0.11627906976741542
        },
        {
          "name": "B3",
          "midi": 59,
          "time": 134.30232558137868,
          "velocity": 0.44881889763779526,
          "duration": 0.023255813953483084
        },
        {
          "name": "D5",
          "midi": 74,
          "time": 134.30232558137868,
          "velocity": 0.4645669291338583,
          "duration": 0.10465116279067388
        },
        {
          "name": "E5",
          "midi": 76,
          "time": 134.30232558137868,
          "velocity": 0.25984251968503935,
          "duration": 0.023255813953483084
        },
        {
          "name": "G5",
          "midi": 79,
          "time": 134.30232558137868,
          "velocity": 0.2283464566929134,
          "duration": 0.034883720930224626
        },
        {
          "name": "B6",
          "midi": 95,
          "time": 134.30232558137868,
          "velocity": 0.07874015748031496,
          "duration": 0.034883720930224626
        },
        {
          "name": "F4",
          "midi": 65,
          "time": 134.31395348835542,
          "velocity": 0.33070866141732286,
          "duration": 0.11627906976741542
        },
        {
          "name": "A#5",
          "midi": 82,
          "time": 134.31395348835542,
          "velocity": 0.2204724409448819,
          "duration": 0.15116279069764005
        },
        {
          "name": "E6",
          "midi": 88,
          "time": 134.31395348835542,
          "velocity": 0.2677165354330709,
          "duration": 0.023255813953483084
        },
        {
          "name": "F6",
          "midi": 89,
          "time": 134.31395348835542,
          "velocity": 0.3543307086614173,
          "duration": 0.11627906976741542
        },
        {
          "name": "C#7",
          "midi": 97,
          "time": 134.31395348835542,
          "velocity": 0.18110236220472442,
          "duration": 0.05813953488370771
        },
        {
          "name": "D7",
          "midi": 98,
          "time": 134.31395348835542,
          "velocity": 0.2047244094488189,
          "duration": 0.10465116279067388
        },
        {
          "name": "A#2",
          "midi": 46,
          "time": 134.32558139533216,
          "velocity": 0.36220472440944884,
          "duration": 0.06976744186044925
        },
        {
          "name": "F5",
          "midi": 77,
          "time": 134.32558139533216,
          "velocity": 0.4881889763779528,
          "duration": 0.09302325581393234
        },
        {
          "name": "F#6",
          "midi": 90,
          "time": 134.32558139533216,
          "velocity": 0.2755905511811024,
          "duration": 0.04651162790696617
        },
        {
          "name": "G#4",
          "midi": 68,
          "time": 134.3372093023089,
          "velocity": 0.3543307086614173,
          "duration": 0.20930232558134776
        },
        {
          "name": "A#4",
          "midi": 70,
          "time": 134.3372093023089,
          "velocity": 0.3779527559055118,
          "duration": 0.023255813953483084
        },
        {
          "name": "E7",
          "midi": 100,
          "time": 134.34883720928565,
          "velocity": 0.12598425196850394,
          "duration": 0.034883720930224626
        },
        {
          "name": "B4",
          "midi": 71,
          "time": 134.3604651162624,
          "velocity": 0.3858267716535433,
          "duration": 0.11627906976741542
        },
        {
          "name": "D#6",
          "midi": 87,
          "time": 134.37209302323913,
          "velocity": 0.2440944881889764,
          "duration": 0.8023255813951664
        },
        {
          "name": "G6",
          "midi": 91,
          "time": 134.37209302323913,
          "velocity": 0.33070866141732286,
          "duration": 0.09302325581393234
        },
        {
          "name": "A2",
          "midi": 45,
          "time": 134.3953488371926,
          "velocity": 0.33858267716535434,
          "duration": 0.023255813953483084
        },
        {
          "name": "C#5",
          "midi": 73,
          "time": 134.40697674416936,
          "velocity": 0.3543307086614173,
          "duration": 0.034883720930224626
        },
        {
          "name": "E7",
          "midi": 100,
          "time": 134.43023255812284,
          "velocity": 0.2204724409448819,
          "duration": 0.15116279069764005
        },
        {
          "name": "F5",
          "midi": 77,
          "time": 134.44186046509958,
          "velocity": 0.2204724409448819,
          "duration": 0.3255813953487632
        },
        {
          "name": "A6",
          "midi": 93,
          "time": 134.44186046509958,
          "velocity": 0.28346456692913385,
          "duration": 0.15116279069764005
        },
        {
          "name": "F7",
          "midi": 101,
          "time": 134.44186046509958,
          "velocity": 0.2204724409448819,
          "duration": 0.12790697674415696
        },
        {
          "name": "F4",
          "midi": 65,
          "time": 134.46511627905306,
          "velocity": 0.33070866141732286,
          "duration": 0.11627906976741542
        },
        {
          "name": "A#4",
          "midi": 70,
          "time": 134.46511627905306,
          "velocity": 0.5039370078740157,
          "duration": 0.11627906976741542
        },
        {
          "name": "D5",
          "midi": 74,
          "time": 134.46511627905306,
          "velocity": 0.23622047244094488,
          "duration": 0.0813953488371908
        },
        {
          "name": "G#6",
          "midi": 92,
          "time": 134.46511627905306,
          "velocity": 0.1889763779527559,
          "duration": 0.09302325581393234
        },
        {
          "name": "F#7",
          "midi": 102,
          "time": 134.46511627905306,
          "velocity": 0.15748031496062992,
          "duration": 0.0813953488371908
        },
        {
          "name": "A#2",
          "midi": 46,
          "time": 134.4767441860298,
          "velocity": 0.36220472440944884,
          "duration": 0.05813953488370771
        },
        {
          "name": "A#6",
          "midi": 94,
          "time": 134.4767441860298,
          "velocity": 0.2125984251968504,
          "duration": 0.09302325581393234
        },
        {
          "name": "B6",
          "midi": 95,
          "time": 134.52325581393677,
          "velocity": 0.07086614173228346,
          "duration": 0.04651162790696617
        },
        {
          "name": "A#2",
          "midi": 46,
          "time": 134.558139534867,
          "velocity": 0.3228346456692913,
          "duration": 0.034883720930224626
        },
        {
          "name": "G#4",
          "midi": 68,
          "time": 134.558139534867,
          "velocity": 0.3464566929133858,
          "duration": 0.1627906976743816
        },
        {
          "name": "B4",
          "midi": 71,
          "time": 134.58139534882048,
          "velocity": 0.25196850393700787,
          "duration": 0.034883720930224626
        },
        {
          "name": "A#5",
          "midi": 82,
          "time": 134.6162790697507,
          "velocity": 0.18110236220472442,
          "duration": 0.2209302325580893
        },
        {
          "name": "A#2",
          "midi": 46,
          "time": 134.62790697672744,
          "velocity": 0.3700787401574803,
          "duration": 0.034883720930224626
        },
        {
          "name": "G3",
          "midi": 55,
          "time": 134.62790697672744,
          "velocity": 0.3700787401574803,
          "duration": 0.023255813953483084
        },
        {
          "name": "A#3",
          "midi": 58,
          "time": 134.62790697672744,
          "velocity": 0.3858267716535433,
          "duration": 0.04651162790696617
        },
        {
          "name": "D5",
          "midi": 74,
          "time": 134.6395348837042,
          "velocity": 0.13385826771653545,
          "duration": 0.04651162790696617
        },
        {
          "name": "B2",
          "midi": 47,
          "time": 134.6744186046344,
          "velocity": 0.3228346456692913,
          "duration": 0.023255813953483084
        },
        {
          "name": "A#3",
          "midi": 58,
          "time": 134.68604651161115,
          "velocity": 0.4015748031496063,
          "duration": 0.023255813953483084
        },
        {
          "name": "G#6",
          "midi": 92,
          "time": 134.6976744185879,
          "velocity": 0.2755905511811024,
          "duration": 0.04651162790696617
        },
        {
          "name": "A#2",
          "midi": 46,
          "time": 134.70930232556464,
          "velocity": 0.2992125984251969,
          "duration": 0.023255813953483084
        },
        {
          "name": "G3",
          "midi": 55,
          "time": 134.70930232556464,
          "velocity": 0.4015748031496063,
          "duration": 0.023255813953483084
        },
        {
          "name": "E7",
          "midi": 100,
          "time": 134.70930232556464,
          "velocity": 0.13385826771653545,
          "duration": 0.034883720930224626
        },
        {
          "name": "F7",
          "midi": 101,
          "time": 134.70930232556464,
          "velocity": 0.11811023622047244,
          "duration": 0.04651162790696617
        },
        {
          "name": "G4",
          "midi": 67,
          "time": 134.72093023254138,
          "velocity": 0.4251968503937008,
          "duration": 0.023255813953483084
        },
        {
          "name": "B4",
          "midi": 71,
          "time": 134.72093023254138,
          "velocity": 0.4330708661417323,
          "duration": 0.05813953488370771
        },
        {
          "name": "F#6",
          "midi": 90,
          "time": 134.72093023254138,
          "velocity": 0.3228346456692913,
          "duration": 0.12790697674415696
        },
        {
          "name": "B3",
          "midi": 59,
          "time": 134.73255813951812,
          "velocity": 0.4645669291338583,
          "duration": 0.10465116279067388
        },
        {
          "name": "D#5",
          "midi": 75,
          "time": 134.73255813951812,
          "velocity": 0.3858267716535433,
          "duration": 0.11627906976741542
        },
        {
          "name": "F#5",
          "midi": 78,
          "time": 134.73255813951812,
          "velocity": 0.2283464566929134,
          "duration": 0.09302325581393234
        },
        {
          "name": "C#7",
          "midi": 97,
          "time": 134.73255813951812,
          "velocity": 0.2992125984251969,
          "duration": 0.12790697674415696
        },
        {
          "name": "G7",
          "midi": 103,
          "time": 134.73255813951812,
          "velocity": 0.10236220472440945,
          "duration": 0.034883720930224626
        },
        {
          "name": "G3",
          "midi": 55,
          "time": 134.74418604649486,
          "velocity": 0.3464566929133858,
          "duration": 0.05813953488370771
        },
        {
          "name": "F#4",
          "midi": 66,
          "time": 134.74418604649486,
          "velocity": 0.33858267716535434,
          "duration": 0.05813953488370771
        },
        {
          "name": "G#4",
          "midi": 68,
          "time": 134.74418604649486,
          "velocity": 0.30708661417322836,
          "duration": 0.034883720930224626
        },
        {
          "name": "G6",
          "midi": 91,
          "time": 134.74418604649486,
          "velocity": 0.3228346456692913,
          "duration": 0.034883720930224626
        },
        {
          "name": "D7",
          "midi": 98,
          "time": 134.74418604649486,
          "velocity": 0.33070866141732286,
          "duration": 0.09302325581393234
        },
        {
          "name": "E6",
          "midi": 88,
          "time": 134.7558139534716,
          "velocity": 0.33858267716535434,
          "duration": 0.05813953488370771
        },
        {
          "name": "C7",
          "midi": 96,
          "time": 134.7558139534716,
          "velocity": 0.31496062992125984,
          "duration": 0.29069767441853855
        },
        {
          "name": "A#2",
          "midi": 46,
          "time": 134.77906976742509,
          "velocity": 0.4330708661417323,
          "duration": 0.04651162790696617
        },
        {
          "name": "A#4",
          "midi": 70,
          "time": 134.77906976742509,
          "velocity": 0.4251968503937008,
          "duration": 0.05813953488370771
        },
        {
          "name": "G#6",
          "midi": 92,
          "time": 134.77906976742509,
          "velocity": 0.25196850393700787,
          "duration": 0.06976744186044925
        },
        {
          "name": "A6",
          "midi": 93,
          "time": 134.77906976742509,
          "velocity": 0.2755905511811024,
          "duration": 0.034883720930224626
        },
        {
          "name": "A#6",
          "midi": 94,
          "time": 134.77906976742509,
          "velocity": 0.2755905511811024,
          "duration": 0.06976744186044925
        },
        {
          "name": "B6",
          "midi": 95,
          "time": 134.77906976742509,
          "velocity": 0.28346456692913385,
          "duration": 0.05813953488370771
        },
        {
          "name": "D#7",
          "midi": 99,
          "time": 134.77906976742509,
          "velocity": 0.30708661417322836,
          "duration": 0.06976744186044925
        },
        {
          "name": "F7",
          "midi": 101,
          "time": 134.77906976742509,
          "velocity": 0.28346456692913385,
          "duration": 0.06976744186044925
        },
        {
          "name": "G#4",
          "midi": 68,
          "time": 134.79069767440183,
          "velocity": 0.28346456692913385,
          "duration": 0.034883720930224626
        },
        {
          "name": "C#6",
          "midi": 85,
          "time": 134.79069767440183,
          "velocity": 0.1732283464566929,
          "duration": 0.05813953488370771
        },
        {
          "name": "D6",
          "midi": 86,
          "time": 134.79069767440183,
          "velocity": 0.09448818897637795,
          "duration": 0.11627906976741542
        },
        {
          "name": "G7",
          "midi": 103,
          "time": 134.79069767440183,
          "velocity": 0.25196850393700787,
          "duration": 0.06976744186044925
        },
        {
          "name": "F#4",
          "midi": 66,
          "time": 134.8139534883553,
          "velocity": 0.2755905511811024,
          "duration": 0.034883720930224626
        },
        {
          "name": "F5",
          "midi": 77,
          "time": 134.8139534883553,
          "velocity": 0.4330708661417323,
          "duration": 0.3837209302324709
        },
        {
          "name": "A#2",
          "midi": 46,
          "time": 134.8372093023088,
          "velocity": 0.36220472440944884,
          "duration": 0.09302325581393234
        },
        {
          "name": "A3",
          "midi": 57,
          "time": 134.84883720928553,
          "velocity": 0.3779527559055118,
          "duration": 0.023255813953483084
        },
        {
          "name": "A#4",
          "midi": 70,
          "time": 134.84883720928553,
          "velocity": 0.3779527559055118,
          "duration": 0.05813953488370771
        },
        {
          "name": "G5",
          "midi": 79,
          "time": 134.84883720928553,
          "velocity": 0.07874015748031496,
          "duration": 0.034883720930224626
        },
        {
          "name": "A#3",
          "midi": 58,
          "time": 134.87209302323902,
          "velocity": 0.4015748031496063,
          "duration": 0.023255813953483084
        },
        {
          "name": "G#4",
          "midi": 68,
          "time": 134.87209302323902,
          "velocity": 0.41732283464566927,
          "duration": 0.06976744186044925
        },
        {
          "name": "B3",
          "midi": 59,
          "time": 134.8953488371925,
          "velocity": 0.41732283464566927,
          "duration": 0.023255813953483084
        },
        {
          "name": "F#4",
          "midi": 66,
          "time": 134.8953488371925,
          "velocity": 0.4094488188976378,
          "duration": 0.023255813953483084
        },
        {
          "name": "G#6",
          "midi": 92,
          "time": 134.8953488371925,
          "velocity": 0.11023622047244094,
          "duration": 0.034883720930224626
        },
        {
          "name": "A#6",
          "midi": 94,
          "time": 134.8953488371925,
          "velocity": 0.15748031496062992,
          "duration": 0.05813953488370771
        },
        {
          "name": "D7",
          "midi": 98,
          "time": 134.8953488371925,
          "velocity": 0.2125984251968504,
          "duration": 0.10465116279067388
        },
        {
          "name": "D5",
          "midi": 74,
          "time": 134.90697674416924,
          "velocity": 0.15748031496062992,
          "duration": 0.11627906976741542
        },
        {
          "name": "A6",
          "midi": 93,
          "time": 134.90697674416924,
          "velocity": 0.1889763779527559,
          "duration": 0.034883720930224626
        },
        {
          "name": "B6",
          "midi": 95,
          "time": 134.90697674416924,
          "velocity": 0.25196850393700787,
          "duration": 0.12790697674415696
        },
        {
          "name": "C#7",
          "midi": 97,
          "time": 134.90697674416924,
          "velocity": 0.18110236220472442,
          "duration": 0.11627906976741542
        },
        {
          "name": "A#3",
          "midi": 58,
          "time": 134.91860465114598,
          "velocity": 0.41732283464566927,
          "duration": 0.279069767441797
        },
        {
          "name": "F4",
          "midi": 65,
          "time": 134.91860465114598,
          "velocity": 0.3228346456692913,
          "duration": 0.11627906976741542
        },
        {
          "name": "G#4",
          "midi": 68,
          "time": 134.9534883720762,
          "velocity": 0.3464566929133858,
          "duration": 0.2558139534883139
        },
        {
          "name": "A#2",
          "midi": 46,
          "time": 134.96511627905295,
          "velocity": 0.31496062992125984,
          "duration": 0.034883720930224626
        },
        {
          "name": "E7",
          "midi": 100,
          "time": 134.9767441860297,
          "velocity": 0.14960629921259844,
          "duration": 0.05813953488370771
        },
        {
          "name": "A#6",
          "midi": 94,
          "time": 134.99999999998317,
          "velocity": 0.1732283464566929,
          "duration": 0.034883720930224626
        },
        {
          "name": "A#2",
          "midi": 46,
          "time": 135.0348837209134,
          "velocity": 0.2677165354330709,
          "duration": 0.023255813953483084
        },
        {
          "name": "D#3",
          "midi": 51,
          "time": 135.0348837209134,
          "velocity": 0.3464566929133858,
          "duration": 0.10465116279067388
        },
        {
          "name": "B4",
          "midi": 71,
          "time": 135.1162790697506,
          "velocity": 0.2755905511811024,
          "duration": 0.023255813953483084
        },
        {
          "name": "G#6",
          "midi": 92,
          "time": 135.1162790697506,
          "velocity": 0.3464566929133858,
          "duration": 0.06976744186044925
        },
        {
          "name": "D5",
          "midi": 74,
          "time": 135.12790697672733,
          "velocity": 0.4251968503937008,
          "duration": 0.05813953488370771
        },
        {
          "name": "F#6",
          "midi": 90,
          "time": 135.12790697672733,
          "velocity": 0.2283464566929134,
          "duration": 0.12790697674415696
        },
        {
          "name": "F4",
          "midi": 65,
          "time": 135.13953488370407,
          "velocity": 0.23622047244094488,
          "duration": 0.04651162790696617
        },
        {
          "name": "A#5",
          "midi": 82,
          "time": 135.13953488370407,
          "velocity": 0.3700787401574803,
          "duration": 0.45348837209292014
        },
        {
          "name": "A6",
          "midi": 93,
          "time": 135.13953488370407,
          "velocity": 0.29133858267716534,
          "duration": 0.1395348837208985
        },
        {
          "name": "D7",
          "midi": 98,
          "time": 135.13953488370407,
          "velocity": 0.16535433070866143,
          "duration": 0.17441860465112313
        },
        {
          "name": "D#3",
          "midi": 51,
          "time": 135.15116279068081,
          "velocity": 0.30708661417322836,
          "duration": 0.04651162790696617
        },
        {
          "name": "C6",
          "midi": 84,
          "time": 135.15116279068081,
          "velocity": 0.07086614173228346,
          "duration": 0.034883720930224626
        },
        {
          "name": "B6",
          "midi": 95,
          "time": 135.15116279068081,
          "velocity": 0.07874015748031496,
          "duration": 0.034883720930224626
        },
        {
          "name": "C#7",
          "midi": 97,
          "time": 135.15116279068081,
          "velocity": 0.09448818897637795,
          "duration": 0.06976744186044925
        },
        {
          "name": "B5",
          "midi": 83,
          "time": 135.1744186046343,
          "velocity": 0.23622047244094488,
          "duration": 0.023255813953483084
        },
        {
          "name": "D#7",
          "midi": 99,
          "time": 135.1744186046343,
          "velocity": 0.15748031496062992,
          "duration": 0.09302325581393234
        },
        {
          "name": "D#5",
          "midi": 75,
          "time": 135.18604651161104,
          "velocity": 0.44881889763779526,
          "duration": 0.20930232558134776
        },
        {
          "name": "F#5",
          "midi": 78,
          "time": 135.18604651161104,
          "velocity": 0.4330708661417323,
          "duration": 0.0813953488371908
        },
        {
          "name": "G6",
          "midi": 91,
          "time": 135.18604651161104,
          "velocity": 0.30708661417322836,
          "duration": 0.1627906976743816
        },
        {
          "name": "C#1",
          "midi": 25,
          "time": 135.19767441858778,
          "velocity": 0.5275590551181102,
          "duration": 0.011627906976741542
        },
        {
          "name": "A2",
          "midi": 45,
          "time": 135.19767441858778,
          "velocity": 0.44881889763779526,
          "duration": 0.023255813953483084
        },
        {
          "name": "B3",
          "midi": 59,
          "time": 135.19767441858778,
          "velocity": 0.2755905511811024,
          "duration": 0.023255813953483084
        },
        {
          "name": "B0",
          "midi": 23,
          "time": 135.20930232556452,
          "velocity": 0.5984251968503937,
          "duration": 0.011627906976741542
        },
        {
          "name": "F3",
          "midi": 53,
          "time": 135.20930232556452,
          "velocity": 0.44881889763779526,
          "duration": 0.023255813953483084
        },
        {
          "name": "F5",
          "midi": 77,
          "time": 135.20930232556452,
          "velocity": 0.3228346456692913,
          "duration": 0.3604651162789878
        },
        {
          "name": "G#5",
          "midi": 80,
          "time": 135.20930232556452,
          "velocity": 0.08661417322834646,
          "duration": 0.034883720930224626
        },
        {
          "name": "G#6",
          "midi": 92,
          "time": 135.20930232556452,
          "velocity": 0.28346456692913385,
          "duration": 0.034883720930224626
        },
        {
          "name": "C#1",
          "midi": 25,
          "time": 135.22093023254126,
          "velocity": 0.6692913385826772,
          "duration": 0.011627906976741542
        },
        {
          "name": "D#4",
          "midi": 63,
          "time": 135.22093023254126,
          "velocity": 0.3228346456692913,
          "duration": 0.17441860465112313
        },
        {
          "name": "F#4",
          "midi": 66,
          "time": 135.22093023254126,
          "velocity": 0.29133858267716534,
          "duration": 0.1627906976743816
        },
        {
          "name": "D1",
          "midi": 26,
          "time": 135.232558139518,
          "velocity": 0.7007874015748031,
          "duration": 0.011627906976741542
        },
        {
          "name": "F#3",
          "midi": 54,
          "time": 135.232558139518,
          "velocity": 0.5039370078740157,
          "duration": 0.034883720930224626
        },
        {
          "name": "B0",
          "midi": 23,
          "time": 135.24418604649475,
          "velocity": 0.7165354330708661,
          "duration": 0.04651162790696617
        },
        {
          "name": "B3",
          "midi": 59,
          "time": 135.24418604649475,
          "velocity": 0.3700787401574803,
          "duration": 0.06976744186044925
        },
        {
          "name": "A#4",
          "midi": 70,
          "time": 135.27906976742497,
          "velocity": 0.29133858267716534,
          "duration": 0.05813953488370771
        },
        {
          "name": "C#5",
          "midi": 73,
          "time": 135.27906976742497,
          "velocity": 0.14173228346456693,
          "duration": 0.12790697674415696
        },
        {
          "name": "A#0",
          "midi": 22,
          "time": 135.2906976744017,
          "velocity": 0.7165354330708661,
          "duration": 0.011627906976741542
        },
        {
          "name": "B0",
          "midi": 23,
          "time": 135.30232558137845,
          "velocity": 0.7322834645669292,
          "duration": 0.18604651162786467
        },
        {
          "name": "D#3",
          "midi": 51,
          "time": 135.33720930230868,
          "velocity": 0.5039370078740157,
          "duration": 0.034883720930224626
        },
        {
          "name": "A#4",
          "midi": 70,
          "time": 135.34883720928542,
          "velocity": 0.3543307086614173,
          "duration": 0.23255813953483084
        },
        {
          "name": "D3",
          "midi": 50,
          "time": 135.3720930232389,
          "velocity": 0.5275590551181102,
          "duration": 0.023255813953483084
        },
        {
          "name": "G6",
          "midi": 91,
          "time": 135.3720930232389,
          "velocity": 0.1732283464566929,
          "duration": 0.04651162790696617
        },
        {
          "name": "B3",
          "midi": 59,
          "time": 135.38372093021565,
          "velocity": 0.4251968503937008,
          "duration": 0.023255813953483084
        },
        {
          "name": "A6",
          "midi": 93,
          "time": 135.38372093021565,
          "velocity": 0.18110236220472442,
          "duration": 0.05813953488370771
        },
        {
          "name": "D7",
          "midi": 98,
          "time": 135.38372093021565,
          "velocity": 0.1732283464566929,
          "duration": 0.1395348837208985
        },
        {
          "name": "F#4",
          "midi": 66,
          "time": 135.3953488371924,
          "velocity": 0.3858267716535433,
          "duration": 0.023255813953483084
        },
        {
          "name": "B6",
          "midi": 95,
          "time": 135.3953488371924,
          "velocity": 0.30708661417322836,
          "duration": 0.09302325581393234
        },
        {
          "name": "E7",
          "midi": 100,
          "time": 135.3953488371924,
          "velocity": 0.2283464566929134,
          "duration": 0.09302325581393234
        },
        {
          "name": "D3",
          "midi": 50,
          "time": 135.40697674416913,
          "velocity": 0.5196850393700787,
          "duration": 0.011627906976741542
        },
        {
          "name": "A#3",
          "midi": 58,
          "time": 135.40697674416913,
          "velocity": 0.4094488188976378,
          "duration": 0.04651162790696617
        },
        {
          "name": "C7",
          "midi": 96,
          "time": 135.40697674416913,
          "velocity": 0.1732283464566929,
          "duration": 0.06976744186044925
        },
        {
          "name": "D#3",
          "midi": 51,
          "time": 135.41860465114587,
          "velocity": 0.5196850393700787,
          "duration": 0.023255813953483084
        },
        {
          "name": "F4",
          "midi": 65,
          "time": 135.41860465114587,
          "velocity": 0.30708661417322836,
          "duration": 0.023255813953483084
        },
        {
          "name": "C#7",
          "midi": 97,
          "time": 135.41860465114587,
          "velocity": 0.11811023622047244,
          "duration": 0.06976744186044925
        },
        {
          "name": "F#4",
          "midi": 66,
          "time": 135.4302325581226,
          "velocity": 0.29133858267716534,
          "duration": 0.023255813953483084
        },
        {
          "name": "A2",
          "midi": 45,
          "time": 135.44186046509935,
          "velocity": 0.5196850393700787,
          "duration": 0.023255813953483084
        },
        {
          "name": "D#3",
          "midi": 51,
          "time": 135.4534883720761,
          "velocity": 0.5354330708661418,
          "duration": 0.05813953488370771
        },
        {
          "name": "G6",
          "midi": 91,
          "time": 135.4534883720761,
          "velocity": 0.11811023622047244,
          "duration": 0.04651162790696617
        },
        {
          "name": "A#3",
          "midi": 58,
          "time": 135.46511627905284,
          "velocity": 0.3228346456692913,
          "duration": 0.023255813953483084
        },
        {
          "name": "F#2",
          "midi": 42,
          "time": 135.47674418602958,
          "velocity": 0.4251968503937008,
          "duration": 0.023255813953483084
        },
        {
          "name": "C#5",
          "midi": 73,
          "time": 135.47674418602958,
          "velocity": 0.14173228346456693,
          "duration": 0.20930232558134776
        },
        {
          "name": "A#0",
          "midi": 22,
          "time": 135.48837209300632,
          "velocity": 0.7165354330708661,
          "duration": 0.011627906976741542
        },
        {
          "name": "B0",
          "midi": 23,
          "time": 135.49999999998306,
          "velocity": 0.7244094488188977,
          "duration": 0.9883720930230311
        },
        {
          "name": "A#3",
          "midi": 58,
          "time": 135.49999999998306,
          "velocity": 0.47244094488188976,
          "duration": 0.023255813953483084
        },
        {
          "name": "F#4",
          "midi": 66,
          "time": 135.49999999998306,
          "velocity": 0.30708661417322836,
          "duration": 0.17441860465112313
        },
        {
          "name": "F#2",
          "midi": 42,
          "time": 135.5116279069598,
          "velocity": 0.4409448818897638,
          "duration": 0.023255813953483084
        },
        {
          "name": "D3",
          "midi": 50,
          "time": 135.5116279069598,
          "velocity": 0.5118110236220472,
          "duration": 0.011627906976741542
        },
        {
          "name": "D#3",
          "midi": 51,
          "time": 135.52325581393654,
          "velocity": 0.49606299212598426,
          "duration": 0.023255813953483084
        },
        {
          "name": "B3",
          "midi": 59,
          "time": 135.52325581393654,
          "velocity": 0.48031496062992124,
          "duration": 0.19767441860460622
        },
        {
          "name": "G6",
          "midi": 91,
          "time": 135.53488372091329,
          "velocity": 0.13385826771653545,
          "duration": 0.04651162790696617
        },
        {
          "name": "D3",
          "midi": 50,
          "time": 135.54651162789003,
          "velocity": 0.5118110236220472,
          "duration": 0.011627906976741542
        },
        {
          "name": "D#3",
          "midi": 51,
          "time": 135.55813953486677,
          "velocity": 0.5039370078740157,
          "duration": 0.34883720930224626
        },
        {
          "name": "E7",
          "midi": 100,
          "time": 135.55813953486677,
          "velocity": 0.2125984251968504,
          "duration": 0.15116279069764005
        },
        {
          "name": "B6",
          "midi": 95,
          "time": 135.5697674418435,
          "velocity": 0.1889763779527559,
          "duration": 0.15116279069764005
        },
        {
          "name": "C7",
          "midi": 96,
          "time": 135.5697674418435,
          "velocity": 0.31496062992125984,
          "duration": 0.1395348837208985
        },
        {
          "name": "C#7",
          "midi": 97,
          "time": 135.58139534882025,
          "velocity": 0.1732283464566929,
          "duration": 0.12790697674415696
        },
        {
          "name": "A#4",
          "midi": 70,
          "time": 135.593023255797,
          "velocity": 0.3228346456692913,
          "duration": 0.09302325581393234
        },
        {
          "name": "D7",
          "midi": 98,
          "time": 135.593023255797,
          "velocity": 0.2992125984251969,
          "duration": 0.31395348837202164
        },
        {
          "name": "G6",
          "midi": 91,
          "time": 135.60465116277373,
          "velocity": 0.15748031496062992,
          "duration": 0.04651162790696617
        },
        {
          "name": "D#6",
          "midi": 87,
          "time": 135.62790697672722,
          "velocity": 0.3464566929133858,
          "duration": 0.2558139534883139
        },
        {
          "name": "F#7",
          "midi": 102,
          "time": 135.63953488370396,
          "velocity": 0.07874015748031496,
          "duration": 0.034883720930224626
        },
        {
          "name": "F#2",
          "midi": 42,
          "time": 135.67441860463418,
          "velocity": 0.4566929133858268,
          "duration": 0.023255813953483084
        },
        {
          "name": "G6",
          "midi": 91,
          "time": 135.67441860463418,
          "velocity": 0.16535433070866143,
          "duration": 0.05813953488370771
        },
        {
          "name": "F#4",
          "midi": 66,
          "time": 135.68604651161093,
          "velocity": 0.2677165354330709,
          "duration": 0.023255813953483084
        },
        {
          "name": "A#4",
          "midi": 70,
          "time": 135.69767441858767,
          "velocity": 0.4015748031496063,
          "duration": 0.3255813953487632
        },
        {
          "name": "D#5",
          "midi": 75,
          "time": 135.69767441858767,
          "velocity": 0.3700787401574803,
          "duration": 0.034883720930224626
        },
        {
          "name": "C6",
          "midi": 84,
          "time": 135.69767441858767,
          "velocity": 0.25196850393700787,
          "duration": 0.31395348837202164
        },
        {
          "name": "F4",
          "midi": 65,
          "time": 135.7093023255644,
          "velocity": 0.36220472440944884,
          "duration": 0.04651162790696617
        },
        {
          "name": "F5",
          "midi": 77,
          "time": 135.7093023255644,
          "velocity": 0.4566929133858268,
          "duration": 0.19767441860460622
        },
        {
          "name": "A#3",
          "midi": 58,
          "time": 135.72093023254115,
          "velocity": 0.25984251968503935,
          "duration": 0.18604651162786467
        },
        {
          "name": "F#6",
          "midi": 90,
          "time": 135.72093023254115,
          "velocity": 0.2440944881889764,
          "duration": 0.06976744186044925
        },
        {
          "name": "A6",
          "midi": 93,
          "time": 135.72093023254115,
          "velocity": 0.16535433070866143,
          "duration": 0.034883720930224626
        },
        {
          "name": "D5",
          "midi": 74,
          "time": 135.7325581395179,
          "velocity": 0.4094488188976378,
          "duration": 0.06976744186044925
        },
        {
          "name": "E6",
          "midi": 88,
          "time": 135.7325581395179,
          "velocity": 0.18110236220472442,
          "duration": 0.034883720930224626
        },
        {
          "name": "G#6",
          "midi": 92,
          "time": 135.7325581395179,
          "velocity": 0.1889763779527559,
          "duration": 0.04651162790696617
        },
        {
          "name": "F4",
          "midi": 65,
          "time": 135.76744186044812,
          "velocity": 0.31496062992125984,
          "duration": 0.04651162790696617
        },
        {
          "name": "G#5",
          "midi": 80,
          "time": 135.77906976742486,
          "velocity": 0.30708661417322836,
          "duration": 0.10465116279067388
        },
        {
          "name": "C#5",
          "midi": 73,
          "time": 135.80232558137834,
          "velocity": 0.14960629921259844,
          "duration": 0.05813953488370771
        },
        {
          "name": "E6",
          "midi": 88,
          "time": 135.80232558137834,
          "velocity": 0.30708661417322836,
          "duration": 0.15116279069764005
        },
        {
          "name": "G6",
          "midi": 91,
          "time": 135.81395348835508,
          "velocity": 0.12598425196850394,
          "duration": 0.0813953488371908
        },
        {
          "name": "F4",
          "midi": 65,
          "time": 135.82558139533182,
          "velocity": 0.33070866141732286,
          "duration": 0.023255813953483084
        },
        {
          "name": "G2",
          "midi": 43,
          "time": 135.8488372092853,
          "velocity": 0.41732283464566927,
          "duration": 0.023255813953483084
        },
        {
          "name": "D5",
          "midi": 74,
          "time": 135.8488372092853,
          "velocity": 0.30708661417322836,
          "duration": 0.06976744186044925
        },
        {
          "name": "F#6",
          "midi": 90,
          "time": 135.8488372092853,
          "velocity": 0.13385826771653545,
          "duration": 0.034883720930224626
        },
        {
          "name": "A#6",
          "midi": 94,
          "time": 135.8488372092853,
          "velocity": 0.2992125984251969,
          "duration": 0.06976744186044925
        },
        {
          "name": "B6",
          "midi": 95,
          "time": 135.8488372092853,
          "velocity": 0.25196850393700787,
          "duration": 0.05813953488370771
        },
        {
          "name": "C7",
          "midi": 96,
          "time": 135.8488372092853,
          "velocity": 0.2992125984251969,
          "duration": 0.09302325581393234
        },
        {
          "name": "A6",
          "midi": 93,
          "time": 135.86046511626205,
          "velocity": 0.2992125984251969,
          "duration": 0.034883720930224626
        },
        {
          "name": "C#7",
          "midi": 97,
          "time": 135.86046511626205,
          "velocity": 0.31496062992125984,
          "duration": 0.06976744186044925
        },
        {
          "name": "F#7",
          "midi": 102,
          "time": 135.86046511626205,
          "velocity": 0.2125984251968504,
          "duration": 0.04651162790696617
        },
        {
          "name": "F4",
          "midi": 65,
          "time": 135.8720930232388,
          "velocity": 0.33858267716535434,
          "duration": 0.023255813953483084
        },
        {
          "name": "G7",
          "midi": 103,
          "time": 135.8720930232388,
          "velocity": 0.1732283464566929,
          "duration": 0.04651162790696617
        },
        {
          "name": "D#6",
          "midi": 87,
          "time": 135.89534883719227,
          "velocity": 0.2047244094488189,
          "duration": 0.20930232558134776
        },
        {
          "name": "D#4",
          "midi": 63,
          "time": 135.90697674416901,
          "velocity": 0.3228346456692913,
          "duration": 0.1395348837208985
        },
        {
          "name": "F#2",
          "midi": 42,
          "time": 135.91860465114576,
          "velocity": 0.41732283464566927,
          "duration": 0.023255813953483084
        },
        {
          "name": "D#3",
          "midi": 51,
          "time": 135.91860465114576,
          "velocity": 0.4251968503937008,
          "duration": 0.023255813953483084
        },
        {
          "name": "C#5",
          "midi": 73,
          "time": 135.91860465114576,
          "velocity": 0.13385826771653545,
          "duration": 0.12790697674415696
        },
        {
          "name": "D#3",
          "midi": 51,
          "time": 135.95348837207598,
          "velocity": 0.41732283464566927,
          "duration": 0.023255813953483084
        },
        {
          "name": "G6",
          "midi": 91,
          "time": 135.96511627905272,
          "velocity": 0.1968503937007874,
          "duration": 0.05813953488370771
        },
        {
          "name": "D#3",
          "midi": 51,
          "time": 135.9883720930062,
          "velocity": 0.3858267716535433,
          "duration": 0.023255813953483084
        },
        {
          "name": "A#3",
          "midi": 58,
          "time": 135.9883720930062,
          "velocity": 0.28346456692913385,
          "duration": 0.034883720930224626
        },
        {
          "name": "F#2",
          "midi": 42,
          "time": 135.99999999998295,
          "velocity": 0.4015748031496063,
          "duration": 0.023255813953483084
        },
        {
          "name": "G#6",
          "midi": 92,
          "time": 136.0116279069597,
          "velocity": 0.23622047244094488,
          "duration": 0.023255813953483084
        },
        {
          "name": "A6",
          "midi": 93,
          "time": 136.0116279069597,
          "velocity": 0.3228346456692913,
          "duration": 0.04651162790696617
        },
        {
          "name": "C#7",
          "midi": 97,
          "time": 136.0116279069597,
          "velocity": 0.14960629921259844,
          "duration": 0.04651162790696617
        },
        {
          "name": "D7",
          "midi": 98,
          "time": 136.0116279069597,
          "velocity": 0.25196850393700787,
          "duration": 0.12790697674415696
        },
        {
          "name": "B3",
          "midi": 59,
          "time": 136.02325581393643,
          "velocity": 0.36220472440944884,
          "duration": 0.034883720930224626
        },
        {
          "name": "F6",
          "midi": 89,
          "time": 136.02325581393643,
          "velocity": 0.18110236220472442,
          "duration": 0.48837209302314477
        },
        {
          "name": "C7",
          "midi": 96,
          "time": 136.02325581393643,
          "velocity": 0.11023622047244094,
          "duration": 0.034883720930224626
        },
        {
          "name": "D#7",
          "midi": 99,
          "time": 136.02325581393643,
          "velocity": 0.2204724409448819,
          "duration": 0.09302325581393234
        },
        {
          "name": "A#4",
          "midi": 70,
          "time": 136.03488372091317,
          "velocity": 0.41732283464566927,
          "duration": 0.4186046511626955
        },
        {
          "name": "G6",
          "midi": 91,
          "time": 136.03488372091317,
          "velocity": 0.25984251968503935,
          "duration": 0.09302325581393234
        },
        {
          "name": "E7",
          "midi": 100,
          "time": 136.03488372091317,
          "velocity": 0.11811023622047244,
          "duration": 0.0813953488371908
        },
        {
          "name": "A#3",
          "midi": 58,
          "time": 136.05813953486665,
          "velocity": 0.4251968503937008,
          "duration": 0.034883720930224626
        },
        {
          "name": "D5",
          "midi": 74,
          "time": 136.05813953486665,
          "velocity": 0.16535433070866143,
          "duration": 0.04651162790696617
        },
        {
          "name": "D#4",
          "midi": 63,
          "time": 136.0697674418434,
          "velocity": 0.36220472440944884,
          "duration": 0.04651162790696617
        },
        {
          "name": "F#4",
          "midi": 66,
          "time": 136.0697674418434,
          "velocity": 0.30708661417322836,
          "duration": 0.023255813953483084
        },
        {
          "name": "C#5",
          "midi": 73,
          "time": 136.0697674418434,
          "velocity": 0.14960629921259844,
          "duration": 0.10465116279067388
        },
        {
          "name": "G#6",
          "midi": 92,
          "time": 136.0697674418434,
          "velocity": 0.25196850393700787,
          "duration": 0.06976744186044925
        },
        {
          "name": "C#7",
          "midi": 97,
          "time": 136.0697674418434,
          "velocity": 0.2204724409448819,
          "duration": 0.06976744186044925
        },
        {
          "name": "F5",
          "midi": 77,
          "time": 136.08139534882014,
          "velocity": 0.16535433070866143,
          "duration": 0.04651162790696617
        },
        {
          "name": "A6",
          "midi": 93,
          "time": 136.08139534882014,
          "velocity": 0.1968503937007874,
          "duration": 0.04651162790696617
        },
        {
          "name": "F#7",
          "midi": 102,
          "time": 136.08139534882014,
          "velocity": 0.14173228346456693,
          "duration": 0.034883720930224626
        },
        {
          "name": "B6",
          "midi": 95,
          "time": 136.09302325579688,
          "velocity": 0.1732283464566929,
          "duration": 0.034883720930224626
        },
        {
          "name": "D3",
          "midi": 50,
          "time": 136.10465116277362,
          "velocity": 0.3700787401574803,
          "duration": 0.023255813953483084
        },
        {
          "name": "A#3",
          "midi": 58,
          "time": 136.10465116277362,
          "velocity": 0.33070866141732286,
          "duration": 0.023255813953483084
        },
        {
          "name": "F4",
          "midi": 65,
          "time": 136.10465116277362,
          "velocity": 0.3543307086614173,
          "duration": 0.034883720930224626
        },
        {
          "name": "A3",
          "midi": 57,
          "time": 136.1279069767271,
          "velocity": 0.33070866141732286,
          "duration": 0.023255813953483084
        },
        {
          "name": "D#5",
          "midi": 75,
          "time": 136.1279069767271,
          "velocity": 0.11023622047244094,
          "duration": 0.04651162790696617
        },
        {
          "name": "F#4",
          "midi": 66,
          "time": 136.13953488370385,
          "velocity": 0.4330708661417323,
          "duration": 0.3255813953487632
        },
        {
          "name": "A#3",
          "midi": 58,
          "time": 136.1511627906806,
          "velocity": 0.3543307086614173,
          "duration": 0.1395348837208985
        },
        {
          "name": "D#6",
          "midi": 87,
          "time": 136.16279069765733,
          "velocity": 0.31496062992125984,
          "duration": 0.06976744186044925
        },
        {
          "name": "D7",
          "midi": 98,
          "time": 136.16279069765733,
          "velocity": 0.1732283464566929,
          "duration": 0.04651162790696617
        },
        {
          "name": "A2",
          "midi": 45,
          "time": 136.17441860463407,
          "velocity": 0.44881889763779526,
          "duration": 0.023255813953483084
        },
        {
          "name": "D5",
          "midi": 74,
          "time": 136.17441860463407,
          "velocity": 0.4645669291338583,
          "duration": 0.11627906976741542
        },
        {
          "name": "F5",
          "midi": 77,
          "time": 136.17441860463407,
          "velocity": 0.10236220472440945,
          "duration": 0.06976744186044925
        },
        {
          "name": "D#4",
          "midi": 63,
          "time": 136.1860465116108,
          "velocity": 0.31496062992125984,
          "duration": 0.10465116279067388
        },
        {
          "name": "C6",
          "midi": 84,
          "time": 136.1860465116108,
          "velocity": 0.31496062992125984,
          "duration": 0.12790697674415696
        },
        {
          "name": "G#5",
          "midi": 80,
          "time": 136.2093023255643,
          "velocity": 0.14173228346456693,
          "duration": 0.04651162790696617
        },
        {
          "name": "E6",
          "midi": 88,
          "time": 136.23255813951778,
          "velocity": 0.16535433070866143,
          "duration": 0.05813953488370771
        },
        {
          "name": "C#6",
          "midi": 85,
          "time": 136.25581395347126,
          "velocity": 0.15748031496062992,
          "duration": 0.18604651162786467
        },
        {
          "name": "C#5",
          "midi": 73,
          "time": 136.29069767440149,
          "velocity": 0.12598425196850394,
          "duration": 0.19767441860460622
        },
        {
          "name": "D#4",
          "midi": 63,
          "time": 136.30232558137823,
          "velocity": 0.4251968503937008,
          "duration": 0.2209302325580893
        },
        {
          "name": "F#3",
          "midi": 54,
          "time": 136.3255813953317,
          "velocity": 0.29133858267716534,
          "duration": 0.023255813953483084
        },
        {
          "name": "E6",
          "midi": 88,
          "time": 136.38372093021542,
          "velocity": 0.14173228346456693,
          "duration": 0.05813953488370771
        },
        {
          "name": "G6",
          "midi": 91,
          "time": 136.38372093021542,
          "velocity": 0.10236220472440945,
          "duration": 0.034883720930224626
        },
        {
          "name": "B3",
          "midi": 59,
          "time": 136.4069767441689,
          "velocity": 0.18110236220472442,
          "duration": 0.034883720930224626
        },
        {
          "name": "F#6",
          "midi": 90,
          "time": 136.43023255812238,
          "velocity": 0.23622047244094488,
          "duration": 0.12790697674415696
        },
        {
          "name": "G6",
          "midi": 91,
          "time": 136.45348837207587,
          "velocity": 0.2992125984251969,
          "duration": 0.05813953488370771
        },
        {
          "name": "A6",
          "midi": 93,
          "time": 136.45348837207587,
          "velocity": 0.2440944881889764,
          "duration": 0.0813953488371908
        },
        {
          "name": "A#6",
          "midi": 94,
          "time": 136.45348837207587,
          "velocity": 0.3464566929133858,
          "duration": 0.15116279069764005
        },
        {
          "name": "G#4",
          "midi": 68,
          "time": 136.4651162790526,
          "velocity": 0.4015748031496063,
          "duration": 0.06976744186044925
        },
        {
          "name": "A#4",
          "midi": 70,
          "time": 136.4651162790526,
          "velocity": 0.28346456692913385,
          "duration": 0.023255813953483084
        },
        {
          "name": "G#6",
          "midi": 92,
          "time": 136.4651162790526,
          "velocity": 0.30708661417322836,
          "duration": 0.09302325581393234
        },
        {
          "name": "B6",
          "midi": 95,
          "time": 136.4651162790526,
          "velocity": 0.33070866141732286,
          "duration": 0.12790697674415696
        },
        {
          "name": "B3",
          "midi": 59,
          "time": 136.47674418602935,
          "velocity": 0.41732283464566927,
          "duration": 0.04651162790696617
        },
        {
          "name": "C5",
          "midi": 72,
          "time": 136.47674418602935,
          "velocity": 0.18110236220472442,
          "duration": 0.0813953488371908
        },
        {
          "name": "B5",
          "midi": 83,
          "time": 136.47674418602935,
          "velocity": 0.2125984251968504,
          "duration": 0.04651162790696617
        },
        {
          "name": "C#7",
          "midi": 97,
          "time": 136.47674418602935,
          "velocity": 0.28346456692913385,
          "duration": 0.10465116279067388
        },
        {
          "name": "C1",
          "midi": 24,
          "time": 136.4883720930061,
          "velocity": 0.5984251968503937,
          "duration": 0.011627906976741542
        },
        {
          "name": "G2",
          "midi": 43,
          "time": 136.4883720930061,
          "velocity": 0.3228346456692913,
          "duration": 0.023255813953483084
        },
        {
          "name": "G3",
          "midi": 55,
          "time": 136.4883720930061,
          "velocity": 0.3858267716535433,
          "duration": 0.023255813953483084
        },
        {
          "name": "C7",
          "midi": 96,
          "time": 136.4883720930061,
          "velocity": 0.25984251968503935,
          "duration": 0.10465116279067388
        },
        {
          "name": "D7",
          "midi": 98,
          "time": 136.4883720930061,
          "velocity": 0.2755905511811024,
          "duration": 0.10465116279067388
        },
        {
          "name": "D#7",
          "midi": 99,
          "time": 136.4883720930061,
          "velocity": 0.2755905511811024,
          "duration": 0.10465116279067388
        },
        {
          "name": "E7",
          "midi": 100,
          "time": 136.4883720930061,
          "velocity": 0.23622047244094488,
          "duration": 0.11627906976741542
        },
        {
          "name": "B0",
          "midi": 23,
          "time": 136.49999999998283,
          "velocity": 0.5905511811023622,
          "duration": 0.6162790697673302
        },
        {
          "name": "F7",
          "midi": 101,
          "time": 136.49999999998283,
          "velocity": 0.2755905511811024,
          "duration": 0.06976744186044925
        },
        {
          "name": "G2",
          "midi": 43,
          "time": 136.52325581393632,
          "velocity": 0.30708661417322836,
          "duration": 0.023255813953483084
        },
        {
          "name": "A3",
          "midi": 57,
          "time": 136.52325581393632,
          "velocity": 0.2992125984251969,
          "duration": 0.023255813953483084
        },
        {
          "name": "E4",
          "midi": 64,
          "time": 136.52325581393632,
          "velocity": 0.2283464566929134,
          "duration": 0.023255813953483084
        },
        {
          "name": "A4",
          "midi": 69,
          "time": 136.52325581393632,
          "velocity": 0.3779527559055118,
          "duration": 0.034883720930224626
        },
        {
          "name": "F3",
          "midi": 53,
          "time": 136.53488372091306,
          "velocity": 0.33070866141732286,
          "duration": 0.18604651162786467
        },
        {
          "name": "A#3",
          "midi": 58,
          "time": 136.5465116278898,
          "velocity": 0.36220472440944884,
          "duration": 0.1395348837208985
        },
        {
          "name": "D5",
          "midi": 74,
          "time": 136.5465116278898,
          "velocity": 0.14960629921259844,
          "duration": 0.04651162790696617
        },
        {
          "name": "D#6",
          "midi": 87,
          "time": 136.5465116278898,
          "velocity": 0.1732283464566929,
          "duration": 0.05813953488370771
        },
        {
          "name": "A6",
          "midi": 93,
          "time": 136.5465116278898,
          "velocity": 0.1889763779527559,
          "duration": 0.06976744186044925
        },
        {
          "name": "A2",
          "midi": 45,
          "time": 136.55813953486654,
          "velocity": 0.33070866141732286,
          "duration": 0.023255813953483084
        },
        {
          "name": "G#4",
          "midi": 68,
          "time": 136.56976744184328,
          "velocity": 0.28346456692913385,
          "duration": 0.0813953488371908
        },
        {
          "name": "C5",
          "midi": 72,
          "time": 136.56976744184328,
          "velocity": 0.14173228346456693,
          "duration": 0.06976744186044925
        },
        {
          "name": "G#6",
          "midi": 92,
          "time": 136.59302325579677,
          "velocity": 0.07086614173228346,
          "duration": 0.04651162790696617
        },
        {
          "name": "D#6",
          "midi": 87,
          "time": 136.61627906975025,
          "velocity": 0.14960629921259844,
          "duration": 0.3488372093022747
        },
        {
          "name": "A2",
          "midi": 45,
          "time": 136.63953488370373,
          "velocity": 0.2677165354330709,
          "duration": 0.023255813953483084
        },
        {
          "name": "C5",
          "midi": 72,
          "time": 136.65116279068047,
          "velocity": 0.10236220472440945,
          "duration": 0.05813953488370771
        },
        {
          "name": "G#4",
          "midi": 68,
          "time": 136.66279069765721,
          "velocity": 0.33070866141732286,
          "duration": 0.2674418604650839
        },
        {
          "name": "G#2",
          "midi": 44,
          "time": 136.6860465116107,
          "velocity": 0.2283464566929134,
          "duration": 0.023255813953483084
        },
        {
          "name": "G2",
          "midi": 43,
          "time": 136.70930232556418,
          "velocity": 0.2440944881889764,
          "duration": 0.023255813953483084
        },
        {
          "name": "C#5",
          "midi": 73,
          "time": 136.70930232556418,
          "velocity": 0.14173228346456693,
          "duration": 0.22093023255811772
        },
        {
          "name": "F#3",
          "midi": 54,
          "time": 136.72093023254092,
          "velocity": 0.33070866141732286,
          "duration": 0.22093023255811772
        },
        {
          "name": "A#5",
          "midi": 82,
          "time": 136.72093023254092,
          "velocity": 0.09448818897637795,
          "duration": 0.034883720930224626
        },
        {
          "name": "A#5",
          "midi": 82,
          "time": 136.88372093021533,
          "velocity": 0.28346456692913385,
          "duration": 0.06976744186044925
        },
        {
          "name": "A#4",
          "midi": 70,
          "time": 136.89534883719207,
          "velocity": 0.29133858267716534,
          "duration": 0.0813953488371908
        },
        {
          "name": "D4",
          "midi": 62,
          "time": 136.91860465114556,
          "velocity": 0.2755905511811024,
          "duration": 0.023255813953483084
        },
        {
          "name": "G#3",
          "midi": 56,
          "time": 136.94186046509904,
          "velocity": 0.3700787401574803,
          "duration": 0.023255813953483084
        },
        {
          "name": "D#5",
          "midi": 75,
          "time": 136.94186046509904,
          "velocity": 0.2204724409448819,
          "duration": 0.19767441860460622
        },
        {
          "name": "A#3",
          "midi": 58,
          "time": 136.97674418602926,
          "velocity": 0.3464566929133858,
          "duration": 0.023255813953483084
        },
        {
          "name": "D7",
          "midi": 98,
          "time": 136.988372093006,
          "velocity": 0.25196850393700787,
          "duration": 0.04651162790696617
        },
        {
          "name": "G#3",
          "midi": 56,
          "time": 137.0116279069595,
          "velocity": 0.33070866141732286,
          "duration": 0.11627906976741542
        },
        {
          "name": "F6",
          "midi": 89,
          "time": 137.02325581393623,
          "velocity": 0.07086614173228346,
          "duration": 0.04651162790696617
        },
        {
          "name": "D4",
          "midi": 62,
          "time": 137.03488372091297,
          "velocity": 0.13385826771653545,
          "duration": 0.034883720930224626
        },
        {
          "name": "C7",
          "midi": 96,
          "time": 137.0465116278897,
          "velocity": 0.15748031496062992,
          "duration": 0.06976744186044925
        },
        {
          "name": "E4",
          "midi": 64,
          "time": 137.0697674418432,
          "velocity": 0.1889763779527559,
          "duration": 0.034883720930224626
        },
        {
          "name": "A#6",
          "midi": 94,
          "time": 137.08139534881994,
          "velocity": 0.3543307086614173,
          "duration": 0.15116279069766847
        },
        {
          "name": "F6",
          "midi": 89,
          "time": 137.09302325579668,
          "velocity": 0.3543307086614173,
          "duration": 0.27906976744182543
        },
        {
          "name": "C6",
          "midi": 84,
          "time": 137.11627906975016,
          "velocity": 0.29133858267716534,
          "duration": 0.11627906976744384
        },
        {
          "name": "D7",
          "midi": 98,
          "time": 137.11627906975016,
          "velocity": 0.2204724409448819,
          "duration": 0.11627906976744384
        },
        {
          "name": "B0",
          "midi": 23,
          "time": 137.1279069767269,
          "velocity": 0.2755905511811024,
          "duration": 0.023255813953483084
        },
        {
          "name": "F5",
          "midi": 77,
          "time": 137.1279069767269,
          "velocity": 0.23622047244094488,
          "duration": 0.22093023255811772
        },
        {
          "name": "A#3",
          "midi": 58,
          "time": 137.13953488370365,
          "velocity": 0.33858267716535434,
          "duration": 0.20930232558137618
        },
        {
          "name": "D4",
          "midi": 62,
          "time": 137.26744186044783,
          "velocity": 0.28346456692913385,
          "duration": 0.023255813953483084
        },
        {
          "name": "F#4",
          "midi": 66,
          "time": 137.26744186044783,
          "velocity": 0.2755905511811024,
          "duration": 0.023255813953483084
        },
        {
          "name": "A4",
          "midi": 69,
          "time": 137.29069767440131,
          "velocity": 0.2677165354330709,
          "duration": 0.023255813953483084
        },
        {
          "name": "G#6",
          "midi": 92,
          "time": 137.29069767440131,
          "velocity": 0.16535433070866143,
          "duration": 0.034883720930224626
        },
        {
          "name": "C7",
          "midi": 96,
          "time": 137.29069767440131,
          "velocity": 0.2283464566929134,
          "duration": 0.1395348837208985
        },
        {
          "name": "A#6",
          "midi": 94,
          "time": 137.3139534883548,
          "velocity": 0.18110236220472442,
          "duration": 0.12790697674415696
        },
        {
          "name": "A#5",
          "midi": 82,
          "time": 137.32558139533154,
          "velocity": 0.4015748031496063,
          "duration": 0.3837209302324709
        },
        {
          "name": "D#6",
          "midi": 87,
          "time": 137.32558139533154,
          "velocity": 0.3937007874015748,
          "duration": 0.4999999999998863
        },
        {
          "name": "G6",
          "midi": 91,
          "time": 137.33720930230828,
          "velocity": 0.2440944881889764,
          "duration": 0.26744186046505547
        },
        {
          "name": "D7",
          "midi": 98,
          "time": 137.33720930230828,
          "velocity": 0.11023622047244094,
          "duration": 0.05813953488370771
        },
        {
          "name": "E5",
          "midi": 76,
          "time": 137.34883720928502,
          "velocity": 0.2755905511811024,
          "duration": 0.023255813953483084
        },
        {
          "name": "F#1",
          "midi": 30,
          "time": 137.36046511626176,
          "velocity": 0.6535433070866141,
          "duration": 0.011627906976741542
        },
        {
          "name": "D3",
          "midi": 50,
          "time": 137.36046511626176,
          "velocity": 0.4881889763779528,
          "duration": 0.023255813953483084
        },
        {
          "name": "A3",
          "midi": 57,
          "time": 137.36046511626176,
          "velocity": 0.3779527559055118,
          "duration": 0.023255813953483084
        },
        {
          "name": "G#4",
          "midi": 68,
          "time": 137.36046511626176,
          "velocity": 0.36220472440944884,
          "duration": 0.18604651162786467
        },
        {
          "name": "F1",
          "midi": 29,
          "time": 137.3720930232385,
          "velocity": 0.7086614173228346,
          "duration": 0.011627906976741542
        },
        {
          "name": "F5",
          "midi": 77,
          "time": 137.3720930232385,
          "velocity": 0.4566929133858268,
          "duration": 0.3255813953487632
        },
        {
          "name": "E1",
          "midi": 28,
          "time": 137.38372093021525,
          "velocity": 0.7244094488188977,
          "duration": 0.011627906976741542
        },
        {
          "name": "G3",
          "midi": 55,
          "time": 137.38372093021525,
          "velocity": 0.5196850393700787,
          "duration": 0.686046511627751
        },
        {
          "name": "A#4",
          "midi": 70,
          "time": 137.38372093021525,
          "velocity": 0.2440944881889764,
          "duration": 0.023255813953483084
        },
        {
          "name": "D6",
          "midi": 86,
          "time": 137.38372093021525,
          "velocity": 0.07874015748031496,
          "duration": 0.1627906976743816
        },
        {
          "name": "D#1",
          "midi": 27,
          "time": 137.395348837192,
          "velocity": 0.7480314960629921,
          "duration": 1.2325581395346035
        },
        {
          "name": "A#4",
          "midi": 70,
          "time": 137.41860465114547,
          "velocity": 0.2755905511811024,
          "duration": 0.04651162790696617
        },
        {
          "name": "A#2",
          "midi": 46,
          "time": 137.4302325581222,
          "velocity": 0.4566929133858268,
          "duration": 0.26744186046505547
        },
        {
          "name": "C4",
          "midi": 60,
          "time": 137.46511627905244,
          "velocity": 0.14173228346456693,
          "duration": 0.034883720930224626
        },
        {
          "name": "A#4",
          "midi": 70,
          "time": 137.47674418602918,
          "velocity": 0.3858267716535433,
          "duration": 0.15116279069764005
        },
        {
          "name": "C7",
          "midi": 96,
          "time": 137.48837209300592,
          "velocity": 0.1889763779527559,
          "duration": 0.034883720930224626
        },
        {
          "name": "C#4",
          "midi": 61,
          "time": 137.49999999998266,
          "velocity": 0.2047244094488189,
          "duration": 0.034883720930224626
        },
        {
          "name": "F4",
          "midi": 65,
          "time": 137.5348837209129,
          "velocity": 0.11023622047244094,
          "duration": 0.04651162790696617
        },
        {
          "name": "C7",
          "midi": 96,
          "time": 137.5348837209129,
          "velocity": 0.14960629921259844,
          "duration": 0.034883720930224626
        },
        {
          "name": "G#4",
          "midi": 68,
          "time": 137.55813953486637,
          "velocity": 0.3937007874015748,
          "duration": 0.6627906976742679
        },
        {
          "name": "C7",
          "midi": 96,
          "time": 137.5930232557966,
          "velocity": 0.07874015748031496,
          "duration": 0.06976744186044925
        },
        {
          "name": "D#4",
          "midi": 63,
          "time": 137.60465116277334,
          "velocity": 0.2047244094488189,
          "duration": 0.17441860465112313
        },
        {
          "name": "A#4",
          "midi": 70,
          "time": 137.6744186046338,
          "velocity": 0.15748031496062992,
          "duration": 0.05813953488370771
        },
        {
          "name": "A#2",
          "midi": 46,
          "time": 137.709302325564,
          "velocity": 0.4251968503937008,
          "duration": 0.11627906976741542
        },
        {
          "name": "F5",
          "midi": 77,
          "time": 137.709302325564,
          "velocity": 0.16535433070866143,
          "duration": 0.06976744186044925
        },
        {
          "name": "A#6",
          "midi": 94,
          "time": 137.7325581395175,
          "velocity": 0.1968503937007874,
          "duration": 0.04651162790696617
        },
        {
          "name": "C7",
          "midi": 96,
          "time": 137.7325581395175,
          "velocity": 0.2125984251968504,
          "duration": 0.09302325581393234
        },
        {
          "name": "G6",
          "midi": 91,
          "time": 137.74418604649424,
          "velocity": 0.10236220472440945,
          "duration": 0.11627906976741542
        },
        {
          "name": "A#4",
          "midi": 70,
          "time": 137.76744186044772,
          "velocity": 0.33070866141732286,
          "duration": 0.023255813953483084
        },
        {
          "name": "G5",
          "midi": 79,
          "time": 137.77906976742446,
          "velocity": 0.09448818897637795,
          "duration": 0.26744186046505547
        },
        {
          "name": "B4",
          "midi": 71,
          "time": 137.7906976744012,
          "velocity": 0.41732283464566927,
          "duration": 0.23255813953483084
        },
        {
          "name": "F5",
          "midi": 77,
          "time": 137.80232558137794,
          "velocity": 0.12598425196850394,
          "duration": 0.05813953488370771
        },
        {
          "name": "A#2",
          "midi": 46,
          "time": 137.83720930230817,
          "velocity": 0.4094488188976378,
          "duration": 0.09302325581393234
        },
        {
          "name": "D#6",
          "midi": 87,
          "time": 137.83720930230817,
          "velocity": 0.33070866141732286,
          "duration": 0.965116279069548
        },
        {
          "name": "A#5",
          "midi": 82,
          "time": 137.86046511626165,
          "velocity": 0.10236220472440945,
          "duration": 0.05813953488370771
        },
        {
          "name": "D#4",
          "midi": 63,
          "time": 137.88372093021513,
          "velocity": 0.08661417322834646,
          "duration": 0.04651162790696617
        },
        {
          "name": "F5",
          "midi": 77,
          "time": 137.89534883719188,
          "velocity": 0.15748031496062992,
          "duration": 0.23255813953483084
        },
        {
          "name": "A#2",
          "midi": 46,
          "time": 137.94186046509884,
          "velocity": 0.3858267716535433,
          "duration": 0.11627906976741542
        },
        {
          "name": "A#5",
          "midi": 82,
          "time": 137.9883720930058,
          "velocity": 0.15748031496062992,
          "duration": 0.3372093023255047
        },
        {
          "name": "A#4",
          "midi": 70,
          "time": 138.02325581393603,
          "velocity": 0.33070866141732286,
          "duration": 0.023255813953483084
        },
        {
          "name": "A#4",
          "midi": 70,
          "time": 138.05813953486626,
          "velocity": 0.1732283464566929,
          "duration": 0.034883720930224626
        },
        {
          "name": "A#2",
          "midi": 46,
          "time": 138.069767441843,
          "velocity": 0.36220472440944884,
          "duration": 0.09302325581393234
        },
        {
          "name": "G3",
          "midi": 55,
          "time": 138.08139534881974,
          "velocity": 0.36220472440944884,
          "duration": 0.12790697674415696
        },
        {
          "name": "A#4",
          "midi": 70,
          "time": 138.10465116277322,
          "velocity": 0.14173228346456693,
          "duration": 0.04651162790696617
        },
        {
          "name": "F5",
          "midi": 77,
          "time": 138.1511627906802,
          "velocity": 0.1732283464566929,
          "duration": 0.3023255813952801
        },
        {
          "name": "C#4",
          "midi": 61,
          "time": 138.17441860463367,
          "velocity": 0.25196850393700787,
          "duration": 0.023255813953483084
        },
        {
          "name": "C#5",
          "midi": 73,
          "time": 138.17441860463367,
          "velocity": 0.44881889763779526,
          "duration": 0.06976744186044925
        },
        {
          "name": "A#2",
          "midi": 46,
          "time": 138.19767441858716,
          "velocity": 0.33070866141732286,
          "duration": 0.05813953488370771
        },
        {
          "name": "D#3",
          "midi": 51,
          "time": 138.19767441858716,
          "velocity": 0.33858267716535434,
          "duration": 0.034883720930224626
        },
        {
          "name": "F6",
          "midi": 89,
          "time": 138.2093023255639,
          "velocity": 0.3937007874015748,
          "duration": 0.09302325581393234
        },
        {
          "name": "A#6",
          "midi": 94,
          "time": 138.2093023255639,
          "velocity": 0.30708661417322836,
          "duration": 0.06976744186044925
        },
        {
          "name": "B6",
          "midi": 95,
          "time": 138.2093023255639,
          "velocity": 0.2677165354330709,
          "duration": 0.034883720930224626
        },
        {
          "name": "C7",
          "midi": 96,
          "time": 138.2093023255639,
          "velocity": 0.28346456692913385,
          "duration": 0.11627906976741542
        },
        {
          "name": "D7",
          "midi": 98,
          "time": 138.2093023255639,
          "velocity": 0.31496062992125984,
          "duration": 0.05813953488370771
        },
        {
          "name": "G3",
          "midi": 55,
          "time": 138.22093023254064,
          "velocity": 0.31496062992125984,
          "duration": 0.05813953488370771
        },
        {
          "name": "E4",
          "midi": 64,
          "time": 138.22093023254064,
          "velocity": 0.29133858267716534,
          "duration": 0.034883720930224626
        },
        {
          "name": "A#4",
          "midi": 70,
          "time": 138.22093023254064,
          "velocity": 0.29133858267716534,
          "duration": 0.05813953488370771
        },
        {
          "name": "G#6",
          "midi": 92,
          "time": 138.22093023254064,
          "velocity": 0.2047244094488189,
          "duration": 0.05813953488370771
        },
        {
          "name": "A6",
          "midi": 93,
          "time": 138.22093023254064,
          "velocity": 0.28346456692913385,
          "duration": 0.05813953488370771
        },
        {
          "name": "C#7",
          "midi": 97,
          "time": 138.22093023254064,
          "velocity": 0.2992125984251969,
          "duration": 0.06976744186044925
        },
        {
          "name": "E7",
          "midi": 100,
          "time": 138.22093023254064,
          "velocity": 0.2125984251968504,
          "duration": 0.06976744186044925
        },
        {
          "name": "G7",
          "midi": 103,
          "time": 138.22093023254064,
          "velocity": 0.15748031496062992,
          "duration": 0.05813953488370771
        },
        {
          "name": "G#4",
          "midi": 68,
          "time": 138.23255813951738,
          "velocity": 0.33070866141732286,
          "duration": 0.18604651162786467
        },
        {
          "name": "F#7",
          "midi": 102,
          "time": 138.23255813951738,
          "velocity": 0.2047244094488189,
          "duration": 0.06976744186044925
        },
        {
          "name": "A#2",
          "midi": 46,
          "time": 138.2674418604476,
          "velocity": 0.2992125984251969,
          "duration": 0.023255813953483084
        },
        {
          "name": "D6",
          "midi": 86,
          "time": 138.2674418604476,
          "velocity": 0.07086614173228346,
          "duration": 0.05813953488370771
        },
        {
          "name": "E3",
          "midi": 52,
          "time": 138.27906976742435,
          "velocity": 0.30708661417322836,
          "duration": 0.023255813953483084
        },
        {
          "name": "A#4",
          "midi": 70,
          "time": 138.2906976744011,
          "velocity": 0.4645669291338583,
          "duration": 0.8488372093021326
        },
        {
          "name": "A#3",
          "midi": 58,
          "time": 138.31395348835457,
          "velocity": 0.3464566929133858,
          "duration": 0.3372093023255047
        },
        {
          "name": "C#5",
          "midi": 73,
          "time": 138.31395348835457,
          "velocity": 0.4645669291338583,
          "duration": 0.10465116279067388
        },
        {
          "name": "A#2",
          "midi": 46,
          "time": 138.3255813953313,
          "velocity": 0.30708661417322836,
          "duration": 0.034883720930224626
        },
        {
          "name": "F6",
          "midi": 89,
          "time": 138.3255813953313,
          "velocity": 0.2125984251968504,
          "duration": 0.10465116279067388
        },
        {
          "name": "D#3",
          "midi": 51,
          "time": 138.3488372092848,
          "velocity": 0.31496062992125984,
          "duration": 0.29069767441853855
        },
        {
          "name": "G#6",
          "midi": 92,
          "time": 138.3488372092848,
          "velocity": 0.14960629921259844,
          "duration": 0.05813953488370771
        },
        {
          "name": "G#4",
          "midi": 68,
          "time": 138.430232558122,
          "velocity": 0.30708661417322836,
          "duration": 0.18604651162786467
        },
        {
          "name": "F#5",
          "midi": 78,
          "time": 138.430232558122,
          "velocity": 0.1968503937007874,
          "duration": 0.06976744186044925
        },
        {
          "name": "B5",
          "midi": 83,
          "time": 138.45348837207547,
          "velocity": 0.15748031496062992,
          "duration": 0.0813953488371908
        },
        {
          "name": "F5",
          "midi": 77,
          "time": 138.4883720930057,
          "velocity": 0.15748031496062992,
          "duration": 0.05813953488370771
        },
        {
          "name": "F5",
          "midi": 77,
          "time": 138.55813953486614,
          "velocity": 0.13385826771653545,
          "duration": 0.04651162790696617
        },
        {
          "name": "F#5",
          "midi": 78,
          "time": 138.56976744184288,
          "velocity": 0.1889763779527559,
          "duration": 0.12790697674415696
        },
        {
          "name": "B5",
          "midi": 83,
          "time": 138.58139534881963,
          "velocity": 0.14173228346456693,
          "duration": 0.06976744186044925
        },
        {
          "name": "C#5",
          "midi": 73,
          "time": 138.6046511627731,
          "velocity": 0.3858267716535433,
          "duration": 0.24418604651157239
        },
        {
          "name": "G#5",
          "midi": 80,
          "time": 138.61627906974985,
          "velocity": 0.16535433070866143,
          "duration": 0.04651162790696617
        },
        {
          "name": "F6",
          "midi": 89,
          "time": 138.61627906974985,
          "velocity": 0.11811023622047244,
          "duration": 0.034883720930224626
        },
        {
          "name": "D1",
          "midi": 26,
          "time": 138.6279069767266,
          "velocity": 0.5196850393700787,
          "duration": 0.011627906976741542
        },
        {
          "name": "B0",
          "midi": 23,
          "time": 138.63953488370333,
          "velocity": 0.5669291338582677,
          "duration": 0.011627906976741542
        },
        {
          "name": "E4",
          "midi": 64,
          "time": 138.63953488370333,
          "velocity": 0.2755905511811024,
          "duration": 0.023255813953483084
        },
        {
          "name": "C#1",
          "midi": 25,
          "time": 138.65116279068008,
          "velocity": 0.6614173228346457,
          "duration": 0.011627906976741542
        },
        {
          "name": "B2",
          "midi": 47,
          "time": 138.65116279068008,
          "velocity": 0.48031496062992124,
          "duration": 0.023255813953483084
        },
        {
          "name": "F3",
          "midi": 53,
          "time": 138.65116279068008,
          "velocity": 0.4645669291338583,
          "duration": 0.034883720930224626
        },
        {
          "name": "D1",
          "midi": 26,
          "time": 138.66279069765682,
          "velocity": 0.7007874015748031,
          "duration": 0.011627906976741542
        },
        {
          "name": "D#4",
          "midi": 63,
          "time": 138.66279069765682,
          "velocity": 0.33858267716535434,
          "duration": 0.406976744185954
        },
        {
          "name": "C1",
          "midi": 24,
          "time": 138.67441860463356,
          "velocity": 0.7007874015748031,
          "duration": 0.011627906976741542
        },
        {
          "name": "B0",
          "midi": 23,
          "time": 138.6860465116103,
          "velocity": 0.7322834645669292,
          "duration": 0.406976744185954
        },
        {
          "name": "F#4",
          "midi": 66,
          "time": 138.6860465116103,
          "velocity": 0.09448818897637795,
          "duration": 0.034883720930224626
        },
        {
          "name": "D#3",
          "midi": 51,
          "time": 138.70930232556378,
          "velocity": 0.5275590551181102,
          "duration": 0.23255813953483084
        },
        {
          "name": "F6",
          "midi": 89,
          "time": 138.70930232556378,
          "velocity": 0.18110236220472442,
          "duration": 0.3604651162789878
        },
        {
          "name": "B5",
          "midi": 83,
          "time": 138.72093023254052,
          "velocity": 0.1732283464566929,
          "duration": 0.04651162790696617
        },
        {
          "name": "F#2",
          "midi": 42,
          "time": 138.73255813951727,
          "velocity": 0.4251968503937008,
          "duration": 0.023255813953483084
        },
        {
          "name": "G#6",
          "midi": 92,
          "time": 138.77906976742423,
          "velocity": 0.09448818897637795,
          "duration": 0.034883720930224626
        },
        {
          "name": "F5",
          "midi": 77,
          "time": 138.79069767440097,
          "velocity": 0.08661417322834646,
          "duration": 0.05813953488370771
        },
        {
          "name": "D6",
          "midi": 86,
          "time": 138.80232558137772,
          "velocity": 0.25196850393700787,
          "duration": 0.09302325581393234
        },
        {
          "name": "F#2",
          "midi": 42,
          "time": 138.84883720928468,
          "velocity": 0.44881889763779526,
          "duration": 0.023255813953483084
        },
        {
          "name": "C#5",
          "midi": 73,
          "time": 138.86046511626142,
          "velocity": 0.23622047244094488,
          "duration": 0.279069767441797
        },
        {
          "name": "B5",
          "midi": 83,
          "time": 138.87209302323816,
          "velocity": 0.2204724409448819,
          "duration": 0.0813953488371908
        },
        {
          "name": "D#6",
          "midi": 87,
          "time": 138.89534883719165,
          "velocity": 0.33070866141732286,
          "duration": 0.04651162790696617
        },
        {
          "name": "F#5",
          "midi": 78,
          "time": 138.91860465114513,
          "velocity": 0.18110236220472442,
          "duration": 0.0813953488371908
        },
        {
          "name": "D6",
          "midi": 86,
          "time": 138.9418604650986,
          "velocity": 0.33858267716535434,
          "duration": 0.18604651162786467
        },
        {
          "name": "D#3",
          "midi": 51,
          "time": 138.95348837207536,
          "velocity": 0.5196850393700787,
          "duration": 0.023255813953483084
        },
        {
          "name": "D#6",
          "midi": 87,
          "time": 138.9651162790521,
          "velocity": 0.2047244094488189,
          "duration": 0.12790697674415696
        },
        {
          "name": "D#3",
          "midi": 51,
          "time": 138.98837209300558,
          "velocity": 0.5039370078740157,
          "duration": 0.11627906976741542
        },
        {
          "name": "F5",
          "midi": 77,
          "time": 138.99999999998232,
          "velocity": 0.11023622047244094,
          "duration": 0.05813953488370771
        },
        {
          "name": "F#2",
          "midi": 42,
          "time": 139.01162790695906,
          "velocity": 0.4645669291338583,
          "duration": 0.023255813953483084
        },
        {
          "name": "F#4",
          "midi": 66,
          "time": 139.03488372091255,
          "velocity": 0.10236220472440945,
          "duration": 0.05813953488370771
        },
        {
          "name": "F#2",
          "midi": 42,
          "time": 139.05813953486603,
          "velocity": 0.4330708661417323,
          "duration": 0.023255813953483084
        },
        {
          "name": "C1",
          "midi": 24,
          "time": 139.09302325579625,
          "velocity": 0.7086614173228346,
          "duration": 0.011627906976741542
        },
        {
          "name": "F#2",
          "midi": 42,
          "time": 139.09302325579625,
          "velocity": 0.44881889763779526,
          "duration": 0.023255813953483084
        },
        {
          "name": "F6",
          "midi": 89,
          "time": 139.09302325579625,
          "velocity": 0.16535433070866143,
          "duration": 0.04651162790696617
        },
        {
          "name": "B0",
          "midi": 23,
          "time": 139.104651162773,
          "velocity": 0.7086614173228346,
          "duration": 0.011627906976741542
        },
        {
          "name": "D#4",
          "midi": 63,
          "time": 139.104651162773,
          "velocity": 0.2440944881889764,
          "duration": 0.023255813953483084
        },
        {
          "name": "A#0",
          "midi": 22,
          "time": 139.11627906974974,
          "velocity": 0.7086614173228346,
          "duration": 0.011627906976741542
        },
        {
          "name": "D#3",
          "midi": 51,
          "time": 139.11627906974974,
          "velocity": 0.48031496062992124,
          "duration": 0.023255813953483084
        },
        {
          "name": "E4",
          "midi": 64,
          "time": 139.11627906974974,
          "velocity": 0.33070866141732286,
          "duration": 0.034883720930224626
        },
        {
          "name": "B0",
          "midi": 23,
          "time": 139.12790697672648,
          "velocity": 0.7165354330708661,
          "duration": 0.011627906976741542
        },
        {
          "name": "B4",
          "midi": 71,
          "time": 139.12790697672648,
          "velocity": 0.30708661417322836,
          "duration": 0.0813953488371908
        },
        {
          "name": "A#0",
          "midi": 22,
          "time": 139.13953488370322,
          "velocity": 0.7086614173228346,
          "duration": 0.011627906976741542
        },
        {
          "name": "D4",
          "midi": 62,
          "time": 139.13953488370322,
          "velocity": 0.2992125984251969,
          "duration": 0.023255813953483084
        },
        {
          "name": "A0",
          "midi": 21,
          "time": 139.15116279067996,
          "velocity": 0.7165354330708661,
          "duration": 0.023255813953483084
        },
        {
          "name": "G#4",
          "midi": 68,
          "time": 139.15116279067996,
          "velocity": 0.2755905511811024,
          "duration": 0.023255813953483084
        },
        {
          "name": "D#6",
          "midi": 87,
          "time": 139.15116279067996,
          "velocity": 0.2047244094488189,
          "duration": 0.05813953488370771
        },
        {
          "name": "G#0",
          "midi": 20,
          "time": 139.17441860463344,
          "velocity": 0.7086614173228346,
          "duration": 0.011627906976741542
        },
        {
          "name": "B2",
          "midi": 47,
          "time": 139.17441860463344,
          "velocity": 0.47244094488188976,
          "duration": 0.023255813953483084
        },
        {
          "name": "C4",
          "midi": 60,
          "time": 139.17441860463344,
          "velocity": 0.3464566929133858,
          "duration": 0.023255813953483084
        },
        {
          "name": "G4",
          "midi": 67,
          "time": 139.17441860463344,
          "velocity": 0.2755905511811024,
          "duration": 0.023255813953483084
        },
        {
          "name": "G0",
          "midi": 19,
          "time": 139.1860465116102,
          "velocity": 0.7165354330708661,
          "duration": 0.023255813953483084
        },
        {
          "name": "B3",
          "midi": 59,
          "time": 139.19767441858693,
          "velocity": 0.30708661417322836,
          "duration": 0.023255813953483084
        },
        {
          "name": "C#5",
          "midi": 73,
          "time": 139.19767441858693,
          "velocity": 0.1968503937007874,
          "duration": 0.0813953488371908
        },
        {
          "name": "F#0",
          "midi": 18,
          "time": 139.20930232556367,
          "velocity": 0.7165354330708661,
          "duration": 0.011627906976741542
        },
        {
          "name": "A#3",
          "midi": 58,
          "time": 139.20930232556367,
          "velocity": 0.3543307086614173,
          "duration": 0.04651162790696617
        },
        {
          "name": "D6",
          "midi": 86,
          "time": 139.20930232556367,
          "velocity": 0.2677165354330709,
          "duration": 0.09302325581393234
        },
        {
          "name": "F0",
          "midi": 17,
          "time": 139.2209302325404,
          "velocity": 0.7165354330708661,
          "duration": 0.023255813953483084
        },
        {
          "name": "E4",
          "midi": 64,
          "time": 139.2209302325404,
          "velocity": 0.28346456692913385,
          "duration": 0.023255813953483084
        },
        {
          "name": "A2",
          "midi": 45,
          "time": 139.23255813951715,
          "velocity": 0.4881889763779528,
          "duration": 0.023255813953483084
        },
        {
          "name": "E0",
          "midi": 16,
          "time": 139.2441860464939,
          "velocity": 0.7086614173228346,
          "duration": 0.023255813953483084
        },
        {
          "name": "D#5",
          "midi": 75,
          "time": 139.2441860464939,
          "velocity": 0.09448818897637795,
          "duration": 0.034883720930224626
        },
        {
          "name": "G3",
          "midi": 55,
          "time": 139.25581395347064,
          "velocity": 0.3464566929133858,
          "duration": 0.023255813953483084
        },
        {
          "name": "D0",
          "midi": 14,
          "time": 139.26744186044738,
          "velocity": 0.6929133858267716,
          "duration": 0.011627906976741542
        },
        {
          "name": "C2",
          "midi": 36,
          "time": 139.26744186044738,
          "velocity": 0.5118110236220472,
          "duration": 0.011627906976741542
        },
        {
          "name": "F5",
          "midi": 77,
          "time": 139.26744186044738,
          "velocity": 0.10236220472440945,
          "duration": 0.06976744186044925
        },
        {
          "name": "C#0",
          "midi": 13,
          "time": 139.27906976742412,
          "velocity": 0.7086614173228346,
          "duration": 0.023255813953483084
        },
        {
          "name": "B4",
          "midi": 71,
          "time": 139.27906976742412,
          "velocity": 0.2992125984251969,
          "duration": 0.09302325581393234
        },
        {
          "name": "B-1",
          "midi": 11,
          "time": 139.3023255813776,
          "velocity": 0.7007874015748031,
          "duration": 0.034883720930224626
        },
        {
          "name": "D#6",
          "midi": 87,
          "time": 139.3023255813776,
          "velocity": 0.28346456692913385,
          "duration": 0.09302325581393234
        },
        {
          "name": "D3",
          "midi": 50,
          "time": 139.31395348835434,
          "velocity": 0.4015748031496063,
          "duration": 0.023255813953483084
        },
        {
          "name": "F-1",
          "midi": 5,
          "time": 139.33720930230783,
          "velocity": 0.5905511811023622,
          "duration": 0.011627906976741542
        },
        {
          "name": "G-1",
          "midi": 7,
          "time": 139.34883720928457,
          "velocity": 0.6220472440944882,
          "duration": 0.011627906976741542
        },
        {
          "name": "F#-1",
          "midi": 6,
          "time": 139.3604651162613,
          "velocity": 0.6929133858267716,
          "duration": 0.023255813953483084
        },
        {
          "name": "F#6",
          "midi": 90,
          "time": 139.37209302323805,
          "velocity": 0.33858267716535434,
          "duration": 0.034883720930224626
        },
        {
          "name": "A6",
          "midi": 93,
          "time": 139.37209302323805,
          "velocity": 0.3543307086614173,
          "duration": 0.04651162790696617
        },
        {
          "name": "A#6",
          "midi": 94,
          "time": 139.37209302323805,
          "velocity": 0.3543307086614173,
          "duration": 0.05813953488370771
        },
        {
          "name": "B6",
          "midi": 95,
          "time": 139.37209302323805,
          "velocity": 0.3858267716535433,
          "duration": 0.04651162790696617
        },
        {
          "name": "C7",
          "midi": 96,
          "time": 139.37209302323805,
          "velocity": 0.36220472440944884,
          "duration": 0.04651162790696617
        },
        {
          "name": "C#7",
          "midi": 97,
          "time": 139.37209302323805,
          "velocity": 0.15748031496062992,
          "duration": 0.04651162790696617
        },
        {
          "name": "G#4",
          "midi": 68,
          "time": 139.3837209302148,
          "velocity": 0.3937007874015748,
          "duration": 0.04651162790696617
        },
        {
          "name": "F#5",
          "midi": 78,
          "time": 139.3837209302148,
          "velocity": 0.11023622047244094,
          "duration": 0.034883720930224626
        },
        {
          "name": "D6",
          "midi": 86,
          "time": 139.3837209302148,
          "velocity": 0.3228346456692913,
          "duration": 0.05813953488370771
        },
        {
          "name": "G#6",
          "midi": 92,
          "time": 139.3837209302148,
          "velocity": 0.31496062992125984,
          "duration": 0.04651162790696617
        },
        {
          "name": "A#-1",
          "midi": 10,
          "time": 139.39534883719153,
          "velocity": 0.5354330708661418,
          "duration": 0.023255813953483084
        },
        {
          "name": "A3",
          "midi": 57,
          "time": 139.39534883719153,
          "velocity": 0.2992125984251969,
          "duration": 0.05813953488370771
        },
        {
          "name": "F4",
          "midi": 65,
          "time": 139.39534883719153,
          "velocity": 0.3779527559055118,
          "duration": 0.034883720930224626
        },
        {
          "name": "C5",
          "midi": 72,
          "time": 139.39534883719153,
          "velocity": 0.3858267716535433,
          "duration": 0.023255813953483084
        },
        {
          "name": "B5",
          "midi": 83,
          "time": 139.39534883719153,
          "velocity": 0.1968503937007874,
          "duration": 0.034883720930224626
        },
        {
          "name": "F6",
          "midi": 89,
          "time": 139.39534883719153,
          "velocity": 0.33070866141732286,
          "duration": 0.05813953488370771
        },
        {
          "name": "C#6",
          "midi": 85,
          "time": 139.40697674416828,
          "velocity": 0.3464566929133858,
          "duration": 0.0813953488371908
        },
        {
          "name": "D#6",
          "midi": 87,
          "time": 139.40697674416828,
          "velocity": 0.2755905511811024,
          "duration": 0.05813953488370771
        },
        {
          "name": "G6",
          "midi": 91,
          "time": 139.40697674416828,
          "velocity": 0.36220472440944884,
          "duration": 0.034883720930224626
        },
        {
          "name": "A#4",
          "midi": 70,
          "time": 139.41860465114502,
          "velocity": 0.4881889763779528,
          "duration": 0.1627906976743816
        },
        {
          "name": "E6",
          "midi": 88,
          "time": 139.41860465114502,
          "velocity": 0.25196850393700787,
          "duration": 0.034883720930224626
        },
        {
          "name": "D3",
          "midi": 50,
          "time": 139.43023255812176,
          "velocity": 0.36220472440944884,
          "duration": 0.023255813953483084
        },
        {
          "name": "F#4",
          "midi": 66,
          "time": 139.43023255812176,
          "velocity": 0.41732283464566927,
          "duration": 0.023255813953483084
        },
        {
          "name": "G#5",
          "midi": 80,
          "time": 139.43023255812176,
          "velocity": 0.2204724409448819,
          "duration": 0.04651162790696617
        },
        {
          "name": "C#-1",
          "midi": 1,
          "time": 139.4418604650985,
          "velocity": 0.6456692913385826,
          "duration": 0.011627906976741542
        },
        {
          "name": "F4",
          "midi": 65,
          "time": 139.4418604650985,
          "velocity": 0.3779527559055118,
          "duration": 0.023255813953483084
        },
        {
          "name": "E5",
          "midi": 76,
          "time": 139.4418604650985,
          "velocity": 0.2440944881889764,
          "duration": 0.023255813953483084
        },
        {
          "name": "C3",
          "midi": 48,
          "time": 139.45348837207524,
          "velocity": 0.48031496062992124,
          "duration": 0.023255813953483084
        },
        {
          "name": "A#3",
          "midi": 58,
          "time": 139.45348837207524,
          "velocity": 0.5275590551181102,
          "duration": 0.12790697674415696
        },
        {
          "name": "G4",
          "midi": 67,
          "time": 139.45348837207524,
          "velocity": 0.4330708661417323,
          "duration": 0.04651162790696617
        },
        {
          "name": "D6",
          "midi": 86,
          "time": 139.45348837207524,
          "velocity": 0.3228346456692913,
          "duration": 0.12790697674415696
        },
        {
          "name": "B-1",
          "midi": 11,
          "time": 139.46511627905198,
          "velocity": 0.6062992125984252,
          "duration": 0.011627906976741542
        },
        {
          "name": "C#0",
          "midi": 13,
          "time": 139.47674418602872,
          "velocity": 0.6771653543307087,
          "duration": 0.011627906976741542
        },
        {
          "name": "C#3",
          "midi": 49,
          "time": 139.47674418602872,
          "velocity": 0.4330708661417323,
          "duration": 0.023255813953483084
        },
        {
          "name": "D1",
          "midi": 26,
          "time": 139.48837209300547,
          "velocity": 0.6614173228346457,
          "duration": 0.011627906976741542
        },
        {
          "name": "C#1",
          "midi": 25,
          "time": 139.4999999999822,
          "velocity": 0.6377952755905512,
          "duration": 0.011627906976741542
        },
        {
          "name": "D#4",
          "midi": 63,
          "time": 139.4999999999822,
          "velocity": 0.33858267716535434,
          "duration": 0.04651162790696617
        },
        {
          "name": "C#5",
          "midi": 73,
          "time": 139.4999999999822,
          "velocity": 0.2047244094488189,
          "duration": 0.43023255813943706
        },
        {
          "name": "A0",
          "midi": 21,
          "time": 139.51162790695895,
          "velocity": 0.6850393700787402,
          "duration": 0.011627906976741542
        },
        {
          "name": "G2",
          "midi": 43,
          "time": 139.51162790695895,
          "velocity": 0.3858267716535433,
          "duration": 0.023255813953483084
        },
        {
          "name": "F#4",
          "midi": 66,
          "time": 139.51162790695895,
          "velocity": 0.14960629921259844,
          "duration": 0.034883720930224626
        },
        {
          "name": "D#6",
          "midi": 87,
          "time": 139.51162790695895,
          "velocity": 0.11023622047244094,
          "duration": 0.034883720930224626
        },
        {
          "name": "E7",
          "midi": 100,
          "time": 139.51162790695895,
          "velocity": 0.09448818897637795,
          "duration": 0.034883720930224626
        },
        {
          "name": "A#0",
          "midi": 22,
          "time": 139.5232558139357,
          "velocity": 0.6456692913385826,
          "duration": 0.011627906976741542
        },
        {
          "name": "C1",
          "midi": 24,
          "time": 139.53488372091243,
          "velocity": 0.6614173228346457,
          "duration": 0.011627906976741542
        },
        {
          "name": "E3",
          "midi": 52,
          "time": 139.53488372091243,
          "velocity": 0.3937007874015748,
          "duration": 0.023255813953483084
        },
        {
          "name": "B0",
          "midi": 23,
          "time": 139.54651162788917,
          "velocity": 0.6614173228346457,
          "duration": 0.37209302325572935
        },
        {
          "name": "D#5",
          "midi": 75,
          "time": 139.54651162788917,
          "velocity": 0.11811023622047244,
          "duration": 0.06976744186044925
        },
        {
          "name": "D#4",
          "midi": 63,
          "time": 139.55813953486592,
          "velocity": 0.31496062992125984,
          "duration": 0.3837209302324709
        },
        {
          "name": "F#4",
          "midi": 66,
          "time": 139.55813953486592,
          "velocity": 0.3543307086614173,
          "duration": 0.3837209302324709
        },
        {
          "name": "E7",
          "midi": 100,
          "time": 139.55813953486592,
          "velocity": 0.10236220472440945,
          "duration": 0.034883720930224626
        },
        {
          "name": "B4",
          "midi": 71,
          "time": 139.56976744184266,
          "velocity": 0.25984251968503935,
          "duration": 0.023255813953483084
        },
        {
          "name": "D7",
          "midi": 98,
          "time": 139.5813953488194,
          "velocity": 0.1732283464566929,
          "duration": 0.18604651162786467
        },
        {
          "name": "A#4",
          "midi": 70,
          "time": 139.59302325579614,
          "velocity": 0.5669291338582677,
          "duration": 0.12790697674415696
        },
        {
          "name": "E7",
          "midi": 100,
          "time": 139.60465116277288,
          "velocity": 0.31496062992125984,
          "duration": 0.04651162790696617
        },
        {
          "name": "C7",
          "midi": 96,
          "time": 139.61627906974962,
          "velocity": 0.31496062992125984,
          "duration": 0.09302325581393234
        },
        {
          "name": "F7",
          "midi": 101,
          "time": 139.61627906974962,
          "velocity": 0.1889763779527559,
          "duration": 0.18604651162786467
        },
        {
          "name": "A#3",
          "midi": 58,
          "time": 139.62790697672636,
          "velocity": 0.4330708661417323,
          "duration": 0.05813953488370771
        },
        {
          "name": "F5",
          "midi": 77,
          "time": 139.62790697672636,
          "velocity": 0.09448818897637795,
          "duration": 0.034883720930224626
        },
        {
          "name": "F#7",
          "midi": 102,
          "time": 139.6395348837031,
          "velocity": 0.10236220472440945,
          "duration": 0.06976744186044925
        },
        {
          "name": "D#7",
          "midi": 99,
          "time": 139.65116279067985,
          "velocity": 0.15748031496062992,
          "duration": 0.06976744186044925
        },
        {
          "name": "F#2",
          "midi": 42,
          "time": 139.6627906976566,
          "velocity": 0.3543307086614173,
          "duration": 0.023255813953483084
        },
        {
          "name": "C#7",
          "midi": 97,
          "time": 139.70930232556356,
          "velocity": 0.1968503937007874,
          "duration": 0.0813953488371908
        },
        {
          "name": "A4",
          "midi": 69,
          "time": 139.7209302325403,
          "velocity": 0.5118110236220472,
          "duration": 0.0813953488371908
        },
        {
          "name": "E7",
          "midi": 100,
          "time": 139.7209302325403,
          "velocity": 0.13385826771653545,
          "duration": 0.06976744186044925
        },
        {
          "name": "D#6",
          "midi": 87,
          "time": 139.73255813951704,
          "velocity": 0.1732283464566929,
          "duration": 0.034883720930224626
        },
        {
          "name": "B6",
          "midi": 95,
          "time": 139.73255813951704,
          "velocity": 0.07874015748031496,
          "duration": 0.04651162790696617
        },
        {
          "name": "F#7",
          "midi": 102,
          "time": 139.76744186044726,
          "velocity": 0.09448818897637795,
          "duration": 0.034883720930224626
        },
        {
          "name": "A#4",
          "midi": 70,
          "time": 139.8023255813775,
          "velocity": 0.4330708661417323,
          "duration": 0.18604651162786467
        },
        {
          "name": "D6",
          "midi": 86,
          "time": 139.8023255813775,
          "velocity": 0.2283464566929134,
          "duration": 0.09302325581393234
        },
        {
          "name": "F#2",
          "midi": 42,
          "time": 139.82558139533097,
          "velocity": 0.30708661417322836,
          "duration": 0.023255813953483084
        },
        {
          "name": "A#6",
          "midi": 94,
          "time": 139.8372093023077,
          "velocity": 0.2992125984251969,
          "duration": 0.19767441860460622
        },
        {
          "name": "A#3",
          "midi": 58,
          "time": 139.84883720928445,
          "velocity": 0.5039370078740157,
          "duration": 0.15116279069764005
        },
        {
          "name": "C7",
          "midi": 96,
          "time": 139.84883720928445,
          "velocity": 0.23622047244094488,
          "duration": 0.04651162790696617
        },
        {
          "name": "D7",
          "midi": 98,
          "time": 139.84883720928445,
          "velocity": 0.28346456692913385,
          "duration": 0.12790697674415696
        },
        {
          "name": "D#7",
          "midi": 99,
          "time": 139.84883720928445,
          "velocity": 0.1968503937007874,
          "duration": 0.04651162790696617
        },
        {
          "name": "E7",
          "midi": 100,
          "time": 139.88372093021468,
          "velocity": 0.3700787401574803,
          "duration": 0.1395348837208985
        },
        {
          "name": "C1",
          "midi": 24,
          "time": 139.9186046511449,
          "velocity": 0.5905511811023622,
          "duration": 0.011627906976741542
        },
        {
          "name": "F5",
          "midi": 77,
          "time": 139.9186046511449,
          "velocity": 0.14173228346456693,
          "duration": 0.06976744186044925
        },
        {
          "name": "D6",
          "midi": 86,
          "time": 139.9186046511449,
          "velocity": 0.15748031496062992,
          "duration": 0.06976744186044925
        },
        {
          "name": "C7",
          "midi": 96,
          "time": 139.9186046511449,
          "velocity": 0.3543307086614173,
          "duration": 0.0813953488371908
        },
        {
          "name": "B0",
          "midi": 23,
          "time": 139.93023255812165,
          "velocity": 0.5905511811023622,
          "duration": 0.04651162790696617
        },
        {
          "name": "B6",
          "midi": 95,
          "time": 139.93023255812165,
          "velocity": 0.29133858267716534,
          "duration": 0.034883720930224626
        },
        {
          "name": "F7",
          "midi": 101,
          "time": 139.93023255812165,
          "velocity": 0.31496062992125984,
          "duration": 0.09302325581393234
        },
        {
          "name": "F#7",
          "midi": 102,
          "time": 139.93023255812165,
          "velocity": 0.1889763779527559,
          "duration": 0.05813953488370771
        },
        {
          "name": "C#5",
          "midi": 73,
          "time": 139.9418604650984,
          "velocity": 0.13385826771653545,
          "duration": 0.1395348837208985
        },
        {
          "name": "F#6",
          "midi": 90,
          "time": 139.9418604650984,
          "velocity": 0.18110236220472442,
          "duration": 0.04651162790696617
        },
        {
          "name": "A6",
          "midi": 93,
          "time": 139.9418604650984,
          "velocity": 0.2755905511811024,
          "duration": 0.023255813953483084
        },
        {
          "name": "C#7",
          "midi": 97,
          "time": 139.9418604650984,
          "velocity": 0.30708661417322836,
          "duration": 0.05813953488370771
        },
        {
          "name": "D#7",
          "midi": 99,
          "time": 139.9418604650984,
          "velocity": 0.3858267716535433,
          "duration": 0.0813953488371908
        },
        {
          "name": "G7",
          "midi": 103,
          "time": 139.9418604650984,
          "velocity": 0.15748031496062992,
          "duration": 0.05813953488370771
        },
        {
          "name": "G#6",
          "midi": 92,
          "time": 139.96511627905187,
          "velocity": 0.25196850393700787,
          "duration": 0.023255813953483084
        },
        {
          "name": "A#0",
          "midi": 22,
          "time": 139.9767441860286,
          "velocity": 0.5669291338582677,
          "duration": 0.011627906976741542
        },
        {
          "name": "D#6",
          "midi": 87,
          "time": 139.9767441860286,
          "velocity": 0.14173228346456693,
          "duration": 0.19767441860460622
        },
        {
          "name": "B6",
          "midi": 95,
          "time": 139.9767441860286,
          "velocity": 0.11811023622047244,
          "duration": 0.04651162790696617
        },
        {
          "name": "B0",
          "midi": 23,
          "time": 139.98837209300535,
          "velocity": 0.5748031496062992,
          "duration": 0.3372093023255047
        },
        {
          "name": "A3",
          "midi": 57,
          "time": 139.9999999999821,
          "velocity": 0.4094488188976378,
          "duration": 0.023255813953483084
        },
        {
          "name": "G#4",
          "midi": 68,
          "time": 139.9999999999821,
          "velocity": 0.44881889763779526,
          "duration": 0.034883720930224626
        },
        {
          "name": "G#3",
          "midi": 56,
          "time": 140.01162790695884,
          "velocity": 0.3858267716535433,
          "duration": 0.023255813953483084
        },
        {
          "name": "G3",
          "midi": 55,
          "time": 140.03488372091232,
          "velocity": 0.41732283464566927,
          "duration": 0.023255813953483084
        },
        {
          "name": "F#3",
          "midi": 54,
          "time": 140.0581395348658,
          "velocity": 0.2992125984251969,
          "duration": 0.0813953488371908
        },
        {
          "name": "G#4",
          "midi": 68,
          "time": 140.0581395348658,
          "velocity": 0.29133858267716534,
          "duration": 0.20930232558134776
        },
        {
          "name": "C#5",
          "midi": 73,
          "time": 140.10465116277277,
          "velocity": 0.10236220472440945,
          "duration": 0.04651162790696617
        },
        {
          "name": "C5",
          "midi": 72,
          "time": 140.15116279067973,
          "velocity": 0.13385826771653545,
          "duration": 0.15116279069764005
        },
        {
          "name": "F3",
          "midi": 53,
          "time": 140.16279069765648,
          "velocity": 0.3228346456692913,
          "duration": 0.17441860465112313
        },
        {
          "name": "A#4",
          "midi": 70,
          "time": 140.16279069765648,
          "velocity": 0.12598425196850394,
          "duration": 0.0813953488371908
        },
        {
          "name": "A#3",
          "midi": 58,
          "time": 140.18604651160996,
          "velocity": 0.1732283464566929,
          "duration": 0.034883720930224626
        },
        {
          "name": "D#6",
          "midi": 87,
          "time": 140.18604651160996,
          "velocity": 0.1889763779527559,
          "duration": 0.1627906976743816
        },
        {
          "name": "A#3",
          "midi": 58,
          "time": 140.24418604649367,
          "velocity": 0.16535433070866143,
          "duration": 0.06976744186044925
        },
        {
          "name": "A4",
          "midi": 69,
          "time": 140.26744186044715,
          "velocity": 0.3700787401574803,
          "duration": 0.034883720930224626
        },
        {
          "name": "C#6",
          "midi": 85,
          "time": 140.26744186044715,
          "velocity": 0.14960629921259844,
          "duration": 0.04651162790696617
        },
        {
          "name": "A#4",
          "midi": 70,
          "time": 140.30232558137737,
          "velocity": 0.4566929133858268,
          "duration": 0.10465116279067388
        },
        {
          "name": "F6",
          "midi": 89,
          "time": 140.32558139533086,
          "velocity": 0.18110236220472442,
          "duration": 0.06976744186044925
        },
        {
          "name": "D6",
          "midi": 86,
          "time": 140.36046511626108,
          "velocity": 0.2755905511811024,
          "duration": 0.05813953488370771
        },
        {
          "name": "B4",
          "midi": 71,
          "time": 140.40697674416805,
          "velocity": 0.33858267716535434,
          "duration": 0.04651162790696617
        },
        {
          "name": "D#6",
          "midi": 87,
          "time": 140.4186046511448,
          "velocity": 0.2283464566929134,
          "duration": 0.034883720930224626
        },
        {
          "name": "F#6",
          "midi": 90,
          "time": 140.4186046511448,
          "velocity": 0.11811023622047244,
          "duration": 0.04651162790696617
        },
        {
          "name": "A#4",
          "midi": 70,
          "time": 140.45348837207501,
          "velocity": 0.15748031496062992,
          "duration": 0.034883720930224626
        },
        {
          "name": "A#4",
          "midi": 70,
          "time": 140.55813953486572,
          "velocity": 0.10236220472440945,
          "duration": 0.034883720930224626
        },
        {
          "name": "A4",
          "midi": 69,
          "time": 140.69767441858664,
          "velocity": 0.2204724409448819,
          "duration": 0.034883720930224626
        },
        {
          "name": "D6",
          "midi": 86,
          "time": 140.72093023254013,
          "velocity": 0.2440944881889764,
          "duration": 0.12790697674415696
        },
        {
          "name": "A#4",
          "midi": 70,
          "time": 140.73255813951687,
          "velocity": 0.13385826771653545,
          "duration": 0.034883720930224626
        },
        {
          "name": "G#4",
          "midi": 68,
          "time": 140.7674418604471,
          "velocity": 0.3228346456692913,
          "duration": 0.8837209302324425
        },
        {
          "name": "F6",
          "midi": 89,
          "time": 140.7674418604471,
          "velocity": 0.16535433070866143,
          "duration": 0.05813953488370771
        },
        {
          "name": "D3",
          "midi": 50,
          "time": 140.77906976742383,
          "velocity": 0.4251968503937008,
          "duration": 0.04651162790696617
        },
        {
          "name": "F#1",
          "midi": 30,
          "time": 140.79069767440058,
          "velocity": 0.6220472440944882,
          "duration": 0.011627906976741542
        },
        {
          "name": "F5",
          "midi": 77,
          "time": 140.79069767440058,
          "velocity": 0.3937007874015748,
          "duration": 1.2790697674417402
        },
        {
          "name": "D#6",
          "midi": 87,
          "time": 140.79069767440058,
          "velocity": 0.12598425196850394,
          "duration": 0.034883720930224626
        },
        {
          "name": "F1",
          "midi": 29,
          "time": 140.80232558137732,
          "velocity": 0.7007874015748031,
          "duration": 0.011627906976741542
        },
        {
          "name": "A#3",
          "midi": 58,
          "time": 140.80232558137732,
          "velocity": 0.4330708661417323,
          "duration": 0.023255813953483084
        },
        {
          "name": "E1",
          "midi": 28,
          "time": 140.81395348835406,
          "velocity": 0.7165354330708661,
          "duration": 0.011627906976741542
        },
        {
          "name": "D#4",
          "midi": 63,
          "time": 140.81395348835406,
          "velocity": 0.23622047244094488,
          "duration": 0.04651162790696617
        },
        {
          "name": "D#1",
          "midi": 27,
          "time": 140.8255813953308,
          "velocity": 0.7480314960629921,
          "duration": 1.2441860465115155
        },
        {
          "name": "G3",
          "midi": 55,
          "time": 140.83720930230754,
          "velocity": 0.5118110236220472,
          "duration": 0.8255813953487348
        },
        {
          "name": "B4",
          "midi": 71,
          "time": 140.83720930230754,
          "velocity": 0.3543307086614173,
          "duration": 0.06976744186044925
        },
        {
          "name": "D#6",
          "midi": 87,
          "time": 140.84883720928428,
          "velocity": 0.1732283464566929,
          "duration": 0.8255813953487348
        },
        {
          "name": "A#2",
          "midi": 46,
          "time": 140.86046511626103,
          "velocity": 0.4251968503937008,
          "duration": 0.2325581395348877
        },
        {
          "name": "D#4",
          "midi": 63,
          "time": 140.906976744168,
          "velocity": 0.15748031496062992,
          "duration": 0.09302325581396076
        },
        {
          "name": "D#4",
          "midi": 63,
          "time": 141.02325581393544,
          "velocity": 0.09448818897637795,
          "duration": 0.12790697674418539
        },
        {
          "name": "A#2",
          "midi": 46,
          "time": 141.12790697672614,
          "velocity": 0.4251968503937008,
          "duration": 0.09302325581393234
        },
        {
          "name": "B4",
          "midi": 71,
          "time": 141.20930232556333,
          "velocity": 0.3779527559055118,
          "duration": 0.290697674418567
        },
        {
          "name": "G5",
          "midi": 79,
          "time": 141.20930232556333,
          "velocity": 0.07086614173228346,
          "duration": 0.05813953488370771
        },
        {
          "name": "A#5",
          "midi": 82,
          "time": 141.20930232556333,
          "velocity": 0.07874015748031496,
          "duration": 0.04651162790696617
        },
        {
          "name": "A#2",
          "midi": 46,
          "time": 141.2558139534703,
          "velocity": 0.4330708661417323,
          "duration": 0.09302325581396076
        },
        {
          "name": "A#2",
          "midi": 46,
          "time": 141.38372093021448,
          "velocity": 0.4015748031496063,
          "duration": 0.034883720930224626
        },
        {
          "name": "A#2",
          "midi": 46,
          "time": 141.45348837207493,
          "velocity": 0.36220472440944884,
          "duration": 0.023255813953483084
        },
        {
          "name": "A#2",
          "midi": 46,
          "time": 141.51162790695864,
          "velocity": 0.3700787401574803,
          "duration": 0.034883720930224626
        },
        {
          "name": "A#3",
          "midi": 58,
          "time": 141.59302325579583,
          "velocity": 0.29133858267716534,
          "duration": 0.023255813953483084
        },
        {
          "name": "D6",
          "midi": 86,
          "time": 141.6162790697493,
          "velocity": 0.07086614173228346,
          "duration": 0.034883720930224626
        },
        {
          "name": "A#2",
          "midi": 46,
          "time": 141.6395348837028,
          "velocity": 0.31496062992125984,
          "duration": 0.034883720930224626
        },
        {
          "name": "A#4",
          "midi": 70,
          "time": 141.6395348837028,
          "velocity": 0.3700787401574803,
          "duration": 0.33720930232556157
        },
        {
          "name": "B6",
          "midi": 95,
          "time": 141.6395348837028,
          "velocity": 0.28346456692913385,
          "duration": 0.06976744186044925
        },
        {
          "name": "D7",
          "midi": 98,
          "time": 141.6395348837028,
          "velocity": 0.31496062992125984,
          "duration": 0.05813953488370771
        },
        {
          "name": "D#7",
          "midi": 99,
          "time": 141.6395348837028,
          "velocity": 0.30708661417322836,
          "duration": 0.06976744186044925
        },
        {
          "name": "E6",
          "midi": 88,
          "time": 141.65116279067954,
          "velocity": 0.12598425196850394,
          "duration": 0.034883720930224626
        },
        {
          "name": "F#6",
          "midi": 90,
          "time": 141.65116279067954,
          "velocity": 0.18110236220472442,
          "duration": 0.05813953488370771
        },
        {
          "name": "A6",
          "midi": 93,
          "time": 141.65116279067954,
          "velocity": 0.29133858267716534,
          "duration": 0.05813953488370771
        },
        {
          "name": "A#6",
          "midi": 94,
          "time": 141.65116279067954,
          "velocity": 0.28346456692913385,
          "duration": 0.06976744186044925
        },
        {
          "name": "C7",
          "midi": 96,
          "time": 141.65116279067954,
          "velocity": 0.2283464566929134,
          "duration": 0.05813953488370771
        },
        {
          "name": "C#7",
          "midi": 97,
          "time": 141.65116279067954,
          "velocity": 0.29133858267716534,
          "duration": 0.06976744186044925
        },
        {
          "name": "E7",
          "midi": 100,
          "time": 141.65116279067954,
          "velocity": 0.23622047244094488,
          "duration": 0.06976744186044925
        },
        {
          "name": "F7",
          "midi": 101,
          "time": 141.65116279067954,
          "velocity": 0.2440944881889764,
          "duration": 0.06976744186044925
        },
        {
          "name": "F#7",
          "midi": 102,
          "time": 141.65116279067954,
          "velocity": 0.18110236220472442,
          "duration": 0.0813953488371908
        },
        {
          "name": "E4",
          "midi": 64,
          "time": 141.66279069765628,
          "velocity": 0.29133858267716534,
          "duration": 0.023255813953483084
        },
        {
          "name": "G#4",
          "midi": 68,
          "time": 141.66279069765628,
          "velocity": 0.2992125984251969,
          "duration": 0.4186046511627808
        },
        {
          "name": "G7",
          "midi": 103,
          "time": 141.67441860463302,
          "velocity": 0.10236220472440945,
          "duration": 0.04651162790696617
        },
        {
          "name": "D#3",
          "midi": 51,
          "time": 141.68604651160976,
          "velocity": 0.33070866141732286,
          "duration": 0.05813953488370771
        },
        {
          "name": "A#3",
          "midi": 58,
          "time": 141.6976744185865,
          "velocity": 0.29133858267716534,
          "duration": 0.06976744186044925
        },
        {
          "name": "D#6",
          "midi": 87,
          "time": 141.6976744185865,
          "velocity": 0.14173228346456693,
          "duration": 0.38372093023255616
        },
        {
          "name": "G3",
          "midi": 55,
          "time": 141.72093023253998,
          "velocity": 0.28346456692913385,
          "duration": 0.023255813953483084
        },
        {
          "name": "D#3",
          "midi": 51,
          "time": 141.7790697674237,
          "velocity": 0.3464566929133858,
          "duration": 0.30232558139536536
        },
        {
          "name": "A#3",
          "midi": 58,
          "time": 141.7790697674237,
          "velocity": 0.2992125984251969,
          "duration": 0.2906976744186238
        },
        {
          "name": "A#4",
          "midi": 70,
          "time": 141.9883720930051,
          "velocity": 0.3228346456692913,
          "duration": 1.3837209302323004
        },
        {
          "name": "B0",
          "midi": 23,
          "time": 142.06976744184232,
          "velocity": 0.5433070866141733,
          "duration": 0.011627906976741542
        },
        {
          "name": "C#1",
          "midi": 25,
          "time": 142.08139534881906,
          "velocity": 0.6377952755905512,
          "duration": 0.011627906976741542
        },
        {
          "name": "D#4",
          "midi": 63,
          "time": 142.08139534881906,
          "velocity": 0.3858267716535433,
          "duration": 0.5116279069766279
        },
        {
          "name": "C#5",
          "midi": 73,
          "time": 142.08139534881906,
          "velocity": 0.13385826771653545,
          "duration": 1.2906976744183396
        },
        {
          "name": "F6",
          "midi": 89,
          "time": 142.08139534881906,
          "velocity": 0.18110236220472442,
          "duration": 0.6744186046510094
        },
        {
          "name": "D1",
          "midi": 26,
          "time": 142.0930232557958,
          "velocity": 0.6850393700787402,
          "duration": 0.011627906976741542
        },
        {
          "name": "F3",
          "midi": 53,
          "time": 142.0930232557958,
          "velocity": 0.47244094488188976,
          "duration": 0.023255813953483084
        },
        {
          "name": "C#1",
          "midi": 25,
          "time": 142.10465116277254,
          "velocity": 0.6929133858267716,
          "duration": 0.011627906976741542
        },
        {
          "name": "B0",
          "midi": 23,
          "time": 142.11627906974928,
          "velocity": 0.6929133858267716,
          "duration": 0.011627906976741542
        },
        {
          "name": "F#3",
          "midi": 54,
          "time": 142.11627906974928,
          "velocity": 0.48031496062992124,
          "duration": 0.023255813953483084
        },
        {
          "name": "A#0",
          "midi": 22,
          "time": 142.12790697672602,
          "velocity": 0.7007874015748031,
          "duration": 0.011627906976741542
        },
        {
          "name": "B0",
          "midi": 23,
          "time": 142.13953488370277,
          "velocity": 0.7244094488188977,
          "duration": 1.255813953488115
        },
        {
          "name": "D#3",
          "midi": 51,
          "time": 142.13953488370277,
          "velocity": 0.47244094488188976,
          "duration": 0.023255813953483084
        },
        {
          "name": "B3",
          "midi": 59,
          "time": 142.16279069765625,
          "velocity": 0.23622047244094488,
          "duration": 0.023255813953483084
        },
        {
          "name": "D#3",
          "midi": 51,
          "time": 142.174418604633,
          "velocity": 0.5275590551181102,
          "duration": 0.06976744186044925
        },
        {
          "name": "D#3",
          "midi": 51,
          "time": 142.25581395347018,
          "velocity": 0.5118110236220472,
          "duration": 0.023255813953483084
        },
        {
          "name": "D#3",
          "midi": 51,
          "time": 142.2906976744004,
          "velocity": 0.5118110236220472,
          "duration": 0.023255813953483084
        },
        {
          "name": "F#4",
          "midi": 66,
          "time": 142.30232558137715,
          "velocity": 0.14960629921259844,
          "duration": 0.24418604651157239
        },
        {
          "name": "D#3",
          "midi": 51,
          "time": 142.33720930230737,
          "velocity": 0.5118110236220472,
          "duration": 0.011627906976741542
        },
        {
          "name": "F#2",
          "midi": 42,
          "time": 142.3488372092841,
          "velocity": 0.44881889763779526,
          "duration": 0.023255813953483084
        },
        {
          "name": "D#3",
          "midi": 51,
          "time": 142.36046511626085,
          "velocity": 0.5039370078740157,
          "duration": 0.04651162790696617
        },
        {
          "name": "D#3",
          "midi": 51,
          "time": 142.41860465114456,
          "velocity": 0.49606299212598426,
          "duration": 0.023255813953483084
        },
        {
          "name": "F#2",
          "midi": 42,
          "time": 142.47674418602827,
          "velocity": 0.44881889763779526,
          "duration": 0.023255813953483084
        },
        {
          "name": "F#2",
          "midi": 42,
          "time": 142.5116279069585,
          "velocity": 0.4251968503937008,
          "duration": 0.023255813953483084
        },
        {
          "name": "D#3",
          "midi": 51,
          "time": 142.52325581393524,
          "velocity": 0.48031496062992124,
          "duration": 0.04651162790696617
        },
        {
          "name": "F#2",
          "midi": 42,
          "time": 142.55813953486546,
          "velocity": 0.4251968503937008,
          "duration": 0.023255813953483084
        },
        {
          "name": "D#3",
          "midi": 51,
          "time": 142.58139534881894,
          "velocity": 0.4566929133858268,
          "duration": 0.023255813953483084
        },
        {
          "name": "F4",
          "midi": 65,
          "time": 142.58139534881894,
          "velocity": 0.2992125984251969,
          "duration": 0.023255813953483084
        },
        {
          "name": "D#4",
          "midi": 63,
          "time": 142.61627906974917,
          "velocity": 0.2992125984251969,
          "duration": 0.0813953488371908
        },
        {
          "name": "F#2",
          "midi": 42,
          "time": 142.6279069767259,
          "velocity": 0.4409448818897638,
          "duration": 0.034883720930224626
        },
        {
          "name": "F#2",
          "midi": 42,
          "time": 142.67441860463288,
          "velocity": 0.4251968503937008,
          "duration": 0.023255813953483084
        },
        {
          "name": "D#3",
          "midi": 51,
          "time": 142.68604651160962,
          "velocity": 0.4251968503937008,
          "duration": 0.023255813953483084
        },
        {
          "name": "D#5",
          "midi": 75,
          "time": 142.7093023255631,
          "velocity": 0.11811023622047244,
          "duration": 0.10465116279067388
        },
        {
          "name": "D7",
          "midi": 98,
          "time": 142.7093023255631,
          "velocity": 0.33858267716535434,
          "duration": 0.11627906976741542
        },
        {
          "name": "F#2",
          "midi": 42,
          "time": 142.72093023253984,
          "velocity": 0.4094488188976378,
          "duration": 0.023255813953483084
        },
        {
          "name": "D#3",
          "midi": 51,
          "time": 142.72093023253984,
          "velocity": 0.41732283464566927,
          "duration": 0.05813953488370771
        },
        {
          "name": "E6",
          "midi": 88,
          "time": 142.72093023253984,
          "velocity": 0.11023622047244094,
          "duration": 0.04651162790696617
        },
        {
          "name": "F#6",
          "midi": 90,
          "time": 142.72093023253984,
          "velocity": 0.18110236220472442,
          "duration": 0.05813953488370771
        },
        {
          "name": "A6",
          "midi": 93,
          "time": 142.72093023253984,
          "velocity": 0.28346456692913385,
          "duration": 0.04651162790696617
        },
        {
          "name": "A#6",
          "midi": 94,
          "time": 142.72093023253984,
          "velocity": 0.2755905511811024,
          "duration": 0.06976744186044925
        },
        {
          "name": "B6",
          "midi": 95,
          "time": 142.72093023253984,
          "velocity": 0.23622047244094488,
          "duration": 0.05813953488370771
        },
        {
          "name": "C7",
          "midi": 96,
          "time": 142.72093023253984,
          "velocity": 0.25196850393700787,
          "duration": 0.09302325581393234
        },
        {
          "name": "D#7",
          "midi": 99,
          "time": 142.72093023253984,
          "velocity": 0.2677165354330709,
          "duration": 0.05813953488370771
        },
        {
          "name": "E7",
          "midi": 100,
          "time": 142.72093023253984,
          "velocity": 0.2047244094488189,
          "duration": 0.0813953488371908
        },
        {
          "name": "C6",
          "midi": 84,
          "time": 142.73255813951658,
          "velocity": 0.10236220472440945,
          "duration": 0.19767441860460622
        },
        {
          "name": "C#7",
          "midi": 97,
          "time": 142.73255813951658,
          "velocity": 0.2755905511811024,
          "duration": 0.05813953488370771
        },
        {
          "name": "F7",
          "midi": 101,
          "time": 142.73255813951658,
          "velocity": 0.2204724409448819,
          "duration": 0.05813953488370771
        },
        {
          "name": "G7",
          "midi": 103,
          "time": 142.73255813951658,
          "velocity": 0.16535433070866143,
          "duration": 0.06976744186044925
        },
        {
          "name": "G#6",
          "midi": 92,
          "time": 142.75581395347007,
          "velocity": 0.25196850393700787,
          "duration": 0.034883720930224626
        },
        {
          "name": "F4",
          "midi": 65,
          "time": 142.7674418604468,
          "velocity": 0.30708661417322836,
          "duration": 0.034883720930224626
        },
        {
          "name": "F6",
          "midi": 89,
          "time": 142.7674418604468,
          "velocity": 0.14960629921259844,
          "duration": 0.6279069767440717
        },
        {
          "name": "F#2",
          "midi": 42,
          "time": 142.7906976744003,
          "velocity": 0.4094488188976378,
          "duration": 0.034883720930224626
        },
        {
          "name": "D#4",
          "midi": 63,
          "time": 142.7906976744003,
          "velocity": 0.2677165354330709,
          "duration": 0.023255813953483084
        },
        {
          "name": "D#4",
          "midi": 63,
          "time": 142.82558139533052,
          "velocity": 0.2992125984251969,
          "duration": 0.05813953488370771
        },
        {
          "name": "D#3",
          "midi": 51,
          "time": 142.848837209284,
          "velocity": 0.3937007874015748,
          "duration": 0.2209302325580893
        },
        {
          "name": "F4",
          "midi": 65,
          "time": 142.87209302323748,
          "velocity": 0.29133858267716534,
          "duration": 0.023255813953483084
        },
        {
          "name": "C4",
          "midi": 60,
          "time": 142.9302325581212,
          "velocity": 0.2283464566929134,
          "duration": 0.023255813953483084
        },
        {
          "name": "F#4",
          "midi": 66,
          "time": 142.9302325581212,
          "velocity": 0.23622047244094488,
          "duration": 0.023255813953483084
        },
        {
          "name": "F#2",
          "midi": 42,
          "time": 142.96511627905141,
          "velocity": 0.3700787401574803,
          "duration": 0.023255813953483084
        },
        {
          "name": "F#4",
          "midi": 66,
          "time": 142.96511627905141,
          "velocity": 0.31496062992125984,
          "duration": 0.4069767441859824
        },
        {
          "name": "F#2",
          "midi": 42,
          "time": 143.0465116278886,
          "velocity": 0.3543307086614173,
          "duration": 0.023255813953483084
        },
        {
          "name": "G2",
          "midi": 43,
          "time": 143.08139534881883,
          "velocity": 0.3543307086614173,
          "duration": 0.023255813953483084
        },
        {
          "name": "D#3",
          "midi": 51,
          "time": 143.08139534881883,
          "velocity": 0.3464566929133858,
          "duration": 0.023255813953483084
        },
        {
          "name": "D#3",
          "midi": 51,
          "time": 143.11627906974905,
          "velocity": 0.36220472440944884,
          "duration": 0.023255813953483084
        },
        {
          "name": "D#3",
          "midi": 51,
          "time": 143.15116279067928,
          "velocity": 0.3700787401574803,
          "duration": 0.06976744186047767
        },
        {
          "name": "F#3",
          "midi": 54,
          "time": 143.24418604649324,
          "velocity": 0.31496062992125984,
          "duration": 0.023255813953483084
        },
        {
          "name": "F#3",
          "midi": 54,
          "time": 143.30232558137695,
          "velocity": 0.25984251968503935,
          "duration": 0.023255813953483084
        },
        {
          "name": "C4",
          "midi": 60,
          "time": 143.36046511626066,
          "velocity": 0.25196850393700787,
          "duration": 0.023255813953483084
        },
        {
          "name": "E6",
          "midi": 88,
          "time": 143.36046511626066,
          "velocity": 0.14960629921259844,
          "duration": 0.034883720930224626
        },
        {
          "name": "A#6",
          "midi": 94,
          "time": 143.36046511626066,
          "velocity": 0.28346456692913385,
          "duration": 0.06976744186044925
        },
        {
          "name": "B6",
          "midi": 95,
          "time": 143.36046511626066,
          "velocity": 0.2755905511811024,
          "duration": 0.034883720930224626
        },
        {
          "name": "C7",
          "midi": 96,
          "time": 143.36046511626066,
          "velocity": 0.25196850393700787,
          "duration": 0.06976744186044925
        },
        {
          "name": "D7",
          "midi": 98,
          "time": 143.36046511626066,
          "velocity": 0.30708661417322836,
          "duration": 0.05813953488370771
        },
        {
          "name": "E7",
          "midi": 100,
          "time": 143.36046511626066,
          "velocity": 0.2125984251968504,
          "duration": 0.0813953488371908
        },
        {
          "name": "D#4",
          "midi": 63,
          "time": 143.3720930232374,
          "velocity": 0.2047244094488189,
          "duration": 0.034883720930224626
        },
        {
          "name": "F#6",
          "midi": 90,
          "time": 143.3720930232374,
          "velocity": 0.1732283464566929,
          "duration": 0.04651162790696617
        },
        {
          "name": "A6",
          "midi": 93,
          "time": 143.3720930232374,
          "velocity": 0.25196850393700787,
          "duration": 0.034883720930224626
        },
        {
          "name": "C#7",
          "midi": 97,
          "time": 143.3720930232374,
          "velocity": 0.2755905511811024,
          "duration": 0.06976744186044925
        },
        {
          "name": "D#7",
          "midi": 99,
          "time": 143.3720930232374,
          "velocity": 0.28346456692913385,
          "duration": 0.04651162790696617
        },
        {
          "name": "F7",
          "midi": 101,
          "time": 143.3720930232374,
          "velocity": 0.25196850393700787,
          "duration": 0.05813953488370771
        },
        {
          "name": "A#0",
          "midi": 22,
          "time": 143.39534883719088,
          "velocity": 0.5590551181102362,
          "duration": 0.011627906976741542
        },
        {
          "name": "B0",
          "midi": 23,
          "time": 143.40697674416762,
          "velocity": 0.5590551181102362,
          "duration": 0.011627906976741542
        },
        {
          "name": "F3",
          "midi": 53,
          "time": 143.40697674416762,
          "velocity": 0.3228346456692913,
          "duration": 0.16279069767441
        },
        {
          "name": "G4",
          "midi": 67,
          "time": 143.40697674416762,
          "velocity": 0.25196850393700787,
          "duration": 0.023255813953483084
        },
        {
          "name": "C1",
          "midi": 24,
          "time": 143.41860465114436,
          "velocity": 0.5590551181102362,
          "duration": 0.011627906976741542
        },
        {
          "name": "B0",
          "midi": 23,
          "time": 143.4302325581211,
          "velocity": 0.5590551181102362,
          "duration": 0.3953488372092977
        },
        {
          "name": "G#4",
          "midi": 68,
          "time": 143.4302325581211,
          "velocity": 0.25196850393700787,
          "duration": 0.3604651162790731
        },
        {
          "name": "D#6",
          "midi": 87,
          "time": 143.44186046509785,
          "velocity": 0.08661417322834646,
          "duration": 0.34883720930233153
        },
        {
          "name": "F#3",
          "midi": 54,
          "time": 143.56976744184203,
          "velocity": 0.29133858267716534,
          "duration": 0.22093023255814614
        },
        {
          "name": "C#5",
          "midi": 73,
          "time": 143.59302325579552,
          "velocity": 0.09448818897637795,
          "duration": 0.19767441860466306
        },
        {
          "name": "A3",
          "midi": 57,
          "time": 143.79069767440018,
          "velocity": 0.25196850393700787,
          "duration": 0.023255813953483084
        },
        {
          "name": "G#3",
          "midi": 56,
          "time": 143.81395348835366,
          "velocity": 0.29133858267716534,
          "duration": 0.1860465116278931
        },
        {
          "name": "D#5",
          "midi": 75,
          "time": 143.81395348835366,
          "velocity": 0.1889763779527559,
          "duration": 0.1860465116278931
        },
        {
          "name": "A4",
          "midi": 69,
          "time": 143.83720930230714,
          "velocity": 0.25984251968503935,
          "duration": 0.023255813953483084
        },
        {
          "name": "B0",
          "midi": 23,
          "time": 143.86046511626063,
          "velocity": 0.3858267716535433,
          "duration": 0.13953488372092693
        },
        {
          "name": "A#4",
          "midi": 70,
          "time": 143.86046511626063,
          "velocity": 0.2440944881889764,
          "duration": 0.3720930232558146
        },
        {
          "name": "E4",
          "midi": 64,
          "time": 143.9302325581211,
          "velocity": 0.15748031496062992,
          "duration": 0.04651162790696617
        },
        {
          "name": "A#3",
          "midi": 58,
          "time": 144.02325581393504,
          "velocity": 0.48031496062992124,
          "duration": 0.24418604651162923
        },
        {
          "name": "F5",
          "midi": 77,
          "time": 144.02325581393504,
          "velocity": 0.3700787401574803,
          "duration": 0.6395348837208985
        },
        {
          "name": "F#1",
          "midi": 30,
          "time": 144.2209302325397,
          "velocity": 0.6535433070866141,
          "duration": 0.023255813953483084
        },
        {
          "name": "D3",
          "midi": 50,
          "time": 144.23255813951644,
          "velocity": 0.4330708661417323,
          "duration": 0.034883720930224626
        },
        {
          "name": "G#4",
          "midi": 68,
          "time": 144.23255813951644,
          "velocity": 0.2677165354330709,
          "duration": 1.2674418604649986
        },
        {
          "name": "D#6",
          "midi": 87,
          "time": 144.23255813951644,
          "velocity": 0.14173228346456693,
          "duration": 1.2674418604649986
        },
        {
          "name": "F1",
          "midi": 29,
          "time": 144.24418604649318,
          "velocity": 0.6850393700787402,
          "duration": 0.011627906976741542
        },
        {
          "name": "D#4",
          "midi": 63,
          "time": 144.24418604649318,
          "velocity": 0.23622047244094488,
          "duration": 0.13953488372092693
        },
        {
          "name": "D#1",
          "midi": 27,
          "time": 144.25581395346993,
          "velocity": 0.7165354330708661,
          "duration": 1.2441860465115155
        },
        {
          "name": "A#2",
          "midi": 46,
          "time": 144.2790697674234,
          "velocity": 0.3937007874015748,
          "duration": 0.2093023255814046
        },
        {
          "name": "G3",
          "midi": 55,
          "time": 144.2790697674234,
          "velocity": 0.48031496062992124,
          "duration": 0.6627906976743532
        },
        {
          "name": "A#4",
          "midi": 70,
          "time": 144.36046511626063,
          "velocity": 0.13385826771653545,
          "duration": 0.04651162790696617
        },
        {
          "name": "A#4",
          "midi": 70,
          "time": 144.41860465114434,
          "velocity": 0.13385826771653545,
          "duration": 0.12790697674418539
        },
        {
          "name": "A#2",
          "midi": 46,
          "time": 144.49999999998155,
          "velocity": 0.3937007874015748,
          "duration": 0.04651162790696617
        },
        {
          "name": "A#2",
          "midi": 46,
          "time": 144.55813953486526,
          "velocity": 0.3937007874015748,
          "duration": 0.05813953488370771
        },
        {
          "name": "A#4",
          "midi": 70,
          "time": 144.55813953486526,
          "velocity": 0.11811023622047244,
          "duration": 0.09302325581393234
        },
        {
          "name": "A#2",
          "midi": 46,
          "time": 144.6279069767257,
          "velocity": 0.3779527559055118,
          "duration": 0.023255813953483084
        },
        {
          "name": "B4",
          "midi": 71,
          "time": 144.6511627906792,
          "velocity": 0.3464566929133858,
          "duration": 0.2674418604650839
        },
        {
          "name": "A#2",
          "midi": 46,
          "time": 144.68604651160942,
          "velocity": 0.3858267716535433,
          "duration": 0.09302325581396076
        },
        {
          "name": "A#2",
          "midi": 46,
          "time": 144.8139534883536,
          "velocity": 0.3700787401574803,
          "duration": 0.034883720930224626
        },
        {
          "name": "A#2",
          "midi": 46,
          "time": 144.86046511626057,
          "velocity": 0.3464566929133858,
          "duration": 0.04651162790696617
        },
        {
          "name": "A#4",
          "midi": 70,
          "time": 144.91860465114428,
          "velocity": 0.07874015748031496,
          "duration": 0.034883720930224626
        },
        {
          "name": "A#2",
          "midi": 46,
          "time": 144.94186046509776,
          "velocity": 0.33070866141732286,
          "duration": 0.034883720930224626
        },
        {
          "name": "G3",
          "midi": 55,
          "time": 144.9534883720745,
          "velocity": 0.31496062992125984,
          "duration": 0.09302325581393234
        },
        {
          "name": "A#2",
          "midi": 46,
          "time": 144.98837209300473,
          "velocity": 0.2992125984251969,
          "duration": 0.04651162790696617
        },
        {
          "name": "A#3",
          "midi": 58,
          "time": 145.05813953486518,
          "velocity": 0.23622047244094488,
          "duration": 0.023255813953483084
        },
        {
          "name": "G3",
          "midi": 55,
          "time": 145.08139534881866,
          "velocity": 0.2677165354330709,
          "duration": 0.023255813953483084
        },
        {
          "name": "A#4",
          "midi": 70,
          "time": 145.08139534881866,
          "velocity": 0.3464566929133858,
          "duration": 1.7209302325579188
        },
        {
          "name": "A#6",
          "midi": 94,
          "time": 145.08139534881866,
          "velocity": 0.25196850393700787,
          "duration": 0.06976744186044925
        },
        {
          "name": "B6",
          "midi": 95,
          "time": 145.08139534881866,
          "velocity": 0.23622047244094488,
          "duration": 0.034883720930224626
        },
        {
          "name": "C7",
          "midi": 96,
          "time": 145.08139534881866,
          "velocity": 0.23622047244094488,
          "duration": 0.05813953488370771
        },
        {
          "name": "D7",
          "midi": 98,
          "time": 145.08139534881866,
          "velocity": 0.2755905511811024,
          "duration": 0.05813953488370771
        },
        {
          "name": "D#7",
          "midi": 99,
          "time": 145.08139534881866,
          "velocity": 0.2677165354330709,
          "duration": 0.05813953488370771
        },
        {
          "name": "E7",
          "midi": 100,
          "time": 145.08139534881866,
          "velocity": 0.18110236220472442,
          "duration": 0.06976744186044925
        },
        {
          "name": "E4",
          "midi": 64,
          "time": 145.0930232557954,
          "velocity": 0.2125984251968504,
          "duration": 0.04651162790696617
        },
        {
          "name": "F#6",
          "midi": 90,
          "time": 145.0930232557954,
          "velocity": 0.13385826771653545,
          "duration": 0.04651162790696617
        },
        {
          "name": "A6",
          "midi": 93,
          "time": 145.0930232557954,
          "velocity": 0.25196850393700787,
          "duration": 0.023255813953483084
        },
        {
          "name": "C#7",
          "midi": 97,
          "time": 145.0930232557954,
          "velocity": 0.2440944881889764,
          "duration": 0.05813953488370771
        },
        {
          "name": "F7",
          "midi": 101,
          "time": 145.0930232557954,
          "velocity": 0.2283464566929134,
          "duration": 0.05813953488370771
        },
        {
          "name": "F#7",
          "midi": 102,
          "time": 145.0930232557954,
          "velocity": 0.1889763779527559,
          "duration": 0.04651162790696617
        },
        {
          "name": "A#2",
          "midi": 46,
          "time": 145.11627906974888,
          "velocity": 0.25196850393700787,
          "duration": 0.023255813953483084
        },
        {
          "name": "A#3",
          "midi": 58,
          "time": 145.16279069765585,
          "velocity": 0.25196850393700787,
          "duration": 0.34883720930233153
        },
        {
          "name": "D#3",
          "midi": 51,
          "time": 145.18604651160933,
          "velocity": 0.3464566929133858,
          "duration": 0.32558139534884845
        },
        {
          "name": "C1",
          "midi": 24,
          "time": 145.51162790695818,
          "velocity": 0.5669291338582677,
          "duration": 0.011627906976741542
        },
        {
          "name": "D#4",
          "midi": 63,
          "time": 145.51162790695818,
          "velocity": 0.33858267716535434,
          "duration": 0.49999999999991473
        },
        {
          "name": "D1",
          "midi": 26,
          "time": 145.52325581393492,
          "velocity": 0.6535433070866141,
          "duration": 0.023255813953483084
        },
        {
          "name": "A2",
          "midi": 45,
          "time": 145.52325581393492,
          "velocity": 0.3700787401574803,
          "duration": 0.034883720930224626
        },
        {
          "name": "F3",
          "midi": 53,
          "time": 145.52325581393492,
          "velocity": 0.4251968503937008,
          "duration": 0.023255813953483084
        },
        {
          "name": "C#5",
          "midi": 73,
          "time": 145.52325581393492,
          "velocity": 0.09448818897637795,
          "duration": 0.6279069767440717
        },
        {
          "name": "F6",
          "midi": 89,
          "time": 145.52325581393492,
          "velocity": 0.09448818897637795,
          "duration": 0.6511627906975548
        },
        {
          "name": "F#4",
          "midi": 66,
          "time": 145.53488372091167,
          "velocity": 0.14173228346456693,
          "duration": 0.4302325581394655
        },
        {
          "name": "B0",
          "midi": 23,
          "time": 145.5465116278884,
          "velocity": 0.6771653543307087,
          "duration": 1.9186046511625534
        },
        {
          "name": "F#3",
          "midi": 54,
          "time": 145.5465116278884,
          "velocity": 0.41732283464566927,
          "duration": 0.023255813953483084
        },
        {
          "name": "D#3",
          "midi": 51,
          "time": 145.5697674418419,
          "velocity": 0.4251968503937008,
          "duration": 0.023255813953483084
        },
        {
          "name": "D#3",
          "midi": 51,
          "time": 145.6279069767256,
          "velocity": 0.4409448818897638,
          "duration": 0.023255813953483084
        },
        {
          "name": "F#2",
          "midi": 42,
          "time": 145.65116279067908,
          "velocity": 0.4015748031496063,
          "duration": 0.023255813953483084
        },
        {
          "name": "D#3",
          "midi": 51,
          "time": 145.66279069765582,
          "velocity": 0.47244094488188976,
          "duration": 0.290697674418567
        },
        {
          "name": "F#2",
          "midi": 42,
          "time": 145.76744186044652,
          "velocity": 0.4015748031496063,
          "duration": 0.023255813953483084
        },
        {
          "name": "F#2",
          "midi": 42,
          "time": 145.8139534883535,
          "velocity": 0.4094488188976378,
          "duration": 0.023255813953483084
        },
        {
          "name": "F#2",
          "midi": 42,
          "time": 145.89534883719068,
          "velocity": 0.3858267716535433,
          "duration": 0.023255813953483084
        },
        {
          "name": "F#2",
          "midi": 42,
          "time": 145.9302325581209,
          "velocity": 0.3937007874015748,
          "duration": 0.023255813953483084
        },
        {
          "name": "D#3",
          "midi": 51,
          "time": 145.96511627905113,
          "velocity": 0.4330708661417323,
          "duration": 0.023255813953483084
        },
        {
          "name": "D#3",
          "midi": 51,
          "time": 145.99999999998136,
          "velocity": 0.4251968503937008,
          "duration": 0.023255813953483084
        },
        {
          "name": "D#4",
          "midi": 63,
          "time": 146.02325581393484,
          "velocity": 0.2677165354330709,
          "duration": 0.09302325581393234
        },
        {
          "name": "D#3",
          "midi": 51,
          "time": 146.03488372091158,
          "velocity": 0.41732283464566927,
          "duration": 0.023255813953483084
        },
        {
          "name": "F#2",
          "midi": 42,
          "time": 146.05813953486506,
          "velocity": 0.3858267716535433,
          "duration": 0.05813953488370771
        },
        {
          "name": "D#3",
          "midi": 51,
          "time": 146.0697674418418,
          "velocity": 0.4094488188976378,
          "duration": 0.04651162790696617
        },
        {
          "name": "F4",
          "midi": 65,
          "time": 146.11627906974877,
          "velocity": 0.25984251968503935,
          "duration": 0.023255813953483084
        },
        {
          "name": "D#3",
          "midi": 51,
          "time": 146.1279069767255,
          "velocity": 0.3779527559055118,
          "duration": 0.023255813953483084
        },
        {
          "name": "B6",
          "midi": 95,
          "time": 146.151162790679,
          "velocity": 0.2283464566929134,
          "duration": 0.034883720930224626
        },
        {
          "name": "D7",
          "midi": 98,
          "time": 146.151162790679,
          "velocity": 0.29133858267716534,
          "duration": 0.05813953488370771
        },
        {
          "name": "D#7",
          "midi": 99,
          "time": 146.151162790679,
          "velocity": 0.25196850393700787,
          "duration": 0.05813953488370771
        },
        {
          "name": "A#6",
          "midi": 94,
          "time": 146.16279069765574,
          "velocity": 0.23622047244094488,
          "duration": 0.05813953488370771
        },
        {
          "name": "C7",
          "midi": 96,
          "time": 146.16279069765574,
          "velocity": 0.2283464566929134,
          "duration": 0.05813953488370771
        },
        {
          "name": "C#7",
          "midi": 97,
          "time": 146.16279069765574,
          "velocity": 0.2440944881889764,
          "duration": 0.05813953488370771
        },
        {
          "name": "E7",
          "midi": 100,
          "time": 146.16279069765574,
          "velocity": 0.1732283464566929,
          "duration": 0.05813953488370771
        },
        {
          "name": "F7",
          "midi": 101,
          "time": 146.16279069765574,
          "velocity": 0.2204724409448819,
          "duration": 0.06976744186044925
        },
        {
          "name": "F#7",
          "midi": 102,
          "time": 146.16279069765574,
          "velocity": 0.11811023622047244,
          "duration": 0.034883720930224626
        },
        {
          "name": "G7",
          "midi": 103,
          "time": 146.16279069765574,
          "velocity": 0.12598425196850394,
          "duration": 0.05813953488370771
        },
        {
          "name": "G#6",
          "midi": 92,
          "time": 146.17441860463248,
          "velocity": 0.1732283464566929,
          "duration": 0.034883720930224626
        },
        {
          "name": "F6",
          "midi": 89,
          "time": 146.18604651160922,
          "velocity": 0.14960629921259844,
          "duration": 0.604651162790617
        },
        {
          "name": "F4",
          "midi": 65,
          "time": 146.2093023255627,
          "velocity": 0.25196850393700787,
          "duration": 0.034883720930224626
        },
        {
          "name": "F#2",
          "midi": 42,
          "time": 146.22093023253944,
          "velocity": 0.3464566929133858,
          "duration": 0.023255813953483084
        },
        {
          "name": "D#4",
          "midi": 63,
          "time": 146.2325581395162,
          "velocity": 0.25984251968503935,
          "duration": 0.06976744186044925
        },
        {
          "name": "F4",
          "midi": 65,
          "time": 146.30232558137664,
          "velocity": 0.23622047244094488,
          "duration": 0.023255813953483084
        },
        {
          "name": "D#4",
          "midi": 63,
          "time": 146.31395348835338,
          "velocity": 0.25984251968503935,
          "duration": 0.10465116279067388
        },
        {
          "name": "F#2",
          "midi": 42,
          "time": 146.37209302323708,
          "velocity": 0.33858267716535434,
          "duration": 0.034883720930224626
        },
        {
          "name": "F#4",
          "midi": 66,
          "time": 146.41860465114405,
          "velocity": 0.25984251968503935,
          "duration": 0.3953488372092693
        },
        {
          "name": "D#4",
          "midi": 63,
          "time": 146.4302325581208,
          "velocity": 0.2204724409448819,
          "duration": 0.36046511627904465
        },
        {
          "name": "E3",
          "midi": 52,
          "time": 146.45348837207428,
          "velocity": 0.3228346456692913,
          "duration": 0.023255813953483084
        },
        {
          "name": "F#2",
          "midi": 42,
          "time": 146.54651162788824,
          "velocity": 0.2755905511811024,
          "duration": 0.023255813953483084
        },
        {
          "name": "G2",
          "midi": 43,
          "time": 146.66279069765568,
          "velocity": 0.29133858267716534,
          "duration": 0.023255813953483084
        },
        {
          "name": "C3",
          "midi": 48,
          "time": 146.67441860463242,
          "velocity": 0.29133858267716534,
          "duration": 0.023255813953483084
        },
        {
          "name": "F#2",
          "midi": 42,
          "time": 146.70930232556265,
          "velocity": 0.2283464566929134,
          "duration": 0.023255813953483084
        },
        {
          "name": "A6",
          "midi": 93,
          "time": 146.80232558137658,
          "velocity": 0.2204724409448819,
          "duration": 0.05813953488370771
        },
        {
          "name": "A#6",
          "midi": 94,
          "time": 146.80232558137658,
          "velocity": 0.2283464566929134,
          "duration": 0.05813953488370771
        },
        {
          "name": "B6",
          "midi": 95,
          "time": 146.80232558137658,
          "velocity": 0.2283464566929134,
          "duration": 0.023255813953483084
        },
        {
          "name": "C7",
          "midi": 96,
          "time": 146.80232558137658,
          "velocity": 0.2204724409448819,
          "duration": 0.05813953488370771
        },
        {
          "name": "D7",
          "midi": 98,
          "time": 146.80232558137658,
          "velocity": 0.25984251968503935,
          "duration": 0.04651162790696617
        },
        {
          "name": "D#7",
          "midi": 99,
          "time": 146.80232558137658,
          "velocity": 0.2283464566929134,
          "duration": 0.04651162790696617
        },
        {
          "name": "E7",
          "midi": 100,
          "time": 146.80232558137658,
          "velocity": 0.16535433070866143,
          "duration": 0.06976744186044925
        },
        {
          "name": "F7",
          "midi": 101,
          "time": 146.80232558137658,
          "velocity": 0.1968503937007874,
          "duration": 0.05813953488370771
        },
        {
          "name": "F#7",
          "midi": 102,
          "time": 146.80232558137658,
          "velocity": 0.14960629921259844,
          "duration": 0.04651162790696617
        },
        {
          "name": "C#7",
          "midi": 97,
          "time": 146.81395348835332,
          "velocity": 0.2204724409448819,
          "duration": 0.05813953488370771
        },
        {
          "name": "F#3",
          "midi": 54,
          "time": 146.82558139533006,
          "velocity": 0.25984251968503935,
          "duration": 0.17441860465115155
        },
        {
          "name": "G#4",
          "midi": 68,
          "time": 146.8604651162603,
          "velocity": 0.2047244094488189,
          "duration": 0.3604651162790731
        },
        {
          "name": "F3",
          "midi": 53,
          "time": 147.0232558139347,
          "velocity": 0.25984251968503935,
          "duration": 0.19767441860466306
        },
        {
          "name": "D#3",
          "midi": 51,
          "time": 147.24418604649284,
          "velocity": 0.25196850393700787,
          "duration": 0.1860465116278931
        },
        {
          "name": "A4",
          "midi": 69,
          "time": 147.26744186044633,
          "velocity": 0.2283464566929134,
          "duration": 0.023255813953483084
        },
        {
          "name": "A#4",
          "midi": 70,
          "time": 147.2906976743998,
          "velocity": 0.1968503937007874,
          "duration": 0.3720930232557862
        },
        {
          "name": "C#3",
          "midi": 49,
          "time": 147.46511627905096,
          "velocity": 0.2204724409448819,
          "duration": 0.1860465116278931
        },
        {
          "name": "G#4",
          "midi": 68,
          "time": 147.52325581393467,
          "velocity": 0.07086614173228346,
          "duration": 0.04651162790696617
        },
        {
          "name": "C3",
          "midi": 48,
          "time": 147.65116279067885,
          "velocity": 0.29133858267716534,
          "duration": 0.034883720930224626
        },
        {
          "name": "F5",
          "midi": 77,
          "time": 147.65116279067885,
          "velocity": 0.30708661417322836,
          "duration": 0.27906976744182543
        },
        {
          "name": "F#1",
          "midi": 30,
          "time": 147.6627906976556,
          "velocity": 0.5826771653543307,
          "duration": 0.011627906976741542
        },
        {
          "name": "A#3",
          "midi": 58,
          "time": 147.6627906976556,
          "velocity": 0.4094488188976378,
          "duration": 0.05813953488370771
        },
        {
          "name": "G#4",
          "midi": 68,
          "time": 147.6627906976556,
          "velocity": 0.2440944881889764,
          "duration": 1.1046511627905602
        },
        {
          "name": "F1",
          "midi": 29,
          "time": 147.67441860463234,
          "velocity": 0.6377952755905512,
          "duration": 0.011627906976741542
        },
        {
          "name": "D#4",
          "midi": 63,
          "time": 147.67441860463234,
          "velocity": 0.16535433070866143,
          "duration": 0.06976744186044925
        },
        {
          "name": "E1",
          "midi": 28,
          "time": 147.68604651160908,
          "velocity": 0.6377952755905512,
          "duration": 0.011627906976741542
        },
        {
          "name": "D#1",
          "midi": 27,
          "time": 147.69767441858582,
          "velocity": 0.6614173228346457,
          "duration": 1.2325581395347456
        },
        {
          "name": "G3",
          "midi": 55,
          "time": 147.70930232556256,
          "velocity": 0.4251968503937008,
          "duration": 0.8139534883719932
        },
        {
          "name": "A#2",
          "midi": 46,
          "time": 147.73255813951604,
          "velocity": 0.33070866141732286,
          "duration": 0.023255813953483084
        },
        {
          "name": "A#3",
          "midi": 58,
          "time": 147.73255813951604,
          "velocity": 0.33858267716535434,
          "duration": 0.023255813953483084
        },
        {
          "name": "A#2",
          "midi": 46,
          "time": 147.79069767439975,
          "velocity": 0.3464566929133858,
          "duration": 0.11627906976744384
        },
        {
          "name": "A#2",
          "midi": 46,
          "time": 147.91860465114394,
          "velocity": 0.3464566929133858,
          "duration": 0.30232558139533694
        },
        {
          "name": "B4",
          "midi": 71,
          "time": 148.08139534881835,
          "velocity": 0.29133858267716534,
          "duration": 0.25581395348834235
        },
        {
          "name": "A#2",
          "midi": 46,
          "time": 148.23255813951602,
          "velocity": 0.30708661417322836,
          "duration": 0.05813953488370771
        },
        {
          "name": "A#2",
          "midi": 46,
          "time": 148.30232558137646,
          "velocity": 0.29133858267716534,
          "duration": 0.04651162790696617
        },
        {
          "name": "A#2",
          "midi": 46,
          "time": 148.36046511626017,
          "velocity": 0.2755905511811024,
          "duration": 0.05813953488370771
        },
        {
          "name": "A#2",
          "midi": 46,
          "time": 148.43023255812062,
          "velocity": 0.2440944881889764,
          "duration": 0.023255813953483084
        },
        {
          "name": "A#2",
          "midi": 46,
          "time": 148.48837209300433,
          "velocity": 0.2440944881889764,
          "duration": 0.034883720930224626
        },
        {
          "name": "A#4",
          "midi": 70,
          "time": 148.5116279069578,
          "velocity": 0.28346456692913385,
          "duration": 0.5232558139534262
        },
        {
          "name": "B6",
          "midi": 95,
          "time": 148.5116279069578,
          "velocity": 0.1968503937007874,
          "duration": 0.05813953488370771
        },
        {
          "name": "D7",
          "midi": 98,
          "time": 148.5116279069578,
          "velocity": 0.2283464566929134,
          "duration": 0.04651162790696617
        },
        {
          "name": "E7",
          "midi": 100,
          "time": 148.5116279069578,
          "velocity": 0.07874015748031496,
          "duration": 0.034883720930224626
        },
        {
          "name": "A#3",
          "midi": 58,
          "time": 148.52325581393455,
          "velocity": 0.2047244094488189,
          "duration": 0.04651162790696617
        },
        {
          "name": "E4",
          "midi": 64,
          "time": 148.52325581393455,
          "velocity": 0.1732283464566929,
          "duration": 0.034883720930224626
        },
        {
          "name": "A6",
          "midi": 93,
          "time": 148.52325581393455,
          "velocity": 0.1732283464566929,
          "duration": 0.034883720930224626
        },
        {
          "name": "A#6",
          "midi": 94,
          "time": 148.52325581393455,
          "velocity": 0.2125984251968504,
          "duration": 0.05813953488370771
        },
        {
          "name": "C7",
          "midi": 96,
          "time": 148.52325581393455,
          "velocity": 0.2204724409448819,
          "duration": 0.0813953488371908
        },
        {
          "name": "C#7",
          "midi": 97,
          "time": 148.52325581393455,
          "velocity": 0.2125984251968504,
          "duration": 0.05813953488370771
        },
        {
          "name": "D#7",
          "midi": 99,
          "time": 148.52325581393455,
          "velocity": 0.1968503937007874,
          "duration": 0.04651162790696617
        },
        {
          "name": "F7",
          "midi": 101,
          "time": 148.52325581393455,
          "velocity": 0.1968503937007874,
          "duration": 0.04651162790696617
        },
        {
          "name": "A#2",
          "midi": 46,
          "time": 148.6162790697485,
          "velocity": 0.2204724409448819,
          "duration": 0.034883720930224626
        },
        {
          "name": "D#3",
          "midi": 51,
          "time": 148.63953488370197,
          "velocity": 0.2125984251968504,
          "duration": 0.30232558139533694
        },
        {
          "name": "G#4",
          "midi": 68,
          "time": 148.80232558137638,
          "velocity": 0.1968503937007874,
          "duration": 0.12790697674418539
        },
        {
          "name": "F3",
          "midi": 53,
          "time": 148.9418604650973,
          "velocity": 0.33858267716535434,
          "duration": 0.034883720930224626
        },
        {
          "name": "C#1",
          "midi": 25,
          "time": 148.95348837207405,
          "velocity": 0.5590551181102362,
          "duration": 0.011627906976741542
        },
        {
          "name": "B3",
          "midi": 59,
          "time": 148.95348837207405,
          "velocity": 0.14960629921259844,
          "duration": 0.034883720930224626
        },
        {
          "name": "D1",
          "midi": 26,
          "time": 148.9651162790508,
          "velocity": 0.5984251968503937,
          "duration": 0.011627906976741542
        },
        {
          "name": "D#4",
          "midi": 63,
          "time": 148.9651162790508,
          "velocity": 0.23622047244094488,
          "duration": 0.45348837209292014
        },
        {
          "name": "C1",
          "midi": 24,
          "time": 148.97674418602753,
          "velocity": 0.5905511811023622,
          "duration": 0.011627906976741542
        },
        {
          "name": "B0",
          "midi": 23,
          "time": 148.98837209300427,
          "velocity": 0.6220472440944882,
          "duration": 0.20930232558134776
        },
        {
          "name": "D#3",
          "midi": 51,
          "time": 149.0232558139345,
          "velocity": 0.4015748031496063,
          "duration": 0.023255813953483084
        },
        {
          "name": "D#3",
          "midi": 51,
          "time": 149.05813953486472,
          "velocity": 0.41732283464566927,
          "duration": 0.11627906976741542
        },
        {
          "name": "A#5",
          "midi": 82,
          "time": 149.0813953488182,
          "velocity": 0.10236220472440945,
          "duration": 0.05813953488370771
        },
        {
          "name": "A#4",
          "midi": 70,
          "time": 149.1395348837019,
          "velocity": 0.07086614173228346,
          "duration": 0.09302325581393234
        },
        {
          "name": "F#2",
          "midi": 42,
          "time": 149.15116279067865,
          "velocity": 0.33858267716535434,
          "duration": 0.023255813953483084
        },
        {
          "name": "B3",
          "midi": 59,
          "time": 149.17441860463214,
          "velocity": 0.07086614173228346,
          "duration": 0.06976744186044925
        },
        {
          "name": "D#3",
          "midi": 51,
          "time": 149.18604651160888,
          "velocity": 0.4015748031496063,
          "duration": 0.023255813953483084
        },
        {
          "name": "C1",
          "midi": 24,
          "time": 149.19767441858562,
          "velocity": 0.6141732283464567,
          "duration": 0.011627906976741542
        },
        {
          "name": "A#5",
          "midi": 82,
          "time": 149.19767441858562,
          "velocity": 0.10236220472440945,
          "duration": 0.06976744186044925
        },
        {
          "name": "B0",
          "midi": 23,
          "time": 149.20930232556236,
          "velocity": 0.6141732283464567,
          "duration": 1.011627906976571
        },
        {
          "name": "D#3",
          "midi": 51,
          "time": 149.2209302325391,
          "velocity": 0.4094488188976378,
          "duration": 0.29069767441853855
        },
        {
          "name": "F#2",
          "midi": 42,
          "time": 149.31395348835304,
          "velocity": 0.33858267716535434,
          "duration": 0.023255813953483084
        },
        {
          "name": "A#5",
          "midi": 82,
          "time": 149.32558139532978,
          "velocity": 0.09448818897637795,
          "duration": 0.09302325581393234
        },
        {
          "name": "A#4",
          "midi": 70,
          "time": 149.37209302323674,
          "velocity": 0.1732283464566929,
          "duration": 0.8720930232556725
        },
        {
          "name": "E4",
          "midi": 64,
          "time": 149.4186046511437,
          "velocity": 0.23622047244094488,
          "duration": 0.023255813953483084
        },
        {
          "name": "F#2",
          "midi": 42,
          "time": 149.4418604650972,
          "velocity": 0.33858267716535434,
          "duration": 0.023255813953483084
        },
        {
          "name": "F#2",
          "midi": 42,
          "time": 149.47674418602742,
          "velocity": 0.3228346456692913,
          "duration": 0.023255813953483084
        },
        {
          "name": "F#2",
          "midi": 42,
          "time": 149.52325581393438,
          "velocity": 0.3228346456692913,
          "duration": 0.023255813953483084
        },
        {
          "name": "D#3",
          "midi": 51,
          "time": 149.52325581393438,
          "velocity": 0.3464566929133858,
          "duration": 0.05813953488370771
        },
        {
          "name": "F4",
          "midi": 65,
          "time": 149.54651162788787,
          "velocity": 0.2047244094488189,
          "duration": 0.034883720930224626
        },
        {
          "name": "F#2",
          "midi": 42,
          "time": 149.59302325579483,
          "velocity": 0.3228346456692913,
          "duration": 0.034883720930224626
        },
        {
          "name": "D#3",
          "midi": 51,
          "time": 149.59302325579483,
          "velocity": 0.31496062992125984,
          "duration": 0.04651162790696617
        },
        {
          "name": "A6",
          "midi": 93,
          "time": 149.59302325579483,
          "velocity": 0.1732283464566929,
          "duration": 0.05813953488370771
        },
        {
          "name": "A#6",
          "midi": 94,
          "time": 149.59302325579483,
          "velocity": 0.18110236220472442,
          "duration": 0.04651162790696617
        },
        {
          "name": "B6",
          "midi": 95,
          "time": 149.59302325579483,
          "velocity": 0.16535433070866143,
          "duration": 0.04651162790696617
        },
        {
          "name": "D7",
          "midi": 98,
          "time": 149.59302325579483,
          "velocity": 0.1732283464566929,
          "duration": 0.034883720930224626
        },
        {
          "name": "D#7",
          "midi": 99,
          "time": 149.59302325579483,
          "velocity": 0.15748031496062992,
          "duration": 0.04651162790696617
        },
        {
          "name": "E7",
          "midi": 100,
          "time": 149.59302325579483,
          "velocity": 0.12598425196850394,
          "duration": 0.05813953488370771
        },
        {
          "name": "F4",
          "midi": 65,
          "time": 149.60465116277157,
          "velocity": 0.1889763779527559,
          "duration": 0.05813953488370771
        },
        {
          "name": "C7",
          "midi": 96,
          "time": 149.60465116277157,
          "velocity": 0.14173228346456693,
          "duration": 0.034883720930224626
        },
        {
          "name": "C#7",
          "midi": 97,
          "time": 149.60465116277157,
          "velocity": 0.1732283464566929,
          "duration": 0.04651162790696617
        },
        {
          "name": "F7",
          "midi": 101,
          "time": 149.60465116277157,
          "velocity": 0.15748031496062992,
          "duration": 0.04651162790696617
        },
        {
          "name": "F#2",
          "midi": 42,
          "time": 149.6395348837018,
          "velocity": 0.2992125984251969,
          "duration": 0.023255813953483084
        },
        {
          "name": "D#3",
          "midi": 51,
          "time": 149.65116279067854,
          "velocity": 0.30708661417322836,
          "duration": 0.023255813953483084
        },
        {
          "name": "F#2",
          "midi": 42,
          "time": 149.68604651160877,
          "velocity": 0.29133858267716534,
          "duration": 0.023255813953483084
        },
        {
          "name": "D#3",
          "midi": 51,
          "time": 149.68604651160877,
          "velocity": 0.29133858267716534,
          "duration": 0.023255813953483084
        },
        {
          "name": "D#4",
          "midi": 63,
          "time": 149.75581395346921,
          "velocity": 0.25196850393700787,
          "duration": 0.4883720930232016
        },
        {
          "name": "F#2",
          "midi": 42,
          "time": 149.76744186044596,
          "velocity": 0.28346456692913385,
          "duration": 0.023255813953483084
        },
        {
          "name": "F#2",
          "midi": 42,
          "time": 149.80232558137618,
          "velocity": 0.25984251968503935,
          "duration": 0.023255813953483084
        },
        {
          "name": "F#4",
          "midi": 66,
          "time": 149.84883720928315,
          "velocity": 0.2283464566929134,
          "duration": 0.4302325581394939
        },
        {
          "name": "F#2",
          "midi": 42,
          "time": 149.93023255812037,
          "velocity": 0.2440944881889764,
          "duration": 0.023255813953483084
        },
        {
          "name": "G2",
          "midi": 43,
          "time": 150.0465116278878,
          "velocity": 0.2283464566929134,
          "duration": 0.023255813953483084
        },
        {
          "name": "F#3",
          "midi": 54,
          "time": 150.127906976725,
          "velocity": 0.2204724409448819,
          "duration": 0.04651162790696617
        },
        {
          "name": "B0",
          "midi": 23,
          "time": 150.23255813951567,
          "velocity": 0.4566929133858268,
          "duration": 0.65116279069764
        },
        {
          "name": "A#6",
          "midi": 94,
          "time": 150.23255813951567,
          "velocity": 0.14173228346456693,
          "duration": 0.05813953488370771
        },
        {
          "name": "B6",
          "midi": 95,
          "time": 150.23255813951567,
          "velocity": 0.15748031496062992,
          "duration": 0.034883720930224626
        },
        {
          "name": "D7",
          "midi": 98,
          "time": 150.23255813951567,
          "velocity": 0.2047244094488189,
          "duration": 0.034883720930224626
        },
        {
          "name": "D#7",
          "midi": 99,
          "time": 150.23255813951567,
          "velocity": 0.16535433070866143,
          "duration": 0.04651162790696617
        },
        {
          "name": "F3",
          "midi": 53,
          "time": 150.24418604649242,
          "velocity": 0.2283464566929134,
          "duration": 0.20930232558137618
        },
        {
          "name": "C7",
          "midi": 96,
          "time": 150.24418604649242,
          "velocity": 0.14960629921259844,
          "duration": 0.04651162790696617
        },
        {
          "name": "C#7",
          "midi": 97,
          "time": 150.24418604649242,
          "velocity": 0.16535433070866143,
          "duration": 0.04651162790696617
        },
        {
          "name": "F7",
          "midi": 101,
          "time": 150.24418604649242,
          "velocity": 0.11811023622047244,
          "duration": 0.034883720930224626
        },
        {
          "name": "E7",
          "midi": 100,
          "time": 150.2674418604459,
          "velocity": 0.09448818897637795,
          "duration": 0.034883720930224626
        },
        {
          "name": "G#4",
          "midi": 68,
          "time": 150.29069767439938,
          "velocity": 0.14173228346456693,
          "duration": 0.3720930232558146
        },
        {
          "name": "F#3",
          "midi": 54,
          "time": 150.4534883720738,
          "velocity": 0.1732283464566929,
          "duration": 0.22093023255814614
        },
        {
          "name": "G#3",
          "midi": 56,
          "time": 150.67441860463194,
          "velocity": 0.1889763779527559,
          "duration": 0.19767441860463464
        },
        {
          "name": "A#4",
          "midi": 70,
          "time": 150.7209302325389,
          "velocity": 0.14173228346456693,
          "duration": 0.3953488372092977
        },
        {
          "name": "A#3",
          "midi": 58,
          "time": 150.87209302323657,
          "velocity": 0.18110236220472442,
          "duration": 0.2093023255814046
        },
        {
          "name": "F5",
          "midi": 77,
          "time": 151.08139534881798,
          "velocity": 0.2440944881889764,
          "duration": 0.25581395348834235
        },
        {
          "name": "G#4",
          "midi": 68,
          "time": 151.09302325579472,
          "velocity": 0.1732283464566929,
          "duration": 1.1511627906975548
        },
        {
          "name": "F1",
          "midi": 29,
          "time": 151.10465116277146,
          "velocity": 0.5590551181102362,
          "duration": 0.011627906976741542
        },
        {
          "name": "C3",
          "midi": 48,
          "time": 151.10465116277146,
          "velocity": 0.2440944881889764,
          "duration": 0.023255813953483084
        },
        {
          "name": "E1",
          "midi": 28,
          "time": 151.1162790697482,
          "velocity": 0.5669291338582677,
          "duration": 0.011627906976741542
        },
        {
          "name": "G3",
          "midi": 55,
          "time": 151.1162790697482,
          "velocity": 0.3543307086614173,
          "duration": 0.8372093023255047
        },
        {
          "name": "A#3",
          "midi": 58,
          "time": 151.1162790697482,
          "velocity": 0.25196850393700787,
          "duration": 0.023255813953483084
        },
        {
          "name": "D#1",
          "midi": 27,
          "time": 151.12790697672494,
          "velocity": 0.5905511811023622,
          "duration": 1.2441860465115155
        },
        {
          "name": "A#2",
          "midi": 46,
          "time": 151.16279069765517,
          "velocity": 0.25984251968503935,
          "duration": 0.023255813953483084
        },
        {
          "name": "A#2",
          "midi": 46,
          "time": 151.1976744185854,
          "velocity": 0.2755905511811024,
          "duration": 0.32558139534882
        },
        {
          "name": "B4",
          "midi": 71,
          "time": 151.5232558139342,
          "velocity": 0.2125984251968504,
          "duration": 0.24418604651162923
        },
        {
          "name": "A#2",
          "midi": 46,
          "time": 151.53488372091095,
          "velocity": 0.25984251968503935,
          "duration": 0.11627906976744384
        },
        {
          "name": "A#2",
          "midi": 46,
          "time": 151.66279069765514,
          "velocity": 0.23622047244094488,
          "duration": 0.09302325581396076
        },
        {
          "name": "A#2",
          "midi": 46,
          "time": 151.79069767439933,
          "velocity": 0.2047244094488189,
          "duration": 0.05813953488370771
        },
        {
          "name": "A#3",
          "midi": 58,
          "time": 151.86046511625977,
          "velocity": 0.13385826771653545,
          "duration": 0.04651162790696617
        },
        {
          "name": "A#2",
          "midi": 46,
          "time": 151.91860465114348,
          "velocity": 0.1732283464566929,
          "duration": 0.034883720930224626
        },
        {
          "name": "A#4",
          "midi": 70,
          "time": 151.9534883720737,
          "velocity": 0.1889763779527559,
          "duration": 0.616279069767387
        },
        {
          "name": "D7",
          "midi": 98,
          "time": 151.9534883720737,
          "velocity": 0.16535433070866143,
          "duration": 0.034883720930224626
        },
        {
          "name": "D#7",
          "midi": 99,
          "time": 151.9534883720737,
          "velocity": 0.10236220472440945,
          "duration": 0.04651162790696617
        },
        {
          "name": "A#6",
          "midi": 94,
          "time": 151.96511627905045,
          "velocity": 0.12598425196850394,
          "duration": 0.034883720930224626
        },
        {
          "name": "C#7",
          "midi": 97,
          "time": 151.96511627905045,
          "velocity": 0.12598425196850394,
          "duration": 0.04651162790696617
        },
        {
          "name": "A#3",
          "midi": 58,
          "time": 151.98837209300393,
          "velocity": 0.13385826771653545,
          "duration": 0.04651162790696617
        },
        {
          "name": "D#3",
          "midi": 51,
          "time": 151.99999999998067,
          "velocity": 0.14960629921259844,
          "duration": 0.034883720930224626
        },
        {
          "name": "A#3",
          "midi": 58,
          "time": 152.04651162788764,
          "velocity": 0.12598425196850394,
          "duration": 0.33720930232556157
        },
        {
          "name": "D#3",
          "midi": 51,
          "time": 152.10465116277135,
          "velocity": 0.14173228346456693,
          "duration": 0.2674418604651123
        },
        {
          "name": "G#4",
          "midi": 68,
          "time": 152.25581395346902,
          "velocity": 0.11023622047244094,
          "duration": 0.12790697674418539
        },
        {
          "name": "E3",
          "midi": 52,
          "time": 152.37209302323646,
          "velocity": 0.25196850393700787,
          "duration": 0.023255813953483084
        },
        {
          "name": "F3",
          "midi": 53,
          "time": 152.39534883718994,
          "velocity": 0.28346456692913385,
          "duration": 0.023255813953483084
        },
        {
          "name": "D#4",
          "midi": 63,
          "time": 152.39534883718994,
          "velocity": 0.1732283464566929,
          "duration": 1.2906976744184533
        },
        {
          "name": "B0",
          "midi": 23,
          "time": 152.41860465114343,
          "velocity": 0.5354330708661418,
          "duration": 1.2790697674417117
        },
        {
          "name": "F#3",
          "midi": 54,
          "time": 152.41860465114343,
          "velocity": 0.29133858267716534,
          "duration": 0.023255813953483084
        },
        {
          "name": "D#3",
          "midi": 51,
          "time": 152.45348837207365,
          "velocity": 0.33858267716535434,
          "duration": 0.22093023255811772
        },
        {
          "name": "F#2",
          "midi": 42,
          "time": 152.53488372091087,
          "velocity": 0.25196850393700787,
          "duration": 0.023255813953483084
        },
        {
          "name": "F#2",
          "midi": 42,
          "time": 152.5697674418411,
          "velocity": 0.2677165354330709,
          "duration": 0.023255813953483084
        },
        {
          "name": "F#2",
          "midi": 42,
          "time": 152.61627906974806,
          "velocity": 0.2677165354330709,
          "duration": 0.023255813953483084
        },
        {
          "name": "D#3",
          "midi": 51,
          "time": 152.6860465116085,
          "velocity": 0.33070866141732286,
          "duration": 0.023255813953483084
        },
        {
          "name": "D#3",
          "midi": 51,
          "time": 152.72093023253873,
          "velocity": 0.3228346456692913,
          "duration": 0.023255813953483084
        },
        {
          "name": "D#3",
          "midi": 51,
          "time": 152.75581395346896,
          "velocity": 0.30708661417322836,
          "duration": 0.023255813953483084
        },
        {
          "name": "F#2",
          "midi": 42,
          "time": 152.77906976742244,
          "velocity": 0.2677165354330709,
          "duration": 0.023255813953483084
        },
        {
          "name": "D#3",
          "midi": 51,
          "time": 152.80232558137592,
          "velocity": 0.29133858267716534,
          "duration": 0.034883720930224626
        },
        {
          "name": "F#2",
          "midi": 42,
          "time": 152.81395348835267,
          "velocity": 0.2440944881889764,
          "duration": 0.034883720930224626
        },
        {
          "name": "D#3",
          "midi": 51,
          "time": 152.8488372092829,
          "velocity": 0.28346456692913385,
          "duration": 0.023255813953483084
        },
        {
          "name": "A#4",
          "midi": 70,
          "time": 152.8488372092829,
          "velocity": 0.10236220472440945,
          "duration": 0.8139534883720216
        },
        {
          "name": "F#2",
          "midi": 42,
          "time": 152.86046511625963,
          "velocity": 0.2440944881889764,
          "duration": 0.023255813953483084
        },
        {
          "name": "D#3",
          "midi": 51,
          "time": 152.88372093021312,
          "velocity": 0.2755905511811024,
          "duration": 0.023255813953483084
        },
        {
          "name": "F#2",
          "midi": 42,
          "time": 152.89534883718986,
          "velocity": 0.25196850393700787,
          "duration": 0.023255813953483084
        },
        {
          "name": "F#2",
          "midi": 42,
          "time": 152.94186046509682,
          "velocity": 0.2440944881889764,
          "duration": 0.023255813953483084
        },
        {
          "name": "D#3",
          "midi": 51,
          "time": 152.9651162790503,
          "velocity": 0.25196850393700787,
          "duration": 0.034883720930224626
        },
        {
          "name": "F#2",
          "midi": 42,
          "time": 152.97674418602705,
          "velocity": 0.2283464566929134,
          "duration": 0.023255813953483084
        },
        {
          "name": "D7",
          "midi": 98,
          "time": 153.02325581393401,
          "velocity": 0.13385826771653545,
          "duration": 0.034883720930224626
        },
        {
          "name": "A#6",
          "midi": 94,
          "time": 153.03488372091076,
          "velocity": 0.08661417322834646,
          "duration": 0.034883720930224626
        },
        {
          "name": "D#7",
          "midi": 99,
          "time": 153.03488372091076,
          "velocity": 0.08661417322834646,
          "duration": 0.034883720930224626
        },
        {
          "name": "F#2",
          "midi": 42,
          "time": 153.05813953486424,
          "velocity": 0.2283464566929134,
          "duration": 0.023255813953483084
        },
        {
          "name": "F#2",
          "midi": 42,
          "time": 153.1046511627712,
          "velocity": 0.2204724409448819,
          "duration": 0.05813953488370771
        },
        {
          "name": "D#7",
          "midi": 99,
          "time": 153.67441860463165,
          "velocity": 0.08661417322834646,
          "duration": 0.034883720930224626
        },
        {
          "name": "F#3",
          "midi": 54,
          "time": 153.6860465116084,
          "velocity": 0.08661417322834646,
          "duration": 0.20930232558137618
        },
        {
          "name": "C#7",
          "midi": 97,
          "time": 153.6860465116084,
          "velocity": 0.07874015748031496,
          "duration": 0.034883720930224626
        },
        {
          "name": "B0",
          "midi": 23,
          "time": 153.70930232556188,
          "velocity": 0.3464566929133858,
          "duration": 0.6046511627907023
        },
        {
          "name": "F3",
          "midi": 53,
          "time": 153.89534883718977,
          "velocity": 0.07874015748031496,
          "duration": 0.19767441860466306
        },
        {
          "name": "D#3",
          "midi": 51,
          "time": 154.09302325579444,
          "velocity": 0.07874015748031496,
          "duration": 0.22093023255814614
        },
        {
          "name": "F#1",
          "midi": 30,
          "time": 154.523255813934,
          "velocity": 0.41732283464566927,
          "duration": 0.023255813953483084
        },
        {
          "name": "F5",
          "midi": 77,
          "time": 154.53488372091073,
          "velocity": 0.11811023622047244,
          "duration": 0.20930232558137618
        },
        {
          "name": "D#1",
          "midi": 27,
          "time": 154.5581395348642,
          "velocity": 0.47244094488188976,
          "duration": 1.244186046511544
        },
        {
          "name": "G3",
          "midi": 55,
          "time": 154.5581395348642,
          "velocity": 0.2283464566929134,
          "duration": 0.8139534883720216
        },
        {
          "name": "A#2",
          "midi": 46,
          "time": 154.60465116277118,
          "velocity": 0.14960629921259844,
          "duration": 0.08139534883721922
        },
        {
          "name": "A#2",
          "midi": 46,
          "time": 154.69767441858514,
          "velocity": 0.14960629921259844,
          "duration": 0.05813953488370771
        },
        {
          "name": "A#2",
          "midi": 46,
          "time": 154.7674418604456,
          "velocity": 0.13385826771653545,
          "duration": 0.04651162790696617
        },
        {
          "name": "A#2",
          "midi": 46,
          "time": 154.8255813953293,
          "velocity": 0.14173228346456693,
          "duration": 0.08139534883721922
        },
        {
          "name": "A#2",
          "midi": 46,
          "time": 154.91860465114326,
          "velocity": 0.13385826771653545,
          "duration": 0.22093023255811772
        },
        {
          "name": "B4",
          "midi": 71,
          "time": 154.97674418602696,
          "velocity": 0.07086614173228346,
          "duration": 0.20930232558137618
        },
        {
          "name": "A#2",
          "midi": 46,
          "time": 155.15116279067811,
          "velocity": 0.07086614173228346,
          "duration": 0.04651162790696617
        },
        {
          "name": "C1",
          "midi": 24,
          "time": 155.80232558137575,
          "velocity": 0.25984251968503935,
          "duration": 0.023255813953483084
        },
        {
          "name": "D1",
          "midi": 26,
          "time": 155.82558139532924,
          "velocity": 0.3464566929133858,
          "duration": 0.023255813953483084
        },
        {
          "name": "B0",
          "midi": 23,
          "time": 155.84883720928272,
          "velocity": 0.36220472440944884,
          "duration": 0.1046511627907023
        },
        {
          "name": "D#3",
          "midi": 51,
          "time": 155.94186046509668,
          "velocity": 0.14960629921259844,
          "duration": 0.034883720930224626
        },
        {
          "name": "B0",
          "midi": 23,
          "time": 155.96511627905016,
          "velocity": 0.36220472440944884,
          "duration": 1.0581395348837077
        },
        {
          "name": "D#3",
          "midi": 51,
          "time": 156.33720930230598,
          "velocity": 0.07086614173228346,
          "duration": 0.034883720930224626
        },
        {
          "name": "B0",
          "midi": 23,
          "time": 157.0348837209106,
          "velocity": 0.10236220472440945,
          "duration": 0.15116279069766847
        }
      ],
      "controlChanges": {},
      "id": 0,
      "instrumentNumber": 0,
      "instrument": "acoustic grand piano",
      "instrumentFamily": "piano",
      "channelNumber": 0,
      "isPercussion": false
    }
  ]
}